<?xml version="1.0" encoding="utf-8" standalone="no"?>
<!DOCTYPE svg PUBLIC "-//W3C//DTD SVG 1.1//EN"
  "http://www.w3.org/Graphics/SVG/1.1/DTD/svg11.dtd">
<svg xmlns:xlink="http://www.w3.org/1999/xlink" width="584.399617pt" height="728.39952pt" viewBox="0 0 584.399617 728.39952" xmlns="http://www.w3.org/2000/svg" version="1.1">
 <metadata>
  <rdf:RDF xmlns:dc="http://purl.org/dc/elements/1.1/" xmlns:cc="http://creativecommons.org/ns#" xmlns:rdf="http://www.w3.org/1999/02/22-rdf-syntax-ns#">
   <cc:Work>
    <dc:type rdf:resource="http://purl.org/dc/dcmitype/StillImage"/>
    <dc:date>2025-10-17T00:44:17.826834</dc:date>
    <dc:format>image/svg+xml</dc:format>
    <dc:creator>
     <cc:Agent>
      <dc:title>Matplotlib v3.7.2, https://matplotlib.org/</dc:title>
     </cc:Agent>
    </dc:creator>
   </cc:Work>
  </rdf:RDF>
 </metadata>
 <defs>
  <style type="text/css">*{stroke-linejoin: round; stroke-linecap: butt}</style>
 </defs>
 <g id="figure_1">
  <g id="patch_1">
   <path d="M 0 728.39952 
L 584.399617 728.39952 
L 584.399617 0 
L 0 0 
z
" style="fill: #ffffff"/>
  </g>
  <g id="axes_1">
   <g id="patch_2">
    <path d="M 51.488605 101.595542 
L 566.891558 101.595542 
L 566.891558 24.174855 
L 51.488605 24.174855 
z
" style="fill: #ffffff"/>
   </g>
   <g id="matplotlib.axis_1">
    <g id="xtick_1">
     <g id="line2d_1">
      <path d="M 122.335968 101.595542 
L 122.335968 24.174855 
" clip-path="url(#p34ee44dee6)" style="fill: none; stroke-dasharray: 2.96,1.28; stroke-dashoffset: 0; stroke: #cccccc; stroke-opacity: 0.6; stroke-width: 0.8"/>
     </g>
    </g>
    <g id="xtick_2">
     <g id="line2d_2">
      <path d="M 217.240838 101.595542 
L 217.240838 24.174855 
" clip-path="url(#p34ee44dee6)" style="fill: none; stroke-dasharray: 2.96,1.28; stroke-dashoffset: 0; stroke: #cccccc; stroke-opacity: 0.6; stroke-width: 0.8"/>
     </g>
    </g>
    <g id="xtick_3">
     <g id="line2d_3">
      <path d="M 312.145709 101.595542 
L 312.145709 24.174855 
" clip-path="url(#p34ee44dee6)" style="fill: none; stroke-dasharray: 2.96,1.28; stroke-dashoffset: 0; stroke: #cccccc; stroke-opacity: 0.6; stroke-width: 0.8"/>
     </g>
    </g>
    <g id="xtick_4">
     <g id="line2d_4">
      <path d="M 407.05058 101.595542 
L 407.05058 24.174855 
" clip-path="url(#p34ee44dee6)" style="fill: none; stroke-dasharray: 2.96,1.28; stroke-dashoffset: 0; stroke: #cccccc; stroke-opacity: 0.6; stroke-width: 0.8"/>
     </g>
    </g>
    <g id="xtick_5">
     <g id="line2d_5">
      <path d="M 501.95545 101.595542 
L 501.95545 24.174855 
" clip-path="url(#p34ee44dee6)" style="fill: none; stroke-dasharray: 2.96,1.28; stroke-dashoffset: 0; stroke: #cccccc; stroke-opacity: 0.6; stroke-width: 0.8"/>
     </g>
    </g>
   </g>
   <g id="matplotlib.axis_2">
    <g id="ytick_1">
     <g id="line2d_6">
      <path d="M 51.488605 93.954919 
L 566.891558 93.954919 
" clip-path="url(#p34ee44dee6)" style="fill: none; stroke-dasharray: 2.96,1.28; stroke-dashoffset: 0; stroke: #cccccc; stroke-opacity: 0.6; stroke-width: 0.8"/>
     </g>
     <g id="text_1">
      <!-- 400 -->
      <g style="fill: #262626" transform="translate(29.474074 97.175935) scale(0.09 -0.09)">
       <defs>
        <path id="ArialMT-34" d="M 2069 0 
L 2069 1097 
L 81 1097 
L 81 1613 
L 2172 4581 
L 2631 4581 
L 2631 1613 
L 3250 1613 
L 3250 1097 
L 2631 1097 
L 2631 0 
L 2069 0 
z
M 2069 1613 
L 2069 3678 
L 634 1613 
L 2069 1613 
z
" transform="scale(0.015625)"/>
        <path id="ArialMT-30" d="M 266 2259 
Q 266 3072 433 3567 
Q 600 4063 929 4331 
Q 1259 4600 1759 4600 
Q 2128 4600 2406 4451 
Q 2684 4303 2865 4023 
Q 3047 3744 3150 3342 
Q 3253 2941 3253 2259 
Q 3253 1453 3087 958 
Q 2922 463 2592 192 
Q 2263 -78 1759 -78 
Q 1097 -78 719 397 
Q 266 969 266 2259 
z
M 844 2259 
Q 844 1131 1108 757 
Q 1372 384 1759 384 
Q 2147 384 2411 759 
Q 2675 1134 2675 2259 
Q 2675 3391 2411 3762 
Q 2147 4134 1753 4134 
Q 1366 4134 1134 3806 
Q 844 3388 844 2259 
z
" transform="scale(0.015625)"/>
       </defs>
       <use xlink:href="#ArialMT-34"/>
       <use xlink:href="#ArialMT-30" x="55.615234"/>
       <use xlink:href="#ArialMT-30" x="111.230469"/>
      </g>
     </g>
    </g>
    <g id="ytick_2">
     <g id="line2d_7">
      <path d="M 51.488605 55.905673 
L 566.891558 55.905673 
" clip-path="url(#p34ee44dee6)" style="fill: none; stroke-dasharray: 2.96,1.28; stroke-dashoffset: 0; stroke: #cccccc; stroke-opacity: 0.6; stroke-width: 0.8"/>
     </g>
     <g id="text_2">
      <!-- 600 -->
      <g style="fill: #262626" transform="translate(29.474074 59.126688) scale(0.09 -0.09)">
       <defs>
        <path id="ArialMT-36" d="M 3184 3459 
L 2625 3416 
Q 2550 3747 2413 3897 
Q 2184 4138 1850 4138 
Q 1581 4138 1378 3988 
Q 1113 3794 959 3422 
Q 806 3050 800 2363 
Q 1003 2672 1297 2822 
Q 1591 2972 1913 2972 
Q 2475 2972 2870 2558 
Q 3266 2144 3266 1488 
Q 3266 1056 3080 686 
Q 2894 316 2569 119 
Q 2244 -78 1831 -78 
Q 1128 -78 684 439 
Q 241 956 241 2144 
Q 241 3472 731 4075 
Q 1159 4600 1884 4600 
Q 2425 4600 2770 4297 
Q 3116 3994 3184 3459 
z
M 888 1484 
Q 888 1194 1011 928 
Q 1134 663 1356 523 
Q 1578 384 1822 384 
Q 2178 384 2434 671 
Q 2691 959 2691 1453 
Q 2691 1928 2437 2201 
Q 2184 2475 1800 2475 
Q 1419 2475 1153 2201 
Q 888 1928 888 1484 
z
" transform="scale(0.015625)"/>
       </defs>
       <use xlink:href="#ArialMT-36"/>
       <use xlink:href="#ArialMT-30" x="55.615234"/>
       <use xlink:href="#ArialMT-30" x="111.230469"/>
      </g>
     </g>
    </g>
   </g>
   <g id="line2d_8">
    <path d="M 74.916012 65.227372 
L 80.762308 90.906105 
L 86.673563 87.100535 
L 92.649776 84.480952 
L 98.62599 98.03136 
L 104.472286 63.862124 
L 110.383541 84.651651 
L 116.359754 56.890113 
L 122.335968 55.968732 
L 128.247223 64.060567 
L 134.158477 86.342329 
L 140.134691 75.999586 
L 146.110905 95.751128 
L 151.957201 52.40862 
L 157.868455 65.98285 
L 163.844669 68.666914 
L 169.820883 84.727533 
L 175.667179 65.922381 
L 181.578433 83.286918 
L 187.554647 70.769561 
L 193.530861 98.076419 
L 199.377156 85.223988 
L 205.288411 67.280505 
L 211.264625 59.665454 
L 217.240838 76.425234 
L 223.152093 78.078588 
L 229.063348 89.408926 
L 235.039562 78.428068 
L 241.015775 71.516522 
L 246.862071 79.04501 
L 252.773326 62.03696 
L 258.74954 89.541494 
L 264.725753 84.83184 
L 270.572049 65.430374 
L 276.483304 83.496768 
L 282.459518 86.358749 
L 288.435731 75.832538 
L 294.282027 79.492473 
L 300.193282 70.611554 
L 306.169495 82.293848 
L 312.145709 79.831238 
L 318.056964 78.229962 
L 323.968219 69.318655 
L 329.944432 80.667782 
L 335.920646 76.355507 
L 341.766942 94.57325 
L 347.678197 92.022903 
L 353.65441 88.655459 
L 359.630624 52.706721 
L 365.47692 64.520323 
L 371.388175 85.617596 
L 377.364388 81.53014 
L 383.340602 97.588544 
L 389.186898 84.909086 
L 395.098152 75.80718 
L 401.074366 79.582142 
L 407.05058 85.031505 
L 412.961834 83.148559 
L 418.873089 70.775944 
L 424.849303 72.691847 
L 430.825516 70.259073 
L 436.671812 79.585145 
L 442.583067 73.691395 
L 448.559281 69.301955 
L 454.535494 67.204868 
L 460.38179 58.411685 
L 466.293045 54.723836 
L 472.269259 69.805232 
L 478.245472 62.348273 
L 484.091768 71.720777 
L 490.003023 39.125349 
L 495.979237 56.429693 
L 501.95545 51.122571 
L 507.866705 57.311878 
L 513.77796 61.149412 
L 519.754173 43.118436 
L 525.730387 49.367148 
L 531.576683 27.693977 
L 537.487938 49.863471 
L 543.464151 33.013464 
" clip-path="url(#p34ee44dee6)" style="fill: none; stroke: #000000; stroke-width: 1.5; stroke-linecap: round"/>
   </g>
   <g id="patch_3">
    <path d="M 51.488605 101.595542 
L 51.488605 24.174855 
" style="fill: none; stroke: #cccccc; stroke-linejoin: miter; stroke-linecap: square"/>
   </g>
   <g id="patch_4">
    <path d="M 566.891558 101.595542 
L 566.891558 24.174855 
" style="fill: none; stroke: #cccccc; stroke-linejoin: miter; stroke-linecap: square"/>
   </g>
   <g id="patch_5">
    <path d="M 51.488605 101.595542 
L 566.891558 101.595542 
" style="fill: none; stroke: #cccccc; stroke-linejoin: miter; stroke-linecap: square"/>
   </g>
   <g id="patch_6">
    <path d="M 51.488605 24.174855 
L 566.891558 24.174855 
" style="fill: none; stroke: #cccccc; stroke-linejoin: miter; stroke-linecap: square"/>
   </g>
   <g id="text_3">
    <!-- ACT -->
    <g style="fill: #262626" transform="translate(570.041805 52.885198) rotate(-270) scale(0.1 -0.1)">
     <defs>
      <path id="ArialMT-41" d="M -9 0 
L 1750 4581 
L 2403 4581 
L 4278 0 
L 3588 0 
L 3053 1388 
L 1138 1388 
L 634 0 
L -9 0 
z
M 1313 1881 
L 2866 1881 
L 2388 3150 
Q 2169 3728 2063 4100 
Q 1975 3659 1816 3225 
L 1313 1881 
z
" transform="scale(0.015625)"/>
      <path id="ArialMT-43" d="M 3763 1606 
L 4369 1453 
Q 4178 706 3683 314 
Q 3188 -78 2472 -78 
Q 1731 -78 1267 223 
Q 803 525 561 1097 
Q 319 1669 319 2325 
Q 319 3041 592 3573 
Q 866 4106 1370 4382 
Q 1875 4659 2481 4659 
Q 3169 4659 3637 4309 
Q 4106 3959 4291 3325 
L 3694 3184 
Q 3534 3684 3231 3912 
Q 2928 4141 2469 4141 
Q 1941 4141 1586 3887 
Q 1231 3634 1087 3207 
Q 944 2781 944 2328 
Q 944 1744 1114 1308 
Q 1284 872 1643 656 
Q 2003 441 2422 441 
Q 2931 441 3284 734 
Q 3638 1028 3763 1606 
z
" transform="scale(0.015625)"/>
      <path id="ArialMT-54" d="M 1659 0 
L 1659 4041 
L 150 4041 
L 150 4581 
L 3781 4581 
L 3781 4041 
L 2266 4041 
L 2266 0 
L 1659 0 
z
" transform="scale(0.015625)"/>
     </defs>
     <use xlink:href="#ArialMT-41"/>
     <use xlink:href="#ArialMT-43" x="66.699219"/>
     <use xlink:href="#ArialMT-54" x="138.916016"/>
    </g>
   </g>
  </g>
  <g id="axes_2">
   <g id="patch_7">
    <path d="M 51.488605 186.095493 
L 566.891558 186.095493 
L 566.891558 108.674807 
L 51.488605 108.674807 
z
" style="fill: #ffffff"/>
   </g>
   <g id="matplotlib.axis_3">
    <g id="xtick_6">
     <g id="line2d_9">
      <path d="M 122.335968 186.095493 
L 122.335968 108.674807 
" clip-path="url(#p446a6d1de1)" style="fill: none; stroke-dasharray: 2.96,1.28; stroke-dashoffset: 0; stroke: #cccccc; stroke-opacity: 0.6; stroke-width: 0.8"/>
     </g>
    </g>
    <g id="xtick_7">
     <g id="line2d_10">
      <path d="M 217.240838 186.095493 
L 217.240838 108.674807 
" clip-path="url(#p446a6d1de1)" style="fill: none; stroke-dasharray: 2.96,1.28; stroke-dashoffset: 0; stroke: #cccccc; stroke-opacity: 0.6; stroke-width: 0.8"/>
     </g>
    </g>
    <g id="xtick_8">
     <g id="line2d_11">
      <path d="M 312.145709 186.095493 
L 312.145709 108.674807 
" clip-path="url(#p446a6d1de1)" style="fill: none; stroke-dasharray: 2.96,1.28; stroke-dashoffset: 0; stroke: #cccccc; stroke-opacity: 0.6; stroke-width: 0.8"/>
     </g>
    </g>
    <g id="xtick_9">
     <g id="line2d_12">
      <path d="M 407.05058 186.095493 
L 407.05058 108.674807 
" clip-path="url(#p446a6d1de1)" style="fill: none; stroke-dasharray: 2.96,1.28; stroke-dashoffset: 0; stroke: #cccccc; stroke-opacity: 0.6; stroke-width: 0.8"/>
     </g>
    </g>
    <g id="xtick_10">
     <g id="line2d_13">
      <path d="M 501.95545 186.095493 
L 501.95545 108.674807 
" clip-path="url(#p446a6d1de1)" style="fill: none; stroke-dasharray: 2.96,1.28; stroke-dashoffset: 0; stroke: #cccccc; stroke-opacity: 0.6; stroke-width: 0.8"/>
     </g>
    </g>
   </g>
   <g id="matplotlib.axis_4">
    <g id="ytick_3">
     <g id="line2d_14">
      <path d="M 51.488605 174.791445 
L 566.891558 174.791445 
" clip-path="url(#p446a6d1de1)" style="fill: none; stroke-dasharray: 2.96,1.28; stroke-dashoffset: 0; stroke: #cccccc; stroke-opacity: 0.6; stroke-width: 0.8"/>
     </g>
     <g id="text_4">
      <!-- 6000 -->
      <g style="fill: #262626" transform="translate(24.46923 178.012461) scale(0.09 -0.09)">
       <use xlink:href="#ArialMT-36"/>
       <use xlink:href="#ArialMT-30" x="55.615234"/>
       <use xlink:href="#ArialMT-30" x="111.230469"/>
       <use xlink:href="#ArialMT-30" x="166.845703"/>
      </g>
     </g>
    </g>
    <g id="ytick_4">
     <g id="line2d_15">
      <path d="M 51.488605 150.170896 
L 566.891558 150.170896 
" clip-path="url(#p446a6d1de1)" style="fill: none; stroke-dasharray: 2.96,1.28; stroke-dashoffset: 0; stroke: #cccccc; stroke-opacity: 0.6; stroke-width: 0.8"/>
     </g>
     <g id="text_5">
      <!-- 7000 -->
      <g style="fill: #262626" transform="translate(24.46923 153.391911) scale(0.09 -0.09)">
       <defs>
        <path id="ArialMT-37" d="M 303 3981 
L 303 4522 
L 3269 4522 
L 3269 4084 
Q 2831 3619 2401 2847 
Q 1972 2075 1738 1259 
Q 1569 684 1522 0 
L 944 0 
Q 953 541 1156 1306 
Q 1359 2072 1739 2783 
Q 2119 3494 2547 3981 
L 303 3981 
z
" transform="scale(0.015625)"/>
       </defs>
       <use xlink:href="#ArialMT-37"/>
       <use xlink:href="#ArialMT-30" x="55.615234"/>
       <use xlink:href="#ArialMT-30" x="111.230469"/>
       <use xlink:href="#ArialMT-30" x="166.845703"/>
      </g>
     </g>
    </g>
    <g id="ytick_5">
     <g id="line2d_16">
      <path d="M 51.488605 125.550346 
L 566.891558 125.550346 
" clip-path="url(#p446a6d1de1)" style="fill: none; stroke-dasharray: 2.96,1.28; stroke-dashoffset: 0; stroke: #cccccc; stroke-opacity: 0.6; stroke-width: 0.8"/>
     </g>
     <g id="text_6">
      <!-- 8000 -->
      <g style="fill: #262626" transform="translate(24.46923 128.771362) scale(0.09 -0.09)">
       <defs>
        <path id="ArialMT-38" d="M 1131 2484 
Q 781 2613 612 2850 
Q 444 3088 444 3419 
Q 444 3919 803 4259 
Q 1163 4600 1759 4600 
Q 2359 4600 2725 4251 
Q 3091 3903 3091 3403 
Q 3091 3084 2923 2848 
Q 2756 2613 2416 2484 
Q 2838 2347 3058 2040 
Q 3278 1734 3278 1309 
Q 3278 722 2862 322 
Q 2447 -78 1769 -78 
Q 1091 -78 675 323 
Q 259 725 259 1325 
Q 259 1772 486 2073 
Q 713 2375 1131 2484 
z
M 1019 3438 
Q 1019 3113 1228 2906 
Q 1438 2700 1772 2700 
Q 2097 2700 2305 2904 
Q 2513 3109 2513 3406 
Q 2513 3716 2298 3927 
Q 2084 4138 1766 4138 
Q 1444 4138 1231 3931 
Q 1019 3725 1019 3438 
z
M 838 1322 
Q 838 1081 952 856 
Q 1066 631 1291 507 
Q 1516 384 1775 384 
Q 2178 384 2440 643 
Q 2703 903 2703 1303 
Q 2703 1709 2433 1975 
Q 2163 2241 1756 2241 
Q 1359 2241 1098 1978 
Q 838 1716 838 1322 
z
" transform="scale(0.015625)"/>
       </defs>
       <use xlink:href="#ArialMT-38"/>
       <use xlink:href="#ArialMT-30" x="55.615234"/>
       <use xlink:href="#ArialMT-30" x="111.230469"/>
       <use xlink:href="#ArialMT-30" x="166.845703"/>
      </g>
     </g>
    </g>
   </g>
   <g id="line2d_17">
    <path d="M 74.916012 124.570576 
L 80.762308 146.083544 
L 86.673563 156.376855 
L 92.649776 143.225873 
L 98.62599 135.773368 
L 104.472286 148.840433 
L 110.383541 156.974116 
L 116.359754 146.828239 
L 122.335968 142.883542 
L 128.247223 163.82988 
L 134.158477 152.167672 
L 140.134691 144.488774 
L 146.110905 144.324196 
L 151.957201 150.268809 
L 157.868455 158.144468 
L 163.844669 143.045511 
L 169.820883 140.789965 
L 175.667179 142.276846 
L 181.578433 144.017904 
L 187.554647 136.510334 
L 193.530861 136.769242 
L 199.377156 151.989864 
L 205.288411 146.193012 
L 211.264625 150.72431 
L 217.240838 133.007081 
L 223.152093 150.390091 
L 229.063348 164.912689 
L 235.039562 156.595549 
L 241.015775 140.978879 
L 246.862071 174.091394 
L 252.773326 177.429833 
L 258.74954 168.590017 
L 264.725753 142.705139 
L 270.572049 157.189682 
L 276.483304 176.148263 
L 282.459518 160.054914 
L 288.435731 153.570701 
L 294.282027 157.347669 
L 300.193282 175.066422 
L 306.169495 167.033026 
L 312.145709 137.4855 
L 318.056964 167.886513 
L 323.968219 174.400337 
L 329.944432 171.834408 
L 335.920646 161.556949 
L 341.766942 182.576371 
L 347.678197 181.713729 
L 353.65441 160.402129 
L 359.630624 157.109434 
L 365.47692 177.605437 
L 371.388175 161.736709 
L 377.364388 164.519424 
L 383.340602 144.723728 
L 389.186898 158.812152 
L 395.098152 165.569499 
L 401.074366 166.666364 
L 407.05058 149.452906 
L 412.961834 161.885747 
L 418.873089 168.350343 
L 424.849303 152.556179 
L 430.825516 150.884861 
L 436.671812 156.23209 
L 442.583067 156.028283 
L 448.559281 149.241135 
L 454.535494 142.257329 
L 460.38179 152.98356 
L 466.293045 157.500981 
L 472.269259 139.879596 
L 478.245472 134.153463 
L 484.091768 140.933055 
L 490.003023 151.124937 
L 495.979237 131.458809 
L 501.95545 118.462777 
L 507.866705 133.907062 
L 513.77796 142.137095 
L 519.754173 125.661084 
L 525.730387 117.65445 
L 531.576683 118.532842 
L 537.487938 118.207084 
L 543.464151 112.193929 
" clip-path="url(#p446a6d1de1)" style="fill: none; stroke: #000000; stroke-width: 1.5; stroke-linecap: round"/>
   </g>
   <g id="patch_8">
    <path d="M 51.488605 186.095493 
L 51.488605 108.674807 
" style="fill: none; stroke: #cccccc; stroke-linejoin: miter; stroke-linecap: square"/>
   </g>
   <g id="patch_9">
    <path d="M 566.891558 186.095493 
L 566.891558 108.674807 
" style="fill: none; stroke: #cccccc; stroke-linejoin: miter; stroke-linecap: square"/>
   </g>
   <g id="patch_10">
    <path d="M 51.488605 186.095493 
L 566.891558 186.095493 
" style="fill: none; stroke: #cccccc; stroke-linejoin: miter; stroke-linecap: square"/>
   </g>
   <g id="patch_11">
    <path d="M 51.488605 108.674807 
L 566.891558 108.674807 
" style="fill: none; stroke: #cccccc; stroke-linejoin: miter; stroke-linecap: square"/>
   </g>
   <g id="text_7">
    <!-- New South Wales -->
    <g style="fill: #262626" transform="translate(570.041805 107.83515) rotate(-270) scale(0.1 -0.1)">
     <defs>
      <path id="ArialMT-4e" d="M 488 0 
L 488 4581 
L 1109 4581 
L 3516 984 
L 3516 4581 
L 4097 4581 
L 4097 0 
L 3475 0 
L 1069 3600 
L 1069 0 
L 488 0 
z
" transform="scale(0.015625)"/>
      <path id="ArialMT-65" d="M 2694 1069 
L 3275 997 
Q 3138 488 2766 206 
Q 2394 -75 1816 -75 
Q 1088 -75 661 373 
Q 234 822 234 1631 
Q 234 2469 665 2931 
Q 1097 3394 1784 3394 
Q 2450 3394 2872 2941 
Q 3294 2488 3294 1666 
Q 3294 1616 3291 1516 
L 816 1516 
Q 847 969 1125 678 
Q 1403 388 1819 388 
Q 2128 388 2347 550 
Q 2566 713 2694 1069 
z
M 847 1978 
L 2700 1978 
Q 2663 2397 2488 2606 
Q 2219 2931 1791 2931 
Q 1403 2931 1139 2672 
Q 875 2413 847 1978 
z
" transform="scale(0.015625)"/>
      <path id="ArialMT-77" d="M 1034 0 
L 19 3319 
L 600 3319 
L 1128 1403 
L 1325 691 
Q 1338 744 1497 1375 
L 2025 3319 
L 2603 3319 
L 3100 1394 
L 3266 759 
L 3456 1400 
L 4025 3319 
L 4572 3319 
L 3534 0 
L 2950 0 
L 2422 1988 
L 2294 2553 
L 1622 0 
L 1034 0 
z
" transform="scale(0.015625)"/>
      <path id="ArialMT-20" transform="scale(0.015625)"/>
      <path id="ArialMT-53" d="M 288 1472 
L 859 1522 
Q 900 1178 1048 958 
Q 1197 738 1509 602 
Q 1822 466 2213 466 
Q 2559 466 2825 569 
Q 3091 672 3220 851 
Q 3350 1031 3350 1244 
Q 3350 1459 3225 1620 
Q 3100 1781 2813 1891 
Q 2628 1963 1997 2114 
Q 1366 2266 1113 2400 
Q 784 2572 623 2826 
Q 463 3081 463 3397 
Q 463 3744 659 4045 
Q 856 4347 1234 4503 
Q 1613 4659 2075 4659 
Q 2584 4659 2973 4495 
Q 3363 4331 3572 4012 
Q 3781 3694 3797 3291 
L 3216 3247 
Q 3169 3681 2898 3903 
Q 2628 4125 2100 4125 
Q 1550 4125 1298 3923 
Q 1047 3722 1047 3438 
Q 1047 3191 1225 3031 
Q 1400 2872 2139 2705 
Q 2878 2538 3153 2413 
Q 3553 2228 3743 1945 
Q 3934 1663 3934 1294 
Q 3934 928 3725 604 
Q 3516 281 3123 101 
Q 2731 -78 2241 -78 
Q 1619 -78 1198 103 
Q 778 284 539 648 
Q 300 1013 288 1472 
z
" transform="scale(0.015625)"/>
      <path id="ArialMT-6f" d="M 213 1659 
Q 213 2581 725 3025 
Q 1153 3394 1769 3394 
Q 2453 3394 2887 2945 
Q 3322 2497 3322 1706 
Q 3322 1066 3130 698 
Q 2938 331 2570 128 
Q 2203 -75 1769 -75 
Q 1072 -75 642 372 
Q 213 819 213 1659 
z
M 791 1659 
Q 791 1022 1069 705 
Q 1347 388 1769 388 
Q 2188 388 2466 706 
Q 2744 1025 2744 1678 
Q 2744 2294 2464 2611 
Q 2184 2928 1769 2928 
Q 1347 2928 1069 2612 
Q 791 2297 791 1659 
z
" transform="scale(0.015625)"/>
      <path id="ArialMT-75" d="M 2597 0 
L 2597 488 
Q 2209 -75 1544 -75 
Q 1250 -75 995 37 
Q 741 150 617 320 
Q 494 491 444 738 
Q 409 903 409 1263 
L 409 3319 
L 972 3319 
L 972 1478 
Q 972 1038 1006 884 
Q 1059 663 1231 536 
Q 1403 409 1656 409 
Q 1909 409 2131 539 
Q 2353 669 2445 892 
Q 2538 1116 2538 1541 
L 2538 3319 
L 3100 3319 
L 3100 0 
L 2597 0 
z
" transform="scale(0.015625)"/>
      <path id="ArialMT-74" d="M 1650 503 
L 1731 6 
Q 1494 -44 1306 -44 
Q 1000 -44 831 53 
Q 663 150 594 308 
Q 525 466 525 972 
L 525 2881 
L 113 2881 
L 113 3319 
L 525 3319 
L 525 4141 
L 1084 4478 
L 1084 3319 
L 1650 3319 
L 1650 2881 
L 1084 2881 
L 1084 941 
Q 1084 700 1114 631 
Q 1144 563 1211 522 
Q 1278 481 1403 481 
Q 1497 481 1650 503 
z
" transform="scale(0.015625)"/>
      <path id="ArialMT-68" d="M 422 0 
L 422 4581 
L 984 4581 
L 984 2938 
Q 1378 3394 1978 3394 
Q 2347 3394 2619 3248 
Q 2891 3103 3008 2847 
Q 3125 2591 3125 2103 
L 3125 0 
L 2563 0 
L 2563 2103 
Q 2563 2525 2380 2717 
Q 2197 2909 1863 2909 
Q 1613 2909 1392 2779 
Q 1172 2650 1078 2428 
Q 984 2206 984 1816 
L 984 0 
L 422 0 
z
" transform="scale(0.015625)"/>
      <path id="ArialMT-57" d="M 1294 0 
L 78 4581 
L 700 4581 
L 1397 1578 
Q 1509 1106 1591 641 
Q 1766 1375 1797 1488 
L 2669 4581 
L 3400 4581 
L 4056 2263 
Q 4303 1400 4413 641 
Q 4500 1075 4641 1638 
L 5359 4581 
L 5969 4581 
L 4713 0 
L 4128 0 
L 3163 3491 
Q 3041 3928 3019 4028 
Q 2947 3713 2884 3491 
L 1913 0 
L 1294 0 
z
" transform="scale(0.015625)"/>
      <path id="ArialMT-61" d="M 2588 409 
Q 2275 144 1986 34 
Q 1697 -75 1366 -75 
Q 819 -75 525 192 
Q 231 459 231 875 
Q 231 1119 342 1320 
Q 453 1522 633 1644 
Q 813 1766 1038 1828 
Q 1203 1872 1538 1913 
Q 2219 1994 2541 2106 
Q 2544 2222 2544 2253 
Q 2544 2597 2384 2738 
Q 2169 2928 1744 2928 
Q 1347 2928 1158 2789 
Q 969 2650 878 2297 
L 328 2372 
Q 403 2725 575 2942 
Q 747 3159 1072 3276 
Q 1397 3394 1825 3394 
Q 2250 3394 2515 3294 
Q 2781 3194 2906 3042 
Q 3031 2891 3081 2659 
Q 3109 2516 3109 2141 
L 3109 1391 
Q 3109 606 3145 398 
Q 3181 191 3288 0 
L 2700 0 
Q 2613 175 2588 409 
z
M 2541 1666 
Q 2234 1541 1622 1453 
Q 1275 1403 1131 1340 
Q 988 1278 909 1158 
Q 831 1038 831 891 
Q 831 666 1001 516 
Q 1172 366 1500 366 
Q 1825 366 2078 508 
Q 2331 650 2450 897 
Q 2541 1088 2541 1459 
L 2541 1666 
z
" transform="scale(0.015625)"/>
      <path id="ArialMT-6c" d="M 409 0 
L 409 4581 
L 972 4581 
L 972 0 
L 409 0 
z
" transform="scale(0.015625)"/>
      <path id="ArialMT-73" d="M 197 991 
L 753 1078 
Q 800 744 1014 566 
Q 1228 388 1613 388 
Q 2000 388 2187 545 
Q 2375 703 2375 916 
Q 2375 1106 2209 1216 
Q 2094 1291 1634 1406 
Q 1016 1563 777 1677 
Q 538 1791 414 1992 
Q 291 2194 291 2438 
Q 291 2659 392 2848 
Q 494 3038 669 3163 
Q 800 3259 1026 3326 
Q 1253 3394 1513 3394 
Q 1903 3394 2198 3281 
Q 2494 3169 2634 2976 
Q 2775 2784 2828 2463 
L 2278 2388 
Q 2241 2644 2061 2787 
Q 1881 2931 1553 2931 
Q 1166 2931 1000 2803 
Q 834 2675 834 2503 
Q 834 2394 903 2306 
Q 972 2216 1119 2156 
Q 1203 2125 1616 2013 
Q 2213 1853 2448 1751 
Q 2684 1650 2818 1456 
Q 2953 1263 2953 975 
Q 2953 694 2789 445 
Q 2625 197 2315 61 
Q 2006 -75 1616 -75 
Q 969 -75 630 194 
Q 291 463 197 991 
z
" transform="scale(0.015625)"/>
     </defs>
     <use xlink:href="#ArialMT-4e"/>
     <use xlink:href="#ArialMT-65" x="72.216797"/>
     <use xlink:href="#ArialMT-77" x="127.832031"/>
     <use xlink:href="#ArialMT-20" x="200.048828"/>
     <use xlink:href="#ArialMT-53" x="227.832031"/>
     <use xlink:href="#ArialMT-6f" x="294.53125"/>
     <use xlink:href="#ArialMT-75" x="350.146484"/>
     <use xlink:href="#ArialMT-74" x="405.761719"/>
     <use xlink:href="#ArialMT-68" x="433.544922"/>
     <use xlink:href="#ArialMT-20" x="489.160156"/>
     <use xlink:href="#ArialMT-57" x="516.943359"/>
     <use xlink:href="#ArialMT-61" x="607.578125"/>
     <use xlink:href="#ArialMT-6c" x="663.193359"/>
     <use xlink:href="#ArialMT-65" x="685.410156"/>
     <use xlink:href="#ArialMT-73" x="741.025391"/>
    </g>
   </g>
  </g>
  <g id="axes_3">
   <g id="patch_12">
    <path d="M 51.488605 270.93048 
L 566.891558 270.93048 
L 566.891558 193.509794 
L 51.488605 193.509794 
z
" style="fill: #ffffff"/>
   </g>
   <g id="matplotlib.axis_5">
    <g id="xtick_11">
     <g id="line2d_18">
      <path d="M 122.335968 270.93048 
L 122.335968 193.509794 
" clip-path="url(#pbfc0ea40d2)" style="fill: none; stroke-dasharray: 2.96,1.28; stroke-dashoffset: 0; stroke: #cccccc; stroke-opacity: 0.6; stroke-width: 0.8"/>
     </g>
    </g>
    <g id="xtick_12">
     <g id="line2d_19">
      <path d="M 217.240838 270.93048 
L 217.240838 193.509794 
" clip-path="url(#pbfc0ea40d2)" style="fill: none; stroke-dasharray: 2.96,1.28; stroke-dashoffset: 0; stroke: #cccccc; stroke-opacity: 0.6; stroke-width: 0.8"/>
     </g>
    </g>
    <g id="xtick_13">
     <g id="line2d_20">
      <path d="M 312.145709 270.93048 
L 312.145709 193.509794 
" clip-path="url(#pbfc0ea40d2)" style="fill: none; stroke-dasharray: 2.96,1.28; stroke-dashoffset: 0; stroke: #cccccc; stroke-opacity: 0.6; stroke-width: 0.8"/>
     </g>
    </g>
    <g id="xtick_14">
     <g id="line2d_21">
      <path d="M 407.05058 270.93048 
L 407.05058 193.509794 
" clip-path="url(#pbfc0ea40d2)" style="fill: none; stroke-dasharray: 2.96,1.28; stroke-dashoffset: 0; stroke: #cccccc; stroke-opacity: 0.6; stroke-width: 0.8"/>
     </g>
    </g>
    <g id="xtick_15">
     <g id="line2d_22">
      <path d="M 501.95545 270.93048 
L 501.95545 193.509794 
" clip-path="url(#pbfc0ea40d2)" style="fill: none; stroke-dasharray: 2.96,1.28; stroke-dashoffset: 0; stroke: #cccccc; stroke-opacity: 0.6; stroke-width: 0.8"/>
     </g>
    </g>
   </g>
   <g id="matplotlib.axis_6">
    <g id="ytick_6">
     <g id="line2d_23">
      <path d="M 51.488605 259.335425 
L 566.891558 259.335425 
" clip-path="url(#pbfc0ea40d2)" style="fill: none; stroke-dasharray: 2.96,1.28; stroke-dashoffset: 0; stroke: #cccccc; stroke-opacity: 0.6; stroke-width: 0.8"/>
     </g>
     <g id="text_8">
      <!-- 200 -->
      <g style="fill: #262626" transform="translate(29.474074 262.556441) scale(0.09 -0.09)">
       <defs>
        <path id="ArialMT-32" d="M 3222 541 
L 3222 0 
L 194 0 
Q 188 203 259 391 
Q 375 700 629 1000 
Q 884 1300 1366 1694 
Q 2113 2306 2375 2664 
Q 2638 3022 2638 3341 
Q 2638 3675 2398 3904 
Q 2159 4134 1775 4134 
Q 1369 4134 1125 3890 
Q 881 3647 878 3216 
L 300 3275 
Q 359 3922 746 4261 
Q 1134 4600 1788 4600 
Q 2447 4600 2831 4234 
Q 3216 3869 3216 3328 
Q 3216 3053 3103 2787 
Q 2991 2522 2730 2228 
Q 2469 1934 1863 1422 
Q 1356 997 1212 845 
Q 1069 694 975 541 
L 3222 541 
z
" transform="scale(0.015625)"/>
       </defs>
       <use xlink:href="#ArialMT-32"/>
       <use xlink:href="#ArialMT-30" x="55.615234"/>
       <use xlink:href="#ArialMT-30" x="111.230469"/>
      </g>
     </g>
    </g>
    <g id="ytick_7">
     <g id="line2d_24">
      <path d="M 51.488605 235.08319 
L 566.891558 235.08319 
" clip-path="url(#pbfc0ea40d2)" style="fill: none; stroke-dasharray: 2.96,1.28; stroke-dashoffset: 0; stroke: #cccccc; stroke-opacity: 0.6; stroke-width: 0.8"/>
     </g>
     <g id="text_9">
      <!-- 400 -->
      <g style="fill: #262626" transform="translate(29.474074 238.304205) scale(0.09 -0.09)">
       <use xlink:href="#ArialMT-34"/>
       <use xlink:href="#ArialMT-30" x="55.615234"/>
       <use xlink:href="#ArialMT-30" x="111.230469"/>
      </g>
     </g>
    </g>
    <g id="ytick_8">
     <g id="line2d_25">
      <path d="M 51.488605 210.830954 
L 566.891558 210.830954 
" clip-path="url(#pbfc0ea40d2)" style="fill: none; stroke-dasharray: 2.96,1.28; stroke-dashoffset: 0; stroke: #cccccc; stroke-opacity: 0.6; stroke-width: 0.8"/>
     </g>
     <g id="text_10">
      <!-- 600 -->
      <g style="fill: #262626" transform="translate(29.474074 214.05197) scale(0.09 -0.09)">
       <use xlink:href="#ArialMT-36"/>
       <use xlink:href="#ArialMT-30" x="55.615234"/>
       <use xlink:href="#ArialMT-30" x="111.230469"/>
      </g>
     </g>
    </g>
   </g>
   <g id="line2d_26">
    <path d="M 74.916012 261.584963 
L 80.762308 245.519393 
L 86.673563 219.508785 
L 92.649776 253.550926 
L 98.62599 261.167731 
L 104.472286 239.194819 
L 110.383541 222.783513 
L 116.359754 253.46271 
L 122.335968 258.601405 
L 128.247223 239.962506 
L 134.158477 218.779768 
L 140.134691 239.92466 
L 146.110905 256.539615 
L 151.957201 238.623497 
L 157.868455 225.477638 
L 163.844669 250.251203 
L 169.820883 261.198849 
L 175.667179 233.210732 
L 181.578433 225.473856 
L 187.554647 235.965607 
L 193.530861 262.696863 
L 199.377156 245.513508 
L 205.288411 227.020551 
L 211.264625 252.204859 
L 217.240838 261.887906 
L 223.152093 245.147709 
L 229.063348 205.661326 
L 235.039562 259.897963 
L 241.015775 261.149989 
L 246.862071 234.299384 
L 252.773326 215.983354 
L 258.74954 254.009048 
L 264.725753 256.695825 
L 270.572049 244.892931 
L 276.483304 227.814917 
L 282.459518 247.782998 
L 288.435731 258.50127 
L 294.282027 230.414555 
L 300.193282 216.817705 
L 306.169495 247.846138 
L 312.145709 260.705378 
L 318.056964 235.61471 
L 323.968219 220.799529 
L 329.944432 251.325914 
L 335.920646 261.24612 
L 341.766942 230.508301 
L 347.678197 225.960776 
L 353.65441 251.588209 
L 359.630624 260.882239 
L 365.47692 233.559903 
L 371.388175 223.470273 
L 377.364388 248.863674 
L 383.340602 261.624506 
L 389.186898 250.139178 
L 395.098152 225.391115 
L 401.074366 251.083379 
L 407.05058 259.32634 
L 412.961834 246.738855 
L 418.873089 227.46648 
L 424.849303 253.410438 
L 430.825516 267.411358 
L 436.671812 244.265129 
L 442.583067 232.57574 
L 448.559281 255.423078 
L 454.535494 254.914557 
L 460.38179 214.34887 
L 466.293045 207.40892 
L 472.269259 240.082078 
L 478.245472 256.789221 
L 484.091768 218.952371 
L 490.003023 200.820623 
L 495.979237 232.269625 
L 501.95545 240.891783 
L 507.866705 226.699612 
L 513.77796 197.028916 
L 519.754173 242.274472 
L 525.730387 247.431697 
L 531.576683 208.230946 
L 537.487938 211.1149 
L 543.464151 241.623783 
" clip-path="url(#pbfc0ea40d2)" style="fill: none; stroke: #000000; stroke-width: 1.5; stroke-linecap: round"/>
   </g>
   <g id="patch_13">
    <path d="M 51.488605 270.93048 
L 51.488605 193.509794 
" style="fill: none; stroke: #cccccc; stroke-linejoin: miter; stroke-linecap: square"/>
   </g>
   <g id="patch_14">
    <path d="M 566.891558 270.93048 
L 566.891558 193.509794 
" style="fill: none; stroke: #cccccc; stroke-linejoin: miter; stroke-linecap: square"/>
   </g>
   <g id="patch_15">
    <path d="M 51.488605 270.93048 
L 566.891558 270.93048 
" style="fill: none; stroke: #cccccc; stroke-linejoin: miter; stroke-linecap: square"/>
   </g>
   <g id="patch_16">
    <path d="M 51.488605 193.509794 
L 566.891558 193.509794 
" style="fill: none; stroke: #cccccc; stroke-linejoin: miter; stroke-linecap: square"/>
   </g>
   <g id="text_11">
    <!-- Northern Territory -->
    <g style="fill: #262626" transform="translate(570.041805 193.413887) rotate(-270) scale(0.1 -0.1)">
     <defs>
      <path id="ArialMT-72" d="M 416 0 
L 416 3319 
L 922 3319 
L 922 2816 
Q 1116 3169 1280 3281 
Q 1444 3394 1641 3394 
Q 1925 3394 2219 3213 
L 2025 2691 
Q 1819 2813 1613 2813 
Q 1428 2813 1281 2702 
Q 1134 2591 1072 2394 
Q 978 2094 978 1738 
L 978 0 
L 416 0 
z
" transform="scale(0.015625)"/>
      <path id="ArialMT-6e" d="M 422 0 
L 422 3319 
L 928 3319 
L 928 2847 
Q 1294 3394 1984 3394 
Q 2284 3394 2536 3286 
Q 2788 3178 2913 3003 
Q 3038 2828 3088 2588 
Q 3119 2431 3119 2041 
L 3119 0 
L 2556 0 
L 2556 2019 
Q 2556 2363 2490 2533 
Q 2425 2703 2258 2804 
Q 2091 2906 1866 2906 
Q 1506 2906 1245 2678 
Q 984 2450 984 1813 
L 984 0 
L 422 0 
z
" transform="scale(0.015625)"/>
      <path id="ArialMT-69" d="M 425 3934 
L 425 4581 
L 988 4581 
L 988 3934 
L 425 3934 
z
M 425 0 
L 425 3319 
L 988 3319 
L 988 0 
L 425 0 
z
" transform="scale(0.015625)"/>
      <path id="ArialMT-79" d="M 397 -1278 
L 334 -750 
Q 519 -800 656 -800 
Q 844 -800 956 -737 
Q 1069 -675 1141 -563 
Q 1194 -478 1313 -144 
Q 1328 -97 1363 -6 
L 103 3319 
L 709 3319 
L 1400 1397 
Q 1534 1031 1641 628 
Q 1738 1016 1872 1384 
L 2581 3319 
L 3144 3319 
L 1881 -56 
Q 1678 -603 1566 -809 
Q 1416 -1088 1222 -1217 
Q 1028 -1347 759 -1347 
Q 597 -1347 397 -1278 
z
" transform="scale(0.015625)"/>
     </defs>
     <use xlink:href="#ArialMT-4e"/>
     <use xlink:href="#ArialMT-6f" x="72.216797"/>
     <use xlink:href="#ArialMT-72" x="127.832031"/>
     <use xlink:href="#ArialMT-74" x="161.132812"/>
     <use xlink:href="#ArialMT-68" x="188.916016"/>
     <use xlink:href="#ArialMT-65" x="244.53125"/>
     <use xlink:href="#ArialMT-72" x="300.146484"/>
     <use xlink:href="#ArialMT-6e" x="333.447266"/>
     <use xlink:href="#ArialMT-20" x="389.0625"/>
     <use xlink:href="#ArialMT-54" x="415.095703"/>
     <use xlink:href="#ArialMT-65" x="465.054688"/>
     <use xlink:href="#ArialMT-72" x="520.669922"/>
     <use xlink:href="#ArialMT-72" x="553.970703"/>
     <use xlink:href="#ArialMT-69" x="587.271484"/>
     <use xlink:href="#ArialMT-74" x="609.488281"/>
     <use xlink:href="#ArialMT-6f" x="637.271484"/>
     <use xlink:href="#ArialMT-72" x="692.886719"/>
     <use xlink:href="#ArialMT-79" x="726.1875"/>
    </g>
   </g>
  </g>
  <g id="axes_4">
   <g id="patch_17">
    <path d="M 51.488605 354.686682 
L 566.891558 354.686682 
L 566.891558 277.265996 
L 51.488605 277.265996 
z
" style="fill: #ffffff"/>
   </g>
   <g id="matplotlib.axis_7">
    <g id="xtick_16">
     <g id="line2d_27">
      <path d="M 122.335968 354.686682 
L 122.335968 277.265996 
" clip-path="url(#pcb99bb2b88)" style="fill: none; stroke-dasharray: 2.96,1.28; stroke-dashoffset: 0; stroke: #cccccc; stroke-opacity: 0.6; stroke-width: 0.8"/>
     </g>
    </g>
    <g id="xtick_17">
     <g id="line2d_28">
      <path d="M 217.240838 354.686682 
L 217.240838 277.265996 
" clip-path="url(#pcb99bb2b88)" style="fill: none; stroke-dasharray: 2.96,1.28; stroke-dashoffset: 0; stroke: #cccccc; stroke-opacity: 0.6; stroke-width: 0.8"/>
     </g>
    </g>
    <g id="xtick_18">
     <g id="line2d_29">
      <path d="M 312.145709 354.686682 
L 312.145709 277.265996 
" clip-path="url(#pcb99bb2b88)" style="fill: none; stroke-dasharray: 2.96,1.28; stroke-dashoffset: 0; stroke: #cccccc; stroke-opacity: 0.6; stroke-width: 0.8"/>
     </g>
    </g>
    <g id="xtick_19">
     <g id="line2d_30">
      <path d="M 407.05058 354.686682 
L 407.05058 277.265996 
" clip-path="url(#pcb99bb2b88)" style="fill: none; stroke-dasharray: 2.96,1.28; stroke-dashoffset: 0; stroke: #cccccc; stroke-opacity: 0.6; stroke-width: 0.8"/>
     </g>
    </g>
    <g id="xtick_20">
     <g id="line2d_31">
      <path d="M 501.95545 354.686682 
L 501.95545 277.265996 
" clip-path="url(#pcb99bb2b88)" style="fill: none; stroke-dasharray: 2.96,1.28; stroke-dashoffset: 0; stroke: #cccccc; stroke-opacity: 0.6; stroke-width: 0.8"/>
     </g>
    </g>
   </g>
   <g id="matplotlib.axis_8">
    <g id="ytick_9">
     <g id="line2d_32">
      <path d="M 51.488605 338.835424 
L 566.891558 338.835424 
" clip-path="url(#pcb99bb2b88)" style="fill: none; stroke-dasharray: 2.96,1.28; stroke-dashoffset: 0; stroke: #cccccc; stroke-opacity: 0.6; stroke-width: 0.8"/>
     </g>
     <g id="text_12">
      <!-- 4000 -->
      <g style="fill: #262626" transform="translate(24.46923 342.05644) scale(0.09 -0.09)">
       <use xlink:href="#ArialMT-34"/>
       <use xlink:href="#ArialMT-30" x="55.615234"/>
       <use xlink:href="#ArialMT-30" x="111.230469"/>
       <use xlink:href="#ArialMT-30" x="166.845703"/>
      </g>
     </g>
    </g>
    <g id="ytick_10">
     <g id="line2d_33">
      <path d="M 51.488605 315.925384 
L 566.891558 315.925384 
" clip-path="url(#pcb99bb2b88)" style="fill: none; stroke-dasharray: 2.96,1.28; stroke-dashoffset: 0; stroke: #cccccc; stroke-opacity: 0.6; stroke-width: 0.8"/>
     </g>
     <g id="text_13">
      <!-- 5000 -->
      <g style="fill: #262626" transform="translate(24.46923 319.146399) scale(0.09 -0.09)">
       <defs>
        <path id="ArialMT-35" d="M 266 1200 
L 856 1250 
Q 922 819 1161 601 
Q 1400 384 1738 384 
Q 2144 384 2425 690 
Q 2706 997 2706 1503 
Q 2706 1984 2436 2262 
Q 2166 2541 1728 2541 
Q 1456 2541 1237 2417 
Q 1019 2294 894 2097 
L 366 2166 
L 809 4519 
L 3088 4519 
L 3088 3981 
L 1259 3981 
L 1013 2750 
Q 1425 3038 1878 3038 
Q 2478 3038 2890 2622 
Q 3303 2206 3303 1553 
Q 3303 931 2941 478 
Q 2500 -78 1738 -78 
Q 1113 -78 717 272 
Q 322 622 266 1200 
z
" transform="scale(0.015625)"/>
       </defs>
       <use xlink:href="#ArialMT-35"/>
       <use xlink:href="#ArialMT-30" x="55.615234"/>
       <use xlink:href="#ArialMT-30" x="111.230469"/>
       <use xlink:href="#ArialMT-30" x="166.845703"/>
      </g>
     </g>
    </g>
    <g id="ytick_11">
     <g id="line2d_34">
      <path d="M 51.488605 293.015344 
L 566.891558 293.015344 
" clip-path="url(#pcb99bb2b88)" style="fill: none; stroke-dasharray: 2.96,1.28; stroke-dashoffset: 0; stroke: #cccccc; stroke-opacity: 0.6; stroke-width: 0.8"/>
     </g>
     <g id="text_14">
      <!-- 6000 -->
      <g style="fill: #262626" transform="translate(24.46923 296.236359) scale(0.09 -0.09)">
       <use xlink:href="#ArialMT-36"/>
       <use xlink:href="#ArialMT-30" x="55.615234"/>
       <use xlink:href="#ArialMT-30" x="111.230469"/>
       <use xlink:href="#ArialMT-30" x="166.845703"/>
      </g>
     </g>
    </g>
   </g>
   <g id="line2d_35">
    <path d="M 74.916012 337.887632 
L 80.762308 339.57073 
L 86.673563 325.229289 
L 92.649776 334.1886 
L 98.62599 331.218045 
L 104.472286 319.946544 
L 110.383541 315.512213 
L 116.359754 330.82067 
L 122.335968 329.368395 
L 128.247223 330.950721 
L 134.158477 324.972728 
L 140.134691 324.986314 
L 146.110905 337.696555 
L 151.957201 323.97534 
L 157.868455 312.988131 
L 163.844669 329.154505 
L 169.820883 329.037803 
L 175.667179 330.785394 
L 181.578433 309.935379 
L 187.554647 324.123623 
L 193.530861 332.165667 
L 199.377156 322.660506 
L 205.288411 319.633345 
L 211.264625 324.986232 
L 217.240838 327.885743 
L 223.152093 323.999005 
L 229.063348 307.694359 
L 235.039562 324.104268 
L 241.015775 322.083795 
L 246.862071 330.186692 
L 252.773326 322.172006 
L 258.74954 328.102439 
L 264.725753 326.703509 
L 270.572049 323.231479 
L 276.483304 322.335116 
L 282.459518 318.250534 
L 288.435731 326.438039 
L 294.282027 309.361947 
L 300.193282 306.770871 
L 306.169495 322.868216 
L 312.145709 316.632738 
L 318.056964 332.695086 
L 323.968219 321.818399 
L 329.944432 322.791863 
L 335.920646 333.251159 
L 341.766942 333.787363 
L 347.678197 317.119261 
L 353.65441 334.162721 
L 359.630624 336.557929 
L 365.47692 327.768162 
L 371.388175 309.539195 
L 377.364388 319.254765 
L 383.340602 351.16756 
L 389.186898 318.55369 
L 395.098152 300.936075 
L 401.074366 322.517929 
L 407.05058 323.757355 
L 412.961834 320.902074 
L 418.873089 313.615815 
L 424.849303 313.464459 
L 430.825516 320.986292 
L 436.671812 323.701646 
L 442.583067 316.171911 
L 448.559281 319.667049 
L 454.535494 317.965829 
L 460.38179 305.82925 
L 466.293045 302.278856 
L 472.269259 308.640397 
L 478.245472 316.94761 
L 484.091768 303.191292 
L 490.003023 296.083675 
L 495.979237 303.732417 
L 501.95545 314.95964 
L 507.866705 305.694822 
L 513.77796 294.405189 
L 519.754173 290.578085 
L 525.730387 305.570341 
L 531.576683 301.297929 
L 537.487938 280.785118 
L 543.464151 297.278818 
" clip-path="url(#pcb99bb2b88)" style="fill: none; stroke: #000000; stroke-width: 1.5; stroke-linecap: round"/>
   </g>
   <g id="patch_18">
    <path d="M 51.488605 354.686682 
L 51.488605 277.265996 
" style="fill: none; stroke: #cccccc; stroke-linejoin: miter; stroke-linecap: square"/>
   </g>
   <g id="patch_19">
    <path d="M 566.891558 354.686682 
L 566.891558 277.265996 
" style="fill: none; stroke: #cccccc; stroke-linejoin: miter; stroke-linecap: square"/>
   </g>
   <g id="patch_20">
    <path d="M 51.488605 354.686682 
L 566.891558 354.686682 
" style="fill: none; stroke: #cccccc; stroke-linejoin: miter; stroke-linecap: square"/>
   </g>
   <g id="patch_21">
    <path d="M 51.488605 277.265996 
L 566.891558 277.265996 
" style="fill: none; stroke: #cccccc; stroke-linejoin: miter; stroke-linecap: square"/>
   </g>
   <g id="text_15">
    <!-- Queensland -->
    <g style="fill: #262626" transform="translate(570.041805 289.013058) rotate(-270) scale(0.1 -0.1)">
     <defs>
      <path id="ArialMT-51" d="M 3966 491 
Q 4388 200 4744 66 
L 4566 -356 
Q 4072 -178 3581 206 
Q 3072 -78 2456 -78 
Q 1834 -78 1328 222 
Q 822 522 548 1065 
Q 275 1609 275 2291 
Q 275 2969 550 3525 
Q 825 4081 1333 4372 
Q 1841 4663 2469 4663 
Q 3103 4663 3612 4361 
Q 4122 4059 4389 3517 
Q 4656 2975 4656 2294 
Q 4656 1728 4484 1276 
Q 4313 825 3966 491 
z
M 2631 1266 
Q 3156 1119 3497 828 
Q 4031 1316 4031 2294 
Q 4031 2850 3842 3265 
Q 3653 3681 3289 3911 
Q 2925 4141 2472 4141 
Q 1794 4141 1347 3677 
Q 900 3213 900 2291 
Q 900 1397 1342 919 
Q 1784 441 2472 441 
Q 2797 441 3084 563 
Q 2800 747 2484 825 
L 2631 1266 
z
" transform="scale(0.015625)"/>
      <path id="ArialMT-64" d="M 2575 0 
L 2575 419 
Q 2259 -75 1647 -75 
Q 1250 -75 917 144 
Q 584 363 401 755 
Q 219 1147 219 1656 
Q 219 2153 384 2558 
Q 550 2963 881 3178 
Q 1213 3394 1622 3394 
Q 1922 3394 2156 3267 
Q 2391 3141 2538 2938 
L 2538 4581 
L 3097 4581 
L 3097 0 
L 2575 0 
z
M 797 1656 
Q 797 1019 1065 703 
Q 1334 388 1700 388 
Q 2069 388 2326 689 
Q 2584 991 2584 1609 
Q 2584 2291 2321 2609 
Q 2059 2928 1675 2928 
Q 1300 2928 1048 2622 
Q 797 2316 797 1656 
z
" transform="scale(0.015625)"/>
     </defs>
     <use xlink:href="#ArialMT-51"/>
     <use xlink:href="#ArialMT-75" x="77.783203"/>
     <use xlink:href="#ArialMT-65" x="133.398438"/>
     <use xlink:href="#ArialMT-65" x="189.013672"/>
     <use xlink:href="#ArialMT-6e" x="244.628906"/>
     <use xlink:href="#ArialMT-73" x="300.244141"/>
     <use xlink:href="#ArialMT-6c" x="350.244141"/>
     <use xlink:href="#ArialMT-61" x="372.460938"/>
     <use xlink:href="#ArialMT-6e" x="428.076172"/>
     <use xlink:href="#ArialMT-64" x="483.691406"/>
    </g>
   </g>
  </g>
  <g id="axes_5">
   <g id="patch_22">
    <path d="M 51.488605 438.107849 
L 566.891558 438.107849 
L 566.891558 360.687162 
L 51.488605 360.687162 
z
" style="fill: #ffffff"/>
   </g>
   <g id="matplotlib.axis_9">
    <g id="xtick_21">
     <g id="line2d_36">
      <path d="M 122.335968 438.107849 
L 122.335968 360.687162 
" clip-path="url(#p765b1c0355)" style="fill: none; stroke-dasharray: 2.96,1.28; stroke-dashoffset: 0; stroke: #cccccc; stroke-opacity: 0.6; stroke-width: 0.8"/>
     </g>
    </g>
    <g id="xtick_22">
     <g id="line2d_37">
      <path d="M 217.240838 438.107849 
L 217.240838 360.687162 
" clip-path="url(#p765b1c0355)" style="fill: none; stroke-dasharray: 2.96,1.28; stroke-dashoffset: 0; stroke: #cccccc; stroke-opacity: 0.6; stroke-width: 0.8"/>
     </g>
    </g>
    <g id="xtick_23">
     <g id="line2d_38">
      <path d="M 312.145709 438.107849 
L 312.145709 360.687162 
" clip-path="url(#p765b1c0355)" style="fill: none; stroke-dasharray: 2.96,1.28; stroke-dashoffset: 0; stroke: #cccccc; stroke-opacity: 0.6; stroke-width: 0.8"/>
     </g>
    </g>
    <g id="xtick_24">
     <g id="line2d_39">
      <path d="M 407.05058 438.107849 
L 407.05058 360.687162 
" clip-path="url(#p765b1c0355)" style="fill: none; stroke-dasharray: 2.96,1.28; stroke-dashoffset: 0; stroke: #cccccc; stroke-opacity: 0.6; stroke-width: 0.8"/>
     </g>
    </g>
    <g id="xtick_25">
     <g id="line2d_40">
      <path d="M 501.95545 438.107849 
L 501.95545 360.687162 
" clip-path="url(#p765b1c0355)" style="fill: none; stroke-dasharray: 2.96,1.28; stroke-dashoffset: 0; stroke: #cccccc; stroke-opacity: 0.6; stroke-width: 0.8"/>
     </g>
    </g>
   </g>
   <g id="matplotlib.axis_10">
    <g id="ytick_12">
     <g id="line2d_41">
      <path d="M 51.488605 421.917517 
L 566.891558 421.917517 
" clip-path="url(#p765b1c0355)" style="fill: none; stroke-dasharray: 2.96,1.28; stroke-dashoffset: 0; stroke: #cccccc; stroke-opacity: 0.6; stroke-width: 0.8"/>
     </g>
     <g id="text_16">
      <!-- 1250 -->
      <g style="fill: #262626" transform="translate(24.46923 425.138533) scale(0.09 -0.09)">
       <defs>
        <path id="ArialMT-31" d="M 2384 0 
L 1822 0 
L 1822 3584 
Q 1619 3391 1289 3197 
Q 959 3003 697 2906 
L 697 3450 
Q 1169 3672 1522 3987 
Q 1875 4303 2022 4600 
L 2384 4600 
L 2384 0 
z
" transform="scale(0.015625)"/>
       </defs>
       <use xlink:href="#ArialMT-31"/>
       <use xlink:href="#ArialMT-32" x="55.615234"/>
       <use xlink:href="#ArialMT-35" x="111.230469"/>
       <use xlink:href="#ArialMT-30" x="166.845703"/>
      </g>
     </g>
    </g>
    <g id="ytick_13">
     <g id="line2d_42">
      <path d="M 51.488605 398.701426 
L 566.891558 398.701426 
" clip-path="url(#p765b1c0355)" style="fill: none; stroke-dasharray: 2.96,1.28; stroke-dashoffset: 0; stroke: #cccccc; stroke-opacity: 0.6; stroke-width: 0.8"/>
     </g>
     <g id="text_17">
      <!-- 1500 -->
      <g style="fill: #262626" transform="translate(24.46923 401.922441) scale(0.09 -0.09)">
       <use xlink:href="#ArialMT-31"/>
       <use xlink:href="#ArialMT-35" x="55.615234"/>
       <use xlink:href="#ArialMT-30" x="111.230469"/>
       <use xlink:href="#ArialMT-30" x="166.845703"/>
      </g>
     </g>
    </g>
    <g id="ytick_14">
     <g id="line2d_43">
      <path d="M 51.488605 375.485335 
L 566.891558 375.485335 
" clip-path="url(#p765b1c0355)" style="fill: none; stroke-dasharray: 2.96,1.28; stroke-dashoffset: 0; stroke: #cccccc; stroke-opacity: 0.6; stroke-width: 0.8"/>
     </g>
     <g id="text_18">
      <!-- 1750 -->
      <g style="fill: #262626" transform="translate(24.46923 378.70635) scale(0.09 -0.09)">
       <use xlink:href="#ArialMT-31"/>
       <use xlink:href="#ArialMT-37" x="55.615234"/>
       <use xlink:href="#ArialMT-35" x="111.230469"/>
       <use xlink:href="#ArialMT-30" x="166.845703"/>
      </g>
     </g>
    </g>
   </g>
   <g id="line2d_44">
    <path d="M 74.916012 376.837587 
L 80.762308 408.485771 
L 86.673563 425.322786 
L 92.649776 403.105986 
L 98.62599 394.877105 
L 104.472286 386.06115 
L 110.383541 418.857727 
L 116.359754 409.200386 
L 122.335968 367.791829 
L 128.247223 406.549923 
L 134.158477 394.758065 
L 140.134691 393.812339 
L 146.110905 388.220026 
L 151.957201 406.199664 
L 157.868455 416.255108 
L 163.844669 396.21426 
L 169.820883 386.098927 
L 175.667179 405.332921 
L 181.578433 408.167623 
L 187.554647 394.703503 
L 193.530861 396.275804 
L 199.377156 405.475049 
L 205.288411 412.241685 
L 211.264625 396.421511 
L 217.240838 374.872383 
L 223.152093 387.425945 
L 229.063348 404.837013 
L 235.039562 401.945083 
L 241.015775 393.094481 
L 246.862071 425.635065 
L 252.773326 422.434397 
L 258.74954 413.222159 
L 264.725753 380.302665 
L 270.572049 398.952673 
L 276.483304 427.378568 
L 282.459518 408.772043 
L 288.435731 389.7246 
L 294.282027 396.19473 
L 300.193282 415.797531 
L 306.169495 400.489472 
L 312.145709 386.412706 
L 318.056964 417.55924 
L 323.968219 426.528163 
L 329.944432 402.8053 
L 335.920646 406.76868 
L 341.766942 416.827495 
L 347.678197 416.342481 
L 353.65441 403.680487 
L 359.630624 415.456433 
L 365.47692 414.827582 
L 371.388175 434.588727 
L 377.364388 408.927932 
L 383.340602 402.418848 
L 389.186898 398.103821 
L 395.098152 426.156544 
L 401.074366 403.858444 
L 407.05058 397.238059 
L 412.961834 411.679719 
L 418.873089 426.57804 
L 424.849303 398.390914 
L 430.825516 401.467113 
L 436.671812 402.542845 
L 442.583067 419.689159 
L 448.559281 403.823405 
L 454.535494 386.555331 
L 460.38179 395.576703 
L 466.293045 420.563342 
L 472.269259 383.670779 
L 478.245472 373.135528 
L 484.091768 393.017485 
L 490.003023 409.482227 
L 495.979237 380.09303 
L 501.95545 364.206284 
L 507.866705 383.831368 
L 513.77796 395.522284 
L 519.754173 386.121303 
L 525.730387 369.410874 
L 531.576683 383.830866 
L 537.487938 397.328321 
L 543.464151 364.42454 
" clip-path="url(#p765b1c0355)" style="fill: none; stroke: #000000; stroke-width: 1.5; stroke-linecap: round"/>
   </g>
   <g id="patch_23">
    <path d="M 51.488605 438.107849 
L 51.488605 360.687162 
" style="fill: none; stroke: #cccccc; stroke-linejoin: miter; stroke-linecap: square"/>
   </g>
   <g id="patch_24">
    <path d="M 566.891558 438.107849 
L 566.891558 360.687162 
" style="fill: none; stroke: #cccccc; stroke-linejoin: miter; stroke-linecap: square"/>
   </g>
   <g id="patch_25">
    <path d="M 51.488605 438.107849 
L 566.891558 438.107849 
" style="fill: none; stroke: #cccccc; stroke-linejoin: miter; stroke-linecap: square"/>
   </g>
   <g id="patch_26">
    <path d="M 51.488605 360.687162 
L 566.891558 360.687162 
" style="fill: none; stroke: #cccccc; stroke-linejoin: miter; stroke-linecap: square"/>
   </g>
   <g id="text_19">
    <!-- South Australia -->
    <g style="fill: #262626" transform="translate(570.041805 365.765474) rotate(-270) scale(0.1 -0.1)">
     <use xlink:href="#ArialMT-53"/>
     <use xlink:href="#ArialMT-6f" x="66.699219"/>
     <use xlink:href="#ArialMT-75" x="122.314453"/>
     <use xlink:href="#ArialMT-74" x="177.929688"/>
     <use xlink:href="#ArialMT-68" x="205.712891"/>
     <use xlink:href="#ArialMT-20" x="261.328125"/>
     <use xlink:href="#ArialMT-41" x="283.611328"/>
     <use xlink:href="#ArialMT-75" x="350.310547"/>
     <use xlink:href="#ArialMT-73" x="405.925781"/>
     <use xlink:href="#ArialMT-74" x="455.925781"/>
     <use xlink:href="#ArialMT-72" x="483.708984"/>
     <use xlink:href="#ArialMT-61" x="517.009766"/>
     <use xlink:href="#ArialMT-6c" x="572.625"/>
     <use xlink:href="#ArialMT-69" x="594.841797"/>
     <use xlink:href="#ArialMT-61" x="617.058594"/>
    </g>
   </g>
  </g>
  <g id="axes_6">
   <g id="patch_27">
    <path d="M 51.488605 521.529015 
L 566.891558 521.529015 
L 566.891558 444.108329 
L 51.488605 444.108329 
z
" style="fill: #ffffff"/>
   </g>
   <g id="matplotlib.axis_11">
    <g id="xtick_26">
     <g id="line2d_45">
      <path d="M 122.335968 521.529015 
L 122.335968 444.108329 
" clip-path="url(#p47d3a41474)" style="fill: none; stroke-dasharray: 2.96,1.28; stroke-dashoffset: 0; stroke: #cccccc; stroke-opacity: 0.6; stroke-width: 0.8"/>
     </g>
    </g>
    <g id="xtick_27">
     <g id="line2d_46">
      <path d="M 217.240838 521.529015 
L 217.240838 444.108329 
" clip-path="url(#p47d3a41474)" style="fill: none; stroke-dasharray: 2.96,1.28; stroke-dashoffset: 0; stroke: #cccccc; stroke-opacity: 0.6; stroke-width: 0.8"/>
     </g>
    </g>
    <g id="xtick_28">
     <g id="line2d_47">
      <path d="M 312.145709 521.529015 
L 312.145709 444.108329 
" clip-path="url(#p47d3a41474)" style="fill: none; stroke-dasharray: 2.96,1.28; stroke-dashoffset: 0; stroke: #cccccc; stroke-opacity: 0.6; stroke-width: 0.8"/>
     </g>
    </g>
    <g id="xtick_29">
     <g id="line2d_48">
      <path d="M 407.05058 521.529015 
L 407.05058 444.108329 
" clip-path="url(#p47d3a41474)" style="fill: none; stroke-dasharray: 2.96,1.28; stroke-dashoffset: 0; stroke: #cccccc; stroke-opacity: 0.6; stroke-width: 0.8"/>
     </g>
    </g>
    <g id="xtick_30">
     <g id="line2d_49">
      <path d="M 501.95545 521.529015 
L 501.95545 444.108329 
" clip-path="url(#p47d3a41474)" style="fill: none; stroke-dasharray: 2.96,1.28; stroke-dashoffset: 0; stroke: #cccccc; stroke-opacity: 0.6; stroke-width: 0.8"/>
     </g>
    </g>
   </g>
   <g id="matplotlib.axis_12">
    <g id="ytick_15">
     <g id="line2d_50">
      <path d="M 51.488605 508.593606 
L 566.891558 508.593606 
" clip-path="url(#p47d3a41474)" style="fill: none; stroke-dasharray: 2.96,1.28; stroke-dashoffset: 0; stroke: #cccccc; stroke-opacity: 0.6; stroke-width: 0.8"/>
     </g>
     <g id="text_20">
      <!-- 500 -->
      <g style="fill: #262626" transform="translate(29.474074 511.814622) scale(0.09 -0.09)">
       <use xlink:href="#ArialMT-35"/>
       <use xlink:href="#ArialMT-30" x="55.615234"/>
       <use xlink:href="#ArialMT-30" x="111.230469"/>
      </g>
     </g>
    </g>
    <g id="ytick_16">
     <g id="line2d_51">
      <path d="M 51.488605 484.603 
L 566.891558 484.603 
" clip-path="url(#p47d3a41474)" style="fill: none; stroke-dasharray: 2.96,1.28; stroke-dashoffset: 0; stroke: #cccccc; stroke-opacity: 0.6; stroke-width: 0.8"/>
     </g>
     <g id="text_21">
      <!-- 750 -->
      <g style="fill: #262626" transform="translate(29.474074 487.824015) scale(0.09 -0.09)">
       <use xlink:href="#ArialMT-37"/>
       <use xlink:href="#ArialMT-35" x="55.615234"/>
       <use xlink:href="#ArialMT-30" x="111.230469"/>
      </g>
     </g>
    </g>
    <g id="ytick_17">
     <g id="line2d_52">
      <path d="M 51.488605 460.612393 
L 566.891558 460.612393 
" clip-path="url(#p47d3a41474)" style="fill: none; stroke-dasharray: 2.96,1.28; stroke-dashoffset: 0; stroke: #cccccc; stroke-opacity: 0.6; stroke-width: 0.8"/>
     </g>
     <g id="text_22">
      <!-- 1000 -->
      <g style="fill: #262626" transform="translate(24.46923 463.833409) scale(0.09 -0.09)">
       <use xlink:href="#ArialMT-31"/>
       <use xlink:href="#ArialMT-30" x="55.615234"/>
       <use xlink:href="#ArialMT-30" x="111.230469"/>
       <use xlink:href="#ArialMT-30" x="166.845703"/>
      </g>
     </g>
    </g>
   </g>
   <g id="line2d_53">
    <path d="M 74.916012 462.375303 
L 80.762308 490.045199 
L 86.673563 518.009893 
L 92.649776 491.262692 
L 98.62599 467.769297 
L 104.472286 497.00206 
L 110.383541 515.289533 
L 116.359754 499.788206 
L 122.335968 480.84788 
L 128.247223 507.72324 
L 134.158477 508.245685 
L 140.134691 490.785403 
L 146.110905 479.702497 
L 151.957201 495.985283 
L 157.868455 511.859948 
L 163.844669 507.561197 
L 169.820883 475.325275 
L 175.667179 506.218042 
L 181.578433 516.954926 
L 187.554647 491.848961 
L 193.530861 471.7328 
L 199.377156 486.579102 
L 205.288411 512.867261 
L 211.264625 490.461316 
L 217.240838 449.96626 
L 223.152093 485.14794 
L 229.063348 515.328977 
L 235.039562 481.764934 
L 241.015775 458.739211 
L 246.862071 499.13139 
L 252.773326 514.144168 
L 258.74954 503.74998 
L 264.725753 470.778188 
L 270.572049 477.544182 
L 276.483304 513.387911 
L 282.459518 503.244196 
L 288.435731 464.553387 
L 294.282027 491.098603 
L 300.193282 513.020762 
L 306.169495 486.833723 
L 312.145709 461.210914 
L 318.056964 498.046831 
L 323.968219 515.222666 
L 329.944432 506.387122 
L 335.920646 474.478209 
L 341.766942 494.608083 
L 347.678197 507.917919 
L 353.65441 503.895546 
L 359.630624 471.674915 
L 365.47692 496.74977 
L 371.388175 517.032203 
L 377.364388 502.937783 
L 383.340602 478.657777 
L 389.186898 506.384614 
L 395.098152 508.244908 
L 401.074366 502.214427 
L 407.05058 473.107147 
L 412.961834 505.090937 
L 418.873089 510.693328 
L 424.849303 492.996072 
L 430.825516 464.159981 
L 436.671812 493.47695 
L 442.583067 513.55784 
L 448.559281 503.892224 
L 454.535494 470.491553 
L 460.38179 472.360521 
L 466.293045 513.896376 
L 472.269259 486.394814 
L 478.245472 454.784239 
L 484.091768 501.115441 
L 490.003023 512.861169 
L 495.979237 476.654607 
L 501.95545 459.552764 
L 507.866705 494.06501 
L 513.77796 502.234784 
L 519.754173 476.639075 
L 525.730387 447.627451 
L 531.576683 477.850263 
L 537.487938 497.261463 
L 543.464151 479.756082 
" clip-path="url(#p47d3a41474)" style="fill: none; stroke: #000000; stroke-width: 1.5; stroke-linecap: round"/>
   </g>
   <g id="patch_28">
    <path d="M 51.488605 521.529015 
L 51.488605 444.108329 
" style="fill: none; stroke: #cccccc; stroke-linejoin: miter; stroke-linecap: square"/>
   </g>
   <g id="patch_29">
    <path d="M 566.891558 521.529015 
L 566.891558 444.108329 
" style="fill: none; stroke: #cccccc; stroke-linejoin: miter; stroke-linecap: square"/>
   </g>
   <g id="patch_30">
    <path d="M 51.488605 521.529015 
L 566.891558 521.529015 
" style="fill: none; stroke: #cccccc; stroke-linejoin: miter; stroke-linecap: square"/>
   </g>
   <g id="patch_31">
    <path d="M 51.488605 444.108329 
L 566.891558 444.108329 
" style="fill: none; stroke: #cccccc; stroke-linejoin: miter; stroke-linecap: square"/>
   </g>
   <g id="text_23">
    <!-- Tasmania -->
    <g style="fill: #262626" transform="translate(570.041805 461.42336) rotate(-270) scale(0.1 -0.1)">
     <defs>
      <path id="ArialMT-6d" d="M 422 0 
L 422 3319 
L 925 3319 
L 925 2853 
Q 1081 3097 1340 3245 
Q 1600 3394 1931 3394 
Q 2300 3394 2536 3241 
Q 2772 3088 2869 2813 
Q 3263 3394 3894 3394 
Q 4388 3394 4653 3120 
Q 4919 2847 4919 2278 
L 4919 0 
L 4359 0 
L 4359 2091 
Q 4359 2428 4304 2576 
Q 4250 2725 4106 2815 
Q 3963 2906 3769 2906 
Q 3419 2906 3187 2673 
Q 2956 2441 2956 1928 
L 2956 0 
L 2394 0 
L 2394 2156 
Q 2394 2531 2256 2718 
Q 2119 2906 1806 2906 
Q 1569 2906 1367 2781 
Q 1166 2656 1075 2415 
Q 984 2175 984 1722 
L 984 0 
L 422 0 
z
" transform="scale(0.015625)"/>
     </defs>
     <use xlink:href="#ArialMT-54"/>
     <use xlink:href="#ArialMT-61" x="49.958984"/>
     <use xlink:href="#ArialMT-73" x="105.574219"/>
     <use xlink:href="#ArialMT-6d" x="155.574219"/>
     <use xlink:href="#ArialMT-61" x="238.875"/>
     <use xlink:href="#ArialMT-6e" x="294.490234"/>
     <use xlink:href="#ArialMT-69" x="350.105469"/>
     <use xlink:href="#ArialMT-61" x="372.322266"/>
    </g>
   </g>
  </g>
  <g id="axes_7">
   <g id="patch_32">
    <path d="M 51.488605 604.950182 
L 566.891558 604.950182 
L 566.891558 527.529495 
L 51.488605 527.529495 
z
" style="fill: #ffffff"/>
   </g>
   <g id="matplotlib.axis_13">
    <g id="xtick_31">
     <g id="line2d_54">
      <path d="M 122.335968 604.950182 
L 122.335968 527.529495 
" clip-path="url(#pcedabeffcd)" style="fill: none; stroke-dasharray: 2.96,1.28; stroke-dashoffset: 0; stroke: #cccccc; stroke-opacity: 0.6; stroke-width: 0.8"/>
     </g>
    </g>
    <g id="xtick_32">
     <g id="line2d_55">
      <path d="M 217.240838 604.950182 
L 217.240838 527.529495 
" clip-path="url(#pcedabeffcd)" style="fill: none; stroke-dasharray: 2.96,1.28; stroke-dashoffset: 0; stroke: #cccccc; stroke-opacity: 0.6; stroke-width: 0.8"/>
     </g>
    </g>
    <g id="xtick_33">
     <g id="line2d_56">
      <path d="M 312.145709 604.950182 
L 312.145709 527.529495 
" clip-path="url(#pcedabeffcd)" style="fill: none; stroke-dasharray: 2.96,1.28; stroke-dashoffset: 0; stroke: #cccccc; stroke-opacity: 0.6; stroke-width: 0.8"/>
     </g>
    </g>
    <g id="xtick_34">
     <g id="line2d_57">
      <path d="M 407.05058 604.950182 
L 407.05058 527.529495 
" clip-path="url(#pcedabeffcd)" style="fill: none; stroke-dasharray: 2.96,1.28; stroke-dashoffset: 0; stroke: #cccccc; stroke-opacity: 0.6; stroke-width: 0.8"/>
     </g>
    </g>
    <g id="xtick_35">
     <g id="line2d_58">
      <path d="M 501.95545 604.950182 
L 501.95545 527.529495 
" clip-path="url(#pcedabeffcd)" style="fill: none; stroke-dasharray: 2.96,1.28; stroke-dashoffset: 0; stroke: #cccccc; stroke-opacity: 0.6; stroke-width: 0.8"/>
     </g>
    </g>
   </g>
   <g id="matplotlib.axis_14">
    <g id="ytick_18">
     <g id="line2d_59">
      <path d="M 51.488605 595.751515 
L 566.891558 595.751515 
" clip-path="url(#pcedabeffcd)" style="fill: none; stroke-dasharray: 2.96,1.28; stroke-dashoffset: 0; stroke: #cccccc; stroke-opacity: 0.6; stroke-width: 0.8"/>
     </g>
     <g id="text_24">
      <!-- 4000 -->
      <g style="fill: #262626" transform="translate(24.46923 598.972531) scale(0.09 -0.09)">
       <use xlink:href="#ArialMT-34"/>
       <use xlink:href="#ArialMT-30" x="55.615234"/>
       <use xlink:href="#ArialMT-30" x="111.230469"/>
       <use xlink:href="#ArialMT-30" x="166.845703"/>
      </g>
     </g>
    </g>
    <g id="ytick_19">
     <g id="line2d_60">
      <path d="M 51.488605 575.961834 
L 566.891558 575.961834 
" clip-path="url(#pcedabeffcd)" style="fill: none; stroke-dasharray: 2.96,1.28; stroke-dashoffset: 0; stroke: #cccccc; stroke-opacity: 0.6; stroke-width: 0.8"/>
     </g>
     <g id="text_25">
      <!-- 5000 -->
      <g style="fill: #262626" transform="translate(24.46923 579.182849) scale(0.09 -0.09)">
       <use xlink:href="#ArialMT-35"/>
       <use xlink:href="#ArialMT-30" x="55.615234"/>
       <use xlink:href="#ArialMT-30" x="111.230469"/>
       <use xlink:href="#ArialMT-30" x="166.845703"/>
      </g>
     </g>
    </g>
    <g id="ytick_20">
     <g id="line2d_61">
      <path d="M 51.488605 556.172152 
L 566.891558 556.172152 
" clip-path="url(#pcedabeffcd)" style="fill: none; stroke-dasharray: 2.96,1.28; stroke-dashoffset: 0; stroke: #cccccc; stroke-opacity: 0.6; stroke-width: 0.8"/>
     </g>
     <g id="text_26">
      <!-- 6000 -->
      <g style="fill: #262626" transform="translate(24.46923 559.393168) scale(0.09 -0.09)">
       <use xlink:href="#ArialMT-36"/>
       <use xlink:href="#ArialMT-30" x="55.615234"/>
       <use xlink:href="#ArialMT-30" x="111.230469"/>
       <use xlink:href="#ArialMT-30" x="166.845703"/>
      </g>
     </g>
    </g>
    <g id="ytick_21">
     <g id="line2d_62">
      <path d="M 51.488605 536.382471 
L 566.891558 536.382471 
" clip-path="url(#pcedabeffcd)" style="fill: none; stroke-dasharray: 2.96,1.28; stroke-dashoffset: 0; stroke: #cccccc; stroke-opacity: 0.6; stroke-width: 0.8"/>
     </g>
     <g id="text_27">
      <!-- 7000 -->
      <g style="fill: #262626" transform="translate(24.46923 539.603487) scale(0.09 -0.09)">
       <use xlink:href="#ArialMT-37"/>
       <use xlink:href="#ArialMT-30" x="55.615234"/>
       <use xlink:href="#ArialMT-30" x="111.230469"/>
       <use xlink:href="#ArialMT-30" x="166.845703"/>
      </g>
     </g>
    </g>
   </g>
   <g id="line2d_63">
    <path d="M 74.916012 555.965855 
L 80.762308 580.013835 
L 86.673563 589.48125 
L 92.649776 582.396862 
L 98.62599 569.939157 
L 104.472286 584.635435 
L 110.383541 600.033981 
L 116.359754 591.765428 
L 122.335968 564.743909 
L 128.247223 585.818989 
L 134.158477 593.329413 
L 140.134691 580.173531 
L 146.110905 564.078829 
L 151.957201 585.207439 
L 157.868455 589.816748 
L 163.844669 584.403433 
L 169.820883 565.794901 
L 175.667179 585.307243 
L 181.578433 590.956266 
L 187.554647 581.030975 
L 193.530861 566.900987 
L 199.377156 575.525147 
L 205.288411 592.027429 
L 211.264625 583.75927 
L 217.240838 567.586097 
L 223.152093 576.523319 
L 229.063348 589.738899 
L 235.039562 588.282093 
L 241.015775 567.068883 
L 246.862071 594.885411 
L 252.773326 601.43106 
L 258.74954 588.046365 
L 264.725753 563.698539 
L 270.572049 582.886744 
L 276.483304 598.623694 
L 282.459518 586.0711 
L 288.435731 571.800067 
L 294.282027 585.504017 
L 300.193282 592.75387 
L 306.169495 581.532036 
L 312.145709 562.492477 
L 318.056964 593.12289 
L 323.968219 593.420129 
L 329.944432 590.470913 
L 335.920646 579.975933 
L 341.766942 592.600151 
L 347.678197 591.279906 
L 353.65441 590.95839 
L 359.630624 576.853249 
L 365.47692 591.094905 
L 371.388175 597.640014 
L 377.364388 588.853133 
L 383.340602 571.14882 
L 389.186898 583.910246 
L 395.098152 591.878458 
L 401.074366 582.206301 
L 407.05058 566.445945 
L 412.961834 582.08825 
L 418.873089 593.568026 
L 424.849303 579.525616 
L 430.825516 569.451955 
L 436.671812 581.046953 
L 442.583067 590.759415 
L 448.559281 573.496992 
L 454.535494 557.135558 
L 460.38179 569.817706 
L 466.293045 584.203625 
L 472.269259 568.178665 
L 478.245472 553.660134 
L 484.091768 570.332246 
L 490.003023 576.334497 
L 495.979237 565.061208 
L 501.95545 544.304271 
L 507.866705 569.327744 
L 513.77796 571.570889 
L 519.754173 553.935594 
L 525.730387 531.048617 
L 531.576683 558.123681 
L 537.487938 559.774438 
L 543.464151 539.046185 
" clip-path="url(#pcedabeffcd)" style="fill: none; stroke: #000000; stroke-width: 1.5; stroke-linecap: round"/>
   </g>
   <g id="patch_33">
    <path d="M 51.488605 604.950182 
L 51.488605 527.529495 
" style="fill: none; stroke: #cccccc; stroke-linejoin: miter; stroke-linecap: square"/>
   </g>
   <g id="patch_34">
    <path d="M 566.891558 604.950182 
L 566.891558 527.529495 
" style="fill: none; stroke: #cccccc; stroke-linejoin: miter; stroke-linecap: square"/>
   </g>
   <g id="patch_35">
    <path d="M 51.488605 604.950182 
L 566.891558 604.950182 
" style="fill: none; stroke: #cccccc; stroke-linejoin: miter; stroke-linecap: square"/>
   </g>
   <g id="patch_36">
    <path d="M 51.488605 527.529495 
L 566.891558 527.529495 
" style="fill: none; stroke: #cccccc; stroke-linejoin: miter; stroke-linecap: square"/>
   </g>
   <g id="text_28">
    <!-- Victoria -->
    <g style="fill: #262626" transform="translate(570.041805 549.655464) rotate(-270) scale(0.1 -0.1)">
     <defs>
      <path id="ArialMT-56" d="M 1803 0 
L 28 4581 
L 684 4581 
L 1875 1253 
Q 2019 853 2116 503 
Q 2222 878 2363 1253 
L 3600 4581 
L 4219 4581 
L 2425 0 
L 1803 0 
z
" transform="scale(0.015625)"/>
      <path id="ArialMT-63" d="M 2588 1216 
L 3141 1144 
Q 3050 572 2676 248 
Q 2303 -75 1759 -75 
Q 1078 -75 664 370 
Q 250 816 250 1647 
Q 250 2184 428 2587 
Q 606 2991 970 3192 
Q 1334 3394 1763 3394 
Q 2303 3394 2647 3120 
Q 2991 2847 3088 2344 
L 2541 2259 
Q 2463 2594 2264 2762 
Q 2066 2931 1784 2931 
Q 1359 2931 1093 2626 
Q 828 2322 828 1663 
Q 828 994 1084 691 
Q 1341 388 1753 388 
Q 2084 388 2306 591 
Q 2528 794 2588 1216 
z
" transform="scale(0.015625)"/>
     </defs>
     <use xlink:href="#ArialMT-56"/>
     <use xlink:href="#ArialMT-69" x="64.949219"/>
     <use xlink:href="#ArialMT-63" x="87.166016"/>
     <use xlink:href="#ArialMT-74" x="137.166016"/>
     <use xlink:href="#ArialMT-6f" x="164.949219"/>
     <use xlink:href="#ArialMT-72" x="220.564453"/>
     <use xlink:href="#ArialMT-69" x="253.865234"/>
     <use xlink:href="#ArialMT-61" x="276.082031"/>
    </g>
   </g>
  </g>
  <g id="axes_8">
   <g id="patch_37">
    <path d="M 51.488605 688.993884 
L 566.891558 688.993884 
L 566.891558 611.573197 
L 51.488605 611.573197 
z
" style="fill: #ffffff"/>
   </g>
   <g id="matplotlib.axis_15">
    <g id="xtick_36">
     <g id="line2d_64">
      <path d="M 122.335968 688.993884 
L 122.335968 611.573197 
" clip-path="url(#p0e8816e44a)" style="fill: none; stroke-dasharray: 2.96,1.28; stroke-dashoffset: 0; stroke: #cccccc; stroke-opacity: 0.6; stroke-width: 0.8"/>
     </g>
     <g id="text_29">
      <!-- 2000 -->
      <g style="fill: #262626" transform="translate(112.32628 702.435915) scale(0.09 -0.09)">
       <use xlink:href="#ArialMT-32"/>
       <use xlink:href="#ArialMT-30" x="55.615234"/>
       <use xlink:href="#ArialMT-30" x="111.230469"/>
       <use xlink:href="#ArialMT-30" x="166.845703"/>
      </g>
     </g>
    </g>
    <g id="xtick_37">
     <g id="line2d_65">
      <path d="M 217.240838 688.993884 
L 217.240838 611.573197 
" clip-path="url(#p0e8816e44a)" style="fill: none; stroke-dasharray: 2.96,1.28; stroke-dashoffset: 0; stroke: #cccccc; stroke-opacity: 0.6; stroke-width: 0.8"/>
     </g>
     <g id="text_30">
      <!-- 2004 -->
      <g style="fill: #262626" transform="translate(207.231151 702.435915) scale(0.09 -0.09)">
       <use xlink:href="#ArialMT-32"/>
       <use xlink:href="#ArialMT-30" x="55.615234"/>
       <use xlink:href="#ArialMT-30" x="111.230469"/>
       <use xlink:href="#ArialMT-34" x="166.845703"/>
      </g>
     </g>
    </g>
    <g id="xtick_38">
     <g id="line2d_66">
      <path d="M 312.145709 688.993884 
L 312.145709 611.573197 
" clip-path="url(#p0e8816e44a)" style="fill: none; stroke-dasharray: 2.96,1.28; stroke-dashoffset: 0; stroke: #cccccc; stroke-opacity: 0.6; stroke-width: 0.8"/>
     </g>
     <g id="text_31">
      <!-- 2008 -->
      <g style="fill: #262626" transform="translate(302.136022 702.435915) scale(0.09 -0.09)">
       <use xlink:href="#ArialMT-32"/>
       <use xlink:href="#ArialMT-30" x="55.615234"/>
       <use xlink:href="#ArialMT-30" x="111.230469"/>
       <use xlink:href="#ArialMT-38" x="166.845703"/>
      </g>
     </g>
    </g>
    <g id="xtick_39">
     <g id="line2d_67">
      <path d="M 407.05058 688.993884 
L 407.05058 611.573197 
" clip-path="url(#p0e8816e44a)" style="fill: none; stroke-dasharray: 2.96,1.28; stroke-dashoffset: 0; stroke: #cccccc; stroke-opacity: 0.6; stroke-width: 0.8"/>
     </g>
     <g id="text_32">
      <!-- 2012 -->
      <g style="fill: #262626" transform="translate(397.040892 702.435915) scale(0.09 -0.09)">
       <use xlink:href="#ArialMT-32"/>
       <use xlink:href="#ArialMT-30" x="55.615234"/>
       <use xlink:href="#ArialMT-31" x="111.230469"/>
       <use xlink:href="#ArialMT-32" x="166.845703"/>
      </g>
     </g>
    </g>
    <g id="xtick_40">
     <g id="line2d_68">
      <path d="M 501.95545 688.993884 
L 501.95545 611.573197 
" clip-path="url(#p0e8816e44a)" style="fill: none; stroke-dasharray: 2.96,1.28; stroke-dashoffset: 0; stroke: #cccccc; stroke-opacity: 0.6; stroke-width: 0.8"/>
     </g>
     <g id="text_33">
      <!-- 2016 -->
      <g style="fill: #262626" transform="translate(491.945763 702.435915) scale(0.09 -0.09)">
       <use xlink:href="#ArialMT-32"/>
       <use xlink:href="#ArialMT-30" x="55.615234"/>
       <use xlink:href="#ArialMT-31" x="111.230469"/>
       <use xlink:href="#ArialMT-36" x="166.845703"/>
      </g>
     </g>
    </g>
   </g>
   <g id="matplotlib.axis_16">
    <g id="ytick_22">
     <g id="line2d_69">
      <path d="M 51.488605 677.336192 
L 566.891558 677.336192 
" clip-path="url(#p0e8816e44a)" style="fill: none; stroke-dasharray: 2.96,1.28; stroke-dashoffset: 0; stroke: #cccccc; stroke-opacity: 0.6; stroke-width: 0.8"/>
     </g>
     <g id="text_34">
      <!-- 1500 -->
      <g style="fill: #262626" transform="translate(24.46923 680.557208) scale(0.09 -0.09)">
       <use xlink:href="#ArialMT-31"/>
       <use xlink:href="#ArialMT-35" x="55.615234"/>
       <use xlink:href="#ArialMT-30" x="111.230469"/>
       <use xlink:href="#ArialMT-30" x="166.845703"/>
      </g>
     </g>
    </g>
    <g id="ytick_23">
     <g id="line2d_70">
      <path d="M 51.488605 654.638865 
L 566.891558 654.638865 
" clip-path="url(#p0e8816e44a)" style="fill: none; stroke-dasharray: 2.96,1.28; stroke-dashoffset: 0; stroke: #cccccc; stroke-opacity: 0.6; stroke-width: 0.8"/>
     </g>
     <g id="text_35">
      <!-- 2000 -->
      <g style="fill: #262626" transform="translate(24.46923 657.859881) scale(0.09 -0.09)">
       <use xlink:href="#ArialMT-32"/>
       <use xlink:href="#ArialMT-30" x="55.615234"/>
       <use xlink:href="#ArialMT-30" x="111.230469"/>
       <use xlink:href="#ArialMT-30" x="166.845703"/>
      </g>
     </g>
    </g>
    <g id="ytick_24">
     <g id="line2d_71">
      <path d="M 51.488605 631.941538 
L 566.891558 631.941538 
" clip-path="url(#p0e8816e44a)" style="fill: none; stroke-dasharray: 2.96,1.28; stroke-dashoffset: 0; stroke: #cccccc; stroke-opacity: 0.6; stroke-width: 0.8"/>
     </g>
     <g id="text_36">
      <!-- 2500 -->
      <g style="fill: #262626" transform="translate(24.46923 635.162554) scale(0.09 -0.09)">
       <use xlink:href="#ArialMT-32"/>
       <use xlink:href="#ArialMT-35" x="55.615234"/>
       <use xlink:href="#ArialMT-30" x="111.230469"/>
       <use xlink:href="#ArialMT-30" x="166.845703"/>
      </g>
     </g>
    </g>
   </g>
   <g id="line2d_72">
    <path d="M 74.916012 670.931484 
L 80.762308 673.871376 
L 86.673563 673.328131 
L 92.649776 661.914857 
L 98.62599 662.097771 
L 104.472286 662.039815 
L 110.383541 667.105378 
L 116.359754 676.476295 
L 122.335968 671.184081 
L 128.247223 663.339721 
L 134.158477 673.891016 
L 140.134691 667.681458 
L 146.110905 672.45629 
L 151.957201 667.7454 
L 157.868455 661.130643 
L 163.844669 658.913055 
L 169.820883 658.803883 
L 175.667179 665.482386 
L 181.578433 663.753668 
L 187.554647 664.097068 
L 193.530861 663.372293 
L 199.377156 669.177357 
L 205.288411 669.121962 
L 211.264625 663.506386 
L 217.240838 663.168228 
L 223.152093 667.436778 
L 229.063348 663.495126 
L 235.039562 668.989941 
L 241.015775 668.368653 
L 246.862071 675.991391 
L 252.773326 675.032779 
L 258.74954 670.942904 
L 264.725753 663.595196 
L 270.572049 662.442626 
L 276.483304 669.398793 
L 282.459518 660.76903 
L 288.435731 662.776712 
L 294.282027 663.986356 
L 300.193282 668.475075 
L 306.169495 669.688443 
L 312.145709 662.791792 
L 318.056964 676.60174 
L 323.968219 673.904635 
L 329.944432 676.440877 
L 335.920646 673.783109 
L 341.766942 678.452547 
L 347.678197 685.474762 
L 353.65441 682.464019 
L 359.630624 683.924098 
L 365.47692 684.251009 
L 371.388175 683.22261 
L 377.364388 679.251558 
L 383.340602 677.052767 
L 389.186898 676.714919 
L 395.098152 676.654502 
L 401.074366 670.872864 
L 407.05058 667.212591 
L 412.961834 671.90623 
L 418.873089 676.848556 
L 424.849303 663.689582 
L 430.825516 663.081288 
L 436.671812 659.243247 
L 442.583067 666.257798 
L 448.559281 673.539471 
L 454.535494 618.770403 
L 460.38179 628.128978 
L 466.293045 637.132509 
L 472.269259 630.024193 
L 478.245472 624.329855 
L 484.091768 636.736392 
L 490.003023 633.436645 
L 495.979237 620.890252 
L 501.95545 615.092319 
L 507.866705 633.330874 
L 513.77796 640.246738 
L 519.754173 624.84496 
L 525.730387 628.722527 
L 531.576683 634.733857 
L 537.487938 632.215949 
L 543.464151 625.779019 
" clip-path="url(#p0e8816e44a)" style="fill: none; stroke: #000000; stroke-width: 1.5; stroke-linecap: round"/>
   </g>
   <g id="patch_38">
    <path d="M 51.488605 688.993884 
L 51.488605 611.573197 
" style="fill: none; stroke: #cccccc; stroke-linejoin: miter; stroke-linecap: square"/>
   </g>
   <g id="patch_39">
    <path d="M 566.891558 688.993884 
L 566.891558 611.573197 
" style="fill: none; stroke: #cccccc; stroke-linejoin: miter; stroke-linecap: square"/>
   </g>
   <g id="patch_40">
    <path d="M 51.488605 688.993884 
L 566.891558 688.993884 
" style="fill: none; stroke: #cccccc; stroke-linejoin: miter; stroke-linecap: square"/>
   </g>
   <g id="patch_41">
    <path d="M 51.488605 611.573197 
L 566.891558 611.573197 
" style="fill: none; stroke: #cccccc; stroke-linejoin: miter; stroke-linecap: square"/>
   </g>
   <g id="text_37">
    <!-- Western Australia -->
    <g style="fill: #262626" transform="translate(570.041805 611.18979) rotate(-270) scale(0.1 -0.1)">
     <use xlink:href="#ArialMT-57"/>
     <use xlink:href="#ArialMT-65" x="92.634766"/>
     <use xlink:href="#ArialMT-73" x="148.25"/>
     <use xlink:href="#ArialMT-74" x="198.25"/>
     <use xlink:href="#ArialMT-65" x="226.033203"/>
     <use xlink:href="#ArialMT-72" x="281.648438"/>
     <use xlink:href="#ArialMT-6e" x="314.949219"/>
     <use xlink:href="#ArialMT-20" x="370.564453"/>
     <use xlink:href="#ArialMT-41" x="392.847656"/>
     <use xlink:href="#ArialMT-75" x="459.546875"/>
     <use xlink:href="#ArialMT-73" x="515.162109"/>
     <use xlink:href="#ArialMT-74" x="565.162109"/>
     <use xlink:href="#ArialMT-72" x="592.945312"/>
     <use xlink:href="#ArialMT-61" x="626.246094"/>
     <use xlink:href="#ArialMT-6c" x="681.861328"/>
     <use xlink:href="#ArialMT-69" x="704.078125"/>
     <use xlink:href="#ArialMT-61" x="726.294922"/>
    </g>
   </g>
  </g>
  <g id="text_38">
   <!-- Australian domestic tourism -->
   <g style="fill: #262626" transform="translate(218.510385 15.789375) scale(0.12 -0.12)">
    <use xlink:href="#ArialMT-41"/>
    <use xlink:href="#ArialMT-75" x="66.699219"/>
    <use xlink:href="#ArialMT-73" x="122.314453"/>
    <use xlink:href="#ArialMT-74" x="172.314453"/>
    <use xlink:href="#ArialMT-72" x="200.097656"/>
    <use xlink:href="#ArialMT-61" x="233.398438"/>
    <use xlink:href="#ArialMT-6c" x="289.013672"/>
    <use xlink:href="#ArialMT-69" x="311.230469"/>
    <use xlink:href="#ArialMT-61" x="333.447266"/>
    <use xlink:href="#ArialMT-6e" x="389.0625"/>
    <use xlink:href="#ArialMT-20" x="444.677734"/>
    <use xlink:href="#ArialMT-64" x="472.460938"/>
    <use xlink:href="#ArialMT-6f" x="528.076172"/>
    <use xlink:href="#ArialMT-6d" x="583.691406"/>
    <use xlink:href="#ArialMT-65" x="666.992188"/>
    <use xlink:href="#ArialMT-73" x="722.607422"/>
    <use xlink:href="#ArialMT-74" x="772.607422"/>
    <use xlink:href="#ArialMT-69" x="800.390625"/>
    <use xlink:href="#ArialMT-63" x="822.607422"/>
    <use xlink:href="#ArialMT-20" x="872.607422"/>
    <use xlink:href="#ArialMT-74" x="900.390625"/>
    <use xlink:href="#ArialMT-6f" x="928.173828"/>
    <use xlink:href="#ArialMT-75" x="983.789062"/>
    <use xlink:href="#ArialMT-72" x="1039.404297"/>
    <use xlink:href="#ArialMT-69" x="1072.705078"/>
    <use xlink:href="#ArialMT-73" x="1094.921875"/>
    <use xlink:href="#ArialMT-6d" x="1144.921875"/>
   </g>
  </g>
  <g id="text_39">
   <!-- Overnight trips ('000) -->
   <g style="fill: #262626" transform="translate(15.943125 420.02976) rotate(-90) scale(0.12 -0.12)">
    <defs>
     <path id="ArialMT-4f" d="M 309 2231 
Q 309 3372 921 4017 
Q 1534 4663 2503 4663 
Q 3138 4663 3647 4359 
Q 4156 4056 4423 3514 
Q 4691 2972 4691 2284 
Q 4691 1588 4409 1038 
Q 4128 488 3612 205 
Q 3097 -78 2500 -78 
Q 1853 -78 1343 234 
Q 834 547 571 1087 
Q 309 1628 309 2231 
z
M 934 2222 
Q 934 1394 1379 917 
Q 1825 441 2497 441 
Q 3181 441 3623 922 
Q 4066 1403 4066 2288 
Q 4066 2847 3877 3264 
Q 3688 3681 3323 3911 
Q 2959 4141 2506 4141 
Q 1863 4141 1398 3698 
Q 934 3256 934 2222 
z
" transform="scale(0.015625)"/>
     <path id="ArialMT-76" d="M 1344 0 
L 81 3319 
L 675 3319 
L 1388 1331 
Q 1503 1009 1600 663 
Q 1675 925 1809 1294 
L 2547 3319 
L 3125 3319 
L 1869 0 
L 1344 0 
z
" transform="scale(0.015625)"/>
     <path id="ArialMT-67" d="M 319 -275 
L 866 -356 
Q 900 -609 1056 -725 
Q 1266 -881 1628 -881 
Q 2019 -881 2231 -725 
Q 2444 -569 2519 -288 
Q 2563 -116 2559 434 
Q 2191 0 1641 0 
Q 956 0 581 494 
Q 206 988 206 1678 
Q 206 2153 378 2554 
Q 550 2956 876 3175 
Q 1203 3394 1644 3394 
Q 2231 3394 2613 2919 
L 2613 3319 
L 3131 3319 
L 3131 450 
Q 3131 -325 2973 -648 
Q 2816 -972 2473 -1159 
Q 2131 -1347 1631 -1347 
Q 1038 -1347 672 -1080 
Q 306 -813 319 -275 
z
M 784 1719 
Q 784 1066 1043 766 
Q 1303 466 1694 466 
Q 2081 466 2343 764 
Q 2606 1063 2606 1700 
Q 2606 2309 2336 2618 
Q 2066 2928 1684 2928 
Q 1309 2928 1046 2623 
Q 784 2319 784 1719 
z
" transform="scale(0.015625)"/>
     <path id="ArialMT-70" d="M 422 -1272 
L 422 3319 
L 934 3319 
L 934 2888 
Q 1116 3141 1344 3267 
Q 1572 3394 1897 3394 
Q 2322 3394 2647 3175 
Q 2972 2956 3137 2557 
Q 3303 2159 3303 1684 
Q 3303 1175 3120 767 
Q 2938 359 2589 142 
Q 2241 -75 1856 -75 
Q 1575 -75 1351 44 
Q 1128 163 984 344 
L 984 -1272 
L 422 -1272 
z
M 931 1641 
Q 931 1000 1190 694 
Q 1450 388 1819 388 
Q 2194 388 2461 705 
Q 2728 1022 2728 1688 
Q 2728 2322 2467 2637 
Q 2206 2953 1844 2953 
Q 1484 2953 1207 2617 
Q 931 2281 931 1641 
z
" transform="scale(0.015625)"/>
     <path id="ArialMT-28" d="M 1497 -1347 
Q 1031 -759 709 28 
Q 388 816 388 1659 
Q 388 2403 628 3084 
Q 909 3875 1497 4659 
L 1900 4659 
Q 1522 4009 1400 3731 
Q 1209 3300 1100 2831 
Q 966 2247 966 1656 
Q 966 153 1900 -1347 
L 1497 -1347 
z
" transform="scale(0.015625)"/>
     <path id="ArialMT-27" d="M 425 2959 
L 281 3816 
L 281 4581 
L 922 4581 
L 922 3816 
L 772 2959 
L 425 2959 
z
" transform="scale(0.015625)"/>
     <path id="ArialMT-29" d="M 791 -1347 
L 388 -1347 
Q 1322 153 1322 1656 
Q 1322 2244 1188 2822 
Q 1081 3291 891 3722 
Q 769 4003 388 4659 
L 791 4659 
Q 1378 3875 1659 3084 
Q 1900 2403 1900 1659 
Q 1900 816 1576 28 
Q 1253 -759 791 -1347 
z
" transform="scale(0.015625)"/>
    </defs>
    <use xlink:href="#ArialMT-4f"/>
    <use xlink:href="#ArialMT-76" x="77.783203"/>
    <use xlink:href="#ArialMT-65" x="127.783203"/>
    <use xlink:href="#ArialMT-72" x="183.398438"/>
    <use xlink:href="#ArialMT-6e" x="216.699219"/>
    <use xlink:href="#ArialMT-69" x="272.314453"/>
    <use xlink:href="#ArialMT-67" x="294.53125"/>
    <use xlink:href="#ArialMT-68" x="350.146484"/>
    <use xlink:href="#ArialMT-74" x="405.761719"/>
    <use xlink:href="#ArialMT-20" x="433.544922"/>
    <use xlink:href="#ArialMT-74" x="461.328125"/>
    <use xlink:href="#ArialMT-72" x="489.111328"/>
    <use xlink:href="#ArialMT-69" x="522.412109"/>
    <use xlink:href="#ArialMT-70" x="544.628906"/>
    <use xlink:href="#ArialMT-73" x="600.244141"/>
    <use xlink:href="#ArialMT-20" x="650.244141"/>
    <use xlink:href="#ArialMT-28" x="678.027344"/>
    <use xlink:href="#ArialMT-27" x="711.328125"/>
    <use xlink:href="#ArialMT-30" x="730.419922"/>
    <use xlink:href="#ArialMT-30" x="786.035156"/>
    <use xlink:href="#ArialMT-30" x="841.650391"/>
    <use xlink:href="#ArialMT-29" x="897.265625"/>
   </g>
  </g>
  <g id="text_40">
   <!-- Quarter -->
   <g style="fill: #262626" transform="translate(271.860698 718.81452) scale(0.12 -0.12)">
    <use xlink:href="#ArialMT-51"/>
    <use xlink:href="#ArialMT-75" x="77.783203"/>
    <use xlink:href="#ArialMT-61" x="133.398438"/>
    <use xlink:href="#ArialMT-72" x="189.013672"/>
    <use xlink:href="#ArialMT-74" x="222.314453"/>
    <use xlink:href="#ArialMT-65" x="250.097656"/>
    <use xlink:href="#ArialMT-72" x="305.712891"/>
   </g>
  </g>
 </g>
 <defs>
  <clipPath id="p34ee44dee6">
   <rect x="51.488605" y="24.174855" width="515.402953" height="77.420687"/>
  </clipPath>
  <clipPath id="p446a6d1de1">
   <rect x="51.488605" y="108.674807" width="515.402953" height="77.420687"/>
  </clipPath>
  <clipPath id="pbfc0ea40d2">
   <rect x="51.488605" y="193.509794" width="515.402953" height="77.420687"/>
  </clipPath>
  <clipPath id="pcb99bb2b88">
   <rect x="51.488605" y="277.265996" width="515.402953" height="77.420687"/>
  </clipPath>
  <clipPath id="p765b1c0355">
   <rect x="51.488605" y="360.687162" width="515.402953" height="77.420687"/>
  </clipPath>
  <clipPath id="p47d3a41474">
   <rect x="51.488605" y="444.108329" width="515.402953" height="77.420687"/>
  </clipPath>
  <clipPath id="pcedabeffcd">
   <rect x="51.488605" y="527.529495" width="515.402953" height="77.420687"/>
  </clipPath>
  <clipPath id="p0e8816e44a">
   <rect x="51.488605" y="611.573197" width="515.402953" height="77.420687"/>
  </clipPath>
 </defs>
</svg>
