<?xml version="1.0" encoding="utf-8" standalone="no"?>
<!DOCTYPE svg PUBLIC "-//W3C//DTD SVG 1.1//EN"
  "http://www.w3.org/Graphics/SVG/1.1/DTD/svg11.dtd">
<svg xmlns:xlink="http://www.w3.org/1999/xlink" width="1216.31976pt" height="512.39952pt" viewBox="0 0 1216.31976 512.39952" xmlns="http://www.w3.org/2000/svg" version="1.1">
 <metadata>
  <rdf:RDF xmlns:dc="http://purl.org/dc/elements/1.1/" xmlns:cc="http://creativecommons.org/ns#" xmlns:rdf="http://www.w3.org/1999/02/22-rdf-syntax-ns#">
   <cc:Work>
    <dc:type rdf:resource="http://purl.org/dc/dcmitype/StillImage"/>
    <dc:date>2025-10-16T23:15:29.339293</dc:date>
    <dc:format>image/svg+xml</dc:format>
    <dc:creator>
     <cc:Agent>
      <dc:title>Matplotlib v3.7.2, https://matplotlib.org/</dc:title>
     </cc:Agent>
    </dc:creator>
   </cc:Work>
  </rdf:RDF>
 </metadata>
 <defs>
  <style type="text/css">*{stroke-linejoin: round; stroke-linecap: butt}</style>
 </defs>
 <g id="figure_1">
  <g id="patch_1">
   <path d="M 0 512.39952 
L 1216.31976 512.39952 
L 1216.31976 0 
L 0 0 
z
" style="fill: #ffffff"/>
  </g>
  <g id="axes_1">
   <g id="patch_2">
    <path d="M 52.486719 219.310634 
L 577.259356 219.310634 
L 577.259356 21.935625 
L 52.486719 21.935625 
z
" style="fill: #ffffff"/>
   </g>
   <g id="matplotlib.axis_1">
    <g id="xtick_1">
     <g id="line2d_1">
      <path d="M 96.863153 219.310634 
L 96.863153 21.935625 
" clip-path="url(#p1ef74182de)" style="fill: none; stroke: #cccccc; stroke-width: 0.8; stroke-linecap: round"/>
     </g>
     <g id="text_1">
      <!-- 1989-09 -->
      <g style="fill: #262626" transform="translate(83.725891 248.402487) rotate(-30) scale(0.09 -0.09)">
       <defs>
        <path id="ArialMT-31" d="M 2384 0 
L 1822 0 
L 1822 3584 
Q 1619 3391 1289 3197 
Q 959 3003 697 2906 
L 697 3450 
Q 1169 3672 1522 3987 
Q 1875 4303 2022 4600 
L 2384 4600 
L 2384 0 
z
" transform="scale(0.015625)"/>
        <path id="ArialMT-39" d="M 350 1059 
L 891 1109 
Q 959 728 1153 556 
Q 1347 384 1650 384 
Q 1909 384 2104 503 
Q 2300 622 2425 820 
Q 2550 1019 2634 1356 
Q 2719 1694 2719 2044 
Q 2719 2081 2716 2156 
Q 2547 1888 2255 1720 
Q 1963 1553 1622 1553 
Q 1053 1553 659 1965 
Q 266 2378 266 3053 
Q 266 3750 677 4175 
Q 1088 4600 1706 4600 
Q 2153 4600 2523 4359 
Q 2894 4119 3086 3673 
Q 3278 3228 3278 2384 
Q 3278 1506 3087 986 
Q 2897 466 2520 194 
Q 2144 -78 1638 -78 
Q 1100 -78 759 220 
Q 419 519 350 1059 
z
M 2653 3081 
Q 2653 3566 2395 3850 
Q 2138 4134 1775 4134 
Q 1400 4134 1122 3828 
Q 844 3522 844 3034 
Q 844 2597 1108 2323 
Q 1372 2050 1759 2050 
Q 2150 2050 2401 2323 
Q 2653 2597 2653 3081 
z
" transform="scale(0.015625)"/>
        <path id="ArialMT-38" d="M 1131 2484 
Q 781 2613 612 2850 
Q 444 3088 444 3419 
Q 444 3919 803 4259 
Q 1163 4600 1759 4600 
Q 2359 4600 2725 4251 
Q 3091 3903 3091 3403 
Q 3091 3084 2923 2848 
Q 2756 2613 2416 2484 
Q 2838 2347 3058 2040 
Q 3278 1734 3278 1309 
Q 3278 722 2862 322 
Q 2447 -78 1769 -78 
Q 1091 -78 675 323 
Q 259 725 259 1325 
Q 259 1772 486 2073 
Q 713 2375 1131 2484 
z
M 1019 3438 
Q 1019 3113 1228 2906 
Q 1438 2700 1772 2700 
Q 2097 2700 2305 2904 
Q 2513 3109 2513 3406 
Q 2513 3716 2298 3927 
Q 2084 4138 1766 4138 
Q 1444 4138 1231 3931 
Q 1019 3725 1019 3438 
z
M 838 1322 
Q 838 1081 952 856 
Q 1066 631 1291 507 
Q 1516 384 1775 384 
Q 2178 384 2440 643 
Q 2703 903 2703 1303 
Q 2703 1709 2433 1975 
Q 2163 2241 1756 2241 
Q 1359 2241 1098 1978 
Q 838 1716 838 1322 
z
" transform="scale(0.015625)"/>
        <path id="ArialMT-2d" d="M 203 1375 
L 203 1941 
L 1931 1941 
L 1931 1375 
L 203 1375 
z
" transform="scale(0.015625)"/>
        <path id="ArialMT-30" d="M 266 2259 
Q 266 3072 433 3567 
Q 600 4063 929 4331 
Q 1259 4600 1759 4600 
Q 2128 4600 2406 4451 
Q 2684 4303 2865 4023 
Q 3047 3744 3150 3342 
Q 3253 2941 3253 2259 
Q 3253 1453 3087 958 
Q 2922 463 2592 192 
Q 2263 -78 1759 -78 
Q 1097 -78 719 397 
Q 266 969 266 2259 
z
M 844 2259 
Q 844 1131 1108 757 
Q 1372 384 1759 384 
Q 2147 384 2411 759 
Q 2675 1134 2675 2259 
Q 2675 3391 2411 3762 
Q 2147 4134 1753 4134 
Q 1366 4134 1134 3806 
Q 844 3388 844 2259 
z
" transform="scale(0.015625)"/>
       </defs>
       <use xlink:href="#ArialMT-31"/>
       <use xlink:href="#ArialMT-39" x="55.615234"/>
       <use xlink:href="#ArialMT-38" x="111.230469"/>
       <use xlink:href="#ArialMT-39" x="166.845703"/>
       <use xlink:href="#ArialMT-2d" x="222.460938"/>
       <use xlink:href="#ArialMT-30" x="255.761719"/>
       <use xlink:href="#ArialMT-39" x="311.376953"/>
      </g>
     </g>
    </g>
    <g id="xtick_2">
     <g id="line2d_2">
      <path d="M 144.105082 219.310634 
L 144.105082 21.935625 
" clip-path="url(#p1ef74182de)" style="fill: none; stroke: #cccccc; stroke-width: 0.8; stroke-linecap: round"/>
     </g>
     <g id="text_2">
      <!-- 1990-01 -->
      <g style="fill: #262626" transform="translate(130.96782 248.402487) rotate(-30) scale(0.09 -0.09)">
       <use xlink:href="#ArialMT-31"/>
       <use xlink:href="#ArialMT-39" x="55.615234"/>
       <use xlink:href="#ArialMT-39" x="111.230469"/>
       <use xlink:href="#ArialMT-30" x="166.845703"/>
       <use xlink:href="#ArialMT-2d" x="222.460938"/>
       <use xlink:href="#ArialMT-30" x="255.761719"/>
       <use xlink:href="#ArialMT-31" x="311.376953"/>
      </g>
     </g>
    </g>
    <g id="xtick_3">
     <g id="line2d_3">
      <path d="M 190.572553 219.310634 
L 190.572553 21.935625 
" clip-path="url(#p1ef74182de)" style="fill: none; stroke: #cccccc; stroke-width: 0.8; stroke-linecap: round"/>
     </g>
     <g id="text_3">
      <!-- 1990-05 -->
      <g style="fill: #262626" transform="translate(177.43529 248.402487) rotate(-30) scale(0.09 -0.09)">
       <defs>
        <path id="ArialMT-35" d="M 266 1200 
L 856 1250 
Q 922 819 1161 601 
Q 1400 384 1738 384 
Q 2144 384 2425 690 
Q 2706 997 2706 1503 
Q 2706 1984 2436 2262 
Q 2166 2541 1728 2541 
Q 1456 2541 1237 2417 
Q 1019 2294 894 2097 
L 366 2166 
L 809 4519 
L 3088 4519 
L 3088 3981 
L 1259 3981 
L 1013 2750 
Q 1425 3038 1878 3038 
Q 2478 3038 2890 2622 
Q 3303 2206 3303 1553 
Q 3303 931 2941 478 
Q 2500 -78 1738 -78 
Q 1113 -78 717 272 
Q 322 622 266 1200 
z
" transform="scale(0.015625)"/>
       </defs>
       <use xlink:href="#ArialMT-31"/>
       <use xlink:href="#ArialMT-39" x="55.615234"/>
       <use xlink:href="#ArialMT-39" x="111.230469"/>
       <use xlink:href="#ArialMT-30" x="166.845703"/>
       <use xlink:href="#ArialMT-2d" x="222.460938"/>
       <use xlink:href="#ArialMT-30" x="255.761719"/>
       <use xlink:href="#ArialMT-35" x="311.376953"/>
      </g>
     </g>
    </g>
    <g id="xtick_4">
     <g id="line2d_4">
      <path d="M 238.20171 219.310634 
L 238.20171 21.935625 
" clip-path="url(#p1ef74182de)" style="fill: none; stroke: #cccccc; stroke-width: 0.8; stroke-linecap: round"/>
     </g>
     <g id="text_4">
      <!-- 1990-09 -->
      <g style="fill: #262626" transform="translate(225.064448 248.402487) rotate(-30) scale(0.09 -0.09)">
       <use xlink:href="#ArialMT-31"/>
       <use xlink:href="#ArialMT-39" x="55.615234"/>
       <use xlink:href="#ArialMT-39" x="111.230469"/>
       <use xlink:href="#ArialMT-30" x="166.845703"/>
       <use xlink:href="#ArialMT-2d" x="222.460938"/>
       <use xlink:href="#ArialMT-30" x="255.761719"/>
       <use xlink:href="#ArialMT-39" x="311.376953"/>
      </g>
     </g>
    </g>
    <g id="xtick_5">
     <g id="line2d_5">
      <path d="M 285.443639 219.310634 
L 285.443639 21.935625 
" clip-path="url(#p1ef74182de)" style="fill: none; stroke: #cccccc; stroke-width: 0.8; stroke-linecap: round"/>
     </g>
     <g id="text_5">
      <!-- 1991-01 -->
      <g style="fill: #262626" transform="translate(272.306377 248.402487) rotate(-30) scale(0.09 -0.09)">
       <use xlink:href="#ArialMT-31"/>
       <use xlink:href="#ArialMT-39" x="55.615234"/>
       <use xlink:href="#ArialMT-39" x="111.230469"/>
       <use xlink:href="#ArialMT-31" x="166.845703"/>
       <use xlink:href="#ArialMT-2d" x="222.460938"/>
       <use xlink:href="#ArialMT-30" x="255.761719"/>
       <use xlink:href="#ArialMT-31" x="311.376953"/>
      </g>
     </g>
    </g>
    <g id="xtick_6">
     <g id="line2d_6">
      <path d="M 331.91111 219.310634 
L 331.91111 21.935625 
" clip-path="url(#p1ef74182de)" style="fill: none; stroke: #cccccc; stroke-width: 0.8; stroke-linecap: round"/>
     </g>
     <g id="text_6">
      <!-- 1991-05 -->
      <g style="fill: #262626" transform="translate(318.773847 248.402487) rotate(-30) scale(0.09 -0.09)">
       <use xlink:href="#ArialMT-31"/>
       <use xlink:href="#ArialMT-39" x="55.615234"/>
       <use xlink:href="#ArialMT-39" x="111.230469"/>
       <use xlink:href="#ArialMT-31" x="166.845703"/>
       <use xlink:href="#ArialMT-2d" x="222.460938"/>
       <use xlink:href="#ArialMT-30" x="255.761719"/>
       <use xlink:href="#ArialMT-35" x="311.376953"/>
      </g>
     </g>
    </g>
    <g id="xtick_7">
     <g id="line2d_7">
      <path d="M 379.540267 219.310634 
L 379.540267 21.935625 
" clip-path="url(#p1ef74182de)" style="fill: none; stroke: #cccccc; stroke-width: 0.8; stroke-linecap: round"/>
     </g>
     <g id="text_7">
      <!-- 1991-09 -->
      <g style="fill: #262626" transform="translate(366.403005 248.402487) rotate(-30) scale(0.09 -0.09)">
       <use xlink:href="#ArialMT-31"/>
       <use xlink:href="#ArialMT-39" x="55.615234"/>
       <use xlink:href="#ArialMT-39" x="111.230469"/>
       <use xlink:href="#ArialMT-31" x="166.845703"/>
       <use xlink:href="#ArialMT-2d" x="222.460938"/>
       <use xlink:href="#ArialMT-30" x="255.761719"/>
       <use xlink:href="#ArialMT-39" x="311.376953"/>
      </g>
     </g>
    </g>
    <g id="xtick_8">
     <g id="line2d_8">
      <path d="M 426.782196 219.310634 
L 426.782196 21.935625 
" clip-path="url(#p1ef74182de)" style="fill: none; stroke: #cccccc; stroke-width: 0.8; stroke-linecap: round"/>
     </g>
     <g id="text_8">
      <!-- 1992-01 -->
      <g style="fill: #262626" transform="translate(413.644934 248.402487) rotate(-30) scale(0.09 -0.09)">
       <defs>
        <path id="ArialMT-32" d="M 3222 541 
L 3222 0 
L 194 0 
Q 188 203 259 391 
Q 375 700 629 1000 
Q 884 1300 1366 1694 
Q 2113 2306 2375 2664 
Q 2638 3022 2638 3341 
Q 2638 3675 2398 3904 
Q 2159 4134 1775 4134 
Q 1369 4134 1125 3890 
Q 881 3647 878 3216 
L 300 3275 
Q 359 3922 746 4261 
Q 1134 4600 1788 4600 
Q 2447 4600 2831 4234 
Q 3216 3869 3216 3328 
Q 3216 3053 3103 2787 
Q 2991 2522 2730 2228 
Q 2469 1934 1863 1422 
Q 1356 997 1212 845 
Q 1069 694 975 541 
L 3222 541 
z
" transform="scale(0.015625)"/>
       </defs>
       <use xlink:href="#ArialMT-31"/>
       <use xlink:href="#ArialMT-39" x="55.615234"/>
       <use xlink:href="#ArialMT-39" x="111.230469"/>
       <use xlink:href="#ArialMT-32" x="166.845703"/>
       <use xlink:href="#ArialMT-2d" x="222.460938"/>
       <use xlink:href="#ArialMT-30" x="255.761719"/>
       <use xlink:href="#ArialMT-31" x="311.376953"/>
      </g>
     </g>
    </g>
    <g id="xtick_9">
     <g id="line2d_9">
      <path d="M 473.636896 219.310634 
L 473.636896 21.935625 
" clip-path="url(#p1ef74182de)" style="fill: none; stroke: #cccccc; stroke-width: 0.8; stroke-linecap: round"/>
     </g>
     <g id="text_9">
      <!-- 1992-05 -->
      <g style="fill: #262626" transform="translate(460.499633 248.402487) rotate(-30) scale(0.09 -0.09)">
       <use xlink:href="#ArialMT-31"/>
       <use xlink:href="#ArialMT-39" x="55.615234"/>
       <use xlink:href="#ArialMT-39" x="111.230469"/>
       <use xlink:href="#ArialMT-32" x="166.845703"/>
       <use xlink:href="#ArialMT-2d" x="222.460938"/>
       <use xlink:href="#ArialMT-30" x="255.761719"/>
       <use xlink:href="#ArialMT-35" x="311.376953"/>
      </g>
     </g>
    </g>
    <g id="xtick_10">
     <g id="line2d_10">
      <path d="M 521.266053 219.310634 
L 521.266053 21.935625 
" clip-path="url(#p1ef74182de)" style="fill: none; stroke: #cccccc; stroke-width: 0.8; stroke-linecap: round"/>
     </g>
     <g id="text_10">
      <!-- 1992-09 -->
      <g style="fill: #262626" transform="translate(508.128791 248.402487) rotate(-30) scale(0.09 -0.09)">
       <use xlink:href="#ArialMT-31"/>
       <use xlink:href="#ArialMT-39" x="55.615234"/>
       <use xlink:href="#ArialMT-39" x="111.230469"/>
       <use xlink:href="#ArialMT-32" x="166.845703"/>
       <use xlink:href="#ArialMT-2d" x="222.460938"/>
       <use xlink:href="#ArialMT-30" x="255.761719"/>
       <use xlink:href="#ArialMT-39" x="311.376953"/>
      </g>
     </g>
    </g>
    <g id="xtick_11">
     <g id="line2d_11">
      <path d="M 568.507982 219.310634 
L 568.507982 21.935625 
" clip-path="url(#p1ef74182de)" style="fill: none; stroke: #cccccc; stroke-width: 0.8; stroke-linecap: round"/>
     </g>
     <g id="text_11">
      <!-- 1993-01 -->
      <g style="fill: #262626" transform="translate(555.37072 248.402487) rotate(-30) scale(0.09 -0.09)">
       <defs>
        <path id="ArialMT-33" d="M 269 1209 
L 831 1284 
Q 928 806 1161 595 
Q 1394 384 1728 384 
Q 2125 384 2398 659 
Q 2672 934 2672 1341 
Q 2672 1728 2419 1979 
Q 2166 2231 1775 2231 
Q 1616 2231 1378 2169 
L 1441 2663 
Q 1497 2656 1531 2656 
Q 1891 2656 2178 2843 
Q 2466 3031 2466 3422 
Q 2466 3731 2256 3934 
Q 2047 4138 1716 4138 
Q 1388 4138 1169 3931 
Q 950 3725 888 3313 
L 325 3413 
Q 428 3978 793 4289 
Q 1159 4600 1703 4600 
Q 2078 4600 2393 4439 
Q 2709 4278 2876 4000 
Q 3044 3722 3044 3409 
Q 3044 3113 2884 2869 
Q 2725 2625 2413 2481 
Q 2819 2388 3044 2092 
Q 3269 1797 3269 1353 
Q 3269 753 2831 336 
Q 2394 -81 1725 -81 
Q 1122 -81 723 278 
Q 325 638 269 1209 
z
" transform="scale(0.015625)"/>
       </defs>
       <use xlink:href="#ArialMT-31"/>
       <use xlink:href="#ArialMT-39" x="55.615234"/>
       <use xlink:href="#ArialMT-39" x="111.230469"/>
       <use xlink:href="#ArialMT-33" x="166.845703"/>
       <use xlink:href="#ArialMT-2d" x="222.460938"/>
       <use xlink:href="#ArialMT-30" x="255.761719"/>
       <use xlink:href="#ArialMT-31" x="311.376953"/>
      </g>
     </g>
    </g>
   </g>
   <g id="matplotlib.axis_2">
    <g id="ytick_1">
     <g id="line2d_12">
      <path d="M 52.486719 210.339043 
L 577.259356 210.339043 
" clip-path="url(#p1ef74182de)" style="fill: none; stroke: #cccccc; stroke-width: 0.8; stroke-linecap: round"/>
     </g>
     <g id="text_12">
      <!-- 0 -->
      <g style="fill: #262626" transform="translate(40.481875 213.560058) scale(0.09 -0.09)">
       <use xlink:href="#ArialMT-30"/>
      </g>
     </g>
    </g>
    <g id="ytick_2">
     <g id="line2d_13">
      <path d="M 52.486719 175.942067 
L 577.259356 175.942067 
" clip-path="url(#p1ef74182de)" style="fill: none; stroke: #cccccc; stroke-width: 0.8; stroke-linecap: round"/>
     </g>
     <g id="text_13">
      <!-- 2000 -->
      <g style="fill: #262626" transform="translate(25.467344 179.163082) scale(0.09 -0.09)">
       <use xlink:href="#ArialMT-32"/>
       <use xlink:href="#ArialMT-30" x="55.615234"/>
       <use xlink:href="#ArialMT-30" x="111.230469"/>
       <use xlink:href="#ArialMT-30" x="166.845703"/>
      </g>
     </g>
    </g>
    <g id="ytick_3">
     <g id="line2d_14">
      <path d="M 52.486719 141.54509 
L 577.259356 141.54509 
" clip-path="url(#p1ef74182de)" style="fill: none; stroke: #cccccc; stroke-width: 0.8; stroke-linecap: round"/>
     </g>
     <g id="text_14">
      <!-- 4000 -->
      <g style="fill: #262626" transform="translate(25.467344 144.766106) scale(0.09 -0.09)">
       <defs>
        <path id="ArialMT-34" d="M 2069 0 
L 2069 1097 
L 81 1097 
L 81 1613 
L 2172 4581 
L 2631 4581 
L 2631 1613 
L 3250 1613 
L 3250 1097 
L 2631 1097 
L 2631 0 
L 2069 0 
z
M 2069 1613 
L 2069 3678 
L 634 1613 
L 2069 1613 
z
" transform="scale(0.015625)"/>
       </defs>
       <use xlink:href="#ArialMT-34"/>
       <use xlink:href="#ArialMT-30" x="55.615234"/>
       <use xlink:href="#ArialMT-30" x="111.230469"/>
       <use xlink:href="#ArialMT-30" x="166.845703"/>
      </g>
     </g>
    </g>
    <g id="ytick_4">
     <g id="line2d_15">
      <path d="M 52.486719 107.148114 
L 577.259356 107.148114 
" clip-path="url(#p1ef74182de)" style="fill: none; stroke: #cccccc; stroke-width: 0.8; stroke-linecap: round"/>
     </g>
     <g id="text_15">
      <!-- 6000 -->
      <g style="fill: #262626" transform="translate(25.467344 110.36913) scale(0.09 -0.09)">
       <defs>
        <path id="ArialMT-36" d="M 3184 3459 
L 2625 3416 
Q 2550 3747 2413 3897 
Q 2184 4138 1850 4138 
Q 1581 4138 1378 3988 
Q 1113 3794 959 3422 
Q 806 3050 800 2363 
Q 1003 2672 1297 2822 
Q 1591 2972 1913 2972 
Q 2475 2972 2870 2558 
Q 3266 2144 3266 1488 
Q 3266 1056 3080 686 
Q 2894 316 2569 119 
Q 2244 -78 1831 -78 
Q 1128 -78 684 439 
Q 241 956 241 2144 
Q 241 3472 731 4075 
Q 1159 4600 1884 4600 
Q 2425 4600 2770 4297 
Q 3116 3994 3184 3459 
z
M 888 1484 
Q 888 1194 1011 928 
Q 1134 663 1356 523 
Q 1578 384 1822 384 
Q 2178 384 2434 671 
Q 2691 959 2691 1453 
Q 2691 1928 2437 2201 
Q 2184 2475 1800 2475 
Q 1419 2475 1153 2201 
Q 888 1928 888 1484 
z
" transform="scale(0.015625)"/>
       </defs>
       <use xlink:href="#ArialMT-36"/>
       <use xlink:href="#ArialMT-30" x="55.615234"/>
       <use xlink:href="#ArialMT-30" x="111.230469"/>
       <use xlink:href="#ArialMT-30" x="166.845703"/>
      </g>
     </g>
    </g>
    <g id="ytick_5">
     <g id="line2d_16">
      <path d="M 52.486719 72.751138 
L 577.259356 72.751138 
" clip-path="url(#p1ef74182de)" style="fill: none; stroke: #cccccc; stroke-width: 0.8; stroke-linecap: round"/>
     </g>
     <g id="text_16">
      <!-- 8000 -->
      <g style="fill: #262626" transform="translate(25.467344 75.972154) scale(0.09 -0.09)">
       <use xlink:href="#ArialMT-38"/>
       <use xlink:href="#ArialMT-30" x="55.615234"/>
       <use xlink:href="#ArialMT-30" x="111.230469"/>
       <use xlink:href="#ArialMT-30" x="166.845703"/>
      </g>
     </g>
    </g>
    <g id="ytick_6">
     <g id="line2d_17">
      <path d="M 52.486719 38.354162 
L 577.259356 38.354162 
" clip-path="url(#p1ef74182de)" style="fill: none; stroke: #cccccc; stroke-width: 0.8; stroke-linecap: round"/>
     </g>
     <g id="text_17">
      <!-- 10000 -->
      <g style="fill: #262626" transform="translate(20.4625 41.575177) scale(0.09 -0.09)">
       <use xlink:href="#ArialMT-31"/>
       <use xlink:href="#ArialMT-30" x="55.615234"/>
       <use xlink:href="#ArialMT-30" x="111.230469"/>
       <use xlink:href="#ArialMT-30" x="166.845703"/>
       <use xlink:href="#ArialMT-30" x="222.460938"/>
      </g>
     </g>
    </g>
    <g id="text_18">
     <!-- Target [y] -->
     <g style="fill: #262626" transform="translate(14.357812 141.183286) rotate(-90) scale(0.1 -0.1)">
      <defs>
       <path id="ArialMT-54" d="M 1659 0 
L 1659 4041 
L 150 4041 
L 150 4581 
L 3781 4581 
L 3781 4041 
L 2266 4041 
L 2266 0 
L 1659 0 
z
" transform="scale(0.015625)"/>
       <path id="ArialMT-61" d="M 2588 409 
Q 2275 144 1986 34 
Q 1697 -75 1366 -75 
Q 819 -75 525 192 
Q 231 459 231 875 
Q 231 1119 342 1320 
Q 453 1522 633 1644 
Q 813 1766 1038 1828 
Q 1203 1872 1538 1913 
Q 2219 1994 2541 2106 
Q 2544 2222 2544 2253 
Q 2544 2597 2384 2738 
Q 2169 2928 1744 2928 
Q 1347 2928 1158 2789 
Q 969 2650 878 2297 
L 328 2372 
Q 403 2725 575 2942 
Q 747 3159 1072 3276 
Q 1397 3394 1825 3394 
Q 2250 3394 2515 3294 
Q 2781 3194 2906 3042 
Q 3031 2891 3081 2659 
Q 3109 2516 3109 2141 
L 3109 1391 
Q 3109 606 3145 398 
Q 3181 191 3288 0 
L 2700 0 
Q 2613 175 2588 409 
z
M 2541 1666 
Q 2234 1541 1622 1453 
Q 1275 1403 1131 1340 
Q 988 1278 909 1158 
Q 831 1038 831 891 
Q 831 666 1001 516 
Q 1172 366 1500 366 
Q 1825 366 2078 508 
Q 2331 650 2450 897 
Q 2541 1088 2541 1459 
L 2541 1666 
z
" transform="scale(0.015625)"/>
       <path id="ArialMT-72" d="M 416 0 
L 416 3319 
L 922 3319 
L 922 2816 
Q 1116 3169 1280 3281 
Q 1444 3394 1641 3394 
Q 1925 3394 2219 3213 
L 2025 2691 
Q 1819 2813 1613 2813 
Q 1428 2813 1281 2702 
Q 1134 2591 1072 2394 
Q 978 2094 978 1738 
L 978 0 
L 416 0 
z
" transform="scale(0.015625)"/>
       <path id="ArialMT-67" d="M 319 -275 
L 866 -356 
Q 900 -609 1056 -725 
Q 1266 -881 1628 -881 
Q 2019 -881 2231 -725 
Q 2444 -569 2519 -288 
Q 2563 -116 2559 434 
Q 2191 0 1641 0 
Q 956 0 581 494 
Q 206 988 206 1678 
Q 206 2153 378 2554 
Q 550 2956 876 3175 
Q 1203 3394 1644 3394 
Q 2231 3394 2613 2919 
L 2613 3319 
L 3131 3319 
L 3131 450 
Q 3131 -325 2973 -648 
Q 2816 -972 2473 -1159 
Q 2131 -1347 1631 -1347 
Q 1038 -1347 672 -1080 
Q 306 -813 319 -275 
z
M 784 1719 
Q 784 1066 1043 766 
Q 1303 466 1694 466 
Q 2081 466 2343 764 
Q 2606 1063 2606 1700 
Q 2606 2309 2336 2618 
Q 2066 2928 1684 2928 
Q 1309 2928 1046 2623 
Q 784 2319 784 1719 
z
" transform="scale(0.015625)"/>
       <path id="ArialMT-65" d="M 2694 1069 
L 3275 997 
Q 3138 488 2766 206 
Q 2394 -75 1816 -75 
Q 1088 -75 661 373 
Q 234 822 234 1631 
Q 234 2469 665 2931 
Q 1097 3394 1784 3394 
Q 2450 3394 2872 2941 
Q 3294 2488 3294 1666 
Q 3294 1616 3291 1516 
L 816 1516 
Q 847 969 1125 678 
Q 1403 388 1819 388 
Q 2128 388 2347 550 
Q 2566 713 2694 1069 
z
M 847 1978 
L 2700 1978 
Q 2663 2397 2488 2606 
Q 2219 2931 1791 2931 
Q 1403 2931 1139 2672 
Q 875 2413 847 1978 
z
" transform="scale(0.015625)"/>
       <path id="ArialMT-74" d="M 1650 503 
L 1731 6 
Q 1494 -44 1306 -44 
Q 1000 -44 831 53 
Q 663 150 594 308 
Q 525 466 525 972 
L 525 2881 
L 113 2881 
L 113 3319 
L 525 3319 
L 525 4141 
L 1084 4478 
L 1084 3319 
L 1650 3319 
L 1650 2881 
L 1084 2881 
L 1084 941 
Q 1084 700 1114 631 
Q 1144 563 1211 522 
Q 1278 481 1403 481 
Q 1497 481 1650 503 
z
" transform="scale(0.015625)"/>
       <path id="ArialMT-20" transform="scale(0.015625)"/>
       <path id="ArialMT-5b" d="M 434 -1272 
L 434 4581 
L 1675 4581 
L 1675 4116 
L 997 4116 
L 997 -806 
L 1675 -806 
L 1675 -1272 
L 434 -1272 
z
" transform="scale(0.015625)"/>
       <path id="ArialMT-79" d="M 397 -1278 
L 334 -750 
Q 519 -800 656 -800 
Q 844 -800 956 -737 
Q 1069 -675 1141 -563 
Q 1194 -478 1313 -144 
Q 1328 -97 1363 -6 
L 103 3319 
L 709 3319 
L 1400 1397 
Q 1534 1031 1641 628 
Q 1738 1016 1872 1384 
L 2581 3319 
L 3144 3319 
L 1881 -56 
Q 1678 -603 1566 -809 
Q 1416 -1088 1222 -1217 
Q 1028 -1347 759 -1347 
Q 597 -1347 397 -1278 
z
" transform="scale(0.015625)"/>
       <path id="ArialMT-5d" d="M 1363 -1272 
L 122 -1272 
L 122 -806 
L 800 -806 
L 800 4116 
L 122 4116 
L 122 4581 
L 1363 4581 
L 1363 -1272 
z
" transform="scale(0.015625)"/>
      </defs>
      <use xlink:href="#ArialMT-54"/>
      <use xlink:href="#ArialMT-61" x="49.958984"/>
      <use xlink:href="#ArialMT-72" x="105.574219"/>
      <use xlink:href="#ArialMT-67" x="138.875"/>
      <use xlink:href="#ArialMT-65" x="194.490234"/>
      <use xlink:href="#ArialMT-74" x="250.105469"/>
      <use xlink:href="#ArialMT-20" x="277.888672"/>
      <use xlink:href="#ArialMT-5b" x="305.671875"/>
      <use xlink:href="#ArialMT-79" x="333.455078"/>
      <use xlink:href="#ArialMT-5d" x="383.455078"/>
     </g>
    </g>
   </g>
   <g id="line2d_18">
    <path d="M 76.34002 184.128547 
L 79.050623 172.295987 
L 81.761225 179.777329 
L 84.471828 166.448501 
L 87.18243 177.851099 
L 89.893033 195.703129 
L 92.603635 210.339043 
L 108.86725 210.339043 
L 111.577852 199.710377 
L 114.288455 200.621897 
L 116.999057 203.218869 
L 119.70966 201.000264 
L 122.420262 198.093719 
L 125.130865 199.125628 
L 127.841467 198.145315 
L 130.55207 196.700642 
L 133.262672 195.92671 
L 135.973275 197.216596 
L 138.683877 205.764245 
L 141.39448 204.11319 
L 146.815684 193.88009 
L 149.526287 190.646774 
L 152.236889 187.774626 
L 154.947492 181.290796 
L 157.658094 180.035307 
L 160.368697 173.190308 
L 163.079299 178.057481 
L 165.789902 175.116539 
L 168.500504 178.969 
L 171.211107 176.182845 
L 173.921709 175.391715 
L 176.632312 176.6988 
L 179.342914 184.489715 
L 182.053517 188.737742 
L 184.764119 180.207292 
L 187.474721 178.040282 
L 190.185324 176.887983 
L 192.895926 180.499666 
L 195.606529 178.951802 
L 198.317131 180.843636 
L 201.027734 182.924653 
L 203.738336 186.656725 
L 206.448939 181.342392 
L 209.159541 183.509401 
L 211.870144 181.239201 
L 214.580746 182.873057 
L 217.291349 180.602857 
L 220.001951 180.534063 
L 222.712553 179.158184 
L 225.423156 180.671651 
L 228.133758 177.507129 
L 230.844361 179.983711 
L 233.554963 179.708535 
L 236.265566 180.809239 
L 238.976168 177.937091 
L 241.686771 177.988687 
L 244.397373 185.693609 
L 247.107976 183.956562 
L 249.818578 177.214755 
L 252.529181 178.17787 
L 255.239783 176.939579 
L 257.950385 172.124002 
L 260.660988 177.507129 
L 263.37159 174.411401 
L 266.082193 175.494906 
L 268.792795 175.78728 
L 271.503398 175.357318 
L 274.214 174.480195 
L 276.924603 187.465054 
L 279.635205 204.869923 
L 282.345808 201.361432 
L 287.767013 196.167489 
L 290.477615 191.197125 
L 293.188218 188.238985 
L 295.89882 191.300316 
L 298.609422 182.976248 
L 301.320025 180.654452 
L 304.030627 180.104101 
L 306.74123 177.95429 
L 309.451832 174.411401 
L 312.162435 172.536766 
L 314.873037 168.219945 
L 317.58364 180.430872 
L 320.294242 184.88528 
L 323.004845 173.327896 
L 325.715447 171.504857 
L 328.42605 179.794528 
L 331.136652 169.836603 
L 333.847254 173.534278 
L 336.557857 176.148448 
L 339.268459 174.514592 
L 341.979062 173.96424 
L 344.689664 177.937091 
L 347.400267 179.43336 
L 350.110869 176.905182 
L 352.821472 175.924868 
L 355.532074 181.651965 
L 358.242677 184.076951 
L 360.953279 184.936876 
L 363.663882 176.819189 
L 366.374484 177.421136 
L 369.085086 182.27111 
L 371.795689 179.450558 
L 374.506291 181.170407 
L 377.216894 180.79204 
L 379.927496 185.538823 
L 382.638099 180.878033 
L 385.348701 179.450558 
L 388.059304 178.349855 
L 390.769906 183.612592 
L 393.480509 182.425897 
L 396.191111 182.116324 
L 398.901714 179.072191 
L 401.612316 176.47522 
L 404.322919 177.902694 
L 407.033521 175.426112 
L 409.744123 177.95429 
L 412.454726 178.160671 
L 415.165328 177.48993 
L 417.875931 177.300747 
L 420.586533 181.583171 
L 423.297136 203.700426 
L 426.007738 202.668517 
L 428.718341 196.253481 
L 431.428943 189.047314 
L 434.139546 180.052505 
L 436.850148 181.961537 
L 439.560751 175.408913 
L 442.271353 174.841363 
L 444.981955 168.753098 
L 447.692558 173.001125 
L 450.40316 169.716214 
L 453.113763 170.300962 
L 455.824365 170.163375 
L 458.534968 33.177417 
L 461.24557 38.973307 
L 463.956173 30.907216 
L 469.377378 104.946708 
L 472.08798 43.358922 
L 474.798583 58.51079 
L 477.509185 71.409656 
L 480.219788 80.886023 
L 482.93039 81.591161 
L 488.351595 108.352008 
L 491.062197 116.400901 
L 493.7728 146.532652 
L 496.483402 160.566618 
L 499.194005 158.60599 
L 501.904607 161.68452 
L 504.61521 154.409559 
L 507.325812 158.38241 
L 510.036415 164.470675 
L 515.45762 162.062887 
L 518.168222 159.414319 
L 520.878824 166.138928 
L 523.589427 164.401881 
L 526.300029 162.02849 
L 529.010632 163.696743 
L 534.431837 167.342822 
L 537.142439 160.497824 
L 539.853042 156.129408 
L 542.563644 157.832059 
L 545.274247 163.129193 
L 547.984849 156.060614 
L 550.695452 157.556883 
L 553.406054 152.225351 
L 553.406054 152.225351 
" clip-path="url(#p1ef74182de)" style="fill: none; stroke: #000000; stroke-width: 1.5; stroke-linecap: round"/>
   </g>
   <g id="patch_3">
    <path d="M 52.486719 219.310634 
L 52.486719 21.935625 
" style="fill: none; stroke: #cccccc; stroke-linejoin: miter; stroke-linecap: square"/>
   </g>
   <g id="patch_4">
    <path d="M 577.259356 219.310634 
L 577.259356 21.935625 
" style="fill: none; stroke: #cccccc; stroke-linejoin: miter; stroke-linecap: square"/>
   </g>
   <g id="patch_5">
    <path d="M 52.486719 219.310634 
L 577.259356 219.310634 
" style="fill: none; stroke: #cccccc; stroke-linejoin: miter; stroke-linecap: square"/>
   </g>
   <g id="patch_6">
    <path d="M 52.486719 21.935625 
L 577.259356 21.935625 
" style="fill: none; stroke: #cccccc; stroke-linejoin: miter; stroke-linecap: square"/>
   </g>
   <g id="text_19">
    <!-- Class=Business -->
    <g style="fill: #262626" transform="translate(272.02085 15.935625) scale(0.12 -0.12)">
     <defs>
      <path id="ArialMT-43" d="M 3763 1606 
L 4369 1453 
Q 4178 706 3683 314 
Q 3188 -78 2472 -78 
Q 1731 -78 1267 223 
Q 803 525 561 1097 
Q 319 1669 319 2325 
Q 319 3041 592 3573 
Q 866 4106 1370 4382 
Q 1875 4659 2481 4659 
Q 3169 4659 3637 4309 
Q 4106 3959 4291 3325 
L 3694 3184 
Q 3534 3684 3231 3912 
Q 2928 4141 2469 4141 
Q 1941 4141 1586 3887 
Q 1231 3634 1087 3207 
Q 944 2781 944 2328 
Q 944 1744 1114 1308 
Q 1284 872 1643 656 
Q 2003 441 2422 441 
Q 2931 441 3284 734 
Q 3638 1028 3763 1606 
z
" transform="scale(0.015625)"/>
      <path id="ArialMT-6c" d="M 409 0 
L 409 4581 
L 972 4581 
L 972 0 
L 409 0 
z
" transform="scale(0.015625)"/>
      <path id="ArialMT-73" d="M 197 991 
L 753 1078 
Q 800 744 1014 566 
Q 1228 388 1613 388 
Q 2000 388 2187 545 
Q 2375 703 2375 916 
Q 2375 1106 2209 1216 
Q 2094 1291 1634 1406 
Q 1016 1563 777 1677 
Q 538 1791 414 1992 
Q 291 2194 291 2438 
Q 291 2659 392 2848 
Q 494 3038 669 3163 
Q 800 3259 1026 3326 
Q 1253 3394 1513 3394 
Q 1903 3394 2198 3281 
Q 2494 3169 2634 2976 
Q 2775 2784 2828 2463 
L 2278 2388 
Q 2241 2644 2061 2787 
Q 1881 2931 1553 2931 
Q 1166 2931 1000 2803 
Q 834 2675 834 2503 
Q 834 2394 903 2306 
Q 972 2216 1119 2156 
Q 1203 2125 1616 2013 
Q 2213 1853 2448 1751 
Q 2684 1650 2818 1456 
Q 2953 1263 2953 975 
Q 2953 694 2789 445 
Q 2625 197 2315 61 
Q 2006 -75 1616 -75 
Q 969 -75 630 194 
Q 291 463 197 991 
z
" transform="scale(0.015625)"/>
      <path id="ArialMT-3d" d="M 3381 2694 
L 356 2694 
L 356 3219 
L 3381 3219 
L 3381 2694 
z
M 3381 1303 
L 356 1303 
L 356 1828 
L 3381 1828 
L 3381 1303 
z
" transform="scale(0.015625)"/>
      <path id="ArialMT-42" d="M 469 0 
L 469 4581 
L 2188 4581 
Q 2713 4581 3030 4442 
Q 3347 4303 3526 4014 
Q 3706 3725 3706 3409 
Q 3706 3116 3547 2856 
Q 3388 2597 3066 2438 
Q 3481 2316 3704 2022 
Q 3928 1728 3928 1328 
Q 3928 1006 3792 729 
Q 3656 453 3456 303 
Q 3256 153 2954 76 
Q 2653 0 2216 0 
L 469 0 
z
M 1075 2656 
L 2066 2656 
Q 2469 2656 2644 2709 
Q 2875 2778 2992 2937 
Q 3109 3097 3109 3338 
Q 3109 3566 3000 3739 
Q 2891 3913 2687 3977 
Q 2484 4041 1991 4041 
L 1075 4041 
L 1075 2656 
z
M 1075 541 
L 2216 541 
Q 2509 541 2628 563 
Q 2838 600 2978 687 
Q 3119 775 3209 942 
Q 3300 1109 3300 1328 
Q 3300 1584 3169 1773 
Q 3038 1963 2805 2039 
Q 2572 2116 2134 2116 
L 1075 2116 
L 1075 541 
z
" transform="scale(0.015625)"/>
      <path id="ArialMT-75" d="M 2597 0 
L 2597 488 
Q 2209 -75 1544 -75 
Q 1250 -75 995 37 
Q 741 150 617 320 
Q 494 491 444 738 
Q 409 903 409 1263 
L 409 3319 
L 972 3319 
L 972 1478 
Q 972 1038 1006 884 
Q 1059 663 1231 536 
Q 1403 409 1656 409 
Q 1909 409 2131 539 
Q 2353 669 2445 892 
Q 2538 1116 2538 1541 
L 2538 3319 
L 3100 3319 
L 3100 0 
L 2597 0 
z
" transform="scale(0.015625)"/>
      <path id="ArialMT-69" d="M 425 3934 
L 425 4581 
L 988 4581 
L 988 3934 
L 425 3934 
z
M 425 0 
L 425 3319 
L 988 3319 
L 988 0 
L 425 0 
z
" transform="scale(0.015625)"/>
      <path id="ArialMT-6e" d="M 422 0 
L 422 3319 
L 928 3319 
L 928 2847 
Q 1294 3394 1984 3394 
Q 2284 3394 2536 3286 
Q 2788 3178 2913 3003 
Q 3038 2828 3088 2588 
Q 3119 2431 3119 2041 
L 3119 0 
L 2556 0 
L 2556 2019 
Q 2556 2363 2490 2533 
Q 2425 2703 2258 2804 
Q 2091 2906 1866 2906 
Q 1506 2906 1245 2678 
Q 984 2450 984 1813 
L 984 0 
L 422 0 
z
" transform="scale(0.015625)"/>
     </defs>
     <use xlink:href="#ArialMT-43"/>
     <use xlink:href="#ArialMT-6c" x="72.216797"/>
     <use xlink:href="#ArialMT-61" x="94.433594"/>
     <use xlink:href="#ArialMT-73" x="150.048828"/>
     <use xlink:href="#ArialMT-73" x="200.048828"/>
     <use xlink:href="#ArialMT-3d" x="250.048828"/>
     <use xlink:href="#ArialMT-42" x="308.447266"/>
     <use xlink:href="#ArialMT-75" x="375.146484"/>
     <use xlink:href="#ArialMT-73" x="430.761719"/>
     <use xlink:href="#ArialMT-69" x="480.761719"/>
     <use xlink:href="#ArialMT-6e" x="502.978516"/>
     <use xlink:href="#ArialMT-65" x="558.59375"/>
     <use xlink:href="#ArialMT-73" x="614.208984"/>
     <use xlink:href="#ArialMT-73" x="664.208984"/>
    </g>
   </g>
  </g>
  <g id="axes_2">
   <g id="patch_7">
    <path d="M 628.426883 219.310634 
L 1153.19952 219.310634 
L 1153.19952 21.935625 
L 628.426883 21.935625 
z
" style="fill: #ffffff"/>
   </g>
   <g id="matplotlib.axis_3">
    <g id="xtick_12">
     <g id="line2d_19">
      <path d="M 697.231695 219.310634 
L 697.231695 21.935625 
" clip-path="url(#p95a6c22dce)" style="fill: none; stroke: #cccccc; stroke-width: 0.8; stroke-linecap: round"/>
     </g>
     <g id="text_20">
      <!-- 1988 -->
      <g style="fill: #262626" transform="translate(689.726372 241.899284) rotate(-30) scale(0.09 -0.09)">
       <use xlink:href="#ArialMT-31"/>
       <use xlink:href="#ArialMT-39" x="55.615234"/>
       <use xlink:href="#ArialMT-38" x="111.230469"/>
       <use xlink:href="#ArialMT-38" x="166.845703"/>
      </g>
     </g>
    </g>
    <g id="xtick_13">
     <g id="line2d_20">
      <path d="M 785.684668 219.310634 
L 785.684668 21.935625 
" clip-path="url(#p95a6c22dce)" style="fill: none; stroke: #cccccc; stroke-width: 0.8; stroke-linecap: round"/>
     </g>
     <g id="text_21">
      <!-- 1989 -->
      <g style="fill: #262626" transform="translate(778.179345 241.899284) rotate(-30) scale(0.09 -0.09)">
       <use xlink:href="#ArialMT-31"/>
       <use xlink:href="#ArialMT-39" x="55.615234"/>
       <use xlink:href="#ArialMT-38" x="111.230469"/>
       <use xlink:href="#ArialMT-39" x="166.845703"/>
      </g>
     </g>
    </g>
    <g id="xtick_14">
     <g id="line2d_21">
      <path d="M 873.895966 219.310634 
L 873.895966 21.935625 
" clip-path="url(#p95a6c22dce)" style="fill: none; stroke: #cccccc; stroke-width: 0.8; stroke-linecap: round"/>
     </g>
     <g id="text_22">
      <!-- 1990 -->
      <g style="fill: #262626" transform="translate(866.390643 241.899284) rotate(-30) scale(0.09 -0.09)">
       <use xlink:href="#ArialMT-31"/>
       <use xlink:href="#ArialMT-39" x="55.615234"/>
       <use xlink:href="#ArialMT-39" x="111.230469"/>
       <use xlink:href="#ArialMT-30" x="166.845703"/>
      </g>
     </g>
    </g>
    <g id="xtick_15">
     <g id="line2d_22">
      <path d="M 962.107264 219.310634 
L 962.107264 21.935625 
" clip-path="url(#p95a6c22dce)" style="fill: none; stroke: #cccccc; stroke-width: 0.8; stroke-linecap: round"/>
     </g>
     <g id="text_23">
      <!-- 1991 -->
      <g style="fill: #262626" transform="translate(954.601941 241.899284) rotate(-30) scale(0.09 -0.09)">
       <use xlink:href="#ArialMT-31"/>
       <use xlink:href="#ArialMT-39" x="55.615234"/>
       <use xlink:href="#ArialMT-39" x="111.230469"/>
       <use xlink:href="#ArialMT-31" x="166.845703"/>
      </g>
     </g>
    </g>
    <g id="xtick_16">
     <g id="line2d_23">
      <path d="M 1050.318562 219.310634 
L 1050.318562 21.935625 
" clip-path="url(#p95a6c22dce)" style="fill: none; stroke: #cccccc; stroke-width: 0.8; stroke-linecap: round"/>
     </g>
     <g id="text_24">
      <!-- 1992 -->
      <g style="fill: #262626" transform="translate(1042.813239 241.899284) rotate(-30) scale(0.09 -0.09)">
       <use xlink:href="#ArialMT-31"/>
       <use xlink:href="#ArialMT-39" x="55.615234"/>
       <use xlink:href="#ArialMT-39" x="111.230469"/>
       <use xlink:href="#ArialMT-32" x="166.845703"/>
      </g>
     </g>
    </g>
    <g id="xtick_17">
     <g id="line2d_24">
      <path d="M 1138.771535 219.310634 
L 1138.771535 21.935625 
" clip-path="url(#p95a6c22dce)" style="fill: none; stroke: #cccccc; stroke-width: 0.8; stroke-linecap: round"/>
     </g>
     <g id="text_25">
      <!-- 1993 -->
      <g style="fill: #262626" transform="translate(1131.266212 241.899284) rotate(-30) scale(0.09 -0.09)">
       <use xlink:href="#ArialMT-31"/>
       <use xlink:href="#ArialMT-39" x="55.615234"/>
       <use xlink:href="#ArialMT-39" x="111.230469"/>
       <use xlink:href="#ArialMT-33" x="166.845703"/>
      </g>
     </g>
    </g>
   </g>
   <g id="matplotlib.axis_4">
    <g id="ytick_7">
     <g id="line2d_25">
      <path d="M 628.426883 210.339043 
L 1153.19952 210.339043 
" clip-path="url(#p95a6c22dce)" style="fill: none; stroke: #cccccc; stroke-width: 0.8; stroke-linecap: round"/>
     </g>
     <g id="text_26">
      <!-- 0 -->
      <g style="fill: #262626" transform="translate(616.422039 213.560058) scale(0.09 -0.09)">
       <use xlink:href="#ArialMT-30"/>
      </g>
     </g>
    </g>
    <g id="ytick_8">
     <g id="line2d_26">
      <path d="M 628.426883 182.706939 
L 1153.19952 182.706939 
" clip-path="url(#p95a6c22dce)" style="fill: none; stroke: #cccccc; stroke-width: 0.8; stroke-linecap: round"/>
     </g>
     <g id="text_27">
      <!-- 5000 -->
      <g style="fill: #262626" transform="translate(601.407508 185.927955) scale(0.09 -0.09)">
       <use xlink:href="#ArialMT-35"/>
       <use xlink:href="#ArialMT-30" x="55.615234"/>
       <use xlink:href="#ArialMT-30" x="111.230469"/>
       <use xlink:href="#ArialMT-30" x="166.845703"/>
      </g>
     </g>
    </g>
    <g id="ytick_9">
     <g id="line2d_27">
      <path d="M 628.426883 155.074836 
L 1153.19952 155.074836 
" clip-path="url(#p95a6c22dce)" style="fill: none; stroke: #cccccc; stroke-width: 0.8; stroke-linecap: round"/>
     </g>
     <g id="text_28">
      <!-- 10000 -->
      <g style="fill: #262626" transform="translate(596.402664 158.295852) scale(0.09 -0.09)">
       <use xlink:href="#ArialMT-31"/>
       <use xlink:href="#ArialMT-30" x="55.615234"/>
       <use xlink:href="#ArialMT-30" x="111.230469"/>
       <use xlink:href="#ArialMT-30" x="166.845703"/>
       <use xlink:href="#ArialMT-30" x="222.460938"/>
      </g>
     </g>
    </g>
    <g id="ytick_10">
     <g id="line2d_28">
      <path d="M 628.426883 127.442733 
L 1153.19952 127.442733 
" clip-path="url(#p95a6c22dce)" style="fill: none; stroke: #cccccc; stroke-width: 0.8; stroke-linecap: round"/>
     </g>
     <g id="text_29">
      <!-- 15000 -->
      <g style="fill: #262626" transform="translate(596.402664 130.663748) scale(0.09 -0.09)">
       <use xlink:href="#ArialMT-31"/>
       <use xlink:href="#ArialMT-35" x="55.615234"/>
       <use xlink:href="#ArialMT-30" x="111.230469"/>
       <use xlink:href="#ArialMT-30" x="166.845703"/>
       <use xlink:href="#ArialMT-30" x="222.460938"/>
      </g>
     </g>
    </g>
    <g id="ytick_11">
     <g id="line2d_29">
      <path d="M 628.426883 99.810629 
L 1153.19952 99.810629 
" clip-path="url(#p95a6c22dce)" style="fill: none; stroke: #cccccc; stroke-width: 0.8; stroke-linecap: round"/>
     </g>
     <g id="text_30">
      <!-- 20000 -->
      <g style="fill: #262626" transform="translate(596.402664 103.031645) scale(0.09 -0.09)">
       <use xlink:href="#ArialMT-32"/>
       <use xlink:href="#ArialMT-30" x="55.615234"/>
       <use xlink:href="#ArialMT-30" x="111.230469"/>
       <use xlink:href="#ArialMT-30" x="166.845703"/>
       <use xlink:href="#ArialMT-30" x="222.460938"/>
      </g>
     </g>
    </g>
    <g id="ytick_12">
     <g id="line2d_30">
      <path d="M 628.426883 72.178526 
L 1153.19952 72.178526 
" clip-path="url(#p95a6c22dce)" style="fill: none; stroke: #cccccc; stroke-width: 0.8; stroke-linecap: round"/>
     </g>
     <g id="text_31">
      <!-- 25000 -->
      <g style="fill: #262626" transform="translate(596.402664 75.399542) scale(0.09 -0.09)">
       <use xlink:href="#ArialMT-32"/>
       <use xlink:href="#ArialMT-35" x="55.615234"/>
       <use xlink:href="#ArialMT-30" x="111.230469"/>
       <use xlink:href="#ArialMT-30" x="166.845703"/>
       <use xlink:href="#ArialMT-30" x="222.460938"/>
      </g>
     </g>
    </g>
    <g id="ytick_13">
     <g id="line2d_31">
      <path d="M 628.426883 44.546423 
L 1153.19952 44.546423 
" clip-path="url(#p95a6c22dce)" style="fill: none; stroke: #cccccc; stroke-width: 0.8; stroke-linecap: round"/>
     </g>
     <g id="text_32">
      <!-- 30000 -->
      <g style="fill: #262626" transform="translate(596.402664 47.767438) scale(0.09 -0.09)">
       <use xlink:href="#ArialMT-33"/>
       <use xlink:href="#ArialMT-30" x="55.615234"/>
       <use xlink:href="#ArialMT-30" x="111.230469"/>
       <use xlink:href="#ArialMT-30" x="166.845703"/>
       <use xlink:href="#ArialMT-30" x="222.460938"/>
      </g>
     </g>
    </g>
   </g>
   <g id="line2d_32">
    <path d="M 652.280185 98.887717 
L 653.971908 98.920876 
L 655.663632 99.849314 
L 657.355355 94.361578 
L 659.047079 97.063998 
L 660.738802 95.555285 
L 662.430526 93.670776 
L 664.122249 96.080295 
L 665.813973 88.249357 
L 667.505696 95.544233 
L 669.19742 90.736247 
L 670.889143 89.249639 
L 674.272591 78.937338 
L 675.964314 85.121403 
L 677.656038 80.385261 
L 679.347761 92.162063 
L 681.039485 75.803858 
L 682.731208 93.527089 
L 684.422932 82.850044 
L 686.114655 79.561824 
L 687.806379 82.021081 
L 689.498102 82.170294 
L 691.189826 80.606317 
L 692.881549 86.674327 
L 694.573273 118.567301 
L 696.264996 133.040997 
L 697.95672 108.437372 
L 697.95672 120.52918 
L 699.648443 98.362707 
L 701.340167 102.380415 
L 703.03189 86.176949 
L 704.723614 74.615677 
L 706.415337 74.438832 
L 708.107061 74.880946 
L 709.798785 74.809102 
L 711.490508 82.573723 
L 713.182232 82.645567 
L 714.873955 81.617652 
L 716.565679 91.156254 
L 718.257402 107.741043 
L 719.949126 75.709909 
L 721.640849 83.325316 
L 723.332573 93.941571 
L 725.024296 90.05097 
L 726.71602 87.182758 
L 728.407743 83.966381 
L 730.099467 81.706075 
L 731.79119 94.704217 
L 733.482914 90.327291 
L 735.174637 94.792639 
L 736.866361 92.018376 
L 738.558084 92.289171 
L 740.249808 86.480903 
L 741.941531 92.681547 
L 743.633255 87.392762 
L 745.324979 86.298531 
L 747.016702 92.847339 
L 748.708426 84.496918 
L 750.400149 79.235765 
L 752.091873 79.047867 
L 753.783596 80.567632 
L 755.47532 79.622615 
L 757.167043 66.353679 
L 758.858767 68.337664 
L 760.55049 62.673082 
L 762.242214 127.260361 
L 763.933937 86.878805 
L 765.625661 103.695703 
L 767.317384 79.025761 
L 769.009108 87.928825 
L 770.700831 87.453553 
L 772.392555 82.363719 
L 774.084278 75.566222 
L 775.776002 78.567068 
L 777.467725 79.467875 
L 779.159449 75.184899 
L 780.851173 100.368798 
L 782.542896 134.837083 
L 784.23462 123.585291 
L 785.926343 109.818977 
L 787.618067 102.861213 
L 791.001514 87.188284 
L 792.693237 81.866341 
L 794.384961 75.273321 
L 796.076684 85.889576 
L 797.768408 84.237176 
L 801.151855 77.058355 
L 802.843578 75.300954 
L 804.535302 96.555567 
L 806.227025 80.871586 
L 807.918749 94.709743 
L 809.610472 83.45795 
L 811.302196 104.497034 
L 812.993919 88.696997 
L 814.685643 98.550605 
L 816.377366 92.449437 
L 818.06909 97.047419 
L 819.760814 104.839672 
L 821.452537 90.459925 
L 823.144261 98.942981 
L 824.835984 87.481185 
L 826.527708 94.759481 
L 828.219431 91.775214 
L 829.911155 92.377593 
L 831.602878 103.900181 
L 833.294602 106.547336 
L 834.986325 113.930634 
L 836.678049 101.866458 
L 838.369772 112.565608 
L 840.061496 171.399883 
L 841.753219 210.339043 
L 851.90356 210.339043 
L 853.595284 146.403882 
L 855.287008 144.171208 
L 856.978731 148.868666 
L 858.670455 146.90126 
L 860.362178 116.56121 
L 862.053902 121.932891 
L 863.745625 118.849148 
L 865.437349 111.090054 
L 867.129072 106.066537 
L 868.820796 125.232164 
L 870.512519 152.068463 
L 872.204243 139.849547 
L 873.895966 105.226522 
L 875.58769 99.385095 
L 877.279413 88.072512 
L 878.971137 100.252743 
L 880.66286 115.201711 
L 882.354584 112.731401 
L 884.046307 100.761174 
L 885.738031 106.696549 
L 887.429754 97.655325 
L 889.121478 108.746851 
L 890.813202 103.253589 
L 892.504925 99.075615 
L 894.196649 104.176502 
L 895.888372 95.743184 
L 897.580096 106.326279 
L 899.271819 94.549477 
L 900.963543 96.688202 
L 902.655266 98.091912 
L 904.34699 111.642696 
L 906.038713 103.209378 
L 907.730437 111.073475 
L 909.42216 102.192517 
L 911.113884 111.449271 
L 912.805607 110.233459 
L 914.497331 104.397558 
L 916.189054 106.923133 
L 917.880778 96.936891 
L 919.572501 97.904014 
L 921.264225 99.727733 
L 922.955948 110.714257 
L 924.647672 101.485135 
L 926.339396 100.379851 
L 928.031119 104.159922 
L 929.722843 101.065127 
L 931.414566 99.103247 
L 933.10629 93.283926 
L 934.798013 89.128058 
L 936.489737 99.539835 
L 938.18146 81.252909 
L 939.873184 93.621038 
L 941.564907 88.923581 
L 943.256631 92.01285 
L 944.948354 85.613255 
L 946.640078 95.118698 
L 948.331801 96.174244 
L 950.023525 93.223136 
L 951.715248 91.509945 
L 953.406972 87.917772 
L 955.098695 89.288324 
L 956.790419 96.306879 
L 958.482142 124.486098 
L 960.173866 118.103082 
L 963.557313 104.508087 
L 965.249037 93.576827 
L 966.94076 93.532615 
L 968.632484 101.50724 
L 970.324207 91.10099 
L 972.015931 91.802846 
L 973.707654 87.110915 
L 975.399378 93.974729 
L 977.091101 105.25968 
L 978.782825 102.513049 
L 980.474548 98.915349 
L 982.166272 93.411034 
L 983.857995 105.010991 
L 985.549719 88.912528 
L 987.241442 83.911117 
L 988.933166 87.707768 
L 990.624889 85.812206 
L 992.316613 96.04161 
L 994.008336 89.929389 
L 995.70006 92.631809 
L 997.391783 96.146612 
L 999.083507 89.045162 
L 1000.775231 94.234471 
L 1002.466954 97.362425 
L 1004.158678 91.974165 
L 1005.850401 81.722654 
L 1007.542125 67.961867 
L 1009.233848 66.403416 
L 1010.925572 78.638912 
L 1012.617295 84.657184 
L 1014.309019 83.441371 
L 1016.000742 70.780341 
L 1017.692466 70.857711 
L 1019.384189 58.98696 
L 1021.075913 62.098335 
L 1022.767636 59.500917 
L 1024.45936 50.432061 
L 1026.151083 35.47204 
L 1027.842807 30.907216 
L 1029.53453 57.406403 
L 1031.226254 50.680749 
L 1032.917977 64.08232 
L 1034.609701 53.963443 
L 1036.301425 48.558604 
L 1037.993148 40.755298 
L 1039.684872 45.729077 
L 1041.376595 38.163407 
L 1043.068319 53.062637 
L 1044.760042 60.048033 
L 1046.451766 65.137866 
L 1048.143489 71.051136 
L 1049.835213 75.30648 
L 1051.526936 59.340651 
L 1053.21866 59.451179 
L 1054.910383 42.700598 
L 1056.602107 62.048597 
L 1058.29383 67.696599 
L 1059.985554 59.810396 
L 1061.677277 51.244444 
L 1063.369001 59.672236 
L 1065.060724 59.926451 
L 1066.752448 64.386273 
L 1068.444171 65.999988 
L 1070.135895 107.315509 
L 1071.827619 119.053626 
L 1073.519342 114.864599 
L 1075.211066 90.625718 
L 1076.902789 97.196632 
L 1078.594513 109.006593 
L 1080.286236 116.290416 
L 1081.97796 110.250038 
L 1083.669683 108.597638 
L 1085.361407 96.820836 
L 1087.05313 92.029429 
L 1088.744854 91.272309 
L 1090.436577 90.238869 
L 1092.128301 65.696034 
L 1093.820024 58.738271 
L 1095.511748 53.5987 
L 1097.203471 45.502493 
L 1098.895195 45.264857 
L 1100.586918 63.700997 
L 1102.278642 64.253639 
L 1103.970365 65.894986 
L 1105.662089 59.108541 
L 1107.353813 56.096642 
L 1109.045536 64.933388 
L 1110.73726 58.15247 
L 1112.428983 47.613586 
L 1114.120707 53.797651 
L 1115.81243 43.424559 
L 1117.504154 56.494544 
L 1119.195877 56.925605 
L 1120.887601 59.346177 
L 1122.579324 50.97365 
L 1124.271048 63.623627 
L 1125.962771 59.583813 
L 1127.654495 59.4346 
L 1129.346218 53.946864 
L 1129.346218 53.946864 
" clip-path="url(#p95a6c22dce)" style="fill: none; stroke: #000000; stroke-width: 1.5; stroke-linecap: round"/>
   </g>
   <g id="patch_8">
    <path d="M 628.426883 219.310634 
L 628.426883 21.935625 
" style="fill: none; stroke: #cccccc; stroke-linejoin: miter; stroke-linecap: square"/>
   </g>
   <g id="patch_9">
    <path d="M 1153.19952 219.310634 
L 1153.19952 21.935625 
" style="fill: none; stroke: #cccccc; stroke-linejoin: miter; stroke-linecap: square"/>
   </g>
   <g id="patch_10">
    <path d="M 628.426883 219.310634 
L 1153.19952 219.310634 
" style="fill: none; stroke: #cccccc; stroke-linejoin: miter; stroke-linecap: square"/>
   </g>
   <g id="patch_11">
    <path d="M 628.426883 21.935625 
L 1153.19952 21.935625 
" style="fill: none; stroke: #cccccc; stroke-linejoin: miter; stroke-linecap: square"/>
   </g>
   <g id="text_33">
    <!-- Class=Economy -->
    <g style="fill: #262626" transform="translate(847.296327 15.935625) scale(0.12 -0.12)">
     <defs>
      <path id="ArialMT-45" d="M 506 0 
L 506 4581 
L 3819 4581 
L 3819 4041 
L 1113 4041 
L 1113 2638 
L 3647 2638 
L 3647 2100 
L 1113 2100 
L 1113 541 
L 3925 541 
L 3925 0 
L 506 0 
z
" transform="scale(0.015625)"/>
      <path id="ArialMT-63" d="M 2588 1216 
L 3141 1144 
Q 3050 572 2676 248 
Q 2303 -75 1759 -75 
Q 1078 -75 664 370 
Q 250 816 250 1647 
Q 250 2184 428 2587 
Q 606 2991 970 3192 
Q 1334 3394 1763 3394 
Q 2303 3394 2647 3120 
Q 2991 2847 3088 2344 
L 2541 2259 
Q 2463 2594 2264 2762 
Q 2066 2931 1784 2931 
Q 1359 2931 1093 2626 
Q 828 2322 828 1663 
Q 828 994 1084 691 
Q 1341 388 1753 388 
Q 2084 388 2306 591 
Q 2528 794 2588 1216 
z
" transform="scale(0.015625)"/>
      <path id="ArialMT-6f" d="M 213 1659 
Q 213 2581 725 3025 
Q 1153 3394 1769 3394 
Q 2453 3394 2887 2945 
Q 3322 2497 3322 1706 
Q 3322 1066 3130 698 
Q 2938 331 2570 128 
Q 2203 -75 1769 -75 
Q 1072 -75 642 372 
Q 213 819 213 1659 
z
M 791 1659 
Q 791 1022 1069 705 
Q 1347 388 1769 388 
Q 2188 388 2466 706 
Q 2744 1025 2744 1678 
Q 2744 2294 2464 2611 
Q 2184 2928 1769 2928 
Q 1347 2928 1069 2612 
Q 791 2297 791 1659 
z
" transform="scale(0.015625)"/>
      <path id="ArialMT-6d" d="M 422 0 
L 422 3319 
L 925 3319 
L 925 2853 
Q 1081 3097 1340 3245 
Q 1600 3394 1931 3394 
Q 2300 3394 2536 3241 
Q 2772 3088 2869 2813 
Q 3263 3394 3894 3394 
Q 4388 3394 4653 3120 
Q 4919 2847 4919 2278 
L 4919 0 
L 4359 0 
L 4359 2091 
Q 4359 2428 4304 2576 
Q 4250 2725 4106 2815 
Q 3963 2906 3769 2906 
Q 3419 2906 3187 2673 
Q 2956 2441 2956 1928 
L 2956 0 
L 2394 0 
L 2394 2156 
Q 2394 2531 2256 2718 
Q 2119 2906 1806 2906 
Q 1569 2906 1367 2781 
Q 1166 2656 1075 2415 
Q 984 2175 984 1722 
L 984 0 
L 422 0 
z
" transform="scale(0.015625)"/>
     </defs>
     <use xlink:href="#ArialMT-43"/>
     <use xlink:href="#ArialMT-6c" x="72.216797"/>
     <use xlink:href="#ArialMT-61" x="94.433594"/>
     <use xlink:href="#ArialMT-73" x="150.048828"/>
     <use xlink:href="#ArialMT-73" x="200.048828"/>
     <use xlink:href="#ArialMT-3d" x="250.048828"/>
     <use xlink:href="#ArialMT-45" x="308.447266"/>
     <use xlink:href="#ArialMT-63" x="375.146484"/>
     <use xlink:href="#ArialMT-6f" x="425.146484"/>
     <use xlink:href="#ArialMT-6e" x="480.761719"/>
     <use xlink:href="#ArialMT-6f" x="536.376953"/>
     <use xlink:href="#ArialMT-6d" x="591.992188"/>
     <use xlink:href="#ArialMT-79" x="675.292969"/>
    </g>
   </g>
  </g>
  <g id="axes_3">
   <g id="patch_12">
    <path d="M 52.486719 467.916454 
L 577.259356 467.916454 
L 577.259356 270.541445 
L 52.486719 270.541445 
z
" style="fill: #ffffff"/>
   </g>
   <g id="matplotlib.axis_5">
    <g id="xtick_18">
     <g id="line2d_33">
      <path d="M 121.291531 467.916454 
L 121.291531 270.541445 
" clip-path="url(#p3789253fe4)" style="fill: none; stroke: #cccccc; stroke-width: 0.8; stroke-linecap: round"/>
     </g>
     <g id="text_34">
      <!-- 1988 -->
      <g style="fill: #262626" transform="translate(113.786208 490.505105) rotate(-30) scale(0.09 -0.09)">
       <use xlink:href="#ArialMT-31"/>
       <use xlink:href="#ArialMT-39" x="55.615234"/>
       <use xlink:href="#ArialMT-38" x="111.230469"/>
       <use xlink:href="#ArialMT-38" x="166.845703"/>
      </g>
     </g>
    </g>
    <g id="xtick_19">
     <g id="line2d_34">
      <path d="M 209.744504 467.916454 
L 209.744504 270.541445 
" clip-path="url(#p3789253fe4)" style="fill: none; stroke: #cccccc; stroke-width: 0.8; stroke-linecap: round"/>
     </g>
     <g id="text_35">
      <!-- 1989 -->
      <g style="fill: #262626" transform="translate(202.239181 490.505105) rotate(-30) scale(0.09 -0.09)">
       <use xlink:href="#ArialMT-31"/>
       <use xlink:href="#ArialMT-39" x="55.615234"/>
       <use xlink:href="#ArialMT-38" x="111.230469"/>
       <use xlink:href="#ArialMT-39" x="166.845703"/>
      </g>
     </g>
    </g>
    <g id="xtick_20">
     <g id="line2d_35">
      <path d="M 297.955802 467.916454 
L 297.955802 270.541445 
" clip-path="url(#p3789253fe4)" style="fill: none; stroke: #cccccc; stroke-width: 0.8; stroke-linecap: round"/>
     </g>
     <g id="text_36">
      <!-- 1990 -->
      <g style="fill: #262626" transform="translate(290.450479 490.505105) rotate(-30) scale(0.09 -0.09)">
       <use xlink:href="#ArialMT-31"/>
       <use xlink:href="#ArialMT-39" x="55.615234"/>
       <use xlink:href="#ArialMT-39" x="111.230469"/>
       <use xlink:href="#ArialMT-30" x="166.845703"/>
      </g>
     </g>
    </g>
    <g id="xtick_21">
     <g id="line2d_36">
      <path d="M 386.1671 467.916454 
L 386.1671 270.541445 
" clip-path="url(#p3789253fe4)" style="fill: none; stroke: #cccccc; stroke-width: 0.8; stroke-linecap: round"/>
     </g>
     <g id="text_37">
      <!-- 1991 -->
      <g style="fill: #262626" transform="translate(378.661777 490.505105) rotate(-30) scale(0.09 -0.09)">
       <use xlink:href="#ArialMT-31"/>
       <use xlink:href="#ArialMT-39" x="55.615234"/>
       <use xlink:href="#ArialMT-39" x="111.230469"/>
       <use xlink:href="#ArialMT-31" x="166.845703"/>
      </g>
     </g>
    </g>
    <g id="xtick_22">
     <g id="line2d_37">
      <path d="M 474.378398 467.916454 
L 474.378398 270.541445 
" clip-path="url(#p3789253fe4)" style="fill: none; stroke: #cccccc; stroke-width: 0.8; stroke-linecap: round"/>
     </g>
     <g id="text_38">
      <!-- 1992 -->
      <g style="fill: #262626" transform="translate(466.873075 490.505105) rotate(-30) scale(0.09 -0.09)">
       <use xlink:href="#ArialMT-31"/>
       <use xlink:href="#ArialMT-39" x="55.615234"/>
       <use xlink:href="#ArialMT-39" x="111.230469"/>
       <use xlink:href="#ArialMT-32" x="166.845703"/>
      </g>
     </g>
    </g>
    <g id="xtick_23">
     <g id="line2d_38">
      <path d="M 562.831371 467.916454 
L 562.831371 270.541445 
" clip-path="url(#p3789253fe4)" style="fill: none; stroke: #cccccc; stroke-width: 0.8; stroke-linecap: round"/>
     </g>
     <g id="text_39">
      <!-- 1993 -->
      <g style="fill: #262626" transform="translate(555.326047 490.505105) rotate(-30) scale(0.09 -0.09)">
       <use xlink:href="#ArialMT-31"/>
       <use xlink:href="#ArialMT-39" x="55.615234"/>
       <use xlink:href="#ArialMT-39" x="111.230469"/>
       <use xlink:href="#ArialMT-33" x="166.845703"/>
      </g>
     </g>
    </g>
    <g id="text_40">
     <!-- Time [ds] -->
     <g style="fill: #262626" transform="translate(294.502725 503.21202) scale(0.1 -0.1)">
      <defs>
       <path id="ArialMT-64" d="M 2575 0 
L 2575 419 
Q 2259 -75 1647 -75 
Q 1250 -75 917 144 
Q 584 363 401 755 
Q 219 1147 219 1656 
Q 219 2153 384 2558 
Q 550 2963 881 3178 
Q 1213 3394 1622 3394 
Q 1922 3394 2156 3267 
Q 2391 3141 2538 2938 
L 2538 4581 
L 3097 4581 
L 3097 0 
L 2575 0 
z
M 797 1656 
Q 797 1019 1065 703 
Q 1334 388 1700 388 
Q 2069 388 2326 689 
Q 2584 991 2584 1609 
Q 2584 2291 2321 2609 
Q 2059 2928 1675 2928 
Q 1300 2928 1048 2622 
Q 797 2316 797 1656 
z
" transform="scale(0.015625)"/>
      </defs>
      <use xlink:href="#ArialMT-54"/>
      <use xlink:href="#ArialMT-69" x="57.333984"/>
      <use xlink:href="#ArialMT-6d" x="79.550781"/>
      <use xlink:href="#ArialMT-65" x="162.851562"/>
      <use xlink:href="#ArialMT-20" x="218.466797"/>
      <use xlink:href="#ArialMT-5b" x="246.25"/>
      <use xlink:href="#ArialMT-64" x="274.033203"/>
      <use xlink:href="#ArialMT-73" x="329.648438"/>
      <use xlink:href="#ArialMT-5d" x="379.648438"/>
     </g>
    </g>
   </g>
   <g id="matplotlib.axis_6">
    <g id="ytick_14">
     <g id="line2d_39">
      <path d="M 52.486719 458.944863 
L 577.259356 458.944863 
" clip-path="url(#p3789253fe4)" style="fill: none; stroke: #cccccc; stroke-width: 0.8; stroke-linecap: round"/>
     </g>
     <g id="text_41">
      <!-- 0 -->
      <g style="fill: #262626" transform="translate(40.481875 462.165879) scale(0.09 -0.09)">
       <use xlink:href="#ArialMT-30"/>
      </g>
     </g>
    </g>
    <g id="ytick_15">
     <g id="line2d_40">
      <path d="M 52.486719 425.912494 
L 577.259356 425.912494 
" clip-path="url(#p3789253fe4)" style="fill: none; stroke: #cccccc; stroke-width: 0.8; stroke-linecap: round"/>
     </g>
     <g id="text_42">
      <!-- 500 -->
      <g style="fill: #262626" transform="translate(30.472188 429.13351) scale(0.09 -0.09)">
       <use xlink:href="#ArialMT-35"/>
       <use xlink:href="#ArialMT-30" x="55.615234"/>
       <use xlink:href="#ArialMT-30" x="111.230469"/>
      </g>
     </g>
    </g>
    <g id="ytick_16">
     <g id="line2d_41">
      <path d="M 52.486719 392.880126 
L 577.259356 392.880126 
" clip-path="url(#p3789253fe4)" style="fill: none; stroke: #cccccc; stroke-width: 0.8; stroke-linecap: round"/>
     </g>
     <g id="text_43">
      <!-- 1000 -->
      <g style="fill: #262626" transform="translate(25.467344 396.101141) scale(0.09 -0.09)">
       <use xlink:href="#ArialMT-31"/>
       <use xlink:href="#ArialMT-30" x="55.615234"/>
       <use xlink:href="#ArialMT-30" x="111.230469"/>
       <use xlink:href="#ArialMT-30" x="166.845703"/>
      </g>
     </g>
    </g>
    <g id="ytick_17">
     <g id="line2d_42">
      <path d="M 52.486719 359.847757 
L 577.259356 359.847757 
" clip-path="url(#p3789253fe4)" style="fill: none; stroke: #cccccc; stroke-width: 0.8; stroke-linecap: round"/>
     </g>
     <g id="text_44">
      <!-- 1500 -->
      <g style="fill: #262626" transform="translate(25.467344 363.068773) scale(0.09 -0.09)">
       <use xlink:href="#ArialMT-31"/>
       <use xlink:href="#ArialMT-35" x="55.615234"/>
       <use xlink:href="#ArialMT-30" x="111.230469"/>
       <use xlink:href="#ArialMT-30" x="166.845703"/>
      </g>
     </g>
    </g>
    <g id="ytick_18">
     <g id="line2d_43">
      <path d="M 52.486719 326.815389 
L 577.259356 326.815389 
" clip-path="url(#p3789253fe4)" style="fill: none; stroke: #cccccc; stroke-width: 0.8; stroke-linecap: round"/>
     </g>
     <g id="text_45">
      <!-- 2000 -->
      <g style="fill: #262626" transform="translate(25.467344 330.036404) scale(0.09 -0.09)">
       <use xlink:href="#ArialMT-32"/>
       <use xlink:href="#ArialMT-30" x="55.615234"/>
       <use xlink:href="#ArialMT-30" x="111.230469"/>
       <use xlink:href="#ArialMT-30" x="166.845703"/>
      </g>
     </g>
    </g>
    <g id="ytick_19">
     <g id="line2d_44">
      <path d="M 52.486719 293.78302 
L 577.259356 293.78302 
" clip-path="url(#p3789253fe4)" style="fill: none; stroke: #cccccc; stroke-width: 0.8; stroke-linecap: round"/>
     </g>
     <g id="text_46">
      <!-- 2500 -->
      <g style="fill: #262626" transform="translate(25.467344 297.004036) scale(0.09 -0.09)">
       <use xlink:href="#ArialMT-32"/>
       <use xlink:href="#ArialMT-35" x="55.615234"/>
       <use xlink:href="#ArialMT-30" x="111.230469"/>
       <use xlink:href="#ArialMT-30" x="166.845703"/>
      </g>
     </g>
    </g>
    <g id="text_47">
     <!-- Target [y] -->
     <g style="fill: #262626" transform="translate(19.362656 389.789106) rotate(-90) scale(0.1 -0.1)">
      <use xlink:href="#ArialMT-54"/>
      <use xlink:href="#ArialMT-61" x="49.958984"/>
      <use xlink:href="#ArialMT-72" x="105.574219"/>
      <use xlink:href="#ArialMT-67" x="138.875"/>
      <use xlink:href="#ArialMT-65" x="194.490234"/>
      <use xlink:href="#ArialMT-74" x="250.105469"/>
      <use xlink:href="#ArialMT-20" x="277.888672"/>
      <use xlink:href="#ArialMT-5b" x="305.671875"/>
      <use xlink:href="#ArialMT-79" x="333.455078"/>
      <use xlink:href="#ArialMT-5d" x="383.455078"/>
     </g>
    </g>
   </g>
   <g id="line2d_45">
    <path d="M 76.34002 332.629085 
L 78.031744 336.857229 
L 79.723467 336.328711 
L 81.415191 317.434196 
L 83.106915 319.01975 
L 84.798638 323.644281 
L 86.490362 319.482203 
L 88.182085 313.668506 
L 89.873809 311.554434 
L 91.565532 321.464145 
L 93.257256 312.743599 
L 94.948979 318.160908 
L 98.332426 318.160908 
L 100.02415 324.569187 
L 101.715873 314.263088 
L 103.407597 309.506427 
L 105.09932 288.563906 
L 106.791044 302.56963 
L 108.482767 298.275422 
L 110.174491 284.533957 
L 111.866214 286.25164 
L 115.249661 292.263531 
L 116.941385 309.638557 
L 118.633109 385.150552 
L 120.324832 419.966668 
L 122.016556 377.354913 
L 122.016556 395.126327 
L 123.708279 326.749324 
L 125.400003 346.899069 
L 127.091726 320.935627 
L 128.78345 279.513037 
L 130.475173 294.90612 
L 132.166897 296.359545 
L 133.85862 291.602884 
L 135.550344 308.779715 
L 137.242067 308.779715 
L 138.933791 302.371436 
L 140.625514 341.217501 
L 142.317238 367.445202 
L 144.008961 305.542543 
L 145.700685 304.353378 
L 147.392408 313.404247 
L 149.084132 306.995967 
L 150.775855 318.557296 
L 152.467579 304.023054 
L 154.159303 312.016887 
L 155.851026 329.986496 
L 157.54275 312.809664 
L 159.234473 324.965576 
L 160.926197 333.025474 
L 162.61792 337.782135 
L 164.309644 340.22653 
L 166.001367 335.469869 
L 167.693091 334.346769 
L 169.384814 318.160908 
L 171.076538 325.428029 
L 172.768261 313.668506 
L 174.459985 317.566325 
L 176.151708 314.263088 
L 177.843432 332.298762 
L 179.535155 320.473174 
L 181.226879 310.034945 
L 182.918602 310.233139 
L 184.610326 322.058727 
L 186.302049 393.342579 
L 187.993773 348.286428 
L 189.685496 362.292152 
L 191.37722 309.902816 
L 193.068944 312.545405 
L 194.760667 312.413276 
L 196.452391 289.290618 
L 198.144114 294.90612 
L 199.835838 290.810107 
L 201.527561 287.242611 
L 203.219285 294.90612 
L 204.911008 340.490789 
L 206.602732 424.855459 
L 208.294455 401.270347 
L 211.677902 358.196139 
L 213.369626 333.025474 
L 215.061349 310.563463 
L 216.753073 310.497398 
L 218.444796 305.938932 
L 220.13652 308.581521 
L 221.828243 300.191299 
L 223.519967 298.275422 
L 225.21169 294.443667 
L 228.595138 359.319239 
L 230.286861 310.233139 
L 231.978585 321.596274 
L 233.670308 312.941794 
L 235.362032 329.457978 
L 237.053755 310.233139 
L 238.745479 325.956547 
L 240.437202 310.167075 
L 242.128926 322.389051 
L 243.820649 337.980329 
L 245.512373 322.256922 
L 247.204096 329.920431 
L 248.89582 313.668506 
L 250.587543 341.944213 
L 252.279267 346.899069 
L 253.97099 340.821113 
L 255.662714 350.862953 
L 257.354437 343.926155 
L 259.046161 353.439478 
L 260.737884 330.581079 
L 262.429608 349.277399 
L 264.121332 418.248985 
L 265.813055 458.944863 
L 275.963396 458.944863 
L 277.65512 455.443432 
L 279.346843 456.302274 
L 281.038567 435.557946 
L 282.73029 425.582171 
L 284.422014 411.972835 
L 286.113737 411.180058 
L 287.805461 406.357332 
L 289.497184 402.393448 
L 291.188908 403.12016 
L 292.880631 405.63062 
L 294.572355 440.710996 
L 296.264078 436.548917 
L 297.955802 420.561251 
L 299.647526 399.882988 
L 301.339249 397.108269 
L 303.030973 385.54694 
L 304.722696 363.415253 
L 306.41442 358.724657 
L 309.797867 359.319239 
L 311.48959 350.862953 
L 313.181314 367.775526 
L 314.873037 362.9528 
L 316.564761 362.556411 
L 318.256484 357.337297 
L 319.948208 371.276957 
L 321.639931 391.096378 
L 323.331655 368.766497 
L 325.023378 361.499376 
L 326.715102 368.766497 
L 328.406825 369.691403 
L 330.098549 377.619171 
L 331.790272 363.349188 
L 333.481996 365.925713 
L 335.17372 387.000364 
L 336.865443 369.295015 
L 338.557167 373.919546 
L 340.24889 387.132494 
L 341.940614 391.757025 
L 343.632337 386.934299 
L 345.324061 370.219921 
L 347.015784 382.045509 
L 348.707508 381.715185 
L 350.399231 362.160023 
L 352.090955 376.892459 
L 353.782678 378.345884 
L 355.474402 377.619171 
L 357.166125 375.306906 
L 358.857849 370.616309 
L 360.549572 387.661012 
L 362.241296 378.147689 
L 363.933019 369.691403 
L 365.624743 375.108711 
L 367.316466 367.643396 
L 369.00819 364.141965 
L 370.699913 368.370108 
L 372.391637 370.35205 
L 374.083361 366.520296 
L 375.775084 363.811641 
L 377.466808 377.288848 
L 379.158531 363.745577 
L 380.850255 393.672903 
L 382.541978 439.125442 
L 384.233702 432.452903 
L 387.617149 423.996617 
L 389.308872 407.01798 
L 391.000596 387.198558 
L 392.692319 411.047929 
L 394.384043 384.489904 
L 396.075766 383.234674 
L 397.76749 387.198558 
L 399.459213 384.027451 
L 401.150937 391.558831 
L 402.84266 391.426702 
L 404.534384 378.081625 
L 406.226107 399.816923 
L 407.917831 415.474266 
L 409.609555 394.399615 
L 411.301278 398.429564 
L 412.993002 404.111131 
L 414.684725 393.540773 
L 416.376449 408.075015 
L 418.068172 406.027008 
L 419.759896 403.516548 
L 421.451619 403.780807 
L 423.143343 405.960944 
L 424.835066 408.537468 
L 426.52679 408.075015 
L 428.218513 403.582613 
L 429.910237 409.924828 
L 431.60196 406.555526 
L 433.293684 399.486599 
L 434.985407 395.522715 
L 436.677131 406.093073 
L 438.368854 405.63062 
L 440.060578 403.384419 
L 441.752301 400.807894 
L 443.444025 404.903908 
L 445.135749 404.969973 
L 446.827472 404.837843 
L 448.519196 393.012255 
L 450.210919 378.345884 
L 451.902643 395.126327 
L 453.594366 399.816923 
L 455.28609 394.33355 
L 456.977813 398.627758 
L 458.669537 396.381557 
L 460.36126 392.747996 
L 462.052984 387.528882 
L 463.744707 394.399615 
L 465.436431 391.096378 
L 467.128154 399.816923 
L 468.819878 399.486599 
L 470.511601 408.603533 
L 472.203325 437.209564 
L 473.895048 435.75614 
L 475.586772 431.263738 
L 477.278495 418.116855 
L 478.970219 403.12016 
L 480.661943 410.915799 
L 482.353666 379.667178 
L 484.04539 339.962271 
L 485.737113 344.851062 
L 487.428837 327.343906 
L 489.12056 335.734128 
L 490.812284 339.962271 
L 492.504007 349.211334 
L 494.195731 302.635695 
L 495.887454 326.617194 
L 497.579178 320.737433 
L 500.962625 370.616309 
L 502.654348 327.80636 
L 504.346072 339.499818 
L 506.037795 337.451811 
L 507.729519 345.709903 
L 509.421242 344.652868 
L 511.112966 344.983191 
L 512.804689 362.754606 
L 514.496413 363.349188 
L 516.188137 369.295015 
L 517.87986 374.381999 
L 519.571584 368.898626 
L 521.263307 377.817366 
L 522.955031 365.727519 
L 524.646754 384.29171 
L 526.338478 382.772221 
L 528.030201 375.901488 
L 529.721925 375.769359 
L 531.413648 382.772221 
L 533.105372 379.535049 
L 534.797095 380.658149 
L 536.488819 376.562136 
L 538.180542 364.20803 
L 539.872266 363.150994 
L 541.563989 377.88343 
L 543.255713 376.694265 
L 544.947436 365.33113 
L 546.63916 362.622476 
L 548.330883 366.58636 
L 550.022607 364.934742 
L 551.71433 369.22895 
L 553.406054 360.640534 
L 553.406054 360.640534 
" clip-path="url(#p3789253fe4)" style="fill: none; stroke: #000000; stroke-width: 1.5; stroke-linecap: round"/>
   </g>
   <g id="patch_13">
    <path d="M 52.486719 467.916454 
L 52.486719 270.541445 
" style="fill: none; stroke: #cccccc; stroke-linejoin: miter; stroke-linecap: square"/>
   </g>
   <g id="patch_14">
    <path d="M 577.259356 467.916454 
L 577.259356 270.541445 
" style="fill: none; stroke: #cccccc; stroke-linejoin: miter; stroke-linecap: square"/>
   </g>
   <g id="patch_15">
    <path d="M 52.486719 467.916454 
L 577.259356 467.916454 
" style="fill: none; stroke: #cccccc; stroke-linejoin: miter; stroke-linecap: square"/>
   </g>
   <g id="patch_16">
    <path d="M 52.486719 270.541445 
L 577.259356 270.541445 
" style="fill: none; stroke: #cccccc; stroke-linejoin: miter; stroke-linecap: square"/>
   </g>
   <g id="text_48">
    <!-- Class=First -->
    <g style="fill: #262626" transform="translate(284.70335 264.541445) scale(0.12 -0.12)">
     <defs>
      <path id="ArialMT-46" d="M 525 0 
L 525 4581 
L 3616 4581 
L 3616 4041 
L 1131 4041 
L 1131 2622 
L 3281 2622 
L 3281 2081 
L 1131 2081 
L 1131 0 
L 525 0 
z
" transform="scale(0.015625)"/>
     </defs>
     <use xlink:href="#ArialMT-43"/>
     <use xlink:href="#ArialMT-6c" x="72.216797"/>
     <use xlink:href="#ArialMT-61" x="94.433594"/>
     <use xlink:href="#ArialMT-73" x="150.048828"/>
     <use xlink:href="#ArialMT-73" x="200.048828"/>
     <use xlink:href="#ArialMT-3d" x="250.048828"/>
     <use xlink:href="#ArialMT-46" x="308.447266"/>
     <use xlink:href="#ArialMT-69" x="369.53125"/>
     <use xlink:href="#ArialMT-72" x="391.748047"/>
     <use xlink:href="#ArialMT-73" x="425.048828"/>
     <use xlink:href="#ArialMT-74" x="475.048828"/>
    </g>
   </g>
  </g>
  <g id="axes_4"/>
  <g id="legend_1">
   <g id="patch_17">
    <path d="M 1174.01976 39.35601 
L 1207.31976 39.35601 
Q 1209.11976 39.35601 1209.11976 37.55601 
L 1209.11976 25.61976 
Q 1209.11976 23.81976 1207.31976 23.81976 
L 1174.01976 23.81976 
Q 1172.21976 23.81976 1172.21976 25.61976 
L 1172.21976 37.55601 
Q 1172.21976 39.35601 1174.01976 39.35601 
z
" style="fill: #ffffff; opacity: 0.8; stroke: #cccccc; stroke-width: 0.5; stroke-linejoin: miter"/>
   </g>
   <g id="line2d_46">
    <path d="M 1175.81976 30.711791 
L 1184.81976 30.711791 
L 1193.81976 30.711791 
" style="fill: none; stroke: #000000; stroke-width: 1.5; stroke-linecap: round"/>
   </g>
   <g id="text_49">
    <!-- y -->
    <g style="fill: #262626" transform="translate(1201.01976 33.861791) scale(0.09 -0.09)">
     <use xlink:href="#ArialMT-79"/>
    </g>
   </g>
  </g>
 </g>
 <defs>
  <clipPath id="p1ef74182de">
   <rect x="52.486719" y="21.935625" width="524.772637" height="197.375009"/>
  </clipPath>
  <clipPath id="p95a6c22dce">
   <rect x="628.426883" y="21.935625" width="524.772637" height="197.375009"/>
  </clipPath>
  <clipPath id="p3789253fe4">
   <rect x="52.486719" y="270.541445" width="524.772637" height="197.375009"/>
  </clipPath>
 </defs>
</svg>
