<?xml version="1.0" encoding="utf-8" standalone="no"?>
<!DOCTYPE svg PUBLIC "-//W3C//DTD SVG 1.1//EN"
  "http://www.w3.org/Graphics/SVG/1.1/DTD/svg11.dtd">
<svg xmlns:xlink="http://www.w3.org/1999/xlink" width="925.904375pt" height="320.009844pt" viewBox="0 0 925.904375 320.009844" xmlns="http://www.w3.org/2000/svg" version="1.1">
 <metadata>
  <rdf:RDF xmlns:dc="http://purl.org/dc/elements/1.1/" xmlns:cc="http://creativecommons.org/ns#" xmlns:rdf="http://www.w3.org/1999/02/22-rdf-syntax-ns#">
   <cc:Work>
    <dc:type rdf:resource="http://purl.org/dc/dcmitype/StillImage"/>
    <dc:date>2026-06-15T17:27:52.148632</dc:date>
    <dc:format>image/svg+xml</dc:format>
    <dc:creator>
     <cc:Agent>
      <dc:title>Matplotlib v3.10.8, https://matplotlib.org/</dc:title>
     </cc:Agent>
    </dc:creator>
   </cc:Work>
  </rdf:RDF>
 </metadata>
 <defs>
  <style type="text/css">*{stroke-linejoin: round; stroke-linecap: butt}</style>
 </defs>
 <g id="figure_1">
  <g id="patch_1">
   <path d="M 0 320.009844 
L 925.904375 320.009844 
L 925.904375 0 
L 0 0 
z
" style="fill: #ffffff"/>
  </g>
  <g id="axes_1">
   <g id="patch_2">
    <path d="M 46.339375 280.517969 
L 456.644375 280.517969 
L 456.644375 23.077969 
L 46.339375 23.077969 
z
" style="fill: #ffffff"/>
   </g>
   <g id="matplotlib.axis_1">
    <g id="xtick_1">
     <g id="line2d_1">
      <path d="M 64.989602 280.517969 
L 64.989602 23.077969 
" clip-path="url(#p123ff26d1e)" style="fill: none; stroke: #dddddd; stroke-opacity: 0.6; stroke-width: 0.8; stroke-linecap: square"/>
     </g>
     <g id="line2d_2">
      <defs>
       <path id="m7fc3a9fe3a" d="M 0 0 
L 0 3.5 
" style="stroke: #314f4f; stroke-width: 0.8"/>
      </defs>
      <g>
       <use xlink:href="#m7fc3a9fe3a" x="64.989602" y="280.517969" style="fill: #314f4f; stroke: #314f4f; stroke-width: 0.8"/>
      </g>
     </g>
     <g id="text_1">
      <!-- 0 -->
      <g style="fill: #314f4f" transform="translate(61.490227 295.87625) scale(0.11 -0.11)">
       <defs>
        <path id="DejaVuSans-30" d="M 2034 4250 
Q 1547 4250 1301 3770 
Q 1056 3291 1056 2328 
Q 1056 1369 1301 889 
Q 1547 409 2034 409 
Q 2525 409 2770 889 
Q 3016 1369 3016 2328 
Q 3016 3291 2770 3770 
Q 2525 4250 2034 4250 
z
M 2034 4750 
Q 2819 4750 3233 4129 
Q 3647 3509 3647 2328 
Q 3647 1150 3233 529 
Q 2819 -91 2034 -91 
Q 1250 -91 836 529 
Q 422 1150 422 2328 
Q 422 3509 836 4129 
Q 1250 4750 2034 4750 
z
" transform="scale(0.015625)"/>
       </defs>
       <use xlink:href="#DejaVuSans-30"/>
      </g>
     </g>
    </g>
    <g id="xtick_2">
     <g id="line2d_3">
      <path d="M 139.590511 280.517969 
L 139.590511 23.077969 
" clip-path="url(#p123ff26d1e)" style="fill: none; stroke: #dddddd; stroke-opacity: 0.6; stroke-width: 0.8; stroke-linecap: square"/>
     </g>
     <g id="line2d_4">
      <g>
       <use xlink:href="#m7fc3a9fe3a" x="139.590511" y="280.517969" style="fill: #314f4f; stroke: #314f4f; stroke-width: 0.8"/>
      </g>
     </g>
     <g id="text_2">
      <!-- 1 -->
      <g style="fill: #314f4f" transform="translate(136.091136 295.87625) scale(0.11 -0.11)">
       <defs>
        <path id="DejaVuSans-31" d="M 794 531 
L 1825 531 
L 1825 4091 
L 703 3866 
L 703 4441 
L 1819 4666 
L 2450 4666 
L 2450 531 
L 3481 531 
L 3481 0 
L 794 0 
L 794 531 
z
" transform="scale(0.015625)"/>
       </defs>
       <use xlink:href="#DejaVuSans-31"/>
      </g>
     </g>
    </g>
    <g id="xtick_3">
     <g id="line2d_5">
      <path d="M 214.19142 280.517969 
L 214.19142 23.077969 
" clip-path="url(#p123ff26d1e)" style="fill: none; stroke: #dddddd; stroke-opacity: 0.6; stroke-width: 0.8; stroke-linecap: square"/>
     </g>
     <g id="line2d_6">
      <g>
       <use xlink:href="#m7fc3a9fe3a" x="214.19142" y="280.517969" style="fill: #314f4f; stroke: #314f4f; stroke-width: 0.8"/>
      </g>
     </g>
     <g id="text_3">
      <!-- 2 -->
      <g style="fill: #314f4f" transform="translate(210.692045 295.87625) scale(0.11 -0.11)">
       <defs>
        <path id="DejaVuSans-32" d="M 1228 531 
L 3431 531 
L 3431 0 
L 469 0 
L 469 531 
Q 828 903 1448 1529 
Q 2069 2156 2228 2338 
Q 2531 2678 2651 2914 
Q 2772 3150 2772 3378 
Q 2772 3750 2511 3984 
Q 2250 4219 1831 4219 
Q 1534 4219 1204 4116 
Q 875 4013 500 3803 
L 500 4441 
Q 881 4594 1212 4672 
Q 1544 4750 1819 4750 
Q 2544 4750 2975 4387 
Q 3406 4025 3406 3419 
Q 3406 3131 3298 2873 
Q 3191 2616 2906 2266 
Q 2828 2175 2409 1742 
Q 1991 1309 1228 531 
z
" transform="scale(0.015625)"/>
       </defs>
       <use xlink:href="#DejaVuSans-32"/>
      </g>
     </g>
    </g>
    <g id="xtick_4">
     <g id="line2d_7">
      <path d="M 288.79233 280.517969 
L 288.79233 23.077969 
" clip-path="url(#p123ff26d1e)" style="fill: none; stroke: #dddddd; stroke-opacity: 0.6; stroke-width: 0.8; stroke-linecap: square"/>
     </g>
     <g id="line2d_8">
      <g>
       <use xlink:href="#m7fc3a9fe3a" x="288.79233" y="280.517969" style="fill: #314f4f; stroke: #314f4f; stroke-width: 0.8"/>
      </g>
     </g>
     <g id="text_4">
      <!-- 3 -->
      <g style="fill: #314f4f" transform="translate(285.292955 295.87625) scale(0.11 -0.11)">
       <defs>
        <path id="DejaVuSans-33" d="M 2597 2516 
Q 3050 2419 3304 2112 
Q 3559 1806 3559 1356 
Q 3559 666 3084 287 
Q 2609 -91 1734 -91 
Q 1441 -91 1130 -33 
Q 819 25 488 141 
L 488 750 
Q 750 597 1062 519 
Q 1375 441 1716 441 
Q 2309 441 2620 675 
Q 2931 909 2931 1356 
Q 2931 1769 2642 2001 
Q 2353 2234 1838 2234 
L 1294 2234 
L 1294 2753 
L 1863 2753 
Q 2328 2753 2575 2939 
Q 2822 3125 2822 3475 
Q 2822 3834 2567 4026 
Q 2313 4219 1838 4219 
Q 1578 4219 1281 4162 
Q 984 4106 628 3988 
L 628 4550 
Q 988 4650 1302 4700 
Q 1616 4750 1894 4750 
Q 2613 4750 3031 4423 
Q 3450 4097 3450 3541 
Q 3450 3153 3228 2886 
Q 3006 2619 2597 2516 
z
" transform="scale(0.015625)"/>
       </defs>
       <use xlink:href="#DejaVuSans-33"/>
      </g>
     </g>
    </g>
    <g id="xtick_5">
     <g id="line2d_9">
      <path d="M 363.393239 280.517969 
L 363.393239 23.077969 
" clip-path="url(#p123ff26d1e)" style="fill: none; stroke: #dddddd; stroke-opacity: 0.6; stroke-width: 0.8; stroke-linecap: square"/>
     </g>
     <g id="line2d_10">
      <g>
       <use xlink:href="#m7fc3a9fe3a" x="363.393239" y="280.517969" style="fill: #314f4f; stroke: #314f4f; stroke-width: 0.8"/>
      </g>
     </g>
     <g id="text_5">
      <!-- 4 -->
      <g style="fill: #314f4f" transform="translate(359.893864 295.87625) scale(0.11 -0.11)">
       <defs>
        <path id="DejaVuSans-34" d="M 2419 4116 
L 825 1625 
L 2419 1625 
L 2419 4116 
z
M 2253 4666 
L 3047 4666 
L 3047 1625 
L 3713 1625 
L 3713 1100 
L 3047 1100 
L 3047 0 
L 2419 0 
L 2419 1100 
L 313 1100 
L 313 1709 
L 2253 4666 
z
" transform="scale(0.015625)"/>
       </defs>
       <use xlink:href="#DejaVuSans-34"/>
      </g>
     </g>
    </g>
    <g id="xtick_6">
     <g id="line2d_11">
      <path d="M 437.994148 280.517969 
L 437.994148 23.077969 
" clip-path="url(#p123ff26d1e)" style="fill: none; stroke: #dddddd; stroke-opacity: 0.6; stroke-width: 0.8; stroke-linecap: square"/>
     </g>
     <g id="line2d_12">
      <g>
       <use xlink:href="#m7fc3a9fe3a" x="437.994148" y="280.517969" style="fill: #314f4f; stroke: #314f4f; stroke-width: 0.8"/>
      </g>
     </g>
     <g id="text_6">
      <!-- 5 -->
      <g style="fill: #314f4f" transform="translate(434.494773 295.87625) scale(0.11 -0.11)">
       <defs>
        <path id="DejaVuSans-35" d="M 691 4666 
L 3169 4666 
L 3169 4134 
L 1269 4134 
L 1269 2991 
Q 1406 3038 1543 3061 
Q 1681 3084 1819 3084 
Q 2600 3084 3056 2656 
Q 3513 2228 3513 1497 
Q 3513 744 3044 326 
Q 2575 -91 1722 -91 
Q 1428 -91 1123 -41 
Q 819 9 494 109 
L 494 744 
Q 775 591 1075 516 
Q 1375 441 1709 441 
Q 2250 441 2565 725 
Q 2881 1009 2881 1497 
Q 2881 1984 2565 2268 
Q 2250 2553 1709 2553 
Q 1456 2553 1204 2497 
Q 953 2441 691 2322 
L 691 4666 
z
" transform="scale(0.015625)"/>
       </defs>
       <use xlink:href="#DejaVuSans-35"/>
      </g>
     </g>
    </g>
    <g id="text_7">
     <!-- x -->
     <g style="fill: #314f4f" transform="translate(248.236562 310.522187) scale(0.11 -0.11)">
      <defs>
       <path id="DejaVuSans-78" d="M 3513 3500 
L 2247 1797 
L 3578 0 
L 2900 0 
L 1881 1375 
L 863 0 
L 184 0 
L 1544 1831 
L 300 3500 
L 978 3500 
L 1906 2253 
L 2834 3500 
L 3513 3500 
z
" transform="scale(0.015625)"/>
      </defs>
      <use xlink:href="#DejaVuSans-78"/>
     </g>
    </g>
   </g>
   <g id="matplotlib.axis_2">
    <g id="ytick_1">
     <g id="line2d_13">
      <path d="M 46.339375 268.816151 
L 456.644375 268.816151 
" clip-path="url(#p123ff26d1e)" style="fill: none; stroke: #dddddd; stroke-opacity: 0.6; stroke-width: 0.8; stroke-linecap: square"/>
     </g>
     <g id="line2d_14">
      <defs>
       <path id="m8d24e867b9" d="M 0 0 
L -3.5 0 
" style="stroke: #314f4f; stroke-width: 0.8"/>
      </defs>
      <g>
       <use xlink:href="#m8d24e867b9" x="46.339375" y="268.816151" style="fill: #314f4f; stroke: #314f4f; stroke-width: 0.8"/>
      </g>
     </g>
     <g id="text_8">
      <!-- 0.0 -->
      <g style="fill: #314f4f" transform="translate(21.845938 272.995291) scale(0.11 -0.11)">
       <defs>
        <path id="DejaVuSans-2e" d="M 684 794 
L 1344 794 
L 1344 0 
L 684 0 
L 684 794 
z
" transform="scale(0.015625)"/>
       </defs>
       <use xlink:href="#DejaVuSans-30"/>
       <use xlink:href="#DejaVuSans-2e" transform="translate(63.623047 0)"/>
       <use xlink:href="#DejaVuSans-30" transform="translate(95.410156 0)"/>
      </g>
     </g>
    </g>
    <g id="ytick_2">
     <g id="line2d_15">
      <path d="M 46.339375 222.008878 
L 456.644375 222.008878 
" clip-path="url(#p123ff26d1e)" style="fill: none; stroke: #dddddd; stroke-opacity: 0.6; stroke-width: 0.8; stroke-linecap: square"/>
     </g>
     <g id="line2d_16">
      <g>
       <use xlink:href="#m8d24e867b9" x="46.339375" y="222.008878" style="fill: #314f4f; stroke: #314f4f; stroke-width: 0.8"/>
      </g>
     </g>
     <g id="text_9">
      <!-- 0.2 -->
      <g style="fill: #314f4f" transform="translate(21.845938 226.188018) scale(0.11 -0.11)">
       <use xlink:href="#DejaVuSans-30"/>
       <use xlink:href="#DejaVuSans-2e" transform="translate(63.623047 0)"/>
       <use xlink:href="#DejaVuSans-32" transform="translate(95.410156 0)"/>
      </g>
     </g>
    </g>
    <g id="ytick_3">
     <g id="line2d_17">
      <path d="M 46.339375 175.201605 
L 456.644375 175.201605 
" clip-path="url(#p123ff26d1e)" style="fill: none; stroke: #dddddd; stroke-opacity: 0.6; stroke-width: 0.8; stroke-linecap: square"/>
     </g>
     <g id="line2d_18">
      <g>
       <use xlink:href="#m8d24e867b9" x="46.339375" y="175.201605" style="fill: #314f4f; stroke: #314f4f; stroke-width: 0.8"/>
      </g>
     </g>
     <g id="text_10">
      <!-- 0.4 -->
      <g style="fill: #314f4f" transform="translate(21.845938 179.380746) scale(0.11 -0.11)">
       <use xlink:href="#DejaVuSans-30"/>
       <use xlink:href="#DejaVuSans-2e" transform="translate(63.623047 0)"/>
       <use xlink:href="#DejaVuSans-34" transform="translate(95.410156 0)"/>
      </g>
     </g>
    </g>
    <g id="ytick_4">
     <g id="line2d_19">
      <path d="M 46.339375 128.394332 
L 456.644375 128.394332 
" clip-path="url(#p123ff26d1e)" style="fill: none; stroke: #dddddd; stroke-opacity: 0.6; stroke-width: 0.8; stroke-linecap: square"/>
     </g>
     <g id="line2d_20">
      <g>
       <use xlink:href="#m8d24e867b9" x="46.339375" y="128.394332" style="fill: #314f4f; stroke: #314f4f; stroke-width: 0.8"/>
      </g>
     </g>
     <g id="text_11">
      <!-- 0.6 -->
      <g style="fill: #314f4f" transform="translate(21.845938 132.573473) scale(0.11 -0.11)">
       <defs>
        <path id="DejaVuSans-36" d="M 2113 2584 
Q 1688 2584 1439 2293 
Q 1191 2003 1191 1497 
Q 1191 994 1439 701 
Q 1688 409 2113 409 
Q 2538 409 2786 701 
Q 3034 994 3034 1497 
Q 3034 2003 2786 2293 
Q 2538 2584 2113 2584 
z
M 3366 4563 
L 3366 3988 
Q 3128 4100 2886 4159 
Q 2644 4219 2406 4219 
Q 1781 4219 1451 3797 
Q 1122 3375 1075 2522 
Q 1259 2794 1537 2939 
Q 1816 3084 2150 3084 
Q 2853 3084 3261 2657 
Q 3669 2231 3669 1497 
Q 3669 778 3244 343 
Q 2819 -91 2113 -91 
Q 1303 -91 875 529 
Q 447 1150 447 2328 
Q 447 3434 972 4092 
Q 1497 4750 2381 4750 
Q 2619 4750 2861 4703 
Q 3103 4656 3366 4563 
z
" transform="scale(0.015625)"/>
       </defs>
       <use xlink:href="#DejaVuSans-30"/>
       <use xlink:href="#DejaVuSans-2e" transform="translate(63.623047 0)"/>
       <use xlink:href="#DejaVuSans-36" transform="translate(95.410156 0)"/>
      </g>
     </g>
    </g>
    <g id="ytick_5">
     <g id="line2d_21">
      <path d="M 46.339375 81.58706 
L 456.644375 81.58706 
" clip-path="url(#p123ff26d1e)" style="fill: none; stroke: #dddddd; stroke-opacity: 0.6; stroke-width: 0.8; stroke-linecap: square"/>
     </g>
     <g id="line2d_22">
      <g>
       <use xlink:href="#m8d24e867b9" x="46.339375" y="81.58706" style="fill: #314f4f; stroke: #314f4f; stroke-width: 0.8"/>
      </g>
     </g>
     <g id="text_12">
      <!-- 0.8 -->
      <g style="fill: #314f4f" transform="translate(21.845938 85.7662) scale(0.11 -0.11)">
       <defs>
        <path id="DejaVuSans-38" d="M 2034 2216 
Q 1584 2216 1326 1975 
Q 1069 1734 1069 1313 
Q 1069 891 1326 650 
Q 1584 409 2034 409 
Q 2484 409 2743 651 
Q 3003 894 3003 1313 
Q 3003 1734 2745 1975 
Q 2488 2216 2034 2216 
z
M 1403 2484 
Q 997 2584 770 2862 
Q 544 3141 544 3541 
Q 544 4100 942 4425 
Q 1341 4750 2034 4750 
Q 2731 4750 3128 4425 
Q 3525 4100 3525 3541 
Q 3525 3141 3298 2862 
Q 3072 2584 2669 2484 
Q 3125 2378 3379 2068 
Q 3634 1759 3634 1313 
Q 3634 634 3220 271 
Q 2806 -91 2034 -91 
Q 1263 -91 848 271 
Q 434 634 434 1313 
Q 434 1759 690 2068 
Q 947 2378 1403 2484 
z
M 1172 3481 
Q 1172 3119 1398 2916 
Q 1625 2713 2034 2713 
Q 2441 2713 2670 2916 
Q 2900 3119 2900 3481 
Q 2900 3844 2670 4047 
Q 2441 4250 2034 4250 
Q 1625 4250 1398 4047 
Q 1172 3844 1172 3481 
z
" transform="scale(0.015625)"/>
       </defs>
       <use xlink:href="#DejaVuSans-30"/>
       <use xlink:href="#DejaVuSans-2e" transform="translate(63.623047 0)"/>
       <use xlink:href="#DejaVuSans-38" transform="translate(95.410156 0)"/>
      </g>
     </g>
    </g>
    <g id="ytick_6">
     <g id="line2d_23">
      <path d="M 46.339375 34.779787 
L 456.644375 34.779787 
" clip-path="url(#p123ff26d1e)" style="fill: none; stroke: #dddddd; stroke-opacity: 0.6; stroke-width: 0.8; stroke-linecap: square"/>
     </g>
     <g id="line2d_24">
      <g>
       <use xlink:href="#m8d24e867b9" x="46.339375" y="34.779787" style="fill: #314f4f; stroke: #314f4f; stroke-width: 0.8"/>
      </g>
     </g>
     <g id="text_13">
      <!-- 1.0 -->
      <g style="fill: #314f4f" transform="translate(21.845938 38.958928) scale(0.11 -0.11)">
       <use xlink:href="#DejaVuSans-31"/>
       <use xlink:href="#DejaVuSans-2e" transform="translate(63.623047 0)"/>
       <use xlink:href="#DejaVuSans-30" transform="translate(95.410156 0)"/>
      </g>
     </g>
    </g>
    <g id="text_14">
     <!-- CDF -->
     <g style="fill: #314f4f" transform="translate(15.558281 163.036875) rotate(-90) scale(0.11 -0.11)">
      <defs>
       <path id="DejaVuSans-43" d="M 4122 4306 
L 4122 3641 
Q 3803 3938 3442 4084 
Q 3081 4231 2675 4231 
Q 1875 4231 1450 3742 
Q 1025 3253 1025 2328 
Q 1025 1406 1450 917 
Q 1875 428 2675 428 
Q 3081 428 3442 575 
Q 3803 722 4122 1019 
L 4122 359 
Q 3791 134 3420 21 
Q 3050 -91 2638 -91 
Q 1578 -91 968 557 
Q 359 1206 359 2328 
Q 359 3453 968 4101 
Q 1578 4750 2638 4750 
Q 3056 4750 3426 4639 
Q 3797 4528 4122 4306 
z
" transform="scale(0.015625)"/>
       <path id="DejaVuSans-44" d="M 1259 4147 
L 1259 519 
L 2022 519 
Q 2988 519 3436 956 
Q 3884 1394 3884 2338 
Q 3884 3275 3436 3711 
Q 2988 4147 2022 4147 
L 1259 4147 
z
M 628 4666 
L 1925 4666 
Q 3281 4666 3915 4102 
Q 4550 3538 4550 2338 
Q 4550 1131 3912 565 
Q 3275 0 1925 0 
L 628 0 
L 628 4666 
z
" transform="scale(0.015625)"/>
       <path id="DejaVuSans-46" d="M 628 4666 
L 3309 4666 
L 3309 4134 
L 1259 4134 
L 1259 2759 
L 3109 2759 
L 3109 2228 
L 1259 2228 
L 1259 0 
L 628 0 
L 628 4666 
z
" transform="scale(0.015625)"/>
      </defs>
      <use xlink:href="#DejaVuSans-43"/>
      <use xlink:href="#DejaVuSans-44" transform="translate(69.824219 0)"/>
      <use xlink:href="#DejaVuSans-46" transform="translate(146.826172 0)"/>
     </g>
    </g>
   </g>
   <g id="line2d_25">
    <path d="M 64.989602 268.816151 
L 69.096759 256.279534 
L 73.203917 244.414466 
L 77.311074 233.184974 
L 81.418231 222.557011 
L 85.525388 212.498356 
L 89.632545 202.978513 
L 94.11308 193.173868 
L 98.593615 183.940756 
L 103.07415 175.245861 
L 107.554686 167.057809 
L 112.035221 159.347055 
L 116.515756 152.085776 
L 120.996291 145.247772 
L 125.476826 138.808369 
L 129.957361 132.744332 
L 134.437896 127.03378 
L 139.291809 121.222378 
L 144.145722 115.777056 
L 148.999635 110.674754 
L 153.853548 105.893864 
L 158.707461 101.414139 
L 163.934752 96.904892 
L 169.162043 92.700792 
L 174.389334 88.78119 
L 179.616625 85.126834 
L 185.217294 81.485425 
L 190.817962 78.107386 
L 196.792009 74.772999 
L 202.766056 71.695218 
L 209.113481 68.684179 
L 215.460905 65.918738 
L 222.181708 63.236082 
L 229.275889 60.654711 
L 236.370069 58.307505 
L 243.837628 56.066415 
L 251.678564 53.942646 
L 259.892878 51.94464 
L 268.853948 50.001818 
L 278.188397 48.211501 
L 288.2696 46.513704 
L 298.724182 44.979335 
L 309.92552 43.557301 
L 322.246991 42.220957 
L 335.688597 40.994055 
L 350.250336 39.892104 
L 366.305586 38.902195 
L 384.227727 38.021809 
L 404.763513 37.241659 
L 428.286322 36.575867 
L 437.994148 36.356712 
L 437.994148 36.356712 
" clip-path="url(#p123ff26d1e)" style="fill: none; stroke: #ffa500; stroke-width: 2; stroke-linecap: square"/>
   </g>
   <g id="line2d_26">
    <path d="M 64.989602 268.816151 
L 75.817562 268.816151 
L 75.817562 245.412514 
L 97.473482 245.412514 
L 97.473482 222.008878 
L 110.915087 222.008878 
L 110.915087 198.605241 
L 117.262512 198.605241 
L 117.262512 175.201605 
L 124.356692 175.201605 
L 124.356692 151.797969 
L 135.184652 151.797969 
L 135.184652 128.394332 
L 175.882846 128.394332 
L 175.882846 104.990696 
L 178.496491 104.990696 
L 178.496491 81.58706 
L 306.938497 81.58706 
L 306.938497 58.183423 
L 348.756824 58.183423 
L 348.756824 34.779787 
L 437.994148 34.779787 
L 437.994148 34.779787 
" clip-path="url(#p123ff26d1e)" style="fill: none; stroke: #181485; stroke-width: 2; stroke-linecap: square"/>
   </g>
   <g id="LineCollection_1">
    <path d="M 110.541709 222.008878 
L 110.541709 161.866025 
" clip-path="url(#p123ff26d1e)" style="fill: none; stroke: #e64173; stroke-width: 3"/>
   </g>
   <g id="patch_3">
    <path d="M 46.339375 280.517969 
L 46.339375 23.077969 
" style="fill: none; stroke: #314f4f; stroke-width: 0.8; stroke-linejoin: miter; stroke-linecap: square"/>
   </g>
   <g id="patch_4">
    <path d="M 46.339375 280.517969 
L 456.644375 280.517969 
" style="fill: none; stroke: #314f4f; stroke-width: 0.8; stroke-linejoin: miter; stroke-linecap: square"/>
   </g>
   <g id="text_15">
    <!-- n = 10 -->
    <g transform="translate(229.522891 17.077969) scale(0.13 -0.13)">
     <defs>
      <path id="DejaVuSans-6e" d="M 3513 2113 
L 3513 0 
L 2938 0 
L 2938 2094 
Q 2938 2591 2744 2837 
Q 2550 3084 2163 3084 
Q 1697 3084 1428 2787 
Q 1159 2491 1159 1978 
L 1159 0 
L 581 0 
L 581 3500 
L 1159 3500 
L 1159 2956 
Q 1366 3272 1645 3428 
Q 1925 3584 2291 3584 
Q 2894 3584 3203 3211 
Q 3513 2838 3513 2113 
z
" transform="scale(0.015625)"/>
      <path id="DejaVuSans-20" transform="scale(0.015625)"/>
      <path id="DejaVuSans-3d" d="M 678 2906 
L 4684 2906 
L 4684 2381 
L 678 2381 
L 678 2906 
z
M 678 1631 
L 4684 1631 
L 4684 1100 
L 678 1100 
L 678 1631 
z
" transform="scale(0.015625)"/>
     </defs>
     <use xlink:href="#DejaVuSans-6e"/>
     <use xlink:href="#DejaVuSans-20" transform="translate(63.378906 0)"/>
     <use xlink:href="#DejaVuSans-3d" transform="translate(95.166016 0)"/>
     <use xlink:href="#DejaVuSans-20" transform="translate(178.955078 0)"/>
     <use xlink:href="#DejaVuSans-31" transform="translate(210.742188 0)"/>
     <use xlink:href="#DejaVuSans-30" transform="translate(274.365234 0)"/>
    </g>
   </g>
   <g id="legend_1">
    <g id="line2d_27">
     <path d="M 56.239375 37.48625 
L 67.239375 37.48625 
L 78.239375 37.48625 
" style="fill: none; stroke: #ffa500; stroke-width: 2; stroke-linecap: square"/>
    </g>
    <g id="text_16">
     <!-- $F(x)$ -->
     <g transform="translate(87.039375 41.33625) scale(0.11 -0.11)">
      <defs>
       <path id="DejaVuSans-Oblique-46" d="M 1081 4666 
L 3756 4666 
L 3653 4134 
L 1606 4134 
L 1338 2759 
L 3188 2759 
L 3084 2228 
L 1234 2228 
L 800 0 
L 172 0 
L 1081 4666 
z
" transform="scale(0.015625)"/>
       <path id="DejaVuSans-28" d="M 1984 4856 
Q 1566 4138 1362 3434 
Q 1159 2731 1159 2009 
Q 1159 1288 1364 580 
Q 1569 -128 1984 -844 
L 1484 -844 
Q 1016 -109 783 600 
Q 550 1309 550 2009 
Q 550 2706 781 3412 
Q 1013 4119 1484 4856 
L 1984 4856 
z
" transform="scale(0.015625)"/>
       <path id="DejaVuSans-Oblique-78" d="M 3841 3500 
L 2234 1784 
L 3219 0 
L 2559 0 
L 1819 1388 
L 531 0 
L -166 0 
L 1556 1844 
L 641 3500 
L 1300 3500 
L 1972 2234 
L 3144 3500 
L 3841 3500 
z
" transform="scale(0.015625)"/>
       <path id="DejaVuSans-29" d="M 513 4856 
L 1013 4856 
Q 1481 4119 1714 3412 
Q 1947 2706 1947 2009 
Q 1947 1309 1714 600 
Q 1481 -109 1013 -844 
L 513 -844 
Q 928 -128 1133 580 
Q 1338 1288 1338 2009 
Q 1338 2731 1133 3434 
Q 928 4138 513 4856 
z
" transform="scale(0.015625)"/>
      </defs>
      <use xlink:href="#DejaVuSans-Oblique-46" transform="translate(0 0.125)"/>
      <use xlink:href="#DejaVuSans-28" transform="translate(57.519531 0.125)"/>
      <use xlink:href="#DejaVuSans-Oblique-78" transform="translate(96.533203 0.125)"/>
      <use xlink:href="#DejaVuSans-29" transform="translate(155.712891 0.125)"/>
     </g>
    </g>
    <g id="line2d_28">
     <path d="M 56.239375 55.63625 
L 67.239375 55.63625 
L 67.239375 55.63625 
L 78.239375 55.63625 
L 78.239375 55.63625 
" style="fill: none; stroke: #181485; stroke-width: 2; stroke-linecap: square"/>
    </g>
    <g id="text_17">
     <!-- $\widehat{F}_n(x)$ -->
     <g transform="translate(87.039375 59.48625) scale(0.11 -0.11)">
      <defs>
       <path id="STIXSizeTwoSym-Regular-302" d="M -1094 3610 
L -1728 3610 
L -4224 4538 
L -6726 3610 
L -7360 3610 
L -4378 4973 
L -4070 4973 
L -1094 3610 
z
" transform="scale(0.015625)"/>
       <path id="DejaVuSans-Oblique-6e" d="M 3566 2113 
L 3156 0 
L 2578 0 
L 2988 2091 
Q 3016 2238 3031 2350 
Q 3047 2463 3047 2528 
Q 3047 2791 2881 2937 
Q 2716 3084 2419 3084 
Q 1956 3084 1622 2776 
Q 1288 2469 1184 1941 
L 800 0 
L 225 0 
L 903 3500 
L 1478 3500 
L 1363 2950 
Q 1603 3253 1940 3418 
Q 2278 3584 2650 3584 
Q 3113 3584 3367 3334 
Q 3622 3084 3622 2631 
Q 3622 2519 3608 2391 
Q 3594 2263 3566 2113 
z
" transform="scale(0.015625)"/>
      </defs>
      <use xlink:href="#STIXSizeTwoSym-Regular-302" transform="translate(74.942383 52.15625) scale(0.587496)"/>
      <use xlink:href="#DejaVuSans-Oblique-46" transform="translate(0 0.03125)"/>
      <use xlink:href="#DejaVuSans-Oblique-6e" transform="translate(58.476562 -16.375) scale(0.7)"/>
      <use xlink:href="#DejaVuSans-28" transform="translate(105.576172 0.03125)"/>
      <use xlink:href="#DejaVuSans-Oblique-78" transform="translate(144.589844 0.03125)"/>
      <use xlink:href="#DejaVuSans-29" transform="translate(203.769531 0.03125)"/>
     </g>
    </g>
    <g id="line2d_29">
     <path d="M 56.239375 71.782187 
L 78.239375 71.782187 
" style="fill: none; stroke: #e64173; stroke-width: 3"/>
    </g>
    <g id="text_18">
     <!-- $D_n$ -->
     <g transform="translate(87.039375 75.632187) scale(0.11 -0.11)">
      <defs>
       <path id="DejaVuSans-Oblique-44" d="M 1081 4666 
L 2438 4666 
Q 3519 4666 4070 4208 
Q 4622 3750 4622 2847 
Q 4622 2250 4412 1698 
Q 4203 1147 3834 769 
Q 3463 381 2891 190 
Q 2319 0 1538 0 
L 172 0 
L 1081 4666 
z
M 1613 4147 
L 909 519 
L 1734 519 
Q 2794 519 3375 1128 
Q 3956 1738 3956 2847 
Q 3956 3519 3581 3833 
Q 3206 4147 2406 4147 
L 1613 4147 
z
" transform="scale(0.015625)"/>
      </defs>
      <use xlink:href="#DejaVuSans-Oblique-44" transform="translate(0 0.09375)"/>
      <use xlink:href="#DejaVuSans-Oblique-6e" transform="translate(77.001953 -16.3125) scale(0.7)"/>
     </g>
    </g>
   </g>
  </g>
  <g id="axes_2">
   <g id="patch_5">
    <path d="M 508.399375 280.517969 
L 918.704375 280.517969 
L 918.704375 23.077969 
L 508.399375 23.077969 
z
" style="fill: #ffffff"/>
   </g>
   <g id="matplotlib.axis_3">
    <g id="xtick_7">
     <g id="line2d_30">
      <path d="M 527.049602 280.517969 
L 527.049602 23.077969 
" clip-path="url(#p45f90274ed)" style="fill: none; stroke: #dddddd; stroke-opacity: 0.6; stroke-width: 0.8; stroke-linecap: square"/>
     </g>
     <g id="line2d_31">
      <g>
       <use xlink:href="#m7fc3a9fe3a" x="527.049602" y="280.517969" style="fill: #314f4f; stroke: #314f4f; stroke-width: 0.8"/>
      </g>
     </g>
     <g id="text_19">
      <!-- 0 -->
      <g style="fill: #314f4f" transform="translate(523.550227 295.87625) scale(0.11 -0.11)">
       <use xlink:href="#DejaVuSans-30"/>
      </g>
     </g>
    </g>
    <g id="xtick_8">
     <g id="line2d_32">
      <path d="M 601.650511 280.517969 
L 601.650511 23.077969 
" clip-path="url(#p45f90274ed)" style="fill: none; stroke: #dddddd; stroke-opacity: 0.6; stroke-width: 0.8; stroke-linecap: square"/>
     </g>
     <g id="line2d_33">
      <g>
       <use xlink:href="#m7fc3a9fe3a" x="601.650511" y="280.517969" style="fill: #314f4f; stroke: #314f4f; stroke-width: 0.8"/>
      </g>
     </g>
     <g id="text_20">
      <!-- 1 -->
      <g style="fill: #314f4f" transform="translate(598.151136 295.87625) scale(0.11 -0.11)">
       <use xlink:href="#DejaVuSans-31"/>
      </g>
     </g>
    </g>
    <g id="xtick_9">
     <g id="line2d_34">
      <path d="M 676.25142 280.517969 
L 676.25142 23.077969 
" clip-path="url(#p45f90274ed)" style="fill: none; stroke: #dddddd; stroke-opacity: 0.6; stroke-width: 0.8; stroke-linecap: square"/>
     </g>
     <g id="line2d_35">
      <g>
       <use xlink:href="#m7fc3a9fe3a" x="676.25142" y="280.517969" style="fill: #314f4f; stroke: #314f4f; stroke-width: 0.8"/>
      </g>
     </g>
     <g id="text_21">
      <!-- 2 -->
      <g style="fill: #314f4f" transform="translate(672.752045 295.87625) scale(0.11 -0.11)">
       <use xlink:href="#DejaVuSans-32"/>
      </g>
     </g>
    </g>
    <g id="xtick_10">
     <g id="line2d_36">
      <path d="M 750.85233 280.517969 
L 750.85233 23.077969 
" clip-path="url(#p45f90274ed)" style="fill: none; stroke: #dddddd; stroke-opacity: 0.6; stroke-width: 0.8; stroke-linecap: square"/>
     </g>
     <g id="line2d_37">
      <g>
       <use xlink:href="#m7fc3a9fe3a" x="750.85233" y="280.517969" style="fill: #314f4f; stroke: #314f4f; stroke-width: 0.8"/>
      </g>
     </g>
     <g id="text_22">
      <!-- 3 -->
      <g style="fill: #314f4f" transform="translate(747.352955 295.87625) scale(0.11 -0.11)">
       <use xlink:href="#DejaVuSans-33"/>
      </g>
     </g>
    </g>
    <g id="xtick_11">
     <g id="line2d_38">
      <path d="M 825.453239 280.517969 
L 825.453239 23.077969 
" clip-path="url(#p45f90274ed)" style="fill: none; stroke: #dddddd; stroke-opacity: 0.6; stroke-width: 0.8; stroke-linecap: square"/>
     </g>
     <g id="line2d_39">
      <g>
       <use xlink:href="#m7fc3a9fe3a" x="825.453239" y="280.517969" style="fill: #314f4f; stroke: #314f4f; stroke-width: 0.8"/>
      </g>
     </g>
     <g id="text_23">
      <!-- 4 -->
      <g style="fill: #314f4f" transform="translate(821.953864 295.87625) scale(0.11 -0.11)">
       <use xlink:href="#DejaVuSans-34"/>
      </g>
     </g>
    </g>
    <g id="xtick_12">
     <g id="line2d_40">
      <path d="M 900.054148 280.517969 
L 900.054148 23.077969 
" clip-path="url(#p45f90274ed)" style="fill: none; stroke: #dddddd; stroke-opacity: 0.6; stroke-width: 0.8; stroke-linecap: square"/>
     </g>
     <g id="line2d_41">
      <g>
       <use xlink:href="#m7fc3a9fe3a" x="900.054148" y="280.517969" style="fill: #314f4f; stroke: #314f4f; stroke-width: 0.8"/>
      </g>
     </g>
     <g id="text_24">
      <!-- 5 -->
      <g style="fill: #314f4f" transform="translate(896.554773 295.87625) scale(0.11 -0.11)">
       <use xlink:href="#DejaVuSans-35"/>
      </g>
     </g>
    </g>
    <g id="text_25">
     <!-- x -->
     <g style="fill: #314f4f" transform="translate(710.296563 310.522187) scale(0.11 -0.11)">
      <use xlink:href="#DejaVuSans-78"/>
     </g>
    </g>
   </g>
   <g id="matplotlib.axis_4">
    <g id="ytick_7">
     <g id="line2d_42">
      <path d="M 508.399375 268.816151 
L 918.704375 268.816151 
" clip-path="url(#p45f90274ed)" style="fill: none; stroke: #dddddd; stroke-opacity: 0.6; stroke-width: 0.8; stroke-linecap: square"/>
     </g>
     <g id="line2d_43">
      <g>
       <use xlink:href="#m8d24e867b9" x="508.399375" y="268.816151" style="fill: #314f4f; stroke: #314f4f; stroke-width: 0.8"/>
      </g>
     </g>
     <g id="text_26">
      <!-- 0.0 -->
      <g style="fill: #314f4f" transform="translate(483.905938 272.995291) scale(0.11 -0.11)">
       <use xlink:href="#DejaVuSans-30"/>
       <use xlink:href="#DejaVuSans-2e" transform="translate(63.623047 0)"/>
       <use xlink:href="#DejaVuSans-30" transform="translate(95.410156 0)"/>
      </g>
     </g>
    </g>
    <g id="ytick_8">
     <g id="line2d_44">
      <path d="M 508.399375 221.691353 
L 918.704375 221.691353 
" clip-path="url(#p45f90274ed)" style="fill: none; stroke: #dddddd; stroke-opacity: 0.6; stroke-width: 0.8; stroke-linecap: square"/>
     </g>
     <g id="line2d_45">
      <g>
       <use xlink:href="#m8d24e867b9" x="508.399375" y="221.691353" style="fill: #314f4f; stroke: #314f4f; stroke-width: 0.8"/>
      </g>
     </g>
     <g id="text_27">
      <!-- 0.2 -->
      <g style="fill: #314f4f" transform="translate(483.905938 225.870494) scale(0.11 -0.11)">
       <use xlink:href="#DejaVuSans-30"/>
       <use xlink:href="#DejaVuSans-2e" transform="translate(63.623047 0)"/>
       <use xlink:href="#DejaVuSans-32" transform="translate(95.410156 0)"/>
      </g>
     </g>
    </g>
    <g id="ytick_9">
     <g id="line2d_46">
      <path d="M 508.399375 174.566556 
L 918.704375 174.566556 
" clip-path="url(#p45f90274ed)" style="fill: none; stroke: #dddddd; stroke-opacity: 0.6; stroke-width: 0.8; stroke-linecap: square"/>
     </g>
     <g id="line2d_47">
      <g>
       <use xlink:href="#m8d24e867b9" x="508.399375" y="174.566556" style="fill: #314f4f; stroke: #314f4f; stroke-width: 0.8"/>
      </g>
     </g>
     <g id="text_28">
      <!-- 0.4 -->
      <g style="fill: #314f4f" transform="translate(483.905938 178.745697) scale(0.11 -0.11)">
       <use xlink:href="#DejaVuSans-30"/>
       <use xlink:href="#DejaVuSans-2e" transform="translate(63.623047 0)"/>
       <use xlink:href="#DejaVuSans-34" transform="translate(95.410156 0)"/>
      </g>
     </g>
    </g>
    <g id="ytick_10">
     <g id="line2d_48">
      <path d="M 508.399375 127.441759 
L 918.704375 127.441759 
" clip-path="url(#p45f90274ed)" style="fill: none; stroke: #dddddd; stroke-opacity: 0.6; stroke-width: 0.8; stroke-linecap: square"/>
     </g>
     <g id="line2d_49">
      <g>
       <use xlink:href="#m8d24e867b9" x="508.399375" y="127.441759" style="fill: #314f4f; stroke: #314f4f; stroke-width: 0.8"/>
      </g>
     </g>
     <g id="text_29">
      <!-- 0.6 -->
      <g style="fill: #314f4f" transform="translate(483.905938 131.6209) scale(0.11 -0.11)">
       <use xlink:href="#DejaVuSans-30"/>
       <use xlink:href="#DejaVuSans-2e" transform="translate(63.623047 0)"/>
       <use xlink:href="#DejaVuSans-36" transform="translate(95.410156 0)"/>
      </g>
     </g>
    </g>
    <g id="ytick_11">
     <g id="line2d_50">
      <path d="M 508.399375 80.316962 
L 918.704375 80.316962 
" clip-path="url(#p45f90274ed)" style="fill: none; stroke: #dddddd; stroke-opacity: 0.6; stroke-width: 0.8; stroke-linecap: square"/>
     </g>
     <g id="line2d_51">
      <g>
       <use xlink:href="#m8d24e867b9" x="508.399375" y="80.316962" style="fill: #314f4f; stroke: #314f4f; stroke-width: 0.8"/>
      </g>
     </g>
     <g id="text_30">
      <!-- 0.8 -->
      <g style="fill: #314f4f" transform="translate(483.905938 84.496103) scale(0.11 -0.11)">
       <use xlink:href="#DejaVuSans-30"/>
       <use xlink:href="#DejaVuSans-2e" transform="translate(63.623047 0)"/>
       <use xlink:href="#DejaVuSans-38" transform="translate(95.410156 0)"/>
      </g>
     </g>
    </g>
    <g id="ytick_12">
     <g id="line2d_52">
      <path d="M 508.399375 33.192165 
L 918.704375 33.192165 
" clip-path="url(#p45f90274ed)" style="fill: none; stroke: #dddddd; stroke-opacity: 0.6; stroke-width: 0.8; stroke-linecap: square"/>
     </g>
     <g id="line2d_53">
      <g>
       <use xlink:href="#m8d24e867b9" x="508.399375" y="33.192165" style="fill: #314f4f; stroke: #314f4f; stroke-width: 0.8"/>
      </g>
     </g>
     <g id="text_31">
      <!-- 1.0 -->
      <g style="fill: #314f4f" transform="translate(483.905938 37.371306) scale(0.11 -0.11)">
       <use xlink:href="#DejaVuSans-31"/>
       <use xlink:href="#DejaVuSans-2e" transform="translate(63.623047 0)"/>
       <use xlink:href="#DejaVuSans-30" transform="translate(95.410156 0)"/>
      </g>
     </g>
    </g>
    <g id="text_32">
     <!-- CDF -->
     <g style="fill: #314f4f" transform="translate(477.618281 163.036875) rotate(-90) scale(0.11 -0.11)">
      <use xlink:href="#DejaVuSans-43"/>
      <use xlink:href="#DejaVuSans-44" transform="translate(69.824219 0)"/>
      <use xlink:href="#DejaVuSans-46" transform="translate(146.826172 0)"/>
     </g>
    </g>
   </g>
   <g id="line2d_54">
    <path d="M 527.049602 268.816151 
L 531.156759 256.19449 
L 535.263917 244.248934 
L 539.371074 232.943264 
L 543.478231 222.243205 
L 547.585388 212.116316 
L 551.692545 202.531893 
L 556.17308 192.660737 
L 560.653615 183.364991 
L 565.13415 174.611112 
L 569.614686 166.367515 
L 574.095221 158.604454 
L 578.575756 151.293918 
L 583.056291 144.409527 
L 587.536826 137.926441 
L 592.017361 131.821268 
L 596.497896 126.071978 
L 600.978431 120.657825 
L 605.832344 115.148057 
L 610.686257 109.985368 
L 615.54017 105.147895 
L 620.394083 100.615151 
L 625.247996 96.367941 
L 630.475287 92.092741 
L 635.702578 88.10685 
L 640.929869 84.39069 
L 646.530538 80.687697 
L 652.131207 77.252528 
L 658.105253 73.861749 
L 664.0793 70.731917 
L 670.426725 67.669954 
L 676.77415 64.857744 
L 683.494952 62.129718 
L 690.215755 59.636714 
L 697.309935 57.237836 
L 704.777494 54.94741 
L 712.61843 52.776887 
L 720.832745 50.734896 
L 729.420437 48.827361 
L 738.754885 46.988451 
L 748.462711 45.305044 
L 758.917293 43.721121 
L 770.11863 42.253161 
L 782.066724 40.9122 
L 795.134951 39.671667 
L 809.323312 38.549429 
L 825.005185 37.533766 
L 842.553948 36.623701 
L 862.342977 35.824162 
L 885.119031 35.131679 
L 900.054148 34.779787 
L 900.054148 34.779787 
" clip-path="url(#p45f90274ed)" style="fill: none; stroke: #ffa500; stroke-width: 2; stroke-linecap: square"/>
   </g>
   <g id="line2d_55">
    <path d="M 527.049602 268.816151 
L 529.663248 268.816151 
L 529.663248 266.459911 
L 530.783382 266.459911 
L 530.783382 261.747431 
L 531.156759 261.747431 
L 531.156759 259.391191 
L 531.903515 259.391191 
L 531.903515 254.678711 
L 532.276893 254.678711 
L 532.276893 252.322472 
L 532.650271 252.322472 
L 532.650271 249.966232 
L 533.023649 249.966232 
L 533.023649 247.609992 
L 533.770405 247.609992 
L 533.770405 245.253752 
L 534.143783 245.253752 
L 534.143783 240.541272 
L 534.890539 240.541272 
L 534.890539 238.185032 
L 535.263917 238.185032 
L 535.263917 235.828793 
L 535.637295 235.828793 
L 535.637295 231.116313 
L 537.130806 231.116313 
L 537.130806 228.760073 
L 537.877562 228.760073 
L 537.877562 226.403833 
L 542.731475 226.403833 
L 542.731475 221.691353 
L 544.971743 221.691353 
L 544.971743 216.978874 
L 546.091876 216.978874 
L 546.091876 214.622634 
L 546.465254 214.622634 
L 546.465254 212.266394 
L 549.452278 212.266394 
L 549.452278 209.910154 
L 551.319167 209.910154 
L 551.319167 207.553914 
L 555.426324 207.553914 
L 555.426324 205.197674 
L 557.293214 205.197674 
L 557.293214 200.485195 
L 557.666592 200.485195 
L 557.666592 198.128955 
L 558.03997 198.128955 
L 558.03997 195.772715 
L 559.533482 195.772715 
L 559.533482 193.416475 
L 559.90686 193.416475 
L 559.90686 191.060235 
L 562.147127 191.060235 
L 562.147127 188.703995 
L 563.267261 188.703995 
L 563.267261 186.347756 
L 564.760773 186.347756 
L 564.760773 183.991516 
L 568.121174 183.991516 
L 568.121174 181.635276 
L 568.494552 181.635276 
L 568.494552 179.279036 
L 571.854953 179.279036 
L 571.854953 176.922796 
L 572.601709 176.922796 
L 572.601709 172.210316 
L 572.975087 172.210316 
L 572.975087 169.854077 
L 573.721843 169.854077 
L 573.721843 167.497837 
L 575.96211 167.497837 
L 575.96211 165.141597 
L 577.829 165.141597 
L 577.829 162.785357 
L 579.322512 162.785357 
L 579.322512 158.072877 
L 579.695889 158.072877 
L 579.695889 153.360398 
L 580.816023 153.360398 
L 580.816023 151.004158 
L 581.189401 151.004158 
L 581.189401 148.647918 
L 581.562779 148.647918 
L 581.562779 146.291678 
L 585.669936 146.291678 
L 585.669936 143.935438 
L 586.416692 143.935438 
L 586.416692 141.579198 
L 587.163448 141.579198 
L 587.163448 139.222959 
L 592.017361 139.222959 
L 592.017361 136.866719 
L 592.390739 136.866719 
L 592.390739 134.510479 
L 593.137495 134.510479 
L 593.137495 132.154239 
L 593.510873 132.154239 
L 593.510873 129.797999 
L 594.257628 129.797999 
L 594.257628 127.441759 
L 595.004384 127.441759 
L 595.004384 125.085519 
L 595.75114 125.085519 
L 595.75114 122.72928 
L 596.124518 122.72928 
L 596.124518 120.37304 
L 597.244652 120.37304 
L 597.244652 115.66056 
L 600.605053 115.66056 
L 600.605053 113.30432 
L 600.978431 113.30432 
L 600.978431 108.59184 
L 608.819367 108.59184 
L 608.819367 106.235601 
L 610.312879 106.235601 
L 610.312879 103.879361 
L 611.059635 103.879361 
L 611.059635 101.523121 
L 613.299903 101.523121 
L 613.299903 99.166881 
L 614.793414 99.166881 
L 614.793414 96.810641 
L 615.166792 96.810641 
L 615.166792 94.454401 
L 622.260973 94.454401 
L 622.260973 92.098161 
L 623.381107 92.098161 
L 623.381107 89.741922 
L 624.874618 89.741922 
L 624.874618 87.385682 
L 626.741508 87.385682 
L 626.741508 85.029442 
L 627.488264 85.029442 
L 627.488264 82.673202 
L 627.861642 82.673202 
L 627.861642 80.316962 
L 636.449334 80.316962 
L 636.449334 77.960722 
L 637.942846 77.960722 
L 637.942846 75.604482 
L 638.689601 75.604482 
L 638.689601 73.248243 
L 640.556491 73.248243 
L 640.556491 68.535763 
L 664.826056 68.535763 
L 664.826056 66.179523 
L 668.186457 66.179523 
L 668.186457 63.823283 
L 692.082644 63.823283 
L 692.082644 61.467043 
L 702.163848 61.467043 
L 702.163848 59.110803 
L 709.258029 59.110803 
L 709.258029 56.754564 
L 713.365186 56.754564 
L 713.365186 54.398324 
L 715.605454 54.398324 
L 715.605454 52.042084 
L 730.913948 52.042084 
L 730.913948 49.685844 
L 768.998497 49.685844 
L 768.998497 47.329604 
L 788.414149 47.329604 
L 788.414149 44.973364 
L 810.816824 44.973364 
L 810.816824 42.617124 
L 814.550603 42.617124 
L 814.550603 40.260885 
L 836.953279 40.260885 
L 836.953279 37.904645 
L 875.037827 37.904645 
L 875.037827 35.548405 
L 900.054148 35.548405 
L 900.054148 35.548405 
" clip-path="url(#p45f90274ed)" style="fill: none; stroke: #181485; stroke-width: 2; stroke-linecap: square"/>
   </g>
   <g id="LineCollection_2">
    <path d="M 571.481575 179.279036 
L 571.481575 163.076154 
" clip-path="url(#p45f90274ed)" style="fill: none; stroke: #e64173; stroke-width: 3"/>
   </g>
   <g id="patch_6">
    <path d="M 508.399375 280.517969 
L 508.399375 23.077969 
" style="fill: none; stroke: #314f4f; stroke-width: 0.8; stroke-linejoin: miter; stroke-linecap: square"/>
   </g>
   <g id="patch_7">
    <path d="M 508.399375 280.517969 
L 918.704375 280.517969 
" style="fill: none; stroke: #314f4f; stroke-width: 0.8; stroke-linejoin: miter; stroke-linecap: square"/>
   </g>
   <g id="text_33">
    <!-- n = 100 -->
    <g transform="translate(687.447266 17.077969) scale(0.13 -0.13)">
     <use xlink:href="#DejaVuSans-6e"/>
     <use xlink:href="#DejaVuSans-20" transform="translate(63.378906 0)"/>
     <use xlink:href="#DejaVuSans-3d" transform="translate(95.166016 0)"/>
     <use xlink:href="#DejaVuSans-20" transform="translate(178.955078 0)"/>
     <use xlink:href="#DejaVuSans-31" transform="translate(210.742188 0)"/>
     <use xlink:href="#DejaVuSans-30" transform="translate(274.365234 0)"/>
     <use xlink:href="#DejaVuSans-30" transform="translate(337.988281 0)"/>
    </g>
   </g>
   <g id="legend_2">
    <g id="line2d_56">
     <path d="M 518.299375 37.48625 
L 529.299375 37.48625 
L 540.299375 37.48625 
" style="fill: none; stroke: #ffa500; stroke-width: 2; stroke-linecap: square"/>
    </g>
    <g id="text_34">
     <!-- $F(x)$ -->
     <g transform="translate(549.099375 41.33625) scale(0.11 -0.11)">
      <use xlink:href="#DejaVuSans-Oblique-46" transform="translate(0 0.125)"/>
      <use xlink:href="#DejaVuSans-28" transform="translate(57.519531 0.125)"/>
      <use xlink:href="#DejaVuSans-Oblique-78" transform="translate(96.533203 0.125)"/>
      <use xlink:href="#DejaVuSans-29" transform="translate(155.712891 0.125)"/>
     </g>
    </g>
    <g id="line2d_57">
     <path d="M 518.299375 55.63625 
L 529.299375 55.63625 
L 529.299375 55.63625 
L 540.299375 55.63625 
L 540.299375 55.63625 
" style="fill: none; stroke: #181485; stroke-width: 2; stroke-linecap: square"/>
    </g>
    <g id="text_35">
     <!-- $\widehat{F}_n(x)$ -->
     <g transform="translate(549.099375 59.48625) scale(0.11 -0.11)">
      <use xlink:href="#STIXSizeTwoSym-Regular-302" transform="translate(74.942383 52.15625) scale(0.587496)"/>
      <use xlink:href="#DejaVuSans-Oblique-46" transform="translate(0 0.03125)"/>
      <use xlink:href="#DejaVuSans-Oblique-6e" transform="translate(58.476562 -16.375) scale(0.7)"/>
      <use xlink:href="#DejaVuSans-28" transform="translate(105.576172 0.03125)"/>
      <use xlink:href="#DejaVuSans-Oblique-78" transform="translate(144.589844 0.03125)"/>
      <use xlink:href="#DejaVuSans-29" transform="translate(203.769531 0.03125)"/>
     </g>
    </g>
    <g id="line2d_58">
     <path d="M 518.299375 71.782187 
L 540.299375 71.782187 
" style="fill: none; stroke: #e64173; stroke-width: 3"/>
    </g>
    <g id="text_36">
     <!-- $D_n$ -->
     <g transform="translate(549.099375 75.632187) scale(0.11 -0.11)">
      <use xlink:href="#DejaVuSans-Oblique-44" transform="translate(0 0.09375)"/>
      <use xlink:href="#DejaVuSans-Oblique-6e" transform="translate(77.001953 -16.3125) scale(0.7)"/>
     </g>
    </g>
   </g>
  </g>
 </g>
 <defs>
  <clipPath id="p123ff26d1e">
   <rect x="46.339375" y="23.077969" width="410.305" height="257.44"/>
  </clipPath>
  <clipPath id="p45f90274ed">
   <rect x="508.399375" y="23.077969" width="410.305" height="257.44"/>
  </clipPath>
 </defs>
</svg>
