<?xml version="1.0" encoding="utf-8" standalone="no"?>
<!DOCTYPE svg PUBLIC "-//W3C//DTD SVG 1.1//EN"
  "http://www.w3.org/Graphics/SVG/1.1/DTD/svg11.dtd">
<svg xmlns:xlink="http://www.w3.org/1999/xlink" width="781.904375pt" height="305.609844pt" viewBox="0 0 781.904375 305.609844" xmlns="http://www.w3.org/2000/svg" version="1.1">
 <metadata>
  <rdf:RDF xmlns:dc="http://purl.org/dc/elements/1.1/" xmlns:cc="http://creativecommons.org/ns#" xmlns:rdf="http://www.w3.org/1999/02/22-rdf-syntax-ns#">
   <cc:Work>
    <dc:type rdf:resource="http://purl.org/dc/dcmitype/StillImage"/>
    <dc:date>2026-06-15T17:28:27.288270</dc:date>
    <dc:format>image/svg+xml</dc:format>
    <dc:creator>
     <cc:Agent>
      <dc:title>Matplotlib v3.10.8, https://matplotlib.org/</dc:title>
     </cc:Agent>
    </dc:creator>
   </cc:Work>
  </rdf:RDF>
 </metadata>
 <defs>
  <style type="text/css">*{stroke-linejoin: round; stroke-linecap: butt}</style>
 </defs>
 <g id="figure_1">
  <g id="patch_1">
   <path d="M 0 305.609844 
L 781.904375 305.609844 
L 781.904375 0 
L 0 0 
z
" style="fill: #ffffff"/>
  </g>
  <g id="axes_1">
   <g id="patch_2">
    <path d="M 46.339375 266.117969 
L 774.704375 266.117969 
L 774.704375 23.077969 
L 46.339375 23.077969 
z
" style="fill: #ffffff"/>
   </g>
   <g id="matplotlib.axis_1">
    <g id="xtick_1">
     <g id="line2d_1">
      <path d="M 79.446875 266.117969 
L 79.446875 23.077969 
" clip-path="url(#pe7aceec7ab)" style="fill: none; stroke: #dddddd; stroke-opacity: 0.6; stroke-width: 0.8; stroke-linecap: square"/>
     </g>
     <g id="line2d_2">
      <defs>
       <path id="me9e0b69730" d="M 0 0 
L 0 3.5 
" style="stroke: #314f4f; stroke-width: 0.8"/>
      </defs>
      <g>
       <use xlink:href="#me9e0b69730" x="79.446875" y="266.117969" style="fill: #314f4f; stroke: #314f4f; stroke-width: 0.8"/>
      </g>
     </g>
     <g id="text_1">
      <!-- −15 -->
      <g style="fill: #314f4f" transform="translate(67.839297 281.47625) scale(0.11 -0.11)">
       <defs>
        <path id="DejaVuSans-2212" d="M 678 2272 
L 4684 2272 
L 4684 1741 
L 678 1741 
L 678 2272 
z
" transform="scale(0.015625)"/>
        <path id="DejaVuSans-31" d="M 794 531 
L 1825 531 
L 1825 4091 
L 703 3866 
L 703 4441 
L 1819 4666 
L 2450 4666 
L 2450 531 
L 3481 531 
L 3481 0 
L 794 0 
L 794 531 
z
" transform="scale(0.015625)"/>
        <path id="DejaVuSans-35" d="M 691 4666 
L 3169 4666 
L 3169 4134 
L 1269 4134 
L 1269 2991 
Q 1406 3038 1543 3061 
Q 1681 3084 1819 3084 
Q 2600 3084 3056 2656 
Q 3513 2228 3513 1497 
Q 3513 744 3044 326 
Q 2575 -91 1722 -91 
Q 1428 -91 1123 -41 
Q 819 9 494 109 
L 494 744 
Q 775 591 1075 516 
Q 1375 441 1709 441 
Q 2250 441 2565 725 
Q 2881 1009 2881 1497 
Q 2881 1984 2565 2268 
Q 2250 2553 1709 2553 
Q 1456 2553 1204 2497 
Q 953 2441 691 2322 
L 691 4666 
z
" transform="scale(0.015625)"/>
       </defs>
       <use xlink:href="#DejaVuSans-2212"/>
       <use xlink:href="#DejaVuSans-31" transform="translate(83.789062 0)"/>
       <use xlink:href="#DejaVuSans-35" transform="translate(147.412109 0)"/>
      </g>
     </g>
    </g>
    <g id="xtick_2">
     <g id="line2d_3">
      <path d="M 189.805208 266.117969 
L 189.805208 23.077969 
" clip-path="url(#pe7aceec7ab)" style="fill: none; stroke: #dddddd; stroke-opacity: 0.6; stroke-width: 0.8; stroke-linecap: square"/>
     </g>
     <g id="line2d_4">
      <g>
       <use xlink:href="#me9e0b69730" x="189.805208" y="266.117969" style="fill: #314f4f; stroke: #314f4f; stroke-width: 0.8"/>
      </g>
     </g>
     <g id="text_2">
      <!-- −10 -->
      <g style="fill: #314f4f" transform="translate(178.19763 281.47625) scale(0.11 -0.11)">
       <defs>
        <path id="DejaVuSans-30" d="M 2034 4250 
Q 1547 4250 1301 3770 
Q 1056 3291 1056 2328 
Q 1056 1369 1301 889 
Q 1547 409 2034 409 
Q 2525 409 2770 889 
Q 3016 1369 3016 2328 
Q 3016 3291 2770 3770 
Q 2525 4250 2034 4250 
z
M 2034 4750 
Q 2819 4750 3233 4129 
Q 3647 3509 3647 2328 
Q 3647 1150 3233 529 
Q 2819 -91 2034 -91 
Q 1250 -91 836 529 
Q 422 1150 422 2328 
Q 422 3509 836 4129 
Q 1250 4750 2034 4750 
z
" transform="scale(0.015625)"/>
       </defs>
       <use xlink:href="#DejaVuSans-2212"/>
       <use xlink:href="#DejaVuSans-31" transform="translate(83.789062 0)"/>
       <use xlink:href="#DejaVuSans-30" transform="translate(147.412109 0)"/>
      </g>
     </g>
    </g>
    <g id="xtick_3">
     <g id="line2d_5">
      <path d="M 300.163542 266.117969 
L 300.163542 23.077969 
" clip-path="url(#pe7aceec7ab)" style="fill: none; stroke: #dddddd; stroke-opacity: 0.6; stroke-width: 0.8; stroke-linecap: square"/>
     </g>
     <g id="line2d_6">
      <g>
       <use xlink:href="#me9e0b69730" x="300.163542" y="266.117969" style="fill: #314f4f; stroke: #314f4f; stroke-width: 0.8"/>
      </g>
     </g>
     <g id="text_3">
      <!-- −5 -->
      <g style="fill: #314f4f" transform="translate(292.055339 281.47625) scale(0.11 -0.11)">
       <use xlink:href="#DejaVuSans-2212"/>
       <use xlink:href="#DejaVuSans-35" transform="translate(83.789062 0)"/>
      </g>
     </g>
    </g>
    <g id="xtick_4">
     <g id="line2d_7">
      <path d="M 410.521875 266.117969 
L 410.521875 23.077969 
" clip-path="url(#pe7aceec7ab)" style="fill: none; stroke: #dddddd; stroke-opacity: 0.6; stroke-width: 0.8; stroke-linecap: square"/>
     </g>
     <g id="line2d_8">
      <g>
       <use xlink:href="#me9e0b69730" x="410.521875" y="266.117969" style="fill: #314f4f; stroke: #314f4f; stroke-width: 0.8"/>
      </g>
     </g>
     <g id="text_4">
      <!-- 0 -->
      <g style="fill: #314f4f" transform="translate(407.0225 281.47625) scale(0.11 -0.11)">
       <use xlink:href="#DejaVuSans-30"/>
      </g>
     </g>
    </g>
    <g id="xtick_5">
     <g id="line2d_9">
      <path d="M 520.880208 266.117969 
L 520.880208 23.077969 
" clip-path="url(#pe7aceec7ab)" style="fill: none; stroke: #dddddd; stroke-opacity: 0.6; stroke-width: 0.8; stroke-linecap: square"/>
     </g>
     <g id="line2d_10">
      <g>
       <use xlink:href="#me9e0b69730" x="520.880208" y="266.117969" style="fill: #314f4f; stroke: #314f4f; stroke-width: 0.8"/>
      </g>
     </g>
     <g id="text_5">
      <!-- 5 -->
      <g style="fill: #314f4f" transform="translate(517.380833 281.47625) scale(0.11 -0.11)">
       <use xlink:href="#DejaVuSans-35"/>
      </g>
     </g>
    </g>
    <g id="xtick_6">
     <g id="line2d_11">
      <path d="M 631.238542 266.117969 
L 631.238542 23.077969 
" clip-path="url(#pe7aceec7ab)" style="fill: none; stroke: #dddddd; stroke-opacity: 0.6; stroke-width: 0.8; stroke-linecap: square"/>
     </g>
     <g id="line2d_12">
      <g>
       <use xlink:href="#me9e0b69730" x="631.238542" y="266.117969" style="fill: #314f4f; stroke: #314f4f; stroke-width: 0.8"/>
      </g>
     </g>
     <g id="text_6">
      <!-- 10 -->
      <g style="fill: #314f4f" transform="translate(624.239792 281.47625) scale(0.11 -0.11)">
       <use xlink:href="#DejaVuSans-31"/>
       <use xlink:href="#DejaVuSans-30" transform="translate(63.623047 0)"/>
      </g>
     </g>
    </g>
    <g id="xtick_7">
     <g id="line2d_13">
      <path d="M 741.596875 266.117969 
L 741.596875 23.077969 
" clip-path="url(#pe7aceec7ab)" style="fill: none; stroke: #dddddd; stroke-opacity: 0.6; stroke-width: 0.8; stroke-linecap: square"/>
     </g>
     <g id="line2d_14">
      <g>
       <use xlink:href="#me9e0b69730" x="741.596875" y="266.117969" style="fill: #314f4f; stroke: #314f4f; stroke-width: 0.8"/>
      </g>
     </g>
     <g id="text_7">
      <!-- 15 -->
      <g style="fill: #314f4f" transform="translate(734.598125 281.47625) scale(0.11 -0.11)">
       <use xlink:href="#DejaVuSans-31"/>
       <use xlink:href="#DejaVuSans-35" transform="translate(63.623047 0)"/>
      </g>
     </g>
    </g>
    <g id="text_8">
     <!-- x -->
     <g style="fill: #314f4f" transform="translate(407.266562 296.122187) scale(0.11 -0.11)">
      <defs>
       <path id="DejaVuSans-78" d="M 3513 3500 
L 2247 1797 
L 3578 0 
L 2900 0 
L 1881 1375 
L 863 0 
L 184 0 
L 1544 1831 
L 300 3500 
L 978 3500 
L 1906 2253 
L 2834 3500 
L 3513 3500 
z
" transform="scale(0.015625)"/>
      </defs>
      <use xlink:href="#DejaVuSans-78"/>
     </g>
    </g>
   </g>
   <g id="matplotlib.axis_2">
    <g id="ytick_1">
     <g id="line2d_15">
      <path d="M 46.339375 255.070696 
L 774.704375 255.070696 
" clip-path="url(#pe7aceec7ab)" style="fill: none; stroke: #dddddd; stroke-opacity: 0.6; stroke-width: 0.8; stroke-linecap: square"/>
     </g>
     <g id="line2d_16">
      <defs>
       <path id="me34f5032be" d="M 0 0 
L -3.5 0 
" style="stroke: #314f4f; stroke-width: 0.8"/>
      </defs>
      <g>
       <use xlink:href="#me34f5032be" x="46.339375" y="255.070696" style="fill: #314f4f; stroke: #314f4f; stroke-width: 0.8"/>
      </g>
     </g>
     <g id="text_9">
      <!-- 0.0 -->
      <g style="fill: #314f4f" transform="translate(21.845938 259.249837) scale(0.11 -0.11)">
       <defs>
        <path id="DejaVuSans-2e" d="M 684 794 
L 1344 794 
L 1344 0 
L 684 0 
L 684 794 
z
" transform="scale(0.015625)"/>
       </defs>
       <use xlink:href="#DejaVuSans-30"/>
       <use xlink:href="#DejaVuSans-2e" transform="translate(63.623047 0)"/>
       <use xlink:href="#DejaVuSans-30" transform="translate(95.410156 0)"/>
      </g>
     </g>
    </g>
    <g id="ytick_2">
     <g id="line2d_17">
      <path d="M 46.339375 210.881605 
L 774.704375 210.881605 
" clip-path="url(#pe7aceec7ab)" style="fill: none; stroke: #dddddd; stroke-opacity: 0.6; stroke-width: 0.8; stroke-linecap: square"/>
     </g>
     <g id="line2d_18">
      <g>
       <use xlink:href="#me34f5032be" x="46.339375" y="210.881605" style="fill: #314f4f; stroke: #314f4f; stroke-width: 0.8"/>
      </g>
     </g>
     <g id="text_10">
      <!-- 0.2 -->
      <g style="fill: #314f4f" transform="translate(21.845938 215.060746) scale(0.11 -0.11)">
       <defs>
        <path id="DejaVuSans-32" d="M 1228 531 
L 3431 531 
L 3431 0 
L 469 0 
L 469 531 
Q 828 903 1448 1529 
Q 2069 2156 2228 2338 
Q 2531 2678 2651 2914 
Q 2772 3150 2772 3378 
Q 2772 3750 2511 3984 
Q 2250 4219 1831 4219 
Q 1534 4219 1204 4116 
Q 875 4013 500 3803 
L 500 4441 
Q 881 4594 1212 4672 
Q 1544 4750 1819 4750 
Q 2544 4750 2975 4387 
Q 3406 4025 3406 3419 
Q 3406 3131 3298 2873 
Q 3191 2616 2906 2266 
Q 2828 2175 2409 1742 
Q 1991 1309 1228 531 
z
" transform="scale(0.015625)"/>
       </defs>
       <use xlink:href="#DejaVuSans-30"/>
       <use xlink:href="#DejaVuSans-2e" transform="translate(63.623047 0)"/>
       <use xlink:href="#DejaVuSans-32" transform="translate(95.410156 0)"/>
      </g>
     </g>
    </g>
    <g id="ytick_3">
     <g id="line2d_19">
      <path d="M 46.339375 166.692514 
L 774.704375 166.692514 
" clip-path="url(#pe7aceec7ab)" style="fill: none; stroke: #dddddd; stroke-opacity: 0.6; stroke-width: 0.8; stroke-linecap: square"/>
     </g>
     <g id="line2d_20">
      <g>
       <use xlink:href="#me34f5032be" x="46.339375" y="166.692514" style="fill: #314f4f; stroke: #314f4f; stroke-width: 0.8"/>
      </g>
     </g>
     <g id="text_11">
      <!-- 0.4 -->
      <g style="fill: #314f4f" transform="translate(21.845938 170.871655) scale(0.11 -0.11)">
       <defs>
        <path id="DejaVuSans-34" d="M 2419 4116 
L 825 1625 
L 2419 1625 
L 2419 4116 
z
M 2253 4666 
L 3047 4666 
L 3047 1625 
L 3713 1625 
L 3713 1100 
L 3047 1100 
L 3047 0 
L 2419 0 
L 2419 1100 
L 313 1100 
L 313 1709 
L 2253 4666 
z
" transform="scale(0.015625)"/>
       </defs>
       <use xlink:href="#DejaVuSans-30"/>
       <use xlink:href="#DejaVuSans-2e" transform="translate(63.623047 0)"/>
       <use xlink:href="#DejaVuSans-34" transform="translate(95.410156 0)"/>
      </g>
     </g>
    </g>
    <g id="ytick_4">
     <g id="line2d_21">
      <path d="M 46.339375 122.503423 
L 774.704375 122.503423 
" clip-path="url(#pe7aceec7ab)" style="fill: none; stroke: #dddddd; stroke-opacity: 0.6; stroke-width: 0.8; stroke-linecap: square"/>
     </g>
     <g id="line2d_22">
      <g>
       <use xlink:href="#me34f5032be" x="46.339375" y="122.503423" style="fill: #314f4f; stroke: #314f4f; stroke-width: 0.8"/>
      </g>
     </g>
     <g id="text_12">
      <!-- 0.6 -->
      <g style="fill: #314f4f" transform="translate(21.845938 126.682564) scale(0.11 -0.11)">
       <defs>
        <path id="DejaVuSans-36" d="M 2113 2584 
Q 1688 2584 1439 2293 
Q 1191 2003 1191 1497 
Q 1191 994 1439 701 
Q 1688 409 2113 409 
Q 2538 409 2786 701 
Q 3034 994 3034 1497 
Q 3034 2003 2786 2293 
Q 2538 2584 2113 2584 
z
M 3366 4563 
L 3366 3988 
Q 3128 4100 2886 4159 
Q 2644 4219 2406 4219 
Q 1781 4219 1451 3797 
Q 1122 3375 1075 2522 
Q 1259 2794 1537 2939 
Q 1816 3084 2150 3084 
Q 2853 3084 3261 2657 
Q 3669 2231 3669 1497 
Q 3669 778 3244 343 
Q 2819 -91 2113 -91 
Q 1303 -91 875 529 
Q 447 1150 447 2328 
Q 447 3434 972 4092 
Q 1497 4750 2381 4750 
Q 2619 4750 2861 4703 
Q 3103 4656 3366 4563 
z
" transform="scale(0.015625)"/>
       </defs>
       <use xlink:href="#DejaVuSans-30"/>
       <use xlink:href="#DejaVuSans-2e" transform="translate(63.623047 0)"/>
       <use xlink:href="#DejaVuSans-36" transform="translate(95.410156 0)"/>
      </g>
     </g>
    </g>
    <g id="ytick_5">
     <g id="line2d_23">
      <path d="M 46.339375 78.314332 
L 774.704375 78.314332 
" clip-path="url(#pe7aceec7ab)" style="fill: none; stroke: #dddddd; stroke-opacity: 0.6; stroke-width: 0.8; stroke-linecap: square"/>
     </g>
     <g id="line2d_24">
      <g>
       <use xlink:href="#me34f5032be" x="46.339375" y="78.314332" style="fill: #314f4f; stroke: #314f4f; stroke-width: 0.8"/>
      </g>
     </g>
     <g id="text_13">
      <!-- 0.8 -->
      <g style="fill: #314f4f" transform="translate(21.845938 82.493473) scale(0.11 -0.11)">
       <defs>
        <path id="DejaVuSans-38" d="M 2034 2216 
Q 1584 2216 1326 1975 
Q 1069 1734 1069 1313 
Q 1069 891 1326 650 
Q 1584 409 2034 409 
Q 2484 409 2743 651 
Q 3003 894 3003 1313 
Q 3003 1734 2745 1975 
Q 2488 2216 2034 2216 
z
M 1403 2484 
Q 997 2584 770 2862 
Q 544 3141 544 3541 
Q 544 4100 942 4425 
Q 1341 4750 2034 4750 
Q 2731 4750 3128 4425 
Q 3525 4100 3525 3541 
Q 3525 3141 3298 2862 
Q 3072 2584 2669 2484 
Q 3125 2378 3379 2068 
Q 3634 1759 3634 1313 
Q 3634 634 3220 271 
Q 2806 -91 2034 -91 
Q 1263 -91 848 271 
Q 434 634 434 1313 
Q 434 1759 690 2068 
Q 947 2378 1403 2484 
z
M 1172 3481 
Q 1172 3119 1398 2916 
Q 1625 2713 2034 2713 
Q 2441 2713 2670 2916 
Q 2900 3119 2900 3481 
Q 2900 3844 2670 4047 
Q 2441 4250 2034 4250 
Q 1625 4250 1398 4047 
Q 1172 3844 1172 3481 
z
" transform="scale(0.015625)"/>
       </defs>
       <use xlink:href="#DejaVuSans-30"/>
       <use xlink:href="#DejaVuSans-2e" transform="translate(63.623047 0)"/>
       <use xlink:href="#DejaVuSans-38" transform="translate(95.410156 0)"/>
      </g>
     </g>
    </g>
    <g id="ytick_6">
     <g id="line2d_25">
      <path d="M 46.339375 34.125241 
L 774.704375 34.125241 
" clip-path="url(#pe7aceec7ab)" style="fill: none; stroke: #dddddd; stroke-opacity: 0.6; stroke-width: 0.8; stroke-linecap: square"/>
     </g>
     <g id="line2d_26">
      <g>
       <use xlink:href="#me34f5032be" x="46.339375" y="34.125241" style="fill: #314f4f; stroke: #314f4f; stroke-width: 0.8"/>
      </g>
     </g>
     <g id="text_14">
      <!-- 1.0 -->
      <g style="fill: #314f4f" transform="translate(21.845938 38.304382) scale(0.11 -0.11)">
       <use xlink:href="#DejaVuSans-31"/>
       <use xlink:href="#DejaVuSans-2e" transform="translate(63.623047 0)"/>
       <use xlink:href="#DejaVuSans-30" transform="translate(95.410156 0)"/>
      </g>
     </g>
    </g>
    <g id="text_15">
     <!-- Cumulative probability -->
     <g style="fill: #314f4f" transform="translate(15.558281 207.080547) rotate(-90) scale(0.11 -0.11)">
      <defs>
       <path id="DejaVuSans-43" d="M 4122 4306 
L 4122 3641 
Q 3803 3938 3442 4084 
Q 3081 4231 2675 4231 
Q 1875 4231 1450 3742 
Q 1025 3253 1025 2328 
Q 1025 1406 1450 917 
Q 1875 428 2675 428 
Q 3081 428 3442 575 
Q 3803 722 4122 1019 
L 4122 359 
Q 3791 134 3420 21 
Q 3050 -91 2638 -91 
Q 1578 -91 968 557 
Q 359 1206 359 2328 
Q 359 3453 968 4101 
Q 1578 4750 2638 4750 
Q 3056 4750 3426 4639 
Q 3797 4528 4122 4306 
z
" transform="scale(0.015625)"/>
       <path id="DejaVuSans-75" d="M 544 1381 
L 544 3500 
L 1119 3500 
L 1119 1403 
Q 1119 906 1312 657 
Q 1506 409 1894 409 
Q 2359 409 2629 706 
Q 2900 1003 2900 1516 
L 2900 3500 
L 3475 3500 
L 3475 0 
L 2900 0 
L 2900 538 
Q 2691 219 2414 64 
Q 2138 -91 1772 -91 
Q 1169 -91 856 284 
Q 544 659 544 1381 
z
M 1991 3584 
L 1991 3584 
z
" transform="scale(0.015625)"/>
       <path id="DejaVuSans-6d" d="M 3328 2828 
Q 3544 3216 3844 3400 
Q 4144 3584 4550 3584 
Q 5097 3584 5394 3201 
Q 5691 2819 5691 2113 
L 5691 0 
L 5113 0 
L 5113 2094 
Q 5113 2597 4934 2840 
Q 4756 3084 4391 3084 
Q 3944 3084 3684 2787 
Q 3425 2491 3425 1978 
L 3425 0 
L 2847 0 
L 2847 2094 
Q 2847 2600 2669 2842 
Q 2491 3084 2119 3084 
Q 1678 3084 1418 2786 
Q 1159 2488 1159 1978 
L 1159 0 
L 581 0 
L 581 3500 
L 1159 3500 
L 1159 2956 
Q 1356 3278 1631 3431 
Q 1906 3584 2284 3584 
Q 2666 3584 2933 3390 
Q 3200 3197 3328 2828 
z
" transform="scale(0.015625)"/>
       <path id="DejaVuSans-6c" d="M 603 4863 
L 1178 4863 
L 1178 0 
L 603 0 
L 603 4863 
z
" transform="scale(0.015625)"/>
       <path id="DejaVuSans-61" d="M 2194 1759 
Q 1497 1759 1228 1600 
Q 959 1441 959 1056 
Q 959 750 1161 570 
Q 1363 391 1709 391 
Q 2188 391 2477 730 
Q 2766 1069 2766 1631 
L 2766 1759 
L 2194 1759 
z
M 3341 1997 
L 3341 0 
L 2766 0 
L 2766 531 
Q 2569 213 2275 61 
Q 1981 -91 1556 -91 
Q 1019 -91 701 211 
Q 384 513 384 1019 
Q 384 1609 779 1909 
Q 1175 2209 1959 2209 
L 2766 2209 
L 2766 2266 
Q 2766 2663 2505 2880 
Q 2244 3097 1772 3097 
Q 1472 3097 1187 3025 
Q 903 2953 641 2809 
L 641 3341 
Q 956 3463 1253 3523 
Q 1550 3584 1831 3584 
Q 2591 3584 2966 3190 
Q 3341 2797 3341 1997 
z
" transform="scale(0.015625)"/>
       <path id="DejaVuSans-74" d="M 1172 4494 
L 1172 3500 
L 2356 3500 
L 2356 3053 
L 1172 3053 
L 1172 1153 
Q 1172 725 1289 603 
Q 1406 481 1766 481 
L 2356 481 
L 2356 0 
L 1766 0 
Q 1100 0 847 248 
Q 594 497 594 1153 
L 594 3053 
L 172 3053 
L 172 3500 
L 594 3500 
L 594 4494 
L 1172 4494 
z
" transform="scale(0.015625)"/>
       <path id="DejaVuSans-69" d="M 603 3500 
L 1178 3500 
L 1178 0 
L 603 0 
L 603 3500 
z
M 603 4863 
L 1178 4863 
L 1178 4134 
L 603 4134 
L 603 4863 
z
" transform="scale(0.015625)"/>
       <path id="DejaVuSans-76" d="M 191 3500 
L 800 3500 
L 1894 563 
L 2988 3500 
L 3597 3500 
L 2284 0 
L 1503 0 
L 191 3500 
z
" transform="scale(0.015625)"/>
       <path id="DejaVuSans-65" d="M 3597 1894 
L 3597 1613 
L 953 1613 
Q 991 1019 1311 708 
Q 1631 397 2203 397 
Q 2534 397 2845 478 
Q 3156 559 3463 722 
L 3463 178 
Q 3153 47 2828 -22 
Q 2503 -91 2169 -91 
Q 1331 -91 842 396 
Q 353 884 353 1716 
Q 353 2575 817 3079 
Q 1281 3584 2069 3584 
Q 2775 3584 3186 3129 
Q 3597 2675 3597 1894 
z
M 3022 2063 
Q 3016 2534 2758 2815 
Q 2500 3097 2075 3097 
Q 1594 3097 1305 2825 
Q 1016 2553 972 2059 
L 3022 2063 
z
" transform="scale(0.015625)"/>
       <path id="DejaVuSans-20" transform="scale(0.015625)"/>
       <path id="DejaVuSans-70" d="M 1159 525 
L 1159 -1331 
L 581 -1331 
L 581 3500 
L 1159 3500 
L 1159 2969 
Q 1341 3281 1617 3432 
Q 1894 3584 2278 3584 
Q 2916 3584 3314 3078 
Q 3713 2572 3713 1747 
Q 3713 922 3314 415 
Q 2916 -91 2278 -91 
Q 1894 -91 1617 61 
Q 1341 213 1159 525 
z
M 3116 1747 
Q 3116 2381 2855 2742 
Q 2594 3103 2138 3103 
Q 1681 3103 1420 2742 
Q 1159 2381 1159 1747 
Q 1159 1113 1420 752 
Q 1681 391 2138 391 
Q 2594 391 2855 752 
Q 3116 1113 3116 1747 
z
" transform="scale(0.015625)"/>
       <path id="DejaVuSans-72" d="M 2631 2963 
Q 2534 3019 2420 3045 
Q 2306 3072 2169 3072 
Q 1681 3072 1420 2755 
Q 1159 2438 1159 1844 
L 1159 0 
L 581 0 
L 581 3500 
L 1159 3500 
L 1159 2956 
Q 1341 3275 1631 3429 
Q 1922 3584 2338 3584 
Q 2397 3584 2469 3576 
Q 2541 3569 2628 3553 
L 2631 2963 
z
" transform="scale(0.015625)"/>
       <path id="DejaVuSans-6f" d="M 1959 3097 
Q 1497 3097 1228 2736 
Q 959 2375 959 1747 
Q 959 1119 1226 758 
Q 1494 397 1959 397 
Q 2419 397 2687 759 
Q 2956 1122 2956 1747 
Q 2956 2369 2687 2733 
Q 2419 3097 1959 3097 
z
M 1959 3584 
Q 2709 3584 3137 3096 
Q 3566 2609 3566 1747 
Q 3566 888 3137 398 
Q 2709 -91 1959 -91 
Q 1206 -91 779 398 
Q 353 888 353 1747 
Q 353 2609 779 3096 
Q 1206 3584 1959 3584 
z
" transform="scale(0.015625)"/>
       <path id="DejaVuSans-62" d="M 3116 1747 
Q 3116 2381 2855 2742 
Q 2594 3103 2138 3103 
Q 1681 3103 1420 2742 
Q 1159 2381 1159 1747 
Q 1159 1113 1420 752 
Q 1681 391 2138 391 
Q 2594 391 2855 752 
Q 3116 1113 3116 1747 
z
M 1159 2969 
Q 1341 3281 1617 3432 
Q 1894 3584 2278 3584 
Q 2916 3584 3314 3078 
Q 3713 2572 3713 1747 
Q 3713 922 3314 415 
Q 2916 -91 2278 -91 
Q 1894 -91 1617 61 
Q 1341 213 1159 525 
L 1159 0 
L 581 0 
L 581 4863 
L 1159 4863 
L 1159 2969 
z
" transform="scale(0.015625)"/>
       <path id="DejaVuSans-79" d="M 2059 -325 
Q 1816 -950 1584 -1140 
Q 1353 -1331 966 -1331 
L 506 -1331 
L 506 -850 
L 844 -850 
Q 1081 -850 1212 -737 
Q 1344 -625 1503 -206 
L 1606 56 
L 191 3500 
L 800 3500 
L 1894 763 
L 2988 3500 
L 3597 3500 
L 2059 -325 
z
" transform="scale(0.015625)"/>
      </defs>
      <use xlink:href="#DejaVuSans-43"/>
      <use xlink:href="#DejaVuSans-75" transform="translate(69.824219 0)"/>
      <use xlink:href="#DejaVuSans-6d" transform="translate(133.203125 0)"/>
      <use xlink:href="#DejaVuSans-75" transform="translate(230.615234 0)"/>
      <use xlink:href="#DejaVuSans-6c" transform="translate(293.994141 0)"/>
      <use xlink:href="#DejaVuSans-61" transform="translate(321.777344 0)"/>
      <use xlink:href="#DejaVuSans-74" transform="translate(383.056641 0)"/>
      <use xlink:href="#DejaVuSans-69" transform="translate(422.265625 0)"/>
      <use xlink:href="#DejaVuSans-76" transform="translate(450.048828 0)"/>
      <use xlink:href="#DejaVuSans-65" transform="translate(509.228516 0)"/>
      <use xlink:href="#DejaVuSans-20" transform="translate(570.751953 0)"/>
      <use xlink:href="#DejaVuSans-70" transform="translate(602.539062 0)"/>
      <use xlink:href="#DejaVuSans-72" transform="translate(666.015625 0)"/>
      <use xlink:href="#DejaVuSans-6f" transform="translate(704.878906 0)"/>
      <use xlink:href="#DejaVuSans-62" transform="translate(766.060547 0)"/>
      <use xlink:href="#DejaVuSans-61" transform="translate(829.537109 0)"/>
      <use xlink:href="#DejaVuSans-62" transform="translate(890.816406 0)"/>
      <use xlink:href="#DejaVuSans-69" transform="translate(954.292969 0)"/>
      <use xlink:href="#DejaVuSans-6c" transform="translate(982.076172 0)"/>
      <use xlink:href="#DejaVuSans-69" transform="translate(1009.859375 0)"/>
      <use xlink:href="#DejaVuSans-74" transform="translate(1037.642578 0)"/>
      <use xlink:href="#DejaVuSans-79" transform="translate(1076.851562 0)"/>
     </g>
    </g>
   </g>
   <g id="line2d_27">
    <path d="M 79.446875 255.070696 
L 99.331259 255.070696 
L 99.331259 254.702454 
L 100.656885 254.702454 
L 100.656885 254.334211 
L 115.238767 254.334211 
L 115.238767 253.965969 
L 127.169398 253.965969 
L 127.169398 253.597726 
L 144.402531 253.597726 
L 144.402531 253.229484 
L 150.367846 253.229484 
L 150.367846 252.861241 
L 160.972851 252.861241 
L 160.972851 252.492999 
L 164.949728 252.492999 
L 164.949728 252.124757 
L 167.600979 252.124757 
L 167.600979 251.756514 
L 171.577856 251.756514 
L 171.577856 251.388272 
L 172.903482 251.388272 
L 172.903482 250.651787 
L 180.857235 250.651787 
L 180.857235 250.283545 
L 182.845674 250.283545 
L 182.845674 249.915302 
L 190.799428 249.915302 
L 190.799428 249.54706 
L 194.113492 249.54706 
L 194.113492 249.178817 
L 194.776304 249.178817 
L 194.776304 248.442332 
L 195.439117 248.442332 
L 195.439117 248.07409 
L 196.10193 248.07409 
L 196.10193 247.705848 
L 196.764743 247.705848 
L 196.764743 247.337605 
L 198.753181 247.337605 
L 198.753181 246.969363 
L 210.020999 246.969363 
L 210.020999 246.60112 
L 210.683812 246.60112 
L 210.683812 246.232878 
L 217.974753 246.232878 
L 217.974753 245.864635 
L 219.300379 245.864635 
L 219.300379 245.496393 
L 221.95163 245.496393 
L 221.95163 245.128151 
L 225.928507 245.128151 
L 225.928507 244.759908 
L 227.916945 244.759908 
L 227.916945 244.391666 
L 228.579758 244.391666 
L 228.579758 244.023423 
L 229.242571 244.023423 
L 229.242571 243.655181 
L 231.231009 243.655181 
L 231.231009 243.286938 
L 235.870699 243.286938 
L 235.870699 242.918696 
L 236.533512 242.918696 
L 236.533512 242.550454 
L 237.196324 242.550454 
L 237.196324 242.182211 
L 238.52195 242.182211 
L 238.52195 241.813969 
L 239.184763 241.813969 
L 239.184763 241.445726 
L 240.510389 241.445726 
L 240.510389 241.077484 
L 241.836014 241.077484 
L 241.836014 240.709241 
L 245.812891 240.709241 
L 245.812891 240.340999 
L 248.464142 240.340999 
L 248.464142 239.972757 
L 249.789768 239.972757 
L 249.789768 239.604514 
L 253.103832 239.604514 
L 253.103832 239.236272 
L 253.766645 239.236272 
L 253.766645 238.868029 
L 254.429458 238.868029 
L 254.429458 238.499787 
L 255.09227 238.499787 
L 255.09227 238.131545 
L 257.080709 238.131545 
L 257.080709 237.763302 
L 257.743522 237.763302 
L 257.743522 237.39506 
L 258.406334 237.39506 
L 258.406334 237.026817 
L 259.069147 237.026817 
L 259.069147 236.658575 
L 259.73196 236.658575 
L 259.73196 235.92209 
L 260.394773 235.92209 
L 260.394773 235.553848 
L 262.383211 235.553848 
L 262.383211 235.185605 
L 263.046024 235.185605 
L 263.046024 234.817363 
L 263.708837 234.817363 
L 263.708837 234.44912 
L 265.697275 234.44912 
L 265.697275 233.712635 
L 267.022901 233.712635 
L 267.022901 233.344393 
L 267.685714 233.344393 
L 267.685714 232.976151 
L 268.348527 232.976151 
L 268.348527 232.607908 
L 270.336965 232.607908 
L 270.336965 232.239666 
L 270.999778 232.239666 
L 270.999778 231.871423 
L 271.662591 231.871423 
L 271.662591 231.503181 
L 275.639468 231.503181 
L 275.639468 231.134938 
L 276.965093 231.134938 
L 276.965093 230.766696 
L 278.290719 230.766696 
L 278.290719 230.398454 
L 278.953532 230.398454 
L 278.953532 230.030211 
L 279.616344 230.030211 
L 279.616344 229.661969 
L 280.279157 229.661969 
L 280.279157 228.925484 
L 280.94197 228.925484 
L 280.94197 228.188999 
L 281.604783 228.188999 
L 281.604783 227.452514 
L 282.930409 227.452514 
L 282.930409 227.084272 
L 283.593221 227.084272 
L 283.593221 226.716029 
L 286.907285 226.716029 
L 286.907285 226.347787 
L 288.232911 226.347787 
L 288.232911 225.979545 
L 289.558537 225.979545 
L 289.558537 225.611302 
L 290.221349 225.611302 
L 290.221349 224.506575 
L 291.546975 224.506575 
L 291.546975 224.138332 
L 292.872601 224.138332 
L 292.872601 223.77009 
L 294.198226 223.77009 
L 294.198226 223.033605 
L 295.523852 223.033605 
L 295.523852 222.29712 
L 296.186665 222.29712 
L 296.186665 221.928878 
L 298.837916 221.928878 
L 298.837916 221.192393 
L 300.163542 221.192393 
L 300.163542 220.824151 
L 300.826354 220.824151 
L 300.826354 220.087666 
L 301.489167 220.087666 
L 301.489167 219.719423 
L 302.814793 219.719423 
L 302.814793 218.982938 
L 303.477606 218.982938 
L 303.477606 218.614696 
L 304.803231 218.614696 
L 304.803231 218.246454 
L 305.466044 218.246454 
L 305.466044 217.878211 
L 306.128857 217.878211 
L 306.128857 217.509969 
L 307.454483 217.509969 
L 307.454483 217.141726 
L 308.117295 217.141726 
L 308.117295 216.405241 
L 308.780108 216.405241 
L 308.780108 215.668757 
L 310.105734 215.668757 
L 310.105734 214.932272 
L 310.768547 214.932272 
L 310.768547 214.195787 
L 311.431359 214.195787 
L 311.431359 213.827545 
L 312.756985 213.827545 
L 312.756985 212.722817 
L 314.082611 212.722817 
L 314.082611 212.354575 
L 316.733862 212.354575 
L 316.733862 210.881605 
L 318.7223 210.881605 
L 318.7223 210.513363 
L 319.385113 210.513363 
L 319.385113 209.776878 
L 320.047926 209.776878 
L 320.047926 209.040393 
L 320.710739 209.040393 
L 320.710739 208.672151 
L 321.373552 208.672151 
L 321.373552 207.935666 
L 322.699177 207.935666 
L 322.699177 207.567423 
L 323.36199 207.567423 
L 323.36199 207.199181 
L 324.024803 207.199181 
L 324.024803 206.830938 
L 324.687616 206.830938 
L 324.687616 205.357969 
L 325.350429 205.357969 
L 325.350429 204.989726 
L 326.013241 204.989726 
L 326.013241 204.621484 
L 326.676054 204.621484 
L 326.676054 204.253241 
L 327.338867 204.253241 
L 327.338867 203.516757 
L 328.00168 203.516757 
L 328.00168 203.148514 
L 328.664493 203.148514 
L 328.664493 202.780272 
L 329.327305 202.780272 
L 329.327305 202.412029 
L 330.652931 202.412029 
L 330.652931 202.043787 
L 331.315744 202.043787 
L 331.315744 201.307302 
L 332.641369 201.307302 
L 332.641369 200.93906 
L 333.304182 200.93906 
L 333.304182 200.570817 
L 333.966995 200.570817 
L 333.966995 200.202575 
L 334.629808 200.202575 
L 334.629808 199.834332 
L 335.292621 199.834332 
L 335.292621 199.46609 
L 335.955434 199.46609 
L 335.955434 197.99312 
L 336.618246 197.99312 
L 336.618246 197.624878 
L 337.281059 197.624878 
L 337.281059 195.783666 
L 338.606685 195.783666 
L 338.606685 195.415423 
L 339.93231 195.415423 
L 339.93231 194.678938 
L 341.257936 194.678938 
L 341.257936 193.942454 
L 341.920749 193.942454 
L 341.920749 193.574211 
L 343.246374 193.574211 
L 343.246374 193.205969 
L 343.909187 193.205969 
L 343.909187 192.837726 
L 345.234813 192.837726 
L 345.234813 192.469484 
L 345.897626 192.469484 
L 345.897626 192.101241 
L 346.560439 192.101241 
L 346.560439 191.364757 
L 347.223251 191.364757 
L 347.223251 190.996514 
L 348.548877 190.996514 
L 348.548877 190.260029 
L 349.21169 190.260029 
L 349.21169 189.523545 
L 349.874503 189.523545 
L 349.874503 188.78706 
L 350.537315 188.78706 
L 350.537315 188.418817 
L 351.200128 188.418817 
L 351.200128 187.682332 
L 351.862941 187.682332 
L 351.862941 187.31409 
L 352.525754 187.31409 
L 352.525754 186.577605 
L 353.188567 186.577605 
L 353.188567 186.209363 
L 353.85138 186.209363 
L 353.85138 185.84112 
L 354.514192 185.84112 
L 354.514192 185.472878 
L 355.839818 185.472878 
L 355.839818 185.104635 
L 356.502631 185.104635 
L 356.502631 184.736393 
L 357.165444 184.736393 
L 357.165444 183.263423 
L 357.828256 183.263423 
L 357.828256 182.895181 
L 360.479508 182.895181 
L 360.479508 182.158696 
L 361.14232 182.158696 
L 361.14232 181.422211 
L 361.805133 181.422211 
L 361.805133 181.053969 
L 362.467946 181.053969 
L 362.467946 180.317484 
L 363.793572 180.317484 
L 363.793572 179.580999 
L 364.456385 179.580999 
L 364.456385 178.476272 
L 365.119197 178.476272 
L 365.119197 177.371545 
L 365.78201 177.371545 
L 365.78201 176.266817 
L 366.444823 176.266817 
L 366.444823 175.530332 
L 367.107636 175.530332 
L 367.107636 175.16209 
L 367.770449 175.16209 
L 367.770449 174.793848 
L 368.433261 174.793848 
L 368.433261 173.320878 
L 369.096074 173.320878 
L 369.096074 172.952635 
L 369.758887 172.952635 
L 369.758887 172.584393 
L 370.4217 172.584393 
L 370.4217 171.479666 
L 371.084513 171.479666 
L 371.084513 170.374938 
L 372.410138 170.374938 
L 372.410138 170.006696 
L 373.072951 170.006696 
L 373.072951 169.638454 
L 373.735764 169.638454 
L 373.735764 168.533726 
L 375.06139 168.533726 
L 375.06139 168.165484 
L 375.724202 168.165484 
L 375.724202 167.060757 
L 376.387015 167.060757 
L 376.387015 165.587787 
L 377.049828 165.587787 
L 377.049828 164.48306 
L 377.712641 164.48306 
L 377.712641 163.746575 
L 379.038266 163.746575 
L 379.038266 163.01009 
L 379.701079 163.01009 
L 379.701079 162.641848 
L 380.363892 162.641848 
L 380.363892 161.905363 
L 381.026705 161.905363 
L 381.026705 161.53712 
L 381.689518 161.53712 
L 381.689518 160.800635 
L 382.35233 160.800635 
L 382.35233 160.432393 
L 383.015143 160.432393 
L 383.015143 160.064151 
L 383.677956 160.064151 
L 383.677956 159.695908 
L 385.003582 159.695908 
L 385.003582 158.591181 
L 385.666395 158.591181 
L 385.666395 158.222938 
L 386.329207 158.222938 
L 386.329207 157.118211 
L 387.654833 157.118211 
L 387.654833 156.749969 
L 388.317646 156.749969 
L 388.317646 156.013484 
L 388.980459 156.013484 
L 388.980459 155.645241 
L 389.643271 155.645241 
L 389.643271 154.908757 
L 390.968897 154.908757 
L 390.968897 154.540514 
L 391.63171 154.540514 
L 391.63171 153.435787 
L 392.957335 153.435787 
L 392.957335 153.067545 
L 393.620148 153.067545 
L 393.620148 152.33106 
L 394.282961 152.33106 
L 394.282961 151.962817 
L 394.945774 151.962817 
L 394.945774 151.226332 
L 395.608587 151.226332 
L 395.608587 150.85809 
L 396.2714 150.85809 
L 396.2714 150.489848 
L 396.934212 150.489848 
L 396.934212 149.016878 
L 397.597025 149.016878 
L 397.597025 148.648635 
L 398.259838 148.648635 
L 398.259838 147.912151 
L 399.585464 147.912151 
L 399.585464 147.175666 
L 400.248276 147.175666 
L 400.248276 146.439181 
L 400.911089 146.439181 
L 400.911089 146.070938 
L 401.573902 146.070938 
L 401.573902 144.597969 
L 402.236715 144.597969 
L 402.236715 143.493241 
L 402.899528 143.493241 
L 402.899528 142.388514 
L 403.56234 142.388514 
L 403.56234 141.283787 
L 404.225153 141.283787 
L 404.225153 140.915545 
L 404.887966 140.915545 
L 404.887966 140.547302 
L 405.550779 140.547302 
L 405.550779 139.810817 
L 406.213592 139.810817 
L 406.213592 139.074332 
L 406.876405 139.074332 
L 406.876405 138.70609 
L 408.20203 138.70609 
L 408.20203 138.337848 
L 408.864843 138.337848 
L 408.864843 137.601363 
L 409.527656 137.601363 
L 409.527656 136.496635 
L 410.190469 136.496635 
L 410.190469 135.760151 
L 410.853281 135.760151 
L 410.853281 135.391908 
L 411.516094 135.391908 
L 411.516094 135.023666 
L 412.178907 135.023666 
L 412.178907 134.655423 
L 412.84172 134.655423 
L 412.84172 133.182454 
L 414.167345 133.182454 
L 414.167345 132.445969 
L 414.830158 132.445969 
L 414.830158 131.709484 
L 415.492971 131.709484 
L 415.492971 131.341241 
L 416.155784 131.341241 
L 416.155784 129.868272 
L 416.818597 129.868272 
L 416.818597 128.395302 
L 417.48141 128.395302 
L 417.48141 126.922332 
L 419.469848 126.922332 
L 419.469848 126.55409 
L 420.132661 126.55409 
L 420.132661 126.185848 
L 420.795474 126.185848 
L 420.795474 125.817605 
L 421.458286 125.817605 
L 421.458286 125.08112 
L 422.783912 125.08112 
L 422.783912 124.712878 
L 424.109538 124.712878 
L 424.109538 124.344635 
L 424.77235 124.344635 
L 424.77235 123.239908 
L 426.760789 123.239908 
L 426.760789 122.503423 
L 427.423602 122.503423 
L 427.423602 122.135181 
L 428.086415 122.135181 
L 428.086415 121.398696 
L 428.749227 121.398696 
L 428.749227 120.662211 
L 429.41204 120.662211 
L 429.41204 119.925726 
L 430.074853 119.925726 
L 430.074853 119.557484 
L 430.737666 119.557484 
L 430.737666 119.189241 
L 431.400479 119.189241 
L 431.400479 118.452757 
L 432.726104 118.452757 
L 432.726104 117.716272 
L 433.388917 117.716272 
L 433.388917 116.611545 
L 434.714543 116.611545 
L 434.714543 115.87506 
L 436.702981 115.87506 
L 436.702981 115.138575 
L 437.365794 115.138575 
L 437.365794 114.770332 
L 438.028607 114.770332 
L 438.028607 114.033848 
L 439.354232 114.033848 
L 439.354232 113.297363 
L 440.017045 113.297363 
L 440.017045 112.92912 
L 442.005484 112.92912 
L 442.005484 112.560878 
L 443.331109 112.560878 
L 443.331109 112.192635 
L 443.993922 112.192635 
L 443.993922 110.719666 
L 445.319548 110.719666 
L 445.319548 110.351423 
L 445.98236 110.351423 
L 445.98236 109.614938 
L 446.645173 109.614938 
L 446.645173 108.141969 
L 448.633612 108.141969 
L 448.633612 107.037241 
L 449.296425 107.037241 
L 449.296425 106.668999 
L 449.959237 106.668999 
L 449.959237 106.300757 
L 450.62205 106.300757 
L 450.62205 105.196029 
L 451.947676 105.196029 
L 451.947676 104.459545 
L 452.610489 104.459545 
L 452.610489 104.091302 
L 453.273301 104.091302 
L 453.273301 102.986575 
L 454.598927 102.986575 
L 454.598927 102.618332 
L 455.924553 102.618332 
L 455.924553 101.881848 
L 457.250178 101.881848 
L 457.250178 101.145363 
L 457.912991 101.145363 
L 457.912991 100.408878 
L 458.575804 100.408878 
L 458.575804 100.040635 
L 459.238617 100.040635 
L 459.238617 99.672393 
L 459.90143 99.672393 
L 459.90143 99.304151 
L 460.564242 99.304151 
L 460.564242 98.935908 
L 461.227055 98.935908 
L 461.227055 98.567666 
L 461.889868 98.567666 
L 461.889868 97.831181 
L 462.552681 97.831181 
L 462.552681 97.094696 
L 463.215494 97.094696 
L 463.215494 96.358211 
L 463.878306 96.358211 
L 463.878306 95.253484 
L 464.541119 95.253484 
L 464.541119 94.516999 
L 465.203932 94.516999 
L 465.203932 93.780514 
L 467.19237 93.780514 
L 467.19237 93.412272 
L 469.180809 93.412272 
L 469.180809 92.307545 
L 469.843622 92.307545 
L 469.843622 91.57106 
L 470.506435 91.57106 
L 470.506435 91.202817 
L 472.494873 91.202817 
L 472.494873 90.834575 
L 473.157686 90.834575 
L 473.157686 90.466332 
L 474.483311 90.466332 
L 474.483311 90.09809 
L 477.134563 90.09809 
L 477.134563 89.729848 
L 477.797376 89.729848 
L 477.797376 89.361605 
L 479.123001 89.361605 
L 479.123001 88.993363 
L 479.785814 88.993363 
L 479.785814 88.62512 
L 480.448627 88.62512 
L 480.448627 87.888635 
L 481.11144 87.888635 
L 481.11144 87.520393 
L 482.437065 87.520393 
L 482.437065 87.152151 
L 483.099878 87.152151 
L 483.099878 86.047423 
L 483.762691 86.047423 
L 483.762691 85.679181 
L 485.088316 85.679181 
L 485.088316 83.837969 
L 485.751129 83.837969 
L 485.751129 83.101484 
L 486.413942 83.101484 
L 486.413942 82.733241 
L 488.402381 82.733241 
L 488.402381 82.364999 
L 489.728006 82.364999 
L 489.728006 81.996757 
L 490.390819 81.996757 
L 490.390819 81.628514 
L 491.716445 81.628514 
L 491.716445 80.892029 
L 493.704883 80.892029 
L 493.704883 80.523787 
L 494.367696 80.523787 
L 494.367696 79.41906 
L 495.693321 79.41906 
L 495.693321 79.050817 
L 496.356134 79.050817 
L 496.356134 78.682575 
L 497.018947 78.682575 
L 497.018947 78.314332 
L 497.68176 78.314332 
L 497.68176 77.94609 
L 498.344573 77.94609 
L 498.344573 77.209605 
L 499.007386 77.209605 
L 499.007386 76.841363 
L 499.670198 76.841363 
L 499.670198 75.736635 
L 500.333011 75.736635 
L 500.333011 75.368393 
L 501.658637 75.368393 
L 501.658637 73.895423 
L 502.984262 73.895423 
L 502.984262 72.790696 
L 504.309888 72.790696 
L 504.309888 72.054211 
L 504.972701 72.054211 
L 504.972701 71.317726 
L 505.635514 71.317726 
L 505.635514 70.212999 
L 506.298326 70.212999 
L 506.298326 69.844757 
L 507.623952 69.844757 
L 507.623952 69.476514 
L 508.949578 69.476514 
L 508.949578 68.740029 
L 509.612391 68.740029 
L 509.612391 68.371787 
L 510.275203 68.371787 
L 510.275203 68.003545 
L 511.600829 68.003545 
L 511.600829 67.26706 
L 512.263642 67.26706 
L 512.263642 66.530575 
L 516.240519 66.530575 
L 516.240519 65.79409 
L 516.903331 65.79409 
L 516.903331 65.057605 
L 518.89177 65.057605 
L 518.89177 64.689363 
L 519.554583 64.689363 
L 519.554583 63.584635 
L 522.205834 63.584635 
L 522.205834 62.479908 
L 523.53146 62.479908 
L 523.53146 62.111666 
L 525.519898 62.111666 
L 525.519898 61.375181 
L 526.182711 61.375181 
L 526.182711 61.006938 
L 526.845524 61.006938 
L 526.845524 60.270454 
L 528.171149 60.270454 
L 528.171149 59.902211 
L 528.833962 59.902211 
L 528.833962 59.533969 
L 530.159588 59.533969 
L 530.159588 59.165726 
L 530.822401 59.165726 
L 530.822401 58.429241 
L 531.485213 58.429241 
L 531.485213 58.060999 
L 532.148026 58.060999 
L 532.148026 57.324514 
L 532.810839 57.324514 
L 532.810839 56.956272 
L 534.136465 56.956272 
L 534.136465 56.219787 
L 534.799277 56.219787 
L 534.799277 55.483302 
L 538.113341 55.483302 
L 538.113341 55.11506 
L 539.438967 55.11506 
L 539.438967 54.010332 
L 541.427406 54.010332 
L 541.427406 53.273848 
L 544.74147 53.273848 
L 544.74147 52.537363 
L 551.369598 52.537363 
L 551.369598 51.432635 
L 552.032411 51.432635 
L 552.032411 50.696151 
L 553.358036 50.696151 
L 553.358036 50.327908 
L 554.020849 50.327908 
L 554.020849 49.959666 
L 554.683662 49.959666 
L 554.683662 49.591423 
L 556.009287 49.591423 
L 556.009287 48.854938 
L 557.334913 48.854938 
L 557.334913 48.486696 
L 557.997726 48.486696 
L 557.997726 47.750211 
L 558.660539 47.750211 
L 558.660539 47.381969 
L 561.31179 47.381969 
L 561.31179 47.013726 
L 561.974603 47.013726 
L 561.974603 46.645484 
L 563.963041 46.645484 
L 563.963041 45.908999 
L 565.288667 45.908999 
L 565.288667 45.172514 
L 565.95148 45.172514 
L 565.95148 44.436029 
L 567.277105 44.436029 
L 567.277105 43.331302 
L 573.242421 43.331302 
L 573.242421 42.96306 
L 575.893672 42.96306 
L 575.893672 42.594817 
L 576.556485 42.594817 
L 576.556485 42.226575 
L 582.5218 42.226575 
L 582.5218 41.858332 
L 583.184613 41.858332 
L 583.184613 41.121848 
L 598.429307 41.121848 
L 598.429307 40.753605 
L 605.720248 40.753605 
L 605.720248 40.385363 
L 607.045874 40.385363 
L 607.045874 40.01712 
L 608.3715 40.01712 
L 608.3715 39.648878 
L 610.359938 39.648878 
L 610.359938 39.280635 
L 612.348377 39.280635 
L 612.348377 38.912393 
L 616.325253 38.912393 
L 616.325253 38.544151 
L 616.988066 38.544151 
L 616.988066 38.175908 
L 617.650879 38.175908 
L 617.650879 37.807666 
L 632.232761 37.807666 
L 632.232761 37.439423 
L 637.535263 37.439423 
L 637.535263 37.071181 
L 638.198076 37.071181 
L 638.198076 36.702938 
L 638.860889 36.702938 
L 638.860889 36.334696 
L 652.117145 36.334696 
L 652.117145 35.966454 
L 656.094022 35.966454 
L 656.094022 35.598211 
L 677.304032 35.598211 
L 677.304032 35.229969 
L 696.525604 35.229969 
L 696.525604 34.861726 
L 713.095924 34.861726 
L 713.095924 34.493484 
L 727.014993 34.493484 
L 727.014993 34.125241 
L 741.596875 34.125241 
L 741.596875 34.125241 
" clip-path="url(#pe7aceec7ab)" style="fill: none; stroke: #e64173; stroke-width: 2; stroke-linecap: square"/>
   </g>
   <g id="line2d_28">
    <path d="M 79.446875 255.070696 
L 82.760939 255.070696 
L 82.760939 254.702454 
L 92.703131 254.702454 
L 92.703131 254.334211 
L 107.285013 254.334211 
L 107.285013 253.965969 
L 121.866895 253.965969 
L 121.866895 253.597726 
L 134.460338 253.597726 
L 134.460338 253.229484 
L 143.739718 253.229484 
L 143.739718 252.861241 
L 144.402531 252.861241 
L 144.402531 252.492999 
L 151.693472 252.492999 
L 151.693472 252.124757 
L 156.995974 252.124757 
L 156.995974 251.756514 
L 160.972851 251.756514 
L 160.972851 251.388272 
L 169.589418 251.388272 
L 169.589418 250.651787 
L 173.566294 250.651787 
L 173.566294 250.283545 
L 174.229107 250.283545 
L 174.229107 249.915302 
L 177.543171 249.915302 
L 177.543171 249.54706 
L 180.194423 249.54706 
L 180.194423 249.178817 
L 192.125053 249.178817 
L 192.125053 248.810575 
L 196.764743 248.810575 
L 196.764743 248.442332 
L 199.415994 248.442332 
L 199.415994 247.705848 
L 200.078807 247.705848 
L 200.078807 247.337605 
L 202.067245 247.337605 
L 202.067245 246.969363 
L 204.055684 246.969363 
L 204.055684 246.60112 
L 206.044122 246.60112 
L 206.044122 245.864635 
L 208.032561 245.864635 
L 208.032561 245.496393 
L 209.358186 245.496393 
L 209.358186 245.128151 
L 210.683812 245.128151 
L 210.683812 244.759908 
L 217.974753 244.759908 
L 217.974753 244.391666 
L 224.602881 244.391666 
L 224.602881 244.023423 
L 225.265694 244.023423 
L 225.265694 243.286938 
L 229.242571 243.286938 
L 229.242571 242.918696 
L 231.893822 242.918696 
L 231.893822 242.550454 
L 235.207886 242.550454 
L 235.207886 242.182211 
L 235.870699 242.182211 
L 235.870699 241.813969 
L 239.184763 241.813969 
L 239.184763 241.445726 
L 239.847576 241.445726 
L 239.847576 240.709241 
L 242.498827 240.709241 
L 242.498827 240.340999 
L 245.812891 240.340999 
L 245.812891 239.972757 
L 246.475704 239.972757 
L 246.475704 239.604514 
L 249.126955 239.604514 
L 249.126955 239.236272 
L 254.429458 239.236272 
L 254.429458 238.868029 
L 257.743522 238.868029 
L 257.743522 238.131545 
L 259.73196 238.131545 
L 259.73196 237.763302 
L 260.394773 237.763302 
L 260.394773 237.39506 
L 261.720399 237.39506 
L 261.720399 237.026817 
L 262.383211 237.026817 
L 262.383211 236.658575 
L 263.046024 236.658575 
L 263.046024 236.290332 
L 264.37165 236.290332 
L 264.37165 235.92209 
L 265.034463 235.92209 
L 265.034463 235.553848 
L 265.697275 235.553848 
L 265.697275 235.185605 
L 266.360088 235.185605 
L 266.360088 234.44912 
L 267.022901 234.44912 
L 267.022901 234.080878 
L 268.348527 234.080878 
L 268.348527 233.712635 
L 269.011339 233.712635 
L 269.011339 233.344393 
L 270.336965 233.344393 
L 270.336965 232.607908 
L 271.662591 232.607908 
L 271.662591 232.239666 
L 274.976655 232.239666 
L 274.976655 231.871423 
L 275.639468 231.871423 
L 275.639468 231.134938 
L 276.30228 231.134938 
L 276.30228 230.398454 
L 276.965093 230.398454 
L 276.965093 229.661969 
L 278.290719 229.661969 
L 278.290719 229.293726 
L 279.616344 229.293726 
L 279.616344 228.557241 
L 281.604783 228.557241 
L 281.604783 228.188999 
L 285.58166 228.188999 
L 285.58166 227.820757 
L 286.244473 227.820757 
L 286.244473 227.452514 
L 286.907285 227.452514 
L 286.907285 227.084272 
L 287.570098 227.084272 
L 287.570098 226.716029 
L 288.232911 226.716029 
L 288.232911 226.347787 
L 288.895724 226.347787 
L 288.895724 225.24306 
L 289.558537 225.24306 
L 289.558537 224.874817 
L 290.221349 224.874817 
L 290.221349 223.77009 
L 290.884162 223.77009 
L 290.884162 223.033605 
L 291.546975 223.033605 
L 291.546975 222.665363 
L 292.209788 222.665363 
L 292.209788 221.928878 
L 292.872601 221.928878 
L 292.872601 221.192393 
L 294.861039 221.192393 
L 294.861039 220.824151 
L 295.523852 220.824151 
L 295.523852 220.455908 
L 296.849478 220.455908 
L 296.849478 220.087666 
L 300.826354 220.087666 
L 300.826354 219.351181 
L 302.814793 219.351181 
L 302.814793 218.246454 
L 303.477606 218.246454 
L 303.477606 217.878211 
L 304.140419 217.878211 
L 304.140419 217.509969 
L 305.466044 217.509969 
L 305.466044 217.141726 
L 308.117295 217.141726 
L 308.117295 216.036999 
L 308.780108 216.036999 
L 308.780108 215.668757 
L 310.105734 215.668757 
L 310.105734 214.932272 
L 312.094172 214.932272 
L 312.094172 214.564029 
L 313.419798 214.564029 
L 313.419798 214.195787 
L 314.082611 214.195787 
L 314.082611 213.09106 
L 314.745424 213.09106 
L 314.745424 212.354575 
L 315.408236 212.354575 
L 315.408236 211.986332 
L 316.071049 211.986332 
L 316.071049 211.249848 
L 316.733862 211.249848 
L 316.733862 210.14512 
L 317.396675 210.14512 
L 317.396675 209.776878 
L 318.059488 209.776878 
L 318.059488 208.672151 
L 319.385113 208.672151 
L 319.385113 207.567423 
L 320.047926 207.567423 
L 320.047926 207.199181 
L 320.710739 207.199181 
L 320.710739 206.462696 
L 321.373552 206.462696 
L 321.373552 205.726211 
L 322.699177 205.726211 
L 322.699177 205.357969 
L 324.024803 205.357969 
L 324.024803 204.621484 
L 328.00168 204.621484 
L 328.00168 204.253241 
L 329.990118 204.253241 
L 329.990118 203.884999 
L 330.652931 203.884999 
L 330.652931 202.780272 
L 331.315744 202.780272 
L 331.315744 202.043787 
L 332.641369 202.043787 
L 332.641369 201.675545 
L 333.304182 201.675545 
L 333.304182 201.307302 
L 333.966995 201.307302 
L 333.966995 199.834332 
L 334.629808 199.834332 
L 334.629808 199.46609 
L 335.292621 199.46609 
L 335.292621 197.99312 
L 335.955434 197.99312 
L 335.955434 197.624878 
L 336.618246 197.624878 
L 336.618246 197.256635 
L 337.943872 197.256635 
L 337.943872 196.888393 
L 339.269498 196.888393 
L 339.269498 195.783666 
L 343.246374 195.783666 
L 343.246374 194.310696 
L 343.909187 194.310696 
L 343.909187 193.942454 
L 345.234813 193.942454 
L 345.234813 193.205969 
L 345.897626 193.205969 
L 345.897626 192.469484 
L 346.560439 192.469484 
L 346.560439 192.101241 
L 347.223251 192.101241 
L 347.223251 191.732999 
L 348.548877 191.732999 
L 348.548877 190.996514 
L 349.21169 190.996514 
L 349.21169 190.260029 
L 349.874503 190.260029 
L 349.874503 189.891787 
L 351.200128 189.891787 
L 351.200128 189.155302 
L 351.862941 189.155302 
L 351.862941 188.418817 
L 353.188567 188.418817 
L 353.188567 187.31409 
L 353.85138 187.31409 
L 353.85138 186.577605 
L 354.514192 186.577605 
L 354.514192 185.84112 
L 355.177005 185.84112 
L 355.177005 185.472878 
L 355.839818 185.472878 
L 355.839818 184.736393 
L 356.502631 184.736393 
L 356.502631 184.368151 
L 357.165444 184.368151 
L 357.165444 183.631666 
L 357.828256 183.631666 
L 357.828256 183.263423 
L 358.491069 183.263423 
L 358.491069 182.895181 
L 359.153882 182.895181 
L 359.153882 182.526938 
L 359.816695 182.526938 
L 359.816695 182.158696 
L 361.14232 182.158696 
L 361.14232 181.422211 
L 361.805133 181.422211 
L 361.805133 181.053969 
L 362.467946 181.053969 
L 362.467946 179.949241 
L 363.130759 179.949241 
L 363.130759 179.580999 
L 363.793572 179.580999 
L 363.793572 179.212757 
L 365.119197 179.212757 
L 365.119197 178.476272 
L 365.78201 178.476272 
L 365.78201 178.108029 
L 366.444823 178.108029 
L 366.444823 176.63506 
L 367.770449 176.63506 
L 367.770449 176.266817 
L 369.096074 176.266817 
L 369.096074 175.530332 
L 369.758887 175.530332 
L 369.758887 175.16209 
L 370.4217 175.16209 
L 370.4217 174.793848 
L 372.410138 174.793848 
L 372.410138 174.057363 
L 373.072951 174.057363 
L 373.072951 173.68912 
L 374.398577 173.68912 
L 374.398577 172.584393 
L 375.06139 172.584393 
L 375.06139 171.847908 
L 377.049828 171.847908 
L 377.049828 171.479666 
L 378.375454 171.479666 
L 378.375454 170.743181 
L 379.038266 170.743181 
L 379.038266 170.374938 
L 381.026705 170.374938 
L 381.026705 170.006696 
L 381.689518 170.006696 
L 381.689518 168.901969 
L 382.35233 168.901969 
L 382.35233 167.060757 
L 383.015143 167.060757 
L 383.015143 165.956029 
L 383.677956 165.956029 
L 383.677956 165.587787 
L 384.340769 165.587787 
L 384.340769 164.851302 
L 385.666395 164.851302 
L 385.666395 164.114817 
L 386.329207 164.114817 
L 386.329207 163.746575 
L 386.99202 163.746575 
L 386.99202 163.01009 
L 387.654833 163.01009 
L 387.654833 162.641848 
L 388.317646 162.641848 
L 388.317646 162.273605 
L 388.980459 162.273605 
L 388.980459 161.905363 
L 389.643271 161.905363 
L 389.643271 161.168878 
L 390.306084 161.168878 
L 390.306084 160.800635 
L 390.968897 160.800635 
L 390.968897 160.432393 
L 391.63171 160.432393 
L 391.63171 160.064151 
L 392.294523 160.064151 
L 392.294523 158.959423 
L 392.957335 158.959423 
L 392.957335 158.591181 
L 393.620148 158.591181 
L 393.620148 158.222938 
L 394.282961 158.222938 
L 394.282961 157.118211 
L 394.945774 157.118211 
L 394.945774 155.645241 
L 396.2714 155.645241 
L 396.2714 154.908757 
L 397.597025 154.908757 
L 397.597025 153.435787 
L 398.259838 153.435787 
L 398.259838 152.699302 
L 399.585464 152.699302 
L 399.585464 151.226332 
L 400.248276 151.226332 
L 400.248276 150.121605 
L 400.911089 150.121605 
L 400.911089 148.280393 
L 401.573902 148.280393 
L 401.573902 147.543908 
L 402.236715 147.543908 
L 402.236715 146.439181 
L 402.899528 146.439181 
L 402.899528 144.966211 
L 403.56234 144.966211 
L 403.56234 144.597969 
L 404.887966 144.597969 
L 404.887966 143.493241 
L 405.550779 143.493241 
L 405.550779 143.124999 
L 406.213592 143.124999 
L 406.213592 142.388514 
L 406.876405 142.388514 
L 406.876405 142.020272 
L 408.20203 142.020272 
L 408.20203 141.283787 
L 408.864843 141.283787 
L 408.864843 140.915545 
L 409.527656 140.915545 
L 409.527656 139.442575 
L 410.190469 139.442575 
L 410.190469 139.074332 
L 410.853281 139.074332 
L 410.853281 138.337848 
L 411.516094 138.337848 
L 411.516094 137.601363 
L 412.178907 137.601363 
L 412.178907 137.23312 
L 412.84172 137.23312 
L 412.84172 136.496635 
L 413.504533 136.496635 
L 413.504533 135.760151 
L 414.167345 135.760151 
L 414.167345 135.023666 
L 414.830158 135.023666 
L 414.830158 134.655423 
L 415.492971 134.655423 
L 415.492971 133.918938 
L 416.155784 133.918938 
L 416.155784 133.550696 
L 416.818597 133.550696 
L 416.818597 132.814211 
L 417.48141 132.814211 
L 417.48141 132.077726 
L 418.144222 132.077726 
L 418.144222 131.709484 
L 418.807035 131.709484 
L 418.807035 130.604757 
L 419.469848 130.604757 
L 419.469848 129.868272 
L 420.132661 129.868272 
L 420.132661 128.763545 
L 421.458286 128.763545 
L 421.458286 128.395302 
L 422.121099 128.395302 
L 422.121099 127.658817 
L 422.783912 127.658817 
L 422.783912 127.290575 
L 424.109538 127.290575 
L 424.109538 126.185848 
L 424.77235 126.185848 
L 424.77235 125.817605 
L 426.097976 125.817605 
L 426.097976 125.08112 
L 427.423602 125.08112 
L 427.423602 123.608151 
L 428.086415 123.608151 
L 428.086415 122.871666 
L 428.749227 122.871666 
L 428.749227 122.503423 
L 429.41204 122.503423 
L 429.41204 121.766938 
L 430.074853 121.766938 
L 430.074853 121.398696 
L 430.737666 121.398696 
L 430.737666 121.030454 
L 431.400479 121.030454 
L 431.400479 120.662211 
L 432.063291 120.662211 
L 432.063291 120.293969 
L 432.726104 120.293969 
L 432.726104 119.925726 
L 434.05173 119.925726 
L 434.05173 119.189241 
L 436.040168 119.189241 
L 436.040168 118.452757 
L 436.702981 118.452757 
L 436.702981 118.084514 
L 437.365794 118.084514 
L 437.365794 117.348029 
L 438.028607 117.348029 
L 438.028607 116.979787 
L 438.69142 116.979787 
L 438.69142 116.611545 
L 439.354232 116.611545 
L 439.354232 115.506817 
L 440.679858 115.506817 
L 440.679858 114.40209 
L 441.342671 114.40209 
L 441.342671 114.033848 
L 443.331109 114.033848 
L 443.331109 113.297363 
L 443.993922 113.297363 
L 443.993922 112.560878 
L 444.656735 112.560878 
L 444.656735 111.824393 
L 445.319548 111.824393 
L 445.319548 110.351423 
L 445.98236 110.351423 
L 445.98236 109.983181 
L 446.645173 109.983181 
L 446.645173 109.614938 
L 447.307986 109.614938 
L 447.307986 109.246696 
L 447.970799 109.246696 
L 447.970799 108.878454 
L 448.633612 108.878454 
L 448.633612 108.141969 
L 449.296425 108.141969 
L 449.296425 107.773726 
L 449.959237 107.773726 
L 449.959237 107.405484 
L 450.62205 107.405484 
L 450.62205 107.037241 
L 451.284863 107.037241 
L 451.284863 105.932514 
L 451.947676 105.932514 
L 451.947676 105.196029 
L 452.610489 105.196029 
L 452.610489 104.459545 
L 453.273301 104.459545 
L 453.273301 104.091302 
L 454.598927 104.091302 
L 454.598927 103.72306 
L 455.26174 103.72306 
L 455.26174 103.354817 
L 455.924553 103.354817 
L 455.924553 102.25009 
L 457.250178 102.25009 
L 457.250178 101.881848 
L 457.912991 101.881848 
L 457.912991 101.513605 
L 458.575804 101.513605 
L 458.575804 101.145363 
L 460.564242 101.145363 
L 460.564242 100.77712 
L 461.227055 100.77712 
L 461.227055 100.408878 
L 461.889868 100.408878 
L 461.889868 100.040635 
L 463.878306 100.040635 
L 463.878306 98.935908 
L 464.541119 98.935908 
L 464.541119 98.199423 
L 465.203932 98.199423 
L 465.203932 97.462938 
L 465.866745 97.462938 
L 465.866745 97.094696 
L 470.506435 97.094696 
L 470.506435 96.726454 
L 471.83206 96.726454 
L 471.83206 96.358211 
L 472.494873 96.358211 
L 472.494873 95.989969 
L 476.47175 95.989969 
L 476.47175 94.885241 
L 477.134563 94.885241 
L 477.134563 94.516999 
L 478.460188 94.516999 
L 478.460188 94.148757 
L 479.123001 94.148757 
L 479.123001 93.780514 
L 479.785814 93.780514 
L 479.785814 93.044029 
L 481.11144 93.044029 
L 481.11144 92.307545 
L 481.774252 92.307545 
L 481.774252 91.939302 
L 483.762691 91.939302 
L 483.762691 91.202817 
L 484.425504 91.202817 
L 484.425504 90.834575 
L 486.413942 90.834575 
L 486.413942 90.466332 
L 487.739568 90.466332 
L 487.739568 90.09809 
L 490.390819 90.09809 
L 490.390819 89.729848 
L 491.053632 89.729848 
L 491.053632 89.361605 
L 491.716445 89.361605 
L 491.716445 88.62512 
L 492.379257 88.62512 
L 492.379257 88.256878 
L 493.04207 88.256878 
L 493.04207 87.520393 
L 493.704883 87.520393 
L 493.704883 84.574454 
L 495.030509 84.574454 
L 495.030509 84.206211 
L 495.693321 84.206211 
L 495.693321 83.837969 
L 497.018947 83.837969 
L 497.018947 83.101484 
L 499.007386 83.101484 
L 499.007386 82.364999 
L 500.333011 82.364999 
L 500.333011 81.996757 
L 501.658637 81.996757 
L 501.658637 81.628514 
L 502.32145 81.628514 
L 502.32145 81.260272 
L 502.984262 81.260272 
L 502.984262 80.892029 
L 504.309888 80.892029 
L 504.309888 80.523787 
L 504.972701 80.523787 
L 504.972701 79.787302 
L 506.961139 79.787302 
L 506.961139 79.41906 
L 508.286765 79.41906 
L 508.286765 79.050817 
L 508.949578 79.050817 
L 508.949578 78.314332 
L 509.612391 78.314332 
L 509.612391 77.577848 
L 510.938016 77.577848 
L 510.938016 77.209605 
L 511.600829 77.209605 
L 511.600829 76.104878 
L 512.263642 76.104878 
L 512.263642 75.736635 
L 512.926455 75.736635 
L 512.926455 75.368393 
L 514.25208 75.368393 
L 514.25208 74.631908 
L 516.240519 74.631908 
L 516.240519 73.895423 
L 517.566144 73.895423 
L 517.566144 73.527181 
L 518.228957 73.527181 
L 518.228957 73.158938 
L 518.89177 73.158938 
L 518.89177 72.422454 
L 519.554583 72.422454 
L 519.554583 72.054211 
L 520.880208 72.054211 
L 520.880208 71.317726 
L 521.543021 71.317726 
L 521.543021 70.949484 
L 522.205834 70.949484 
L 522.205834 70.581241 
L 523.53146 70.581241 
L 523.53146 70.212999 
L 524.857085 70.212999 
L 524.857085 69.844757 
L 526.182711 69.844757 
L 526.182711 69.108272 
L 528.171149 69.108272 
L 528.171149 68.740029 
L 528.833962 68.740029 
L 528.833962 68.371787 
L 530.822401 68.371787 
L 530.822401 68.003545 
L 531.485213 68.003545 
L 531.485213 67.635302 
L 532.148026 67.635302 
L 532.148026 67.26706 
L 532.810839 67.26706 
L 532.810839 65.79409 
L 534.136465 65.79409 
L 534.136465 64.689363 
L 534.799277 64.689363 
L 534.799277 63.584635 
L 535.46209 63.584635 
L 535.46209 62.848151 
L 536.124903 62.848151 
L 536.124903 62.111666 
L 537.450529 62.111666 
L 537.450529 61.743423 
L 539.438967 61.743423 
L 539.438967 61.006938 
L 541.427406 61.006938 
L 541.427406 59.902211 
L 542.090218 59.902211 
L 542.090218 59.533969 
L 543.415844 59.533969 
L 543.415844 59.165726 
L 544.078657 59.165726 
L 544.078657 58.797484 
L 544.74147 58.797484 
L 544.74147 58.060999 
L 546.067095 58.060999 
L 546.067095 57.692757 
L 547.392721 57.692757 
L 547.392721 57.324514 
L 549.381159 57.324514 
L 549.381159 56.956272 
L 550.043972 56.956272 
L 550.043972 56.588029 
L 550.706785 56.588029 
L 550.706785 56.219787 
L 552.032411 56.219787 
L 552.032411 55.483302 
L 553.358036 55.483302 
L 553.358036 55.11506 
L 554.683662 55.11506 
L 554.683662 54.010332 
L 555.346475 54.010332 
L 555.346475 53.273848 
L 557.334913 53.273848 
L 557.334913 52.537363 
L 559.986164 52.537363 
L 559.986164 52.16912 
L 560.648977 52.16912 
L 560.648977 51.800878 
L 562.637416 51.800878 
L 562.637416 51.432635 
L 563.963041 51.432635 
L 563.963041 51.064393 
L 567.277105 51.064393 
L 567.277105 50.327908 
L 568.602731 50.327908 
L 568.602731 49.959666 
L 569.265544 49.959666 
L 569.265544 48.486696 
L 571.253982 48.486696 
L 571.253982 48.118454 
L 573.242421 48.118454 
L 573.242421 47.381969 
L 576.556485 47.381969 
L 576.556485 47.013726 
L 577.219297 47.013726 
L 577.219297 46.277241 
L 579.207736 46.277241 
L 579.207736 45.908999 
L 579.870549 45.908999 
L 579.870549 45.540757 
L 585.835864 45.540757 
L 585.835864 45.172514 
L 586.498677 45.172514 
L 586.498677 44.804272 
L 589.149928 44.804272 
L 589.149928 44.067787 
L 594.452431 44.067787 
L 594.452431 43.331302 
L 597.103682 43.331302 
L 597.103682 42.96306 
L 597.766495 42.96306 
L 597.766495 42.226575 
L 599.09212 42.226575 
L 599.09212 41.858332 
L 603.068997 41.858332 
L 603.068997 41.49009 
L 603.73181 41.49009 
L 603.73181 41.121848 
L 604.394623 41.121848 
L 604.394623 40.753605 
L 606.383061 40.753605 
L 606.383061 40.385363 
L 613.674002 40.385363 
L 613.674002 40.01712 
L 622.290569 40.01712 
L 622.290569 39.648878 
L 624.279007 39.648878 
L 624.279007 39.280635 
L 628.918697 39.280635 
L 628.918697 38.912393 
L 632.232761 38.912393 
L 632.232761 38.544151 
L 633.558387 38.544151 
L 633.558387 38.175908 
L 637.535263 38.175908 
L 637.535263 37.807666 
L 642.837766 37.807666 
L 642.837766 37.439423 
L 644.826204 37.439423 
L 644.826204 37.071181 
L 646.15183 37.071181 
L 646.15183 36.702938 
L 664.710589 36.702938 
L 664.710589 36.334696 
L 674.652781 36.334696 
L 674.652781 35.966454 
L 693.21154 35.966454 
L 693.21154 35.598211 
L 709.119047 35.598211 
L 709.119047 35.229969 
L 716.409988 35.229969 
L 716.409988 34.861726 
L 741.596875 34.861726 
L 741.596875 34.861726 
" clip-path="url(#pe7aceec7ab)" style="fill: none; stroke: #20b2aa; stroke-width: 2; stroke-linecap: square"/>
   </g>
   <g id="patch_3">
    <path d="M 46.339375 266.117969 
L 46.339375 23.077969 
" style="fill: none; stroke: #314f4f; stroke-width: 0.8; stroke-linejoin: miter; stroke-linecap: square"/>
   </g>
   <g id="patch_4">
    <path d="M 46.339375 266.117969 
L 774.704375 266.117969 
" style="fill: none; stroke: #314f4f; stroke-width: 0.8; stroke-linejoin: miter; stroke-linecap: square"/>
   </g>
   <g id="text_16">
    <!-- Dependent samples: the shared component glues the CDFs together -->
    <g transform="translate(186.399844 17.077969) scale(0.13 -0.13)">
     <defs>
      <path id="DejaVuSans-44" d="M 1259 4147 
L 1259 519 
L 2022 519 
Q 2988 519 3436 956 
Q 3884 1394 3884 2338 
Q 3884 3275 3436 3711 
Q 2988 4147 2022 4147 
L 1259 4147 
z
M 628 4666 
L 1925 4666 
Q 3281 4666 3915 4102 
Q 4550 3538 4550 2338 
Q 4550 1131 3912 565 
Q 3275 0 1925 0 
L 628 0 
L 628 4666 
z
" transform="scale(0.015625)"/>
      <path id="DejaVuSans-6e" d="M 3513 2113 
L 3513 0 
L 2938 0 
L 2938 2094 
Q 2938 2591 2744 2837 
Q 2550 3084 2163 3084 
Q 1697 3084 1428 2787 
Q 1159 2491 1159 1978 
L 1159 0 
L 581 0 
L 581 3500 
L 1159 3500 
L 1159 2956 
Q 1366 3272 1645 3428 
Q 1925 3584 2291 3584 
Q 2894 3584 3203 3211 
Q 3513 2838 3513 2113 
z
" transform="scale(0.015625)"/>
      <path id="DejaVuSans-64" d="M 2906 2969 
L 2906 4863 
L 3481 4863 
L 3481 0 
L 2906 0 
L 2906 525 
Q 2725 213 2448 61 
Q 2172 -91 1784 -91 
Q 1150 -91 751 415 
Q 353 922 353 1747 
Q 353 2572 751 3078 
Q 1150 3584 1784 3584 
Q 2172 3584 2448 3432 
Q 2725 3281 2906 2969 
z
M 947 1747 
Q 947 1113 1208 752 
Q 1469 391 1925 391 
Q 2381 391 2643 752 
Q 2906 1113 2906 1747 
Q 2906 2381 2643 2742 
Q 2381 3103 1925 3103 
Q 1469 3103 1208 2742 
Q 947 2381 947 1747 
z
" transform="scale(0.015625)"/>
      <path id="DejaVuSans-73" d="M 2834 3397 
L 2834 2853 
Q 2591 2978 2328 3040 
Q 2066 3103 1784 3103 
Q 1356 3103 1142 2972 
Q 928 2841 928 2578 
Q 928 2378 1081 2264 
Q 1234 2150 1697 2047 
L 1894 2003 
Q 2506 1872 2764 1633 
Q 3022 1394 3022 966 
Q 3022 478 2636 193 
Q 2250 -91 1575 -91 
Q 1294 -91 989 -36 
Q 684 19 347 128 
L 347 722 
Q 666 556 975 473 
Q 1284 391 1588 391 
Q 1994 391 2212 530 
Q 2431 669 2431 922 
Q 2431 1156 2273 1281 
Q 2116 1406 1581 1522 
L 1381 1569 
Q 847 1681 609 1914 
Q 372 2147 372 2553 
Q 372 3047 722 3315 
Q 1072 3584 1716 3584 
Q 2034 3584 2315 3537 
Q 2597 3491 2834 3397 
z
" transform="scale(0.015625)"/>
      <path id="DejaVuSans-3a" d="M 750 794 
L 1409 794 
L 1409 0 
L 750 0 
L 750 794 
z
M 750 3309 
L 1409 3309 
L 1409 2516 
L 750 2516 
L 750 3309 
z
" transform="scale(0.015625)"/>
      <path id="DejaVuSans-68" d="M 3513 2113 
L 3513 0 
L 2938 0 
L 2938 2094 
Q 2938 2591 2744 2837 
Q 2550 3084 2163 3084 
Q 1697 3084 1428 2787 
Q 1159 2491 1159 1978 
L 1159 0 
L 581 0 
L 581 4863 
L 1159 4863 
L 1159 2956 
Q 1366 3272 1645 3428 
Q 1925 3584 2291 3584 
Q 2894 3584 3203 3211 
Q 3513 2838 3513 2113 
z
" transform="scale(0.015625)"/>
      <path id="DejaVuSans-63" d="M 3122 3366 
L 3122 2828 
Q 2878 2963 2633 3030 
Q 2388 3097 2138 3097 
Q 1578 3097 1268 2742 
Q 959 2388 959 1747 
Q 959 1106 1268 751 
Q 1578 397 2138 397 
Q 2388 397 2633 464 
Q 2878 531 3122 666 
L 3122 134 
Q 2881 22 2623 -34 
Q 2366 -91 2075 -91 
Q 1284 -91 818 406 
Q 353 903 353 1747 
Q 353 2603 823 3093 
Q 1294 3584 2113 3584 
Q 2378 3584 2631 3529 
Q 2884 3475 3122 3366 
z
" transform="scale(0.015625)"/>
      <path id="DejaVuSans-67" d="M 2906 1791 
Q 2906 2416 2648 2759 
Q 2391 3103 1925 3103 
Q 1463 3103 1205 2759 
Q 947 2416 947 1791 
Q 947 1169 1205 825 
Q 1463 481 1925 481 
Q 2391 481 2648 825 
Q 2906 1169 2906 1791 
z
M 3481 434 
Q 3481 -459 3084 -895 
Q 2688 -1331 1869 -1331 
Q 1566 -1331 1297 -1286 
Q 1028 -1241 775 -1147 
L 775 -588 
Q 1028 -725 1275 -790 
Q 1522 -856 1778 -856 
Q 2344 -856 2625 -561 
Q 2906 -266 2906 331 
L 2906 616 
Q 2728 306 2450 153 
Q 2172 0 1784 0 
Q 1141 0 747 490 
Q 353 981 353 1791 
Q 353 2603 747 3093 
Q 1141 3584 1784 3584 
Q 2172 3584 2450 3431 
Q 2728 3278 2906 2969 
L 2906 3500 
L 3481 3500 
L 3481 434 
z
" transform="scale(0.015625)"/>
      <path id="DejaVuSans-46" d="M 628 4666 
L 3309 4666 
L 3309 4134 
L 1259 4134 
L 1259 2759 
L 3109 2759 
L 3109 2228 
L 1259 2228 
L 1259 0 
L 628 0 
L 628 4666 
z
" transform="scale(0.015625)"/>
     </defs>
     <use xlink:href="#DejaVuSans-44"/>
     <use xlink:href="#DejaVuSans-65" transform="translate(77.001953 0)"/>
     <use xlink:href="#DejaVuSans-70" transform="translate(138.525391 0)"/>
     <use xlink:href="#DejaVuSans-65" transform="translate(202.001953 0)"/>
     <use xlink:href="#DejaVuSans-6e" transform="translate(263.525391 0)"/>
     <use xlink:href="#DejaVuSans-64" transform="translate(326.904297 0)"/>
     <use xlink:href="#DejaVuSans-65" transform="translate(390.380859 0)"/>
     <use xlink:href="#DejaVuSans-6e" transform="translate(451.904297 0)"/>
     <use xlink:href="#DejaVuSans-74" transform="translate(515.283203 0)"/>
     <use xlink:href="#DejaVuSans-20" transform="translate(554.492188 0)"/>
     <use xlink:href="#DejaVuSans-73" transform="translate(586.279297 0)"/>
     <use xlink:href="#DejaVuSans-61" transform="translate(638.378906 0)"/>
     <use xlink:href="#DejaVuSans-6d" transform="translate(699.658203 0)"/>
     <use xlink:href="#DejaVuSans-70" transform="translate(797.070312 0)"/>
     <use xlink:href="#DejaVuSans-6c" transform="translate(860.546875 0)"/>
     <use xlink:href="#DejaVuSans-65" transform="translate(888.330078 0)"/>
     <use xlink:href="#DejaVuSans-73" transform="translate(949.853516 0)"/>
     <use xlink:href="#DejaVuSans-3a" transform="translate(1001.953125 0)"/>
     <use xlink:href="#DejaVuSans-20" transform="translate(1035.644531 0)"/>
     <use xlink:href="#DejaVuSans-74" transform="translate(1067.431641 0)"/>
     <use xlink:href="#DejaVuSans-68" transform="translate(1106.640625 0)"/>
     <use xlink:href="#DejaVuSans-65" transform="translate(1170.019531 0)"/>
     <use xlink:href="#DejaVuSans-20" transform="translate(1231.542969 0)"/>
     <use xlink:href="#DejaVuSans-73" transform="translate(1263.330078 0)"/>
     <use xlink:href="#DejaVuSans-68" transform="translate(1315.429688 0)"/>
     <use xlink:href="#DejaVuSans-61" transform="translate(1378.808594 0)"/>
     <use xlink:href="#DejaVuSans-72" transform="translate(1440.087891 0)"/>
     <use xlink:href="#DejaVuSans-65" transform="translate(1478.951172 0)"/>
     <use xlink:href="#DejaVuSans-64" transform="translate(1540.474609 0)"/>
     <use xlink:href="#DejaVuSans-20" transform="translate(1603.951172 0)"/>
     <use xlink:href="#DejaVuSans-63" transform="translate(1635.738281 0)"/>
     <use xlink:href="#DejaVuSans-6f" transform="translate(1690.71875 0)"/>
     <use xlink:href="#DejaVuSans-6d" transform="translate(1751.900391 0)"/>
     <use xlink:href="#DejaVuSans-70" transform="translate(1849.3125 0)"/>
     <use xlink:href="#DejaVuSans-6f" transform="translate(1912.789062 0)"/>
     <use xlink:href="#DejaVuSans-6e" transform="translate(1973.970703 0)"/>
     <use xlink:href="#DejaVuSans-65" transform="translate(2037.349609 0)"/>
     <use xlink:href="#DejaVuSans-6e" transform="translate(2098.873047 0)"/>
     <use xlink:href="#DejaVuSans-74" transform="translate(2162.251953 0)"/>
     <use xlink:href="#DejaVuSans-20" transform="translate(2201.460938 0)"/>
     <use xlink:href="#DejaVuSans-67" transform="translate(2233.248047 0)"/>
     <use xlink:href="#DejaVuSans-6c" transform="translate(2296.724609 0)"/>
     <use xlink:href="#DejaVuSans-75" transform="translate(2324.507812 0)"/>
     <use xlink:href="#DejaVuSans-65" transform="translate(2387.886719 0)"/>
     <use xlink:href="#DejaVuSans-73" transform="translate(2449.410156 0)"/>
     <use xlink:href="#DejaVuSans-20" transform="translate(2501.509766 0)"/>
     <use xlink:href="#DejaVuSans-74" transform="translate(2533.296875 0)"/>
     <use xlink:href="#DejaVuSans-68" transform="translate(2572.505859 0)"/>
     <use xlink:href="#DejaVuSans-65" transform="translate(2635.884766 0)"/>
     <use xlink:href="#DejaVuSans-20" transform="translate(2697.408203 0)"/>
     <use xlink:href="#DejaVuSans-43" transform="translate(2729.195312 0)"/>
     <use xlink:href="#DejaVuSans-44" transform="translate(2799.019531 0)"/>
     <use xlink:href="#DejaVuSans-46" transform="translate(2876.021484 0)"/>
     <use xlink:href="#DejaVuSans-73" transform="translate(2933.541016 0)"/>
     <use xlink:href="#DejaVuSans-20" transform="translate(2985.640625 0)"/>
     <use xlink:href="#DejaVuSans-74" transform="translate(3017.427734 0)"/>
     <use xlink:href="#DejaVuSans-6f" transform="translate(3056.636719 0)"/>
     <use xlink:href="#DejaVuSans-67" transform="translate(3117.818359 0)"/>
     <use xlink:href="#DejaVuSans-65" transform="translate(3181.294922 0)"/>
     <use xlink:href="#DejaVuSans-74" transform="translate(3242.818359 0)"/>
     <use xlink:href="#DejaVuSans-68" transform="translate(3282.027344 0)"/>
     <use xlink:href="#DejaVuSans-65" transform="translate(3345.40625 0)"/>
     <use xlink:href="#DejaVuSans-72" transform="translate(3406.929688 0)"/>
    </g>
   </g>
   <g id="legend_1">
    <g id="line2d_29">
     <path d="M 56.239375 37.48625 
L 67.239375 37.48625 
L 67.239375 37.48625 
L 78.239375 37.48625 
L 78.239375 37.48625 
" style="fill: none; stroke: #e64173; stroke-width: 2; stroke-linecap: square"/>
    </g>
    <g id="text_17">
     <!-- before -->
     <g transform="translate(87.039375 41.33625) scale(0.11 -0.11)">
      <defs>
       <path id="DejaVuSans-66" d="M 2375 4863 
L 2375 4384 
L 1825 4384 
Q 1516 4384 1395 4259 
Q 1275 4134 1275 3809 
L 1275 3500 
L 2222 3500 
L 2222 3053 
L 1275 3053 
L 1275 0 
L 697 0 
L 697 3053 
L 147 3053 
L 147 3500 
L 697 3500 
L 697 3744 
Q 697 4328 969 4595 
Q 1241 4863 1831 4863 
L 2375 4863 
z
" transform="scale(0.015625)"/>
      </defs>
      <use xlink:href="#DejaVuSans-62"/>
      <use xlink:href="#DejaVuSans-65" transform="translate(63.476562 0)"/>
      <use xlink:href="#DejaVuSans-66" transform="translate(125 0)"/>
      <use xlink:href="#DejaVuSans-6f" transform="translate(160.205078 0)"/>
      <use xlink:href="#DejaVuSans-72" transform="translate(221.386719 0)"/>
      <use xlink:href="#DejaVuSans-65" transform="translate(260.25 0)"/>
     </g>
    </g>
    <g id="line2d_30">
     <path d="M 56.239375 53.632187 
L 67.239375 53.632187 
L 67.239375 53.632187 
L 78.239375 53.632187 
L 78.239375 53.632187 
" style="fill: none; stroke: #20b2aa; stroke-width: 2; stroke-linecap: square"/>
    </g>
    <g id="text_18">
     <!-- after -->
     <g transform="translate(87.039375 57.482187) scale(0.11 -0.11)">
      <use xlink:href="#DejaVuSans-61"/>
      <use xlink:href="#DejaVuSans-66" transform="translate(61.279297 0)"/>
      <use xlink:href="#DejaVuSans-74" transform="translate(94.734375 0)"/>
      <use xlink:href="#DejaVuSans-65" transform="translate(133.943359 0)"/>
      <use xlink:href="#DejaVuSans-72" transform="translate(195.466797 0)"/>
     </g>
    </g>
   </g>
  </g>
 </g>
 <defs>
  <clipPath id="pe7aceec7ab">
   <rect x="46.339375" y="23.077969" width="728.365" height="243.04"/>
  </clipPath>
 </defs>
</svg>
