<?xml version="1.0" encoding="utf-8" standalone="no"?>
<!DOCTYPE svg PUBLIC "-//W3C//DTD SVG 1.1//EN"
  "http://www.w3.org/Graphics/SVG/1.1/DTD/svg11.dtd">
<svg xmlns:xlink="http://www.w3.org/1999/xlink" width="633.1575pt" height="396.385625pt" viewBox="0 0 633.1575 396.385625" xmlns="http://www.w3.org/2000/svg" version="1.1">
 <metadata>
  <rdf:RDF xmlns:dc="http://purl.org/dc/elements/1.1/" xmlns:cc="http://creativecommons.org/ns#" xmlns:rdf="http://www.w3.org/1999/02/22-rdf-syntax-ns#">
   <cc:Work>
    <dc:type rdf:resource="http://purl.org/dc/dcmitype/StillImage"/>
    <dc:date>2026-05-18T23:18:24.100586</dc:date>
    <dc:format>image/svg+xml</dc:format>
    <dc:creator>
     <cc:Agent>
      <dc:title>Matplotlib v3.10.8, https://matplotlib.org/</dc:title>
     </cc:Agent>
    </dc:creator>
   </cc:Work>
  </rdf:RDF>
 </metadata>
 <defs>
  <style type="text/css">*{stroke-linejoin: round; stroke-linecap: butt}</style>
 </defs>
 <g id="figure_1">
  <g id="patch_1">
   <path d="M 0 396.385625 
L 633.1575 396.385625 
L 633.1575 0 
L 0 0 
z
" style="fill: #ffffff"/>
  </g>
  <g id="axes_1">
   <g id="patch_2">
    <path d="M 67.9575 354.958125 
L 625.9575 354.958125 
L 625.9575 22.318125 
L 67.9575 22.318125 
z
" style="fill: #ffffff"/>
   </g>
   <g id="patch_3">
    <path d="M 93.321136 354.958125 
L 106.497051 354.958125 
L 106.497051 354.958125 
L 93.321136 354.958125 
z
" clip-path="url(#p1924bc2955)" style="fill: #20b2aa"/>
   </g>
   <g id="patch_4">
    <path d="M 109.79103 354.958125 
L 122.966945 354.958125 
L 122.966945 354.958125 
L 109.79103 354.958125 
z
" clip-path="url(#p1924bc2955)" style="fill: #20b2aa"/>
   </g>
   <g id="patch_5">
    <path d="M 126.260924 354.958125 
L 139.436839 354.958125 
L 139.436839 354.958125 
L 126.260924 354.958125 
z
" clip-path="url(#p1924bc2955)" style="fill: #20b2aa"/>
   </g>
   <g id="patch_6">
    <path d="M 142.730818 354.958125 
L 155.906733 354.958125 
L 155.906733 354.958125 
L 142.730818 354.958125 
z
" clip-path="url(#p1924bc2955)" style="fill: #20b2aa"/>
   </g>
   <g id="patch_7">
    <path d="M 159.200711 354.958125 
L 172.376626 354.958125 
L 172.376626 354.958125 
L 159.200711 354.958125 
z
" clip-path="url(#p1924bc2955)" style="fill: #20b2aa"/>
   </g>
   <g id="patch_8">
    <path d="M 175.670605 354.958125 
L 188.84652 354.958125 
L 188.84652 354.958125 
L 175.670605 354.958125 
z
" clip-path="url(#p1924bc2955)" style="fill: #20b2aa"/>
   </g>
   <g id="patch_9">
    <path d="M 192.140499 354.958125 
L 205.316414 354.958125 
L 205.316414 354.958125 
L 192.140499 354.958125 
z
" clip-path="url(#p1924bc2955)" style="fill: #20b2aa"/>
   </g>
   <g id="patch_10">
    <path d="M 208.610393 354.958125 
L 221.786308 354.958125 
L 221.786308 354.958125 
L 208.610393 354.958125 
z
" clip-path="url(#p1924bc2955)" style="fill: #20b2aa"/>
   </g>
   <g id="patch_11">
    <path d="M 225.080286 354.958125 
L 238.256201 354.958125 
L 238.256201 354.958124 
L 225.080286 354.958124 
z
" clip-path="url(#p1924bc2955)" style="fill: #20b2aa"/>
   </g>
   <g id="patch_12">
    <path d="M 241.55018 354.958125 
L 254.726095 354.958125 
L 254.726095 354.958118 
L 241.55018 354.958118 
z
" clip-path="url(#p1924bc2955)" style="fill: #20b2aa"/>
   </g>
   <g id="patch_13">
    <path d="M 258.020074 354.958125 
L 271.195989 354.958125 
L 271.195989 354.958065 
L 258.020074 354.958065 
z
" clip-path="url(#p1924bc2955)" style="fill: #20b2aa"/>
   </g>
   <g id="patch_14">
    <path d="M 274.489968 354.958125 
L 287.665883 354.958125 
L 287.665883 354.957691 
L 274.489968 354.957691 
z
" clip-path="url(#p1924bc2955)" style="fill: #20b2aa"/>
   </g>
   <g id="patch_15">
    <path d="M 290.959861 354.958125 
L 304.135776 354.958125 
L 304.135776 354.955374 
L 290.959861 354.955374 
z
" clip-path="url(#p1924bc2955)" style="fill: #20b2aa"/>
   </g>
   <g id="patch_16">
    <path d="M 307.429755 354.958125 
L 320.60567 354.958125 
L 320.60567 354.942891 
L 307.429755 354.942891 
z
" clip-path="url(#p1924bc2955)" style="fill: #20b2aa"/>
   </g>
   <g id="patch_17">
    <path d="M 323.899649 354.958125 
L 337.075564 354.958125 
L 337.075564 354.884131 
L 323.899649 354.884131 
z
" clip-path="url(#p1924bc2955)" style="fill: #20b2aa"/>
   </g>
   <g id="patch_18">
    <path d="M 340.369543 354.958125 
L 353.545457 354.958125 
L 353.545457 354.642418 
L 340.369543 354.642418 
z
" clip-path="url(#p1924bc2955)" style="fill: #20b2aa"/>
   </g>
   <g id="patch_19">
    <path d="M 356.839436 354.958125 
L 370.015351 354.958125 
L 370.015351 353.774224 
L 356.839436 353.774224 
z
" clip-path="url(#p1924bc2955)" style="fill: #20b2aa"/>
   </g>
   <g id="patch_20">
    <path d="M 373.30933 354.958125 
L 386.485245 354.958125 
L 386.485245 351.058215 
L 373.30933 351.058215 
z
" clip-path="url(#p1924bc2955)" style="fill: #20b2aa"/>
   </g>
   <g id="patch_21">
    <path d="M 389.779224 354.958125 
L 402.955139 354.958125 
L 402.955139 343.691719 
L 389.779224 343.691719 
z
" clip-path="url(#p1924bc2955)" style="fill: #20b2aa"/>
   </g>
   <g id="patch_22">
    <path d="M 406.249117 354.958125 
L 419.425032 354.958125 
L 419.425032 326.495625 
L 406.249117 326.495625 
z
" clip-path="url(#p1924bc2955)" style="fill: #20b2aa"/>
   </g>
   <g id="patch_23">
    <path d="M 422.719011 354.958125 
L 435.894926 354.958125 
L 435.894926 292.340625 
L 422.719011 292.340625 
z
" clip-path="url(#p1924bc2955)" style="fill: #20b2aa"/>
   </g>
   <g id="patch_24">
    <path d="M 439.188905 354.958125 
L 452.36482 354.958125 
L 452.36482 235.686696 
L 439.188905 235.686696 
z
" clip-path="url(#p1924bc2955)" style="fill: #20b2aa"/>
   </g>
   <g id="patch_25">
    <path d="M 455.658799 354.958125 
L 468.834714 354.958125 
L 468.834714 159.786696 
L 455.658799 159.786696 
z
" clip-path="url(#p1924bc2955)" style="fill: #20b2aa"/>
   </g>
   <g id="patch_26">
    <path d="M 472.128692 354.958125 
L 485.304607 354.958125 
L 485.304607 83.415268 
L 472.128692 83.415268 
z
" clip-path="url(#p1924bc2955)" style="fill: #20b2aa"/>
   </g>
   <g id="patch_27">
    <path d="M 488.598586 354.958125 
L 501.774501 354.958125 
L 501.774501 38.158125 
L 488.598586 38.158125 
z
" clip-path="url(#p1924bc2955)" style="fill: #20b2aa"/>
   </g>
   <g id="patch_28">
    <path d="M 505.06848 354.958125 
L 518.244395 354.958125 
L 518.244395 50.830125 
L 505.06848 50.830125 
z
" clip-path="url(#p1924bc2955)" style="fill: #20b2aa"/>
   </g>
   <g id="patch_29">
    <path d="M 521.538374 354.958125 
L 534.714289 354.958125 
L 534.714289 121.01351 
L 521.538374 121.01351 
z
" clip-path="url(#p1924bc2955)" style="fill: #20b2aa"/>
   </g>
   <g id="patch_30">
    <path d="M 538.008267 354.958125 
L 551.184182 354.958125 
L 551.184182 216.324279 
L 538.008267 216.324279 
z
" clip-path="url(#p1924bc2955)" style="fill: #20b2aa"/>
   </g>
   <g id="patch_31">
    <path d="M 554.478161 354.958125 
L 567.654076 354.958125 
L 567.654076 295.54362 
L 554.478161 295.54362 
z
" clip-path="url(#p1924bc2955)" style="fill: #20b2aa"/>
   </g>
   <g id="patch_32">
    <path d="M 570.948055 354.958125 
L 584.12397 354.958125 
L 584.12397 338.567917 
L 570.948055 338.567917 
z
" clip-path="url(#p1924bc2955)" style="fill: #20b2aa"/>
   </g>
   <g id="patch_33">
    <path d="M 587.417949 354.958125 
L 600.593864 354.958125 
L 600.593864 352.772764 
L 587.417949 352.772764 
z
" clip-path="url(#p1924bc2955)" style="fill: #20b2aa"/>
   </g>
   <g id="matplotlib.axis_1">
    <g id="xtick_1">
     <g id="line2d_1">
      <defs>
       <path id="m2b6f26cc5c" d="M 0 0 
L 0 3.5 
" style="stroke: #000000; stroke-width: 0.8"/>
      </defs>
      <g>
       <use xlink:href="#m2b6f26cc5c" x="99.909094" y="354.958125" style="stroke: #000000; stroke-width: 0.8"/>
      </g>
     </g>
     <g id="text_1">
      <!-- 0 -->
      <g transform="translate(95.455344 372.595937) scale(0.14 -0.14)">
       <defs>
        <path id="DejaVuSans-30" d="M 2034 4250 
Q 1547 4250 1301 3770 
Q 1056 3291 1056 2328 
Q 1056 1369 1301 889 
Q 1547 409 2034 409 
Q 2525 409 2770 889 
Q 3016 1369 3016 2328 
Q 3016 3291 2770 3770 
Q 2525 4250 2034 4250 
z
M 2034 4750 
Q 2819 4750 3233 4129 
Q 3647 3509 3647 2328 
Q 3647 1150 3233 529 
Q 2819 -91 2034 -91 
Q 1250 -91 836 529 
Q 422 1150 422 2328 
Q 422 3509 836 4129 
Q 1250 4750 2034 4750 
z
" transform="scale(0.015625)"/>
       </defs>
       <use xlink:href="#DejaVuSans-30"/>
      </g>
     </g>
    </g>
    <g id="xtick_2">
     <g id="line2d_2">
      <g>
       <use xlink:href="#m2b6f26cc5c" x="182.258563" y="354.958125" style="stroke: #000000; stroke-width: 0.8"/>
      </g>
     </g>
     <g id="text_2">
      <!-- 5 -->
      <g transform="translate(177.804813 372.595937) scale(0.14 -0.14)">
       <defs>
        <path id="DejaVuSans-35" d="M 691 4666 
L 3169 4666 
L 3169 4134 
L 1269 4134 
L 1269 2991 
Q 1406 3038 1543 3061 
Q 1681 3084 1819 3084 
Q 2600 3084 3056 2656 
Q 3513 2228 3513 1497 
Q 3513 744 3044 326 
Q 2575 -91 1722 -91 
Q 1428 -91 1123 -41 
Q 819 9 494 109 
L 494 744 
Q 775 591 1075 516 
Q 1375 441 1709 441 
Q 2250 441 2565 725 
Q 2881 1009 2881 1497 
Q 2881 1984 2565 2268 
Q 2250 2553 1709 2553 
Q 1456 2553 1204 2497 
Q 953 2441 691 2322 
L 691 4666 
z
" transform="scale(0.015625)"/>
       </defs>
       <use xlink:href="#DejaVuSans-35"/>
      </g>
     </g>
    </g>
    <g id="xtick_3">
     <g id="line2d_3">
      <g>
       <use xlink:href="#m2b6f26cc5c" x="264.608031" y="354.958125" style="stroke: #000000; stroke-width: 0.8"/>
      </g>
     </g>
     <g id="text_3">
      <!-- 10 -->
      <g transform="translate(255.700531 372.595937) scale(0.14 -0.14)">
       <defs>
        <path id="DejaVuSans-31" d="M 794 531 
L 1825 531 
L 1825 4091 
L 703 3866 
L 703 4441 
L 1819 4666 
L 2450 4666 
L 2450 531 
L 3481 531 
L 3481 0 
L 794 0 
L 794 531 
z
" transform="scale(0.015625)"/>
       </defs>
       <use xlink:href="#DejaVuSans-31"/>
       <use xlink:href="#DejaVuSans-30" transform="translate(63.623047 0)"/>
      </g>
     </g>
    </g>
    <g id="xtick_4">
     <g id="line2d_4">
      <g>
       <use xlink:href="#m2b6f26cc5c" x="346.9575" y="354.958125" style="stroke: #000000; stroke-width: 0.8"/>
      </g>
     </g>
     <g id="text_4">
      <!-- 15 -->
      <g transform="translate(338.05 372.595937) scale(0.14 -0.14)">
       <use xlink:href="#DejaVuSans-31"/>
       <use xlink:href="#DejaVuSans-35" transform="translate(63.623047 0)"/>
      </g>
     </g>
    </g>
    <g id="xtick_5">
     <g id="line2d_5">
      <g>
       <use xlink:href="#m2b6f26cc5c" x="429.306969" y="354.958125" style="stroke: #000000; stroke-width: 0.8"/>
      </g>
     </g>
     <g id="text_5">
      <!-- 20 -->
      <g transform="translate(420.399469 372.595937) scale(0.14 -0.14)">
       <defs>
        <path id="DejaVuSans-32" d="M 1228 531 
L 3431 531 
L 3431 0 
L 469 0 
L 469 531 
Q 828 903 1448 1529 
Q 2069 2156 2228 2338 
Q 2531 2678 2651 2914 
Q 2772 3150 2772 3378 
Q 2772 3750 2511 3984 
Q 2250 4219 1831 4219 
Q 1534 4219 1204 4116 
Q 875 4013 500 3803 
L 500 4441 
Q 881 4594 1212 4672 
Q 1544 4750 1819 4750 
Q 2544 4750 2975 4387 
Q 3406 4025 3406 3419 
Q 3406 3131 3298 2873 
Q 3191 2616 2906 2266 
Q 2828 2175 2409 1742 
Q 1991 1309 1228 531 
z
" transform="scale(0.015625)"/>
       </defs>
       <use xlink:href="#DejaVuSans-32"/>
       <use xlink:href="#DejaVuSans-30" transform="translate(63.623047 0)"/>
      </g>
     </g>
    </g>
    <g id="xtick_6">
     <g id="line2d_6">
      <g>
       <use xlink:href="#m2b6f26cc5c" x="511.656437" y="354.958125" style="stroke: #000000; stroke-width: 0.8"/>
      </g>
     </g>
     <g id="text_6">
      <!-- 25 -->
      <g transform="translate(502.748937 372.595937) scale(0.14 -0.14)">
       <use xlink:href="#DejaVuSans-32"/>
       <use xlink:href="#DejaVuSans-35" transform="translate(63.623047 0)"/>
      </g>
     </g>
    </g>
    <g id="xtick_7">
     <g id="line2d_7">
      <g>
       <use xlink:href="#m2b6f26cc5c" x="594.005906" y="354.958125" style="stroke: #000000; stroke-width: 0.8"/>
      </g>
     </g>
     <g id="text_7">
      <!-- 30 -->
      <g transform="translate(585.098406 372.595937) scale(0.14 -0.14)">
       <defs>
        <path id="DejaVuSans-33" d="M 2597 2516 
Q 3050 2419 3304 2112 
Q 3559 1806 3559 1356 
Q 3559 666 3084 287 
Q 2609 -91 1734 -91 
Q 1441 -91 1130 -33 
Q 819 25 488 141 
L 488 750 
Q 750 597 1062 519 
Q 1375 441 1716 441 
Q 2309 441 2620 675 
Q 2931 909 2931 1356 
Q 2931 1769 2642 2001 
Q 2353 2234 1838 2234 
L 1294 2234 
L 1294 2753 
L 1863 2753 
Q 2328 2753 2575 2939 
Q 2822 3125 2822 3475 
Q 2822 3834 2567 4026 
Q 2313 4219 1838 4219 
Q 1578 4219 1281 4162 
Q 984 4106 628 3988 
L 628 4550 
Q 988 4650 1302 4700 
Q 1616 4750 1894 4750 
Q 2613 4750 3031 4423 
Q 3450 4097 3450 3541 
Q 3450 3153 3228 2886 
Q 3006 2619 2597 2516 
z
" transform="scale(0.015625)"/>
       </defs>
       <use xlink:href="#DejaVuSans-33"/>
       <use xlink:href="#DejaVuSans-30" transform="translate(63.623047 0)"/>
      </g>
     </g>
    </g>
    <g id="text_8">
     <!-- Number of successes -->
     <g transform="translate(293.634844 387.105937) scale(0.1 -0.1)">
      <defs>
       <path id="DejaVuSans-4e" d="M 628 4666 
L 1478 4666 
L 3547 763 
L 3547 4666 
L 4159 4666 
L 4159 0 
L 3309 0 
L 1241 3903 
L 1241 0 
L 628 0 
L 628 4666 
z
" transform="scale(0.015625)"/>
       <path id="DejaVuSans-75" d="M 544 1381 
L 544 3500 
L 1119 3500 
L 1119 1403 
Q 1119 906 1312 657 
Q 1506 409 1894 409 
Q 2359 409 2629 706 
Q 2900 1003 2900 1516 
L 2900 3500 
L 3475 3500 
L 3475 0 
L 2900 0 
L 2900 538 
Q 2691 219 2414 64 
Q 2138 -91 1772 -91 
Q 1169 -91 856 284 
Q 544 659 544 1381 
z
M 1991 3584 
L 1991 3584 
z
" transform="scale(0.015625)"/>
       <path id="DejaVuSans-6d" d="M 3328 2828 
Q 3544 3216 3844 3400 
Q 4144 3584 4550 3584 
Q 5097 3584 5394 3201 
Q 5691 2819 5691 2113 
L 5691 0 
L 5113 0 
L 5113 2094 
Q 5113 2597 4934 2840 
Q 4756 3084 4391 3084 
Q 3944 3084 3684 2787 
Q 3425 2491 3425 1978 
L 3425 0 
L 2847 0 
L 2847 2094 
Q 2847 2600 2669 2842 
Q 2491 3084 2119 3084 
Q 1678 3084 1418 2786 
Q 1159 2488 1159 1978 
L 1159 0 
L 581 0 
L 581 3500 
L 1159 3500 
L 1159 2956 
Q 1356 3278 1631 3431 
Q 1906 3584 2284 3584 
Q 2666 3584 2933 3390 
Q 3200 3197 3328 2828 
z
" transform="scale(0.015625)"/>
       <path id="DejaVuSans-62" d="M 3116 1747 
Q 3116 2381 2855 2742 
Q 2594 3103 2138 3103 
Q 1681 3103 1420 2742 
Q 1159 2381 1159 1747 
Q 1159 1113 1420 752 
Q 1681 391 2138 391 
Q 2594 391 2855 752 
Q 3116 1113 3116 1747 
z
M 1159 2969 
Q 1341 3281 1617 3432 
Q 1894 3584 2278 3584 
Q 2916 3584 3314 3078 
Q 3713 2572 3713 1747 
Q 3713 922 3314 415 
Q 2916 -91 2278 -91 
Q 1894 -91 1617 61 
Q 1341 213 1159 525 
L 1159 0 
L 581 0 
L 581 4863 
L 1159 4863 
L 1159 2969 
z
" transform="scale(0.015625)"/>
       <path id="DejaVuSans-65" d="M 3597 1894 
L 3597 1613 
L 953 1613 
Q 991 1019 1311 708 
Q 1631 397 2203 397 
Q 2534 397 2845 478 
Q 3156 559 3463 722 
L 3463 178 
Q 3153 47 2828 -22 
Q 2503 -91 2169 -91 
Q 1331 -91 842 396 
Q 353 884 353 1716 
Q 353 2575 817 3079 
Q 1281 3584 2069 3584 
Q 2775 3584 3186 3129 
Q 3597 2675 3597 1894 
z
M 3022 2063 
Q 3016 2534 2758 2815 
Q 2500 3097 2075 3097 
Q 1594 3097 1305 2825 
Q 1016 2553 972 2059 
L 3022 2063 
z
" transform="scale(0.015625)"/>
       <path id="DejaVuSans-72" d="M 2631 2963 
Q 2534 3019 2420 3045 
Q 2306 3072 2169 3072 
Q 1681 3072 1420 2755 
Q 1159 2438 1159 1844 
L 1159 0 
L 581 0 
L 581 3500 
L 1159 3500 
L 1159 2956 
Q 1341 3275 1631 3429 
Q 1922 3584 2338 3584 
Q 2397 3584 2469 3576 
Q 2541 3569 2628 3553 
L 2631 2963 
z
" transform="scale(0.015625)"/>
       <path id="DejaVuSans-20" transform="scale(0.015625)"/>
       <path id="DejaVuSans-6f" d="M 1959 3097 
Q 1497 3097 1228 2736 
Q 959 2375 959 1747 
Q 959 1119 1226 758 
Q 1494 397 1959 397 
Q 2419 397 2687 759 
Q 2956 1122 2956 1747 
Q 2956 2369 2687 2733 
Q 2419 3097 1959 3097 
z
M 1959 3584 
Q 2709 3584 3137 3096 
Q 3566 2609 3566 1747 
Q 3566 888 3137 398 
Q 2709 -91 1959 -91 
Q 1206 -91 779 398 
Q 353 888 353 1747 
Q 353 2609 779 3096 
Q 1206 3584 1959 3584 
z
" transform="scale(0.015625)"/>
       <path id="DejaVuSans-66" d="M 2375 4863 
L 2375 4384 
L 1825 4384 
Q 1516 4384 1395 4259 
Q 1275 4134 1275 3809 
L 1275 3500 
L 2222 3500 
L 2222 3053 
L 1275 3053 
L 1275 0 
L 697 0 
L 697 3053 
L 147 3053 
L 147 3500 
L 697 3500 
L 697 3744 
Q 697 4328 969 4595 
Q 1241 4863 1831 4863 
L 2375 4863 
z
" transform="scale(0.015625)"/>
       <path id="DejaVuSans-73" d="M 2834 3397 
L 2834 2853 
Q 2591 2978 2328 3040 
Q 2066 3103 1784 3103 
Q 1356 3103 1142 2972 
Q 928 2841 928 2578 
Q 928 2378 1081 2264 
Q 1234 2150 1697 2047 
L 1894 2003 
Q 2506 1872 2764 1633 
Q 3022 1394 3022 966 
Q 3022 478 2636 193 
Q 2250 -91 1575 -91 
Q 1294 -91 989 -36 
Q 684 19 347 128 
L 347 722 
Q 666 556 975 473 
Q 1284 391 1588 391 
Q 1994 391 2212 530 
Q 2431 669 2431 922 
Q 2431 1156 2273 1281 
Q 2116 1406 1581 1522 
L 1381 1569 
Q 847 1681 609 1914 
Q 372 2147 372 2553 
Q 372 3047 722 3315 
Q 1072 3584 1716 3584 
Q 2034 3584 2315 3537 
Q 2597 3491 2834 3397 
z
" transform="scale(0.015625)"/>
       <path id="DejaVuSans-63" d="M 3122 3366 
L 3122 2828 
Q 2878 2963 2633 3030 
Q 2388 3097 2138 3097 
Q 1578 3097 1268 2742 
Q 959 2388 959 1747 
Q 959 1106 1268 751 
Q 1578 397 2138 397 
Q 2388 397 2633 464 
Q 2878 531 3122 666 
L 3122 134 
Q 2881 22 2623 -34 
Q 2366 -91 2075 -91 
Q 1284 -91 818 406 
Q 353 903 353 1747 
Q 353 2603 823 3093 
Q 1294 3584 2113 3584 
Q 2378 3584 2631 3529 
Q 2884 3475 3122 3366 
z
" transform="scale(0.015625)"/>
      </defs>
      <use xlink:href="#DejaVuSans-4e"/>
      <use xlink:href="#DejaVuSans-75" transform="translate(74.804688 0)"/>
      <use xlink:href="#DejaVuSans-6d" transform="translate(138.183594 0)"/>
      <use xlink:href="#DejaVuSans-62" transform="translate(235.595703 0)"/>
      <use xlink:href="#DejaVuSans-65" transform="translate(299.072266 0)"/>
      <use xlink:href="#DejaVuSans-72" transform="translate(360.595703 0)"/>
      <use xlink:href="#DejaVuSans-20" transform="translate(401.708984 0)"/>
      <use xlink:href="#DejaVuSans-6f" transform="translate(433.496094 0)"/>
      <use xlink:href="#DejaVuSans-66" transform="translate(494.677734 0)"/>
      <use xlink:href="#DejaVuSans-20" transform="translate(529.882812 0)"/>
      <use xlink:href="#DejaVuSans-73" transform="translate(561.669922 0)"/>
      <use xlink:href="#DejaVuSans-75" transform="translate(613.769531 0)"/>
      <use xlink:href="#DejaVuSans-63" transform="translate(677.148438 0)"/>
      <use xlink:href="#DejaVuSans-63" transform="translate(732.128906 0)"/>
      <use xlink:href="#DejaVuSans-65" transform="translate(787.109375 0)"/>
      <use xlink:href="#DejaVuSans-73" transform="translate(848.632812 0)"/>
      <use xlink:href="#DejaVuSans-73" transform="translate(900.732422 0)"/>
      <use xlink:href="#DejaVuSans-65" transform="translate(952.832031 0)"/>
      <use xlink:href="#DejaVuSans-73" transform="translate(1014.355469 0)"/>
     </g>
    </g>
   </g>
   <g id="matplotlib.axis_2">
    <g id="ytick_1">
     <g id="line2d_8">
      <defs>
       <path id="m14719c0307" d="M 0 0 
L -3.5 0 
" style="stroke: #000000; stroke-width: 0.8"/>
      </defs>
      <g>
       <use xlink:href="#m14719c0307" x="67.9575" y="354.958125" style="stroke: #000000; stroke-width: 0.8"/>
      </g>
     </g>
     <g id="text_9">
      <!-- 0.000 -->
      <g transform="translate(20.878125 360.277031) scale(0.14 -0.14)">
       <defs>
        <path id="DejaVuSans-2e" d="M 684 794 
L 1344 794 
L 1344 0 
L 684 0 
L 684 794 
z
" transform="scale(0.015625)"/>
       </defs>
       <use xlink:href="#DejaVuSans-30"/>
       <use xlink:href="#DejaVuSans-2e" transform="translate(63.623047 0)"/>
       <use xlink:href="#DejaVuSans-30" transform="translate(95.410156 0)"/>
       <use xlink:href="#DejaVuSans-30" transform="translate(159.033203 0)"/>
       <use xlink:href="#DejaVuSans-30" transform="translate(222.65625 0)"/>
      </g>
     </g>
    </g>
    <g id="ytick_2">
     <g id="line2d_9">
      <g>
       <use xlink:href="#m14719c0307" x="67.9575" y="310.825109" style="stroke: #000000; stroke-width: 0.8"/>
      </g>
     </g>
     <g id="text_10">
      <!-- 0.025 -->
      <g transform="translate(20.878125 316.144015) scale(0.14 -0.14)">
       <use xlink:href="#DejaVuSans-30"/>
       <use xlink:href="#DejaVuSans-2e" transform="translate(63.623047 0)"/>
       <use xlink:href="#DejaVuSans-30" transform="translate(95.410156 0)"/>
       <use xlink:href="#DejaVuSans-32" transform="translate(159.033203 0)"/>
       <use xlink:href="#DejaVuSans-35" transform="translate(222.65625 0)"/>
      </g>
     </g>
    </g>
    <g id="ytick_3">
     <g id="line2d_10">
      <g>
       <use xlink:href="#m14719c0307" x="67.9575" y="266.692092" style="stroke: #000000; stroke-width: 0.8"/>
      </g>
     </g>
     <g id="text_11">
      <!-- 0.050 -->
      <g transform="translate(20.878125 272.010998) scale(0.14 -0.14)">
       <use xlink:href="#DejaVuSans-30"/>
       <use xlink:href="#DejaVuSans-2e" transform="translate(63.623047 0)"/>
       <use xlink:href="#DejaVuSans-30" transform="translate(95.410156 0)"/>
       <use xlink:href="#DejaVuSans-35" transform="translate(159.033203 0)"/>
       <use xlink:href="#DejaVuSans-30" transform="translate(222.65625 0)"/>
      </g>
     </g>
    </g>
    <g id="ytick_4">
     <g id="line2d_11">
      <g>
       <use xlink:href="#m14719c0307" x="67.9575" y="222.559076" style="stroke: #000000; stroke-width: 0.8"/>
      </g>
     </g>
     <g id="text_12">
      <!-- 0.075 -->
      <g transform="translate(20.878125 227.877982) scale(0.14 -0.14)">
       <defs>
        <path id="DejaVuSans-37" d="M 525 4666 
L 3525 4666 
L 3525 4397 
L 1831 0 
L 1172 0 
L 2766 4134 
L 525 4134 
L 525 4666 
z
" transform="scale(0.015625)"/>
       </defs>
       <use xlink:href="#DejaVuSans-30"/>
       <use xlink:href="#DejaVuSans-2e" transform="translate(63.623047 0)"/>
       <use xlink:href="#DejaVuSans-30" transform="translate(95.410156 0)"/>
       <use xlink:href="#DejaVuSans-37" transform="translate(159.033203 0)"/>
       <use xlink:href="#DejaVuSans-35" transform="translate(222.65625 0)"/>
      </g>
     </g>
    </g>
    <g id="ytick_5">
     <g id="line2d_12">
      <g>
       <use xlink:href="#m14719c0307" x="67.9575" y="178.426059" style="stroke: #000000; stroke-width: 0.8"/>
      </g>
     </g>
     <g id="text_13">
      <!-- 0.100 -->
      <g transform="translate(20.878125 183.744966) scale(0.14 -0.14)">
       <use xlink:href="#DejaVuSans-30"/>
       <use xlink:href="#DejaVuSans-2e" transform="translate(63.623047 0)"/>
       <use xlink:href="#DejaVuSans-31" transform="translate(95.410156 0)"/>
       <use xlink:href="#DejaVuSans-30" transform="translate(159.033203 0)"/>
       <use xlink:href="#DejaVuSans-30" transform="translate(222.65625 0)"/>
      </g>
     </g>
    </g>
    <g id="ytick_6">
     <g id="line2d_13">
      <g>
       <use xlink:href="#m14719c0307" x="67.9575" y="134.293043" style="stroke: #000000; stroke-width: 0.8"/>
      </g>
     </g>
     <g id="text_14">
      <!-- 0.125 -->
      <g transform="translate(20.878125 139.611949) scale(0.14 -0.14)">
       <use xlink:href="#DejaVuSans-30"/>
       <use xlink:href="#DejaVuSans-2e" transform="translate(63.623047 0)"/>
       <use xlink:href="#DejaVuSans-31" transform="translate(95.410156 0)"/>
       <use xlink:href="#DejaVuSans-32" transform="translate(159.033203 0)"/>
       <use xlink:href="#DejaVuSans-35" transform="translate(222.65625 0)"/>
      </g>
     </g>
    </g>
    <g id="ytick_7">
     <g id="line2d_14">
      <g>
       <use xlink:href="#m14719c0307" x="67.9575" y="90.160027" style="stroke: #000000; stroke-width: 0.8"/>
      </g>
     </g>
     <g id="text_15">
      <!-- 0.150 -->
      <g transform="translate(20.878125 95.478933) scale(0.14 -0.14)">
       <use xlink:href="#DejaVuSans-30"/>
       <use xlink:href="#DejaVuSans-2e" transform="translate(63.623047 0)"/>
       <use xlink:href="#DejaVuSans-31" transform="translate(95.410156 0)"/>
       <use xlink:href="#DejaVuSans-35" transform="translate(159.033203 0)"/>
       <use xlink:href="#DejaVuSans-30" transform="translate(222.65625 0)"/>
      </g>
     </g>
    </g>
    <g id="ytick_8">
     <g id="line2d_15">
      <g>
       <use xlink:href="#m14719c0307" x="67.9575" y="46.02701" style="stroke: #000000; stroke-width: 0.8"/>
      </g>
     </g>
     <g id="text_16">
      <!-- 0.175 -->
      <g transform="translate(20.878125 51.345917) scale(0.14 -0.14)">
       <use xlink:href="#DejaVuSans-30"/>
       <use xlink:href="#DejaVuSans-2e" transform="translate(63.623047 0)"/>
       <use xlink:href="#DejaVuSans-31" transform="translate(95.410156 0)"/>
       <use xlink:href="#DejaVuSans-37" transform="translate(159.033203 0)"/>
       <use xlink:href="#DejaVuSans-35" transform="translate(222.65625 0)"/>
      </g>
     </g>
    </g>
    <g id="text_17">
     <!-- PMF, Binom(30, 0.8) -->
     <g transform="translate(14.798438 239.332656) rotate(-90) scale(0.1 -0.1)">
      <defs>
       <path id="DejaVuSans-50" d="M 1259 4147 
L 1259 2394 
L 2053 2394 
Q 2494 2394 2734 2622 
Q 2975 2850 2975 3272 
Q 2975 3691 2734 3919 
Q 2494 4147 2053 4147 
L 1259 4147 
z
M 628 4666 
L 2053 4666 
Q 2838 4666 3239 4311 
Q 3641 3956 3641 3272 
Q 3641 2581 3239 2228 
Q 2838 1875 2053 1875 
L 1259 1875 
L 1259 0 
L 628 0 
L 628 4666 
z
" transform="scale(0.015625)"/>
       <path id="DejaVuSans-4d" d="M 628 4666 
L 1569 4666 
L 2759 1491 
L 3956 4666 
L 4897 4666 
L 4897 0 
L 4281 0 
L 4281 4097 
L 3078 897 
L 2444 897 
L 1241 4097 
L 1241 0 
L 628 0 
L 628 4666 
z
" transform="scale(0.015625)"/>
       <path id="DejaVuSans-46" d="M 628 4666 
L 3309 4666 
L 3309 4134 
L 1259 4134 
L 1259 2759 
L 3109 2759 
L 3109 2228 
L 1259 2228 
L 1259 0 
L 628 0 
L 628 4666 
z
" transform="scale(0.015625)"/>
       <path id="DejaVuSans-2c" d="M 750 794 
L 1409 794 
L 1409 256 
L 897 -744 
L 494 -744 
L 750 256 
L 750 794 
z
" transform="scale(0.015625)"/>
       <path id="DejaVuSans-42" d="M 1259 2228 
L 1259 519 
L 2272 519 
Q 2781 519 3026 730 
Q 3272 941 3272 1375 
Q 3272 1813 3026 2020 
Q 2781 2228 2272 2228 
L 1259 2228 
z
M 1259 4147 
L 1259 2741 
L 2194 2741 
Q 2656 2741 2882 2914 
Q 3109 3088 3109 3444 
Q 3109 3797 2882 3972 
Q 2656 4147 2194 4147 
L 1259 4147 
z
M 628 4666 
L 2241 4666 
Q 2963 4666 3353 4366 
Q 3744 4066 3744 3513 
Q 3744 3084 3544 2831 
Q 3344 2578 2956 2516 
Q 3422 2416 3680 2098 
Q 3938 1781 3938 1306 
Q 3938 681 3513 340 
Q 3088 0 2303 0 
L 628 0 
L 628 4666 
z
" transform="scale(0.015625)"/>
       <path id="DejaVuSans-69" d="M 603 3500 
L 1178 3500 
L 1178 0 
L 603 0 
L 603 3500 
z
M 603 4863 
L 1178 4863 
L 1178 4134 
L 603 4134 
L 603 4863 
z
" transform="scale(0.015625)"/>
       <path id="DejaVuSans-6e" d="M 3513 2113 
L 3513 0 
L 2938 0 
L 2938 2094 
Q 2938 2591 2744 2837 
Q 2550 3084 2163 3084 
Q 1697 3084 1428 2787 
Q 1159 2491 1159 1978 
L 1159 0 
L 581 0 
L 581 3500 
L 1159 3500 
L 1159 2956 
Q 1366 3272 1645 3428 
Q 1925 3584 2291 3584 
Q 2894 3584 3203 3211 
Q 3513 2838 3513 2113 
z
" transform="scale(0.015625)"/>
       <path id="DejaVuSans-28" d="M 1984 4856 
Q 1566 4138 1362 3434 
Q 1159 2731 1159 2009 
Q 1159 1288 1364 580 
Q 1569 -128 1984 -844 
L 1484 -844 
Q 1016 -109 783 600 
Q 550 1309 550 2009 
Q 550 2706 781 3412 
Q 1013 4119 1484 4856 
L 1984 4856 
z
" transform="scale(0.015625)"/>
       <path id="DejaVuSans-38" d="M 2034 2216 
Q 1584 2216 1326 1975 
Q 1069 1734 1069 1313 
Q 1069 891 1326 650 
Q 1584 409 2034 409 
Q 2484 409 2743 651 
Q 3003 894 3003 1313 
Q 3003 1734 2745 1975 
Q 2488 2216 2034 2216 
z
M 1403 2484 
Q 997 2584 770 2862 
Q 544 3141 544 3541 
Q 544 4100 942 4425 
Q 1341 4750 2034 4750 
Q 2731 4750 3128 4425 
Q 3525 4100 3525 3541 
Q 3525 3141 3298 2862 
Q 3072 2584 2669 2484 
Q 3125 2378 3379 2068 
Q 3634 1759 3634 1313 
Q 3634 634 3220 271 
Q 2806 -91 2034 -91 
Q 1263 -91 848 271 
Q 434 634 434 1313 
Q 434 1759 690 2068 
Q 947 2378 1403 2484 
z
M 1172 3481 
Q 1172 3119 1398 2916 
Q 1625 2713 2034 2713 
Q 2441 2713 2670 2916 
Q 2900 3119 2900 3481 
Q 2900 3844 2670 4047 
Q 2441 4250 2034 4250 
Q 1625 4250 1398 4047 
Q 1172 3844 1172 3481 
z
" transform="scale(0.015625)"/>
       <path id="DejaVuSans-29" d="M 513 4856 
L 1013 4856 
Q 1481 4119 1714 3412 
Q 1947 2706 1947 2009 
Q 1947 1309 1714 600 
Q 1481 -109 1013 -844 
L 513 -844 
Q 928 -128 1133 580 
Q 1338 1288 1338 2009 
Q 1338 2731 1133 3434 
Q 928 4138 513 4856 
z
" transform="scale(0.015625)"/>
      </defs>
      <use xlink:href="#DejaVuSans-50"/>
      <use xlink:href="#DejaVuSans-4d" transform="translate(60.302734 0)"/>
      <use xlink:href="#DejaVuSans-46" transform="translate(146.582031 0)"/>
      <use xlink:href="#DejaVuSans-2c" transform="translate(204.101562 0)"/>
      <use xlink:href="#DejaVuSans-20" transform="translate(235.888672 0)"/>
      <use xlink:href="#DejaVuSans-42" transform="translate(267.675781 0)"/>
      <use xlink:href="#DejaVuSans-69" transform="translate(336.279297 0)"/>
      <use xlink:href="#DejaVuSans-6e" transform="translate(364.0625 0)"/>
      <use xlink:href="#DejaVuSans-6f" transform="translate(427.441406 0)"/>
      <use xlink:href="#DejaVuSans-6d" transform="translate(488.623047 0)"/>
      <use xlink:href="#DejaVuSans-28" transform="translate(586.035156 0)"/>
      <use xlink:href="#DejaVuSans-33" transform="translate(625.048828 0)"/>
      <use xlink:href="#DejaVuSans-30" transform="translate(688.671875 0)"/>
      <use xlink:href="#DejaVuSans-2c" transform="translate(752.294922 0)"/>
      <use xlink:href="#DejaVuSans-20" transform="translate(784.082031 0)"/>
      <use xlink:href="#DejaVuSans-30" transform="translate(815.869141 0)"/>
      <use xlink:href="#DejaVuSans-2e" transform="translate(879.492188 0)"/>
      <use xlink:href="#DejaVuSans-38" transform="translate(911.279297 0)"/>
      <use xlink:href="#DejaVuSans-29" transform="translate(974.902344 0)"/>
     </g>
    </g>
   </g>
   <g id="patch_34">
    <path d="M 67.9575 354.958125 
L 67.9575 22.318125 
" style="fill: none; stroke: #000000; stroke-width: 0.8; stroke-linejoin: miter; stroke-linecap: square"/>
   </g>
   <g id="patch_35">
    <path d="M 625.9575 354.958125 
L 625.9575 22.318125 
" style="fill: none; stroke: #000000; stroke-width: 0.8; stroke-linejoin: miter; stroke-linecap: square"/>
   </g>
   <g id="patch_36">
    <path d="M 67.9575 354.958125 
L 625.9575 354.958125 
" style="fill: none; stroke: #000000; stroke-width: 0.8; stroke-linejoin: miter; stroke-linecap: square"/>
   </g>
   <g id="patch_37">
    <path d="M 67.9575 22.318125 
L 625.9575 22.318125 
" style="fill: none; stroke: #000000; stroke-width: 0.8; stroke-linejoin: miter; stroke-linecap: square"/>
   </g>
   <g id="text_18">
    <!-- Binomial distribution -->
    <g transform="translate(284.746875 16.318125) scale(0.12 -0.12)">
     <defs>
      <path id="DejaVuSans-61" d="M 2194 1759 
Q 1497 1759 1228 1600 
Q 959 1441 959 1056 
Q 959 750 1161 570 
Q 1363 391 1709 391 
Q 2188 391 2477 730 
Q 2766 1069 2766 1631 
L 2766 1759 
L 2194 1759 
z
M 3341 1997 
L 3341 0 
L 2766 0 
L 2766 531 
Q 2569 213 2275 61 
Q 1981 -91 1556 -91 
Q 1019 -91 701 211 
Q 384 513 384 1019 
Q 384 1609 779 1909 
Q 1175 2209 1959 2209 
L 2766 2209 
L 2766 2266 
Q 2766 2663 2505 2880 
Q 2244 3097 1772 3097 
Q 1472 3097 1187 3025 
Q 903 2953 641 2809 
L 641 3341 
Q 956 3463 1253 3523 
Q 1550 3584 1831 3584 
Q 2591 3584 2966 3190 
Q 3341 2797 3341 1997 
z
" transform="scale(0.015625)"/>
      <path id="DejaVuSans-6c" d="M 603 4863 
L 1178 4863 
L 1178 0 
L 603 0 
L 603 4863 
z
" transform="scale(0.015625)"/>
      <path id="DejaVuSans-64" d="M 2906 2969 
L 2906 4863 
L 3481 4863 
L 3481 0 
L 2906 0 
L 2906 525 
Q 2725 213 2448 61 
Q 2172 -91 1784 -91 
Q 1150 -91 751 415 
Q 353 922 353 1747 
Q 353 2572 751 3078 
Q 1150 3584 1784 3584 
Q 2172 3584 2448 3432 
Q 2725 3281 2906 2969 
z
M 947 1747 
Q 947 1113 1208 752 
Q 1469 391 1925 391 
Q 2381 391 2643 752 
Q 2906 1113 2906 1747 
Q 2906 2381 2643 2742 
Q 2381 3103 1925 3103 
Q 1469 3103 1208 2742 
Q 947 2381 947 1747 
z
" transform="scale(0.015625)"/>
      <path id="DejaVuSans-74" d="M 1172 4494 
L 1172 3500 
L 2356 3500 
L 2356 3053 
L 1172 3053 
L 1172 1153 
Q 1172 725 1289 603 
Q 1406 481 1766 481 
L 2356 481 
L 2356 0 
L 1766 0 
Q 1100 0 847 248 
Q 594 497 594 1153 
L 594 3053 
L 172 3053 
L 172 3500 
L 594 3500 
L 594 4494 
L 1172 4494 
z
" transform="scale(0.015625)"/>
     </defs>
     <use xlink:href="#DejaVuSans-42"/>
     <use xlink:href="#DejaVuSans-69" transform="translate(68.603516 0)"/>
     <use xlink:href="#DejaVuSans-6e" transform="translate(96.386719 0)"/>
     <use xlink:href="#DejaVuSans-6f" transform="translate(159.765625 0)"/>
     <use xlink:href="#DejaVuSans-6d" transform="translate(220.947266 0)"/>
     <use xlink:href="#DejaVuSans-69" transform="translate(318.359375 0)"/>
     <use xlink:href="#DejaVuSans-61" transform="translate(346.142578 0)"/>
     <use xlink:href="#DejaVuSans-6c" transform="translate(407.421875 0)"/>
     <use xlink:href="#DejaVuSans-20" transform="translate(435.205078 0)"/>
     <use xlink:href="#DejaVuSans-64" transform="translate(466.992188 0)"/>
     <use xlink:href="#DejaVuSans-69" transform="translate(530.46875 0)"/>
     <use xlink:href="#DejaVuSans-73" transform="translate(558.251953 0)"/>
     <use xlink:href="#DejaVuSans-74" transform="translate(610.351562 0)"/>
     <use xlink:href="#DejaVuSans-72" transform="translate(649.560547 0)"/>
     <use xlink:href="#DejaVuSans-69" transform="translate(690.673828 0)"/>
     <use xlink:href="#DejaVuSans-62" transform="translate(718.457031 0)"/>
     <use xlink:href="#DejaVuSans-75" transform="translate(781.933594 0)"/>
     <use xlink:href="#DejaVuSans-74" transform="translate(845.3125 0)"/>
     <use xlink:href="#DejaVuSans-69" transform="translate(884.521484 0)"/>
     <use xlink:href="#DejaVuSans-6f" transform="translate(912.304688 0)"/>
     <use xlink:href="#DejaVuSans-6e" transform="translate(973.486328 0)"/>
    </g>
   </g>
  </g>
 </g>
 <defs>
  <clipPath id="p1924bc2955">
   <rect x="67.9575" y="22.318125" width="558" height="332.64"/>
  </clipPath>
 </defs>
</svg>
