<?xml version="1.0" encoding="UTF-8"?>
<svg xmlns="http://www.w3.org/2000/svg" xmlns:xlink="http://www.w3.org/1999/xlink" width="576pt" height="252pt" viewBox="0 0 576 252">
<defs>
<g>
<g id="glyph-0-0">
<path d="M 1.375 -6.480469 L 1.492188 -10.109375 C 1.53125 -10.808594 1.644531 -11.386719 1.832031 -11.847656 C 1.953125 -12.144531 2.125 -12.363281 2.339844 -12.511719 C 2.558594 -12.660156 2.769531 -12.734375 2.972656 -12.734375 C 3.203125 -12.734375 3.402344 -12.660156 3.570312 -12.507812 C 3.742188 -12.355469 3.828125 -12.1875 3.828125 -12.003906 C 3.828125 -11.789062 3.769531 -11.617188 3.648438 -11.488281 C 3.527344 -11.359375 3.375 -11.292969 3.199219 -11.292969 C 3.039062 -11.292969 2.867188 -11.375 2.679688 -11.539062 C 2.574219 -11.628906 2.484375 -11.675781 2.40625 -11.675781 C 2.328125 -11.675781 2.265625 -11.644531 2.210938 -11.578125 C 2.160156 -11.511719 2.132812 -11.398438 2.132812 -11.238281 C 2.132812 -11.046875 2.152344 -10.714844 2.195312 -10.246094 C 2.363281 -8.378906 2.445312 -6.863281 2.445312 -5.703125 C 2.445312 -5.394531 2.410156 -4.054688 2.335938 -1.679688 C 2.300781 -0.335938 2.097656 0.570312 1.722656 1.046875 C 1.476562 1.351562 1.171875 1.503906 0.804688 1.503906 C 0.570312 1.503906 0.375 1.425781 0.226562 1.273438 C 0.0742188 1.117188 0 0.917969 0 0.675781 C 0 0.472656 0.0585938 0.308594 0.175781 0.183594 C 0.289062 0.0625 0.4375 0 0.617188 0 C 0.796875 0 0.953125 0.0742188 1.085938 0.21875 C 1.21875 0.363281 1.332031 0.4375 1.421875 0.4375 C 1.5 0.4375 1.5625 0.40625 1.613281 0.34375 C 1.664062 0.277344 1.6875 0.171875 1.6875 0.0195312 C 1.6875 -0.171875 1.667969 -0.445312 1.625 -0.800781 C 1.457031 -2.234375 1.375 -4.128906 1.375 -6.480469 Z M 1.375 -6.480469 "/>
</g>
<g id="glyph-0-1">
<path d="M 1.75 0 L 1.75 -8.75 L 8.75 -8.75 L 8.75 0 L 1.75 0 M 1.96875 -0.21875 L 8.53125 -0.21875 L 8.53125 -8.53125 L 1.96875 -8.53125 Z M 1.96875 -0.21875 "/>
</g>
<g id="glyph-0-2">
<path d="M 2.261719 -5.011719 L 2.261719 -8.796875 C 1.796875 -8.429688 1.289062 -8.171875 0.730469 -8.023438 L 0.730469 -8.867188 C 1.015625 -8.957031 1.328125 -9.125 1.675781 -9.367188 C 2.019531 -9.605469 2.300781 -9.867188 2.515625 -10.144531 L 3.253906 -10.144531 L 3.253906 -5.011719 Z M 2.261719 -5.011719 "/>
</g>
<g id="glyph-0-3">
</g>
<g id="glyph-0-4">
<path d="M 6.964844 -7.566406 L 5.742188 -7.472656 C 5.632812 -7.953125 5.476562 -8.304688 5.277344 -8.523438 C 4.945312 -8.875 4.535156 -9.050781 4.046875 -9.050781 C 3.65625 -9.050781 3.3125 -8.941406 3.015625 -8.722656 C 2.628906 -8.441406 2.320312 -8.027344 2.097656 -7.484375 C 1.875 -6.941406 1.757812 -6.171875 1.75 -5.167969 C 2.046875 -5.617188 2.410156 -5.953125 2.835938 -6.171875 C 3.265625 -6.390625 3.714844 -6.5 4.183594 -6.5 C 5.003906 -6.5 5.703125 -6.199219 6.277344 -5.59375 C 6.855469 -4.992188 7.144531 -4.210938 7.144531 -3.253906 C 7.144531 -2.625 7.007812 -2.039062 6.738281 -1.5 C 6.464844 -0.960938 6.09375 -0.546875 5.617188 -0.257812 C 5.144531 0.0273438 4.609375 0.171875 4.007812 0.171875 C 2.980469 0.171875 2.144531 -0.207031 1.496094 -0.960938 C 0.851562 -1.714844 0.527344 -2.957031 0.527344 -4.6875 C 0.527344 -6.625 0.882812 -8.035156 1.601562 -8.914062 C 2.222656 -9.679688 3.066406 -10.0625 4.121094 -10.0625 C 4.910156 -10.0625 5.554688 -9.839844 6.058594 -9.398438 C 6.5625 -8.957031 6.867188 -8.347656 6.964844 -7.566406 M 1.941406 -3.246094 C 1.941406 -2.824219 2.03125 -2.417969 2.210938 -2.03125 C 2.390625 -1.644531 2.644531 -1.347656 2.96875 -1.144531 C 3.289062 -0.941406 3.628906 -0.839844 3.984375 -0.839844 C 4.503906 -0.839844 4.953125 -1.050781 5.324219 -1.46875 C 5.699219 -1.890625 5.886719 -2.457031 5.886719 -3.179688 C 5.886719 -3.871094 5.699219 -4.417969 5.332031 -4.816406 C 4.960938 -5.214844 4.5 -5.414062 3.9375 -5.414062 C 3.382812 -5.414062 2.910156 -5.214844 2.523438 -4.816406 C 2.136719 -4.417969 1.941406 -3.894531 1.941406 -3.246094 Z M 1.941406 -3.246094 "/>
</g>
<g id="glyph-0-5">
<path d="M 0.101562 0 L 2.753906 -3.773438 L 0.300781 -7.257812 L 1.839844 -7.257812 L 2.953125 -5.558594 C 3.164062 -5.234375 3.332031 -4.960938 3.460938 -4.742188 C 3.660156 -5.046875 3.84375 -5.3125 4.011719 -5.542969 L 5.234375 -7.257812 L 6.707031 -7.257812 L 4.195312 -3.84375 L 6.898438 0 L 5.386719 0 L 3.898438 -2.257812 L 3.5 -2.863281 L 1.59375 0 Z M 0.101562 0 "/>
</g>
<g id="glyph-0-6">
<path d="M 3.273438 2.945312 C 2.59375 2.089844 2.019531 1.085938 1.550781 -0.0625 C 1.082031 -1.210938 0.847656 -2.398438 0.847656 -3.628906 C 0.847656 -4.714844 1.023438 -5.753906 1.375 -6.746094 C 1.785156 -7.898438 2.417969 -9.046875 3.273438 -10.191406 L 4.15625 -10.191406 C 3.605469 -9.246094 3.242188 -8.566406 3.0625 -8.164062 C 2.785156 -7.53125 2.566406 -6.875 2.40625 -6.195312 C 2.210938 -5.339844 2.113281 -4.484375 2.113281 -3.625 C 2.113281 -1.429688 2.792969 0.757812 4.15625 2.945312 Z M 3.273438 2.945312 "/>
</g>
<g id="glyph-0-7">
<path d="M 5.214844 0 L 3.984375 0 L 3.984375 -7.839844 C 3.6875 -7.558594 3.300781 -7.277344 2.820312 -6.992188 C 2.339844 -6.710938 1.90625 -6.5 1.523438 -6.359375 L 1.523438 -7.546875 C 2.210938 -7.871094 2.8125 -8.261719 3.328125 -8.722656 C 3.84375 -9.183594 4.207031 -9.628906 4.421875 -10.0625 L 5.214844 -10.0625 Z M 5.214844 0 "/>
</g>
<g id="glyph-0-8">
<path d="M 7.398438 -4.367188 L 0.78125 -4.367188 L 0.78125 -5.515625 L 7.398438 -5.515625 Z M 7.398438 -4.367188 "/>
</g>
<g id="glyph-0-9">
<path d="M 1.730469 2.945312 L 0.847656 2.945312 C 2.210938 0.757812 2.890625 -1.429688 2.890625 -3.625 C 2.890625 -4.480469 2.792969 -5.328125 2.597656 -6.171875 C 2.441406 -6.855469 2.226562 -7.511719 1.949219 -8.140625 C 1.769531 -8.550781 1.402344 -9.234375 0.847656 -10.191406 L 1.730469 -10.191406 C 2.585938 -9.046875 3.21875 -7.898438 3.628906 -6.746094 C 3.980469 -5.753906 4.15625 -4.714844 4.15625 -3.628906 C 4.15625 -2.398438 3.921875 -1.210938 3.449219 -0.0625 C 2.976562 1.085938 2.402344 2.089844 1.730469 2.945312 Z M 1.730469 2.945312 "/>
</g>
<g id="glyph-0-10">
<path d="M 5.632812 0 L 5.632812 -0.914062 C 5.171875 -0.195312 4.496094 0.164062 3.601562 0.164062 C 3.023438 0.164062 2.492188 0.00390625 2.007812 -0.3125 C 1.519531 -0.632812 1.144531 -1.078125 0.878906 -1.652344 C 0.613281 -2.222656 0.476562 -2.878906 0.476562 -3.625 C 0.476562 -4.347656 0.597656 -5.003906 0.839844 -5.59375 C 1.082031 -6.183594 1.445312 -6.636719 1.929688 -6.953125 C 2.410156 -7.265625 2.949219 -7.421875 3.546875 -7.421875 C 3.984375 -7.421875 4.375 -7.332031 4.71875 -7.148438 C 5.058594 -6.960938 5.335938 -6.722656 5.550781 -6.425781 L 5.550781 -10.023438 L 6.773438 -10.023438 L 6.773438 0 L 5.632812 0 M 1.742188 -3.625 C 1.742188 -2.695312 1.9375 -2 2.332031 -1.539062 C 2.722656 -1.078125 3.1875 -0.847656 3.71875 -0.847656 C 4.257812 -0.847656 4.714844 -1.066406 5.089844 -1.507812 C 5.464844 -1.945312 5.652344 -2.617188 5.652344 -3.519531 C 5.652344 -4.515625 5.460938 -5.242188 5.078125 -5.707031 C 4.695312 -6.171875 4.226562 -6.40625 3.664062 -6.40625 C 3.117188 -6.40625 2.660156 -6.183594 2.292969 -5.734375 C 1.925781 -5.289062 1.742188 -4.585938 1.742188 -3.625 Z M 1.742188 -3.625 "/>
</g>
<g id="glyph-0-11">
<path d="M 7.398438 -5.890625 L 0.78125 -5.890625 L 0.78125 -7.039062 L 7.398438 -7.039062 L 7.398438 -5.890625 M 7.398438 -2.851562 L 0.78125 -2.851562 L 0.78125 -4 L 7.398438 -4 Z M 7.398438 -2.851562 "/>
</g>
<g id="glyph-1-0">
<path d="M 0.464844 -3.953125 C 0.464844 -4.902344 0.5625 -5.664062 0.757812 -6.242188 C 0.953125 -6.820312 1.242188 -7.265625 1.628906 -7.578125 C 2.011719 -7.894531 2.496094 -8.050781 3.078125 -8.050781 C 3.507812 -8.050781 3.886719 -7.964844 4.210938 -7.789062 C 4.535156 -7.617188 4.804688 -7.367188 5.015625 -7.042969 C 5.226562 -6.714844 5.390625 -6.316406 5.511719 -5.847656 C 5.632812 -5.378906 5.691406 -4.75 5.691406 -3.953125 C 5.691406 -3.011719 5.597656 -2.253906 5.402344 -1.675781 C 5.210938 -1.097656 4.921875 -0.652344 4.535156 -0.335938 C 4.152344 -0.0195312 3.664062 0.136719 3.078125 0.136719 C 2.304688 0.136719 1.699219 -0.140625 1.257812 -0.695312 C 0.730469 -1.363281 0.464844 -2.449219 0.464844 -3.953125 M 1.476562 -3.953125 C 1.476562 -2.636719 1.628906 -1.761719 1.9375 -1.328125 C 2.246094 -0.890625 2.625 -0.671875 3.078125 -0.671875 C 3.53125 -0.671875 3.910156 -0.890625 4.21875 -1.328125 C 4.527344 -1.765625 4.679688 -2.640625 4.679688 -3.953125 C 4.679688 -5.273438 4.527344 -6.152344 4.21875 -6.585938 C 3.910156 -7.019531 3.527344 -7.234375 3.066406 -7.234375 C 2.617188 -7.234375 2.253906 -7.042969 1.984375 -6.660156 C 1.644531 -6.171875 1.476562 -5.269531 1.476562 -3.953125 Z M 1.476562 -3.953125 "/>
</g>
<g id="glyph-1-1">
<path d="M 1.015625 0 L 1.015625 -1.121094 L 2.136719 -1.121094 L 2.136719 0 Z M 1.015625 0 "/>
</g>
<g id="glyph-1-2">
<path d="M 0.464844 -2.101562 L 1.5 -2.1875 C 1.574219 -1.683594 1.753906 -1.304688 2.03125 -1.054688 C 2.3125 -0.800781 2.648438 -0.671875 3.039062 -0.671875 C 3.515625 -0.671875 3.914062 -0.851562 4.242188 -1.207031 C 4.570312 -1.566406 4.734375 -2.039062 4.734375 -2.628906 C 4.734375 -3.191406 4.578125 -3.636719 4.261719 -3.960938 C 3.949219 -4.285156 3.535156 -4.445312 3.023438 -4.445312 C 2.707031 -4.445312 2.421875 -4.375 2.164062 -4.230469 C 1.910156 -4.085938 1.710938 -3.898438 1.5625 -3.667969 L 0.640625 -3.789062 L 1.417969 -7.90625 L 5.402344 -7.90625 L 5.402344 -6.96875 L 2.203125 -6.96875 L 1.773438 -4.8125 C 2.253906 -5.148438 2.757812 -5.316406 3.285156 -5.316406 C 3.988281 -5.316406 4.578125 -5.074219 5.058594 -4.589844 C 5.539062 -4.101562 5.78125 -3.480469 5.78125 -2.71875 C 5.78125 -1.992188 5.570312 -1.367188 5.144531 -0.835938 C 4.632812 -0.1875 3.929688 0.136719 3.039062 0.136719 C 2.3125 0.136719 1.714844 -0.0664062 1.253906 -0.476562 C 0.792969 -0.882812 0.53125 -1.425781 0.464844 -2.101562 Z M 0.464844 -2.101562 "/>
</g>
<g id="glyph-1-3">
<path d="M 4.171875 0 L 3.1875 0 L 3.1875 -6.273438 C 2.953125 -6.046875 2.640625 -5.820312 2.257812 -5.59375 C 1.871094 -5.367188 1.527344 -5.199219 1.21875 -5.085938 L 1.21875 -6.039062 C 1.769531 -6.296875 2.25 -6.609375 2.664062 -6.976562 C 3.074219 -7.347656 3.367188 -7.703125 3.539062 -8.050781 L 4.171875 -8.050781 Z M 4.171875 0 "/>
</g>
<g id="glyph-1-4">
<path d="M 5.636719 -0.945312 L 5.636719 0 L 0.339844 0 C 0.332031 -0.238281 0.371094 -0.464844 0.453125 -0.683594 C 0.589844 -1.042969 0.804688 -1.398438 1.101562 -1.75 C 1.398438 -2.101562 1.828125 -2.503906 2.390625 -2.964844 C 3.261719 -3.679688 3.851562 -4.246094 4.15625 -4.664062 C 4.460938 -5.078125 4.617188 -5.472656 4.617188 -5.847656 C 4.617188 -6.234375 4.476562 -6.566406 4.195312 -6.832031 C 3.917969 -7.101562 3.554688 -7.234375 3.105469 -7.234375 C 2.632812 -7.234375 2.253906 -7.09375 1.96875 -6.808594 C 1.683594 -6.523438 1.539062 -6.128906 1.535156 -5.628906 L 0.523438 -5.730469 C 0.59375 -6.484375 0.855469 -7.0625 1.308594 -7.457031 C 1.757812 -7.851562 2.367188 -8.050781 3.128906 -8.050781 C 3.898438 -8.050781 4.507812 -7.835938 4.953125 -7.410156 C 5.402344 -6.984375 5.628906 -6.453125 5.628906 -5.824219 C 5.628906 -5.503906 5.5625 -5.1875 5.429688 -4.878906 C 5.300781 -4.566406 5.082031 -4.242188 4.777344 -3.898438 C 4.472656 -3.554688 3.964844 -3.085938 3.257812 -2.488281 C 2.667969 -1.992188 2.289062 -1.65625 2.121094 -1.480469 C 1.953125 -1.300781 1.816406 -1.125 1.707031 -0.945312 Z M 5.636719 -0.945312 "/>
</g>
<g id="glyph-1-5">
<path d="M 0.53125 -6.96875 L 0.53125 -7.914062 L 5.71875 -7.914062 L 5.71875 -7.148438 C 5.210938 -6.605469 4.703125 -5.882812 4.203125 -4.980469 C 3.703125 -4.082031 3.3125 -3.15625 3.039062 -2.203125 C 2.84375 -1.53125 2.71875 -0.796875 2.664062 0 L 1.652344 0 C 1.664062 -0.628906 1.785156 -1.394531 2.023438 -2.285156 C 2.261719 -3.179688 2.601562 -4.039062 3.042969 -4.871094 C 3.488281 -5.699219 3.957031 -6.398438 4.457031 -6.96875 Z M 0.53125 -6.96875 "/>
</g>
<g id="glyph-2-0">
<path d="M 0 -1.21875 L -6.304688 -1.21875 L -6.304688 -0.128906 L -7.257812 -0.128906 L -7.257812 -1.21875 L -8.03125 -1.21875 C -8.519531 -1.21875 -8.882812 -1.261719 -9.117188 -1.347656 C -9.4375 -1.464844 -9.695312 -1.671875 -9.894531 -1.972656 C -10.09375 -2.269531 -10.191406 -2.6875 -10.191406 -3.226562 C -10.191406 -3.574219 -10.152344 -3.957031 -10.070312 -4.375 L -8.996094 -4.191406 C -9.042969 -3.933594 -9.0625 -3.695312 -9.0625 -3.464844 C -9.0625 -3.09375 -8.984375 -2.828125 -8.824219 -2.671875 C -8.664062 -2.519531 -8.367188 -2.441406 -7.929688 -2.441406 L -7.257812 -2.441406 L -7.257812 -3.855469 L -6.304688 -3.855469 L -6.304688 -2.441406 L 0 -2.441406 Z M 0 -1.21875 "/>
</g>
<g id="glyph-2-1">
<path d="M 2.945312 -3.273438 C 2.089844 -2.59375 1.085938 -2.019531 -0.0625 -1.550781 C -1.210938 -1.082031 -2.398438 -0.847656 -3.628906 -0.847656 C -4.714844 -0.847656 -5.753906 -1.023438 -6.746094 -1.375 C -7.898438 -1.785156 -9.046875 -2.417969 -10.191406 -3.273438 L -10.191406 -4.15625 C -9.246094 -3.605469 -8.566406 -3.242188 -8.164062 -3.0625 C -7.53125 -2.785156 -6.875 -2.566406 -6.195312 -2.40625 C -5.339844 -2.210938 -4.484375 -2.113281 -3.625 -2.113281 C -1.429688 -2.113281 0.757812 -2.792969 2.945312 -4.15625 Z M 2.945312 -3.273438 "/>
</g>
<g id="glyph-2-2">
<path d="M 0 -0.101562 L -3.773438 -2.753906 L -7.257812 -0.300781 L -7.257812 -1.839844 L -5.558594 -2.953125 C -5.234375 -3.164062 -4.960938 -3.332031 -4.742188 -3.460938 C -5.046875 -3.660156 -5.3125 -3.84375 -5.542969 -4.011719 L -7.257812 -5.238281 L -7.257812 -6.707031 L -3.839844 -4.195312 L 0 -6.898438 L 0 -5.386719 L -2.253906 -3.898438 L -2.863281 -3.5 L 0 -1.59375 Z M 0 -0.101562 "/>
</g>
<g id="glyph-2-3">
<path d="M 2.945312 -1.730469 L 2.945312 -0.847656 C 0.757812 -2.210938 -1.429688 -2.890625 -3.625 -2.890625 C -4.480469 -2.890625 -5.328125 -2.792969 -6.171875 -2.597656 C -6.855469 -2.441406 -7.511719 -2.226562 -8.140625 -1.949219 C -8.550781 -1.769531 -9.234375 -1.402344 -10.191406 -0.847656 L -10.191406 -1.730469 C -9.046875 -2.585938 -7.898438 -3.21875 -6.746094 -3.628906 C -5.753906 -3.980469 -4.714844 -4.15625 -3.628906 -4.15625 C -2.398438 -4.15625 -1.210938 -3.921875 -0.0625 -3.449219 C 1.085938 -2.976562 2.089844 -2.402344 2.945312 -1.730469 Z M 2.945312 -1.730469 "/>
</g>
<g id="glyph-3-0">
<path d="M 1.460938 0 L 1.460938 -7.5625 L 0.15625 -7.5625 L 0.15625 -8.710938 L 1.460938 -8.710938 L 1.460938 -9.640625 C 1.460938 -10.222656 1.511719 -10.660156 1.617188 -10.941406 C 1.757812 -11.324219 2.007812 -11.636719 2.367188 -11.875 C 2.726562 -12.113281 3.226562 -12.230469 3.871094 -12.230469 C 4.289062 -12.230469 4.746094 -12.179688 5.25 -12.082031 L 5.027344 -10.796875 C 4.722656 -10.851562 4.433594 -10.878906 4.160156 -10.878906 C 3.710938 -10.878906 3.394531 -10.78125 3.207031 -10.589844 C 3.019531 -10.398438 2.929688 -10.039062 2.929688 -9.515625 L 2.929688 -8.710938 L 4.625 -8.710938 L 4.625 -7.5625 L 2.929688 -7.5625 L 2.929688 0 Z M 1.460938 0 "/>
</g>
<g id="glyph-3-1">
<path d="M 3.929688 3.535156 C 3.113281 2.507812 2.425781 1.304688 1.863281 -0.0742188 C 1.300781 -1.453125 1.015625 -2.878906 1.015625 -4.355469 C 1.015625 -5.65625 1.226562 -6.902344 1.648438 -8.097656 C 2.140625 -9.480469 2.902344 -10.859375 3.929688 -12.230469 L 4.988281 -12.230469 C 4.324219 -11.09375 3.886719 -10.28125 3.675781 -9.792969 C 3.339844 -9.039062 3.078125 -8.253906 2.886719 -7.433594 C 2.652344 -6.410156 2.535156 -5.382812 2.535156 -4.347656 C 2.535156 -1.71875 3.351562 0.910156 4.988281 3.535156 Z M 3.929688 3.535156 "/>
</g>
<g id="glyph-3-2">
<path d="M 0.125 0 L 3.304688 -4.527344 L 0.359375 -8.710938 L 2.207031 -8.710938 L 3.542969 -6.667969 C 3.796875 -6.28125 3.996094 -5.957031 4.152344 -5.691406 C 4.390625 -6.054688 4.613281 -6.375 4.816406 -6.652344 L 6.285156 -8.710938 L 8.046875 -8.710938 L 5.035156 -4.609375 L 8.277344 0 L 6.464844 0 L 4.675781 -2.707031 L 4.199219 -3.4375 L 1.910156 0 Z M 0.125 0 "/>
</g>
<g id="glyph-3-3">
<path d="M 2.074219 3.535156 L 1.015625 3.535156 C 2.652344 0.910156 3.46875 -1.71875 3.46875 -4.347656 C 3.46875 -5.375 3.351562 -6.394531 3.117188 -7.40625 C 2.929688 -8.226562 2.671875 -9.015625 2.335938 -9.769531 C 2.125 -10.261719 1.683594 -11.082031 1.015625 -12.230469 L 2.074219 -12.230469 C 3.101562 -10.859375 3.863281 -9.480469 4.355469 -8.097656 C 4.777344 -6.902344 4.988281 -5.65625 4.988281 -4.355469 C 4.988281 -2.878906 4.703125 -1.453125 4.136719 -0.0742188 C 3.574219 1.304688 2.882812 2.507812 2.074219 3.535156 Z M 2.074219 3.535156 "/>
</g>
<g id="glyph-3-4">
</g>
<g id="glyph-3-5">
<path d="M 8.875 -7.070312 L 0.933594 -7.070312 L 0.933594 -8.449219 L 8.875 -8.449219 L 8.875 -7.070312 M 8.875 -3.421875 L 0.933594 -3.421875 L 0.933594 -4.796875 L 8.875 -4.796875 Z M 8.875 -3.421875 "/>
</g>
<g id="glyph-3-6">
<path d="M 8.359375 -9.082031 L 6.890625 -8.964844 C 6.757812 -9.546875 6.574219 -9.96875 6.332031 -10.230469 C 5.933594 -10.648438 5.441406 -10.859375 4.855469 -10.859375 C 4.386719 -10.859375 3.972656 -10.730469 3.617188 -10.46875 C 3.152344 -10.128906 2.785156 -9.632812 2.519531 -8.984375 C 2.25 -8.332031 2.109375 -7.40625 2.101562 -6.203125 C 2.457031 -6.742188 2.890625 -7.144531 3.40625 -7.40625 C 3.917969 -7.667969 4.457031 -7.800781 5.019531 -7.800781 C 6.003906 -7.800781 6.84375 -7.4375 7.535156 -6.714844 C 8.226562 -5.988281 8.570312 -5.054688 8.570312 -3.90625 C 8.570312 -3.148438 8.410156 -2.449219 8.085938 -1.800781 C 7.757812 -1.152344 7.3125 -0.65625 6.742188 -0.3125 C 6.175781 0.03125 5.527344 0.203125 4.808594 0.203125 C 3.578125 0.203125 2.574219 -0.246094 1.796875 -1.152344 C 1.019531 -2.058594 0.632812 -3.550781 0.632812 -5.628906 C 0.632812 -7.953125 1.0625 -9.640625 1.917969 -10.695312 C 2.667969 -11.617188 3.675781 -12.074219 4.945312 -12.074219 C 5.890625 -12.074219 6.667969 -11.808594 7.273438 -11.28125 C 7.875 -10.75 8.238281 -10.015625 8.359375 -9.082031 M 2.328125 -3.898438 C 2.328125 -3.386719 2.4375 -2.902344 2.652344 -2.4375 C 2.871094 -1.972656 3.171875 -1.617188 3.558594 -1.375 C 3.949219 -1.128906 4.355469 -1.007812 4.78125 -1.007812 C 5.40625 -1.007812 5.941406 -1.261719 6.390625 -1.765625 C 6.839844 -2.265625 7.0625 -2.949219 7.0625 -3.8125 C 7.0625 -4.644531 6.839844 -5.300781 6.398438 -5.777344 C 5.957031 -6.257812 5.398438 -6.496094 4.726562 -6.496094 C 4.058594 -6.496094 3.492188 -6.257812 3.027344 -5.777344 C 2.5625 -5.300781 2.328125 -4.671875 2.328125 -3.898438 Z M 2.328125 -3.898438 "/>
</g>
<g id="glyph-3-7">
<path d="M 6.257812 0 L 4.78125 0 L 4.78125 -9.410156 C 4.425781 -9.070312 3.960938 -8.730469 3.382812 -8.390625 C 2.808594 -8.050781 2.289062 -7.796875 1.828125 -7.628906 L 1.828125 -9.054688 C 2.65625 -9.445312 3.375 -9.914062 3.996094 -10.46875 C 4.613281 -11.019531 5.050781 -11.554688 5.308594 -12.074219 L 6.257812 -12.074219 Z M 6.257812 0 "/>
</g>
<g id="glyph-3-8">
<path d="M 8.875 -5.242188 L 0.933594 -5.242188 L 0.933594 -6.621094 L 8.875 -6.621094 Z M 8.875 -5.242188 "/>
</g>
<g id="glyph-3-9">
<path d="M 0 -3.757812 L 0 -4.945312 L 16.800781 -4.945312 L 16.800781 -3.757812 Z M 0 -3.757812 "/>
</g>
<g id="glyph-3-10">
<path d="M 1.230469 0 L 1.230469 -12.027344 L 5.742188 -12.027344 C 6.660156 -12.027344 7.398438 -11.902344 7.953125 -11.660156 C 8.507812 -11.417969 8.941406 -11.042969 9.257812 -10.535156 C 9.570312 -10.03125 9.730469 -9.5 9.730469 -8.949219 C 9.730469 -8.433594 9.589844 -7.953125 9.3125 -7.496094 C 9.03125 -7.042969 8.609375 -6.675781 8.046875 -6.398438 C 8.773438 -6.183594 9.332031 -5.820312 9.726562 -5.308594 C 10.117188 -4.792969 10.3125 -4.1875 10.3125 -3.484375 C 10.3125 -2.921875 10.191406 -2.398438 9.953125 -1.914062 C 9.714844 -1.429688 9.421875 -1.058594 9.074219 -0.796875 C 8.722656 -0.53125 8.285156 -0.335938 7.757812 -0.199219 C 7.226562 -0.0664062 6.582031 0 5.816406 0 L 1.230469 0 M 2.820312 -6.972656 L 5.421875 -6.972656 C 6.128906 -6.972656 6.632812 -7.019531 6.941406 -7.113281 C 7.34375 -7.230469 7.648438 -7.433594 7.855469 -7.710938 C 8.058594 -7.988281 8.164062 -8.339844 8.164062 -8.761719 C 8.164062 -9.160156 8.066406 -9.511719 7.875 -9.816406 C 7.683594 -10.117188 7.410156 -10.328125 7.054688 -10.4375 C 6.699219 -10.550781 6.089844 -10.605469 5.226562 -10.605469 L 2.820312 -10.605469 L 2.820312 -6.972656 M 2.820312 -1.417969 L 5.816406 -1.417969 C 6.328125 -1.417969 6.691406 -1.4375 6.898438 -1.476562 C 7.265625 -1.542969 7.570312 -1.652344 7.816406 -1.804688 C 8.0625 -1.957031 8.265625 -2.179688 8.425781 -2.472656 C 8.582031 -2.765625 8.664062 -3.101562 8.664062 -3.484375 C 8.664062 -3.933594 8.546875 -4.324219 8.316406 -4.65625 C 8.089844 -4.984375 7.769531 -5.21875 7.363281 -5.351562 C 6.953125 -5.488281 6.367188 -5.554688 5.601562 -5.554688 L 2.820312 -5.554688 Z M 2.820312 -1.417969 "/>
</g>
<g id="glyph-3-11">
<path d="M 7.070312 -2.804688 L 8.597656 -2.617188 C 8.355469 -1.726562 7.910156 -1.035156 7.257812 -0.542969 C 6.609375 -0.0507812 5.777344 0.195312 4.765625 0.195312 C 3.492188 0.195312 2.480469 -0.195312 1.734375 -0.980469 C 0.988281 -1.765625 0.617188 -2.867188 0.617188 -4.28125 C 0.617188 -5.746094 0.992188 -6.886719 1.746094 -7.695312 C 2.5 -8.503906 3.480469 -8.910156 4.683594 -8.910156 C 5.847656 -8.910156 6.800781 -8.511719 7.539062 -7.71875 C 8.277344 -6.925781 8.644531 -5.808594 8.644531 -4.371094 C 8.644531 -4.285156 8.644531 -4.152344 8.636719 -3.976562 L 2.140625 -3.976562 C 2.195312 -3.019531 2.464844 -2.289062 2.953125 -1.78125 C 3.441406 -1.273438 4.046875 -1.015625 4.773438 -1.015625 C 5.316406 -1.015625 5.777344 -1.160156 6.160156 -1.445312 C 6.542969 -1.726562 6.847656 -2.183594 7.070312 -2.804688 M 2.222656 -5.191406 L 7.085938 -5.191406 C 7.023438 -5.925781 6.835938 -6.476562 6.53125 -6.839844 C 6.058594 -7.410156 5.449219 -7.695312 4.699219 -7.695312 C 4.023438 -7.695312 3.453125 -7.46875 2.988281 -7.015625 C 2.527344 -6.558594 2.273438 -5.953125 2.222656 -5.191406 Z M 2.222656 -5.191406 "/>
</g>
<g id="glyph-3-12">
<path d="M 4.332031 -1.320312 L 4.542969 -0.015625 C 4.128906 0.0703125 3.757812 0.113281 3.429688 0.113281 C 2.894531 0.113281 2.476562 0.03125 2.183594 -0.140625 C 1.886719 -0.308594 1.679688 -0.53125 1.558594 -0.808594 C 1.4375 -1.085938 1.378906 -1.664062 1.378906 -2.550781 L 1.378906 -7.5625 L 0.296875 -7.5625 L 0.296875 -8.710938 L 1.378906 -8.710938 L 1.378906 -10.867188 L 2.847656 -11.753906 L 2.847656 -8.710938 L 4.332031 -8.710938 L 4.332031 -7.5625 L 2.847656 -7.5625 L 2.847656 -2.46875 C 2.847656 -2.046875 2.871094 -1.777344 2.925781 -1.65625 C 2.976562 -1.535156 3.0625 -1.441406 3.179688 -1.371094 C 3.296875 -1.296875 3.464844 -1.261719 3.683594 -1.261719 C 3.847656 -1.261719 4.0625 -1.28125 4.332031 -1.320312 Z M 4.332031 -1.320312 "/>
</g>
<g id="glyph-3-13">
<path d="M 6.792969 -1.074219 C 6.246094 -0.609375 5.71875 -0.28125 5.214844 -0.0898438 C 4.707031 0.101562 4.164062 0.195312 3.585938 0.195312 C 2.628906 0.195312 1.890625 -0.0351562 1.378906 -0.503906 C 0.863281 -0.972656 0.605469 -1.570312 0.605469 -2.296875 C 0.605469 -2.722656 0.703125 -3.113281 0.898438 -3.464844 C 1.09375 -3.820312 1.347656 -4.101562 1.660156 -4.316406 C 1.976562 -4.527344 2.328125 -4.6875 2.722656 -4.796875 C 3.011719 -4.875 3.449219 -4.949219 4.035156 -5.019531 C 5.226562 -5.164062 6.105469 -5.332031 6.667969 -5.527344 C 6.675781 -5.730469 6.675781 -5.859375 6.675781 -5.914062 C 6.675781 -6.515625 6.539062 -6.941406 6.257812 -7.1875 C 5.882812 -7.519531 5.320312 -7.6875 4.578125 -7.6875 C 3.882812 -7.6875 3.371094 -7.566406 3.039062 -7.320312 C 2.707031 -7.078125 2.464844 -6.648438 2.304688 -6.03125 L 0.859375 -6.226562 C 0.992188 -6.84375 1.207031 -7.34375 1.507812 -7.722656 C 1.808594 -8.101562 2.246094 -8.394531 2.8125 -8.601562 C 3.382812 -8.804688 4.042969 -8.910156 4.789062 -8.910156 C 5.535156 -8.910156 6.136719 -8.820312 6.601562 -8.644531 C 7.066406 -8.472656 7.410156 -8.25 7.628906 -7.984375 C 7.847656 -7.71875 8 -7.386719 8.089844 -6.980469 C 8.136719 -6.730469 8.164062 -6.273438 8.164062 -5.617188 L 8.164062 -3.648438 C 8.164062 -2.277344 8.195312 -1.410156 8.257812 -1.046875 C 8.320312 -0.683594 8.445312 -0.332031 8.628906 0 L 7.085938 0 C 6.933594 -0.304688 6.835938 -0.664062 6.792969 -1.074219 M 6.667969 -4.371094 C 6.132812 -4.152344 5.328125 -3.96875 4.257812 -3.8125 C 3.648438 -3.726562 3.222656 -3.628906 2.96875 -3.519531 C 2.71875 -3.410156 2.523438 -3.25 2.386719 -3.039062 C 2.25 -2.828125 2.183594 -2.59375 2.183594 -2.335938 C 2.183594 -1.945312 2.332031 -1.617188 2.628906 -1.351562 C 2.925781 -1.089844 3.363281 -0.960938 3.9375 -0.960938 C 4.507812 -0.960938 5.011719 -1.085938 5.453125 -1.332031 C 5.898438 -1.582031 6.222656 -1.921875 6.429688 -2.355469 C 6.589844 -2.6875 6.667969 -3.179688 6.667969 -3.832031 Z M 6.667969 -4.371094 "/>
</g>
<g id="glyph-3-14">
<path d="M 8.457031 -1.417969 L 8.457031 0 L 0.507812 0 C 0.496094 -0.355469 0.554688 -0.695312 0.679688 -1.023438 C 0.882812 -1.566406 1.207031 -2.101562 1.652344 -2.625 C 2.097656 -3.148438 2.742188 -3.757812 3.585938 -4.445312 C 4.890625 -5.519531 5.773438 -6.367188 6.234375 -6.992188 C 6.695312 -7.621094 6.921875 -8.210938 6.921875 -8.769531 C 6.921875 -9.355469 6.714844 -9.847656 6.296875 -10.25 C 5.878906 -10.652344 5.332031 -10.851562 4.660156 -10.851562 C 3.949219 -10.851562 3.378906 -10.640625 2.953125 -10.210938 C 2.527344 -9.785156 2.308594 -9.195312 2.304688 -8.441406 L 0.789062 -8.597656 C 0.890625 -9.730469 1.28125 -10.589844 1.960938 -11.183594 C 2.636719 -11.777344 3.550781 -12.074219 4.691406 -12.074219 C 5.847656 -12.074219 6.757812 -11.753906 7.433594 -11.117188 C 8.105469 -10.476562 8.441406 -9.683594 8.441406 -8.734375 C 8.441406 -8.253906 8.34375 -7.78125 8.144531 -7.316406 C 7.949219 -6.851562 7.621094 -6.363281 7.164062 -5.847656 C 6.707031 -5.335938 5.949219 -4.628906 4.890625 -3.734375 C 4.003906 -2.988281 3.433594 -2.484375 3.183594 -2.21875 C 2.929688 -1.953125 2.722656 -1.6875 2.558594 -1.417969 Z M 8.457031 -1.417969 "/>
</g>
<g id="glyph-3-15">
<path d="M 1.492188 0 L 1.492188 -1.679688 L 3.175781 -1.679688 L 3.175781 0 C 3.175781 0.617188 3.066406 1.117188 2.847656 1.496094 C 2.628906 1.878906 2.28125 2.171875 1.804688 2.378906 L 1.394531 1.746094 C 1.707031 1.609375 1.9375 1.410156 2.082031 1.144531 C 2.230469 0.878906 2.3125 0.496094 2.328125 0 Z M 1.492188 0 "/>
</g>
</g>
<clipPath id="clip-0">
<path clip-rule="nonzero" d="M 47.273438 175 L 569.023438 175 L 569.023438 177 L 47.273438 177 Z M 47.273438 175 "/>
</clipPath>
<clipPath id="clip-1">
<path clip-rule="nonzero" d="M 47.273438 128 L 569.023438 128 L 569.023438 130 L 47.273438 130 Z M 47.273438 128 "/>
</clipPath>
<clipPath id="clip-2">
<path clip-rule="nonzero" d="M 47.273438 81 L 569.023438 81 L 569.023438 83 L 47.273438 83 Z M 47.273438 81 "/>
</clipPath>
<clipPath id="clip-3">
<path clip-rule="nonzero" d="M 47.273438 34 L 569.023438 34 L 569.023438 36 L 47.273438 36 Z M 47.273438 34 "/>
</clipPath>
<clipPath id="clip-4">
<path clip-rule="nonzero" d="M 129 31.507812 L 131 31.507812 L 131 207.917969 L 129 207.917969 Z M 129 31.507812 "/>
</clipPath>
<clipPath id="clip-5">
<path clip-rule="nonzero" d="M 248 31.507812 L 250 31.507812 L 250 207.917969 L 248 207.917969 Z M 248 31.507812 "/>
</clipPath>
<clipPath id="clip-6">
<path clip-rule="nonzero" d="M 367 31.507812 L 368 31.507812 L 368 207.917969 L 367 207.917969 Z M 367 31.507812 "/>
</clipPath>
<clipPath id="clip-7">
<path clip-rule="nonzero" d="M 485 31.507812 L 487 31.507812 L 487 207.917969 L 485 207.917969 Z M 485 31.507812 "/>
</clipPath>
<clipPath id="clip-8">
<path clip-rule="nonzero" d="M 47.273438 199 L 569.023438 199 L 569.023438 201 L 47.273438 201 Z M 47.273438 199 "/>
</clipPath>
<clipPath id="clip-9">
<path clip-rule="nonzero" d="M 47.273438 152 L 569.023438 152 L 569.023438 154 L 47.273438 154 Z M 47.273438 152 "/>
</clipPath>
<clipPath id="clip-10">
<path clip-rule="nonzero" d="M 47.273438 104 L 569.023438 104 L 569.023438 107 L 47.273438 107 Z M 47.273438 104 "/>
</clipPath>
<clipPath id="clip-11">
<path clip-rule="nonzero" d="M 47.273438 57 L 569.023438 57 L 569.023438 60 L 47.273438 60 Z M 47.273438 57 "/>
</clipPath>
<clipPath id="clip-12">
<path clip-rule="nonzero" d="M 70 31.507812 L 72 31.507812 L 72 207.917969 L 70 207.917969 Z M 70 31.507812 "/>
</clipPath>
<clipPath id="clip-13">
<path clip-rule="nonzero" d="M 188 31.507812 L 191 31.507812 L 191 207.917969 L 188 207.917969 Z M 188 31.507812 "/>
</clipPath>
<clipPath id="clip-14">
<path clip-rule="nonzero" d="M 307 31.507812 L 309 31.507812 L 309 207.917969 L 307 207.917969 Z M 307 31.507812 "/>
</clipPath>
<clipPath id="clip-15">
<path clip-rule="nonzero" d="M 426 31.507812 L 428 31.507812 L 428 207.917969 L 426 207.917969 Z M 426 31.507812 "/>
</clipPath>
<clipPath id="clip-16">
<path clip-rule="nonzero" d="M 544 31.507812 L 546 31.507812 L 546 207.917969 L 544 207.917969 Z M 544 31.507812 "/>
</clipPath>
<clipPath id="clip-17">
<path clip-rule="nonzero" d="M 250 31.507812 L 363 31.507812 L 363 49 L 250 49 Z M 250 31.507812 "/>
</clipPath>
</defs>
<rect x="-57.6" y="-25.2" width="691.2" height="302.4" fill="rgb(100%, 100%, 100%)" fill-opacity="1"/>
<rect x="-57.6" y="-25.2" width="691.2" height="302.4" fill="rgb(100%, 100%, 100%)" fill-opacity="1"/>
<g clip-path="url(#clip-0)">
<path fill="none" stroke-width="0.678986" stroke-linecap="butt" stroke-linejoin="round" stroke="rgb(92.156863%, 92.156863%, 92.156863%)" stroke-opacity="1" stroke-miterlimit="10" d="M 47.273438 176.316406 L 569.027344 176.316406 "/>
</g>
<g clip-path="url(#clip-1)">
<path fill="none" stroke-width="0.678986" stroke-linecap="butt" stroke-linejoin="round" stroke="rgb(92.156863%, 92.156863%, 92.156863%)" stroke-opacity="1" stroke-miterlimit="10" d="M 47.273438 129.148438 L 569.027344 129.148438 "/>
</g>
<g clip-path="url(#clip-2)">
<path fill="none" stroke-width="0.678986" stroke-linecap="butt" stroke-linejoin="round" stroke="rgb(92.156863%, 92.156863%, 92.156863%)" stroke-opacity="1" stroke-miterlimit="10" d="M 47.273438 81.980469 L 569.027344 81.980469 "/>
</g>
<g clip-path="url(#clip-3)">
<path fill="none" stroke-width="0.678986" stroke-linecap="butt" stroke-linejoin="round" stroke="rgb(92.156863%, 92.156863%, 92.156863%)" stroke-opacity="1" stroke-miterlimit="10" d="M 47.273438 34.8125 L 569.027344 34.8125 "/>
</g>
<g clip-path="url(#clip-4)">
<path fill="none" stroke-width="0.678986" stroke-linecap="butt" stroke-linejoin="round" stroke="rgb(92.156863%, 92.156863%, 92.156863%)" stroke-opacity="1" stroke-miterlimit="10" d="M 130.28125 207.921875 L 130.28125 31.507812 "/>
</g>
<g clip-path="url(#clip-5)">
<path fill="none" stroke-width="0.678986" stroke-linecap="butt" stroke-linejoin="round" stroke="rgb(92.156863%, 92.156863%, 92.156863%)" stroke-opacity="1" stroke-miterlimit="10" d="M 248.859375 207.921875 L 248.859375 31.507812 "/>
</g>
<g clip-path="url(#clip-6)">
<path fill="none" stroke-width="0.678986" stroke-linecap="butt" stroke-linejoin="round" stroke="rgb(92.156863%, 92.156863%, 92.156863%)" stroke-opacity="1" stroke-miterlimit="10" d="M 367.441406 207.921875 L 367.441406 31.507812 "/>
</g>
<g clip-path="url(#clip-7)">
<path fill="none" stroke-width="0.678986" stroke-linecap="butt" stroke-linejoin="round" stroke="rgb(92.156863%, 92.156863%, 92.156863%)" stroke-opacity="1" stroke-miterlimit="10" d="M 486.019531 207.921875 L 486.019531 31.507812 "/>
</g>
<g clip-path="url(#clip-8)">
<path fill="none" stroke-width="1.357972" stroke-linecap="butt" stroke-linejoin="round" stroke="rgb(92.156863%, 92.156863%, 92.156863%)" stroke-opacity="1" stroke-miterlimit="10" d="M 47.273438 199.902344 L 569.027344 199.902344 "/>
</g>
<g clip-path="url(#clip-9)">
<path fill="none" stroke-width="1.357972" stroke-linecap="butt" stroke-linejoin="round" stroke="rgb(92.156863%, 92.156863%, 92.156863%)" stroke-opacity="1" stroke-miterlimit="10" d="M 47.273438 152.734375 L 569.027344 152.734375 "/>
</g>
<g clip-path="url(#clip-10)">
<path fill="none" stroke-width="1.357972" stroke-linecap="butt" stroke-linejoin="round" stroke="rgb(92.156863%, 92.156863%, 92.156863%)" stroke-opacity="1" stroke-miterlimit="10" d="M 47.273438 105.5625 L 569.027344 105.5625 "/>
</g>
<g clip-path="url(#clip-11)">
<path fill="none" stroke-width="1.357972" stroke-linecap="butt" stroke-linejoin="round" stroke="rgb(92.156863%, 92.156863%, 92.156863%)" stroke-opacity="1" stroke-miterlimit="10" d="M 47.273438 58.394531 L 569.027344 58.394531 "/>
</g>
<g clip-path="url(#clip-12)">
<path fill="none" stroke-width="1.357972" stroke-linecap="butt" stroke-linejoin="round" stroke="rgb(92.156863%, 92.156863%, 92.156863%)" stroke-opacity="1" stroke-miterlimit="10" d="M 70.992188 207.921875 L 70.992188 31.507812 "/>
</g>
<g clip-path="url(#clip-13)">
<path fill="none" stroke-width="1.357972" stroke-linecap="butt" stroke-linejoin="round" stroke="rgb(92.156863%, 92.156863%, 92.156863%)" stroke-opacity="1" stroke-miterlimit="10" d="M 189.570312 207.921875 L 189.570312 31.507812 "/>
</g>
<g clip-path="url(#clip-14)">
<path fill="none" stroke-width="1.357972" stroke-linecap="butt" stroke-linejoin="round" stroke="rgb(92.156863%, 92.156863%, 92.156863%)" stroke-opacity="1" stroke-miterlimit="10" d="M 308.148438 207.921875 L 308.148438 31.507812 "/>
</g>
<g clip-path="url(#clip-15)">
<path fill="none" stroke-width="1.357972" stroke-linecap="butt" stroke-linejoin="round" stroke="rgb(92.156863%, 92.156863%, 92.156863%)" stroke-opacity="1" stroke-miterlimit="10" d="M 426.730469 207.921875 L 426.730469 31.507812 "/>
</g>
<g clip-path="url(#clip-16)">
<path fill="none" stroke-width="1.357972" stroke-linecap="butt" stroke-linejoin="round" stroke="rgb(92.156863%, 92.156863%, 92.156863%)" stroke-opacity="1" stroke-miterlimit="10" d="M 545.308594 207.921875 L 545.308594 31.507812 "/>
</g>
<path fill-rule="nonzero" fill="rgb(17.254902%, 49.803922%, 72.156863%)" fill-opacity="0.4" d="M 70.992188 199.902344 L 72.179688 198.488281 L 73.367188 197.078125 L 74.558594 195.679688 L 75.746094 194.285156 L 76.933594 192.898438 L 78.125 191.519531 L 79.3125 190.144531 L 80.5 188.78125 L 81.691406 187.421875 L 82.878906 186.070312 L 84.066406 184.726562 L 85.253906 183.390625 L 86.445312 182.0625 L 87.632812 180.738281 L 88.820312 179.421875 L 90.011719 178.113281 L 91.199219 176.8125 L 92.386719 175.519531 L 93.578125 174.230469 L 94.765625 172.953125 L 95.953125 171.679688 L 97.144531 170.414062 L 98.332031 169.15625 L 99.519531 167.902344 L 100.710938 166.660156 L 101.898438 165.421875 L 103.085938 164.191406 L 104.277344 162.96875 L 105.464844 161.753906 L 106.652344 160.542969 L 107.84375 159.339844 L 109.03125 158.148438 L 110.21875 156.960938 L 111.410156 155.777344 L 112.597656 154.605469 L 113.785156 153.441406 L 114.976562 152.28125 L 116.164062 151.128906 L 117.351562 149.984375 L 118.542969 148.847656 L 119.730469 147.714844 L 120.917969 146.59375 L 122.109375 145.476562 L 123.296875 144.367188 L 124.484375 143.265625 L 125.675781 142.167969 L 126.863281 141.082031 L 128.050781 140 L 129.242188 138.925781 L 130.429688 137.859375 L 131.617188 136.800781 L 132.804688 135.746094 L 133.996094 134.703125 L 135.183594 133.664062 L 136.371094 132.632812 L 137.5625 131.609375 L 138.75 130.59375 L 139.9375 129.582031 L 141.128906 128.582031 L 142.316406 127.585938 L 143.503906 126.597656 L 144.695312 125.613281 L 145.882812 124.640625 L 147.070312 123.671875 L 148.261719 122.714844 L 149.449219 121.761719 L 150.636719 120.816406 L 151.828125 119.875 L 153.015625 118.945312 L 154.203125 118.019531 L 155.394531 117.101562 L 156.582031 116.191406 L 157.769531 115.289062 L 158.960938 114.394531 L 160.148438 113.503906 L 161.335938 112.625 L 162.527344 111.75 L 163.714844 110.882812 L 164.902344 110.019531 L 166.09375 109.167969 L 167.28125 108.320312 L 168.46875 107.480469 L 169.660156 106.652344 L 170.847656 105.824219 L 172.035156 105.007812 L 173.226562 104.195312 L 174.414062 103.394531 L 175.601562 102.597656 L 176.792969 101.808594 L 177.980469 101.027344 L 179.167969 100.25 L 180.359375 99.484375 L 181.546875 98.722656 L 182.734375 97.96875 L 183.921875 97.222656 L 185.113281 96.480469 L 186.300781 95.75 L 187.488281 95.023438 L 188.679688 94.304688 L 189.867188 93.59375 L 191.054688 92.890625 L 192.246094 92.195312 L 193.433594 91.503906 L 194.621094 90.820312 L 195.8125 90.144531 L 197 89.476562 L 198.1875 88.816406 L 199.378906 88.164062 L 200.566406 87.515625 L 201.753906 86.875 L 202.945312 86.242188 L 204.132812 85.617188 L 205.320312 84.996094 L 206.511719 84.386719 L 207.699219 83.78125 L 208.886719 83.183594 L 210.078125 82.59375 L 211.265625 82.011719 L 212.453125 81.433594 L 213.644531 80.867188 L 214.832031 80.304688 L 216.019531 79.75 L 217.210938 79.203125 L 218.398438 78.664062 L 219.585938 78.128906 L 220.777344 77.601562 L 221.964844 77.082031 L 223.152344 76.570312 L 224.34375 76.066406 L 225.53125 75.570312 L 226.71875 75.078125 L 227.910156 74.59375 L 229.097656 74.117188 L 230.285156 73.648438 L 231.476562 73.1875 L 232.664062 72.730469 L 233.851562 72.285156 L 235.039062 71.84375 L 236.230469 71.410156 L 237.417969 70.980469 L 238.605469 70.5625 L 239.796875 70.152344 L 240.984375 69.746094 L 242.171875 69.347656 L 243.363281 68.957031 L 244.550781 68.570312 L 245.738281 68.195312 L 246.929688 67.824219 L 248.117188 67.460938 L 249.304688 67.105469 L 250.496094 66.757812 L 251.683594 66.417969 L 252.871094 66.082031 L 254.0625 65.757812 L 255.25 65.4375 L 256.4375 65.125 L 257.628906 64.816406 L 258.816406 64.519531 L 260.003906 64.226562 L 261.195312 63.941406 L 262.382812 63.664062 L 263.570312 63.394531 L 264.761719 63.132812 L 265.949219 62.875 L 267.136719 62.628906 L 268.328125 62.386719 L 269.515625 62.152344 L 270.703125 61.921875 L 271.894531 61.703125 L 273.082031 61.488281 L 274.269531 61.28125 L 275.460938 61.085938 L 276.648438 60.890625 L 277.835938 60.707031 L 279.027344 60.53125 L 280.214844 60.359375 L 281.402344 60.195312 L 282.589844 60.039062 L 283.78125 59.890625 L 284.96875 59.746094 L 286.15625 59.613281 L 287.347656 59.484375 L 288.535156 59.363281 L 289.722656 59.25 L 290.914062 59.144531 L 292.101562 59.042969 L 293.289062 58.949219 L 294.480469 58.867188 L 295.667969 58.789062 L 296.855469 58.714844 L 298.046875 58.652344 L 299.234375 58.59375 L 300.421875 58.546875 L 301.613281 58.503906 L 302.800781 58.46875 L 303.988281 58.4375 L 305.179688 58.417969 L 306.367188 58.402344 L 307.554688 58.394531 L 308.746094 58.394531 L 309.933594 58.402344 L 311.121094 58.417969 L 312.3125 58.4375 L 313.5 58.46875 L 314.6875 58.503906 L 315.878906 58.546875 L 317.066406 58.59375 L 318.253906 58.652344 L 319.445312 58.714844 L 320.632812 58.789062 L 321.820312 58.867188 L 323.011719 58.949219 L 324.199219 59.042969 L 325.386719 59.144531 L 326.578125 59.25 L 327.765625 59.363281 L 328.953125 59.484375 L 330.144531 59.613281 L 331.332031 59.746094 L 332.519531 59.890625 L 333.707031 60.039062 L 334.898438 60.195312 L 336.085938 60.359375 L 337.273438 60.53125 L 338.464844 60.707031 L 339.652344 60.890625 L 340.839844 61.085938 L 342.03125 61.28125 L 343.21875 61.488281 L 344.40625 61.703125 L 345.597656 61.921875 L 346.785156 62.152344 L 347.972656 62.386719 L 349.164062 62.628906 L 350.351562 62.875 L 351.539062 63.132812 L 352.730469 63.394531 L 353.917969 63.664062 L 355.105469 63.941406 L 356.296875 64.226562 L 357.484375 64.519531 L 358.671875 64.816406 L 359.863281 65.125 L 361.050781 65.4375 L 362.238281 65.757812 L 363.429688 66.082031 L 364.617188 66.417969 L 365.804688 66.757812 L 366.996094 67.105469 L 368.183594 67.460938 L 369.371094 67.824219 L 370.5625 68.195312 L 371.75 68.570312 L 372.9375 68.957031 L 374.128906 69.347656 L 375.316406 69.746094 L 376.503906 70.152344 L 377.695312 70.5625 L 378.882812 70.980469 L 380.070312 71.410156 L 381.257812 71.84375 L 382.449219 72.285156 L 383.636719 72.730469 L 384.824219 73.1875 L 386.015625 73.648438 L 387.203125 74.117188 L 388.390625 74.59375 L 389.582031 75.078125 L 390.769531 75.570312 L 391.957031 76.066406 L 393.148438 76.570312 L 394.335938 77.082031 L 395.523438 77.601562 L 396.714844 78.128906 L 397.902344 78.664062 L 399.089844 79.203125 L 400.28125 79.75 L 401.46875 80.304688 L 402.65625 80.867188 L 403.847656 81.433594 L 405.035156 82.011719 L 406.222656 82.59375 L 407.414062 83.183594 L 408.601562 83.78125 L 409.789062 84.386719 L 410.980469 84.996094 L 412.167969 85.617188 L 413.355469 86.242188 L 414.546875 86.875 L 415.734375 87.515625 L 416.921875 88.164062 L 418.113281 88.816406 L 419.300781 89.476562 L 420.488281 90.144531 L 421.679688 90.820312 L 422.867188 91.503906 L 424.054688 92.195312 L 425.246094 92.890625 L 426.433594 93.59375 L 427.621094 94.304688 L 428.8125 95.023438 L 430 95.75 L 431.1875 96.480469 L 432.375 97.222656 L 433.566406 97.96875 L 434.753906 98.722656 L 435.941406 99.484375 L 437.132812 100.25 L 438.320312 101.027344 L 439.507812 101.808594 L 440.699219 102.597656 L 441.886719 103.394531 L 443.074219 104.195312 L 444.265625 105.007812 L 445.453125 105.824219 L 446.640625 106.652344 L 447.832031 107.480469 L 449.019531 108.320312 L 450.207031 109.167969 L 451.398438 110.019531 L 452.585938 110.882812 L 453.773438 111.75 L 454.964844 112.625 L 456.152344 113.503906 L 457.339844 114.394531 L 458.53125 115.289062 L 459.71875 116.191406 L 460.90625 117.101562 L 462.097656 118.019531 L 463.285156 118.945312 L 464.472656 119.875 L 465.664062 120.816406 L 466.851562 121.761719 L 468.039062 122.714844 L 469.230469 123.671875 L 470.417969 124.640625 L 471.605469 125.613281 L 472.796875 126.597656 L 473.984375 127.585938 L 475.171875 128.582031 L 476.363281 129.582031 L 477.550781 130.59375 L 478.738281 131.609375 L 479.929688 132.632812 L 481.117188 133.664062 L 482.304688 134.703125 L 483.492188 135.746094 L 484.683594 136.800781 L 485.871094 137.859375 L 487.058594 138.925781 L 488.25 140 L 489.4375 141.082031 L 490.625 142.167969 L 491.816406 143.265625 L 493.003906 144.367188 L 494.191406 145.476562 L 495.382812 146.59375 L 496.570312 147.714844 L 497.757812 148.847656 L 498.949219 149.984375 L 500.136719 151.128906 L 501.324219 152.28125 L 502.515625 153.441406 L 503.703125 154.605469 L 504.890625 155.777344 L 506.082031 156.960938 L 507.269531 158.148438 L 508.457031 159.339844 L 509.648438 160.542969 L 510.835938 161.753906 L 512.023438 162.96875 L 513.214844 164.191406 L 514.402344 165.421875 L 515.589844 166.660156 L 516.78125 167.902344 L 517.96875 169.15625 L 519.15625 170.414062 L 520.347656 171.679688 L 521.535156 172.953125 L 522.722656 174.230469 L 523.914062 175.519531 L 525.101562 176.8125 L 526.289062 178.113281 L 527.480469 179.421875 L 528.667969 180.738281 L 529.855469 182.0625 L 531.042969 183.390625 L 532.234375 184.726562 L 533.421875 186.070312 L 534.609375 187.421875 L 535.800781 188.78125 L 536.988281 190.144531 L 538.175781 191.519531 L 539.367188 192.898438 L 540.554688 194.285156 L 541.742188 195.679688 L 542.933594 197.078125 L 544.121094 198.488281 L 545.308594 199.902344 Z M 70.992188 199.902344 "/>
<path fill="none" stroke-width="2.133957" stroke-linecap="butt" stroke-linejoin="round" stroke="rgb(17.254902%, 49.803922%, 72.156863%)" stroke-opacity="1" stroke-miterlimit="10" d="M 70.992188 199.902344 L 72.179688 198.488281 L 73.367188 197.078125 L 74.558594 195.679688 L 75.746094 194.285156 L 76.933594 192.898438 L 78.125 191.519531 L 79.3125 190.144531 L 80.5 188.78125 L 81.691406 187.421875 L 82.878906 186.070312 L 84.066406 184.726562 L 85.253906 183.390625 L 86.445312 182.0625 L 87.632812 180.738281 L 88.820312 179.421875 L 90.011719 178.113281 L 91.199219 176.8125 L 92.386719 175.519531 L 93.578125 174.230469 L 94.765625 172.953125 L 95.953125 171.679688 L 97.144531 170.414062 L 98.332031 169.15625 L 99.519531 167.902344 L 100.710938 166.660156 L 101.898438 165.421875 L 103.085938 164.191406 L 104.277344 162.96875 L 105.464844 161.753906 L 106.652344 160.542969 L 107.84375 159.339844 L 109.03125 158.148438 L 110.21875 156.960938 L 111.410156 155.777344 L 112.597656 154.605469 L 113.785156 153.441406 L 114.976562 152.28125 L 116.164062 151.128906 L 117.351562 149.984375 L 118.542969 148.847656 L 119.730469 147.714844 L 120.917969 146.59375 L 122.109375 145.476562 L 123.296875 144.367188 L 124.484375 143.265625 L 125.675781 142.167969 L 126.863281 141.082031 L 128.050781 140 L 129.242188 138.925781 L 130.429688 137.859375 L 131.617188 136.800781 L 132.804688 135.746094 L 133.996094 134.703125 L 135.183594 133.664062 L 136.371094 132.632812 L 137.5625 131.609375 L 138.75 130.59375 L 139.9375 129.582031 L 141.128906 128.582031 L 142.316406 127.585938 L 143.503906 126.597656 L 144.695312 125.613281 L 145.882812 124.640625 L 147.070312 123.671875 L 148.261719 122.714844 L 149.449219 121.761719 L 150.636719 120.816406 L 151.828125 119.875 L 153.015625 118.945312 L 154.203125 118.019531 L 155.394531 117.101562 L 156.582031 116.191406 L 157.769531 115.289062 L 158.960938 114.394531 L 160.148438 113.503906 L 161.335938 112.625 L 162.527344 111.75 L 163.714844 110.882812 L 164.902344 110.019531 L 166.09375 109.167969 L 167.28125 108.320312 L 168.46875 107.480469 L 169.660156 106.652344 L 170.847656 105.824219 L 172.035156 105.007812 L 173.226562 104.195312 L 174.414062 103.394531 L 175.601562 102.597656 L 176.792969 101.808594 L 177.980469 101.027344 L 179.167969 100.25 L 180.359375 99.484375 L 181.546875 98.722656 L 182.734375 97.96875 L 183.921875 97.222656 L 185.113281 96.480469 L 186.300781 95.75 L 187.488281 95.023438 L 188.679688 94.304688 L 189.867188 93.59375 L 191.054688 92.890625 L 192.246094 92.195312 L 193.433594 91.503906 L 194.621094 90.820312 L 195.8125 90.144531 L 197 89.476562 L 198.1875 88.816406 L 199.378906 88.164062 L 200.566406 87.515625 L 201.753906 86.875 L 202.945312 86.242188 L 204.132812 85.617188 L 205.320312 84.996094 L 206.511719 84.386719 L 207.699219 83.78125 L 208.886719 83.183594 L 210.078125 82.59375 L 211.265625 82.011719 L 212.453125 81.433594 L 213.644531 80.867188 L 214.832031 80.304688 L 216.019531 79.75 L 217.210938 79.203125 L 218.398438 78.664062 L 219.585938 78.128906 L 220.777344 77.601562 L 221.964844 77.082031 L 223.152344 76.570312 L 224.34375 76.066406 L 225.53125 75.570312 L 226.71875 75.078125 L 227.910156 74.59375 L 229.097656 74.117188 L 230.285156 73.648438 L 231.476562 73.1875 L 232.664062 72.730469 L 233.851562 72.285156 L 235.039062 71.84375 L 236.230469 71.410156 L 237.417969 70.980469 L 238.605469 70.5625 L 239.796875 70.152344 L 240.984375 69.746094 L 242.171875 69.347656 L 243.363281 68.957031 L 244.550781 68.570312 L 245.738281 68.195312 L 246.929688 67.824219 L 248.117188 67.460938 L 249.304688 67.105469 L 250.496094 66.757812 L 251.683594 66.417969 L 252.871094 66.082031 L 254.0625 65.757812 L 255.25 65.4375 L 256.4375 65.125 L 257.628906 64.816406 L 258.816406 64.519531 L 260.003906 64.226562 L 261.195312 63.941406 L 262.382812 63.664062 L 263.570312 63.394531 L 264.761719 63.132812 L 265.949219 62.875 L 267.136719 62.628906 L 268.328125 62.386719 L 269.515625 62.152344 L 270.703125 61.921875 L 271.894531 61.703125 L 273.082031 61.488281 L 274.269531 61.28125 L 275.460938 61.085938 L 276.648438 60.890625 L 277.835938 60.707031 L 279.027344 60.53125 L 280.214844 60.359375 L 281.402344 60.195312 L 282.589844 60.039062 L 283.78125 59.890625 L 284.96875 59.746094 L 286.15625 59.613281 L 287.347656 59.484375 L 288.535156 59.363281 L 289.722656 59.25 L 290.914062 59.144531 L 292.101562 59.042969 L 293.289062 58.949219 L 294.480469 58.867188 L 295.667969 58.789062 L 296.855469 58.714844 L 298.046875 58.652344 L 299.234375 58.59375 L 300.421875 58.546875 L 301.613281 58.503906 L 302.800781 58.46875 L 303.988281 58.4375 L 305.179688 58.417969 L 306.367188 58.402344 L 307.554688 58.394531 L 308.746094 58.394531 L 309.933594 58.402344 L 311.121094 58.417969 L 312.3125 58.4375 L 313.5 58.46875 L 314.6875 58.503906 L 315.878906 58.546875 L 317.066406 58.59375 L 318.253906 58.652344 L 319.445312 58.714844 L 320.632812 58.789062 L 321.820312 58.867188 L 323.011719 58.949219 L 324.199219 59.042969 L 325.386719 59.144531 L 326.578125 59.25 L 327.765625 59.363281 L 328.953125 59.484375 L 330.144531 59.613281 L 331.332031 59.746094 L 332.519531 59.890625 L 333.707031 60.039062 L 334.898438 60.195312 L 336.085938 60.359375 L 337.273438 60.53125 L 338.464844 60.707031 L 339.652344 60.890625 L 340.839844 61.085938 L 342.03125 61.28125 L 343.21875 61.488281 L 344.40625 61.703125 L 345.597656 61.921875 L 346.785156 62.152344 L 347.972656 62.386719 L 349.164062 62.628906 L 350.351562 62.875 L 351.539062 63.132812 L 352.730469 63.394531 L 353.917969 63.664062 L 355.105469 63.941406 L 356.296875 64.226562 L 357.484375 64.519531 L 358.671875 64.816406 L 359.863281 65.125 L 361.050781 65.4375 L 362.238281 65.757812 L 363.429688 66.082031 L 364.617188 66.417969 L 365.804688 66.757812 L 366.996094 67.105469 L 368.183594 67.460938 L 369.371094 67.824219 L 370.5625 68.195312 L 371.75 68.570312 L 372.9375 68.957031 L 374.128906 69.347656 L 375.316406 69.746094 L 376.503906 70.152344 L 377.695312 70.5625 L 378.882812 70.980469 L 380.070312 71.410156 L 381.257812 71.84375 L 382.449219 72.285156 L 383.636719 72.730469 L 384.824219 73.1875 L 386.015625 73.648438 L 387.203125 74.117188 L 388.390625 74.59375 L 389.582031 75.078125 L 390.769531 75.570312 L 391.957031 76.066406 L 393.148438 76.570312 L 394.335938 77.082031 L 395.523438 77.601562 L 396.714844 78.128906 L 397.902344 78.664062 L 399.089844 79.203125 L 400.28125 79.75 L 401.46875 80.304688 L 402.65625 80.867188 L 403.847656 81.433594 L 405.035156 82.011719 L 406.222656 82.59375 L 407.414062 83.183594 L 408.601562 83.78125 L 409.789062 84.386719 L 410.980469 84.996094 L 412.167969 85.617188 L 413.355469 86.242188 L 414.546875 86.875 L 415.734375 87.515625 L 416.921875 88.164062 L 418.113281 88.816406 L 419.300781 89.476562 L 420.488281 90.144531 L 421.679688 90.820312 L 422.867188 91.503906 L 424.054688 92.195312 L 425.246094 92.890625 L 426.433594 93.59375 L 427.621094 94.304688 L 428.8125 95.023438 L 430 95.75 L 431.1875 96.480469 L 432.375 97.222656 L 433.566406 97.96875 L 434.753906 98.722656 L 435.941406 99.484375 L 437.132812 100.25 L 438.320312 101.027344 L 439.507812 101.808594 L 440.699219 102.597656 L 441.886719 103.394531 L 443.074219 104.195312 L 444.265625 105.007812 L 445.453125 105.824219 L 446.640625 106.652344 L 447.832031 107.480469 L 449.019531 108.320312 L 450.207031 109.167969 L 451.398438 110.019531 L 452.585938 110.882812 L 453.773438 111.75 L 454.964844 112.625 L 456.152344 113.503906 L 457.339844 114.394531 L 458.53125 115.289062 L 459.71875 116.191406 L 460.90625 117.101562 L 462.097656 118.019531 L 463.285156 118.945312 L 464.472656 119.875 L 465.664062 120.816406 L 466.851562 121.761719 L 468.039062 122.714844 L 469.230469 123.671875 L 470.417969 124.640625 L 471.605469 125.613281 L 472.796875 126.597656 L 473.984375 127.585938 L 475.171875 128.582031 L 476.363281 129.582031 L 477.550781 130.59375 L 478.738281 131.609375 L 479.929688 132.632812 L 481.117188 133.664062 L 482.304688 134.703125 L 483.492188 135.746094 L 484.683594 136.800781 L 485.871094 137.859375 L 487.058594 138.925781 L 488.25 140 L 489.4375 141.082031 L 490.625 142.167969 L 491.816406 143.265625 L 493.003906 144.367188 L 494.191406 145.476562 L 495.382812 146.59375 L 496.570312 147.714844 L 497.757812 148.847656 L 498.949219 149.984375 L 500.136719 151.128906 L 501.324219 152.28125 L 502.515625 153.441406 L 503.703125 154.605469 L 504.890625 155.777344 L 506.082031 156.960938 L 507.269531 158.148438 L 508.457031 159.339844 L 509.648438 160.542969 L 510.835938 161.753906 L 512.023438 162.96875 L 513.214844 164.191406 L 514.402344 165.421875 L 515.589844 166.660156 L 516.78125 167.902344 L 517.96875 169.15625 L 519.15625 170.414062 L 520.347656 171.679688 L 521.535156 172.953125 L 522.722656 174.230469 L 523.914062 175.519531 L 525.101562 176.8125 L 526.289062 178.113281 L 527.480469 179.421875 L 528.667969 180.738281 L 529.855469 182.0625 L 531.042969 183.390625 L 532.234375 184.726562 L 533.421875 186.070312 L 534.609375 187.421875 L 535.800781 188.78125 L 536.988281 190.144531 L 538.175781 191.519531 L 539.367188 192.898438 L 540.554688 194.285156 L 541.742188 195.679688 L 542.933594 197.078125 L 544.121094 198.488281 L 545.308594 199.902344 "/>
<g clip-path="url(#clip-17)">
<g fill="rgb(0%, 0%, 0%)" fill-opacity="1">
<use xlink:href="#glyph-0-0" x="251.960938" y="45.039062"/>
<use xlink:href="#glyph-0-1" x="255.795898" y="45.039062"/>
<use xlink:href="#glyph-0-2" x="266.295898" y="45.039062"/>
<use xlink:href="#glyph-0-3" x="270.958008" y="45.039062"/>
<use xlink:href="#glyph-0-4" x="274.847656" y="45.039062"/>
<use xlink:href="#glyph-0-5" x="282.633789" y="45.039062"/>
<use xlink:href="#glyph-0-6" x="289.633789" y="45.039062"/>
<use xlink:href="#glyph-0-7" x="294.295898" y="45.039062"/>
<use xlink:href="#glyph-0-8" x="302.082031" y="45.039062"/>
<use xlink:href="#glyph-0-5" x="310.257812" y="45.039062"/>
<use xlink:href="#glyph-0-9" x="317.257812" y="45.039062"/>
<use xlink:href="#glyph-0-3" x="321.919922" y="45.039062"/>
<use xlink:href="#glyph-0-10" x="325.80957" y="45.039062"/>
<use xlink:href="#glyph-0-5" x="333.595703" y="45.039062"/>
<use xlink:href="#glyph-0-3" x="340.595703" y="45.039062"/>
<use xlink:href="#glyph-0-11" x="344.485352" y="45.039062"/>
<use xlink:href="#glyph-0-3" x="352.661133" y="45.039062"/>
<use xlink:href="#glyph-0-7" x="356.550781" y="45.039062"/>
</g>
</g>
<g fill="rgb(30.196078%, 30.196078%, 30.196078%)" fill-opacity="1">
<use xlink:href="#glyph-1-0" x="25.429688" y="204.410156"/>
<use xlink:href="#glyph-1-1" x="31.658594" y="204.410156"/>
<use xlink:href="#glyph-1-0" x="34.770313" y="204.410156"/>
</g>
<g fill="rgb(30.196078%, 30.196078%, 30.196078%)" fill-opacity="1">
<use xlink:href="#glyph-1-0" x="25.429688" y="157.242188"/>
<use xlink:href="#glyph-1-1" x="31.658594" y="157.242188"/>
<use xlink:href="#glyph-1-2" x="34.770313" y="157.242188"/>
</g>
<g fill="rgb(30.196078%, 30.196078%, 30.196078%)" fill-opacity="1">
<use xlink:href="#glyph-1-3" x="25.429688" y="110.074219"/>
<use xlink:href="#glyph-1-1" x="31.658594" y="110.074219"/>
<use xlink:href="#glyph-1-0" x="34.770313" y="110.074219"/>
</g>
<g fill="rgb(30.196078%, 30.196078%, 30.196078%)" fill-opacity="1">
<use xlink:href="#glyph-1-3" x="25.429688" y="62.902344"/>
<use xlink:href="#glyph-1-1" x="31.658594" y="62.902344"/>
<use xlink:href="#glyph-1-2" x="34.770313" y="62.902344"/>
</g>
<g fill="rgb(30.196078%, 30.196078%, 30.196078%)" fill-opacity="1">
<use xlink:href="#glyph-1-0" x="60.09375" y="223.214844"/>
<use xlink:href="#glyph-1-1" x="66.322656" y="223.214844"/>
<use xlink:href="#glyph-1-0" x="69.434375" y="223.214844"/>
<use xlink:href="#glyph-1-0" x="75.663281" y="223.214844"/>
</g>
<g fill="rgb(30.196078%, 30.196078%, 30.196078%)" fill-opacity="1">
<use xlink:href="#glyph-1-0" x="178.671875" y="223.214844"/>
<use xlink:href="#glyph-1-1" x="184.900781" y="223.214844"/>
<use xlink:href="#glyph-1-4" x="188.0125" y="223.214844"/>
<use xlink:href="#glyph-1-2" x="194.241406" y="223.214844"/>
</g>
<g fill="rgb(30.196078%, 30.196078%, 30.196078%)" fill-opacity="1">
<use xlink:href="#glyph-1-0" x="297.25" y="223.214844"/>
<use xlink:href="#glyph-1-1" x="303.478906" y="223.214844"/>
<use xlink:href="#glyph-1-2" x="306.590625" y="223.214844"/>
<use xlink:href="#glyph-1-0" x="312.819531" y="223.214844"/>
</g>
<g fill="rgb(30.196078%, 30.196078%, 30.196078%)" fill-opacity="1">
<use xlink:href="#glyph-1-0" x="415.832031" y="223.214844"/>
<use xlink:href="#glyph-1-1" x="422.060938" y="223.214844"/>
<use xlink:href="#glyph-1-5" x="425.172656" y="223.214844"/>
<use xlink:href="#glyph-1-2" x="431.401563" y="223.214844"/>
</g>
<g fill="rgb(30.196078%, 30.196078%, 30.196078%)" fill-opacity="1">
<use xlink:href="#glyph-1-3" x="534.410156" y="223.214844"/>
<use xlink:href="#glyph-1-1" x="540.639063" y="223.214844"/>
<use xlink:href="#glyph-1-0" x="543.750781" y="223.214844"/>
<use xlink:href="#glyph-1-0" x="549.979688" y="223.214844"/>
</g>
<g fill="rgb(0%, 0%, 0%)" fill-opacity="1">
<use xlink:href="#glyph-0-5" x="304.648438" y="241.078125"/>
</g>
<g fill="rgb(0%, 0%, 0%)" fill-opacity="1">
<use xlink:href="#glyph-2-0" x="17.996094" y="129.820312"/>
<use xlink:href="#glyph-2-1" x="17.996094" y="125.930664"/>
<use xlink:href="#glyph-2-2" x="17.996094" y="121.268555"/>
<use xlink:href="#glyph-2-3" x="17.996094" y="114.268555"/>
</g>
<g fill="rgb(0%, 0%, 0%)" fill-opacity="1">
<use xlink:href="#glyph-3-0" x="47.273438" y="20"/>
<use xlink:href="#glyph-3-1" x="51.941016" y="20"/>
<use xlink:href="#glyph-3-2" x="57.535547" y="20"/>
<use xlink:href="#glyph-3-3" x="65.935547" y="20"/>
<use xlink:href="#glyph-3-4" x="71.530078" y="20"/>
<use xlink:href="#glyph-3-5" x="76.197656" y="20"/>
<use xlink:href="#glyph-3-4" x="86.008594" y="20"/>
<use xlink:href="#glyph-3-6" x="90.676172" y="20"/>
<use xlink:href="#glyph-3-2" x="100.019531" y="20"/>
<use xlink:href="#glyph-3-1" x="108.419531" y="20"/>
<use xlink:href="#glyph-3-7" x="114.014063" y="20"/>
<use xlink:href="#glyph-3-4" x="123.357422" y="20"/>
<use xlink:href="#glyph-3-8" x="128.025" y="20"/>
<use xlink:href="#glyph-3-4" x="137.835938" y="20"/>
<use xlink:href="#glyph-3-2" x="142.503516" y="20"/>
<use xlink:href="#glyph-3-3" x="150.903516" y="20"/>
<use xlink:href="#glyph-3-4" x="156.498047" y="20"/>
<use xlink:href="#glyph-3-9" x="161.165625" y="20"/>
<use xlink:href="#glyph-3-4" x="177.965625" y="20"/>
<use xlink:href="#glyph-3-10" x="182.633203" y="20"/>
<use xlink:href="#glyph-3-11" x="193.838672" y="20"/>
<use xlink:href="#glyph-3-12" x="203.182031" y="20"/>
<use xlink:href="#glyph-3-13" x="207.849609" y="20"/>
<use xlink:href="#glyph-3-1" x="217.192969" y="20"/>
<use xlink:href="#glyph-3-14" x="222.7875" y="20"/>
<use xlink:href="#glyph-3-15" x="232.130859" y="20"/>
<use xlink:href="#glyph-3-4" x="236.798438" y="20"/>
<use xlink:href="#glyph-3-14" x="241.466016" y="20"/>
<use xlink:href="#glyph-3-3" x="250.809375" y="20"/>
</g>
</svg>
