<?xml version="1.0" encoding="UTF-8"?>
<svg xmlns="http://www.w3.org/2000/svg" xmlns:xlink="http://www.w3.org/1999/xlink" width="576pt" height="259pt" viewBox="0 0 576 259">
<defs>
<g>
<g id="glyph-0-0">
<path d="M 1.109375 0 L 1.109375 -10.023438 L 8.351562 -10.023438 L 8.351562 -8.839844 L 2.433594 -8.839844 L 2.433594 -5.769531 L 7.976562 -5.769531 L 7.976562 -4.59375 L 2.433594 -4.59375 L 2.433594 -1.183594 L 8.585938 -1.183594 L 8.585938 0 Z M 1.109375 0 "/>
</g>
<g id="glyph-0-1">
<path d="M 0.949219 2.78125 L 0.949219 -10.023438 L 3.664062 -10.023438 L 3.664062 -9.003906 L 2.179688 -9.003906 L 2.179688 1.765625 L 3.664062 1.765625 L 3.664062 2.78125 Z M 0.949219 2.78125 "/>
</g>
<g id="glyph-0-2">
<path d="M 0.0625 0 L 3.9375 -5.222656 L 0.519531 -10.023438 L 2.097656 -10.023438 L 3.917969 -7.453125 C 4.296875 -6.917969 4.5625 -6.507812 4.722656 -6.21875 C 4.945312 -6.585938 5.210938 -6.964844 5.515625 -7.363281 L 7.53125 -10.023438 L 8.976562 -10.023438 L 5.453125 -5.296875 L 9.25 0 L 7.609375 0 L 5.085938 -3.574219 C 4.945312 -3.78125 4.796875 -4.003906 4.648438 -4.246094 C 4.425781 -3.878906 4.265625 -3.628906 4.171875 -3.492188 L 1.65625 0 Z M 0.0625 0 "/>
</g>
<g id="glyph-0-3">
<path d="M 2.980469 2.78125 L 0.265625 2.78125 L 0.265625 1.765625 L 1.75 1.765625 L 1.75 -9.003906 L 0.265625 -9.003906 L 0.265625 -10.023438 L 2.980469 -10.023438 Z M 2.980469 2.78125 "/>
</g>
<g id="glyph-0-4">
</g>
<g id="glyph-0-5">
<path d="M 7.398438 -5.890625 L 0.78125 -5.890625 L 0.78125 -7.039062 L 7.398438 -7.039062 L 7.398438 -5.890625 M 7.398438 -2.851562 L 0.78125 -2.851562 L 0.78125 -4 L 7.398438 -4 Z M 7.398438 -2.851562 "/>
</g>
<g id="glyph-0-6">
<path d="M 7.046875 -1.183594 L 7.046875 0 L 0.421875 0 C 0.414062 -0.296875 0.460938 -0.582031 0.566406 -0.855469 C 0.734375 -1.304688 1.007812 -1.75 1.378906 -2.1875 C 1.75 -2.625 2.285156 -3.132812 2.988281 -3.703125 C 4.078125 -4.597656 4.8125 -5.304688 5.195312 -5.828125 C 5.578125 -6.347656 5.769531 -6.84375 5.769531 -7.308594 C 5.769531 -7.796875 5.59375 -8.207031 5.246094 -8.542969 C 4.898438 -8.875 4.445312 -9.042969 3.882812 -9.042969 C 3.289062 -9.042969 2.816406 -8.867188 2.460938 -8.511719 C 2.105469 -8.15625 1.925781 -7.664062 1.921875 -7.035156 L 0.65625 -7.164062 C 0.742188 -8.109375 1.070312 -8.828125 1.632812 -9.320312 C 2.199219 -9.816406 2.957031 -10.0625 3.910156 -10.0625 C 4.871094 -10.0625 5.632812 -9.796875 6.195312 -9.261719 C 6.753906 -8.730469 7.035156 -8.070312 7.035156 -7.28125 C 7.035156 -6.878906 6.953125 -6.484375 6.789062 -6.097656 C 6.625 -5.710938 6.351562 -5.300781 5.972656 -4.875 C 5.589844 -4.445312 4.957031 -3.859375 4.074219 -3.109375 C 3.335938 -2.492188 2.863281 -2.070312 2.652344 -1.847656 C 2.441406 -1.628906 2.269531 -1.40625 2.132812 -1.183594 Z M 7.046875 -1.183594 "/>
</g>
<g id="glyph-0-7">
<path d="M 0.101562 0 L 2.753906 -3.773438 L 0.300781 -7.257812 L 1.839844 -7.257812 L 2.953125 -5.558594 C 3.164062 -5.234375 3.332031 -4.960938 3.460938 -4.742188 C 3.660156 -5.046875 3.84375 -5.3125 4.011719 -5.542969 L 5.234375 -7.257812 L 6.707031 -7.257812 L 4.195312 -3.84375 L 6.898438 0 L 5.386719 0 L 3.898438 -2.257812 L 3.5 -2.863281 L 1.59375 0 Z M 0.101562 0 "/>
</g>
<g id="glyph-1-0">
<path d="M 0.464844 -3.953125 C 0.464844 -4.902344 0.5625 -5.664062 0.757812 -6.242188 C 0.953125 -6.820312 1.242188 -7.265625 1.628906 -7.578125 C 2.011719 -7.894531 2.496094 -8.050781 3.078125 -8.050781 C 3.507812 -8.050781 3.886719 -7.964844 4.210938 -7.789062 C 4.535156 -7.617188 4.804688 -7.367188 5.015625 -7.042969 C 5.226562 -6.714844 5.390625 -6.316406 5.511719 -5.847656 C 5.632812 -5.378906 5.691406 -4.75 5.691406 -3.953125 C 5.691406 -3.011719 5.597656 -2.253906 5.402344 -1.675781 C 5.210938 -1.097656 4.921875 -0.652344 4.535156 -0.335938 C 4.152344 -0.0195312 3.664062 0.136719 3.078125 0.136719 C 2.304688 0.136719 1.699219 -0.140625 1.257812 -0.695312 C 0.730469 -1.363281 0.464844 -2.449219 0.464844 -3.953125 M 1.476562 -3.953125 C 1.476562 -2.636719 1.628906 -1.761719 1.9375 -1.328125 C 2.246094 -0.890625 2.625 -0.671875 3.078125 -0.671875 C 3.53125 -0.671875 3.910156 -0.890625 4.21875 -1.328125 C 4.527344 -1.765625 4.679688 -2.640625 4.679688 -3.953125 C 4.679688 -5.273438 4.527344 -6.152344 4.21875 -6.585938 C 3.910156 -7.019531 3.527344 -7.234375 3.066406 -7.234375 C 2.617188 -7.234375 2.253906 -7.042969 1.984375 -6.660156 C 1.644531 -6.171875 1.476562 -5.269531 1.476562 -3.953125 Z M 1.476562 -3.953125 "/>
</g>
<g id="glyph-1-1">
<path d="M 1.015625 0 L 1.015625 -1.121094 L 2.136719 -1.121094 L 2.136719 0 Z M 1.015625 0 "/>
</g>
<g id="glyph-1-2">
<path d="M 4.171875 0 L 3.1875 0 L 3.1875 -6.273438 C 2.953125 -6.046875 2.640625 -5.820312 2.257812 -5.59375 C 1.871094 -5.367188 1.527344 -5.199219 1.21875 -5.085938 L 1.21875 -6.039062 C 1.769531 -6.296875 2.25 -6.609375 2.664062 -6.976562 C 3.074219 -7.347656 3.367188 -7.703125 3.539062 -8.050781 L 4.171875 -8.050781 Z M 4.171875 0 "/>
</g>
<g id="glyph-1-3">
<path d="M 5.636719 -0.945312 L 5.636719 0 L 0.339844 0 C 0.332031 -0.238281 0.371094 -0.464844 0.453125 -0.683594 C 0.589844 -1.042969 0.804688 -1.398438 1.101562 -1.75 C 1.398438 -2.101562 1.828125 -2.503906 2.390625 -2.964844 C 3.261719 -3.679688 3.851562 -4.246094 4.15625 -4.664062 C 4.460938 -5.078125 4.617188 -5.472656 4.617188 -5.847656 C 4.617188 -6.234375 4.476562 -6.566406 4.195312 -6.832031 C 3.917969 -7.101562 3.554688 -7.234375 3.105469 -7.234375 C 2.632812 -7.234375 2.253906 -7.09375 1.96875 -6.808594 C 1.683594 -6.523438 1.539062 -6.128906 1.535156 -5.628906 L 0.523438 -5.730469 C 0.59375 -6.484375 0.855469 -7.0625 1.308594 -7.457031 C 1.757812 -7.851562 2.367188 -8.050781 3.128906 -8.050781 C 3.898438 -8.050781 4.507812 -7.835938 4.953125 -7.410156 C 5.402344 -6.984375 5.628906 -6.453125 5.628906 -5.824219 C 5.628906 -5.503906 5.5625 -5.1875 5.429688 -4.878906 C 5.300781 -4.566406 5.082031 -4.242188 4.777344 -3.898438 C 4.472656 -3.554688 3.964844 -3.085938 3.257812 -2.488281 C 2.667969 -1.992188 2.289062 -1.65625 2.121094 -1.480469 C 1.953125 -1.300781 1.816406 -1.125 1.707031 -0.945312 Z M 5.636719 -0.945312 "/>
</g>
<g id="glyph-1-4">
<path d="M 0.46875 -2.117188 L 1.453125 -2.246094 C 1.566406 -1.691406 1.761719 -1.289062 2.03125 -1.042969 C 2.304688 -0.796875 2.632812 -0.671875 3.023438 -0.671875 C 3.488281 -0.671875 3.878906 -0.832031 4.195312 -1.152344 C 4.515625 -1.476562 4.675781 -1.871094 4.675781 -2.347656 C 4.675781 -2.796875 4.527344 -3.171875 4.234375 -3.464844 C 3.9375 -3.757812 3.5625 -3.90625 3.105469 -3.90625 C 2.921875 -3.90625 2.6875 -3.867188 2.410156 -3.796875 L 2.519531 -4.660156 C 2.585938 -4.652344 2.640625 -4.648438 2.679688 -4.648438 C 3.097656 -4.648438 3.476562 -4.757812 3.8125 -4.976562 C 4.148438 -5.195312 4.316406 -5.53125 4.316406 -5.988281 C 4.316406 -6.347656 4.191406 -6.648438 3.949219 -6.886719 C 3.703125 -7.121094 3.390625 -7.242188 3.003906 -7.242188 C 2.621094 -7.242188 2.300781 -7.121094 2.046875 -6.878906 C 1.789062 -6.640625 1.625 -6.277344 1.554688 -5.796875 L 0.570312 -5.972656 C 0.6875 -6.632812 0.960938 -7.144531 1.390625 -7.507812 C 1.816406 -7.867188 2.347656 -8.050781 2.980469 -8.050781 C 3.417969 -8.050781 3.820312 -7.957031 4.1875 -7.769531 C 4.558594 -7.582031 4.839844 -7.324219 5.035156 -7 C 5.230469 -6.675781 5.328125 -6.332031 5.328125 -5.964844 C 5.328125 -5.621094 5.234375 -5.304688 5.046875 -5.019531 C 4.863281 -4.734375 4.585938 -4.511719 4.222656 -4.34375 C 4.695312 -4.234375 5.0625 -4.007812 5.328125 -3.660156 C 5.589844 -3.316406 5.71875 -2.886719 5.71875 -2.367188 C 5.71875 -1.667969 5.464844 -1.074219 4.953125 -0.589844 C 4.445312 -0.101562 3.800781 0.140625 3.019531 0.140625 C 2.316406 0.140625 1.730469 -0.0664062 1.265625 -0.488281 C 0.800781 -0.90625 0.535156 -1.449219 0.46875 -2.117188 Z M 0.46875 -2.117188 "/>
</g>
<g id="glyph-1-5">
<path d="M 3.621094 0 L 3.621094 -1.917969 L 0.140625 -1.917969 L 0.140625 -2.820312 L 3.800781 -8.015625 L 4.605469 -8.015625 L 4.605469 -2.820312 L 5.6875 -2.820312 L 5.6875 -1.917969 L 4.605469 -1.917969 L 4.605469 0 L 3.621094 0 M 3.621094 -2.820312 L 3.621094 -6.4375 L 1.109375 -2.820312 Z M 3.621094 -2.820312 "/>
</g>
<g id="glyph-1-6">
<path d="M 0.464844 -2.101562 L 1.5 -2.1875 C 1.574219 -1.683594 1.753906 -1.304688 2.03125 -1.054688 C 2.3125 -0.800781 2.648438 -0.671875 3.039062 -0.671875 C 3.515625 -0.671875 3.914062 -0.851562 4.242188 -1.207031 C 4.570312 -1.566406 4.734375 -2.039062 4.734375 -2.628906 C 4.734375 -3.191406 4.578125 -3.636719 4.261719 -3.960938 C 3.949219 -4.285156 3.535156 -4.445312 3.023438 -4.445312 C 2.707031 -4.445312 2.421875 -4.375 2.164062 -4.230469 C 1.910156 -4.085938 1.710938 -3.898438 1.5625 -3.667969 L 0.640625 -3.789062 L 1.417969 -7.90625 L 5.402344 -7.90625 L 5.402344 -6.96875 L 2.203125 -6.96875 L 1.773438 -4.8125 C 2.253906 -5.148438 2.757812 -5.316406 3.285156 -5.316406 C 3.988281 -5.316406 4.578125 -5.074219 5.058594 -4.589844 C 5.539062 -4.101562 5.78125 -3.480469 5.78125 -2.71875 C 5.78125 -1.992188 5.570312 -1.367188 5.144531 -0.835938 C 4.632812 -0.1875 3.929688 0.136719 3.039062 0.136719 C 2.3125 0.136719 1.714844 -0.0664062 1.253906 -0.476562 C 0.792969 -0.882812 0.53125 -1.425781 0.464844 -2.101562 Z M 0.464844 -2.101562 "/>
</g>
<g id="glyph-2-0">
<path d="M 0 -1.21875 L -6.304688 -1.21875 L -6.304688 -0.128906 L -7.257812 -0.128906 L -7.257812 -1.21875 L -8.03125 -1.21875 C -8.519531 -1.21875 -8.882812 -1.261719 -9.117188 -1.347656 C -9.4375 -1.464844 -9.695312 -1.671875 -9.894531 -1.972656 C -10.09375 -2.269531 -10.191406 -2.6875 -10.191406 -3.226562 C -10.191406 -3.574219 -10.152344 -3.957031 -10.070312 -4.375 L -8.996094 -4.191406 C -9.042969 -3.933594 -9.0625 -3.695312 -9.0625 -3.464844 C -9.0625 -3.09375 -8.984375 -2.828125 -8.824219 -2.671875 C -8.664062 -2.519531 -8.367188 -2.441406 -7.929688 -2.441406 L -7.257812 -2.441406 L -7.257812 -3.855469 L -6.304688 -3.855469 L -6.304688 -2.441406 L 0 -2.441406 Z M 0 -1.21875 "/>
</g>
<g id="glyph-2-1">
<path d="M 2.945312 -3.273438 C 2.089844 -2.59375 1.085938 -2.019531 -0.0625 -1.550781 C -1.210938 -1.082031 -2.398438 -0.847656 -3.628906 -0.847656 C -4.714844 -0.847656 -5.753906 -1.023438 -6.746094 -1.375 C -7.898438 -1.785156 -9.046875 -2.417969 -10.191406 -3.273438 L -10.191406 -4.15625 C -9.246094 -3.605469 -8.566406 -3.242188 -8.164062 -3.0625 C -7.53125 -2.785156 -6.875 -2.566406 -6.195312 -2.40625 C -5.339844 -2.210938 -4.484375 -2.113281 -3.625 -2.113281 C -1.429688 -2.113281 0.757812 -2.792969 2.945312 -4.15625 Z M 2.945312 -3.273438 "/>
</g>
<g id="glyph-2-2">
<path d="M 0 -0.101562 L -3.773438 -2.753906 L -7.257812 -0.300781 L -7.257812 -1.839844 L -5.558594 -2.953125 C -5.234375 -3.164062 -4.960938 -3.332031 -4.742188 -3.460938 C -5.046875 -3.660156 -5.3125 -3.84375 -5.542969 -4.011719 L -7.257812 -5.238281 L -7.257812 -6.707031 L -3.839844 -4.195312 L 0 -6.898438 L 0 -5.386719 L -2.253906 -3.898438 L -2.863281 -3.5 L 0 -1.59375 Z M 0 -0.101562 "/>
</g>
<g id="glyph-2-3">
<path d="M 2.945312 -1.730469 L 2.945312 -0.847656 C 0.757812 -2.210938 -1.429688 -2.890625 -3.625 -2.890625 C -4.480469 -2.890625 -5.328125 -2.792969 -6.171875 -2.597656 C -6.855469 -2.441406 -7.511719 -2.226562 -8.140625 -1.949219 C -8.550781 -1.769531 -9.234375 -1.402344 -10.191406 -0.847656 L -10.191406 -1.730469 C -9.046875 -2.585938 -7.898438 -3.21875 -6.746094 -3.628906 C -5.753906 -3.980469 -4.714844 -4.15625 -3.628906 -4.15625 C -2.398438 -4.15625 -1.210938 -3.921875 -0.0625 -3.449219 C 1.085938 -2.976562 2.089844 -2.402344 2.945312 -1.730469 Z M 2.945312 -1.730469 "/>
</g>
<g id="glyph-3-0">
<path d="M 1.328125 0 L 1.328125 -12.027344 L 10.023438 -12.027344 L 10.023438 -10.605469 L 2.921875 -10.605469 L 2.921875 -6.921875 L 9.574219 -6.921875 L 9.574219 -5.511719 L 2.921875 -5.511719 L 2.921875 -1.417969 L 10.304688 -1.417969 L 10.304688 0 Z M 1.328125 0 "/>
</g>
<g id="glyph-3-1">
<path d="M 0.125 0 L 3.304688 -4.527344 L 0.359375 -8.710938 L 2.207031 -8.710938 L 3.542969 -6.667969 C 3.796875 -6.28125 3.996094 -5.957031 4.152344 -5.691406 C 4.390625 -6.054688 4.613281 -6.375 4.816406 -6.652344 L 6.285156 -8.710938 L 8.046875 -8.710938 L 5.035156 -4.609375 L 8.277344 0 L 6.464844 0 L 4.675781 -2.707031 L 4.199219 -3.4375 L 1.910156 0 Z M 0.125 0 "/>
</g>
<g id="glyph-3-2">
<path d="M 1.109375 3.339844 L 1.109375 -8.710938 L 2.453125 -8.710938 L 2.453125 -7.578125 C 2.769531 -8.023438 3.128906 -8.355469 3.527344 -8.578125 C 3.925781 -8.796875 4.410156 -8.910156 4.980469 -8.910156 C 5.722656 -8.910156 6.378906 -8.71875 6.949219 -8.335938 C 7.515625 -7.953125 7.945312 -7.410156 8.234375 -6.714844 C 8.527344 -6.015625 8.671875 -5.253906 8.671875 -4.421875 C 8.671875 -3.53125 8.511719 -2.726562 8.191406 -2.015625 C 7.871094 -1.300781 7.40625 -0.753906 6.796875 -0.375 C 6.1875 0.0078125 5.546875 0.195312 4.871094 0.195312 C 4.378906 0.195312 3.9375 0.09375 3.546875 -0.113281 C 3.15625 -0.324219 2.835938 -0.585938 2.585938 -0.902344 L 2.585938 3.339844 L 1.109375 3.339844 M 2.445312 -4.304688 C 2.445312 -3.183594 2.671875 -2.355469 3.125 -1.820312 C 3.578125 -1.285156 4.128906 -1.015625 4.773438 -1.015625 C 5.429688 -1.015625 5.992188 -1.292969 6.460938 -1.851562 C 6.925781 -2.40625 7.160156 -3.265625 7.160156 -4.429688 C 7.160156 -5.539062 6.933594 -6.371094 6.476562 -6.921875 C 6.019531 -7.476562 5.472656 -7.75 4.839844 -7.75 C 4.210938 -7.75 3.65625 -7.457031 3.171875 -6.871094 C 2.6875 -6.28125 2.445312 -5.425781 2.445312 -4.304688 Z M 2.445312 -4.304688 "/>
</g>
<g id="glyph-3-3">
<path d="M 3.929688 3.535156 C 3.113281 2.507812 2.425781 1.304688 1.863281 -0.0742188 C 1.300781 -1.453125 1.015625 -2.878906 1.015625 -4.355469 C 1.015625 -5.65625 1.226562 -6.902344 1.648438 -8.097656 C 2.140625 -9.480469 2.902344 -10.859375 3.929688 -12.230469 L 4.988281 -12.230469 C 4.324219 -11.09375 3.886719 -10.28125 3.675781 -9.792969 C 3.339844 -9.039062 3.078125 -8.253906 2.886719 -7.433594 C 2.652344 -6.410156 2.535156 -5.382812 2.535156 -4.347656 C 2.535156 -1.71875 3.351562 0.910156 4.988281 3.535156 Z M 3.929688 3.535156 "/>
</g>
<g id="glyph-3-4">
<path d="M 4.191406 -6.511719 L 1.753906 0 L 0.195312 0 L 3.429688 -8.546875 L 2.132812 -12.027344 L 3.691406 -12.027344 L 8.1875 0 L 6.628906 0 Z M 4.191406 -6.511719 "/>
</g>
<g id="glyph-3-5">
</g>
<g id="glyph-3-6">
<path d="M 8.875 -7.070312 L 0.933594 -7.070312 L 0.933594 -8.449219 L 8.875 -8.449219 L 8.875 -7.070312 M 8.875 -3.421875 L 0.933594 -3.421875 L 0.933594 -4.796875 L 8.875 -4.796875 Z M 8.875 -3.421875 "/>
</g>
<g id="glyph-3-7">
<path d="M 0.695312 -5.929688 C 0.695312 -7.351562 0.84375 -8.496094 1.136719 -9.363281 C 1.429688 -10.230469 1.863281 -10.898438 2.441406 -11.371094 C 3.015625 -11.839844 3.742188 -12.074219 4.617188 -12.074219 C 5.261719 -12.074219 5.828125 -11.945312 6.316406 -11.683594 C 6.804688 -11.425781 7.203125 -11.050781 7.523438 -10.5625 C 7.839844 -10.070312 8.089844 -9.476562 8.269531 -8.773438 C 8.449219 -8.070312 8.539062 -7.121094 8.539062 -5.929688 C 8.539062 -4.519531 8.394531 -3.382812 8.105469 -2.515625 C 7.816406 -1.648438 7.382812 -0.976562 6.804688 -0.503906 C 6.226562 -0.03125 5.5 0.203125 4.617188 0.203125 C 3.457031 0.203125 2.546875 -0.210938 1.886719 -1.042969 C 1.09375 -2.042969 0.695312 -3.671875 0.695312 -5.929688 M 2.214844 -5.929688 C 2.214844 -3.957031 2.445312 -2.644531 2.90625 -1.988281 C 3.371094 -1.335938 3.941406 -1.007812 4.617188 -1.007812 C 5.296875 -1.007812 5.867188 -1.335938 6.328125 -1.992188 C 6.789062 -2.648438 7.023438 -3.960938 7.023438 -5.929688 C 7.023438 -7.910156 6.789062 -9.226562 6.328125 -9.875 C 5.867188 -10.527344 5.289062 -10.851562 4.601562 -10.851562 C 3.921875 -10.851562 3.382812 -10.566406 2.976562 -9.992188 C 2.46875 -9.257812 2.214844 -7.90625 2.214844 -5.929688 Z M 2.214844 -5.929688 "/>
</g>
<g id="glyph-3-8">
<path d="M 1.527344 0 L 1.527344 -1.679688 L 3.207031 -1.679688 L 3.207031 0 Z M 1.527344 0 "/>
</g>
<g id="glyph-3-9">
<path d="M 0.695312 -3.148438 L 2.246094 -3.28125 C 2.363281 -2.527344 2.628906 -1.960938 3.046875 -1.578125 C 3.464844 -1.199219 3.96875 -1.007812 4.5625 -1.007812 C 5.273438 -1.007812 5.875 -1.277344 6.367188 -1.8125 C 6.859375 -2.347656 7.105469 -3.058594 7.105469 -3.945312 C 7.105469 -4.789062 6.867188 -5.453125 6.394531 -5.9375 C 5.921875 -6.425781 5.300781 -6.667969 4.535156 -6.667969 C 4.0625 -6.667969 3.632812 -6.5625 3.25 -6.34375 C 2.867188 -6.128906 2.566406 -5.847656 2.347656 -5.503906 L 0.960938 -5.683594 L 2.125 -11.863281 L 8.105469 -11.863281 L 8.105469 -10.449219 L 3.304688 -10.449219 L 2.65625 -7.21875 C 3.378906 -7.722656 4.136719 -7.972656 4.929688 -7.972656 C 5.980469 -7.972656 6.867188 -7.609375 7.585938 -6.882812 C 8.308594 -6.15625 8.671875 -5.21875 8.671875 -4.078125 C 8.671875 -2.988281 8.351562 -2.046875 7.71875 -1.253906 C 6.949219 -0.28125 5.894531 0.203125 4.5625 0.203125 C 3.46875 0.203125 2.574219 -0.101562 1.882812 -0.714844 C 1.191406 -1.324219 0.796875 -2.136719 0.695312 -3.148438 Z M 0.695312 -3.148438 "/>
</g>
<g id="glyph-3-10">
<path d="M 2.074219 3.535156 L 1.015625 3.535156 C 2.652344 0.910156 3.46875 -1.71875 3.46875 -4.347656 C 3.46875 -5.375 3.351562 -6.394531 3.117188 -7.40625 C 2.929688 -8.226562 2.671875 -9.015625 2.335938 -9.769531 C 2.125 -10.261719 1.683594 -11.082031 1.015625 -12.230469 L 2.074219 -12.230469 C 3.101562 -10.859375 3.863281 -9.480469 4.355469 -8.097656 C 4.777344 -6.902344 4.988281 -5.65625 4.988281 -4.355469 C 4.988281 -2.878906 4.703125 -1.453125 4.136719 -0.0742188 C 3.574219 1.304688 2.882812 2.507812 2.074219 3.535156 Z M 2.074219 3.535156 "/>
</g>
<g id="glyph-3-11">
<path d="M 1.515625 -7.03125 L 1.515625 -8.710938 L 3.199219 -8.710938 L 3.199219 -7.03125 L 1.515625 -7.03125 M 1.515625 0 L 1.515625 -1.679688 L 3.199219 -1.679688 L 3.199219 0 Z M 1.515625 0 "/>
</g>
<g id="glyph-3-12">
<path d="M 1.140625 3.339844 L 1.140625 -12.027344 L 4.398438 -12.027344 L 4.398438 -10.804688 L 2.617188 -10.804688 L 2.617188 2.117188 L 4.398438 2.117188 L 4.398438 3.339844 Z M 1.140625 3.339844 "/>
</g>
<g id="glyph-3-13">
<path d="M 0.0742188 0 L 4.726562 -6.265625 L 0.625 -12.027344 L 2.519531 -12.027344 L 4.699219 -8.941406 C 5.152344 -8.300781 5.476562 -7.808594 5.667969 -7.464844 C 5.9375 -7.902344 6.253906 -8.359375 6.621094 -8.835938 L 9.039062 -12.027344 L 10.769531 -12.027344 L 6.546875 -6.359375 L 11.097656 0 L 9.128906 0 L 6.101562 -4.289062 C 5.933594 -4.535156 5.757812 -4.804688 5.578125 -5.09375 C 5.308594 -4.65625 5.117188 -4.355469 5.003906 -4.191406 L 1.984375 0 Z M 0.0742188 0 "/>
</g>
<g id="glyph-3-14">
<path d="M 3.578125 3.339844 L 0.320312 3.339844 L 0.320312 2.117188 L 2.101562 2.117188 L 2.101562 -10.804688 L 0.320312 -10.804688 L 0.320312 -12.027344 L 3.578125 -12.027344 Z M 3.578125 3.339844 "/>
</g>
<g id="glyph-3-15">
<path d="M 8.457031 -1.417969 L 8.457031 0 L 0.507812 0 C 0.496094 -0.355469 0.554688 -0.695312 0.679688 -1.023438 C 0.882812 -1.566406 1.207031 -2.101562 1.652344 -2.625 C 2.097656 -3.148438 2.742188 -3.757812 3.585938 -4.445312 C 4.890625 -5.519531 5.773438 -6.367188 6.234375 -6.992188 C 6.695312 -7.621094 6.921875 -8.210938 6.921875 -8.769531 C 6.921875 -9.355469 6.714844 -9.847656 6.296875 -10.25 C 5.878906 -10.652344 5.332031 -10.851562 4.660156 -10.851562 C 3.949219 -10.851562 3.378906 -10.640625 2.953125 -10.210938 C 2.527344 -9.785156 2.308594 -9.195312 2.304688 -8.441406 L 0.789062 -8.597656 C 0.890625 -9.730469 1.28125 -10.589844 1.960938 -11.183594 C 2.636719 -11.777344 3.550781 -12.074219 4.691406 -12.074219 C 5.847656 -12.074219 6.757812 -11.753906 7.433594 -11.117188 C 8.105469 -10.476562 8.441406 -9.683594 8.441406 -8.734375 C 8.441406 -8.253906 8.34375 -7.78125 8.144531 -7.316406 C 7.949219 -6.851562 7.621094 -6.363281 7.164062 -5.847656 C 6.707031 -5.335938 5.949219 -4.628906 4.890625 -3.734375 C 4.003906 -2.988281 3.433594 -2.484375 3.183594 -2.21875 C 2.929688 -1.953125 2.722656 -1.6875 2.558594 -1.417969 Z M 8.457031 -1.417969 "/>
</g>
<g id="glyph-3-16">
<path d="M 1.492188 0 L 1.492188 -1.679688 L 3.175781 -1.679688 L 3.175781 0 C 3.175781 0.617188 3.066406 1.117188 2.847656 1.496094 C 2.628906 1.878906 2.28125 2.171875 1.804688 2.378906 L 1.394531 1.746094 C 1.707031 1.609375 1.9375 1.410156 2.082031 1.144531 C 2.230469 0.878906 2.3125 0.496094 2.328125 0 Z M 1.492188 0 "/>
</g>
<g id="glyph-3-17">
<path d="M 4.734375 0 L 0.0742188 -12.027344 L 1.796875 -12.027344 L 4.921875 -3.289062 C 5.171875 -2.589844 5.382812 -1.933594 5.554688 -1.320312 C 5.738281 -1.976562 5.957031 -2.632812 6.203125 -3.289062 L 9.449219 -12.027344 L 11.074219 -12.027344 L 6.367188 0 Z M 4.734375 0 "/>
</g>
<g id="glyph-3-18">
<path d="M 6.792969 -1.074219 C 6.246094 -0.609375 5.71875 -0.28125 5.214844 -0.0898438 C 4.707031 0.101562 4.164062 0.195312 3.585938 0.195312 C 2.628906 0.195312 1.890625 -0.0351562 1.378906 -0.503906 C 0.863281 -0.972656 0.605469 -1.570312 0.605469 -2.296875 C 0.605469 -2.722656 0.703125 -3.113281 0.898438 -3.464844 C 1.09375 -3.820312 1.347656 -4.101562 1.660156 -4.316406 C 1.976562 -4.527344 2.328125 -4.6875 2.722656 -4.796875 C 3.011719 -4.875 3.449219 -4.949219 4.035156 -5.019531 C 5.226562 -5.164062 6.105469 -5.332031 6.667969 -5.527344 C 6.675781 -5.730469 6.675781 -5.859375 6.675781 -5.914062 C 6.675781 -6.515625 6.539062 -6.941406 6.257812 -7.1875 C 5.882812 -7.519531 5.320312 -7.6875 4.578125 -7.6875 C 3.882812 -7.6875 3.371094 -7.566406 3.039062 -7.320312 C 2.707031 -7.078125 2.464844 -6.648438 2.304688 -6.03125 L 0.859375 -6.226562 C 0.992188 -6.84375 1.207031 -7.34375 1.507812 -7.722656 C 1.808594 -8.101562 2.246094 -8.394531 2.8125 -8.601562 C 3.382812 -8.804688 4.042969 -8.910156 4.789062 -8.910156 C 5.535156 -8.910156 6.136719 -8.820312 6.601562 -8.644531 C 7.066406 -8.472656 7.410156 -8.25 7.628906 -7.984375 C 7.847656 -7.71875 8 -7.386719 8.089844 -6.980469 C 8.136719 -6.730469 8.164062 -6.273438 8.164062 -5.617188 L 8.164062 -3.648438 C 8.164062 -2.277344 8.195312 -1.410156 8.257812 -1.046875 C 8.320312 -0.683594 8.445312 -0.332031 8.628906 0 L 7.085938 0 C 6.933594 -0.304688 6.835938 -0.664062 6.792969 -1.074219 M 6.667969 -4.371094 C 6.132812 -4.152344 5.328125 -3.96875 4.257812 -3.8125 C 3.648438 -3.726562 3.222656 -3.628906 2.96875 -3.519531 C 2.71875 -3.410156 2.523438 -3.25 2.386719 -3.039062 C 2.25 -2.828125 2.183594 -2.59375 2.183594 -2.335938 C 2.183594 -1.945312 2.332031 -1.617188 2.628906 -1.351562 C 2.925781 -1.089844 3.363281 -0.960938 3.9375 -0.960938 C 4.507812 -0.960938 5.011719 -1.085938 5.453125 -1.332031 C 5.898438 -1.582031 6.222656 -1.921875 6.429688 -2.355469 C 6.589844 -2.6875 6.667969 -3.179688 6.667969 -3.832031 Z M 6.667969 -4.371094 "/>
</g>
<g id="glyph-3-19">
<path d="M 1.089844 0 L 1.089844 -8.710938 L 2.421875 -8.710938 L 2.421875 -7.390625 C 2.757812 -8.007812 3.070312 -8.417969 3.359375 -8.613281 C 3.644531 -8.808594 3.960938 -8.910156 4.304688 -8.910156 C 4.804688 -8.910156 5.308594 -8.75 5.824219 -8.433594 L 5.316406 -7.0625 C 4.953125 -7.277344 4.59375 -7.382812 4.234375 -7.382812 C 3.910156 -7.382812 3.621094 -7.285156 3.363281 -7.089844 C 3.105469 -6.898438 2.921875 -6.628906 2.8125 -6.285156 C 2.648438 -5.757812 2.566406 -5.183594 2.566406 -4.5625 L 2.566406 0 Z M 1.089844 0 "/>
</g>
<g id="glyph-3-20">
<path d="M 5.429688 0 L 5.429688 -2.878906 L 0.214844 -2.878906 L 0.214844 -4.234375 L 5.703125 -12.027344 L 6.90625 -12.027344 L 6.90625 -4.234375 L 8.53125 -4.234375 L 8.53125 -2.878906 L 6.90625 -2.878906 L 6.90625 0 L 5.429688 0 M 5.429688 -4.234375 L 5.429688 -9.65625 L 1.664062 -4.234375 Z M 5.429688 -4.234375 "/>
</g>
</g>
<clipPath id="clip-0">
<path clip-rule="nonzero" d="M 47.273438 189 L 569.023438 189 L 569.023438 191 L 47.273438 191 Z M 47.273438 189 "/>
</clipPath>
<clipPath id="clip-1">
<path clip-rule="nonzero" d="M 47.273438 156 L 569.023438 156 L 569.023438 157 L 47.273438 157 Z M 47.273438 156 "/>
</clipPath>
<clipPath id="clip-2">
<path clip-rule="nonzero" d="M 47.273438 122 L 569.023438 122 L 569.023438 124 L 47.273438 124 Z M 47.273438 122 "/>
</clipPath>
<clipPath id="clip-3">
<path clip-rule="nonzero" d="M 47.273438 89 L 569.023438 89 L 569.023438 91 L 47.273438 91 Z M 47.273438 89 "/>
</clipPath>
<clipPath id="clip-4">
<path clip-rule="nonzero" d="M 47.273438 56 L 569.023438 56 L 569.023438 57 L 47.273438 57 Z M 47.273438 56 "/>
</clipPath>
<clipPath id="clip-5">
<path clip-rule="nonzero" d="M 136 31.507812 L 138 31.507812 L 138 214.917969 L 136 214.917969 Z M 136 31.507812 "/>
</clipPath>
<clipPath id="clip-6">
<path clip-rule="nonzero" d="M 268 31.507812 L 269 31.507812 L 269 214.917969 L 268 214.917969 Z M 268 31.507812 "/>
</clipPath>
<clipPath id="clip-7">
<path clip-rule="nonzero" d="M 400 31.507812 L 401 31.507812 L 401 214.917969 L 400 214.917969 Z M 400 31.507812 "/>
</clipPath>
<clipPath id="clip-8">
<path clip-rule="nonzero" d="M 531 31.507812 L 533 31.507812 L 533 214.917969 L 531 214.917969 Z M 531 31.507812 "/>
</clipPath>
<clipPath id="clip-9">
<path clip-rule="nonzero" d="M 47.273438 205 L 569.023438 205 L 569.023438 208 L 47.273438 208 Z M 47.273438 205 "/>
</clipPath>
<clipPath id="clip-10">
<path clip-rule="nonzero" d="M 47.273438 172 L 569.023438 172 L 569.023438 174 L 47.273438 174 Z M 47.273438 172 "/>
</clipPath>
<clipPath id="clip-11">
<path clip-rule="nonzero" d="M 47.273438 139 L 569.023438 139 L 569.023438 141 L 47.273438 141 Z M 47.273438 139 "/>
</clipPath>
<clipPath id="clip-12">
<path clip-rule="nonzero" d="M 47.273438 105 L 569.023438 105 L 569.023438 108 L 47.273438 108 Z M 47.273438 105 "/>
</clipPath>
<clipPath id="clip-13">
<path clip-rule="nonzero" d="M 47.273438 72 L 569.023438 72 L 569.023438 74 L 47.273438 74 Z M 47.273438 72 "/>
</clipPath>
<clipPath id="clip-14">
<path clip-rule="nonzero" d="M 47.273438 39 L 569.023438 39 L 569.023438 41 L 47.273438 41 Z M 47.273438 39 "/>
</clipPath>
<clipPath id="clip-15">
<path clip-rule="nonzero" d="M 70 31.507812 L 72 31.507812 L 72 214.917969 L 70 214.917969 Z M 70 31.507812 "/>
</clipPath>
<clipPath id="clip-16">
<path clip-rule="nonzero" d="M 202 31.507812 L 204 31.507812 L 204 214.917969 L 202 214.917969 Z M 202 31.507812 "/>
</clipPath>
<clipPath id="clip-17">
<path clip-rule="nonzero" d="M 333 31.507812 L 336 31.507812 L 336 214.917969 L 333 214.917969 Z M 333 31.507812 "/>
</clipPath>
<clipPath id="clip-18">
<path clip-rule="nonzero" d="M 465 31.507812 L 467 31.507812 L 467 214.917969 L 465 214.917969 Z M 465 31.507812 "/>
</clipPath>
<clipPath id="clip-19">
<path clip-rule="nonzero" d="M 123 31.507812 L 125 31.507812 L 125 214.917969 L 123 214.917969 Z M 123 31.507812 "/>
</clipPath>
</defs>
<rect x="-57.6" y="-25.9" width="691.2" height="310.8" fill="rgb(100%, 100%, 100%)" fill-opacity="1"/>
<rect x="-57.6" y="-25.9" width="691.2" height="310.8" fill="rgb(100%, 100%, 100%)" fill-opacity="1"/>
<g clip-path="url(#clip-0)">
<path fill="none" stroke-width="0.678986" stroke-linecap="butt" stroke-linejoin="round" stroke="rgb(92.156863%, 92.156863%, 92.156863%)" stroke-opacity="1" stroke-miterlimit="10" d="M 47.273438 189.910156 L 569.027344 189.910156 "/>
</g>
<g clip-path="url(#clip-1)">
<path fill="none" stroke-width="0.678986" stroke-linecap="butt" stroke-linejoin="round" stroke="rgb(92.156863%, 92.156863%, 92.156863%)" stroke-opacity="1" stroke-miterlimit="10" d="M 47.273438 156.5625 L 569.027344 156.5625 "/>
</g>
<g clip-path="url(#clip-2)">
<path fill="none" stroke-width="0.678986" stroke-linecap="butt" stroke-linejoin="round" stroke="rgb(92.156863%, 92.156863%, 92.156863%)" stroke-opacity="1" stroke-miterlimit="10" d="M 47.273438 123.214844 L 569.027344 123.214844 "/>
</g>
<g clip-path="url(#clip-3)">
<path fill="none" stroke-width="0.678986" stroke-linecap="butt" stroke-linejoin="round" stroke="rgb(92.156863%, 92.156863%, 92.156863%)" stroke-opacity="1" stroke-miterlimit="10" d="M 47.273438 89.867188 L 569.027344 89.867188 "/>
</g>
<g clip-path="url(#clip-4)">
<path fill="none" stroke-width="0.678986" stroke-linecap="butt" stroke-linejoin="round" stroke="rgb(92.156863%, 92.156863%, 92.156863%)" stroke-opacity="1" stroke-miterlimit="10" d="M 47.273438 56.519531 L 569.027344 56.519531 "/>
</g>
<g clip-path="url(#clip-5)">
<path fill="none" stroke-width="0.678986" stroke-linecap="butt" stroke-linejoin="round" stroke="rgb(92.156863%, 92.156863%, 92.156863%)" stroke-opacity="1" stroke-miterlimit="10" d="M 136.867188 214.921875 L 136.867188 31.507812 "/>
</g>
<g clip-path="url(#clip-6)">
<path fill="none" stroke-width="0.678986" stroke-linecap="butt" stroke-linejoin="round" stroke="rgb(92.156863%, 92.156863%, 92.156863%)" stroke-opacity="1" stroke-miterlimit="10" d="M 268.625 214.921875 L 268.625 31.507812 "/>
</g>
<g clip-path="url(#clip-7)">
<path fill="none" stroke-width="0.678986" stroke-linecap="butt" stroke-linejoin="round" stroke="rgb(92.156863%, 92.156863%, 92.156863%)" stroke-opacity="1" stroke-miterlimit="10" d="M 400.378906 214.921875 L 400.378906 31.507812 "/>
</g>
<g clip-path="url(#clip-8)">
<path fill="none" stroke-width="0.678986" stroke-linecap="butt" stroke-linejoin="round" stroke="rgb(92.156863%, 92.156863%, 92.156863%)" stroke-opacity="1" stroke-miterlimit="10" d="M 532.132812 214.921875 L 532.132812 31.507812 "/>
</g>
<g clip-path="url(#clip-9)">
<path fill="none" stroke-width="1.357972" stroke-linecap="butt" stroke-linejoin="round" stroke="rgb(92.156863%, 92.156863%, 92.156863%)" stroke-opacity="1" stroke-miterlimit="10" d="M 47.273438 206.582031 L 569.027344 206.582031 "/>
</g>
<g clip-path="url(#clip-10)">
<path fill="none" stroke-width="1.357972" stroke-linecap="butt" stroke-linejoin="round" stroke="rgb(92.156863%, 92.156863%, 92.156863%)" stroke-opacity="1" stroke-miterlimit="10" d="M 47.273438 173.234375 L 569.027344 173.234375 "/>
</g>
<g clip-path="url(#clip-11)">
<path fill="none" stroke-width="1.357972" stroke-linecap="butt" stroke-linejoin="round" stroke="rgb(92.156863%, 92.156863%, 92.156863%)" stroke-opacity="1" stroke-miterlimit="10" d="M 47.273438 139.890625 L 569.027344 139.890625 "/>
</g>
<g clip-path="url(#clip-12)">
<path fill="none" stroke-width="1.357972" stroke-linecap="butt" stroke-linejoin="round" stroke="rgb(92.156863%, 92.156863%, 92.156863%)" stroke-opacity="1" stroke-miterlimit="10" d="M 47.273438 106.542969 L 569.027344 106.542969 "/>
</g>
<g clip-path="url(#clip-13)">
<path fill="none" stroke-width="1.357972" stroke-linecap="butt" stroke-linejoin="round" stroke="rgb(92.156863%, 92.156863%, 92.156863%)" stroke-opacity="1" stroke-miterlimit="10" d="M 47.273438 73.195312 L 569.027344 73.195312 "/>
</g>
<g clip-path="url(#clip-14)">
<path fill="none" stroke-width="1.357972" stroke-linecap="butt" stroke-linejoin="round" stroke="rgb(92.156863%, 92.156863%, 92.156863%)" stroke-opacity="1" stroke-miterlimit="10" d="M 47.273438 39.847656 L 569.027344 39.847656 "/>
</g>
<g clip-path="url(#clip-15)">
<path fill="none" stroke-width="1.357972" stroke-linecap="butt" stroke-linejoin="round" stroke="rgb(92.156863%, 92.156863%, 92.156863%)" stroke-opacity="1" stroke-miterlimit="10" d="M 70.992188 214.921875 L 70.992188 31.507812 "/>
</g>
<g clip-path="url(#clip-16)">
<path fill="none" stroke-width="1.357972" stroke-linecap="butt" stroke-linejoin="round" stroke="rgb(92.156863%, 92.156863%, 92.156863%)" stroke-opacity="1" stroke-miterlimit="10" d="M 202.746094 214.921875 L 202.746094 31.507812 "/>
</g>
<g clip-path="url(#clip-17)">
<path fill="none" stroke-width="1.357972" stroke-linecap="butt" stroke-linejoin="round" stroke="rgb(92.156863%, 92.156863%, 92.156863%)" stroke-opacity="1" stroke-miterlimit="10" d="M 334.5 214.921875 L 334.5 31.507812 "/>
</g>
<g clip-path="url(#clip-18)">
<path fill="none" stroke-width="1.357972" stroke-linecap="butt" stroke-linejoin="round" stroke="rgb(92.156863%, 92.156863%, 92.156863%)" stroke-opacity="1" stroke-miterlimit="10" d="M 466.257812 214.921875 L 466.257812 31.507812 "/>
</g>
<path fill-rule="nonzero" fill="rgb(17.254902%, 49.803922%, 72.156863%)" fill-opacity="0.4" d="M 70.992188 39.847656 L 72.179688 43.566406 L 73.367188 47.199219 L 74.558594 50.753906 L 75.746094 54.230469 L 76.933594 57.628906 L 78.125 60.953125 L 79.3125 64.199219 L 80.5 67.375 L 81.691406 70.480469 L 82.878906 73.515625 L 84.066406 76.484375 L 85.253906 79.386719 L 86.445312 82.222656 L 87.632812 84.996094 L 88.820312 87.707031 L 90.011719 90.359375 L 91.199219 92.953125 L 92.386719 95.488281 L 93.578125 97.964844 L 94.765625 100.386719 L 95.953125 102.753906 L 97.144531 105.070312 L 98.332031 107.335938 L 99.519531 109.550781 L 100.710938 111.714844 L 101.898438 113.828125 L 103.085938 115.898438 L 104.277344 117.921875 L 105.464844 119.898438 L 106.652344 121.832031 L 107.84375 123.722656 L 109.03125 125.570312 L 110.21875 127.378906 L 111.410156 129.144531 L 112.597656 130.871094 L 113.785156 132.558594 L 114.976562 134.210938 L 116.164062 135.824219 L 117.351562 137.402344 L 118.542969 138.945312 L 119.730469 140.453125 L 120.917969 141.929688 L 122.109375 143.371094 L 123.296875 144.78125 L 124.484375 146.160156 L 125.675781 147.507812 L 126.863281 148.824219 L 128.050781 150.113281 L 129.242188 151.371094 L 130.429688 152.605469 L 131.617188 153.808594 L 132.804688 154.984375 L 133.996094 156.136719 L 135.183594 157.261719 L 136.371094 158.363281 L 137.5625 159.4375 L 138.75 160.488281 L 139.9375 161.515625 L 141.128906 162.523438 L 142.316406 163.503906 L 143.503906 164.464844 L 144.695312 165.40625 L 145.882812 166.324219 L 147.070312 167.222656 L 148.261719 168.097656 L 149.449219 168.957031 L 150.636719 169.796875 L 151.828125 170.617188 L 153.015625 171.417969 L 154.203125 172.203125 L 155.394531 172.96875 L 156.582031 173.71875 L 157.769531 174.453125 L 158.960938 175.171875 L 160.148438 175.871094 L 161.335938 176.554688 L 162.527344 177.226562 L 163.714844 177.878906 L 164.902344 178.519531 L 166.09375 179.144531 L 167.28125 179.757812 L 168.46875 180.355469 L 169.660156 180.941406 L 170.847656 181.511719 L 172.035156 182.074219 L 173.226562 182.621094 L 174.414062 183.152344 L 175.601562 183.675781 L 176.792969 184.1875 L 177.980469 184.6875 L 179.167969 185.175781 L 180.359375 185.652344 L 181.546875 186.121094 L 182.734375 186.574219 L 183.921875 187.023438 L 185.113281 187.457031 L 186.300781 187.886719 L 187.488281 188.300781 L 188.679688 188.710938 L 189.867188 189.109375 L 191.054688 189.5 L 192.246094 189.878906 L 193.433594 190.253906 L 194.621094 190.617188 L 195.8125 190.972656 L 197 191.320312 L 198.1875 191.660156 L 199.378906 191.992188 L 200.566406 192.320312 L 201.753906 192.636719 L 202.945312 192.949219 L 204.132812 193.253906 L 205.320312 193.550781 L 206.511719 193.839844 L 207.699219 194.125 L 208.886719 194.402344 L 210.078125 194.675781 L 211.265625 194.941406 L 212.453125 195.199219 L 213.644531 195.453125 L 214.832031 195.703125 L 216.019531 195.945312 L 217.210938 196.183594 L 218.398438 196.414062 L 219.585938 196.640625 L 220.777344 196.863281 L 223.152344 197.292969 L 224.34375 197.5 L 225.53125 197.703125 L 226.71875 197.898438 L 227.910156 198.09375 L 230.285156 198.46875 L 231.476562 198.648438 L 233.851562 199 L 235.039062 199.167969 L 236.230469 199.332031 L 237.417969 199.496094 L 238.605469 199.652344 L 239.796875 199.808594 L 242.171875 200.105469 L 243.363281 200.25 L 245.738281 200.53125 L 246.929688 200.664062 L 248.117188 200.796875 L 249.304688 200.925781 L 250.496094 201.050781 L 251.683594 201.175781 L 252.871094 201.296875 L 254.0625 201.414062 L 255.25 201.53125 L 256.4375 201.644531 L 257.628906 201.753906 L 260.003906 201.964844 L 261.195312 202.070312 L 262.382812 202.167969 L 263.570312 202.269531 L 264.761719 202.363281 L 267.136719 202.550781 L 268.328125 202.640625 L 270.703125 202.8125 L 271.894531 202.898438 L 274.269531 203.0625 L 275.460938 203.140625 L 276.648438 203.214844 L 277.835938 203.292969 L 279.027344 203.363281 L 280.214844 203.4375 L 281.402344 203.507812 L 282.589844 203.574219 L 283.78125 203.644531 L 284.96875 203.707031 L 286.15625 203.773438 L 287.347656 203.835938 L 288.535156 203.894531 L 289.722656 203.957031 L 290.914062 204.015625 L 292.101562 204.070312 L 293.289062 204.128906 L 294.480469 204.183594 L 295.667969 204.238281 L 296.855469 204.289062 L 298.046875 204.339844 L 299.234375 204.390625 L 300.421875 204.4375 L 301.613281 204.488281 L 302.800781 204.535156 L 303.988281 204.578125 L 305.179688 204.625 L 307.554688 204.710938 L 308.746094 204.753906 L 311.121094 204.832031 L 312.3125 204.871094 L 314.6875 204.949219 L 315.878906 204.984375 L 318.253906 205.054688 L 319.445312 205.089844 L 320.632812 205.121094 L 321.820312 205.15625 L 323.011719 205.1875 L 325.386719 205.25 L 326.578125 205.277344 L 327.765625 205.308594 L 328.953125 205.335938 L 330.144531 205.363281 L 333.707031 205.445312 L 334.898438 205.46875 L 336.085938 205.492188 L 337.273438 205.519531 L 338.464844 205.542969 L 339.652344 205.566406 L 340.839844 205.585938 L 342.03125 205.609375 L 343.21875 205.632812 L 344.40625 205.652344 L 345.597656 205.671875 L 346.785156 205.695312 L 347.972656 205.714844 L 349.164062 205.734375 L 350.351562 205.753906 L 351.539062 205.769531 L 352.730469 205.789062 L 353.917969 205.804688 L 355.105469 205.824219 L 356.296875 205.839844 L 357.484375 205.859375 L 358.671875 205.875 L 359.863281 205.890625 L 362.238281 205.921875 L 363.429688 205.933594 L 365.804688 205.964844 L 366.996094 205.976562 L 368.183594 205.992188 L 369.371094 206.003906 L 370.5625 206.015625 L 371.75 206.03125 L 372.9375 206.042969 L 374.128906 206.054688 L 376.503906 206.078125 L 377.695312 206.089844 L 378.882812 206.101562 L 380.070312 206.109375 L 381.257812 206.121094 L 382.449219 206.132812 L 383.636719 206.140625 L 384.824219 206.152344 L 386.015625 206.160156 L 387.203125 206.171875 L 388.390625 206.179688 L 389.582031 206.1875 L 390.769531 206.199219 L 391.957031 206.207031 L 393.148438 206.214844 L 395.523438 206.230469 L 396.714844 206.238281 L 399.089844 206.253906 L 400.28125 206.261719 L 402.65625 206.277344 L 403.847656 206.28125 L 406.222656 206.296875 L 407.414062 206.300781 L 409.789062 206.316406 L 410.980469 206.320312 L 412.167969 206.328125 L 413.355469 206.332031 L 414.546875 206.335938 L 415.734375 206.34375 L 416.921875 206.347656 L 418.113281 206.355469 L 420.488281 206.363281 L 421.679688 206.367188 L 422.867188 206.375 L 424.054688 206.378906 L 425.246094 206.382812 L 427.621094 206.390625 L 428.8125 206.394531 L 430 206.398438 L 431.1875 206.40625 L 432.375 206.410156 L 433.566406 206.414062 L 435.941406 206.421875 L 437.132812 206.421875 L 439.507812 206.429688 L 440.699219 206.433594 L 443.074219 206.441406 L 444.265625 206.445312 L 445.453125 206.445312 L 446.640625 206.449219 L 447.832031 206.453125 L 449.019531 206.457031 L 450.207031 206.457031 L 451.398438 206.460938 L 453.773438 206.46875 L 454.964844 206.46875 L 457.339844 206.476562 L 458.53125 206.476562 L 459.71875 206.480469 L 460.90625 206.480469 L 462.097656 206.484375 L 463.285156 206.484375 L 464.472656 206.488281 L 465.664062 206.492188 L 466.851562 206.492188 L 468.039062 206.496094 L 469.230469 206.496094 L 470.417969 206.5 L 471.605469 206.5 L 472.796875 206.503906 L 473.984375 206.503906 L 475.171875 206.507812 L 477.550781 206.507812 L 478.738281 206.511719 L 479.929688 206.511719 L 481.117188 206.515625 L 483.492188 206.515625 L 484.683594 206.519531 L 485.871094 206.519531 L 487.058594 206.523438 L 489.4375 206.523438 L 490.625 206.527344 L 493.003906 206.527344 L 494.191406 206.53125 L 497.757812 206.53125 L 498.949219 206.535156 L 501.324219 206.535156 L 502.515625 206.539062 L 506.082031 206.539062 L 507.269531 206.542969 L 510.835938 206.542969 L 512.023438 206.546875 L 516.78125 206.546875 L 517.96875 206.550781 L 522.722656 206.550781 L 523.914062 206.554688 L 529.855469 206.554688 L 531.042969 206.558594 L 538.175781 206.558594 L 539.367188 206.5625 L 545.308594 206.5625 L 545.308594 206.582031 L 70.992188 206.582031 Z M 70.992188 39.847656 "/>
<path fill="none" stroke-width="2.133957" stroke-linecap="butt" stroke-linejoin="round" stroke="rgb(17.254902%, 49.803922%, 72.156863%)" stroke-opacity="1" stroke-miterlimit="10" d="M 70.992188 39.847656 L 72.179688 43.566406 L 73.367188 47.199219 L 74.558594 50.753906 L 75.746094 54.230469 L 76.933594 57.628906 L 78.125 60.953125 L 79.3125 64.199219 L 80.5 67.375 L 81.691406 70.480469 L 82.878906 73.515625 L 84.066406 76.484375 L 85.253906 79.386719 L 86.445312 82.222656 L 87.632812 84.996094 L 88.820312 87.707031 L 90.011719 90.359375 L 91.199219 92.953125 L 92.386719 95.488281 L 93.578125 97.964844 L 94.765625 100.386719 L 95.953125 102.753906 L 97.144531 105.070312 L 98.332031 107.335938 L 99.519531 109.550781 L 100.710938 111.714844 L 101.898438 113.828125 L 103.085938 115.898438 L 104.277344 117.921875 L 105.464844 119.898438 L 106.652344 121.832031 L 107.84375 123.722656 L 109.03125 125.570312 L 110.21875 127.378906 L 111.410156 129.144531 L 112.597656 130.871094 L 113.785156 132.558594 L 114.976562 134.210938 L 116.164062 135.824219 L 117.351562 137.402344 L 118.542969 138.945312 L 119.730469 140.453125 L 120.917969 141.929688 L 122.109375 143.371094 L 123.296875 144.78125 L 124.484375 146.160156 L 125.675781 147.507812 L 126.863281 148.824219 L 128.050781 150.113281 L 129.242188 151.371094 L 130.429688 152.605469 L 131.617188 153.808594 L 132.804688 154.984375 L 133.996094 156.136719 L 135.183594 157.261719 L 136.371094 158.363281 L 137.5625 159.4375 L 138.75 160.488281 L 139.9375 161.515625 L 141.128906 162.523438 L 142.316406 163.503906 L 143.503906 164.464844 L 144.695312 165.40625 L 145.882812 166.324219 L 147.070312 167.222656 L 148.261719 168.097656 L 149.449219 168.957031 L 150.636719 169.796875 L 151.828125 170.617188 L 153.015625 171.417969 L 154.203125 172.203125 L 155.394531 172.96875 L 156.582031 173.71875 L 157.769531 174.453125 L 158.960938 175.171875 L 160.148438 175.871094 L 161.335938 176.554688 L 162.527344 177.226562 L 163.714844 177.878906 L 164.902344 178.519531 L 166.09375 179.144531 L 167.28125 179.757812 L 168.46875 180.355469 L 169.660156 180.941406 L 170.847656 181.511719 L 172.035156 182.074219 L 173.226562 182.621094 L 174.414062 183.152344 L 175.601562 183.675781 L 176.792969 184.1875 L 177.980469 184.6875 L 179.167969 185.175781 L 180.359375 185.652344 L 181.546875 186.121094 L 182.734375 186.574219 L 183.921875 187.023438 L 185.113281 187.457031 L 186.300781 187.886719 L 187.488281 188.300781 L 188.679688 188.710938 L 189.867188 189.109375 L 191.054688 189.5 L 192.246094 189.878906 L 193.433594 190.253906 L 194.621094 190.617188 L 195.8125 190.972656 L 197 191.320312 L 198.1875 191.660156 L 199.378906 191.992188 L 200.566406 192.320312 L 201.753906 192.636719 L 202.945312 192.949219 L 204.132812 193.253906 L 205.320312 193.550781 L 206.511719 193.839844 L 207.699219 194.125 L 208.886719 194.402344 L 210.078125 194.675781 L 211.265625 194.941406 L 212.453125 195.199219 L 213.644531 195.453125 L 214.832031 195.703125 L 216.019531 195.945312 L 217.210938 196.183594 L 218.398438 196.414062 L 219.585938 196.640625 L 220.777344 196.863281 L 223.152344 197.292969 L 224.34375 197.5 L 225.53125 197.703125 L 226.71875 197.898438 L 227.910156 198.09375 L 230.285156 198.46875 L 231.476562 198.648438 L 233.851562 199 L 235.039062 199.167969 L 236.230469 199.332031 L 237.417969 199.496094 L 238.605469 199.652344 L 239.796875 199.808594 L 242.171875 200.105469 L 243.363281 200.25 L 245.738281 200.53125 L 246.929688 200.664062 L 248.117188 200.796875 L 249.304688 200.925781 L 250.496094 201.050781 L 251.683594 201.175781 L 252.871094 201.296875 L 254.0625 201.414062 L 255.25 201.53125 L 256.4375 201.644531 L 257.628906 201.753906 L 260.003906 201.964844 L 261.195312 202.070312 L 262.382812 202.167969 L 263.570312 202.269531 L 264.761719 202.363281 L 267.136719 202.550781 L 268.328125 202.640625 L 270.703125 202.8125 L 271.894531 202.898438 L 274.269531 203.0625 L 275.460938 203.140625 L 276.648438 203.214844 L 277.835938 203.292969 L 279.027344 203.363281 L 280.214844 203.4375 L 281.402344 203.507812 L 282.589844 203.574219 L 283.78125 203.644531 L 284.96875 203.707031 L 286.15625 203.773438 L 287.347656 203.835938 L 288.535156 203.894531 L 289.722656 203.957031 L 290.914062 204.015625 L 292.101562 204.070312 L 293.289062 204.128906 L 294.480469 204.183594 L 295.667969 204.238281 L 296.855469 204.289062 L 298.046875 204.339844 L 299.234375 204.390625 L 300.421875 204.4375 L 301.613281 204.488281 L 302.800781 204.535156 L 303.988281 204.578125 L 305.179688 204.625 L 307.554688 204.710938 L 308.746094 204.753906 L 311.121094 204.832031 L 312.3125 204.871094 L 314.6875 204.949219 L 315.878906 204.984375 L 318.253906 205.054688 L 319.445312 205.089844 L 320.632812 205.121094 L 321.820312 205.15625 L 323.011719 205.1875 L 325.386719 205.25 L 326.578125 205.277344 L 327.765625 205.308594 L 328.953125 205.335938 L 330.144531 205.363281 L 333.707031 205.445312 L 334.898438 205.46875 L 336.085938 205.492188 L 337.273438 205.519531 L 338.464844 205.542969 L 339.652344 205.566406 L 340.839844 205.585938 L 342.03125 205.609375 L 343.21875 205.632812 L 344.40625 205.652344 L 345.597656 205.671875 L 346.785156 205.695312 L 347.972656 205.714844 L 349.164062 205.734375 L 350.351562 205.753906 L 351.539062 205.769531 L 352.730469 205.789062 L 353.917969 205.804688 L 355.105469 205.824219 L 356.296875 205.839844 L 357.484375 205.859375 L 358.671875 205.875 L 359.863281 205.890625 L 362.238281 205.921875 L 363.429688 205.933594 L 365.804688 205.964844 L 366.996094 205.976562 L 368.183594 205.992188 L 369.371094 206.003906 L 370.5625 206.015625 L 371.75 206.03125 L 372.9375 206.042969 L 374.128906 206.054688 L 376.503906 206.078125 L 377.695312 206.089844 L 378.882812 206.101562 L 380.070312 206.109375 L 381.257812 206.121094 L 382.449219 206.132812 L 383.636719 206.140625 L 384.824219 206.152344 L 386.015625 206.160156 L 387.203125 206.171875 L 388.390625 206.179688 L 389.582031 206.1875 L 390.769531 206.199219 L 391.957031 206.207031 L 393.148438 206.214844 L 395.523438 206.230469 L 396.714844 206.238281 L 399.089844 206.253906 L 400.28125 206.261719 L 402.65625 206.277344 L 403.847656 206.28125 L 406.222656 206.296875 L 407.414062 206.300781 L 409.789062 206.316406 L 410.980469 206.320312 L 412.167969 206.328125 L 413.355469 206.332031 L 414.546875 206.335938 L 415.734375 206.34375 L 416.921875 206.347656 L 418.113281 206.355469 L 420.488281 206.363281 L 421.679688 206.367188 L 422.867188 206.375 L 424.054688 206.378906 L 425.246094 206.382812 L 427.621094 206.390625 L 428.8125 206.394531 L 430 206.398438 L 431.1875 206.40625 L 432.375 206.410156 L 433.566406 206.414062 L 435.941406 206.421875 L 437.132812 206.421875 L 439.507812 206.429688 L 440.699219 206.433594 L 443.074219 206.441406 L 444.265625 206.445312 L 445.453125 206.445312 L 446.640625 206.449219 L 447.832031 206.453125 L 449.019531 206.457031 L 450.207031 206.457031 L 451.398438 206.460938 L 453.773438 206.46875 L 454.964844 206.46875 L 457.339844 206.476562 L 458.53125 206.476562 L 459.71875 206.480469 L 460.90625 206.480469 L 462.097656 206.484375 L 463.285156 206.484375 L 464.472656 206.488281 L 465.664062 206.492188 L 466.851562 206.492188 L 468.039062 206.496094 L 469.230469 206.496094 L 470.417969 206.5 L 471.605469 206.5 L 472.796875 206.503906 L 473.984375 206.503906 L 475.171875 206.507812 L 477.550781 206.507812 L 478.738281 206.511719 L 479.929688 206.511719 L 481.117188 206.515625 L 483.492188 206.515625 L 484.683594 206.519531 L 485.871094 206.519531 L 487.058594 206.523438 L 489.4375 206.523438 L 490.625 206.527344 L 493.003906 206.527344 L 494.191406 206.53125 L 497.757812 206.53125 L 498.949219 206.535156 L 501.324219 206.535156 L 502.515625 206.539062 L 506.082031 206.539062 L 507.269531 206.542969 L 510.835938 206.542969 L 512.023438 206.546875 L 516.78125 206.546875 L 517.96875 206.550781 L 522.722656 206.550781 L 523.914062 206.554688 L 529.855469 206.554688 L 531.042969 206.558594 L 538.175781 206.558594 L 539.367188 206.5625 L 545.308594 206.5625 "/>
<g clip-path="url(#clip-19)">
<path fill="none" stroke-width="1.357972" stroke-linecap="butt" stroke-linejoin="round" stroke="rgb(84.313725%, 18.823529%, 12.156863%)" stroke-opacity="1" stroke-dasharray="5.43189 5.43189" stroke-miterlimit="10" d="M 123.691406 214.921875 L 123.691406 31.507812 "/>
</g>
<g fill="rgb(84.313725%, 18.823529%, 12.156863%)" fill-opacity="1">
<use xlink:href="#glyph-0-0" x="131.597656" y="150.753906"/>
<use xlink:href="#glyph-0-1" x="140.935547" y="150.753906"/>
<use xlink:href="#glyph-0-2" x="144.825195" y="150.753906"/>
<use xlink:href="#glyph-0-3" x="154.163086" y="150.753906"/>
<use xlink:href="#glyph-0-4" x="158.052734" y="150.753906"/>
<use xlink:href="#glyph-0-5" x="161.942383" y="150.753906"/>
<use xlink:href="#glyph-0-4" x="170.118164" y="150.753906"/>
<use xlink:href="#glyph-0-6" x="174.007812" y="150.753906"/>
</g>
<g fill="rgb(30.196078%, 30.196078%, 30.196078%)" fill-opacity="1">
<use xlink:href="#glyph-1-0" x="25.429688" y="211.09375"/>
<use xlink:href="#glyph-1-1" x="31.658594" y="211.09375"/>
<use xlink:href="#glyph-1-0" x="34.770313" y="211.09375"/>
</g>
<g fill="rgb(30.196078%, 30.196078%, 30.196078%)" fill-opacity="1">
<use xlink:href="#glyph-1-0" x="25.429688" y="177.746094"/>
<use xlink:href="#glyph-1-1" x="31.658594" y="177.746094"/>
<use xlink:href="#glyph-1-2" x="34.770313" y="177.746094"/>
</g>
<g fill="rgb(30.196078%, 30.196078%, 30.196078%)" fill-opacity="1">
<use xlink:href="#glyph-1-0" x="25.429688" y="144.398438"/>
<use xlink:href="#glyph-1-1" x="31.658594" y="144.398438"/>
<use xlink:href="#glyph-1-3" x="34.770313" y="144.398438"/>
</g>
<g fill="rgb(30.196078%, 30.196078%, 30.196078%)" fill-opacity="1">
<use xlink:href="#glyph-1-0" x="25.429688" y="111.050781"/>
<use xlink:href="#glyph-1-1" x="31.658594" y="111.050781"/>
<use xlink:href="#glyph-1-4" x="34.770313" y="111.050781"/>
</g>
<g fill="rgb(30.196078%, 30.196078%, 30.196078%)" fill-opacity="1">
<use xlink:href="#glyph-1-0" x="25.429688" y="77.703125"/>
<use xlink:href="#glyph-1-1" x="31.658594" y="77.703125"/>
<use xlink:href="#glyph-1-5" x="34.770313" y="77.703125"/>
</g>
<g fill="rgb(30.196078%, 30.196078%, 30.196078%)" fill-opacity="1">
<use xlink:href="#glyph-1-0" x="25.429688" y="44.355469"/>
<use xlink:href="#glyph-1-1" x="31.658594" y="44.355469"/>
<use xlink:href="#glyph-1-6" x="34.770313" y="44.355469"/>
</g>
<g fill="rgb(30.196078%, 30.196078%, 30.196078%)" fill-opacity="1">
<use xlink:href="#glyph-1-0" x="67.878906" y="230.214844"/>
</g>
<g fill="rgb(30.196078%, 30.196078%, 30.196078%)" fill-opacity="1">
<use xlink:href="#glyph-1-6" x="199.632812" y="230.214844"/>
</g>
<g fill="rgb(30.196078%, 30.196078%, 30.196078%)" fill-opacity="1">
<use xlink:href="#glyph-1-2" x="328.269531" y="230.214844"/>
<use xlink:href="#glyph-1-0" x="334.498438" y="230.214844"/>
</g>
<g fill="rgb(30.196078%, 30.196078%, 30.196078%)" fill-opacity="1">
<use xlink:href="#glyph-1-2" x="460.027344" y="230.214844"/>
<use xlink:href="#glyph-1-6" x="466.25625" y="230.214844"/>
</g>
<g fill="rgb(0%, 0%, 0%)" fill-opacity="1">
<use xlink:href="#glyph-0-7" x="304.648438" y="248.078125"/>
</g>
<g fill="rgb(0%, 0%, 0%)" fill-opacity="1">
<use xlink:href="#glyph-2-0" x="17.996094" y="133.320312"/>
<use xlink:href="#glyph-2-1" x="17.996094" y="129.430664"/>
<use xlink:href="#glyph-2-2" x="17.996094" y="124.768555"/>
<use xlink:href="#glyph-2-3" x="17.996094" y="117.768555"/>
</g>
<g fill="rgb(0%, 0%, 0%)" fill-opacity="1">
<use xlink:href="#glyph-3-0" x="47.273438" y="20"/>
<use xlink:href="#glyph-3-1" x="58.478906" y="20"/>
<use xlink:href="#glyph-3-2" x="66.878906" y="20"/>
<use xlink:href="#glyph-3-3" x="76.222266" y="20"/>
<use xlink:href="#glyph-3-4" x="81.816797" y="20"/>
<use xlink:href="#glyph-3-5" x="90.216797" y="20"/>
<use xlink:href="#glyph-3-6" x="94.884375" y="20"/>
<use xlink:href="#glyph-3-5" x="104.695313" y="20"/>
<use xlink:href="#glyph-3-7" x="109.362891" y="20"/>
<use xlink:href="#glyph-3-8" x="118.70625" y="20"/>
<use xlink:href="#glyph-3-9" x="123.373828" y="20"/>
<use xlink:href="#glyph-3-10" x="132.717188" y="20"/>
<use xlink:href="#glyph-3-11" x="138.311719" y="20"/>
<use xlink:href="#glyph-3-5" x="142.979297" y="20"/>
<use xlink:href="#glyph-3-5" x="147.646875" y="20"/>
<use xlink:href="#glyph-3-0" x="152.314453" y="20"/>
<use xlink:href="#glyph-3-12" x="163.519922" y="20"/>
<use xlink:href="#glyph-3-13" x="168.1875" y="20"/>
<use xlink:href="#glyph-3-14" x="179.392969" y="20"/>
<use xlink:href="#glyph-3-5" x="184.060547" y="20"/>
<use xlink:href="#glyph-3-6" x="188.728125" y="20"/>
<use xlink:href="#glyph-3-5" x="198.539063" y="20"/>
<use xlink:href="#glyph-3-15" x="203.206641" y="20"/>
<use xlink:href="#glyph-3-16" x="212.55" y="20"/>
<use xlink:href="#glyph-3-5" x="217.217578" y="20"/>
<use xlink:href="#glyph-3-5" x="221.885156" y="20"/>
<use xlink:href="#glyph-3-17" x="226.552734" y="20"/>
<use xlink:href="#glyph-3-18" x="237.758203" y="20"/>
<use xlink:href="#glyph-3-19" x="247.101563" y="20"/>
<use xlink:href="#glyph-3-3" x="252.696094" y="20"/>
<use xlink:href="#glyph-3-13" x="258.290625" y="20"/>
<use xlink:href="#glyph-3-10" x="269.496094" y="20"/>
<use xlink:href="#glyph-3-5" x="275.090625" y="20"/>
<use xlink:href="#glyph-3-6" x="279.758203" y="20"/>
<use xlink:href="#glyph-3-5" x="289.569141" y="20"/>
<use xlink:href="#glyph-3-20" x="294.236719" y="20"/>
</g>
</svg>
