<?xml version="1.0" encoding="utf-8" standalone="no"?>
<!DOCTYPE svg PUBLIC "-//W3C//DTD SVG 1.1//EN"
  "http://www.w3.org/Graphics/SVG/1.1/DTD/svg11.dtd">
<svg xmlns:xlink="http://www.w3.org/1999/xlink" width="1073.004688pt" height="352.88625pt" viewBox="0 0 1073.004688 352.88625" xmlns="http://www.w3.org/2000/svg" version="1.1">
 <metadata>
  <rdf:RDF xmlns:dc="http://purl.org/dc/elements/1.1/" xmlns:cc="http://creativecommons.org/ns#" xmlns:rdf="http://www.w3.org/1999/02/22-rdf-syntax-ns#">
   <cc:Work>
    <dc:type rdf:resource="http://purl.org/dc/dcmitype/StillImage"/>
    <dc:date>2024-01-22T18:39:55.942279</dc:date>
    <dc:format>image/svg+xml</dc:format>
    <dc:creator>
     <cc:Agent>
      <dc:title>Matplotlib v3.7.2, https://matplotlib.org/</dc:title>
     </cc:Agent>
    </dc:creator>
   </cc:Work>
  </rdf:RDF>
 </metadata>
 <defs>
  <style type="text/css">*{stroke-linejoin: round; stroke-linecap: butt}</style>
 </defs>
 <g id="figure_1">
  <g id="patch_1">
   <path d="M 0 352.88625 
L 1073.004688 352.88625 
L 1073.004688 0 
L 0 0 
z
" style="fill: #ffffff"/>
  </g>
  <g id="axes_1">
   <g id="patch_2">
    <path d="M 38.467188 316.395625 
L 263.904687 316.395625 
L 263.904687 21.995625 
L 38.467188 21.995625 
z
" style="fill: #ffffff"/>
   </g>
   <g id="matplotlib.axis_1">
    <g id="xtick_1">
     <g id="line2d_1">
      <path d="M 48.714347 316.395625 
L 48.714347 21.995625 
" clip-path="url(#p1567beb244)" style="fill: none; stroke: #cccccc; stroke-width: 0.8; stroke-linecap: round"/>
     </g>
     <g id="text_1">
      <!-- 4 -->
      <g style="fill: #262626" transform="translate(45.933878 330.553437) scale(0.1 -0.1)">
       <defs>
        <path id="ArialMT-34" d="M 2069 0 
L 2069 1097 
L 81 1097 
L 81 1613 
L 2172 4581 
L 2631 4581 
L 2631 1613 
L 3250 1613 
L 3250 1097 
L 2631 1097 
L 2631 0 
L 2069 0 
z
M 2069 1613 
L 2069 3678 
L 634 1613 
L 2069 1613 
z
" transform="scale(0.015625)"/>
       </defs>
       <use xlink:href="#ArialMT-34"/>
      </g>
     </g>
    </g>
    <g id="xtick_2">
     <g id="line2d_2">
      <path d="M 89.702983 316.395625 
L 89.702983 21.995625 
" clip-path="url(#p1567beb244)" style="fill: none; stroke: #cccccc; stroke-width: 0.8; stroke-linecap: round"/>
     </g>
     <g id="text_2">
      <!-- 6 -->
      <g style="fill: #262626" transform="translate(86.922514 330.553437) scale(0.1 -0.1)">
       <defs>
        <path id="ArialMT-36" d="M 3184 3459 
L 2625 3416 
Q 2550 3747 2413 3897 
Q 2184 4138 1850 4138 
Q 1581 4138 1378 3988 
Q 1113 3794 959 3422 
Q 806 3050 800 2363 
Q 1003 2672 1297 2822 
Q 1591 2972 1913 2972 
Q 2475 2972 2870 2558 
Q 3266 2144 3266 1488 
Q 3266 1056 3080 686 
Q 2894 316 2569 119 
Q 2244 -78 1831 -78 
Q 1128 -78 684 439 
Q 241 956 241 2144 
Q 241 3472 731 4075 
Q 1159 4600 1884 4600 
Q 2425 4600 2770 4297 
Q 3116 3994 3184 3459 
z
M 888 1484 
Q 888 1194 1011 928 
Q 1134 663 1356 523 
Q 1578 384 1822 384 
Q 2178 384 2434 671 
Q 2691 959 2691 1453 
Q 2691 1928 2437 2201 
Q 2184 2475 1800 2475 
Q 1419 2475 1153 2201 
Q 888 1928 888 1484 
z
" transform="scale(0.015625)"/>
       </defs>
       <use xlink:href="#ArialMT-36"/>
      </g>
     </g>
    </g>
    <g id="xtick_3">
     <g id="line2d_3">
      <path d="M 130.691619 316.395625 
L 130.691619 21.995625 
" clip-path="url(#p1567beb244)" style="fill: none; stroke: #cccccc; stroke-width: 0.8; stroke-linecap: round"/>
     </g>
     <g id="text_3">
      <!-- 8 -->
      <g style="fill: #262626" transform="translate(127.911151 330.553437) scale(0.1 -0.1)">
       <defs>
        <path id="ArialMT-38" d="M 1131 2484 
Q 781 2613 612 2850 
Q 444 3088 444 3419 
Q 444 3919 803 4259 
Q 1163 4600 1759 4600 
Q 2359 4600 2725 4251 
Q 3091 3903 3091 3403 
Q 3091 3084 2923 2848 
Q 2756 2613 2416 2484 
Q 2838 2347 3058 2040 
Q 3278 1734 3278 1309 
Q 3278 722 2862 322 
Q 2447 -78 1769 -78 
Q 1091 -78 675 323 
Q 259 725 259 1325 
Q 259 1772 486 2073 
Q 713 2375 1131 2484 
z
M 1019 3438 
Q 1019 3113 1228 2906 
Q 1438 2700 1772 2700 
Q 2097 2700 2305 2904 
Q 2513 3109 2513 3406 
Q 2513 3716 2298 3927 
Q 2084 4138 1766 4138 
Q 1444 4138 1231 3931 
Q 1019 3725 1019 3438 
z
M 838 1322 
Q 838 1081 952 856 
Q 1066 631 1291 507 
Q 1516 384 1775 384 
Q 2178 384 2440 643 
Q 2703 903 2703 1303 
Q 2703 1709 2433 1975 
Q 2163 2241 1756 2241 
Q 1359 2241 1098 1978 
Q 838 1716 838 1322 
z
" transform="scale(0.015625)"/>
       </defs>
       <use xlink:href="#ArialMT-38"/>
      </g>
     </g>
    </g>
    <g id="xtick_4">
     <g id="line2d_4">
      <path d="M 171.680256 316.395625 
L 171.680256 21.995625 
" clip-path="url(#p1567beb244)" style="fill: none; stroke: #cccccc; stroke-width: 0.8; stroke-linecap: round"/>
     </g>
     <g id="text_4">
      <!-- 10 -->
      <g style="fill: #262626" transform="translate(166.119318 330.553437) scale(0.1 -0.1)">
       <defs>
        <path id="ArialMT-31" d="M 2384 0 
L 1822 0 
L 1822 3584 
Q 1619 3391 1289 3197 
Q 959 3003 697 2906 
L 697 3450 
Q 1169 3672 1522 3987 
Q 1875 4303 2022 4600 
L 2384 4600 
L 2384 0 
z
" transform="scale(0.015625)"/>
        <path id="ArialMT-30" d="M 266 2259 
Q 266 3072 433 3567 
Q 600 4063 929 4331 
Q 1259 4600 1759 4600 
Q 2128 4600 2406 4451 
Q 2684 4303 2865 4023 
Q 3047 3744 3150 3342 
Q 3253 2941 3253 2259 
Q 3253 1453 3087 958 
Q 2922 463 2592 192 
Q 2263 -78 1759 -78 
Q 1097 -78 719 397 
Q 266 969 266 2259 
z
M 844 2259 
Q 844 1131 1108 757 
Q 1372 384 1759 384 
Q 2147 384 2411 759 
Q 2675 1134 2675 2259 
Q 2675 3391 2411 3762 
Q 2147 4134 1753 4134 
Q 1366 4134 1134 3806 
Q 844 3388 844 2259 
z
" transform="scale(0.015625)"/>
       </defs>
       <use xlink:href="#ArialMT-31"/>
       <use xlink:href="#ArialMT-30" x="55.615234"/>
      </g>
     </g>
    </g>
    <g id="xtick_5">
     <g id="line2d_5">
      <path d="M 212.668892 316.395625 
L 212.668892 21.995625 
" clip-path="url(#p1567beb244)" style="fill: none; stroke: #cccccc; stroke-width: 0.8; stroke-linecap: round"/>
     </g>
     <g id="text_5">
      <!-- 12 -->
      <g style="fill: #262626" transform="translate(207.107955 330.553437) scale(0.1 -0.1)">
       <defs>
        <path id="ArialMT-32" d="M 3222 541 
L 3222 0 
L 194 0 
Q 188 203 259 391 
Q 375 700 629 1000 
Q 884 1300 1366 1694 
Q 2113 2306 2375 2664 
Q 2638 3022 2638 3341 
Q 2638 3675 2398 3904 
Q 2159 4134 1775 4134 
Q 1369 4134 1125 3890 
Q 881 3647 878 3216 
L 300 3275 
Q 359 3922 746 4261 
Q 1134 4600 1788 4600 
Q 2447 4600 2831 4234 
Q 3216 3869 3216 3328 
Q 3216 3053 3103 2787 
Q 2991 2522 2730 2228 
Q 2469 1934 1863 1422 
Q 1356 997 1212 845 
Q 1069 694 975 541 
L 3222 541 
z
" transform="scale(0.015625)"/>
       </defs>
       <use xlink:href="#ArialMT-31"/>
       <use xlink:href="#ArialMT-32" x="55.615234"/>
      </g>
     </g>
    </g>
    <g id="xtick_6">
     <g id="line2d_6">
      <path d="M 253.657528 316.395625 
L 253.657528 21.995625 
" clip-path="url(#p1567beb244)" style="fill: none; stroke: #cccccc; stroke-width: 0.8; stroke-linecap: round"/>
     </g>
     <g id="text_6">
      <!-- 14 -->
      <g style="fill: #262626" transform="translate(248.096591 330.553437) scale(0.1 -0.1)">
       <use xlink:href="#ArialMT-31"/>
       <use xlink:href="#ArialMT-34" x="55.615234"/>
      </g>
     </g>
    </g>
    <g id="text_7">
     <!-- x -->
     <g style="fill: #262626" transform="translate(148.685937 343.69875) scale(0.1 -0.1)">
      <defs>
       <path id="ArialMT-78" d="M 47 0 
L 1259 1725 
L 138 3319 
L 841 3319 
L 1350 2541 
Q 1494 2319 1581 2169 
Q 1719 2375 1834 2534 
L 2394 3319 
L 3066 3319 
L 1919 1756 
L 3153 0 
L 2463 0 
L 1781 1031 
L 1600 1309 
L 728 0 
L 47 0 
z
" transform="scale(0.015625)"/>
      </defs>
      <use xlink:href="#ArialMT-78"/>
     </g>
    </g>
   </g>
   <g id="matplotlib.axis_2">
    <g id="ytick_1">
     <g id="line2d_7">
      <path d="M 38.467188 313.589104 
L 263.904687 313.589104 
" clip-path="url(#p1567beb244)" style="fill: none; stroke: #cccccc; stroke-width: 0.8; stroke-linecap: round"/>
     </g>
     <g id="text_8">
      <!-- 4 -->
      <g style="fill: #262626" transform="translate(25.90625 317.16801) scale(0.1 -0.1)">
       <use xlink:href="#ArialMT-34"/>
      </g>
     </g>
    </g>
    <g id="ytick_2">
     <g id="line2d_8">
      <path d="M 38.467188 272.914884 
L 263.904687 272.914884 
" clip-path="url(#p1567beb244)" style="fill: none; stroke: #cccccc; stroke-width: 0.8; stroke-linecap: round"/>
     </g>
     <g id="text_9">
      <!-- 5 -->
      <g style="fill: #262626" transform="translate(25.90625 276.493791) scale(0.1 -0.1)">
       <defs>
        <path id="ArialMT-35" d="M 266 1200 
L 856 1250 
Q 922 819 1161 601 
Q 1400 384 1738 384 
Q 2144 384 2425 690 
Q 2706 997 2706 1503 
Q 2706 1984 2436 2262 
Q 2166 2541 1728 2541 
Q 1456 2541 1237 2417 
Q 1019 2294 894 2097 
L 366 2166 
L 809 4519 
L 3088 4519 
L 3088 3981 
L 1259 3981 
L 1013 2750 
Q 1425 3038 1878 3038 
Q 2478 3038 2890 2622 
Q 3303 2206 3303 1553 
Q 3303 931 2941 478 
Q 2500 -78 1738 -78 
Q 1113 -78 717 272 
Q 322 622 266 1200 
z
" transform="scale(0.015625)"/>
       </defs>
       <use xlink:href="#ArialMT-35"/>
      </g>
     </g>
    </g>
    <g id="ytick_3">
     <g id="line2d_9">
      <path d="M 38.467188 232.240665 
L 263.904687 232.240665 
" clip-path="url(#p1567beb244)" style="fill: none; stroke: #cccccc; stroke-width: 0.8; stroke-linecap: round"/>
     </g>
     <g id="text_10">
      <!-- 6 -->
      <g style="fill: #262626" transform="translate(25.90625 235.819571) scale(0.1 -0.1)">
       <use xlink:href="#ArialMT-36"/>
      </g>
     </g>
    </g>
    <g id="ytick_4">
     <g id="line2d_10">
      <path d="M 38.467188 191.566446 
L 263.904687 191.566446 
" clip-path="url(#p1567beb244)" style="fill: none; stroke: #cccccc; stroke-width: 0.8; stroke-linecap: round"/>
     </g>
     <g id="text_11">
      <!-- 7 -->
      <g style="fill: #262626" transform="translate(25.90625 195.145352) scale(0.1 -0.1)">
       <defs>
        <path id="ArialMT-37" d="M 303 3981 
L 303 4522 
L 3269 4522 
L 3269 4084 
Q 2831 3619 2401 2847 
Q 1972 2075 1738 1259 
Q 1569 684 1522 0 
L 944 0 
Q 953 541 1156 1306 
Q 1359 2072 1739 2783 
Q 2119 3494 2547 3981 
L 303 3981 
z
" transform="scale(0.015625)"/>
       </defs>
       <use xlink:href="#ArialMT-37"/>
      </g>
     </g>
    </g>
    <g id="ytick_5">
     <g id="line2d_11">
      <path d="M 38.467188 150.892226 
L 263.904687 150.892226 
" clip-path="url(#p1567beb244)" style="fill: none; stroke: #cccccc; stroke-width: 0.8; stroke-linecap: round"/>
     </g>
     <g id="text_12">
      <!-- 8 -->
      <g style="fill: #262626" transform="translate(25.90625 154.471133) scale(0.1 -0.1)">
       <use xlink:href="#ArialMT-38"/>
      </g>
     </g>
    </g>
    <g id="ytick_6">
     <g id="line2d_12">
      <path d="M 38.467188 110.218007 
L 263.904687 110.218007 
" clip-path="url(#p1567beb244)" style="fill: none; stroke: #cccccc; stroke-width: 0.8; stroke-linecap: round"/>
     </g>
     <g id="text_13">
      <!-- 9 -->
      <g style="fill: #262626" transform="translate(25.90625 113.796913) scale(0.1 -0.1)">
       <defs>
        <path id="ArialMT-39" d="M 350 1059 
L 891 1109 
Q 959 728 1153 556 
Q 1347 384 1650 384 
Q 1909 384 2104 503 
Q 2300 622 2425 820 
Q 2550 1019 2634 1356 
Q 2719 1694 2719 2044 
Q 2719 2081 2716 2156 
Q 2547 1888 2255 1720 
Q 1963 1553 1622 1553 
Q 1053 1553 659 1965 
Q 266 2378 266 3053 
Q 266 3750 677 4175 
Q 1088 4600 1706 4600 
Q 2153 4600 2523 4359 
Q 2894 4119 3086 3673 
Q 3278 3228 3278 2384 
Q 3278 1506 3087 986 
Q 2897 466 2520 194 
Q 2144 -78 1638 -78 
Q 1100 -78 759 220 
Q 419 519 350 1059 
z
M 2653 3081 
Q 2653 3566 2395 3850 
Q 2138 4134 1775 4134 
Q 1400 4134 1122 3828 
Q 844 3522 844 3034 
Q 844 2597 1108 2323 
Q 1372 2050 1759 2050 
Q 2150 2050 2401 2323 
Q 2653 2597 2653 3081 
z
" transform="scale(0.015625)"/>
       </defs>
       <use xlink:href="#ArialMT-39"/>
      </g>
     </g>
    </g>
    <g id="ytick_7">
     <g id="line2d_13">
      <path d="M 38.467188 69.543787 
L 263.904687 69.543787 
" clip-path="url(#p1567beb244)" style="fill: none; stroke: #cccccc; stroke-width: 0.8; stroke-linecap: round"/>
     </g>
     <g id="text_14">
      <!-- 10 -->
      <g style="fill: #262626" transform="translate(20.345312 73.122694) scale(0.1 -0.1)">
       <use xlink:href="#ArialMT-31"/>
       <use xlink:href="#ArialMT-30" x="55.615234"/>
      </g>
     </g>
    </g>
    <g id="ytick_8">
     <g id="line2d_14">
      <path d="M 38.467188 28.869568 
L 263.904687 28.869568 
" clip-path="url(#p1567beb244)" style="fill: none; stroke: #cccccc; stroke-width: 0.8; stroke-linecap: round"/>
     </g>
     <g id="text_15">
      <!-- 11 -->
      <g style="fill: #262626" transform="translate(21.082813 32.448474) scale(0.1 -0.1)">
       <use xlink:href="#ArialMT-31"/>
       <use xlink:href="#ArialMT-31" x="48.240234"/>
      </g>
     </g>
    </g>
    <g id="text_16">
     <!-- y -->
     <g style="fill: #262626" transform="translate(14.240625 171.695625) rotate(-90) scale(0.1 -0.1)">
      <defs>
       <path id="ArialMT-79" d="M 397 -1278 
L 334 -750 
Q 519 -800 656 -800 
Q 844 -800 956 -737 
Q 1069 -675 1141 -563 
Q 1194 -478 1313 -144 
Q 1328 -97 1363 -6 
L 103 3319 
L 709 3319 
L 1400 1397 
Q 1534 1031 1641 628 
Q 1738 1016 1872 1384 
L 2581 3319 
L 3144 3319 
L 1881 -56 
Q 1678 -603 1566 -809 
Q 1416 -1088 1222 -1217 
Q 1028 -1347 759 -1347 
Q 597 -1347 397 -1278 
z
" transform="scale(0.015625)"/>
      </defs>
      <use xlink:href="#ArialMT-79"/>
     </g>
    </g>
   </g>
   <g id="PathCollection_1">
    <defs>
     <path id="m377dc66487" d="M 0 3 
C 0.795609 3 1.55874 2.683901 2.12132 2.12132 
C 2.683901 1.55874 3 0.795609 3 0 
C 3 -0.795609 2.683901 -1.55874 2.12132 -2.12132 
C 1.55874 -2.683901 0.795609 -3 0 -3 
C -0.795609 -3 -1.55874 -2.683901 -2.12132 -2.12132 
C -2.683901 -1.55874 -3 -0.795609 -3 0 
C -3 0.795609 -2.683901 1.55874 -2.12132 2.12132 
C -1.55874 2.683901 -0.795609 3 0 3 
z
" style="stroke: #447099; stroke-opacity: 0.8"/>
    </defs>
    <g clip-path="url(#p1567beb244)">
     <use xlink:href="#m377dc66487" x="171.680256" y="149.265257" style="fill: #447099; fill-opacity: 0.8; stroke: #447099; stroke-opacity: 0.8"/>
     <use xlink:href="#m377dc66487" x="130.691619" y="193.600157" style="fill: #447099; fill-opacity: 0.8; stroke: #447099; stroke-opacity: 0.8"/>
     <use xlink:href="#m377dc66487" x="233.16321" y="167.975398" style="fill: #447099; fill-opacity: 0.8; stroke: #447099; stroke-opacity: 0.8"/>
     <use xlink:href="#m377dc66487" x="151.185937" y="117.946109" style="fill: #447099; fill-opacity: 0.8; stroke: #447099; stroke-opacity: 0.8"/>
     <use xlink:href="#m377dc66487" x="192.174574" y="137.469734" style="fill: #447099; fill-opacity: 0.8; stroke: #447099; stroke-opacity: 0.8"/>
     <use xlink:href="#m377dc66487" x="253.657528" y="71.170756" style="fill: #447099; fill-opacity: 0.8; stroke: #447099; stroke-opacity: 0.8"/>
     <use xlink:href="#m377dc66487" x="89.702983" y="181.804633" style="fill: #447099; fill-opacity: 0.8; stroke: #447099; stroke-opacity: 0.8"/>
     <use xlink:href="#m377dc66487" x="48.714347" y="303.013807" style="fill: #447099; fill-opacity: 0.8; stroke: #447099; stroke-opacity: 0.8"/>
     <use xlink:href="#m377dc66487" x="212.668892" y="35.377443" style="fill: #447099; fill-opacity: 0.8; stroke: #447099; stroke-opacity: 0.8"/>
     <use xlink:href="#m377dc66487" x="110.197301" y="280.236244" style="fill: #447099; fill-opacity: 0.8; stroke: #447099; stroke-opacity: 0.8"/>
     <use xlink:href="#m377dc66487" x="69.208665" y="245.256415" style="fill: #447099; fill-opacity: 0.8; stroke: #447099; stroke-opacity: 0.8"/>
    </g>
   </g>
   <g id="line2d_15">
    <path d="M 48.714347 272.896396 
L 50.78448 270.841769 
L 52.854613 268.787142 
L 54.924746 266.732515 
L 56.994879 264.677888 
L 59.065012 262.623261 
L 61.135145 260.568634 
L 63.205279 258.514007 
L 65.275412 256.45938 
L 67.345545 254.404753 
L 69.415678 252.350126 
L 71.485811 250.295499 
L 73.555944 248.240872 
L 75.626078 246.186245 
L 77.696211 244.131618 
L 79.766344 242.076991 
L 81.836477 240.022364 
L 83.90661 237.967737 
L 85.976743 235.91311 
L 88.046876 233.858483 
L 90.11701 231.803856 
L 92.187143 229.749229 
L 94.257276 227.694602 
L 96.327409 225.639975 
L 98.397542 223.585348 
L 100.467675 221.530721 
L 102.537808 219.476094 
L 104.607942 217.421467 
L 106.678075 215.36684 
L 108.748208 213.312213 
L 110.818341 211.257586 
L 112.888474 209.202959 
L 114.958607 207.148332 
L 117.028741 205.093705 
L 119.098874 203.039078 
L 121.169007 200.984451 
L 123.23914 198.929824 
L 125.309273 196.875197 
L 127.379406 194.82057 
L 129.449539 192.765943 
L 131.519673 190.711316 
L 133.589806 188.656689 
L 135.659939 186.602062 
L 137.730072 184.547435 
L 139.800205 182.492808 
L 141.870338 180.438181 
L 143.940471 178.383554 
L 146.010605 176.328927 
L 148.080738 174.2743 
L 150.150871 172.219673 
L 152.221004 170.165046 
L 154.291137 168.110419 
L 156.36127 166.055792 
L 158.431404 164.001165 
L 160.501537 161.946538 
L 162.57167 159.891911 
L 164.641803 157.837284 
L 166.711936 155.782657 
L 168.782069 153.72803 
L 170.852202 151.673403 
L 172.922336 149.618776 
L 174.992469 147.564149 
L 177.062602 145.509522 
L 179.132735 143.454895 
L 181.202868 141.400268 
L 183.273001 139.345641 
L 185.343134 137.291014 
L 187.413268 135.236387 
L 189.483401 133.18176 
L 191.553534 131.127133 
L 193.623667 129.072506 
L 195.6938 127.017879 
L 197.763933 124.963252 
L 199.834067 122.908625 
L 201.9042 120.853998 
L 203.974333 118.799371 
L 206.044466 116.744744 
L 208.114599 114.690117 
L 210.184732 112.63549 
L 212.254865 110.580863 
L 214.324999 108.526236 
L 216.395132 106.471609 
L 218.465265 104.416982 
L 220.535398 102.362355 
L 222.605531 100.307728 
L 224.675664 98.253101 
L 226.745797 96.198474 
L 228.815931 94.143847 
L 230.886064 92.08922 
L 232.956197 90.034593 
L 235.02633 87.979966 
L 237.096463 85.925339 
L 239.166596 83.870712 
L 241.23673 81.816085 
L 243.306863 79.761458 
L 245.376996 77.706831 
L 247.447129 75.652204 
L 249.517262 73.597577 
L 251.587395 71.54295 
L 253.657528 69.488323 
" clip-path="url(#p1567beb244)" style="fill: none; stroke: #447099; stroke-width: 2.25; stroke-linecap: round"/>
   </g>
   <g id="patch_3">
    <path d="M 38.467188 316.395625 
L 38.467188 21.995625 
" style="fill: none; stroke: #cccccc; stroke-width: 0.8; stroke-linejoin: miter; stroke-linecap: square"/>
   </g>
   <g id="patch_4">
    <path d="M 263.904687 316.395625 
L 263.904687 21.995625 
" style="fill: none; stroke: #cccccc; stroke-width: 0.8; stroke-linejoin: miter; stroke-linecap: square"/>
   </g>
   <g id="patch_5">
    <path d="M 38.467188 316.395625 
L 263.904688 316.395625 
" style="fill: none; stroke: #cccccc; stroke-width: 0.8; stroke-linejoin: miter; stroke-linecap: square"/>
   </g>
   <g id="patch_6">
    <path d="M 38.467188 21.995625 
L 263.904688 21.995625 
" style="fill: none; stroke: #cccccc; stroke-width: 0.8; stroke-linejoin: miter; stroke-linecap: square"/>
   </g>
   <g id="text_17">
    <!-- Набір даних I -->
    <g style="fill: #262626" transform="translate(113.907187 15.995625) scale(0.12 -0.12)">
     <defs>
      <path id="ArialMT-41d" d="M 513 0 
L 513 4581 
L 1119 4581 
L 1119 2700 
L 3500 2700 
L 3500 4581 
L 4106 4581 
L 4106 0 
L 3500 0 
L 3500 2159 
L 1119 2159 
L 1119 0 
L 513 0 
z
" transform="scale(0.015625)"/>
      <path id="ArialMT-430" d="M 2588 409 
Q 2275 144 1986 34 
Q 1697 -75 1366 -75 
Q 819 -75 525 192 
Q 231 459 231 875 
Q 231 1119 342 1320 
Q 453 1522 633 1644 
Q 813 1766 1038 1828 
Q 1203 1872 1538 1913 
Q 2219 1994 2541 2106 
Q 2544 2222 2544 2253 
Q 2544 2597 2384 2738 
Q 2169 2928 1744 2928 
Q 1347 2928 1158 2789 
Q 969 2650 878 2297 
L 328 2372 
Q 403 2725 575 2942 
Q 747 3159 1072 3276 
Q 1397 3394 1825 3394 
Q 2250 3394 2515 3294 
Q 2781 3194 2906 3042 
Q 3031 2891 3081 2659 
Q 3109 2516 3109 2141 
L 3109 1391 
Q 3109 606 3145 398 
Q 3181 191 3288 0 
L 2700 0 
Q 2613 175 2588 409 
z
M 2541 1666 
Q 2234 1541 1622 1453 
Q 1275 1403 1131 1340 
Q 988 1278 909 1158 
Q 831 1038 831 891 
Q 831 666 1001 516 
Q 1172 366 1500 366 
Q 1825 366 2078 508 
Q 2331 650 2450 897 
Q 2541 1088 2541 1459 
L 2541 1666 
z
" transform="scale(0.015625)"/>
      <path id="ArialMT-431" d="M 2853 4691 
L 3350 4684 
Q 3316 4350 3202 4219 
Q 3088 4088 2908 4050 
Q 2728 4013 2203 4013 
Q 1506 4013 1253 3878 
Q 1000 3744 889 3448 
Q 778 3153 766 2688 
Q 978 3003 1262 3161 
Q 1547 3319 1903 3319 
Q 2556 3319 2984 2870 
Q 3413 2422 3413 1656 
Q 3413 1075 3197 703 
Q 2981 331 2686 128 
Q 2391 -75 1881 -75 
Q 1291 -75 962 195 
Q 634 466 459 887 
Q 284 1309 284 2356 
Q 284 3672 729 4128 
Q 1175 4584 2100 4584 
Q 2675 4584 2753 4603 
Q 2831 4622 2853 4691 
z
M 2825 1672 
Q 2825 2191 2579 2522 
Q 2334 2853 1888 2853 
Q 1422 2853 1169 2503 
Q 916 2153 916 1569 
Q 916 991 1195 684 
Q 1475 378 1884 378 
Q 2303 378 2564 733 
Q 2825 1088 2825 1672 
z
" transform="scale(0.015625)"/>
      <path id="ArialMT-456" d="M 425 3934 
L 425 4581 
L 988 4581 
L 988 3934 
L 425 3934 
z
M 425 0 
L 425 3319 
L 988 3319 
L 988 0 
L 425 0 
z
" transform="scale(0.015625)"/>
      <path id="ArialMT-440" d="M 422 -1272 
L 422 3319 
L 934 3319 
L 934 2888 
Q 1116 3141 1344 3267 
Q 1572 3394 1897 3394 
Q 2322 3394 2647 3175 
Q 2972 2956 3137 2557 
Q 3303 2159 3303 1684 
Q 3303 1175 3120 767 
Q 2938 359 2589 142 
Q 2241 -75 1856 -75 
Q 1575 -75 1351 44 
Q 1128 163 984 344 
L 984 -1272 
L 422 -1272 
z
M 931 1641 
Q 931 1000 1190 694 
Q 1450 388 1819 388 
Q 2194 388 2461 705 
Q 2728 1022 2728 1688 
Q 2728 2322 2467 2637 
Q 2206 2953 1844 2953 
Q 1484 2953 1207 2617 
Q 931 2281 931 1641 
z
" transform="scale(0.015625)"/>
      <path id="ArialMT-20" transform="scale(0.015625)"/>
      <path id="ArialMT-434" d="M 866 3319 
L 3178 3319 
L 3178 463 
L 3538 463 
L 3538 -941 
L 3075 -941 
L 3075 0 
L 463 0 
L 463 -941 
L 0 -941 
L 0 463 
L 297 463 
Q 891 1269 866 3319 
z
M 1334 2853 
Q 1272 1238 834 463 
L 2619 463 
L 2619 2853 
L 1334 2853 
z
" transform="scale(0.015625)"/>
      <path id="ArialMT-43d" d="M 425 3319 
L 988 3319 
L 988 1938 
L 2547 1938 
L 2547 3319 
L 3109 3319 
L 3109 0 
L 2547 0 
L 2547 1472 
L 988 1472 
L 988 0 
L 425 0 
L 425 3319 
z
" transform="scale(0.015625)"/>
      <path id="ArialMT-438" d="M 422 3319 
L 984 3319 
L 984 788 
L 2544 3319 
L 3150 3319 
L 3150 0 
L 2588 0 
L 2588 2516 
L 1028 0 
L 422 0 
L 422 3319 
z
" transform="scale(0.015625)"/>
      <path id="ArialMT-445" d="M 47 0 
L 1259 1725 
L 138 3319 
L 841 3319 
L 1350 2541 
Q 1494 2319 1581 2169 
Q 1719 2375 1834 2534 
L 2394 3319 
L 3066 3319 
L 1919 1756 
L 3153 0 
L 2463 0 
L 1781 1031 
L 1600 1309 
L 728 0 
L 47 0 
z
" transform="scale(0.015625)"/>
      <path id="ArialMT-49" d="M 597 0 
L 597 4581 
L 1203 4581 
L 1203 0 
L 597 0 
z
" transform="scale(0.015625)"/>
     </defs>
     <use xlink:href="#ArialMT-41d"/>
     <use xlink:href="#ArialMT-430" x="72.216797"/>
     <use xlink:href="#ArialMT-431" x="127.832031"/>
     <use xlink:href="#ArialMT-456" x="185.107422"/>
     <use xlink:href="#ArialMT-440" x="207.324219"/>
     <use xlink:href="#ArialMT-20" x="262.939453"/>
     <use xlink:href="#ArialMT-434" x="290.722656"/>
     <use xlink:href="#ArialMT-430" x="349.072266"/>
     <use xlink:href="#ArialMT-43d" x="404.6875"/>
     <use xlink:href="#ArialMT-438" x="459.912109"/>
     <use xlink:href="#ArialMT-445" x="515.771484"/>
     <use xlink:href="#ArialMT-20" x="565.771484"/>
     <use xlink:href="#ArialMT-49" x="593.554688"/>
    </g>
   </g>
  </g>
  <g id="axes_2">
   <g id="patch_7">
    <path d="M 305.767188 316.395625 
L 531.204687 316.395625 
L 531.204687 21.995625 
L 305.767188 21.995625 
z
" style="fill: #ffffff"/>
   </g>
   <g id="matplotlib.axis_3">
    <g id="xtick_7">
     <g id="line2d_16">
      <path d="M 316.014347 316.395625 
L 316.014347 21.995625 
" clip-path="url(#pd598a72964)" style="fill: none; stroke: #cccccc; stroke-width: 0.8; stroke-linecap: round"/>
     </g>
     <g id="text_18">
      <!-- 4 -->
      <g style="fill: #262626" transform="translate(313.233878 330.553437) scale(0.1 -0.1)">
       <use xlink:href="#ArialMT-34"/>
      </g>
     </g>
    </g>
    <g id="xtick_8">
     <g id="line2d_17">
      <path d="M 357.002983 316.395625 
L 357.002983 21.995625 
" clip-path="url(#pd598a72964)" style="fill: none; stroke: #cccccc; stroke-width: 0.8; stroke-linecap: round"/>
     </g>
     <g id="text_19">
      <!-- 6 -->
      <g style="fill: #262626" transform="translate(354.222514 330.553437) scale(0.1 -0.1)">
       <use xlink:href="#ArialMT-36"/>
      </g>
     </g>
    </g>
    <g id="xtick_9">
     <g id="line2d_18">
      <path d="M 397.991619 316.395625 
L 397.991619 21.995625 
" clip-path="url(#pd598a72964)" style="fill: none; stroke: #cccccc; stroke-width: 0.8; stroke-linecap: round"/>
     </g>
     <g id="text_20">
      <!-- 8 -->
      <g style="fill: #262626" transform="translate(395.211151 330.553437) scale(0.1 -0.1)">
       <use xlink:href="#ArialMT-38"/>
      </g>
     </g>
    </g>
    <g id="xtick_10">
     <g id="line2d_19">
      <path d="M 438.980256 316.395625 
L 438.980256 21.995625 
" clip-path="url(#pd598a72964)" style="fill: none; stroke: #cccccc; stroke-width: 0.8; stroke-linecap: round"/>
     </g>
     <g id="text_21">
      <!-- 10 -->
      <g style="fill: #262626" transform="translate(433.419318 330.553437) scale(0.1 -0.1)">
       <use xlink:href="#ArialMT-31"/>
       <use xlink:href="#ArialMT-30" x="55.615234"/>
      </g>
     </g>
    </g>
    <g id="xtick_11">
     <g id="line2d_20">
      <path d="M 479.968892 316.395625 
L 479.968892 21.995625 
" clip-path="url(#pd598a72964)" style="fill: none; stroke: #cccccc; stroke-width: 0.8; stroke-linecap: round"/>
     </g>
     <g id="text_22">
      <!-- 12 -->
      <g style="fill: #262626" transform="translate(474.407955 330.553437) scale(0.1 -0.1)">
       <use xlink:href="#ArialMT-31"/>
       <use xlink:href="#ArialMT-32" x="55.615234"/>
      </g>
     </g>
    </g>
    <g id="xtick_12">
     <g id="line2d_21">
      <path d="M 520.957528 316.395625 
L 520.957528 21.995625 
" clip-path="url(#pd598a72964)" style="fill: none; stroke: #cccccc; stroke-width: 0.8; stroke-linecap: round"/>
     </g>
     <g id="text_23">
      <!-- 14 -->
      <g style="fill: #262626" transform="translate(515.396591 330.553437) scale(0.1 -0.1)">
       <use xlink:href="#ArialMT-31"/>
       <use xlink:href="#ArialMT-34" x="55.615234"/>
      </g>
     </g>
    </g>
    <g id="text_24">
     <!-- x -->
     <g style="fill: #262626" transform="translate(415.985937 343.69875) scale(0.1 -0.1)">
      <use xlink:href="#ArialMT-78"/>
     </g>
    </g>
   </g>
   <g id="matplotlib.axis_4">
    <g id="ytick_9">
     <g id="line2d_22">
      <path d="M 305.767188 306.892084 
L 531.204687 306.892084 
" clip-path="url(#pd598a72964)" style="fill: none; stroke: #cccccc; stroke-width: 0.8; stroke-linecap: round"/>
     </g>
     <g id="text_25">
      <!-- 3 -->
      <g style="fill: #262626" transform="translate(293.20625 310.47099) scale(0.1 -0.1)">
       <defs>
        <path id="ArialMT-33" d="M 269 1209 
L 831 1284 
Q 928 806 1161 595 
Q 1394 384 1728 384 
Q 2125 384 2398 659 
Q 2672 934 2672 1341 
Q 2672 1728 2419 1979 
Q 2166 2231 1775 2231 
Q 1616 2231 1378 2169 
L 1441 2663 
Q 1497 2656 1531 2656 
Q 1891 2656 2178 2843 
Q 2466 3031 2466 3422 
Q 2466 3731 2256 3934 
Q 2047 4138 1716 4138 
Q 1388 4138 1169 3931 
Q 950 3725 888 3313 
L 325 3413 
Q 428 3978 793 4289 
Q 1159 4600 1703 4600 
Q 2078 4600 2393 4439 
Q 2709 4278 2876 4000 
Q 3044 3722 3044 3409 
Q 3044 3113 2884 2869 
Q 2725 2625 2413 2481 
Q 2819 2388 3044 2092 
Q 3269 1797 3269 1353 
Q 3269 753 2831 336 
Q 2394 -81 1725 -81 
Q 1122 -81 723 278 
Q 325 638 269 1209 
z
" transform="scale(0.015625)"/>
       </defs>
       <use xlink:href="#ArialMT-33"/>
      </g>
     </g>
    </g>
    <g id="ytick_10">
     <g id="line2d_23">
      <path d="M 305.767188 268.109315 
L 531.204687 268.109315 
" clip-path="url(#pd598a72964)" style="fill: none; stroke: #cccccc; stroke-width: 0.8; stroke-linecap: round"/>
     </g>
     <g id="text_26">
      <!-- 4 -->
      <g style="fill: #262626" transform="translate(293.20625 271.688221) scale(0.1 -0.1)">
       <use xlink:href="#ArialMT-34"/>
      </g>
     </g>
    </g>
    <g id="ytick_11">
     <g id="line2d_24">
      <path d="M 305.767188 229.326546 
L 531.204687 229.326546 
" clip-path="url(#pd598a72964)" style="fill: none; stroke: #cccccc; stroke-width: 0.8; stroke-linecap: round"/>
     </g>
     <g id="text_27">
      <!-- 5 -->
      <g style="fill: #262626" transform="translate(293.20625 232.905452) scale(0.1 -0.1)">
       <use xlink:href="#ArialMT-35"/>
      </g>
     </g>
    </g>
    <g id="ytick_12">
     <g id="line2d_25">
      <path d="M 305.767188 190.543777 
L 531.204687 190.543777 
" clip-path="url(#pd598a72964)" style="fill: none; stroke: #cccccc; stroke-width: 0.8; stroke-linecap: round"/>
     </g>
     <g id="text_28">
      <!-- 6 -->
      <g style="fill: #262626" transform="translate(293.20625 194.122683) scale(0.1 -0.1)">
       <use xlink:href="#ArialMT-36"/>
      </g>
     </g>
    </g>
    <g id="ytick_13">
     <g id="line2d_26">
      <path d="M 305.767188 151.761007 
L 531.204687 151.761007 
" clip-path="url(#pd598a72964)" style="fill: none; stroke: #cccccc; stroke-width: 0.8; stroke-linecap: round"/>
     </g>
     <g id="text_29">
      <!-- 7 -->
      <g style="fill: #262626" transform="translate(293.20625 155.339914) scale(0.1 -0.1)">
       <use xlink:href="#ArialMT-37"/>
      </g>
     </g>
    </g>
    <g id="ytick_14">
     <g id="line2d_27">
      <path d="M 305.767188 112.978238 
L 531.204687 112.978238 
" clip-path="url(#pd598a72964)" style="fill: none; stroke: #cccccc; stroke-width: 0.8; stroke-linecap: round"/>
     </g>
     <g id="text_30">
      <!-- 8 -->
      <g style="fill: #262626" transform="translate(293.20625 116.557145) scale(0.1 -0.1)">
       <use xlink:href="#ArialMT-38"/>
      </g>
     </g>
    </g>
    <g id="ytick_15">
     <g id="line2d_28">
      <path d="M 305.767188 74.195469 
L 531.204687 74.195469 
" clip-path="url(#pd598a72964)" style="fill: none; stroke: #cccccc; stroke-width: 0.8; stroke-linecap: round"/>
     </g>
     <g id="text_31">
      <!-- 9 -->
      <g style="fill: #262626" transform="translate(293.20625 77.774376) scale(0.1 -0.1)">
       <use xlink:href="#ArialMT-39"/>
      </g>
     </g>
    </g>
    <g id="ytick_16">
     <g id="line2d_29">
      <path d="M 305.767188 35.4127 
L 531.204687 35.4127 
" clip-path="url(#pd598a72964)" style="fill: none; stroke: #cccccc; stroke-width: 0.8; stroke-linecap: round"/>
     </g>
     <g id="text_32">
      <!-- 10 -->
      <g style="fill: #262626" transform="translate(287.645313 38.991606) scale(0.1 -0.1)">
       <use xlink:href="#ArialMT-31"/>
       <use xlink:href="#ArialMT-30" x="55.615234"/>
      </g>
     </g>
    </g>
    <g id="text_33">
     <!-- y -->
     <g style="fill: #262626" transform="translate(281.540625 171.695625) rotate(-90) scale(0.1 -0.1)">
      <use xlink:href="#ArialMT-79"/>
     </g>
    </g>
   </g>
   <g id="PathCollection_2">
    <defs>
     <path id="m8c944d4c29" d="M 0 3 
C 0.795609 3 1.55874 2.683901 2.12132 2.12132 
C 2.683901 1.55874 3 0.795609 3 0 
C 3 -0.795609 2.683901 -1.55874 2.12132 -2.12132 
C 1.55874 -2.683901 0.795609 -3 0 -3 
C -0.795609 -3 -1.55874 -2.683901 -2.12132 -2.12132 
C -2.683901 -1.55874 -3 -0.795609 -3 0 
C -3 0.795609 -2.683901 1.55874 -2.12132 2.12132 
C -1.55874 2.683901 -0.795609 3 0 3 
z
" style="stroke: #c10000; stroke-opacity: 0.8"/>
    </defs>
    <g clip-path="url(#pd598a72964)">
     <use xlink:href="#m8c944d4c29" x="438.980256" y="68.765882" style="fill: #c10000; fill-opacity: 0.8; stroke: #c10000; stroke-opacity: 0.8"/>
     <use xlink:href="#m8c944d4c29" x="397.991619" y="107.548651" style="fill: #c10000; fill-opacity: 0.8; stroke: #c10000; stroke-opacity: 0.8"/>
     <use xlink:href="#m8c944d4c29" x="500.46321" y="84.278989" style="fill: #c10000; fill-opacity: 0.8; stroke: #c10000; stroke-opacity: 0.8"/>
     <use xlink:href="#m8c944d4c29" x="418.485937" y="83.115506" style="fill: #c10000; fill-opacity: 0.8; stroke: #c10000; stroke-opacity: 0.8"/>
     <use xlink:href="#m8c944d4c29" x="459.474574" y="64.111949" style="fill: #c10000; fill-opacity: 0.8; stroke: #c10000; stroke-opacity: 0.8"/>
     <use xlink:href="#m8c944d4c29" x="520.957528" y="109.099961" style="fill: #c10000; fill-opacity: 0.8; stroke: #c10000; stroke-opacity: 0.8"/>
     <use xlink:href="#m8c944d4c29" x="357.002983" y="185.502017" style="fill: #c10000; fill-opacity: 0.8; stroke: #c10000; stroke-opacity: 0.8"/>
     <use xlink:href="#m8c944d4c29" x="316.014347" y="303.013807" style="fill: #c10000; fill-opacity: 0.8; stroke: #c10000; stroke-opacity: 0.8"/>
     <use xlink:href="#m8c944d4c29" x="479.968892" y="69.153709" style="fill: #c10000; fill-opacity: 0.8; stroke: #c10000; stroke-opacity: 0.8"/>
     <use xlink:href="#m8c944d4c29" x="377.497301" y="141.677487" style="fill: #c10000; fill-opacity: 0.8; stroke: #c10000; stroke-opacity: 0.8"/>
     <use xlink:href="#m8c944d4c29" x="336.508665" y="239.410066" style="fill: #c10000; fill-opacity: 0.8; stroke: #c10000; stroke-opacity: 0.8"/>
    </g>
   </g>
   <g id="line2d_30">
    <path d="M 316.014347 229.291289 
L 318.08448 227.332563 
L 320.154613 225.373837 
L 322.224746 223.415111 
L 324.294879 221.456386 
L 326.365012 219.49766 
L 328.435145 217.538934 
L 330.505279 215.580209 
L 332.575412 213.621483 
L 334.645545 211.662757 
L 336.715678 209.704031 
L 338.785811 207.745306 
L 340.855944 205.78658 
L 342.926078 203.827854 
L 344.996211 201.869129 
L 347.066344 199.910403 
L 349.136477 197.951677 
L 351.20661 195.992951 
L 353.276743 194.034226 
L 355.346876 192.0755 
L 357.41701 190.116774 
L 359.487143 188.158049 
L 361.557276 186.199323 
L 363.627409 184.240597 
L 365.697542 182.281871 
L 367.767675 180.323146 
L 369.837808 178.36442 
L 371.907942 176.405694 
L 373.978075 174.446969 
L 376.048208 172.488243 
L 378.118341 170.529517 
L 380.188474 168.570791 
L 382.258607 166.612066 
L 384.328741 164.65334 
L 386.398874 162.694614 
L 388.469007 160.735889 
L 390.53914 158.777163 
L 392.609273 156.818437 
L 394.679406 154.859712 
L 396.749539 152.900986 
L 398.819673 150.94226 
L 400.889806 148.983534 
L 402.959939 147.024809 
L 405.030072 145.066083 
L 407.100205 143.107357 
L 409.170338 141.148632 
L 411.240471 139.189906 
L 413.310605 137.23118 
L 415.380738 135.272454 
L 417.450871 133.313729 
L 419.521004 131.355003 
L 421.591137 129.396277 
L 423.66127 127.437552 
L 425.731404 125.478826 
L 427.801537 123.5201 
L 429.87167 121.561374 
L 431.941803 119.602649 
L 434.011936 117.643923 
L 436.082069 115.685197 
L 438.152202 113.726472 
L 440.222336 111.767746 
L 442.292469 109.80902 
L 444.362602 107.850294 
L 446.432735 105.891569 
L 448.502868 103.932843 
L 450.573001 101.974117 
L 452.643134 100.015392 
L 454.713268 98.056666 
L 456.783401 96.09794 
L 458.853534 94.139214 
L 460.923667 92.180489 
L 462.9938 90.221763 
L 465.063933 88.263037 
L 467.134067 86.304312 
L 469.2042 84.345586 
L 471.274333 82.38686 
L 473.344466 80.428135 
L 475.414599 78.469409 
L 477.484732 76.510683 
L 479.554865 74.551957 
L 481.624999 72.593232 
L 483.695132 70.634506 
L 485.765265 68.67578 
L 487.835398 66.717055 
L 489.905531 64.758329 
L 491.975664 62.799603 
L 494.045797 60.840877 
L 496.115931 58.882152 
L 498.186064 56.923426 
L 500.256197 54.9647 
L 502.32633 53.005975 
L 504.396463 51.047249 
L 506.466596 49.088523 
L 508.53673 47.129797 
L 510.606863 45.171072 
L 512.676996 43.212346 
L 514.747129 41.25362 
L 516.817262 39.294895 
L 518.887395 37.336169 
L 520.957528 35.377443 
" clip-path="url(#pd598a72964)" style="fill: none; stroke: #c10000; stroke-width: 2.25; stroke-linecap: round"/>
   </g>
   <g id="patch_8">
    <path d="M 305.767188 316.395625 
L 305.767188 21.995625 
" style="fill: none; stroke: #cccccc; stroke-width: 0.8; stroke-linejoin: miter; stroke-linecap: square"/>
   </g>
   <g id="patch_9">
    <path d="M 531.204687 316.395625 
L 531.204687 21.995625 
" style="fill: none; stroke: #cccccc; stroke-width: 0.8; stroke-linejoin: miter; stroke-linecap: square"/>
   </g>
   <g id="patch_10">
    <path d="M 305.767188 316.395625 
L 531.204687 316.395625 
" style="fill: none; stroke: #cccccc; stroke-width: 0.8; stroke-linejoin: miter; stroke-linecap: square"/>
   </g>
   <g id="patch_11">
    <path d="M 305.767188 21.995625 
L 531.204687 21.995625 
" style="fill: none; stroke: #cccccc; stroke-width: 0.8; stroke-linejoin: miter; stroke-linecap: square"/>
   </g>
   <g id="text_34">
    <!-- Набір даних II -->
    <g style="fill: #262626" transform="translate(379.540312 15.995625) scale(0.12 -0.12)">
     <use xlink:href="#ArialMT-41d"/>
     <use xlink:href="#ArialMT-430" x="72.216797"/>
     <use xlink:href="#ArialMT-431" x="127.832031"/>
     <use xlink:href="#ArialMT-456" x="185.107422"/>
     <use xlink:href="#ArialMT-440" x="207.324219"/>
     <use xlink:href="#ArialMT-20" x="262.939453"/>
     <use xlink:href="#ArialMT-434" x="290.722656"/>
     <use xlink:href="#ArialMT-430" x="349.072266"/>
     <use xlink:href="#ArialMT-43d" x="404.6875"/>
     <use xlink:href="#ArialMT-438" x="459.912109"/>
     <use xlink:href="#ArialMT-445" x="515.771484"/>
     <use xlink:href="#ArialMT-20" x="565.771484"/>
     <use xlink:href="#ArialMT-49" x="593.554688"/>
     <use xlink:href="#ArialMT-49" x="621.337891"/>
    </g>
   </g>
  </g>
  <g id="axes_3">
   <g id="patch_12">
    <path d="M 573.067187 316.395625 
L 798.504687 316.395625 
L 798.504687 21.995625 
L 573.067187 21.995625 
z
" style="fill: #ffffff"/>
   </g>
   <g id="matplotlib.axis_5">
    <g id="xtick_13">
     <g id="line2d_31">
      <path d="M 583.314347 316.395625 
L 583.314347 21.995625 
" clip-path="url(#pdb40c7e2a1)" style="fill: none; stroke: #cccccc; stroke-width: 0.8; stroke-linecap: round"/>
     </g>
     <g id="text_35">
      <!-- 4 -->
      <g style="fill: #262626" transform="translate(580.533878 330.553437) scale(0.1 -0.1)">
       <use xlink:href="#ArialMT-34"/>
      </g>
     </g>
    </g>
    <g id="xtick_14">
     <g id="line2d_32">
      <path d="M 624.302983 316.395625 
L 624.302983 21.995625 
" clip-path="url(#pdb40c7e2a1)" style="fill: none; stroke: #cccccc; stroke-width: 0.8; stroke-linecap: round"/>
     </g>
     <g id="text_36">
      <!-- 6 -->
      <g style="fill: #262626" transform="translate(621.522514 330.553437) scale(0.1 -0.1)">
       <use xlink:href="#ArialMT-36"/>
      </g>
     </g>
    </g>
    <g id="xtick_15">
     <g id="line2d_33">
      <path d="M 665.291619 316.395625 
L 665.291619 21.995625 
" clip-path="url(#pdb40c7e2a1)" style="fill: none; stroke: #cccccc; stroke-width: 0.8; stroke-linecap: round"/>
     </g>
     <g id="text_37">
      <!-- 8 -->
      <g style="fill: #262626" transform="translate(662.511151 330.553437) scale(0.1 -0.1)">
       <use xlink:href="#ArialMT-38"/>
      </g>
     </g>
    </g>
    <g id="xtick_16">
     <g id="line2d_34">
      <path d="M 706.280256 316.395625 
L 706.280256 21.995625 
" clip-path="url(#pdb40c7e2a1)" style="fill: none; stroke: #cccccc; stroke-width: 0.8; stroke-linecap: round"/>
     </g>
     <g id="text_38">
      <!-- 10 -->
      <g style="fill: #262626" transform="translate(700.719318 330.553437) scale(0.1 -0.1)">
       <use xlink:href="#ArialMT-31"/>
       <use xlink:href="#ArialMT-30" x="55.615234"/>
      </g>
     </g>
    </g>
    <g id="xtick_17">
     <g id="line2d_35">
      <path d="M 747.268892 316.395625 
L 747.268892 21.995625 
" clip-path="url(#pdb40c7e2a1)" style="fill: none; stroke: #cccccc; stroke-width: 0.8; stroke-linecap: round"/>
     </g>
     <g id="text_39">
      <!-- 12 -->
      <g style="fill: #262626" transform="translate(741.707955 330.553437) scale(0.1 -0.1)">
       <use xlink:href="#ArialMT-31"/>
       <use xlink:href="#ArialMT-32" x="55.615234"/>
      </g>
     </g>
    </g>
    <g id="xtick_18">
     <g id="line2d_36">
      <path d="M 788.257528 316.395625 
L 788.257528 21.995625 
" clip-path="url(#pdb40c7e2a1)" style="fill: none; stroke: #cccccc; stroke-width: 0.8; stroke-linecap: round"/>
     </g>
     <g id="text_40">
      <!-- 14 -->
      <g style="fill: #262626" transform="translate(782.696591 330.553437) scale(0.1 -0.1)">
       <use xlink:href="#ArialMT-31"/>
       <use xlink:href="#ArialMT-34" x="55.615234"/>
      </g>
     </g>
    </g>
    <g id="text_41">
     <!-- x -->
     <g style="fill: #262626" transform="translate(683.285937 343.69875) scale(0.1 -0.1)">
      <use xlink:href="#ArialMT-78"/>
     </g>
    </g>
   </g>
   <g id="matplotlib.axis_6">
    <g id="ytick_17">
     <g id="line2d_37">
      <path d="M 573.067187 303.060967 
L 798.504687 303.060967 
" clip-path="url(#pdb40c7e2a1)" style="fill: none; stroke: #cccccc; stroke-width: 0.8; stroke-linecap: round"/>
     </g>
     <g id="text_42">
      <!-- 5 -->
      <g style="fill: #262626" transform="translate(560.50625 306.639874) scale(0.1 -0.1)">
       <use xlink:href="#ArialMT-35"/>
      </g>
     </g>
    </g>
    <g id="ytick_18">
     <g id="line2d_38">
      <path d="M 573.067187 268.476533 
L 798.504687 268.476533 
" clip-path="url(#pdb40c7e2a1)" style="fill: none; stroke: #cccccc; stroke-width: 0.8; stroke-linecap: round"/>
     </g>
     <g id="text_43">
      <!-- 6 -->
      <g style="fill: #262626" transform="translate(560.50625 272.055439) scale(0.1 -0.1)">
       <use xlink:href="#ArialMT-36"/>
      </g>
     </g>
    </g>
    <g id="ytick_19">
     <g id="line2d_39">
      <path d="M 573.067187 233.892098 
L 798.504687 233.892098 
" clip-path="url(#pdb40c7e2a1)" style="fill: none; stroke: #cccccc; stroke-width: 0.8; stroke-linecap: round"/>
     </g>
     <g id="text_44">
      <!-- 7 -->
      <g style="fill: #262626" transform="translate(560.50625 237.471004) scale(0.1 -0.1)">
       <use xlink:href="#ArialMT-37"/>
      </g>
     </g>
    </g>
    <g id="ytick_20">
     <g id="line2d_40">
      <path d="M 573.067187 199.307663 
L 798.504687 199.307663 
" clip-path="url(#pdb40c7e2a1)" style="fill: none; stroke: #cccccc; stroke-width: 0.8; stroke-linecap: round"/>
     </g>
     <g id="text_45">
      <!-- 8 -->
      <g style="fill: #262626" transform="translate(560.50625 202.88657) scale(0.1 -0.1)">
       <use xlink:href="#ArialMT-38"/>
      </g>
     </g>
    </g>
    <g id="ytick_21">
     <g id="line2d_41">
      <path d="M 573.067187 164.723229 
L 798.504687 164.723229 
" clip-path="url(#pdb40c7e2a1)" style="fill: none; stroke: #cccccc; stroke-width: 0.8; stroke-linecap: round"/>
     </g>
     <g id="text_46">
      <!-- 9 -->
      <g style="fill: #262626" transform="translate(560.50625 168.302135) scale(0.1 -0.1)">
       <use xlink:href="#ArialMT-39"/>
      </g>
     </g>
    </g>
    <g id="ytick_22">
     <g id="line2d_42">
      <path d="M 573.067187 130.138794 
L 798.504687 130.138794 
" clip-path="url(#pdb40c7e2a1)" style="fill: none; stroke: #cccccc; stroke-width: 0.8; stroke-linecap: round"/>
     </g>
     <g id="text_47">
      <!-- 10 -->
      <g style="fill: #262626" transform="translate(554.945312 133.7177) scale(0.1 -0.1)">
       <use xlink:href="#ArialMT-31"/>
       <use xlink:href="#ArialMT-30" x="55.615234"/>
      </g>
     </g>
    </g>
    <g id="ytick_23">
     <g id="line2d_43">
      <path d="M 573.067187 95.554359 
L 798.504687 95.554359 
" clip-path="url(#pdb40c7e2a1)" style="fill: none; stroke: #cccccc; stroke-width: 0.8; stroke-linecap: round"/>
     </g>
     <g id="text_48">
      <!-- 11 -->
      <g style="fill: #262626" transform="translate(555.682812 99.133266) scale(0.1 -0.1)">
       <use xlink:href="#ArialMT-31"/>
       <use xlink:href="#ArialMT-31" x="48.240234"/>
      </g>
     </g>
    </g>
    <g id="ytick_24">
     <g id="line2d_44">
      <path d="M 573.067187 60.969925 
L 798.504687 60.969925 
" clip-path="url(#pdb40c7e2a1)" style="fill: none; stroke: #cccccc; stroke-width: 0.8; stroke-linecap: round"/>
     </g>
     <g id="text_49">
      <!-- 12 -->
      <g style="fill: #262626" transform="translate(554.945312 64.548831) scale(0.1 -0.1)">
       <use xlink:href="#ArialMT-31"/>
       <use xlink:href="#ArialMT-32" x="55.615234"/>
      </g>
     </g>
    </g>
    <g id="ytick_25">
     <g id="line2d_45">
      <path d="M 573.067187 26.38549 
L 798.504687 26.38549 
" clip-path="url(#pdb40c7e2a1)" style="fill: none; stroke: #cccccc; stroke-width: 0.8; stroke-linecap: round"/>
     </g>
     <g id="text_50">
      <!-- 13 -->
      <g style="fill: #262626" transform="translate(554.945312 29.964396) scale(0.1 -0.1)">
       <use xlink:href="#ArialMT-31"/>
       <use xlink:href="#ArialMT-33" x="55.615234"/>
      </g>
     </g>
    </g>
    <g id="text_51">
     <!-- y -->
     <g style="fill: #262626" transform="translate(548.840625 171.695625) rotate(-90) scale(0.1 -0.1)">
      <use xlink:href="#ArialMT-79"/>
     </g>
    </g>
   </g>
   <g id="PathCollection_3">
    <defs>
     <path id="maa4d00ddf4" d="M 0 3 
C 0.795609 3 1.55874 2.683901 2.12132 2.12132 
C 2.683901 1.55874 3 0.795609 3 0 
C 3 -0.795609 2.683901 -1.55874 2.12132 -2.12132 
C 1.55874 -2.683901 0.795609 -3 0 -3 
C -0.795609 -3 -1.55874 -2.683901 -2.12132 -2.12132 
C -2.683901 -1.55874 -3 -0.795609 -3 0 
C -3 0.795609 -2.683901 1.55874 -2.12132 2.12132 
C -1.55874 2.683901 -0.795609 3 0 3 
z
" style="stroke: #00891a; stroke-opacity: 0.8"/>
    </defs>
    <g clip-path="url(#pdb40c7e2a1)">
     <use xlink:href="#maa4d00ddf4" x="706.280256" y="217.983258" style="fill: #00891a; fill-opacity: 0.8; stroke: #00891a; stroke-opacity: 0.8"/>
     <use xlink:href="#maa4d00ddf4" x="665.291619" y="241.846518" style="fill: #00891a; fill-opacity: 0.8; stroke: #00891a; stroke-opacity: 0.8"/>
     <use xlink:href="#maa4d00ddf4" x="767.76321" y="35.377443" style="fill: #00891a; fill-opacity: 0.8; stroke: #00891a; stroke-opacity: 0.8"/>
     <use xlink:href="#maa4d00ddf4" x="685.785937" y="230.08781" style="fill: #00891a; fill-opacity: 0.8; stroke: #00891a; stroke-opacity: 0.8"/>
     <use xlink:href="#maa4d00ddf4" x="726.774574" y="205.878706" style="fill: #00891a; fill-opacity: 0.8; stroke: #00891a; stroke-opacity: 0.8"/>
     <use xlink:href="#maa4d00ddf4" x="788.257528" y="170.256738" style="fill: #00891a; fill-opacity: 0.8; stroke: #00891a; stroke-opacity: 0.8"/>
     <use xlink:href="#maa4d00ddf4" x="624.302983" y="265.709778" style="fill: #00891a; fill-opacity: 0.8; stroke: #00891a; stroke-opacity: 0.8"/>
     <use xlink:href="#maa4d00ddf4" x="583.314347" y="289.573038" style="fill: #00891a; fill-opacity: 0.8; stroke: #00891a; stroke-opacity: 0.8"/>
     <use xlink:href="#maa4d00ddf4" x="747.268892" y="194.119998" style="fill: #00891a; fill-opacity: 0.8; stroke: #00891a; stroke-opacity: 0.8"/>
     <use xlink:href="#maa4d00ddf4" x="644.797301" y="253.95107" style="fill: #00891a; fill-opacity: 0.8; stroke: #00891a; stroke-opacity: 0.8"/>
     <use xlink:href="#maa4d00ddf4" x="603.808665" y="277.81433" style="fill: #00891a; fill-opacity: 0.8; stroke: #00891a; stroke-opacity: 0.8"/>
    </g>
   </g>
   <g id="line2d_46">
    <path d="M 583.314347 303.013807 
L 585.38448 301.268071 
L 587.454613 299.522335 
L 589.524746 297.776599 
L 591.594879 296.030863 
L 593.665012 294.285127 
L 595.735145 292.539392 
L 597.805279 290.793656 
L 599.875412 289.04792 
L 601.945545 287.302184 
L 604.015678 285.556448 
L 606.085811 283.810712 
L 608.155944 282.064976 
L 610.226078 280.31924 
L 612.296211 278.573505 
L 614.366344 276.827769 
L 616.436477 275.082033 
L 618.50661 273.336297 
L 620.576743 271.590561 
L 622.646876 269.844825 
L 624.71701 268.099089 
L 626.787143 266.353353 
L 628.857276 264.607617 
L 630.927409 262.861882 
L 632.997542 261.116146 
L 635.067675 259.37041 
L 637.137808 257.624674 
L 639.207942 255.878938 
L 641.278075 254.133202 
L 643.348208 252.387466 
L 645.418341 250.64173 
L 647.488474 248.895995 
L 649.558607 247.150259 
L 651.628741 245.404523 
L 653.698874 243.658787 
L 655.769007 241.913051 
L 657.83914 240.167315 
L 659.909273 238.421579 
L 661.979406 236.675843 
L 664.049539 234.930108 
L 666.119673 233.184372 
L 668.189806 231.438636 
L 670.259939 229.6929 
L 672.330072 227.947164 
L 674.400205 226.201428 
L 676.470338 224.455692 
L 678.540471 222.709956 
L 680.610605 220.96422 
L 682.680738 219.218485 
L 684.750871 217.472749 
L 686.821004 215.727013 
L 688.891137 213.981277 
L 690.96127 212.235541 
L 693.031404 210.489805 
L 695.101537 208.744069 
L 697.17167 206.998333 
L 699.241803 205.252598 
L 701.311936 203.506862 
L 703.382069 201.761126 
L 705.452202 200.01539 
L 707.522336 198.269654 
L 709.592469 196.523918 
L 711.662602 194.778182 
L 713.732735 193.032446 
L 715.802868 191.286711 
L 717.873001 189.540975 
L 719.943134 187.795239 
L 722.013268 186.049503 
L 724.083401 184.303767 
L 726.153534 182.558031 
L 728.223667 180.812295 
L 730.2938 179.066559 
L 732.363933 177.320823 
L 734.434067 175.575088 
L 736.5042 173.829352 
L 738.574333 172.083616 
L 740.644466 170.33788 
L 742.714599 168.592144 
L 744.784732 166.846408 
L 746.854865 165.100672 
L 748.924999 163.354936 
L 750.995132 161.609201 
L 753.065265 159.863465 
L 755.135398 158.117729 
L 757.205531 156.371993 
L 759.275664 154.626257 
L 761.345797 152.880521 
L 763.415931 151.134785 
L 765.486064 149.389049 
L 767.556197 147.643314 
L 769.62633 145.897578 
L 771.696463 144.151842 
L 773.766596 142.406106 
L 775.83673 140.66037 
L 777.906863 138.914634 
L 779.976996 137.168898 
L 782.047129 135.423162 
L 784.117262 133.677426 
L 786.187395 131.931691 
L 788.257528 130.185955 
" clip-path="url(#pdb40c7e2a1)" style="fill: none; stroke: #00891a; stroke-width: 2.25; stroke-linecap: round"/>
   </g>
   <g id="patch_13">
    <path d="M 573.067187 316.395625 
L 573.067187 21.995625 
" style="fill: none; stroke: #cccccc; stroke-width: 0.8; stroke-linejoin: miter; stroke-linecap: square"/>
   </g>
   <g id="patch_14">
    <path d="M 798.504687 316.395625 
L 798.504687 21.995625 
" style="fill: none; stroke: #cccccc; stroke-width: 0.8; stroke-linejoin: miter; stroke-linecap: square"/>
   </g>
   <g id="patch_15">
    <path d="M 573.067187 316.395625 
L 798.504688 316.395625 
" style="fill: none; stroke: #cccccc; stroke-width: 0.8; stroke-linejoin: miter; stroke-linecap: square"/>
   </g>
   <g id="patch_16">
    <path d="M 573.067187 21.995625 
L 798.504688 21.995625 
" style="fill: none; stroke: #cccccc; stroke-width: 0.8; stroke-linejoin: miter; stroke-linecap: square"/>
   </g>
   <g id="text_52">
    <!-- Набір даних III -->
    <g style="fill: #262626" transform="translate(645.173437 15.995625) scale(0.12 -0.12)">
     <use xlink:href="#ArialMT-41d"/>
     <use xlink:href="#ArialMT-430" x="72.216797"/>
     <use xlink:href="#ArialMT-431" x="127.832031"/>
     <use xlink:href="#ArialMT-456" x="185.107422"/>
     <use xlink:href="#ArialMT-440" x="207.324219"/>
     <use xlink:href="#ArialMT-20" x="262.939453"/>
     <use xlink:href="#ArialMT-434" x="290.722656"/>
     <use xlink:href="#ArialMT-430" x="349.072266"/>
     <use xlink:href="#ArialMT-43d" x="404.6875"/>
     <use xlink:href="#ArialMT-438" x="459.912109"/>
     <use xlink:href="#ArialMT-445" x="515.771484"/>
     <use xlink:href="#ArialMT-20" x="565.771484"/>
     <use xlink:href="#ArialMT-49" x="593.554688"/>
     <use xlink:href="#ArialMT-49" x="621.337891"/>
     <use xlink:href="#ArialMT-49" x="649.121094"/>
    </g>
   </g>
  </g>
  <g id="axes_4">
   <g id="patch_17">
    <path d="M 840.367187 316.395625 
L 1065.804688 316.395625 
L 1065.804688 21.995625 
L 840.367187 21.995625 
z
" style="fill: #ffffff"/>
   </g>
   <g id="matplotlib.axis_7">
    <g id="xtick_19">
     <g id="line2d_47">
      <path d="M 850.614347 316.395625 
L 850.614347 21.995625 
" clip-path="url(#pf8021da65a)" style="fill: none; stroke: #cccccc; stroke-width: 0.8; stroke-linecap: round"/>
     </g>
     <g id="text_53">
      <!-- 8 -->
      <g style="fill: #262626" transform="translate(847.833878 330.553437) scale(0.1 -0.1)">
       <use xlink:href="#ArialMT-38"/>
      </g>
     </g>
    </g>
    <g id="xtick_20">
     <g id="line2d_48">
      <path d="M 887.876743 316.395625 
L 887.876743 21.995625 
" clip-path="url(#pf8021da65a)" style="fill: none; stroke: #cccccc; stroke-width: 0.8; stroke-linecap: round"/>
     </g>
     <g id="text_54">
      <!-- 10 -->
      <g style="fill: #262626" transform="translate(882.315806 330.553437) scale(0.1 -0.1)">
       <use xlink:href="#ArialMT-31"/>
       <use xlink:href="#ArialMT-30" x="55.615234"/>
      </g>
     </g>
    </g>
    <g id="xtick_21">
     <g id="line2d_49">
      <path d="M 925.13914 316.395625 
L 925.13914 21.995625 
" clip-path="url(#pf8021da65a)" style="fill: none; stroke: #cccccc; stroke-width: 0.8; stroke-linecap: round"/>
     </g>
     <g id="text_55">
      <!-- 12 -->
      <g style="fill: #262626" transform="translate(919.578202 330.553437) scale(0.1 -0.1)">
       <use xlink:href="#ArialMT-31"/>
       <use xlink:href="#ArialMT-32" x="55.615234"/>
      </g>
     </g>
    </g>
    <g id="xtick_22">
     <g id="line2d_50">
      <path d="M 962.401537 316.395625 
L 962.401537 21.995625 
" clip-path="url(#pf8021da65a)" style="fill: none; stroke: #cccccc; stroke-width: 0.8; stroke-linecap: round"/>
     </g>
     <g id="text_56">
      <!-- 14 -->
      <g style="fill: #262626" transform="translate(956.840599 330.553437) scale(0.1 -0.1)">
       <use xlink:href="#ArialMT-31"/>
       <use xlink:href="#ArialMT-34" x="55.615234"/>
      </g>
     </g>
    </g>
    <g id="xtick_23">
     <g id="line2d_51">
      <path d="M 999.663933 316.395625 
L 999.663933 21.995625 
" clip-path="url(#pf8021da65a)" style="fill: none; stroke: #cccccc; stroke-width: 0.8; stroke-linecap: round"/>
     </g>
     <g id="text_57">
      <!-- 16 -->
      <g style="fill: #262626" transform="translate(994.102996 330.553437) scale(0.1 -0.1)">
       <use xlink:href="#ArialMT-31"/>
       <use xlink:href="#ArialMT-36" x="55.615234"/>
      </g>
     </g>
    </g>
    <g id="xtick_24">
     <g id="line2d_52">
      <path d="M 1036.92633 316.395625 
L 1036.92633 21.995625 
" clip-path="url(#pf8021da65a)" style="fill: none; stroke: #cccccc; stroke-width: 0.8; stroke-linecap: round"/>
     </g>
     <g id="text_58">
      <!-- 18 -->
      <g style="fill: #262626" transform="translate(1031.365393 330.553437) scale(0.1 -0.1)">
       <use xlink:href="#ArialMT-31"/>
       <use xlink:href="#ArialMT-38" x="55.615234"/>
      </g>
     </g>
    </g>
    <g id="text_59">
     <!-- x -->
     <g style="fill: #262626" transform="translate(950.585938 343.69875) scale(0.1 -0.1)">
      <use xlink:href="#ArialMT-78"/>
     </g>
    </g>
   </g>
   <g id="matplotlib.axis_8">
    <g id="ytick_26">
     <g id="line2d_53">
      <path d="M 840.367187 312.242647 
L 1065.804688 312.242647 
" clip-path="url(#pf8021da65a)" style="fill: none; stroke: #cccccc; stroke-width: 0.8; stroke-linecap: round"/>
     </g>
     <g id="text_60">
      <!-- 5 -->
      <g style="fill: #262626" transform="translate(827.80625 315.821553) scale(0.1 -0.1)">
       <use xlink:href="#ArialMT-35"/>
      </g>
     </g>
    </g>
    <g id="ytick_27">
     <g id="line2d_54">
      <path d="M 840.367187 275.327286 
L 1065.804688 275.327286 
" clip-path="url(#pf8021da65a)" style="fill: none; stroke: #cccccc; stroke-width: 0.8; stroke-linecap: round"/>
     </g>
     <g id="text_61">
      <!-- 6 -->
      <g style="fill: #262626" transform="translate(827.80625 278.906193) scale(0.1 -0.1)">
       <use xlink:href="#ArialMT-36"/>
      </g>
     </g>
    </g>
    <g id="ytick_28">
     <g id="line2d_55">
      <path d="M 840.367187 238.411926 
L 1065.804688 238.411926 
" clip-path="url(#pf8021da65a)" style="fill: none; stroke: #cccccc; stroke-width: 0.8; stroke-linecap: round"/>
     </g>
     <g id="text_62">
      <!-- 7 -->
      <g style="fill: #262626" transform="translate(827.80625 241.990832) scale(0.1 -0.1)">
       <use xlink:href="#ArialMT-37"/>
      </g>
     </g>
    </g>
    <g id="ytick_29">
     <g id="line2d_56">
      <path d="M 840.367187 201.496565 
L 1065.804688 201.496565 
" clip-path="url(#pf8021da65a)" style="fill: none; stroke: #cccccc; stroke-width: 0.8; stroke-linecap: round"/>
     </g>
     <g id="text_63">
      <!-- 8 -->
      <g style="fill: #262626" transform="translate(827.80625 205.075472) scale(0.1 -0.1)">
       <use xlink:href="#ArialMT-38"/>
      </g>
     </g>
    </g>
    <g id="ytick_30">
     <g id="line2d_57">
      <path d="M 840.367187 164.581205 
L 1065.804688 164.581205 
" clip-path="url(#pf8021da65a)" style="fill: none; stroke: #cccccc; stroke-width: 0.8; stroke-linecap: round"/>
     </g>
     <g id="text_64">
      <!-- 9 -->
      <g style="fill: #262626" transform="translate(827.80625 168.160111) scale(0.1 -0.1)">
       <use xlink:href="#ArialMT-39"/>
      </g>
     </g>
    </g>
    <g id="ytick_31">
     <g id="line2d_58">
      <path d="M 840.367187 127.665844 
L 1065.804688 127.665844 
" clip-path="url(#pf8021da65a)" style="fill: none; stroke: #cccccc; stroke-width: 0.8; stroke-linecap: round"/>
     </g>
     <g id="text_65">
      <!-- 10 -->
      <g style="fill: #262626" transform="translate(822.245312 131.244751) scale(0.1 -0.1)">
       <use xlink:href="#ArialMT-31"/>
       <use xlink:href="#ArialMT-30" x="55.615234"/>
      </g>
     </g>
    </g>
    <g id="ytick_32">
     <g id="line2d_59">
      <path d="M 840.367187 90.750484 
L 1065.804688 90.750484 
" clip-path="url(#pf8021da65a)" style="fill: none; stroke: #cccccc; stroke-width: 0.8; stroke-linecap: round"/>
     </g>
     <g id="text_66">
      <!-- 11 -->
      <g style="fill: #262626" transform="translate(822.982812 94.32939) scale(0.1 -0.1)">
       <use xlink:href="#ArialMT-31"/>
       <use xlink:href="#ArialMT-31" x="48.240234"/>
      </g>
     </g>
    </g>
    <g id="ytick_33">
     <g id="line2d_60">
      <path d="M 840.367187 53.835123 
L 1065.804688 53.835123 
" clip-path="url(#pf8021da65a)" style="fill: none; stroke: #cccccc; stroke-width: 0.8; stroke-linecap: round"/>
     </g>
     <g id="text_67">
      <!-- 12 -->
      <g style="fill: #262626" transform="translate(822.245312 57.41403) scale(0.1 -0.1)">
       <use xlink:href="#ArialMT-31"/>
       <use xlink:href="#ArialMT-32" x="55.615234"/>
      </g>
     </g>
    </g>
    <g id="text_68">
     <!-- y -->
     <g style="fill: #262626" transform="translate(816.140625 171.695625) rotate(-90) scale(0.1 -0.1)">
      <use xlink:href="#ArialMT-79"/>
     </g>
    </g>
   </g>
   <g id="PathCollection_4">
    <defs>
     <path id="me8b63bcb51" d="M 0 3 
C 0.795609 3 1.55874 2.683901 2.12132 2.12132 
C 2.683901 1.55874 3 0.795609 3 0 
C 3 -0.795609 2.683901 -1.55874 2.12132 -2.12132 
C 1.55874 -2.683901 0.795609 -3 0 -3 
C -0.795609 -3 -1.55874 -2.683901 -2.12132 -2.12132 
C -2.683901 -1.55874 -3 -0.795609 -3 0 
C -3 0.795609 -2.683901 1.55874 -2.12132 2.12132 
C -1.55874 2.683901 -0.795609 3 0 3 
z
" style="stroke: #f45100; stroke-opacity: 0.8"/>
    </defs>
    <g clip-path="url(#pf8021da65a)">
     <use xlink:href="#me8b63bcb51" x="850.614347" y="253.916377" style="fill: #f45100; fill-opacity: 0.8; stroke: #f45100; stroke-opacity: 0.8"/>
     <use xlink:href="#me8b63bcb51" x="850.614347" y="284.186973" style="fill: #f45100; fill-opacity: 0.8; stroke: #f45100; stroke-opacity: 0.8"/>
     <use xlink:href="#me8b63bcb51" x="850.614347" y="212.20202" style="fill: #f45100; fill-opacity: 0.8; stroke: #f45100; stroke-opacity: 0.8"/>
     <use xlink:href="#me8b63bcb51" x="850.614347" y="170.487663" style="fill: #f45100; fill-opacity: 0.8; stroke: #f45100; stroke-opacity: 0.8"/>
     <use xlink:href="#me8b63bcb51" x="850.614347" y="184.146346" style="fill: #f45100; fill-opacity: 0.8; stroke: #f45100; stroke-opacity: 0.8"/>
     <use xlink:href="#me8b63bcb51" x="850.614347" y="236.935312" style="fill: #f45100; fill-opacity: 0.8; stroke: #f45100; stroke-opacity: 0.8"/>
     <use xlink:href="#me8b63bcb51" x="850.614347" y="303.013807" style="fill: #f45100; fill-opacity: 0.8; stroke: #f45100; stroke-opacity: 0.8"/>
     <use xlink:href="#me8b63bcb51" x="1055.557528" y="35.377443" style="fill: #f45100; fill-opacity: 0.8; stroke: #f45100; stroke-opacity: 0.8"/>
     <use xlink:href="#me8b63bcb51" x="850.614347" y="291.570045" style="fill: #f45100; fill-opacity: 0.8; stroke: #f45100; stroke-opacity: 0.8"/>
     <use xlink:href="#me8b63bcb51" x="850.614347" y="204.818948" style="fill: #f45100; fill-opacity: 0.8; stroke: #f45100; stroke-opacity: 0.8"/>
     <use xlink:href="#me8b63bcb51" x="850.614347" y="242.472616" style="fill: #f45100; fill-opacity: 0.8; stroke: #f45100; stroke-opacity: 0.8"/>
    </g>
   </g>
   <g id="line2d_61">
    <path d="M 850.614347 238.375011 
L 852.68448 236.32453 
L 854.754613 234.27405 
L 856.824746 232.223569 
L 858.894879 230.173089 
L 860.965012 228.122608 
L 863.035145 226.072128 
L 865.105279 224.021647 
L 867.175412 221.971167 
L 869.245545 219.920686 
L 871.315678 217.870206 
L 873.385811 215.819725 
L 875.455944 213.769245 
L 877.526078 211.718764 
L 879.596211 209.668284 
L 881.666344 207.617803 
L 883.736477 205.567323 
L 885.80661 203.516842 
L 887.876743 201.466362 
L 889.946876 199.415881 
L 892.01701 197.365401 
L 894.087143 195.314921 
L 896.157276 193.26444 
L 898.227409 191.21396 
L 900.297542 189.163479 
L 902.367675 187.112999 
L 904.437808 185.062518 
L 906.507942 183.012038 
L 908.578075 180.961557 
L 910.648208 178.911077 
L 912.718341 176.860596 
L 914.788474 174.810116 
L 916.858607 172.759635 
L 918.928741 170.709155 
L 920.998874 168.658674 
L 923.069007 166.608194 
L 925.13914 164.557713 
L 927.209273 162.507233 
L 929.279406 160.456752 
L 931.349539 158.406272 
L 933.419673 156.355791 
L 935.489806 154.305311 
L 937.559939 152.25483 
L 939.630072 150.20435 
L 941.700205 148.15387 
L 943.770338 146.103389 
L 945.840471 144.052909 
L 947.910605 142.002428 
L 949.980738 139.951948 
L 952.050871 137.901467 
L 954.121004 135.850987 
L 956.191137 133.800506 
L 958.26127 131.750026 
L 960.331404 129.699545 
L 962.401537 127.649065 
L 964.47167 125.598584 
L 966.541803 123.548104 
L 968.611936 121.497623 
L 970.682069 119.447143 
L 972.752202 117.396662 
L 974.822336 115.346182 
L 976.892469 113.295701 
L 978.962602 111.245221 
L 981.032735 109.19474 
L 983.102868 107.14426 
L 985.173001 105.093779 
L 987.243134 103.043299 
L 989.313268 100.992819 
L 991.383401 98.942338 
L 993.453534 96.891858 
L 995.523667 94.841377 
L 997.5938 92.790897 
L 999.663933 90.740416 
L 1001.734067 88.689936 
L 1003.8042 86.639455 
L 1005.874333 84.588975 
L 1007.944466 82.538494 
L 1010.014599 80.488014 
L 1012.084732 78.437533 
L 1014.154865 76.387053 
L 1016.224999 74.336572 
L 1018.295132 72.286092 
L 1020.365265 70.235611 
L 1022.435398 68.185131 
L 1024.505531 66.13465 
L 1026.575664 64.08417 
L 1028.645797 62.033689 
L 1030.715931 59.983209 
L 1032.786064 57.932728 
L 1034.856197 55.882248 
L 1036.92633 53.831767 
L 1038.996463 51.781287 
L 1041.066596 49.730807 
L 1043.13673 47.680326 
L 1045.206863 45.629846 
L 1047.276996 43.579365 
L 1049.347129 41.528885 
L 1051.417262 39.478404 
L 1053.487395 37.427924 
L 1055.557528 35.377443 
" clip-path="url(#pf8021da65a)" style="fill: none; stroke: #f45100; stroke-width: 2.25; stroke-linecap: round"/>
   </g>
   <g id="patch_18">
    <path d="M 840.367187 316.395625 
L 840.367187 21.995625 
" style="fill: none; stroke: #cccccc; stroke-width: 0.8; stroke-linejoin: miter; stroke-linecap: square"/>
   </g>
   <g id="patch_19">
    <path d="M 1065.804688 316.395625 
L 1065.804688 21.995625 
" style="fill: none; stroke: #cccccc; stroke-width: 0.8; stroke-linejoin: miter; stroke-linecap: square"/>
   </g>
   <g id="patch_20">
    <path d="M 840.367188 316.395625 
L 1065.804688 316.395625 
" style="fill: none; stroke: #cccccc; stroke-width: 0.8; stroke-linejoin: miter; stroke-linecap: square"/>
   </g>
   <g id="patch_21">
    <path d="M 840.367188 21.995625 
L 1065.804688 21.995625 
" style="fill: none; stroke: #cccccc; stroke-width: 0.8; stroke-linejoin: miter; stroke-linecap: square"/>
   </g>
   <g id="text_69">
    <!-- Набір даних IV -->
    <g style="fill: #262626" transform="translate(911.805 15.995625) scale(0.12 -0.12)">
     <defs>
      <path id="ArialMT-56" d="M 1803 0 
L 28 4581 
L 684 4581 
L 1875 1253 
Q 2019 853 2116 503 
Q 2222 878 2363 1253 
L 3600 4581 
L 4219 4581 
L 2425 0 
L 1803 0 
z
" transform="scale(0.015625)"/>
     </defs>
     <use xlink:href="#ArialMT-41d"/>
     <use xlink:href="#ArialMT-430" x="72.216797"/>
     <use xlink:href="#ArialMT-431" x="127.832031"/>
     <use xlink:href="#ArialMT-456" x="185.107422"/>
     <use xlink:href="#ArialMT-440" x="207.324219"/>
     <use xlink:href="#ArialMT-20" x="262.939453"/>
     <use xlink:href="#ArialMT-434" x="290.722656"/>
     <use xlink:href="#ArialMT-430" x="349.072266"/>
     <use xlink:href="#ArialMT-43d" x="404.6875"/>
     <use xlink:href="#ArialMT-438" x="459.912109"/>
     <use xlink:href="#ArialMT-445" x="515.771484"/>
     <use xlink:href="#ArialMT-20" x="565.771484"/>
     <use xlink:href="#ArialMT-49" x="593.554688"/>
     <use xlink:href="#ArialMT-56" x="621.337891"/>
    </g>
   </g>
  </g>
 </g>
 <defs>
  <clipPath id="p1567beb244">
   <rect x="38.467188" y="21.995625" width="225.4375" height="294.4"/>
  </clipPath>
  <clipPath id="pd598a72964">
   <rect x="305.767188" y="21.995625" width="225.4375" height="294.4"/>
  </clipPath>
  <clipPath id="pdb40c7e2a1">
   <rect x="573.067187" y="21.995625" width="225.4375" height="294.4"/>
  </clipPath>
  <clipPath id="pf8021da65a">
   <rect x="840.367187" y="21.995625" width="225.4375" height="294.4"/>
  </clipPath>
 </defs>
</svg>
