<?xml version="1.0" encoding="utf-8" standalone="no"?>
<!DOCTYPE svg PUBLIC "-//W3C//DTD SVG 1.1//EN"
  "http://www.w3.org/Graphics/SVG/1.1/DTD/svg11.dtd">
<svg xmlns:xlink="http://www.w3.org/1999/xlink" width="851.4pt" height="311.2pt" viewBox="0 0 851.4 311.2" xmlns="http://www.w3.org/2000/svg" version="1.1">
 <metadata>
  <rdf:RDF xmlns:dc="http://purl.org/dc/elements/1.1/" xmlns:cc="http://creativecommons.org/ns#" xmlns:rdf="http://www.w3.org/1999/02/22-rdf-syntax-ns#">
   <cc:Work>
    <dc:type rdf:resource="http://purl.org/dc/dcmitype/StillImage"/>
    <dc:date>2024-01-22T18:40:22.938265</dc:date>
    <dc:format>image/svg+xml</dc:format>
    <dc:creator>
     <cc:Agent>
      <dc:title>Matplotlib v3.7.2, https://matplotlib.org/</dc:title>
     </cc:Agent>
    </dc:creator>
   </cc:Work>
  </rdf:RDF>
 </metadata>
 <defs>
  <style type="text/css">*{stroke-linejoin: round; stroke-linecap: butt}</style>
 </defs>
 <g id="figure_1">
  <g id="patch_1">
   <path d="M 0 311.2 
L 851.4 311.2 
L 851.4 0 
L 0 0 
z
" style="fill: #ffffff"/>
  </g>
  <g id="axes_1">
   <g id="matplotlib.axis_1">
    <g id="xtick_1"/>
    <g id="xtick_2"/>
    <g id="xtick_3"/>
    <g id="xtick_4"/>
    <g id="xtick_5"/>
    <g id="xtick_6"/>
    <g id="xtick_7"/>
    <g id="xtick_8"/>
    <g id="xtick_9"/>
    <g id="text_1">
     <!-- $\beta$ -->
     <g style="fill: #262626" transform="translate(226.79 299.8) scale(0.2 -0.2)">
      <defs>
       <path id="DejaVuSans-Oblique-3b2" d="M 872 216 
L 572 -1331 
L -6 -1331 
L 928 3478 
Q 1206 4903 2538 4903 
Q 3888 4903 3659 3700 
Q 3503 2844 2894 2531 
Q 3713 2250 3553 1416 
Q 3272 -69 1759 -66 
Q 1097 -63 872 216 
z
M 1019 966 
Q 1259 422 1875 425 
Q 2775 425 2966 1406 
Q 3138 2288 1675 2219 
L 1778 2750 
Q 2909 2731 3106 3750 
Q 3241 4438 2509 4434 
Q 1691 4434 1503 3459 
L 1019 966 
z
" transform="scale(0.015625)"/>
      </defs>
      <use xlink:href="#DejaVuSans-Oblique-3b2" transform="translate(0 0.390625)"/>
     </g>
    </g>
   </g>
   <g id="matplotlib.axis_2">
    <g id="ytick_1"/>
    <g id="ytick_2"/>
    <g id="ytick_3"/>
    <g id="ytick_4"/>
    <g id="ytick_5"/>
    <g id="ytick_6"/>
    <g id="ytick_7"/>
    <g id="ytick_8"/>
    <g id="ytick_9"/>
   </g>
   <g id="PolyCollection_1">
    <defs>
     <path id="m7f04f33de1" d="M 45.245455 -39.4 
L 45.245455 -39.484537 
L 46.196591 -39.487982 
L 47.147727 -39.491559 
L 48.098864 -39.495272 
L 49.05 -39.499125 
L 50.001136 -39.503124 
L 50.952273 -39.507274 
L 51.903409 -39.511579 
L 52.854545 -39.516046 
L 53.805682 -39.520679 
L 54.756818 -39.525485 
L 55.707955 -39.530469 
L 56.659091 -39.535637 
L 57.610227 -39.540996 
L 58.561364 -39.546553 
L 59.5125 -39.552313 
L 60.463636 -39.558283 
L 61.414773 -39.564471 
L 62.365909 -39.570884 
L 63.317045 -39.577529 
L 64.268182 -39.584414 
L 65.219318 -39.591547 
L 66.170455 -39.598936 
L 67.121591 -39.60659 
L 68.072727 -39.614516 
L 69.023864 -39.622724 
L 69.975 -39.631223 
L 70.926136 -39.640023 
L 71.877273 -39.649132 
L 72.828409 -39.658562 
L 73.779545 -39.668321 
L 74.730682 -39.678421 
L 75.681818 -39.688872 
L 76.632955 -39.699686 
L 77.584091 -39.710873 
L 78.535227 -39.722446 
L 79.486364 -39.734416 
L 80.4375 -39.746795 
L 81.388636 -39.759597 
L 82.339773 -39.772834 
L 83.290909 -39.78652 
L 84.242045 -39.800668 
L 85.193182 -39.815293 
L 86.144318 -39.830408 
L 87.095455 -39.846029 
L 88.046591 -39.862171 
L 88.997727 -39.878849 
L 89.948864 -39.896079 
L 90.9 -39.913877 
L 91.851136 -39.932261 
L 92.802273 -39.951248 
L 93.753409 -39.970855 
L 94.704545 -39.9911 
L 95.655682 -40.012001 
L 96.606818 -40.033579 
L 97.557955 -40.055851 
L 98.509091 -40.078839 
L 99.460227 -40.102563 
L 100.411364 -40.127042 
L 101.3625 -40.152299 
L 102.313636 -40.178356 
L 103.264773 -40.205235 
L 104.215909 -40.232959 
L 105.167045 -40.261551 
L 106.118182 -40.291036 
L 107.069318 -40.321437 
L 108.020455 -40.35278 
L 108.971591 -40.385091 
L 109.922727 -40.418396 
L 110.873864 -40.452722 
L 111.825 -40.488096 
L 112.776136 -40.524546 
L 113.727273 -40.5621 
L 114.678409 -40.600789 
L 115.629545 -40.640642 
L 116.580682 -40.681689 
L 117.531818 -40.723962 
L 118.482955 -40.767493 
L 119.434091 -40.812313 
L 120.385227 -40.858457 
L 121.336364 -40.905958 
L 122.2875 -40.95485 
L 123.238636 -41.005169 
L 124.189773 -41.056951 
L 125.140909 -41.110232 
L 126.092045 -41.16505 
L 127.043182 -41.221443 
L 127.994318 -41.27945 
L 128.945455 -41.33911 
L 129.896591 -41.400464 
L 130.847727 -41.463553 
L 131.798864 -41.528418 
L 132.75 -41.595103 
L 133.701136 -41.663651 
L 134.652273 -41.734106 
L 135.603409 -41.806514 
L 136.554545 -41.880919 
L 137.505682 -41.957369 
L 138.456818 -42.035912 
L 139.407955 -42.116595 
L 140.359091 -42.199467 
L 141.310227 -42.284579 
L 142.261364 -42.371982 
L 143.2125 -42.461727 
L 144.163636 -42.553866 
L 145.114773 -42.648454 
L 146.065909 -42.745543 
L 147.017045 -42.84519 
L 147.968182 -42.94745 
L 148.919318 -43.05238 
L 149.870455 -43.160038 
L 150.821591 -43.270482 
L 151.772727 -43.383772 
L 152.723864 -43.499968 
L 153.675 -43.619131 
L 154.626136 -43.741323 
L 155.577273 -43.866607 
L 156.528409 -43.995047 
L 157.479545 -44.126709 
L 158.430682 -44.261656 
L 159.381818 -44.399956 
L 160.332955 -44.541676 
L 161.284091 -44.686884 
L 162.235227 -44.83565 
L 163.186364 -44.988043 
L 164.1375 -45.144134 
L 165.088636 -45.303994 
L 166.039773 -45.467697 
L 166.990909 -45.635315 
L 167.942045 -45.806923 
L 168.893182 -45.982595 
L 169.844318 -46.162408 
L 170.795455 -46.346439 
L 171.746591 -46.534763 
L 172.697727 -46.727461 
L 173.648864 -46.924611 
L 174.6 -47.126292 
L 175.551136 -47.332586 
L 176.502273 -47.543573 
L 177.453409 -47.759337 
L 178.404545 -47.979959 
L 179.355682 -48.205523 
L 180.306818 -48.436113 
L 181.257955 -48.671814 
L 182.209091 -48.912713 
L 183.160227 -49.158894 
L 184.111364 -49.410445 
L 185.0625 -49.667454 
L 186.013636 -49.930008 
L 186.964773 -50.198196 
L 187.915909 -50.472107 
L 188.867045 -50.751831 
L 189.818182 -51.037459 
L 190.769318 -51.32908 
L 191.720455 -51.626786 
L 192.671591 -51.930668 
L 193.622727 -52.240819 
L 194.573864 -52.557331 
L 195.525 -52.880296 
L 196.476136 -53.209808 
L 197.427273 -53.54596 
L 198.378409 -53.888846 
L 199.329545 -54.238558 
L 200.280682 -54.595192 
L 201.231818 -54.958842 
L 202.182955 -55.329601 
L 203.134091 -55.707565 
L 204.085227 -56.092827 
L 205.036364 -56.485482 
L 205.9875 -56.885625 
L 206.938636 -57.293349 
L 207.889773 -57.70875 
L 208.840909 -58.131921 
L 209.792045 -58.562957 
L 210.743182 -59.001951 
L 211.694318 -59.448996 
L 212.645455 -59.904187 
L 213.596591 -60.367615 
L 214.547727 -60.839373 
L 215.498864 -61.319553 
L 216.45 -61.808248 
L 217.401136 -62.305547 
L 218.352273 -62.811541 
L 219.303409 -63.32632 
L 220.254545 -63.849972 
L 221.205682 -64.382588 
L 222.156818 -64.924253 
L 223.107955 -65.475054 
L 224.059091 -66.035078 
L 225.010227 -66.60441 
L 225.961364 -67.183132 
L 226.9125 -67.771329 
L 227.863636 -68.369081 
L 228.814773 -68.976469 
L 229.765909 -69.593573 
L 230.717045 -70.22047 
L 231.668182 -70.857238 
L 232.619318 -71.50395 
L 233.570455 -72.160682 
L 234.521591 -72.827506 
L 235.472727 -73.504491 
L 236.423864 -74.191708 
L 237.375 -74.889224 
L 238.326136 -75.597103 
L 239.277273 -76.31541 
L 240.228409 -77.044207 
L 241.179545 -77.783554 
L 242.130682 -78.533508 
L 243.081818 -79.294126 
L 244.032955 -80.06546 
L 244.984091 -80.847563 
L 245.935227 -81.640484 
L 246.886364 -82.444269 
L 247.8375 -83.258962 
L 248.788636 -84.084607 
L 249.739773 -84.921243 
L 250.690909 -85.768905 
L 251.642045 -86.627629 
L 252.593182 -87.497446 
L 253.544318 -88.378385 
L 254.495455 -89.270472 
L 255.446591 -90.17373 
L 256.397727 -91.088178 
L 257.348864 -92.013834 
L 258.3 -92.950712 
L 259.251136 -93.898822 
L 260.202273 -94.858172 
L 261.153409 -95.828767 
L 262.104545 -96.810608 
L 263.055682 -97.803691 
L 264.006818 -98.808011 
L 264.957955 -99.82356 
L 265.909091 -100.850323 
L 266.860227 -101.888284 
L 267.811364 -102.937424 
L 268.7625 -103.997718 
L 269.713636 -105.069139 
L 270.664773 -106.151655 
L 271.615909 -107.24523 
L 272.567045 -108.349826 
L 273.518182 -109.4654 
L 274.469318 -110.591903 
L 275.420455 -111.729284 
L 276.371591 -112.877489 
L 277.322727 -114.036457 
L 278.273864 -115.206124 
L 279.225 -116.386423 
L 280.176136 -117.577282 
L 281.127273 -118.778622 
L 282.078409 -119.990364 
L 283.029545 -121.212422 
L 283.980682 -122.444706 
L 284.931818 -123.687122 
L 285.882955 -124.939571 
L 286.834091 -126.20195 
L 287.785227 -127.474151 
L 288.736364 -128.756062 
L 289.6875 -130.047566 
L 290.638636 -131.348541 
L 291.589773 -132.658862 
L 292.540909 -133.978397 
L 293.492045 -135.307011 
L 294.443182 -136.644564 
L 295.394318 -137.990912 
L 296.345455 -139.345905 
L 297.296591 -140.709389 
L 298.247727 -142.081205 
L 299.198864 -143.46119 
L 300.15 -144.849175 
L 301.101136 -146.244989 
L 302.052273 -147.648454 
L 303.003409 -149.059388 
L 303.954545 -150.477603 
L 304.905682 -151.90291 
L 305.856818 -153.335111 
L 306.807955 -154.774007 
L 307.759091 -156.219392 
L 308.710227 -157.671057 
L 309.661364 -159.128788 
L 310.6125 -160.592366 
L 311.563636 -162.061569 
L 312.514773 -163.536167 
L 313.465909 -165.015931 
L 314.417045 -166.500624 
L 315.368182 -167.990005 
L 316.319318 -169.48383 
L 317.270455 -170.981849 
L 318.221591 -172.483811 
L 319.172727 -173.989457 
L 320.123864 -175.498527 
L 321.075 -177.010756 
L 322.026136 -178.525873 
L 322.977273 -180.043608 
L 323.928409 -181.563683 
L 324.879545 -183.085817 
L 325.830682 -184.609727 
L 326.781818 -186.135125 
L 327.732955 -187.66172 
L 328.684091 -189.189217 
L 329.635227 -190.71732 
L 330.586364 -192.245726 
L 331.5375 -193.774132 
L 332.488636 -195.302231 
L 333.439773 -196.829712 
L 334.390909 -198.356263 
L 335.342045 -199.881567 
L 336.293182 -201.405306 
L 337.244318 -202.927159 
L 338.195455 -204.446803 
L 339.146591 -205.963911 
L 340.097727 -207.478156 
L 341.048864 -208.989208 
L 342 -210.496733 
L 342.951136 -212.000399 
L 343.902273 -213.499868 
L 344.853409 -214.994803 
L 345.804545 -216.484866 
L 346.755682 -217.969715 
L 347.706818 -219.449009 
L 348.657955 -220.922405 
L 349.609091 -222.389557 
L 350.560227 -223.850122 
L 351.511364 -225.303754 
L 352.4625 -226.750105 
L 353.413636 -228.18883 
L 354.364773 -229.61958 
L 355.315909 -231.042008 
L 356.267045 -232.455765 
L 357.218182 -233.860506 
L 358.169318 -235.255881 
L 359.120455 -236.641544 
L 360.071591 -238.017147 
L 361.022727 -239.382345 
L 361.973864 -240.736792 
L 362.925 -242.080143 
L 363.876136 -243.412055 
L 364.827273 -244.732186 
L 365.778409 -246.040194 
L 366.729545 -247.33574 
L 367.680682 -248.618485 
L 368.631818 -249.888093 
L 369.582955 -251.144231 
L 370.534091 -252.386565 
L 371.485227 -253.614765 
L 372.436364 -254.828504 
L 373.3875 -256.027456 
L 374.338636 -257.211299 
L 375.289773 -258.379712 
L 376.240909 -259.532379 
L 377.192045 -260.668985 
L 378.143182 -261.789219 
L 379.094318 -262.892775 
L 380.045455 -263.979348 
L 380.996591 -265.048637 
L 381.947727 -266.100347 
L 382.898864 -267.134184 
L 383.85 -268.149859 
L 384.801136 -269.147088 
L 385.752273 -270.125591 
L 386.703409 -271.085092 
L 387.654545 -272.025319 
L 388.605682 -272.946006 
L 389.556818 -273.846892 
L 390.507955 -274.727718 
L 391.459091 -275.588234 
L 392.410227 -276.428192 
L 393.361364 -277.247351 
L 394.3125 -278.045476 
L 395.263636 -278.822336 
L 396.214773 -279.577705 
L 397.165909 -280.311365 
L 398.117045 -281.023103 
L 399.068182 -281.712711 
L 400.019318 -282.379988 
L 400.970455 -283.024739 
L 401.921591 -283.646775 
L 402.872727 -284.245913 
L 403.823864 -284.821978 
L 404.775 -285.374799 
L 405.726136 -285.904214 
L 406.677273 -286.410066 
L 407.628409 -286.892205 
L 408.579545 -287.35049 
L 409.530682 -287.784783 
L 410.481818 -288.194956 
L 411.432955 -288.580887 
L 412.384091 -288.942462 
L 413.335227 -289.279571 
L 414.286364 -289.592116 
L 415.2375 -289.880003 
L 416.188636 -290.143145 
L 417.139773 -290.381464 
L 418.090909 -290.594889 
L 419.042045 -290.783356 
L 419.993182 -290.946808 
L 420.944318 -291.085197 
L 421.895455 -291.198481 
L 422.846591 -291.286626 
L 423.797727 -291.349605 
L 424.748864 -291.3874 
L 425.7 -291.4 
L 426.651136 -291.3874 
L 427.602273 -291.349605 
L 428.553409 -291.286626 
L 429.504545 -291.198481 
L 430.455682 -291.085197 
L 431.406818 -290.946808 
L 432.357955 -290.783356 
L 433.309091 -290.594889 
L 434.260227 -290.381464 
L 435.211364 -290.143145 
L 436.1625 -289.880003 
L 437.113636 -289.592116 
L 438.064773 -289.279571 
L 439.015909 -288.942462 
L 439.967045 -288.580887 
L 440.918182 -288.194956 
L 441.869318 -287.784783 
L 442.820455 -287.35049 
L 443.771591 -286.892205 
L 444.722727 -286.410066 
L 445.673864 -285.904214 
L 446.625 -285.374799 
L 447.576136 -284.821978 
L 448.527273 -284.245913 
L 449.478409 -283.646775 
L 450.429545 -283.024739 
L 451.380682 -282.379988 
L 452.331818 -281.712711 
L 453.282955 -281.023103 
L 454.234091 -280.311365 
L 455.185227 -279.577705 
L 456.136364 -278.822336 
L 457.0875 -278.045476 
L 458.038636 -277.247351 
L 458.989773 -276.428192 
L 459.940909 -275.588234 
L 460.892045 -274.727718 
L 461.843182 -273.846892 
L 462.794318 -272.946006 
L 463.745455 -272.025319 
L 464.696591 -271.085092 
L 465.647727 -270.125591 
L 466.598864 -269.147088 
L 467.55 -268.149859 
L 468.501136 -267.134184 
L 469.452273 -266.100347 
L 470.403409 -265.048637 
L 471.354545 -263.979348 
L 472.305682 -262.892775 
L 473.256818 -261.789219 
L 474.207955 -260.668985 
L 475.159091 -259.532379 
L 476.110227 -258.379712 
L 477.061364 -257.211299 
L 478.0125 -256.027456 
L 478.963636 -254.828504 
L 479.914773 -253.614765 
L 480.865909 -252.386565 
L 481.817045 -251.144231 
L 482.768182 -249.888093 
L 483.719318 -248.618485 
L 484.670455 -247.33574 
L 485.621591 -246.040194 
L 486.572727 -244.732186 
L 487.523864 -243.412055 
L 488.475 -242.080143 
L 489.426136 -240.736792 
L 490.377273 -239.382345 
L 491.328409 -238.017147 
L 492.279545 -236.641544 
L 493.230682 -235.255881 
L 494.181818 -233.860506 
L 495.132955 -232.455765 
L 496.084091 -231.042008 
L 497.035227 -229.61958 
L 497.986364 -228.18883 
L 498.9375 -226.750105 
L 499.888636 -225.303754 
L 500.839773 -223.850122 
L 501.790909 -222.389557 
L 502.742045 -220.922405 
L 503.693182 -219.449009 
L 504.644318 -217.969715 
L 505.595455 -216.484866 
L 506.546591 -214.994803 
L 507.497727 -213.499868 
L 508.448864 -212.000399 
L 509.4 -210.496733 
L 510.351136 -208.989208 
L 511.302273 -207.478156 
L 512.253409 -205.963911 
L 513.204545 -204.446803 
L 514.155682 -202.927159 
L 515.106818 -201.405306 
L 516.057955 -199.881567 
L 517.009091 -198.356263 
L 517.960227 -196.829712 
L 518.911364 -195.302231 
L 519.8625 -193.774132 
L 520.813636 -192.245726 
L 521.764773 -190.71732 
L 522.715909 -189.189217 
L 523.667045 -187.66172 
L 524.618182 -186.135125 
L 525.569318 -184.609727 
L 526.520455 -183.085817 
L 527.471591 -181.563683 
L 528.422727 -180.043608 
L 529.373864 -178.525873 
L 530.325 -177.010756 
L 531.276136 -175.498527 
L 532.227273 -173.989457 
L 533.178409 -172.483811 
L 534.129545 -170.981849 
L 535.080682 -169.48383 
L 536.031818 -167.990005 
L 536.982955 -166.500624 
L 537.934091 -165.015931 
L 538.885227 -163.536167 
L 539.836364 -162.061569 
L 540.7875 -160.592366 
L 541.738636 -159.128788 
L 542.689773 -157.671057 
L 543.640909 -156.219392 
L 544.592045 -154.774007 
L 545.543182 -153.335111 
L 546.494318 -151.90291 
L 547.445455 -150.477603 
L 548.396591 -149.059388 
L 549.347727 -147.648454 
L 550.298864 -146.244989 
L 551.25 -144.849175 
L 552.201136 -143.46119 
L 553.152273 -142.081205 
L 554.103409 -140.709389 
L 555.054545 -139.345905 
L 556.005682 -137.990912 
L 556.956818 -136.644564 
L 557.907955 -135.307011 
L 558.859091 -133.978397 
L 559.810227 -132.658862 
L 560.761364 -131.348541 
L 561.7125 -130.047566 
L 562.663636 -128.756062 
L 563.614773 -127.474151 
L 564.565909 -126.20195 
L 565.517045 -124.939571 
L 566.468182 -123.687122 
L 567.419318 -122.444706 
L 568.370455 -121.212422 
L 569.321591 -119.990364 
L 570.272727 -118.778622 
L 571.223864 -117.577282 
L 572.175 -116.386423 
L 573.126136 -115.206124 
L 574.077273 -114.036457 
L 575.028409 -112.877489 
L 575.979545 -111.729284 
L 576.930682 -110.591903 
L 577.881818 -109.4654 
L 578.832955 -108.349826 
L 579.784091 -107.24523 
L 580.735227 -106.151655 
L 581.686364 -105.069139 
L 582.6375 -103.997718 
L 583.588636 -102.937424 
L 584.539773 -101.888284 
L 585.490909 -100.850323 
L 586.442045 -99.82356 
L 587.393182 -98.808011 
L 588.344318 -97.803691 
L 589.295455 -96.810608 
L 590.246591 -95.828767 
L 591.197727 -94.858172 
L 592.148864 -93.898822 
L 593.1 -92.950712 
L 594.051136 -92.013834 
L 595.002273 -91.088178 
L 595.953409 -90.17373 
L 596.904545 -89.270472 
L 597.855682 -88.378385 
L 598.806818 -87.497446 
L 599.757955 -86.627629 
L 600.709091 -85.768905 
L 601.660227 -84.921243 
L 602.611364 -84.084607 
L 603.5625 -83.258962 
L 604.513636 -82.444269 
L 605.464773 -81.640484 
L 606.415909 -80.847563 
L 607.367045 -80.06546 
L 608.318182 -79.294126 
L 609.269318 -78.533508 
L 610.220455 -77.783554 
L 611.171591 -77.044207 
L 612.122727 -76.31541 
L 613.073864 -75.597103 
L 614.025 -74.889224 
L 614.976136 -74.191708 
L 615.927273 -73.504491 
L 616.878409 -72.827506 
L 617.829545 -72.160682 
L 618.780682 -71.50395 
L 619.731818 -70.857238 
L 620.682955 -70.22047 
L 621.634091 -69.593573 
L 622.585227 -68.976469 
L 623.536364 -68.369081 
L 624.4875 -67.771329 
L 625.438636 -67.183132 
L 626.389773 -66.60441 
L 627.340909 -66.035078 
L 628.292045 -65.475054 
L 629.243182 -64.924253 
L 630.194318 -64.382588 
L 631.145455 -63.849972 
L 632.096591 -63.32632 
L 633.047727 -62.811541 
L 633.998864 -62.305547 
L 634.95 -61.808248 
L 635.901136 -61.319553 
L 636.852273 -60.839373 
L 637.803409 -60.367615 
L 638.754545 -59.904187 
L 639.705682 -59.448996 
L 640.656818 -59.001951 
L 641.607955 -58.562957 
L 642.559091 -58.131921 
L 643.510227 -57.70875 
L 644.461364 -57.293349 
L 645.4125 -56.885625 
L 646.363636 -56.485482 
L 647.314773 -56.092827 
L 648.265909 -55.707565 
L 649.217045 -55.329601 
L 650.168182 -54.958842 
L 651.119318 -54.595192 
L 652.070455 -54.238558 
L 653.021591 -53.888846 
L 653.972727 -53.54596 
L 654.923864 -53.209808 
L 655.875 -52.880296 
L 656.826136 -52.557331 
L 657.777273 -52.240819 
L 658.728409 -51.930668 
L 659.679545 -51.626786 
L 660.630682 -51.32908 
L 661.581818 -51.037459 
L 662.532955 -50.751831 
L 663.484091 -50.472107 
L 664.435227 -50.198196 
L 665.386364 -49.930008 
L 666.3375 -49.667454 
L 667.288636 -49.410445 
L 668.239773 -49.158894 
L 669.190909 -48.912713 
L 670.142045 -48.671814 
L 671.093182 -48.436113 
L 672.044318 -48.205523 
L 672.995455 -47.979959 
L 673.946591 -47.759337 
L 674.897727 -47.543573 
L 675.848864 -47.332586 
L 676.8 -47.126292 
L 677.751136 -46.924611 
L 678.702273 -46.727461 
L 679.653409 -46.534763 
L 680.604545 -46.346439 
L 681.555682 -46.162408 
L 682.506818 -45.982595 
L 683.457955 -45.806923 
L 684.409091 -45.635315 
L 685.360227 -45.467697 
L 686.311364 -45.303994 
L 687.2625 -45.144134 
L 688.213636 -44.988043 
L 689.164773 -44.83565 
L 690.115909 -44.686884 
L 691.067045 -44.541676 
L 692.018182 -44.399956 
L 692.969318 -44.261656 
L 693.920455 -44.126709 
L 694.871591 -43.995047 
L 695.822727 -43.866607 
L 696.773864 -43.741323 
L 697.725 -43.619131 
L 698.676136 -43.499968 
L 699.627273 -43.383772 
L 700.578409 -43.270482 
L 701.529545 -43.160038 
L 702.480682 -43.05238 
L 703.431818 -42.94745 
L 704.382955 -42.84519 
L 705.334091 -42.745543 
L 706.285227 -42.648454 
L 707.236364 -42.553866 
L 708.1875 -42.461727 
L 709.138636 -42.371982 
L 710.089773 -42.284579 
L 711.040909 -42.199467 
L 711.992045 -42.116595 
L 712.943182 -42.035912 
L 713.894318 -41.957369 
L 714.845455 -41.880919 
L 715.796591 -41.806514 
L 716.747727 -41.734106 
L 717.698864 -41.663651 
L 718.65 -41.595103 
L 719.601136 -41.528418 
L 720.552273 -41.463553 
L 721.503409 -41.400464 
L 722.454545 -41.33911 
L 723.405682 -41.27945 
L 724.356818 -41.221443 
L 725.307955 -41.16505 
L 726.259091 -41.110232 
L 727.210227 -41.056951 
L 728.161364 -41.005169 
L 729.1125 -40.95485 
L 730.063636 -40.905958 
L 731.014773 -40.858457 
L 731.965909 -40.812313 
L 732.917045 -40.767493 
L 733.868182 -40.723962 
L 734.819318 -40.681689 
L 735.770455 -40.640642 
L 736.721591 -40.600789 
L 737.672727 -40.5621 
L 738.623864 -40.524546 
L 739.575 -40.488096 
L 740.526136 -40.452722 
L 741.477273 -40.418396 
L 742.428409 -40.385091 
L 743.379545 -40.35278 
L 744.330682 -40.321437 
L 745.281818 -40.291036 
L 746.232955 -40.261551 
L 747.184091 -40.232959 
L 748.135227 -40.205235 
L 749.086364 -40.178356 
L 750.0375 -40.152299 
L 750.988636 -40.127042 
L 751.939773 -40.102563 
L 752.890909 -40.078839 
L 753.842045 -40.055851 
L 754.793182 -40.033579 
L 755.744318 -40.012001 
L 756.695455 -39.9911 
L 757.646591 -39.970855 
L 758.597727 -39.951248 
L 759.548864 -39.932261 
L 760.5 -39.913877 
L 761.451136 -39.896079 
L 762.402273 -39.878849 
L 763.353409 -39.862171 
L 764.304545 -39.846029 
L 765.255682 -39.830408 
L 766.206818 -39.815293 
L 767.157955 -39.800668 
L 768.109091 -39.78652 
L 769.060227 -39.772834 
L 770.011364 -39.759597 
L 770.9625 -39.746795 
L 771.913636 -39.734416 
L 772.864773 -39.722446 
L 773.815909 -39.710873 
L 774.767045 -39.699686 
L 775.718182 -39.688872 
L 776.669318 -39.678421 
L 777.620455 -39.668321 
L 778.571591 -39.658562 
L 779.522727 -39.649132 
L 780.473864 -39.640023 
L 781.425 -39.631223 
L 782.376136 -39.622724 
L 783.327273 -39.614516 
L 784.278409 -39.60659 
L 785.229545 -39.598936 
L 786.180682 -39.591547 
L 787.131818 -39.584414 
L 788.082955 -39.577529 
L 789.034091 -39.570884 
L 789.985227 -39.564471 
L 790.936364 -39.558283 
L 791.8875 -39.552313 
L 792.838636 -39.546553 
L 793.789773 -39.540996 
L 794.740909 -39.535637 
L 795.692045 -39.530469 
L 796.643182 -39.525485 
L 797.594318 -39.520679 
L 798.545455 -39.516046 
L 799.496591 -39.511579 
L 800.447727 -39.507274 
L 801.398864 -39.503124 
L 802.35 -39.499125 
L 803.301136 -39.495272 
L 804.252273 -39.491559 
L 805.203409 -39.487982 
L 806.154545 -39.484537 
L 806.154545 -39.4 
L 806.154545 -39.4 
L 805.203409 -39.4 
L 804.252273 -39.4 
L 803.301136 -39.4 
L 802.35 -39.4 
L 801.398864 -39.4 
L 800.447727 -39.4 
L 799.496591 -39.4 
L 798.545455 -39.4 
L 797.594318 -39.4 
L 796.643182 -39.4 
L 795.692045 -39.4 
L 794.740909 -39.4 
L 793.789773 -39.4 
L 792.838636 -39.4 
L 791.8875 -39.4 
L 790.936364 -39.4 
L 789.985227 -39.4 
L 789.034091 -39.4 
L 788.082955 -39.4 
L 787.131818 -39.4 
L 786.180682 -39.4 
L 785.229545 -39.4 
L 784.278409 -39.4 
L 783.327273 -39.4 
L 782.376136 -39.4 
L 781.425 -39.4 
L 780.473864 -39.4 
L 779.522727 -39.4 
L 778.571591 -39.4 
L 777.620455 -39.4 
L 776.669318 -39.4 
L 775.718182 -39.4 
L 774.767045 -39.4 
L 773.815909 -39.4 
L 772.864773 -39.4 
L 771.913636 -39.4 
L 770.9625 -39.4 
L 770.011364 -39.4 
L 769.060227 -39.4 
L 768.109091 -39.4 
L 767.157955 -39.4 
L 766.206818 -39.4 
L 765.255682 -39.4 
L 764.304545 -39.4 
L 763.353409 -39.4 
L 762.402273 -39.4 
L 761.451136 -39.4 
L 760.5 -39.4 
L 759.548864 -39.4 
L 758.597727 -39.4 
L 757.646591 -39.4 
L 756.695455 -39.4 
L 755.744318 -39.4 
L 754.793182 -39.4 
L 753.842045 -39.4 
L 752.890909 -39.4 
L 751.939773 -39.4 
L 750.988636 -39.4 
L 750.0375 -39.4 
L 749.086364 -39.4 
L 748.135227 -39.4 
L 747.184091 -39.4 
L 746.232955 -39.4 
L 745.281818 -39.4 
L 744.330682 -39.4 
L 743.379545 -39.4 
L 742.428409 -39.4 
L 741.477273 -39.4 
L 740.526136 -39.4 
L 739.575 -39.4 
L 738.623864 -39.4 
L 737.672727 -39.4 
L 736.721591 -39.4 
L 735.770455 -39.4 
L 734.819318 -39.4 
L 733.868182 -39.4 
L 732.917045 -39.4 
L 731.965909 -39.4 
L 731.014773 -39.4 
L 730.063636 -39.4 
L 729.1125 -39.4 
L 728.161364 -39.4 
L 727.210227 -39.4 
L 726.259091 -39.4 
L 725.307955 -39.4 
L 724.356818 -39.4 
L 723.405682 -39.4 
L 722.454545 -39.4 
L 721.503409 -39.4 
L 720.552273 -39.4 
L 719.601136 -39.4 
L 718.65 -39.4 
L 717.698864 -39.4 
L 716.747727 -39.4 
L 715.796591 -39.4 
L 714.845455 -39.4 
L 713.894318 -39.4 
L 712.943182 -39.4 
L 711.992045 -39.4 
L 711.040909 -39.4 
L 710.089773 -39.4 
L 709.138636 -39.4 
L 708.1875 -39.4 
L 707.236364 -39.4 
L 706.285227 -39.4 
L 705.334091 -39.4 
L 704.382955 -39.4 
L 703.431818 -39.4 
L 702.480682 -39.4 
L 701.529545 -39.4 
L 700.578409 -39.4 
L 699.627273 -39.4 
L 698.676136 -39.4 
L 697.725 -39.4 
L 696.773864 -39.4 
L 695.822727 -39.4 
L 694.871591 -39.4 
L 693.920455 -39.4 
L 692.969318 -39.4 
L 692.018182 -39.4 
L 691.067045 -39.4 
L 690.115909 -39.4 
L 689.164773 -39.4 
L 688.213636 -39.4 
L 687.2625 -39.4 
L 686.311364 -39.4 
L 685.360227 -39.4 
L 684.409091 -39.4 
L 683.457955 -39.4 
L 682.506818 -39.4 
L 681.555682 -39.4 
L 680.604545 -39.4 
L 679.653409 -39.4 
L 678.702273 -39.4 
L 677.751136 -39.4 
L 676.8 -39.4 
L 675.848864 -39.4 
L 674.897727 -39.4 
L 673.946591 -39.4 
L 672.995455 -39.4 
L 672.044318 -39.4 
L 671.093182 -39.4 
L 670.142045 -39.4 
L 669.190909 -39.4 
L 668.239773 -39.4 
L 667.288636 -39.4 
L 666.3375 -39.4 
L 665.386364 -39.4 
L 664.435227 -39.4 
L 663.484091 -39.4 
L 662.532955 -39.4 
L 661.581818 -39.4 
L 660.630682 -39.4 
L 659.679545 -39.4 
L 658.728409 -39.4 
L 657.777273 -39.4 
L 656.826136 -39.4 
L 655.875 -39.4 
L 654.923864 -39.4 
L 653.972727 -39.4 
L 653.021591 -39.4 
L 652.070455 -39.4 
L 651.119318 -39.4 
L 650.168182 -39.4 
L 649.217045 -39.4 
L 648.265909 -39.4 
L 647.314773 -39.4 
L 646.363636 -39.4 
L 645.4125 -39.4 
L 644.461364 -39.4 
L 643.510227 -39.4 
L 642.559091 -39.4 
L 641.607955 -39.4 
L 640.656818 -39.4 
L 639.705682 -39.4 
L 638.754545 -39.4 
L 637.803409 -39.4 
L 636.852273 -39.4 
L 635.901136 -39.4 
L 634.95 -39.4 
L 633.998864 -39.4 
L 633.047727 -39.4 
L 632.096591 -39.4 
L 631.145455 -39.4 
L 630.194318 -39.4 
L 629.243182 -39.4 
L 628.292045 -39.4 
L 627.340909 -39.4 
L 626.389773 -39.4 
L 625.438636 -39.4 
L 624.4875 -39.4 
L 623.536364 -39.4 
L 622.585227 -39.4 
L 621.634091 -39.4 
L 620.682955 -39.4 
L 619.731818 -39.4 
L 618.780682 -39.4 
L 617.829545 -39.4 
L 616.878409 -39.4 
L 615.927273 -39.4 
L 614.976136 -39.4 
L 614.025 -39.4 
L 613.073864 -39.4 
L 612.122727 -39.4 
L 611.171591 -39.4 
L 610.220455 -39.4 
L 609.269318 -39.4 
L 608.318182 -39.4 
L 607.367045 -39.4 
L 606.415909 -39.4 
L 605.464773 -39.4 
L 604.513636 -39.4 
L 603.5625 -39.4 
L 602.611364 -39.4 
L 601.660227 -39.4 
L 600.709091 -39.4 
L 599.757955 -39.4 
L 598.806818 -39.4 
L 597.855682 -39.4 
L 596.904545 -39.4 
L 595.953409 -39.4 
L 595.002273 -39.4 
L 594.051136 -39.4 
L 593.1 -39.4 
L 592.148864 -39.4 
L 591.197727 -39.4 
L 590.246591 -39.4 
L 589.295455 -39.4 
L 588.344318 -39.4 
L 587.393182 -39.4 
L 586.442045 -39.4 
L 585.490909 -39.4 
L 584.539773 -39.4 
L 583.588636 -39.4 
L 582.6375 -39.4 
L 581.686364 -39.4 
L 580.735227 -39.4 
L 579.784091 -39.4 
L 578.832955 -39.4 
L 577.881818 -39.4 
L 576.930682 -39.4 
L 575.979545 -39.4 
L 575.028409 -39.4 
L 574.077273 -39.4 
L 573.126136 -39.4 
L 572.175 -39.4 
L 571.223864 -39.4 
L 570.272727 -39.4 
L 569.321591 -39.4 
L 568.370455 -39.4 
L 567.419318 -39.4 
L 566.468182 -39.4 
L 565.517045 -39.4 
L 564.565909 -39.4 
L 563.614773 -39.4 
L 562.663636 -39.4 
L 561.7125 -39.4 
L 560.761364 -39.4 
L 559.810227 -39.4 
L 558.859091 -39.4 
L 557.907955 -39.4 
L 556.956818 -39.4 
L 556.005682 -39.4 
L 555.054545 -39.4 
L 554.103409 -39.4 
L 553.152273 -39.4 
L 552.201136 -39.4 
L 551.25 -39.4 
L 550.298864 -39.4 
L 549.347727 -39.4 
L 548.396591 -39.4 
L 547.445455 -39.4 
L 546.494318 -39.4 
L 545.543182 -39.4 
L 544.592045 -39.4 
L 543.640909 -39.4 
L 542.689773 -39.4 
L 541.738636 -39.4 
L 540.7875 -39.4 
L 539.836364 -39.4 
L 538.885227 -39.4 
L 537.934091 -39.4 
L 536.982955 -39.4 
L 536.031818 -39.4 
L 535.080682 -39.4 
L 534.129545 -39.4 
L 533.178409 -39.4 
L 532.227273 -39.4 
L 531.276136 -39.4 
L 530.325 -39.4 
L 529.373864 -39.4 
L 528.422727 -39.4 
L 527.471591 -39.4 
L 526.520455 -39.4 
L 525.569318 -39.4 
L 524.618182 -39.4 
L 523.667045 -39.4 
L 522.715909 -39.4 
L 521.764773 -39.4 
L 520.813636 -39.4 
L 519.8625 -39.4 
L 518.911364 -39.4 
L 517.960227 -39.4 
L 517.009091 -39.4 
L 516.057955 -39.4 
L 515.106818 -39.4 
L 514.155682 -39.4 
L 513.204545 -39.4 
L 512.253409 -39.4 
L 511.302273 -39.4 
L 510.351136 -39.4 
L 509.4 -39.4 
L 508.448864 -39.4 
L 507.497727 -39.4 
L 506.546591 -39.4 
L 505.595455 -39.4 
L 504.644318 -39.4 
L 503.693182 -39.4 
L 502.742045 -39.4 
L 501.790909 -39.4 
L 500.839773 -39.4 
L 499.888636 -39.4 
L 498.9375 -39.4 
L 497.986364 -39.4 
L 497.035227 -39.4 
L 496.084091 -39.4 
L 495.132955 -39.4 
L 494.181818 -39.4 
L 493.230682 -39.4 
L 492.279545 -39.4 
L 491.328409 -39.4 
L 490.377273 -39.4 
L 489.426136 -39.4 
L 488.475 -39.4 
L 487.523864 -39.4 
L 486.572727 -39.4 
L 485.621591 -39.4 
L 484.670455 -39.4 
L 483.719318 -39.4 
L 482.768182 -39.4 
L 481.817045 -39.4 
L 480.865909 -39.4 
L 479.914773 -39.4 
L 478.963636 -39.4 
L 478.0125 -39.4 
L 477.061364 -39.4 
L 476.110227 -39.4 
L 475.159091 -39.4 
L 474.207955 -39.4 
L 473.256818 -39.4 
L 472.305682 -39.4 
L 471.354545 -39.4 
L 470.403409 -39.4 
L 469.452273 -39.4 
L 468.501136 -39.4 
L 467.55 -39.4 
L 466.598864 -39.4 
L 465.647727 -39.4 
L 464.696591 -39.4 
L 463.745455 -39.4 
L 462.794318 -39.4 
L 461.843182 -39.4 
L 460.892045 -39.4 
L 459.940909 -39.4 
L 458.989773 -39.4 
L 458.038636 -39.4 
L 457.0875 -39.4 
L 456.136364 -39.4 
L 455.185227 -39.4 
L 454.234091 -39.4 
L 453.282955 -39.4 
L 452.331818 -39.4 
L 451.380682 -39.4 
L 450.429545 -39.4 
L 449.478409 -39.4 
L 448.527273 -39.4 
L 447.576136 -39.4 
L 446.625 -39.4 
L 445.673864 -39.4 
L 444.722727 -39.4 
L 443.771591 -39.4 
L 442.820455 -39.4 
L 441.869318 -39.4 
L 440.918182 -39.4 
L 439.967045 -39.4 
L 439.015909 -39.4 
L 438.064773 -39.4 
L 437.113636 -39.4 
L 436.1625 -39.4 
L 435.211364 -39.4 
L 434.260227 -39.4 
L 433.309091 -39.4 
L 432.357955 -39.4 
L 431.406818 -39.4 
L 430.455682 -39.4 
L 429.504545 -39.4 
L 428.553409 -39.4 
L 427.602273 -39.4 
L 426.651136 -39.4 
L 425.7 -39.4 
L 424.748864 -39.4 
L 423.797727 -39.4 
L 422.846591 -39.4 
L 421.895455 -39.4 
L 420.944318 -39.4 
L 419.993182 -39.4 
L 419.042045 -39.4 
L 418.090909 -39.4 
L 417.139773 -39.4 
L 416.188636 -39.4 
L 415.2375 -39.4 
L 414.286364 -39.4 
L 413.335227 -39.4 
L 412.384091 -39.4 
L 411.432955 -39.4 
L 410.481818 -39.4 
L 409.530682 -39.4 
L 408.579545 -39.4 
L 407.628409 -39.4 
L 406.677273 -39.4 
L 405.726136 -39.4 
L 404.775 -39.4 
L 403.823864 -39.4 
L 402.872727 -39.4 
L 401.921591 -39.4 
L 400.970455 -39.4 
L 400.019318 -39.4 
L 399.068182 -39.4 
L 398.117045 -39.4 
L 397.165909 -39.4 
L 396.214773 -39.4 
L 395.263636 -39.4 
L 394.3125 -39.4 
L 393.361364 -39.4 
L 392.410227 -39.4 
L 391.459091 -39.4 
L 390.507955 -39.4 
L 389.556818 -39.4 
L 388.605682 -39.4 
L 387.654545 -39.4 
L 386.703409 -39.4 
L 385.752273 -39.4 
L 384.801136 -39.4 
L 383.85 -39.4 
L 382.898864 -39.4 
L 381.947727 -39.4 
L 380.996591 -39.4 
L 380.045455 -39.4 
L 379.094318 -39.4 
L 378.143182 -39.4 
L 377.192045 -39.4 
L 376.240909 -39.4 
L 375.289773 -39.4 
L 374.338636 -39.4 
L 373.3875 -39.4 
L 372.436364 -39.4 
L 371.485227 -39.4 
L 370.534091 -39.4 
L 369.582955 -39.4 
L 368.631818 -39.4 
L 367.680682 -39.4 
L 366.729545 -39.4 
L 365.778409 -39.4 
L 364.827273 -39.4 
L 363.876136 -39.4 
L 362.925 -39.4 
L 361.973864 -39.4 
L 361.022727 -39.4 
L 360.071591 -39.4 
L 359.120455 -39.4 
L 358.169318 -39.4 
L 357.218182 -39.4 
L 356.267045 -39.4 
L 355.315909 -39.4 
L 354.364773 -39.4 
L 353.413636 -39.4 
L 352.4625 -39.4 
L 351.511364 -39.4 
L 350.560227 -39.4 
L 349.609091 -39.4 
L 348.657955 -39.4 
L 347.706818 -39.4 
L 346.755682 -39.4 
L 345.804545 -39.4 
L 344.853409 -39.4 
L 343.902273 -39.4 
L 342.951136 -39.4 
L 342 -39.4 
L 341.048864 -39.4 
L 340.097727 -39.4 
L 339.146591 -39.4 
L 338.195455 -39.4 
L 337.244318 -39.4 
L 336.293182 -39.4 
L 335.342045 -39.4 
L 334.390909 -39.4 
L 333.439773 -39.4 
L 332.488636 -39.4 
L 331.5375 -39.4 
L 330.586364 -39.4 
L 329.635227 -39.4 
L 328.684091 -39.4 
L 327.732955 -39.4 
L 326.781818 -39.4 
L 325.830682 -39.4 
L 324.879545 -39.4 
L 323.928409 -39.4 
L 322.977273 -39.4 
L 322.026136 -39.4 
L 321.075 -39.4 
L 320.123864 -39.4 
L 319.172727 -39.4 
L 318.221591 -39.4 
L 317.270455 -39.4 
L 316.319318 -39.4 
L 315.368182 -39.4 
L 314.417045 -39.4 
L 313.465909 -39.4 
L 312.514773 -39.4 
L 311.563636 -39.4 
L 310.6125 -39.4 
L 309.661364 -39.4 
L 308.710227 -39.4 
L 307.759091 -39.4 
L 306.807955 -39.4 
L 305.856818 -39.4 
L 304.905682 -39.4 
L 303.954545 -39.4 
L 303.003409 -39.4 
L 302.052273 -39.4 
L 301.101136 -39.4 
L 300.15 -39.4 
L 299.198864 -39.4 
L 298.247727 -39.4 
L 297.296591 -39.4 
L 296.345455 -39.4 
L 295.394318 -39.4 
L 294.443182 -39.4 
L 293.492045 -39.4 
L 292.540909 -39.4 
L 291.589773 -39.4 
L 290.638636 -39.4 
L 289.6875 -39.4 
L 288.736364 -39.4 
L 287.785227 -39.4 
L 286.834091 -39.4 
L 285.882955 -39.4 
L 284.931818 -39.4 
L 283.980682 -39.4 
L 283.029545 -39.4 
L 282.078409 -39.4 
L 281.127273 -39.4 
L 280.176136 -39.4 
L 279.225 -39.4 
L 278.273864 -39.4 
L 277.322727 -39.4 
L 276.371591 -39.4 
L 275.420455 -39.4 
L 274.469318 -39.4 
L 273.518182 -39.4 
L 272.567045 -39.4 
L 271.615909 -39.4 
L 270.664773 -39.4 
L 269.713636 -39.4 
L 268.7625 -39.4 
L 267.811364 -39.4 
L 266.860227 -39.4 
L 265.909091 -39.4 
L 264.957955 -39.4 
L 264.006818 -39.4 
L 263.055682 -39.4 
L 262.104545 -39.4 
L 261.153409 -39.4 
L 260.202273 -39.4 
L 259.251136 -39.4 
L 258.3 -39.4 
L 257.348864 -39.4 
L 256.397727 -39.4 
L 255.446591 -39.4 
L 254.495455 -39.4 
L 253.544318 -39.4 
L 252.593182 -39.4 
L 251.642045 -39.4 
L 250.690909 -39.4 
L 249.739773 -39.4 
L 248.788636 -39.4 
L 247.8375 -39.4 
L 246.886364 -39.4 
L 245.935227 -39.4 
L 244.984091 -39.4 
L 244.032955 -39.4 
L 243.081818 -39.4 
L 242.130682 -39.4 
L 241.179545 -39.4 
L 240.228409 -39.4 
L 239.277273 -39.4 
L 238.326136 -39.4 
L 237.375 -39.4 
L 236.423864 -39.4 
L 235.472727 -39.4 
L 234.521591 -39.4 
L 233.570455 -39.4 
L 232.619318 -39.4 
L 231.668182 -39.4 
L 230.717045 -39.4 
L 229.765909 -39.4 
L 228.814773 -39.4 
L 227.863636 -39.4 
L 226.9125 -39.4 
L 225.961364 -39.4 
L 225.010227 -39.4 
L 224.059091 -39.4 
L 223.107955 -39.4 
L 222.156818 -39.4 
L 221.205682 -39.4 
L 220.254545 -39.4 
L 219.303409 -39.4 
L 218.352273 -39.4 
L 217.401136 -39.4 
L 216.45 -39.4 
L 215.498864 -39.4 
L 214.547727 -39.4 
L 213.596591 -39.4 
L 212.645455 -39.4 
L 211.694318 -39.4 
L 210.743182 -39.4 
L 209.792045 -39.4 
L 208.840909 -39.4 
L 207.889773 -39.4 
L 206.938636 -39.4 
L 205.9875 -39.4 
L 205.036364 -39.4 
L 204.085227 -39.4 
L 203.134091 -39.4 
L 202.182955 -39.4 
L 201.231818 -39.4 
L 200.280682 -39.4 
L 199.329545 -39.4 
L 198.378409 -39.4 
L 197.427273 -39.4 
L 196.476136 -39.4 
L 195.525 -39.4 
L 194.573864 -39.4 
L 193.622727 -39.4 
L 192.671591 -39.4 
L 191.720455 -39.4 
L 190.769318 -39.4 
L 189.818182 -39.4 
L 188.867045 -39.4 
L 187.915909 -39.4 
L 186.964773 -39.4 
L 186.013636 -39.4 
L 185.0625 -39.4 
L 184.111364 -39.4 
L 183.160227 -39.4 
L 182.209091 -39.4 
L 181.257955 -39.4 
L 180.306818 -39.4 
L 179.355682 -39.4 
L 178.404545 -39.4 
L 177.453409 -39.4 
L 176.502273 -39.4 
L 175.551136 -39.4 
L 174.6 -39.4 
L 173.648864 -39.4 
L 172.697727 -39.4 
L 171.746591 -39.4 
L 170.795455 -39.4 
L 169.844318 -39.4 
L 168.893182 -39.4 
L 167.942045 -39.4 
L 166.990909 -39.4 
L 166.039773 -39.4 
L 165.088636 -39.4 
L 164.1375 -39.4 
L 163.186364 -39.4 
L 162.235227 -39.4 
L 161.284091 -39.4 
L 160.332955 -39.4 
L 159.381818 -39.4 
L 158.430682 -39.4 
L 157.479545 -39.4 
L 156.528409 -39.4 
L 155.577273 -39.4 
L 154.626136 -39.4 
L 153.675 -39.4 
L 152.723864 -39.4 
L 151.772727 -39.4 
L 150.821591 -39.4 
L 149.870455 -39.4 
L 148.919318 -39.4 
L 147.968182 -39.4 
L 147.017045 -39.4 
L 146.065909 -39.4 
L 145.114773 -39.4 
L 144.163636 -39.4 
L 143.2125 -39.4 
L 142.261364 -39.4 
L 141.310227 -39.4 
L 140.359091 -39.4 
L 139.407955 -39.4 
L 138.456818 -39.4 
L 137.505682 -39.4 
L 136.554545 -39.4 
L 135.603409 -39.4 
L 134.652273 -39.4 
L 133.701136 -39.4 
L 132.75 -39.4 
L 131.798864 -39.4 
L 130.847727 -39.4 
L 129.896591 -39.4 
L 128.945455 -39.4 
L 127.994318 -39.4 
L 127.043182 -39.4 
L 126.092045 -39.4 
L 125.140909 -39.4 
L 124.189773 -39.4 
L 123.238636 -39.4 
L 122.2875 -39.4 
L 121.336364 -39.4 
L 120.385227 -39.4 
L 119.434091 -39.4 
L 118.482955 -39.4 
L 117.531818 -39.4 
L 116.580682 -39.4 
L 115.629545 -39.4 
L 114.678409 -39.4 
L 113.727273 -39.4 
L 112.776136 -39.4 
L 111.825 -39.4 
L 110.873864 -39.4 
L 109.922727 -39.4 
L 108.971591 -39.4 
L 108.020455 -39.4 
L 107.069318 -39.4 
L 106.118182 -39.4 
L 105.167045 -39.4 
L 104.215909 -39.4 
L 103.264773 -39.4 
L 102.313636 -39.4 
L 101.3625 -39.4 
L 100.411364 -39.4 
L 99.460227 -39.4 
L 98.509091 -39.4 
L 97.557955 -39.4 
L 96.606818 -39.4 
L 95.655682 -39.4 
L 94.704545 -39.4 
L 93.753409 -39.4 
L 92.802273 -39.4 
L 91.851136 -39.4 
L 90.9 -39.4 
L 89.948864 -39.4 
L 88.997727 -39.4 
L 88.046591 -39.4 
L 87.095455 -39.4 
L 86.144318 -39.4 
L 85.193182 -39.4 
L 84.242045 -39.4 
L 83.290909 -39.4 
L 82.339773 -39.4 
L 81.388636 -39.4 
L 80.4375 -39.4 
L 79.486364 -39.4 
L 78.535227 -39.4 
L 77.584091 -39.4 
L 76.632955 -39.4 
L 75.681818 -39.4 
L 74.730682 -39.4 
L 73.779545 -39.4 
L 72.828409 -39.4 
L 71.877273 -39.4 
L 70.926136 -39.4 
L 69.975 -39.4 
L 69.023864 -39.4 
L 68.072727 -39.4 
L 67.121591 -39.4 
L 66.170455 -39.4 
L 65.219318 -39.4 
L 64.268182 -39.4 
L 63.317045 -39.4 
L 62.365909 -39.4 
L 61.414773 -39.4 
L 60.463636 -39.4 
L 59.5125 -39.4 
L 58.561364 -39.4 
L 57.610227 -39.4 
L 56.659091 -39.4 
L 55.707955 -39.4 
L 54.756818 -39.4 
L 53.805682 -39.4 
L 52.854545 -39.4 
L 51.903409 -39.4 
L 50.952273 -39.4 
L 50.001136 -39.4 
L 49.05 -39.4 
L 48.098864 -39.4 
L 47.147727 -39.4 
L 46.196591 -39.4 
L 45.245455 -39.4 
z
" style="stroke: #2f4f4f; stroke-opacity: 0.9"/>
    </defs>
    <g clip-path="url(#p53060af82d)">
     <use xlink:href="#m7f04f33de1" x="0" y="311.2" style="fill: #2f4f4f; fill-opacity: 0.9; stroke: #2f4f4f; stroke-opacity: 0.9"/>
    </g>
   </g>
   <g id="line2d_1">
    <path d="M 235.472727 284.4 
L 235.472727 7.2 
" clip-path="url(#p53060af82d)" style="fill: none; stroke-dasharray: 3.7,1.6; stroke-dashoffset: 0; stroke: #000000"/>
   </g>
  </g>
 </g>
 <defs>
  <clipPath id="p53060af82d">
   <rect x="7.2" y="7.2" width="837" height="277.2"/>
  </clipPath>
 </defs>
</svg>
