<?xml version="1.0" encoding="utf-8" standalone="no"?>
<!DOCTYPE svg PUBLIC "-//W3C//DTD SVG 1.1//EN"
  "http://www.w3.org/Graphics/SVG/1.1/DTD/svg11.dtd">
<svg xmlns:xlink="http://www.w3.org/1999/xlink" width="856.040156pt" height="296.014531pt" viewBox="0 0 856.040156 296.014531" xmlns="http://www.w3.org/2000/svg" version="1.1">
 <metadata>
  <rdf:RDF xmlns:dc="http://purl.org/dc/elements/1.1/" xmlns:cc="http://creativecommons.org/ns#" xmlns:rdf="http://www.w3.org/1999/02/22-rdf-syntax-ns#">
   <cc:Work>
    <dc:type rdf:resource="http://purl.org/dc/dcmitype/StillImage"/>
    <dc:date>2024-01-22T18:40:21.567993</dc:date>
    <dc:format>image/svg+xml</dc:format>
    <dc:creator>
     <cc:Agent>
      <dc:title>Matplotlib v3.7.2, https://matplotlib.org/</dc:title>
     </cc:Agent>
    </dc:creator>
   </cc:Work>
  </rdf:RDF>
 </metadata>
 <defs>
  <style type="text/css">*{stroke-linejoin: round; stroke-linecap: butt}</style>
 </defs>
 <g id="figure_1">
  <g id="patch_1">
   <path d="M 0 296.014531 
L 856.040156 296.014531 
L 856.040156 0 
L 0 0 
z
" style="fill: #ffffff"/>
  </g>
  <g id="axes_1">
   <g id="matplotlib.axis_1">
    <g id="xtick_1">
     <g id="text_1">
      <!-- −2 -->
      <g style="fill: #262626" transform="translate(34.606477 288.615781) scale(0.01 -0.01)">
       <defs>
        <path id="ArialMT-2212" d="M 3381 1997 
L 356 1997 
L 356 2522 
L 3381 2522 
L 3381 1997 
z
" transform="scale(0.015625)"/>
        <path id="ArialMT-32" d="M 3222 541 
L 3222 0 
L 194 0 
Q 188 203 259 391 
Q 375 700 629 1000 
Q 884 1300 1366 1694 
Q 2113 2306 2375 2664 
Q 2638 3022 2638 3341 
Q 2638 3675 2398 3904 
Q 2159 4134 1775 4134 
Q 1369 4134 1125 3890 
Q 881 3647 878 3216 
L 300 3275 
Q 359 3922 746 4261 
Q 1134 4600 1788 4600 
Q 2447 4600 2831 4234 
Q 3216 3869 3216 3328 
Q 3216 3053 3103 2787 
Q 2991 2522 2730 2228 
Q 2469 1934 1863 1422 
Q 1356 997 1212 845 
Q 1069 694 975 541 
L 3222 541 
z
" transform="scale(0.015625)"/>
       </defs>
       <use xlink:href="#ArialMT-2212"/>
       <use xlink:href="#ArialMT-32" x="58.398438"/>
      </g>
     </g>
    </g>
    <g id="xtick_2">
     <g id="text_2">
      <!-- −1 -->
      <g style="fill: #262626" transform="translate(218.167356 288.615781) scale(0.01 -0.01)">
       <defs>
        <path id="ArialMT-31" d="M 2384 0 
L 1822 0 
L 1822 3584 
Q 1619 3391 1289 3197 
Q 959 3003 697 2906 
L 697 3450 
Q 1169 3672 1522 3987 
Q 1875 4303 2022 4600 
L 2384 4600 
L 2384 0 
z
" transform="scale(0.015625)"/>
       </defs>
       <use xlink:href="#ArialMT-2212"/>
       <use xlink:href="#ArialMT-31" x="58.398438"/>
      </g>
     </g>
    </g>
    <g id="xtick_3">
     <g id="text_3">
      <!-- 0 -->
      <g style="fill: #262626" transform="translate(402.020267 288.615781) scale(0.01 -0.01)">
       <defs>
        <path id="ArialMT-30" d="M 266 2259 
Q 266 3072 433 3567 
Q 600 4063 929 4331 
Q 1259 4600 1759 4600 
Q 2128 4600 2406 4451 
Q 2684 4303 2865 4023 
Q 3047 3744 3150 3342 
Q 3253 2941 3253 2259 
Q 3253 1453 3087 958 
Q 2922 463 2592 192 
Q 2263 -78 1759 -78 
Q 1097 -78 719 397 
Q 266 969 266 2259 
z
M 844 2259 
Q 844 1131 1108 757 
Q 1372 384 1759 384 
Q 2147 384 2411 759 
Q 2675 1134 2675 2259 
Q 2675 3391 2411 3762 
Q 2147 4134 1753 4134 
Q 1366 4134 1134 3806 
Q 844 3388 844 2259 
z
" transform="scale(0.015625)"/>
       </defs>
       <use xlink:href="#ArialMT-30"/>
      </g>
     </g>
    </g>
    <g id="xtick_4">
     <g id="text_4">
      <!-- 1 -->
      <g style="fill: #262626" transform="translate(585.581147 288.615781) scale(0.01 -0.01)">
       <use xlink:href="#ArialMT-31"/>
      </g>
     </g>
    </g>
    <g id="xtick_5">
     <g id="text_5">
      <!-- 2 -->
      <g style="fill: #262626" transform="translate(769.142027 288.615781) scale(0.01 -0.01)">
       <use xlink:href="#ArialMT-32"/>
      </g>
     </g>
    </g>
   </g>
   <g id="matplotlib.axis_2">
    <g id="ytick_1">
     <g id="text_6">
      <!-- −2 -->
      <g style="fill: #262626" transform="translate(7.2 284.753531) scale(0.01 -0.01)">
       <use xlink:href="#ArialMT-2212"/>
       <use xlink:href="#ArialMT-32" x="58.398438"/>
      </g>
     </g>
    </g>
    <g id="ytick_2">
     <g id="text_7">
      <!-- −1 -->
      <g style="fill: #262626" transform="translate(7.2 228.993035) scale(0.01 -0.01)">
       <use xlink:href="#ArialMT-2212"/>
       <use xlink:href="#ArialMT-31" x="58.398438"/>
      </g>
     </g>
    </g>
    <g id="ytick_3">
     <g id="text_8">
      <!-- 0 -->
      <g style="fill: #262626" transform="translate(7.784063 173.23254) scale(0.01 -0.01)">
       <use xlink:href="#ArialMT-30"/>
      </g>
     </g>
    </g>
    <g id="ytick_4">
     <g id="text_9">
      <!-- 1 -->
      <g style="fill: #262626" transform="translate(7.784063 117.472045) scale(0.01 -0.01)">
       <use xlink:href="#ArialMT-31"/>
      </g>
     </g>
    </g>
    <g id="ytick_5">
     <g id="text_10">
      <!-- 2 -->
      <g style="fill: #262626" transform="translate(7.784063 61.711549) scale(0.01 -0.01)">
       <use xlink:href="#ArialMT-32"/>
      </g>
     </g>
    </g>
   </g>
   <g id="PathCollection_1">
    <defs>
     <path id="m434dd81ea6" d="M 0 3.872983 
C 1.027127 3.872983 2.012324 3.464901 2.738613 2.738613 
C 3.464901 2.012324 3.872983 1.027127 3.872983 0 
C 3.872983 -1.027127 3.464901 -2.012324 2.738613 -2.738613 
C 2.012324 -3.464901 1.027127 -3.872983 0 -3.872983 
C -1.027127 -3.872983 -2.012324 -3.464901 -2.738613 -2.738613 
C -3.464901 -2.012324 -3.872983 -1.027127 -3.872983 0 
C -3.872983 1.027127 -3.464901 2.012324 -2.738613 2.738613 
C -2.012324 3.464901 -1.027127 3.872983 0 3.872983 
z
" style="stroke: #2f4f4f"/>
    </defs>
    <g clip-path="url(#p6e307dc21e)">
     <use xlink:href="#m434dd81ea6" x="323.825779" y="201.588373" style="fill: #2f4f4f; stroke: #2f4f4f"/>
     <use xlink:href="#m434dd81ea6" x="201.101708" y="180.281147" style="fill: #2f4f4f; stroke: #2f4f4f"/>
     <use xlink:href="#m434dd81ea6" x="456.665009" y="164.616699" style="fill: #2f4f4f; stroke: #2f4f4f"/>
     <use xlink:href="#m434dd81ea6" x="82.745073" y="242.881318" style="fill: #2f4f4f; stroke: #2f4f4f"/>
     <use xlink:href="#m434dd81ea6" x="452.559111" y="138.47293" style="fill: #2f4f4f; stroke: #2f4f4f"/>
     <use xlink:href="#m434dd81ea6" x="510.032637" y="156.572514" style="fill: #2f4f4f; stroke: #2f4f4f"/>
     <use xlink:href="#m434dd81ea6" x="471.222996" y="219.411127" style="fill: #2f4f4f; stroke: #2f4f4f"/>
     <use xlink:href="#m434dd81ea6" x="735.316604" y="91.542959" style="fill: #2f4f4f; stroke: #2f4f4f"/>
     <use xlink:href="#m434dd81ea6" x="560.432751" y="113.755716" style="fill: #2f4f4f; stroke: #2f4f4f"/>
     <use xlink:href="#m434dd81ea6" x="642.402722" y="149.744213" style="fill: #2f4f4f; stroke: #2f4f4f"/>
     <use xlink:href="#m434dd81ea6" x="160.174213" y="254.387195" style="fill: #2f4f4f; stroke: #2f4f4f"/>
     <use xlink:href="#m434dd81ea6" x="473.2413" y="201.569436" style="fill: #2f4f4f; stroke: #2f4f4f"/>
     <use xlink:href="#m434dd81ea6" x="490.659014" y="142.12142" style="fill: #2f4f4f; stroke: #2f4f4f"/>
     <use xlink:href="#m434dd81ea6" x="580.925488" y="105.363492" style="fill: #2f4f4f; stroke: #2f4f4f"/>
     <use xlink:href="#m434dd81ea6" x="523.826182" y="146.244874" style="fill: #2f4f4f; stroke: #2f4f4f"/>
     <use xlink:href="#m434dd81ea6" x="399.560911" y="108.383688" style="fill: #2f4f4f; stroke: #2f4f4f"/>
     <use xlink:href="#m434dd81ea6" x="466.045732" y="190.811294" style="fill: #2f4f4f; stroke: #2f4f4f"/>
     <use xlink:href="#m434dd81ea6" x="329.925774" y="237.913651" style="fill: #2f4f4f; stroke: #2f4f4f"/>
     <use xlink:href="#m434dd81ea6" x="479.679633" y="218.478232" style="fill: #2f4f4f; stroke: #2f4f4f"/>
     <use xlink:href="#m434dd81ea6" x="622.162934" y="99.143611" style="fill: #2f4f4f; stroke: #2f4f4f"/>
     <use xlink:href="#m434dd81ea6" x="263.753479" y="208.917091" style="fill: #2f4f4f; stroke: #2f4f4f"/>
     <use xlink:href="#m434dd81ea6" x="439.915618" y="172.066332" style="fill: #2f4f4f; stroke: #2f4f4f"/>
     <use xlink:href="#m434dd81ea6" x="701.554651" y="107.355265" style="fill: #2f4f4f; stroke: #2f4f4f"/>
     <use xlink:href="#m434dd81ea6" x="421.151652" y="129.867042" style="fill: #2f4f4f; stroke: #2f4f4f"/>
     <use xlink:href="#m434dd81ea6" x="444.799508" y="222.139447" style="fill: #2f4f4f; stroke: #2f4f4f"/>
     <use xlink:href="#m434dd81ea6" x="368.214851" y="196.808546" style="fill: #2f4f4f; stroke: #2f4f4f"/>
     <use xlink:href="#m434dd81ea6" x="484.672281" y="126.28042" style="fill: #2f4f4f; stroke: #2f4f4f"/>
     <use xlink:href="#m434dd81ea6" x="168.700821" y="210.992267" style="fill: #2f4f4f; stroke: #2f4f4f"/>
     <use xlink:href="#m434dd81ea6" x="566.389476" y="133.933186" style="fill: #2f4f4f; stroke: #2f4f4f"/>
     <use xlink:href="#m434dd81ea6" x="287.984209" y="173.196367" style="fill: #2f4f4f; stroke: #2f4f4f"/>
     <use xlink:href="#m434dd81ea6" x="496.519218" y="150.800515" style="fill: #2f4f4f; stroke: #2f4f4f"/>
     <use xlink:href="#m434dd81ea6" x="664.393011" y="135.443311" style="fill: #2f4f4f; stroke: #2f4f4f"/>
     <use xlink:href="#m434dd81ea6" x="182.078412" y="191.941891" style="fill: #2f4f4f; stroke: #2f4f4f"/>
     <use xlink:href="#m434dd81ea6" x="356.586118" y="151.37007" style="fill: #2f4f4f; stroke: #2f4f4f"/>
     <use xlink:href="#m434dd81ea6" x="376.769901" y="203.380259" style="fill: #2f4f4f; stroke: #2f4f4f"/>
     <use xlink:href="#m434dd81ea6" x="250.085991" y="164.871909" style="fill: #2f4f4f; stroke: #2f4f4f"/>
     <use xlink:href="#m434dd81ea6" x="317.714158" y="143.390098" style="fill: #2f4f4f; stroke: #2f4f4f"/>
     <use xlink:href="#m434dd81ea6" x="810.794702" y="19.8" style="fill: #2f4f4f; stroke: #2f4f4f"/>
     <use xlink:href="#m434dd81ea6" x="404.496332" y="182.751758" style="fill: #2f4f4f; stroke: #2f4f4f"/>
     <use xlink:href="#m434dd81ea6" x="501.691494" y="212.775544" style="fill: #2f4f4f; stroke: #2f4f4f"/>
     <use xlink:href="#m434dd81ea6" x="419.822897" y="154.957243" style="fill: #2f4f4f; stroke: #2f4f4f"/>
     <use xlink:href="#m434dd81ea6" x="175.020215" y="260.192509" style="fill: #2f4f4f; stroke: #2f4f4f"/>
     <use xlink:href="#m434dd81ea6" x="572.215827" y="138.953596" style="fill: #2f4f4f; stroke: #2f4f4f"/>
     <use xlink:href="#m434dd81ea6" x="223.806114" y="215.501678" style="fill: #2f4f4f; stroke: #2f4f4f"/>
     <use xlink:href="#m434dd81ea6" x="464.757702" y="135.800384" style="fill: #2f4f4f; stroke: #2f4f4f"/>
     <use xlink:href="#m434dd81ea6" x="329.166138" y="160.929826" style="fill: #2f4f4f; stroke: #2f4f4f"/>
     <use xlink:href="#m434dd81ea6" x="543.574461" y="141.514379" style="fill: #2f4f4f; stroke: #2f4f4f"/>
     <use xlink:href="#m434dd81ea6" x="555.533196" y="177.938684" style="fill: #2f4f4f; stroke: #2f4f4f"/>
     <use xlink:href="#m434dd81ea6" x="335.578104" y="183.935939" style="fill: #2f4f4f; stroke: #2f4f4f"/>
     <use xlink:href="#m434dd81ea6" x="415.024941" y="177.281625" style="fill: #2f4f4f; stroke: #2f4f4f"/>
     <use xlink:href="#m434dd81ea6" x="673.189808" y="105.420127" style="fill: #2f4f4f; stroke: #2f4f4f"/>
     <use xlink:href="#m434dd81ea6" x="508.548837" y="168.891945" style="fill: #2f4f4f; stroke: #2f4f4f"/>
     <use xlink:href="#m434dd81ea6" x="406.930833" y="157.218153" style="fill: #2f4f4f; stroke: #2f4f4f"/>
     <use xlink:href="#m434dd81ea6" x="63.702023" y="269.573759" style="fill: #2f4f4f; stroke: #2f4f4f"/>
     <use xlink:href="#m434dd81ea6" x="361.769561" y="187.811527" style="fill: #2f4f4f; stroke: #2f4f4f"/>
     <use xlink:href="#m434dd81ea6" x="737.974375" y="71.840994" style="fill: #2f4f4f; stroke: #2f4f4f"/>
     <use xlink:href="#m434dd81ea6" x="248.825826" y="132.626381" style="fill: #2f4f4f; stroke: #2f4f4f"/>
     <use xlink:href="#m434dd81ea6" x="418.292339" y="157.381748" style="fill: #2f4f4f; stroke: #2f4f4f"/>
     <use xlink:href="#m434dd81ea6" x="476.18137" y="191.645749" style="fill: #2f4f4f; stroke: #2f4f4f"/>
     <use xlink:href="#m434dd81ea6" x="159.638354" y="220.070043" style="fill: #2f4f4f; stroke: #2f4f4f"/>
     <use xlink:href="#m434dd81ea6" x="317.334365" y="230.754733" style="fill: #2f4f4f; stroke: #2f4f4f"/>
     <use xlink:href="#m434dd81ea6" x="239.387427" y="271.8" style="fill: #2f4f4f; stroke: #2f4f4f"/>
     <use xlink:href="#m434dd81ea6" x="172.95287" y="165.294492" style="fill: #2f4f4f; stroke: #2f4f4f"/>
     <use xlink:href="#m434dd81ea6" x="607.663351" y="130.461756" style="fill: #2f4f4f; stroke: #2f4f4f"/>
     <use xlink:href="#m434dd81ea6" x="414.170187" y="187.023907" style="fill: #2f4f4f; stroke: #2f4f4f"/>
     <use xlink:href="#m434dd81ea6" x="668.352735" y="89.637054" style="fill: #2f4f4f; stroke: #2f4f4f"/>
     <use xlink:href="#m434dd81ea6" x="559.798453" y="108.328928" style="fill: #2f4f4f; stroke: #2f4f4f"/>
     <use xlink:href="#m434dd81ea6" x="472.438784" y="96.907961" style="fill: #2f4f4f; stroke: #2f4f4f"/>
     <use xlink:href="#m434dd81ea6" x="557.389656" y="137.12021" style="fill: #2f4f4f; stroke: #2f4f4f"/>
     <use xlink:href="#m434dd81ea6" x="332.079537" y="237.612789" style="fill: #2f4f4f; stroke: #2f4f4f"/>
     <use xlink:href="#m434dd81ea6" x="286.812405" y="161.858194" style="fill: #2f4f4f; stroke: #2f4f4f"/>
     <use xlink:href="#m434dd81ea6" x="671.509828" y="84.584661" style="fill: #2f4f4f; stroke: #2f4f4f"/>
     <use xlink:href="#m434dd81ea6" x="311.659519" y="172.836307" style="fill: #2f4f4f; stroke: #2f4f4f"/>
     <use xlink:href="#m434dd81ea6" x="694.350929" y="130.724765" style="fill: #2f4f4f; stroke: #2f4f4f"/>
     <use xlink:href="#m434dd81ea6" x="294.167731" y="195.248127" style="fill: #2f4f4f; stroke: #2f4f4f"/>
     <use xlink:href="#m434dd81ea6" x="338.566908" y="180.016556" style="fill: #2f4f4f; stroke: #2f4f4f"/>
     <use xlink:href="#m434dd81ea6" x="507.236954" y="132.806654" style="fill: #2f4f4f; stroke: #2f4f4f"/>
     <use xlink:href="#m434dd81ea6" x="392.72833" y="200.974076" style="fill: #2f4f4f; stroke: #2f4f4f"/>
     <use xlink:href="#m434dd81ea6" x="49.885611" y="263.217246" style="fill: #2f4f4f; stroke: #2f4f4f"/>
     <use xlink:href="#m434dd81ea6" x="571.642266" y="98.278805" style="fill: #2f4f4f; stroke: #2f4f4f"/>
     <use xlink:href="#m434dd81ea6" x="526.342555" y="107.436238" style="fill: #2f4f4f; stroke: #2f4f4f"/>
     <use xlink:href="#m434dd81ea6" x="248.177344" y="248.634361" style="fill: #2f4f4f; stroke: #2f4f4f"/>
     <use xlink:href="#m434dd81ea6" x="210.574182" y="216.557759" style="fill: #2f4f4f; stroke: #2f4f4f"/>
     <use xlink:href="#m434dd81ea6" x="149.040589" y="182.914669" style="fill: #2f4f4f; stroke: #2f4f4f"/>
     <use xlink:href="#m434dd81ea6" x="488.782639" y="173.184494" style="fill: #2f4f4f; stroke: #2f4f4f"/>
     <use xlink:href="#m434dd81ea6" x="604.554749" y="140.205377" style="fill: #2f4f4f; stroke: #2f4f4f"/>
     <use xlink:href="#m434dd81ea6" x="395.922029" y="162.780504" style="fill: #2f4f4f; stroke: #2f4f4f"/>
     <use xlink:href="#m434dd81ea6" x="306.099518" y="172.925594" style="fill: #2f4f4f; stroke: #2f4f4f"/>
     <use xlink:href="#m434dd81ea6" x="315.660789" y="147.932246" style="fill: #2f4f4f; stroke: #2f4f4f"/>
     <use xlink:href="#m434dd81ea6" x="290.48817" y="110.909765" style="fill: #2f4f4f; stroke: #2f4f4f"/>
     <use xlink:href="#m434dd81ea6" x="343.099353" y="221.086132" style="fill: #2f4f4f; stroke: #2f4f4f"/>
     <use xlink:href="#m434dd81ea6" x="560.778656" y="107.718009" style="fill: #2f4f4f; stroke: #2f4f4f"/>
     <use xlink:href="#m434dd81ea6" x="399.766758" y="148.463697" style="fill: #2f4f4f; stroke: #2f4f4f"/>
     <use xlink:href="#m434dd81ea6" x="324.115678" y="199.192664" style="fill: #2f4f4f; stroke: #2f4f4f"/>
     <use xlink:href="#m434dd81ea6" x="637.692346" y="154.791392" style="fill: #2f4f4f; stroke: #2f4f4f"/>
     <use xlink:href="#m434dd81ea6" x="430.343516" y="134.153538" style="fill: #2f4f4f; stroke: #2f4f4f"/>
     <use xlink:href="#m434dd81ea6" x="437.327243" y="206.166138" style="fill: #2f4f4f; stroke: #2f4f4f"/>
     <use xlink:href="#m434dd81ea6" x="349.773854" y="175.241448" style="fill: #2f4f4f; stroke: #2f4f4f"/>
     <use xlink:href="#m434dd81ea6" x="547.290968" y="123.408793" style="fill: #2f4f4f; stroke: #2f4f4f"/>
     <use xlink:href="#m434dd81ea6" x="458.507832" y="196.10785" style="fill: #2f4f4f; stroke: #2f4f4f"/>
    </g>
   </g>
  </g>
 </g>
 <defs>
  <clipPath id="p6e307dc21e">
   <rect x="11.840156" y="7.2" width="837" height="277.2"/>
  </clipPath>
 </defs>
</svg>
