<?xml version="1.0" encoding="utf-8" standalone="no"?>
<!DOCTYPE svg PUBLIC "-//W3C//DTD SVG 1.1//EN"
  "http://www.w3.org/Graphics/SVG/1.1/DTD/svg11.dtd">
<svg xmlns:xlink="http://www.w3.org/1999/xlink" width="851.4pt" height="315.2pt" viewBox="0 0 851.4 315.2" xmlns="http://www.w3.org/2000/svg" version="1.1">
 <metadata>
  <rdf:RDF xmlns:dc="http://purl.org/dc/elements/1.1/" xmlns:cc="http://creativecommons.org/ns#" xmlns:rdf="http://www.w3.org/1999/02/22-rdf-syntax-ns#">
   <cc:Work>
    <dc:type rdf:resource="http://purl.org/dc/dcmitype/StillImage"/>
    <dc:date>2024-01-22T18:40:22.897729</dc:date>
    <dc:format>image/svg+xml</dc:format>
    <dc:creator>
     <cc:Agent>
      <dc:title>Matplotlib v3.7.2, https://matplotlib.org/</dc:title>
     </cc:Agent>
    </dc:creator>
   </cc:Work>
  </rdf:RDF>
 </metadata>
 <defs>
  <style type="text/css">*{stroke-linejoin: round; stroke-linecap: butt}</style>
 </defs>
 <g id="figure_1">
  <g id="patch_1">
   <path d="M 0 315.2 
L 851.4 315.2 
L 851.4 0 
L 0 0 
z
" style="fill: #ffffff"/>
  </g>
  <g id="axes_1">
   <g id="matplotlib.axis_1">
    <g id="xtick_1"/>
    <g id="xtick_2"/>
    <g id="xtick_3"/>
    <g id="xtick_4"/>
    <g id="xtick_5"/>
    <g id="xtick_6"/>
    <g id="xtick_7"/>
    <g id="xtick_8"/>
    <g id="xtick_9"/>
    <g id="text_1">
     <!-- $\beta$ -->
     <g style="fill: #262626" transform="translate(419.3 303.8) scale(0.2 -0.2)">
      <defs>
       <path id="DejaVuSans-Oblique-3b2" d="M 872 216 
L 572 -1331 
L -6 -1331 
L 928 3478 
Q 1206 4903 2538 4903 
Q 3888 4903 3659 3700 
Q 3503 2844 2894 2531 
Q 3713 2250 3553 1416 
Q 3272 -69 1759 -66 
Q 1097 -63 872 216 
z
M 1019 966 
Q 1259 422 1875 425 
Q 2775 425 2966 1406 
Q 3138 2288 1675 2219 
L 1778 2750 
Q 2909 2731 3106 3750 
Q 3241 4438 2509 4434 
Q 1691 4434 1503 3459 
L 1019 966 
z
" transform="scale(0.015625)"/>
      </defs>
      <use xlink:href="#DejaVuSans-Oblique-3b2" transform="translate(0 0.390625)"/>
     </g>
    </g>
   </g>
   <g id="matplotlib.axis_2">
    <g id="ytick_1"/>
    <g id="ytick_2"/>
    <g id="ytick_3"/>
    <g id="ytick_4"/>
    <g id="ytick_5"/>
    <g id="ytick_6"/>
    <g id="ytick_7"/>
    <g id="ytick_8"/>
    <g id="ytick_9"/>
   </g>
   <g id="PolyCollection_1">
    <defs>
     <path id="m229f9d2403" d="M 45.245455 -43.4 
L 45.245455 -43.484537 
L 46.196591 -43.487982 
L 47.147727 -43.491559 
L 48.098864 -43.495272 
L 49.05 -43.499125 
L 50.001136 -43.503124 
L 50.952273 -43.507274 
L 51.903409 -43.511579 
L 52.854545 -43.516046 
L 53.805682 -43.520679 
L 54.756818 -43.525485 
L 55.707955 -43.530469 
L 56.659091 -43.535637 
L 57.610227 -43.540996 
L 58.561364 -43.546553 
L 59.5125 -43.552313 
L 60.463636 -43.558283 
L 61.414773 -43.564471 
L 62.365909 -43.570884 
L 63.317045 -43.577529 
L 64.268182 -43.584414 
L 65.219318 -43.591547 
L 66.170455 -43.598936 
L 67.121591 -43.60659 
L 68.072727 -43.614516 
L 69.023864 -43.622724 
L 69.975 -43.631223 
L 70.926136 -43.640023 
L 71.877273 -43.649132 
L 72.828409 -43.658562 
L 73.779545 -43.668321 
L 74.730682 -43.678421 
L 75.681818 -43.688872 
L 76.632955 -43.699686 
L 77.584091 -43.710873 
L 78.535227 -43.722446 
L 79.486364 -43.734416 
L 80.4375 -43.746795 
L 81.388636 -43.759597 
L 82.339773 -43.772834 
L 83.290909 -43.78652 
L 84.242045 -43.800668 
L 85.193182 -43.815293 
L 86.144318 -43.830408 
L 87.095455 -43.846029 
L 88.046591 -43.862171 
L 88.997727 -43.878849 
L 89.948864 -43.896079 
L 90.9 -43.913877 
L 91.851136 -43.932261 
L 92.802273 -43.951248 
L 93.753409 -43.970855 
L 94.704545 -43.9911 
L 95.655682 -44.012001 
L 96.606818 -44.033579 
L 97.557955 -44.055851 
L 98.509091 -44.078839 
L 99.460227 -44.102563 
L 100.411364 -44.127042 
L 101.3625 -44.152299 
L 102.313636 -44.178356 
L 103.264773 -44.205235 
L 104.215909 -44.232959 
L 105.167045 -44.261551 
L 106.118182 -44.291036 
L 107.069318 -44.321437 
L 108.020455 -44.35278 
L 108.971591 -44.385091 
L 109.922727 -44.418396 
L 110.873864 -44.452722 
L 111.825 -44.488096 
L 112.776136 -44.524546 
L 113.727273 -44.5621 
L 114.678409 -44.600789 
L 115.629545 -44.640642 
L 116.580682 -44.681689 
L 117.531818 -44.723962 
L 118.482955 -44.767493 
L 119.434091 -44.812313 
L 120.385227 -44.858457 
L 121.336364 -44.905958 
L 122.2875 -44.95485 
L 123.238636 -45.005169 
L 124.189773 -45.056951 
L 125.140909 -45.110232 
L 126.092045 -45.16505 
L 127.043182 -45.221443 
L 127.994318 -45.27945 
L 128.945455 -45.33911 
L 129.896591 -45.400464 
L 130.847727 -45.463553 
L 131.798864 -45.528418 
L 132.75 -45.595103 
L 133.701136 -45.663651 
L 134.652273 -45.734106 
L 135.603409 -45.806514 
L 136.554545 -45.880919 
L 137.505682 -45.957369 
L 138.456818 -46.035912 
L 139.407955 -46.116595 
L 140.359091 -46.199467 
L 141.310227 -46.284579 
L 142.261364 -46.371982 
L 143.2125 -46.461727 
L 144.163636 -46.553866 
L 145.114773 -46.648454 
L 146.065909 -46.745543 
L 147.017045 -46.84519 
L 147.968182 -46.94745 
L 148.919318 -47.05238 
L 149.870455 -47.160038 
L 150.821591 -47.270482 
L 151.772727 -47.383772 
L 152.723864 -47.499968 
L 153.675 -47.619131 
L 154.626136 -47.741323 
L 155.577273 -47.866607 
L 156.528409 -47.995047 
L 157.479545 -48.126709 
L 158.430682 -48.261656 
L 159.381818 -48.399956 
L 160.332955 -48.541676 
L 161.284091 -48.686884 
L 162.235227 -48.83565 
L 163.186364 -48.988043 
L 164.1375 -49.144134 
L 165.088636 -49.303994 
L 166.039773 -49.467697 
L 166.990909 -49.635315 
L 167.942045 -49.806923 
L 168.893182 -49.982595 
L 169.844318 -50.162408 
L 170.795455 -50.346439 
L 171.746591 -50.534763 
L 172.697727 -50.727461 
L 173.648864 -50.924611 
L 174.6 -51.126292 
L 175.551136 -51.332586 
L 176.502273 -51.543573 
L 177.453409 -51.759337 
L 178.404545 -51.979959 
L 179.355682 -52.205523 
L 180.306818 -52.436113 
L 181.257955 -52.671814 
L 182.209091 -52.912713 
L 183.160227 -53.158894 
L 184.111364 -53.410445 
L 185.0625 -53.667454 
L 186.013636 -53.930008 
L 186.964773 -54.198196 
L 187.915909 -54.472107 
L 188.867045 -54.751831 
L 189.818182 -55.037459 
L 190.769318 -55.32908 
L 191.720455 -55.626786 
L 192.671591 -55.930668 
L 193.622727 -56.240819 
L 194.573864 -56.557331 
L 195.525 -56.880296 
L 196.476136 -57.209808 
L 197.427273 -57.54596 
L 198.378409 -57.888846 
L 199.329545 -58.238558 
L 200.280682 -58.595192 
L 201.231818 -58.958842 
L 202.182955 -59.329601 
L 203.134091 -59.707565 
L 204.085227 -60.092827 
L 205.036364 -60.485482 
L 205.9875 -60.885625 
L 206.938636 -61.293349 
L 207.889773 -61.70875 
L 208.840909 -62.131921 
L 209.792045 -62.562957 
L 210.743182 -63.001951 
L 211.694318 -63.448996 
L 212.645455 -63.904187 
L 213.596591 -64.367615 
L 214.547727 -64.839373 
L 215.498864 -65.319553 
L 216.45 -65.808248 
L 217.401136 -66.305547 
L 218.352273 -66.811541 
L 219.303409 -67.32632 
L 220.254545 -67.849972 
L 221.205682 -68.382588 
L 222.156818 -68.924253 
L 223.107955 -69.475054 
L 224.059091 -70.035078 
L 225.010227 -70.60441 
L 225.961364 -71.183132 
L 226.9125 -71.771329 
L 227.863636 -72.369081 
L 228.814773 -72.976469 
L 229.765909 -73.593573 
L 230.717045 -74.22047 
L 231.668182 -74.857238 
L 232.619318 -75.50395 
L 233.570455 -76.160682 
L 234.521591 -76.827506 
L 235.472727 -77.504491 
L 236.423864 -78.191708 
L 237.375 -78.889224 
L 238.326136 -79.597103 
L 239.277273 -80.31541 
L 240.228409 -81.044207 
L 241.179545 -81.783554 
L 242.130682 -82.533508 
L 243.081818 -83.294126 
L 244.032955 -84.06546 
L 244.984091 -84.847563 
L 245.935227 -85.640484 
L 246.886364 -86.444269 
L 247.8375 -87.258962 
L 248.788636 -88.084607 
L 249.739773 -88.921243 
L 250.690909 -89.768905 
L 251.642045 -90.627629 
L 252.593182 -91.497446 
L 253.544318 -92.378385 
L 254.495455 -93.270472 
L 255.446591 -94.17373 
L 256.397727 -95.088178 
L 257.348864 -96.013834 
L 258.3 -96.950712 
L 259.251136 -97.898822 
L 260.202273 -98.858172 
L 261.153409 -99.828767 
L 262.104545 -100.810608 
L 263.055682 -101.803691 
L 264.006818 -102.808011 
L 264.957955 -103.82356 
L 265.909091 -104.850323 
L 266.860227 -105.888284 
L 267.811364 -106.937424 
L 268.7625 -107.997718 
L 269.713636 -109.069139 
L 270.664773 -110.151655 
L 271.615909 -111.24523 
L 272.567045 -112.349826 
L 273.518182 -113.4654 
L 274.469318 -114.591903 
L 275.420455 -115.729284 
L 276.371591 -116.877489 
L 277.322727 -118.036457 
L 278.273864 -119.206124 
L 279.225 -120.386423 
L 280.176136 -121.577282 
L 281.127273 -122.778622 
L 282.078409 -123.990364 
L 283.029545 -125.212422 
L 283.980682 -126.444706 
L 284.931818 -127.687122 
L 285.882955 -128.939571 
L 286.834091 -130.20195 
L 287.785227 -131.474151 
L 288.736364 -132.756062 
L 289.6875 -134.047566 
L 290.638636 -135.348541 
L 291.589773 -136.658862 
L 292.540909 -137.978397 
L 293.492045 -139.307011 
L 294.443182 -140.644564 
L 295.394318 -141.990912 
L 296.345455 -143.345905 
L 297.296591 -144.709389 
L 298.247727 -146.081205 
L 299.198864 -147.46119 
L 300.15 -148.849175 
L 301.101136 -150.244989 
L 302.052273 -151.648454 
L 303.003409 -153.059388 
L 303.954545 -154.477603 
L 304.905682 -155.90291 
L 305.856818 -157.335111 
L 306.807955 -158.774007 
L 307.759091 -160.219392 
L 308.710227 -161.671057 
L 309.661364 -163.128788 
L 310.6125 -164.592366 
L 311.563636 -166.061569 
L 312.514773 -167.536167 
L 313.465909 -169.015931 
L 314.417045 -170.500624 
L 315.368182 -171.990005 
L 316.319318 -173.48383 
L 317.270455 -174.981849 
L 318.221591 -176.483811 
L 319.172727 -177.989457 
L 320.123864 -179.498527 
L 321.075 -181.010756 
L 322.026136 -182.525873 
L 322.977273 -184.043608 
L 323.928409 -185.563683 
L 324.879545 -187.085817 
L 325.830682 -188.609727 
L 326.781818 -190.135125 
L 327.732955 -191.66172 
L 328.684091 -193.189217 
L 329.635227 -194.71732 
L 330.586364 -196.245726 
L 331.5375 -197.774132 
L 332.488636 -199.302231 
L 333.439773 -200.829712 
L 334.390909 -202.356263 
L 335.342045 -203.881567 
L 336.293182 -205.405306 
L 337.244318 -206.927159 
L 338.195455 -208.446803 
L 339.146591 -209.963911 
L 340.097727 -211.478156 
L 341.048864 -212.989208 
L 342 -214.496733 
L 342.951136 -216.000399 
L 343.902273 -217.499868 
L 344.853409 -218.994803 
L 345.804545 -220.484866 
L 346.755682 -221.969715 
L 347.706818 -223.449009 
L 348.657955 -224.922405 
L 349.609091 -226.389557 
L 350.560227 -227.850122 
L 351.511364 -229.303754 
L 352.4625 -230.750105 
L 353.413636 -232.18883 
L 354.364773 -233.61958 
L 355.315909 -235.042008 
L 356.267045 -236.455765 
L 357.218182 -237.860506 
L 358.169318 -239.255881 
L 359.120455 -240.641544 
L 360.071591 -242.017147 
L 361.022727 -243.382345 
L 361.973864 -244.736792 
L 362.925 -246.080143 
L 363.876136 -247.412055 
L 364.827273 -248.732186 
L 365.778409 -250.040194 
L 366.729545 -251.33574 
L 367.680682 -252.618485 
L 368.631818 -253.888093 
L 369.582955 -255.144231 
L 370.534091 -256.386565 
L 371.485227 -257.614765 
L 372.436364 -258.828504 
L 373.3875 -260.027456 
L 374.338636 -261.211299 
L 375.289773 -262.379712 
L 376.240909 -263.532379 
L 377.192045 -264.668985 
L 378.143182 -265.789219 
L 379.094318 -266.892775 
L 380.045455 -267.979348 
L 380.996591 -269.048637 
L 381.947727 -270.100347 
L 382.898864 -271.134184 
L 383.85 -272.149859 
L 384.801136 -273.147088 
L 385.752273 -274.125591 
L 386.703409 -275.085092 
L 387.654545 -276.025319 
L 388.605682 -276.946006 
L 389.556818 -277.846892 
L 390.507955 -278.727718 
L 391.459091 -279.588234 
L 392.410227 -280.428192 
L 393.361364 -281.247351 
L 394.3125 -282.045476 
L 395.263636 -282.822336 
L 396.214773 -283.577705 
L 397.165909 -284.311365 
L 398.117045 -285.023103 
L 399.068182 -285.712711 
L 400.019318 -286.379988 
L 400.970455 -287.024739 
L 401.921591 -287.646775 
L 402.872727 -288.245913 
L 403.823864 -288.821978 
L 404.775 -289.374799 
L 405.726136 -289.904214 
L 406.677273 -290.410066 
L 407.628409 -290.892205 
L 408.579545 -291.35049 
L 409.530682 -291.784783 
L 410.481818 -292.194956 
L 411.432955 -292.580887 
L 412.384091 -292.942462 
L 413.335227 -293.279571 
L 414.286364 -293.592116 
L 415.2375 -293.880003 
L 416.188636 -294.143145 
L 417.139773 -294.381464 
L 418.090909 -294.594889 
L 419.042045 -294.783356 
L 419.993182 -294.946808 
L 420.944318 -295.085197 
L 421.895455 -295.198481 
L 422.846591 -295.286626 
L 423.797727 -295.349605 
L 424.748864 -295.3874 
L 425.7 -295.4 
L 426.651136 -295.3874 
L 427.602273 -295.349605 
L 428.553409 -295.286626 
L 429.504545 -295.198481 
L 430.455682 -295.085197 
L 431.406818 -294.946808 
L 432.357955 -294.783356 
L 433.309091 -294.594889 
L 434.260227 -294.381464 
L 435.211364 -294.143145 
L 436.1625 -293.880003 
L 437.113636 -293.592116 
L 438.064773 -293.279571 
L 439.015909 -292.942462 
L 439.967045 -292.580887 
L 440.918182 -292.194956 
L 441.869318 -291.784783 
L 442.820455 -291.35049 
L 443.771591 -290.892205 
L 444.722727 -290.410066 
L 445.673864 -289.904214 
L 446.625 -289.374799 
L 447.576136 -288.821978 
L 448.527273 -288.245913 
L 449.478409 -287.646775 
L 450.429545 -287.024739 
L 451.380682 -286.379988 
L 452.331818 -285.712711 
L 453.282955 -285.023103 
L 454.234091 -284.311365 
L 455.185227 -283.577705 
L 456.136364 -282.822336 
L 457.0875 -282.045476 
L 458.038636 -281.247351 
L 458.989773 -280.428192 
L 459.940909 -279.588234 
L 460.892045 -278.727718 
L 461.843182 -277.846892 
L 462.794318 -276.946006 
L 463.745455 -276.025319 
L 464.696591 -275.085092 
L 465.647727 -274.125591 
L 466.598864 -273.147088 
L 467.55 -272.149859 
L 468.501136 -271.134184 
L 469.452273 -270.100347 
L 470.403409 -269.048637 
L 471.354545 -267.979348 
L 472.305682 -266.892775 
L 473.256818 -265.789219 
L 474.207955 -264.668985 
L 475.159091 -263.532379 
L 476.110227 -262.379712 
L 477.061364 -261.211299 
L 478.0125 -260.027456 
L 478.963636 -258.828504 
L 479.914773 -257.614765 
L 480.865909 -256.386565 
L 481.817045 -255.144231 
L 482.768182 -253.888093 
L 483.719318 -252.618485 
L 484.670455 -251.33574 
L 485.621591 -250.040194 
L 486.572727 -248.732186 
L 487.523864 -247.412055 
L 488.475 -246.080143 
L 489.426136 -244.736792 
L 490.377273 -243.382345 
L 491.328409 -242.017147 
L 492.279545 -240.641544 
L 493.230682 -239.255881 
L 494.181818 -237.860506 
L 495.132955 -236.455765 
L 496.084091 -235.042008 
L 497.035227 -233.61958 
L 497.986364 -232.18883 
L 498.9375 -230.750105 
L 499.888636 -229.303754 
L 500.839773 -227.850122 
L 501.790909 -226.389557 
L 502.742045 -224.922405 
L 503.693182 -223.449009 
L 504.644318 -221.969715 
L 505.595455 -220.484866 
L 506.546591 -218.994803 
L 507.497727 -217.499868 
L 508.448864 -216.000399 
L 509.4 -214.496733 
L 510.351136 -212.989208 
L 511.302273 -211.478156 
L 512.253409 -209.963911 
L 513.204545 -208.446803 
L 514.155682 -206.927159 
L 515.106818 -205.405306 
L 516.057955 -203.881567 
L 517.009091 -202.356263 
L 517.960227 -200.829712 
L 518.911364 -199.302231 
L 519.8625 -197.774132 
L 520.813636 -196.245726 
L 521.764773 -194.71732 
L 522.715909 -193.189217 
L 523.667045 -191.66172 
L 524.618182 -190.135125 
L 525.569318 -188.609727 
L 526.520455 -187.085817 
L 527.471591 -185.563683 
L 528.422727 -184.043608 
L 529.373864 -182.525873 
L 530.325 -181.010756 
L 531.276136 -179.498527 
L 532.227273 -177.989457 
L 533.178409 -176.483811 
L 534.129545 -174.981849 
L 535.080682 -173.48383 
L 536.031818 -171.990005 
L 536.982955 -170.500624 
L 537.934091 -169.015931 
L 538.885227 -167.536167 
L 539.836364 -166.061569 
L 540.7875 -164.592366 
L 541.738636 -163.128788 
L 542.689773 -161.671057 
L 543.640909 -160.219392 
L 544.592045 -158.774007 
L 545.543182 -157.335111 
L 546.494318 -155.90291 
L 547.445455 -154.477603 
L 548.396591 -153.059388 
L 549.347727 -151.648454 
L 550.298864 -150.244989 
L 551.25 -148.849175 
L 552.201136 -147.46119 
L 553.152273 -146.081205 
L 554.103409 -144.709389 
L 555.054545 -143.345905 
L 556.005682 -141.990912 
L 556.956818 -140.644564 
L 557.907955 -139.307011 
L 558.859091 -137.978397 
L 559.810227 -136.658862 
L 560.761364 -135.348541 
L 561.7125 -134.047566 
L 562.663636 -132.756062 
L 563.614773 -131.474151 
L 564.565909 -130.20195 
L 565.517045 -128.939571 
L 566.468182 -127.687122 
L 567.419318 -126.444706 
L 568.370455 -125.212422 
L 569.321591 -123.990364 
L 570.272727 -122.778622 
L 571.223864 -121.577282 
L 572.175 -120.386423 
L 573.126136 -119.206124 
L 574.077273 -118.036457 
L 575.028409 -116.877489 
L 575.979545 -115.729284 
L 576.930682 -114.591903 
L 577.881818 -113.4654 
L 578.832955 -112.349826 
L 579.784091 -111.24523 
L 580.735227 -110.151655 
L 581.686364 -109.069139 
L 582.6375 -107.997718 
L 583.588636 -106.937424 
L 584.539773 -105.888284 
L 585.490909 -104.850323 
L 586.442045 -103.82356 
L 587.393182 -102.808011 
L 588.344318 -101.803691 
L 589.295455 -100.810608 
L 590.246591 -99.828767 
L 591.197727 -98.858172 
L 592.148864 -97.898822 
L 593.1 -96.950712 
L 594.051136 -96.013834 
L 595.002273 -95.088178 
L 595.953409 -94.17373 
L 596.904545 -93.270472 
L 597.855682 -92.378385 
L 598.806818 -91.497446 
L 599.757955 -90.627629 
L 600.709091 -89.768905 
L 601.660227 -88.921243 
L 602.611364 -88.084607 
L 603.5625 -87.258962 
L 604.513636 -86.444269 
L 605.464773 -85.640484 
L 606.415909 -84.847563 
L 607.367045 -84.06546 
L 608.318182 -83.294126 
L 609.269318 -82.533508 
L 610.220455 -81.783554 
L 611.171591 -81.044207 
L 612.122727 -80.31541 
L 613.073864 -79.597103 
L 614.025 -78.889224 
L 614.976136 -78.191708 
L 615.927273 -77.504491 
L 616.878409 -76.827506 
L 617.829545 -76.160682 
L 618.780682 -75.50395 
L 619.731818 -74.857238 
L 620.682955 -74.22047 
L 621.634091 -73.593573 
L 622.585227 -72.976469 
L 623.536364 -72.369081 
L 624.4875 -71.771329 
L 625.438636 -71.183132 
L 626.389773 -70.60441 
L 627.340909 -70.035078 
L 628.292045 -69.475054 
L 629.243182 -68.924253 
L 630.194318 -68.382588 
L 631.145455 -67.849972 
L 632.096591 -67.32632 
L 633.047727 -66.811541 
L 633.998864 -66.305547 
L 634.95 -65.808248 
L 635.901136 -65.319553 
L 636.852273 -64.839373 
L 637.803409 -64.367615 
L 638.754545 -63.904187 
L 639.705682 -63.448996 
L 640.656818 -63.001951 
L 641.607955 -62.562957 
L 642.559091 -62.131921 
L 643.510227 -61.70875 
L 644.461364 -61.293349 
L 645.4125 -60.885625 
L 646.363636 -60.485482 
L 647.314773 -60.092827 
L 648.265909 -59.707565 
L 649.217045 -59.329601 
L 650.168182 -58.958842 
L 651.119318 -58.595192 
L 652.070455 -58.238558 
L 653.021591 -57.888846 
L 653.972727 -57.54596 
L 654.923864 -57.209808 
L 655.875 -56.880296 
L 656.826136 -56.557331 
L 657.777273 -56.240819 
L 658.728409 -55.930668 
L 659.679545 -55.626786 
L 660.630682 -55.32908 
L 661.581818 -55.037459 
L 662.532955 -54.751831 
L 663.484091 -54.472107 
L 664.435227 -54.198196 
L 665.386364 -53.930008 
L 666.3375 -53.667454 
L 667.288636 -53.410445 
L 668.239773 -53.158894 
L 669.190909 -52.912713 
L 670.142045 -52.671814 
L 671.093182 -52.436113 
L 672.044318 -52.205523 
L 672.995455 -51.979959 
L 673.946591 -51.759337 
L 674.897727 -51.543573 
L 675.848864 -51.332586 
L 676.8 -51.126292 
L 677.751136 -50.924611 
L 678.702273 -50.727461 
L 679.653409 -50.534763 
L 680.604545 -50.346439 
L 681.555682 -50.162408 
L 682.506818 -49.982595 
L 683.457955 -49.806923 
L 684.409091 -49.635315 
L 685.360227 -49.467697 
L 686.311364 -49.303994 
L 687.2625 -49.144134 
L 688.213636 -48.988043 
L 689.164773 -48.83565 
L 690.115909 -48.686884 
L 691.067045 -48.541676 
L 692.018182 -48.399956 
L 692.969318 -48.261656 
L 693.920455 -48.126709 
L 694.871591 -47.995047 
L 695.822727 -47.866607 
L 696.773864 -47.741323 
L 697.725 -47.619131 
L 698.676136 -47.499968 
L 699.627273 -47.383772 
L 700.578409 -47.270482 
L 701.529545 -47.160038 
L 702.480682 -47.05238 
L 703.431818 -46.94745 
L 704.382955 -46.84519 
L 705.334091 -46.745543 
L 706.285227 -46.648454 
L 707.236364 -46.553866 
L 708.1875 -46.461727 
L 709.138636 -46.371982 
L 710.089773 -46.284579 
L 711.040909 -46.199467 
L 711.992045 -46.116595 
L 712.943182 -46.035912 
L 713.894318 -45.957369 
L 714.845455 -45.880919 
L 715.796591 -45.806514 
L 716.747727 -45.734106 
L 717.698864 -45.663651 
L 718.65 -45.595103 
L 719.601136 -45.528418 
L 720.552273 -45.463553 
L 721.503409 -45.400464 
L 722.454545 -45.33911 
L 723.405682 -45.27945 
L 724.356818 -45.221443 
L 725.307955 -45.16505 
L 726.259091 -45.110232 
L 727.210227 -45.056951 
L 728.161364 -45.005169 
L 729.1125 -44.95485 
L 730.063636 -44.905958 
L 731.014773 -44.858457 
L 731.965909 -44.812313 
L 732.917045 -44.767493 
L 733.868182 -44.723962 
L 734.819318 -44.681689 
L 735.770455 -44.640642 
L 736.721591 -44.600789 
L 737.672727 -44.5621 
L 738.623864 -44.524546 
L 739.575 -44.488096 
L 740.526136 -44.452722 
L 741.477273 -44.418396 
L 742.428409 -44.385091 
L 743.379545 -44.35278 
L 744.330682 -44.321437 
L 745.281818 -44.291036 
L 746.232955 -44.261551 
L 747.184091 -44.232959 
L 748.135227 -44.205235 
L 749.086364 -44.178356 
L 750.0375 -44.152299 
L 750.988636 -44.127042 
L 751.939773 -44.102563 
L 752.890909 -44.078839 
L 753.842045 -44.055851 
L 754.793182 -44.033579 
L 755.744318 -44.012001 
L 756.695455 -43.9911 
L 757.646591 -43.970855 
L 758.597727 -43.951248 
L 759.548864 -43.932261 
L 760.5 -43.913877 
L 761.451136 -43.896079 
L 762.402273 -43.878849 
L 763.353409 -43.862171 
L 764.304545 -43.846029 
L 765.255682 -43.830408 
L 766.206818 -43.815293 
L 767.157955 -43.800668 
L 768.109091 -43.78652 
L 769.060227 -43.772834 
L 770.011364 -43.759597 
L 770.9625 -43.746795 
L 771.913636 -43.734416 
L 772.864773 -43.722446 
L 773.815909 -43.710873 
L 774.767045 -43.699686 
L 775.718182 -43.688872 
L 776.669318 -43.678421 
L 777.620455 -43.668321 
L 778.571591 -43.658562 
L 779.522727 -43.649132 
L 780.473864 -43.640023 
L 781.425 -43.631223 
L 782.376136 -43.622724 
L 783.327273 -43.614516 
L 784.278409 -43.60659 
L 785.229545 -43.598936 
L 786.180682 -43.591547 
L 787.131818 -43.584414 
L 788.082955 -43.577529 
L 789.034091 -43.570884 
L 789.985227 -43.564471 
L 790.936364 -43.558283 
L 791.8875 -43.552313 
L 792.838636 -43.546553 
L 793.789773 -43.540996 
L 794.740909 -43.535637 
L 795.692045 -43.530469 
L 796.643182 -43.525485 
L 797.594318 -43.520679 
L 798.545455 -43.516046 
L 799.496591 -43.511579 
L 800.447727 -43.507274 
L 801.398864 -43.503124 
L 802.35 -43.499125 
L 803.301136 -43.495272 
L 804.252273 -43.491559 
L 805.203409 -43.487982 
L 806.154545 -43.484537 
L 806.154545 -43.4 
L 806.154545 -43.4 
L 805.203409 -43.4 
L 804.252273 -43.4 
L 803.301136 -43.4 
L 802.35 -43.4 
L 801.398864 -43.4 
L 800.447727 -43.4 
L 799.496591 -43.4 
L 798.545455 -43.4 
L 797.594318 -43.4 
L 796.643182 -43.4 
L 795.692045 -43.4 
L 794.740909 -43.4 
L 793.789773 -43.4 
L 792.838636 -43.4 
L 791.8875 -43.4 
L 790.936364 -43.4 
L 789.985227 -43.4 
L 789.034091 -43.4 
L 788.082955 -43.4 
L 787.131818 -43.4 
L 786.180682 -43.4 
L 785.229545 -43.4 
L 784.278409 -43.4 
L 783.327273 -43.4 
L 782.376136 -43.4 
L 781.425 -43.4 
L 780.473864 -43.4 
L 779.522727 -43.4 
L 778.571591 -43.4 
L 777.620455 -43.4 
L 776.669318 -43.4 
L 775.718182 -43.4 
L 774.767045 -43.4 
L 773.815909 -43.4 
L 772.864773 -43.4 
L 771.913636 -43.4 
L 770.9625 -43.4 
L 770.011364 -43.4 
L 769.060227 -43.4 
L 768.109091 -43.4 
L 767.157955 -43.4 
L 766.206818 -43.4 
L 765.255682 -43.4 
L 764.304545 -43.4 
L 763.353409 -43.4 
L 762.402273 -43.4 
L 761.451136 -43.4 
L 760.5 -43.4 
L 759.548864 -43.4 
L 758.597727 -43.4 
L 757.646591 -43.4 
L 756.695455 -43.4 
L 755.744318 -43.4 
L 754.793182 -43.4 
L 753.842045 -43.4 
L 752.890909 -43.4 
L 751.939773 -43.4 
L 750.988636 -43.4 
L 750.0375 -43.4 
L 749.086364 -43.4 
L 748.135227 -43.4 
L 747.184091 -43.4 
L 746.232955 -43.4 
L 745.281818 -43.4 
L 744.330682 -43.4 
L 743.379545 -43.4 
L 742.428409 -43.4 
L 741.477273 -43.4 
L 740.526136 -43.4 
L 739.575 -43.4 
L 738.623864 -43.4 
L 737.672727 -43.4 
L 736.721591 -43.4 
L 735.770455 -43.4 
L 734.819318 -43.4 
L 733.868182 -43.4 
L 732.917045 -43.4 
L 731.965909 -43.4 
L 731.014773 -43.4 
L 730.063636 -43.4 
L 729.1125 -43.4 
L 728.161364 -43.4 
L 727.210227 -43.4 
L 726.259091 -43.4 
L 725.307955 -43.4 
L 724.356818 -43.4 
L 723.405682 -43.4 
L 722.454545 -43.4 
L 721.503409 -43.4 
L 720.552273 -43.4 
L 719.601136 -43.4 
L 718.65 -43.4 
L 717.698864 -43.4 
L 716.747727 -43.4 
L 715.796591 -43.4 
L 714.845455 -43.4 
L 713.894318 -43.4 
L 712.943182 -43.4 
L 711.992045 -43.4 
L 711.040909 -43.4 
L 710.089773 -43.4 
L 709.138636 -43.4 
L 708.1875 -43.4 
L 707.236364 -43.4 
L 706.285227 -43.4 
L 705.334091 -43.4 
L 704.382955 -43.4 
L 703.431818 -43.4 
L 702.480682 -43.4 
L 701.529545 -43.4 
L 700.578409 -43.4 
L 699.627273 -43.4 
L 698.676136 -43.4 
L 697.725 -43.4 
L 696.773864 -43.4 
L 695.822727 -43.4 
L 694.871591 -43.4 
L 693.920455 -43.4 
L 692.969318 -43.4 
L 692.018182 -43.4 
L 691.067045 -43.4 
L 690.115909 -43.4 
L 689.164773 -43.4 
L 688.213636 -43.4 
L 687.2625 -43.4 
L 686.311364 -43.4 
L 685.360227 -43.4 
L 684.409091 -43.4 
L 683.457955 -43.4 
L 682.506818 -43.4 
L 681.555682 -43.4 
L 680.604545 -43.4 
L 679.653409 -43.4 
L 678.702273 -43.4 
L 677.751136 -43.4 
L 676.8 -43.4 
L 675.848864 -43.4 
L 674.897727 -43.4 
L 673.946591 -43.4 
L 672.995455 -43.4 
L 672.044318 -43.4 
L 671.093182 -43.4 
L 670.142045 -43.4 
L 669.190909 -43.4 
L 668.239773 -43.4 
L 667.288636 -43.4 
L 666.3375 -43.4 
L 665.386364 -43.4 
L 664.435227 -43.4 
L 663.484091 -43.4 
L 662.532955 -43.4 
L 661.581818 -43.4 
L 660.630682 -43.4 
L 659.679545 -43.4 
L 658.728409 -43.4 
L 657.777273 -43.4 
L 656.826136 -43.4 
L 655.875 -43.4 
L 654.923864 -43.4 
L 653.972727 -43.4 
L 653.021591 -43.4 
L 652.070455 -43.4 
L 651.119318 -43.4 
L 650.168182 -43.4 
L 649.217045 -43.4 
L 648.265909 -43.4 
L 647.314773 -43.4 
L 646.363636 -43.4 
L 645.4125 -43.4 
L 644.461364 -43.4 
L 643.510227 -43.4 
L 642.559091 -43.4 
L 641.607955 -43.4 
L 640.656818 -43.4 
L 639.705682 -43.4 
L 638.754545 -43.4 
L 637.803409 -43.4 
L 636.852273 -43.4 
L 635.901136 -43.4 
L 634.95 -43.4 
L 633.998864 -43.4 
L 633.047727 -43.4 
L 632.096591 -43.4 
L 631.145455 -43.4 
L 630.194318 -43.4 
L 629.243182 -43.4 
L 628.292045 -43.4 
L 627.340909 -43.4 
L 626.389773 -43.4 
L 625.438636 -43.4 
L 624.4875 -43.4 
L 623.536364 -43.4 
L 622.585227 -43.4 
L 621.634091 -43.4 
L 620.682955 -43.4 
L 619.731818 -43.4 
L 618.780682 -43.4 
L 617.829545 -43.4 
L 616.878409 -43.4 
L 615.927273 -43.4 
L 614.976136 -43.4 
L 614.025 -43.4 
L 613.073864 -43.4 
L 612.122727 -43.4 
L 611.171591 -43.4 
L 610.220455 -43.4 
L 609.269318 -43.4 
L 608.318182 -43.4 
L 607.367045 -43.4 
L 606.415909 -43.4 
L 605.464773 -43.4 
L 604.513636 -43.4 
L 603.5625 -43.4 
L 602.611364 -43.4 
L 601.660227 -43.4 
L 600.709091 -43.4 
L 599.757955 -43.4 
L 598.806818 -43.4 
L 597.855682 -43.4 
L 596.904545 -43.4 
L 595.953409 -43.4 
L 595.002273 -43.4 
L 594.051136 -43.4 
L 593.1 -43.4 
L 592.148864 -43.4 
L 591.197727 -43.4 
L 590.246591 -43.4 
L 589.295455 -43.4 
L 588.344318 -43.4 
L 587.393182 -43.4 
L 586.442045 -43.4 
L 585.490909 -43.4 
L 584.539773 -43.4 
L 583.588636 -43.4 
L 582.6375 -43.4 
L 581.686364 -43.4 
L 580.735227 -43.4 
L 579.784091 -43.4 
L 578.832955 -43.4 
L 577.881818 -43.4 
L 576.930682 -43.4 
L 575.979545 -43.4 
L 575.028409 -43.4 
L 574.077273 -43.4 
L 573.126136 -43.4 
L 572.175 -43.4 
L 571.223864 -43.4 
L 570.272727 -43.4 
L 569.321591 -43.4 
L 568.370455 -43.4 
L 567.419318 -43.4 
L 566.468182 -43.4 
L 565.517045 -43.4 
L 564.565909 -43.4 
L 563.614773 -43.4 
L 562.663636 -43.4 
L 561.7125 -43.4 
L 560.761364 -43.4 
L 559.810227 -43.4 
L 558.859091 -43.4 
L 557.907955 -43.4 
L 556.956818 -43.4 
L 556.005682 -43.4 
L 555.054545 -43.4 
L 554.103409 -43.4 
L 553.152273 -43.4 
L 552.201136 -43.4 
L 551.25 -43.4 
L 550.298864 -43.4 
L 549.347727 -43.4 
L 548.396591 -43.4 
L 547.445455 -43.4 
L 546.494318 -43.4 
L 545.543182 -43.4 
L 544.592045 -43.4 
L 543.640909 -43.4 
L 542.689773 -43.4 
L 541.738636 -43.4 
L 540.7875 -43.4 
L 539.836364 -43.4 
L 538.885227 -43.4 
L 537.934091 -43.4 
L 536.982955 -43.4 
L 536.031818 -43.4 
L 535.080682 -43.4 
L 534.129545 -43.4 
L 533.178409 -43.4 
L 532.227273 -43.4 
L 531.276136 -43.4 
L 530.325 -43.4 
L 529.373864 -43.4 
L 528.422727 -43.4 
L 527.471591 -43.4 
L 526.520455 -43.4 
L 525.569318 -43.4 
L 524.618182 -43.4 
L 523.667045 -43.4 
L 522.715909 -43.4 
L 521.764773 -43.4 
L 520.813636 -43.4 
L 519.8625 -43.4 
L 518.911364 -43.4 
L 517.960227 -43.4 
L 517.009091 -43.4 
L 516.057955 -43.4 
L 515.106818 -43.4 
L 514.155682 -43.4 
L 513.204545 -43.4 
L 512.253409 -43.4 
L 511.302273 -43.4 
L 510.351136 -43.4 
L 509.4 -43.4 
L 508.448864 -43.4 
L 507.497727 -43.4 
L 506.546591 -43.4 
L 505.595455 -43.4 
L 504.644318 -43.4 
L 503.693182 -43.4 
L 502.742045 -43.4 
L 501.790909 -43.4 
L 500.839773 -43.4 
L 499.888636 -43.4 
L 498.9375 -43.4 
L 497.986364 -43.4 
L 497.035227 -43.4 
L 496.084091 -43.4 
L 495.132955 -43.4 
L 494.181818 -43.4 
L 493.230682 -43.4 
L 492.279545 -43.4 
L 491.328409 -43.4 
L 490.377273 -43.4 
L 489.426136 -43.4 
L 488.475 -43.4 
L 487.523864 -43.4 
L 486.572727 -43.4 
L 485.621591 -43.4 
L 484.670455 -43.4 
L 483.719318 -43.4 
L 482.768182 -43.4 
L 481.817045 -43.4 
L 480.865909 -43.4 
L 479.914773 -43.4 
L 478.963636 -43.4 
L 478.0125 -43.4 
L 477.061364 -43.4 
L 476.110227 -43.4 
L 475.159091 -43.4 
L 474.207955 -43.4 
L 473.256818 -43.4 
L 472.305682 -43.4 
L 471.354545 -43.4 
L 470.403409 -43.4 
L 469.452273 -43.4 
L 468.501136 -43.4 
L 467.55 -43.4 
L 466.598864 -43.4 
L 465.647727 -43.4 
L 464.696591 -43.4 
L 463.745455 -43.4 
L 462.794318 -43.4 
L 461.843182 -43.4 
L 460.892045 -43.4 
L 459.940909 -43.4 
L 458.989773 -43.4 
L 458.038636 -43.4 
L 457.0875 -43.4 
L 456.136364 -43.4 
L 455.185227 -43.4 
L 454.234091 -43.4 
L 453.282955 -43.4 
L 452.331818 -43.4 
L 451.380682 -43.4 
L 450.429545 -43.4 
L 449.478409 -43.4 
L 448.527273 -43.4 
L 447.576136 -43.4 
L 446.625 -43.4 
L 445.673864 -43.4 
L 444.722727 -43.4 
L 443.771591 -43.4 
L 442.820455 -43.4 
L 441.869318 -43.4 
L 440.918182 -43.4 
L 439.967045 -43.4 
L 439.015909 -43.4 
L 438.064773 -43.4 
L 437.113636 -43.4 
L 436.1625 -43.4 
L 435.211364 -43.4 
L 434.260227 -43.4 
L 433.309091 -43.4 
L 432.357955 -43.4 
L 431.406818 -43.4 
L 430.455682 -43.4 
L 429.504545 -43.4 
L 428.553409 -43.4 
L 427.602273 -43.4 
L 426.651136 -43.4 
L 425.7 -43.4 
L 424.748864 -43.4 
L 423.797727 -43.4 
L 422.846591 -43.4 
L 421.895455 -43.4 
L 420.944318 -43.4 
L 419.993182 -43.4 
L 419.042045 -43.4 
L 418.090909 -43.4 
L 417.139773 -43.4 
L 416.188636 -43.4 
L 415.2375 -43.4 
L 414.286364 -43.4 
L 413.335227 -43.4 
L 412.384091 -43.4 
L 411.432955 -43.4 
L 410.481818 -43.4 
L 409.530682 -43.4 
L 408.579545 -43.4 
L 407.628409 -43.4 
L 406.677273 -43.4 
L 405.726136 -43.4 
L 404.775 -43.4 
L 403.823864 -43.4 
L 402.872727 -43.4 
L 401.921591 -43.4 
L 400.970455 -43.4 
L 400.019318 -43.4 
L 399.068182 -43.4 
L 398.117045 -43.4 
L 397.165909 -43.4 
L 396.214773 -43.4 
L 395.263636 -43.4 
L 394.3125 -43.4 
L 393.361364 -43.4 
L 392.410227 -43.4 
L 391.459091 -43.4 
L 390.507955 -43.4 
L 389.556818 -43.4 
L 388.605682 -43.4 
L 387.654545 -43.4 
L 386.703409 -43.4 
L 385.752273 -43.4 
L 384.801136 -43.4 
L 383.85 -43.4 
L 382.898864 -43.4 
L 381.947727 -43.4 
L 380.996591 -43.4 
L 380.045455 -43.4 
L 379.094318 -43.4 
L 378.143182 -43.4 
L 377.192045 -43.4 
L 376.240909 -43.4 
L 375.289773 -43.4 
L 374.338636 -43.4 
L 373.3875 -43.4 
L 372.436364 -43.4 
L 371.485227 -43.4 
L 370.534091 -43.4 
L 369.582955 -43.4 
L 368.631818 -43.4 
L 367.680682 -43.4 
L 366.729545 -43.4 
L 365.778409 -43.4 
L 364.827273 -43.4 
L 363.876136 -43.4 
L 362.925 -43.4 
L 361.973864 -43.4 
L 361.022727 -43.4 
L 360.071591 -43.4 
L 359.120455 -43.4 
L 358.169318 -43.4 
L 357.218182 -43.4 
L 356.267045 -43.4 
L 355.315909 -43.4 
L 354.364773 -43.4 
L 353.413636 -43.4 
L 352.4625 -43.4 
L 351.511364 -43.4 
L 350.560227 -43.4 
L 349.609091 -43.4 
L 348.657955 -43.4 
L 347.706818 -43.4 
L 346.755682 -43.4 
L 345.804545 -43.4 
L 344.853409 -43.4 
L 343.902273 -43.4 
L 342.951136 -43.4 
L 342 -43.4 
L 341.048864 -43.4 
L 340.097727 -43.4 
L 339.146591 -43.4 
L 338.195455 -43.4 
L 337.244318 -43.4 
L 336.293182 -43.4 
L 335.342045 -43.4 
L 334.390909 -43.4 
L 333.439773 -43.4 
L 332.488636 -43.4 
L 331.5375 -43.4 
L 330.586364 -43.4 
L 329.635227 -43.4 
L 328.684091 -43.4 
L 327.732955 -43.4 
L 326.781818 -43.4 
L 325.830682 -43.4 
L 324.879545 -43.4 
L 323.928409 -43.4 
L 322.977273 -43.4 
L 322.026136 -43.4 
L 321.075 -43.4 
L 320.123864 -43.4 
L 319.172727 -43.4 
L 318.221591 -43.4 
L 317.270455 -43.4 
L 316.319318 -43.4 
L 315.368182 -43.4 
L 314.417045 -43.4 
L 313.465909 -43.4 
L 312.514773 -43.4 
L 311.563636 -43.4 
L 310.6125 -43.4 
L 309.661364 -43.4 
L 308.710227 -43.4 
L 307.759091 -43.4 
L 306.807955 -43.4 
L 305.856818 -43.4 
L 304.905682 -43.4 
L 303.954545 -43.4 
L 303.003409 -43.4 
L 302.052273 -43.4 
L 301.101136 -43.4 
L 300.15 -43.4 
L 299.198864 -43.4 
L 298.247727 -43.4 
L 297.296591 -43.4 
L 296.345455 -43.4 
L 295.394318 -43.4 
L 294.443182 -43.4 
L 293.492045 -43.4 
L 292.540909 -43.4 
L 291.589773 -43.4 
L 290.638636 -43.4 
L 289.6875 -43.4 
L 288.736364 -43.4 
L 287.785227 -43.4 
L 286.834091 -43.4 
L 285.882955 -43.4 
L 284.931818 -43.4 
L 283.980682 -43.4 
L 283.029545 -43.4 
L 282.078409 -43.4 
L 281.127273 -43.4 
L 280.176136 -43.4 
L 279.225 -43.4 
L 278.273864 -43.4 
L 277.322727 -43.4 
L 276.371591 -43.4 
L 275.420455 -43.4 
L 274.469318 -43.4 
L 273.518182 -43.4 
L 272.567045 -43.4 
L 271.615909 -43.4 
L 270.664773 -43.4 
L 269.713636 -43.4 
L 268.7625 -43.4 
L 267.811364 -43.4 
L 266.860227 -43.4 
L 265.909091 -43.4 
L 264.957955 -43.4 
L 264.006818 -43.4 
L 263.055682 -43.4 
L 262.104545 -43.4 
L 261.153409 -43.4 
L 260.202273 -43.4 
L 259.251136 -43.4 
L 258.3 -43.4 
L 257.348864 -43.4 
L 256.397727 -43.4 
L 255.446591 -43.4 
L 254.495455 -43.4 
L 253.544318 -43.4 
L 252.593182 -43.4 
L 251.642045 -43.4 
L 250.690909 -43.4 
L 249.739773 -43.4 
L 248.788636 -43.4 
L 247.8375 -43.4 
L 246.886364 -43.4 
L 245.935227 -43.4 
L 244.984091 -43.4 
L 244.032955 -43.4 
L 243.081818 -43.4 
L 242.130682 -43.4 
L 241.179545 -43.4 
L 240.228409 -43.4 
L 239.277273 -43.4 
L 238.326136 -43.4 
L 237.375 -43.4 
L 236.423864 -43.4 
L 235.472727 -43.4 
L 234.521591 -43.4 
L 233.570455 -43.4 
L 232.619318 -43.4 
L 231.668182 -43.4 
L 230.717045 -43.4 
L 229.765909 -43.4 
L 228.814773 -43.4 
L 227.863636 -43.4 
L 226.9125 -43.4 
L 225.961364 -43.4 
L 225.010227 -43.4 
L 224.059091 -43.4 
L 223.107955 -43.4 
L 222.156818 -43.4 
L 221.205682 -43.4 
L 220.254545 -43.4 
L 219.303409 -43.4 
L 218.352273 -43.4 
L 217.401136 -43.4 
L 216.45 -43.4 
L 215.498864 -43.4 
L 214.547727 -43.4 
L 213.596591 -43.4 
L 212.645455 -43.4 
L 211.694318 -43.4 
L 210.743182 -43.4 
L 209.792045 -43.4 
L 208.840909 -43.4 
L 207.889773 -43.4 
L 206.938636 -43.4 
L 205.9875 -43.4 
L 205.036364 -43.4 
L 204.085227 -43.4 
L 203.134091 -43.4 
L 202.182955 -43.4 
L 201.231818 -43.4 
L 200.280682 -43.4 
L 199.329545 -43.4 
L 198.378409 -43.4 
L 197.427273 -43.4 
L 196.476136 -43.4 
L 195.525 -43.4 
L 194.573864 -43.4 
L 193.622727 -43.4 
L 192.671591 -43.4 
L 191.720455 -43.4 
L 190.769318 -43.4 
L 189.818182 -43.4 
L 188.867045 -43.4 
L 187.915909 -43.4 
L 186.964773 -43.4 
L 186.013636 -43.4 
L 185.0625 -43.4 
L 184.111364 -43.4 
L 183.160227 -43.4 
L 182.209091 -43.4 
L 181.257955 -43.4 
L 180.306818 -43.4 
L 179.355682 -43.4 
L 178.404545 -43.4 
L 177.453409 -43.4 
L 176.502273 -43.4 
L 175.551136 -43.4 
L 174.6 -43.4 
L 173.648864 -43.4 
L 172.697727 -43.4 
L 171.746591 -43.4 
L 170.795455 -43.4 
L 169.844318 -43.4 
L 168.893182 -43.4 
L 167.942045 -43.4 
L 166.990909 -43.4 
L 166.039773 -43.4 
L 165.088636 -43.4 
L 164.1375 -43.4 
L 163.186364 -43.4 
L 162.235227 -43.4 
L 161.284091 -43.4 
L 160.332955 -43.4 
L 159.381818 -43.4 
L 158.430682 -43.4 
L 157.479545 -43.4 
L 156.528409 -43.4 
L 155.577273 -43.4 
L 154.626136 -43.4 
L 153.675 -43.4 
L 152.723864 -43.4 
L 151.772727 -43.4 
L 150.821591 -43.4 
L 149.870455 -43.4 
L 148.919318 -43.4 
L 147.968182 -43.4 
L 147.017045 -43.4 
L 146.065909 -43.4 
L 145.114773 -43.4 
L 144.163636 -43.4 
L 143.2125 -43.4 
L 142.261364 -43.4 
L 141.310227 -43.4 
L 140.359091 -43.4 
L 139.407955 -43.4 
L 138.456818 -43.4 
L 137.505682 -43.4 
L 136.554545 -43.4 
L 135.603409 -43.4 
L 134.652273 -43.4 
L 133.701136 -43.4 
L 132.75 -43.4 
L 131.798864 -43.4 
L 130.847727 -43.4 
L 129.896591 -43.4 
L 128.945455 -43.4 
L 127.994318 -43.4 
L 127.043182 -43.4 
L 126.092045 -43.4 
L 125.140909 -43.4 
L 124.189773 -43.4 
L 123.238636 -43.4 
L 122.2875 -43.4 
L 121.336364 -43.4 
L 120.385227 -43.4 
L 119.434091 -43.4 
L 118.482955 -43.4 
L 117.531818 -43.4 
L 116.580682 -43.4 
L 115.629545 -43.4 
L 114.678409 -43.4 
L 113.727273 -43.4 
L 112.776136 -43.4 
L 111.825 -43.4 
L 110.873864 -43.4 
L 109.922727 -43.4 
L 108.971591 -43.4 
L 108.020455 -43.4 
L 107.069318 -43.4 
L 106.118182 -43.4 
L 105.167045 -43.4 
L 104.215909 -43.4 
L 103.264773 -43.4 
L 102.313636 -43.4 
L 101.3625 -43.4 
L 100.411364 -43.4 
L 99.460227 -43.4 
L 98.509091 -43.4 
L 97.557955 -43.4 
L 96.606818 -43.4 
L 95.655682 -43.4 
L 94.704545 -43.4 
L 93.753409 -43.4 
L 92.802273 -43.4 
L 91.851136 -43.4 
L 90.9 -43.4 
L 89.948864 -43.4 
L 88.997727 -43.4 
L 88.046591 -43.4 
L 87.095455 -43.4 
L 86.144318 -43.4 
L 85.193182 -43.4 
L 84.242045 -43.4 
L 83.290909 -43.4 
L 82.339773 -43.4 
L 81.388636 -43.4 
L 80.4375 -43.4 
L 79.486364 -43.4 
L 78.535227 -43.4 
L 77.584091 -43.4 
L 76.632955 -43.4 
L 75.681818 -43.4 
L 74.730682 -43.4 
L 73.779545 -43.4 
L 72.828409 -43.4 
L 71.877273 -43.4 
L 70.926136 -43.4 
L 69.975 -43.4 
L 69.023864 -43.4 
L 68.072727 -43.4 
L 67.121591 -43.4 
L 66.170455 -43.4 
L 65.219318 -43.4 
L 64.268182 -43.4 
L 63.317045 -43.4 
L 62.365909 -43.4 
L 61.414773 -43.4 
L 60.463636 -43.4 
L 59.5125 -43.4 
L 58.561364 -43.4 
L 57.610227 -43.4 
L 56.659091 -43.4 
L 55.707955 -43.4 
L 54.756818 -43.4 
L 53.805682 -43.4 
L 52.854545 -43.4 
L 51.903409 -43.4 
L 50.952273 -43.4 
L 50.001136 -43.4 
L 49.05 -43.4 
L 48.098864 -43.4 
L 47.147727 -43.4 
L 46.196591 -43.4 
L 45.245455 -43.4 
z
" style="stroke: #e64173; stroke-opacity: 0.9"/>
    </defs>
    <g clip-path="url(#pdd9d33670d)">
     <use xlink:href="#m229f9d2403" x="0" y="315.2" style="fill: #e64173; fill-opacity: 0.9; stroke: #e64173; stroke-opacity: 0.9"/>
    </g>
   </g>
   <g id="line2d_1">
    <path d="M 425.7 284.4 
L 425.7 7.2 
" clip-path="url(#pdd9d33670d)" style="fill: none; stroke-dasharray: 3.7,1.6; stroke-dashoffset: 0; stroke: #000000"/>
   </g>
  </g>
 </g>
 <defs>
  <clipPath id="pdd9d33670d">
   <rect x="7.2" y="7.2" width="837" height="277.2"/>
  </clipPath>
 </defs>
</svg>
