<?xml version="1.0" encoding="utf-8" standalone="no"?>
<!DOCTYPE svg PUBLIC "-//W3C//DTD SVG 1.1//EN"
  "http://www.w3.org/Graphics/SVG/1.1/DTD/svg11.dtd">
<svg xmlns:xlink="http://www.w3.org/1999/xlink" width="851.4pt" height="315.2pt" viewBox="0 0 851.4 315.2" xmlns="http://www.w3.org/2000/svg" version="1.1">
 <metadata>
  <rdf:RDF xmlns:dc="http://purl.org/dc/elements/1.1/" xmlns:cc="http://creativecommons.org/ns#" xmlns:rdf="http://www.w3.org/1999/02/22-rdf-syntax-ns#">
   <cc:Work>
    <dc:type rdf:resource="http://purl.org/dc/dcmitype/StillImage"/>
    <dc:date>2024-01-22T18:40:22.985053</dc:date>
    <dc:format>image/svg+xml</dc:format>
    <dc:creator>
     <cc:Agent>
      <dc:title>Matplotlib v3.7.2, https://matplotlib.org/</dc:title>
     </cc:Agent>
    </dc:creator>
   </cc:Work>
  </rdf:RDF>
 </metadata>
 <defs>
  <style type="text/css">*{stroke-linejoin: round; stroke-linecap: butt}</style>
 </defs>
 <g id="figure_1">
  <g id="patch_1">
   <path d="M 0 315.2 
L 851.4 315.2 
L 851.4 0 
L 0 0 
z
" style="fill: #ffffff"/>
  </g>
  <g id="axes_1">
   <g id="matplotlib.axis_1">
    <g id="xtick_1"/>
    <g id="xtick_2"/>
    <g id="xtick_3"/>
    <g id="xtick_4"/>
    <g id="xtick_5"/>
    <g id="xtick_6"/>
    <g id="xtick_7"/>
    <g id="xtick_8"/>
    <g id="xtick_9"/>
    <g id="text_1">
     <!-- $\beta$ -->
     <g style="fill: #262626" transform="translate(419.3 303.8) scale(0.2 -0.2)">
      <defs>
       <path id="DejaVuSans-Oblique-3b2" d="M 872 216 
L 572 -1331 
L -6 -1331 
L 928 3478 
Q 1206 4903 2538 4903 
Q 3888 4903 3659 3700 
Q 3503 2844 2894 2531 
Q 3713 2250 3553 1416 
Q 3272 -69 1759 -66 
Q 1097 -63 872 216 
z
M 1019 966 
Q 1259 422 1875 425 
Q 2775 425 2966 1406 
Q 3138 2288 1675 2219 
L 1778 2750 
Q 2909 2731 3106 3750 
Q 3241 4438 2509 4434 
Q 1691 4434 1503 3459 
L 1019 966 
z
" transform="scale(0.015625)"/>
      </defs>
      <use xlink:href="#DejaVuSans-Oblique-3b2" transform="translate(0 0.390625)"/>
     </g>
    </g>
   </g>
   <g id="matplotlib.axis_2">
    <g id="ytick_1"/>
    <g id="ytick_2"/>
    <g id="ytick_3"/>
    <g id="ytick_4"/>
    <g id="ytick_5"/>
    <g id="ytick_6"/>
    <g id="ytick_7"/>
    <g id="ytick_8"/>
    <g id="ytick_9"/>
   </g>
   <g id="PolyCollection_1">
    <defs>
     <path id="m4f86b42033" d="M 45.245455 -43.4 
L 45.245455 -43.4 
L 46.196591 -43.4 
L 47.147727 -43.4 
L 48.098864 -43.4 
L 49.05 -43.4 
L 50.001136 -43.4 
L 50.952273 -43.4 
L 51.903409 -43.4 
L 52.854545 -43.4 
L 53.805682 -43.4 
L 54.756818 -43.4 
L 55.707955 -43.4 
L 56.659091 -43.4 
L 57.610227 -43.4 
L 58.561364 -43.4 
L 59.5125 -43.4 
L 60.463636 -43.4 
L 61.414773 -43.4 
L 62.365909 -43.4 
L 63.317045 -43.4 
L 64.268182 -43.4 
L 65.219318 -43.4 
L 66.170455 -43.4 
L 67.121591 -43.4 
L 68.072727 -43.4 
L 69.023864 -43.4 
L 69.975 -43.4 
L 70.926136 -43.4 
L 71.877273 -43.4 
L 72.828409 -43.4 
L 73.779545 -43.4 
L 74.730682 -43.4 
L 75.681818 -43.4 
L 76.632955 -43.4 
L 77.584091 -43.4 
L 78.535227 -43.4 
L 79.486364 -43.4 
L 80.4375 -43.4 
L 81.388636 -43.4 
L 82.339773 -43.4 
L 83.290909 -43.4 
L 84.242045 -43.4 
L 85.193182 -43.4 
L 86.144318 -43.4 
L 87.095455 -43.4 
L 88.046591 -43.4 
L 88.997727 -43.4 
L 89.948864 -43.4 
L 90.9 -43.4 
L 91.851136 -43.4 
L 92.802273 -43.4 
L 93.753409 -43.4 
L 94.704545 -43.4 
L 95.655682 -43.4 
L 96.606818 -43.4 
L 97.557955 -43.4 
L 98.509091 -43.4 
L 99.460227 -43.4 
L 100.411364 -43.4 
L 101.3625 -43.4 
L 102.313636 -43.4 
L 103.264773 -43.4 
L 104.215909 -43.4 
L 105.167045 -43.4 
L 106.118182 -43.4 
L 107.069318 -43.4 
L 108.020455 -43.4 
L 108.971591 -43.4 
L 109.922727 -43.4 
L 110.873864 -43.4 
L 111.825 -43.4 
L 112.776136 -43.4 
L 113.727273 -43.4 
L 114.678409 -43.4 
L 115.629545 -43.4 
L 116.580682 -43.4 
L 117.531818 -43.4 
L 118.482955 -43.4 
L 119.434091 -43.4 
L 120.385227 -43.4 
L 121.336364 -43.4 
L 122.2875 -43.4 
L 123.238636 -43.4 
L 124.189773 -43.4 
L 125.140909 -43.400001 
L 126.092045 -43.400001 
L 127.043182 -43.400001 
L 127.994318 -43.400001 
L 128.945455 -43.400001 
L 129.896591 -43.400001 
L 130.847727 -43.400001 
L 131.798864 -43.400001 
L 132.75 -43.400001 
L 133.701136 -43.400002 
L 134.652273 -43.400002 
L 135.603409 -43.400002 
L 136.554545 -43.400002 
L 137.505682 -43.400003 
L 138.456818 -43.400003 
L 139.407955 -43.400003 
L 140.359091 -43.400004 
L 141.310227 -43.400004 
L 142.261364 -43.400005 
L 143.2125 -43.400005 
L 144.163636 -43.400006 
L 145.114773 -43.400007 
L 146.065909 -43.400008 
L 147.017045 -43.400009 
L 147.968182 -43.40001 
L 148.919318 -43.400011 
L 149.870455 -43.400012 
L 150.821591 -43.400014 
L 151.772727 -43.400016 
L 152.723864 -43.400018 
L 153.675 -43.40002 
L 154.626136 -43.400022 
L 155.577273 -43.400025 
L 156.528409 -43.400028 
L 157.479545 -43.400031 
L 158.430682 -43.400035 
L 159.381818 -43.400039 
L 160.332955 -43.400044 
L 161.284091 -43.400049 
L 162.235227 -43.400055 
L 163.186364 -43.400061 
L 164.1375 -43.400068 
L 165.088636 -43.400076 
L 166.039773 -43.400085 
L 166.990909 -43.400094 
L 167.942045 -43.400105 
L 168.893182 -43.400117 
L 169.844318 -43.400131 
L 170.795455 -43.400145 
L 171.746591 -43.400162 
L 172.697727 -43.40018 
L 173.648864 -43.4002 
L 174.6 -43.400223 
L 175.551136 -43.400247 
L 176.502273 -43.400275 
L 177.453409 -43.400305 
L 178.404545 -43.400339 
L 179.355682 -43.400376 
L 180.306818 -43.400417 
L 181.257955 -43.400462 
L 182.209091 -43.400512 
L 183.160227 -43.400567 
L 184.111364 -43.400627 
L 185.0625 -43.400694 
L 186.013636 -43.400768 
L 186.964773 -43.40085 
L 187.915909 -43.400939 
L 188.867045 -43.401038 
L 189.818182 -43.401146 
L 190.769318 -43.401265 
L 191.720455 -43.401397 
L 192.671591 -43.401541 
L 193.622727 -43.401699 
L 194.573864 -43.401873 
L 195.525 -43.402063 
L 196.476136 -43.402273 
L 197.427273 -43.402502 
L 198.378409 -43.402754 
L 199.329545 -43.403029 
L 200.280682 -43.403331 
L 201.231818 -43.403662 
L 202.182955 -43.404024 
L 203.134091 -43.404419 
L 204.085227 -43.404852 
L 205.036364 -43.405325 
L 205.9875 -43.405841 
L 206.938636 -43.406406 
L 207.889773 -43.407022 
L 208.840909 -43.407694 
L 209.792045 -43.408427 
L 210.743182 -43.409226 
L 211.694318 -43.410096 
L 212.645455 -43.411045 
L 213.596591 -43.412078 
L 214.547727 -43.413202 
L 215.498864 -43.414425 
L 216.45 -43.415755 
L 217.401136 -43.417201 
L 218.352273 -43.418772 
L 219.303409 -43.420479 
L 220.254545 -43.422331 
L 221.205682 -43.424342 
L 222.156818 -43.426522 
L 223.107955 -43.428887 
L 224.059091 -43.43145 
L 225.010227 -43.434226 
L 225.961364 -43.437233 
L 226.9125 -43.440487 
L 227.863636 -43.444009 
L 228.814773 -43.447817 
L 229.765909 -43.451935 
L 230.717045 -43.456384 
L 231.668182 -43.46119 
L 232.619318 -43.466379 
L 233.570455 -43.47198 
L 234.521591 -43.478021 
L 235.472727 -43.484537 
L 236.423864 -43.491559 
L 237.375 -43.499125 
L 238.326136 -43.507274 
L 239.277273 -43.516046 
L 240.228409 -43.525485 
L 241.179545 -43.535637 
L 242.130682 -43.546553 
L 243.081818 -43.558283 
L 244.032955 -43.570884 
L 244.984091 -43.584414 
L 245.935227 -43.598936 
L 246.886364 -43.614516 
L 247.8375 -43.631223 
L 248.788636 -43.649132 
L 249.739773 -43.668321 
L 250.690909 -43.688872 
L 251.642045 -43.710873 
L 252.593182 -43.734416 
L 253.544318 -43.759597 
L 254.495455 -43.78652 
L 255.446591 -43.815293 
L 256.397727 -43.846029 
L 257.348864 -43.878849 
L 258.3 -43.913877 
L 259.251136 -43.951248 
L 260.202273 -43.9911 
L 261.153409 -44.033579 
L 262.104545 -44.078839 
L 263.055682 -44.127042 
L 264.006818 -44.178356 
L 264.957955 -44.232959 
L 265.909091 -44.291036 
L 266.860227 -44.35278 
L 267.811364 -44.418396 
L 268.7625 -44.488096 
L 269.713636 -44.5621 
L 270.664773 -44.640642 
L 271.615909 -44.723962 
L 272.567045 -44.812313 
L 273.518182 -44.905958 
L 274.469318 -45.005169 
L 275.420455 -45.110232 
L 276.371591 -45.221443 
L 277.322727 -45.33911 
L 278.273864 -45.463553 
L 279.225 -45.595103 
L 280.176136 -45.734106 
L 281.127273 -45.880919 
L 282.078409 -46.035912 
L 283.029545 -46.199467 
L 283.980682 -46.371982 
L 284.931818 -46.553866 
L 285.882955 -46.745543 
L 286.834091 -46.94745 
L 287.785227 -47.160038 
L 288.736364 -47.383772 
L 289.6875 -47.619131 
L 290.638636 -47.866607 
L 291.589773 -48.126709 
L 292.540909 -48.399956 
L 293.492045 -48.686884 
L 294.443182 -48.988043 
L 295.394318 -49.303994 
L 296.345455 -49.635315 
L 297.296591 -49.982595 
L 298.247727 -50.346439 
L 299.198864 -50.727461 
L 300.15 -51.126292 
L 301.101136 -51.543573 
L 302.052273 -51.979959 
L 303.003409 -52.436113 
L 303.954545 -52.912713 
L 304.905682 -53.410445 
L 305.856818 -53.930008 
L 306.807955 -54.472107 
L 307.759091 -55.037459 
L 308.710227 -55.626786 
L 309.661364 -56.240819 
L 310.6125 -56.880296 
L 311.563636 -57.54596 
L 312.514773 -58.238558 
L 313.465909 -58.958842 
L 314.417045 -59.707565 
L 315.368182 -60.485482 
L 316.319318 -61.293349 
L 317.270455 -62.131921 
L 318.221591 -63.001951 
L 319.172727 -63.904187 
L 320.123864 -64.839373 
L 321.075 -65.808248 
L 322.026136 -66.811541 
L 322.977273 -67.849972 
L 323.928409 -68.924253 
L 324.879545 -70.035078 
L 325.830682 -71.183132 
L 326.781818 -72.369081 
L 327.732955 -73.593573 
L 328.684091 -74.857238 
L 329.635227 -76.160682 
L 330.586364 -77.504491 
L 331.5375 -78.889224 
L 332.488636 -80.31541 
L 333.439773 -81.783554 
L 334.390909 -83.294126 
L 335.342045 -84.847563 
L 336.293182 -86.444269 
L 337.244318 -88.084607 
L 338.195455 -89.768905 
L 339.146591 -91.497446 
L 340.097727 -93.270472 
L 341.048864 -95.088178 
L 342 -96.950712 
L 342.951136 -98.858172 
L 343.902273 -100.810608 
L 344.853409 -102.808011 
L 345.804545 -104.850323 
L 346.755682 -106.937424 
L 347.706818 -109.069139 
L 348.657955 -111.24523 
L 349.609091 -113.4654 
L 350.560227 -115.729284 
L 351.511364 -118.036457 
L 352.4625 -120.386423 
L 353.413636 -122.778622 
L 354.364773 -125.212422 
L 355.315909 -127.687122 
L 356.267045 -130.20195 
L 357.218182 -132.756062 
L 358.169318 -135.348541 
L 359.120455 -137.978397 
L 360.071591 -140.644564 
L 361.022727 -143.345905 
L 361.973864 -146.081205 
L 362.925 -148.849175 
L 363.876136 -151.648454 
L 364.827273 -154.477603 
L 365.778409 -157.335111 
L 366.729545 -160.219392 
L 367.680682 -163.128788 
L 368.631818 -166.061569 
L 369.582955 -169.015931 
L 370.534091 -171.990005 
L 371.485227 -174.981849 
L 372.436364 -177.989457 
L 373.3875 -181.010756 
L 374.338636 -184.043608 
L 375.289773 -187.085817 
L 376.240909 -190.135125 
L 377.192045 -193.189217 
L 378.143182 -196.245726 
L 379.094318 -199.302231 
L 380.045455 -202.356263 
L 380.996591 -205.405306 
L 381.947727 -208.446803 
L 382.898864 -211.478156 
L 383.85 -214.496733 
L 384.801136 -217.499868 
L 385.752273 -220.484866 
L 386.703409 -223.449009 
L 387.654545 -226.389557 
L 388.605682 -229.303754 
L 389.556818 -232.18883 
L 390.507955 -235.042008 
L 391.459091 -237.860506 
L 392.410227 -240.641544 
L 393.361364 -243.382345 
L 394.3125 -246.080143 
L 395.263636 -248.732186 
L 396.214773 -251.33574 
L 397.165909 -253.888093 
L 398.117045 -256.386565 
L 399.068182 -258.828504 
L 400.019318 -261.211299 
L 400.970455 -263.532379 
L 401.921591 -265.789219 
L 402.872727 -267.979348 
L 403.823864 -270.100347 
L 404.775 -272.149859 
L 405.726136 -274.125591 
L 406.677273 -276.025319 
L 407.628409 -277.846892 
L 408.579545 -279.588234 
L 409.530682 -281.247351 
L 410.481818 -282.822336 
L 411.432955 -284.311365 
L 412.384091 -285.712711 
L 413.335227 -287.024739 
L 414.286364 -288.245913 
L 415.2375 -289.374799 
L 416.188636 -290.410066 
L 417.139773 -291.35049 
L 418.090909 -292.194956 
L 419.042045 -292.942462 
L 419.993182 -293.592116 
L 420.944318 -294.143145 
L 421.895455 -294.594889 
L 422.846591 -294.946808 
L 423.797727 -295.198481 
L 424.748864 -295.349605 
L 425.7 -295.4 
L 426.651136 -295.349605 
L 427.602273 -295.198481 
L 428.553409 -294.946808 
L 429.504545 -294.594889 
L 430.455682 -294.143145 
L 431.406818 -293.592116 
L 432.357955 -292.942462 
L 433.309091 -292.194956 
L 434.260227 -291.35049 
L 435.211364 -290.410066 
L 436.1625 -289.374799 
L 437.113636 -288.245913 
L 438.064773 -287.024739 
L 439.015909 -285.712711 
L 439.967045 -284.311365 
L 440.918182 -282.822336 
L 441.869318 -281.247351 
L 442.820455 -279.588234 
L 443.771591 -277.846892 
L 444.722727 -276.025319 
L 445.673864 -274.125591 
L 446.625 -272.149859 
L 447.576136 -270.100347 
L 448.527273 -267.979348 
L 449.478409 -265.789219 
L 450.429545 -263.532379 
L 451.380682 -261.211299 
L 452.331818 -258.828504 
L 453.282955 -256.386565 
L 454.234091 -253.888093 
L 455.185227 -251.33574 
L 456.136364 -248.732186 
L 457.0875 -246.080143 
L 458.038636 -243.382345 
L 458.989773 -240.641544 
L 459.940909 -237.860506 
L 460.892045 -235.042008 
L 461.843182 -232.18883 
L 462.794318 -229.303754 
L 463.745455 -226.389557 
L 464.696591 -223.449009 
L 465.647727 -220.484866 
L 466.598864 -217.499868 
L 467.55 -214.496733 
L 468.501136 -211.478156 
L 469.452273 -208.446803 
L 470.403409 -205.405306 
L 471.354545 -202.356263 
L 472.305682 -199.302231 
L 473.256818 -196.245726 
L 474.207955 -193.189217 
L 475.159091 -190.135125 
L 476.110227 -187.085817 
L 477.061364 -184.043608 
L 478.0125 -181.010756 
L 478.963636 -177.989457 
L 479.914773 -174.981849 
L 480.865909 -171.990005 
L 481.817045 -169.015931 
L 482.768182 -166.061569 
L 483.719318 -163.128788 
L 484.670455 -160.219392 
L 485.621591 -157.335111 
L 486.572727 -154.477603 
L 487.523864 -151.648454 
L 488.475 -148.849175 
L 489.426136 -146.081205 
L 490.377273 -143.345905 
L 491.328409 -140.644564 
L 492.279545 -137.978397 
L 493.230682 -135.348541 
L 494.181818 -132.756062 
L 495.132955 -130.20195 
L 496.084091 -127.687122 
L 497.035227 -125.212422 
L 497.986364 -122.778622 
L 498.9375 -120.386423 
L 499.888636 -118.036457 
L 500.839773 -115.729284 
L 501.790909 -113.4654 
L 502.742045 -111.24523 
L 503.693182 -109.069139 
L 504.644318 -106.937424 
L 505.595455 -104.850323 
L 506.546591 -102.808011 
L 507.497727 -100.810608 
L 508.448864 -98.858172 
L 509.4 -96.950712 
L 510.351136 -95.088178 
L 511.302273 -93.270472 
L 512.253409 -91.497446 
L 513.204545 -89.768905 
L 514.155682 -88.084607 
L 515.106818 -86.444269 
L 516.057955 -84.847563 
L 517.009091 -83.294126 
L 517.960227 -81.783554 
L 518.911364 -80.31541 
L 519.8625 -78.889224 
L 520.813636 -77.504491 
L 521.764773 -76.160682 
L 522.715909 -74.857238 
L 523.667045 -73.593573 
L 524.618182 -72.369081 
L 525.569318 -71.183132 
L 526.520455 -70.035078 
L 527.471591 -68.924253 
L 528.422727 -67.849972 
L 529.373864 -66.811541 
L 530.325 -65.808248 
L 531.276136 -64.839373 
L 532.227273 -63.904187 
L 533.178409 -63.001951 
L 534.129545 -62.131921 
L 535.080682 -61.293349 
L 536.031818 -60.485482 
L 536.982955 -59.707565 
L 537.934091 -58.958842 
L 538.885227 -58.238558 
L 539.836364 -57.54596 
L 540.7875 -56.880296 
L 541.738636 -56.240819 
L 542.689773 -55.626786 
L 543.640909 -55.037459 
L 544.592045 -54.472107 
L 545.543182 -53.930008 
L 546.494318 -53.410445 
L 547.445455 -52.912713 
L 548.396591 -52.436113 
L 549.347727 -51.979959 
L 550.298864 -51.543573 
L 551.25 -51.126292 
L 552.201136 -50.727461 
L 553.152273 -50.346439 
L 554.103409 -49.982595 
L 555.054545 -49.635315 
L 556.005682 -49.303994 
L 556.956818 -48.988043 
L 557.907955 -48.686884 
L 558.859091 -48.399956 
L 559.810227 -48.126709 
L 560.761364 -47.866607 
L 561.7125 -47.619131 
L 562.663636 -47.383772 
L 563.614773 -47.160038 
L 564.565909 -46.94745 
L 565.517045 -46.745543 
L 566.468182 -46.553866 
L 567.419318 -46.371982 
L 568.370455 -46.199467 
L 569.321591 -46.035912 
L 570.272727 -45.880919 
L 571.223864 -45.734106 
L 572.175 -45.595103 
L 573.126136 -45.463553 
L 574.077273 -45.33911 
L 575.028409 -45.221443 
L 575.979545 -45.110232 
L 576.930682 -45.005169 
L 577.881818 -44.905958 
L 578.832955 -44.812313 
L 579.784091 -44.723962 
L 580.735227 -44.640642 
L 581.686364 -44.5621 
L 582.6375 -44.488096 
L 583.588636 -44.418396 
L 584.539773 -44.35278 
L 585.490909 -44.291036 
L 586.442045 -44.232959 
L 587.393182 -44.178356 
L 588.344318 -44.127042 
L 589.295455 -44.078839 
L 590.246591 -44.033579 
L 591.197727 -43.9911 
L 592.148864 -43.951248 
L 593.1 -43.913877 
L 594.051136 -43.878849 
L 595.002273 -43.846029 
L 595.953409 -43.815293 
L 596.904545 -43.78652 
L 597.855682 -43.759597 
L 598.806818 -43.734416 
L 599.757955 -43.710873 
L 600.709091 -43.688872 
L 601.660227 -43.668321 
L 602.611364 -43.649132 
L 603.5625 -43.631223 
L 604.513636 -43.614516 
L 605.464773 -43.598936 
L 606.415909 -43.584414 
L 607.367045 -43.570884 
L 608.318182 -43.558283 
L 609.269318 -43.546553 
L 610.220455 -43.535637 
L 611.171591 -43.525485 
L 612.122727 -43.516046 
L 613.073864 -43.507274 
L 614.025 -43.499125 
L 614.976136 -43.491559 
L 615.927273 -43.484537 
L 616.878409 -43.478021 
L 617.829545 -43.47198 
L 618.780682 -43.466379 
L 619.731818 -43.46119 
L 620.682955 -43.456384 
L 621.634091 -43.451935 
L 622.585227 -43.447817 
L 623.536364 -43.444009 
L 624.4875 -43.440487 
L 625.438636 -43.437233 
L 626.389773 -43.434226 
L 627.340909 -43.43145 
L 628.292045 -43.428887 
L 629.243182 -43.426522 
L 630.194318 -43.424342 
L 631.145455 -43.422331 
L 632.096591 -43.420479 
L 633.047727 -43.418772 
L 633.998864 -43.417201 
L 634.95 -43.415755 
L 635.901136 -43.414425 
L 636.852273 -43.413202 
L 637.803409 -43.412078 
L 638.754545 -43.411045 
L 639.705682 -43.410096 
L 640.656818 -43.409226 
L 641.607955 -43.408427 
L 642.559091 -43.407694 
L 643.510227 -43.407022 
L 644.461364 -43.406406 
L 645.4125 -43.405841 
L 646.363636 -43.405325 
L 647.314773 -43.404852 
L 648.265909 -43.404419 
L 649.217045 -43.404024 
L 650.168182 -43.403662 
L 651.119318 -43.403331 
L 652.070455 -43.403029 
L 653.021591 -43.402754 
L 653.972727 -43.402502 
L 654.923864 -43.402273 
L 655.875 -43.402063 
L 656.826136 -43.401873 
L 657.777273 -43.401699 
L 658.728409 -43.401541 
L 659.679545 -43.401397 
L 660.630682 -43.401265 
L 661.581818 -43.401146 
L 662.532955 -43.401038 
L 663.484091 -43.400939 
L 664.435227 -43.40085 
L 665.386364 -43.400768 
L 666.3375 -43.400694 
L 667.288636 -43.400627 
L 668.239773 -43.400567 
L 669.190909 -43.400512 
L 670.142045 -43.400462 
L 671.093182 -43.400417 
L 672.044318 -43.400376 
L 672.995455 -43.400339 
L 673.946591 -43.400305 
L 674.897727 -43.400275 
L 675.848864 -43.400247 
L 676.8 -43.400223 
L 677.751136 -43.4002 
L 678.702273 -43.40018 
L 679.653409 -43.400162 
L 680.604545 -43.400145 
L 681.555682 -43.400131 
L 682.506818 -43.400117 
L 683.457955 -43.400105 
L 684.409091 -43.400094 
L 685.360227 -43.400085 
L 686.311364 -43.400076 
L 687.2625 -43.400068 
L 688.213636 -43.400061 
L 689.164773 -43.400055 
L 690.115909 -43.400049 
L 691.067045 -43.400044 
L 692.018182 -43.400039 
L 692.969318 -43.400035 
L 693.920455 -43.400031 
L 694.871591 -43.400028 
L 695.822727 -43.400025 
L 696.773864 -43.400022 
L 697.725 -43.40002 
L 698.676136 -43.400018 
L 699.627273 -43.400016 
L 700.578409 -43.400014 
L 701.529545 -43.400012 
L 702.480682 -43.400011 
L 703.431818 -43.40001 
L 704.382955 -43.400009 
L 705.334091 -43.400008 
L 706.285227 -43.400007 
L 707.236364 -43.400006 
L 708.1875 -43.400005 
L 709.138636 -43.400005 
L 710.089773 -43.400004 
L 711.040909 -43.400004 
L 711.992045 -43.400003 
L 712.943182 -43.400003 
L 713.894318 -43.400003 
L 714.845455 -43.400002 
L 715.796591 -43.400002 
L 716.747727 -43.400002 
L 717.698864 -43.400002 
L 718.65 -43.400001 
L 719.601136 -43.400001 
L 720.552273 -43.400001 
L 721.503409 -43.400001 
L 722.454545 -43.400001 
L 723.405682 -43.400001 
L 724.356818 -43.400001 
L 725.307955 -43.400001 
L 726.259091 -43.400001 
L 727.210227 -43.4 
L 728.161364 -43.4 
L 729.1125 -43.4 
L 730.063636 -43.4 
L 731.014773 -43.4 
L 731.965909 -43.4 
L 732.917045 -43.4 
L 733.868182 -43.4 
L 734.819318 -43.4 
L 735.770455 -43.4 
L 736.721591 -43.4 
L 737.672727 -43.4 
L 738.623864 -43.4 
L 739.575 -43.4 
L 740.526136 -43.4 
L 741.477273 -43.4 
L 742.428409 -43.4 
L 743.379545 -43.4 
L 744.330682 -43.4 
L 745.281818 -43.4 
L 746.232955 -43.4 
L 747.184091 -43.4 
L 748.135227 -43.4 
L 749.086364 -43.4 
L 750.0375 -43.4 
L 750.988636 -43.4 
L 751.939773 -43.4 
L 752.890909 -43.4 
L 753.842045 -43.4 
L 754.793182 -43.4 
L 755.744318 -43.4 
L 756.695455 -43.4 
L 757.646591 -43.4 
L 758.597727 -43.4 
L 759.548864 -43.4 
L 760.5 -43.4 
L 761.451136 -43.4 
L 762.402273 -43.4 
L 763.353409 -43.4 
L 764.304545 -43.4 
L 765.255682 -43.4 
L 766.206818 -43.4 
L 767.157955 -43.4 
L 768.109091 -43.4 
L 769.060227 -43.4 
L 770.011364 -43.4 
L 770.9625 -43.4 
L 771.913636 -43.4 
L 772.864773 -43.4 
L 773.815909 -43.4 
L 774.767045 -43.4 
L 775.718182 -43.4 
L 776.669318 -43.4 
L 777.620455 -43.4 
L 778.571591 -43.4 
L 779.522727 -43.4 
L 780.473864 -43.4 
L 781.425 -43.4 
L 782.376136 -43.4 
L 783.327273 -43.4 
L 784.278409 -43.4 
L 785.229545 -43.4 
L 786.180682 -43.4 
L 787.131818 -43.4 
L 788.082955 -43.4 
L 789.034091 -43.4 
L 789.985227 -43.4 
L 790.936364 -43.4 
L 791.8875 -43.4 
L 792.838636 -43.4 
L 793.789773 -43.4 
L 794.740909 -43.4 
L 795.692045 -43.4 
L 796.643182 -43.4 
L 797.594318 -43.4 
L 798.545455 -43.4 
L 799.496591 -43.4 
L 800.447727 -43.4 
L 801.398864 -43.4 
L 802.35 -43.4 
L 803.301136 -43.4 
L 804.252273 -43.4 
L 805.203409 -43.4 
L 806.154545 -43.4 
L 806.154545 -43.4 
L 806.154545 -43.4 
L 805.203409 -43.4 
L 804.252273 -43.4 
L 803.301136 -43.4 
L 802.35 -43.4 
L 801.398864 -43.4 
L 800.447727 -43.4 
L 799.496591 -43.4 
L 798.545455 -43.4 
L 797.594318 -43.4 
L 796.643182 -43.4 
L 795.692045 -43.4 
L 794.740909 -43.4 
L 793.789773 -43.4 
L 792.838636 -43.4 
L 791.8875 -43.4 
L 790.936364 -43.4 
L 789.985227 -43.4 
L 789.034091 -43.4 
L 788.082955 -43.4 
L 787.131818 -43.4 
L 786.180682 -43.4 
L 785.229545 -43.4 
L 784.278409 -43.4 
L 783.327273 -43.4 
L 782.376136 -43.4 
L 781.425 -43.4 
L 780.473864 -43.4 
L 779.522727 -43.4 
L 778.571591 -43.4 
L 777.620455 -43.4 
L 776.669318 -43.4 
L 775.718182 -43.4 
L 774.767045 -43.4 
L 773.815909 -43.4 
L 772.864773 -43.4 
L 771.913636 -43.4 
L 770.9625 -43.4 
L 770.011364 -43.4 
L 769.060227 -43.4 
L 768.109091 -43.4 
L 767.157955 -43.4 
L 766.206818 -43.4 
L 765.255682 -43.4 
L 764.304545 -43.4 
L 763.353409 -43.4 
L 762.402273 -43.4 
L 761.451136 -43.4 
L 760.5 -43.4 
L 759.548864 -43.4 
L 758.597727 -43.4 
L 757.646591 -43.4 
L 756.695455 -43.4 
L 755.744318 -43.4 
L 754.793182 -43.4 
L 753.842045 -43.4 
L 752.890909 -43.4 
L 751.939773 -43.4 
L 750.988636 -43.4 
L 750.0375 -43.4 
L 749.086364 -43.4 
L 748.135227 -43.4 
L 747.184091 -43.4 
L 746.232955 -43.4 
L 745.281818 -43.4 
L 744.330682 -43.4 
L 743.379545 -43.4 
L 742.428409 -43.4 
L 741.477273 -43.4 
L 740.526136 -43.4 
L 739.575 -43.4 
L 738.623864 -43.4 
L 737.672727 -43.4 
L 736.721591 -43.4 
L 735.770455 -43.4 
L 734.819318 -43.4 
L 733.868182 -43.4 
L 732.917045 -43.4 
L 731.965909 -43.4 
L 731.014773 -43.4 
L 730.063636 -43.4 
L 729.1125 -43.4 
L 728.161364 -43.4 
L 727.210227 -43.4 
L 726.259091 -43.4 
L 725.307955 -43.4 
L 724.356818 -43.4 
L 723.405682 -43.4 
L 722.454545 -43.4 
L 721.503409 -43.4 
L 720.552273 -43.4 
L 719.601136 -43.4 
L 718.65 -43.4 
L 717.698864 -43.4 
L 716.747727 -43.4 
L 715.796591 -43.4 
L 714.845455 -43.4 
L 713.894318 -43.4 
L 712.943182 -43.4 
L 711.992045 -43.4 
L 711.040909 -43.4 
L 710.089773 -43.4 
L 709.138636 -43.4 
L 708.1875 -43.4 
L 707.236364 -43.4 
L 706.285227 -43.4 
L 705.334091 -43.4 
L 704.382955 -43.4 
L 703.431818 -43.4 
L 702.480682 -43.4 
L 701.529545 -43.4 
L 700.578409 -43.4 
L 699.627273 -43.4 
L 698.676136 -43.4 
L 697.725 -43.4 
L 696.773864 -43.4 
L 695.822727 -43.4 
L 694.871591 -43.4 
L 693.920455 -43.4 
L 692.969318 -43.4 
L 692.018182 -43.4 
L 691.067045 -43.4 
L 690.115909 -43.4 
L 689.164773 -43.4 
L 688.213636 -43.4 
L 687.2625 -43.4 
L 686.311364 -43.4 
L 685.360227 -43.4 
L 684.409091 -43.4 
L 683.457955 -43.4 
L 682.506818 -43.4 
L 681.555682 -43.4 
L 680.604545 -43.4 
L 679.653409 -43.4 
L 678.702273 -43.4 
L 677.751136 -43.4 
L 676.8 -43.4 
L 675.848864 -43.4 
L 674.897727 -43.4 
L 673.946591 -43.4 
L 672.995455 -43.4 
L 672.044318 -43.4 
L 671.093182 -43.4 
L 670.142045 -43.4 
L 669.190909 -43.4 
L 668.239773 -43.4 
L 667.288636 -43.4 
L 666.3375 -43.4 
L 665.386364 -43.4 
L 664.435227 -43.4 
L 663.484091 -43.4 
L 662.532955 -43.4 
L 661.581818 -43.4 
L 660.630682 -43.4 
L 659.679545 -43.4 
L 658.728409 -43.4 
L 657.777273 -43.4 
L 656.826136 -43.4 
L 655.875 -43.4 
L 654.923864 -43.4 
L 653.972727 -43.4 
L 653.021591 -43.4 
L 652.070455 -43.4 
L 651.119318 -43.4 
L 650.168182 -43.4 
L 649.217045 -43.4 
L 648.265909 -43.4 
L 647.314773 -43.4 
L 646.363636 -43.4 
L 645.4125 -43.4 
L 644.461364 -43.4 
L 643.510227 -43.4 
L 642.559091 -43.4 
L 641.607955 -43.4 
L 640.656818 -43.4 
L 639.705682 -43.4 
L 638.754545 -43.4 
L 637.803409 -43.4 
L 636.852273 -43.4 
L 635.901136 -43.4 
L 634.95 -43.4 
L 633.998864 -43.4 
L 633.047727 -43.4 
L 632.096591 -43.4 
L 631.145455 -43.4 
L 630.194318 -43.4 
L 629.243182 -43.4 
L 628.292045 -43.4 
L 627.340909 -43.4 
L 626.389773 -43.4 
L 625.438636 -43.4 
L 624.4875 -43.4 
L 623.536364 -43.4 
L 622.585227 -43.4 
L 621.634091 -43.4 
L 620.682955 -43.4 
L 619.731818 -43.4 
L 618.780682 -43.4 
L 617.829545 -43.4 
L 616.878409 -43.4 
L 615.927273 -43.4 
L 614.976136 -43.4 
L 614.025 -43.4 
L 613.073864 -43.4 
L 612.122727 -43.4 
L 611.171591 -43.4 
L 610.220455 -43.4 
L 609.269318 -43.4 
L 608.318182 -43.4 
L 607.367045 -43.4 
L 606.415909 -43.4 
L 605.464773 -43.4 
L 604.513636 -43.4 
L 603.5625 -43.4 
L 602.611364 -43.4 
L 601.660227 -43.4 
L 600.709091 -43.4 
L 599.757955 -43.4 
L 598.806818 -43.4 
L 597.855682 -43.4 
L 596.904545 -43.4 
L 595.953409 -43.4 
L 595.002273 -43.4 
L 594.051136 -43.4 
L 593.1 -43.4 
L 592.148864 -43.4 
L 591.197727 -43.4 
L 590.246591 -43.4 
L 589.295455 -43.4 
L 588.344318 -43.4 
L 587.393182 -43.4 
L 586.442045 -43.4 
L 585.490909 -43.4 
L 584.539773 -43.4 
L 583.588636 -43.4 
L 582.6375 -43.4 
L 581.686364 -43.4 
L 580.735227 -43.4 
L 579.784091 -43.4 
L 578.832955 -43.4 
L 577.881818 -43.4 
L 576.930682 -43.4 
L 575.979545 -43.4 
L 575.028409 -43.4 
L 574.077273 -43.4 
L 573.126136 -43.4 
L 572.175 -43.4 
L 571.223864 -43.4 
L 570.272727 -43.4 
L 569.321591 -43.4 
L 568.370455 -43.4 
L 567.419318 -43.4 
L 566.468182 -43.4 
L 565.517045 -43.4 
L 564.565909 -43.4 
L 563.614773 -43.4 
L 562.663636 -43.4 
L 561.7125 -43.4 
L 560.761364 -43.4 
L 559.810227 -43.4 
L 558.859091 -43.4 
L 557.907955 -43.4 
L 556.956818 -43.4 
L 556.005682 -43.4 
L 555.054545 -43.4 
L 554.103409 -43.4 
L 553.152273 -43.4 
L 552.201136 -43.4 
L 551.25 -43.4 
L 550.298864 -43.4 
L 549.347727 -43.4 
L 548.396591 -43.4 
L 547.445455 -43.4 
L 546.494318 -43.4 
L 545.543182 -43.4 
L 544.592045 -43.4 
L 543.640909 -43.4 
L 542.689773 -43.4 
L 541.738636 -43.4 
L 540.7875 -43.4 
L 539.836364 -43.4 
L 538.885227 -43.4 
L 537.934091 -43.4 
L 536.982955 -43.4 
L 536.031818 -43.4 
L 535.080682 -43.4 
L 534.129545 -43.4 
L 533.178409 -43.4 
L 532.227273 -43.4 
L 531.276136 -43.4 
L 530.325 -43.4 
L 529.373864 -43.4 
L 528.422727 -43.4 
L 527.471591 -43.4 
L 526.520455 -43.4 
L 525.569318 -43.4 
L 524.618182 -43.4 
L 523.667045 -43.4 
L 522.715909 -43.4 
L 521.764773 -43.4 
L 520.813636 -43.4 
L 519.8625 -43.4 
L 518.911364 -43.4 
L 517.960227 -43.4 
L 517.009091 -43.4 
L 516.057955 -43.4 
L 515.106818 -43.4 
L 514.155682 -43.4 
L 513.204545 -43.4 
L 512.253409 -43.4 
L 511.302273 -43.4 
L 510.351136 -43.4 
L 509.4 -43.4 
L 508.448864 -43.4 
L 507.497727 -43.4 
L 506.546591 -43.4 
L 505.595455 -43.4 
L 504.644318 -43.4 
L 503.693182 -43.4 
L 502.742045 -43.4 
L 501.790909 -43.4 
L 500.839773 -43.4 
L 499.888636 -43.4 
L 498.9375 -43.4 
L 497.986364 -43.4 
L 497.035227 -43.4 
L 496.084091 -43.4 
L 495.132955 -43.4 
L 494.181818 -43.4 
L 493.230682 -43.4 
L 492.279545 -43.4 
L 491.328409 -43.4 
L 490.377273 -43.4 
L 489.426136 -43.4 
L 488.475 -43.4 
L 487.523864 -43.4 
L 486.572727 -43.4 
L 485.621591 -43.4 
L 484.670455 -43.4 
L 483.719318 -43.4 
L 482.768182 -43.4 
L 481.817045 -43.4 
L 480.865909 -43.4 
L 479.914773 -43.4 
L 478.963636 -43.4 
L 478.0125 -43.4 
L 477.061364 -43.4 
L 476.110227 -43.4 
L 475.159091 -43.4 
L 474.207955 -43.4 
L 473.256818 -43.4 
L 472.305682 -43.4 
L 471.354545 -43.4 
L 470.403409 -43.4 
L 469.452273 -43.4 
L 468.501136 -43.4 
L 467.55 -43.4 
L 466.598864 -43.4 
L 465.647727 -43.4 
L 464.696591 -43.4 
L 463.745455 -43.4 
L 462.794318 -43.4 
L 461.843182 -43.4 
L 460.892045 -43.4 
L 459.940909 -43.4 
L 458.989773 -43.4 
L 458.038636 -43.4 
L 457.0875 -43.4 
L 456.136364 -43.4 
L 455.185227 -43.4 
L 454.234091 -43.4 
L 453.282955 -43.4 
L 452.331818 -43.4 
L 451.380682 -43.4 
L 450.429545 -43.4 
L 449.478409 -43.4 
L 448.527273 -43.4 
L 447.576136 -43.4 
L 446.625 -43.4 
L 445.673864 -43.4 
L 444.722727 -43.4 
L 443.771591 -43.4 
L 442.820455 -43.4 
L 441.869318 -43.4 
L 440.918182 -43.4 
L 439.967045 -43.4 
L 439.015909 -43.4 
L 438.064773 -43.4 
L 437.113636 -43.4 
L 436.1625 -43.4 
L 435.211364 -43.4 
L 434.260227 -43.4 
L 433.309091 -43.4 
L 432.357955 -43.4 
L 431.406818 -43.4 
L 430.455682 -43.4 
L 429.504545 -43.4 
L 428.553409 -43.4 
L 427.602273 -43.4 
L 426.651136 -43.4 
L 425.7 -43.4 
L 424.748864 -43.4 
L 423.797727 -43.4 
L 422.846591 -43.4 
L 421.895455 -43.4 
L 420.944318 -43.4 
L 419.993182 -43.4 
L 419.042045 -43.4 
L 418.090909 -43.4 
L 417.139773 -43.4 
L 416.188636 -43.4 
L 415.2375 -43.4 
L 414.286364 -43.4 
L 413.335227 -43.4 
L 412.384091 -43.4 
L 411.432955 -43.4 
L 410.481818 -43.4 
L 409.530682 -43.4 
L 408.579545 -43.4 
L 407.628409 -43.4 
L 406.677273 -43.4 
L 405.726136 -43.4 
L 404.775 -43.4 
L 403.823864 -43.4 
L 402.872727 -43.4 
L 401.921591 -43.4 
L 400.970455 -43.4 
L 400.019318 -43.4 
L 399.068182 -43.4 
L 398.117045 -43.4 
L 397.165909 -43.4 
L 396.214773 -43.4 
L 395.263636 -43.4 
L 394.3125 -43.4 
L 393.361364 -43.4 
L 392.410227 -43.4 
L 391.459091 -43.4 
L 390.507955 -43.4 
L 389.556818 -43.4 
L 388.605682 -43.4 
L 387.654545 -43.4 
L 386.703409 -43.4 
L 385.752273 -43.4 
L 384.801136 -43.4 
L 383.85 -43.4 
L 382.898864 -43.4 
L 381.947727 -43.4 
L 380.996591 -43.4 
L 380.045455 -43.4 
L 379.094318 -43.4 
L 378.143182 -43.4 
L 377.192045 -43.4 
L 376.240909 -43.4 
L 375.289773 -43.4 
L 374.338636 -43.4 
L 373.3875 -43.4 
L 372.436364 -43.4 
L 371.485227 -43.4 
L 370.534091 -43.4 
L 369.582955 -43.4 
L 368.631818 -43.4 
L 367.680682 -43.4 
L 366.729545 -43.4 
L 365.778409 -43.4 
L 364.827273 -43.4 
L 363.876136 -43.4 
L 362.925 -43.4 
L 361.973864 -43.4 
L 361.022727 -43.4 
L 360.071591 -43.4 
L 359.120455 -43.4 
L 358.169318 -43.4 
L 357.218182 -43.4 
L 356.267045 -43.4 
L 355.315909 -43.4 
L 354.364773 -43.4 
L 353.413636 -43.4 
L 352.4625 -43.4 
L 351.511364 -43.4 
L 350.560227 -43.4 
L 349.609091 -43.4 
L 348.657955 -43.4 
L 347.706818 -43.4 
L 346.755682 -43.4 
L 345.804545 -43.4 
L 344.853409 -43.4 
L 343.902273 -43.4 
L 342.951136 -43.4 
L 342 -43.4 
L 341.048864 -43.4 
L 340.097727 -43.4 
L 339.146591 -43.4 
L 338.195455 -43.4 
L 337.244318 -43.4 
L 336.293182 -43.4 
L 335.342045 -43.4 
L 334.390909 -43.4 
L 333.439773 -43.4 
L 332.488636 -43.4 
L 331.5375 -43.4 
L 330.586364 -43.4 
L 329.635227 -43.4 
L 328.684091 -43.4 
L 327.732955 -43.4 
L 326.781818 -43.4 
L 325.830682 -43.4 
L 324.879545 -43.4 
L 323.928409 -43.4 
L 322.977273 -43.4 
L 322.026136 -43.4 
L 321.075 -43.4 
L 320.123864 -43.4 
L 319.172727 -43.4 
L 318.221591 -43.4 
L 317.270455 -43.4 
L 316.319318 -43.4 
L 315.368182 -43.4 
L 314.417045 -43.4 
L 313.465909 -43.4 
L 312.514773 -43.4 
L 311.563636 -43.4 
L 310.6125 -43.4 
L 309.661364 -43.4 
L 308.710227 -43.4 
L 307.759091 -43.4 
L 306.807955 -43.4 
L 305.856818 -43.4 
L 304.905682 -43.4 
L 303.954545 -43.4 
L 303.003409 -43.4 
L 302.052273 -43.4 
L 301.101136 -43.4 
L 300.15 -43.4 
L 299.198864 -43.4 
L 298.247727 -43.4 
L 297.296591 -43.4 
L 296.345455 -43.4 
L 295.394318 -43.4 
L 294.443182 -43.4 
L 293.492045 -43.4 
L 292.540909 -43.4 
L 291.589773 -43.4 
L 290.638636 -43.4 
L 289.6875 -43.4 
L 288.736364 -43.4 
L 287.785227 -43.4 
L 286.834091 -43.4 
L 285.882955 -43.4 
L 284.931818 -43.4 
L 283.980682 -43.4 
L 283.029545 -43.4 
L 282.078409 -43.4 
L 281.127273 -43.4 
L 280.176136 -43.4 
L 279.225 -43.4 
L 278.273864 -43.4 
L 277.322727 -43.4 
L 276.371591 -43.4 
L 275.420455 -43.4 
L 274.469318 -43.4 
L 273.518182 -43.4 
L 272.567045 -43.4 
L 271.615909 -43.4 
L 270.664773 -43.4 
L 269.713636 -43.4 
L 268.7625 -43.4 
L 267.811364 -43.4 
L 266.860227 -43.4 
L 265.909091 -43.4 
L 264.957955 -43.4 
L 264.006818 -43.4 
L 263.055682 -43.4 
L 262.104545 -43.4 
L 261.153409 -43.4 
L 260.202273 -43.4 
L 259.251136 -43.4 
L 258.3 -43.4 
L 257.348864 -43.4 
L 256.397727 -43.4 
L 255.446591 -43.4 
L 254.495455 -43.4 
L 253.544318 -43.4 
L 252.593182 -43.4 
L 251.642045 -43.4 
L 250.690909 -43.4 
L 249.739773 -43.4 
L 248.788636 -43.4 
L 247.8375 -43.4 
L 246.886364 -43.4 
L 245.935227 -43.4 
L 244.984091 -43.4 
L 244.032955 -43.4 
L 243.081818 -43.4 
L 242.130682 -43.4 
L 241.179545 -43.4 
L 240.228409 -43.4 
L 239.277273 -43.4 
L 238.326136 -43.4 
L 237.375 -43.4 
L 236.423864 -43.4 
L 235.472727 -43.4 
L 234.521591 -43.4 
L 233.570455 -43.4 
L 232.619318 -43.4 
L 231.668182 -43.4 
L 230.717045 -43.4 
L 229.765909 -43.4 
L 228.814773 -43.4 
L 227.863636 -43.4 
L 226.9125 -43.4 
L 225.961364 -43.4 
L 225.010227 -43.4 
L 224.059091 -43.4 
L 223.107955 -43.4 
L 222.156818 -43.4 
L 221.205682 -43.4 
L 220.254545 -43.4 
L 219.303409 -43.4 
L 218.352273 -43.4 
L 217.401136 -43.4 
L 216.45 -43.4 
L 215.498864 -43.4 
L 214.547727 -43.4 
L 213.596591 -43.4 
L 212.645455 -43.4 
L 211.694318 -43.4 
L 210.743182 -43.4 
L 209.792045 -43.4 
L 208.840909 -43.4 
L 207.889773 -43.4 
L 206.938636 -43.4 
L 205.9875 -43.4 
L 205.036364 -43.4 
L 204.085227 -43.4 
L 203.134091 -43.4 
L 202.182955 -43.4 
L 201.231818 -43.4 
L 200.280682 -43.4 
L 199.329545 -43.4 
L 198.378409 -43.4 
L 197.427273 -43.4 
L 196.476136 -43.4 
L 195.525 -43.4 
L 194.573864 -43.4 
L 193.622727 -43.4 
L 192.671591 -43.4 
L 191.720455 -43.4 
L 190.769318 -43.4 
L 189.818182 -43.4 
L 188.867045 -43.4 
L 187.915909 -43.4 
L 186.964773 -43.4 
L 186.013636 -43.4 
L 185.0625 -43.4 
L 184.111364 -43.4 
L 183.160227 -43.4 
L 182.209091 -43.4 
L 181.257955 -43.4 
L 180.306818 -43.4 
L 179.355682 -43.4 
L 178.404545 -43.4 
L 177.453409 -43.4 
L 176.502273 -43.4 
L 175.551136 -43.4 
L 174.6 -43.4 
L 173.648864 -43.4 
L 172.697727 -43.4 
L 171.746591 -43.4 
L 170.795455 -43.4 
L 169.844318 -43.4 
L 168.893182 -43.4 
L 167.942045 -43.4 
L 166.990909 -43.4 
L 166.039773 -43.4 
L 165.088636 -43.4 
L 164.1375 -43.4 
L 163.186364 -43.4 
L 162.235227 -43.4 
L 161.284091 -43.4 
L 160.332955 -43.4 
L 159.381818 -43.4 
L 158.430682 -43.4 
L 157.479545 -43.4 
L 156.528409 -43.4 
L 155.577273 -43.4 
L 154.626136 -43.4 
L 153.675 -43.4 
L 152.723864 -43.4 
L 151.772727 -43.4 
L 150.821591 -43.4 
L 149.870455 -43.4 
L 148.919318 -43.4 
L 147.968182 -43.4 
L 147.017045 -43.4 
L 146.065909 -43.4 
L 145.114773 -43.4 
L 144.163636 -43.4 
L 143.2125 -43.4 
L 142.261364 -43.4 
L 141.310227 -43.4 
L 140.359091 -43.4 
L 139.407955 -43.4 
L 138.456818 -43.4 
L 137.505682 -43.4 
L 136.554545 -43.4 
L 135.603409 -43.4 
L 134.652273 -43.4 
L 133.701136 -43.4 
L 132.75 -43.4 
L 131.798864 -43.4 
L 130.847727 -43.4 
L 129.896591 -43.4 
L 128.945455 -43.4 
L 127.994318 -43.4 
L 127.043182 -43.4 
L 126.092045 -43.4 
L 125.140909 -43.4 
L 124.189773 -43.4 
L 123.238636 -43.4 
L 122.2875 -43.4 
L 121.336364 -43.4 
L 120.385227 -43.4 
L 119.434091 -43.4 
L 118.482955 -43.4 
L 117.531818 -43.4 
L 116.580682 -43.4 
L 115.629545 -43.4 
L 114.678409 -43.4 
L 113.727273 -43.4 
L 112.776136 -43.4 
L 111.825 -43.4 
L 110.873864 -43.4 
L 109.922727 -43.4 
L 108.971591 -43.4 
L 108.020455 -43.4 
L 107.069318 -43.4 
L 106.118182 -43.4 
L 105.167045 -43.4 
L 104.215909 -43.4 
L 103.264773 -43.4 
L 102.313636 -43.4 
L 101.3625 -43.4 
L 100.411364 -43.4 
L 99.460227 -43.4 
L 98.509091 -43.4 
L 97.557955 -43.4 
L 96.606818 -43.4 
L 95.655682 -43.4 
L 94.704545 -43.4 
L 93.753409 -43.4 
L 92.802273 -43.4 
L 91.851136 -43.4 
L 90.9 -43.4 
L 89.948864 -43.4 
L 88.997727 -43.4 
L 88.046591 -43.4 
L 87.095455 -43.4 
L 86.144318 -43.4 
L 85.193182 -43.4 
L 84.242045 -43.4 
L 83.290909 -43.4 
L 82.339773 -43.4 
L 81.388636 -43.4 
L 80.4375 -43.4 
L 79.486364 -43.4 
L 78.535227 -43.4 
L 77.584091 -43.4 
L 76.632955 -43.4 
L 75.681818 -43.4 
L 74.730682 -43.4 
L 73.779545 -43.4 
L 72.828409 -43.4 
L 71.877273 -43.4 
L 70.926136 -43.4 
L 69.975 -43.4 
L 69.023864 -43.4 
L 68.072727 -43.4 
L 67.121591 -43.4 
L 66.170455 -43.4 
L 65.219318 -43.4 
L 64.268182 -43.4 
L 63.317045 -43.4 
L 62.365909 -43.4 
L 61.414773 -43.4 
L 60.463636 -43.4 
L 59.5125 -43.4 
L 58.561364 -43.4 
L 57.610227 -43.4 
L 56.659091 -43.4 
L 55.707955 -43.4 
L 54.756818 -43.4 
L 53.805682 -43.4 
L 52.854545 -43.4 
L 51.903409 -43.4 
L 50.952273 -43.4 
L 50.001136 -43.4 
L 49.05 -43.4 
L 48.098864 -43.4 
L 47.147727 -43.4 
L 46.196591 -43.4 
L 45.245455 -43.4 
z
" style="stroke: #e64173; stroke-opacity: 0.8"/>
    </defs>
    <g clip-path="url(#p95f67eb0a0)">
     <use xlink:href="#m4f86b42033" x="0" y="315.2" style="fill: #e64173; fill-opacity: 0.8; stroke: #e64173; stroke-opacity: 0.8"/>
    </g>
   </g>
   <g id="PolyCollection_2">
    <defs>
     <path id="m68fce79b23" d="M 45.245455 -43.4 
L 45.245455 -43.442268 
L 46.196591 -43.443991 
L 47.147727 -43.44578 
L 48.098864 -43.447636 
L 49.05 -43.449563 
L 50.001136 -43.451562 
L 50.952273 -43.453637 
L 51.903409 -43.45579 
L 52.854545 -43.458023 
L 53.805682 -43.46034 
L 54.756818 -43.462742 
L 55.707955 -43.465234 
L 56.659091 -43.467819 
L 57.610227 -43.470498 
L 58.561364 -43.473276 
L 59.5125 -43.476156 
L 60.463636 -43.479141 
L 61.414773 -43.482236 
L 62.365909 -43.485442 
L 63.317045 -43.488765 
L 64.268182 -43.492207 
L 65.219318 -43.495774 
L 66.170455 -43.499468 
L 67.121591 -43.503295 
L 68.072727 -43.507258 
L 69.023864 -43.511362 
L 69.975 -43.515612 
L 70.926136 -43.520011 
L 71.877273 -43.524566 
L 72.828409 -43.529281 
L 73.779545 -43.534161 
L 74.730682 -43.539211 
L 75.681818 -43.544436 
L 76.632955 -43.549843 
L 77.584091 -43.555436 
L 78.535227 -43.561223 
L 79.486364 -43.567208 
L 80.4375 -43.573398 
L 81.388636 -43.579799 
L 82.339773 -43.586417 
L 83.290909 -43.59326 
L 84.242045 -43.600334 
L 85.193182 -43.607647 
L 86.144318 -43.615204 
L 87.095455 -43.623015 
L 88.046591 -43.631085 
L 88.997727 -43.639424 
L 89.948864 -43.648039 
L 90.9 -43.656939 
L 91.851136 -43.666131 
L 92.802273 -43.675624 
L 93.753409 -43.685427 
L 94.704545 -43.69555 
L 95.655682 -43.706001 
L 96.606818 -43.716789 
L 97.557955 -43.727926 
L 98.509091 -43.73942 
L 99.460227 -43.751281 
L 100.411364 -43.763521 
L 101.3625 -43.77615 
L 102.313636 -43.789178 
L 103.264773 -43.802618 
L 104.215909 -43.816479 
L 105.167045 -43.830776 
L 106.118182 -43.845518 
L 107.069318 -43.860718 
L 108.020455 -43.87639 
L 108.971591 -43.892546 
L 109.922727 -43.909198 
L 110.873864 -43.926361 
L 111.825 -43.944048 
L 112.776136 -43.962273 
L 113.727273 -43.98105 
L 114.678409 -44.000395 
L 115.629545 -44.020321 
L 116.580682 -44.040845 
L 117.531818 -44.061981 
L 118.482955 -44.083746 
L 119.434091 -44.106157 
L 120.385227 -44.129229 
L 121.336364 -44.152979 
L 122.2875 -44.177425 
L 123.238636 -44.202585 
L 124.189773 -44.228475 
L 125.140909 -44.255116 
L 126.092045 -44.282525 
L 127.043182 -44.310722 
L 127.994318 -44.339725 
L 128.945455 -44.369555 
L 129.896591 -44.400232 
L 130.847727 -44.431776 
L 131.798864 -44.464209 
L 132.75 -44.497552 
L 133.701136 -44.531826 
L 134.652273 -44.567053 
L 135.603409 -44.603257 
L 136.554545 -44.64046 
L 137.505682 -44.678685 
L 138.456818 -44.717956 
L 139.407955 -44.758297 
L 140.359091 -44.799734 
L 141.310227 -44.84229 
L 142.261364 -44.885991 
L 143.2125 -44.930863 
L 144.163636 -44.976933 
L 145.114773 -45.024227 
L 146.065909 -45.072772 
L 147.017045 -45.122595 
L 147.968182 -45.173725 
L 148.919318 -45.22619 
L 149.870455 -45.280019 
L 150.821591 -45.335241 
L 151.772727 -45.391886 
L 152.723864 -45.449984 
L 153.675 -45.509565 
L 154.626136 -45.570661 
L 155.577273 -45.633304 
L 156.528409 -45.697524 
L 157.479545 -45.763354 
L 158.430682 -45.830828 
L 159.381818 -45.899978 
L 160.332955 -45.970838 
L 161.284091 -46.043442 
L 162.235227 -46.117825 
L 163.186364 -46.194021 
L 164.1375 -46.272067 
L 165.088636 -46.351997 
L 166.039773 -46.433848 
L 166.990909 -46.517657 
L 167.942045 -46.603461 
L 168.893182 -46.691298 
L 169.844318 -46.781204 
L 170.795455 -46.873219 
L 171.746591 -46.967382 
L 172.697727 -47.063731 
L 173.648864 -47.162305 
L 174.6 -47.263146 
L 175.551136 -47.366293 
L 176.502273 -47.471787 
L 177.453409 -47.579668 
L 178.404545 -47.689979 
L 179.355682 -47.802761 
L 180.306818 -47.918056 
L 181.257955 -48.035907 
L 182.209091 -48.156356 
L 183.160227 -48.279447 
L 184.111364 -48.405223 
L 185.0625 -48.533727 
L 186.013636 -48.665004 
L 186.964773 -48.799098 
L 187.915909 -48.936054 
L 188.867045 -49.075916 
L 189.818182 -49.218729 
L 190.769318 -49.36454 
L 191.720455 -49.513393 
L 192.671591 -49.665334 
L 193.622727 -49.82041 
L 194.573864 -49.978665 
L 195.525 -50.140148 
L 196.476136 -50.304904 
L 197.427273 -50.47298 
L 198.378409 -50.644423 
L 199.329545 -50.819279 
L 200.280682 -50.997596 
L 201.231818 -51.179421 
L 202.182955 -51.364801 
L 203.134091 -51.553782 
L 204.085227 -51.746413 
L 205.036364 -51.942741 
L 205.9875 -52.142812 
L 206.938636 -52.346675 
L 207.889773 -52.554375 
L 208.840909 -52.765961 
L 209.792045 -52.981478 
L 210.743182 -53.200975 
L 211.694318 -53.424498 
L 212.645455 -53.652093 
L 213.596591 -53.883807 
L 214.547727 -54.119686 
L 215.498864 -54.359777 
L 216.45 -54.604124 
L 217.401136 -54.852773 
L 218.352273 -55.10577 
L 219.303409 -55.36316 
L 220.254545 -55.624986 
L 221.205682 -55.891294 
L 222.156818 -56.162126 
L 223.107955 -56.437527 
L 224.059091 -56.717539 
L 225.010227 -57.002205 
L 225.961364 -57.291566 
L 226.9125 -57.585664 
L 227.863636 -57.88454 
L 228.814773 -58.188235 
L 229.765909 -58.496787 
L 230.717045 -58.810235 
L 231.668182 -59.128619 
L 232.619318 -59.451975 
L 233.570455 -59.780341 
L 234.521591 -60.113753 
L 235.472727 -60.452246 
L 236.423864 -60.795854 
L 237.375 -61.144612 
L 238.326136 -61.498551 
L 239.277273 -61.857705 
L 240.228409 -62.222104 
L 241.179545 -62.591777 
L 242.130682 -62.966754 
L 243.081818 -63.347063 
L 244.032955 -63.73273 
L 244.984091 -64.123782 
L 245.935227 -64.520242 
L 246.886364 -64.922134 
L 247.8375 -65.329481 
L 248.788636 -65.742304 
L 249.739773 -66.160621 
L 250.690909 -66.584453 
L 251.642045 -67.013815 
L 252.593182 -67.448723 
L 253.544318 -67.889193 
L 254.495455 -68.335236 
L 255.446591 -68.786865 
L 256.397727 -69.244089 
L 257.348864 -69.706917 
L 258.3 -70.175356 
L 259.251136 -70.649411 
L 260.202273 -71.129086 
L 261.153409 -71.614384 
L 262.104545 -72.105304 
L 263.055682 -72.601845 
L 264.006818 -73.104006 
L 264.957955 -73.61178 
L 265.909091 -74.125161 
L 266.860227 -74.644142 
L 267.811364 -75.168712 
L 268.7625 -75.698859 
L 269.713636 -76.234569 
L 270.664773 -76.775827 
L 271.615909 -77.322615 
L 272.567045 -77.874913 
L 273.518182 -78.4327 
L 274.469318 -78.995951 
L 275.420455 -79.564642 
L 276.371591 -80.138745 
L 277.322727 -80.718228 
L 278.273864 -81.303062 
L 279.225 -81.893212 
L 280.176136 -82.488641 
L 281.127273 -83.089311 
L 282.078409 -83.695182 
L 283.029545 -84.306211 
L 283.980682 -84.922353 
L 284.931818 -85.543561 
L 285.882955 -86.169785 
L 286.834091 -86.800975 
L 287.785227 -87.437076 
L 288.736364 -88.078031 
L 289.6875 -88.723783 
L 290.638636 -89.374271 
L 291.589773 -90.029431 
L 292.540909 -90.689198 
L 293.492045 -91.353506 
L 294.443182 -92.022282 
L 295.394318 -92.695456 
L 296.345455 -93.372952 
L 297.296591 -94.054694 
L 298.247727 -94.740602 
L 299.198864 -95.430595 
L 300.15 -96.124588 
L 301.101136 -96.822495 
L 302.052273 -97.524227 
L 303.003409 -98.229694 
L 303.954545 -98.938802 
L 304.905682 -99.651455 
L 305.856818 -100.367556 
L 306.807955 -101.087004 
L 307.759091 -101.809696 
L 308.710227 -102.535529 
L 309.661364 -103.264394 
L 310.6125 -103.996183 
L 311.563636 -104.730784 
L 312.514773 -105.468084 
L 313.465909 -106.207966 
L 314.417045 -106.950312 
L 315.368182 -107.695003 
L 316.319318 -108.441915 
L 317.270455 -109.190925 
L 318.221591 -109.941905 
L 319.172727 -110.694729 
L 320.123864 -111.449264 
L 321.075 -112.205378 
L 322.026136 -112.962937 
L 322.977273 -113.721804 
L 323.928409 -114.481841 
L 324.879545 -115.242908 
L 325.830682 -116.004863 
L 326.781818 -116.767562 
L 327.732955 -117.53086 
L 328.684091 -118.294609 
L 329.635227 -119.05866 
L 330.586364 -119.822863 
L 331.5375 -120.587066 
L 332.488636 -121.351116 
L 333.439773 -122.114856 
L 334.390909 -122.878131 
L 335.342045 -123.640783 
L 336.293182 -124.402653 
L 337.244318 -125.16358 
L 338.195455 -125.923401 
L 339.146591 -126.681956 
L 340.097727 -127.439078 
L 341.048864 -128.194604 
L 342 -128.948367 
L 342.951136 -129.700199 
L 343.902273 -130.449934 
L 344.853409 -131.197402 
L 345.804545 -131.942433 
L 346.755682 -132.684858 
L 347.706818 -133.424505 
L 348.657955 -134.161202 
L 349.609091 -134.894779 
L 350.560227 -135.625061 
L 351.511364 -136.351877 
L 352.4625 -137.075053 
L 353.413636 -137.794415 
L 354.364773 -138.50979 
L 355.315909 -139.221004 
L 356.267045 -139.927883 
L 357.218182 -140.630253 
L 358.169318 -141.32794 
L 359.120455 -142.020772 
L 360.071591 -142.708574 
L 361.022727 -143.391172 
L 361.973864 -144.068396 
L 362.925 -144.740072 
L 363.876136 -145.406028 
L 364.827273 -146.066093 
L 365.778409 -146.720097 
L 366.729545 -147.36787 
L 367.680682 -148.009242 
L 368.631818 -148.644047 
L 369.582955 -149.272115 
L 370.534091 -149.893282 
L 371.485227 -150.507383 
L 372.436364 -151.114252 
L 373.3875 -151.713728 
L 374.338636 -152.30565 
L 375.289773 -152.889856 
L 376.240909 -153.466189 
L 377.192045 -154.034492 
L 378.143182 -154.59461 
L 379.094318 -155.146388 
L 380.045455 -155.689674 
L 380.996591 -156.224319 
L 381.947727 -156.750173 
L 382.898864 -157.267092 
L 383.85 -157.774929 
L 384.801136 -158.273544 
L 385.752273 -158.762796 
L 386.703409 -159.242546 
L 387.654545 -159.71266 
L 388.605682 -160.173003 
L 389.556818 -160.623446 
L 390.507955 -161.063859 
L 391.459091 -161.494117 
L 392.410227 -161.914096 
L 393.361364 -162.323676 
L 394.3125 -162.722738 
L 395.263636 -163.111168 
L 396.214773 -163.488853 
L 397.165909 -163.855683 
L 398.117045 -164.211552 
L 399.068182 -164.556356 
L 400.019318 -164.889994 
L 400.970455 -165.21237 
L 401.921591 -165.523388 
L 402.872727 -165.822957 
L 403.823864 -166.110989 
L 404.775 -166.387399 
L 405.726136 -166.652107 
L 406.677273 -166.905033 
L 407.628409 -167.146103 
L 408.579545 -167.375245 
L 409.530682 -167.592391 
L 410.481818 -167.797478 
L 411.432955 -167.990444 
L 412.384091 -168.171231 
L 413.335227 -168.339786 
L 414.286364 -168.496058 
L 415.2375 -168.640001 
L 416.188636 -168.771572 
L 417.139773 -168.890732 
L 418.090909 -168.997444 
L 419.042045 -169.091678 
L 419.993182 -169.173404 
L 420.944318 -169.242598 
L 421.895455 -169.29924 
L 422.846591 -169.343313 
L 423.797727 -169.374803 
L 424.748864 -169.3937 
L 425.7 -169.4 
L 426.651136 -169.3937 
L 427.602273 -169.374803 
L 428.553409 -169.343313 
L 429.504545 -169.29924 
L 430.455682 -169.242598 
L 431.406818 -169.173404 
L 432.357955 -169.091678 
L 433.309091 -168.997444 
L 434.260227 -168.890732 
L 435.211364 -168.771572 
L 436.1625 -168.640001 
L 437.113636 -168.496058 
L 438.064773 -168.339786 
L 439.015909 -168.171231 
L 439.967045 -167.990444 
L 440.918182 -167.797478 
L 441.869318 -167.592391 
L 442.820455 -167.375245 
L 443.771591 -167.146103 
L 444.722727 -166.905033 
L 445.673864 -166.652107 
L 446.625 -166.387399 
L 447.576136 -166.110989 
L 448.527273 -165.822957 
L 449.478409 -165.523388 
L 450.429545 -165.21237 
L 451.380682 -164.889994 
L 452.331818 -164.556356 
L 453.282955 -164.211552 
L 454.234091 -163.855683 
L 455.185227 -163.488853 
L 456.136364 -163.111168 
L 457.0875 -162.722738 
L 458.038636 -162.323676 
L 458.989773 -161.914096 
L 459.940909 -161.494117 
L 460.892045 -161.063859 
L 461.843182 -160.623446 
L 462.794318 -160.173003 
L 463.745455 -159.71266 
L 464.696591 -159.242546 
L 465.647727 -158.762796 
L 466.598864 -158.273544 
L 467.55 -157.774929 
L 468.501136 -157.267092 
L 469.452273 -156.750173 
L 470.403409 -156.224319 
L 471.354545 -155.689674 
L 472.305682 -155.146388 
L 473.256818 -154.59461 
L 474.207955 -154.034492 
L 475.159091 -153.466189 
L 476.110227 -152.889856 
L 477.061364 -152.30565 
L 478.0125 -151.713728 
L 478.963636 -151.114252 
L 479.914773 -150.507383 
L 480.865909 -149.893282 
L 481.817045 -149.272115 
L 482.768182 -148.644047 
L 483.719318 -148.009242 
L 484.670455 -147.36787 
L 485.621591 -146.720097 
L 486.572727 -146.066093 
L 487.523864 -145.406028 
L 488.475 -144.740072 
L 489.426136 -144.068396 
L 490.377273 -143.391172 
L 491.328409 -142.708574 
L 492.279545 -142.020772 
L 493.230682 -141.32794 
L 494.181818 -140.630253 
L 495.132955 -139.927883 
L 496.084091 -139.221004 
L 497.035227 -138.50979 
L 497.986364 -137.794415 
L 498.9375 -137.075053 
L 499.888636 -136.351877 
L 500.839773 -135.625061 
L 501.790909 -134.894779 
L 502.742045 -134.161202 
L 503.693182 -133.424505 
L 504.644318 -132.684858 
L 505.595455 -131.942433 
L 506.546591 -131.197402 
L 507.497727 -130.449934 
L 508.448864 -129.700199 
L 509.4 -128.948367 
L 510.351136 -128.194604 
L 511.302273 -127.439078 
L 512.253409 -126.681956 
L 513.204545 -125.923401 
L 514.155682 -125.16358 
L 515.106818 -124.402653 
L 516.057955 -123.640783 
L 517.009091 -122.878131 
L 517.960227 -122.114856 
L 518.911364 -121.351116 
L 519.8625 -120.587066 
L 520.813636 -119.822863 
L 521.764773 -119.05866 
L 522.715909 -118.294609 
L 523.667045 -117.53086 
L 524.618182 -116.767562 
L 525.569318 -116.004863 
L 526.520455 -115.242908 
L 527.471591 -114.481841 
L 528.422727 -113.721804 
L 529.373864 -112.962937 
L 530.325 -112.205378 
L 531.276136 -111.449264 
L 532.227273 -110.694729 
L 533.178409 -109.941905 
L 534.129545 -109.190925 
L 535.080682 -108.441915 
L 536.031818 -107.695003 
L 536.982955 -106.950312 
L 537.934091 -106.207966 
L 538.885227 -105.468084 
L 539.836364 -104.730784 
L 540.7875 -103.996183 
L 541.738636 -103.264394 
L 542.689773 -102.535529 
L 543.640909 -101.809696 
L 544.592045 -101.087004 
L 545.543182 -100.367556 
L 546.494318 -99.651455 
L 547.445455 -98.938802 
L 548.396591 -98.229694 
L 549.347727 -97.524227 
L 550.298864 -96.822495 
L 551.25 -96.124588 
L 552.201136 -95.430595 
L 553.152273 -94.740602 
L 554.103409 -94.054694 
L 555.054545 -93.372952 
L 556.005682 -92.695456 
L 556.956818 -92.022282 
L 557.907955 -91.353506 
L 558.859091 -90.689198 
L 559.810227 -90.029431 
L 560.761364 -89.374271 
L 561.7125 -88.723783 
L 562.663636 -88.078031 
L 563.614773 -87.437076 
L 564.565909 -86.800975 
L 565.517045 -86.169785 
L 566.468182 -85.543561 
L 567.419318 -84.922353 
L 568.370455 -84.306211 
L 569.321591 -83.695182 
L 570.272727 -83.089311 
L 571.223864 -82.488641 
L 572.175 -81.893212 
L 573.126136 -81.303062 
L 574.077273 -80.718228 
L 575.028409 -80.138745 
L 575.979545 -79.564642 
L 576.930682 -78.995951 
L 577.881818 -78.4327 
L 578.832955 -77.874913 
L 579.784091 -77.322615 
L 580.735227 -76.775827 
L 581.686364 -76.234569 
L 582.6375 -75.698859 
L 583.588636 -75.168712 
L 584.539773 -74.644142 
L 585.490909 -74.125161 
L 586.442045 -73.61178 
L 587.393182 -73.104006 
L 588.344318 -72.601845 
L 589.295455 -72.105304 
L 590.246591 -71.614384 
L 591.197727 -71.129086 
L 592.148864 -70.649411 
L 593.1 -70.175356 
L 594.051136 -69.706917 
L 595.002273 -69.244089 
L 595.953409 -68.786865 
L 596.904545 -68.335236 
L 597.855682 -67.889193 
L 598.806818 -67.448723 
L 599.757955 -67.013815 
L 600.709091 -66.584453 
L 601.660227 -66.160621 
L 602.611364 -65.742304 
L 603.5625 -65.329481 
L 604.513636 -64.922134 
L 605.464773 -64.520242 
L 606.415909 -64.123782 
L 607.367045 -63.73273 
L 608.318182 -63.347063 
L 609.269318 -62.966754 
L 610.220455 -62.591777 
L 611.171591 -62.222104 
L 612.122727 -61.857705 
L 613.073864 -61.498551 
L 614.025 -61.144612 
L 614.976136 -60.795854 
L 615.927273 -60.452246 
L 616.878409 -60.113753 
L 617.829545 -59.780341 
L 618.780682 -59.451975 
L 619.731818 -59.128619 
L 620.682955 -58.810235 
L 621.634091 -58.496787 
L 622.585227 -58.188235 
L 623.536364 -57.88454 
L 624.4875 -57.585664 
L 625.438636 -57.291566 
L 626.389773 -57.002205 
L 627.340909 -56.717539 
L 628.292045 -56.437527 
L 629.243182 -56.162126 
L 630.194318 -55.891294 
L 631.145455 -55.624986 
L 632.096591 -55.36316 
L 633.047727 -55.10577 
L 633.998864 -54.852773 
L 634.95 -54.604124 
L 635.901136 -54.359777 
L 636.852273 -54.119686 
L 637.803409 -53.883807 
L 638.754545 -53.652093 
L 639.705682 -53.424498 
L 640.656818 -53.200975 
L 641.607955 -52.981478 
L 642.559091 -52.765961 
L 643.510227 -52.554375 
L 644.461364 -52.346675 
L 645.4125 -52.142812 
L 646.363636 -51.942741 
L 647.314773 -51.746413 
L 648.265909 -51.553782 
L 649.217045 -51.364801 
L 650.168182 -51.179421 
L 651.119318 -50.997596 
L 652.070455 -50.819279 
L 653.021591 -50.644423 
L 653.972727 -50.47298 
L 654.923864 -50.304904 
L 655.875 -50.140148 
L 656.826136 -49.978665 
L 657.777273 -49.82041 
L 658.728409 -49.665334 
L 659.679545 -49.513393 
L 660.630682 -49.36454 
L 661.581818 -49.218729 
L 662.532955 -49.075916 
L 663.484091 -48.936054 
L 664.435227 -48.799098 
L 665.386364 -48.665004 
L 666.3375 -48.533727 
L 667.288636 -48.405223 
L 668.239773 -48.279447 
L 669.190909 -48.156356 
L 670.142045 -48.035907 
L 671.093182 -47.918056 
L 672.044318 -47.802761 
L 672.995455 -47.689979 
L 673.946591 -47.579668 
L 674.897727 -47.471787 
L 675.848864 -47.366293 
L 676.8 -47.263146 
L 677.751136 -47.162305 
L 678.702273 -47.063731 
L 679.653409 -46.967382 
L 680.604545 -46.873219 
L 681.555682 -46.781204 
L 682.506818 -46.691298 
L 683.457955 -46.603461 
L 684.409091 -46.517657 
L 685.360227 -46.433848 
L 686.311364 -46.351997 
L 687.2625 -46.272067 
L 688.213636 -46.194021 
L 689.164773 -46.117825 
L 690.115909 -46.043442 
L 691.067045 -45.970838 
L 692.018182 -45.899978 
L 692.969318 -45.830828 
L 693.920455 -45.763354 
L 694.871591 -45.697524 
L 695.822727 -45.633304 
L 696.773864 -45.570661 
L 697.725 -45.509565 
L 698.676136 -45.449984 
L 699.627273 -45.391886 
L 700.578409 -45.335241 
L 701.529545 -45.280019 
L 702.480682 -45.22619 
L 703.431818 -45.173725 
L 704.382955 -45.122595 
L 705.334091 -45.072772 
L 706.285227 -45.024227 
L 707.236364 -44.976933 
L 708.1875 -44.930863 
L 709.138636 -44.885991 
L 710.089773 -44.84229 
L 711.040909 -44.799734 
L 711.992045 -44.758297 
L 712.943182 -44.717956 
L 713.894318 -44.678685 
L 714.845455 -44.64046 
L 715.796591 -44.603257 
L 716.747727 -44.567053 
L 717.698864 -44.531826 
L 718.65 -44.497552 
L 719.601136 -44.464209 
L 720.552273 -44.431776 
L 721.503409 -44.400232 
L 722.454545 -44.369555 
L 723.405682 -44.339725 
L 724.356818 -44.310722 
L 725.307955 -44.282525 
L 726.259091 -44.255116 
L 727.210227 -44.228475 
L 728.161364 -44.202585 
L 729.1125 -44.177425 
L 730.063636 -44.152979 
L 731.014773 -44.129229 
L 731.965909 -44.106157 
L 732.917045 -44.083746 
L 733.868182 -44.061981 
L 734.819318 -44.040845 
L 735.770455 -44.020321 
L 736.721591 -44.000395 
L 737.672727 -43.98105 
L 738.623864 -43.962273 
L 739.575 -43.944048 
L 740.526136 -43.926361 
L 741.477273 -43.909198 
L 742.428409 -43.892546 
L 743.379545 -43.87639 
L 744.330682 -43.860718 
L 745.281818 -43.845518 
L 746.232955 -43.830776 
L 747.184091 -43.816479 
L 748.135227 -43.802618 
L 749.086364 -43.789178 
L 750.0375 -43.77615 
L 750.988636 -43.763521 
L 751.939773 -43.751281 
L 752.890909 -43.73942 
L 753.842045 -43.727926 
L 754.793182 -43.716789 
L 755.744318 -43.706001 
L 756.695455 -43.69555 
L 757.646591 -43.685427 
L 758.597727 -43.675624 
L 759.548864 -43.666131 
L 760.5 -43.656939 
L 761.451136 -43.648039 
L 762.402273 -43.639424 
L 763.353409 -43.631085 
L 764.304545 -43.623015 
L 765.255682 -43.615204 
L 766.206818 -43.607647 
L 767.157955 -43.600334 
L 768.109091 -43.59326 
L 769.060227 -43.586417 
L 770.011364 -43.579799 
L 770.9625 -43.573398 
L 771.913636 -43.567208 
L 772.864773 -43.561223 
L 773.815909 -43.555436 
L 774.767045 -43.549843 
L 775.718182 -43.544436 
L 776.669318 -43.539211 
L 777.620455 -43.534161 
L 778.571591 -43.529281 
L 779.522727 -43.524566 
L 780.473864 -43.520011 
L 781.425 -43.515612 
L 782.376136 -43.511362 
L 783.327273 -43.507258 
L 784.278409 -43.503295 
L 785.229545 -43.499468 
L 786.180682 -43.495774 
L 787.131818 -43.492207 
L 788.082955 -43.488765 
L 789.034091 -43.485442 
L 789.985227 -43.482236 
L 790.936364 -43.479141 
L 791.8875 -43.476156 
L 792.838636 -43.473276 
L 793.789773 -43.470498 
L 794.740909 -43.467819 
L 795.692045 -43.465234 
L 796.643182 -43.462742 
L 797.594318 -43.46034 
L 798.545455 -43.458023 
L 799.496591 -43.45579 
L 800.447727 -43.453637 
L 801.398864 -43.451562 
L 802.35 -43.449563 
L 803.301136 -43.447636 
L 804.252273 -43.44578 
L 805.203409 -43.443991 
L 806.154545 -43.442268 
L 806.154545 -43.4 
L 806.154545 -43.4 
L 805.203409 -43.4 
L 804.252273 -43.4 
L 803.301136 -43.4 
L 802.35 -43.4 
L 801.398864 -43.4 
L 800.447727 -43.4 
L 799.496591 -43.4 
L 798.545455 -43.4 
L 797.594318 -43.4 
L 796.643182 -43.4 
L 795.692045 -43.4 
L 794.740909 -43.4 
L 793.789773 -43.4 
L 792.838636 -43.4 
L 791.8875 -43.4 
L 790.936364 -43.4 
L 789.985227 -43.4 
L 789.034091 -43.4 
L 788.082955 -43.4 
L 787.131818 -43.4 
L 786.180682 -43.4 
L 785.229545 -43.4 
L 784.278409 -43.4 
L 783.327273 -43.4 
L 782.376136 -43.4 
L 781.425 -43.4 
L 780.473864 -43.4 
L 779.522727 -43.4 
L 778.571591 -43.4 
L 777.620455 -43.4 
L 776.669318 -43.4 
L 775.718182 -43.4 
L 774.767045 -43.4 
L 773.815909 -43.4 
L 772.864773 -43.4 
L 771.913636 -43.4 
L 770.9625 -43.4 
L 770.011364 -43.4 
L 769.060227 -43.4 
L 768.109091 -43.4 
L 767.157955 -43.4 
L 766.206818 -43.4 
L 765.255682 -43.4 
L 764.304545 -43.4 
L 763.353409 -43.4 
L 762.402273 -43.4 
L 761.451136 -43.4 
L 760.5 -43.4 
L 759.548864 -43.4 
L 758.597727 -43.4 
L 757.646591 -43.4 
L 756.695455 -43.4 
L 755.744318 -43.4 
L 754.793182 -43.4 
L 753.842045 -43.4 
L 752.890909 -43.4 
L 751.939773 -43.4 
L 750.988636 -43.4 
L 750.0375 -43.4 
L 749.086364 -43.4 
L 748.135227 -43.4 
L 747.184091 -43.4 
L 746.232955 -43.4 
L 745.281818 -43.4 
L 744.330682 -43.4 
L 743.379545 -43.4 
L 742.428409 -43.4 
L 741.477273 -43.4 
L 740.526136 -43.4 
L 739.575 -43.4 
L 738.623864 -43.4 
L 737.672727 -43.4 
L 736.721591 -43.4 
L 735.770455 -43.4 
L 734.819318 -43.4 
L 733.868182 -43.4 
L 732.917045 -43.4 
L 731.965909 -43.4 
L 731.014773 -43.4 
L 730.063636 -43.4 
L 729.1125 -43.4 
L 728.161364 -43.4 
L 727.210227 -43.4 
L 726.259091 -43.4 
L 725.307955 -43.4 
L 724.356818 -43.4 
L 723.405682 -43.4 
L 722.454545 -43.4 
L 721.503409 -43.4 
L 720.552273 -43.4 
L 719.601136 -43.4 
L 718.65 -43.4 
L 717.698864 -43.4 
L 716.747727 -43.4 
L 715.796591 -43.4 
L 714.845455 -43.4 
L 713.894318 -43.4 
L 712.943182 -43.4 
L 711.992045 -43.4 
L 711.040909 -43.4 
L 710.089773 -43.4 
L 709.138636 -43.4 
L 708.1875 -43.4 
L 707.236364 -43.4 
L 706.285227 -43.4 
L 705.334091 -43.4 
L 704.382955 -43.4 
L 703.431818 -43.4 
L 702.480682 -43.4 
L 701.529545 -43.4 
L 700.578409 -43.4 
L 699.627273 -43.4 
L 698.676136 -43.4 
L 697.725 -43.4 
L 696.773864 -43.4 
L 695.822727 -43.4 
L 694.871591 -43.4 
L 693.920455 -43.4 
L 692.969318 -43.4 
L 692.018182 -43.4 
L 691.067045 -43.4 
L 690.115909 -43.4 
L 689.164773 -43.4 
L 688.213636 -43.4 
L 687.2625 -43.4 
L 686.311364 -43.4 
L 685.360227 -43.4 
L 684.409091 -43.4 
L 683.457955 -43.4 
L 682.506818 -43.4 
L 681.555682 -43.4 
L 680.604545 -43.4 
L 679.653409 -43.4 
L 678.702273 -43.4 
L 677.751136 -43.4 
L 676.8 -43.4 
L 675.848864 -43.4 
L 674.897727 -43.4 
L 673.946591 -43.4 
L 672.995455 -43.4 
L 672.044318 -43.4 
L 671.093182 -43.4 
L 670.142045 -43.4 
L 669.190909 -43.4 
L 668.239773 -43.4 
L 667.288636 -43.4 
L 666.3375 -43.4 
L 665.386364 -43.4 
L 664.435227 -43.4 
L 663.484091 -43.4 
L 662.532955 -43.4 
L 661.581818 -43.4 
L 660.630682 -43.4 
L 659.679545 -43.4 
L 658.728409 -43.4 
L 657.777273 -43.4 
L 656.826136 -43.4 
L 655.875 -43.4 
L 654.923864 -43.4 
L 653.972727 -43.4 
L 653.021591 -43.4 
L 652.070455 -43.4 
L 651.119318 -43.4 
L 650.168182 -43.4 
L 649.217045 -43.4 
L 648.265909 -43.4 
L 647.314773 -43.4 
L 646.363636 -43.4 
L 645.4125 -43.4 
L 644.461364 -43.4 
L 643.510227 -43.4 
L 642.559091 -43.4 
L 641.607955 -43.4 
L 640.656818 -43.4 
L 639.705682 -43.4 
L 638.754545 -43.4 
L 637.803409 -43.4 
L 636.852273 -43.4 
L 635.901136 -43.4 
L 634.95 -43.4 
L 633.998864 -43.4 
L 633.047727 -43.4 
L 632.096591 -43.4 
L 631.145455 -43.4 
L 630.194318 -43.4 
L 629.243182 -43.4 
L 628.292045 -43.4 
L 627.340909 -43.4 
L 626.389773 -43.4 
L 625.438636 -43.4 
L 624.4875 -43.4 
L 623.536364 -43.4 
L 622.585227 -43.4 
L 621.634091 -43.4 
L 620.682955 -43.4 
L 619.731818 -43.4 
L 618.780682 -43.4 
L 617.829545 -43.4 
L 616.878409 -43.4 
L 615.927273 -43.4 
L 614.976136 -43.4 
L 614.025 -43.4 
L 613.073864 -43.4 
L 612.122727 -43.4 
L 611.171591 -43.4 
L 610.220455 -43.4 
L 609.269318 -43.4 
L 608.318182 -43.4 
L 607.367045 -43.4 
L 606.415909 -43.4 
L 605.464773 -43.4 
L 604.513636 -43.4 
L 603.5625 -43.4 
L 602.611364 -43.4 
L 601.660227 -43.4 
L 600.709091 -43.4 
L 599.757955 -43.4 
L 598.806818 -43.4 
L 597.855682 -43.4 
L 596.904545 -43.4 
L 595.953409 -43.4 
L 595.002273 -43.4 
L 594.051136 -43.4 
L 593.1 -43.4 
L 592.148864 -43.4 
L 591.197727 -43.4 
L 590.246591 -43.4 
L 589.295455 -43.4 
L 588.344318 -43.4 
L 587.393182 -43.4 
L 586.442045 -43.4 
L 585.490909 -43.4 
L 584.539773 -43.4 
L 583.588636 -43.4 
L 582.6375 -43.4 
L 581.686364 -43.4 
L 580.735227 -43.4 
L 579.784091 -43.4 
L 578.832955 -43.4 
L 577.881818 -43.4 
L 576.930682 -43.4 
L 575.979545 -43.4 
L 575.028409 -43.4 
L 574.077273 -43.4 
L 573.126136 -43.4 
L 572.175 -43.4 
L 571.223864 -43.4 
L 570.272727 -43.4 
L 569.321591 -43.4 
L 568.370455 -43.4 
L 567.419318 -43.4 
L 566.468182 -43.4 
L 565.517045 -43.4 
L 564.565909 -43.4 
L 563.614773 -43.4 
L 562.663636 -43.4 
L 561.7125 -43.4 
L 560.761364 -43.4 
L 559.810227 -43.4 
L 558.859091 -43.4 
L 557.907955 -43.4 
L 556.956818 -43.4 
L 556.005682 -43.4 
L 555.054545 -43.4 
L 554.103409 -43.4 
L 553.152273 -43.4 
L 552.201136 -43.4 
L 551.25 -43.4 
L 550.298864 -43.4 
L 549.347727 -43.4 
L 548.396591 -43.4 
L 547.445455 -43.4 
L 546.494318 -43.4 
L 545.543182 -43.4 
L 544.592045 -43.4 
L 543.640909 -43.4 
L 542.689773 -43.4 
L 541.738636 -43.4 
L 540.7875 -43.4 
L 539.836364 -43.4 
L 538.885227 -43.4 
L 537.934091 -43.4 
L 536.982955 -43.4 
L 536.031818 -43.4 
L 535.080682 -43.4 
L 534.129545 -43.4 
L 533.178409 -43.4 
L 532.227273 -43.4 
L 531.276136 -43.4 
L 530.325 -43.4 
L 529.373864 -43.4 
L 528.422727 -43.4 
L 527.471591 -43.4 
L 526.520455 -43.4 
L 525.569318 -43.4 
L 524.618182 -43.4 
L 523.667045 -43.4 
L 522.715909 -43.4 
L 521.764773 -43.4 
L 520.813636 -43.4 
L 519.8625 -43.4 
L 518.911364 -43.4 
L 517.960227 -43.4 
L 517.009091 -43.4 
L 516.057955 -43.4 
L 515.106818 -43.4 
L 514.155682 -43.4 
L 513.204545 -43.4 
L 512.253409 -43.4 
L 511.302273 -43.4 
L 510.351136 -43.4 
L 509.4 -43.4 
L 508.448864 -43.4 
L 507.497727 -43.4 
L 506.546591 -43.4 
L 505.595455 -43.4 
L 504.644318 -43.4 
L 503.693182 -43.4 
L 502.742045 -43.4 
L 501.790909 -43.4 
L 500.839773 -43.4 
L 499.888636 -43.4 
L 498.9375 -43.4 
L 497.986364 -43.4 
L 497.035227 -43.4 
L 496.084091 -43.4 
L 495.132955 -43.4 
L 494.181818 -43.4 
L 493.230682 -43.4 
L 492.279545 -43.4 
L 491.328409 -43.4 
L 490.377273 -43.4 
L 489.426136 -43.4 
L 488.475 -43.4 
L 487.523864 -43.4 
L 486.572727 -43.4 
L 485.621591 -43.4 
L 484.670455 -43.4 
L 483.719318 -43.4 
L 482.768182 -43.4 
L 481.817045 -43.4 
L 480.865909 -43.4 
L 479.914773 -43.4 
L 478.963636 -43.4 
L 478.0125 -43.4 
L 477.061364 -43.4 
L 476.110227 -43.4 
L 475.159091 -43.4 
L 474.207955 -43.4 
L 473.256818 -43.4 
L 472.305682 -43.4 
L 471.354545 -43.4 
L 470.403409 -43.4 
L 469.452273 -43.4 
L 468.501136 -43.4 
L 467.55 -43.4 
L 466.598864 -43.4 
L 465.647727 -43.4 
L 464.696591 -43.4 
L 463.745455 -43.4 
L 462.794318 -43.4 
L 461.843182 -43.4 
L 460.892045 -43.4 
L 459.940909 -43.4 
L 458.989773 -43.4 
L 458.038636 -43.4 
L 457.0875 -43.4 
L 456.136364 -43.4 
L 455.185227 -43.4 
L 454.234091 -43.4 
L 453.282955 -43.4 
L 452.331818 -43.4 
L 451.380682 -43.4 
L 450.429545 -43.4 
L 449.478409 -43.4 
L 448.527273 -43.4 
L 447.576136 -43.4 
L 446.625 -43.4 
L 445.673864 -43.4 
L 444.722727 -43.4 
L 443.771591 -43.4 
L 442.820455 -43.4 
L 441.869318 -43.4 
L 440.918182 -43.4 
L 439.967045 -43.4 
L 439.015909 -43.4 
L 438.064773 -43.4 
L 437.113636 -43.4 
L 436.1625 -43.4 
L 435.211364 -43.4 
L 434.260227 -43.4 
L 433.309091 -43.4 
L 432.357955 -43.4 
L 431.406818 -43.4 
L 430.455682 -43.4 
L 429.504545 -43.4 
L 428.553409 -43.4 
L 427.602273 -43.4 
L 426.651136 -43.4 
L 425.7 -43.4 
L 424.748864 -43.4 
L 423.797727 -43.4 
L 422.846591 -43.4 
L 421.895455 -43.4 
L 420.944318 -43.4 
L 419.993182 -43.4 
L 419.042045 -43.4 
L 418.090909 -43.4 
L 417.139773 -43.4 
L 416.188636 -43.4 
L 415.2375 -43.4 
L 414.286364 -43.4 
L 413.335227 -43.4 
L 412.384091 -43.4 
L 411.432955 -43.4 
L 410.481818 -43.4 
L 409.530682 -43.4 
L 408.579545 -43.4 
L 407.628409 -43.4 
L 406.677273 -43.4 
L 405.726136 -43.4 
L 404.775 -43.4 
L 403.823864 -43.4 
L 402.872727 -43.4 
L 401.921591 -43.4 
L 400.970455 -43.4 
L 400.019318 -43.4 
L 399.068182 -43.4 
L 398.117045 -43.4 
L 397.165909 -43.4 
L 396.214773 -43.4 
L 395.263636 -43.4 
L 394.3125 -43.4 
L 393.361364 -43.4 
L 392.410227 -43.4 
L 391.459091 -43.4 
L 390.507955 -43.4 
L 389.556818 -43.4 
L 388.605682 -43.4 
L 387.654545 -43.4 
L 386.703409 -43.4 
L 385.752273 -43.4 
L 384.801136 -43.4 
L 383.85 -43.4 
L 382.898864 -43.4 
L 381.947727 -43.4 
L 380.996591 -43.4 
L 380.045455 -43.4 
L 379.094318 -43.4 
L 378.143182 -43.4 
L 377.192045 -43.4 
L 376.240909 -43.4 
L 375.289773 -43.4 
L 374.338636 -43.4 
L 373.3875 -43.4 
L 372.436364 -43.4 
L 371.485227 -43.4 
L 370.534091 -43.4 
L 369.582955 -43.4 
L 368.631818 -43.4 
L 367.680682 -43.4 
L 366.729545 -43.4 
L 365.778409 -43.4 
L 364.827273 -43.4 
L 363.876136 -43.4 
L 362.925 -43.4 
L 361.973864 -43.4 
L 361.022727 -43.4 
L 360.071591 -43.4 
L 359.120455 -43.4 
L 358.169318 -43.4 
L 357.218182 -43.4 
L 356.267045 -43.4 
L 355.315909 -43.4 
L 354.364773 -43.4 
L 353.413636 -43.4 
L 352.4625 -43.4 
L 351.511364 -43.4 
L 350.560227 -43.4 
L 349.609091 -43.4 
L 348.657955 -43.4 
L 347.706818 -43.4 
L 346.755682 -43.4 
L 345.804545 -43.4 
L 344.853409 -43.4 
L 343.902273 -43.4 
L 342.951136 -43.4 
L 342 -43.4 
L 341.048864 -43.4 
L 340.097727 -43.4 
L 339.146591 -43.4 
L 338.195455 -43.4 
L 337.244318 -43.4 
L 336.293182 -43.4 
L 335.342045 -43.4 
L 334.390909 -43.4 
L 333.439773 -43.4 
L 332.488636 -43.4 
L 331.5375 -43.4 
L 330.586364 -43.4 
L 329.635227 -43.4 
L 328.684091 -43.4 
L 327.732955 -43.4 
L 326.781818 -43.4 
L 325.830682 -43.4 
L 324.879545 -43.4 
L 323.928409 -43.4 
L 322.977273 -43.4 
L 322.026136 -43.4 
L 321.075 -43.4 
L 320.123864 -43.4 
L 319.172727 -43.4 
L 318.221591 -43.4 
L 317.270455 -43.4 
L 316.319318 -43.4 
L 315.368182 -43.4 
L 314.417045 -43.4 
L 313.465909 -43.4 
L 312.514773 -43.4 
L 311.563636 -43.4 
L 310.6125 -43.4 
L 309.661364 -43.4 
L 308.710227 -43.4 
L 307.759091 -43.4 
L 306.807955 -43.4 
L 305.856818 -43.4 
L 304.905682 -43.4 
L 303.954545 -43.4 
L 303.003409 -43.4 
L 302.052273 -43.4 
L 301.101136 -43.4 
L 300.15 -43.4 
L 299.198864 -43.4 
L 298.247727 -43.4 
L 297.296591 -43.4 
L 296.345455 -43.4 
L 295.394318 -43.4 
L 294.443182 -43.4 
L 293.492045 -43.4 
L 292.540909 -43.4 
L 291.589773 -43.4 
L 290.638636 -43.4 
L 289.6875 -43.4 
L 288.736364 -43.4 
L 287.785227 -43.4 
L 286.834091 -43.4 
L 285.882955 -43.4 
L 284.931818 -43.4 
L 283.980682 -43.4 
L 283.029545 -43.4 
L 282.078409 -43.4 
L 281.127273 -43.4 
L 280.176136 -43.4 
L 279.225 -43.4 
L 278.273864 -43.4 
L 277.322727 -43.4 
L 276.371591 -43.4 
L 275.420455 -43.4 
L 274.469318 -43.4 
L 273.518182 -43.4 
L 272.567045 -43.4 
L 271.615909 -43.4 
L 270.664773 -43.4 
L 269.713636 -43.4 
L 268.7625 -43.4 
L 267.811364 -43.4 
L 266.860227 -43.4 
L 265.909091 -43.4 
L 264.957955 -43.4 
L 264.006818 -43.4 
L 263.055682 -43.4 
L 262.104545 -43.4 
L 261.153409 -43.4 
L 260.202273 -43.4 
L 259.251136 -43.4 
L 258.3 -43.4 
L 257.348864 -43.4 
L 256.397727 -43.4 
L 255.446591 -43.4 
L 254.495455 -43.4 
L 253.544318 -43.4 
L 252.593182 -43.4 
L 251.642045 -43.4 
L 250.690909 -43.4 
L 249.739773 -43.4 
L 248.788636 -43.4 
L 247.8375 -43.4 
L 246.886364 -43.4 
L 245.935227 -43.4 
L 244.984091 -43.4 
L 244.032955 -43.4 
L 243.081818 -43.4 
L 242.130682 -43.4 
L 241.179545 -43.4 
L 240.228409 -43.4 
L 239.277273 -43.4 
L 238.326136 -43.4 
L 237.375 -43.4 
L 236.423864 -43.4 
L 235.472727 -43.4 
L 234.521591 -43.4 
L 233.570455 -43.4 
L 232.619318 -43.4 
L 231.668182 -43.4 
L 230.717045 -43.4 
L 229.765909 -43.4 
L 228.814773 -43.4 
L 227.863636 -43.4 
L 226.9125 -43.4 
L 225.961364 -43.4 
L 225.010227 -43.4 
L 224.059091 -43.4 
L 223.107955 -43.4 
L 222.156818 -43.4 
L 221.205682 -43.4 
L 220.254545 -43.4 
L 219.303409 -43.4 
L 218.352273 -43.4 
L 217.401136 -43.4 
L 216.45 -43.4 
L 215.498864 -43.4 
L 214.547727 -43.4 
L 213.596591 -43.4 
L 212.645455 -43.4 
L 211.694318 -43.4 
L 210.743182 -43.4 
L 209.792045 -43.4 
L 208.840909 -43.4 
L 207.889773 -43.4 
L 206.938636 -43.4 
L 205.9875 -43.4 
L 205.036364 -43.4 
L 204.085227 -43.4 
L 203.134091 -43.4 
L 202.182955 -43.4 
L 201.231818 -43.4 
L 200.280682 -43.4 
L 199.329545 -43.4 
L 198.378409 -43.4 
L 197.427273 -43.4 
L 196.476136 -43.4 
L 195.525 -43.4 
L 194.573864 -43.4 
L 193.622727 -43.4 
L 192.671591 -43.4 
L 191.720455 -43.4 
L 190.769318 -43.4 
L 189.818182 -43.4 
L 188.867045 -43.4 
L 187.915909 -43.4 
L 186.964773 -43.4 
L 186.013636 -43.4 
L 185.0625 -43.4 
L 184.111364 -43.4 
L 183.160227 -43.4 
L 182.209091 -43.4 
L 181.257955 -43.4 
L 180.306818 -43.4 
L 179.355682 -43.4 
L 178.404545 -43.4 
L 177.453409 -43.4 
L 176.502273 -43.4 
L 175.551136 -43.4 
L 174.6 -43.4 
L 173.648864 -43.4 
L 172.697727 -43.4 
L 171.746591 -43.4 
L 170.795455 -43.4 
L 169.844318 -43.4 
L 168.893182 -43.4 
L 167.942045 -43.4 
L 166.990909 -43.4 
L 166.039773 -43.4 
L 165.088636 -43.4 
L 164.1375 -43.4 
L 163.186364 -43.4 
L 162.235227 -43.4 
L 161.284091 -43.4 
L 160.332955 -43.4 
L 159.381818 -43.4 
L 158.430682 -43.4 
L 157.479545 -43.4 
L 156.528409 -43.4 
L 155.577273 -43.4 
L 154.626136 -43.4 
L 153.675 -43.4 
L 152.723864 -43.4 
L 151.772727 -43.4 
L 150.821591 -43.4 
L 149.870455 -43.4 
L 148.919318 -43.4 
L 147.968182 -43.4 
L 147.017045 -43.4 
L 146.065909 -43.4 
L 145.114773 -43.4 
L 144.163636 -43.4 
L 143.2125 -43.4 
L 142.261364 -43.4 
L 141.310227 -43.4 
L 140.359091 -43.4 
L 139.407955 -43.4 
L 138.456818 -43.4 
L 137.505682 -43.4 
L 136.554545 -43.4 
L 135.603409 -43.4 
L 134.652273 -43.4 
L 133.701136 -43.4 
L 132.75 -43.4 
L 131.798864 -43.4 
L 130.847727 -43.4 
L 129.896591 -43.4 
L 128.945455 -43.4 
L 127.994318 -43.4 
L 127.043182 -43.4 
L 126.092045 -43.4 
L 125.140909 -43.4 
L 124.189773 -43.4 
L 123.238636 -43.4 
L 122.2875 -43.4 
L 121.336364 -43.4 
L 120.385227 -43.4 
L 119.434091 -43.4 
L 118.482955 -43.4 
L 117.531818 -43.4 
L 116.580682 -43.4 
L 115.629545 -43.4 
L 114.678409 -43.4 
L 113.727273 -43.4 
L 112.776136 -43.4 
L 111.825 -43.4 
L 110.873864 -43.4 
L 109.922727 -43.4 
L 108.971591 -43.4 
L 108.020455 -43.4 
L 107.069318 -43.4 
L 106.118182 -43.4 
L 105.167045 -43.4 
L 104.215909 -43.4 
L 103.264773 -43.4 
L 102.313636 -43.4 
L 101.3625 -43.4 
L 100.411364 -43.4 
L 99.460227 -43.4 
L 98.509091 -43.4 
L 97.557955 -43.4 
L 96.606818 -43.4 
L 95.655682 -43.4 
L 94.704545 -43.4 
L 93.753409 -43.4 
L 92.802273 -43.4 
L 91.851136 -43.4 
L 90.9 -43.4 
L 89.948864 -43.4 
L 88.997727 -43.4 
L 88.046591 -43.4 
L 87.095455 -43.4 
L 86.144318 -43.4 
L 85.193182 -43.4 
L 84.242045 -43.4 
L 83.290909 -43.4 
L 82.339773 -43.4 
L 81.388636 -43.4 
L 80.4375 -43.4 
L 79.486364 -43.4 
L 78.535227 -43.4 
L 77.584091 -43.4 
L 76.632955 -43.4 
L 75.681818 -43.4 
L 74.730682 -43.4 
L 73.779545 -43.4 
L 72.828409 -43.4 
L 71.877273 -43.4 
L 70.926136 -43.4 
L 69.975 -43.4 
L 69.023864 -43.4 
L 68.072727 -43.4 
L 67.121591 -43.4 
L 66.170455 -43.4 
L 65.219318 -43.4 
L 64.268182 -43.4 
L 63.317045 -43.4 
L 62.365909 -43.4 
L 61.414773 -43.4 
L 60.463636 -43.4 
L 59.5125 -43.4 
L 58.561364 -43.4 
L 57.610227 -43.4 
L 56.659091 -43.4 
L 55.707955 -43.4 
L 54.756818 -43.4 
L 53.805682 -43.4 
L 52.854545 -43.4 
L 51.903409 -43.4 
L 50.952273 -43.4 
L 50.001136 -43.4 
L 49.05 -43.4 
L 48.098864 -43.4 
L 47.147727 -43.4 
L 46.196591 -43.4 
L 45.245455 -43.4 
z
" style="stroke: #2f4f4f; stroke-opacity: 0.6"/>
    </defs>
    <g clip-path="url(#p95f67eb0a0)">
     <use xlink:href="#m68fce79b23" x="0" y="315.2" style="fill: #2f4f4f; fill-opacity: 0.6; stroke: #2f4f4f; stroke-opacity: 0.6"/>
    </g>
   </g>
   <g id="line2d_1">
    <path d="M 425.7 284.4 
L 425.7 7.2 
" clip-path="url(#p95f67eb0a0)" style="fill: none; stroke-dasharray: 3.7,1.6; stroke-dashoffset: 0; stroke: #000000"/>
   </g>
  </g>
 </g>
 <defs>
  <clipPath id="p95f67eb0a0">
   <rect x="7.2" y="7.2" width="837" height="277.2"/>
  </clipPath>
 </defs>
</svg>
