<?xml version="1.0" encoding="UTF-8"?>
<svg xmlns="http://www.w3.org/2000/svg" xmlns:xlink="http://www.w3.org/1999/xlink" width="648pt" height="273pt" viewBox="0 0 648 273">
<defs>
<g>
<g id="glyph-0-0">
<path d="M 5.300781 0 L 4.050781 0 L 4.050781 -7.96875 C 3.75 -7.679688 3.355469 -7.394531 2.867188 -7.105469 C 2.375 -6.820312 1.9375 -6.605469 1.550781 -6.460938 L 1.550781 -7.667969 C 2.25 -7.996094 2.859375 -8.394531 3.382812 -8.863281 C 3.90625 -9.332031 4.277344 -9.785156 4.496094 -10.226562 L 5.300781 -10.226562 Z M 5.300781 0 "/>
</g>
<g id="glyph-0-1">
<path d="M 0.777344 -2.355469 L 1.980469 -2.464844 C 2.082031 -1.902344 2.277344 -1.492188 2.5625 -1.238281 C 2.851562 -0.980469 3.21875 -0.855469 3.667969 -0.855469 C 4.050781 -0.855469 4.390625 -0.941406 4.679688 -1.117188 C 4.96875 -1.292969 5.207031 -1.53125 5.390625 -1.824219 C 5.574219 -2.117188 5.730469 -2.515625 5.855469 -3.015625 C 5.980469 -3.515625 6.042969 -4.023438 6.042969 -4.542969 C 6.042969 -4.597656 6.042969 -4.683594 6.035156 -4.792969 C 5.785156 -4.394531 5.445312 -4.070312 5.011719 -3.824219 C 4.578125 -3.578125 4.109375 -3.453125 3.605469 -3.453125 C 2.761719 -3.453125 2.050781 -3.757812 1.464844 -4.371094 C 0.882812 -4.980469 0.589844 -5.785156 0.589844 -6.785156 C 0.589844 -7.820312 0.894531 -8.652344 1.503906 -9.28125 C 2.113281 -9.910156 2.875 -10.226562 3.792969 -10.226562 C 4.453125 -10.226562 5.058594 -10.046875 5.609375 -9.691406 C 6.15625 -9.332031 6.574219 -8.824219 6.859375 -8.164062 C 7.144531 -7.503906 7.285156 -6.550781 7.285156 -5.300781 C 7.285156 -4 7.144531 -2.960938 6.863281 -2.191406 C 6.582031 -1.421875 6.160156 -0.832031 5.601562 -0.429688 C 5.042969 -0.0273438 4.390625 0.171875 3.640625 0.171875 C 2.84375 0.171875 2.191406 -0.046875 1.6875 -0.488281 C 1.183594 -0.933594 0.878906 -1.554688 0.777344 -2.355469 M 5.898438 -6.847656 C 5.898438 -7.566406 5.707031 -8.136719 5.324219 -8.558594 C 4.941406 -8.980469 4.484375 -9.191406 3.945312 -9.191406 C 3.390625 -9.191406 2.90625 -8.964844 2.492188 -8.507812 C 2.082031 -8.054688 1.875 -7.46875 1.875 -6.746094 C 1.875 -6.097656 2.070312 -5.570312 2.460938 -5.164062 C 2.855469 -4.757812 3.335938 -4.558594 3.910156 -4.558594 C 4.488281 -4.558594 4.964844 -4.757812 5.339844 -5.164062 C 5.710938 -5.570312 5.898438 -6.132812 5.898438 -6.847656 Z M 5.898438 -6.847656 "/>
</g>
<g id="glyph-0-2">
<path d="M 0.589844 -5.023438 C 0.589844 -6.226562 0.714844 -7.195312 0.960938 -7.929688 C 1.210938 -8.664062 1.578125 -9.230469 2.066406 -9.628906 C 2.554688 -10.027344 3.167969 -10.226562 3.910156 -10.226562 C 4.457031 -10.226562 4.9375 -10.113281 5.347656 -9.894531 C 5.761719 -9.675781 6.101562 -9.359375 6.371094 -8.945312 C 6.636719 -8.527344 6.847656 -8.023438 7.003906 -7.429688 C 7.15625 -6.835938 7.230469 -6.03125 7.230469 -5.023438 C 7.230469 -3.828125 7.109375 -2.863281 6.863281 -2.128906 C 6.617188 -1.394531 6.25 -0.828125 5.761719 -0.425781 C 5.273438 -0.0273438 4.65625 0.171875 3.910156 0.171875 C 2.929688 0.171875 2.15625 -0.179688 1.597656 -0.882812 C 0.925781 -1.730469 0.589844 -3.109375 0.589844 -5.023438 M 1.875 -5.023438 C 1.875 -3.351562 2.070312 -2.238281 2.460938 -1.683594 C 2.855469 -1.132812 3.335938 -0.855469 3.910156 -0.855469 C 4.484375 -0.855469 4.96875 -1.132812 5.359375 -1.6875 C 5.75 -2.242188 5.945312 -3.355469 5.945312 -5.023438 C 5.945312 -6.699219 5.75 -7.8125 5.359375 -8.363281 C 4.96875 -8.914062 4.480469 -9.191406 3.898438 -9.191406 C 3.324219 -9.191406 2.863281 -8.945312 2.523438 -8.460938 C 2.089844 -7.839844 1.875 -6.695312 1.875 -5.023438 Z M 1.875 -5.023438 "/>
</g>
<g id="glyph-0-3">
<path d="M 7.078125 -7.691406 L 5.835938 -7.59375 C 5.722656 -8.082031 5.566406 -8.441406 5.363281 -8.664062 C 5.023438 -9.019531 4.609375 -9.195312 4.113281 -9.195312 C 3.714844 -9.195312 3.363281 -9.085938 3.0625 -8.863281 C 2.667969 -8.578125 2.359375 -8.15625 2.132812 -7.605469 C 1.90625 -7.054688 1.789062 -6.269531 1.777344 -5.25 C 2.078125 -5.710938 2.449219 -6.050781 2.882812 -6.273438 C 3.316406 -6.496094 3.773438 -6.605469 4.25 -6.605469 C 5.085938 -6.605469 5.792969 -6.300781 6.378906 -5.6875 C 6.964844 -5.070312 7.257812 -4.277344 7.257812 -3.304688 C 7.257812 -2.667969 7.121094 -2.074219 6.847656 -1.523438 C 6.570312 -0.976562 6.191406 -0.554688 5.710938 -0.265625 C 5.226562 0.0273438 4.683594 0.171875 4.070312 0.171875 C 3.027344 0.171875 2.179688 -0.210938 1.519531 -0.976562 C 0.863281 -1.742188 0.535156 -3.003906 0.535156 -4.765625 C 0.535156 -6.734375 0.898438 -8.164062 1.625 -9.058594 C 2.261719 -9.835938 3.113281 -10.226562 4.1875 -10.226562 C 4.988281 -10.226562 5.644531 -10 6.15625 -9.550781 C 6.667969 -9.101562 6.976562 -8.480469 7.078125 -7.691406 M 1.972656 -3.300781 C 1.972656 -2.867188 2.0625 -2.457031 2.246094 -2.0625 C 2.429688 -1.667969 2.6875 -1.371094 3.015625 -1.164062 C 3.34375 -0.957031 3.6875 -0.855469 4.050781 -0.855469 C 4.578125 -0.855469 5.03125 -1.066406 5.410156 -1.492188 C 5.792969 -1.917969 5.980469 -2.5 5.980469 -3.230469 C 5.980469 -3.933594 5.792969 -4.488281 5.417969 -4.894531 C 5.042969 -5.300781 4.570312 -5.5 4 -5.5 C 3.4375 -5.5 2.957031 -5.300781 2.5625 -4.894531 C 2.167969 -4.488281 1.972656 -3.957031 1.972656 -3.300781 Z M 1.972656 -3.300781 "/>
</g>
<g id="glyph-0-4">
<path d="M 4.597656 0 L 4.597656 -2.4375 L 0.179688 -2.4375 L 0.179688 -3.585938 L 4.828125 -10.183594 L 5.847656 -10.183594 L 5.847656 -3.585938 L 7.222656 -3.585938 L 7.222656 -2.4375 L 5.847656 -2.4375 L 5.847656 0 L 4.597656 0 M 4.597656 -3.585938 L 4.597656 -8.175781 L 1.410156 -3.585938 Z M 4.597656 -3.585938 "/>
</g>
<g id="glyph-0-5">
<path d="M 0.671875 -8.851562 L 0.671875 -10.050781 L 7.265625 -10.050781 L 7.265625 -9.078125 C 6.617188 -8.390625 5.976562 -7.472656 5.339844 -6.328125 C 4.703125 -5.183594 4.210938 -4.007812 3.863281 -2.800781 C 3.613281 -1.949219 3.453125 -1.015625 3.382812 0 L 2.097656 0 C 2.113281 -0.800781 2.269531 -1.769531 2.570312 -2.902344 C 2.871094 -4.039062 3.304688 -5.132812 3.867188 -6.1875 C 4.429688 -7.238281 5.027344 -8.128906 5.660156 -8.851562 Z M 0.671875 -8.851562 "/>
</g>
<g id="glyph-0-6">
<path d="M 0.597656 -2.6875 L 1.847656 -2.855469 C 1.992188 -2.144531 2.234375 -1.636719 2.582031 -1.324219 C 2.925781 -1.011719 3.347656 -0.855469 3.839844 -0.855469 C 4.429688 -0.855469 4.925781 -1.058594 5.332031 -1.464844 C 5.738281 -1.875 5.9375 -2.378906 5.9375 -2.980469 C 5.9375 -3.554688 5.75 -4.027344 5.375 -4.402344 C 5 -4.773438 4.523438 -4.960938 3.945312 -4.960938 C 3.710938 -4.960938 3.414062 -4.914062 3.0625 -4.820312 L 3.203125 -5.917969 C 3.285156 -5.910156 3.351562 -5.90625 3.402344 -5.90625 C 3.9375 -5.90625 4.414062 -6.042969 4.839844 -6.320312 C 5.269531 -6.597656 5.480469 -7.027344 5.480469 -7.605469 C 5.480469 -8.066406 5.324219 -8.445312 5.015625 -8.746094 C 4.703125 -9.046875 4.304688 -9.195312 3.8125 -9.195312 C 3.328125 -9.195312 2.921875 -9.042969 2.597656 -8.738281 C 2.273438 -8.433594 2.066406 -7.972656 1.972656 -7.363281 L 0.722656 -7.585938 C 0.875 -8.421875 1.222656 -9.074219 1.765625 -9.535156 C 2.304688 -9.996094 2.980469 -10.226562 3.785156 -10.226562 C 4.339844 -10.226562 4.851562 -10.105469 5.320312 -9.867188 C 5.789062 -9.628906 6.144531 -9.304688 6.394531 -8.890625 C 6.640625 -8.480469 6.765625 -8.042969 6.765625 -7.578125 C 6.765625 -7.136719 6.648438 -6.738281 6.410156 -6.375 C 6.175781 -6.015625 5.824219 -5.730469 5.363281 -5.515625 C 5.964844 -5.375 6.433594 -5.089844 6.765625 -4.652344 C 7.097656 -4.214844 7.265625 -3.664062 7.265625 -3.007812 C 7.265625 -2.117188 6.941406 -1.363281 6.292969 -0.746094 C 5.644531 -0.128906 4.824219 0.179688 3.835938 0.179688 C 2.941406 0.179688 2.199219 -0.0859375 1.609375 -0.617188 C 1.019531 -1.152344 0.679688 -1.839844 0.597656 -2.6875 Z M 0.597656 -2.6875 "/>
</g>
<g id="glyph-1-0">
<path d="M 0.464844 -3.953125 C 0.464844 -4.902344 0.5625 -5.664062 0.757812 -6.242188 C 0.953125 -6.820312 1.242188 -7.265625 1.628906 -7.578125 C 2.011719 -7.894531 2.496094 -8.050781 3.078125 -8.050781 C 3.507812 -8.050781 3.886719 -7.964844 4.210938 -7.789062 C 4.535156 -7.617188 4.804688 -7.367188 5.015625 -7.042969 C 5.226562 -6.714844 5.390625 -6.316406 5.511719 -5.847656 C 5.632812 -5.378906 5.691406 -4.75 5.691406 -3.953125 C 5.691406 -3.011719 5.597656 -2.253906 5.402344 -1.675781 C 5.210938 -1.097656 4.921875 -0.652344 4.535156 -0.335938 C 4.152344 -0.0195312 3.664062 0.136719 3.078125 0.136719 C 2.304688 0.136719 1.699219 -0.140625 1.257812 -0.695312 C 0.730469 -1.363281 0.464844 -2.449219 0.464844 -3.953125 M 1.476562 -3.953125 C 1.476562 -2.636719 1.628906 -1.761719 1.9375 -1.328125 C 2.246094 -0.890625 2.625 -0.671875 3.078125 -0.671875 C 3.53125 -0.671875 3.910156 -0.890625 4.21875 -1.328125 C 4.527344 -1.765625 4.679688 -2.640625 4.679688 -3.953125 C 4.679688 -5.273438 4.527344 -6.152344 4.21875 -6.585938 C 3.910156 -7.019531 3.527344 -7.234375 3.066406 -7.234375 C 2.617188 -7.234375 2.253906 -7.042969 1.984375 -6.660156 C 1.644531 -6.171875 1.476562 -5.269531 1.476562 -3.953125 Z M 1.476562 -3.953125 "/>
</g>
<g id="glyph-1-1">
<path d="M 5.636719 -0.945312 L 5.636719 0 L 0.339844 0 C 0.332031 -0.238281 0.371094 -0.464844 0.453125 -0.683594 C 0.589844 -1.042969 0.804688 -1.398438 1.101562 -1.75 C 1.398438 -2.101562 1.828125 -2.503906 2.390625 -2.964844 C 3.261719 -3.679688 3.851562 -4.246094 4.15625 -4.664062 C 4.460938 -5.078125 4.617188 -5.472656 4.617188 -5.847656 C 4.617188 -6.234375 4.476562 -6.566406 4.195312 -6.832031 C 3.917969 -7.101562 3.554688 -7.234375 3.105469 -7.234375 C 2.632812 -7.234375 2.253906 -7.09375 1.96875 -6.808594 C 1.683594 -6.523438 1.539062 -6.128906 1.535156 -5.628906 L 0.523438 -5.730469 C 0.59375 -6.484375 0.855469 -7.0625 1.308594 -7.457031 C 1.757812 -7.851562 2.367188 -8.050781 3.128906 -8.050781 C 3.898438 -8.050781 4.507812 -7.835938 4.953125 -7.410156 C 5.402344 -6.984375 5.628906 -6.453125 5.628906 -5.824219 C 5.628906 -5.503906 5.5625 -5.1875 5.429688 -4.878906 C 5.300781 -4.566406 5.082031 -4.242188 4.777344 -3.898438 C 4.472656 -3.554688 3.964844 -3.085938 3.257812 -2.488281 C 2.667969 -1.992188 2.289062 -1.65625 2.121094 -1.480469 C 1.953125 -1.300781 1.816406 -1.125 1.707031 -0.945312 Z M 5.636719 -0.945312 "/>
</g>
<g id="glyph-1-2">
<path d="M 3.621094 0 L 3.621094 -1.917969 L 0.140625 -1.917969 L 0.140625 -2.820312 L 3.800781 -8.015625 L 4.605469 -8.015625 L 4.605469 -2.820312 L 5.6875 -2.820312 L 5.6875 -1.917969 L 4.605469 -1.917969 L 4.605469 0 L 3.621094 0 M 3.621094 -2.820312 L 3.621094 -6.4375 L 1.109375 -2.820312 Z M 3.621094 -2.820312 "/>
</g>
<g id="glyph-1-3">
<path d="M 5.574219 -6.054688 L 4.59375 -5.976562 C 4.507812 -6.363281 4.382812 -6.644531 4.222656 -6.820312 C 3.957031 -7.101562 3.628906 -7.242188 3.238281 -7.242188 C 2.925781 -7.242188 2.648438 -7.152344 2.410156 -6.976562 C 2.101562 -6.753906 1.859375 -6.421875 1.679688 -5.988281 C 1.5 -5.554688 1.40625 -4.9375 1.398438 -4.132812 C 1.636719 -4.496094 1.925781 -4.761719 2.269531 -4.9375 C 2.613281 -5.113281 2.972656 -5.199219 3.347656 -5.199219 C 4.003906 -5.199219 4.5625 -4.960938 5.023438 -4.476562 C 5.484375 -3.992188 5.714844 -3.367188 5.714844 -2.601562 C 5.714844 -2.101562 5.605469 -1.632812 5.390625 -1.199219 C 5.171875 -0.769531 4.875 -0.4375 4.496094 -0.207031 C 4.117188 0.0234375 3.6875 0.136719 3.203125 0.136719 C 2.382812 0.136719 1.714844 -0.164062 1.199219 -0.769531 C 0.679688 -1.371094 0.421875 -2.367188 0.421875 -3.75 C 0.421875 -5.300781 0.707031 -6.425781 1.28125 -7.132812 C 1.777344 -7.742188 2.453125 -8.050781 3.296875 -8.050781 C 3.929688 -8.050781 4.445312 -7.875 4.847656 -7.519531 C 5.25 -7.164062 5.492188 -6.675781 5.574219 -6.054688 M 1.554688 -2.597656 C 1.554688 -2.257812 1.625 -1.933594 1.769531 -1.625 C 1.914062 -1.3125 2.113281 -1.078125 2.375 -0.917969 C 2.632812 -0.753906 2.902344 -0.671875 3.1875 -0.671875 C 3.605469 -0.671875 3.960938 -0.839844 4.261719 -1.175781 C 4.558594 -1.511719 4.707031 -1.96875 4.707031 -2.542969 C 4.707031 -3.097656 4.5625 -3.535156 4.265625 -3.851562 C 3.96875 -4.171875 3.597656 -4.332031 3.148438 -4.332031 C 2.707031 -4.332031 2.328125 -4.171875 2.019531 -3.851562 C 1.707031 -3.535156 1.554688 -3.117188 1.554688 -2.597656 Z M 1.554688 -2.597656 "/>
</g>
<g id="glyph-1-4">
<path d="M 5.917969 -3.496094 L 0.625 -3.496094 L 0.625 -4.414062 L 5.917969 -4.414062 Z M 5.917969 -3.496094 "/>
</g>
<g id="glyph-1-5">
<path d="M 2.804688 -1.296875 L 2.804688 -3.496094 L 0.625 -3.496094 L 0.625 -4.414062 L 2.804688 -4.414062 L 2.804688 -6.59375 L 3.734375 -6.59375 L 3.734375 -4.414062 L 5.917969 -4.414062 L 5.917969 -3.496094 L 3.734375 -3.496094 L 3.734375 -1.296875 Z M 2.804688 -1.296875 "/>
</g>
<g id="glyph-1-6">
<path d="M 0.898438 0 L 0.898438 -8.015625 L 1.957031 -8.015625 L 1.957031 -4.726562 L 6.125 -4.726562 L 6.125 -8.015625 L 7.1875 -8.015625 L 7.1875 0 L 6.125 0 L 6.125 -3.777344 L 1.957031 -3.777344 L 1.957031 0 Z M 0.898438 0 "/>
</g>
<g id="glyph-1-7">
<path d="M 4.527344 -0.714844 C 4.164062 -0.40625 3.8125 -0.1875 3.476562 -0.0585938 C 3.136719 0.0664062 2.777344 0.132812 2.390625 0.132812 C 1.75 0.132812 1.261719 -0.0234375 0.917969 -0.335938 C 0.574219 -0.648438 0.40625 -1.046875 0.40625 -1.53125 C 0.40625 -1.816406 0.46875 -2.074219 0.597656 -2.3125 C 0.726562 -2.546875 0.898438 -2.734375 1.109375 -2.875 C 1.316406 -3.019531 1.554688 -3.125 1.816406 -3.199219 C 2.007812 -3.25 2.300781 -3.300781 2.691406 -3.347656 C 3.484375 -3.441406 4.070312 -3.554688 4.445312 -3.6875 C 4.449219 -3.820312 4.453125 -3.90625 4.453125 -3.941406 C 4.453125 -4.34375 4.359375 -4.625 4.171875 -4.789062 C 3.921875 -5.011719 3.546875 -5.125 3.050781 -5.125 C 2.589844 -5.125 2.246094 -5.042969 2.027344 -4.882812 C 1.804688 -4.71875 1.640625 -4.429688 1.535156 -4.019531 L 0.574219 -4.152344 C 0.660156 -4.5625 0.804688 -4.894531 1.007812 -5.148438 C 1.207031 -5.402344 1.496094 -5.597656 1.875 -5.734375 C 2.253906 -5.871094 2.695312 -5.9375 3.195312 -5.9375 C 3.691406 -5.9375 4.09375 -5.878906 4.402344 -5.765625 C 4.710938 -5.648438 4.941406 -5.5 5.085938 -5.324219 C 5.230469 -5.148438 5.332031 -4.921875 5.390625 -4.652344 C 5.425781 -4.484375 5.441406 -4.183594 5.441406 -3.746094 L 5.441406 -2.433594 C 5.441406 -1.519531 5.460938 -0.941406 5.503906 -0.699219 C 5.546875 -0.453125 5.628906 -0.222656 5.753906 0 L 4.726562 0 C 4.621094 -0.203125 4.558594 -0.441406 4.527344 -0.714844 M 4.445312 -2.914062 C 4.089844 -2.769531 3.554688 -2.644531 2.839844 -2.542969 C 2.433594 -2.484375 2.148438 -2.417969 1.980469 -2.347656 C 1.8125 -2.273438 1.683594 -2.167969 1.589844 -2.027344 C 1.5 -1.886719 1.453125 -1.730469 1.453125 -1.558594 C 1.453125 -1.296875 1.554688 -1.078125 1.753906 -0.902344 C 1.953125 -0.726562 2.242188 -0.640625 2.625 -0.640625 C 3.003906 -0.640625 3.339844 -0.722656 3.636719 -0.890625 C 3.933594 -1.054688 4.148438 -1.28125 4.289062 -1.570312 C 4.394531 -1.792969 4.445312 -2.121094 4.445312 -2.554688 Z M 4.445312 -2.914062 "/>
</g>
<g id="glyph-1-8">
<path d="M 0.738281 0 L 0.738281 -5.808594 L 1.617188 -5.808594 L 1.617188 -4.992188 C 1.800781 -5.277344 2.042969 -5.507812 2.347656 -5.679688 C 2.648438 -5.851562 2.992188 -5.9375 3.378906 -5.9375 C 3.808594 -5.9375 4.164062 -5.851562 4.4375 -5.671875 C 4.714844 -5.492188 4.90625 -5.242188 5.019531 -4.921875 C 5.480469 -5.601562 6.078125 -5.9375 6.8125 -5.9375 C 7.390625 -5.9375 7.832031 -5.78125 8.144531 -5.460938 C 8.453125 -5.140625 8.609375 -4.648438 8.609375 -3.988281 L 8.609375 0 L 7.628906 0 L 7.628906 -3.660156 C 7.628906 -4.050781 7.597656 -4.335938 7.535156 -4.507812 C 7.46875 -4.683594 7.355469 -4.820312 7.1875 -4.925781 C 7.019531 -5.03125 6.820312 -5.085938 6.59375 -5.085938 C 6.1875 -5.085938 5.847656 -4.949219 5.578125 -4.679688 C 5.308594 -4.40625 5.171875 -3.972656 5.171875 -3.375 L 5.171875 0 L 4.1875 0 L 4.1875 -3.773438 C 4.1875 -4.210938 4.109375 -4.539062 3.949219 -4.757812 C 3.789062 -4.976562 3.527344 -5.085938 3.160156 -5.085938 C 2.882812 -5.085938 2.628906 -5.011719 2.394531 -4.867188 C 2.15625 -4.722656 1.988281 -4.507812 1.882812 -4.226562 C 1.777344 -3.945312 1.722656 -3.542969 1.722656 -3.011719 L 1.722656 0 Z M 0.738281 0 "/>
</g>
<g id="glyph-1-9">
<path d="M 0.503906 -2.574219 L 1.503906 -2.664062 C 1.550781 -2.261719 1.660156 -1.933594 1.835938 -1.675781 C 2.007812 -1.417969 2.277344 -1.210938 2.640625 -1.054688 C 3.007812 -0.894531 3.417969 -0.816406 3.871094 -0.816406 C 4.277344 -0.816406 4.632812 -0.875 4.945312 -0.996094 C 5.253906 -1.117188 5.484375 -1.28125 5.636719 -1.492188 C 5.785156 -1.699219 5.863281 -1.929688 5.863281 -2.175781 C 5.863281 -2.429688 5.789062 -2.648438 5.644531 -2.835938 C 5.496094 -3.023438 5.257812 -3.179688 4.921875 -3.308594 C 4.707031 -3.390625 4.230469 -3.523438 3.496094 -3.699219 C 2.757812 -3.875 2.242188 -4.042969 1.945312 -4.199219 C 1.5625 -4.402344 1.277344 -4.648438 1.089844 -4.945312 C 0.902344 -5.242188 0.808594 -5.578125 0.808594 -5.945312 C 0.808594 -6.347656 0.925781 -6.726562 1.152344 -7.078125 C 1.382812 -7.429688 1.71875 -7.699219 2.160156 -7.878906 C 2.601562 -8.0625 3.089844 -8.152344 3.632812 -8.152344 C 4.226562 -8.152344 4.75 -8.058594 5.203125 -7.867188 C 5.65625 -7.675781 6.007812 -7.394531 6.25 -7.023438 C 6.496094 -6.648438 6.625 -6.230469 6.644531 -5.757812 L 5.628906 -5.683594 C 5.574219 -6.1875 5.386719 -6.570312 5.074219 -6.832031 C 4.757812 -7.089844 4.292969 -7.21875 3.675781 -7.21875 C 3.035156 -7.21875 2.566406 -7.101562 2.273438 -6.867188 C 1.980469 -6.632812 1.832031 -6.347656 1.832031 -6.015625 C 1.832031 -5.726562 1.9375 -5.492188 2.144531 -5.304688 C 2.347656 -5.117188 2.882812 -4.929688 3.742188 -4.734375 C 4.605469 -4.539062 5.195312 -4.367188 5.519531 -4.222656 C 5.984375 -4.007812 6.328125 -3.734375 6.550781 -3.40625 C 6.773438 -3.074219 6.886719 -2.695312 6.886719 -2.265625 C 6.886719 -1.835938 6.761719 -1.4375 6.519531 -1.058594 C 6.273438 -0.679688 5.921875 -0.386719 5.464844 -0.179688 C 5.007812 0.03125 4.492188 0.136719 3.921875 0.136719 C 3.195312 0.136719 2.585938 0.03125 2.097656 -0.179688 C 1.605469 -0.390625 1.222656 -0.710938 0.945312 -1.132812 C 0.664062 -1.558594 0.519531 -2.039062 0.503906 -2.574219 Z M 0.503906 -2.574219 "/>
</g>
<g id="glyph-1-10">
<path d="M 0.738281 2.226562 L 0.738281 -5.808594 L 1.636719 -5.808594 L 1.636719 -5.054688 C 1.847656 -5.347656 2.085938 -5.570312 2.351562 -5.71875 C 2.617188 -5.867188 2.941406 -5.9375 3.320312 -5.9375 C 3.816406 -5.9375 4.253906 -5.8125 4.632812 -5.554688 C 5.011719 -5.300781 5.296875 -4.941406 5.492188 -4.476562 C 5.683594 -4.011719 5.78125 -3.5 5.78125 -2.949219 C 5.78125 -2.351562 5.675781 -1.820312 5.460938 -1.34375 C 5.246094 -0.867188 4.9375 -0.503906 4.53125 -0.25 C 4.125 0.00390625 3.695312 0.132812 3.25 0.132812 C 2.921875 0.132812 2.625 0.0625 2.367188 -0.078125 C 2.105469 -0.214844 1.890625 -0.390625 1.722656 -0.601562 L 1.722656 2.226562 L 0.738281 2.226562 M 1.628906 -2.871094 C 1.628906 -2.125 1.78125 -1.570312 2.082031 -1.214844 C 2.386719 -0.855469 2.753906 -0.679688 3.183594 -0.679688 C 3.621094 -0.679688 3.996094 -0.863281 4.304688 -1.234375 C 4.617188 -1.601562 4.773438 -2.175781 4.773438 -2.953125 C 4.773438 -3.691406 4.621094 -4.246094 4.316406 -4.617188 C 4.011719 -4.984375 3.648438 -5.167969 3.226562 -5.167969 C 2.808594 -5.167969 2.4375 -4.972656 2.113281 -4.578125 C 1.792969 -4.1875 1.628906 -3.617188 1.628906 -2.871094 Z M 1.628906 -2.871094 "/>
</g>
<g id="glyph-2-0">
<path d="M 1.09375 -10.023438 L 8.976562 -10.023438 L 8.976562 0 L 7.640625 0 L 7.640625 -8.839844 L 2.421875 -8.839844 L 2.421875 0 L 1.09375 0 Z M 1.09375 -10.023438 "/>
</g>
<g id="glyph-2-1">
<path d="M 0.921875 2.78125 L 0.921875 -7.257812 L 2.042969 -7.257812 L 2.042969 -6.316406 C 2.308594 -6.683594 2.605469 -6.960938 2.9375 -7.148438 C 3.273438 -7.332031 3.675781 -7.421875 4.148438 -7.421875 C 4.769531 -7.421875 5.316406 -7.265625 5.789062 -6.945312 C 6.265625 -6.625 6.621094 -6.175781 6.863281 -5.59375 C 7.105469 -5.015625 7.226562 -4.378906 7.226562 -3.683594 C 7.226562 -2.941406 7.09375 -2.273438 6.824219 -1.679688 C 6.558594 -1.082031 6.171875 -0.628906 5.664062 -0.3125 C 5.15625 0.00390625 4.621094 0.164062 4.0625 0.164062 C 3.648438 0.164062 3.28125 0.078125 2.957031 -0.09375 C 2.628906 -0.269531 2.363281 -0.488281 2.152344 -0.75 L 2.152344 2.78125 L 0.921875 2.78125 M 2.039062 -3.589844 C 2.039062 -2.65625 2.226562 -1.964844 2.605469 -1.515625 C 2.984375 -1.070312 3.441406 -0.847656 3.976562 -0.847656 C 4.523438 -0.847656 4.992188 -1.078125 5.382812 -1.542969 C 5.773438 -2.003906 5.96875 -2.71875 5.96875 -3.691406 C 5.96875 -4.617188 5.777344 -5.308594 5.398438 -5.769531 C 5.015625 -6.230469 4.5625 -6.460938 4.03125 -6.460938 C 3.507812 -6.460938 3.046875 -6.214844 2.640625 -5.726562 C 2.238281 -5.234375 2.039062 -4.523438 2.039062 -3.589844 Z M 2.039062 -3.589844 "/>
</g>
<g id="glyph-2-2">
<path d="M 5.660156 -0.894531 C 5.203125 -0.507812 4.765625 -0.234375 4.34375 -0.0742188 C 3.921875 0.0859375 3.46875 0.164062 2.988281 0.164062 C 2.191406 0.164062 1.578125 -0.03125 1.148438 -0.421875 C 0.71875 -0.808594 0.507812 -1.308594 0.507812 -1.914062 C 0.507812 -2.269531 0.585938 -2.59375 0.75 -2.886719 C 0.910156 -3.183594 1.121094 -3.417969 1.382812 -3.59375 C 1.644531 -3.773438 1.941406 -3.90625 2.269531 -4 C 2.511719 -4.0625 2.875 -4.125 3.363281 -4.183594 C 4.355469 -4.300781 5.089844 -4.445312 5.558594 -4.609375 C 5.5625 -4.777344 5.5625 -4.882812 5.5625 -4.929688 C 5.5625 -5.429688 5.449219 -5.78125 5.214844 -5.988281 C 4.902344 -6.265625 4.433594 -6.40625 3.8125 -6.40625 C 3.234375 -6.40625 2.808594 -6.304688 2.53125 -6.101562 C 2.257812 -5.898438 2.054688 -5.539062 1.921875 -5.023438 L 0.71875 -5.1875 C 0.828125 -5.703125 1.007812 -6.121094 1.257812 -6.4375 C 1.507812 -6.753906 1.871094 -6.996094 2.34375 -7.167969 C 2.820312 -7.339844 3.367188 -7.421875 3.992188 -7.421875 C 4.613281 -7.421875 5.117188 -7.351562 5.503906 -7.203125 C 5.890625 -7.058594 6.175781 -6.875 6.359375 -6.65625 C 6.539062 -6.433594 6.667969 -6.15625 6.742188 -5.816406 C 6.78125 -5.609375 6.800781 -5.230469 6.800781 -4.683594 L 6.800781 -3.042969 C 6.800781 -1.898438 6.828125 -1.175781 6.878906 -0.871094 C 6.933594 -0.570312 7.035156 -0.277344 7.191406 0 L 5.90625 0 C 5.777344 -0.253906 5.695312 -0.554688 5.660156 -0.894531 M 5.558594 -3.644531 C 5.109375 -3.460938 4.441406 -3.304688 3.546875 -3.179688 C 3.042969 -3.105469 2.683594 -3.023438 2.476562 -2.933594 C 2.265625 -2.839844 2.101562 -2.707031 1.988281 -2.53125 C 1.875 -2.355469 1.820312 -2.164062 1.820312 -1.949219 C 1.820312 -1.621094 1.941406 -1.347656 2.191406 -1.128906 C 2.4375 -0.910156 2.804688 -0.800781 3.28125 -0.800781 C 3.753906 -0.800781 4.175781 -0.902344 4.546875 -1.109375 C 4.914062 -1.316406 5.1875 -1.601562 5.359375 -1.960938 C 5.492188 -2.238281 5.558594 -2.648438 5.558594 -3.191406 Z M 5.558594 -3.644531 "/>
</g>
<g id="glyph-2-3">
<path d="M 0.929688 -7.257812 L 6.65625 -7.257812 L 6.65625 0 L 5.429688 0 L 5.429688 -6.242188 L 2.160156 -6.242188 L 2.160156 0 L 0.929688 0 Z M 0.929688 -7.257812 "/>
</g>
<g id="glyph-2-4">
<path d="M 0.464844 -3.628906 C 0.464844 -4.972656 0.839844 -5.96875 1.585938 -6.617188 C 2.210938 -7.15625 2.972656 -7.421875 3.867188 -7.421875 C 4.867188 -7.421875 5.683594 -7.097656 6.316406 -6.441406 C 6.949219 -5.789062 7.265625 -4.886719 7.265625 -3.734375 C 7.265625 -2.796875 7.125 -2.0625 6.847656 -1.527344 C 6.566406 -0.992188 6.15625 -0.578125 5.621094 -0.28125 C 5.085938 0.015625 4.503906 0.164062 3.867188 0.164062 C 2.851562 0.164062 2.03125 -0.160156 1.40625 -0.8125 C 0.777344 -1.464844 0.464844 -2.402344 0.464844 -3.628906 M 1.730469 -3.628906 C 1.730469 -2.699219 1.933594 -2.003906 2.335938 -1.542969 C 2.742188 -1.078125 3.253906 -0.847656 3.867188 -0.847656 C 4.480469 -0.847656 4.988281 -1.078125 5.394531 -1.546875 C 5.800781 -2.007812 6 -2.71875 6 -3.671875 C 6 -4.570312 5.796875 -5.25 5.390625 -5.710938 C 4.980469 -6.175781 4.476562 -6.40625 3.867188 -6.40625 C 3.253906 -6.40625 2.742188 -6.175781 2.335938 -5.714844 C 1.933594 -5.253906 1.730469 -4.558594 1.730469 -3.628906 Z M 1.730469 -3.628906 "/>
</g>
<g id="glyph-2-5">
</g>
<g id="glyph-2-6">
<path d="M 5.148438 -10.023438 L 6.378906 -10.023438 L 6.378906 -6.554688 C 6.632812 -6.847656 6.914062 -7.066406 7.21875 -7.207031 C 7.523438 -7.351562 7.851562 -7.421875 8.203125 -7.421875 C 9.0625 -7.421875 9.746094 -7.066406 10.25 -6.347656 C 10.753906 -5.628906 11.007812 -4.726562 11.007812 -3.636719 C 11.007812 -2.5 10.734375 -1.585938 10.191406 -0.886719 C 9.648438 -0.1875 8.976562 0.164062 8.167969 0.164062 C 7.90625 0.164062 7.636719 0.125 7.363281 0.0390625 C 7.089844 -0.0390625 6.761719 -0.265625 6.378906 -0.628906 L 6.378906 2.78125 L 5.148438 2.78125 L 5.148438 -0.628906 C 4.902344 -0.363281 4.628906 -0.167969 4.332031 -0.0351562 C 4.03125 0.0976562 3.710938 0.164062 3.363281 0.164062 C 2.601562 0.164062 1.9375 -0.167969 1.367188 -0.835938 C 0.796875 -1.503906 0.511719 -2.460938 0.511719 -3.703125 C 0.511719 -4.757812 0.769531 -5.640625 1.285156 -6.355469 C 1.800781 -7.066406 2.492188 -7.421875 3.363281 -7.421875 C 3.726562 -7.421875 4.058594 -7.351562 4.355469 -7.207031 C 4.652344 -7.066406 4.914062 -6.847656 5.148438 -6.554688 L 5.148438 -10.023438 M 6.371094 -3.601562 C 6.371094 -2.507812 6.523438 -1.773438 6.820312 -1.398438 C 7.125 -1.023438 7.5 -0.835938 7.949219 -0.835938 C 8.453125 -0.835938 8.878906 -1.066406 9.230469 -1.527344 C 9.585938 -1.992188 9.761719 -2.710938 9.761719 -3.683594 C 9.761719 -4.605469 9.597656 -5.289062 9.273438 -5.742188 C 8.945312 -6.191406 8.527344 -6.417969 8.019531 -6.417969 C 7.472656 -6.417969 7.058594 -6.183594 6.785156 -5.714844 C 6.507812 -5.246094 6.371094 -4.542969 6.371094 -3.601562 M 1.765625 -3.738281 C 1.765625 -2.714844 1.9375 -1.976562 2.28125 -1.523438 C 2.625 -1.074219 3.050781 -0.847656 3.5625 -0.847656 C 4.09375 -0.847656 4.492188 -1.070312 4.757812 -1.519531 C 5.023438 -1.96875 5.15625 -2.644531 5.15625 -3.539062 C 5.15625 -4.5 5.015625 -5.214844 4.738281 -5.695312 C 4.460938 -6.171875 4.039062 -6.414062 3.480469 -6.414062 C 2.972656 -6.414062 2.5625 -6.179688 2.242188 -5.710938 C 1.921875 -5.246094 1.765625 -4.585938 1.765625 -3.738281 Z M 1.765625 -3.738281 "/>
</g>
<g id="glyph-2-7">
<path d="M 0.929688 -8.605469 L 0.929688 -10.023438 L 2.160156 -10.023438 L 2.160156 -8.605469 L 0.929688 -8.605469 M 0.929688 0 L 0.929688 -7.257812 L 2.160156 -7.257812 L 2.160156 0 Z M 0.929688 0 "/>
</g>
<g id="glyph-2-8">
<path d="M 1.523438 -7.257812 L 7.238281 -7.257812 L 7.238281 0 L 6.015625 0 L 6.015625 -6.242188 L 2.753906 -6.242188 L 2.753906 -2.625 C 2.753906 -1.78125 2.726562 -1.226562 2.671875 -0.957031 C 2.617188 -0.6875 2.46875 -0.453125 2.222656 -0.253906 C 1.976562 -0.0507812 1.621094 0.046875 1.15625 0.046875 C 0.867188 0.046875 0.539062 0.03125 0.164062 -0.0078125 L 0.164062 -1.03125 L 0.703125 -1.03125 C 0.960938 -1.03125 1.140625 -1.058594 1.25 -1.109375 C 1.359375 -1.164062 1.433594 -1.246094 1.46875 -1.359375 C 1.507812 -1.472656 1.523438 -1.84375 1.523438 -2.476562 Z M 1.523438 -7.257812 "/>
</g>
<g id="glyph-2-9">
<path d="M 0.902344 -7.257812 L 2.132812 -7.257812 L 2.132812 -4.421875 L 3.691406 -4.421875 C 4.707031 -4.421875 5.492188 -4.226562 6.039062 -3.832031 C 6.589844 -3.4375 6.863281 -2.894531 6.863281 -2.203125 C 6.863281 -1.59375 6.632812 -1.078125 6.175781 -0.644531 C 5.71875 -0.214844 4.984375 0 3.976562 0 L 0.902344 0 L 0.902344 -7.257812 M 2.132812 -1.011719 L 3.425781 -1.011719 C 4.203125 -1.011719 4.761719 -1.109375 5.09375 -1.296875 C 5.425781 -1.492188 5.59375 -1.789062 5.59375 -2.195312 C 5.59375 -2.507812 5.46875 -2.789062 5.222656 -3.035156 C 4.976562 -3.28125 4.433594 -3.402344 3.589844 -3.40625 L 2.132812 -3.40625 Z M 2.132812 -1.011719 "/>
</g>
<g id="glyph-2-10">
<path d="M 0.257812 -7.257812 L 6.160156 -7.257812 L 6.160156 -6.242188 L 3.820312 -6.242188 L 3.820312 0 L 2.597656 0 L 2.597656 -6.242188 L 0.257812 -6.242188 Z M 0.257812 -7.257812 "/>
</g>
<g id="glyph-3-0">
<path d="M -10.023438 -1.101562 L -10.023438 -2.425781 L -5.632812 -2.425781 C -5.632812 -3.03125 -5.75 -3.460938 -5.984375 -3.707031 C -6.21875 -3.953125 -6.785156 -4.265625 -7.675781 -4.648438 C -8.332031 -4.925781 -8.796875 -5.15625 -9.066406 -5.335938 C -9.339844 -5.515625 -9.566406 -5.773438 -9.75 -6.105469 C -9.9375 -6.4375 -10.027344 -6.804688 -10.027344 -7.207031 C -10.027344 -7.714844 -10.023438 -7.984375 -10.015625 -8.011719 L -8.867188 -8.011719 C -8.867188 -7.964844 -8.867188 -7.878906 -8.875 -7.746094 C -8.878906 -7.597656 -8.878906 -7.511719 -8.878906 -7.480469 C -8.878906 -7.054688 -8.777344 -6.742188 -8.570312 -6.535156 C -8.367188 -6.324219 -7.929688 -6.085938 -7.257812 -5.816406 C -6.410156 -5.480469 -5.878906 -5.195312 -5.65625 -4.960938 C -5.4375 -4.730469 -5.257812 -4.453125 -5.125 -4.128906 C -4.949219 -4.777344 -4.351562 -5.414062 -3.335938 -6.042969 L 0 -8.109375 L 0 -6.460938 L -2.71875 -4.785156 C -3.472656 -4.324219 -3.988281 -3.941406 -4.269531 -3.628906 C -4.550781 -3.320312 -4.6875 -2.917969 -4.6875 -2.425781 L 0 -2.425781 L 0 -1.101562 Z M -10.023438 -1.101562 "/>
</g>
<g id="glyph-3-1">
<path d="M -8.605469 -0.929688 L -10.023438 -0.929688 L -10.023438 -2.160156 L -8.605469 -2.160156 L -8.605469 -0.929688 M 0 -0.929688 L -7.257812 -0.929688 L -7.257812 -2.160156 L 0 -2.160156 Z M 0 -0.929688 "/>
</g>
<g id="glyph-3-2">
<path d="M -7.257812 -1.523438 L -7.257812 -7.238281 L 0 -7.238281 L 0 -6.015625 L -6.242188 -6.015625 L -6.242188 -2.753906 L -2.625 -2.753906 C -1.78125 -2.753906 -1.226562 -2.726562 -0.957031 -2.671875 C -0.6875 -2.617188 -0.453125 -2.46875 -0.253906 -2.222656 C -0.0507812 -1.976562 0.046875 -1.621094 0.046875 -1.15625 C 0.046875 -0.867188 0.03125 -0.539062 -0.0078125 -0.164062 L -1.03125 -0.164062 L -1.03125 -0.703125 C -1.03125 -0.960938 -1.058594 -1.140625 -1.109375 -1.25 C -1.164062 -1.359375 -1.246094 -1.433594 -1.359375 -1.46875 C -1.472656 -1.507812 -1.84375 -1.523438 -2.476562 -1.523438 Z M -7.257812 -1.523438 "/>
</g>
<g id="glyph-3-3">
<path d="M -7.257812 -0.902344 L -7.257812 -2.132812 L -4.421875 -2.132812 L -4.421875 -3.691406 C -4.421875 -4.707031 -4.226562 -5.492188 -3.832031 -6.039062 C -3.4375 -6.589844 -2.894531 -6.863281 -2.199219 -6.863281 C -1.59375 -6.863281 -1.078125 -6.632812 -0.644531 -6.175781 C -0.214844 -5.71875 0 -4.984375 0 -3.976562 L 0 -0.902344 L -7.257812 -0.902344 M -1.011719 -2.132812 L -1.011719 -3.425781 C -1.011719 -4.203125 -1.105469 -4.761719 -1.296875 -5.09375 C -1.488281 -5.425781 -1.789062 -5.59375 -2.195312 -5.59375 C -2.507812 -5.59375 -2.789062 -5.46875 -3.035156 -5.222656 C -3.28125 -4.976562 -3.402344 -4.433594 -3.40625 -3.589844 L -3.40625 -2.132812 Z M -1.011719 -2.132812 "/>
</g>
<g id="glyph-3-4">
<path d="M -7.257812 -0.917969 L -7.257812 -2.148438 L -4.121094 -2.148438 C -4.121094 -2.539062 -4.195312 -2.8125 -4.347656 -2.96875 C -4.5 -3.128906 -4.9375 -3.359375 -5.660156 -3.664062 C -6.234375 -3.90625 -6.613281 -4.101562 -6.796875 -4.25 C -6.976562 -4.402344 -7.101562 -4.574219 -7.164062 -4.773438 C -7.226562 -4.96875 -7.257812 -5.28125 -7.257812 -5.714844 L -7.257812 -5.960938 L -6.242188 -5.960938 L -6.25 -5.617188 C -6.25 -5.296875 -6.199219 -5.089844 -6.105469 -4.996094 C -6.003906 -4.902344 -5.707031 -4.753906 -5.210938 -4.558594 C -4.734375 -4.371094 -4.40625 -4.203125 -4.226562 -4.046875 C -4.042969 -3.890625 -3.875 -3.652344 -3.726562 -3.328125 C -3.585938 -3.859375 -3.09375 -4.378906 -2.25 -4.886719 L 0 -6.234375 L 0 -4.882812 L -2.25 -3.570312 C -2.699219 -3.300781 -2.996094 -3.066406 -3.140625 -2.863281 C -3.285156 -2.664062 -3.355469 -2.425781 -3.355469 -2.148438 L 0 -2.148438 L 0 -0.914062 Z M -7.257812 -0.917969 "/>
</g>
<g id="glyph-3-5">
<path d="M -2.660156 -5.660156 L -2.5 -6.871094 C -1.667969 -6.738281 -1.015625 -6.398438 -0.542969 -5.855469 C -0.0703125 -5.308594 0.164062 -4.640625 0.164062 -3.847656 C 0.164062 -2.855469 -0.160156 -2.054688 -0.808594 -1.453125 C -1.460938 -0.847656 -2.390625 -0.546875 -3.601562 -0.546875 C -4.386719 -0.546875 -5.070312 -0.675781 -5.660156 -0.9375 C -6.246094 -1.195312 -6.6875 -1.589844 -6.984375 -2.121094 C -7.277344 -2.652344 -7.421875 -3.230469 -7.421875 -3.855469 C -7.421875 -4.644531 -7.222656 -5.289062 -6.824219 -5.789062 C -6.425781 -6.292969 -5.859375 -6.613281 -5.125 -6.753906 L -4.941406 -5.558594 C -5.429688 -5.445312 -5.796875 -5.242188 -6.042969 -4.953125 C -6.289062 -4.664062 -6.414062 -4.3125 -6.414062 -3.902344 C -6.414062 -3.285156 -6.191406 -2.78125 -5.746094 -2.394531 C -5.300781 -2.003906 -4.597656 -1.8125 -3.636719 -1.8125 C -2.660156 -1.8125 -1.953125 -2 -1.511719 -2.371094 C -1.070312 -2.746094 -0.847656 -3.234375 -0.847656 -3.835938 C -0.847656 -4.316406 -0.996094 -4.722656 -1.292969 -5.046875 C -1.589844 -5.367188 -2.042969 -5.574219 -2.660156 -5.660156 Z M -2.660156 -5.660156 "/>
</g>
<g id="glyph-3-6">
<path d="M -7.257812 -0.261719 L -7.257812 -6.160156 L -6.242188 -6.160156 L -6.242188 -3.820312 L 0 -3.820312 L 0 -2.597656 L -6.242188 -2.597656 L -6.242188 -0.261719 Z M -7.257812 -0.261719 "/>
</g>
<g id="glyph-3-7">
</g>
<g id="glyph-3-8">
<path d="M -7.257812 -0.921875 L -7.257812 -2.152344 L -1.722656 -2.152344 L -7.257812 -5.566406 L -7.257812 -6.890625 L 0 -6.890625 L 0 -5.660156 L -5.503906 -5.660156 L 0 -2.25 L 0 -0.921875 Z M -7.257812 -0.921875 "/>
</g>
<g id="glyph-3-9">
<path d="M -7.257812 -0.929688 L -7.257812 -3.765625 C -7.257812 -4.464844 -7.203125 -4.980469 -7.085938 -5.320312 C -6.96875 -5.660156 -6.757812 -5.953125 -6.445312 -6.195312 C -6.136719 -6.441406 -5.765625 -6.5625 -5.332031 -6.5625 C -4.984375 -6.5625 -4.683594 -6.492188 -4.425781 -6.347656 C -4.167969 -6.203125 -3.953125 -5.988281 -3.78125 -5.703125 C -3.667969 -6.042969 -3.453125 -6.328125 -3.140625 -6.550781 C -2.828125 -6.777344 -2.457031 -6.890625 -2.03125 -6.890625 C -1.34375 -6.84375 -0.832031 -6.597656 -0.5 -6.152344 C -0.167969 -5.707031 0 -5.054688 0 -4.203125 L 0 -0.929688 L -7.257812 -0.929688 M -4.203125 -2.160156 L -4.203125 -3.472656 C -4.203125 -3.996094 -4.230469 -4.355469 -4.285156 -4.554688 C -4.339844 -4.75 -4.453125 -4.925781 -4.617188 -5.078125 C -4.785156 -5.234375 -4.984375 -5.3125 -5.214844 -5.3125 C -5.597656 -5.3125 -5.867188 -5.175781 -6.015625 -4.90625 C -6.164062 -4.632812 -6.242188 -4.171875 -6.242188 -3.515625 L -6.242188 -2.160156 L -4.203125 -2.160156 M -1.011719 -2.160156 L -1.011719 -3.78125 C -1.011719 -4.476562 -1.09375 -4.957031 -1.253906 -5.214844 C -1.417969 -5.476562 -1.695312 -5.613281 -2.089844 -5.625 C -2.324219 -5.625 -2.539062 -5.550781 -2.738281 -5.398438 C -2.9375 -5.25 -3.0625 -5.054688 -3.113281 -4.8125 C -3.167969 -4.570312 -3.191406 -4.183594 -3.191406 -3.648438 L -3.191406 -2.160156 Z M -1.011719 -2.160156 "/>
</g>
<g id="glyph-4-0">
<path d="M 9.875 -4.214844 L 11.46875 -3.8125 C 11.132812 -2.507812 10.535156 -1.511719 9.667969 -0.824219 C 8.800781 -0.136719 7.742188 0.203125 6.488281 0.203125 C 5.191406 0.203125 4.136719 -0.0585938 3.328125 -0.585938 C 2.515625 -1.113281 1.894531 -1.878906 1.472656 -2.878906 C 1.046875 -3.878906 0.835938 -4.953125 0.835938 -6.101562 C 0.835938 -7.355469 1.074219 -8.449219 1.554688 -9.378906 C 2.03125 -10.3125 2.714844 -11.019531 3.597656 -11.503906 C 4.480469 -11.988281 5.453125 -12.230469 6.511719 -12.230469 C 7.714844 -12.230469 8.726562 -11.925781 9.546875 -11.3125 C 10.367188 -10.699219 10.941406 -9.839844 11.261719 -8.726562 L 9.695312 -8.359375 C 9.417969 -9.234375 9.011719 -9.871094 8.480469 -10.269531 C 7.953125 -10.667969 7.285156 -10.867188 6.480469 -10.867188 C 5.554688 -10.867188 4.785156 -10.648438 4.164062 -10.203125 C 3.542969 -9.761719 3.105469 -9.167969 2.855469 -8.421875 C 2.601562 -7.675781 2.476562 -6.902344 2.476562 -6.109375 C 2.476562 -5.089844 2.625 -4.195312 2.925781 -3.433594 C 3.222656 -2.671875 3.6875 -2.101562 4.316406 -1.722656 C 4.945312 -1.34375 5.625 -1.15625 6.359375 -1.15625 C 7.25 -1.15625 8.003906 -1.414062 8.621094 -1.929688 C 9.238281 -2.441406 9.65625 -3.203125 9.875 -4.214844 Z M 9.875 -4.214844 "/>
</g>
<g id="glyph-4-1">
<path d="M 7.070312 -2.804688 L 8.597656 -2.617188 C 8.355469 -1.726562 7.910156 -1.035156 7.257812 -0.542969 C 6.609375 -0.0507812 5.777344 0.195312 4.765625 0.195312 C 3.492188 0.195312 2.480469 -0.195312 1.734375 -0.980469 C 0.988281 -1.765625 0.617188 -2.867188 0.617188 -4.28125 C 0.617188 -5.746094 0.992188 -6.886719 1.746094 -7.695312 C 2.5 -8.503906 3.480469 -8.910156 4.683594 -8.910156 C 5.847656 -8.910156 6.800781 -8.511719 7.539062 -7.71875 C 8.277344 -6.925781 8.644531 -5.808594 8.644531 -4.371094 C 8.644531 -4.285156 8.644531 -4.152344 8.636719 -3.976562 L 2.140625 -3.976562 C 2.195312 -3.019531 2.464844 -2.289062 2.953125 -1.78125 C 3.441406 -1.273438 4.046875 -1.015625 4.773438 -1.015625 C 5.316406 -1.015625 5.777344 -1.160156 6.160156 -1.445312 C 6.542969 -1.726562 6.847656 -2.183594 7.070312 -2.804688 M 2.222656 -5.191406 L 7.085938 -5.191406 C 7.023438 -5.925781 6.835938 -6.476562 6.53125 -6.839844 C 6.058594 -7.410156 5.449219 -7.695312 4.699219 -7.695312 C 4.023438 -7.695312 3.453125 -7.46875 2.988281 -7.015625 C 2.527344 -6.558594 2.273438 -5.953125 2.222656 -5.191406 Z M 2.222656 -5.191406 "/>
</g>
<g id="glyph-4-2">
<path d="M 1.109375 3.339844 L 1.109375 -8.710938 L 2.453125 -8.710938 L 2.453125 -7.578125 C 2.769531 -8.023438 3.128906 -8.355469 3.527344 -8.578125 C 3.925781 -8.796875 4.410156 -8.910156 4.980469 -8.910156 C 5.722656 -8.910156 6.378906 -8.71875 6.949219 -8.335938 C 7.515625 -7.953125 7.945312 -7.410156 8.234375 -6.714844 C 8.527344 -6.015625 8.671875 -5.253906 8.671875 -4.421875 C 8.671875 -3.53125 8.511719 -2.726562 8.191406 -2.015625 C 7.871094 -1.300781 7.40625 -0.753906 6.796875 -0.375 C 6.1875 0.0078125 5.546875 0.195312 4.871094 0.195312 C 4.378906 0.195312 3.9375 0.09375 3.546875 -0.113281 C 3.15625 -0.324219 2.835938 -0.585938 2.585938 -0.902344 L 2.585938 3.339844 L 1.109375 3.339844 M 2.445312 -4.304688 C 2.445312 -3.183594 2.671875 -2.355469 3.125 -1.820312 C 3.578125 -1.285156 4.128906 -1.015625 4.773438 -1.015625 C 5.429688 -1.015625 5.992188 -1.292969 6.460938 -1.851562 C 6.925781 -2.40625 7.160156 -3.265625 7.160156 -4.429688 C 7.160156 -5.539062 6.933594 -6.371094 6.476562 -6.921875 C 6.019531 -7.476562 5.472656 -7.75 4.839844 -7.75 C 4.210938 -7.75 3.65625 -7.457031 3.171875 -6.871094 C 2.6875 -6.28125 2.445312 -5.425781 2.445312 -4.304688 Z M 2.445312 -4.304688 "/>
</g>
<g id="glyph-4-3">
<path d="M 2.273438 -8.710938 L 8.34375 -8.710938 L 8.34375 -1.214844 L 9.285156 -1.214844 L 9.285156 2.46875 L 8.070312 2.46875 L 8.070312 0 L 1.214844 0 L 1.214844 2.46875 L 0 2.46875 L 0 -1.214844 L 0.78125 -1.214844 C 1.816406 -2.625 2.316406 -5.125 2.273438 -8.710938 M 3.503906 -7.488281 C 3.394531 -4.660156 2.957031 -2.570312 2.191406 -1.214844 L 6.875 -1.214844 L 6.875 -7.488281 Z M 3.503906 -7.488281 "/>
</g>
<g id="glyph-4-4">
</g>
<g id="glyph-4-5">
<path d="M 6.257812 0 L 4.78125 0 L 4.78125 -9.410156 C 4.425781 -9.070312 3.960938 -8.730469 3.382812 -8.390625 C 2.808594 -8.050781 2.289062 -7.796875 1.828125 -7.628906 L 1.828125 -9.054688 C 2.65625 -9.445312 3.375 -9.914062 3.996094 -10.46875 C 4.613281 -11.019531 5.050781 -11.554688 5.308594 -12.074219 L 6.257812 -12.074219 Z M 6.257812 0 "/>
</g>
<g id="glyph-4-6">
<path d="M 0.695312 -5.929688 C 0.695312 -7.351562 0.84375 -8.496094 1.136719 -9.363281 C 1.429688 -10.230469 1.863281 -10.898438 2.441406 -11.371094 C 3.015625 -11.839844 3.742188 -12.074219 4.617188 -12.074219 C 5.261719 -12.074219 5.828125 -11.945312 6.316406 -11.683594 C 6.804688 -11.425781 7.203125 -11.050781 7.523438 -10.5625 C 7.839844 -10.070312 8.089844 -9.476562 8.269531 -8.773438 C 8.449219 -8.070312 8.539062 -7.121094 8.539062 -5.929688 C 8.539062 -4.519531 8.394531 -3.382812 8.105469 -2.515625 C 7.816406 -1.648438 7.382812 -0.976562 6.804688 -0.503906 C 6.226562 -0.03125 5.5 0.203125 4.617188 0.203125 C 3.457031 0.203125 2.546875 -0.210938 1.886719 -1.042969 C 1.09375 -2.042969 0.695312 -3.671875 0.695312 -5.929688 M 2.214844 -5.929688 C 2.214844 -3.957031 2.445312 -2.644531 2.90625 -1.988281 C 3.371094 -1.335938 3.941406 -1.007812 4.617188 -1.007812 C 5.296875 -1.007812 5.867188 -1.335938 6.328125 -1.992188 C 6.789062 -2.648438 7.023438 -3.960938 7.023438 -5.929688 C 7.023438 -7.910156 6.789062 -9.226562 6.328125 -9.875 C 5.867188 -10.527344 5.289062 -10.851562 4.601562 -10.851562 C 3.921875 -10.851562 3.382812 -10.566406 2.976562 -9.992188 C 2.46875 -9.257812 2.214844 -7.90625 2.214844 -5.929688 Z M 2.214844 -5.929688 "/>
</g>
<g id="glyph-4-7">
<path d="M 1.828125 -8.710938 L 8.6875 -8.710938 L 8.6875 0 L 7.21875 0 L 7.21875 -7.488281 L 3.304688 -7.488281 L 3.304688 -3.148438 C 3.304688 -2.136719 3.273438 -1.472656 3.207031 -1.148438 C 3.140625 -0.824219 2.960938 -0.542969 2.664062 -0.304688 C 2.371094 -0.0625 1.945312 0.0585938 1.386719 0.0585938 C 1.042969 0.0585938 0.644531 0.0351562 0.195312 -0.0078125 L 0.195312 -1.238281 L 0.84375 -1.238281 C 1.152344 -1.238281 1.371094 -1.269531 1.5 -1.332031 C 1.632812 -1.394531 1.71875 -1.496094 1.765625 -1.632812 C 1.808594 -1.769531 1.828125 -2.214844 1.828125 -2.96875 Z M 1.828125 -8.710938 "/>
</g>
<g id="glyph-4-8">
<path d="M 1.109375 -8.710938 L 2.585938 -8.710938 L 2.585938 -2.066406 L 6.675781 -8.710938 L 8.269531 -8.710938 L 8.269531 0 L 6.792969 0 L 6.792969 -6.601562 L 2.699219 0 L 1.109375 0 Z M 1.109375 -8.710938 "/>
</g>
<g id="glyph-4-9">
<path d="M 6.792969 -3.191406 L 8.242188 -3.003906 C 8.085938 -2 7.679688 -1.21875 7.027344 -0.652344 C 6.371094 -0.0859375 5.570312 0.195312 4.617188 0.195312 C 3.425781 0.195312 2.46875 -0.191406 1.742188 -0.972656 C 1.019531 -1.75 0.65625 -2.867188 0.65625 -4.324219 C 0.65625 -5.261719 0.8125 -6.085938 1.125 -6.792969 C 1.4375 -7.496094 1.910156 -8.027344 2.546875 -8.378906 C 3.183594 -8.730469 3.878906 -8.910156 4.625 -8.910156 C 5.574219 -8.910156 6.347656 -8.667969 6.949219 -8.191406 C 7.550781 -7.710938 7.933594 -7.03125 8.105469 -6.152344 L 6.667969 -5.929688 C 6.53125 -6.515625 6.289062 -6.957031 5.941406 -7.25 C 5.597656 -7.546875 5.175781 -7.695312 4.683594 -7.695312 C 3.941406 -7.695312 3.335938 -7.429688 2.871094 -6.894531 C 2.40625 -6.363281 2.171875 -5.519531 2.171875 -4.363281 C 2.171875 -3.195312 2.398438 -2.34375 2.847656 -1.8125 C 3.292969 -1.28125 3.878906 -1.015625 4.601562 -1.015625 C 5.179688 -1.015625 5.664062 -1.195312 6.054688 -1.550781 C 6.441406 -1.90625 6.6875 -2.453125 6.792969 -3.191406 Z M 6.792969 -3.191406 "/>
</g>
<g id="glyph-4-10">
<path d="M 0.3125 -8.710938 L 7.390625 -8.710938 L 7.390625 -7.488281 L 4.585938 -7.488281 L 4.585938 0 L 3.117188 0 L 3.117188 -7.488281 L 0.3125 -7.488281 Z M 0.3125 -8.710938 "/>
</g>
<g id="glyph-4-11">
<path d="M 1.117188 -10.328125 L 1.117188 -12.027344 L 2.59375 -12.027344 L 2.59375 -10.328125 L 1.117188 -10.328125 M 1.117188 0 L 1.117188 -8.710938 L 2.59375 -8.710938 L 2.59375 0 Z M 1.117188 0 "/>
</g>
<g id="glyph-4-12">
<path d="M 1.117188 -8.710938 L 4.519531 -8.710938 C 5.355469 -8.710938 5.980469 -8.640625 6.386719 -8.503906 C 6.792969 -8.363281 7.144531 -8.105469 7.4375 -7.734375 C 7.730469 -7.363281 7.875 -6.917969 7.875 -6.398438 C 7.875 -5.984375 7.789062 -5.621094 7.617188 -5.3125 C 7.445312 -5.003906 7.1875 -4.742188 6.839844 -4.535156 C 7.25 -4.398438 7.59375 -4.144531 7.863281 -3.769531 C 8.132812 -3.394531 8.269531 -2.949219 8.269531 -2.4375 C 8.214844 -1.609375 7.917969 -0.996094 7.382812 -0.597656 C 6.847656 -0.199219 6.066406 0 5.046875 0 L 1.117188 0 L 1.117188 -8.710938 M 2.59375 -5.046875 L 4.167969 -5.046875 C 4.796875 -5.046875 5.226562 -5.078125 5.464844 -5.144531 C 5.699219 -5.210938 5.910156 -5.339844 6.09375 -5.542969 C 6.28125 -5.742188 6.375 -5.980469 6.375 -6.257812 C 6.375 -6.71875 6.210938 -7.039062 5.886719 -7.21875 C 5.558594 -7.398438 5.003906 -7.488281 4.214844 -7.488281 L 2.59375 -7.488281 L 2.59375 -5.046875 M 2.59375 -1.214844 L 4.535156 -1.214844 C 5.375 -1.214844 5.945312 -1.3125 6.257812 -1.503906 C 6.570312 -1.699219 6.734375 -2.035156 6.75 -2.511719 C 6.75 -2.789062 6.660156 -3.046875 6.480469 -3.285156 C 6.300781 -3.523438 6.066406 -3.671875 5.773438 -3.738281 C 5.484375 -3.800781 5.019531 -3.832031 4.378906 -3.832031 L 2.59375 -3.832031 Z M 2.59375 -1.214844 "/>
</g>
<g id="glyph-4-13">
<path d="M 1.515625 -7.03125 L 1.515625 -8.710938 L 3.199219 -8.710938 L 3.199219 -7.03125 L 1.515625 -7.03125 M 1.515625 0 L 1.515625 -1.679688 L 3.199219 -1.679688 L 3.199219 0 Z M 1.515625 0 "/>
</g>
<g id="glyph-4-14">
<path d="M 8.457031 -1.417969 L 8.457031 0 L 0.507812 0 C 0.496094 -0.355469 0.554688 -0.695312 0.679688 -1.023438 C 0.882812 -1.566406 1.207031 -2.101562 1.652344 -2.625 C 2.097656 -3.148438 2.742188 -3.757812 3.585938 -4.445312 C 4.890625 -5.519531 5.773438 -6.367188 6.234375 -6.992188 C 6.695312 -7.621094 6.921875 -8.210938 6.921875 -8.769531 C 6.921875 -9.355469 6.714844 -9.847656 6.296875 -10.25 C 5.878906 -10.652344 5.332031 -10.851562 4.660156 -10.851562 C 3.949219 -10.851562 3.378906 -10.640625 2.953125 -10.210938 C 2.527344 -9.785156 2.308594 -9.195312 2.304688 -8.441406 L 0.789062 -8.597656 C 0.890625 -9.730469 1.28125 -10.589844 1.960938 -11.183594 C 2.636719 -11.777344 3.550781 -12.074219 4.691406 -12.074219 C 5.847656 -12.074219 6.757812 -11.753906 7.433594 -11.117188 C 8.105469 -10.476562 8.441406 -9.683594 8.441406 -8.734375 C 8.441406 -8.253906 8.34375 -7.78125 8.144531 -7.316406 C 7.949219 -6.851562 7.621094 -6.363281 7.164062 -5.847656 C 6.707031 -5.335938 5.949219 -4.628906 4.890625 -3.734375 C 4.003906 -2.988281 3.433594 -2.484375 3.183594 -2.21875 C 2.929688 -1.953125 2.722656 -1.6875 2.558594 -1.417969 Z M 8.457031 -1.417969 "/>
</g>
<g id="glyph-4-15">
<path d="M 0.695312 -3.148438 L 2.246094 -3.28125 C 2.363281 -2.527344 2.628906 -1.960938 3.046875 -1.578125 C 3.464844 -1.199219 3.96875 -1.007812 4.5625 -1.007812 C 5.273438 -1.007812 5.875 -1.277344 6.367188 -1.8125 C 6.859375 -2.347656 7.105469 -3.058594 7.105469 -3.945312 C 7.105469 -4.789062 6.867188 -5.453125 6.394531 -5.9375 C 5.921875 -6.425781 5.300781 -6.667969 4.535156 -6.667969 C 4.0625 -6.667969 3.632812 -6.5625 3.25 -6.34375 C 2.867188 -6.128906 2.566406 -5.847656 2.347656 -5.503906 L 0.960938 -5.683594 L 2.125 -11.863281 L 8.105469 -11.863281 L 8.105469 -10.449219 L 3.304688 -10.449219 L 2.65625 -7.21875 C 3.378906 -7.722656 4.136719 -7.972656 4.929688 -7.972656 C 5.980469 -7.972656 6.867188 -7.609375 7.585938 -6.882812 C 8.308594 -6.15625 8.671875 -5.21875 8.671875 -4.078125 C 8.671875 -2.988281 8.351562 -2.046875 7.71875 -1.253906 C 6.949219 -0.28125 5.894531 0.203125 4.5625 0.203125 C 3.46875 0.203125 2.574219 -0.101562 1.882812 -0.714844 C 1.191406 -1.324219 0.796875 -2.136719 0.695312 -3.148438 Z M 0.695312 -3.148438 "/>
</g>
<g id="glyph-4-16">
<path d="M 5.429688 0 L 5.429688 -2.878906 L 0.214844 -2.878906 L 0.214844 -4.234375 L 5.703125 -12.027344 L 6.90625 -12.027344 L 6.90625 -4.234375 L 8.53125 -4.234375 L 8.53125 -2.878906 L 6.90625 -2.878906 L 6.90625 0 L 5.429688 0 M 5.429688 -4.234375 L 5.429688 -9.65625 L 1.664062 -4.234375 Z M 5.429688 -4.234375 "/>
</g>
<g id="glyph-4-17">
<path d="M 2.789062 -4.332031 L 4.914062 -0.589844 L 3.714844 -0.589844 L 1.097656 -4.332031 L 3.714844 -8.070312 L 4.929688 -8.070312 L 2.789062 -4.332031 M 5.964844 -4.332031 L 8.128906 -0.589844 L 6.882812 -0.589844 L 4.316406 -4.332031 L 6.882812 -8.070312 L 8.128906 -8.070312 Z M 5.964844 -4.332031 "/>
</g>
<g id="glyph-4-18">
<path d="M 4.207031 -1.945312 L 4.207031 -5.242188 L 0.933594 -5.242188 L 0.933594 -6.621094 L 4.207031 -6.621094 L 4.207031 -9.894531 L 5.601562 -9.894531 L 5.601562 -6.621094 L 8.875 -6.621094 L 8.875 -5.242188 L 5.601562 -5.242188 L 5.601562 -1.945312 Z M 4.207031 -1.945312 "/>
</g>
<g id="glyph-4-19">
<path d="M 6.488281 -4.332031 L 4.347656 -8.070312 L 5.5625 -8.070312 L 8.179688 -4.332031 L 5.5625 -0.589844 L 4.355469 -0.589844 L 6.488281 -4.332031 M 3.3125 -4.332031 L 1.148438 -8.070312 L 2.386719 -8.070312 L 4.960938 -4.332031 L 2.386719 -0.589844 L 1.148438 -0.589844 Z M 3.3125 -4.332031 "/>
</g>
<g id="glyph-4-20">
<path d="M 1.492188 0 L 1.492188 -1.679688 L 3.175781 -1.679688 L 3.175781 0 C 3.175781 0.617188 3.066406 1.117188 2.847656 1.496094 C 2.628906 1.878906 2.28125 2.171875 1.804688 2.378906 L 1.394531 1.746094 C 1.707031 1.609375 1.9375 1.410156 2.082031 1.144531 C 2.230469 0.878906 2.3125 0.496094 2.328125 0 Z M 1.492188 0 "/>
</g>
<g id="glyph-4-21">
<path d="M 3.035156 -3.9375 L 3.035156 -5.09375 C 3.660156 -5.097656 4.082031 -5.125 4.3125 -5.167969 C 4.539062 -5.210938 4.753906 -5.34375 4.953125 -5.5625 C 5.15625 -5.78125 5.257812 -6.054688 5.257812 -6.382812 C 5.257812 -6.78125 5.125 -7.101562 4.859375 -7.335938 C 4.59375 -7.574219 4.25 -7.695312 3.832031 -7.695312 C 3 -7.695312 2.417969 -7.203125 2.082031 -6.226562 L 0.679688 -6.457031 C 1.117188 -8.089844 2.171875 -8.910156 3.847656 -8.910156 C 4.777344 -8.910156 5.503906 -8.65625 6.035156 -8.144531 C 6.5625 -7.636719 6.824219 -7.03125 6.824219 -6.324219 C 6.824219 -5.613281 6.480469 -5.046875 5.792969 -4.625 C 6.230469 -4.390625 6.558594 -4.09375 6.777344 -3.726562 C 6.996094 -3.363281 7.105469 -2.933594 7.105469 -2.4375 C 7.105469 -1.652344 6.820312 -1.019531 6.25 -0.53125 C 5.683594 -0.046875 4.886719 0.195312 3.863281 0.195312 C 1.878906 0.195312 0.726562 -0.6875 0.410156 -2.453125 L 1.796875 -2.75 C 1.921875 -2.191406 2.179688 -1.757812 2.5625 -1.453125 C 2.949219 -1.144531 3.390625 -0.992188 3.886719 -0.992188 C 4.386719 -0.992188 4.800781 -1.132812 5.132812 -1.414062 C 5.460938 -1.695312 5.628906 -2.054688 5.628906 -2.492188 C 5.628906 -2.832031 5.523438 -3.128906 5.316406 -3.378906 C 5.109375 -3.632812 4.886719 -3.789062 4.652344 -3.851562 C 4.414062 -3.914062 3.988281 -3.945312 3.371094 -3.945312 C 3.320312 -3.945312 3.210938 -3.941406 3.035156 -3.9375 Z M 3.035156 -3.9375 "/>
</g>
<g id="glyph-4-22">
<path d="M 1.117188 -8.710938 L 2.59375 -8.710938 L 2.59375 -5.085938 L 6.6875 -5.085938 L 6.6875 -8.710938 L 8.164062 -8.710938 L 8.164062 0 L 6.6875 0 L 6.6875 -3.863281 L 2.59375 -3.863281 L 2.59375 0 L 1.117188 0 Z M 1.117188 -8.710938 "/>
</g>
<g id="glyph-4-23">
<path d="M 0.125 0 L 3.304688 -4.527344 L 0.359375 -8.710938 L 2.207031 -8.710938 L 3.542969 -6.667969 C 3.796875 -6.28125 3.996094 -5.957031 4.152344 -5.691406 C 4.390625 -6.054688 4.613281 -6.375 4.816406 -6.652344 L 6.285156 -8.710938 L 8.046875 -8.710938 L 5.035156 -4.609375 L 8.277344 0 L 6.464844 0 L 4.675781 -2.707031 L 4.199219 -3.4375 L 1.910156 0 Z M 0.125 0 "/>
</g>
<g id="glyph-4-24">
<path d="M 0.917969 -2.78125 L 2.335938 -2.914062 C 2.457031 -2.246094 2.6875 -1.761719 3.027344 -1.460938 C 3.367188 -1.160156 3.800781 -1.007812 4.332031 -1.007812 C 4.785156 -1.007812 5.183594 -1.113281 5.523438 -1.320312 C 5.867188 -1.527344 6.148438 -1.804688 6.367188 -2.152344 C 6.585938 -2.5 6.765625 -2.96875 6.914062 -3.558594 C 7.0625 -4.152344 7.136719 -4.753906 7.136719 -5.363281 C 7.136719 -5.429688 7.132812 -5.527344 7.128906 -5.660156 C 6.832031 -5.191406 6.429688 -4.808594 5.917969 -4.515625 C 5.40625 -4.222656 4.851562 -4.078125 4.257812 -4.078125 C 3.261719 -4.078125 2.421875 -4.4375 1.730469 -5.160156 C 1.042969 -5.882812 0.695312 -6.832031 0.695312 -8.015625 C 0.695312 -9.234375 1.058594 -10.214844 1.777344 -10.960938 C 2.496094 -11.703125 3.394531 -12.074219 4.480469 -12.074219 C 5.261719 -12.074219 5.976562 -11.863281 6.625 -11.445312 C 7.273438 -11.023438 7.765625 -10.421875 8.101562 -9.644531 C 8.4375 -8.863281 8.605469 -7.734375 8.605469 -6.257812 C 8.605469 -4.722656 8.4375 -3.5 8.105469 -2.589844 C 7.769531 -1.675781 7.273438 -0.984375 6.617188 -0.507812 C 5.957031 -0.03125 5.183594 0.203125 4.296875 0.203125 C 3.359375 0.203125 2.589844 -0.0546875 1.992188 -0.578125 C 1.398438 -1.101562 1.039062 -1.835938 0.917969 -2.78125 M 6.964844 -8.089844 C 6.964844 -8.9375 6.738281 -9.609375 6.289062 -10.105469 C 5.835938 -10.605469 5.292969 -10.851562 4.660156 -10.851562 C 4.003906 -10.851562 3.429688 -10.585938 2.945312 -10.046875 C 2.457031 -9.511719 2.214844 -8.820312 2.214844 -7.964844 C 2.214844 -7.199219 2.445312 -6.578125 2.90625 -6.097656 C 3.371094 -5.621094 3.941406 -5.382812 4.617188 -5.382812 C 5.300781 -5.382812 5.863281 -5.621094 6.304688 -6.097656 C 6.746094 -6.578125 6.964844 -7.242188 6.964844 -8.089844 Z M 6.964844 -8.089844 "/>
</g>
<g id="glyph-4-25">
<path d="M 0 -3.757812 L 0 -4.945312 L 16.800781 -4.945312 L 16.800781 -3.757812 Z M 0 -3.757812 "/>
</g>
<g id="glyph-4-26">
<path d="M 1.117188 -8.710938 L 7.988281 -8.710938 L 7.988281 0 L 6.511719 0 L 6.511719 -7.488281 L 2.59375 -7.488281 L 2.59375 0 L 1.117188 0 Z M 1.117188 -8.710938 "/>
</g>
<g id="glyph-4-27">
<path d="M 6.792969 -1.074219 C 6.246094 -0.609375 5.71875 -0.28125 5.214844 -0.0898438 C 4.707031 0.101562 4.164062 0.195312 3.585938 0.195312 C 2.628906 0.195312 1.890625 -0.0351562 1.378906 -0.503906 C 0.863281 -0.972656 0.605469 -1.570312 0.605469 -2.296875 C 0.605469 -2.722656 0.703125 -3.113281 0.898438 -3.464844 C 1.09375 -3.820312 1.347656 -4.101562 1.660156 -4.316406 C 1.976562 -4.527344 2.328125 -4.6875 2.722656 -4.796875 C 3.011719 -4.875 3.449219 -4.949219 4.035156 -5.019531 C 5.226562 -5.164062 6.105469 -5.332031 6.667969 -5.527344 C 6.675781 -5.730469 6.675781 -5.859375 6.675781 -5.914062 C 6.675781 -6.515625 6.539062 -6.941406 6.257812 -7.1875 C 5.882812 -7.519531 5.320312 -7.6875 4.578125 -7.6875 C 3.882812 -7.6875 3.371094 -7.566406 3.039062 -7.320312 C 2.707031 -7.078125 2.464844 -6.648438 2.304688 -6.03125 L 0.859375 -6.226562 C 0.992188 -6.84375 1.207031 -7.34375 1.507812 -7.722656 C 1.808594 -8.101562 2.246094 -8.394531 2.8125 -8.601562 C 3.382812 -8.804688 4.042969 -8.910156 4.789062 -8.910156 C 5.535156 -8.910156 6.136719 -8.820312 6.601562 -8.644531 C 7.066406 -8.472656 7.410156 -8.25 7.628906 -7.984375 C 7.847656 -7.71875 8 -7.386719 8.089844 -6.980469 C 8.136719 -6.730469 8.164062 -6.273438 8.164062 -5.617188 L 8.164062 -3.648438 C 8.164062 -2.277344 8.195312 -1.410156 8.257812 -1.046875 C 8.320312 -0.683594 8.445312 -0.332031 8.628906 0 L 7.085938 0 C 6.933594 -0.304688 6.835938 -0.664062 6.792969 -1.074219 M 6.667969 -4.371094 C 6.132812 -4.152344 5.328125 -3.96875 4.257812 -3.8125 C 3.648438 -3.726562 3.222656 -3.628906 2.96875 -3.519531 C 2.71875 -3.410156 2.523438 -3.25 2.386719 -3.039062 C 2.25 -2.828125 2.183594 -2.59375 2.183594 -2.335938 C 2.183594 -1.945312 2.332031 -1.617188 2.628906 -1.351562 C 2.925781 -1.089844 3.363281 -0.960938 3.9375 -0.960938 C 4.507812 -0.960938 5.011719 -1.085938 5.453125 -1.332031 C 5.898438 -1.582031 6.222656 -1.921875 6.429688 -2.355469 C 6.589844 -2.6875 6.667969 -3.179688 6.667969 -3.832031 Z M 6.667969 -4.371094 "/>
</g>
<g id="glyph-4-28">
<path d="M 1.148438 -8.710938 L 3.445312 -8.710938 L 5.734375 -1.738281 L 8.277344 -8.710938 L 10.402344 -8.710938 L 10.402344 0 L 8.925781 0 L 8.925781 -7.015625 L 6.347656 0 L 5.027344 0 L 2.59375 -7.351562 L 2.59375 0 L 1.148438 0 Z M 1.148438 -8.710938 "/>
</g>
<g id="glyph-4-29">
<path d="M 8.359375 -9.082031 L 6.890625 -8.964844 C 6.757812 -9.546875 6.574219 -9.96875 6.332031 -10.230469 C 5.933594 -10.648438 5.441406 -10.859375 4.855469 -10.859375 C 4.386719 -10.859375 3.972656 -10.730469 3.617188 -10.46875 C 3.152344 -10.128906 2.785156 -9.632812 2.519531 -8.984375 C 2.25 -8.332031 2.109375 -7.40625 2.101562 -6.203125 C 2.457031 -6.742188 2.890625 -7.144531 3.40625 -7.40625 C 3.917969 -7.667969 4.457031 -7.800781 5.019531 -7.800781 C 6.003906 -7.800781 6.84375 -7.4375 7.535156 -6.714844 C 8.226562 -5.988281 8.570312 -5.054688 8.570312 -3.90625 C 8.570312 -3.148438 8.410156 -2.449219 8.085938 -1.800781 C 7.757812 -1.152344 7.3125 -0.65625 6.742188 -0.3125 C 6.175781 0.03125 5.527344 0.203125 4.808594 0.203125 C 3.578125 0.203125 2.574219 -0.246094 1.796875 -1.152344 C 1.019531 -2.058594 0.632812 -3.550781 0.632812 -5.628906 C 0.632812 -7.953125 1.0625 -9.640625 1.917969 -10.695312 C 2.667969 -11.617188 3.675781 -12.074219 4.945312 -12.074219 C 5.890625 -12.074219 6.667969 -11.808594 7.273438 -11.28125 C 7.875 -10.75 8.238281 -10.015625 8.359375 -9.082031 M 2.328125 -3.898438 C 2.328125 -3.386719 2.4375 -2.902344 2.652344 -2.4375 C 2.871094 -1.972656 3.171875 -1.617188 3.558594 -1.375 C 3.949219 -1.128906 4.355469 -1.007812 4.78125 -1.007812 C 5.40625 -1.007812 5.941406 -1.261719 6.390625 -1.765625 C 6.839844 -2.265625 7.0625 -2.949219 7.0625 -3.8125 C 7.0625 -4.644531 6.839844 -5.300781 6.398438 -5.777344 C 5.957031 -6.257812 5.398438 -6.496094 4.726562 -6.496094 C 4.058594 -6.496094 3.492188 -6.257812 3.027344 -5.777344 C 2.5625 -5.300781 2.328125 -4.671875 2.328125 -3.898438 Z M 2.328125 -3.898438 "/>
</g>
<g id="glyph-4-30">
<path d="M 1.460938 0 L 1.460938 -7.5625 L 0.15625 -7.5625 L 0.15625 -8.710938 L 1.460938 -8.710938 L 1.460938 -9.640625 C 1.460938 -10.222656 1.511719 -10.660156 1.617188 -10.941406 C 1.757812 -11.324219 2.007812 -11.636719 2.367188 -11.875 C 2.726562 -12.113281 3.226562 -12.230469 3.871094 -12.230469 C 4.289062 -12.230469 4.746094 -12.179688 5.25 -12.082031 L 5.027344 -10.796875 C 4.722656 -10.851562 4.433594 -10.878906 4.160156 -10.878906 C 3.710938 -10.878906 3.394531 -10.78125 3.207031 -10.589844 C 3.019531 -10.398438 2.929688 -10.039062 2.929688 -9.515625 L 2.929688 -8.710938 L 4.625 -8.710938 L 4.625 -7.5625 L 2.929688 -7.5625 L 2.929688 0 Z M 1.460938 0 "/>
</g>
<g id="glyph-4-31">
<path d="M 6.792969 -1.074219 C 6.246094 -0.609375 5.71875 -0.28125 5.214844 -0.0898438 C 4.707031 0.101562 4.164062 0.195312 3.585938 0.195312 C 2.628906 0.195312 1.890625 -0.0351562 1.378906 -0.503906 C 0.863281 -0.972656 0.605469 -1.570312 0.605469 -2.296875 C 0.605469 -2.722656 0.703125 -3.113281 0.898438 -3.464844 C 1.09375 -3.820312 1.347656 -4.101562 1.660156 -4.316406 C 1.976562 -4.527344 2.328125 -4.6875 2.722656 -4.796875 C 3.011719 -4.875 3.449219 -4.949219 4.035156 -5.019531 C 5.226562 -5.164062 6.105469 -5.332031 6.667969 -5.527344 C 6.675781 -5.730469 6.675781 -5.859375 6.675781 -5.914062 C 6.675781 -6.515625 6.539062 -6.941406 6.257812 -7.1875 C 5.882812 -7.519531 5.320312 -7.6875 4.578125 -7.6875 C 3.882812 -7.6875 3.371094 -7.566406 3.039062 -7.320312 C 2.707031 -7.078125 2.464844 -6.648438 2.304688 -6.03125 L 0.859375 -6.226562 C 0.992188 -6.84375 1.207031 -7.34375 1.507812 -7.722656 C 1.808594 -8.101562 2.246094 -8.394531 2.8125 -8.601562 C 3.382812 -8.804688 4.042969 -8.910156 4.789062 -8.910156 C 5.535156 -8.910156 6.136719 -8.820312 6.601562 -8.644531 C 7.066406 -8.472656 7.410156 -8.25 7.628906 -7.984375 C 7.847656 -7.71875 8 -7.386719 8.089844 -6.980469 C 8.136719 -6.730469 8.164062 -6.273438 8.164062 -5.617188 L 8.164062 -3.648438 C 8.164062 -2.277344 8.195312 -1.410156 8.257812 -1.046875 C 8.320312 -0.683594 8.445312 -0.332031 8.628906 0 L 7.085938 0 C 6.933594 -0.304688 6.835938 -0.664062 6.792969 -1.074219 M 6.667969 -4.371094 C 6.132812 -4.152344 5.328125 -3.96875 4.257812 -3.8125 C 3.648438 -3.726562 3.222656 -3.628906 2.96875 -3.519531 C 2.71875 -3.410156 2.523438 -3.25 2.386719 -3.039062 C 2.25 -2.828125 2.183594 -2.59375 2.183594 -2.335938 C 2.183594 -1.945312 2.332031 -1.617188 2.628906 -1.351562 C 2.925781 -1.089844 3.363281 -0.960938 3.9375 -0.960938 C 4.507812 -0.960938 5.011719 -1.085938 5.453125 -1.332031 C 5.898438 -1.582031 6.222656 -1.921875 6.429688 -2.355469 C 6.589844 -2.6875 6.667969 -3.179688 6.667969 -3.832031 Z M 6.667969 -4.371094 "/>
</g>
<g id="glyph-4-32">
<path d="M 1.074219 0 L 1.074219 -12.027344 L 2.550781 -12.027344 L 2.550781 0 Z M 1.074219 0 "/>
</g>
<g id="glyph-4-33">
<path d="M 0.515625 -2.601562 L 1.976562 -2.828125 C 2.058594 -2.246094 2.289062 -1.796875 2.660156 -1.484375 C 3.035156 -1.171875 3.558594 -1.015625 4.234375 -1.015625 C 4.910156 -1.015625 5.414062 -1.15625 5.742188 -1.429688 C 6.070312 -1.707031 6.234375 -2.03125 6.234375 -2.402344 C 6.234375 -2.738281 6.089844 -3 5.800781 -3.191406 C 5.597656 -3.320312 5.09375 -3.488281 4.289062 -3.691406 C 3.207031 -3.964844 2.457031 -4.203125 2.039062 -4.402344 C 1.621094 -4.601562 1.304688 -4.875 1.085938 -5.230469 C 0.871094 -5.582031 0.761719 -5.972656 0.761719 -6.398438 C 0.761719 -6.785156 0.851562 -7.144531 1.03125 -7.476562 C 1.207031 -7.808594 1.449219 -8.082031 1.753906 -8.300781 C 1.984375 -8.472656 2.296875 -8.613281 2.695312 -8.730469 C 3.089844 -8.851562 3.515625 -8.910156 3.96875 -8.910156 C 4.652344 -8.910156 5.253906 -8.808594 5.769531 -8.613281 C 6.289062 -8.417969 6.667969 -8.148438 6.914062 -7.8125 C 7.160156 -7.476562 7.332031 -7.027344 7.421875 -6.464844 L 5.980469 -6.265625 C 5.914062 -6.714844 5.722656 -7.066406 5.410156 -7.316406 C 5.09375 -7.570312 4.652344 -7.695312 4.078125 -7.695312 C 3.398438 -7.695312 2.914062 -7.582031 2.625 -7.359375 C 2.335938 -7.132812 2.191406 -6.871094 2.191406 -6.570312 C 2.191406 -6.378906 2.25 -6.207031 2.371094 -6.054688 C 2.492188 -5.894531 2.679688 -5.765625 2.9375 -5.660156 C 3.085938 -5.605469 3.519531 -5.480469 4.242188 -5.28125 C 5.285156 -5.003906 6.015625 -4.777344 6.425781 -4.597656 C 6.839844 -4.421875 7.164062 -4.160156 7.398438 -3.824219 C 7.632812 -3.484375 7.75 -3.0625 7.75 -2.558594 C 7.75 -2.066406 7.609375 -1.605469 7.320312 -1.167969 C 7.035156 -0.734375 6.621094 -0.398438 6.078125 -0.160156 C 5.539062 0.078125 4.925781 0.195312 4.242188 0.195312 C 3.109375 0.195312 2.246094 -0.0390625 1.652344 -0.507812 C 1.058594 -0.980469 0.679688 -1.675781 0.515625 -2.601562 Z M 0.515625 -2.601562 "/>
</g>
<g id="glyph-4-34">
<path d="M 7.070312 -2.804688 L 8.597656 -2.617188 C 8.355469 -1.726562 7.910156 -1.035156 7.257812 -0.542969 C 6.609375 -0.0507812 5.777344 0.195312 4.765625 0.195312 C 3.492188 0.195312 2.480469 -0.195312 1.734375 -0.980469 C 0.988281 -1.765625 0.617188 -2.867188 0.617188 -4.28125 C 0.617188 -5.746094 0.992188 -6.886719 1.746094 -7.695312 C 2.5 -8.503906 3.480469 -8.910156 4.683594 -8.910156 C 5.847656 -8.910156 6.800781 -8.511719 7.539062 -7.71875 C 8.277344 -6.925781 8.644531 -5.808594 8.644531 -4.371094 C 8.644531 -4.285156 8.644531 -4.152344 8.636719 -3.976562 L 2.140625 -3.976562 C 2.195312 -3.019531 2.464844 -2.289062 2.953125 -1.78125 C 3.441406 -1.273438 4.046875 -1.015625 4.773438 -1.015625 C 5.316406 -1.015625 5.777344 -1.160156 6.160156 -1.445312 C 6.542969 -1.726562 6.847656 -2.183594 7.070312 -2.804688 M 2.222656 -5.191406 L 7.085938 -5.191406 C 7.023438 -5.925781 6.835938 -6.476562 6.53125 -6.839844 C 6.058594 -7.410156 5.449219 -7.695312 4.699219 -7.695312 C 4.023438 -7.695312 3.453125 -7.46875 2.988281 -7.015625 C 2.527344 -6.558594 2.273438 -5.953125 2.222656 -5.191406 Z M 2.222656 -5.191406 "/>
</g>
<g id="glyph-4-35">
<path d="M 1.109375 3.339844 L 1.109375 -8.710938 L 2.453125 -8.710938 L 2.453125 -7.578125 C 2.769531 -8.023438 3.128906 -8.355469 3.527344 -8.578125 C 3.925781 -8.796875 4.410156 -8.910156 4.980469 -8.910156 C 5.722656 -8.910156 6.378906 -8.71875 6.949219 -8.335938 C 7.515625 -7.953125 7.945312 -7.410156 8.234375 -6.714844 C 8.527344 -6.015625 8.671875 -5.253906 8.671875 -4.421875 C 8.671875 -3.53125 8.511719 -2.726562 8.191406 -2.015625 C 7.871094 -1.300781 7.40625 -0.753906 6.796875 -0.375 C 6.1875 0.0078125 5.546875 0.195312 4.871094 0.195312 C 4.378906 0.195312 3.9375 0.09375 3.546875 -0.113281 C 3.15625 -0.324219 2.835938 -0.585938 2.585938 -0.902344 L 2.585938 3.339844 L 1.109375 3.339844 M 2.445312 -4.304688 C 2.445312 -3.183594 2.671875 -2.355469 3.125 -1.820312 C 3.578125 -1.285156 4.128906 -1.015625 4.773438 -1.015625 C 5.429688 -1.015625 5.992188 -1.292969 6.460938 -1.851562 C 6.925781 -2.40625 7.160156 -3.265625 7.160156 -4.429688 C 7.160156 -5.539062 6.933594 -6.371094 6.476562 -6.921875 C 6.019531 -7.476562 5.472656 -7.75 4.839844 -7.75 C 4.210938 -7.75 3.65625 -7.457031 3.171875 -6.871094 C 2.6875 -6.28125 2.445312 -5.425781 2.445312 -4.304688 Z M 2.445312 -4.304688 "/>
</g>
<g id="glyph-4-36">
<path d="M 0.558594 -4.355469 C 0.558594 -5.96875 1.007812 -7.164062 1.902344 -7.941406 C 2.652344 -8.585938 3.566406 -8.910156 4.644531 -8.910156 C 5.839844 -8.910156 6.820312 -8.515625 7.578125 -7.730469 C 8.339844 -6.945312 8.71875 -5.863281 8.71875 -4.480469 C 8.71875 -3.359375 8.550781 -2.476562 8.214844 -1.832031 C 7.878906 -1.191406 7.390625 -0.691406 6.746094 -0.335938 C 6.105469 0.0195312 5.402344 0.195312 4.644531 0.195312 C 3.421875 0.195312 2.4375 -0.195312 1.6875 -0.976562 C 0.933594 -1.757812 0.558594 -2.882812 0.558594 -4.355469 M 2.074219 -4.355469 C 2.074219 -3.242188 2.320312 -2.40625 2.804688 -1.851562 C 3.292969 -1.292969 3.90625 -1.015625 4.644531 -1.015625 C 5.375 -1.015625 5.984375 -1.296875 6.472656 -1.855469 C 6.957031 -2.410156 7.203125 -3.261719 7.203125 -4.40625 C 7.203125 -5.480469 6.957031 -6.296875 6.46875 -6.855469 C 5.980469 -7.410156 5.371094 -7.6875 4.644531 -7.6875 C 3.90625 -7.6875 3.292969 -7.410156 2.804688 -6.859375 C 2.320312 -6.304688 2.074219 -5.472656 2.074219 -4.355469 Z M 2.074219 -4.355469 "/>
</g>
<g id="glyph-4-37">
<path d="M 1.117188 -10.328125 L 1.117188 -12.027344 L 2.59375 -12.027344 L 2.59375 -10.328125 L 1.117188 -10.328125 M 1.117188 0 L 1.117188 -8.710938 L 2.59375 -8.710938 L 2.59375 0 Z M 1.117188 0 "/>
</g>
<g id="glyph-4-38">
<path d="M 4.332031 -1.320312 L 4.542969 -0.015625 C 4.128906 0.0703125 3.757812 0.113281 3.429688 0.113281 C 2.894531 0.113281 2.476562 0.03125 2.183594 -0.140625 C 1.886719 -0.308594 1.679688 -0.53125 1.558594 -0.808594 C 1.4375 -1.085938 1.378906 -1.664062 1.378906 -2.550781 L 1.378906 -7.5625 L 0.296875 -7.5625 L 0.296875 -8.710938 L 1.378906 -8.710938 L 1.378906 -10.867188 L 2.847656 -11.753906 L 2.847656 -8.710938 L 4.332031 -8.710938 L 4.332031 -7.5625 L 2.847656 -7.5625 L 2.847656 -2.46875 C 2.847656 -2.046875 2.871094 -1.777344 2.925781 -1.65625 C 2.976562 -1.535156 3.0625 -1.441406 3.179688 -1.371094 C 3.296875 -1.296875 3.464844 -1.261719 3.683594 -1.261719 C 3.847656 -1.261719 4.0625 -1.28125 4.332031 -1.320312 Z M 4.332031 -1.320312 "/>
</g>
<g id="glyph-4-39">
<path d="M 3.527344 0 L 0.214844 -8.710938 L 1.773438 -8.710938 L 3.640625 -3.496094 C 3.84375 -2.929688 4.03125 -2.347656 4.199219 -1.738281 C 4.332031 -2.199219 4.515625 -2.75 4.75 -3.394531 L 6.6875 -8.710938 L 8.203125 -8.710938 L 4.90625 0 Z M 3.527344 0 "/>
</g>
</g>
<clipPath id="clip-0">
<path clip-rule="nonzero" d="M 50.390625 195 L 559.617188 195 L 559.617188 197 L 50.390625 197 Z M 50.390625 195 "/>
</clipPath>
<clipPath id="clip-1">
<path clip-rule="nonzero" d="M 50.390625 147 L 559.617188 147 L 559.617188 149 L 50.390625 149 Z M 50.390625 147 "/>
</clipPath>
<clipPath id="clip-2">
<path clip-rule="nonzero" d="M 50.390625 99 L 559.617188 99 L 559.617188 101 L 50.390625 101 Z M 50.390625 99 "/>
</clipPath>
<clipPath id="clip-3">
<path clip-rule="nonzero" d="M 50.390625 51 L 559.617188 51 L 559.617188 52 L 50.390625 52 Z M 50.390625 51 "/>
</clipPath>
<clipPath id="clip-4">
<path clip-rule="nonzero" d="M 50.390625 219 L 559.617188 219 L 559.617188 221 L 50.390625 221 Z M 50.390625 219 "/>
</clipPath>
<clipPath id="clip-5">
<path clip-rule="nonzero" d="M 50.390625 171 L 559.617188 171 L 559.617188 173 L 50.390625 173 Z M 50.390625 171 "/>
</clipPath>
<clipPath id="clip-6">
<path clip-rule="nonzero" d="M 50.390625 123 L 559.617188 123 L 559.617188 125 L 50.390625 125 Z M 50.390625 123 "/>
</clipPath>
<clipPath id="clip-7">
<path clip-rule="nonzero" d="M 50.390625 74 L 559.617188 74 L 559.617188 77 L 50.390625 77 Z M 50.390625 74 "/>
</clipPath>
<clipPath id="clip-8">
<path clip-rule="nonzero" d="M 188 31.507812 L 190 31.507812 L 190 228.917969 L 188 228.917969 Z M 188 31.507812 "/>
</clipPath>
<clipPath id="clip-9">
<path clip-rule="nonzero" d="M 420 31.507812 L 422 31.507812 L 422 228.917969 L 420 228.917969 Z M 420 31.507812 "/>
</clipPath>
</defs>
<rect x="-64.8" y="-27.3" width="777.6" height="327.6" fill="rgb(100%, 100%, 100%)" fill-opacity="1"/>
<rect x="-64.8" y="-27.3" width="777.6" height="327.6" fill="rgb(100%, 100%, 100%)" fill-opacity="1"/>
<g clip-path="url(#clip-0)">
<path fill="none" stroke-width="0.678986" stroke-linecap="butt" stroke-linejoin="round" stroke="rgb(92.156863%, 92.156863%, 92.156863%)" stroke-opacity="1" stroke-miterlimit="10" d="M 50.390625 195.890625 L 559.617188 195.890625 "/>
</g>
<g clip-path="url(#clip-1)">
<path fill="none" stroke-width="0.678986" stroke-linecap="butt" stroke-linejoin="round" stroke="rgb(92.156863%, 92.156863%, 92.156863%)" stroke-opacity="1" stroke-miterlimit="10" d="M 50.390625 147.777344 L 559.617188 147.777344 "/>
</g>
<g clip-path="url(#clip-2)">
<path fill="none" stroke-width="0.678986" stroke-linecap="butt" stroke-linejoin="round" stroke="rgb(92.156863%, 92.156863%, 92.156863%)" stroke-opacity="1" stroke-miterlimit="10" d="M 50.390625 99.664062 L 559.617188 99.664062 "/>
</g>
<g clip-path="url(#clip-3)">
<path fill="none" stroke-width="0.678986" stroke-linecap="butt" stroke-linejoin="round" stroke="rgb(92.156863%, 92.156863%, 92.156863%)" stroke-opacity="1" stroke-miterlimit="10" d="M 50.390625 51.546875 L 559.617188 51.546875 "/>
</g>
<g clip-path="url(#clip-4)">
<path fill="none" stroke-width="1.357972" stroke-linecap="butt" stroke-linejoin="round" stroke="rgb(92.156863%, 92.156863%, 92.156863%)" stroke-opacity="1" stroke-miterlimit="10" d="M 50.390625 219.949219 L 559.617188 219.949219 "/>
</g>
<g clip-path="url(#clip-5)">
<path fill="none" stroke-width="1.357972" stroke-linecap="butt" stroke-linejoin="round" stroke="rgb(92.156863%, 92.156863%, 92.156863%)" stroke-opacity="1" stroke-miterlimit="10" d="M 50.390625 171.832031 L 559.617188 171.832031 "/>
</g>
<g clip-path="url(#clip-6)">
<path fill="none" stroke-width="1.357972" stroke-linecap="butt" stroke-linejoin="round" stroke="rgb(92.156863%, 92.156863%, 92.156863%)" stroke-opacity="1" stroke-miterlimit="10" d="M 50.390625 123.71875 L 559.617188 123.71875 "/>
</g>
<g clip-path="url(#clip-7)">
<path fill="none" stroke-width="1.357972" stroke-linecap="butt" stroke-linejoin="round" stroke="rgb(92.156863%, 92.156863%, 92.156863%)" stroke-opacity="1" stroke-miterlimit="10" d="M 50.390625 75.605469 L 559.617188 75.605469 "/>
</g>
<g clip-path="url(#clip-8)">
<path fill="none" stroke-width="1.357972" stroke-linecap="butt" stroke-linejoin="round" stroke="rgb(92.156863%, 92.156863%, 92.156863%)" stroke-opacity="1" stroke-miterlimit="10" d="M 189.273438 228.921875 L 189.273438 31.507812 "/>
</g>
<g clip-path="url(#clip-9)">
<path fill="none" stroke-width="1.357972" stroke-linecap="butt" stroke-linejoin="round" stroke="rgb(92.156863%, 92.156863%, 92.156863%)" stroke-opacity="1" stroke-miterlimit="10" d="M 420.738281 228.921875 L 420.738281 31.507812 "/>
</g>
<path fill-rule="nonzero" fill="rgb(84.313725%, 18.823529%, 12.156863%)" fill-opacity="1" d="M 351.296875 219.949219 L 490.175781 219.949219 L 490.175781 174.242188 L 351.296875 174.242188 Z M 351.296875 219.949219 "/>
<path fill-rule="nonzero" fill="rgb(84.313725%, 18.823529%, 12.156863%)" fill-opacity="1" d="M 119.832031 219.949219 L 258.710938 219.949219 L 258.710938 217.542969 L 119.832031 217.542969 Z M 119.832031 219.949219 "/>
<path fill-rule="nonzero" fill="rgb(17.254902%, 49.803922%, 72.156863%)" fill-opacity="1" d="M 351.296875 174.238281 L 490.175781 174.238281 L 490.175781 158.84375 L 351.296875 158.84375 Z M 351.296875 174.238281 "/>
<path fill-rule="nonzero" fill="rgb(17.254902%, 49.803922%, 72.156863%)" fill-opacity="1" d="M 119.832031 217.542969 L 258.710938 217.542969 L 258.710938 40.484375 L 119.832031 40.484375 Z M 119.832031 217.542969 "/>
<g fill="rgb(100%, 100%, 100%)" fill-opacity="1">
<use xlink:href="#glyph-0-0" x="408.871094" y="202.683594"/>
<use xlink:href="#glyph-0-1" x="416.783127" y="202.683594"/>
<use xlink:href="#glyph-0-2" x="424.695161" y="202.683594"/>
</g>
<g fill="rgb(100%, 100%, 100%)" fill-opacity="1">
<use xlink:href="#glyph-0-0" x="181.363281" y="224.335938"/>
<use xlink:href="#glyph-0-2" x="189.275315" y="224.335938"/>
</g>
<g fill="rgb(100%, 100%, 100%)" fill-opacity="1">
<use xlink:href="#glyph-0-3" x="412.828125" y="172.132812"/>
<use xlink:href="#glyph-0-4" x="420.740158" y="172.132812"/>
</g>
<g fill="rgb(100%, 100%, 100%)" fill-opacity="1">
<use xlink:href="#glyph-0-5" x="177.40625" y="134.605469"/>
<use xlink:href="#glyph-0-6" x="185.318283" y="134.605469"/>
<use xlink:href="#glyph-0-3" x="193.230317" y="134.605469"/>
</g>
<g fill="rgb(30.196078%, 30.196078%, 30.196078%)" fill-opacity="1">
<use xlink:href="#glyph-1-0" x="37.886719" y="224.457031"/>
</g>
<g fill="rgb(30.196078%, 30.196078%, 30.196078%)" fill-opacity="1">
<use xlink:href="#glyph-1-1" x="25.429688" y="176.34375"/>
<use xlink:href="#glyph-1-0" x="31.658594" y="176.34375"/>
<use xlink:href="#glyph-1-0" x="37.8875" y="176.34375"/>
</g>
<g fill="rgb(30.196078%, 30.196078%, 30.196078%)" fill-opacity="1">
<use xlink:href="#glyph-1-2" x="25.429688" y="128.226562"/>
<use xlink:href="#glyph-1-0" x="31.658594" y="128.226562"/>
<use xlink:href="#glyph-1-0" x="37.8875" y="128.226562"/>
</g>
<g fill="rgb(30.196078%, 30.196078%, 30.196078%)" fill-opacity="1">
<use xlink:href="#glyph-1-3" x="25.429688" y="80.113281"/>
<use xlink:href="#glyph-1-0" x="31.658594" y="80.113281"/>
<use xlink:href="#glyph-1-0" x="37.8875" y="80.113281"/>
</g>
<g fill="rgb(30.196078%, 30.196078%, 30.196078%)" fill-opacity="1">
<use xlink:href="#glyph-1-4" x="186.003906" y="244.214844"/>
</g>
<g fill="rgb(30.196078%, 30.196078%, 30.196078%)" fill-opacity="1">
<use xlink:href="#glyph-1-5" x="417.46875" y="244.214844"/>
</g>
<g fill="rgb(0%, 0%, 0%)" fill-opacity="1">
<use xlink:href="#glyph-2-0" x="252.628906" y="262.078125"/>
<use xlink:href="#glyph-2-1" x="262.691406" y="262.078125"/>
<use xlink:href="#glyph-2-2" x="270.477539" y="262.078125"/>
<use xlink:href="#glyph-2-3" x="278.263672" y="262.078125"/>
<use xlink:href="#glyph-2-4" x="285.844727" y="262.078125"/>
<use xlink:href="#glyph-2-1" x="293.630859" y="262.078125"/>
<use xlink:href="#glyph-2-5" x="301.416992" y="262.078125"/>
<use xlink:href="#glyph-2-6" x="305.306641" y="262.078125"/>
<use xlink:href="#glyph-2-7" x="316.825195" y="262.078125"/>
<use xlink:href="#glyph-2-8" x="319.935547" y="262.078125"/>
<use xlink:href="#glyph-2-9" x="328.104492" y="262.078125"/>
<use xlink:href="#glyph-2-10" x="335.398438" y="262.078125"/>
<use xlink:href="#glyph-2-1" x="341.810547" y="262.078125"/>
<use xlink:href="#glyph-2-2" x="349.59668" y="262.078125"/>
</g>
<g fill="rgb(0%, 0%, 0%)" fill-opacity="1">
<use xlink:href="#glyph-3-0" x="17.996094" y="180.46875"/>
<use xlink:href="#glyph-3-1" x="17.996094" y="172.313477"/>
<use xlink:href="#glyph-3-2" x="17.996094" y="169.203125"/>
<use xlink:href="#glyph-3-3" x="17.996094" y="161.03418"/>
<use xlink:href="#glyph-3-4" x="17.996094" y="153.740234"/>
<use xlink:href="#glyph-3-1" x="17.996094" y="147.615234"/>
<use xlink:href="#glyph-3-5" x="17.996094" y="144.504883"/>
<use xlink:href="#glyph-3-6" x="17.996094" y="137.504883"/>
<use xlink:href="#glyph-3-3" x="17.996094" y="131.092773"/>
<use xlink:href="#glyph-3-7" x="17.996094" y="123.798828"/>
<use xlink:href="#glyph-3-2" x="17.996094" y="119.90918"/>
<use xlink:href="#glyph-3-8" x="17.996094" y="111.740234"/>
<use xlink:href="#glyph-3-5" x="17.996094" y="103.919922"/>
<use xlink:href="#glyph-3-6" x="17.996094" y="96.919922"/>
<use xlink:href="#glyph-3-1" x="17.996094" y="90.507812"/>
<use xlink:href="#glyph-3-9" x="17.996094" y="87.397461"/>
</g>
<path fill-rule="nonzero" fill="rgb(17.254902%, 49.803922%, 72.156863%)" fill-opacity="1" d="M 581.441406 129.3125 L 596.917969 129.3125 L 596.917969 113.835938 L 581.441406 113.835938 Z M 581.441406 129.3125 "/>
<path fill-rule="nonzero" fill="rgb(84.313725%, 18.823529%, 12.156863%)" fill-opacity="1" d="M 581.441406 146.59375 L 596.917969 146.59375 L 596.917969 131.117188 L 581.441406 131.117188 Z M 581.441406 146.59375 "/>
<g fill="rgb(0%, 0%, 0%)" fill-opacity="1">
<use xlink:href="#glyph-1-6" x="604.792969" y="126.082031"/>
<use xlink:href="#glyph-1-7" x="612.88125" y="126.082031"/>
<use xlink:href="#glyph-1-8" x="619.110156" y="126.082031"/>
</g>
<g fill="rgb(0%, 0%, 0%)" fill-opacity="1">
<use xlink:href="#glyph-1-9" x="604.792969" y="143.363281"/>
<use xlink:href="#glyph-1-10" x="612.263281" y="143.363281"/>
<use xlink:href="#glyph-1-7" x="618.492188" y="143.363281"/>
<use xlink:href="#glyph-1-8" x="624.721094" y="143.363281"/>
</g>
<g fill="rgb(0%, 0%, 0%)" fill-opacity="1">
<use xlink:href="#glyph-4-0" x="50.390625" y="20"/>
<use xlink:href="#glyph-4-1" x="62.523047" y="20"/>
<use xlink:href="#glyph-4-2" x="71.866406" y="20"/>
<use xlink:href="#glyph-4-1" x="81.209766" y="20"/>
<use xlink:href="#glyph-4-3" x="90.553125" y="20"/>
<use xlink:href="#glyph-4-4" x="100.355859" y="20"/>
<use xlink:href="#glyph-4-5" x="105.023438" y="20"/>
<use xlink:href="#glyph-4-6" x="114.366797" y="20"/>
<use xlink:href="#glyph-4-6" x="123.710156" y="20"/>
<use xlink:href="#glyph-4-6" x="133.053516" y="20"/>
<use xlink:href="#glyph-4-4" x="142.396875" y="20"/>
<use xlink:href="#glyph-4-7" x="147.064453" y="20"/>
<use xlink:href="#glyph-4-8" x="156.867188" y="20"/>
<use xlink:href="#glyph-4-9" x="166.251563" y="20"/>
<use xlink:href="#glyph-4-10" x="174.651563" y="20"/>
<use xlink:href="#glyph-4-11" x="182.346094" y="20"/>
<use xlink:href="#glyph-4-12" x="186.078516" y="20"/>
<use xlink:href="#glyph-4-13" x="195.003516" y="20"/>
<use xlink:href="#glyph-4-4" x="199.671094" y="20"/>
<use xlink:href="#glyph-4-14" x="204.338672" y="20"/>
<use xlink:href="#glyph-4-15" x="213.682031" y="20"/>
<use xlink:href="#glyph-4-16" x="223.025391" y="20"/>
<use xlink:href="#glyph-4-4" x="232.36875" y="20"/>
<use xlink:href="#glyph-4-17" x="237.036328" y="20"/>
<use xlink:href="#glyph-4-18" x="246.379688" y="20"/>
<use xlink:href="#glyph-4-19" x="256.190625" y="20"/>
<use xlink:href="#glyph-4-20" x="265.533984" y="20"/>
<use xlink:href="#glyph-4-4" x="270.201563" y="20"/>
<use xlink:href="#glyph-4-21" x="274.869141" y="20"/>
<use xlink:href="#glyph-4-4" x="282.571875" y="20"/>
<use xlink:href="#glyph-4-22" x="287.239453" y="20"/>
<use xlink:href="#glyph-4-8" x="296.517188" y="20"/>
<use xlink:href="#glyph-4-23" x="305.901563" y="20"/>
<use xlink:href="#glyph-4-4" x="314.301562" y="20"/>
<use xlink:href="#glyph-4-5" x="318.969141" y="20"/>
<use xlink:href="#glyph-4-24" x="328.3125" y="20"/>
<use xlink:href="#glyph-4-6" x="337.655859" y="20"/>
<use xlink:href="#glyph-4-4" x="346.999219" y="20"/>
<use xlink:href="#glyph-4-25" x="351.666797" y="20"/>
<use xlink:href="#glyph-4-4" x="368.466797" y="20"/>
<use xlink:href="#glyph-4-9" x="373.134375" y="20"/>
<use xlink:href="#glyph-4-26" x="381.534375" y="20"/>
<use xlink:href="#glyph-4-27" x="390.631641" y="20"/>
<use xlink:href="#glyph-4-28" x="399.975" y="20"/>
<use xlink:href="#glyph-4-20" x="411.525" y="20"/>
<use xlink:href="#glyph-4-4" x="416.192578" y="20"/>
<use xlink:href="#glyph-4-29" x="420.860156" y="20"/>
<use xlink:href="#glyph-4-16" x="430.203516" y="20"/>
<use xlink:href="#glyph-4-4" x="439.546875" y="20"/>
<use xlink:href="#glyph-4-25" x="444.214453" y="20"/>
<use xlink:href="#glyph-4-4" x="461.014453" y="20"/>
<use xlink:href="#glyph-4-30" x="465.682031" y="20"/>
<use xlink:href="#glyph-4-31" x="470.349609" y="20"/>
<use xlink:href="#glyph-4-32" x="479.692969" y="20"/>
<use xlink:href="#glyph-4-33" x="483.425391" y="20"/>
<use xlink:href="#glyph-4-34" x="491.825391" y="20"/>
<use xlink:href="#glyph-4-4" x="501.16875" y="20"/>
<use xlink:href="#glyph-4-35" x="505.836328" y="20"/>
<use xlink:href="#glyph-4-36" x="515.179687" y="20"/>
<use xlink:href="#glyph-4-33" x="524.523047" y="20"/>
<use xlink:href="#glyph-4-37" x="532.923047" y="20"/>
<use xlink:href="#glyph-4-38" x="536.655469" y="20"/>
<use xlink:href="#glyph-4-37" x="541.323047" y="20"/>
<use xlink:href="#glyph-4-39" x="545.055469" y="20"/>
<use xlink:href="#glyph-4-34" x="553.455469" y="20"/>
</g>
</svg>
