<?xml version="1.0" encoding="UTF-8"?>
<svg xmlns="http://www.w3.org/2000/svg" xmlns:xlink="http://www.w3.org/1999/xlink" width="648pt" height="273pt" viewBox="0 0 648 273">
<defs>
<g>
<g id="glyph-0-0">
<path d="M 5.75 -2.703125 L 6.980469 -2.542969 C 6.847656 -1.695312 6.503906 -1.03125 5.949219 -0.550781 C 5.394531 -0.0742188 4.714844 0.167969 3.910156 0.167969 C 2.902344 0.167969 2.089844 -0.164062 1.476562 -0.824219 C 0.863281 -1.484375 0.554688 -2.429688 0.554688 -3.660156 C 0.554688 -4.457031 0.6875 -5.152344 0.953125 -5.75 C 1.214844 -6.347656 1.617188 -6.796875 2.15625 -7.097656 C 2.695312 -7.394531 3.285156 -7.542969 3.917969 -7.542969 C 4.71875 -7.542969 5.375 -7.339844 5.882812 -6.9375 C 6.394531 -6.53125 6.71875 -5.957031 6.863281 -5.210938 L 5.648438 -5.023438 C 5.53125 -5.519531 5.328125 -5.890625 5.03125 -6.140625 C 4.738281 -6.390625 4.382812 -6.515625 3.964844 -6.515625 C 3.335938 -6.515625 2.824219 -6.289062 2.429688 -5.839844 C 2.039062 -5.386719 1.839844 -4.671875 1.839844 -3.695312 C 1.839844 -2.703125 2.03125 -1.984375 2.410156 -1.535156 C 2.789062 -1.085938 3.285156 -0.863281 3.898438 -0.863281 C 4.386719 -0.863281 4.796875 -1.011719 5.125 -1.3125 C 5.457031 -1.613281 5.664062 -2.078125 5.75 -2.703125 Z M 5.75 -2.703125 "/>
</g>
<g id="glyph-0-1">
<path d="M 0.9375 -7.378906 L 2.1875 -7.378906 L 2.1875 -1.75 L 5.65625 -7.378906 L 7.003906 -7.378906 L 7.003906 0 L 5.75 0 L 5.75 -5.59375 L 2.285156 0 L 0.9375 0 Z M 0.9375 -7.378906 "/>
</g>
<g id="glyph-0-2">
<path d="M 0.972656 -7.378906 L 2.917969 -7.378906 L 4.855469 -1.472656 L 7.007812 -7.378906 L 8.808594 -7.378906 L 8.808594 0 L 7.558594 0 L 7.558594 -5.9375 L 5.375 0 L 4.257812 0 L 2.195312 -6.222656 L 2.195312 0 L 0.972656 0 Z M 0.972656 -7.378906 "/>
</g>
<g id="glyph-0-3">
<path d="M 0.882812 2.839844 L 0.742188 1.667969 C 1.015625 1.742188 1.253906 1.777344 1.457031 1.777344 C 1.738281 1.777344 1.957031 1.730469 2.125 1.640625 C 2.292969 1.546875 2.429688 1.417969 2.535156 1.25 C 2.613281 1.125 2.742188 0.816406 2.917969 0.320312 C 2.941406 0.25 2.976562 0.148438 3.027344 0.015625 L 0.230469 -7.378906 L 1.578125 -7.378906 L 3.113281 -3.105469 C 3.3125 -2.5625 3.488281 -1.992188 3.648438 -1.394531 C 3.789062 -1.96875 3.960938 -2.53125 4.160156 -3.078125 L 5.738281 -7.378906 L 6.988281 -7.378906 L 4.183594 0.125 C 3.878906 0.933594 3.648438 1.492188 3.480469 1.800781 C 3.257812 2.210938 3.003906 2.511719 2.714844 2.707031 C 2.429688 2.898438 2.085938 2.992188 1.6875 2.992188 C 1.445312 2.992188 1.179688 2.941406 0.882812 2.839844 Z M 0.882812 2.839844 "/>
</g>
<g id="glyph-0-4">
<path d="M 1.550781 -7.378906 L 7.355469 -7.378906 L 7.355469 0 L 6.113281 0 L 6.113281 -6.34375 L 2.800781 -6.34375 L 2.800781 -2.667969 C 2.800781 -1.8125 2.773438 -1.246094 2.714844 -0.972656 C 2.660156 -0.699219 2.507812 -0.460938 2.257812 -0.257812 C 2.007812 -0.0546875 1.644531 0.046875 1.175781 0.046875 C 0.882812 0.046875 0.546875 0.03125 0.167969 -0.0078125 L 0.167969 -1.050781 L 0.714844 -1.050781 C 0.976562 -1.050781 1.160156 -1.074219 1.269531 -1.128906 C 1.382812 -1.183594 1.457031 -1.265625 1.492188 -1.382812 C 1.53125 -1.5 1.550781 -1.875 1.550781 -2.515625 Z M 1.550781 -7.378906 "/>
</g>
<g id="glyph-0-5">
<path d="M 1.292969 0 L 1.292969 -1.425781 L 2.714844 -1.425781 L 2.714844 0 Z M 1.292969 0 "/>
</g>
<g id="glyph-0-6">
</g>
<g id="glyph-0-7">
<path d="M 1.097656 0 L 1.097656 -10.183594 L 4.9375 -10.183594 C 5.613281 -10.183594 6.132812 -10.152344 6.488281 -10.085938 C 6.988281 -10.003906 7.40625 -9.84375 7.746094 -9.609375 C 8.082031 -9.375 8.355469 -9.050781 8.5625 -8.628906 C 8.769531 -8.207031 8.871094 -7.742188 8.871094 -7.238281 C 8.871094 -6.371094 8.59375 -5.640625 8.042969 -5.039062 C 7.492188 -4.441406 6.496094 -4.140625 5.058594 -4.140625 L 2.445312 -4.140625 L 2.445312 0 L 1.097656 0 M 2.445312 -5.34375 L 5.078125 -5.34375 C 5.949219 -5.34375 6.566406 -5.503906 6.933594 -5.828125 C 7.296875 -6.152344 7.480469 -6.609375 7.480469 -7.195312 C 7.480469 -7.621094 7.375 -7.988281 7.160156 -8.289062 C 6.941406 -8.59375 6.660156 -8.792969 6.308594 -8.890625 C 6.082031 -8.953125 5.660156 -8.980469 5.050781 -8.980469 L 2.445312 -8.980469 Z M 2.445312 -5.34375 "/>
</g>
<g id="glyph-0-8">
<path d="M 3.328125 2.992188 C 2.636719 2.125 2.054688 1.105469 1.578125 -0.0625 C 1.101562 -1.230469 0.863281 -2.4375 0.863281 -3.6875 C 0.863281 -4.789062 1.039062 -5.847656 1.394531 -6.855469 C 1.8125 -8.027344 2.457031 -9.195312 3.328125 -10.355469 L 4.222656 -10.355469 C 3.664062 -9.394531 3.292969 -8.707031 3.113281 -8.292969 C 2.828125 -7.65625 2.605469 -6.988281 2.445312 -6.292969 C 2.246094 -5.425781 2.144531 -4.558594 2.144531 -3.679688 C 2.144531 -1.453125 2.839844 0.769531 4.222656 2.992188 Z M 3.328125 2.992188 "/>
</g>
<g id="glyph-0-9">
<path d="M 0.640625 -3.273438 L 1.910156 -3.382812 C 1.96875 -2.875 2.109375 -2.457031 2.332031 -2.128906 C 2.550781 -1.800781 2.890625 -1.539062 3.355469 -1.335938 C 3.816406 -1.136719 4.339844 -1.035156 4.917969 -1.035156 C 5.433594 -1.035156 5.886719 -1.113281 6.28125 -1.265625 C 6.671875 -1.417969 6.964844 -1.625 7.160156 -1.894531 C 7.351562 -2.160156 7.445312 -2.449219 7.445312 -2.765625 C 7.445312 -3.085938 7.355469 -3.363281 7.167969 -3.601562 C 6.984375 -3.839844 6.679688 -4.039062 6.25 -4.203125 C 5.980469 -4.308594 5.375 -4.476562 4.4375 -4.699219 C 3.503906 -4.925781 2.847656 -5.136719 2.472656 -5.335938 C 1.988281 -5.589844 1.625 -5.90625 1.386719 -6.28125 C 1.148438 -6.660156 1.027344 -7.082031 1.027344 -7.550781 C 1.027344 -8.066406 1.175781 -8.546875 1.464844 -8.992188 C 1.757812 -9.4375 2.183594 -9.777344 2.742188 -10.011719 C 3.304688 -10.242188 3.925781 -10.355469 4.613281 -10.355469 C 5.367188 -10.355469 6.03125 -10.234375 6.609375 -9.992188 C 7.1875 -9.75 7.628906 -9.390625 7.941406 -8.917969 C 8.25 -8.445312 8.417969 -7.910156 8.441406 -7.316406 L 7.148438 -7.21875 C 7.078125 -7.859375 6.84375 -8.347656 6.441406 -8.675781 C 6.042969 -9.003906 5.449219 -9.167969 4.667969 -9.167969 C 3.851562 -9.167969 3.257812 -9.019531 2.886719 -8.722656 C 2.511719 -8.421875 2.328125 -8.0625 2.328125 -7.640625 C 2.328125 -7.273438 2.460938 -6.972656 2.722656 -6.738281 C 2.980469 -6.5 3.660156 -6.261719 4.753906 -6.011719 C 5.851562 -5.765625 6.601562 -5.546875 7.007812 -5.363281 C 7.601562 -5.089844 8.039062 -4.742188 8.320312 -4.324219 C 8.605469 -3.90625 8.746094 -3.421875 8.746094 -2.875 C 8.746094 -2.335938 8.589844 -1.824219 8.28125 -1.34375 C 7.96875 -0.863281 7.523438 -0.492188 6.941406 -0.226562 C 6.363281 0.0390625 5.707031 0.171875 4.980469 0.171875 C 4.058594 0.171875 3.285156 0.0390625 2.664062 -0.230469 C 2.042969 -0.496094 1.550781 -0.902344 1.199219 -1.441406 C 0.84375 -1.980469 0.65625 -2.589844 0.640625 -3.273438 Z M 0.640625 -3.273438 "/>
</g>
<g id="glyph-0-10">
<path d="M 7.523438 -4.453125 L 0.777344 -1.570312 L 0.777344 -2.8125 L 6.121094 -5.027344 L 0.777344 -7.222656 L 0.777344 -8.46875 L 7.523438 -5.621094 Z M 7.523438 -4.453125 "/>
</g>
<g id="glyph-0-11">
<path d="M 0.589844 -5.023438 C 0.589844 -6.226562 0.714844 -7.195312 0.960938 -7.929688 C 1.210938 -8.664062 1.578125 -9.230469 2.066406 -9.628906 C 2.554688 -10.027344 3.167969 -10.226562 3.910156 -10.226562 C 4.457031 -10.226562 4.9375 -10.113281 5.347656 -9.894531 C 5.761719 -9.675781 6.101562 -9.359375 6.371094 -8.945312 C 6.636719 -8.527344 6.847656 -8.023438 7.003906 -7.429688 C 7.15625 -6.835938 7.230469 -6.03125 7.230469 -5.023438 C 7.230469 -3.828125 7.109375 -2.863281 6.863281 -2.128906 C 6.617188 -1.394531 6.25 -0.828125 5.761719 -0.425781 C 5.273438 -0.0273438 4.65625 0.171875 3.910156 0.171875 C 2.929688 0.171875 2.15625 -0.179688 1.597656 -0.882812 C 0.925781 -1.730469 0.589844 -3.109375 0.589844 -5.023438 M 1.875 -5.023438 C 1.875 -3.351562 2.070312 -2.238281 2.460938 -1.683594 C 2.855469 -1.132812 3.335938 -0.855469 3.910156 -0.855469 C 4.484375 -0.855469 4.96875 -1.132812 5.359375 -1.6875 C 5.75 -2.242188 5.945312 -3.355469 5.945312 -5.023438 C 5.945312 -6.699219 5.75 -7.8125 5.359375 -8.363281 C 4.96875 -8.914062 4.480469 -9.191406 3.898438 -9.191406 C 3.324219 -9.191406 2.863281 -8.945312 2.523438 -8.460938 C 2.089844 -7.839844 1.875 -6.695312 1.875 -5.023438 Z M 1.875 -5.023438 "/>
</g>
<g id="glyph-0-12">
<path d="M 1.757812 2.992188 L 0.863281 2.992188 C 2.246094 0.769531 2.9375 -1.453125 2.9375 -3.679688 C 2.9375 -4.550781 2.839844 -5.414062 2.640625 -6.273438 C 2.480469 -6.96875 2.261719 -7.632812 1.980469 -8.273438 C 1.800781 -8.691406 1.425781 -9.382812 0.863281 -10.355469 L 1.757812 -10.355469 C 2.628906 -9.195312 3.273438 -8.027344 3.6875 -6.855469 C 4.046875 -5.847656 4.222656 -4.789062 4.222656 -3.6875 C 4.222656 -2.4375 3.984375 -1.230469 3.503906 -0.0625 C 3.023438 1.105469 2.441406 2.125 1.757812 2.992188 Z M 1.757812 2.992188 "/>
</g>
<g id="glyph-0-13">
<path d="M 7.515625 -5.988281 L 0.792969 -5.988281 L 0.792969 -7.15625 L 7.515625 -7.15625 L 7.515625 -5.988281 M 7.515625 -2.898438 L 0.792969 -2.898438 L 0.792969 -4.0625 L 7.515625 -4.0625 Z M 7.515625 -2.898438 "/>
</g>
<g id="glyph-0-14">
<path d="M 5.300781 0 L 4.050781 0 L 4.050781 -7.96875 C 3.75 -7.679688 3.355469 -7.394531 2.867188 -7.105469 C 2.375 -6.820312 1.9375 -6.605469 1.550781 -6.460938 L 1.550781 -7.667969 C 2.25 -7.996094 2.859375 -8.394531 3.382812 -8.863281 C 3.90625 -9.332031 4.277344 -9.785156 4.496094 -10.226562 L 5.300781 -10.226562 Z M 5.300781 0 "/>
</g>
<g id="glyph-0-15">
<path d="M 0.597656 -2.6875 L 1.847656 -2.855469 C 1.992188 -2.144531 2.234375 -1.636719 2.582031 -1.324219 C 2.925781 -1.011719 3.347656 -0.855469 3.839844 -0.855469 C 4.429688 -0.855469 4.925781 -1.058594 5.332031 -1.464844 C 5.738281 -1.875 5.9375 -2.378906 5.9375 -2.980469 C 5.9375 -3.554688 5.75 -4.027344 5.375 -4.402344 C 5 -4.773438 4.523438 -4.960938 3.945312 -4.960938 C 3.710938 -4.960938 3.414062 -4.914062 3.0625 -4.820312 L 3.203125 -5.917969 C 3.285156 -5.910156 3.351562 -5.90625 3.402344 -5.90625 C 3.9375 -5.90625 4.414062 -6.042969 4.839844 -6.320312 C 5.269531 -6.597656 5.480469 -7.027344 5.480469 -7.605469 C 5.480469 -8.066406 5.324219 -8.445312 5.015625 -8.746094 C 4.703125 -9.046875 4.304688 -9.195312 3.8125 -9.195312 C 3.328125 -9.195312 2.921875 -9.042969 2.597656 -8.738281 C 2.273438 -8.433594 2.066406 -7.972656 1.972656 -7.363281 L 0.722656 -7.585938 C 0.875 -8.421875 1.222656 -9.074219 1.765625 -9.535156 C 2.304688 -9.996094 2.980469 -10.226562 3.785156 -10.226562 C 4.339844 -10.226562 4.851562 -10.105469 5.320312 -9.867188 C 5.789062 -9.628906 6.144531 -9.304688 6.394531 -8.890625 C 6.640625 -8.480469 6.765625 -8.042969 6.765625 -7.578125 C 6.765625 -7.136719 6.648438 -6.738281 6.410156 -6.375 C 6.175781 -6.015625 5.824219 -5.730469 5.363281 -5.515625 C 5.964844 -5.375 6.433594 -5.089844 6.765625 -4.652344 C 7.097656 -4.214844 7.265625 -3.664062 7.265625 -3.007812 C 7.265625 -2.117188 6.941406 -1.363281 6.292969 -0.746094 C 5.644531 -0.128906 4.824219 0.179688 3.835938 0.179688 C 2.941406 0.179688 2.199219 -0.0859375 1.609375 -0.617188 C 1.019531 -1.152344 0.679688 -1.839844 0.597656 -2.6875 Z M 0.597656 -2.6875 "/>
</g>
<g id="glyph-0-16">
<path d="M 0.589844 -2.667969 L 1.902344 -2.777344 C 2 -2.140625 2.226562 -1.660156 2.582031 -1.335938 C 2.933594 -1.015625 3.363281 -0.855469 3.863281 -0.855469 C 4.464844 -0.855469 4.972656 -1.082031 5.390625 -1.535156 C 5.808594 -1.988281 6.015625 -2.589844 6.015625 -3.339844 C 6.015625 -4.054688 5.816406 -4.617188 5.414062 -5.027344 C 5.015625 -5.441406 4.488281 -5.648438 3.839844 -5.648438 C 3.4375 -5.648438 3.074219 -5.554688 2.75 -5.375 C 2.425781 -5.191406 2.171875 -4.953125 1.988281 -4.660156 L 0.8125 -4.8125 L 1.800781 -10.042969 L 6.863281 -10.042969 L 6.863281 -8.851562 L 2.800781 -8.851562 L 2.25 -6.113281 C 2.863281 -6.539062 3.503906 -6.753906 4.175781 -6.753906 C 5.0625 -6.753906 5.8125 -6.445312 6.425781 -5.828125 C 7.035156 -5.210938 7.34375 -4.421875 7.34375 -3.453125 C 7.34375 -2.53125 7.074219 -1.734375 6.535156 -1.0625 C 5.882812 -0.238281 4.992188 0.171875 3.863281 0.171875 C 2.9375 0.171875 2.179688 -0.0859375 1.59375 -0.605469 C 1.007812 -1.121094 0.671875 -1.8125 0.589844 -2.667969 Z M 0.589844 -2.667969 "/>
</g>
<g id="glyph-0-17">
<path d="M 0.828125 -7.738281 C 0.828125 -8.464844 1.007812 -9.082031 1.375 -9.59375 C 1.742188 -10.101562 2.273438 -10.355469 2.964844 -10.355469 C 3.605469 -10.355469 4.132812 -10.128906 4.554688 -9.671875 C 4.972656 -9.21875 5.183594 -8.546875 5.183594 -7.660156 C 5.183594 -6.800781 4.96875 -6.136719 4.546875 -5.671875 C 4.121094 -5.207031 3.601562 -4.972656 2.980469 -4.972656 C 2.363281 -4.972656 1.851562 -5.203125 1.441406 -5.660156 C 1.03125 -6.121094 0.828125 -6.8125 0.828125 -7.738281 M 3 -9.496094 C 2.691406 -9.496094 2.433594 -9.363281 2.226562 -9.09375 C 2.019531 -8.824219 1.917969 -8.332031 1.917969 -7.613281 C 1.917969 -6.960938 2.019531 -6.5 2.230469 -6.234375 C 2.4375 -5.96875 2.695312 -5.835938 3 -5.835938 C 3.316406 -5.835938 3.578125 -5.96875 3.78125 -6.238281 C 3.988281 -6.507812 4.089844 -6.996094 4.089844 -7.710938 C 4.089844 -8.367188 3.988281 -8.832031 3.777344 -9.097656 C 3.570312 -9.363281 3.3125 -9.496094 3 -9.496094 M 3.007812 0.375 L 8.578125 -10.355469 L 9.59375 -10.355469 L 4.042969 0.375 L 3.007812 0.375 M 7.410156 -2.390625 C 7.410156 -3.121094 7.59375 -3.742188 7.960938 -4.246094 C 8.328125 -4.753906 8.859375 -5.007812 9.558594 -5.007812 C 10.199219 -5.007812 10.726562 -4.78125 11.144531 -4.324219 C 11.566406 -3.867188 11.773438 -3.199219 11.773438 -2.3125 C 11.773438 -1.453125 11.5625 -0.789062 11.136719 -0.324219 C 10.714844 0.140625 10.191406 0.375 9.566406 0.375 C 8.949219 0.375 8.4375 0.144531 8.027344 -0.316406 C 7.617188 -0.777344 7.410156 -1.46875 7.410156 -2.390625 M 9.59375 -4.148438 C 9.277344 -4.148438 9.019531 -4.011719 8.8125 -3.746094 C 8.605469 -3.476562 8.503906 -2.980469 8.503906 -2.265625 C 8.503906 -1.617188 8.605469 -1.15625 8.816406 -0.890625 C 9.023438 -0.621094 9.28125 -0.484375 9.585938 -0.484375 C 9.90625 -0.484375 10.167969 -0.621094 10.375 -0.890625 C 10.582031 -1.15625 10.683594 -1.648438 10.683594 -2.363281 C 10.683594 -3.019531 10.578125 -3.480469 10.371094 -3.746094 C 10.164062 -4.015625 9.902344 -4.148438 9.59375 -4.148438 Z M 9.59375 -4.148438 "/>
</g>
<g id="glyph-1-0">
<path d="M 0.464844 -3.953125 C 0.464844 -4.902344 0.5625 -5.664062 0.757812 -6.242188 C 0.953125 -6.820312 1.242188 -7.265625 1.628906 -7.578125 C 2.011719 -7.894531 2.496094 -8.050781 3.078125 -8.050781 C 3.507812 -8.050781 3.886719 -7.964844 4.210938 -7.789062 C 4.535156 -7.617188 4.804688 -7.367188 5.015625 -7.042969 C 5.226562 -6.714844 5.390625 -6.316406 5.511719 -5.847656 C 5.632812 -5.378906 5.691406 -4.75 5.691406 -3.953125 C 5.691406 -3.011719 5.597656 -2.253906 5.402344 -1.675781 C 5.210938 -1.097656 4.921875 -0.652344 4.535156 -0.335938 C 4.152344 -0.0195312 3.664062 0.136719 3.078125 0.136719 C 2.304688 0.136719 1.699219 -0.140625 1.257812 -0.695312 C 0.730469 -1.363281 0.464844 -2.449219 0.464844 -3.953125 M 1.476562 -3.953125 C 1.476562 -2.636719 1.628906 -1.761719 1.9375 -1.328125 C 2.246094 -0.890625 2.625 -0.671875 3.078125 -0.671875 C 3.53125 -0.671875 3.910156 -0.890625 4.21875 -1.328125 C 4.527344 -1.765625 4.679688 -2.640625 4.679688 -3.953125 C 4.679688 -5.273438 4.527344 -6.152344 4.21875 -6.585938 C 3.910156 -7.019531 3.527344 -7.234375 3.066406 -7.234375 C 2.617188 -7.234375 2.253906 -7.042969 1.984375 -6.660156 C 1.644531 -6.171875 1.476562 -5.269531 1.476562 -3.953125 Z M 1.476562 -3.953125 "/>
</g>
<g id="glyph-1-1">
<path d="M 4.714844 -1.871094 L 5.730469 -1.746094 C 5.570312 -1.148438 5.273438 -0.6875 4.839844 -0.359375 C 4.40625 -0.03125 3.851562 0.132812 3.175781 0.132812 C 2.328125 0.132812 1.65625 -0.128906 1.15625 -0.652344 C 0.660156 -1.175781 0.410156 -1.910156 0.410156 -2.855469 C 0.410156 -3.832031 0.660156 -4.589844 1.164062 -5.128906 C 1.667969 -5.667969 2.320312 -5.9375 3.121094 -5.9375 C 3.898438 -5.9375 4.535156 -5.675781 5.027344 -5.144531 C 5.519531 -4.617188 5.765625 -3.875 5.765625 -2.914062 C 5.765625 -2.855469 5.761719 -2.769531 5.757812 -2.652344 L 1.425781 -2.652344 C 1.464844 -2.015625 1.644531 -1.527344 1.96875 -1.1875 C 2.292969 -0.847656 2.699219 -0.679688 3.183594 -0.679688 C 3.542969 -0.679688 3.851562 -0.773438 4.105469 -0.960938 C 4.363281 -1.152344 4.566406 -1.453125 4.714844 -1.871094 M 1.480469 -3.460938 L 4.726562 -3.460938 C 4.679688 -3.949219 4.558594 -4.316406 4.351562 -4.5625 C 4.039062 -4.941406 3.632812 -5.128906 3.132812 -5.128906 C 2.679688 -5.128906 2.300781 -4.976562 1.992188 -4.675781 C 1.683594 -4.375 1.515625 -3.96875 1.480469 -3.460938 Z M 1.480469 -3.460938 "/>
</g>
<g id="glyph-1-2">
<path d="M 2.804688 -1.296875 L 2.804688 -3.496094 L 0.625 -3.496094 L 0.625 -4.414062 L 2.804688 -4.414062 L 2.804688 -6.59375 L 3.734375 -6.59375 L 3.734375 -4.414062 L 5.917969 -4.414062 L 5.917969 -3.496094 L 3.734375 -3.496094 L 3.734375 -1.296875 Z M 2.804688 -1.296875 "/>
</g>
<g id="glyph-1-3">
<path d="M 4.171875 0 L 3.1875 0 L 3.1875 -6.273438 C 2.953125 -6.046875 2.640625 -5.820312 2.257812 -5.59375 C 1.871094 -5.367188 1.527344 -5.199219 1.21875 -5.085938 L 1.21875 -6.039062 C 1.769531 -6.296875 2.25 -6.609375 2.664062 -6.976562 C 3.074219 -7.347656 3.367188 -7.703125 3.539062 -8.050781 L 4.171875 -8.050781 Z M 4.171875 0 "/>
</g>
<g id="glyph-1-4">
<path d="M 0.355469 -2.40625 L 0.355469 -3.394531 L 3.378906 -3.394531 L 3.378906 -2.40625 Z M 0.355469 -2.40625 "/>
</g>
<g id="glyph-1-5">
<path d="M 3.621094 0 L 3.621094 -1.917969 L 0.140625 -1.917969 L 0.140625 -2.820312 L 3.800781 -8.015625 L 4.605469 -8.015625 L 4.605469 -2.820312 L 5.6875 -2.820312 L 5.6875 -1.917969 L 4.605469 -1.917969 L 4.605469 0 L 3.621094 0 M 3.621094 -2.820312 L 3.621094 -6.4375 L 1.109375 -2.820312 Z M 3.621094 -2.820312 "/>
</g>
<g id="glyph-1-6">
<path d="M 5.636719 -0.945312 L 5.636719 0 L 0.339844 0 C 0.332031 -0.238281 0.371094 -0.464844 0.453125 -0.683594 C 0.589844 -1.042969 0.804688 -1.398438 1.101562 -1.75 C 1.398438 -2.101562 1.828125 -2.503906 2.390625 -2.964844 C 3.261719 -3.679688 3.851562 -4.246094 4.15625 -4.664062 C 4.460938 -5.078125 4.617188 -5.472656 4.617188 -5.847656 C 4.617188 -6.234375 4.476562 -6.566406 4.195312 -6.832031 C 3.917969 -7.101562 3.554688 -7.234375 3.105469 -7.234375 C 2.632812 -7.234375 2.253906 -7.09375 1.96875 -6.808594 C 1.683594 -6.523438 1.539062 -6.128906 1.535156 -5.628906 L 0.523438 -5.730469 C 0.59375 -6.484375 0.855469 -7.0625 1.308594 -7.457031 C 1.757812 -7.851562 2.367188 -8.050781 3.128906 -8.050781 C 3.898438 -8.050781 4.507812 -7.835938 4.953125 -7.410156 C 5.402344 -6.984375 5.628906 -6.453125 5.628906 -5.824219 C 5.628906 -5.503906 5.5625 -5.1875 5.429688 -4.878906 C 5.300781 -4.566406 5.082031 -4.242188 4.777344 -3.898438 C 4.472656 -3.554688 3.964844 -3.085938 3.257812 -2.488281 C 2.667969 -1.992188 2.289062 -1.65625 2.121094 -1.480469 C 1.953125 -1.300781 1.816406 -1.125 1.707031 -0.945312 Z M 5.636719 -0.945312 "/>
</g>
<g id="glyph-1-7">
<path d="M 0.46875 -2.117188 L 1.453125 -2.246094 C 1.566406 -1.691406 1.761719 -1.289062 2.03125 -1.042969 C 2.304688 -0.796875 2.632812 -0.671875 3.023438 -0.671875 C 3.488281 -0.671875 3.878906 -0.832031 4.195312 -1.152344 C 4.515625 -1.476562 4.675781 -1.871094 4.675781 -2.347656 C 4.675781 -2.796875 4.527344 -3.171875 4.234375 -3.464844 C 3.9375 -3.757812 3.5625 -3.90625 3.105469 -3.90625 C 2.921875 -3.90625 2.6875 -3.867188 2.410156 -3.796875 L 2.519531 -4.660156 C 2.585938 -4.652344 2.640625 -4.648438 2.679688 -4.648438 C 3.097656 -4.648438 3.476562 -4.757812 3.8125 -4.976562 C 4.148438 -5.195312 4.316406 -5.53125 4.316406 -5.988281 C 4.316406 -6.347656 4.191406 -6.648438 3.949219 -6.886719 C 3.703125 -7.121094 3.390625 -7.242188 3.003906 -7.242188 C 2.621094 -7.242188 2.300781 -7.121094 2.046875 -6.878906 C 1.789062 -6.640625 1.625 -6.277344 1.554688 -5.796875 L 0.570312 -5.972656 C 0.6875 -6.632812 0.960938 -7.144531 1.390625 -7.507812 C 1.816406 -7.867188 2.347656 -8.050781 2.980469 -8.050781 C 3.417969 -8.050781 3.820312 -7.957031 4.1875 -7.769531 C 4.558594 -7.582031 4.839844 -7.324219 5.035156 -7 C 5.230469 -6.675781 5.328125 -6.332031 5.328125 -5.964844 C 5.328125 -5.621094 5.234375 -5.304688 5.046875 -5.019531 C 4.863281 -4.734375 4.585938 -4.511719 4.222656 -4.34375 C 4.695312 -4.234375 5.0625 -4.007812 5.328125 -3.660156 C 5.589844 -3.316406 5.71875 -2.886719 5.71875 -2.367188 C 5.71875 -1.667969 5.464844 -1.074219 4.953125 -0.589844 C 4.445312 -0.101562 3.800781 0.140625 3.019531 0.140625 C 2.316406 0.140625 1.730469 -0.0664062 1.265625 -0.488281 C 0.800781 -0.90625 0.535156 -1.449219 0.46875 -2.117188 Z M 0.46875 -2.117188 "/>
</g>
<g id="glyph-1-8">
<path d="M 0.464844 -2.101562 L 1.5 -2.1875 C 1.574219 -1.683594 1.753906 -1.304688 2.03125 -1.054688 C 2.3125 -0.800781 2.648438 -0.671875 3.039062 -0.671875 C 3.515625 -0.671875 3.914062 -0.851562 4.242188 -1.207031 C 4.570312 -1.566406 4.734375 -2.039062 4.734375 -2.628906 C 4.734375 -3.191406 4.578125 -3.636719 4.261719 -3.960938 C 3.949219 -4.285156 3.535156 -4.445312 3.023438 -4.445312 C 2.707031 -4.445312 2.421875 -4.375 2.164062 -4.230469 C 1.910156 -4.085938 1.710938 -3.898438 1.5625 -3.667969 L 0.640625 -3.789062 L 1.417969 -7.90625 L 5.402344 -7.90625 L 5.402344 -6.96875 L 2.203125 -6.96875 L 1.773438 -4.8125 C 2.253906 -5.148438 2.757812 -5.316406 3.285156 -5.316406 C 3.988281 -5.316406 4.578125 -5.074219 5.058594 -4.589844 C 5.539062 -4.101562 5.78125 -3.480469 5.78125 -2.71875 C 5.78125 -1.992188 5.570312 -1.367188 5.144531 -0.835938 C 4.632812 -0.1875 3.929688 0.136719 3.039062 0.136719 C 2.3125 0.136719 1.714844 -0.0664062 1.253906 -0.476562 C 0.792969 -0.882812 0.53125 -1.425781 0.464844 -2.101562 Z M 0.464844 -2.101562 "/>
</g>
<g id="glyph-2-0">
<path d="M 8.230469 -3.515625 L 9.554688 -3.179688 C 9.277344 -2.089844 8.777344 -1.257812 8.054688 -0.6875 C 7.332031 -0.113281 6.449219 0.171875 5.40625 0.171875 C 4.328125 0.171875 3.449219 -0.0507812 2.773438 -0.488281 C 2.09375 -0.929688 1.582031 -1.566406 1.226562 -2.398438 C 0.875 -3.234375 0.695312 -4.128906 0.695312 -5.085938 C 0.695312 -6.128906 0.898438 -7.039062 1.296875 -7.816406 C 1.695312 -8.59375 2.261719 -9.183594 2.996094 -9.585938 C 3.734375 -9.992188 4.542969 -10.191406 5.429688 -10.191406 C 6.429688 -10.191406 7.273438 -9.9375 7.957031 -9.425781 C 8.640625 -8.917969 9.117188 -8.199219 9.386719 -7.273438 L 8.078125 -6.964844 C 7.847656 -7.695312 7.511719 -8.226562 7.070312 -8.558594 C 6.625 -8.890625 6.070312 -9.058594 5.398438 -9.058594 C 4.628906 -9.058594 3.988281 -8.875 3.46875 -8.503906 C 2.953125 -8.132812 2.589844 -7.640625 2.378906 -7.015625 C 2.167969 -6.394531 2.0625 -5.753906 2.0625 -5.09375 C 2.0625 -4.242188 2.1875 -3.496094 2.4375 -2.859375 C 2.683594 -2.226562 3.070312 -1.75 3.59375 -1.4375 C 4.121094 -1.121094 4.6875 -0.964844 5.296875 -0.964844 C 6.039062 -0.964844 6.667969 -1.179688 7.183594 -1.605469 C 7.699219 -2.035156 8.046875 -2.671875 8.230469 -3.515625 Z M 8.230469 -3.515625 "/>
</g>
<g id="glyph-2-1">
<path d="M 0.867188 2.796875 L 0.730469 1.640625 C 1 1.714844 1.234375 1.75 1.4375 1.75 C 1.707031 1.75 1.929688 1.703125 2.09375 1.613281 C 2.257812 1.523438 2.390625 1.394531 2.496094 1.230469 C 2.574219 1.109375 2.699219 0.800781 2.871094 0.3125 C 2.894531 0.246094 2.929688 0.144531 2.980469 0.015625 L 0.226562 -7.257812 L 1.550781 -7.257812 L 3.0625 -3.054688 C 3.257812 -2.523438 3.433594 -1.960938 3.589844 -1.375 C 3.730469 -1.9375 3.898438 -2.492188 4.09375 -3.027344 L 5.648438 -7.257812 L 6.875 -7.257812 L 4.117188 0.125 C 3.820312 0.921875 3.589844 1.46875 3.425781 1.769531 C 3.207031 2.175781 2.957031 2.472656 2.671875 2.664062 C 2.390625 2.851562 2.054688 2.945312 1.660156 2.945312 C 1.425781 2.945312 1.160156 2.894531 0.867188 2.796875 Z M 0.867188 2.796875 "/>
</g>
<g id="glyph-2-2">
<path d="M 0.957031 -7.257812 L 2.871094 -7.257812 L 4.777344 -1.449219 L 6.898438 -7.257812 L 8.667969 -7.257812 L 8.667969 0 L 7.4375 0 L 7.4375 -5.84375 L 5.289062 0 L 4.191406 0 L 2.160156 -6.125 L 2.160156 0 L 0.957031 0 Z M 0.957031 -7.257812 "/>
</g>
<g id="glyph-2-3">
<path d="M 5.660156 -0.894531 C 5.203125 -0.507812 4.765625 -0.234375 4.34375 -0.0742188 C 3.921875 0.0859375 3.46875 0.164062 2.988281 0.164062 C 2.191406 0.164062 1.578125 -0.03125 1.148438 -0.421875 C 0.71875 -0.808594 0.507812 -1.308594 0.507812 -1.914062 C 0.507812 -2.269531 0.585938 -2.59375 0.75 -2.886719 C 0.910156 -3.183594 1.121094 -3.417969 1.382812 -3.59375 C 1.644531 -3.773438 1.941406 -3.90625 2.269531 -4 C 2.511719 -4.0625 2.875 -4.125 3.363281 -4.183594 C 4.355469 -4.300781 5.089844 -4.445312 5.558594 -4.609375 C 5.5625 -4.777344 5.5625 -4.882812 5.5625 -4.929688 C 5.5625 -5.429688 5.449219 -5.78125 5.214844 -5.988281 C 4.902344 -6.265625 4.433594 -6.40625 3.8125 -6.40625 C 3.234375 -6.40625 2.808594 -6.304688 2.53125 -6.101562 C 2.257812 -5.898438 2.054688 -5.539062 1.921875 -5.023438 L 0.71875 -5.1875 C 0.828125 -5.703125 1.007812 -6.121094 1.257812 -6.4375 C 1.507812 -6.753906 1.871094 -6.996094 2.34375 -7.167969 C 2.820312 -7.339844 3.367188 -7.421875 3.992188 -7.421875 C 4.613281 -7.421875 5.117188 -7.351562 5.503906 -7.203125 C 5.890625 -7.058594 6.175781 -6.875 6.359375 -6.65625 C 6.539062 -6.433594 6.667969 -6.15625 6.742188 -5.816406 C 6.78125 -5.609375 6.800781 -5.230469 6.800781 -4.683594 L 6.800781 -3.042969 C 6.800781 -1.898438 6.828125 -1.175781 6.878906 -0.871094 C 6.933594 -0.570312 7.035156 -0.277344 7.191406 0 L 5.90625 0 C 5.777344 -0.253906 5.695312 -0.554688 5.660156 -0.894531 M 5.558594 -3.644531 C 5.109375 -3.460938 4.441406 -3.304688 3.546875 -3.179688 C 3.042969 -3.105469 2.683594 -3.023438 2.476562 -2.933594 C 2.265625 -2.839844 2.101562 -2.707031 1.988281 -2.53125 C 1.875 -2.355469 1.820312 -2.164062 1.820312 -1.949219 C 1.820312 -1.621094 1.941406 -1.347656 2.191406 -1.128906 C 2.4375 -0.910156 2.804688 -0.800781 3.28125 -0.800781 C 3.753906 -0.800781 4.175781 -0.902344 4.546875 -1.109375 C 4.914062 -1.316406 5.1875 -1.601562 5.359375 -1.960938 C 5.492188 -2.238281 5.558594 -2.648438 5.558594 -3.191406 Z M 5.558594 -3.644531 "/>
</g>
<g id="glyph-2-4">
<path d="M 0.921875 2.78125 L 0.921875 -7.257812 L 2.042969 -7.257812 L 2.042969 -6.316406 C 2.308594 -6.683594 2.605469 -6.960938 2.9375 -7.148438 C 3.273438 -7.332031 3.675781 -7.421875 4.148438 -7.421875 C 4.769531 -7.421875 5.316406 -7.265625 5.789062 -6.945312 C 6.265625 -6.625 6.621094 -6.175781 6.863281 -5.59375 C 7.105469 -5.015625 7.226562 -4.378906 7.226562 -3.683594 C 7.226562 -2.941406 7.09375 -2.273438 6.824219 -1.679688 C 6.558594 -1.082031 6.171875 -0.628906 5.664062 -0.3125 C 5.15625 0.00390625 4.621094 0.164062 4.0625 0.164062 C 3.648438 0.164062 3.28125 0.078125 2.957031 -0.09375 C 2.628906 -0.269531 2.363281 -0.488281 2.152344 -0.75 L 2.152344 2.78125 L 0.921875 2.78125 M 2.039062 -3.589844 C 2.039062 -2.65625 2.226562 -1.964844 2.605469 -1.515625 C 2.984375 -1.070312 3.441406 -0.847656 3.976562 -0.847656 C 4.523438 -0.847656 4.992188 -1.078125 5.382812 -1.542969 C 5.773438 -2.003906 5.96875 -2.71875 5.96875 -3.691406 C 5.96875 -4.617188 5.777344 -5.308594 5.398438 -5.769531 C 5.015625 -6.230469 4.5625 -6.460938 4.03125 -6.460938 C 3.507812 -6.460938 3.046875 -6.214844 2.640625 -5.726562 C 2.238281 -5.234375 2.039062 -4.523438 2.039062 -3.589844 Z M 2.039062 -3.589844 "/>
</g>
<g id="glyph-2-5">
<path d="M 0.929688 -7.257812 L 2.160156 -7.257812 L 2.160156 -4.238281 L 5.570312 -4.238281 L 5.570312 -7.257812 L 6.800781 -7.257812 L 6.800781 0 L 5.570312 0 L 5.570312 -3.21875 L 2.160156 -3.21875 L 2.160156 0 L 0.929688 0 Z M 0.929688 -7.257812 "/>
</g>
<g id="glyph-2-6">
<path d="M 0.921875 -7.257812 L 2.152344 -7.257812 L 2.152344 -1.722656 L 5.5625 -7.257812 L 6.890625 -7.257812 L 6.890625 0 L 5.660156 0 L 5.660156 -5.503906 L 2.25 0 L 0.921875 0 Z M 0.921875 -7.257812 "/>
</g>
<g id="glyph-2-7">
<path d="M 0.921875 -7.257812 L 2.152344 -7.257812 L 2.152344 -1.722656 L 5.5625 -7.257812 L 6.890625 -7.257812 L 6.890625 0 L 5.660156 0 L 5.660156 -5.503906 L 2.25 0 L 0.921875 0 L 0.921875 -7.257812 M 5.195312 -10.007812 L 6.035156 -10.007812 C 5.96875 -9.4375 5.757812 -9 5.410156 -8.695312 C 5.0625 -8.390625 4.597656 -8.238281 4.019531 -8.238281 C 3.4375 -8.238281 2.96875 -8.390625 2.621094 -8.691406 C 2.273438 -8.996094 2.0625 -9.433594 1.996094 -10.007812 L 2.835938 -10.007812 C 2.902344 -9.699219 3.027344 -9.464844 3.214844 -9.3125 C 3.40625 -9.160156 3.660156 -9.085938 3.976562 -9.085938 C 4.347656 -9.085938 4.625 -9.160156 4.816406 -9.308594 C 5.003906 -9.457031 5.132812 -9.6875 5.195312 -10.007812 Z M 5.195312 -10.007812 "/>
</g>
<g id="glyph-2-8">
</g>
<g id="glyph-2-9">
<path d="M 0.929688 -7.257812 L 3.765625 -7.257812 C 4.464844 -7.257812 4.980469 -7.203125 5.320312 -7.085938 C 5.660156 -6.96875 5.953125 -6.757812 6.195312 -6.445312 C 6.441406 -6.136719 6.5625 -5.765625 6.5625 -5.332031 C 6.5625 -4.984375 6.492188 -4.683594 6.347656 -4.425781 C 6.203125 -4.167969 5.988281 -3.953125 5.703125 -3.78125 C 6.042969 -3.667969 6.328125 -3.453125 6.550781 -3.140625 C 6.777344 -2.828125 6.890625 -2.457031 6.890625 -2.03125 C 6.84375 -1.34375 6.597656 -0.832031 6.152344 -0.5 C 5.707031 -0.167969 5.054688 0 4.203125 0 L 0.929688 0 L 0.929688 -7.257812 M 2.160156 -4.203125 L 3.472656 -4.203125 C 3.996094 -4.203125 4.355469 -4.230469 4.554688 -4.285156 C 4.75 -4.339844 4.925781 -4.453125 5.078125 -4.617188 C 5.234375 -4.785156 5.3125 -4.984375 5.3125 -5.214844 C 5.3125 -5.597656 5.175781 -5.867188 4.90625 -6.015625 C 4.632812 -6.164062 4.171875 -6.242188 3.515625 -6.242188 L 2.160156 -6.242188 L 2.160156 -4.203125 M 2.160156 -1.011719 L 3.78125 -1.011719 C 4.476562 -1.011719 4.957031 -1.09375 5.214844 -1.253906 C 5.476562 -1.417969 5.613281 -1.695312 5.625 -2.09375 C 5.625 -2.324219 5.550781 -2.539062 5.398438 -2.738281 C 5.25 -2.9375 5.054688 -3.0625 4.8125 -3.113281 C 4.570312 -3.167969 4.183594 -3.191406 3.648438 -3.191406 L 2.160156 -3.191406 Z M 2.160156 -1.011719 "/>
</g>
<g id="glyph-2-10">
<path d="M 0.929688 -7.257812 L 5.105469 -7.257812 L 5.105469 -6.242188 L 2.160156 -6.242188 L 2.160156 0 L 0.929688 0 Z M 0.929688 -7.257812 "/>
</g>
<g id="glyph-2-11">
<path d="M 0.964844 -7.257812 L 2.195312 -7.257812 L 2.195312 -1.019531 L 4.996094 -1.019531 L 4.996094 -7.257812 L 6.226562 -7.257812 L 6.226562 -1.019531 L 9.039062 -1.019531 L 9.039062 -7.257812 L 10.261719 -7.257812 L 10.261719 0 L 0.964844 0 Z M 0.964844 -7.257812 "/>
</g>
<g id="glyph-2-12">
<path d="M 1.242188 0 L 1.242188 -1.402344 L 2.644531 -1.402344 L 2.644531 0 C 2.644531 0.515625 2.554688 0.929688 2.371094 1.246094 C 2.191406 1.5625 1.898438 1.808594 1.503906 1.984375 L 1.164062 1.457031 C 1.421875 1.34375 1.613281 1.175781 1.734375 0.953125 C 1.859375 0.734375 1.929688 0.414062 1.941406 0 Z M 1.242188 0 "/>
</g>
<g id="glyph-2-13">
<path d="M 3.484375 1.441406 L 3.484375 0.210938 C 2.871094 0.132812 2.371094 -0.00390625 1.984375 -0.203125 C 1.601562 -0.398438 1.269531 -0.71875 0.988281 -1.164062 C 0.707031 -1.605469 0.542969 -2.144531 0.5 -2.78125 L 1.734375 -3.015625 C 1.832031 -2.355469 2 -1.867188 2.242188 -1.558594 C 2.589844 -1.121094 3.003906 -0.878906 3.484375 -0.828125 L 3.484375 -4.742188 C 2.980469 -4.839844 2.464844 -5.035156 1.933594 -5.332031 C 1.542969 -5.550781 1.242188 -5.855469 1.027344 -6.242188 C 0.816406 -6.628906 0.710938 -7.070312 0.710938 -7.5625 C 0.710938 -8.4375 1.019531 -9.144531 1.640625 -9.6875 C 2.054688 -10.050781 2.671875 -10.273438 3.484375 -10.355469 L 3.484375 -10.945312 L 4.210938 -10.945312 L 4.210938 -10.355469 C 4.925781 -10.289062 5.492188 -10.078125 5.914062 -9.726562 C 6.449219 -9.28125 6.773438 -8.667969 6.882812 -7.890625 L 5.613281 -7.695312 C 5.539062 -8.179688 5.386719 -8.550781 5.15625 -8.808594 C 4.925781 -9.066406 4.613281 -9.234375 4.210938 -9.316406 L 4.210938 -5.769531 C 4.832031 -5.613281 5.242188 -5.492188 5.441406 -5.40625 C 5.824219 -5.238281 6.136719 -5.035156 6.378906 -4.792969 C 6.621094 -4.550781 6.804688 -4.261719 6.933594 -3.929688 C 7.066406 -3.597656 7.128906 -3.238281 7.128906 -2.851562 C 7.128906 -2 6.859375 -1.289062 6.316406 -0.71875 C 5.773438 -0.148438 5.070312 0.15625 4.210938 0.199219 L 4.210938 1.441406 L 3.484375 1.441406 M 3.484375 -9.332031 C 3.007812 -9.257812 2.628906 -9.066406 2.355469 -8.757812 C 2.078125 -8.445312 1.941406 -8.078125 1.941406 -7.65625 C 1.941406 -7.238281 2.058594 -6.886719 2.292969 -6.601562 C 2.527344 -6.320312 2.925781 -6.09375 3.484375 -5.925781 L 3.484375 -9.332031 M 4.210938 -0.828125 C 4.6875 -0.886719 5.085938 -1.09375 5.398438 -1.449219 C 5.710938 -1.804688 5.863281 -2.246094 5.867188 -2.769531 C 5.863281 -3.214844 5.753906 -3.574219 5.535156 -3.84375 C 5.3125 -4.117188 4.871094 -4.359375 4.210938 -4.574219 Z M 4.210938 -0.828125 "/>
</g>
<g id="glyph-3-0">
<path d="M -10.023438 -1.101562 L -10.023438 -2.425781 L -1.183594 -2.425781 L -1.183594 -5.757812 L -10.023438 -5.757812 L -10.023438 -7.082031 L -1.183594 -7.082031 L -1.183594 -10.410156 L -10.023438 -10.410156 L -10.023438 -11.738281 L -1.183594 -11.738281 L -1.183594 -12.648438 L 2.78125 -12.648438 L 2.78125 -11.464844 L 0 -11.464844 L 0 -1.101562 Z M -10.023438 -1.101562 "/>
</g>
<g id="glyph-3-1">
<path d="M -8.605469 -0.929688 L -10.023438 -0.929688 L -10.023438 -2.160156 L -8.605469 -2.160156 L -8.605469 -0.929688 M 0 -0.929688 L -7.257812 -0.929688 L -7.257812 -2.160156 L 0 -2.160156 Z M 0 -0.929688 "/>
</g>
<g id="glyph-3-2">
<path d="M -7.257812 -1.523438 L -7.257812 -7.238281 L 0 -7.238281 L 0 -6.015625 L -6.242188 -6.015625 L -6.242188 -2.753906 L -2.625 -2.753906 C -1.78125 -2.753906 -1.226562 -2.726562 -0.957031 -2.671875 C -0.6875 -2.617188 -0.453125 -2.46875 -0.253906 -2.222656 C -0.0507812 -1.976562 0.046875 -1.621094 0.046875 -1.15625 C 0.046875 -0.867188 0.03125 -0.539062 -0.0078125 -0.164062 L -1.03125 -0.164062 L -1.03125 -0.703125 C -1.03125 -0.960938 -1.058594 -1.140625 -1.109375 -1.25 C -1.164062 -1.359375 -1.246094 -1.433594 -1.359375 -1.46875 C -1.472656 -1.507812 -1.84375 -1.523438 -2.476562 -1.523438 Z M -7.257812 -1.523438 "/>
</g>
<g id="glyph-3-3">
<path d="M -7.257812 -0.902344 L -7.257812 -2.132812 L -4.421875 -2.132812 L -4.421875 -3.691406 C -4.421875 -4.707031 -4.226562 -5.492188 -3.832031 -6.039062 C -3.4375 -6.589844 -2.894531 -6.863281 -2.199219 -6.863281 C -1.59375 -6.863281 -1.078125 -6.632812 -0.644531 -6.175781 C -0.214844 -5.71875 0 -4.984375 0 -3.976562 L 0 -0.902344 L -7.257812 -0.902344 M -1.011719 -2.132812 L -1.011719 -3.425781 C -1.011719 -4.203125 -1.105469 -4.761719 -1.296875 -5.09375 C -1.488281 -5.425781 -1.789062 -5.59375 -2.195312 -5.59375 C -2.507812 -5.59375 -2.789062 -5.46875 -3.035156 -5.222656 C -3.28125 -4.976562 -3.402344 -4.433594 -3.40625 -3.589844 L -3.40625 -2.132812 Z M -1.011719 -2.132812 "/>
</g>
<g id="glyph-3-4">
<path d="M -7.257812 -0.929688 L -7.257812 -2.160156 L -4.238281 -2.160156 L -4.238281 -5.570312 L -7.257812 -5.570312 L -7.257812 -6.800781 L 0 -6.800781 L 0 -5.570312 L -3.21875 -5.570312 L -3.21875 -2.160156 L 0 -2.160156 L 0 -0.929688 Z M -7.257812 -0.929688 "/>
</g>
<g id="glyph-3-5">
<path d="M -2.660156 -5.660156 L -2.5 -6.871094 C -1.667969 -6.738281 -1.015625 -6.398438 -0.542969 -5.855469 C -0.0703125 -5.308594 0.164062 -4.640625 0.164062 -3.847656 C 0.164062 -2.855469 -0.160156 -2.054688 -0.808594 -1.453125 C -1.460938 -0.847656 -2.390625 -0.546875 -3.601562 -0.546875 C -4.386719 -0.546875 -5.070312 -0.675781 -5.660156 -0.9375 C -6.246094 -1.195312 -6.6875 -1.589844 -6.984375 -2.121094 C -7.277344 -2.652344 -7.421875 -3.230469 -7.421875 -3.855469 C -7.421875 -4.644531 -7.222656 -5.289062 -6.824219 -5.789062 C -6.425781 -6.292969 -5.859375 -6.613281 -5.125 -6.753906 L -4.941406 -5.558594 C -5.429688 -5.445312 -5.796875 -5.242188 -6.042969 -4.953125 C -6.289062 -4.664062 -6.414062 -4.3125 -6.414062 -3.902344 C -6.414062 -3.285156 -6.191406 -2.78125 -5.746094 -2.394531 C -5.300781 -2.003906 -4.597656 -1.8125 -3.636719 -1.8125 C -2.660156 -1.8125 -1.953125 -2 -1.511719 -2.371094 C -1.070312 -2.746094 -0.847656 -3.234375 -0.847656 -3.835938 C -0.847656 -4.316406 -0.996094 -4.722656 -1.292969 -5.046875 C -1.589844 -5.367188 -2.042969 -5.574219 -2.660156 -5.660156 Z M -2.660156 -5.660156 "/>
</g>
<g id="glyph-3-6">
<path d="M -7.257812 -0.261719 L -7.257812 -6.160156 L -6.242188 -6.160156 L -6.242188 -3.820312 L 0 -3.820312 L 0 -2.597656 L -6.242188 -2.597656 L -6.242188 -0.261719 Z M -7.257812 -0.261719 "/>
</g>
<g id="glyph-4-0">
<path d="M 0.753906 -3.863281 L 2.257812 -3.996094 C 2.328125 -3.394531 2.492188 -2.898438 2.753906 -2.515625 C 3.011719 -2.128906 3.414062 -1.816406 3.960938 -1.578125 C 4.507812 -1.339844 5.125 -1.222656 5.808594 -1.222656 C 6.414062 -1.222656 6.949219 -1.3125 7.414062 -1.492188 C 7.878906 -1.671875 8.226562 -1.921875 8.453125 -2.234375 C 8.679688 -2.550781 8.792969 -2.894531 8.792969 -3.265625 C 8.792969 -3.640625 8.683594 -3.972656 8.464844 -4.253906 C 8.246094 -4.535156 7.886719 -4.769531 7.382812 -4.960938 C 7.058594 -5.089844 6.347656 -5.285156 5.242188 -5.550781 C 4.136719 -5.816406 3.363281 -6.066406 2.921875 -6.300781 C 2.347656 -6.601562 1.917969 -6.972656 1.636719 -7.417969 C 1.355469 -7.867188 1.214844 -8.363281 1.214844 -8.917969 C 1.214844 -9.523438 1.386719 -10.089844 1.730469 -10.617188 C 2.074219 -11.148438 2.578125 -11.546875 3.242188 -11.820312 C 3.902344 -12.09375 4.636719 -12.230469 5.445312 -12.230469 C 6.339844 -12.230469 7.125 -12.085938 7.804688 -11.800781 C 8.484375 -11.511719 9.007812 -11.089844 9.375 -10.53125 C 9.742188 -9.976562 9.9375 -9.34375 9.96875 -8.636719 L 8.441406 -8.523438 C 8.359375 -9.28125 8.082031 -9.855469 7.609375 -10.246094 C 7.136719 -10.632812 6.4375 -10.828125 5.511719 -10.828125 C 4.550781 -10.828125 3.847656 -10.652344 3.410156 -10.300781 C 2.96875 -9.945312 2.75 -9.519531 2.75 -9.023438 C 2.75 -8.589844 2.902344 -8.234375 3.214844 -7.957031 C 3.523438 -7.679688 4.320312 -7.390625 5.613281 -7.101562 C 6.910156 -6.808594 7.796875 -6.550781 8.277344 -6.332031 C 8.976562 -6.011719 9.492188 -5.601562 9.828125 -5.105469 C 10.160156 -4.613281 10.328125 -4.042969 10.328125 -3.394531 C 10.328125 -2.757812 10.144531 -2.152344 9.777344 -1.585938 C 9.410156 -1.019531 8.886719 -0.582031 8.199219 -0.265625 C 7.511719 0.046875 6.738281 0.203125 5.882812 0.203125 C 4.792969 0.203125 3.882812 0.046875 3.144531 -0.269531 C 2.410156 -0.585938 1.832031 -1.066406 1.414062 -1.703125 C 0.996094 -2.339844 0.777344 -3.058594 0.753906 -3.863281 Z M 0.753906 -3.863281 "/>
</g>
<g id="glyph-4-1">
<path d="M 2.101562 0 L 2.101562 -10.5 L 10.5 -10.5 L 10.5 0 L 2.101562 0 M 2.363281 -0.261719 L 10.238281 -0.261719 L 10.238281 -10.238281 L 2.363281 -10.238281 Z M 2.363281 -0.261719 "/>
</g>
<g id="glyph-4-2">
<path d="M 1.515625 -7.03125 L 1.515625 -8.710938 L 3.199219 -8.710938 L 3.199219 -7.03125 L 1.515625 -7.03125 M 1.515625 0 L 1.515625 -1.679688 L 3.199219 -1.679688 L 3.199219 0 Z M 1.515625 0 "/>
</g>
<g id="glyph-4-3">
</g>
<g id="glyph-4-4">
<path d="M 6.792969 -3.191406 L 8.242188 -3.003906 C 8.085938 -2 7.679688 -1.21875 7.027344 -0.652344 C 6.371094 -0.0859375 5.570312 0.195312 4.617188 0.195312 C 3.425781 0.195312 2.46875 -0.191406 1.742188 -0.972656 C 1.019531 -1.75 0.65625 -2.867188 0.65625 -4.324219 C 0.65625 -5.261719 0.8125 -6.085938 1.125 -6.792969 C 1.4375 -7.496094 1.910156 -8.027344 2.546875 -8.378906 C 3.183594 -8.730469 3.878906 -8.910156 4.625 -8.910156 C 5.574219 -8.910156 6.347656 -8.667969 6.949219 -8.191406 C 7.550781 -7.710938 7.933594 -7.03125 8.105469 -6.152344 L 6.667969 -5.929688 C 6.53125 -6.515625 6.289062 -6.957031 5.941406 -7.25 C 5.597656 -7.546875 5.175781 -7.695312 4.683594 -7.695312 C 3.941406 -7.695312 3.335938 -7.429688 2.871094 -6.894531 C 2.40625 -6.363281 2.171875 -5.519531 2.171875 -4.363281 C 2.171875 -3.195312 2.398438 -2.34375 2.847656 -1.8125 C 3.292969 -1.28125 3.878906 -1.015625 4.601562 -1.015625 C 5.179688 -1.015625 5.664062 -1.195312 6.054688 -1.550781 C 6.441406 -1.90625 6.6875 -2.453125 6.792969 -3.191406 Z M 6.792969 -3.191406 "/>
</g>
<g id="glyph-4-5">
<path d="M 1.109375 -8.710938 L 2.585938 -8.710938 L 2.585938 -2.066406 L 6.675781 -8.710938 L 8.269531 -8.710938 L 8.269531 0 L 6.792969 0 L 6.792969 -6.601562 L 2.699219 0 L 1.109375 0 Z M 1.109375 -8.710938 "/>
</g>
<g id="glyph-4-6">
<path d="M 1.148438 -8.710938 L 3.445312 -8.710938 L 5.734375 -1.738281 L 8.277344 -8.710938 L 10.402344 -8.710938 L 10.402344 0 L 8.925781 0 L 8.925781 -7.015625 L 6.347656 0 L 5.027344 0 L 2.59375 -7.351562 L 2.59375 0 L 1.148438 0 Z M 1.148438 -8.710938 "/>
</g>
<g id="glyph-4-7">
<path d="M 1.042969 3.355469 L 0.878906 1.96875 C 1.199219 2.054688 1.480469 2.101562 1.722656 2.101562 C 2.050781 2.101562 2.3125 2.046875 2.511719 1.9375 C 2.707031 1.828125 2.867188 1.671875 2.992188 1.476562 C 3.085938 1.328125 3.238281 0.960938 3.445312 0.378906 C 3.472656 0.296875 3.515625 0.175781 3.578125 0.015625 L 0.269531 -8.710938 L 1.863281 -8.710938 L 3.675781 -3.667969 C 3.910156 -3.027344 4.121094 -2.355469 4.304688 -1.648438 C 4.476562 -2.328125 4.679688 -2.988281 4.914062 -3.632812 L 6.777344 -8.710938 L 8.253906 -8.710938 L 4.9375 0.148438 C 4.582031 1.105469 4.304688 1.765625 4.109375 2.125 C 3.847656 2.609375 3.546875 2.96875 3.207031 3.195312 C 2.867188 3.421875 2.464844 3.535156 1.992188 3.535156 C 1.707031 3.535156 1.390625 3.476562 1.042969 3.355469 Z M 1.042969 3.355469 "/>
</g>
<g id="glyph-4-8">
<path d="M 1.828125 -8.710938 L 8.6875 -8.710938 L 8.6875 0 L 7.21875 0 L 7.21875 -7.488281 L 3.304688 -7.488281 L 3.304688 -3.148438 C 3.304688 -2.136719 3.273438 -1.472656 3.207031 -1.148438 C 3.140625 -0.824219 2.960938 -0.542969 2.664062 -0.304688 C 2.371094 -0.0625 1.945312 0.0585938 1.386719 0.0585938 C 1.042969 0.0585938 0.644531 0.0351562 0.195312 -0.0078125 L 0.195312 -1.238281 L 0.84375 -1.238281 C 1.152344 -1.238281 1.371094 -1.269531 1.5 -1.332031 C 1.632812 -1.394531 1.71875 -1.496094 1.765625 -1.632812 C 1.808594 -1.769531 1.828125 -2.214844 1.828125 -2.96875 Z M 1.828125 -8.710938 "/>
</g>
<g id="glyph-4-9">
<path d="M 7.964844 -8.710938 L 7.964844 0 L 6.496094 0 L 6.496094 -3.394531 L 5.644531 -3.394531 C 5.125 -3.394531 4.738281 -3.328125 4.484375 -3.195312 C 4.230469 -3.0625 3.859375 -2.628906 3.371094 -1.902344 L 2.082031 0 L 0.253906 0 L 1.84375 -2.347656 C 2.332031 -3.0625 2.816406 -3.46875 3.296875 -3.558594 C 2.457031 -3.675781 1.832031 -3.976562 1.421875 -4.46875 C 1.015625 -4.960938 0.8125 -5.527344 0.8125 -6.167969 C 0.8125 -6.921875 1.078125 -7.535156 1.613281 -8.007812 C 2.144531 -8.476562 2.917969 -8.710938 3.929688 -8.710938 L 7.964844 -8.710938 M 6.496094 -7.488281 L 4.398438 -7.488281 C 3.515625 -7.488281 2.949219 -7.351562 2.695312 -7.078125 C 2.441406 -6.804688 2.3125 -6.484375 2.3125 -6.121094 C 2.3125 -5.601562 2.5 -5.21875 2.875 -4.976562 C 3.25 -4.730469 3.914062 -4.609375 4.863281 -4.609375 L 6.496094 -4.609375 Z M 6.496094 -7.488281 "/>
</g>
<g id="glyph-4-10">
<path d="M 1.132812 -8.710938 L 2.609375 -8.710938 L 2.609375 -1.214844 L 6.695312 -1.214844 L 6.695312 -8.710938 L 8.171875 -8.710938 L 8.171875 -1.214844 L 9.121094 -1.214844 L 9.121094 2.46875 L 7.90625 2.46875 L 7.90625 0 L 1.132812 0 Z M 1.132812 -8.710938 "/>
</g>
<g id="glyph-4-11">
<path d="M 1.117188 -10.328125 L 1.117188 -12.027344 L 2.59375 -12.027344 L 2.59375 -10.328125 L 1.117188 -10.328125 M 1.117188 0 L 1.117188 -8.710938 L 2.59375 -8.710938 L 2.59375 0 Z M 1.117188 0 "/>
</g>
<g id="glyph-4-12">
<path d="M 3.527344 0 L 0.214844 -8.710938 L 1.773438 -8.710938 L 3.640625 -3.496094 C 3.84375 -2.929688 4.03125 -2.347656 4.199219 -1.738281 C 4.332031 -2.199219 4.515625 -2.75 4.75 -3.394531 L 6.6875 -8.710938 L 8.203125 -8.710938 L 4.90625 0 Z M 3.527344 0 "/>
</g>
<g id="glyph-4-13">
<path d="M 0.515625 -2.601562 L 1.976562 -2.828125 C 2.058594 -2.246094 2.289062 -1.796875 2.660156 -1.484375 C 3.035156 -1.171875 3.558594 -1.015625 4.234375 -1.015625 C 4.910156 -1.015625 5.414062 -1.15625 5.742188 -1.429688 C 6.070312 -1.707031 6.234375 -2.03125 6.234375 -2.402344 C 6.234375 -2.738281 6.089844 -3 5.800781 -3.191406 C 5.597656 -3.320312 5.09375 -3.488281 4.289062 -3.691406 C 3.207031 -3.964844 2.457031 -4.203125 2.039062 -4.402344 C 1.621094 -4.601562 1.304688 -4.875 1.085938 -5.230469 C 0.871094 -5.582031 0.761719 -5.972656 0.761719 -6.398438 C 0.761719 -6.785156 0.851562 -7.144531 1.03125 -7.476562 C 1.207031 -7.808594 1.449219 -8.082031 1.753906 -8.300781 C 1.984375 -8.472656 2.296875 -8.613281 2.695312 -8.730469 C 3.089844 -8.851562 3.515625 -8.910156 3.96875 -8.910156 C 4.652344 -8.910156 5.253906 -8.808594 5.769531 -8.613281 C 6.289062 -8.417969 6.667969 -8.148438 6.914062 -7.8125 C 7.160156 -7.476562 7.332031 -7.027344 7.421875 -6.464844 L 5.980469 -6.265625 C 5.914062 -6.714844 5.722656 -7.066406 5.410156 -7.316406 C 5.09375 -7.570312 4.652344 -7.695312 4.078125 -7.695312 C 3.398438 -7.695312 2.914062 -7.582031 2.625 -7.359375 C 2.335938 -7.132812 2.191406 -6.871094 2.191406 -6.570312 C 2.191406 -6.378906 2.25 -6.207031 2.371094 -6.054688 C 2.492188 -5.894531 2.679688 -5.765625 2.9375 -5.660156 C 3.085938 -5.605469 3.519531 -5.480469 4.242188 -5.28125 C 5.285156 -5.003906 6.015625 -4.777344 6.425781 -4.597656 C 6.839844 -4.421875 7.164062 -4.160156 7.398438 -3.824219 C 7.632812 -3.484375 7.75 -3.0625 7.75 -2.558594 C 7.75 -2.066406 7.609375 -1.605469 7.320312 -1.167969 C 7.035156 -0.734375 6.621094 -0.398438 6.078125 -0.160156 C 5.539062 0.078125 4.925781 0.195312 4.242188 0.195312 C 3.109375 0.195312 2.246094 -0.0390625 1.652344 -0.507812 C 1.058594 -0.980469 0.679688 -1.675781 0.515625 -2.601562 Z M 0.515625 -2.601562 "/>
</g>
<g id="glyph-4-14">
<path d="M 1.28125 0 L 1.28125 -12.027344 L 2.914062 -12.027344 L 9.226562 -2.585938 L 9.226562 -12.027344 L 10.753906 -12.027344 L 10.753906 0 L 9.121094 0 L 2.804688 -9.449219 L 2.804688 0 Z M 1.28125 0 "/>
</g>
<g id="glyph-4-15">
<path d="M 3.929688 3.535156 C 3.113281 2.507812 2.425781 1.304688 1.863281 -0.0742188 C 1.300781 -1.453125 1.015625 -2.878906 1.015625 -4.355469 C 1.015625 -5.65625 1.226562 -6.902344 1.648438 -8.097656 C 2.140625 -9.480469 2.902344 -10.859375 3.929688 -12.230469 L 4.988281 -12.230469 C 4.324219 -11.09375 3.886719 -10.28125 3.675781 -9.792969 C 3.339844 -9.039062 3.078125 -8.253906 2.886719 -7.433594 C 2.652344 -6.410156 2.535156 -5.382812 2.535156 -4.347656 C 2.535156 -1.71875 3.351562 0.910156 4.988281 3.535156 Z M 3.929688 3.535156 "/>
</g>
<g id="glyph-4-16">
<path d="M 8.875 -5.242188 L 0.933594 -5.242188 L 0.933594 -6.621094 L 8.875 -6.621094 Z M 8.875 -5.242188 "/>
</g>
<g id="glyph-4-17">
<path d="M 6.257812 0 L 4.78125 0 L 4.78125 -9.410156 C 4.425781 -9.070312 3.960938 -8.730469 3.382812 -8.390625 C 2.808594 -8.050781 2.289062 -7.796875 1.828125 -7.628906 L 1.828125 -9.054688 C 2.65625 -9.445312 3.375 -9.914062 3.996094 -10.46875 C 4.613281 -11.019531 5.050781 -11.554688 5.308594 -12.074219 L 6.257812 -12.074219 Z M 6.257812 0 "/>
</g>
<g id="glyph-4-18">
<path d="M 0.695312 -5.929688 C 0.695312 -7.351562 0.84375 -8.496094 1.136719 -9.363281 C 1.429688 -10.230469 1.863281 -10.898438 2.441406 -11.371094 C 3.015625 -11.839844 3.742188 -12.074219 4.617188 -12.074219 C 5.261719 -12.074219 5.828125 -11.945312 6.316406 -11.683594 C 6.804688 -11.425781 7.203125 -11.050781 7.523438 -10.5625 C 7.839844 -10.070312 8.089844 -9.476562 8.269531 -8.773438 C 8.449219 -8.070312 8.539062 -7.121094 8.539062 -5.929688 C 8.539062 -4.519531 8.394531 -3.382812 8.105469 -2.515625 C 7.816406 -1.648438 7.382812 -0.976562 6.804688 -0.503906 C 6.226562 -0.03125 5.5 0.203125 4.617188 0.203125 C 3.457031 0.203125 2.546875 -0.210938 1.886719 -1.042969 C 1.09375 -2.042969 0.695312 -3.671875 0.695312 -5.929688 M 2.214844 -5.929688 C 2.214844 -3.957031 2.445312 -2.644531 2.90625 -1.988281 C 3.371094 -1.335938 3.941406 -1.007812 4.617188 -1.007812 C 5.296875 -1.007812 5.867188 -1.335938 6.328125 -1.992188 C 6.789062 -2.648438 7.023438 -3.960938 7.023438 -5.929688 C 7.023438 -7.910156 6.789062 -9.226562 6.328125 -9.875 C 5.867188 -10.527344 5.289062 -10.851562 4.601562 -10.851562 C 3.921875 -10.851562 3.382812 -10.566406 2.976562 -9.992188 C 2.46875 -9.257812 2.214844 -7.90625 2.214844 -5.929688 Z M 2.214844 -5.929688 "/>
</g>
<g id="glyph-4-19">
<path d="M 1.492188 0 L 1.492188 -1.679688 L 3.175781 -1.679688 L 3.175781 0 C 3.175781 0.617188 3.066406 1.117188 2.847656 1.496094 C 2.628906 1.878906 2.28125 2.171875 1.804688 2.378906 L 1.394531 1.746094 C 1.707031 1.609375 1.9375 1.410156 2.082031 1.144531 C 2.230469 0.878906 2.3125 0.496094 2.328125 0 Z M 1.492188 0 "/>
</g>
<g id="glyph-4-20">
<path d="M 0.917969 -2.78125 L 2.335938 -2.914062 C 2.457031 -2.246094 2.6875 -1.761719 3.027344 -1.460938 C 3.367188 -1.160156 3.800781 -1.007812 4.332031 -1.007812 C 4.785156 -1.007812 5.183594 -1.113281 5.523438 -1.320312 C 5.867188 -1.527344 6.148438 -1.804688 6.367188 -2.152344 C 6.585938 -2.5 6.765625 -2.96875 6.914062 -3.558594 C 7.0625 -4.152344 7.136719 -4.753906 7.136719 -5.363281 C 7.136719 -5.429688 7.132812 -5.527344 7.128906 -5.660156 C 6.832031 -5.191406 6.429688 -4.808594 5.917969 -4.515625 C 5.40625 -4.222656 4.851562 -4.078125 4.257812 -4.078125 C 3.261719 -4.078125 2.421875 -4.4375 1.730469 -5.160156 C 1.042969 -5.882812 0.695312 -6.832031 0.695312 -8.015625 C 0.695312 -9.234375 1.058594 -10.214844 1.777344 -10.960938 C 2.496094 -11.703125 3.394531 -12.074219 4.480469 -12.074219 C 5.261719 -12.074219 5.976562 -11.863281 6.625 -11.445312 C 7.273438 -11.023438 7.765625 -10.421875 8.101562 -9.644531 C 8.4375 -8.863281 8.605469 -7.734375 8.605469 -6.257812 C 8.605469 -4.722656 8.4375 -3.5 8.105469 -2.589844 C 7.769531 -1.675781 7.273438 -0.984375 6.617188 -0.507812 C 5.957031 -0.03125 5.183594 0.203125 4.296875 0.203125 C 3.359375 0.203125 2.589844 -0.0546875 1.992188 -0.578125 C 1.398438 -1.101562 1.039062 -1.835938 0.917969 -2.78125 M 6.964844 -8.089844 C 6.964844 -8.9375 6.738281 -9.609375 6.289062 -10.105469 C 5.835938 -10.605469 5.292969 -10.851562 4.660156 -10.851562 C 4.003906 -10.851562 3.429688 -10.585938 2.945312 -10.046875 C 2.457031 -9.511719 2.214844 -8.820312 2.214844 -7.964844 C 2.214844 -7.199219 2.445312 -6.578125 2.90625 -6.097656 C 3.371094 -5.621094 3.941406 -5.382812 4.617188 -5.382812 C 5.300781 -5.382812 5.863281 -5.621094 6.304688 -6.097656 C 6.746094 -6.578125 6.964844 -7.242188 6.964844 -8.089844 Z M 6.964844 -8.089844 "/>
</g>
<g id="glyph-4-21">
<path d="M 0.695312 -3.148438 L 2.246094 -3.28125 C 2.363281 -2.527344 2.628906 -1.960938 3.046875 -1.578125 C 3.464844 -1.199219 3.96875 -1.007812 4.5625 -1.007812 C 5.273438 -1.007812 5.875 -1.277344 6.367188 -1.8125 C 6.859375 -2.347656 7.105469 -3.058594 7.105469 -3.945312 C 7.105469 -4.789062 6.867188 -5.453125 6.394531 -5.9375 C 5.921875 -6.425781 5.300781 -6.667969 4.535156 -6.667969 C 4.0625 -6.667969 3.632812 -6.5625 3.25 -6.34375 C 2.867188 -6.128906 2.566406 -5.847656 2.347656 -5.503906 L 0.960938 -5.683594 L 2.125 -11.863281 L 8.105469 -11.863281 L 8.105469 -10.449219 L 3.304688 -10.449219 L 2.65625 -7.21875 C 3.378906 -7.722656 4.136719 -7.972656 4.929688 -7.972656 C 5.980469 -7.972656 6.867188 -7.609375 7.585938 -6.882812 C 8.308594 -6.15625 8.671875 -5.21875 8.671875 -4.078125 C 8.671875 -2.988281 8.351562 -2.046875 7.71875 -1.253906 C 6.949219 -0.28125 5.894531 0.203125 4.5625 0.203125 C 3.46875 0.203125 2.574219 -0.101562 1.882812 -0.714844 C 1.191406 -1.324219 0.796875 -2.136719 0.695312 -3.148438 Z M 0.695312 -3.148438 "/>
</g>
<g id="glyph-4-22">
<path d="M 0.203125 -6.011719 C 0.238281 -6.324219 0.367188 -6.636719 0.589844 -6.949219 C 0.933594 -7.417969 1.5 -7.9375 2.289062 -8.511719 C 3.074219 -9.082031 3.542969 -9.449219 3.691406 -9.613281 C 3.894531 -9.839844 3.996094 -10.066406 3.996094 -10.304688 C 3.996094 -10.566406 3.898438 -10.78125 3.707031 -10.953125 C 3.515625 -11.121094 3.234375 -11.207031 2.863281 -11.207031 C 2.5 -11.207031 2.234375 -11.140625 2.054688 -11.011719 C 1.878906 -10.882812 1.730469 -10.636719 1.617188 -10.269531 L 0.378906 -10.402344 C 0.535156 -11.007812 0.8125 -11.457031 1.203125 -11.742188 C 1.59375 -12.03125 2.15625 -12.171875 2.886719 -12.171875 C 3.714844 -12.171875 4.320312 -12.011719 4.703125 -11.6875 C 5.089844 -11.367188 5.28125 -10.972656 5.28125 -10.507812 C 5.28125 -10.046875 5.121094 -9.613281 4.796875 -9.203125 C 4.554688 -8.898438 3.992188 -8.429688 3.117188 -7.800781 C 2.664062 -7.46875 2.339844 -7.203125 2.148438 -7.003906 L 5.316406 -7.003906 L 5.316406 -6.011719 Z M 0.203125 -6.011719 "/>
</g>
<g id="glyph-4-23">
<path d="M 2.074219 3.535156 L 1.015625 3.535156 C 2.652344 0.910156 3.46875 -1.71875 3.46875 -4.347656 C 3.46875 -5.375 3.351562 -6.394531 3.117188 -7.40625 C 2.929688 -8.226562 2.671875 -9.015625 2.335938 -9.769531 C 2.125 -10.261719 1.683594 -11.082031 1.015625 -12.230469 L 2.074219 -12.230469 C 3.101562 -10.859375 3.863281 -9.480469 4.355469 -8.097656 C 4.777344 -6.902344 4.988281 -5.65625 4.988281 -4.355469 C 4.988281 -2.878906 4.703125 -1.453125 4.136719 -0.0742188 C 3.574219 1.304688 2.882812 2.507812 2.074219 3.535156 Z M 2.074219 3.535156 "/>
</g>
</g>
<clipPath id="clip-0">
<path clip-rule="nonzero" d="M 63.160156 201 L 641.023438 201 L 641.023438 203 L 63.160156 203 Z M 63.160156 201 "/>
</clipPath>
<clipPath id="clip-1">
<path clip-rule="nonzero" d="M 63.160156 166 L 641.023438 166 L 641.023438 168 L 63.160156 168 Z M 63.160156 166 "/>
</clipPath>
<clipPath id="clip-2">
<path clip-rule="nonzero" d="M 63.160156 131 L 641.023438 131 L 641.023438 133 L 63.160156 133 Z M 63.160156 131 "/>
</clipPath>
<clipPath id="clip-3">
<path clip-rule="nonzero" d="M 63.160156 96 L 641.023438 96 L 641.023438 97 L 63.160156 97 Z M 63.160156 96 "/>
</clipPath>
<clipPath id="clip-4">
<path clip-rule="nonzero" d="M 63.160156 60 L 641.023438 60 L 641.023438 62 L 63.160156 62 Z M 63.160156 60 "/>
</clipPath>
<clipPath id="clip-5">
<path clip-rule="nonzero" d="M 67 31.507812 L 69 31.507812 L 69 228.917969 L 67 228.917969 Z M 67 31.507812 "/>
</clipPath>
<clipPath id="clip-6">
<path clip-rule="nonzero" d="M 199 31.507812 L 201 31.507812 L 201 228.917969 L 199 228.917969 Z M 199 31.507812 "/>
</clipPath>
<clipPath id="clip-7">
<path clip-rule="nonzero" d="M 331 31.507812 L 333 31.507812 L 333 228.917969 L 331 228.917969 Z M 331 31.507812 "/>
</clipPath>
<clipPath id="clip-8">
<path clip-rule="nonzero" d="M 463 31.507812 L 465 31.507812 L 465 228.917969 L 463 228.917969 Z M 463 31.507812 "/>
</clipPath>
<clipPath id="clip-9">
<path clip-rule="nonzero" d="M 595 31.507812 L 597 31.507812 L 597 228.917969 L 595 228.917969 Z M 595 31.507812 "/>
</clipPath>
<clipPath id="clip-10">
<path clip-rule="nonzero" d="M 63.160156 219 L 641.023438 219 L 641.023438 221 L 63.160156 221 Z M 63.160156 219 "/>
</clipPath>
<clipPath id="clip-11">
<path clip-rule="nonzero" d="M 63.160156 183 L 641.023438 183 L 641.023438 186 L 63.160156 186 Z M 63.160156 183 "/>
</clipPath>
<clipPath id="clip-12">
<path clip-rule="nonzero" d="M 63.160156 148 L 641.023438 148 L 641.023438 150 L 63.160156 150 Z M 63.160156 148 "/>
</clipPath>
<clipPath id="clip-13">
<path clip-rule="nonzero" d="M 63.160156 113 L 641.023438 113 L 641.023438 115 L 63.160156 115 Z M 63.160156 113 "/>
</clipPath>
<clipPath id="clip-14">
<path clip-rule="nonzero" d="M 63.160156 78 L 641.023438 78 L 641.023438 80 L 63.160156 80 Z M 63.160156 78 "/>
</clipPath>
<clipPath id="clip-15">
<path clip-rule="nonzero" d="M 63.160156 42 L 641.023438 42 L 641.023438 45 L 63.160156 45 Z M 63.160156 42 "/>
</clipPath>
<clipPath id="clip-16">
<path clip-rule="nonzero" d="M 133 31.507812 L 135 31.507812 L 135 228.917969 L 133 228.917969 Z M 133 31.507812 "/>
</clipPath>
<clipPath id="clip-17">
<path clip-rule="nonzero" d="M 265 31.507812 L 267 31.507812 L 267 228.917969 L 265 228.917969 Z M 265 31.507812 "/>
</clipPath>
<clipPath id="clip-18">
<path clip-rule="nonzero" d="M 397 31.507812 L 399 31.507812 L 399 228.917969 L 397 228.917969 Z M 397 31.507812 "/>
</clipPath>
<clipPath id="clip-19">
<path clip-rule="nonzero" d="M 529 31.507812 L 531 31.507812 L 531 228.917969 L 529 228.917969 Z M 529 31.507812 "/>
</clipPath>
<clipPath id="clip-20">
<path clip-rule="nonzero" d="M 397 31.507812 L 400 31.507812 L 400 228.917969 L 397 228.917969 Z M 397 31.507812 "/>
</clipPath>
</defs>
<rect x="-64.8" y="-27.3" width="777.6" height="327.6" fill="rgb(100%, 100%, 100%)" fill-opacity="1"/>
<rect x="-64.8" y="-27.3" width="777.6" height="327.6" fill="rgb(100%, 100%, 100%)" fill-opacity="1"/>
<g clip-path="url(#clip-0)">
<path fill="none" stroke-width="0.678986" stroke-linecap="butt" stroke-linejoin="round" stroke="rgb(92.156863%, 92.156863%, 92.156863%)" stroke-opacity="1" stroke-miterlimit="10" d="M 63.160156 202.292969 L 641.027344 202.292969 "/>
</g>
<g clip-path="url(#clip-1)">
<path fill="none" stroke-width="0.678986" stroke-linecap="butt" stroke-linejoin="round" stroke="rgb(92.156863%, 92.156863%, 92.156863%)" stroke-opacity="1" stroke-miterlimit="10" d="M 63.160156 166.980469 L 641.027344 166.980469 "/>
</g>
<g clip-path="url(#clip-2)">
<path fill="none" stroke-width="0.678986" stroke-linecap="butt" stroke-linejoin="round" stroke="rgb(92.156863%, 92.156863%, 92.156863%)" stroke-opacity="1" stroke-miterlimit="10" d="M 63.160156 131.664062 L 641.027344 131.664062 "/>
</g>
<g clip-path="url(#clip-3)">
<path fill="none" stroke-width="0.678986" stroke-linecap="butt" stroke-linejoin="round" stroke="rgb(92.156863%, 92.156863%, 92.156863%)" stroke-opacity="1" stroke-miterlimit="10" d="M 63.160156 96.351562 L 641.027344 96.351562 "/>
</g>
<g clip-path="url(#clip-4)">
<path fill="none" stroke-width="0.678986" stroke-linecap="butt" stroke-linejoin="round" stroke="rgb(92.156863%, 92.156863%, 92.156863%)" stroke-opacity="1" stroke-miterlimit="10" d="M 63.160156 61.039062 L 641.027344 61.039062 "/>
</g>
<g clip-path="url(#clip-5)">
<path fill="none" stroke-width="0.678986" stroke-linecap="butt" stroke-linejoin="round" stroke="rgb(92.156863%, 92.156863%, 92.156863%)" stroke-opacity="1" stroke-miterlimit="10" d="M 68.28125 228.921875 L 68.28125 31.507812 "/>
</g>
<g clip-path="url(#clip-6)">
<path fill="none" stroke-width="0.678986" stroke-linecap="butt" stroke-linejoin="round" stroke="rgb(92.156863%, 92.156863%, 92.156863%)" stroke-opacity="1" stroke-miterlimit="10" d="M 200.285156 228.921875 L 200.285156 31.507812 "/>
</g>
<g clip-path="url(#clip-7)">
<path fill="none" stroke-width="0.678986" stroke-linecap="butt" stroke-linejoin="round" stroke="rgb(92.156863%, 92.156863%, 92.156863%)" stroke-opacity="1" stroke-miterlimit="10" d="M 332.292969 228.921875 L 332.292969 31.507812 "/>
</g>
<g clip-path="url(#clip-8)">
<path fill="none" stroke-width="0.678986" stroke-linecap="butt" stroke-linejoin="round" stroke="rgb(92.156863%, 92.156863%, 92.156863%)" stroke-opacity="1" stroke-miterlimit="10" d="M 464.300781 228.921875 L 464.300781 31.507812 "/>
</g>
<g clip-path="url(#clip-9)">
<path fill="none" stroke-width="0.678986" stroke-linecap="butt" stroke-linejoin="round" stroke="rgb(92.156863%, 92.156863%, 92.156863%)" stroke-opacity="1" stroke-miterlimit="10" d="M 596.304688 228.921875 L 596.304688 31.507812 "/>
</g>
<g clip-path="url(#clip-10)">
<path fill="none" stroke-width="1.357972" stroke-linecap="butt" stroke-linejoin="round" stroke="rgb(92.156863%, 92.156863%, 92.156863%)" stroke-opacity="1" stroke-miterlimit="10" d="M 63.160156 219.949219 L 641.027344 219.949219 "/>
</g>
<g clip-path="url(#clip-11)">
<path fill="none" stroke-width="1.357972" stroke-linecap="butt" stroke-linejoin="round" stroke="rgb(92.156863%, 92.156863%, 92.156863%)" stroke-opacity="1" stroke-miterlimit="10" d="M 63.160156 184.636719 L 641.027344 184.636719 "/>
</g>
<g clip-path="url(#clip-12)">
<path fill="none" stroke-width="1.357972" stroke-linecap="butt" stroke-linejoin="round" stroke="rgb(92.156863%, 92.156863%, 92.156863%)" stroke-opacity="1" stroke-miterlimit="10" d="M 63.160156 149.320312 L 641.027344 149.320312 "/>
</g>
<g clip-path="url(#clip-13)">
<path fill="none" stroke-width="1.357972" stroke-linecap="butt" stroke-linejoin="round" stroke="rgb(92.156863%, 92.156863%, 92.156863%)" stroke-opacity="1" stroke-miterlimit="10" d="M 63.160156 114.007812 L 641.027344 114.007812 "/>
</g>
<g clip-path="url(#clip-14)">
<path fill="none" stroke-width="1.357972" stroke-linecap="butt" stroke-linejoin="round" stroke="rgb(92.156863%, 92.156863%, 92.156863%)" stroke-opacity="1" stroke-miterlimit="10" d="M 63.160156 78.695312 L 641.027344 78.695312 "/>
</g>
<g clip-path="url(#clip-15)">
<path fill="none" stroke-width="1.357972" stroke-linecap="butt" stroke-linejoin="round" stroke="rgb(92.156863%, 92.156863%, 92.156863%)" stroke-opacity="1" stroke-miterlimit="10" d="M 63.160156 43.382812 L 641.027344 43.382812 "/>
</g>
<g clip-path="url(#clip-16)">
<path fill="none" stroke-width="1.357972" stroke-linecap="butt" stroke-linejoin="round" stroke="rgb(92.156863%, 92.156863%, 92.156863%)" stroke-opacity="1" stroke-miterlimit="10" d="M 134.28125 228.921875 L 134.28125 31.507812 "/>
</g>
<g clip-path="url(#clip-17)">
<path fill="none" stroke-width="1.357972" stroke-linecap="butt" stroke-linejoin="round" stroke="rgb(92.156863%, 92.156863%, 92.156863%)" stroke-opacity="1" stroke-miterlimit="10" d="M 266.289062 228.921875 L 266.289062 31.507812 "/>
</g>
<g clip-path="url(#clip-18)">
<path fill="none" stroke-width="1.357972" stroke-linecap="butt" stroke-linejoin="round" stroke="rgb(92.156863%, 92.156863%, 92.156863%)" stroke-opacity="1" stroke-miterlimit="10" d="M 398.296875 228.921875 L 398.296875 31.507812 "/>
</g>
<g clip-path="url(#clip-19)">
<path fill="none" stroke-width="1.357972" stroke-linecap="butt" stroke-linejoin="round" stroke="rgb(92.156863%, 92.156863%, 92.156863%)" stroke-opacity="1" stroke-miterlimit="10" d="M 530.300781 228.921875 L 530.300781 31.507812 "/>
</g>
<path fill-rule="nonzero" fill="rgb(17.254902%, 49.803922%, 72.156863%)" fill-opacity="0.501961" stroke-width="1.357972" stroke-linecap="butt" stroke-linejoin="miter" stroke="rgb(100%, 100%, 100%)" stroke-opacity="1" stroke-miterlimit="10" d="M 89.429688 219.949219 L 99.9375 219.949219 L 99.9375 219.839844 L 89.429688 219.839844 Z M 89.429688 219.949219 "/>
<path fill-rule="nonzero" fill="rgb(17.254902%, 49.803922%, 72.156863%)" fill-opacity="0.501961" stroke-width="1.357972" stroke-linecap="butt" stroke-linejoin="miter" stroke="rgb(100%, 100%, 100%)" stroke-opacity="1" stroke-miterlimit="10" d="M 99.933594 219.949219 L 110.441406 219.949219 L 110.441406 219.503906 L 99.933594 219.503906 Z M 99.933594 219.949219 "/>
<path fill="none" stroke-width="1.357972" stroke-linecap="butt" stroke-linejoin="miter" stroke="rgb(100%, 100%, 100%)" stroke-opacity="1" stroke-miterlimit="10" d="M 110.441406 219.949219 L 120.949219 219.949219 Z M 110.441406 219.949219 "/>
<path fill-rule="nonzero" fill="rgb(17.254902%, 49.803922%, 72.156863%)" fill-opacity="0.501961" stroke-width="1.357972" stroke-linecap="butt" stroke-linejoin="miter" stroke="rgb(100%, 100%, 100%)" stroke-opacity="1" stroke-miterlimit="10" d="M 120.949219 219.949219 L 131.457031 219.949219 L 131.457031 218.949219 L 120.949219 218.949219 Z M 120.949219 219.949219 "/>
<path fill-rule="nonzero" fill="rgb(17.254902%, 49.803922%, 72.156863%)" fill-opacity="0.501961" stroke-width="1.357972" stroke-linecap="butt" stroke-linejoin="miter" stroke="rgb(100%, 100%, 100%)" stroke-opacity="1" stroke-miterlimit="10" d="M 131.453125 219.949219 L 141.960938 219.949219 L 141.960938 217.730469 L 131.453125 217.730469 Z M 131.453125 219.949219 "/>
<path fill-rule="nonzero" fill="rgb(17.254902%, 49.803922%, 72.156863%)" fill-opacity="0.501961" stroke-width="1.357972" stroke-linecap="butt" stroke-linejoin="miter" stroke="rgb(100%, 100%, 100%)" stroke-opacity="1" stroke-miterlimit="10" d="M 141.960938 219.949219 L 152.46875 219.949219 L 152.46875 217.507812 L 141.960938 217.507812 Z M 141.960938 219.949219 "/>
<path fill-rule="nonzero" fill="rgb(17.254902%, 49.803922%, 72.156863%)" fill-opacity="0.501961" stroke-width="1.357972" stroke-linecap="butt" stroke-linejoin="miter" stroke="rgb(100%, 100%, 100%)" stroke-opacity="1" stroke-miterlimit="10" d="M 152.46875 219.949219 L 162.976562 219.949219 L 162.976562 213.183594 L 152.46875 213.183594 Z M 152.46875 219.949219 "/>
<path fill="none" stroke-width="1.357972" stroke-linecap="butt" stroke-linejoin="miter" stroke="rgb(100%, 100%, 100%)" stroke-opacity="1" stroke-miterlimit="10" d="M 162.972656 219.949219 L 173.480469 219.949219 Z M 162.972656 219.949219 "/>
<path fill-rule="nonzero" fill="rgb(17.254902%, 49.803922%, 72.156863%)" fill-opacity="0.501961" stroke-width="1.357972" stroke-linecap="butt" stroke-linejoin="miter" stroke="rgb(100%, 100%, 100%)" stroke-opacity="1" stroke-miterlimit="10" d="M 173.480469 219.949219 L 183.988281 219.949219 L 183.988281 210.742188 L 173.480469 210.742188 Z M 173.480469 219.949219 "/>
<path fill-rule="nonzero" fill="rgb(17.254902%, 49.803922%, 72.156863%)" fill-opacity="0.501961" stroke-width="1.357972" stroke-linecap="butt" stroke-linejoin="miter" stroke="rgb(100%, 100%, 100%)" stroke-opacity="1" stroke-miterlimit="10" d="M 183.988281 219.949219 L 194.496094 219.949219 L 194.496094 205.085938 L 183.988281 205.085938 Z M 183.988281 219.949219 "/>
<path fill-rule="nonzero" fill="rgb(17.254902%, 49.803922%, 72.156863%)" fill-opacity="0.501961" stroke-width="1.357972" stroke-linecap="butt" stroke-linejoin="miter" stroke="rgb(100%, 100%, 100%)" stroke-opacity="1" stroke-miterlimit="10" d="M 194.496094 219.949219 L 205.003906 219.949219 L 205.003906 195.878906 L 194.496094 195.878906 Z M 194.496094 219.949219 "/>
<path fill-rule="nonzero" fill="rgb(17.254902%, 49.803922%, 72.156863%)" fill-opacity="0.501961" stroke-width="1.357972" stroke-linecap="butt" stroke-linejoin="miter" stroke="rgb(100%, 100%, 100%)" stroke-opacity="1" stroke-miterlimit="10" d="M 205 219.949219 L 215.507812 219.949219 L 215.507812 187.5625 L 205 187.5625 Z M 205 219.949219 "/>
<path fill="none" stroke-width="1.357972" stroke-linecap="butt" stroke-linejoin="miter" stroke="rgb(100%, 100%, 100%)" stroke-opacity="1" stroke-miterlimit="10" d="M 215.507812 219.949219 L 226.015625 219.949219 Z M 215.507812 219.949219 "/>
<path fill-rule="nonzero" fill="rgb(17.254902%, 49.803922%, 72.156863%)" fill-opacity="0.501961" stroke-width="1.357972" stroke-linecap="butt" stroke-linejoin="miter" stroke="rgb(100%, 100%, 100%)" stroke-opacity="1" stroke-miterlimit="10" d="M 226.015625 219.949219 L 236.523438 219.949219 L 236.523438 170.703125 L 226.015625 170.703125 Z M 226.015625 219.949219 "/>
<path fill-rule="nonzero" fill="rgb(17.254902%, 49.803922%, 72.156863%)" fill-opacity="0.501961" stroke-width="1.357972" stroke-linecap="butt" stroke-linejoin="miter" stroke="rgb(100%, 100%, 100%)" stroke-opacity="1" stroke-miterlimit="10" d="M 236.519531 219.949219 L 247.027344 219.949219 L 247.027344 152.179688 L 236.519531 152.179688 Z M 236.519531 219.949219 "/>
<path fill-rule="nonzero" fill="rgb(17.254902%, 49.803922%, 72.156863%)" fill-opacity="0.501961" stroke-width="1.357972" stroke-linecap="butt" stroke-linejoin="miter" stroke="rgb(100%, 100%, 100%)" stroke-opacity="1" stroke-miterlimit="10" d="M 247.027344 219.949219 L 257.535156 219.949219 L 257.535156 134.765625 L 247.027344 134.765625 Z M 247.027344 219.949219 "/>
<path fill-rule="nonzero" fill="rgb(17.254902%, 49.803922%, 72.156863%)" fill-opacity="0.501961" stroke-width="1.357972" stroke-linecap="butt" stroke-linejoin="miter" stroke="rgb(100%, 100%, 100%)" stroke-opacity="1" stroke-miterlimit="10" d="M 257.535156 219.949219 L 268.042969 219.949219 L 268.042969 109.363281 L 257.535156 109.363281 Z M 257.535156 219.949219 "/>
<path fill="none" stroke-width="1.357972" stroke-linecap="butt" stroke-linejoin="miter" stroke="rgb(100%, 100%, 100%)" stroke-opacity="1" stroke-miterlimit="10" d="M 268.039062 219.949219 L 278.546875 219.949219 Z M 268.039062 219.949219 "/>
<path fill-rule="nonzero" fill="rgb(17.254902%, 49.803922%, 72.156863%)" fill-opacity="0.501961" stroke-width="1.357972" stroke-linecap="butt" stroke-linejoin="miter" stroke="rgb(100%, 100%, 100%)" stroke-opacity="1" stroke-miterlimit="10" d="M 278.546875 219.949219 L 289.054688 219.949219 L 289.054688 98.492188 L 278.546875 98.492188 Z M 278.546875 219.949219 "/>
<path fill-rule="nonzero" fill="rgb(17.254902%, 49.803922%, 72.156863%)" fill-opacity="0.501961" stroke-width="1.357972" stroke-linecap="butt" stroke-linejoin="miter" stroke="rgb(100%, 100%, 100%)" stroke-opacity="1" stroke-miterlimit="10" d="M 289.054688 219.949219 L 299.5625 219.949219 L 299.5625 73.425781 L 289.054688 73.425781 Z M 289.054688 219.949219 "/>
<path fill-rule="nonzero" fill="rgb(17.254902%, 49.803922%, 72.156863%)" fill-opacity="0.501961" stroke-width="1.357972" stroke-linecap="butt" stroke-linejoin="miter" stroke="rgb(100%, 100%, 100%)" stroke-opacity="1" stroke-miterlimit="10" d="M 299.558594 219.949219 L 310.066406 219.949219 L 310.066406 57.789062 L 299.558594 57.789062 Z M 299.558594 219.949219 "/>
<path fill-rule="nonzero" fill="rgb(17.254902%, 49.803922%, 72.156863%)" fill-opacity="0.501961" stroke-width="1.357972" stroke-linecap="butt" stroke-linejoin="miter" stroke="rgb(100%, 100%, 100%)" stroke-opacity="1" stroke-miterlimit="10" d="M 310.066406 219.949219 L 320.574219 219.949219 L 320.574219 42.703125 L 310.066406 42.703125 Z M 310.066406 219.949219 "/>
<path fill="none" stroke-width="1.357972" stroke-linecap="butt" stroke-linejoin="miter" stroke="rgb(100%, 100%, 100%)" stroke-opacity="1" stroke-miterlimit="10" d="M 320.574219 219.949219 L 331.082031 219.949219 Z M 320.574219 219.949219 "/>
<path fill-rule="nonzero" fill="rgb(17.254902%, 49.803922%, 72.156863%)" fill-opacity="0.501961" stroke-width="1.357972" stroke-linecap="butt" stroke-linejoin="miter" stroke="rgb(100%, 100%, 100%)" stroke-opacity="1" stroke-miterlimit="10" d="M 331.082031 219.949219 L 341.589844 219.949219 L 341.589844 45.476562 L 331.082031 45.476562 Z M 331.082031 219.949219 "/>
<path fill-rule="nonzero" fill="rgb(17.254902%, 49.803922%, 72.156863%)" fill-opacity="0.501961" stroke-width="1.357972" stroke-linecap="butt" stroke-linejoin="miter" stroke="rgb(100%, 100%, 100%)" stroke-opacity="1" stroke-miterlimit="10" d="M 341.585938 219.949219 L 352.09375 219.949219 L 352.09375 40.484375 L 341.585938 40.484375 Z M 341.585938 219.949219 "/>
<path fill-rule="nonzero" fill="rgb(17.254902%, 49.803922%, 72.156863%)" fill-opacity="0.501961" stroke-width="1.357972" stroke-linecap="butt" stroke-linejoin="miter" stroke="rgb(100%, 100%, 100%)" stroke-opacity="1" stroke-miterlimit="10" d="M 352.09375 219.949219 L 362.601562 219.949219 L 362.601562 57.789062 L 352.09375 57.789062 Z M 352.09375 219.949219 "/>
<path fill-rule="nonzero" fill="rgb(17.254902%, 49.803922%, 72.156863%)" fill-opacity="0.501961" stroke-width="1.357972" stroke-linecap="butt" stroke-linejoin="miter" stroke="rgb(100%, 100%, 100%)" stroke-opacity="1" stroke-miterlimit="10" d="M 362.601562 219.949219 L 373.109375 219.949219 L 373.109375 71.207031 L 362.601562 71.207031 Z M 362.601562 219.949219 "/>
<path fill="none" stroke-width="1.357972" stroke-linecap="butt" stroke-linejoin="miter" stroke="rgb(100%, 100%, 100%)" stroke-opacity="1" stroke-miterlimit="10" d="M 373.105469 219.949219 L 383.613281 219.949219 Z M 373.105469 219.949219 "/>
<path fill-rule="nonzero" fill="rgb(17.254902%, 49.803922%, 72.156863%)" fill-opacity="0.501961" stroke-width="1.357972" stroke-linecap="butt" stroke-linejoin="miter" stroke="rgb(100%, 100%, 100%)" stroke-opacity="1" stroke-miterlimit="10" d="M 383.613281 219.949219 L 394.121094 219.949219 L 394.121094 89.398438 L 383.613281 89.398438 Z M 383.613281 219.949219 "/>
<path fill-rule="nonzero" fill="rgb(17.254902%, 49.803922%, 72.156863%)" fill-opacity="0.501961" stroke-width="1.357972" stroke-linecap="butt" stroke-linejoin="miter" stroke="rgb(100%, 100%, 100%)" stroke-opacity="1" stroke-miterlimit="10" d="M 394.121094 219.949219 L 404.628906 219.949219 L 404.628906 111.140625 L 394.121094 111.140625 Z M 394.121094 219.949219 "/>
<path fill-rule="nonzero" fill="rgb(17.254902%, 49.803922%, 72.156863%)" fill-opacity="0.501961" stroke-width="1.357972" stroke-linecap="butt" stroke-linejoin="miter" stroke="rgb(100%, 100%, 100%)" stroke-opacity="1" stroke-miterlimit="10" d="M 404.625 219.949219 L 415.132812 219.949219 L 415.132812 131.214844 L 404.625 131.214844 Z M 404.625 219.949219 "/>
<path fill-rule="nonzero" fill="rgb(17.254902%, 49.803922%, 72.156863%)" fill-opacity="0.501961" stroke-width="1.357972" stroke-linecap="butt" stroke-linejoin="miter" stroke="rgb(100%, 100%, 100%)" stroke-opacity="1" stroke-miterlimit="10" d="M 415.132812 219.949219 L 425.640625 219.949219 L 425.640625 153.507812 L 415.132812 153.507812 Z M 415.132812 219.949219 "/>
<path fill="none" stroke-width="1.357972" stroke-linecap="butt" stroke-linejoin="miter" stroke="rgb(100%, 100%, 100%)" stroke-opacity="1" stroke-miterlimit="10" d="M 425.640625 219.949219 L 436.148438 219.949219 Z M 425.640625 219.949219 "/>
<path fill-rule="nonzero" fill="rgb(17.254902%, 49.803922%, 72.156863%)" fill-opacity="0.501961" stroke-width="1.357972" stroke-linecap="butt" stroke-linejoin="miter" stroke="rgb(100%, 100%, 100%)" stroke-opacity="1" stroke-miterlimit="10" d="M 436.148438 219.949219 L 446.65625 219.949219 L 446.65625 175.136719 L 436.148438 175.136719 Z M 436.148438 219.949219 "/>
<path fill-rule="nonzero" fill="rgb(17.254902%, 49.803922%, 72.156863%)" fill-opacity="0.501961" stroke-width="1.357972" stroke-linecap="butt" stroke-linejoin="miter" stroke="rgb(100%, 100%, 100%)" stroke-opacity="1" stroke-miterlimit="10" d="M 446.652344 219.949219 L 457.160156 219.949219 L 457.160156 181.015625 L 446.652344 181.015625 Z M 446.652344 219.949219 "/>
<path fill-rule="nonzero" fill="rgb(17.254902%, 49.803922%, 72.156863%)" fill-opacity="0.501961" stroke-width="1.357972" stroke-linecap="butt" stroke-linejoin="miter" stroke="rgb(100%, 100%, 100%)" stroke-opacity="1" stroke-miterlimit="10" d="M 457.160156 219.949219 L 467.667969 219.949219 L 467.667969 198.320312 L 457.160156 198.320312 Z M 457.160156 219.949219 "/>
<path fill-rule="nonzero" fill="rgb(17.254902%, 49.803922%, 72.156863%)" fill-opacity="0.501961" stroke-width="1.357972" stroke-linecap="butt" stroke-linejoin="miter" stroke="rgb(100%, 100%, 100%)" stroke-opacity="1" stroke-miterlimit="10" d="M 467.667969 219.949219 L 478.175781 219.949219 L 478.175781 204.863281 L 467.667969 204.863281 Z M 467.667969 219.949219 "/>
<path fill="none" stroke-width="1.357972" stroke-linecap="butt" stroke-linejoin="miter" stroke="rgb(100%, 100%, 100%)" stroke-opacity="1" stroke-miterlimit="10" d="M 478.171875 219.949219 L 488.679688 219.949219 Z M 478.171875 219.949219 "/>
<path fill-rule="nonzero" fill="rgb(17.254902%, 49.803922%, 72.156863%)" fill-opacity="0.501961" stroke-width="1.357972" stroke-linecap="butt" stroke-linejoin="miter" stroke="rgb(100%, 100%, 100%)" stroke-opacity="1" stroke-miterlimit="10" d="M 488.679688 219.949219 L 499.1875 219.949219 L 499.1875 209.746094 L 488.679688 209.746094 Z M 488.679688 219.949219 "/>
<path fill-rule="nonzero" fill="rgb(17.254902%, 49.803922%, 72.156863%)" fill-opacity="0.501961" stroke-width="1.357972" stroke-linecap="butt" stroke-linejoin="miter" stroke="rgb(100%, 100%, 100%)" stroke-opacity="1" stroke-miterlimit="10" d="M 499.1875 219.949219 L 509.695312 219.949219 L 509.695312 211.964844 L 499.1875 211.964844 Z M 499.1875 219.949219 "/>
<path fill-rule="nonzero" fill="rgb(17.254902%, 49.803922%, 72.156863%)" fill-opacity="0.501961" stroke-width="1.357972" stroke-linecap="butt" stroke-linejoin="miter" stroke="rgb(100%, 100%, 100%)" stroke-opacity="1" stroke-miterlimit="10" d="M 509.691406 219.949219 L 520.199219 219.949219 L 520.199219 217.175781 L 509.691406 217.175781 Z M 509.691406 219.949219 "/>
<path fill-rule="nonzero" fill="rgb(17.254902%, 49.803922%, 72.156863%)" fill-opacity="0.501961" stroke-width="1.357972" stroke-linecap="butt" stroke-linejoin="miter" stroke="rgb(100%, 100%, 100%)" stroke-opacity="1" stroke-miterlimit="10" d="M 520.199219 219.949219 L 530.707031 219.949219 L 530.707031 217.730469 L 520.199219 217.730469 Z M 520.199219 219.949219 "/>
<path fill="none" stroke-width="1.357972" stroke-linecap="butt" stroke-linejoin="miter" stroke="rgb(100%, 100%, 100%)" stroke-opacity="1" stroke-miterlimit="10" d="M 530.707031 219.949219 L 541.214844 219.949219 Z M 530.707031 219.949219 "/>
<path fill-rule="nonzero" fill="rgb(17.254902%, 49.803922%, 72.156863%)" fill-opacity="0.501961" stroke-width="1.357972" stroke-linecap="butt" stroke-linejoin="miter" stroke="rgb(100%, 100%, 100%)" stroke-opacity="1" stroke-miterlimit="10" d="M 541.214844 219.949219 L 551.722656 219.949219 L 551.722656 219.394531 L 541.214844 219.394531 Z M 541.214844 219.949219 "/>
<path fill-rule="nonzero" fill="rgb(17.254902%, 49.803922%, 72.156863%)" fill-opacity="0.501961" stroke-width="1.357972" stroke-linecap="butt" stroke-linejoin="miter" stroke="rgb(100%, 100%, 100%)" stroke-opacity="1" stroke-miterlimit="10" d="M 551.71875 219.949219 L 562.226562 219.949219 L 562.226562 219.394531 L 551.71875 219.394531 Z M 551.71875 219.949219 "/>
<path fill-rule="nonzero" fill="rgb(17.254902%, 49.803922%, 72.156863%)" fill-opacity="0.501961" stroke-width="1.357972" stroke-linecap="butt" stroke-linejoin="miter" stroke="rgb(100%, 100%, 100%)" stroke-opacity="1" stroke-miterlimit="10" d="M 562.226562 219.949219 L 572.734375 219.949219 L 572.734375 219.503906 L 562.226562 219.503906 Z M 562.226562 219.949219 "/>
<path fill="none" stroke-width="1.357972" stroke-linecap="butt" stroke-linejoin="miter" stroke="rgb(100%, 100%, 100%)" stroke-opacity="1" stroke-miterlimit="10" d="M 572.734375 219.949219 L 583.242188 219.949219 Z M 572.734375 219.949219 "/>
<path fill="none" stroke-width="1.357972" stroke-linecap="butt" stroke-linejoin="miter" stroke="rgb(100%, 100%, 100%)" stroke-opacity="1" stroke-miterlimit="10" d="M 583.238281 219.949219 L 593.746094 219.949219 Z M 583.238281 219.949219 "/>
<path fill="none" stroke-width="1.357972" stroke-linecap="butt" stroke-linejoin="miter" stroke="rgb(100%, 100%, 100%)" stroke-opacity="1" stroke-miterlimit="10" d="M 593.746094 219.949219 L 604.253906 219.949219 Z M 593.746094 219.949219 "/>
<path fill-rule="nonzero" fill="rgb(17.254902%, 49.803922%, 72.156863%)" fill-opacity="0.501961" stroke-width="1.357972" stroke-linecap="butt" stroke-linejoin="miter" stroke="rgb(100%, 100%, 100%)" stroke-opacity="1" stroke-miterlimit="10" d="M 604.253906 219.949219 L 614.761719 219.949219 L 614.761719 219.839844 L 604.253906 219.839844 Z M 604.253906 219.949219 "/>
<path fill="none" stroke-width="2.133957" stroke-linecap="butt" stroke-linejoin="round" stroke="rgb(84.313725%, 18.823529%, 12.156863%)" stroke-opacity="1" stroke-miterlimit="10" d="M 94.679688 219.742188 L 99.828125 219.679688 L 104.976562 219.59375 L 110.125 219.484375 L 115.273438 219.34375 L 120.421875 219.167969 L 125.570312 218.949219 L 130.71875 218.671875 L 135.867188 218.332031 L 141.015625 217.910156 L 146.164062 217.394531 L 151.3125 216.769531 L 156.460938 216.015625 L 161.609375 215.113281 L 166.757812 214.039062 L 171.90625 212.773438 L 177.054688 211.285156 L 182.203125 209.550781 L 187.351562 207.550781 L 192.496094 205.253906 L 197.644531 202.640625 L 202.792969 199.683594 L 207.941406 196.371094 L 213.089844 192.679688 L 218.238281 188.609375 L 223.386719 184.148438 L 228.535156 179.304688 L 233.683594 174.085938 L 238.832031 168.515625 L 243.980469 162.621094 L 249.128906 156.445312 L 254.277344 150.03125 L 259.425781 143.441406 L 264.574219 136.746094 L 269.722656 130.019531 L 274.871094 123.34375 L 280.019531 116.804688 L 285.167969 110.5 L 290.316406 104.523438 L 295.464844 98.964844 L 300.609375 93.914062 L 305.757812 89.460938 L 310.90625 85.671875 L 316.054688 82.625 L 321.203125 80.367188 L 326.351562 78.941406 L 331.5 78.371094 L 336.648438 78.671875 L 341.796875 79.835938 L 346.945312 81.84375 L 352.09375 84.652344 L 357.242188 88.21875 L 362.390625 92.476562 L 367.539062 97.351562 L 372.6875 102.765625 L 377.835938 108.621094 L 382.984375 114.835938 L 388.132812 121.3125 L 393.28125 127.953125 L 398.429688 134.675781 L 403.578125 141.390625 L 408.722656 148.019531 L 413.871094 154.492188 L 419.019531 160.75 L 424.167969 166.734375 L 429.316406 172.40625 L 434.464844 177.738281 L 439.613281 182.699219 L 444.761719 187.277344 L 449.910156 191.46875 L 455.058594 195.277344 L 460.207031 198.703125 L 465.355469 201.769531 L 470.503906 204.484375 L 475.652344 206.878906 L 480.800781 208.964844 L 485.949219 210.777344 L 491.097656 212.339844 L 496.246094 213.671875 L 501.394531 214.804688 L 506.542969 215.757812 L 511.691406 216.554688 L 516.835938 217.214844 L 521.984375 217.761719 L 527.132812 218.210938 L 532.28125 218.574219 L 537.429688 218.871094 L 542.578125 219.105469 L 547.726562 219.296875 L 552.875 219.445312 L 558.023438 219.5625 L 563.171875 219.652344 L 568.320312 219.726562 L 573.46875 219.78125 L 578.617188 219.824219 L 583.765625 219.855469 L 588.914062 219.878906 L 594.0625 219.898438 L 604.359375 219.921875 L 609.507812 219.929688 "/>
<g clip-path="url(#clip-20)">
<path fill="none" stroke-width="2.133957" stroke-linecap="butt" stroke-linejoin="round" stroke="rgb(25.490196%, 67.058824%, 36.470588%)" stroke-opacity="1" stroke-dasharray="8.535827 8.535827" stroke-miterlimit="10" d="M 398.296875 228.921875 L 398.296875 31.507812 "/>
</g>
<g fill="rgb(25.490196%, 67.058824%, 36.470588%)" fill-opacity="1">
<use xlink:href="#glyph-0-0" x="411.496094" y="119.601562"/>
<use xlink:href="#glyph-0-1" x="418.609283" y="119.601562"/>
<use xlink:href="#glyph-0-2" x="426.556049" y="119.601562"/>
<use xlink:href="#glyph-0-3" x="436.336683" y="119.601562"/>
<use xlink:href="#glyph-0-4" x="443.449872" y="119.601562"/>
<use xlink:href="#glyph-0-5" x="451.750908" y="119.601562"/>
<use xlink:href="#glyph-0-6" x="455.703452" y="119.601562"/>
<use xlink:href="#glyph-0-7" x="459.655995" y="119.601562"/>
<use xlink:href="#glyph-0-8" x="469.144878" y="119.601562"/>
<use xlink:href="#glyph-0-9" x="473.882373" y="119.601562"/>
<use xlink:href="#glyph-0-10" x="483.371256" y="119.601562"/>
<use xlink:href="#glyph-0-11" x="491.679239" y="119.601562"/>
<use xlink:href="#glyph-0-12" x="499.591272" y="119.601562"/>
<use xlink:href="#glyph-0-6" x="504.328767" y="119.601562"/>
<use xlink:href="#glyph-0-13" x="508.281311" y="119.601562"/>
<use xlink:href="#glyph-0-6" x="516.589293" y="119.601562"/>
<use xlink:href="#glyph-0-14" x="520.541836" y="119.601562"/>
<use xlink:href="#glyph-0-15" x="528.45387" y="119.601562"/>
<use xlink:href="#glyph-0-5" x="536.365903" y="119.601562"/>
<use xlink:href="#glyph-0-16" x="540.318447" y="119.601562"/>
<use xlink:href="#glyph-0-17" x="548.23048" y="119.601562"/>
</g>
<g fill="rgb(30.196078%, 30.196078%, 30.196078%)" fill-opacity="1">
<use xlink:href="#glyph-1-0" x="25.429688" y="224.457031"/>
<use xlink:href="#glyph-1-1" x="31.658594" y="224.457031"/>
<use xlink:href="#glyph-1-2" x="37.8875" y="224.457031"/>
<use xlink:href="#glyph-1-0" x="44.428125" y="224.457031"/>
<use xlink:href="#glyph-1-0" x="50.657031" y="224.457031"/>
</g>
<g fill="rgb(30.196078%, 30.196078%, 30.196078%)" fill-opacity="1">
<use xlink:href="#glyph-1-3" x="28.242188" y="189.144531"/>
<use xlink:href="#glyph-1-1" x="34.471094" y="189.144531"/>
<use xlink:href="#glyph-1-4" x="40.7" y="189.144531"/>
<use xlink:href="#glyph-1-0" x="44.429688" y="189.144531"/>
<use xlink:href="#glyph-1-5" x="50.658594" y="189.144531"/>
</g>
<g fill="rgb(30.196078%, 30.196078%, 30.196078%)" fill-opacity="1">
<use xlink:href="#glyph-1-6" x="28.242188" y="153.832031"/>
<use xlink:href="#glyph-1-1" x="34.471094" y="153.832031"/>
<use xlink:href="#glyph-1-4" x="40.7" y="153.832031"/>
<use xlink:href="#glyph-1-0" x="44.429688" y="153.832031"/>
<use xlink:href="#glyph-1-5" x="50.658594" y="153.832031"/>
</g>
<g fill="rgb(30.196078%, 30.196078%, 30.196078%)" fill-opacity="1">
<use xlink:href="#glyph-1-7" x="28.242188" y="118.519531"/>
<use xlink:href="#glyph-1-1" x="34.471094" y="118.519531"/>
<use xlink:href="#glyph-1-4" x="40.7" y="118.519531"/>
<use xlink:href="#glyph-1-0" x="44.429688" y="118.519531"/>
<use xlink:href="#glyph-1-5" x="50.658594" y="118.519531"/>
</g>
<g fill="rgb(30.196078%, 30.196078%, 30.196078%)" fill-opacity="1">
<use xlink:href="#glyph-1-5" x="28.242188" y="83.207031"/>
<use xlink:href="#glyph-1-1" x="34.471094" y="83.207031"/>
<use xlink:href="#glyph-1-4" x="40.7" y="83.207031"/>
<use xlink:href="#glyph-1-0" x="44.429688" y="83.207031"/>
<use xlink:href="#glyph-1-5" x="50.658594" y="83.207031"/>
</g>
<g fill="rgb(30.196078%, 30.196078%, 30.196078%)" fill-opacity="1">
<use xlink:href="#glyph-1-8" x="28.242188" y="47.894531"/>
<use xlink:href="#glyph-1-1" x="34.471094" y="47.894531"/>
<use xlink:href="#glyph-1-4" x="40.7" y="47.894531"/>
<use xlink:href="#glyph-1-0" x="44.429688" y="47.894531"/>
<use xlink:href="#glyph-1-5" x="50.658594" y="47.894531"/>
</g>
<g fill="rgb(30.196078%, 30.196078%, 30.196078%)" fill-opacity="1">
<use xlink:href="#glyph-1-4" x="119.957031" y="244.214844"/>
<use xlink:href="#glyph-1-5" x="123.686719" y="244.214844"/>
<use xlink:href="#glyph-1-0" x="129.915625" y="244.214844"/>
<use xlink:href="#glyph-1-0" x="136.144531" y="244.214844"/>
<use xlink:href="#glyph-1-0" x="142.373437" y="244.214844"/>
</g>
<g fill="rgb(30.196078%, 30.196078%, 30.196078%)" fill-opacity="1">
<use xlink:href="#glyph-1-4" x="251.964844" y="244.214844"/>
<use xlink:href="#glyph-1-6" x="255.694531" y="244.214844"/>
<use xlink:href="#glyph-1-0" x="261.923438" y="244.214844"/>
<use xlink:href="#glyph-1-0" x="268.152344" y="244.214844"/>
<use xlink:href="#glyph-1-0" x="274.38125" y="244.214844"/>
</g>
<g fill="rgb(30.196078%, 30.196078%, 30.196078%)" fill-opacity="1">
<use xlink:href="#glyph-1-0" x="395.183594" y="244.214844"/>
</g>
<g fill="rgb(30.196078%, 30.196078%, 30.196078%)" fill-opacity="1">
<use xlink:href="#glyph-1-6" x="517.84375" y="244.214844"/>
<use xlink:href="#glyph-1-0" x="524.072656" y="244.214844"/>
<use xlink:href="#glyph-1-0" x="530.301563" y="244.214844"/>
<use xlink:href="#glyph-1-0" x="536.530469" y="244.214844"/>
</g>
<g fill="rgb(0%, 0%, 0%)" fill-opacity="1">
<use xlink:href="#glyph-2-0" x="285.941406" y="262.078125"/>
<use xlink:href="#glyph-2-1" x="296.051758" y="262.078125"/>
<use xlink:href="#glyph-2-2" x="303.051758" y="262.078125"/>
<use xlink:href="#glyph-2-3" x="312.676758" y="262.078125"/>
<use xlink:href="#glyph-2-4" x="320.462891" y="262.078125"/>
<use xlink:href="#glyph-2-5" x="328.249023" y="262.078125"/>
<use xlink:href="#glyph-2-6" x="335.980469" y="262.078125"/>
<use xlink:href="#glyph-2-7" x="343.800781" y="262.078125"/>
<use xlink:href="#glyph-2-8" x="351.621094" y="262.078125"/>
<use xlink:href="#glyph-2-9" x="355.510742" y="262.078125"/>
<use xlink:href="#glyph-2-6" x="362.948242" y="262.078125"/>
<use xlink:href="#glyph-2-10" x="370.768555" y="262.078125"/>
<use xlink:href="#glyph-2-4" x="375.875" y="262.078125"/>
<use xlink:href="#glyph-2-3" x="383.661133" y="262.078125"/>
<use xlink:href="#glyph-2-11" x="391.447266" y="262.078125"/>
<use xlink:href="#glyph-2-12" x="402.678711" y="262.078125"/>
<use xlink:href="#glyph-2-8" x="406.568359" y="262.078125"/>
<use xlink:href="#glyph-2-13" x="410.458008" y="262.078125"/>
</g>
<g fill="rgb(0%, 0%, 0%)" fill-opacity="1">
<use xlink:href="#glyph-3-0" x="17.996094" y="161.839844"/>
<use xlink:href="#glyph-3-1" x="17.996094" y="148.714844"/>
<use xlink:href="#glyph-3-2" x="17.996094" y="145.604492"/>
<use xlink:href="#glyph-3-3" x="17.996094" y="137.435547"/>
<use xlink:href="#glyph-3-4" x="17.996094" y="130.141602"/>
<use xlink:href="#glyph-3-1" x="17.996094" y="122.410156"/>
<use xlink:href="#glyph-3-5" x="17.996094" y="119.299805"/>
<use xlink:href="#glyph-3-6" x="17.996094" y="112.299805"/>
<use xlink:href="#glyph-3-3" x="17.996094" y="105.887695"/>
</g>
<g fill="rgb(0%, 0%, 0%)" fill-opacity="1">
<use xlink:href="#glyph-4-0" x="63.160156" y="20"/>
<use xlink:href="#glyph-4-1" x="74.365625" y="20"/>
<use xlink:href="#glyph-4-1" x="86.965625" y="20"/>
<use xlink:href="#glyph-4-1" x="99.565625" y="20"/>
<use xlink:href="#glyph-4-2" x="112.165625" y="20"/>
<use xlink:href="#glyph-4-3" x="116.833203" y="20"/>
<use xlink:href="#glyph-4-4" x="121.500781" y="20"/>
<use xlink:href="#glyph-4-5" x="129.900781" y="20"/>
<use xlink:href="#glyph-4-6" x="139.285156" y="20"/>
<use xlink:href="#glyph-4-7" x="150.835156" y="20"/>
<use xlink:href="#glyph-4-8" x="159.235156" y="20"/>
<use xlink:href="#glyph-4-9" x="169.037891" y="20"/>
<use xlink:href="#glyph-4-10" x="178.135156" y="20"/>
<use xlink:href="#glyph-4-11" x="187.757422" y="20"/>
<use xlink:href="#glyph-4-9" x="191.489844" y="20"/>
<use xlink:href="#glyph-4-3" x="200.587109" y="20"/>
<use xlink:href="#glyph-4-12" x="205.254688" y="20"/>
<use xlink:href="#glyph-4-13" x="213.654688" y="20"/>
<use xlink:href="#glyph-4-3" x="222.054688" y="20"/>
<use xlink:href="#glyph-4-14" x="226.722266" y="20"/>
<use xlink:href="#glyph-4-15" x="238.854688" y="20"/>
<use xlink:href="#glyph-4-16" x="244.449219" y="20"/>
<use xlink:href="#glyph-4-17" x="254.260156" y="20"/>
<use xlink:href="#glyph-4-18" x="263.603516" y="20"/>
<use xlink:href="#glyph-4-18" x="272.946875" y="20"/>
<use xlink:href="#glyph-4-18" x="282.290234" y="20"/>
<use xlink:href="#glyph-4-19" x="291.633594" y="20"/>
<use xlink:href="#glyph-4-3" x="296.301172" y="20"/>
<use xlink:href="#glyph-4-20" x="300.96875" y="20"/>
<use xlink:href="#glyph-4-20" x="310.312109" y="20"/>
<use xlink:href="#glyph-4-21" x="319.655469" y="20"/>
<use xlink:href="#glyph-4-22" x="328.998828" y="20"/>
<use xlink:href="#glyph-4-23" x="334.593359" y="20"/>
</g>
</svg>
