<?xml version="1.0" encoding="utf-8" standalone="no"?>
<!DOCTYPE svg PUBLIC "-//W3C//DTD SVG 1.1//EN"
  "http://www.w3.org/Graphics/SVG/1.1/DTD/svg11.dtd">
<svg xmlns:xlink="http://www.w3.org/1999/xlink" width="1073.004688pt" height="280.88625pt" viewBox="0 0 1073.004688 280.88625" xmlns="http://www.w3.org/2000/svg" version="1.1">
 <metadata>
  <rdf:RDF xmlns:dc="http://purl.org/dc/elements/1.1/" xmlns:cc="http://creativecommons.org/ns#" xmlns:rdf="http://www.w3.org/1999/02/22-rdf-syntax-ns#">
   <cc:Work>
    <dc:type rdf:resource="http://purl.org/dc/dcmitype/StillImage"/>
    <dc:date>2025-04-28T14:38:51.349692</dc:date>
    <dc:format>image/svg+xml</dc:format>
    <dc:creator>
     <cc:Agent>
      <dc:title>Matplotlib v3.7.2, https://matplotlib.org/</dc:title>
     </cc:Agent>
    </dc:creator>
   </cc:Work>
  </rdf:RDF>
 </metadata>
 <defs>
  <style type="text/css">*{stroke-linejoin: round; stroke-linecap: butt}</style>
 </defs>
 <g id="figure_1">
  <g id="patch_1">
   <path d="M 0 280.88625 
L 1073.004688 280.88625 
L 1073.004688 0 
L 0 0 
z
" style="fill: #ffffff"/>
  </g>
  <g id="axes_1">
   <g id="patch_2">
    <path d="M 38.467188 244.395625 
L 263.904687 244.395625 
L 263.904687 21.995625 
L 38.467188 21.995625 
z
" style="fill: #ffffff"/>
   </g>
   <g id="matplotlib.axis_1">
    <g id="xtick_1">
     <g id="line2d_1">
      <path d="M 48.714347 244.395625 
L 48.714347 21.995625 
" clip-path="url(#p2b3f88ad28)" style="fill: none; stroke: #cccccc; stroke-width: 0.8; stroke-linecap: round"/>
     </g>
     <g id="text_1">
      <!-- 4 -->
      <g style="fill: #262626" transform="translate(45.933878 258.553437) scale(0.1 -0.1)">
       <defs>
        <path id="ArialMT-34" d="M 2069 0 
L 2069 1097 
L 81 1097 
L 81 1613 
L 2172 4581 
L 2631 4581 
L 2631 1613 
L 3250 1613 
L 3250 1097 
L 2631 1097 
L 2631 0 
L 2069 0 
z
M 2069 1613 
L 2069 3678 
L 634 1613 
L 2069 1613 
z
" transform="scale(0.015625)"/>
       </defs>
       <use xlink:href="#ArialMT-34"/>
      </g>
     </g>
    </g>
    <g id="xtick_2">
     <g id="line2d_2">
      <path d="M 89.702983 244.395625 
L 89.702983 21.995625 
" clip-path="url(#p2b3f88ad28)" style="fill: none; stroke: #cccccc; stroke-width: 0.8; stroke-linecap: round"/>
     </g>
     <g id="text_2">
      <!-- 6 -->
      <g style="fill: #262626" transform="translate(86.922514 258.553437) scale(0.1 -0.1)">
       <defs>
        <path id="ArialMT-36" d="M 3184 3459 
L 2625 3416 
Q 2550 3747 2413 3897 
Q 2184 4138 1850 4138 
Q 1581 4138 1378 3988 
Q 1113 3794 959 3422 
Q 806 3050 800 2363 
Q 1003 2672 1297 2822 
Q 1591 2972 1913 2972 
Q 2475 2972 2870 2558 
Q 3266 2144 3266 1488 
Q 3266 1056 3080 686 
Q 2894 316 2569 119 
Q 2244 -78 1831 -78 
Q 1128 -78 684 439 
Q 241 956 241 2144 
Q 241 3472 731 4075 
Q 1159 4600 1884 4600 
Q 2425 4600 2770 4297 
Q 3116 3994 3184 3459 
z
M 888 1484 
Q 888 1194 1011 928 
Q 1134 663 1356 523 
Q 1578 384 1822 384 
Q 2178 384 2434 671 
Q 2691 959 2691 1453 
Q 2691 1928 2437 2201 
Q 2184 2475 1800 2475 
Q 1419 2475 1153 2201 
Q 888 1928 888 1484 
z
" transform="scale(0.015625)"/>
       </defs>
       <use xlink:href="#ArialMT-36"/>
      </g>
     </g>
    </g>
    <g id="xtick_3">
     <g id="line2d_3">
      <path d="M 130.691619 244.395625 
L 130.691619 21.995625 
" clip-path="url(#p2b3f88ad28)" style="fill: none; stroke: #cccccc; stroke-width: 0.8; stroke-linecap: round"/>
     </g>
     <g id="text_3">
      <!-- 8 -->
      <g style="fill: #262626" transform="translate(127.911151 258.553437) scale(0.1 -0.1)">
       <defs>
        <path id="ArialMT-38" d="M 1131 2484 
Q 781 2613 612 2850 
Q 444 3088 444 3419 
Q 444 3919 803 4259 
Q 1163 4600 1759 4600 
Q 2359 4600 2725 4251 
Q 3091 3903 3091 3403 
Q 3091 3084 2923 2848 
Q 2756 2613 2416 2484 
Q 2838 2347 3058 2040 
Q 3278 1734 3278 1309 
Q 3278 722 2862 322 
Q 2447 -78 1769 -78 
Q 1091 -78 675 323 
Q 259 725 259 1325 
Q 259 1772 486 2073 
Q 713 2375 1131 2484 
z
M 1019 3438 
Q 1019 3113 1228 2906 
Q 1438 2700 1772 2700 
Q 2097 2700 2305 2904 
Q 2513 3109 2513 3406 
Q 2513 3716 2298 3927 
Q 2084 4138 1766 4138 
Q 1444 4138 1231 3931 
Q 1019 3725 1019 3438 
z
M 838 1322 
Q 838 1081 952 856 
Q 1066 631 1291 507 
Q 1516 384 1775 384 
Q 2178 384 2440 643 
Q 2703 903 2703 1303 
Q 2703 1709 2433 1975 
Q 2163 2241 1756 2241 
Q 1359 2241 1098 1978 
Q 838 1716 838 1322 
z
" transform="scale(0.015625)"/>
       </defs>
       <use xlink:href="#ArialMT-38"/>
      </g>
     </g>
    </g>
    <g id="xtick_4">
     <g id="line2d_4">
      <path d="M 171.680256 244.395625 
L 171.680256 21.995625 
" clip-path="url(#p2b3f88ad28)" style="fill: none; stroke: #cccccc; stroke-width: 0.8; stroke-linecap: round"/>
     </g>
     <g id="text_4">
      <!-- 10 -->
      <g style="fill: #262626" transform="translate(166.119318 258.553437) scale(0.1 -0.1)">
       <defs>
        <path id="ArialMT-31" d="M 2384 0 
L 1822 0 
L 1822 3584 
Q 1619 3391 1289 3197 
Q 959 3003 697 2906 
L 697 3450 
Q 1169 3672 1522 3987 
Q 1875 4303 2022 4600 
L 2384 4600 
L 2384 0 
z
" transform="scale(0.015625)"/>
        <path id="ArialMT-30" d="M 266 2259 
Q 266 3072 433 3567 
Q 600 4063 929 4331 
Q 1259 4600 1759 4600 
Q 2128 4600 2406 4451 
Q 2684 4303 2865 4023 
Q 3047 3744 3150 3342 
Q 3253 2941 3253 2259 
Q 3253 1453 3087 958 
Q 2922 463 2592 192 
Q 2263 -78 1759 -78 
Q 1097 -78 719 397 
Q 266 969 266 2259 
z
M 844 2259 
Q 844 1131 1108 757 
Q 1372 384 1759 384 
Q 2147 384 2411 759 
Q 2675 1134 2675 2259 
Q 2675 3391 2411 3762 
Q 2147 4134 1753 4134 
Q 1366 4134 1134 3806 
Q 844 3388 844 2259 
z
" transform="scale(0.015625)"/>
       </defs>
       <use xlink:href="#ArialMT-31"/>
       <use xlink:href="#ArialMT-30" x="55.615234"/>
      </g>
     </g>
    </g>
    <g id="xtick_5">
     <g id="line2d_5">
      <path d="M 212.668892 244.395625 
L 212.668892 21.995625 
" clip-path="url(#p2b3f88ad28)" style="fill: none; stroke: #cccccc; stroke-width: 0.8; stroke-linecap: round"/>
     </g>
     <g id="text_5">
      <!-- 12 -->
      <g style="fill: #262626" transform="translate(207.107955 258.553437) scale(0.1 -0.1)">
       <defs>
        <path id="ArialMT-32" d="M 3222 541 
L 3222 0 
L 194 0 
Q 188 203 259 391 
Q 375 700 629 1000 
Q 884 1300 1366 1694 
Q 2113 2306 2375 2664 
Q 2638 3022 2638 3341 
Q 2638 3675 2398 3904 
Q 2159 4134 1775 4134 
Q 1369 4134 1125 3890 
Q 881 3647 878 3216 
L 300 3275 
Q 359 3922 746 4261 
Q 1134 4600 1788 4600 
Q 2447 4600 2831 4234 
Q 3216 3869 3216 3328 
Q 3216 3053 3103 2787 
Q 2991 2522 2730 2228 
Q 2469 1934 1863 1422 
Q 1356 997 1212 845 
Q 1069 694 975 541 
L 3222 541 
z
" transform="scale(0.015625)"/>
       </defs>
       <use xlink:href="#ArialMT-31"/>
       <use xlink:href="#ArialMT-32" x="55.615234"/>
      </g>
     </g>
    </g>
    <g id="xtick_6">
     <g id="line2d_6">
      <path d="M 253.657528 244.395625 
L 253.657528 21.995625 
" clip-path="url(#p2b3f88ad28)" style="fill: none; stroke: #cccccc; stroke-width: 0.8; stroke-linecap: round"/>
     </g>
     <g id="text_6">
      <!-- 14 -->
      <g style="fill: #262626" transform="translate(248.096591 258.553437) scale(0.1 -0.1)">
       <use xlink:href="#ArialMT-31"/>
       <use xlink:href="#ArialMT-34" x="55.615234"/>
      </g>
     </g>
    </g>
    <g id="text_7">
     <!-- x -->
     <g style="fill: #262626" transform="translate(148.685937 271.69875) scale(0.1 -0.1)">
      <defs>
       <path id="ArialMT-78" d="M 47 0 
L 1259 1725 
L 138 3319 
L 841 3319 
L 1350 2541 
Q 1494 2319 1581 2169 
Q 1719 2375 1834 2534 
L 2394 3319 
L 3066 3319 
L 1919 1756 
L 3153 0 
L 2463 0 
L 1781 1031 
L 1600 1309 
L 728 0 
L 47 0 
z
" transform="scale(0.015625)"/>
      </defs>
      <use xlink:href="#ArialMT-78"/>
     </g>
    </g>
   </g>
   <g id="matplotlib.axis_2">
    <g id="ytick_1">
     <g id="line2d_7">
      <path d="M 38.467188 242.275481 
L 263.904687 242.275481 
" clip-path="url(#p2b3f88ad28)" style="fill: none; stroke: #cccccc; stroke-width: 0.8; stroke-linecap: round"/>
     </g>
     <g id="text_8">
      <!-- 4 -->
      <g style="fill: #262626" transform="translate(25.90625 245.854388) scale(0.1 -0.1)">
       <use xlink:href="#ArialMT-34"/>
      </g>
     </g>
    </g>
    <g id="ytick_2">
     <g id="line2d_8">
      <path d="M 38.467188 211.548761 
L 263.904687 211.548761 
" clip-path="url(#p2b3f88ad28)" style="fill: none; stroke: #cccccc; stroke-width: 0.8; stroke-linecap: round"/>
     </g>
     <g id="text_9">
      <!-- 5 -->
      <g style="fill: #262626" transform="translate(25.90625 215.127667) scale(0.1 -0.1)">
       <defs>
        <path id="ArialMT-35" d="M 266 1200 
L 856 1250 
Q 922 819 1161 601 
Q 1400 384 1738 384 
Q 2144 384 2425 690 
Q 2706 997 2706 1503 
Q 2706 1984 2436 2262 
Q 2166 2541 1728 2541 
Q 1456 2541 1237 2417 
Q 1019 2294 894 2097 
L 366 2166 
L 809 4519 
L 3088 4519 
L 3088 3981 
L 1259 3981 
L 1013 2750 
Q 1425 3038 1878 3038 
Q 2478 3038 2890 2622 
Q 3303 2206 3303 1553 
Q 3303 931 2941 478 
Q 2500 -78 1738 -78 
Q 1113 -78 717 272 
Q 322 622 266 1200 
z
" transform="scale(0.015625)"/>
       </defs>
       <use xlink:href="#ArialMT-35"/>
      </g>
     </g>
    </g>
    <g id="ytick_3">
     <g id="line2d_9">
      <path d="M 38.467188 180.822041 
L 263.904687 180.822041 
" clip-path="url(#p2b3f88ad28)" style="fill: none; stroke: #cccccc; stroke-width: 0.8; stroke-linecap: round"/>
     </g>
     <g id="text_10">
      <!-- 6 -->
      <g style="fill: #262626" transform="translate(25.90625 184.400947) scale(0.1 -0.1)">
       <use xlink:href="#ArialMT-36"/>
      </g>
     </g>
    </g>
    <g id="ytick_4">
     <g id="line2d_10">
      <path d="M 38.467188 150.095321 
L 263.904687 150.095321 
" clip-path="url(#p2b3f88ad28)" style="fill: none; stroke: #cccccc; stroke-width: 0.8; stroke-linecap: round"/>
     </g>
     <g id="text_11">
      <!-- 7 -->
      <g style="fill: #262626" transform="translate(25.90625 153.674227) scale(0.1 -0.1)">
       <defs>
        <path id="ArialMT-37" d="M 303 3981 
L 303 4522 
L 3269 4522 
L 3269 4084 
Q 2831 3619 2401 2847 
Q 1972 2075 1738 1259 
Q 1569 684 1522 0 
L 944 0 
Q 953 541 1156 1306 
Q 1359 2072 1739 2783 
Q 2119 3494 2547 3981 
L 303 3981 
z
" transform="scale(0.015625)"/>
       </defs>
       <use xlink:href="#ArialMT-37"/>
      </g>
     </g>
    </g>
    <g id="ytick_5">
     <g id="line2d_11">
      <path d="M 38.467188 119.368601 
L 263.904687 119.368601 
" clip-path="url(#p2b3f88ad28)" style="fill: none; stroke: #cccccc; stroke-width: 0.8; stroke-linecap: round"/>
     </g>
     <g id="text_12">
      <!-- 8 -->
      <g style="fill: #262626" transform="translate(25.90625 122.947507) scale(0.1 -0.1)">
       <use xlink:href="#ArialMT-38"/>
      </g>
     </g>
    </g>
    <g id="ytick_6">
     <g id="line2d_12">
      <path d="M 38.467188 88.641881 
L 263.904687 88.641881 
" clip-path="url(#p2b3f88ad28)" style="fill: none; stroke: #cccccc; stroke-width: 0.8; stroke-linecap: round"/>
     </g>
     <g id="text_13">
      <!-- 9 -->
      <g style="fill: #262626" transform="translate(25.90625 92.220787) scale(0.1 -0.1)">
       <defs>
        <path id="ArialMT-39" d="M 350 1059 
L 891 1109 
Q 959 728 1153 556 
Q 1347 384 1650 384 
Q 1909 384 2104 503 
Q 2300 622 2425 820 
Q 2550 1019 2634 1356 
Q 2719 1694 2719 2044 
Q 2719 2081 2716 2156 
Q 2547 1888 2255 1720 
Q 1963 1553 1622 1553 
Q 1053 1553 659 1965 
Q 266 2378 266 3053 
Q 266 3750 677 4175 
Q 1088 4600 1706 4600 
Q 2153 4600 2523 4359 
Q 2894 4119 3086 3673 
Q 3278 3228 3278 2384 
Q 3278 1506 3087 986 
Q 2897 466 2520 194 
Q 2144 -78 1638 -78 
Q 1100 -78 759 220 
Q 419 519 350 1059 
z
M 2653 3081 
Q 2653 3566 2395 3850 
Q 2138 4134 1775 4134 
Q 1400 4134 1122 3828 
Q 844 3522 844 3034 
Q 844 2597 1108 2323 
Q 1372 2050 1759 2050 
Q 2150 2050 2401 2323 
Q 2653 2597 2653 3081 
z
" transform="scale(0.015625)"/>
       </defs>
       <use xlink:href="#ArialMT-39"/>
      </g>
     </g>
    </g>
    <g id="ytick_7">
     <g id="line2d_13">
      <path d="M 38.467188 57.915161 
L 263.904687 57.915161 
" clip-path="url(#p2b3f88ad28)" style="fill: none; stroke: #cccccc; stroke-width: 0.8; stroke-linecap: round"/>
     </g>
     <g id="text_14">
      <!-- 10 -->
      <g style="fill: #262626" transform="translate(20.345312 61.494067) scale(0.1 -0.1)">
       <use xlink:href="#ArialMT-31"/>
       <use xlink:href="#ArialMT-30" x="55.615234"/>
      </g>
     </g>
    </g>
    <g id="ytick_8">
     <g id="line2d_14">
      <path d="M 38.467188 27.188441 
L 263.904687 27.188441 
" clip-path="url(#p2b3f88ad28)" style="fill: none; stroke: #cccccc; stroke-width: 0.8; stroke-linecap: round"/>
     </g>
     <g id="text_15">
      <!-- 11 -->
      <g style="fill: #262626" transform="translate(21.082813 30.767347) scale(0.1 -0.1)">
       <use xlink:href="#ArialMT-31"/>
       <use xlink:href="#ArialMT-31" x="48.240234"/>
      </g>
     </g>
    </g>
    <g id="text_16">
     <!-- y -->
     <g style="fill: #262626" transform="translate(14.240625 135.695625) rotate(-90) scale(0.1 -0.1)">
      <defs>
       <path id="ArialMT-79" d="M 397 -1278 
L 334 -750 
Q 519 -800 656 -800 
Q 844 -800 956 -737 
Q 1069 -675 1141 -563 
Q 1194 -478 1313 -144 
Q 1328 -97 1363 -6 
L 103 3319 
L 709 3319 
L 1400 1397 
Q 1534 1031 1641 628 
Q 1738 1016 1872 1384 
L 2581 3319 
L 3144 3319 
L 1881 -56 
Q 1678 -603 1566 -809 
Q 1416 -1088 1222 -1217 
Q 1028 -1347 759 -1347 
Q 597 -1347 397 -1278 
z
" transform="scale(0.015625)"/>
      </defs>
      <use xlink:href="#ArialMT-79"/>
     </g>
    </g>
   </g>
   <g id="PathCollection_1">
    <defs>
     <path id="md37b4629fb" d="M 0 3 
C 0.795609 3 1.55874 2.683901 2.12132 2.12132 
C 2.683901 1.55874 3 0.795609 3 0 
C 3 -0.795609 2.683901 -1.55874 2.12132 -2.12132 
C 1.55874 -2.683901 0.795609 -3 0 -3 
C -0.795609 -3 -1.55874 -2.683901 -2.12132 -2.12132 
C -2.683901 -1.55874 -3 -0.795609 -3 0 
C -3 0.795609 -2.683901 1.55874 -2.12132 2.12132 
C -1.55874 2.683901 -0.795609 3 0 3 
z
" style="stroke: #447099; stroke-opacity: 0.8"/>
    </defs>
    <g clip-path="url(#p2b3f88ad28)">
     <use xlink:href="#md37b4629fb" x="171.680256" y="118.139532" style="fill: #447099; fill-opacity: 0.8; stroke: #447099; stroke-opacity: 0.8"/>
     <use xlink:href="#md37b4629fb" x="130.691619" y="151.631657" style="fill: #447099; fill-opacity: 0.8; stroke: #447099; stroke-opacity: 0.8"/>
     <use xlink:href="#md37b4629fb" x="233.16321" y="132.273823" style="fill: #447099; fill-opacity: 0.8; stroke: #447099; stroke-opacity: 0.8"/>
     <use xlink:href="#md37b4629fb" x="151.185937" y="94.479958" style="fill: #447099; fill-opacity: 0.8; stroke: #447099; stroke-opacity: 0.8"/>
     <use xlink:href="#md37b4629fb" x="192.174574" y="109.228783" style="fill: #447099; fill-opacity: 0.8; stroke: #447099; stroke-opacity: 0.8"/>
     <use xlink:href="#md37b4629fb" x="253.657528" y="59.14423" style="fill: #447099; fill-opacity: 0.8; stroke: #447099; stroke-opacity: 0.8"/>
     <use xlink:href="#md37b4629fb" x="89.702983" y="142.720908" style="fill: #447099; fill-opacity: 0.8; stroke: #447099; stroke-opacity: 0.8"/>
     <use xlink:href="#md37b4629fb" x="48.714347" y="234.286534" style="fill: #447099; fill-opacity: 0.8; stroke: #447099; stroke-opacity: 0.8"/>
     <use xlink:href="#md37b4629fb" x="212.668892" y="32.104716" style="fill: #447099; fill-opacity: 0.8; stroke: #447099; stroke-opacity: 0.8"/>
     <use xlink:href="#md37b4629fb" x="110.197301" y="217.079571" style="fill: #447099; fill-opacity: 0.8; stroke: #447099; stroke-opacity: 0.8"/>
     <use xlink:href="#md37b4629fb" x="69.208665" y="190.654592" style="fill: #447099; fill-opacity: 0.8; stroke: #447099; stroke-opacity: 0.8"/>
    </g>
   </g>
   <g id="line2d_15">
    <path d="M 48.714347 211.534795 
L 50.78448 209.982658 
L 52.854613 208.430521 
L 54.924746 206.878384 
L 56.994879 205.326248 
L 59.065012 203.774111 
L 61.135145 202.221974 
L 63.205279 200.669838 
L 65.275412 199.117701 
L 67.345545 197.565564 
L 69.415678 196.013427 
L 71.485811 194.461291 
L 73.555944 192.909154 
L 75.626078 191.357017 
L 77.696211 189.804881 
L 79.766344 188.252744 
L 81.836477 186.700607 
L 83.90661 185.148471 
L 85.976743 183.596334 
L 88.046876 182.044197 
L 90.11701 180.49206 
L 92.187143 178.939924 
L 94.257276 177.387787 
L 96.327409 175.83565 
L 98.397542 174.283514 
L 100.467675 172.731377 
L 102.537808 171.17924 
L 104.607942 169.627103 
L 106.678075 168.074967 
L 108.748208 166.52283 
L 110.818341 164.970693 
L 112.888474 163.418557 
L 114.958607 161.86642 
L 117.028741 160.314283 
L 119.098874 158.762147 
L 121.169007 157.21001 
L 123.23914 155.657873 
L 125.309273 154.105736 
L 127.379406 152.5536 
L 129.449539 151.001463 
L 131.519673 149.449326 
L 133.589806 147.89719 
L 135.659939 146.345053 
L 137.730072 144.792916 
L 139.800205 143.24078 
L 141.870338 141.688643 
L 143.940471 140.136506 
L 146.010605 138.584369 
L 148.080738 137.032233 
L 150.150871 135.480096 
L 152.221004 133.927959 
L 154.291137 132.375823 
L 156.36127 130.823686 
L 158.431404 129.271549 
L 160.501537 127.719412 
L 162.57167 126.167276 
L 164.641803 124.615139 
L 166.711936 123.063002 
L 168.782069 121.510866 
L 170.852202 119.958729 
L 172.922336 118.406592 
L 174.992469 116.854456 
L 177.062602 115.302319 
L 179.132735 113.750182 
L 181.202868 112.198045 
L 183.273001 110.645909 
L 185.343134 109.093772 
L 187.413268 107.541635 
L 189.483401 105.989499 
L 191.553534 104.437362 
L 193.623667 102.885225 
L 195.6938 101.333088 
L 197.763933 99.780952 
L 199.834067 98.228815 
L 201.9042 96.676678 
L 203.974333 95.124542 
L 206.044466 93.572405 
L 208.114599 92.020268 
L 210.184732 90.468132 
L 212.254865 88.915995 
L 214.324999 87.363858 
L 216.395132 85.811721 
L 218.465265 84.259585 
L 220.535398 82.707448 
L 222.605531 81.155311 
L 224.675664 79.603175 
L 226.745797 78.051038 
L 228.815931 76.498901 
L 230.886064 74.946764 
L 232.956197 73.394628 
L 235.02633 71.842491 
L 237.096463 70.290354 
L 239.166596 68.738218 
L 241.23673 67.186081 
L 243.306863 65.633944 
L 245.376996 64.081808 
L 247.447129 62.529671 
L 249.517262 60.977534 
L 251.587395 59.425397 
L 253.657528 57.873261 
" clip-path="url(#p2b3f88ad28)" style="fill: none; stroke: #447099; stroke-width: 2.25; stroke-linecap: round"/>
   </g>
   <g id="patch_3">
    <path d="M 38.467188 244.395625 
L 38.467188 21.995625 
" style="fill: none; stroke: #cccccc; stroke-width: 0.8; stroke-linejoin: miter; stroke-linecap: square"/>
   </g>
   <g id="patch_4">
    <path d="M 263.904687 244.395625 
L 263.904687 21.995625 
" style="fill: none; stroke: #cccccc; stroke-width: 0.8; stroke-linejoin: miter; stroke-linecap: square"/>
   </g>
   <g id="patch_5">
    <path d="M 38.467188 244.395625 
L 263.904688 244.395625 
" style="fill: none; stroke: #cccccc; stroke-width: 0.8; stroke-linejoin: miter; stroke-linecap: square"/>
   </g>
   <g id="patch_6">
    <path d="M 38.467188 21.995625 
L 263.904688 21.995625 
" style="fill: none; stroke: #cccccc; stroke-width: 0.8; stroke-linejoin: miter; stroke-linecap: square"/>
   </g>
   <g id="text_17">
    <!-- Набір даних I -->
    <g style="fill: #262626" transform="translate(113.907187 15.995625) scale(0.12 -0.12)">
     <defs>
      <path id="ArialMT-41d" d="M 513 0 
L 513 4581 
L 1119 4581 
L 1119 2700 
L 3500 2700 
L 3500 4581 
L 4106 4581 
L 4106 0 
L 3500 0 
L 3500 2159 
L 1119 2159 
L 1119 0 
L 513 0 
z
" transform="scale(0.015625)"/>
      <path id="ArialMT-430" d="M 2588 409 
Q 2275 144 1986 34 
Q 1697 -75 1366 -75 
Q 819 -75 525 192 
Q 231 459 231 875 
Q 231 1119 342 1320 
Q 453 1522 633 1644 
Q 813 1766 1038 1828 
Q 1203 1872 1538 1913 
Q 2219 1994 2541 2106 
Q 2544 2222 2544 2253 
Q 2544 2597 2384 2738 
Q 2169 2928 1744 2928 
Q 1347 2928 1158 2789 
Q 969 2650 878 2297 
L 328 2372 
Q 403 2725 575 2942 
Q 747 3159 1072 3276 
Q 1397 3394 1825 3394 
Q 2250 3394 2515 3294 
Q 2781 3194 2906 3042 
Q 3031 2891 3081 2659 
Q 3109 2516 3109 2141 
L 3109 1391 
Q 3109 606 3145 398 
Q 3181 191 3288 0 
L 2700 0 
Q 2613 175 2588 409 
z
M 2541 1666 
Q 2234 1541 1622 1453 
Q 1275 1403 1131 1340 
Q 988 1278 909 1158 
Q 831 1038 831 891 
Q 831 666 1001 516 
Q 1172 366 1500 366 
Q 1825 366 2078 508 
Q 2331 650 2450 897 
Q 2541 1088 2541 1459 
L 2541 1666 
z
" transform="scale(0.015625)"/>
      <path id="ArialMT-431" d="M 2853 4691 
L 3350 4684 
Q 3316 4350 3202 4219 
Q 3088 4088 2908 4050 
Q 2728 4013 2203 4013 
Q 1506 4013 1253 3878 
Q 1000 3744 889 3448 
Q 778 3153 766 2688 
Q 978 3003 1262 3161 
Q 1547 3319 1903 3319 
Q 2556 3319 2984 2870 
Q 3413 2422 3413 1656 
Q 3413 1075 3197 703 
Q 2981 331 2686 128 
Q 2391 -75 1881 -75 
Q 1291 -75 962 195 
Q 634 466 459 887 
Q 284 1309 284 2356 
Q 284 3672 729 4128 
Q 1175 4584 2100 4584 
Q 2675 4584 2753 4603 
Q 2831 4622 2853 4691 
z
M 2825 1672 
Q 2825 2191 2579 2522 
Q 2334 2853 1888 2853 
Q 1422 2853 1169 2503 
Q 916 2153 916 1569 
Q 916 991 1195 684 
Q 1475 378 1884 378 
Q 2303 378 2564 733 
Q 2825 1088 2825 1672 
z
" transform="scale(0.015625)"/>
      <path id="ArialMT-456" d="M 425 3934 
L 425 4581 
L 988 4581 
L 988 3934 
L 425 3934 
z
M 425 0 
L 425 3319 
L 988 3319 
L 988 0 
L 425 0 
z
" transform="scale(0.015625)"/>
      <path id="ArialMT-440" d="M 422 -1272 
L 422 3319 
L 934 3319 
L 934 2888 
Q 1116 3141 1344 3267 
Q 1572 3394 1897 3394 
Q 2322 3394 2647 3175 
Q 2972 2956 3137 2557 
Q 3303 2159 3303 1684 
Q 3303 1175 3120 767 
Q 2938 359 2589 142 
Q 2241 -75 1856 -75 
Q 1575 -75 1351 44 
Q 1128 163 984 344 
L 984 -1272 
L 422 -1272 
z
M 931 1641 
Q 931 1000 1190 694 
Q 1450 388 1819 388 
Q 2194 388 2461 705 
Q 2728 1022 2728 1688 
Q 2728 2322 2467 2637 
Q 2206 2953 1844 2953 
Q 1484 2953 1207 2617 
Q 931 2281 931 1641 
z
" transform="scale(0.015625)"/>
      <path id="ArialMT-20" transform="scale(0.015625)"/>
      <path id="ArialMT-434" d="M 866 3319 
L 3178 3319 
L 3178 463 
L 3538 463 
L 3538 -941 
L 3075 -941 
L 3075 0 
L 463 0 
L 463 -941 
L 0 -941 
L 0 463 
L 297 463 
Q 891 1269 866 3319 
z
M 1334 2853 
Q 1272 1238 834 463 
L 2619 463 
L 2619 2853 
L 1334 2853 
z
" transform="scale(0.015625)"/>
      <path id="ArialMT-43d" d="M 425 3319 
L 988 3319 
L 988 1938 
L 2547 1938 
L 2547 3319 
L 3109 3319 
L 3109 0 
L 2547 0 
L 2547 1472 
L 988 1472 
L 988 0 
L 425 0 
L 425 3319 
z
" transform="scale(0.015625)"/>
      <path id="ArialMT-438" d="M 422 3319 
L 984 3319 
L 984 788 
L 2544 3319 
L 3150 3319 
L 3150 0 
L 2588 0 
L 2588 2516 
L 1028 0 
L 422 0 
L 422 3319 
z
" transform="scale(0.015625)"/>
      <path id="ArialMT-445" d="M 47 0 
L 1259 1725 
L 138 3319 
L 841 3319 
L 1350 2541 
Q 1494 2319 1581 2169 
Q 1719 2375 1834 2534 
L 2394 3319 
L 3066 3319 
L 1919 1756 
L 3153 0 
L 2463 0 
L 1781 1031 
L 1600 1309 
L 728 0 
L 47 0 
z
" transform="scale(0.015625)"/>
      <path id="ArialMT-49" d="M 597 0 
L 597 4581 
L 1203 4581 
L 1203 0 
L 597 0 
z
" transform="scale(0.015625)"/>
     </defs>
     <use xlink:href="#ArialMT-41d"/>
     <use xlink:href="#ArialMT-430" x="72.216797"/>
     <use xlink:href="#ArialMT-431" x="127.832031"/>
     <use xlink:href="#ArialMT-456" x="185.107422"/>
     <use xlink:href="#ArialMT-440" x="207.324219"/>
     <use xlink:href="#ArialMT-20" x="262.939453"/>
     <use xlink:href="#ArialMT-434" x="290.722656"/>
     <use xlink:href="#ArialMT-430" x="349.072266"/>
     <use xlink:href="#ArialMT-43d" x="404.6875"/>
     <use xlink:href="#ArialMT-438" x="459.912109"/>
     <use xlink:href="#ArialMT-445" x="515.771484"/>
     <use xlink:href="#ArialMT-20" x="565.771484"/>
     <use xlink:href="#ArialMT-49" x="593.554688"/>
    </g>
   </g>
  </g>
  <g id="axes_2">
   <g id="patch_7">
    <path d="M 305.767188 244.395625 
L 531.204687 244.395625 
L 531.204687 21.995625 
L 305.767188 21.995625 
z
" style="fill: #ffffff"/>
   </g>
   <g id="matplotlib.axis_3">
    <g id="xtick_7">
     <g id="line2d_16">
      <path d="M 316.014347 244.395625 
L 316.014347 21.995625 
" clip-path="url(#pb27cb965c0)" style="fill: none; stroke: #cccccc; stroke-width: 0.8; stroke-linecap: round"/>
     </g>
     <g id="text_18">
      <!-- 4 -->
      <g style="fill: #262626" transform="translate(313.233878 258.553437) scale(0.1 -0.1)">
       <use xlink:href="#ArialMT-34"/>
      </g>
     </g>
    </g>
    <g id="xtick_8">
     <g id="line2d_17">
      <path d="M 357.002983 244.395625 
L 357.002983 21.995625 
" clip-path="url(#pb27cb965c0)" style="fill: none; stroke: #cccccc; stroke-width: 0.8; stroke-linecap: round"/>
     </g>
     <g id="text_19">
      <!-- 6 -->
      <g style="fill: #262626" transform="translate(354.222514 258.553437) scale(0.1 -0.1)">
       <use xlink:href="#ArialMT-36"/>
      </g>
     </g>
    </g>
    <g id="xtick_9">
     <g id="line2d_18">
      <path d="M 397.991619 244.395625 
L 397.991619 21.995625 
" clip-path="url(#pb27cb965c0)" style="fill: none; stroke: #cccccc; stroke-width: 0.8; stroke-linecap: round"/>
     </g>
     <g id="text_20">
      <!-- 8 -->
      <g style="fill: #262626" transform="translate(395.211151 258.553437) scale(0.1 -0.1)">
       <use xlink:href="#ArialMT-38"/>
      </g>
     </g>
    </g>
    <g id="xtick_10">
     <g id="line2d_19">
      <path d="M 438.980256 244.395625 
L 438.980256 21.995625 
" clip-path="url(#pb27cb965c0)" style="fill: none; stroke: #cccccc; stroke-width: 0.8; stroke-linecap: round"/>
     </g>
     <g id="text_21">
      <!-- 10 -->
      <g style="fill: #262626" transform="translate(433.419318 258.553437) scale(0.1 -0.1)">
       <use xlink:href="#ArialMT-31"/>
       <use xlink:href="#ArialMT-30" x="55.615234"/>
      </g>
     </g>
    </g>
    <g id="xtick_11">
     <g id="line2d_20">
      <path d="M 479.968892 244.395625 
L 479.968892 21.995625 
" clip-path="url(#pb27cb965c0)" style="fill: none; stroke: #cccccc; stroke-width: 0.8; stroke-linecap: round"/>
     </g>
     <g id="text_22">
      <!-- 12 -->
      <g style="fill: #262626" transform="translate(474.407955 258.553437) scale(0.1 -0.1)">
       <use xlink:href="#ArialMT-31"/>
       <use xlink:href="#ArialMT-32" x="55.615234"/>
      </g>
     </g>
    </g>
    <g id="xtick_12">
     <g id="line2d_21">
      <path d="M 520.957528 244.395625 
L 520.957528 21.995625 
" clip-path="url(#pb27cb965c0)" style="fill: none; stroke: #cccccc; stroke-width: 0.8; stroke-linecap: round"/>
     </g>
     <g id="text_23">
      <!-- 14 -->
      <g style="fill: #262626" transform="translate(515.396591 258.553437) scale(0.1 -0.1)">
       <use xlink:href="#ArialMT-31"/>
       <use xlink:href="#ArialMT-34" x="55.615234"/>
      </g>
     </g>
    </g>
    <g id="text_24">
     <!-- x -->
     <g style="fill: #262626" transform="translate(415.985937 271.69875) scale(0.1 -0.1)">
      <use xlink:href="#ArialMT-78"/>
     </g>
    </g>
   </g>
   <g id="matplotlib.axis_4">
    <g id="ytick_9">
     <g id="line2d_22">
      <path d="M 305.767188 237.216319 
L 531.204687 237.216319 
" clip-path="url(#pb27cb965c0)" style="fill: none; stroke: #cccccc; stroke-width: 0.8; stroke-linecap: round"/>
     </g>
     <g id="text_25">
      <!-- 3 -->
      <g style="fill: #262626" transform="translate(293.20625 240.795226) scale(0.1 -0.1)">
       <defs>
        <path id="ArialMT-33" d="M 269 1209 
L 831 1284 
Q 928 806 1161 595 
Q 1394 384 1728 384 
Q 2125 384 2398 659 
Q 2672 934 2672 1341 
Q 2672 1728 2419 1979 
Q 2166 2231 1775 2231 
Q 1616 2231 1378 2169 
L 1441 2663 
Q 1497 2656 1531 2656 
Q 1891 2656 2178 2843 
Q 2466 3031 2466 3422 
Q 2466 3731 2256 3934 
Q 2047 4138 1716 4138 
Q 1388 4138 1169 3931 
Q 950 3725 888 3313 
L 325 3413 
Q 428 3978 793 4289 
Q 1159 4600 1703 4600 
Q 2078 4600 2393 4439 
Q 2709 4278 2876 4000 
Q 3044 3722 3044 3409 
Q 3044 3113 2884 2869 
Q 2725 2625 2413 2481 
Q 2819 2388 3044 2092 
Q 3269 1797 3269 1353 
Q 3269 753 2831 336 
Q 2394 -81 1725 -81 
Q 1122 -81 723 278 
Q 325 638 269 1209 
z
" transform="scale(0.015625)"/>
       </defs>
       <use xlink:href="#ArialMT-33"/>
      </g>
     </g>
    </g>
    <g id="ytick_10">
     <g id="line2d_23">
      <path d="M 305.767188 207.918467 
L 531.204687 207.918467 
" clip-path="url(#pb27cb965c0)" style="fill: none; stroke: #cccccc; stroke-width: 0.8; stroke-linecap: round"/>
     </g>
     <g id="text_26">
      <!-- 4 -->
      <g style="fill: #262626" transform="translate(293.20625 211.497373) scale(0.1 -0.1)">
       <use xlink:href="#ArialMT-34"/>
      </g>
     </g>
    </g>
    <g id="ytick_11">
     <g id="line2d_24">
      <path d="M 305.767188 178.620614 
L 531.204687 178.620614 
" clip-path="url(#pb27cb965c0)" style="fill: none; stroke: #cccccc; stroke-width: 0.8; stroke-linecap: round"/>
     </g>
     <g id="text_27">
      <!-- 5 -->
      <g style="fill: #262626" transform="translate(293.20625 182.19952) scale(0.1 -0.1)">
       <use xlink:href="#ArialMT-35"/>
      </g>
     </g>
    </g>
    <g id="ytick_12">
     <g id="line2d_25">
      <path d="M 305.767188 149.322761 
L 531.204687 149.322761 
" clip-path="url(#pb27cb965c0)" style="fill: none; stroke: #cccccc; stroke-width: 0.8; stroke-linecap: round"/>
     </g>
     <g id="text_28">
      <!-- 6 -->
      <g style="fill: #262626" transform="translate(293.20625 152.901667) scale(0.1 -0.1)">
       <use xlink:href="#ArialMT-36"/>
      </g>
     </g>
    </g>
    <g id="ytick_13">
     <g id="line2d_26">
      <path d="M 305.767188 120.024908 
L 531.204687 120.024908 
" clip-path="url(#pb27cb965c0)" style="fill: none; stroke: #cccccc; stroke-width: 0.8; stroke-linecap: round"/>
     </g>
     <g id="text_29">
      <!-- 7 -->
      <g style="fill: #262626" transform="translate(293.20625 123.603815) scale(0.1 -0.1)">
       <use xlink:href="#ArialMT-37"/>
      </g>
     </g>
    </g>
    <g id="ytick_14">
     <g id="line2d_27">
      <path d="M 305.767188 90.727056 
L 531.204687 90.727056 
" clip-path="url(#pb27cb965c0)" style="fill: none; stroke: #cccccc; stroke-width: 0.8; stroke-linecap: round"/>
     </g>
     <g id="text_30">
      <!-- 8 -->
      <g style="fill: #262626" transform="translate(293.20625 94.305962) scale(0.1 -0.1)">
       <use xlink:href="#ArialMT-38"/>
      </g>
     </g>
    </g>
    <g id="ytick_15">
     <g id="line2d_28">
      <path d="M 305.767188 61.429203 
L 531.204687 61.429203 
" clip-path="url(#pb27cb965c0)" style="fill: none; stroke: #cccccc; stroke-width: 0.8; stroke-linecap: round"/>
     </g>
     <g id="text_31">
      <!-- 9 -->
      <g style="fill: #262626" transform="translate(293.20625 65.008109) scale(0.1 -0.1)">
       <use xlink:href="#ArialMT-39"/>
      </g>
     </g>
    </g>
    <g id="ytick_16">
     <g id="line2d_29">
      <path d="M 305.767188 32.13135 
L 531.204687 32.13135 
" clip-path="url(#pb27cb965c0)" style="fill: none; stroke: #cccccc; stroke-width: 0.8; stroke-linecap: round"/>
     </g>
     <g id="text_32">
      <!-- 10 -->
      <g style="fill: #262626" transform="translate(287.645313 35.710257) scale(0.1 -0.1)">
       <use xlink:href="#ArialMT-31"/>
       <use xlink:href="#ArialMT-30" x="55.615234"/>
      </g>
     </g>
    </g>
    <g id="text_33">
     <!-- y -->
     <g style="fill: #262626" transform="translate(281.540625 135.695625) rotate(-90) scale(0.1 -0.1)">
      <use xlink:href="#ArialMT-79"/>
     </g>
    </g>
   </g>
   <g id="PathCollection_2">
    <defs>
     <path id="m96cadae0d2" d="M 0 3 
C 0.795609 3 1.55874 2.683901 2.12132 2.12132 
C 2.683901 1.55874 3 0.795609 3 0 
C 3 -0.795609 2.683901 -1.55874 2.12132 -2.12132 
C 1.55874 -2.683901 0.795609 -3 0 -3 
C -0.795609 -3 -1.55874 -2.683901 -2.12132 -2.12132 
C -2.683901 -1.55874 -3 -0.795609 -3 0 
C -3 0.795609 -2.683901 1.55874 -2.12132 2.12132 
C -1.55874 2.683901 -0.795609 3 0 3 
z
" style="stroke: #c10000; stroke-opacity: 0.8"/>
    </defs>
    <g clip-path="url(#pb27cb965c0)">
     <use xlink:href="#m96cadae0d2" x="438.980256" y="57.327504" style="fill: #c10000; fill-opacity: 0.8; stroke: #c10000; stroke-opacity: 0.8"/>
     <use xlink:href="#m96cadae0d2" x="397.991619" y="86.625356" style="fill: #c10000; fill-opacity: 0.8; stroke: #c10000; stroke-opacity: 0.8"/>
     <use xlink:href="#m96cadae0d2" x="500.46321" y="69.046645" style="fill: #c10000; fill-opacity: 0.8; stroke: #c10000; stroke-opacity: 0.8"/>
     <use xlink:href="#m96cadae0d2" x="418.485937" y="68.167709" style="fill: #c10000; fill-opacity: 0.8; stroke: #c10000; stroke-opacity: 0.8"/>
     <use xlink:href="#m96cadae0d2" x="459.474574" y="53.811761" style="fill: #c10000; fill-opacity: 0.8; stroke: #c10000; stroke-opacity: 0.8"/>
     <use xlink:href="#m96cadae0d2" x="520.957528" y="87.79727" style="fill: #c10000; fill-opacity: 0.8; stroke: #c10000; stroke-opacity: 0.8"/>
     <use xlink:href="#m96cadae0d2" x="357.002983" y="145.51404" style="fill: #c10000; fill-opacity: 0.8; stroke: #c10000; stroke-opacity: 0.8"/>
     <use xlink:href="#m96cadae0d2" x="316.014347" y="234.286534" style="fill: #c10000; fill-opacity: 0.8; stroke: #c10000; stroke-opacity: 0.8"/>
     <use xlink:href="#m96cadae0d2" x="479.968892" y="57.620482" style="fill: #c10000; fill-opacity: 0.8; stroke: #c10000; stroke-opacity: 0.8"/>
     <use xlink:href="#m96cadae0d2" x="377.497301" y="112.407467" style="fill: #c10000; fill-opacity: 0.8; stroke: #c10000; stroke-opacity: 0.8"/>
     <use xlink:href="#m96cadae0d2" x="336.508665" y="186.238056" style="fill: #c10000; fill-opacity: 0.8; stroke: #c10000; stroke-opacity: 0.8"/>
    </g>
   </g>
   <g id="line2d_30">
    <path d="M 316.014347 178.59398 
L 318.08448 177.11429 
L 320.154613 175.6346 
L 322.224746 174.154911 
L 324.294879 172.675221 
L 326.365012 171.195532 
L 328.435145 169.715842 
L 330.505279 168.236153 
L 332.575412 166.756463 
L 334.645545 165.276774 
L 336.715678 163.797084 
L 338.785811 162.317395 
L 340.855944 160.837705 
L 342.926078 159.358016 
L 344.996211 157.878326 
L 347.066344 156.398637 
L 349.136477 154.918947 
L 351.20661 153.439257 
L 353.276743 151.959568 
L 355.346876 150.479878 
L 357.41701 149.000189 
L 359.487143 147.520499 
L 361.557276 146.04081 
L 363.627409 144.56112 
L 365.697542 143.081431 
L 367.767675 141.601741 
L 369.837808 140.122052 
L 371.907942 138.642362 
L 373.978075 137.162673 
L 376.048208 135.682983 
L 378.118341 134.203294 
L 380.188474 132.723604 
L 382.258607 131.243915 
L 384.328741 129.764225 
L 386.398874 128.284535 
L 388.469007 126.804846 
L 390.53914 125.325156 
L 392.609273 123.845467 
L 394.679406 122.365777 
L 396.749539 120.886088 
L 398.819673 119.406398 
L 400.889806 117.926709 
L 402.959939 116.447019 
L 405.030072 114.96733 
L 407.100205 113.48764 
L 409.170338 112.007951 
L 411.240471 110.528261 
L 413.310605 109.048572 
L 415.380738 107.568882 
L 417.450871 106.089192 
L 419.521004 104.609503 
L 421.591137 103.129813 
L 423.66127 101.650124 
L 425.731404 100.170434 
L 427.801537 98.690745 
L 429.87167 97.211055 
L 431.941803 95.731366 
L 434.011936 94.251676 
L 436.082069 92.771987 
L 438.152202 91.292297 
L 440.222336 89.812608 
L 442.292469 88.332918 
L 444.362602 86.853229 
L 446.432735 85.373539 
L 448.502868 83.89385 
L 450.573001 82.41416 
L 452.643134 80.93447 
L 454.713268 79.454781 
L 456.783401 77.975091 
L 458.853534 76.495402 
L 460.923667 75.015712 
L 462.9938 73.536023 
L 465.063933 72.056333 
L 467.134067 70.576644 
L 469.2042 69.096954 
L 471.274333 67.617265 
L 473.344466 66.137575 
L 475.414599 64.657886 
L 477.484732 63.178196 
L 479.554865 61.698507 
L 481.624999 60.218817 
L 483.695132 58.739127 
L 485.765265 57.259438 
L 487.835398 55.779748 
L 489.905531 54.300059 
L 491.975664 52.820369 
L 494.045797 51.34068 
L 496.115931 49.86099 
L 498.186064 48.381301 
L 500.256197 46.901611 
L 502.32633 45.421922 
L 504.396463 43.942232 
L 506.466596 42.462543 
L 508.53673 40.982853 
L 510.606863 39.503164 
L 512.676996 38.023474 
L 514.747129 36.543785 
L 516.817262 35.064095 
L 518.887395 33.584405 
L 520.957528 32.104716 
" clip-path="url(#pb27cb965c0)" style="fill: none; stroke: #c10000; stroke-width: 2.25; stroke-linecap: round"/>
   </g>
   <g id="patch_8">
    <path d="M 305.767188 244.395625 
L 305.767188 21.995625 
" style="fill: none; stroke: #cccccc; stroke-width: 0.8; stroke-linejoin: miter; stroke-linecap: square"/>
   </g>
   <g id="patch_9">
    <path d="M 531.204687 244.395625 
L 531.204687 21.995625 
" style="fill: none; stroke: #cccccc; stroke-width: 0.8; stroke-linejoin: miter; stroke-linecap: square"/>
   </g>
   <g id="patch_10">
    <path d="M 305.767188 244.395625 
L 531.204687 244.395625 
" style="fill: none; stroke: #cccccc; stroke-width: 0.8; stroke-linejoin: miter; stroke-linecap: square"/>
   </g>
   <g id="patch_11">
    <path d="M 305.767188 21.995625 
L 531.204687 21.995625 
" style="fill: none; stroke: #cccccc; stroke-width: 0.8; stroke-linejoin: miter; stroke-linecap: square"/>
   </g>
   <g id="text_34">
    <!-- Набір даних II -->
    <g style="fill: #262626" transform="translate(379.540312 15.995625) scale(0.12 -0.12)">
     <use xlink:href="#ArialMT-41d"/>
     <use xlink:href="#ArialMT-430" x="72.216797"/>
     <use xlink:href="#ArialMT-431" x="127.832031"/>
     <use xlink:href="#ArialMT-456" x="185.107422"/>
     <use xlink:href="#ArialMT-440" x="207.324219"/>
     <use xlink:href="#ArialMT-20" x="262.939453"/>
     <use xlink:href="#ArialMT-434" x="290.722656"/>
     <use xlink:href="#ArialMT-430" x="349.072266"/>
     <use xlink:href="#ArialMT-43d" x="404.6875"/>
     <use xlink:href="#ArialMT-438" x="459.912109"/>
     <use xlink:href="#ArialMT-445" x="515.771484"/>
     <use xlink:href="#ArialMT-20" x="565.771484"/>
     <use xlink:href="#ArialMT-49" x="593.554688"/>
     <use xlink:href="#ArialMT-49" x="621.337891"/>
    </g>
   </g>
  </g>
  <g id="axes_3">
   <g id="patch_12">
    <path d="M 573.067187 244.395625 
L 798.504687 244.395625 
L 798.504687 21.995625 
L 573.067187 21.995625 
z
" style="fill: #ffffff"/>
   </g>
   <g id="matplotlib.axis_5">
    <g id="xtick_13">
     <g id="line2d_31">
      <path d="M 583.314347 244.395625 
L 583.314347 21.995625 
" clip-path="url(#p98366a4d1f)" style="fill: none; stroke: #cccccc; stroke-width: 0.8; stroke-linecap: round"/>
     </g>
     <g id="text_35">
      <!-- 4 -->
      <g style="fill: #262626" transform="translate(580.533878 258.553437) scale(0.1 -0.1)">
       <use xlink:href="#ArialMT-34"/>
      </g>
     </g>
    </g>
    <g id="xtick_14">
     <g id="line2d_32">
      <path d="M 624.302983 244.395625 
L 624.302983 21.995625 
" clip-path="url(#p98366a4d1f)" style="fill: none; stroke: #cccccc; stroke-width: 0.8; stroke-linecap: round"/>
     </g>
     <g id="text_36">
      <!-- 6 -->
      <g style="fill: #262626" transform="translate(621.522514 258.553437) scale(0.1 -0.1)">
       <use xlink:href="#ArialMT-36"/>
      </g>
     </g>
    </g>
    <g id="xtick_15">
     <g id="line2d_33">
      <path d="M 665.291619 244.395625 
L 665.291619 21.995625 
" clip-path="url(#p98366a4d1f)" style="fill: none; stroke: #cccccc; stroke-width: 0.8; stroke-linecap: round"/>
     </g>
     <g id="text_37">
      <!-- 8 -->
      <g style="fill: #262626" transform="translate(662.511151 258.553437) scale(0.1 -0.1)">
       <use xlink:href="#ArialMT-38"/>
      </g>
     </g>
    </g>
    <g id="xtick_16">
     <g id="line2d_34">
      <path d="M 706.280256 244.395625 
L 706.280256 21.995625 
" clip-path="url(#p98366a4d1f)" style="fill: none; stroke: #cccccc; stroke-width: 0.8; stroke-linecap: round"/>
     </g>
     <g id="text_38">
      <!-- 10 -->
      <g style="fill: #262626" transform="translate(700.719318 258.553437) scale(0.1 -0.1)">
       <use xlink:href="#ArialMT-31"/>
       <use xlink:href="#ArialMT-30" x="55.615234"/>
      </g>
     </g>
    </g>
    <g id="xtick_17">
     <g id="line2d_35">
      <path d="M 747.268892 244.395625 
L 747.268892 21.995625 
" clip-path="url(#p98366a4d1f)" style="fill: none; stroke: #cccccc; stroke-width: 0.8; stroke-linecap: round"/>
     </g>
     <g id="text_39">
      <!-- 12 -->
      <g style="fill: #262626" transform="translate(741.707955 258.553437) scale(0.1 -0.1)">
       <use xlink:href="#ArialMT-31"/>
       <use xlink:href="#ArialMT-32" x="55.615234"/>
      </g>
     </g>
    </g>
    <g id="xtick_18">
     <g id="line2d_36">
      <path d="M 788.257528 244.395625 
L 788.257528 21.995625 
" clip-path="url(#p98366a4d1f)" style="fill: none; stroke: #cccccc; stroke-width: 0.8; stroke-linecap: round"/>
     </g>
     <g id="text_40">
      <!-- 14 -->
      <g style="fill: #262626" transform="translate(782.696591 258.553437) scale(0.1 -0.1)">
       <use xlink:href="#ArialMT-31"/>
       <use xlink:href="#ArialMT-34" x="55.615234"/>
      </g>
     </g>
    </g>
    <g id="text_41">
     <!-- x -->
     <g style="fill: #262626" transform="translate(683.285937 271.69875) scale(0.1 -0.1)">
      <use xlink:href="#ArialMT-78"/>
     </g>
    </g>
   </g>
   <g id="matplotlib.axis_6">
    <g id="ytick_17">
     <g id="line2d_37">
      <path d="M 573.067187 234.322161 
L 798.504687 234.322161 
" clip-path="url(#p98366a4d1f)" style="fill: none; stroke: #cccccc; stroke-width: 0.8; stroke-linecap: round"/>
     </g>
     <g id="text_42">
      <!-- 5 -->
      <g style="fill: #262626" transform="translate(560.50625 237.901067) scale(0.1 -0.1)">
       <use xlink:href="#ArialMT-35"/>
      </g>
     </g>
    </g>
    <g id="ytick_18">
     <g id="line2d_38">
      <path d="M 573.067187 208.195876 
L 798.504687 208.195876 
" clip-path="url(#p98366a4d1f)" style="fill: none; stroke: #cccccc; stroke-width: 0.8; stroke-linecap: round"/>
     </g>
     <g id="text_43">
      <!-- 6 -->
      <g style="fill: #262626" transform="translate(560.50625 211.774782) scale(0.1 -0.1)">
       <use xlink:href="#ArialMT-36"/>
      </g>
     </g>
    </g>
    <g id="ytick_19">
     <g id="line2d_39">
      <path d="M 573.067187 182.069591 
L 798.504687 182.069591 
" clip-path="url(#p98366a4d1f)" style="fill: none; stroke: #cccccc; stroke-width: 0.8; stroke-linecap: round"/>
     </g>
     <g id="text_44">
      <!-- 7 -->
      <g style="fill: #262626" transform="translate(560.50625 185.648497) scale(0.1 -0.1)">
       <use xlink:href="#ArialMT-37"/>
      </g>
     </g>
    </g>
    <g id="ytick_20">
     <g id="line2d_40">
      <path d="M 573.067187 155.943306 
L 798.504687 155.943306 
" clip-path="url(#p98366a4d1f)" style="fill: none; stroke: #cccccc; stroke-width: 0.8; stroke-linecap: round"/>
     </g>
     <g id="text_45">
      <!-- 8 -->
      <g style="fill: #262626" transform="translate(560.50625 159.522212) scale(0.1 -0.1)">
       <use xlink:href="#ArialMT-38"/>
      </g>
     </g>
    </g>
    <g id="ytick_21">
     <g id="line2d_41">
      <path d="M 573.067187 129.817021 
L 798.504687 129.817021 
" clip-path="url(#p98366a4d1f)" style="fill: none; stroke: #cccccc; stroke-width: 0.8; stroke-linecap: round"/>
     </g>
     <g id="text_46">
      <!-- 9 -->
      <g style="fill: #262626" transform="translate(560.50625 133.395928) scale(0.1 -0.1)">
       <use xlink:href="#ArialMT-39"/>
      </g>
     </g>
    </g>
    <g id="ytick_22">
     <g id="line2d_42">
      <path d="M 573.067187 103.690736 
L 798.504687 103.690736 
" clip-path="url(#p98366a4d1f)" style="fill: none; stroke: #cccccc; stroke-width: 0.8; stroke-linecap: round"/>
     </g>
     <g id="text_47">
      <!-- 10 -->
      <g style="fill: #262626" transform="translate(554.945312 107.269643) scale(0.1 -0.1)">
       <use xlink:href="#ArialMT-31"/>
       <use xlink:href="#ArialMT-30" x="55.615234"/>
      </g>
     </g>
    </g>
    <g id="ytick_23">
     <g id="line2d_43">
      <path d="M 573.067187 77.564452 
L 798.504687 77.564452 
" clip-path="url(#p98366a4d1f)" style="fill: none; stroke: #cccccc; stroke-width: 0.8; stroke-linecap: round"/>
     </g>
     <g id="text_48">
      <!-- 11 -->
      <g style="fill: #262626" transform="translate(555.682812 81.143358) scale(0.1 -0.1)">
       <use xlink:href="#ArialMT-31"/>
       <use xlink:href="#ArialMT-31" x="48.240234"/>
      </g>
     </g>
    </g>
    <g id="ytick_24">
     <g id="line2d_44">
      <path d="M 573.067187 51.438167 
L 798.504687 51.438167 
" clip-path="url(#p98366a4d1f)" style="fill: none; stroke: #cccccc; stroke-width: 0.8; stroke-linecap: round"/>
     </g>
     <g id="text_49">
      <!-- 12 -->
      <g style="fill: #262626" transform="translate(554.945312 55.017073) scale(0.1 -0.1)">
       <use xlink:href="#ArialMT-31"/>
       <use xlink:href="#ArialMT-32" x="55.615234"/>
      </g>
     </g>
    </g>
    <g id="ytick_25">
     <g id="line2d_45">
      <path d="M 573.067187 25.311882 
L 798.504687 25.311882 
" clip-path="url(#p98366a4d1f)" style="fill: none; stroke: #cccccc; stroke-width: 0.8; stroke-linecap: round"/>
     </g>
     <g id="text_50">
      <!-- 13 -->
      <g style="fill: #262626" transform="translate(554.945312 28.890788) scale(0.1 -0.1)">
       <use xlink:href="#ArialMT-31"/>
       <use xlink:href="#ArialMT-33" x="55.615234"/>
      </g>
     </g>
    </g>
    <g id="text_51">
     <!-- y -->
     <g style="fill: #262626" transform="translate(548.840625 135.695625) rotate(-90) scale(0.1 -0.1)">
      <use xlink:href="#ArialMT-79"/>
     </g>
    </g>
   </g>
   <g id="PathCollection_3">
    <defs>
     <path id="m38c7a9e36a" d="M 0 3 
C 0.795609 3 1.55874 2.683901 2.12132 2.12132 
C 2.683901 1.55874 3 0.795609 3 0 
C 3 -0.795609 2.683901 -1.55874 2.12132 -2.12132 
C 1.55874 -2.683901 0.795609 -3 0 -3 
C -0.795609 -3 -1.55874 -2.683901 -2.12132 -2.12132 
C -2.683901 -1.55874 -3 -0.795609 -3 0 
C -3 0.795609 -2.683901 1.55874 -2.12132 2.12132 
C -1.55874 2.683901 -0.795609 3 0 3 
z
" style="stroke: #00891a; stroke-opacity: 0.8"/>
    </defs>
    <g clip-path="url(#p98366a4d1f)">
     <use xlink:href="#m38c7a9e36a" x="706.280256" y="170.0515" style="fill: #00891a; fill-opacity: 0.8; stroke: #00891a; stroke-opacity: 0.8"/>
     <use xlink:href="#m38c7a9e36a" x="665.291619" y="188.078637" style="fill: #00891a; fill-opacity: 0.8; stroke: #00891a; stroke-opacity: 0.8"/>
     <use xlink:href="#m38c7a9e36a" x="767.76321" y="32.104716" style="fill: #00891a; fill-opacity: 0.8; stroke: #00891a; stroke-opacity: 0.8"/>
     <use xlink:href="#m38c7a9e36a" x="685.785937" y="179.1957" style="fill: #00891a; fill-opacity: 0.8; stroke: #00891a; stroke-opacity: 0.8"/>
     <use xlink:href="#m38c7a9e36a" x="726.774574" y="160.9073" style="fill: #00891a; fill-opacity: 0.8; stroke: #00891a; stroke-opacity: 0.8"/>
     <use xlink:href="#m38c7a9e36a" x="788.257528" y="133.997227" style="fill: #00891a; fill-opacity: 0.8; stroke: #00891a; stroke-opacity: 0.8"/>
     <use xlink:href="#m38c7a9e36a" x="624.302983" y="206.105773" style="fill: #00891a; fill-opacity: 0.8; stroke: #00891a; stroke-opacity: 0.8"/>
     <use xlink:href="#m38c7a9e36a" x="583.314347" y="224.13291" style="fill: #00891a; fill-opacity: 0.8; stroke: #00891a; stroke-opacity: 0.8"/>
     <use xlink:href="#m38c7a9e36a" x="747.268892" y="152.024363" style="fill: #00891a; fill-opacity: 0.8; stroke: #00891a; stroke-opacity: 0.8"/>
     <use xlink:href="#m38c7a9e36a" x="644.797301" y="197.222836" style="fill: #00891a; fill-opacity: 0.8; stroke: #00891a; stroke-opacity: 0.8"/>
     <use xlink:href="#m38c7a9e36a" x="603.808665" y="215.249973" style="fill: #00891a; fill-opacity: 0.8; stroke: #00891a; stroke-opacity: 0.8"/>
    </g>
   </g>
   <g id="line2d_46">
    <path d="M 583.314347 234.286534 
L 585.38448 232.967744 
L 587.454613 231.648955 
L 589.524746 230.330165 
L 591.594879 229.011376 
L 593.665012 227.692586 
L 595.735145 226.373796 
L 597.805279 225.055007 
L 599.875412 223.736217 
L 601.945545 222.417428 
L 604.015678 221.098638 
L 606.085811 219.779848 
L 608.155944 218.461059 
L 610.226078 217.142269 
L 612.296211 215.82348 
L 614.366344 214.50469 
L 616.436477 213.1859 
L 618.50661 211.867111 
L 620.576743 210.548321 
L 622.646876 209.229532 
L 624.71701 207.910742 
L 626.787143 206.591952 
L 628.857276 205.273163 
L 630.927409 203.954373 
L 632.997542 202.635584 
L 635.067675 201.316794 
L 637.137808 199.998004 
L 639.207942 198.679215 
L 641.278075 197.360425 
L 643.348208 196.041636 
L 645.418341 194.722846 
L 647.488474 193.404056 
L 649.558607 192.085267 
L 651.628741 190.766477 
L 653.698874 189.447688 
L 655.769007 188.128898 
L 657.83914 186.810108 
L 659.909273 185.491319 
L 661.979406 184.172529 
L 664.049539 182.85374 
L 666.119673 181.53495 
L 668.189806 180.21616 
L 670.259939 178.897371 
L 672.330072 177.578581 
L 674.400205 176.259791 
L 676.470338 174.941002 
L 678.540471 173.622212 
L 680.610605 172.303423 
L 682.680738 170.984633 
L 684.750871 169.665843 
L 686.821004 168.347054 
L 688.891137 167.028264 
L 690.96127 165.709475 
L 693.031404 164.390685 
L 695.101537 163.071895 
L 697.17167 161.753106 
L 699.241803 160.434316 
L 701.311936 159.115527 
L 703.382069 157.796737 
L 705.452202 156.477947 
L 707.522336 155.159158 
L 709.592469 153.840368 
L 711.662602 152.521579 
L 713.732735 151.202789 
L 715.802868 149.883999 
L 717.873001 148.56521 
L 719.943134 147.24642 
L 722.013268 145.927631 
L 724.083401 144.608841 
L 726.153534 143.290051 
L 728.223667 141.971262 
L 730.2938 140.652472 
L 732.363933 139.333683 
L 734.434067 138.014893 
L 736.5042 136.696103 
L 738.574333 135.377314 
L 740.644466 134.058524 
L 742.714599 132.739735 
L 744.784732 131.420945 
L 746.854865 130.102155 
L 748.924999 128.783366 
L 750.995132 127.464576 
L 753.065265 126.145787 
L 755.135398 124.826997 
L 757.205531 123.508207 
L 759.275664 122.189418 
L 761.345797 120.870628 
L 763.415931 119.551838 
L 765.486064 118.233049 
L 767.556197 116.914259 
L 769.62633 115.59547 
L 771.696463 114.27668 
L 773.766596 112.95789 
L 775.83673 111.639101 
L 777.906863 110.320311 
L 779.976996 109.001522 
L 782.047129 107.682732 
L 784.117262 106.363942 
L 786.187395 105.045153 
L 788.257528 103.726363 
" clip-path="url(#p98366a4d1f)" style="fill: none; stroke: #00891a; stroke-width: 2.25; stroke-linecap: round"/>
   </g>
   <g id="patch_13">
    <path d="M 573.067187 244.395625 
L 573.067187 21.995625 
" style="fill: none; stroke: #cccccc; stroke-width: 0.8; stroke-linejoin: miter; stroke-linecap: square"/>
   </g>
   <g id="patch_14">
    <path d="M 798.504687 244.395625 
L 798.504687 21.995625 
" style="fill: none; stroke: #cccccc; stroke-width: 0.8; stroke-linejoin: miter; stroke-linecap: square"/>
   </g>
   <g id="patch_15">
    <path d="M 573.067187 244.395625 
L 798.504688 244.395625 
" style="fill: none; stroke: #cccccc; stroke-width: 0.8; stroke-linejoin: miter; stroke-linecap: square"/>
   </g>
   <g id="patch_16">
    <path d="M 573.067187 21.995625 
L 798.504688 21.995625 
" style="fill: none; stroke: #cccccc; stroke-width: 0.8; stroke-linejoin: miter; stroke-linecap: square"/>
   </g>
   <g id="text_52">
    <!-- Набір даних III -->
    <g style="fill: #262626" transform="translate(645.173437 15.995625) scale(0.12 -0.12)">
     <use xlink:href="#ArialMT-41d"/>
     <use xlink:href="#ArialMT-430" x="72.216797"/>
     <use xlink:href="#ArialMT-431" x="127.832031"/>
     <use xlink:href="#ArialMT-456" x="185.107422"/>
     <use xlink:href="#ArialMT-440" x="207.324219"/>
     <use xlink:href="#ArialMT-20" x="262.939453"/>
     <use xlink:href="#ArialMT-434" x="290.722656"/>
     <use xlink:href="#ArialMT-430" x="349.072266"/>
     <use xlink:href="#ArialMT-43d" x="404.6875"/>
     <use xlink:href="#ArialMT-438" x="459.912109"/>
     <use xlink:href="#ArialMT-445" x="515.771484"/>
     <use xlink:href="#ArialMT-20" x="565.771484"/>
     <use xlink:href="#ArialMT-49" x="593.554688"/>
     <use xlink:href="#ArialMT-49" x="621.337891"/>
     <use xlink:href="#ArialMT-49" x="649.121094"/>
    </g>
   </g>
  </g>
  <g id="axes_4">
   <g id="patch_17">
    <path d="M 840.367187 244.395625 
L 1065.804688 244.395625 
L 1065.804688 21.995625 
L 840.367187 21.995625 
z
" style="fill: #ffffff"/>
   </g>
   <g id="matplotlib.axis_7">
    <g id="xtick_19">
     <g id="line2d_47">
      <path d="M 850.614347 244.395625 
L 850.614347 21.995625 
" clip-path="url(#pef10f84004)" style="fill: none; stroke: #cccccc; stroke-width: 0.8; stroke-linecap: round"/>
     </g>
     <g id="text_53">
      <!-- 8 -->
      <g style="fill: #262626" transform="translate(847.833878 258.553437) scale(0.1 -0.1)">
       <use xlink:href="#ArialMT-38"/>
      </g>
     </g>
    </g>
    <g id="xtick_20">
     <g id="line2d_48">
      <path d="M 887.876743 244.395625 
L 887.876743 21.995625 
" clip-path="url(#pef10f84004)" style="fill: none; stroke: #cccccc; stroke-width: 0.8; stroke-linecap: round"/>
     </g>
     <g id="text_54">
      <!-- 10 -->
      <g style="fill: #262626" transform="translate(882.315806 258.553437) scale(0.1 -0.1)">
       <use xlink:href="#ArialMT-31"/>
       <use xlink:href="#ArialMT-30" x="55.615234"/>
      </g>
     </g>
    </g>
    <g id="xtick_21">
     <g id="line2d_49">
      <path d="M 925.13914 244.395625 
L 925.13914 21.995625 
" clip-path="url(#pef10f84004)" style="fill: none; stroke: #cccccc; stroke-width: 0.8; stroke-linecap: round"/>
     </g>
     <g id="text_55">
      <!-- 12 -->
      <g style="fill: #262626" transform="translate(919.578202 258.553437) scale(0.1 -0.1)">
       <use xlink:href="#ArialMT-31"/>
       <use xlink:href="#ArialMT-32" x="55.615234"/>
      </g>
     </g>
    </g>
    <g id="xtick_22">
     <g id="line2d_50">
      <path d="M 962.401537 244.395625 
L 962.401537 21.995625 
" clip-path="url(#pef10f84004)" style="fill: none; stroke: #cccccc; stroke-width: 0.8; stroke-linecap: round"/>
     </g>
     <g id="text_56">
      <!-- 14 -->
      <g style="fill: #262626" transform="translate(956.840599 258.553437) scale(0.1 -0.1)">
       <use xlink:href="#ArialMT-31"/>
       <use xlink:href="#ArialMT-34" x="55.615234"/>
      </g>
     </g>
    </g>
    <g id="xtick_23">
     <g id="line2d_51">
      <path d="M 999.663933 244.395625 
L 999.663933 21.995625 
" clip-path="url(#pef10f84004)" style="fill: none; stroke: #cccccc; stroke-width: 0.8; stroke-linecap: round"/>
     </g>
     <g id="text_57">
      <!-- 16 -->
      <g style="fill: #262626" transform="translate(994.102996 258.553437) scale(0.1 -0.1)">
       <use xlink:href="#ArialMT-31"/>
       <use xlink:href="#ArialMT-36" x="55.615234"/>
      </g>
     </g>
    </g>
    <g id="xtick_24">
     <g id="line2d_52">
      <path d="M 1036.92633 244.395625 
L 1036.92633 21.995625 
" clip-path="url(#pef10f84004)" style="fill: none; stroke: #cccccc; stroke-width: 0.8; stroke-linecap: round"/>
     </g>
     <g id="text_58">
      <!-- 18 -->
      <g style="fill: #262626" transform="translate(1031.365393 258.553437) scale(0.1 -0.1)">
       <use xlink:href="#ArialMT-31"/>
       <use xlink:href="#ArialMT-38" x="55.615234"/>
      </g>
     </g>
    </g>
    <g id="text_59">
     <!-- x -->
     <g style="fill: #262626" transform="translate(950.585938 271.69875) scale(0.1 -0.1)">
      <use xlink:href="#ArialMT-78"/>
     </g>
    </g>
   </g>
   <g id="matplotlib.axis_8">
    <g id="ytick_26">
     <g id="line2d_53">
      <path d="M 840.367187 241.258321 
L 1065.804688 241.258321 
" clip-path="url(#pef10f84004)" style="fill: none; stroke: #cccccc; stroke-width: 0.8; stroke-linecap: round"/>
     </g>
     <g id="text_60">
      <!-- 5 -->
      <g style="fill: #262626" transform="translate(827.80625 244.837227) scale(0.1 -0.1)">
       <use xlink:href="#ArialMT-35"/>
      </g>
     </g>
    </g>
    <g id="ytick_27">
     <g id="line2d_54">
      <path d="M 840.367187 213.371174 
L 1065.804688 213.371174 
" clip-path="url(#pef10f84004)" style="fill: none; stroke: #cccccc; stroke-width: 0.8; stroke-linecap: round"/>
     </g>
     <g id="text_61">
      <!-- 6 -->
      <g style="fill: #262626" transform="translate(827.80625 216.95008) scale(0.1 -0.1)">
       <use xlink:href="#ArialMT-36"/>
      </g>
     </g>
    </g>
    <g id="ytick_28">
     <g id="line2d_55">
      <path d="M 840.367187 185.484026 
L 1065.804688 185.484026 
" clip-path="url(#pef10f84004)" style="fill: none; stroke: #cccccc; stroke-width: 0.8; stroke-linecap: round"/>
     </g>
     <g id="text_62">
      <!-- 7 -->
      <g style="fill: #262626" transform="translate(827.80625 189.062933) scale(0.1 -0.1)">
       <use xlink:href="#ArialMT-37"/>
      </g>
     </g>
    </g>
    <g id="ytick_29">
     <g id="line2d_56">
      <path d="M 840.367187 157.596879 
L 1065.804688 157.596879 
" clip-path="url(#pef10f84004)" style="fill: none; stroke: #cccccc; stroke-width: 0.8; stroke-linecap: round"/>
     </g>
     <g id="text_63">
      <!-- 8 -->
      <g style="fill: #262626" transform="translate(827.80625 161.175785) scale(0.1 -0.1)">
       <use xlink:href="#ArialMT-38"/>
      </g>
     </g>
    </g>
    <g id="ytick_30">
     <g id="line2d_57">
      <path d="M 840.367187 129.709732 
L 1065.804688 129.709732 
" clip-path="url(#pef10f84004)" style="fill: none; stroke: #cccccc; stroke-width: 0.8; stroke-linecap: round"/>
     </g>
     <g id="text_64">
      <!-- 9 -->
      <g style="fill: #262626" transform="translate(827.80625 133.288638) scale(0.1 -0.1)">
       <use xlink:href="#ArialMT-39"/>
      </g>
     </g>
    </g>
    <g id="ytick_31">
     <g id="line2d_58">
      <path d="M 840.367187 101.822584 
L 1065.804688 101.822584 
" clip-path="url(#pef10f84004)" style="fill: none; stroke: #cccccc; stroke-width: 0.8; stroke-linecap: round"/>
     </g>
     <g id="text_65">
      <!-- 10 -->
      <g style="fill: #262626" transform="translate(822.245312 105.40149) scale(0.1 -0.1)">
       <use xlink:href="#ArialMT-31"/>
       <use xlink:href="#ArialMT-30" x="55.615234"/>
      </g>
     </g>
    </g>
    <g id="ytick_32">
     <g id="line2d_59">
      <path d="M 840.367187 73.935437 
L 1065.804688 73.935437 
" clip-path="url(#pef10f84004)" style="fill: none; stroke: #cccccc; stroke-width: 0.8; stroke-linecap: round"/>
     </g>
     <g id="text_66">
      <!-- 11 -->
      <g style="fill: #262626" transform="translate(822.982812 77.514343) scale(0.1 -0.1)">
       <use xlink:href="#ArialMT-31"/>
       <use xlink:href="#ArialMT-31" x="48.240234"/>
      </g>
     </g>
    </g>
    <g id="ytick_33">
     <g id="line2d_60">
      <path d="M 840.367187 46.04829 
L 1065.804688 46.04829 
" clip-path="url(#pef10f84004)" style="fill: none; stroke: #cccccc; stroke-width: 0.8; stroke-linecap: round"/>
     </g>
     <g id="text_67">
      <!-- 12 -->
      <g style="fill: #262626" transform="translate(822.245312 49.627196) scale(0.1 -0.1)">
       <use xlink:href="#ArialMT-31"/>
       <use xlink:href="#ArialMT-32" x="55.615234"/>
      </g>
     </g>
    </g>
    <g id="text_68">
     <!-- y -->
     <g style="fill: #262626" transform="translate(816.140625 135.695625) rotate(-90) scale(0.1 -0.1)">
      <use xlink:href="#ArialMT-79"/>
     </g>
    </g>
   </g>
   <g id="PathCollection_4">
    <defs>
     <path id="mead8b64f90" d="M 0 3 
C 0.795609 3 1.55874 2.683901 2.12132 2.12132 
C 2.683901 1.55874 3 0.795609 3 0 
C 3 -0.795609 2.683901 -1.55874 2.12132 -2.12132 
C 1.55874 -2.683901 0.795609 -3 0 -3 
C -0.795609 -3 -1.55874 -2.683901 -2.12132 -2.12132 
C -2.683901 -1.55874 -3 -0.795609 -3 0 
C -3 0.795609 -2.683901 1.55874 -2.12132 2.12132 
C -1.55874 2.683901 -0.795609 3 0 3 
z
" style="stroke: #f45100; stroke-opacity: 0.8"/>
    </defs>
    <g clip-path="url(#pef10f84004)">
     <use xlink:href="#mead8b64f90" x="850.614347" y="197.196628" style="fill: #f45100; fill-opacity: 0.8; stroke: #f45100; stroke-opacity: 0.8"/>
     <use xlink:href="#mead8b64f90" x="850.614347" y="220.064089" style="fill: #f45100; fill-opacity: 0.8; stroke: #f45100; stroke-opacity: 0.8"/>
     <use xlink:href="#mead8b64f90" x="850.614347" y="165.684152" style="fill: #f45100; fill-opacity: 0.8; stroke: #f45100; stroke-opacity: 0.8"/>
     <use xlink:href="#mead8b64f90" x="850.614347" y="134.171675" style="fill: #f45100; fill-opacity: 0.8; stroke: #f45100; stroke-opacity: 0.8"/>
     <use xlink:href="#mead8b64f90" x="850.614347" y="144.48992" style="fill: #f45100; fill-opacity: 0.8; stroke: #f45100; stroke-opacity: 0.8"/>
     <use xlink:href="#mead8b64f90" x="850.614347" y="184.36854" style="fill: #f45100; fill-opacity: 0.8; stroke: #f45100; stroke-opacity: 0.8"/>
     <use xlink:href="#mead8b64f90" x="850.614347" y="234.286534" style="fill: #f45100; fill-opacity: 0.8; stroke: #f45100; stroke-opacity: 0.8"/>
     <use xlink:href="#mead8b64f90" x="1055.557528" y="32.104716" style="fill: #f45100; fill-opacity: 0.8; stroke: #f45100; stroke-opacity: 0.8"/>
     <use xlink:href="#mead8b64f90" x="850.614347" y="225.641518" style="fill: #f45100; fill-opacity: 0.8; stroke: #f45100; stroke-opacity: 0.8"/>
     <use xlink:href="#mead8b64f90" x="850.614347" y="160.106722" style="fill: #f45100; fill-opacity: 0.8; stroke: #f45100; stroke-opacity: 0.8"/>
     <use xlink:href="#mead8b64f90" x="850.614347" y="188.551612" style="fill: #f45100; fill-opacity: 0.8; stroke: #f45100; stroke-opacity: 0.8"/>
    </g>
   </g>
   <g id="line2d_61">
    <path d="M 850.614347 185.456139 
L 852.68448 183.907135 
L 854.754613 182.358131 
L 856.824746 180.809126 
L 858.894879 179.260122 
L 860.965012 177.711118 
L 863.035145 176.162113 
L 865.105279 174.613109 
L 867.175412 173.064105 
L 869.245545 171.515101 
L 871.315678 169.966096 
L 873.385811 168.417092 
L 875.455944 166.868088 
L 877.526078 165.319084 
L 879.596211 163.770079 
L 881.666344 162.221075 
L 883.736477 160.672071 
L 885.80661 159.123066 
L 887.876743 157.574062 
L 889.946876 156.025058 
L 892.01701 154.476054 
L 894.087143 152.927049 
L 896.157276 151.378045 
L 898.227409 149.829041 
L 900.297542 148.280037 
L 902.367675 146.731032 
L 904.437808 145.182028 
L 906.507942 143.633024 
L 908.578075 142.084019 
L 910.648208 140.535015 
L 912.718341 138.986011 
L 914.788474 137.437007 
L 916.858607 135.888002 
L 918.928741 134.338998 
L 920.998874 132.789994 
L 923.069007 131.240989 
L 925.13914 129.691985 
L 927.209273 128.142981 
L 929.279406 126.593977 
L 931.349539 125.044972 
L 933.419673 123.495968 
L 935.489806 121.946964 
L 937.559939 120.39796 
L 939.630072 118.848955 
L 941.700205 117.299951 
L 943.770338 115.750947 
L 945.840471 114.201942 
L 947.910605 112.652938 
L 949.980738 111.103934 
L 952.050871 109.55493 
L 954.121004 108.005925 
L 956.191137 106.456921 
L 958.26127 104.907917 
L 960.331404 103.358913 
L 962.401537 101.809908 
L 964.47167 100.260904 
L 966.541803 98.7119 
L 968.611936 97.162895 
L 970.682069 95.613891 
L 972.752202 94.064887 
L 974.822336 92.515883 
L 976.892469 90.966878 
L 978.962602 89.417874 
L 981.032735 87.86887 
L 983.102868 86.319866 
L 985.173001 84.770861 
L 987.243134 83.221857 
L 989.313268 81.672853 
L 991.383401 80.123848 
L 993.453534 78.574844 
L 995.523667 77.02584 
L 997.5938 75.476836 
L 999.663933 73.927831 
L 1001.734067 72.378827 
L 1003.8042 70.829823 
L 1005.874333 69.280819 
L 1007.944466 67.731814 
L 1010.014599 66.18281 
L 1012.084732 64.633806 
L 1014.154865 63.084801 
L 1016.224999 61.535797 
L 1018.295132 59.986793 
L 1020.365265 58.437789 
L 1022.435398 56.888784 
L 1024.505531 55.33978 
L 1026.575664 53.790776 
L 1028.645797 52.241771 
L 1030.715931 50.692767 
L 1032.786064 49.143763 
L 1034.856197 47.594759 
L 1036.92633 46.045754 
L 1038.996463 44.49675 
L 1041.066596 42.947746 
L 1043.13673 41.398742 
L 1045.206863 39.849737 
L 1047.276996 38.300733 
L 1049.347129 36.751729 
L 1051.417262 35.202724 
L 1053.487395 33.65372 
L 1055.557528 32.104716 
" clip-path="url(#pef10f84004)" style="fill: none; stroke: #f45100; stroke-width: 2.25; stroke-linecap: round"/>
   </g>
   <g id="patch_18">
    <path d="M 840.367187 244.395625 
L 840.367187 21.995625 
" style="fill: none; stroke: #cccccc; stroke-width: 0.8; stroke-linejoin: miter; stroke-linecap: square"/>
   </g>
   <g id="patch_19">
    <path d="M 1065.804688 244.395625 
L 1065.804688 21.995625 
" style="fill: none; stroke: #cccccc; stroke-width: 0.8; stroke-linejoin: miter; stroke-linecap: square"/>
   </g>
   <g id="patch_20">
    <path d="M 840.367188 244.395625 
L 1065.804688 244.395625 
" style="fill: none; stroke: #cccccc; stroke-width: 0.8; stroke-linejoin: miter; stroke-linecap: square"/>
   </g>
   <g id="patch_21">
    <path d="M 840.367188 21.995625 
L 1065.804688 21.995625 
" style="fill: none; stroke: #cccccc; stroke-width: 0.8; stroke-linejoin: miter; stroke-linecap: square"/>
   </g>
   <g id="text_69">
    <!-- Набір даних IV -->
    <g style="fill: #262626" transform="translate(911.805 15.995625) scale(0.12 -0.12)">
     <defs>
      <path id="ArialMT-56" d="M 1803 0 
L 28 4581 
L 684 4581 
L 1875 1253 
Q 2019 853 2116 503 
Q 2222 878 2363 1253 
L 3600 4581 
L 4219 4581 
L 2425 0 
L 1803 0 
z
" transform="scale(0.015625)"/>
     </defs>
     <use xlink:href="#ArialMT-41d"/>
     <use xlink:href="#ArialMT-430" x="72.216797"/>
     <use xlink:href="#ArialMT-431" x="127.832031"/>
     <use xlink:href="#ArialMT-456" x="185.107422"/>
     <use xlink:href="#ArialMT-440" x="207.324219"/>
     <use xlink:href="#ArialMT-20" x="262.939453"/>
     <use xlink:href="#ArialMT-434" x="290.722656"/>
     <use xlink:href="#ArialMT-430" x="349.072266"/>
     <use xlink:href="#ArialMT-43d" x="404.6875"/>
     <use xlink:href="#ArialMT-438" x="459.912109"/>
     <use xlink:href="#ArialMT-445" x="515.771484"/>
     <use xlink:href="#ArialMT-20" x="565.771484"/>
     <use xlink:href="#ArialMT-49" x="593.554688"/>
     <use xlink:href="#ArialMT-56" x="621.337891"/>
    </g>
   </g>
  </g>
 </g>
 <defs>
  <clipPath id="p2b3f88ad28">
   <rect x="38.467188" y="21.995625" width="225.4375" height="222.4"/>
  </clipPath>
  <clipPath id="pb27cb965c0">
   <rect x="305.767188" y="21.995625" width="225.4375" height="222.4"/>
  </clipPath>
  <clipPath id="p98366a4d1f">
   <rect x="573.067187" y="21.995625" width="225.4375" height="222.4"/>
  </clipPath>
  <clipPath id="pef10f84004">
   <rect x="840.367187" y="21.995625" width="225.4375" height="222.4"/>
  </clipPath>
 </defs>
</svg>
