<?xml version="1.0" encoding="utf-8" standalone="no"?>
<!DOCTYPE svg PUBLIC "-//W3C//DTD SVG 1.1//EN"
  "http://www.w3.org/Graphics/SVG/1.1/DTD/svg11.dtd">
<svg xmlns:xlink="http://www.w3.org/1999/xlink" width="572.4pt" height="311.2pt" viewBox="0 0 572.4 311.2" xmlns="http://www.w3.org/2000/svg" version="1.1">
 <metadata>
  <rdf:RDF xmlns:dc="http://purl.org/dc/elements/1.1/" xmlns:cc="http://creativecommons.org/ns#" xmlns:rdf="http://www.w3.org/1999/02/22-rdf-syntax-ns#">
   <cc:Work>
    <dc:type rdf:resource="http://purl.org/dc/dcmitype/StillImage"/>
    <dc:date>2025-04-28T14:39:15.346874</dc:date>
    <dc:format>image/svg+xml</dc:format>
    <dc:creator>
     <cc:Agent>
      <dc:title>Matplotlib v3.7.2, https://matplotlib.org/</dc:title>
     </cc:Agent>
    </dc:creator>
   </cc:Work>
  </rdf:RDF>
 </metadata>
 <defs>
  <style type="text/css">*{stroke-linejoin: round; stroke-linecap: butt}</style>
 </defs>
 <g id="figure_1">
  <g id="patch_1">
   <path d="M 0 311.2 
L 572.4 311.2 
L 572.4 0 
L 0 0 
z
" style="fill: #ffffff"/>
  </g>
  <g id="axes_1">
   <g id="matplotlib.axis_1">
    <g id="xtick_1"/>
    <g id="xtick_2"/>
    <g id="xtick_3"/>
    <g id="xtick_4"/>
    <g id="xtick_5"/>
    <g id="xtick_6"/>
    <g id="xtick_7"/>
    <g id="xtick_8"/>
    <g id="xtick_9"/>
    <g id="text_1">
     <!-- $\beta$ -->
     <g style="fill: #262626" transform="translate(151.46 299.8) scale(0.2 -0.2)">
      <defs>
       <path id="DejaVuSans-Oblique-3b2" d="M 872 216 
L 572 -1331 
L -6 -1331 
L 928 3478 
Q 1206 4903 2538 4903 
Q 3888 4903 3659 3700 
Q 3503 2844 2894 2531 
Q 3713 2250 3553 1416 
Q 3272 -69 1759 -66 
Q 1097 -63 872 216 
z
M 1019 966 
Q 1259 422 1875 425 
Q 2775 425 2966 1406 
Q 3138 2288 1675 2219 
L 1778 2750 
Q 2909 2731 3106 3750 
Q 3241 4438 2509 4434 
Q 1691 4434 1503 3459 
L 1019 966 
z
" transform="scale(0.015625)"/>
      </defs>
      <use xlink:href="#DejaVuSans-Oblique-3b2" transform="translate(0 0.390625)"/>
     </g>
    </g>
   </g>
   <g id="matplotlib.axis_2">
    <g id="ytick_1"/>
    <g id="ytick_2"/>
    <g id="ytick_3"/>
    <g id="ytick_4"/>
    <g id="ytick_5"/>
    <g id="ytick_6"/>
    <g id="ytick_7"/>
    <g id="ytick_8"/>
    <g id="ytick_9"/>
   </g>
   <g id="PolyCollection_1">
    <defs>
     <path id="mdca72b0cd9" d="M 32.563636 -39.4 
L 32.563636 -39.484537 
L 33.197727 -39.487982 
L 33.831818 -39.491559 
L 34.465909 -39.495272 
L 35.1 -39.499125 
L 35.734091 -39.503124 
L 36.368182 -39.507274 
L 37.002273 -39.511579 
L 37.636364 -39.516046 
L 38.270455 -39.520679 
L 38.904545 -39.525485 
L 39.538636 -39.530469 
L 40.172727 -39.535637 
L 40.806818 -39.540996 
L 41.440909 -39.546553 
L 42.075 -39.552313 
L 42.709091 -39.558283 
L 43.343182 -39.564471 
L 43.977273 -39.570884 
L 44.611364 -39.577529 
L 45.245455 -39.584414 
L 45.879545 -39.591547 
L 46.513636 -39.598936 
L 47.147727 -39.60659 
L 47.781818 -39.614516 
L 48.415909 -39.622724 
L 49.05 -39.631223 
L 49.684091 -39.640023 
L 50.318182 -39.649132 
L 50.952273 -39.658562 
L 51.586364 -39.668321 
L 52.220455 -39.678421 
L 52.854545 -39.688872 
L 53.488636 -39.699686 
L 54.122727 -39.710873 
L 54.756818 -39.722446 
L 55.390909 -39.734416 
L 56.025 -39.746795 
L 56.659091 -39.759597 
L 57.293182 -39.772834 
L 57.927273 -39.78652 
L 58.561364 -39.800668 
L 59.195455 -39.815293 
L 59.829545 -39.830408 
L 60.463636 -39.846029 
L 61.097727 -39.862171 
L 61.731818 -39.878849 
L 62.365909 -39.896079 
L 63 -39.913877 
L 63.634091 -39.932261 
L 64.268182 -39.951248 
L 64.902273 -39.970855 
L 65.536364 -39.9911 
L 66.170455 -40.012001 
L 66.804545 -40.033579 
L 67.438636 -40.055851 
L 68.072727 -40.078839 
L 68.706818 -40.102563 
L 69.340909 -40.127042 
L 69.975 -40.152299 
L 70.609091 -40.178356 
L 71.243182 -40.205235 
L 71.877273 -40.232959 
L 72.511364 -40.261551 
L 73.145455 -40.291036 
L 73.779545 -40.321437 
L 74.413636 -40.35278 
L 75.047727 -40.385091 
L 75.681818 -40.418396 
L 76.315909 -40.452722 
L 76.95 -40.488096 
L 77.584091 -40.524546 
L 78.218182 -40.5621 
L 78.852273 -40.600789 
L 79.486364 -40.640642 
L 80.120455 -40.681689 
L 80.754545 -40.723962 
L 81.388636 -40.767493 
L 82.022727 -40.812313 
L 82.656818 -40.858457 
L 83.290909 -40.905958 
L 83.925 -40.95485 
L 84.559091 -41.005169 
L 85.193182 -41.056951 
L 85.827273 -41.110232 
L 86.461364 -41.16505 
L 87.095455 -41.221443 
L 87.729545 -41.27945 
L 88.363636 -41.33911 
L 88.997727 -41.400464 
L 89.631818 -41.463553 
L 90.265909 -41.528418 
L 90.9 -41.595103 
L 91.534091 -41.663651 
L 92.168182 -41.734106 
L 92.802273 -41.806514 
L 93.436364 -41.880919 
L 94.070455 -41.957369 
L 94.704545 -42.035912 
L 95.338636 -42.116595 
L 95.972727 -42.199467 
L 96.606818 -42.284579 
L 97.240909 -42.371982 
L 97.875 -42.461727 
L 98.509091 -42.553866 
L 99.143182 -42.648454 
L 99.777273 -42.745543 
L 100.411364 -42.84519 
L 101.045455 -42.94745 
L 101.679545 -43.05238 
L 102.313636 -43.160038 
L 102.947727 -43.270482 
L 103.581818 -43.383772 
L 104.215909 -43.499968 
L 104.85 -43.619131 
L 105.484091 -43.741323 
L 106.118182 -43.866607 
L 106.752273 -43.995047 
L 107.386364 -44.126709 
L 108.020455 -44.261656 
L 108.654545 -44.399956 
L 109.288636 -44.541676 
L 109.922727 -44.686884 
L 110.556818 -44.83565 
L 111.190909 -44.988043 
L 111.825 -45.144134 
L 112.459091 -45.303994 
L 113.093182 -45.467697 
L 113.727273 -45.635315 
L 114.361364 -45.806923 
L 114.995455 -45.982595 
L 115.629545 -46.162408 
L 116.263636 -46.346439 
L 116.897727 -46.534763 
L 117.531818 -46.727461 
L 118.165909 -46.924611 
L 118.8 -47.126292 
L 119.434091 -47.332586 
L 120.068182 -47.543573 
L 120.702273 -47.759337 
L 121.336364 -47.979959 
L 121.970455 -48.205523 
L 122.604545 -48.436113 
L 123.238636 -48.671814 
L 123.872727 -48.912713 
L 124.506818 -49.158894 
L 125.140909 -49.410445 
L 125.775 -49.667454 
L 126.409091 -49.930008 
L 127.043182 -50.198196 
L 127.677273 -50.472107 
L 128.311364 -50.751831 
L 128.945455 -51.037459 
L 129.579545 -51.32908 
L 130.213636 -51.626786 
L 130.847727 -51.930668 
L 131.481818 -52.240819 
L 132.115909 -52.557331 
L 132.75 -52.880296 
L 133.384091 -53.209808 
L 134.018182 -53.54596 
L 134.652273 -53.888846 
L 135.286364 -54.238558 
L 135.920455 -54.595192 
L 136.554545 -54.958842 
L 137.188636 -55.329601 
L 137.822727 -55.707565 
L 138.456818 -56.092827 
L 139.090909 -56.485482 
L 139.725 -56.885625 
L 140.359091 -57.293349 
L 140.993182 -57.70875 
L 141.627273 -58.131921 
L 142.261364 -58.562957 
L 142.895455 -59.001951 
L 143.529545 -59.448996 
L 144.163636 -59.904187 
L 144.797727 -60.367615 
L 145.431818 -60.839373 
L 146.065909 -61.319553 
L 146.7 -61.808248 
L 147.334091 -62.305547 
L 147.968182 -62.811541 
L 148.602273 -63.32632 
L 149.236364 -63.849972 
L 149.870455 -64.382588 
L 150.504545 -64.924253 
L 151.138636 -65.475054 
L 151.772727 -66.035078 
L 152.406818 -66.60441 
L 153.040909 -67.183132 
L 153.675 -67.771329 
L 154.309091 -68.369081 
L 154.943182 -68.976469 
L 155.577273 -69.593573 
L 156.211364 -70.22047 
L 156.845455 -70.857238 
L 157.479545 -71.50395 
L 158.113636 -72.160682 
L 158.747727 -72.827506 
L 159.381818 -73.504491 
L 160.015909 -74.191708 
L 160.65 -74.889224 
L 161.284091 -75.597103 
L 161.918182 -76.31541 
L 162.552273 -77.044207 
L 163.186364 -77.783554 
L 163.820455 -78.533508 
L 164.454545 -79.294126 
L 165.088636 -80.06546 
L 165.722727 -80.847563 
L 166.356818 -81.640484 
L 166.990909 -82.444269 
L 167.625 -83.258962 
L 168.259091 -84.084607 
L 168.893182 -84.921243 
L 169.527273 -85.768905 
L 170.161364 -86.627629 
L 170.795455 -87.497446 
L 171.429545 -88.378385 
L 172.063636 -89.270472 
L 172.697727 -90.17373 
L 173.331818 -91.088178 
L 173.965909 -92.013834 
L 174.6 -92.950712 
L 175.234091 -93.898822 
L 175.868182 -94.858172 
L 176.502273 -95.828767 
L 177.136364 -96.810608 
L 177.770455 -97.803691 
L 178.404545 -98.808011 
L 179.038636 -99.82356 
L 179.672727 -100.850323 
L 180.306818 -101.888284 
L 180.940909 -102.937424 
L 181.575 -103.997718 
L 182.209091 -105.069139 
L 182.843182 -106.151655 
L 183.477273 -107.24523 
L 184.111364 -108.349826 
L 184.745455 -109.4654 
L 185.379545 -110.591903 
L 186.013636 -111.729284 
L 186.647727 -112.877489 
L 187.281818 -114.036457 
L 187.915909 -115.206124 
L 188.55 -116.386423 
L 189.184091 -117.577282 
L 189.818182 -118.778622 
L 190.452273 -119.990364 
L 191.086364 -121.212422 
L 191.720455 -122.444706 
L 192.354545 -123.687122 
L 192.988636 -124.939571 
L 193.622727 -126.20195 
L 194.256818 -127.474151 
L 194.890909 -128.756062 
L 195.525 -130.047566 
L 196.159091 -131.348541 
L 196.793182 -132.658862 
L 197.427273 -133.978397 
L 198.061364 -135.307011 
L 198.695455 -136.644564 
L 199.329545 -137.990912 
L 199.963636 -139.345905 
L 200.597727 -140.709389 
L 201.231818 -142.081205 
L 201.865909 -143.46119 
L 202.5 -144.849175 
L 203.134091 -146.244989 
L 203.768182 -147.648454 
L 204.402273 -149.059388 
L 205.036364 -150.477603 
L 205.670455 -151.90291 
L 206.304545 -153.335111 
L 206.938636 -154.774007 
L 207.572727 -156.219392 
L 208.206818 -157.671057 
L 208.840909 -159.128788 
L 209.475 -160.592366 
L 210.109091 -162.061569 
L 210.743182 -163.536167 
L 211.377273 -165.015931 
L 212.011364 -166.500624 
L 212.645455 -167.990005 
L 213.279545 -169.48383 
L 213.913636 -170.981849 
L 214.547727 -172.483811 
L 215.181818 -173.989457 
L 215.815909 -175.498527 
L 216.45 -177.010756 
L 217.084091 -178.525873 
L 217.718182 -180.043608 
L 218.352273 -181.563683 
L 218.986364 -183.085817 
L 219.620455 -184.609727 
L 220.254545 -186.135125 
L 220.888636 -187.66172 
L 221.522727 -189.189217 
L 222.156818 -190.71732 
L 222.790909 -192.245726 
L 223.425 -193.774132 
L 224.059091 -195.302231 
L 224.693182 -196.829712 
L 225.327273 -198.356263 
L 225.961364 -199.881567 
L 226.595455 -201.405306 
L 227.229545 -202.927159 
L 227.863636 -204.446803 
L 228.497727 -205.963911 
L 229.131818 -207.478156 
L 229.765909 -208.989208 
L 230.4 -210.496733 
L 231.034091 -212.000399 
L 231.668182 -213.499868 
L 232.302273 -214.994803 
L 232.936364 -216.484866 
L 233.570455 -217.969715 
L 234.204545 -219.449009 
L 234.838636 -220.922405 
L 235.472727 -222.389557 
L 236.106818 -223.850122 
L 236.740909 -225.303754 
L 237.375 -226.750105 
L 238.009091 -228.18883 
L 238.643182 -229.61958 
L 239.277273 -231.042008 
L 239.911364 -232.455765 
L 240.545455 -233.860506 
L 241.179545 -235.255881 
L 241.813636 -236.641544 
L 242.447727 -238.017147 
L 243.081818 -239.382345 
L 243.715909 -240.736792 
L 244.35 -242.080143 
L 244.984091 -243.412055 
L 245.618182 -244.732186 
L 246.252273 -246.040194 
L 246.886364 -247.33574 
L 247.520455 -248.618485 
L 248.154545 -249.888093 
L 248.788636 -251.144231 
L 249.422727 -252.386565 
L 250.056818 -253.614765 
L 250.690909 -254.828504 
L 251.325 -256.027456 
L 251.959091 -257.211299 
L 252.593182 -258.379712 
L 253.227273 -259.532379 
L 253.861364 -260.668985 
L 254.495455 -261.789219 
L 255.129545 -262.892775 
L 255.763636 -263.979348 
L 256.397727 -265.048637 
L 257.031818 -266.100347 
L 257.665909 -267.134184 
L 258.3 -268.149859 
L 258.934091 -269.147088 
L 259.568182 -270.125591 
L 260.202273 -271.085092 
L 260.836364 -272.025319 
L 261.470455 -272.946006 
L 262.104545 -273.846892 
L 262.738636 -274.727718 
L 263.372727 -275.588234 
L 264.006818 -276.428192 
L 264.640909 -277.247351 
L 265.275 -278.045476 
L 265.909091 -278.822336 
L 266.543182 -279.577705 
L 267.177273 -280.311365 
L 267.811364 -281.023103 
L 268.445455 -281.712711 
L 269.079545 -282.379988 
L 269.713636 -283.024739 
L 270.347727 -283.646775 
L 270.981818 -284.245913 
L 271.615909 -284.821978 
L 272.25 -285.374799 
L 272.884091 -285.904214 
L 273.518182 -286.410066 
L 274.152273 -286.892205 
L 274.786364 -287.35049 
L 275.420455 -287.784783 
L 276.054545 -288.194956 
L 276.688636 -288.580887 
L 277.322727 -288.942462 
L 277.956818 -289.279571 
L 278.590909 -289.592116 
L 279.225 -289.880003 
L 279.859091 -290.143145 
L 280.493182 -290.381464 
L 281.127273 -290.594889 
L 281.761364 -290.783356 
L 282.395455 -290.946808 
L 283.029545 -291.085197 
L 283.663636 -291.198481 
L 284.297727 -291.286626 
L 284.931818 -291.349605 
L 285.565909 -291.3874 
L 286.2 -291.4 
L 286.834091 -291.3874 
L 287.468182 -291.349605 
L 288.102273 -291.286626 
L 288.736364 -291.198481 
L 289.370455 -291.085197 
L 290.004545 -290.946808 
L 290.638636 -290.783356 
L 291.272727 -290.594889 
L 291.906818 -290.381464 
L 292.540909 -290.143145 
L 293.175 -289.880003 
L 293.809091 -289.592116 
L 294.443182 -289.279571 
L 295.077273 -288.942462 
L 295.711364 -288.580887 
L 296.345455 -288.194956 
L 296.979545 -287.784783 
L 297.613636 -287.35049 
L 298.247727 -286.892205 
L 298.881818 -286.410066 
L 299.515909 -285.904214 
L 300.15 -285.374799 
L 300.784091 -284.821978 
L 301.418182 -284.245913 
L 302.052273 -283.646775 
L 302.686364 -283.024739 
L 303.320455 -282.379988 
L 303.954545 -281.712711 
L 304.588636 -281.023103 
L 305.222727 -280.311365 
L 305.856818 -279.577705 
L 306.490909 -278.822336 
L 307.125 -278.045476 
L 307.759091 -277.247351 
L 308.393182 -276.428192 
L 309.027273 -275.588234 
L 309.661364 -274.727718 
L 310.295455 -273.846892 
L 310.929545 -272.946006 
L 311.563636 -272.025319 
L 312.197727 -271.085092 
L 312.831818 -270.125591 
L 313.465909 -269.147088 
L 314.1 -268.149859 
L 314.734091 -267.134184 
L 315.368182 -266.100347 
L 316.002273 -265.048637 
L 316.636364 -263.979348 
L 317.270455 -262.892775 
L 317.904545 -261.789219 
L 318.538636 -260.668985 
L 319.172727 -259.532379 
L 319.806818 -258.379712 
L 320.440909 -257.211299 
L 321.075 -256.027456 
L 321.709091 -254.828504 
L 322.343182 -253.614765 
L 322.977273 -252.386565 
L 323.611364 -251.144231 
L 324.245455 -249.888093 
L 324.879545 -248.618485 
L 325.513636 -247.33574 
L 326.147727 -246.040194 
L 326.781818 -244.732186 
L 327.415909 -243.412055 
L 328.05 -242.080143 
L 328.684091 -240.736792 
L 329.318182 -239.382345 
L 329.952273 -238.017147 
L 330.586364 -236.641544 
L 331.220455 -235.255881 
L 331.854545 -233.860506 
L 332.488636 -232.455765 
L 333.122727 -231.042008 
L 333.756818 -229.61958 
L 334.390909 -228.18883 
L 335.025 -226.750105 
L 335.659091 -225.303754 
L 336.293182 -223.850122 
L 336.927273 -222.389557 
L 337.561364 -220.922405 
L 338.195455 -219.449009 
L 338.829545 -217.969715 
L 339.463636 -216.484866 
L 340.097727 -214.994803 
L 340.731818 -213.499868 
L 341.365909 -212.000399 
L 342 -210.496733 
L 342.634091 -208.989208 
L 343.268182 -207.478156 
L 343.902273 -205.963911 
L 344.536364 -204.446803 
L 345.170455 -202.927159 
L 345.804545 -201.405306 
L 346.438636 -199.881567 
L 347.072727 -198.356263 
L 347.706818 -196.829712 
L 348.340909 -195.302231 
L 348.975 -193.774132 
L 349.609091 -192.245726 
L 350.243182 -190.71732 
L 350.877273 -189.189217 
L 351.511364 -187.66172 
L 352.145455 -186.135125 
L 352.779545 -184.609727 
L 353.413636 -183.085817 
L 354.047727 -181.563683 
L 354.681818 -180.043608 
L 355.315909 -178.525873 
L 355.95 -177.010756 
L 356.584091 -175.498527 
L 357.218182 -173.989457 
L 357.852273 -172.483811 
L 358.486364 -170.981849 
L 359.120455 -169.48383 
L 359.754545 -167.990005 
L 360.388636 -166.500624 
L 361.022727 -165.015931 
L 361.656818 -163.536167 
L 362.290909 -162.061569 
L 362.925 -160.592366 
L 363.559091 -159.128788 
L 364.193182 -157.671057 
L 364.827273 -156.219392 
L 365.461364 -154.774007 
L 366.095455 -153.335111 
L 366.729545 -151.90291 
L 367.363636 -150.477603 
L 367.997727 -149.059388 
L 368.631818 -147.648454 
L 369.265909 -146.244989 
L 369.9 -144.849175 
L 370.534091 -143.46119 
L 371.168182 -142.081205 
L 371.802273 -140.709389 
L 372.436364 -139.345905 
L 373.070455 -137.990912 
L 373.704545 -136.644564 
L 374.338636 -135.307011 
L 374.972727 -133.978397 
L 375.606818 -132.658862 
L 376.240909 -131.348541 
L 376.875 -130.047566 
L 377.509091 -128.756062 
L 378.143182 -127.474151 
L 378.777273 -126.20195 
L 379.411364 -124.939571 
L 380.045455 -123.687122 
L 380.679545 -122.444706 
L 381.313636 -121.212422 
L 381.947727 -119.990364 
L 382.581818 -118.778622 
L 383.215909 -117.577282 
L 383.85 -116.386423 
L 384.484091 -115.206124 
L 385.118182 -114.036457 
L 385.752273 -112.877489 
L 386.386364 -111.729284 
L 387.020455 -110.591903 
L 387.654545 -109.4654 
L 388.288636 -108.349826 
L 388.922727 -107.24523 
L 389.556818 -106.151655 
L 390.190909 -105.069139 
L 390.825 -103.997718 
L 391.459091 -102.937424 
L 392.093182 -101.888284 
L 392.727273 -100.850323 
L 393.361364 -99.82356 
L 393.995455 -98.808011 
L 394.629545 -97.803691 
L 395.263636 -96.810608 
L 395.897727 -95.828767 
L 396.531818 -94.858172 
L 397.165909 -93.898822 
L 397.8 -92.950712 
L 398.434091 -92.013834 
L 399.068182 -91.088178 
L 399.702273 -90.17373 
L 400.336364 -89.270472 
L 400.970455 -88.378385 
L 401.604545 -87.497446 
L 402.238636 -86.627629 
L 402.872727 -85.768905 
L 403.506818 -84.921243 
L 404.140909 -84.084607 
L 404.775 -83.258962 
L 405.409091 -82.444269 
L 406.043182 -81.640484 
L 406.677273 -80.847563 
L 407.311364 -80.06546 
L 407.945455 -79.294126 
L 408.579545 -78.533508 
L 409.213636 -77.783554 
L 409.847727 -77.044207 
L 410.481818 -76.31541 
L 411.115909 -75.597103 
L 411.75 -74.889224 
L 412.384091 -74.191708 
L 413.018182 -73.504491 
L 413.652273 -72.827506 
L 414.286364 -72.160682 
L 414.920455 -71.50395 
L 415.554545 -70.857238 
L 416.188636 -70.22047 
L 416.822727 -69.593573 
L 417.456818 -68.976469 
L 418.090909 -68.369081 
L 418.725 -67.771329 
L 419.359091 -67.183132 
L 419.993182 -66.60441 
L 420.627273 -66.035078 
L 421.261364 -65.475054 
L 421.895455 -64.924253 
L 422.529545 -64.382588 
L 423.163636 -63.849972 
L 423.797727 -63.32632 
L 424.431818 -62.811541 
L 425.065909 -62.305547 
L 425.7 -61.808248 
L 426.334091 -61.319553 
L 426.968182 -60.839373 
L 427.602273 -60.367615 
L 428.236364 -59.904187 
L 428.870455 -59.448996 
L 429.504545 -59.001951 
L 430.138636 -58.562957 
L 430.772727 -58.131921 
L 431.406818 -57.70875 
L 432.040909 -57.293349 
L 432.675 -56.885625 
L 433.309091 -56.485482 
L 433.943182 -56.092827 
L 434.577273 -55.707565 
L 435.211364 -55.329601 
L 435.845455 -54.958842 
L 436.479545 -54.595192 
L 437.113636 -54.238558 
L 437.747727 -53.888846 
L 438.381818 -53.54596 
L 439.015909 -53.209808 
L 439.65 -52.880296 
L 440.284091 -52.557331 
L 440.918182 -52.240819 
L 441.552273 -51.930668 
L 442.186364 -51.626786 
L 442.820455 -51.32908 
L 443.454545 -51.037459 
L 444.088636 -50.751831 
L 444.722727 -50.472107 
L 445.356818 -50.198196 
L 445.990909 -49.930008 
L 446.625 -49.667454 
L 447.259091 -49.410445 
L 447.893182 -49.158894 
L 448.527273 -48.912713 
L 449.161364 -48.671814 
L 449.795455 -48.436113 
L 450.429545 -48.205523 
L 451.063636 -47.979959 
L 451.697727 -47.759337 
L 452.331818 -47.543573 
L 452.965909 -47.332586 
L 453.6 -47.126292 
L 454.234091 -46.924611 
L 454.868182 -46.727461 
L 455.502273 -46.534763 
L 456.136364 -46.346439 
L 456.770455 -46.162408 
L 457.404545 -45.982595 
L 458.038636 -45.806923 
L 458.672727 -45.635315 
L 459.306818 -45.467697 
L 459.940909 -45.303994 
L 460.575 -45.144134 
L 461.209091 -44.988043 
L 461.843182 -44.83565 
L 462.477273 -44.686884 
L 463.111364 -44.541676 
L 463.745455 -44.399956 
L 464.379545 -44.261656 
L 465.013636 -44.126709 
L 465.647727 -43.995047 
L 466.281818 -43.866607 
L 466.915909 -43.741323 
L 467.55 -43.619131 
L 468.184091 -43.499968 
L 468.818182 -43.383772 
L 469.452273 -43.270482 
L 470.086364 -43.160038 
L 470.720455 -43.05238 
L 471.354545 -42.94745 
L 471.988636 -42.84519 
L 472.622727 -42.745543 
L 473.256818 -42.648454 
L 473.890909 -42.553866 
L 474.525 -42.461727 
L 475.159091 -42.371982 
L 475.793182 -42.284579 
L 476.427273 -42.199467 
L 477.061364 -42.116595 
L 477.695455 -42.035912 
L 478.329545 -41.957369 
L 478.963636 -41.880919 
L 479.597727 -41.806514 
L 480.231818 -41.734106 
L 480.865909 -41.663651 
L 481.5 -41.595103 
L 482.134091 -41.528418 
L 482.768182 -41.463553 
L 483.402273 -41.400464 
L 484.036364 -41.33911 
L 484.670455 -41.27945 
L 485.304545 -41.221443 
L 485.938636 -41.16505 
L 486.572727 -41.110232 
L 487.206818 -41.056951 
L 487.840909 -41.005169 
L 488.475 -40.95485 
L 489.109091 -40.905958 
L 489.743182 -40.858457 
L 490.377273 -40.812313 
L 491.011364 -40.767493 
L 491.645455 -40.723962 
L 492.279545 -40.681689 
L 492.913636 -40.640642 
L 493.547727 -40.600789 
L 494.181818 -40.5621 
L 494.815909 -40.524546 
L 495.45 -40.488096 
L 496.084091 -40.452722 
L 496.718182 -40.418396 
L 497.352273 -40.385091 
L 497.986364 -40.35278 
L 498.620455 -40.321437 
L 499.254545 -40.291036 
L 499.888636 -40.261551 
L 500.522727 -40.232959 
L 501.156818 -40.205235 
L 501.790909 -40.178356 
L 502.425 -40.152299 
L 503.059091 -40.127042 
L 503.693182 -40.102563 
L 504.327273 -40.078839 
L 504.961364 -40.055851 
L 505.595455 -40.033579 
L 506.229545 -40.012001 
L 506.863636 -39.9911 
L 507.497727 -39.970855 
L 508.131818 -39.951248 
L 508.765909 -39.932261 
L 509.4 -39.913877 
L 510.034091 -39.896079 
L 510.668182 -39.878849 
L 511.302273 -39.862171 
L 511.936364 -39.846029 
L 512.570455 -39.830408 
L 513.204545 -39.815293 
L 513.838636 -39.800668 
L 514.472727 -39.78652 
L 515.106818 -39.772834 
L 515.740909 -39.759597 
L 516.375 -39.746795 
L 517.009091 -39.734416 
L 517.643182 -39.722446 
L 518.277273 -39.710873 
L 518.911364 -39.699686 
L 519.545455 -39.688872 
L 520.179545 -39.678421 
L 520.813636 -39.668321 
L 521.447727 -39.658562 
L 522.081818 -39.649132 
L 522.715909 -39.640023 
L 523.35 -39.631223 
L 523.984091 -39.622724 
L 524.618182 -39.614516 
L 525.252273 -39.60659 
L 525.886364 -39.598936 
L 526.520455 -39.591547 
L 527.154545 -39.584414 
L 527.788636 -39.577529 
L 528.422727 -39.570884 
L 529.056818 -39.564471 
L 529.690909 -39.558283 
L 530.325 -39.552313 
L 530.959091 -39.546553 
L 531.593182 -39.540996 
L 532.227273 -39.535637 
L 532.861364 -39.530469 
L 533.495455 -39.525485 
L 534.129545 -39.520679 
L 534.763636 -39.516046 
L 535.397727 -39.511579 
L 536.031818 -39.507274 
L 536.665909 -39.503124 
L 537.3 -39.499125 
L 537.934091 -39.495272 
L 538.568182 -39.491559 
L 539.202273 -39.487982 
L 539.836364 -39.484537 
L 539.836364 -39.4 
L 539.836364 -39.4 
L 539.202273 -39.4 
L 538.568182 -39.4 
L 537.934091 -39.4 
L 537.3 -39.4 
L 536.665909 -39.4 
L 536.031818 -39.4 
L 535.397727 -39.4 
L 534.763636 -39.4 
L 534.129545 -39.4 
L 533.495455 -39.4 
L 532.861364 -39.4 
L 532.227273 -39.4 
L 531.593182 -39.4 
L 530.959091 -39.4 
L 530.325 -39.4 
L 529.690909 -39.4 
L 529.056818 -39.4 
L 528.422727 -39.4 
L 527.788636 -39.4 
L 527.154545 -39.4 
L 526.520455 -39.4 
L 525.886364 -39.4 
L 525.252273 -39.4 
L 524.618182 -39.4 
L 523.984091 -39.4 
L 523.35 -39.4 
L 522.715909 -39.4 
L 522.081818 -39.4 
L 521.447727 -39.4 
L 520.813636 -39.4 
L 520.179545 -39.4 
L 519.545455 -39.4 
L 518.911364 -39.4 
L 518.277273 -39.4 
L 517.643182 -39.4 
L 517.009091 -39.4 
L 516.375 -39.4 
L 515.740909 -39.4 
L 515.106818 -39.4 
L 514.472727 -39.4 
L 513.838636 -39.4 
L 513.204545 -39.4 
L 512.570455 -39.4 
L 511.936364 -39.4 
L 511.302273 -39.4 
L 510.668182 -39.4 
L 510.034091 -39.4 
L 509.4 -39.4 
L 508.765909 -39.4 
L 508.131818 -39.4 
L 507.497727 -39.4 
L 506.863636 -39.4 
L 506.229545 -39.4 
L 505.595455 -39.4 
L 504.961364 -39.4 
L 504.327273 -39.4 
L 503.693182 -39.4 
L 503.059091 -39.4 
L 502.425 -39.4 
L 501.790909 -39.4 
L 501.156818 -39.4 
L 500.522727 -39.4 
L 499.888636 -39.4 
L 499.254545 -39.4 
L 498.620455 -39.4 
L 497.986364 -39.4 
L 497.352273 -39.4 
L 496.718182 -39.4 
L 496.084091 -39.4 
L 495.45 -39.4 
L 494.815909 -39.4 
L 494.181818 -39.4 
L 493.547727 -39.4 
L 492.913636 -39.4 
L 492.279545 -39.4 
L 491.645455 -39.4 
L 491.011364 -39.4 
L 490.377273 -39.4 
L 489.743182 -39.4 
L 489.109091 -39.4 
L 488.475 -39.4 
L 487.840909 -39.4 
L 487.206818 -39.4 
L 486.572727 -39.4 
L 485.938636 -39.4 
L 485.304545 -39.4 
L 484.670455 -39.4 
L 484.036364 -39.4 
L 483.402273 -39.4 
L 482.768182 -39.4 
L 482.134091 -39.4 
L 481.5 -39.4 
L 480.865909 -39.4 
L 480.231818 -39.4 
L 479.597727 -39.4 
L 478.963636 -39.4 
L 478.329545 -39.4 
L 477.695455 -39.4 
L 477.061364 -39.4 
L 476.427273 -39.4 
L 475.793182 -39.4 
L 475.159091 -39.4 
L 474.525 -39.4 
L 473.890909 -39.4 
L 473.256818 -39.4 
L 472.622727 -39.4 
L 471.988636 -39.4 
L 471.354545 -39.4 
L 470.720455 -39.4 
L 470.086364 -39.4 
L 469.452273 -39.4 
L 468.818182 -39.4 
L 468.184091 -39.4 
L 467.55 -39.4 
L 466.915909 -39.4 
L 466.281818 -39.4 
L 465.647727 -39.4 
L 465.013636 -39.4 
L 464.379545 -39.4 
L 463.745455 -39.4 
L 463.111364 -39.4 
L 462.477273 -39.4 
L 461.843182 -39.4 
L 461.209091 -39.4 
L 460.575 -39.4 
L 459.940909 -39.4 
L 459.306818 -39.4 
L 458.672727 -39.4 
L 458.038636 -39.4 
L 457.404545 -39.4 
L 456.770455 -39.4 
L 456.136364 -39.4 
L 455.502273 -39.4 
L 454.868182 -39.4 
L 454.234091 -39.4 
L 453.6 -39.4 
L 452.965909 -39.4 
L 452.331818 -39.4 
L 451.697727 -39.4 
L 451.063636 -39.4 
L 450.429545 -39.4 
L 449.795455 -39.4 
L 449.161364 -39.4 
L 448.527273 -39.4 
L 447.893182 -39.4 
L 447.259091 -39.4 
L 446.625 -39.4 
L 445.990909 -39.4 
L 445.356818 -39.4 
L 444.722727 -39.4 
L 444.088636 -39.4 
L 443.454545 -39.4 
L 442.820455 -39.4 
L 442.186364 -39.4 
L 441.552273 -39.4 
L 440.918182 -39.4 
L 440.284091 -39.4 
L 439.65 -39.4 
L 439.015909 -39.4 
L 438.381818 -39.4 
L 437.747727 -39.4 
L 437.113636 -39.4 
L 436.479545 -39.4 
L 435.845455 -39.4 
L 435.211364 -39.4 
L 434.577273 -39.4 
L 433.943182 -39.4 
L 433.309091 -39.4 
L 432.675 -39.4 
L 432.040909 -39.4 
L 431.406818 -39.4 
L 430.772727 -39.4 
L 430.138636 -39.4 
L 429.504545 -39.4 
L 428.870455 -39.4 
L 428.236364 -39.4 
L 427.602273 -39.4 
L 426.968182 -39.4 
L 426.334091 -39.4 
L 425.7 -39.4 
L 425.065909 -39.4 
L 424.431818 -39.4 
L 423.797727 -39.4 
L 423.163636 -39.4 
L 422.529545 -39.4 
L 421.895455 -39.4 
L 421.261364 -39.4 
L 420.627273 -39.4 
L 419.993182 -39.4 
L 419.359091 -39.4 
L 418.725 -39.4 
L 418.090909 -39.4 
L 417.456818 -39.4 
L 416.822727 -39.4 
L 416.188636 -39.4 
L 415.554545 -39.4 
L 414.920455 -39.4 
L 414.286364 -39.4 
L 413.652273 -39.4 
L 413.018182 -39.4 
L 412.384091 -39.4 
L 411.75 -39.4 
L 411.115909 -39.4 
L 410.481818 -39.4 
L 409.847727 -39.4 
L 409.213636 -39.4 
L 408.579545 -39.4 
L 407.945455 -39.4 
L 407.311364 -39.4 
L 406.677273 -39.4 
L 406.043182 -39.4 
L 405.409091 -39.4 
L 404.775 -39.4 
L 404.140909 -39.4 
L 403.506818 -39.4 
L 402.872727 -39.4 
L 402.238636 -39.4 
L 401.604545 -39.4 
L 400.970455 -39.4 
L 400.336364 -39.4 
L 399.702273 -39.4 
L 399.068182 -39.4 
L 398.434091 -39.4 
L 397.8 -39.4 
L 397.165909 -39.4 
L 396.531818 -39.4 
L 395.897727 -39.4 
L 395.263636 -39.4 
L 394.629545 -39.4 
L 393.995455 -39.4 
L 393.361364 -39.4 
L 392.727273 -39.4 
L 392.093182 -39.4 
L 391.459091 -39.4 
L 390.825 -39.4 
L 390.190909 -39.4 
L 389.556818 -39.4 
L 388.922727 -39.4 
L 388.288636 -39.4 
L 387.654545 -39.4 
L 387.020455 -39.4 
L 386.386364 -39.4 
L 385.752273 -39.4 
L 385.118182 -39.4 
L 384.484091 -39.4 
L 383.85 -39.4 
L 383.215909 -39.4 
L 382.581818 -39.4 
L 381.947727 -39.4 
L 381.313636 -39.4 
L 380.679545 -39.4 
L 380.045455 -39.4 
L 379.411364 -39.4 
L 378.777273 -39.4 
L 378.143182 -39.4 
L 377.509091 -39.4 
L 376.875 -39.4 
L 376.240909 -39.4 
L 375.606818 -39.4 
L 374.972727 -39.4 
L 374.338636 -39.4 
L 373.704545 -39.4 
L 373.070455 -39.4 
L 372.436364 -39.4 
L 371.802273 -39.4 
L 371.168182 -39.4 
L 370.534091 -39.4 
L 369.9 -39.4 
L 369.265909 -39.4 
L 368.631818 -39.4 
L 367.997727 -39.4 
L 367.363636 -39.4 
L 366.729545 -39.4 
L 366.095455 -39.4 
L 365.461364 -39.4 
L 364.827273 -39.4 
L 364.193182 -39.4 
L 363.559091 -39.4 
L 362.925 -39.4 
L 362.290909 -39.4 
L 361.656818 -39.4 
L 361.022727 -39.4 
L 360.388636 -39.4 
L 359.754545 -39.4 
L 359.120455 -39.4 
L 358.486364 -39.4 
L 357.852273 -39.4 
L 357.218182 -39.4 
L 356.584091 -39.4 
L 355.95 -39.4 
L 355.315909 -39.4 
L 354.681818 -39.4 
L 354.047727 -39.4 
L 353.413636 -39.4 
L 352.779545 -39.4 
L 352.145455 -39.4 
L 351.511364 -39.4 
L 350.877273 -39.4 
L 350.243182 -39.4 
L 349.609091 -39.4 
L 348.975 -39.4 
L 348.340909 -39.4 
L 347.706818 -39.4 
L 347.072727 -39.4 
L 346.438636 -39.4 
L 345.804545 -39.4 
L 345.170455 -39.4 
L 344.536364 -39.4 
L 343.902273 -39.4 
L 343.268182 -39.4 
L 342.634091 -39.4 
L 342 -39.4 
L 341.365909 -39.4 
L 340.731818 -39.4 
L 340.097727 -39.4 
L 339.463636 -39.4 
L 338.829545 -39.4 
L 338.195455 -39.4 
L 337.561364 -39.4 
L 336.927273 -39.4 
L 336.293182 -39.4 
L 335.659091 -39.4 
L 335.025 -39.4 
L 334.390909 -39.4 
L 333.756818 -39.4 
L 333.122727 -39.4 
L 332.488636 -39.4 
L 331.854545 -39.4 
L 331.220455 -39.4 
L 330.586364 -39.4 
L 329.952273 -39.4 
L 329.318182 -39.4 
L 328.684091 -39.4 
L 328.05 -39.4 
L 327.415909 -39.4 
L 326.781818 -39.4 
L 326.147727 -39.4 
L 325.513636 -39.4 
L 324.879545 -39.4 
L 324.245455 -39.4 
L 323.611364 -39.4 
L 322.977273 -39.4 
L 322.343182 -39.4 
L 321.709091 -39.4 
L 321.075 -39.4 
L 320.440909 -39.4 
L 319.806818 -39.4 
L 319.172727 -39.4 
L 318.538636 -39.4 
L 317.904545 -39.4 
L 317.270455 -39.4 
L 316.636364 -39.4 
L 316.002273 -39.4 
L 315.368182 -39.4 
L 314.734091 -39.4 
L 314.1 -39.4 
L 313.465909 -39.4 
L 312.831818 -39.4 
L 312.197727 -39.4 
L 311.563636 -39.4 
L 310.929545 -39.4 
L 310.295455 -39.4 
L 309.661364 -39.4 
L 309.027273 -39.4 
L 308.393182 -39.4 
L 307.759091 -39.4 
L 307.125 -39.4 
L 306.490909 -39.4 
L 305.856818 -39.4 
L 305.222727 -39.4 
L 304.588636 -39.4 
L 303.954545 -39.4 
L 303.320455 -39.4 
L 302.686364 -39.4 
L 302.052273 -39.4 
L 301.418182 -39.4 
L 300.784091 -39.4 
L 300.15 -39.4 
L 299.515909 -39.4 
L 298.881818 -39.4 
L 298.247727 -39.4 
L 297.613636 -39.4 
L 296.979545 -39.4 
L 296.345455 -39.4 
L 295.711364 -39.4 
L 295.077273 -39.4 
L 294.443182 -39.4 
L 293.809091 -39.4 
L 293.175 -39.4 
L 292.540909 -39.4 
L 291.906818 -39.4 
L 291.272727 -39.4 
L 290.638636 -39.4 
L 290.004545 -39.4 
L 289.370455 -39.4 
L 288.736364 -39.4 
L 288.102273 -39.4 
L 287.468182 -39.4 
L 286.834091 -39.4 
L 286.2 -39.4 
L 285.565909 -39.4 
L 284.931818 -39.4 
L 284.297727 -39.4 
L 283.663636 -39.4 
L 283.029545 -39.4 
L 282.395455 -39.4 
L 281.761364 -39.4 
L 281.127273 -39.4 
L 280.493182 -39.4 
L 279.859091 -39.4 
L 279.225 -39.4 
L 278.590909 -39.4 
L 277.956818 -39.4 
L 277.322727 -39.4 
L 276.688636 -39.4 
L 276.054545 -39.4 
L 275.420455 -39.4 
L 274.786364 -39.4 
L 274.152273 -39.4 
L 273.518182 -39.4 
L 272.884091 -39.4 
L 272.25 -39.4 
L 271.615909 -39.4 
L 270.981818 -39.4 
L 270.347727 -39.4 
L 269.713636 -39.4 
L 269.079545 -39.4 
L 268.445455 -39.4 
L 267.811364 -39.4 
L 267.177273 -39.4 
L 266.543182 -39.4 
L 265.909091 -39.4 
L 265.275 -39.4 
L 264.640909 -39.4 
L 264.006818 -39.4 
L 263.372727 -39.4 
L 262.738636 -39.4 
L 262.104545 -39.4 
L 261.470455 -39.4 
L 260.836364 -39.4 
L 260.202273 -39.4 
L 259.568182 -39.4 
L 258.934091 -39.4 
L 258.3 -39.4 
L 257.665909 -39.4 
L 257.031818 -39.4 
L 256.397727 -39.4 
L 255.763636 -39.4 
L 255.129545 -39.4 
L 254.495455 -39.4 
L 253.861364 -39.4 
L 253.227273 -39.4 
L 252.593182 -39.4 
L 251.959091 -39.4 
L 251.325 -39.4 
L 250.690909 -39.4 
L 250.056818 -39.4 
L 249.422727 -39.4 
L 248.788636 -39.4 
L 248.154545 -39.4 
L 247.520455 -39.4 
L 246.886364 -39.4 
L 246.252273 -39.4 
L 245.618182 -39.4 
L 244.984091 -39.4 
L 244.35 -39.4 
L 243.715909 -39.4 
L 243.081818 -39.4 
L 242.447727 -39.4 
L 241.813636 -39.4 
L 241.179545 -39.4 
L 240.545455 -39.4 
L 239.911364 -39.4 
L 239.277273 -39.4 
L 238.643182 -39.4 
L 238.009091 -39.4 
L 237.375 -39.4 
L 236.740909 -39.4 
L 236.106818 -39.4 
L 235.472727 -39.4 
L 234.838636 -39.4 
L 234.204545 -39.4 
L 233.570455 -39.4 
L 232.936364 -39.4 
L 232.302273 -39.4 
L 231.668182 -39.4 
L 231.034091 -39.4 
L 230.4 -39.4 
L 229.765909 -39.4 
L 229.131818 -39.4 
L 228.497727 -39.4 
L 227.863636 -39.4 
L 227.229545 -39.4 
L 226.595455 -39.4 
L 225.961364 -39.4 
L 225.327273 -39.4 
L 224.693182 -39.4 
L 224.059091 -39.4 
L 223.425 -39.4 
L 222.790909 -39.4 
L 222.156818 -39.4 
L 221.522727 -39.4 
L 220.888636 -39.4 
L 220.254545 -39.4 
L 219.620455 -39.4 
L 218.986364 -39.4 
L 218.352273 -39.4 
L 217.718182 -39.4 
L 217.084091 -39.4 
L 216.45 -39.4 
L 215.815909 -39.4 
L 215.181818 -39.4 
L 214.547727 -39.4 
L 213.913636 -39.4 
L 213.279545 -39.4 
L 212.645455 -39.4 
L 212.011364 -39.4 
L 211.377273 -39.4 
L 210.743182 -39.4 
L 210.109091 -39.4 
L 209.475 -39.4 
L 208.840909 -39.4 
L 208.206818 -39.4 
L 207.572727 -39.4 
L 206.938636 -39.4 
L 206.304545 -39.4 
L 205.670455 -39.4 
L 205.036364 -39.4 
L 204.402273 -39.4 
L 203.768182 -39.4 
L 203.134091 -39.4 
L 202.5 -39.4 
L 201.865909 -39.4 
L 201.231818 -39.4 
L 200.597727 -39.4 
L 199.963636 -39.4 
L 199.329545 -39.4 
L 198.695455 -39.4 
L 198.061364 -39.4 
L 197.427273 -39.4 
L 196.793182 -39.4 
L 196.159091 -39.4 
L 195.525 -39.4 
L 194.890909 -39.4 
L 194.256818 -39.4 
L 193.622727 -39.4 
L 192.988636 -39.4 
L 192.354545 -39.4 
L 191.720455 -39.4 
L 191.086364 -39.4 
L 190.452273 -39.4 
L 189.818182 -39.4 
L 189.184091 -39.4 
L 188.55 -39.4 
L 187.915909 -39.4 
L 187.281818 -39.4 
L 186.647727 -39.4 
L 186.013636 -39.4 
L 185.379545 -39.4 
L 184.745455 -39.4 
L 184.111364 -39.4 
L 183.477273 -39.4 
L 182.843182 -39.4 
L 182.209091 -39.4 
L 181.575 -39.4 
L 180.940909 -39.4 
L 180.306818 -39.4 
L 179.672727 -39.4 
L 179.038636 -39.4 
L 178.404545 -39.4 
L 177.770455 -39.4 
L 177.136364 -39.4 
L 176.502273 -39.4 
L 175.868182 -39.4 
L 175.234091 -39.4 
L 174.6 -39.4 
L 173.965909 -39.4 
L 173.331818 -39.4 
L 172.697727 -39.4 
L 172.063636 -39.4 
L 171.429545 -39.4 
L 170.795455 -39.4 
L 170.161364 -39.4 
L 169.527273 -39.4 
L 168.893182 -39.4 
L 168.259091 -39.4 
L 167.625 -39.4 
L 166.990909 -39.4 
L 166.356818 -39.4 
L 165.722727 -39.4 
L 165.088636 -39.4 
L 164.454545 -39.4 
L 163.820455 -39.4 
L 163.186364 -39.4 
L 162.552273 -39.4 
L 161.918182 -39.4 
L 161.284091 -39.4 
L 160.65 -39.4 
L 160.015909 -39.4 
L 159.381818 -39.4 
L 158.747727 -39.4 
L 158.113636 -39.4 
L 157.479545 -39.4 
L 156.845455 -39.4 
L 156.211364 -39.4 
L 155.577273 -39.4 
L 154.943182 -39.4 
L 154.309091 -39.4 
L 153.675 -39.4 
L 153.040909 -39.4 
L 152.406818 -39.4 
L 151.772727 -39.4 
L 151.138636 -39.4 
L 150.504545 -39.4 
L 149.870455 -39.4 
L 149.236364 -39.4 
L 148.602273 -39.4 
L 147.968182 -39.4 
L 147.334091 -39.4 
L 146.7 -39.4 
L 146.065909 -39.4 
L 145.431818 -39.4 
L 144.797727 -39.4 
L 144.163636 -39.4 
L 143.529545 -39.4 
L 142.895455 -39.4 
L 142.261364 -39.4 
L 141.627273 -39.4 
L 140.993182 -39.4 
L 140.359091 -39.4 
L 139.725 -39.4 
L 139.090909 -39.4 
L 138.456818 -39.4 
L 137.822727 -39.4 
L 137.188636 -39.4 
L 136.554545 -39.4 
L 135.920455 -39.4 
L 135.286364 -39.4 
L 134.652273 -39.4 
L 134.018182 -39.4 
L 133.384091 -39.4 
L 132.75 -39.4 
L 132.115909 -39.4 
L 131.481818 -39.4 
L 130.847727 -39.4 
L 130.213636 -39.4 
L 129.579545 -39.4 
L 128.945455 -39.4 
L 128.311364 -39.4 
L 127.677273 -39.4 
L 127.043182 -39.4 
L 126.409091 -39.4 
L 125.775 -39.4 
L 125.140909 -39.4 
L 124.506818 -39.4 
L 123.872727 -39.4 
L 123.238636 -39.4 
L 122.604545 -39.4 
L 121.970455 -39.4 
L 121.336364 -39.4 
L 120.702273 -39.4 
L 120.068182 -39.4 
L 119.434091 -39.4 
L 118.8 -39.4 
L 118.165909 -39.4 
L 117.531818 -39.4 
L 116.897727 -39.4 
L 116.263636 -39.4 
L 115.629545 -39.4 
L 114.995455 -39.4 
L 114.361364 -39.4 
L 113.727273 -39.4 
L 113.093182 -39.4 
L 112.459091 -39.4 
L 111.825 -39.4 
L 111.190909 -39.4 
L 110.556818 -39.4 
L 109.922727 -39.4 
L 109.288636 -39.4 
L 108.654545 -39.4 
L 108.020455 -39.4 
L 107.386364 -39.4 
L 106.752273 -39.4 
L 106.118182 -39.4 
L 105.484091 -39.4 
L 104.85 -39.4 
L 104.215909 -39.4 
L 103.581818 -39.4 
L 102.947727 -39.4 
L 102.313636 -39.4 
L 101.679545 -39.4 
L 101.045455 -39.4 
L 100.411364 -39.4 
L 99.777273 -39.4 
L 99.143182 -39.4 
L 98.509091 -39.4 
L 97.875 -39.4 
L 97.240909 -39.4 
L 96.606818 -39.4 
L 95.972727 -39.4 
L 95.338636 -39.4 
L 94.704545 -39.4 
L 94.070455 -39.4 
L 93.436364 -39.4 
L 92.802273 -39.4 
L 92.168182 -39.4 
L 91.534091 -39.4 
L 90.9 -39.4 
L 90.265909 -39.4 
L 89.631818 -39.4 
L 88.997727 -39.4 
L 88.363636 -39.4 
L 87.729545 -39.4 
L 87.095455 -39.4 
L 86.461364 -39.4 
L 85.827273 -39.4 
L 85.193182 -39.4 
L 84.559091 -39.4 
L 83.925 -39.4 
L 83.290909 -39.4 
L 82.656818 -39.4 
L 82.022727 -39.4 
L 81.388636 -39.4 
L 80.754545 -39.4 
L 80.120455 -39.4 
L 79.486364 -39.4 
L 78.852273 -39.4 
L 78.218182 -39.4 
L 77.584091 -39.4 
L 76.95 -39.4 
L 76.315909 -39.4 
L 75.681818 -39.4 
L 75.047727 -39.4 
L 74.413636 -39.4 
L 73.779545 -39.4 
L 73.145455 -39.4 
L 72.511364 -39.4 
L 71.877273 -39.4 
L 71.243182 -39.4 
L 70.609091 -39.4 
L 69.975 -39.4 
L 69.340909 -39.4 
L 68.706818 -39.4 
L 68.072727 -39.4 
L 67.438636 -39.4 
L 66.804545 -39.4 
L 66.170455 -39.4 
L 65.536364 -39.4 
L 64.902273 -39.4 
L 64.268182 -39.4 
L 63.634091 -39.4 
L 63 -39.4 
L 62.365909 -39.4 
L 61.731818 -39.4 
L 61.097727 -39.4 
L 60.463636 -39.4 
L 59.829545 -39.4 
L 59.195455 -39.4 
L 58.561364 -39.4 
L 57.927273 -39.4 
L 57.293182 -39.4 
L 56.659091 -39.4 
L 56.025 -39.4 
L 55.390909 -39.4 
L 54.756818 -39.4 
L 54.122727 -39.4 
L 53.488636 -39.4 
L 52.854545 -39.4 
L 52.220455 -39.4 
L 51.586364 -39.4 
L 50.952273 -39.4 
L 50.318182 -39.4 
L 49.684091 -39.4 
L 49.05 -39.4 
L 48.415909 -39.4 
L 47.781818 -39.4 
L 47.147727 -39.4 
L 46.513636 -39.4 
L 45.879545 -39.4 
L 45.245455 -39.4 
L 44.611364 -39.4 
L 43.977273 -39.4 
L 43.343182 -39.4 
L 42.709091 -39.4 
L 42.075 -39.4 
L 41.440909 -39.4 
L 40.806818 -39.4 
L 40.172727 -39.4 
L 39.538636 -39.4 
L 38.904545 -39.4 
L 38.270455 -39.4 
L 37.636364 -39.4 
L 37.002273 -39.4 
L 36.368182 -39.4 
L 35.734091 -39.4 
L 35.1 -39.4 
L 34.465909 -39.4 
L 33.831818 -39.4 
L 33.197727 -39.4 
L 32.563636 -39.4 
z
" style="stroke: #2f4f4f; stroke-opacity: 0.9"/>
    </defs>
    <g clip-path="url(#p1ac56dd796)">
     <use xlink:href="#mdca72b0cd9" x="0" y="311.2" style="fill: #2f4f4f; fill-opacity: 0.9; stroke: #2f4f4f; stroke-opacity: 0.9"/>
    </g>
   </g>
   <g id="line2d_1">
    <path d="M 159.381818 284.4 
L 159.381818 7.2 
" clip-path="url(#p1ac56dd796)" style="fill: none; stroke-dasharray: 3.7,1.6; stroke-dashoffset: 0; stroke: #000000"/>
   </g>
  </g>
 </g>
 <defs>
  <clipPath id="p1ac56dd796">
   <rect x="7.2" y="7.2" width="558" height="277.2"/>
  </clipPath>
 </defs>
</svg>
