<?xml version="1.0" encoding="utf-8" standalone="no"?>
<!DOCTYPE svg PUBLIC "-//W3C//DTD SVG 1.1//EN"
  "http://www.w3.org/Graphics/SVG/1.1/DTD/svg11.dtd">
<svg xmlns:xlink="http://www.w3.org/1999/xlink" width="612.00625pt" height="335.904688pt" viewBox="0 0 612.00625 335.904688" xmlns="http://www.w3.org/2000/svg" version="1.1">
 <metadata>
  <rdf:RDF xmlns:dc="http://purl.org/dc/elements/1.1/" xmlns:cc="http://creativecommons.org/ns#" xmlns:rdf="http://www.w3.org/1999/02/22-rdf-syntax-ns#">
   <cc:Work>
    <dc:type rdf:resource="http://purl.org/dc/dcmitype/StillImage"/>
    <dc:date>2025-04-28T14:39:16.831820</dc:date>
    <dc:format>image/svg+xml</dc:format>
    <dc:creator>
     <cc:Agent>
      <dc:title>Matplotlib v3.7.2, https://matplotlib.org/</dc:title>
     </cc:Agent>
    </dc:creator>
   </cc:Work>
  </rdf:RDF>
 </metadata>
 <defs>
  <style type="text/css">*{stroke-linejoin: round; stroke-linecap: butt}</style>
 </defs>
 <g id="figure_1">
  <g id="patch_1">
   <path d="M 0 335.904688 
L 612.00625 335.904688 
L 612.00625 0 
L 0 0 
z
" style="fill: #ffffff"/>
  </g>
  <g id="axes_1">
   <g id="patch_2">
    <path d="M 46.80625 299.175 
L 604.80625 299.175 
L 604.80625 21.975 
L 46.80625 21.975 
z
" style="fill: #ffffff"/>
   </g>
   <g id="matplotlib.axis_1">
    <g id="xtick_1">
     <g id="line2d_1">
      <path d="M 71.154325 299.175 
L 71.154325 21.975 
" clip-path="url(#p0a95a7897b)" style="fill: none; stroke: #cccccc; stroke-width: 0.8; stroke-linecap: round"/>
     </g>
     <g id="text_1">
      <!-- 0 -->
      <g style="fill: #262626" transform="translate(68.373857 313.332813) scale(0.1 -0.1)">
       <defs>
        <path id="ArialMT-30" d="M 266 2259 
Q 266 3072 433 3567 
Q 600 4063 929 4331 
Q 1259 4600 1759 4600 
Q 2128 4600 2406 4451 
Q 2684 4303 2865 4023 
Q 3047 3744 3150 3342 
Q 3253 2941 3253 2259 
Q 3253 1453 3087 958 
Q 2922 463 2592 192 
Q 2263 -78 1759 -78 
Q 1097 -78 719 397 
Q 266 969 266 2259 
z
M 844 2259 
Q 844 1131 1108 757 
Q 1372 384 1759 384 
Q 2147 384 2411 759 
Q 2675 1134 2675 2259 
Q 2675 3391 2411 3762 
Q 2147 4134 1753 4134 
Q 1366 4134 1134 3806 
Q 844 3388 844 2259 
z
" transform="scale(0.015625)"/>
       </defs>
       <use xlink:href="#ArialMT-30"/>
      </g>
     </g>
    </g>
    <g id="xtick_2">
     <g id="line2d_2">
      <path d="M 172.710427 299.175 
L 172.710427 21.975 
" clip-path="url(#p0a95a7897b)" style="fill: none; stroke: #cccccc; stroke-width: 0.8; stroke-linecap: round"/>
     </g>
     <g id="text_2">
      <!-- 200 -->
      <g style="fill: #262626" transform="translate(164.369021 313.332813) scale(0.1 -0.1)">
       <defs>
        <path id="ArialMT-32" d="M 3222 541 
L 3222 0 
L 194 0 
Q 188 203 259 391 
Q 375 700 629 1000 
Q 884 1300 1366 1694 
Q 2113 2306 2375 2664 
Q 2638 3022 2638 3341 
Q 2638 3675 2398 3904 
Q 2159 4134 1775 4134 
Q 1369 4134 1125 3890 
Q 881 3647 878 3216 
L 300 3275 
Q 359 3922 746 4261 
Q 1134 4600 1788 4600 
Q 2447 4600 2831 4234 
Q 3216 3869 3216 3328 
Q 3216 3053 3103 2787 
Q 2991 2522 2730 2228 
Q 2469 1934 1863 1422 
Q 1356 997 1212 845 
Q 1069 694 975 541 
L 3222 541 
z
" transform="scale(0.015625)"/>
       </defs>
       <use xlink:href="#ArialMT-32"/>
       <use xlink:href="#ArialMT-30" x="55.615234"/>
       <use xlink:href="#ArialMT-30" x="111.230469"/>
      </g>
     </g>
    </g>
    <g id="xtick_3">
     <g id="line2d_3">
      <path d="M 274.266528 299.175 
L 274.266528 21.975 
" clip-path="url(#p0a95a7897b)" style="fill: none; stroke: #cccccc; stroke-width: 0.8; stroke-linecap: round"/>
     </g>
     <g id="text_3">
      <!-- 400 -->
      <g style="fill: #262626" transform="translate(265.925122 313.332813) scale(0.1 -0.1)">
       <defs>
        <path id="ArialMT-34" d="M 2069 0 
L 2069 1097 
L 81 1097 
L 81 1613 
L 2172 4581 
L 2631 4581 
L 2631 1613 
L 3250 1613 
L 3250 1097 
L 2631 1097 
L 2631 0 
L 2069 0 
z
M 2069 1613 
L 2069 3678 
L 634 1613 
L 2069 1613 
z
" transform="scale(0.015625)"/>
       </defs>
       <use xlink:href="#ArialMT-34"/>
       <use xlink:href="#ArialMT-30" x="55.615234"/>
       <use xlink:href="#ArialMT-30" x="111.230469"/>
      </g>
     </g>
    </g>
    <g id="xtick_4">
     <g id="line2d_4">
      <path d="M 375.82263 299.175 
L 375.82263 21.975 
" clip-path="url(#p0a95a7897b)" style="fill: none; stroke: #cccccc; stroke-width: 0.8; stroke-linecap: round"/>
     </g>
     <g id="text_4">
      <!-- 600 -->
      <g style="fill: #262626" transform="translate(367.481224 313.332813) scale(0.1 -0.1)">
       <defs>
        <path id="ArialMT-36" d="M 3184 3459 
L 2625 3416 
Q 2550 3747 2413 3897 
Q 2184 4138 1850 4138 
Q 1581 4138 1378 3988 
Q 1113 3794 959 3422 
Q 806 3050 800 2363 
Q 1003 2672 1297 2822 
Q 1591 2972 1913 2972 
Q 2475 2972 2870 2558 
Q 3266 2144 3266 1488 
Q 3266 1056 3080 686 
Q 2894 316 2569 119 
Q 2244 -78 1831 -78 
Q 1128 -78 684 439 
Q 241 956 241 2144 
Q 241 3472 731 4075 
Q 1159 4600 1884 4600 
Q 2425 4600 2770 4297 
Q 3116 3994 3184 3459 
z
M 888 1484 
Q 888 1194 1011 928 
Q 1134 663 1356 523 
Q 1578 384 1822 384 
Q 2178 384 2434 671 
Q 2691 959 2691 1453 
Q 2691 1928 2437 2201 
Q 2184 2475 1800 2475 
Q 1419 2475 1153 2201 
Q 888 1928 888 1484 
z
" transform="scale(0.015625)"/>
       </defs>
       <use xlink:href="#ArialMT-36"/>
       <use xlink:href="#ArialMT-30" x="55.615234"/>
       <use xlink:href="#ArialMT-30" x="111.230469"/>
      </g>
     </g>
    </g>
    <g id="xtick_5">
     <g id="line2d_5">
      <path d="M 477.378732 299.175 
L 477.378732 21.975 
" clip-path="url(#p0a95a7897b)" style="fill: none; stroke: #cccccc; stroke-width: 0.8; stroke-linecap: round"/>
     </g>
     <g id="text_5">
      <!-- 800 -->
      <g style="fill: #262626" transform="translate(469.037325 313.332813) scale(0.1 -0.1)">
       <defs>
        <path id="ArialMT-38" d="M 1131 2484 
Q 781 2613 612 2850 
Q 444 3088 444 3419 
Q 444 3919 803 4259 
Q 1163 4600 1759 4600 
Q 2359 4600 2725 4251 
Q 3091 3903 3091 3403 
Q 3091 3084 2923 2848 
Q 2756 2613 2416 2484 
Q 2838 2347 3058 2040 
Q 3278 1734 3278 1309 
Q 3278 722 2862 322 
Q 2447 -78 1769 -78 
Q 1091 -78 675 323 
Q 259 725 259 1325 
Q 259 1772 486 2073 
Q 713 2375 1131 2484 
z
M 1019 3438 
Q 1019 3113 1228 2906 
Q 1438 2700 1772 2700 
Q 2097 2700 2305 2904 
Q 2513 3109 2513 3406 
Q 2513 3716 2298 3927 
Q 2084 4138 1766 4138 
Q 1444 4138 1231 3931 
Q 1019 3725 1019 3438 
z
M 838 1322 
Q 838 1081 952 856 
Q 1066 631 1291 507 
Q 1516 384 1775 384 
Q 2178 384 2440 643 
Q 2703 903 2703 1303 
Q 2703 1709 2433 1975 
Q 2163 2241 1756 2241 
Q 1359 2241 1098 1978 
Q 838 1716 838 1322 
z
" transform="scale(0.015625)"/>
       </defs>
       <use xlink:href="#ArialMT-38"/>
       <use xlink:href="#ArialMT-30" x="55.615234"/>
       <use xlink:href="#ArialMT-30" x="111.230469"/>
      </g>
     </g>
    </g>
    <g id="xtick_6">
     <g id="line2d_6">
      <path d="M 578.934833 299.175 
L 578.934833 21.975 
" clip-path="url(#p0a95a7897b)" style="fill: none; stroke: #cccccc; stroke-width: 0.8; stroke-linecap: round"/>
     </g>
     <g id="text_6">
      <!-- 1000 -->
      <g style="fill: #262626" transform="translate(567.812958 313.332813) scale(0.1 -0.1)">
       <defs>
        <path id="ArialMT-31" d="M 2384 0 
L 1822 0 
L 1822 3584 
Q 1619 3391 1289 3197 
Q 959 3003 697 2906 
L 697 3450 
Q 1169 3672 1522 3987 
Q 1875 4303 2022 4600 
L 2384 4600 
L 2384 0 
z
" transform="scale(0.015625)"/>
       </defs>
       <use xlink:href="#ArialMT-31"/>
       <use xlink:href="#ArialMT-30" x="55.615234"/>
       <use xlink:href="#ArialMT-30" x="111.230469"/>
       <use xlink:href="#ArialMT-30" x="166.845703"/>
      </g>
     </g>
    </g>
    <g id="text_7">
     <!-- Кількість незалежних змінних (k) -->
     <g style="fill: #262626" transform="translate(250.374219 326.6) scale(0.1 -0.1)">
      <defs>
       <path id="ArialMT-41a" d="M 503 4581 
L 1109 4581 
L 1109 2575 
Q 1525 2575 1694 2736 
Q 1863 2897 2125 3509 
Q 2316 3959 2439 4145 
Q 2563 4331 2791 4457 
Q 3019 4584 3294 4584 
Q 3644 4584 3663 4578 
L 3663 4053 
Q 3631 4053 3541 4056 
Q 3441 4059 3419 4059 
Q 3128 4059 2988 3919 
Q 2844 3778 2659 3319 
Q 2428 2738 2268 2586 
Q 2109 2434 1888 2344 
Q 2331 2222 2763 1525 
L 3706 0 
L 2953 0 
L 2188 1244 
Q 1872 1759 1659 1951 
Q 1447 2144 1109 2144 
L 1109 0 
L 503 0 
L 503 4581 
z
" transform="scale(0.015625)"/>
       <path id="ArialMT-456" d="M 425 3934 
L 425 4581 
L 988 4581 
L 988 3934 
L 425 3934 
z
M 425 0 
L 425 3319 
L 988 3319 
L 988 0 
L 425 0 
z
" transform="scale(0.015625)"/>
       <path id="ArialMT-43b" d="M 697 3319 
L 3309 3319 
L 3309 0 
L 2750 0 
L 2750 2853 
L 1259 2853 
L 1259 1200 
Q 1259 622 1221 437 
Q 1184 253 1015 115 
Q 847 -22 528 -22 
Q 331 -22 75 3 
L 75 472 
L 322 472 
Q 497 472 572 508 
Q 647 544 672 622 
Q 697 700 697 1131 
L 697 3319 
z
" transform="scale(0.015625)"/>
       <path id="ArialMT-44c" d="M 413 3319 
L 975 3319 
L 975 2022 
L 1688 2022 
Q 2384 2022 2761 1751 
Q 3138 1481 3138 1006 
Q 3138 591 2823 295 
Q 2509 0 1819 0 
L 413 0 
L 413 3319 
z
M 975 463 
L 1566 463 
Q 2100 463 2328 594 
Q 2556 725 2556 1003 
Q 2556 1219 2387 1387 
Q 2219 1556 1641 1556 
L 975 1556 
L 975 463 
z
" transform="scale(0.015625)"/>
       <path id="ArialMT-43a" d="M 419 3319 
L 981 3319 
L 981 1884 
Q 1250 1884 1358 1987 
Q 1466 2091 1675 2588 
Q 1841 2981 1944 3106 
Q 2047 3231 2181 3275 
Q 2316 3319 2613 3319 
L 2725 3319 
L 2725 2853 
L 2569 2856 
Q 2347 2856 2284 2791 
Q 2219 2722 2084 2381 
Q 1956 2056 1850 1931 
Q 1744 1806 1522 1703 
Q 1884 1606 2234 1028 
L 2850 0 
L 2231 0 
L 1631 1028 
Q 1447 1338 1309 1436 
Q 1172 1534 981 1534 
L 981 0 
L 419 0 
L 419 3319 
z
" transform="scale(0.015625)"/>
       <path id="ArialMT-441" d="M 2588 1216 
L 3141 1144 
Q 3050 572 2676 248 
Q 2303 -75 1759 -75 
Q 1078 -75 664 370 
Q 250 816 250 1647 
Q 250 2184 428 2587 
Q 606 2991 970 3192 
Q 1334 3394 1763 3394 
Q 2303 3394 2647 3120 
Q 2991 2847 3088 2344 
L 2541 2259 
Q 2463 2594 2264 2762 
Q 2066 2931 1784 2931 
Q 1359 2931 1093 2626 
Q 828 2322 828 1663 
Q 828 994 1084 691 
Q 1341 388 1753 388 
Q 2084 388 2306 591 
Q 2528 794 2588 1216 
z
" transform="scale(0.015625)"/>
       <path id="ArialMT-442" d="M 119 3319 
L 2816 3319 
L 2816 2853 
L 1747 2853 
L 1747 0 
L 1188 0 
L 1188 2853 
L 119 2853 
L 119 3319 
z
" transform="scale(0.015625)"/>
       <path id="ArialMT-20" transform="scale(0.015625)"/>
       <path id="ArialMT-43d" d="M 425 3319 
L 988 3319 
L 988 1938 
L 2547 1938 
L 2547 3319 
L 3109 3319 
L 3109 0 
L 2547 0 
L 2547 1472 
L 988 1472 
L 988 0 
L 425 0 
L 425 3319 
z
" transform="scale(0.015625)"/>
       <path id="ArialMT-435" d="M 2694 1069 
L 3275 997 
Q 3138 488 2766 206 
Q 2394 -75 1816 -75 
Q 1088 -75 661 373 
Q 234 822 234 1631 
Q 234 2469 665 2931 
Q 1097 3394 1784 3394 
Q 2450 3394 2872 2941 
Q 3294 2488 3294 1666 
Q 3294 1616 3291 1516 
L 816 1516 
Q 847 969 1125 678 
Q 1403 388 1819 388 
Q 2128 388 2347 550 
Q 2566 713 2694 1069 
z
M 847 1978 
L 2700 1978 
Q 2663 2397 2488 2606 
Q 2219 2931 1791 2931 
Q 1403 2931 1139 2672 
Q 875 2413 847 1978 
z
" transform="scale(0.015625)"/>
       <path id="ArialMT-437" d="M 1156 1500 
L 1156 1941 
Q 1513 1944 1642 1969 
Q 1772 1994 1887 2119 
Q 2003 2244 2003 2431 
Q 2003 2659 1851 2795 
Q 1700 2931 1459 2931 
Q 984 2931 794 2372 
L 259 2459 
Q 509 3394 1466 3394 
Q 1997 3394 2298 3103 
Q 2600 2813 2600 2409 
Q 2600 2003 2206 1763 
Q 2456 1628 2581 1420 
Q 2706 1213 2706 928 
Q 2706 481 2381 203 
Q 2056 -75 1472 -75 
Q 338 -75 156 934 
L 684 1047 
Q 756 728 976 553 
Q 1197 378 1481 378 
Q 1766 378 1955 539 
Q 2144 700 2144 950 
Q 2144 1144 2025 1287 
Q 1906 1431 1772 1467 
Q 1638 1503 1284 1503 
Q 1256 1503 1156 1500 
z
" transform="scale(0.015625)"/>
       <path id="ArialMT-430" d="M 2588 409 
Q 2275 144 1986 34 
Q 1697 -75 1366 -75 
Q 819 -75 525 192 
Q 231 459 231 875 
Q 231 1119 342 1320 
Q 453 1522 633 1644 
Q 813 1766 1038 1828 
Q 1203 1872 1538 1913 
Q 2219 1994 2541 2106 
Q 2544 2222 2544 2253 
Q 2544 2597 2384 2738 
Q 2169 2928 1744 2928 
Q 1347 2928 1158 2789 
Q 969 2650 878 2297 
L 328 2372 
Q 403 2725 575 2942 
Q 747 3159 1072 3276 
Q 1397 3394 1825 3394 
Q 2250 3394 2515 3294 
Q 2781 3194 2906 3042 
Q 3031 2891 3081 2659 
Q 3109 2516 3109 2141 
L 3109 1391 
Q 3109 606 3145 398 
Q 3181 191 3288 0 
L 2700 0 
Q 2613 175 2588 409 
z
M 2541 1666 
Q 2234 1541 1622 1453 
Q 1275 1403 1131 1340 
Q 988 1278 909 1158 
Q 831 1038 831 891 
Q 831 666 1001 516 
Q 1172 366 1500 366 
Q 1825 366 2078 508 
Q 2331 650 2450 897 
Q 2541 1088 2541 1459 
L 2541 1666 
z
" transform="scale(0.015625)"/>
       <path id="ArialMT-436" d="M 2428 3319 
L 2428 1884 
Q 2697 1884 2806 1987 
Q 2916 2091 3125 2588 
Q 3322 3059 3478 3191 
Q 3631 3319 3966 3319 
L 4172 3319 
L 4172 2853 
L 4019 2856 
Q 3794 2856 3731 2791 
Q 3666 2722 3531 2381 
Q 3406 2056 3300 1931 
Q 3194 1806 2969 1703 
Q 3334 1606 3681 1028 
L 4300 0 
L 3681 0 
L 3078 1028 
Q 2894 1341 2756 1437 
Q 2619 1534 2428 1534 
L 2428 0 
L 1853 0 
L 1853 1534 
Q 1666 1534 1528 1439 
Q 1391 1344 1206 1028 
L 603 0 
L -16 0 
L 600 1028 
Q 950 1606 1316 1703 
Q 1066 1819 966 1955 
Q 866 2091 666 2603 
Q 597 2775 519 2816 
Q 438 2856 278 2856 
Q 238 2856 113 2853 
L 113 3319 
L 191 3319 
Q 516 3319 648 3280 
Q 781 3241 886 3114 
Q 991 2988 1159 2588 
Q 1366 2097 1473 1990 
Q 1581 1884 1853 1884 
L 1853 3319 
L 2428 3319 
z
" transform="scale(0.015625)"/>
       <path id="ArialMT-438" d="M 422 3319 
L 984 3319 
L 984 788 
L 2544 3319 
L 3150 3319 
L 3150 0 
L 2588 0 
L 2588 2516 
L 1028 0 
L 422 0 
L 422 3319 
z
" transform="scale(0.015625)"/>
       <path id="ArialMT-445" d="M 47 0 
L 1259 1725 
L 138 3319 
L 841 3319 
L 1350 2541 
Q 1494 2319 1581 2169 
Q 1719 2375 1834 2534 
L 2394 3319 
L 3066 3319 
L 1919 1756 
L 3153 0 
L 2463 0 
L 1781 1031 
L 1600 1309 
L 728 0 
L 47 0 
z
" transform="scale(0.015625)"/>
       <path id="ArialMT-43c" d="M 438 3319 
L 1313 3319 
L 2184 663 
L 3153 3319 
L 3963 3319 
L 3963 0 
L 3400 0 
L 3400 2672 
L 2419 0 
L 1916 0 
L 988 2800 
L 988 0 
L 438 0 
L 438 3319 
z
" transform="scale(0.015625)"/>
       <path id="ArialMT-28" d="M 1497 -1347 
Q 1031 -759 709 28 
Q 388 816 388 1659 
Q 388 2403 628 3084 
Q 909 3875 1497 4659 
L 1900 4659 
Q 1522 4009 1400 3731 
Q 1209 3300 1100 2831 
Q 966 2247 966 1656 
Q 966 153 1900 -1347 
L 1497 -1347 
z
" transform="scale(0.015625)"/>
       <path id="ArialMT-6b" d="M 425 0 
L 425 4581 
L 988 4581 
L 988 1969 
L 2319 3319 
L 3047 3319 
L 1778 2088 
L 3175 0 
L 2481 0 
L 1384 1697 
L 988 1316 
L 988 0 
L 425 0 
z
" transform="scale(0.015625)"/>
       <path id="ArialMT-29" d="M 791 -1347 
L 388 -1347 
Q 1322 153 1322 1656 
Q 1322 2244 1188 2822 
Q 1081 3291 891 3722 
Q 769 4003 388 4659 
L 791 4659 
Q 1378 3875 1659 3084 
Q 1900 2403 1900 1659 
Q 1900 816 1576 28 
Q 1253 -759 791 -1347 
z
" transform="scale(0.015625)"/>
      </defs>
      <use xlink:href="#ArialMT-41a"/>
      <use xlink:href="#ArialMT-456" x="58.251953"/>
      <use xlink:href="#ArialMT-43b" x="80.46875"/>
      <use xlink:href="#ArialMT-44c" x="138.818359"/>
      <use xlink:href="#ArialMT-43a" x="190.917969"/>
      <use xlink:href="#ArialMT-456" x="234.667969"/>
      <use xlink:href="#ArialMT-441" x="256.884766"/>
      <use xlink:href="#ArialMT-442" x="306.884766"/>
      <use xlink:href="#ArialMT-44c" x="352.685547"/>
      <use xlink:href="#ArialMT-20" x="404.785156"/>
      <use xlink:href="#ArialMT-43d" x="432.568359"/>
      <use xlink:href="#ArialMT-435" x="487.792969"/>
      <use xlink:href="#ArialMT-437" x="541.158203"/>
      <use xlink:href="#ArialMT-430" x="587.007812"/>
      <use xlink:href="#ArialMT-43b" x="642.623047"/>
      <use xlink:href="#ArialMT-435" x="700.972656"/>
      <use xlink:href="#ArialMT-436" x="755.462891"/>
      <use xlink:href="#ArialMT-43d" x="822.357422"/>
      <use xlink:href="#ArialMT-438" x="877.582031"/>
      <use xlink:href="#ArialMT-445" x="933.441406"/>
      <use xlink:href="#ArialMT-20" x="983.441406"/>
      <use xlink:href="#ArialMT-437" x="1011.224609"/>
      <use xlink:href="#ArialMT-43c" x="1057.074219"/>
      <use xlink:href="#ArialMT-456" x="1125.824219"/>
      <use xlink:href="#ArialMT-43d" x="1148.041016"/>
      <use xlink:href="#ArialMT-43d" x="1203.265625"/>
      <use xlink:href="#ArialMT-438" x="1258.490234"/>
      <use xlink:href="#ArialMT-445" x="1314.349609"/>
      <use xlink:href="#ArialMT-20" x="1364.349609"/>
      <use xlink:href="#ArialMT-28" x="1392.132812"/>
      <use xlink:href="#ArialMT-6b" x="1425.433594"/>
      <use xlink:href="#ArialMT-29" x="1475.433594"/>
     </g>
    </g>
   </g>
   <g id="matplotlib.axis_2">
    <g id="ytick_1">
     <g id="line2d_7">
      <path d="M 46.80625 286.775419 
L 604.80625 286.775419 
" clip-path="url(#p0a95a7897b)" style="fill: none; stroke: #cccccc; stroke-width: 0.8; stroke-linecap: round"/>
     </g>
     <g id="text_8">
      <!-- 0.00 -->
      <g style="fill: #262626" transform="translate(20.345313 290.354326) scale(0.1 -0.1)">
       <defs>
        <path id="ArialMT-2e" d="M 581 0 
L 581 641 
L 1222 641 
L 1222 0 
L 581 0 
z
" transform="scale(0.015625)"/>
       </defs>
       <use xlink:href="#ArialMT-30"/>
       <use xlink:href="#ArialMT-2e" x="55.615234"/>
       <use xlink:href="#ArialMT-30" x="83.398438"/>
       <use xlink:href="#ArialMT-30" x="139.013672"/>
      </g>
     </g>
    </g>
    <g id="ytick_2">
     <g id="line2d_8">
      <path d="M 46.80625 238.561967 
L 604.80625 238.561967 
" clip-path="url(#p0a95a7897b)" style="fill: none; stroke: #cccccc; stroke-width: 0.8; stroke-linecap: round"/>
     </g>
     <g id="text_9">
      <!-- 0.02 -->
      <g style="fill: #262626" transform="translate(20.345313 242.140874) scale(0.1 -0.1)">
       <use xlink:href="#ArialMT-30"/>
       <use xlink:href="#ArialMT-2e" x="55.615234"/>
       <use xlink:href="#ArialMT-30" x="83.398438"/>
       <use xlink:href="#ArialMT-32" x="139.013672"/>
      </g>
     </g>
    </g>
    <g id="ytick_3">
     <g id="line2d_9">
      <path d="M 46.80625 190.348515 
L 604.80625 190.348515 
" clip-path="url(#p0a95a7897b)" style="fill: none; stroke: #cccccc; stroke-width: 0.8; stroke-linecap: round"/>
     </g>
     <g id="text_10">
      <!-- 0.04 -->
      <g style="fill: #262626" transform="translate(20.345313 193.927422) scale(0.1 -0.1)">
       <use xlink:href="#ArialMT-30"/>
       <use xlink:href="#ArialMT-2e" x="55.615234"/>
       <use xlink:href="#ArialMT-30" x="83.398438"/>
       <use xlink:href="#ArialMT-34" x="139.013672"/>
      </g>
     </g>
    </g>
    <g id="ytick_4">
     <g id="line2d_10">
      <path d="M 46.80625 142.135064 
L 604.80625 142.135064 
" clip-path="url(#p0a95a7897b)" style="fill: none; stroke: #cccccc; stroke-width: 0.8; stroke-linecap: round"/>
     </g>
     <g id="text_11">
      <!-- 0.06 -->
      <g style="fill: #262626" transform="translate(20.345313 145.71397) scale(0.1 -0.1)">
       <use xlink:href="#ArialMT-30"/>
       <use xlink:href="#ArialMT-2e" x="55.615234"/>
       <use xlink:href="#ArialMT-30" x="83.398438"/>
       <use xlink:href="#ArialMT-36" x="139.013672"/>
      </g>
     </g>
    </g>
    <g id="ytick_5">
     <g id="line2d_11">
      <path d="M 46.80625 93.921612 
L 604.80625 93.921612 
" clip-path="url(#p0a95a7897b)" style="fill: none; stroke: #cccccc; stroke-width: 0.8; stroke-linecap: round"/>
     </g>
     <g id="text_12">
      <!-- 0.08 -->
      <g style="fill: #262626" transform="translate(20.345313 97.500518) scale(0.1 -0.1)">
       <use xlink:href="#ArialMT-30"/>
       <use xlink:href="#ArialMT-2e" x="55.615234"/>
       <use xlink:href="#ArialMT-30" x="83.398438"/>
       <use xlink:href="#ArialMT-38" x="139.013672"/>
      </g>
     </g>
    </g>
    <g id="ytick_6">
     <g id="line2d_12">
      <path d="M 46.80625 45.70816 
L 604.80625 45.70816 
" clip-path="url(#p0a95a7897b)" style="fill: none; stroke: #cccccc; stroke-width: 0.8; stroke-linecap: round"/>
     </g>
     <g id="text_13">
      <!-- 0.10 -->
      <g style="fill: #262626" transform="translate(20.345313 49.287066) scale(0.1 -0.1)">
       <use xlink:href="#ArialMT-30"/>
       <use xlink:href="#ArialMT-2e" x="55.615234"/>
       <use xlink:href="#ArialMT-31" x="83.398438"/>
       <use xlink:href="#ArialMT-30" x="139.013672"/>
      </g>
     </g>
    </g>
    <g id="text_14">
     <!-- $R^2$ -->
     <g style="fill: #262626" transform="translate(14.357813 166.775) rotate(-90) scale(0.1 -0.1)">
      <defs>
       <path id="DejaVuSans-Oblique-52" d="M 1613 4147 
L 1294 2491 
L 2106 2491 
Q 2584 2491 2879 2755 
Q 3175 3019 3175 3444 
Q 3175 3784 2976 3965 
Q 2778 4147 2406 4147 
L 1613 4147 
z
M 2772 2241 
Q 2972 2194 3105 2009 
Q 3238 1825 3413 1275 
L 3809 0 
L 3144 0 
L 2778 1197 
Q 2638 1659 2453 1815 
Q 2269 1972 1888 1972 
L 1191 1972 
L 806 0 
L 172 0 
L 1081 4666 
L 2503 4666 
Q 3150 4666 3495 4373 
Q 3841 4081 3841 3531 
Q 3841 3044 3547 2687 
Q 3253 2331 2772 2241 
z
" transform="scale(0.015625)"/>
       <path id="DejaVuSans-32" d="M 1228 531 
L 3431 531 
L 3431 0 
L 469 0 
L 469 531 
Q 828 903 1448 1529 
Q 2069 2156 2228 2338 
Q 2531 2678 2651 2914 
Q 2772 3150 2772 3378 
Q 2772 3750 2511 3984 
Q 2250 4219 1831 4219 
Q 1534 4219 1204 4116 
Q 875 4013 500 3803 
L 500 4441 
Q 881 4594 1212 4672 
Q 1544 4750 1819 4750 
Q 2544 4750 2975 4387 
Q 3406 4025 3406 3419 
Q 3406 3131 3298 2873 
Q 3191 2616 2906 2266 
Q 2828 2175 2409 1742 
Q 1991 1309 1228 531 
z
" transform="scale(0.015625)"/>
      </defs>
      <use xlink:href="#DejaVuSans-Oblique-52" transform="translate(0 0.765625)"/>
      <use xlink:href="#DejaVuSans-32" transform="translate(76.499193 39.046875) scale(0.7)"/>
     </g>
    </g>
   </g>
   <g id="line2d_13">
    <path d="M 72.169886 286.575 
L 72.677667 286.572242 
L 73.185447 285.892892 
L 73.693228 285.889492 
L 74.201008 285.514203 
L 75.72435 285.408516 
L 76.23213 285.226393 
L 78.263252 283.721083 
L 79.278813 283.539368 
L 79.786594 283.281094 
L 80.802155 283.244139 
L 82.325497 282.906502 
L 83.341058 282.791608 
L 83.848838 282.167075 
L 84.356619 281.080781 
L 84.864399 281.044075 
L 85.37218 280.87713 
L 85.87996 280.503818 
L 86.895521 280.458371 
L 87.403302 280.044433 
L 87.911082 280.012229 
L 88.418863 278.83944 
L 88.926643 278.484407 
L 90.449985 278.333323 
L 91.973326 278.317961 
L 92.988887 277.66507 
L 94.512229 277.499705 
L 95.020009 276.966666 
L 97.051131 276.872483 
L 97.558912 276.222419 
L 98.574473 275.996428 
L 101.113375 275.736903 
L 101.621156 275.494208 
L 102.128936 275.494071 
L 102.636717 274.92483 
L 103.144497 274.803946 
L 103.652278 274.136532 
L 104.160058 274.079485 
L 104.667839 273.871218 
L 105.175619 273.850495 
L 105.6834 273.541708 
L 106.19118 273.503291 
L 106.698961 273.291007 
L 107.206741 272.546366 
L 110.253424 271.871176 
L 111.776766 270.829037 
L 112.284546 270.793832 
L 112.792327 269.945072 
L 114.823449 269.581404 
L 116.346791 269.281919 
L 117.362352 269.165139 
L 117.870132 269.031623 
L 118.885693 269.022783 
L 119.393474 268.889414 
L 119.901254 268.871306 
L 120.409035 268.722414 
L 120.916815 268.131222 
L 121.424596 266.662885 
L 121.932376 266.278294 
L 122.440157 265.371986 
L 123.455718 265.359645 
L 123.963498 265.182562 
L 124.471279 264.668452 
L 126.502401 264.583336 
L 128.533523 264.048919 
L 129.041303 264.044074 
L 129.549084 263.596187 
L 130.056864 263.592759 
L 130.564645 263.462056 
L 131.072425 262.93749 
L 131.580206 262.803264 
L 132.595767 261.955028 
L 134.626889 261.743125 
L 135.134669 261.510704 
L 135.64245 261.431001 
L 136.15023 260.988992 
L 137.673572 260.678065 
L 138.181352 260.440339 
L 138.689133 260.433839 
L 139.196913 260.253729 
L 140.212474 259.346878 
L 141.228035 259.120258 
L 141.735816 258.70857 
L 142.243596 258.476145 
L 142.751377 258.469661 
L 143.259157 258.287621 
L 144.274718 256.756335 
L 145.79806 256.480485 
L 147.829182 255.635118 
L 148.336963 255.475942 
L 148.844743 255.039778 
L 149.860304 254.983777 
L 150.368085 254.561551 
L 150.875865 253.628363 
L 151.383646 252.411716 
L 151.891426 252.049629 
L 152.399207 252.037059 
L 152.906987 251.459504 
L 154.430329 251.04837 
L 154.938109 251.010955 
L 155.44589 250.735977 
L 155.95367 250.726853 
L 157.477012 248.545921 
L 157.984792 246.967521 
L 158.492573 246.493744 
L 159.000353 244.626637 
L 159.508134 244.618878 
L 160.015914 244.296562 
L 160.523695 244.118644 
L 161.539256 244.024607 
L 162.047036 243.330722 
L 162.554817 243.219776 
L 163.570378 242.770756 
L 165.093719 242.663033 
L 165.6015 242.170596 
L 166.10928 242.16789 
L 166.617061 240.973006 
L 167.124841 240.788548 
L 169.663744 240.60437 
L 170.171524 240.102157 
L 171.187085 239.672806 
L 172.710427 239.569502 
L 173.218207 238.046228 
L 175.249329 237.635043 
L 175.75711 237.109248 
L 176.26489 237.10707 
L 176.772671 235.887825 
L 178.296012 235.644161 
L 179.819354 235.500303 
L 180.834915 235.185134 
L 182.866037 235.043397 
L 183.373818 234.352227 
L 183.881598 233.901031 
L 184.389379 233.856541 
L 184.897159 232.585794 
L 185.40494 232.5357 
L 186.420501 232.050445 
L 186.928281 231.905906 
L 187.436062 231.882128 
L 188.451623 231.240891 
L 189.467184 231.079665 
L 190.482745 230.529204 
L 190.990525 230.294774 
L 191.498306 230.22532 
L 192.006086 229.573547 
L 193.021647 229.465632 
L 193.529428 229.460728 
L 194.037208 229.249929 
L 194.544989 228.812 
L 195.56055 228.325247 
L 196.06833 227.985464 
L 196.576111 227.985311 
L 197.083891 227.863449 
L 198.099452 227.854965 
L 198.607233 227.629214 
L 199.622794 227.590704 
L 200.130574 226.937632 
L 200.638355 226.549423 
L 201.146135 225.890004 
L 202.669477 225.666092 
L 203.177257 225.315359 
L 204.192818 225.219683 
L 204.700599 223.899925 
L 205.208379 223.884051 
L 205.71616 223.21071 
L 206.22394 222.939492 
L 206.731721 222.200183 
L 207.239501 221.741873 
L 208.255062 221.660929 
L 208.762843 221.587752 
L 209.270623 221.244298 
L 210.286184 221.056451 
L 210.793965 220.404261 
L 211.809526 219.926153 
L 212.825087 219.580049 
L 213.332868 219.36417 
L 213.840648 218.779372 
L 214.348429 218.774998 
L 214.856209 218.393147 
L 215.87177 218.340117 
L 216.887331 217.939551 
L 217.902892 217.113071 
L 218.918453 216.929271 
L 219.934014 216.898105 
L 223.488478 216.024693 
L 223.996258 216.021514 
L 224.504039 214.878837 
L 225.011819 214.800462 
L 225.5196 214.267483 
L 226.535161 214.257047 
L 227.550722 213.882203 
L 228.058502 213.558244 
L 228.566283 212.744207 
L 229.074063 212.735184 
L 229.581844 212.541845 
L 230.089624 212.473157 
L 230.597405 212.162504 
L 231.105185 211.99223 
L 232.120746 211.89826 
L 232.628527 211.599127 
L 233.644088 211.561079 
L 234.151868 210.030538 
L 234.659649 208.866036 
L 235.67521 208.727946 
L 236.690771 207.273139 
L 237.706332 207.1309 
L 238.214112 205.742129 
L 238.721893 205.432982 
L 239.229673 205.38502 
L 239.737454 205.14535 
L 240.245234 204.725558 
L 241.768576 204.645058 
L 243.291917 204.251146 
L 244.307479 204.09529 
L 244.815259 203.934998 
L 245.32304 203.270055 
L 246.338601 203.159961 
L 247.861942 203.06178 
L 248.369723 202.362441 
L 248.877503 202.07897 
L 249.385284 201.445636 
L 249.893064 201.190581 
L 251.416406 201.115885 
L 251.924186 201.033341 
L 252.431967 200.804597 
L 254.970869 200.509129 
L 255.47865 199.997986 
L 258.017552 199.867458 
L 258.525333 199.228456 
L 260.048674 199.173837 
L 260.556455 198.830771 
L 261.064235 198.236471 
L 264.110918 197.973044 
L 264.618699 195.588548 
L 265.63426 194.564895 
L 267.157601 193.930847 
L 267.665382 192.973854 
L 268.173162 192.300263 
L 268.680943 192.272576 
L 269.188723 191.974332 
L 271.219845 191.860645 
L 272.235406 191.731874 
L 273.250967 191.708105 
L 273.758748 191.277488 
L 274.266528 191.277056 
L 275.282089 190.672849 
L 275.78987 190.667782 
L 276.29765 190.190282 
L 277.820992 190.105905 
L 278.328773 189.0815 
L 278.836553 188.496765 
L 279.344334 188.495886 
L 279.852114 188.337568 
L 280.867675 188.292392 
L 282.391017 187.844155 
L 283.914358 187.754061 
L 284.422139 187.234068 
L 286.453261 187.110719 
L 286.961041 186.212999 
L 287.468822 186.000376 
L 288.484383 185.978632 
L 288.992163 184.776167 
L 289.499944 184.764693 
L 290.007724 184.600036 
L 290.515505 184.281756 
L 291.023285 184.275039 
L 292.546627 183.821347 
L 293.054407 183.14188 
L 293.562188 183.132928 
L 294.069968 182.264408 
L 295.59331 182.197093 
L 296.608871 181.786622 
L 297.624432 181.632514 
L 298.132212 181.319604 
L 299.147773 181.269307 
L 299.655554 180.93409 
L 303.210017 180.62322 
L 303.717798 180.090423 
L 304.225578 179.78287 
L 305.74892 179.676495 
L 306.2567 179.237334 
L 306.764481 177.762877 
L 307.272261 177.304536 
L 307.780042 177.088145 
L 309.303383 177.038999 
L 310.318945 176.498951 
L 310.826725 175.793931 
L 311.842286 175.712181 
L 312.350067 174.279764 
L 312.857847 173.727717 
L 314.381189 173.500652 
L 314.888969 172.319642 
L 315.39675 172.316359 
L 315.90453 171.667596 
L 316.920091 171.525428 
L 317.427872 171.520692 
L 317.935652 171.395715 
L 318.443433 171.392287 
L 318.951213 171.114748 
L 319.458994 171.114373 
L 319.966774 170.927381 
L 320.982335 170.79421 
L 321.490116 170.537167 
L 324.536799 170.454361 
L 325.044579 168.864693 
L 326.06014 168.776483 
L 326.567921 168.370347 
L 327.075701 167.373416 
L 327.583482 167.270732 
L 329.106823 166.291955 
L 330.630165 166.054161 
L 331.137945 165.715934 
L 332.153506 165.6444 
L 332.661287 163.609108 
L 333.676848 163.501525 
L 335.200189 162.7247 
L 335.70797 162.695142 
L 336.21575 160.746504 
L 336.723531 160.606368 
L 337.231311 160.602875 
L 338.246872 159.458472 
L 339.262433 159.379353 
L 339.770214 159.081041 
L 340.277994 159.06837 
L 340.785775 158.741481 
L 341.293555 158.213792 
L 341.801336 158.061605 
L 342.816897 157.938538 
L 343.832458 157.717789 
L 344.848019 157.620464 
L 345.3558 157.59717 
L 345.86358 157.040662 
L 346.879141 156.72375 
L 347.386922 156.298629 
L 347.894702 156.195076 
L 348.402483 155.089289 
L 349.418044 153.606412 
L 349.925824 153.605654 
L 350.433605 153.21041 
L 350.941385 153.207904 
L 351.956946 150.868616 
L 352.972507 150.740266 
L 353.480288 150.733069 
L 354.495849 150.380946 
L 355.51141 150.280509 
L 356.01919 150.24275 
L 356.526971 148.168151 
L 358.558093 147.935212 
L 362.112556 147.062705 
L 362.620337 146.518641 
L 363.128117 145.465743 
L 363.635898 145.187695 
L 364.143678 145.064947 
L 364.651459 144.514857 
L 366.682581 144.28316 
L 367.190361 143.73147 
L 367.698142 143.386614 
L 368.713703 143.272791 
L 369.221483 142.897604 
L 369.729264 142.383603 
L 370.237044 142.133981 
L 371.252605 142.12979 
L 371.760386 141.764846 
L 372.268166 141.761718 
L 372.775947 141.343413 
L 373.791508 141.269267 
L 375.31485 141.151413 
L 375.82263 140.800558 
L 376.838191 140.673837 
L 377.853752 140.672253 
L 378.361533 139.385899 
L 379.377094 138.997775 
L 381.408216 138.851494 
L 381.915996 138.65479 
L 383.947118 138.541414 
L 384.454899 138.272084 
L 385.47046 138.23656 
L 385.97824 137.87161 
L 386.486021 137.871576 
L 386.993801 136.906282 
L 389.024923 136.733305 
L 389.532704 136.097346 
L 390.040484 135.793097 
L 390.548265 135.650825 
L 391.056045 135.349392 
L 391.563826 135.347981 
L 392.071606 135.153438 
L 392.579387 135.131187 
L 393.594948 133.199285 
L 394.102728 133.198924 
L 394.610509 133.024454 
L 396.13385 132.950998 
L 396.641631 132.252133 
L 397.149411 131.934701 
L 397.657192 131.899874 
L 398.164972 131.631081 
L 399.180533 131.560795 
L 400.703875 131.472134 
L 401.719436 131.397698 
L 403.750558 130.704981 
L 404.766119 130.694749 
L 405.273899 130.346405 
L 405.78168 130.268803 
L 406.28946 128.726605 
L 406.797241 128.560971 
L 407.305021 128.526501 
L 407.812802 128.288605 
L 409.843924 128.056428 
L 410.351705 127.407628 
L 410.859485 127.389512 
L 411.367266 127.217176 
L 411.875046 126.203319 
L 413.906168 126.074353 
L 414.413949 125.937778 
L 415.42951 125.928367 
L 415.93729 125.643584 
L 416.952851 125.441764 
L 417.460632 125.41726 
L 417.968412 124.938069 
L 419.491754 124.65253 
L 419.999534 124.353485 
L 420.507315 124.260574 
L 421.015095 123.582612 
L 422.030656 123.53269 
L 422.538437 123.270603 
L 425.077339 123.189529 
L 425.58512 121.87253 
L 426.0929 121.850101 
L 427.616242 121.332148 
L 428.124022 120.421491 
L 428.631803 120.285138 
L 429.647364 120.241325 
L 430.155144 119.906923 
L 430.662925 119.852897 
L 431.170705 119.467564 
L 431.678486 119.414683 
L 432.186266 118.920361 
L 433.201827 118.452221 
L 433.709608 118.157032 
L 434.725169 118.058279 
L 435.232949 118.057429 
L 435.74073 117.484627 
L 436.24851 117.417552 
L 436.756291 117.232505 
L 437.264071 116.854916 
L 438.279632 115.747169 
L 438.787413 115.560606 
L 439.802974 115.47959 
L 440.310755 115.41259 
L 440.818535 115.170475 
L 441.834096 114.147577 
L 442.341877 114.147443 
L 444.372999 113.480318 
L 444.880779 112.536599 
L 445.38856 112.101759 
L 447.419682 111.838643 
L 447.927462 111.445253 
L 448.943023 110.932088 
L 449.450804 110.425853 
L 450.974145 110.319416 
L 451.481926 109.967004 
L 451.989706 109.41179 
L 452.497487 109.377437 
L 453.005267 109.136418 
L 455.036389 108.763403 
L 456.05195 108.430147 
L 456.559731 108.4171 
L 457.067511 106.978684 
L 457.575292 104.977478 
L 458.083072 104.012742 
L 458.590853 103.832458 
L 459.098633 103.393009 
L 461.129755 102.833016 
L 461.637536 101.607158 
L 462.145316 101.001356 
L 462.653097 100.992834 
L 463.160877 100.713017 
L 464.176438 100.629589 
L 464.684219 100.22106 
L 465.69978 100.070819 
L 466.715341 99.954136 
L 467.223121 99.041386 
L 467.730902 98.688705 
L 469.254243 98.250235 
L 469.762024 98.12114 
L 470.269804 98.112553 
L 470.777585 97.343326 
L 471.285365 97.343199 
L 471.793146 97.039924 
L 472.808707 96.874779 
L 473.316488 96.84387 
L 474.332049 93.833846 
L 474.839829 93.630119 
L 475.34761 92.133152 
L 476.363171 91.987672 
L 476.870951 91.81741 
L 477.378732 90.930731 
L 477.886512 90.765405 
L 478.394293 90.746658 
L 478.902073 89.287942 
L 479.917634 89.195699 
L 480.933195 88.535966 
L 481.440976 88.517019 
L 481.948756 88.22407 
L 482.964317 88.107497 
L 483.979878 87.9376 
L 484.487659 87.478391 
L 485.50322 87.274245 
L 486.011 86.215249 
L 487.026561 85.612672 
L 487.534342 85.611403 
L 488.042122 85.370606 
L 488.549903 84.489064 
L 489.057683 84.484071 
L 489.565464 83.785345 
L 490.073244 81.598865 
L 490.581025 81.540645 
L 491.596586 80.043697 
L 492.612147 79.918753 
L 493.119927 79.752406 
L 494.135488 79.664876 
L 494.643269 79.410273 
L 495.151049 78.970222 
L 496.16661 78.820261 
L 496.674391 78.136205 
L 498.197732 77.898488 
L 498.705513 77.653606 
L 499.213293 77.646905 
L 499.721074 76.733466 
L 500.228854 76.686513 
L 500.736635 76.031855 
L 501.244415 75.884956 
L 502.767757 75.724052 
L 504.798879 75.486851 
L 505.30666 75.010615 
L 505.81444 74.974264 
L 506.830001 73.762133 
L 507.337782 73.705785 
L 507.845562 73.441116 
L 508.353343 73.427108 
L 508.861123 72.949969 
L 509.368904 72.776242 
L 509.876684 71.613405 
L 510.892245 71.417724 
L 511.400026 70.543176 
L 512.923367 70.485921 
L 513.938928 70.388606 
L 515.46227 69.192471 
L 516.477831 68.836958 
L 516.985611 68.836432 
L 517.493392 68.575974 
L 518.001172 67.499356 
L 519.016733 67.434081 
L 521.555636 66.184487 
L 523.078977 66.065137 
L 523.586758 66.054383 
L 524.602319 65.741807 
L 525.110099 63.998552 
L 525.61788 63.370973 
L 526.633441 62.938843 
L 527.141221 62.800657 
L 527.649002 62.47617 
L 528.156782 62.429558 
L 528.664563 61.739534 
L 530.187904 61.474247 
L 530.695685 60.683587 
L 531.203465 60.672995 
L 531.711246 59.815079 
L 532.219026 59.694446 
L 532.726807 59.184819 
L 533.742368 58.922567 
L 534.250148 58.783218 
L 534.757929 57.964936 
L 536.28127 57.916038 
L 537.296831 57.039047 
L 537.804612 56.071451 
L 538.820173 55.830052 
L 539.327954 54.391181 
L 539.835734 54.128855 
L 540.851295 53.10525 
L 542.374637 53.03415 
L 542.882417 51.788174 
L 543.390198 51.555379 
L 543.897978 49.996191 
L 545.42132 49.758173 
L 545.9291 48.120419 
L 546.436881 48.098564 
L 547.960222 45.967367 
L 548.468003 45.765207 
L 549.483564 45.662277 
L 551.006905 45.451021 
L 551.514686 45.181485 
L 552.022466 44.320421 
L 553.038027 44.225464 
L 554.053588 43.654132 
L 555.069149 43.544023 
L 555.57693 43.538258 
L 556.08471 43.417618 
L 556.592491 43.062025 
L 557.608052 42.987732 
L 558.623613 42.840141 
L 559.131393 42.224497 
L 559.639174 41.991415 
L 560.146954 41.488982 
L 561.670296 41.175582 
L 562.178076 40.950433 
L 564.209198 40.604124 
L 564.716979 40.066533 
L 565.224759 40.012832 
L 566.24032 39.58281 
L 567.255881 39.457061 
L 571.318126 39.19215 
L 571.825906 38.78789 
L 572.333687 38.561326 
L 572.841467 37.395015 
L 573.857028 36.83041 
L 574.364809 36.027583 
L 574.872589 36.010607 
L 575.38037 35.781284 
L 576.395931 35.639591 
L 576.903711 35.38946 
L 578.427053 35.34796 
L 578.934833 34.575 
L 579.442614 34.575 
L 579.442614 34.575 
" clip-path="url(#p0a95a7897b)" style="fill: none; stroke: #2f4f4f; stroke-opacity: 0.75; stroke-width: 4; stroke-linecap: round"/>
   </g>
   <g id="line2d_14">
    <path d="M 46.80625 286.775419 
L 604.80625 286.775419 
" clip-path="url(#p0a95a7897b)" style="fill: none; stroke: #000000; stroke-width: 1.5; stroke-linecap: round"/>
   </g>
   <g id="line2d_15">
    <path d="M 71.154325 299.175 
L 71.154325 21.975 
" clip-path="url(#p0a95a7897b)" style="fill: none; stroke: #000000; stroke-width: 1.5; stroke-linecap: round"/>
   </g>
   <g id="patch_3">
    <path d="M 46.80625 299.175 
L 46.80625 21.975 
" style="fill: none; stroke: #cccccc; stroke-width: 0.8; stroke-linejoin: miter; stroke-linecap: square"/>
   </g>
   <g id="patch_4">
    <path d="M 604.80625 299.175 
L 604.80625 21.975 
" style="fill: none; stroke: #cccccc; stroke-width: 0.8; stroke-linejoin: miter; stroke-linecap: square"/>
   </g>
   <g id="patch_5">
    <path d="M 46.80625 299.175 
L 604.80625 299.175 
" style="fill: none; stroke: #cccccc; stroke-width: 0.8; stroke-linejoin: miter; stroke-linecap: square"/>
   </g>
   <g id="patch_6">
    <path d="M 46.80625 21.975 
L 604.80625 21.975 
" style="fill: none; stroke: #cccccc; stroke-width: 0.8; stroke-linejoin: miter; stroke-linecap: square"/>
   </g>
   <g id="text_15">
    <!-- $R^2$ vs. Кількість пояснювальних змінних -->
    <g style="fill: #262626" transform="translate(215.04625 15.975) scale(0.12 -0.12)">
     <defs>
      <path id="ArialMT-76" d="M 1344 0 
L 81 3319 
L 675 3319 
L 1388 1331 
Q 1503 1009 1600 663 
Q 1675 925 1809 1294 
L 2547 3319 
L 3125 3319 
L 1869 0 
L 1344 0 
z
" transform="scale(0.015625)"/>
      <path id="ArialMT-73" d="M 197 991 
L 753 1078 
Q 800 744 1014 566 
Q 1228 388 1613 388 
Q 2000 388 2187 545 
Q 2375 703 2375 916 
Q 2375 1106 2209 1216 
Q 2094 1291 1634 1406 
Q 1016 1563 777 1677 
Q 538 1791 414 1992 
Q 291 2194 291 2438 
Q 291 2659 392 2848 
Q 494 3038 669 3163 
Q 800 3259 1026 3326 
Q 1253 3394 1513 3394 
Q 1903 3394 2198 3281 
Q 2494 3169 2634 2976 
Q 2775 2784 2828 2463 
L 2278 2388 
Q 2241 2644 2061 2787 
Q 1881 2931 1553 2931 
Q 1166 2931 1000 2803 
Q 834 2675 834 2503 
Q 834 2394 903 2306 
Q 972 2216 1119 2156 
Q 1203 2125 1616 2013 
Q 2213 1853 2448 1751 
Q 2684 1650 2818 1456 
Q 2953 1263 2953 975 
Q 2953 694 2789 445 
Q 2625 197 2315 61 
Q 2006 -75 1616 -75 
Q 969 -75 630 194 
Q 291 463 197 991 
z
" transform="scale(0.015625)"/>
      <path id="ArialMT-43f" d="M 425 3319 
L 3044 3319 
L 3044 0 
L 2481 0 
L 2481 2853 
L 988 2853 
L 988 0 
L 425 0 
L 425 3319 
z
" transform="scale(0.015625)"/>
      <path id="ArialMT-43e" d="M 213 1659 
Q 213 2581 725 3025 
Q 1153 3394 1769 3394 
Q 2453 3394 2887 2945 
Q 3322 2497 3322 1706 
Q 3322 1066 3130 698 
Q 2938 331 2570 128 
Q 2203 -75 1769 -75 
Q 1072 -75 642 372 
Q 213 819 213 1659 
z
M 791 1659 
Q 791 1022 1069 705 
Q 1347 388 1769 388 
Q 2188 388 2466 706 
Q 2744 1025 2744 1678 
Q 2744 2294 2464 2611 
Q 2184 2928 1769 2928 
Q 1347 2928 1069 2612 
Q 791 2297 791 1659 
z
" transform="scale(0.015625)"/>
      <path id="ArialMT-44f" d="M 3034 3319 
L 3034 0 
L 2475 0 
L 2475 1294 
L 2150 1294 
Q 1853 1294 1708 1217 
Q 1563 1141 1284 725 
L 794 0 
L 97 0 
L 703 894 
Q 981 1303 1256 1356 
Q 775 1422 542 1703 
Q 309 1984 309 2350 
Q 309 2781 614 3050 
Q 919 3319 1497 3319 
L 3034 3319 
z
M 2475 2853 
L 1675 2853 
Q 1172 2853 1026 2697 
Q 881 2541 881 2331 
Q 881 2034 1095 1895 
Q 1309 1756 1853 1756 
L 2475 1756 
L 2475 2853 
z
" transform="scale(0.015625)"/>
      <path id="ArialMT-44e" d="M 428 3319 
L 991 3319 
L 991 1931 
L 1672 1931 
Q 1747 2644 2117 3019 
Q 2488 3394 3078 3394 
Q 3581 3394 3872 3191 
Q 4163 2988 4352 2631 
Q 4541 2275 4541 1672 
Q 4541 813 4150 369 
Q 3759 -75 3091 -75 
Q 2469 -75 2094 337 
Q 1719 750 1672 1469 
L 991 1469 
L 991 0 
L 428 0 
L 428 3319 
z
M 3109 2916 
Q 2697 2916 2467 2598 
Q 2238 2281 2238 1709 
Q 2238 1025 2469 706 
Q 2700 388 3088 388 
Q 3472 388 3717 683 
Q 3963 978 3963 1634 
Q 3963 2275 3750 2595 
Q 3538 2916 3109 2916 
z
" transform="scale(0.015625)"/>
      <path id="ArialMT-432" d="M 425 3319 
L 1722 3319 
Q 2200 3319 2433 3239 
Q 2666 3159 2833 2946 
Q 3000 2734 3000 2438 
Q 3000 2200 2901 2023 
Q 2803 1847 2606 1728 
Q 2841 1650 2995 1436 
Q 3150 1222 3150 928 
Q 3119 456 2812 228 
Q 2506 0 1922 0 
L 425 0 
L 425 3319 
z
M 988 1922 
L 1588 1922 
Q 1947 1922 2081 1959 
Q 2216 1997 2322 2111 
Q 2428 2225 2428 2384 
Q 2428 2647 2242 2750 
Q 2056 2853 1606 2853 
L 988 2853 
L 988 1922 
z
M 988 463 
L 1728 463 
Q 2206 463 2384 573 
Q 2563 684 2572 956 
Q 2572 1116 2469 1252 
Q 2366 1388 2200 1423 
Q 2034 1459 1669 1459 
L 988 1459 
L 988 463 
z
" transform="scale(0.015625)"/>
     </defs>
     <use xlink:href="#DejaVuSans-Oblique-52" transform="translate(0 0.765625)"/>
     <use xlink:href="#DejaVuSans-32" transform="translate(76.499193 39.046875) scale(0.7)"/>
     <use xlink:href="#ArialMT-20" transform="translate(123.769701 0.765625)"/>
     <use xlink:href="#ArialMT-76" transform="translate(151.552904 0.765625)"/>
     <use xlink:href="#ArialMT-73" transform="translate(201.552904 0.765625)"/>
     <use xlink:href="#ArialMT-2e" transform="translate(251.552904 0.765625)"/>
     <use xlink:href="#ArialMT-20" transform="translate(279.336107 0.765625)"/>
     <use xlink:href="#ArialMT-41a" transform="translate(307.11931 0.765625)"/>
     <use xlink:href="#ArialMT-456" transform="translate(365.371263 0.765625)"/>
     <use xlink:href="#ArialMT-43b" transform="translate(387.58806 0.765625)"/>
     <use xlink:href="#ArialMT-44c" transform="translate(445.937669 0.765625)"/>
     <use xlink:href="#ArialMT-43a" transform="translate(498.037279 0.765625)"/>
     <use xlink:href="#ArialMT-456" transform="translate(541.787279 0.765625)"/>
     <use xlink:href="#ArialMT-441" transform="translate(564.004076 0.765625)"/>
     <use xlink:href="#ArialMT-442" transform="translate(614.004076 0.765625)"/>
     <use xlink:href="#ArialMT-44c" transform="translate(659.804857 0.765625)"/>
     <use xlink:href="#ArialMT-20" transform="translate(711.904466 0.765625)"/>
     <use xlink:href="#ArialMT-43f" transform="translate(739.687669 0.765625)"/>
     <use xlink:href="#ArialMT-43e" transform="translate(793.83806 0.765625)"/>
     <use xlink:href="#ArialMT-44f" transform="translate(849.453294 0.765625)"/>
     <use xlink:href="#ArialMT-441" transform="translate(903.603685 0.765625)"/>
     <use xlink:href="#ArialMT-43d" transform="translate(953.603685 0.765625)"/>
     <use xlink:href="#ArialMT-44e" transform="translate(1008.828294 0.765625)"/>
     <use xlink:href="#ArialMT-432" transform="translate(1083.828294 0.765625)"/>
     <use xlink:href="#ArialMT-430" transform="translate(1136.953294 0.765625)"/>
     <use xlink:href="#ArialMT-43b" transform="translate(1192.568529 0.765625)"/>
     <use xlink:href="#ArialMT-44c" transform="translate(1250.918138 0.765625)"/>
     <use xlink:href="#ArialMT-43d" transform="translate(1303.017747 0.765625)"/>
     <use xlink:href="#ArialMT-438" transform="translate(1358.242357 0.765625)"/>
     <use xlink:href="#ArialMT-445" transform="translate(1414.101732 0.765625)"/>
     <use xlink:href="#ArialMT-20" transform="translate(1464.101732 0.765625)"/>
     <use xlink:href="#ArialMT-437" transform="translate(1491.884935 0.765625)"/>
     <use xlink:href="#ArialMT-43c" transform="translate(1537.734544 0.765625)"/>
     <use xlink:href="#ArialMT-456" transform="translate(1606.484544 0.765625)"/>
     <use xlink:href="#ArialMT-43d" transform="translate(1628.701341 0.765625)"/>
     <use xlink:href="#ArialMT-43d" transform="translate(1683.925951 0.765625)"/>
     <use xlink:href="#ArialMT-438" transform="translate(1739.15056 0.765625)"/>
     <use xlink:href="#ArialMT-445" transform="translate(1795.009935 0.765625)"/>
    </g>
   </g>
  </g>
 </g>
 <defs>
  <clipPath id="p0a95a7897b">
   <rect x="46.80625" y="21.975" width="558" height="277.2"/>
  </clipPath>
 </defs>
</svg>
