<?xml version="1.0" encoding="utf-8" standalone="no"?>
<!DOCTYPE svg PUBLIC "-//W3C//DTD SVG 1.1//EN"
  "http://www.w3.org/Graphics/SVG/1.1/DTD/svg11.dtd">
<svg xmlns:xlink="http://www.w3.org/1999/xlink" width="577.040156pt" height="296.014531pt" viewBox="0 0 577.040156 296.014531" xmlns="http://www.w3.org/2000/svg" version="1.1">
 <metadata>
  <rdf:RDF xmlns:dc="http://purl.org/dc/elements/1.1/" xmlns:cc="http://creativecommons.org/ns#" xmlns:rdf="http://www.w3.org/1999/02/22-rdf-syntax-ns#">
   <cc:Work>
    <dc:type rdf:resource="http://purl.org/dc/dcmitype/StillImage"/>
    <dc:date>2025-04-28T14:38:53.802894</dc:date>
    <dc:format>image/svg+xml</dc:format>
    <dc:creator>
     <cc:Agent>
      <dc:title>Matplotlib v3.7.2, https://matplotlib.org/</dc:title>
     </cc:Agent>
    </dc:creator>
   </cc:Work>
  </rdf:RDF>
 </metadata>
 <defs>
  <style type="text/css">*{stroke-linejoin: round; stroke-linecap: butt}</style>
 </defs>
 <g id="figure_1">
  <g id="patch_1">
   <path d="M 0 296.014531 
L 577.040156 296.014531 
L 577.040156 0 
L 0 0 
z
" style="fill: #ffffff"/>
  </g>
  <g id="axes_1">
   <g id="matplotlib.axis_1">
    <g id="xtick_1">
     <g id="text_1">
      <!-- −2 -->
      <g style="fill: #262626" transform="translate(26.827677 288.615781) scale(0.01 -0.01)">
       <defs>
        <path id="ArialMT-2212" d="M 3381 1997 
L 356 1997 
L 356 2522 
L 3381 2522 
L 3381 1997 
z
" transform="scale(0.015625)"/>
        <path id="ArialMT-32" d="M 3222 541 
L 3222 0 
L 194 0 
Q 188 203 259 391 
Q 375 700 629 1000 
Q 884 1300 1366 1694 
Q 2113 2306 2375 2664 
Q 2638 3022 2638 3341 
Q 2638 3675 2398 3904 
Q 2159 4134 1775 4134 
Q 1369 4134 1125 3890 
Q 881 3647 878 3216 
L 300 3275 
Q 359 3922 746 4261 
Q 1134 4600 1788 4600 
Q 2447 4600 2831 4234 
Q 3216 3869 3216 3328 
Q 3216 3053 3103 2787 
Q 2991 2522 2730 2228 
Q 2469 1934 1863 1422 
Q 1356 997 1212 845 
Q 1069 694 975 541 
L 3222 541 
z
" transform="scale(0.015625)"/>
       </defs>
       <use xlink:href="#ArialMT-2212"/>
       <use xlink:href="#ArialMT-32" x="58.398438"/>
      </g>
     </g>
    </g>
    <g id="xtick_2">
     <g id="text_2">
      <!-- −1 -->
      <g style="fill: #262626" transform="translate(149.201597 288.615781) scale(0.01 -0.01)">
       <defs>
        <path id="ArialMT-31" d="M 2384 0 
L 1822 0 
L 1822 3584 
Q 1619 3391 1289 3197 
Q 959 3003 697 2906 
L 697 3450 
Q 1169 3672 1522 3987 
Q 1875 4303 2022 4600 
L 2384 4600 
L 2384 0 
z
" transform="scale(0.015625)"/>
       </defs>
       <use xlink:href="#ArialMT-2212"/>
       <use xlink:href="#ArialMT-31" x="58.398438"/>
      </g>
     </g>
    </g>
    <g id="xtick_3">
     <g id="text_3">
      <!-- 0 -->
      <g style="fill: #262626" transform="translate(271.867548 288.615781) scale(0.01 -0.01)">
       <defs>
        <path id="ArialMT-30" d="M 266 2259 
Q 266 3072 433 3567 
Q 600 4063 929 4331 
Q 1259 4600 1759 4600 
Q 2128 4600 2406 4451 
Q 2684 4303 2865 4023 
Q 3047 3744 3150 3342 
Q 3253 2941 3253 2259 
Q 3253 1453 3087 958 
Q 2922 463 2592 192 
Q 2263 -78 1759 -78 
Q 1097 -78 719 397 
Q 266 969 266 2259 
z
M 844 2259 
Q 844 1131 1108 757 
Q 1372 384 1759 384 
Q 2147 384 2411 759 
Q 2675 1134 2675 2259 
Q 2675 3391 2411 3762 
Q 2147 4134 1753 4134 
Q 1366 4134 1134 3806 
Q 844 3388 844 2259 
z
" transform="scale(0.015625)"/>
       </defs>
       <use xlink:href="#ArialMT-30"/>
      </g>
     </g>
    </g>
    <g id="xtick_4">
     <g id="text_4">
      <!-- 1 -->
      <g style="fill: #262626" transform="translate(394.241468 288.615781) scale(0.01 -0.01)">
       <use xlink:href="#ArialMT-31"/>
      </g>
     </g>
    </g>
    <g id="xtick_5">
     <g id="text_5">
      <!-- 2 -->
      <g style="fill: #262626" transform="translate(516.615388 288.615781) scale(0.01 -0.01)">
       <use xlink:href="#ArialMT-32"/>
      </g>
     </g>
    </g>
   </g>
   <g id="matplotlib.axis_2">
    <g id="ytick_1">
     <g id="text_6">
      <!-- −2 -->
      <g style="fill: #262626" transform="translate(7.2 284.753531) scale(0.01 -0.01)">
       <use xlink:href="#ArialMT-2212"/>
       <use xlink:href="#ArialMT-32" x="58.398438"/>
      </g>
     </g>
    </g>
    <g id="ytick_2">
     <g id="text_7">
      <!-- −1 -->
      <g style="fill: #262626" transform="translate(7.2 228.993035) scale(0.01 -0.01)">
       <use xlink:href="#ArialMT-2212"/>
       <use xlink:href="#ArialMT-31" x="58.398438"/>
      </g>
     </g>
    </g>
    <g id="ytick_3">
     <g id="text_8">
      <!-- 0 -->
      <g style="fill: #262626" transform="translate(7.784063 173.23254) scale(0.01 -0.01)">
       <use xlink:href="#ArialMT-30"/>
      </g>
     </g>
    </g>
    <g id="ytick_4">
     <g id="text_9">
      <!-- 1 -->
      <g style="fill: #262626" transform="translate(7.784063 117.472045) scale(0.01 -0.01)">
       <use xlink:href="#ArialMT-31"/>
      </g>
     </g>
    </g>
    <g id="ytick_5">
     <g id="text_10">
      <!-- 2 -->
      <g style="fill: #262626" transform="translate(7.784063 61.711549) scale(0.01 -0.01)">
       <use xlink:href="#ArialMT-32"/>
      </g>
     </g>
    </g>
   </g>
   <g id="PathCollection_1">
    <defs>
     <path id="m199cf43606" d="M 0 3.872983 
C 1.027127 3.872983 2.012324 3.464901 2.738613 2.738613 
C 3.464901 2.012324 3.872983 1.027127 3.872983 0 
C 3.872983 -1.027127 3.464901 -2.012324 2.738613 -2.738613 
C 2.012324 -3.464901 1.027127 -3.872983 0 -3.872983 
C -1.027127 -3.872983 -2.012324 -3.464901 -2.738613 -2.738613 
C -3.464901 -2.012324 -3.872983 -1.027127 -3.872983 0 
C -3.872983 1.027127 -3.464901 2.012324 -2.738613 2.738613 
C -2.012324 3.464901 -1.027127 3.872983 0 3.872983 
z
" style="stroke: #2f4f4f"/>
    </defs>
    <g clip-path="url(#p3892626fc9)">
     <use xlink:href="#m199cf43606" x="308.390058" y="164.616699" style="fill: #2f4f4f; stroke: #2f4f4f"/>
     <use xlink:href="#m199cf43606" x="305.652793" y="138.47293" style="fill: #2f4f4f; stroke: #2f4f4f"/>
     <use xlink:href="#m199cf43606" x="318.095383" y="219.411127" style="fill: #2f4f4f; stroke: #2f4f4f"/>
     <use xlink:href="#m199cf43606" x="377.568553" y="113.755716" style="fill: #2f4f4f; stroke: #2f4f4f"/>
     <use xlink:href="#m199cf43606" x="331.052728" y="142.12142" style="fill: #2f4f4f; stroke: #2f4f4f"/>
     <use xlink:href="#m199cf43606" x="471.649819" y="107.355265" style="fill: #2f4f4f; stroke: #2f4f4f"/>
     <use xlink:href="#m199cf43606" x="284.714487" y="129.867042" style="fill: #2f4f4f; stroke: #2f4f4f"/>
     <use xlink:href="#m199cf43606" x="381.539703" y="133.933186" style="fill: #2f4f4f; stroke: #2f4f4f"/>
     <use xlink:href="#m199cf43606" x="195.936191" y="173.196367" style="fill: #2f4f4f; stroke: #2f4f4f"/>
     <use xlink:href="#m199cf43606" x="241.670797" y="151.37007" style="fill: #2f4f4f; stroke: #2f4f4f"/>
     <use xlink:href="#m199cf43606" x="120.626862" y="260.192509" style="fill: #2f4f4f; stroke: #2f4f4f"/>
     <use xlink:href="#m199cf43606" x="452.739924" y="105.420127" style="fill: #2f4f4f; stroke: #2f4f4f"/>
     <use xlink:href="#m199cf43606" x="342.979277" y="168.891945" style="fill: #2f4f4f; stroke: #2f4f4f"/>
     <use xlink:href="#m199cf43606" x="495.929635" y="71.840994" style="fill: #2f4f4f; stroke: #2f4f4f"/>
     <use xlink:href="#m199cf43606" x="409.055619" y="130.461756" style="fill: #2f4f4f; stroke: #2f4f4f"/>
     <use xlink:href="#m199cf43606" x="280.060177" y="187.023907" style="fill: #2f4f4f; stroke: #2f4f4f"/>
     <use xlink:href="#m199cf43606" x="466.847338" y="130.724765" style="fill: #2f4f4f; stroke: #2f4f4f"/>
     <use xlink:href="#m199cf43606" x="229.657991" y="180.016556" style="fill: #2f4f4f; stroke: #2f4f4f"/>
     <use xlink:href="#m199cf43606" x="37.203793" y="263.217246" style="fill: #2f4f4f; stroke: #2f4f4f"/>
     <use xlink:href="#m199cf43606" x="144.329507" y="216.557759" style="fill: #2f4f4f; stroke: #2f4f4f"/>
     <use xlink:href="#m199cf43606" x="270.457891" y="148.463697" style="fill: #2f4f4f; stroke: #2f4f4f"/>
     <use xlink:href="#m199cf43606" x="220.023837" y="199.192664" style="fill: #2f4f4f; stroke: #2f4f4f"/>
     <use xlink:href="#m199cf43606" x="237.129288" y="175.241448" style="fill: #2f4f4f; stroke: #2f4f4f"/>
     <use xlink:href="#m199cf43606" x="368.807364" y="123.408793" style="fill: #2f4f4f; stroke: #2f4f4f"/>
     <use xlink:href="#m199cf43606" x="309.618607" y="196.10785" style="fill: #2f4f4f; stroke: #2f4f4f"/>
    </g>
   </g>
   <g id="PathCollection_2">
    <defs>
     <path id="C0_0_361b8bd9cf" d="M 0 3.872983 
C 1.027127 3.872983 2.012324 3.464901 2.738613 2.738613 
C 3.464901 2.012324 3.872983 1.027127 3.872983 -0 
C 3.872983 -1.027127 3.464901 -2.012324 2.738613 -2.738613 
C 2.012324 -3.464901 1.027127 -3.872983 0 -3.872983 
C -1.027127 -3.872983 -2.012324 -3.464901 -2.738613 -2.738613 
C -3.464901 -2.012324 -3.872983 -1.027127 -3.872983 0 
C -3.872983 1.027127 -3.464901 2.012324 -2.738613 2.738613 
C -2.012324 3.464901 -1.027127 3.872983 0 3.872983 
z
"/>
    </defs>
    <g clip-path="url(#p3892626fc9)">
     <use xlink:href="#C0_0_361b8bd9cf" x="219.830572" y="201.588373" style="fill: none; stroke: #2f4f4f; stroke-opacity: 0.3"/>
    </g>
    <g clip-path="url(#p3892626fc9)">
     <use xlink:href="#C0_0_361b8bd9cf" x="138.014524" y="180.281147" style="fill: none; stroke: #2f4f4f; stroke-opacity: 0.3"/>
    </g>
    <g clip-path="url(#p3892626fc9)">
     <use xlink:href="#C0_0_361b8bd9cf" x="59.110101" y="242.881318" style="fill: none; stroke: #2f4f4f; stroke-opacity: 0.3"/>
    </g>
    <g clip-path="url(#p3892626fc9)">
     <use xlink:href="#C0_0_361b8bd9cf" x="343.968477" y="156.572514" style="fill: none; stroke: #2f4f4f; stroke-opacity: 0.3"/>
    </g>
    <g clip-path="url(#p3892626fc9)">
     <use xlink:href="#C0_0_361b8bd9cf" x="494.157788" y="91.542959" style="fill: none; stroke: #2f4f4f; stroke-opacity: 0.3"/>
    </g>
    <g clip-path="url(#p3892626fc9)">
     <use xlink:href="#C0_0_361b8bd9cf" x="432.2152" y="149.744213" style="fill: none; stroke: #2f4f4f; stroke-opacity: 0.3"/>
    </g>
    <g clip-path="url(#p3892626fc9)">
     <use xlink:href="#C0_0_361b8bd9cf" x="110.729528" y="254.387195" style="fill: none; stroke: #2f4f4f; stroke-opacity: 0.3"/>
    </g>
    <g clip-path="url(#p3892626fc9)">
     <use xlink:href="#C0_0_361b8bd9cf" x="319.440919" y="201.569436" style="fill: none; stroke: #2f4f4f; stroke-opacity: 0.3"/>
    </g>
    <g clip-path="url(#p3892626fc9)">
     <use xlink:href="#C0_0_361b8bd9cf" x="391.230378" y="105.363492" style="fill: none; stroke: #2f4f4f; stroke-opacity: 0.3"/>
    </g>
    <g clip-path="url(#p3892626fc9)">
     <use xlink:href="#C0_0_361b8bd9cf" x="353.164173" y="146.244874" style="fill: none; stroke: #2f4f4f; stroke-opacity: 0.3"/>
    </g>
    <g clip-path="url(#p3892626fc9)">
     <use xlink:href="#C0_0_361b8bd9cf" x="270.32066" y="108.383688" style="fill: none; stroke: #2f4f4f; stroke-opacity: 0.3"/>
    </g>
    <g clip-path="url(#p3892626fc9)">
     <use xlink:href="#C0_0_361b8bd9cf" x="314.643874" y="190.811294" style="fill: none; stroke: #2f4f4f; stroke-opacity: 0.3"/>
    </g>
    <g clip-path="url(#p3892626fc9)">
     <use xlink:href="#C0_0_361b8bd9cf" x="223.897234" y="237.913651" style="fill: none; stroke: #2f4f4f; stroke-opacity: 0.3"/>
    </g>
    <g clip-path="url(#p3892626fc9)">
     <use xlink:href="#C0_0_361b8bd9cf" x="323.733141" y="218.478232" style="fill: none; stroke: #2f4f4f; stroke-opacity: 0.3"/>
    </g>
    <g clip-path="url(#p3892626fc9)">
     <use xlink:href="#C0_0_361b8bd9cf" x="418.722008" y="99.143611" style="fill: none; stroke: #2f4f4f; stroke-opacity: 0.3"/>
    </g>
    <g clip-path="url(#p3892626fc9)">
     <use xlink:href="#C0_0_361b8bd9cf" x="179.782371" y="208.917091" style="fill: none; stroke: #2f4f4f; stroke-opacity: 0.3"/>
    </g>
    <g clip-path="url(#p3892626fc9)">
     <use xlink:href="#C0_0_361b8bd9cf" x="297.223798" y="172.066332" style="fill: none; stroke: #2f4f4f; stroke-opacity: 0.3"/>
    </g>
    <g clip-path="url(#p3892626fc9)">
     <use xlink:href="#C0_0_361b8bd9cf" x="300.479724" y="222.139447" style="fill: none; stroke: #2f4f4f; stroke-opacity: 0.3"/>
    </g>
    <g clip-path="url(#p3892626fc9)">
     <use xlink:href="#C0_0_361b8bd9cf" x="249.423286" y="196.808546" style="fill: none; stroke: #2f4f4f; stroke-opacity: 0.3"/>
    </g>
    <g clip-path="url(#p3892626fc9)">
     <use xlink:href="#C0_0_361b8bd9cf" x="327.061573" y="126.28042" style="fill: none; stroke: #2f4f4f; stroke-opacity: 0.3"/>
    </g>
    <g clip-path="url(#p3892626fc9)">
     <use xlink:href="#C0_0_361b8bd9cf" x="116.413932" y="210.992267" style="fill: none; stroke: #2f4f4f; stroke-opacity: 0.3"/>
    </g>
    <g clip-path="url(#p3892626fc9)">
     <use xlink:href="#C0_0_361b8bd9cf" x="334.959531" y="150.800515" style="fill: none; stroke: #2f4f4f; stroke-opacity: 0.3"/>
    </g>
    <g clip-path="url(#p3892626fc9)">
     <use xlink:href="#C0_0_361b8bd9cf" x="446.875392" y="135.443311" style="fill: none; stroke: #2f4f4f; stroke-opacity: 0.3"/>
    </g>
    <g clip-path="url(#p3892626fc9)">
     <use xlink:href="#C0_0_361b8bd9cf" x="125.332327" y="191.941891" style="fill: none; stroke: #2f4f4f; stroke-opacity: 0.3"/>
    </g>
    <g clip-path="url(#p3892626fc9)">
     <use xlink:href="#C0_0_361b8bd9cf" x="255.126653" y="203.380259" style="fill: none; stroke: #2f4f4f; stroke-opacity: 0.3"/>
    </g>
    <g clip-path="url(#p3892626fc9)">
     <use xlink:href="#C0_0_361b8bd9cf" x="170.670712" y="164.871909" style="fill: none; stroke: #2f4f4f; stroke-opacity: 0.3"/>
    </g>
    <g clip-path="url(#p3892626fc9)">
     <use xlink:href="#C0_0_361b8bd9cf" x="215.756157" y="143.390098" style="fill: none; stroke: #2f4f4f; stroke-opacity: 0.3"/>
    </g>
    <g clip-path="url(#p3892626fc9)">
     <use xlink:href="#C0_0_361b8bd9cf" x="544.47652" y="19.8" style="fill: none; stroke: #2f4f4f; stroke-opacity: 0.3"/>
    </g>
    <g clip-path="url(#p3892626fc9)">
     <use xlink:href="#C0_0_361b8bd9cf" x="273.61094" y="182.751758" style="fill: none; stroke: #2f4f4f; stroke-opacity: 0.3"/>
    </g>
    <g clip-path="url(#p3892626fc9)">
     <use xlink:href="#C0_0_361b8bd9cf" x="338.407715" y="212.775544" style="fill: none; stroke: #2f4f4f; stroke-opacity: 0.3"/>
    </g>
    <g clip-path="url(#p3892626fc9)">
     <use xlink:href="#C0_0_361b8bd9cf" x="283.82865" y="154.957243" style="fill: none; stroke: #2f4f4f; stroke-opacity: 0.3"/>
    </g>
    <g clip-path="url(#p3892626fc9)">
     <use xlink:href="#C0_0_361b8bd9cf" x="385.423937" y="138.953596" style="fill: none; stroke: #2f4f4f; stroke-opacity: 0.3"/>
    </g>
    <g clip-path="url(#p3892626fc9)">
     <use xlink:href="#C0_0_361b8bd9cf" x="153.150795" y="215.501678" style="fill: none; stroke: #2f4f4f; stroke-opacity: 0.3"/>
    </g>
    <g clip-path="url(#p3892626fc9)">
     <use xlink:href="#C0_0_361b8bd9cf" x="313.785186" y="135.800384" style="fill: none; stroke: #2f4f4f; stroke-opacity: 0.3"/>
    </g>
    <g clip-path="url(#p3892626fc9)">
     <use xlink:href="#C0_0_361b8bd9cf" x="223.390811" y="160.929826" style="fill: none; stroke: #2f4f4f; stroke-opacity: 0.3"/>
    </g>
    <g clip-path="url(#p3892626fc9)">
     <use xlink:href="#C0_0_361b8bd9cf" x="366.329693" y="141.514379" style="fill: none; stroke: #2f4f4f; stroke-opacity: 0.3"/>
    </g>
    <g clip-path="url(#p3892626fc9)">
     <use xlink:href="#C0_0_361b8bd9cf" x="374.302183" y="177.938684" style="fill: none; stroke: #2f4f4f; stroke-opacity: 0.3"/>
    </g>
    <g clip-path="url(#p3892626fc9)">
     <use xlink:href="#C0_0_361b8bd9cf" x="227.665455" y="183.935939" style="fill: none; stroke: #2f4f4f; stroke-opacity: 0.3"/>
    </g>
    <g clip-path="url(#p3892626fc9)">
     <use xlink:href="#C0_0_361b8bd9cf" x="280.630013" y="177.281625" style="fill: none; stroke: #2f4f4f; stroke-opacity: 0.3"/>
    </g>
    <g clip-path="url(#p3892626fc9)">
     <use xlink:href="#C0_0_361b8bd9cf" x="275.233941" y="157.218153" style="fill: none; stroke: #2f4f4f; stroke-opacity: 0.3"/>
    </g>
    <g clip-path="url(#p3892626fc9)">
     <use xlink:href="#C0_0_361b8bd9cf" x="46.414734" y="269.573759" style="fill: none; stroke: #2f4f4f; stroke-opacity: 0.3"/>
    </g>
    <g clip-path="url(#p3892626fc9)">
     <use xlink:href="#C0_0_361b8bd9cf" x="245.126426" y="187.811527" style="fill: none; stroke: #2f4f4f; stroke-opacity: 0.3"/>
    </g>
    <g clip-path="url(#p3892626fc9)">
     <use xlink:href="#C0_0_361b8bd9cf" x="169.830603" y="132.626381" style="fill: none; stroke: #2f4f4f; stroke-opacity: 0.3"/>
    </g>
    <g clip-path="url(#p3892626fc9)">
     <use xlink:href="#C0_0_361b8bd9cf" x="282.808278" y="157.381748" style="fill: none; stroke: #2f4f4f; stroke-opacity: 0.3"/>
    </g>
    <g clip-path="url(#p3892626fc9)">
     <use xlink:href="#C0_0_361b8bd9cf" x="321.400966" y="191.645749" style="fill: none; stroke: #2f4f4f; stroke-opacity: 0.3"/>
    </g>
    <g clip-path="url(#p3892626fc9)">
     <use xlink:href="#C0_0_361b8bd9cf" x="110.372288" y="220.070043" style="fill: none; stroke: #2f4f4f; stroke-opacity: 0.3"/>
    </g>
    <g clip-path="url(#p3892626fc9)">
     <use xlink:href="#C0_0_361b8bd9cf" x="215.502962" y="230.754733" style="fill: none; stroke: #2f4f4f; stroke-opacity: 0.3"/>
    </g>
    <g clip-path="url(#p3892626fc9)">
     <use xlink:href="#C0_0_361b8bd9cf" x="163.538337" y="271.8" style="fill: none; stroke: #2f4f4f; stroke-opacity: 0.3"/>
    </g>
    <g clip-path="url(#p3892626fc9)">
     <use xlink:href="#C0_0_361b8bd9cf" x="119.248632" y="165.294492" style="fill: none; stroke: #2f4f4f; stroke-opacity: 0.3"/>
    </g>
    <g clip-path="url(#p3892626fc9)">
     <use xlink:href="#C0_0_361b8bd9cf" x="449.515209" y="89.637054" style="fill: none; stroke: #2f4f4f; stroke-opacity: 0.3"/>
    </g>
    <g clip-path="url(#p3892626fc9)">
     <use xlink:href="#C0_0_361b8bd9cf" x="377.145687" y="108.328928" style="fill: none; stroke: #2f4f4f; stroke-opacity: 0.3"/>
    </g>
    <g clip-path="url(#p3892626fc9)">
     <use xlink:href="#C0_0_361b8bd9cf" x="318.905908" y="96.907961" style="fill: none; stroke: #2f4f4f; stroke-opacity: 0.3"/>
    </g>
    <g clip-path="url(#p3892626fc9)">
     <use xlink:href="#C0_0_361b8bd9cf" x="375.539823" y="137.12021" style="fill: none; stroke: #2f4f4f; stroke-opacity: 0.3"/>
    </g>
    <g clip-path="url(#p3892626fc9)">
     <use xlink:href="#C0_0_361b8bd9cf" x="225.333077" y="237.612789" style="fill: none; stroke: #2f4f4f; stroke-opacity: 0.3"/>
    </g>
    <g clip-path="url(#p3892626fc9)">
     <use xlink:href="#C0_0_361b8bd9cf" x="195.154989" y="161.858194" style="fill: none; stroke: #2f4f4f; stroke-opacity: 0.3"/>
    </g>
    <g clip-path="url(#p3892626fc9)">
     <use xlink:href="#C0_0_361b8bd9cf" x="451.619937" y="84.584661" style="fill: none; stroke: #2f4f4f; stroke-opacity: 0.3"/>
    </g>
    <g clip-path="url(#p3892626fc9)">
     <use xlink:href="#C0_0_361b8bd9cf" x="211.719731" y="172.836307" style="fill: none; stroke: #2f4f4f; stroke-opacity: 0.3"/>
    </g>
    <g clip-path="url(#p3892626fc9)">
     <use xlink:href="#C0_0_361b8bd9cf" x="200.05854" y="195.248127" style="fill: none; stroke: #2f4f4f; stroke-opacity: 0.3"/>
    </g>
    <g clip-path="url(#p3892626fc9)">
     <use xlink:href="#C0_0_361b8bd9cf" x="342.104688" y="132.806654" style="fill: none; stroke: #2f4f4f; stroke-opacity: 0.3"/>
    </g>
    <g clip-path="url(#p3892626fc9)">
     <use xlink:href="#C0_0_361b8bd9cf" x="265.765605" y="200.974076" style="fill: none; stroke: #2f4f4f; stroke-opacity: 0.3"/>
    </g>
    <g clip-path="url(#p3892626fc9)">
     <use xlink:href="#C0_0_361b8bd9cf" x="385.041563" y="98.278805" style="fill: none; stroke: #2f4f4f; stroke-opacity: 0.3"/>
    </g>
    <g clip-path="url(#p3892626fc9)">
     <use xlink:href="#C0_0_361b8bd9cf" x="354.841756" y="107.436238" style="fill: none; stroke: #2f4f4f; stroke-opacity: 0.3"/>
    </g>
    <g clip-path="url(#p3892626fc9)">
     <use xlink:href="#C0_0_361b8bd9cf" x="169.398281" y="248.634361" style="fill: none; stroke: #2f4f4f; stroke-opacity: 0.3"/>
    </g>
    <g clip-path="url(#p3892626fc9)">
     <use xlink:href="#C0_0_361b8bd9cf" x="103.307111" y="182.914669" style="fill: none; stroke: #2f4f4f; stroke-opacity: 0.3"/>
    </g>
    <g clip-path="url(#p3892626fc9)">
     <use xlink:href="#C0_0_361b8bd9cf" x="329.801811" y="173.184494" style="fill: none; stroke: #2f4f4f; stroke-opacity: 0.3"/>
    </g>
    <g clip-path="url(#p3892626fc9)">
     <use xlink:href="#C0_0_361b8bd9cf" x="406.983218" y="140.205377" style="fill: none; stroke: #2f4f4f; stroke-opacity: 0.3"/>
    </g>
    <g clip-path="url(#p3892626fc9)">
     <use xlink:href="#C0_0_361b8bd9cf" x="267.894738" y="162.780504" style="fill: none; stroke: #2f4f4f; stroke-opacity: 0.3"/>
    </g>
    <g clip-path="url(#p3892626fc9)">
     <use xlink:href="#C0_0_361b8bd9cf" x="208.013064" y="172.925594" style="fill: none; stroke: #2f4f4f; stroke-opacity: 0.3"/>
    </g>
    <g clip-path="url(#p3892626fc9)">
     <use xlink:href="#C0_0_361b8bd9cf" x="214.387245" y="147.932246" style="fill: none; stroke: #2f4f4f; stroke-opacity: 0.3"/>
    </g>
    <g clip-path="url(#p3892626fc9)">
     <use xlink:href="#C0_0_361b8bd9cf" x="197.605499" y="110.909765" style="fill: none; stroke: #2f4f4f; stroke-opacity: 0.3"/>
    </g>
    <g clip-path="url(#p3892626fc9)">
     <use xlink:href="#C0_0_361b8bd9cf" x="232.679621" y="221.086132" style="fill: none; stroke: #2f4f4f; stroke-opacity: 0.3"/>
    </g>
    <g clip-path="url(#p3892626fc9)">
     <use xlink:href="#C0_0_361b8bd9cf" x="377.799156" y="107.718009" style="fill: none; stroke: #2f4f4f; stroke-opacity: 0.3"/>
    </g>
    <g clip-path="url(#p3892626fc9)">
     <use xlink:href="#C0_0_361b8bd9cf" x="429.074949" y="154.791392" style="fill: none; stroke: #2f4f4f; stroke-opacity: 0.3"/>
    </g>
    <g clip-path="url(#p3892626fc9)">
     <use xlink:href="#C0_0_361b8bd9cf" x="290.842396" y="134.153538" style="fill: none; stroke: #2f4f4f; stroke-opacity: 0.3"/>
    </g>
    <g clip-path="url(#p3892626fc9)">
     <use xlink:href="#C0_0_361b8bd9cf" x="295.498214" y="206.166138" style="fill: none; stroke: #2f4f4f; stroke-opacity: 0.3"/>
    </g>
   </g>
   <g id="line2d_1">
    <path d="M 11.840156 255.727512 
L 569.840156 72.258753 
" clip-path="url(#p3892626fc9)" style="fill: none; stroke: #e64173; stroke-opacity: 0.3; stroke-width: 2; stroke-linecap: round"/>
   </g>
   <g id="line2d_2">
    <path d="M 11.840156 249.353257 
L 569.840156 64.493208 
" clip-path="url(#p3892626fc9)" style="fill: none; stroke-dasharray: 7.4,3.2; stroke-dashoffset: 0; stroke: #000000; stroke-opacity: 0.3; stroke-width: 2"/>
   </g>
   <g id="line2d_3">
    <path d="M 11.840156 259.749205 
L 569.840156 67.769389 
" clip-path="url(#p3892626fc9)" style="fill: none; stroke-dasharray: 7.4,3.2; stroke-dashoffset: 0; stroke: #000000; stroke-opacity: 0.3; stroke-width: 2"/>
   </g>
   <g id="line2d_4">
    <path d="M 11.840156 265.645134 
L 569.840156 66.277244 
" clip-path="url(#p3892626fc9)" style="fill: none; stroke-dasharray: 7.4,3.2; stroke-dashoffset: 0; stroke: #000000; stroke-width: 2"/>
   </g>
  </g>
 </g>
 <defs>
  <clipPath id="p3892626fc9">
   <rect x="11.840156" y="7.2" width="558" height="277.2"/>
  </clipPath>
 </defs>
</svg>
