<?xml version="1.0" encoding="utf-8" standalone="no"?>
<!DOCTYPE svg PUBLIC "-//W3C//DTD SVG 1.1//EN"
  "http://www.w3.org/Graphics/SVG/1.1/DTD/svg11.dtd">
<svg xmlns:xlink="http://www.w3.org/1999/xlink" width="572.4pt" height="315.2pt" viewBox="0 0 572.4 315.2" xmlns="http://www.w3.org/2000/svg" version="1.1">
 <metadata>
  <rdf:RDF xmlns:dc="http://purl.org/dc/elements/1.1/" xmlns:cc="http://creativecommons.org/ns#" xmlns:rdf="http://www.w3.org/1999/02/22-rdf-syntax-ns#">
   <cc:Work>
    <dc:type rdf:resource="http://purl.org/dc/dcmitype/StillImage"/>
    <dc:date>2025-04-28T14:39:15.298966</dc:date>
    <dc:format>image/svg+xml</dc:format>
    <dc:creator>
     <cc:Agent>
      <dc:title>Matplotlib v3.7.2, https://matplotlib.org/</dc:title>
     </cc:Agent>
    </dc:creator>
   </cc:Work>
  </rdf:RDF>
 </metadata>
 <defs>
  <style type="text/css">*{stroke-linejoin: round; stroke-linecap: butt}</style>
 </defs>
 <g id="figure_1">
  <g id="patch_1">
   <path d="M 0 315.2 
L 572.4 315.2 
L 572.4 0 
L 0 0 
z
" style="fill: #ffffff"/>
  </g>
  <g id="axes_1">
   <g id="matplotlib.axis_1">
    <g id="xtick_1"/>
    <g id="xtick_2"/>
    <g id="xtick_3"/>
    <g id="xtick_4"/>
    <g id="xtick_5"/>
    <g id="xtick_6"/>
    <g id="xtick_7"/>
    <g id="xtick_8"/>
    <g id="xtick_9"/>
    <g id="text_1">
     <!-- $\beta$ -->
     <g style="fill: #262626" transform="translate(279.8 303.8) scale(0.2 -0.2)">
      <defs>
       <path id="DejaVuSans-Oblique-3b2" d="M 872 216 
L 572 -1331 
L -6 -1331 
L 928 3478 
Q 1206 4903 2538 4903 
Q 3888 4903 3659 3700 
Q 3503 2844 2894 2531 
Q 3713 2250 3553 1416 
Q 3272 -69 1759 -66 
Q 1097 -63 872 216 
z
M 1019 966 
Q 1259 422 1875 425 
Q 2775 425 2966 1406 
Q 3138 2288 1675 2219 
L 1778 2750 
Q 2909 2731 3106 3750 
Q 3241 4438 2509 4434 
Q 1691 4434 1503 3459 
L 1019 966 
z
" transform="scale(0.015625)"/>
      </defs>
      <use xlink:href="#DejaVuSans-Oblique-3b2" transform="translate(0 0.390625)"/>
     </g>
    </g>
   </g>
   <g id="matplotlib.axis_2">
    <g id="ytick_1"/>
    <g id="ytick_2"/>
    <g id="ytick_3"/>
    <g id="ytick_4"/>
    <g id="ytick_5"/>
    <g id="ytick_6"/>
    <g id="ytick_7"/>
    <g id="ytick_8"/>
    <g id="ytick_9"/>
   </g>
   <g id="PolyCollection_1">
    <defs>
     <path id="ma1bfb611e3" d="M 32.563636 -43.4 
L 32.563636 -43.484537 
L 33.197727 -43.487982 
L 33.831818 -43.491559 
L 34.465909 -43.495272 
L 35.1 -43.499125 
L 35.734091 -43.503124 
L 36.368182 -43.507274 
L 37.002273 -43.511579 
L 37.636364 -43.516046 
L 38.270455 -43.520679 
L 38.904545 -43.525485 
L 39.538636 -43.530469 
L 40.172727 -43.535637 
L 40.806818 -43.540996 
L 41.440909 -43.546553 
L 42.075 -43.552313 
L 42.709091 -43.558283 
L 43.343182 -43.564471 
L 43.977273 -43.570884 
L 44.611364 -43.577529 
L 45.245455 -43.584414 
L 45.879545 -43.591547 
L 46.513636 -43.598936 
L 47.147727 -43.60659 
L 47.781818 -43.614516 
L 48.415909 -43.622724 
L 49.05 -43.631223 
L 49.684091 -43.640023 
L 50.318182 -43.649132 
L 50.952273 -43.658562 
L 51.586364 -43.668321 
L 52.220455 -43.678421 
L 52.854545 -43.688872 
L 53.488636 -43.699686 
L 54.122727 -43.710873 
L 54.756818 -43.722446 
L 55.390909 -43.734416 
L 56.025 -43.746795 
L 56.659091 -43.759597 
L 57.293182 -43.772834 
L 57.927273 -43.78652 
L 58.561364 -43.800668 
L 59.195455 -43.815293 
L 59.829545 -43.830408 
L 60.463636 -43.846029 
L 61.097727 -43.862171 
L 61.731818 -43.878849 
L 62.365909 -43.896079 
L 63 -43.913877 
L 63.634091 -43.932261 
L 64.268182 -43.951248 
L 64.902273 -43.970855 
L 65.536364 -43.9911 
L 66.170455 -44.012001 
L 66.804545 -44.033579 
L 67.438636 -44.055851 
L 68.072727 -44.078839 
L 68.706818 -44.102563 
L 69.340909 -44.127042 
L 69.975 -44.152299 
L 70.609091 -44.178356 
L 71.243182 -44.205235 
L 71.877273 -44.232959 
L 72.511364 -44.261551 
L 73.145455 -44.291036 
L 73.779545 -44.321437 
L 74.413636 -44.35278 
L 75.047727 -44.385091 
L 75.681818 -44.418396 
L 76.315909 -44.452722 
L 76.95 -44.488096 
L 77.584091 -44.524546 
L 78.218182 -44.5621 
L 78.852273 -44.600789 
L 79.486364 -44.640642 
L 80.120455 -44.681689 
L 80.754545 -44.723962 
L 81.388636 -44.767493 
L 82.022727 -44.812313 
L 82.656818 -44.858457 
L 83.290909 -44.905958 
L 83.925 -44.95485 
L 84.559091 -45.005169 
L 85.193182 -45.056951 
L 85.827273 -45.110232 
L 86.461364 -45.16505 
L 87.095455 -45.221443 
L 87.729545 -45.27945 
L 88.363636 -45.33911 
L 88.997727 -45.400464 
L 89.631818 -45.463553 
L 90.265909 -45.528418 
L 90.9 -45.595103 
L 91.534091 -45.663651 
L 92.168182 -45.734106 
L 92.802273 -45.806514 
L 93.436364 -45.880919 
L 94.070455 -45.957369 
L 94.704545 -46.035912 
L 95.338636 -46.116595 
L 95.972727 -46.199467 
L 96.606818 -46.284579 
L 97.240909 -46.371982 
L 97.875 -46.461727 
L 98.509091 -46.553866 
L 99.143182 -46.648454 
L 99.777273 -46.745543 
L 100.411364 -46.84519 
L 101.045455 -46.94745 
L 101.679545 -47.05238 
L 102.313636 -47.160038 
L 102.947727 -47.270482 
L 103.581818 -47.383772 
L 104.215909 -47.499968 
L 104.85 -47.619131 
L 105.484091 -47.741323 
L 106.118182 -47.866607 
L 106.752273 -47.995047 
L 107.386364 -48.126709 
L 108.020455 -48.261656 
L 108.654545 -48.399956 
L 109.288636 -48.541676 
L 109.922727 -48.686884 
L 110.556818 -48.83565 
L 111.190909 -48.988043 
L 111.825 -49.144134 
L 112.459091 -49.303994 
L 113.093182 -49.467697 
L 113.727273 -49.635315 
L 114.361364 -49.806923 
L 114.995455 -49.982595 
L 115.629545 -50.162408 
L 116.263636 -50.346439 
L 116.897727 -50.534763 
L 117.531818 -50.727461 
L 118.165909 -50.924611 
L 118.8 -51.126292 
L 119.434091 -51.332586 
L 120.068182 -51.543573 
L 120.702273 -51.759337 
L 121.336364 -51.979959 
L 121.970455 -52.205523 
L 122.604545 -52.436113 
L 123.238636 -52.671814 
L 123.872727 -52.912713 
L 124.506818 -53.158894 
L 125.140909 -53.410445 
L 125.775 -53.667454 
L 126.409091 -53.930008 
L 127.043182 -54.198196 
L 127.677273 -54.472107 
L 128.311364 -54.751831 
L 128.945455 -55.037459 
L 129.579545 -55.32908 
L 130.213636 -55.626786 
L 130.847727 -55.930668 
L 131.481818 -56.240819 
L 132.115909 -56.557331 
L 132.75 -56.880296 
L 133.384091 -57.209808 
L 134.018182 -57.54596 
L 134.652273 -57.888846 
L 135.286364 -58.238558 
L 135.920455 -58.595192 
L 136.554545 -58.958842 
L 137.188636 -59.329601 
L 137.822727 -59.707565 
L 138.456818 -60.092827 
L 139.090909 -60.485482 
L 139.725 -60.885625 
L 140.359091 -61.293349 
L 140.993182 -61.70875 
L 141.627273 -62.131921 
L 142.261364 -62.562957 
L 142.895455 -63.001951 
L 143.529545 -63.448996 
L 144.163636 -63.904187 
L 144.797727 -64.367615 
L 145.431818 -64.839373 
L 146.065909 -65.319553 
L 146.7 -65.808248 
L 147.334091 -66.305547 
L 147.968182 -66.811541 
L 148.602273 -67.32632 
L 149.236364 -67.849972 
L 149.870455 -68.382588 
L 150.504545 -68.924253 
L 151.138636 -69.475054 
L 151.772727 -70.035078 
L 152.406818 -70.60441 
L 153.040909 -71.183132 
L 153.675 -71.771329 
L 154.309091 -72.369081 
L 154.943182 -72.976469 
L 155.577273 -73.593573 
L 156.211364 -74.22047 
L 156.845455 -74.857238 
L 157.479545 -75.50395 
L 158.113636 -76.160682 
L 158.747727 -76.827506 
L 159.381818 -77.504491 
L 160.015909 -78.191708 
L 160.65 -78.889224 
L 161.284091 -79.597103 
L 161.918182 -80.31541 
L 162.552273 -81.044207 
L 163.186364 -81.783554 
L 163.820455 -82.533508 
L 164.454545 -83.294126 
L 165.088636 -84.06546 
L 165.722727 -84.847563 
L 166.356818 -85.640484 
L 166.990909 -86.444269 
L 167.625 -87.258962 
L 168.259091 -88.084607 
L 168.893182 -88.921243 
L 169.527273 -89.768905 
L 170.161364 -90.627629 
L 170.795455 -91.497446 
L 171.429545 -92.378385 
L 172.063636 -93.270472 
L 172.697727 -94.17373 
L 173.331818 -95.088178 
L 173.965909 -96.013834 
L 174.6 -96.950712 
L 175.234091 -97.898822 
L 175.868182 -98.858172 
L 176.502273 -99.828767 
L 177.136364 -100.810608 
L 177.770455 -101.803691 
L 178.404545 -102.808011 
L 179.038636 -103.82356 
L 179.672727 -104.850323 
L 180.306818 -105.888284 
L 180.940909 -106.937424 
L 181.575 -107.997718 
L 182.209091 -109.069139 
L 182.843182 -110.151655 
L 183.477273 -111.24523 
L 184.111364 -112.349826 
L 184.745455 -113.4654 
L 185.379545 -114.591903 
L 186.013636 -115.729284 
L 186.647727 -116.877489 
L 187.281818 -118.036457 
L 187.915909 -119.206124 
L 188.55 -120.386423 
L 189.184091 -121.577282 
L 189.818182 -122.778622 
L 190.452273 -123.990364 
L 191.086364 -125.212422 
L 191.720455 -126.444706 
L 192.354545 -127.687122 
L 192.988636 -128.939571 
L 193.622727 -130.20195 
L 194.256818 -131.474151 
L 194.890909 -132.756062 
L 195.525 -134.047566 
L 196.159091 -135.348541 
L 196.793182 -136.658862 
L 197.427273 -137.978397 
L 198.061364 -139.307011 
L 198.695455 -140.644564 
L 199.329545 -141.990912 
L 199.963636 -143.345905 
L 200.597727 -144.709389 
L 201.231818 -146.081205 
L 201.865909 -147.46119 
L 202.5 -148.849175 
L 203.134091 -150.244989 
L 203.768182 -151.648454 
L 204.402273 -153.059388 
L 205.036364 -154.477603 
L 205.670455 -155.90291 
L 206.304545 -157.335111 
L 206.938636 -158.774007 
L 207.572727 -160.219392 
L 208.206818 -161.671057 
L 208.840909 -163.128788 
L 209.475 -164.592366 
L 210.109091 -166.061569 
L 210.743182 -167.536167 
L 211.377273 -169.015931 
L 212.011364 -170.500624 
L 212.645455 -171.990005 
L 213.279545 -173.48383 
L 213.913636 -174.981849 
L 214.547727 -176.483811 
L 215.181818 -177.989457 
L 215.815909 -179.498527 
L 216.45 -181.010756 
L 217.084091 -182.525873 
L 217.718182 -184.043608 
L 218.352273 -185.563683 
L 218.986364 -187.085817 
L 219.620455 -188.609727 
L 220.254545 -190.135125 
L 220.888636 -191.66172 
L 221.522727 -193.189217 
L 222.156818 -194.71732 
L 222.790909 -196.245726 
L 223.425 -197.774132 
L 224.059091 -199.302231 
L 224.693182 -200.829712 
L 225.327273 -202.356263 
L 225.961364 -203.881567 
L 226.595455 -205.405306 
L 227.229545 -206.927159 
L 227.863636 -208.446803 
L 228.497727 -209.963911 
L 229.131818 -211.478156 
L 229.765909 -212.989208 
L 230.4 -214.496733 
L 231.034091 -216.000399 
L 231.668182 -217.499868 
L 232.302273 -218.994803 
L 232.936364 -220.484866 
L 233.570455 -221.969715 
L 234.204545 -223.449009 
L 234.838636 -224.922405 
L 235.472727 -226.389557 
L 236.106818 -227.850122 
L 236.740909 -229.303754 
L 237.375 -230.750105 
L 238.009091 -232.18883 
L 238.643182 -233.61958 
L 239.277273 -235.042008 
L 239.911364 -236.455765 
L 240.545455 -237.860506 
L 241.179545 -239.255881 
L 241.813636 -240.641544 
L 242.447727 -242.017147 
L 243.081818 -243.382345 
L 243.715909 -244.736792 
L 244.35 -246.080143 
L 244.984091 -247.412055 
L 245.618182 -248.732186 
L 246.252273 -250.040194 
L 246.886364 -251.33574 
L 247.520455 -252.618485 
L 248.154545 -253.888093 
L 248.788636 -255.144231 
L 249.422727 -256.386565 
L 250.056818 -257.614765 
L 250.690909 -258.828504 
L 251.325 -260.027456 
L 251.959091 -261.211299 
L 252.593182 -262.379712 
L 253.227273 -263.532379 
L 253.861364 -264.668985 
L 254.495455 -265.789219 
L 255.129545 -266.892775 
L 255.763636 -267.979348 
L 256.397727 -269.048637 
L 257.031818 -270.100347 
L 257.665909 -271.134184 
L 258.3 -272.149859 
L 258.934091 -273.147088 
L 259.568182 -274.125591 
L 260.202273 -275.085092 
L 260.836364 -276.025319 
L 261.470455 -276.946006 
L 262.104545 -277.846892 
L 262.738636 -278.727718 
L 263.372727 -279.588234 
L 264.006818 -280.428192 
L 264.640909 -281.247351 
L 265.275 -282.045476 
L 265.909091 -282.822336 
L 266.543182 -283.577705 
L 267.177273 -284.311365 
L 267.811364 -285.023103 
L 268.445455 -285.712711 
L 269.079545 -286.379988 
L 269.713636 -287.024739 
L 270.347727 -287.646775 
L 270.981818 -288.245913 
L 271.615909 -288.821978 
L 272.25 -289.374799 
L 272.884091 -289.904214 
L 273.518182 -290.410066 
L 274.152273 -290.892205 
L 274.786364 -291.35049 
L 275.420455 -291.784783 
L 276.054545 -292.194956 
L 276.688636 -292.580887 
L 277.322727 -292.942462 
L 277.956818 -293.279571 
L 278.590909 -293.592116 
L 279.225 -293.880003 
L 279.859091 -294.143145 
L 280.493182 -294.381464 
L 281.127273 -294.594889 
L 281.761364 -294.783356 
L 282.395455 -294.946808 
L 283.029545 -295.085197 
L 283.663636 -295.198481 
L 284.297727 -295.286626 
L 284.931818 -295.349605 
L 285.565909 -295.3874 
L 286.2 -295.4 
L 286.834091 -295.3874 
L 287.468182 -295.349605 
L 288.102273 -295.286626 
L 288.736364 -295.198481 
L 289.370455 -295.085197 
L 290.004545 -294.946808 
L 290.638636 -294.783356 
L 291.272727 -294.594889 
L 291.906818 -294.381464 
L 292.540909 -294.143145 
L 293.175 -293.880003 
L 293.809091 -293.592116 
L 294.443182 -293.279571 
L 295.077273 -292.942462 
L 295.711364 -292.580887 
L 296.345455 -292.194956 
L 296.979545 -291.784783 
L 297.613636 -291.35049 
L 298.247727 -290.892205 
L 298.881818 -290.410066 
L 299.515909 -289.904214 
L 300.15 -289.374799 
L 300.784091 -288.821978 
L 301.418182 -288.245913 
L 302.052273 -287.646775 
L 302.686364 -287.024739 
L 303.320455 -286.379988 
L 303.954545 -285.712711 
L 304.588636 -285.023103 
L 305.222727 -284.311365 
L 305.856818 -283.577705 
L 306.490909 -282.822336 
L 307.125 -282.045476 
L 307.759091 -281.247351 
L 308.393182 -280.428192 
L 309.027273 -279.588234 
L 309.661364 -278.727718 
L 310.295455 -277.846892 
L 310.929545 -276.946006 
L 311.563636 -276.025319 
L 312.197727 -275.085092 
L 312.831818 -274.125591 
L 313.465909 -273.147088 
L 314.1 -272.149859 
L 314.734091 -271.134184 
L 315.368182 -270.100347 
L 316.002273 -269.048637 
L 316.636364 -267.979348 
L 317.270455 -266.892775 
L 317.904545 -265.789219 
L 318.538636 -264.668985 
L 319.172727 -263.532379 
L 319.806818 -262.379712 
L 320.440909 -261.211299 
L 321.075 -260.027456 
L 321.709091 -258.828504 
L 322.343182 -257.614765 
L 322.977273 -256.386565 
L 323.611364 -255.144231 
L 324.245455 -253.888093 
L 324.879545 -252.618485 
L 325.513636 -251.33574 
L 326.147727 -250.040194 
L 326.781818 -248.732186 
L 327.415909 -247.412055 
L 328.05 -246.080143 
L 328.684091 -244.736792 
L 329.318182 -243.382345 
L 329.952273 -242.017147 
L 330.586364 -240.641544 
L 331.220455 -239.255881 
L 331.854545 -237.860506 
L 332.488636 -236.455765 
L 333.122727 -235.042008 
L 333.756818 -233.61958 
L 334.390909 -232.18883 
L 335.025 -230.750105 
L 335.659091 -229.303754 
L 336.293182 -227.850122 
L 336.927273 -226.389557 
L 337.561364 -224.922405 
L 338.195455 -223.449009 
L 338.829545 -221.969715 
L 339.463636 -220.484866 
L 340.097727 -218.994803 
L 340.731818 -217.499868 
L 341.365909 -216.000399 
L 342 -214.496733 
L 342.634091 -212.989208 
L 343.268182 -211.478156 
L 343.902273 -209.963911 
L 344.536364 -208.446803 
L 345.170455 -206.927159 
L 345.804545 -205.405306 
L 346.438636 -203.881567 
L 347.072727 -202.356263 
L 347.706818 -200.829712 
L 348.340909 -199.302231 
L 348.975 -197.774132 
L 349.609091 -196.245726 
L 350.243182 -194.71732 
L 350.877273 -193.189217 
L 351.511364 -191.66172 
L 352.145455 -190.135125 
L 352.779545 -188.609727 
L 353.413636 -187.085817 
L 354.047727 -185.563683 
L 354.681818 -184.043608 
L 355.315909 -182.525873 
L 355.95 -181.010756 
L 356.584091 -179.498527 
L 357.218182 -177.989457 
L 357.852273 -176.483811 
L 358.486364 -174.981849 
L 359.120455 -173.48383 
L 359.754545 -171.990005 
L 360.388636 -170.500624 
L 361.022727 -169.015931 
L 361.656818 -167.536167 
L 362.290909 -166.061569 
L 362.925 -164.592366 
L 363.559091 -163.128788 
L 364.193182 -161.671057 
L 364.827273 -160.219392 
L 365.461364 -158.774007 
L 366.095455 -157.335111 
L 366.729545 -155.90291 
L 367.363636 -154.477603 
L 367.997727 -153.059388 
L 368.631818 -151.648454 
L 369.265909 -150.244989 
L 369.9 -148.849175 
L 370.534091 -147.46119 
L 371.168182 -146.081205 
L 371.802273 -144.709389 
L 372.436364 -143.345905 
L 373.070455 -141.990912 
L 373.704545 -140.644564 
L 374.338636 -139.307011 
L 374.972727 -137.978397 
L 375.606818 -136.658862 
L 376.240909 -135.348541 
L 376.875 -134.047566 
L 377.509091 -132.756062 
L 378.143182 -131.474151 
L 378.777273 -130.20195 
L 379.411364 -128.939571 
L 380.045455 -127.687122 
L 380.679545 -126.444706 
L 381.313636 -125.212422 
L 381.947727 -123.990364 
L 382.581818 -122.778622 
L 383.215909 -121.577282 
L 383.85 -120.386423 
L 384.484091 -119.206124 
L 385.118182 -118.036457 
L 385.752273 -116.877489 
L 386.386364 -115.729284 
L 387.020455 -114.591903 
L 387.654545 -113.4654 
L 388.288636 -112.349826 
L 388.922727 -111.24523 
L 389.556818 -110.151655 
L 390.190909 -109.069139 
L 390.825 -107.997718 
L 391.459091 -106.937424 
L 392.093182 -105.888284 
L 392.727273 -104.850323 
L 393.361364 -103.82356 
L 393.995455 -102.808011 
L 394.629545 -101.803691 
L 395.263636 -100.810608 
L 395.897727 -99.828767 
L 396.531818 -98.858172 
L 397.165909 -97.898822 
L 397.8 -96.950712 
L 398.434091 -96.013834 
L 399.068182 -95.088178 
L 399.702273 -94.17373 
L 400.336364 -93.270472 
L 400.970455 -92.378385 
L 401.604545 -91.497446 
L 402.238636 -90.627629 
L 402.872727 -89.768905 
L 403.506818 -88.921243 
L 404.140909 -88.084607 
L 404.775 -87.258962 
L 405.409091 -86.444269 
L 406.043182 -85.640484 
L 406.677273 -84.847563 
L 407.311364 -84.06546 
L 407.945455 -83.294126 
L 408.579545 -82.533508 
L 409.213636 -81.783554 
L 409.847727 -81.044207 
L 410.481818 -80.31541 
L 411.115909 -79.597103 
L 411.75 -78.889224 
L 412.384091 -78.191708 
L 413.018182 -77.504491 
L 413.652273 -76.827506 
L 414.286364 -76.160682 
L 414.920455 -75.50395 
L 415.554545 -74.857238 
L 416.188636 -74.22047 
L 416.822727 -73.593573 
L 417.456818 -72.976469 
L 418.090909 -72.369081 
L 418.725 -71.771329 
L 419.359091 -71.183132 
L 419.993182 -70.60441 
L 420.627273 -70.035078 
L 421.261364 -69.475054 
L 421.895455 -68.924253 
L 422.529545 -68.382588 
L 423.163636 -67.849972 
L 423.797727 -67.32632 
L 424.431818 -66.811541 
L 425.065909 -66.305547 
L 425.7 -65.808248 
L 426.334091 -65.319553 
L 426.968182 -64.839373 
L 427.602273 -64.367615 
L 428.236364 -63.904187 
L 428.870455 -63.448996 
L 429.504545 -63.001951 
L 430.138636 -62.562957 
L 430.772727 -62.131921 
L 431.406818 -61.70875 
L 432.040909 -61.293349 
L 432.675 -60.885625 
L 433.309091 -60.485482 
L 433.943182 -60.092827 
L 434.577273 -59.707565 
L 435.211364 -59.329601 
L 435.845455 -58.958842 
L 436.479545 -58.595192 
L 437.113636 -58.238558 
L 437.747727 -57.888846 
L 438.381818 -57.54596 
L 439.015909 -57.209808 
L 439.65 -56.880296 
L 440.284091 -56.557331 
L 440.918182 -56.240819 
L 441.552273 -55.930668 
L 442.186364 -55.626786 
L 442.820455 -55.32908 
L 443.454545 -55.037459 
L 444.088636 -54.751831 
L 444.722727 -54.472107 
L 445.356818 -54.198196 
L 445.990909 -53.930008 
L 446.625 -53.667454 
L 447.259091 -53.410445 
L 447.893182 -53.158894 
L 448.527273 -52.912713 
L 449.161364 -52.671814 
L 449.795455 -52.436113 
L 450.429545 -52.205523 
L 451.063636 -51.979959 
L 451.697727 -51.759337 
L 452.331818 -51.543573 
L 452.965909 -51.332586 
L 453.6 -51.126292 
L 454.234091 -50.924611 
L 454.868182 -50.727461 
L 455.502273 -50.534763 
L 456.136364 -50.346439 
L 456.770455 -50.162408 
L 457.404545 -49.982595 
L 458.038636 -49.806923 
L 458.672727 -49.635315 
L 459.306818 -49.467697 
L 459.940909 -49.303994 
L 460.575 -49.144134 
L 461.209091 -48.988043 
L 461.843182 -48.83565 
L 462.477273 -48.686884 
L 463.111364 -48.541676 
L 463.745455 -48.399956 
L 464.379545 -48.261656 
L 465.013636 -48.126709 
L 465.647727 -47.995047 
L 466.281818 -47.866607 
L 466.915909 -47.741323 
L 467.55 -47.619131 
L 468.184091 -47.499968 
L 468.818182 -47.383772 
L 469.452273 -47.270482 
L 470.086364 -47.160038 
L 470.720455 -47.05238 
L 471.354545 -46.94745 
L 471.988636 -46.84519 
L 472.622727 -46.745543 
L 473.256818 -46.648454 
L 473.890909 -46.553866 
L 474.525 -46.461727 
L 475.159091 -46.371982 
L 475.793182 -46.284579 
L 476.427273 -46.199467 
L 477.061364 -46.116595 
L 477.695455 -46.035912 
L 478.329545 -45.957369 
L 478.963636 -45.880919 
L 479.597727 -45.806514 
L 480.231818 -45.734106 
L 480.865909 -45.663651 
L 481.5 -45.595103 
L 482.134091 -45.528418 
L 482.768182 -45.463553 
L 483.402273 -45.400464 
L 484.036364 -45.33911 
L 484.670455 -45.27945 
L 485.304545 -45.221443 
L 485.938636 -45.16505 
L 486.572727 -45.110232 
L 487.206818 -45.056951 
L 487.840909 -45.005169 
L 488.475 -44.95485 
L 489.109091 -44.905958 
L 489.743182 -44.858457 
L 490.377273 -44.812313 
L 491.011364 -44.767493 
L 491.645455 -44.723962 
L 492.279545 -44.681689 
L 492.913636 -44.640642 
L 493.547727 -44.600789 
L 494.181818 -44.5621 
L 494.815909 -44.524546 
L 495.45 -44.488096 
L 496.084091 -44.452722 
L 496.718182 -44.418396 
L 497.352273 -44.385091 
L 497.986364 -44.35278 
L 498.620455 -44.321437 
L 499.254545 -44.291036 
L 499.888636 -44.261551 
L 500.522727 -44.232959 
L 501.156818 -44.205235 
L 501.790909 -44.178356 
L 502.425 -44.152299 
L 503.059091 -44.127042 
L 503.693182 -44.102563 
L 504.327273 -44.078839 
L 504.961364 -44.055851 
L 505.595455 -44.033579 
L 506.229545 -44.012001 
L 506.863636 -43.9911 
L 507.497727 -43.970855 
L 508.131818 -43.951248 
L 508.765909 -43.932261 
L 509.4 -43.913877 
L 510.034091 -43.896079 
L 510.668182 -43.878849 
L 511.302273 -43.862171 
L 511.936364 -43.846029 
L 512.570455 -43.830408 
L 513.204545 -43.815293 
L 513.838636 -43.800668 
L 514.472727 -43.78652 
L 515.106818 -43.772834 
L 515.740909 -43.759597 
L 516.375 -43.746795 
L 517.009091 -43.734416 
L 517.643182 -43.722446 
L 518.277273 -43.710873 
L 518.911364 -43.699686 
L 519.545455 -43.688872 
L 520.179545 -43.678421 
L 520.813636 -43.668321 
L 521.447727 -43.658562 
L 522.081818 -43.649132 
L 522.715909 -43.640023 
L 523.35 -43.631223 
L 523.984091 -43.622724 
L 524.618182 -43.614516 
L 525.252273 -43.60659 
L 525.886364 -43.598936 
L 526.520455 -43.591547 
L 527.154545 -43.584414 
L 527.788636 -43.577529 
L 528.422727 -43.570884 
L 529.056818 -43.564471 
L 529.690909 -43.558283 
L 530.325 -43.552313 
L 530.959091 -43.546553 
L 531.593182 -43.540996 
L 532.227273 -43.535637 
L 532.861364 -43.530469 
L 533.495455 -43.525485 
L 534.129545 -43.520679 
L 534.763636 -43.516046 
L 535.397727 -43.511579 
L 536.031818 -43.507274 
L 536.665909 -43.503124 
L 537.3 -43.499125 
L 537.934091 -43.495272 
L 538.568182 -43.491559 
L 539.202273 -43.487982 
L 539.836364 -43.484537 
L 539.836364 -43.4 
L 539.836364 -43.4 
L 539.202273 -43.4 
L 538.568182 -43.4 
L 537.934091 -43.4 
L 537.3 -43.4 
L 536.665909 -43.4 
L 536.031818 -43.4 
L 535.397727 -43.4 
L 534.763636 -43.4 
L 534.129545 -43.4 
L 533.495455 -43.4 
L 532.861364 -43.4 
L 532.227273 -43.4 
L 531.593182 -43.4 
L 530.959091 -43.4 
L 530.325 -43.4 
L 529.690909 -43.4 
L 529.056818 -43.4 
L 528.422727 -43.4 
L 527.788636 -43.4 
L 527.154545 -43.4 
L 526.520455 -43.4 
L 525.886364 -43.4 
L 525.252273 -43.4 
L 524.618182 -43.4 
L 523.984091 -43.4 
L 523.35 -43.4 
L 522.715909 -43.4 
L 522.081818 -43.4 
L 521.447727 -43.4 
L 520.813636 -43.4 
L 520.179545 -43.4 
L 519.545455 -43.4 
L 518.911364 -43.4 
L 518.277273 -43.4 
L 517.643182 -43.4 
L 517.009091 -43.4 
L 516.375 -43.4 
L 515.740909 -43.4 
L 515.106818 -43.4 
L 514.472727 -43.4 
L 513.838636 -43.4 
L 513.204545 -43.4 
L 512.570455 -43.4 
L 511.936364 -43.4 
L 511.302273 -43.4 
L 510.668182 -43.4 
L 510.034091 -43.4 
L 509.4 -43.4 
L 508.765909 -43.4 
L 508.131818 -43.4 
L 507.497727 -43.4 
L 506.863636 -43.4 
L 506.229545 -43.4 
L 505.595455 -43.4 
L 504.961364 -43.4 
L 504.327273 -43.4 
L 503.693182 -43.4 
L 503.059091 -43.4 
L 502.425 -43.4 
L 501.790909 -43.4 
L 501.156818 -43.4 
L 500.522727 -43.4 
L 499.888636 -43.4 
L 499.254545 -43.4 
L 498.620455 -43.4 
L 497.986364 -43.4 
L 497.352273 -43.4 
L 496.718182 -43.4 
L 496.084091 -43.4 
L 495.45 -43.4 
L 494.815909 -43.4 
L 494.181818 -43.4 
L 493.547727 -43.4 
L 492.913636 -43.4 
L 492.279545 -43.4 
L 491.645455 -43.4 
L 491.011364 -43.4 
L 490.377273 -43.4 
L 489.743182 -43.4 
L 489.109091 -43.4 
L 488.475 -43.4 
L 487.840909 -43.4 
L 487.206818 -43.4 
L 486.572727 -43.4 
L 485.938636 -43.4 
L 485.304545 -43.4 
L 484.670455 -43.4 
L 484.036364 -43.4 
L 483.402273 -43.4 
L 482.768182 -43.4 
L 482.134091 -43.4 
L 481.5 -43.4 
L 480.865909 -43.4 
L 480.231818 -43.4 
L 479.597727 -43.4 
L 478.963636 -43.4 
L 478.329545 -43.4 
L 477.695455 -43.4 
L 477.061364 -43.4 
L 476.427273 -43.4 
L 475.793182 -43.4 
L 475.159091 -43.4 
L 474.525 -43.4 
L 473.890909 -43.4 
L 473.256818 -43.4 
L 472.622727 -43.4 
L 471.988636 -43.4 
L 471.354545 -43.4 
L 470.720455 -43.4 
L 470.086364 -43.4 
L 469.452273 -43.4 
L 468.818182 -43.4 
L 468.184091 -43.4 
L 467.55 -43.4 
L 466.915909 -43.4 
L 466.281818 -43.4 
L 465.647727 -43.4 
L 465.013636 -43.4 
L 464.379545 -43.4 
L 463.745455 -43.4 
L 463.111364 -43.4 
L 462.477273 -43.4 
L 461.843182 -43.4 
L 461.209091 -43.4 
L 460.575 -43.4 
L 459.940909 -43.4 
L 459.306818 -43.4 
L 458.672727 -43.4 
L 458.038636 -43.4 
L 457.404545 -43.4 
L 456.770455 -43.4 
L 456.136364 -43.4 
L 455.502273 -43.4 
L 454.868182 -43.4 
L 454.234091 -43.4 
L 453.6 -43.4 
L 452.965909 -43.4 
L 452.331818 -43.4 
L 451.697727 -43.4 
L 451.063636 -43.4 
L 450.429545 -43.4 
L 449.795455 -43.4 
L 449.161364 -43.4 
L 448.527273 -43.4 
L 447.893182 -43.4 
L 447.259091 -43.4 
L 446.625 -43.4 
L 445.990909 -43.4 
L 445.356818 -43.4 
L 444.722727 -43.4 
L 444.088636 -43.4 
L 443.454545 -43.4 
L 442.820455 -43.4 
L 442.186364 -43.4 
L 441.552273 -43.4 
L 440.918182 -43.4 
L 440.284091 -43.4 
L 439.65 -43.4 
L 439.015909 -43.4 
L 438.381818 -43.4 
L 437.747727 -43.4 
L 437.113636 -43.4 
L 436.479545 -43.4 
L 435.845455 -43.4 
L 435.211364 -43.4 
L 434.577273 -43.4 
L 433.943182 -43.4 
L 433.309091 -43.4 
L 432.675 -43.4 
L 432.040909 -43.4 
L 431.406818 -43.4 
L 430.772727 -43.4 
L 430.138636 -43.4 
L 429.504545 -43.4 
L 428.870455 -43.4 
L 428.236364 -43.4 
L 427.602273 -43.4 
L 426.968182 -43.4 
L 426.334091 -43.4 
L 425.7 -43.4 
L 425.065909 -43.4 
L 424.431818 -43.4 
L 423.797727 -43.4 
L 423.163636 -43.4 
L 422.529545 -43.4 
L 421.895455 -43.4 
L 421.261364 -43.4 
L 420.627273 -43.4 
L 419.993182 -43.4 
L 419.359091 -43.4 
L 418.725 -43.4 
L 418.090909 -43.4 
L 417.456818 -43.4 
L 416.822727 -43.4 
L 416.188636 -43.4 
L 415.554545 -43.4 
L 414.920455 -43.4 
L 414.286364 -43.4 
L 413.652273 -43.4 
L 413.018182 -43.4 
L 412.384091 -43.4 
L 411.75 -43.4 
L 411.115909 -43.4 
L 410.481818 -43.4 
L 409.847727 -43.4 
L 409.213636 -43.4 
L 408.579545 -43.4 
L 407.945455 -43.4 
L 407.311364 -43.4 
L 406.677273 -43.4 
L 406.043182 -43.4 
L 405.409091 -43.4 
L 404.775 -43.4 
L 404.140909 -43.4 
L 403.506818 -43.4 
L 402.872727 -43.4 
L 402.238636 -43.4 
L 401.604545 -43.4 
L 400.970455 -43.4 
L 400.336364 -43.4 
L 399.702273 -43.4 
L 399.068182 -43.4 
L 398.434091 -43.4 
L 397.8 -43.4 
L 397.165909 -43.4 
L 396.531818 -43.4 
L 395.897727 -43.4 
L 395.263636 -43.4 
L 394.629545 -43.4 
L 393.995455 -43.4 
L 393.361364 -43.4 
L 392.727273 -43.4 
L 392.093182 -43.4 
L 391.459091 -43.4 
L 390.825 -43.4 
L 390.190909 -43.4 
L 389.556818 -43.4 
L 388.922727 -43.4 
L 388.288636 -43.4 
L 387.654545 -43.4 
L 387.020455 -43.4 
L 386.386364 -43.4 
L 385.752273 -43.4 
L 385.118182 -43.4 
L 384.484091 -43.4 
L 383.85 -43.4 
L 383.215909 -43.4 
L 382.581818 -43.4 
L 381.947727 -43.4 
L 381.313636 -43.4 
L 380.679545 -43.4 
L 380.045455 -43.4 
L 379.411364 -43.4 
L 378.777273 -43.4 
L 378.143182 -43.4 
L 377.509091 -43.4 
L 376.875 -43.4 
L 376.240909 -43.4 
L 375.606818 -43.4 
L 374.972727 -43.4 
L 374.338636 -43.4 
L 373.704545 -43.4 
L 373.070455 -43.4 
L 372.436364 -43.4 
L 371.802273 -43.4 
L 371.168182 -43.4 
L 370.534091 -43.4 
L 369.9 -43.4 
L 369.265909 -43.4 
L 368.631818 -43.4 
L 367.997727 -43.4 
L 367.363636 -43.4 
L 366.729545 -43.4 
L 366.095455 -43.4 
L 365.461364 -43.4 
L 364.827273 -43.4 
L 364.193182 -43.4 
L 363.559091 -43.4 
L 362.925 -43.4 
L 362.290909 -43.4 
L 361.656818 -43.4 
L 361.022727 -43.4 
L 360.388636 -43.4 
L 359.754545 -43.4 
L 359.120455 -43.4 
L 358.486364 -43.4 
L 357.852273 -43.4 
L 357.218182 -43.4 
L 356.584091 -43.4 
L 355.95 -43.4 
L 355.315909 -43.4 
L 354.681818 -43.4 
L 354.047727 -43.4 
L 353.413636 -43.4 
L 352.779545 -43.4 
L 352.145455 -43.4 
L 351.511364 -43.4 
L 350.877273 -43.4 
L 350.243182 -43.4 
L 349.609091 -43.4 
L 348.975 -43.4 
L 348.340909 -43.4 
L 347.706818 -43.4 
L 347.072727 -43.4 
L 346.438636 -43.4 
L 345.804545 -43.4 
L 345.170455 -43.4 
L 344.536364 -43.4 
L 343.902273 -43.4 
L 343.268182 -43.4 
L 342.634091 -43.4 
L 342 -43.4 
L 341.365909 -43.4 
L 340.731818 -43.4 
L 340.097727 -43.4 
L 339.463636 -43.4 
L 338.829545 -43.4 
L 338.195455 -43.4 
L 337.561364 -43.4 
L 336.927273 -43.4 
L 336.293182 -43.4 
L 335.659091 -43.4 
L 335.025 -43.4 
L 334.390909 -43.4 
L 333.756818 -43.4 
L 333.122727 -43.4 
L 332.488636 -43.4 
L 331.854545 -43.4 
L 331.220455 -43.4 
L 330.586364 -43.4 
L 329.952273 -43.4 
L 329.318182 -43.4 
L 328.684091 -43.4 
L 328.05 -43.4 
L 327.415909 -43.4 
L 326.781818 -43.4 
L 326.147727 -43.4 
L 325.513636 -43.4 
L 324.879545 -43.4 
L 324.245455 -43.4 
L 323.611364 -43.4 
L 322.977273 -43.4 
L 322.343182 -43.4 
L 321.709091 -43.4 
L 321.075 -43.4 
L 320.440909 -43.4 
L 319.806818 -43.4 
L 319.172727 -43.4 
L 318.538636 -43.4 
L 317.904545 -43.4 
L 317.270455 -43.4 
L 316.636364 -43.4 
L 316.002273 -43.4 
L 315.368182 -43.4 
L 314.734091 -43.4 
L 314.1 -43.4 
L 313.465909 -43.4 
L 312.831818 -43.4 
L 312.197727 -43.4 
L 311.563636 -43.4 
L 310.929545 -43.4 
L 310.295455 -43.4 
L 309.661364 -43.4 
L 309.027273 -43.4 
L 308.393182 -43.4 
L 307.759091 -43.4 
L 307.125 -43.4 
L 306.490909 -43.4 
L 305.856818 -43.4 
L 305.222727 -43.4 
L 304.588636 -43.4 
L 303.954545 -43.4 
L 303.320455 -43.4 
L 302.686364 -43.4 
L 302.052273 -43.4 
L 301.418182 -43.4 
L 300.784091 -43.4 
L 300.15 -43.4 
L 299.515909 -43.4 
L 298.881818 -43.4 
L 298.247727 -43.4 
L 297.613636 -43.4 
L 296.979545 -43.4 
L 296.345455 -43.4 
L 295.711364 -43.4 
L 295.077273 -43.4 
L 294.443182 -43.4 
L 293.809091 -43.4 
L 293.175 -43.4 
L 292.540909 -43.4 
L 291.906818 -43.4 
L 291.272727 -43.4 
L 290.638636 -43.4 
L 290.004545 -43.4 
L 289.370455 -43.4 
L 288.736364 -43.4 
L 288.102273 -43.4 
L 287.468182 -43.4 
L 286.834091 -43.4 
L 286.2 -43.4 
L 285.565909 -43.4 
L 284.931818 -43.4 
L 284.297727 -43.4 
L 283.663636 -43.4 
L 283.029545 -43.4 
L 282.395455 -43.4 
L 281.761364 -43.4 
L 281.127273 -43.4 
L 280.493182 -43.4 
L 279.859091 -43.4 
L 279.225 -43.4 
L 278.590909 -43.4 
L 277.956818 -43.4 
L 277.322727 -43.4 
L 276.688636 -43.4 
L 276.054545 -43.4 
L 275.420455 -43.4 
L 274.786364 -43.4 
L 274.152273 -43.4 
L 273.518182 -43.4 
L 272.884091 -43.4 
L 272.25 -43.4 
L 271.615909 -43.4 
L 270.981818 -43.4 
L 270.347727 -43.4 
L 269.713636 -43.4 
L 269.079545 -43.4 
L 268.445455 -43.4 
L 267.811364 -43.4 
L 267.177273 -43.4 
L 266.543182 -43.4 
L 265.909091 -43.4 
L 265.275 -43.4 
L 264.640909 -43.4 
L 264.006818 -43.4 
L 263.372727 -43.4 
L 262.738636 -43.4 
L 262.104545 -43.4 
L 261.470455 -43.4 
L 260.836364 -43.4 
L 260.202273 -43.4 
L 259.568182 -43.4 
L 258.934091 -43.4 
L 258.3 -43.4 
L 257.665909 -43.4 
L 257.031818 -43.4 
L 256.397727 -43.4 
L 255.763636 -43.4 
L 255.129545 -43.4 
L 254.495455 -43.4 
L 253.861364 -43.4 
L 253.227273 -43.4 
L 252.593182 -43.4 
L 251.959091 -43.4 
L 251.325 -43.4 
L 250.690909 -43.4 
L 250.056818 -43.4 
L 249.422727 -43.4 
L 248.788636 -43.4 
L 248.154545 -43.4 
L 247.520455 -43.4 
L 246.886364 -43.4 
L 246.252273 -43.4 
L 245.618182 -43.4 
L 244.984091 -43.4 
L 244.35 -43.4 
L 243.715909 -43.4 
L 243.081818 -43.4 
L 242.447727 -43.4 
L 241.813636 -43.4 
L 241.179545 -43.4 
L 240.545455 -43.4 
L 239.911364 -43.4 
L 239.277273 -43.4 
L 238.643182 -43.4 
L 238.009091 -43.4 
L 237.375 -43.4 
L 236.740909 -43.4 
L 236.106818 -43.4 
L 235.472727 -43.4 
L 234.838636 -43.4 
L 234.204545 -43.4 
L 233.570455 -43.4 
L 232.936364 -43.4 
L 232.302273 -43.4 
L 231.668182 -43.4 
L 231.034091 -43.4 
L 230.4 -43.4 
L 229.765909 -43.4 
L 229.131818 -43.4 
L 228.497727 -43.4 
L 227.863636 -43.4 
L 227.229545 -43.4 
L 226.595455 -43.4 
L 225.961364 -43.4 
L 225.327273 -43.4 
L 224.693182 -43.4 
L 224.059091 -43.4 
L 223.425 -43.4 
L 222.790909 -43.4 
L 222.156818 -43.4 
L 221.522727 -43.4 
L 220.888636 -43.4 
L 220.254545 -43.4 
L 219.620455 -43.4 
L 218.986364 -43.4 
L 218.352273 -43.4 
L 217.718182 -43.4 
L 217.084091 -43.4 
L 216.45 -43.4 
L 215.815909 -43.4 
L 215.181818 -43.4 
L 214.547727 -43.4 
L 213.913636 -43.4 
L 213.279545 -43.4 
L 212.645455 -43.4 
L 212.011364 -43.4 
L 211.377273 -43.4 
L 210.743182 -43.4 
L 210.109091 -43.4 
L 209.475 -43.4 
L 208.840909 -43.4 
L 208.206818 -43.4 
L 207.572727 -43.4 
L 206.938636 -43.4 
L 206.304545 -43.4 
L 205.670455 -43.4 
L 205.036364 -43.4 
L 204.402273 -43.4 
L 203.768182 -43.4 
L 203.134091 -43.4 
L 202.5 -43.4 
L 201.865909 -43.4 
L 201.231818 -43.4 
L 200.597727 -43.4 
L 199.963636 -43.4 
L 199.329545 -43.4 
L 198.695455 -43.4 
L 198.061364 -43.4 
L 197.427273 -43.4 
L 196.793182 -43.4 
L 196.159091 -43.4 
L 195.525 -43.4 
L 194.890909 -43.4 
L 194.256818 -43.4 
L 193.622727 -43.4 
L 192.988636 -43.4 
L 192.354545 -43.4 
L 191.720455 -43.4 
L 191.086364 -43.4 
L 190.452273 -43.4 
L 189.818182 -43.4 
L 189.184091 -43.4 
L 188.55 -43.4 
L 187.915909 -43.4 
L 187.281818 -43.4 
L 186.647727 -43.4 
L 186.013636 -43.4 
L 185.379545 -43.4 
L 184.745455 -43.4 
L 184.111364 -43.4 
L 183.477273 -43.4 
L 182.843182 -43.4 
L 182.209091 -43.4 
L 181.575 -43.4 
L 180.940909 -43.4 
L 180.306818 -43.4 
L 179.672727 -43.4 
L 179.038636 -43.4 
L 178.404545 -43.4 
L 177.770455 -43.4 
L 177.136364 -43.4 
L 176.502273 -43.4 
L 175.868182 -43.4 
L 175.234091 -43.4 
L 174.6 -43.4 
L 173.965909 -43.4 
L 173.331818 -43.4 
L 172.697727 -43.4 
L 172.063636 -43.4 
L 171.429545 -43.4 
L 170.795455 -43.4 
L 170.161364 -43.4 
L 169.527273 -43.4 
L 168.893182 -43.4 
L 168.259091 -43.4 
L 167.625 -43.4 
L 166.990909 -43.4 
L 166.356818 -43.4 
L 165.722727 -43.4 
L 165.088636 -43.4 
L 164.454545 -43.4 
L 163.820455 -43.4 
L 163.186364 -43.4 
L 162.552273 -43.4 
L 161.918182 -43.4 
L 161.284091 -43.4 
L 160.65 -43.4 
L 160.015909 -43.4 
L 159.381818 -43.4 
L 158.747727 -43.4 
L 158.113636 -43.4 
L 157.479545 -43.4 
L 156.845455 -43.4 
L 156.211364 -43.4 
L 155.577273 -43.4 
L 154.943182 -43.4 
L 154.309091 -43.4 
L 153.675 -43.4 
L 153.040909 -43.4 
L 152.406818 -43.4 
L 151.772727 -43.4 
L 151.138636 -43.4 
L 150.504545 -43.4 
L 149.870455 -43.4 
L 149.236364 -43.4 
L 148.602273 -43.4 
L 147.968182 -43.4 
L 147.334091 -43.4 
L 146.7 -43.4 
L 146.065909 -43.4 
L 145.431818 -43.4 
L 144.797727 -43.4 
L 144.163636 -43.4 
L 143.529545 -43.4 
L 142.895455 -43.4 
L 142.261364 -43.4 
L 141.627273 -43.4 
L 140.993182 -43.4 
L 140.359091 -43.4 
L 139.725 -43.4 
L 139.090909 -43.4 
L 138.456818 -43.4 
L 137.822727 -43.4 
L 137.188636 -43.4 
L 136.554545 -43.4 
L 135.920455 -43.4 
L 135.286364 -43.4 
L 134.652273 -43.4 
L 134.018182 -43.4 
L 133.384091 -43.4 
L 132.75 -43.4 
L 132.115909 -43.4 
L 131.481818 -43.4 
L 130.847727 -43.4 
L 130.213636 -43.4 
L 129.579545 -43.4 
L 128.945455 -43.4 
L 128.311364 -43.4 
L 127.677273 -43.4 
L 127.043182 -43.4 
L 126.409091 -43.4 
L 125.775 -43.4 
L 125.140909 -43.4 
L 124.506818 -43.4 
L 123.872727 -43.4 
L 123.238636 -43.4 
L 122.604545 -43.4 
L 121.970455 -43.4 
L 121.336364 -43.4 
L 120.702273 -43.4 
L 120.068182 -43.4 
L 119.434091 -43.4 
L 118.8 -43.4 
L 118.165909 -43.4 
L 117.531818 -43.4 
L 116.897727 -43.4 
L 116.263636 -43.4 
L 115.629545 -43.4 
L 114.995455 -43.4 
L 114.361364 -43.4 
L 113.727273 -43.4 
L 113.093182 -43.4 
L 112.459091 -43.4 
L 111.825 -43.4 
L 111.190909 -43.4 
L 110.556818 -43.4 
L 109.922727 -43.4 
L 109.288636 -43.4 
L 108.654545 -43.4 
L 108.020455 -43.4 
L 107.386364 -43.4 
L 106.752273 -43.4 
L 106.118182 -43.4 
L 105.484091 -43.4 
L 104.85 -43.4 
L 104.215909 -43.4 
L 103.581818 -43.4 
L 102.947727 -43.4 
L 102.313636 -43.4 
L 101.679545 -43.4 
L 101.045455 -43.4 
L 100.411364 -43.4 
L 99.777273 -43.4 
L 99.143182 -43.4 
L 98.509091 -43.4 
L 97.875 -43.4 
L 97.240909 -43.4 
L 96.606818 -43.4 
L 95.972727 -43.4 
L 95.338636 -43.4 
L 94.704545 -43.4 
L 94.070455 -43.4 
L 93.436364 -43.4 
L 92.802273 -43.4 
L 92.168182 -43.4 
L 91.534091 -43.4 
L 90.9 -43.4 
L 90.265909 -43.4 
L 89.631818 -43.4 
L 88.997727 -43.4 
L 88.363636 -43.4 
L 87.729545 -43.4 
L 87.095455 -43.4 
L 86.461364 -43.4 
L 85.827273 -43.4 
L 85.193182 -43.4 
L 84.559091 -43.4 
L 83.925 -43.4 
L 83.290909 -43.4 
L 82.656818 -43.4 
L 82.022727 -43.4 
L 81.388636 -43.4 
L 80.754545 -43.4 
L 80.120455 -43.4 
L 79.486364 -43.4 
L 78.852273 -43.4 
L 78.218182 -43.4 
L 77.584091 -43.4 
L 76.95 -43.4 
L 76.315909 -43.4 
L 75.681818 -43.4 
L 75.047727 -43.4 
L 74.413636 -43.4 
L 73.779545 -43.4 
L 73.145455 -43.4 
L 72.511364 -43.4 
L 71.877273 -43.4 
L 71.243182 -43.4 
L 70.609091 -43.4 
L 69.975 -43.4 
L 69.340909 -43.4 
L 68.706818 -43.4 
L 68.072727 -43.4 
L 67.438636 -43.4 
L 66.804545 -43.4 
L 66.170455 -43.4 
L 65.536364 -43.4 
L 64.902273 -43.4 
L 64.268182 -43.4 
L 63.634091 -43.4 
L 63 -43.4 
L 62.365909 -43.4 
L 61.731818 -43.4 
L 61.097727 -43.4 
L 60.463636 -43.4 
L 59.829545 -43.4 
L 59.195455 -43.4 
L 58.561364 -43.4 
L 57.927273 -43.4 
L 57.293182 -43.4 
L 56.659091 -43.4 
L 56.025 -43.4 
L 55.390909 -43.4 
L 54.756818 -43.4 
L 54.122727 -43.4 
L 53.488636 -43.4 
L 52.854545 -43.4 
L 52.220455 -43.4 
L 51.586364 -43.4 
L 50.952273 -43.4 
L 50.318182 -43.4 
L 49.684091 -43.4 
L 49.05 -43.4 
L 48.415909 -43.4 
L 47.781818 -43.4 
L 47.147727 -43.4 
L 46.513636 -43.4 
L 45.879545 -43.4 
L 45.245455 -43.4 
L 44.611364 -43.4 
L 43.977273 -43.4 
L 43.343182 -43.4 
L 42.709091 -43.4 
L 42.075 -43.4 
L 41.440909 -43.4 
L 40.806818 -43.4 
L 40.172727 -43.4 
L 39.538636 -43.4 
L 38.904545 -43.4 
L 38.270455 -43.4 
L 37.636364 -43.4 
L 37.002273 -43.4 
L 36.368182 -43.4 
L 35.734091 -43.4 
L 35.1 -43.4 
L 34.465909 -43.4 
L 33.831818 -43.4 
L 33.197727 -43.4 
L 32.563636 -43.4 
z
" style="stroke: #e64173; stroke-opacity: 0.9"/>
    </defs>
    <g clip-path="url(#p68f959f2dd)">
     <use xlink:href="#ma1bfb611e3" x="0" y="315.2" style="fill: #e64173; fill-opacity: 0.9; stroke: #e64173; stroke-opacity: 0.9"/>
    </g>
   </g>
   <g id="line2d_1">
    <path d="M 286.2 284.4 
L 286.2 7.2 
" clip-path="url(#p68f959f2dd)" style="fill: none; stroke-dasharray: 3.7,1.6; stroke-dashoffset: 0; stroke: #000000"/>
   </g>
  </g>
 </g>
 <defs>
  <clipPath id="p68f959f2dd">
   <rect x="7.2" y="7.2" width="558" height="277.2"/>
  </clipPath>
 </defs>
</svg>
