<?xml version="1.0" encoding="utf-8" standalone="no"?>
<!DOCTYPE svg PUBLIC "-//W3C//DTD SVG 1.1//EN"
  "http://www.w3.org/Graphics/SVG/1.1/DTD/svg11.dtd">
<svg xmlns:xlink="http://www.w3.org/1999/xlink" width="872.39952pt" height="296.39952pt" viewBox="0 0 872.39952 296.39952" xmlns="http://www.w3.org/2000/svg" version="1.1">
 <metadata>
  <rdf:RDF xmlns:dc="http://purl.org/dc/elements/1.1/" xmlns:cc="http://creativecommons.org/ns#" xmlns:rdf="http://www.w3.org/1999/02/22-rdf-syntax-ns#">
   <cc:Work>
    <dc:type rdf:resource="http://purl.org/dc/dcmitype/StillImage"/>
    <dc:date>2026-09-20T15:37:27.004504</dc:date>
    <dc:format>image/svg+xml</dc:format>
    <dc:creator>
     <cc:Agent>
      <dc:title>Matplotlib v3.10.8, https://matplotlib.org/</dc:title>
     </cc:Agent>
    </dc:creator>
   </cc:Work>
  </rdf:RDF>
 </metadata>
 <defs>
  <style type="text/css">*{stroke-linejoin: round; stroke-linecap: butt}</style>
 </defs>
 <g id="figure_1">
  <g id="patch_1">
   <path d="M 0 296.39952 
L 872.39952 296.39952 
L 872.39952 0 
L 0 0 
z
" style="fill: #ffffff"/>
  </g>
  <g id="axes_1">
   <g id="patch_2">
    <path d="M 37.594062 260.823426 
L 309.462228 260.823426 
L 309.462228 39.197355 
L 37.594062 39.197355 
z
" style="fill: #e5e5e5"/>
   </g>
   <g id="matplotlib.axis_1">
    <g id="xtick_1">
     <g id="line2d_1">
      <path d="M 74.965099 260.823426 
L 74.965099 39.197355 
" clip-path="url(#p7801a48085)" style="fill: none; stroke: #ffffff; stroke-width: 0.8; stroke-linecap: round"/>
     </g>
     <g id="text_1">
      <!-- 2000 -->
      <g style="fill: #555555" transform="translate(64.955412 274.265457) scale(0.09 -0.09)">
       <defs>
        <path id="ArialMT-32" d="M 3222 541 
L 3222 0 
L 194 0 
Q 188 203 259 391 
Q 375 700 629 1000 
Q 884 1300 1366 1694 
Q 2113 2306 2375 2664 
Q 2638 3022 2638 3341 
Q 2638 3675 2398 3904 
Q 2159 4134 1775 4134 
Q 1369 4134 1125 3890 
Q 881 3647 878 3216 
L 300 3275 
Q 359 3922 746 4261 
Q 1134 4600 1788 4600 
Q 2447 4600 2831 4234 
Q 3216 3869 3216 3328 
Q 3216 3053 3103 2787 
Q 2991 2522 2730 2228 
Q 2469 1934 1863 1422 
Q 1356 997 1212 845 
Q 1069 694 975 541 
L 3222 541 
z
" transform="scale(0.015625)"/>
        <path id="ArialMT-30" d="M 266 2259 
Q 266 3072 433 3567 
Q 600 4063 929 4331 
Q 1259 4600 1759 4600 
Q 2128 4600 2406 4451 
Q 2684 4303 2865 4023 
Q 3047 3744 3150 3342 
Q 3253 2941 3253 2259 
Q 3253 1453 3087 958 
Q 2922 463 2592 192 
Q 2263 -78 1759 -78 
Q 1097 -78 719 397 
Q 266 969 266 2259 
z
M 844 2259 
Q 844 1131 1108 757 
Q 1372 384 1759 384 
Q 2147 384 2411 759 
Q 2675 1134 2675 2259 
Q 2675 3391 2411 3762 
Q 2147 4134 1753 4134 
Q 1366 4134 1134 3806 
Q 844 3388 844 2259 
z
" transform="scale(0.015625)"/>
       </defs>
       <use xlink:href="#ArialMT-32"/>
       <use xlink:href="#ArialMT-30" transform="translate(55.615234 0)"/>
       <use xlink:href="#ArialMT-30" transform="translate(111.230469 0)"/>
       <use xlink:href="#ArialMT-30" transform="translate(166.845703 0)"/>
      </g>
     </g>
    </g>
    <g id="xtick_2">
     <g id="line2d_2">
      <path d="M 125.026149 260.823426 
L 125.026149 39.197355 
" clip-path="url(#p7801a48085)" style="fill: none; stroke: #ffffff; stroke-width: 0.8; stroke-linecap: round"/>
     </g>
     <g id="text_2">
      <!-- 2004 -->
      <g style="fill: #555555" transform="translate(115.016462 274.265457) scale(0.09 -0.09)">
       <defs>
        <path id="ArialMT-34" d="M 2069 0 
L 2069 1097 
L 81 1097 
L 81 1613 
L 2172 4581 
L 2631 4581 
L 2631 1613 
L 3250 1613 
L 3250 1097 
L 2631 1097 
L 2631 0 
L 2069 0 
z
M 2069 1613 
L 2069 3678 
L 634 1613 
L 2069 1613 
z
" transform="scale(0.015625)"/>
       </defs>
       <use xlink:href="#ArialMT-32"/>
       <use xlink:href="#ArialMT-30" transform="translate(55.615234 0)"/>
       <use xlink:href="#ArialMT-30" transform="translate(111.230469 0)"/>
       <use xlink:href="#ArialMT-34" transform="translate(166.845703 0)"/>
      </g>
     </g>
    </g>
    <g id="xtick_3">
     <g id="line2d_3">
      <path d="M 175.087199 260.823426 
L 175.087199 39.197355 
" clip-path="url(#p7801a48085)" style="fill: none; stroke: #ffffff; stroke-width: 0.8; stroke-linecap: round"/>
     </g>
     <g id="text_3">
      <!-- 2008 -->
      <g style="fill: #555555" transform="translate(165.077512 274.265457) scale(0.09 -0.09)">
       <defs>
        <path id="ArialMT-38" d="M 1131 2484 
Q 781 2613 612 2850 
Q 444 3088 444 3419 
Q 444 3919 803 4259 
Q 1163 4600 1759 4600 
Q 2359 4600 2725 4251 
Q 3091 3903 3091 3403 
Q 3091 3084 2923 2848 
Q 2756 2613 2416 2484 
Q 2838 2347 3058 2040 
Q 3278 1734 3278 1309 
Q 3278 722 2862 322 
Q 2447 -78 1769 -78 
Q 1091 -78 675 323 
Q 259 725 259 1325 
Q 259 1772 486 2073 
Q 713 2375 1131 2484 
z
M 1019 3438 
Q 1019 3113 1228 2906 
Q 1438 2700 1772 2700 
Q 2097 2700 2305 2904 
Q 2513 3109 2513 3406 
Q 2513 3716 2298 3927 
Q 2084 4138 1766 4138 
Q 1444 4138 1231 3931 
Q 1019 3725 1019 3438 
z
M 838 1322 
Q 838 1081 952 856 
Q 1066 631 1291 507 
Q 1516 384 1775 384 
Q 2178 384 2440 643 
Q 2703 903 2703 1303 
Q 2703 1709 2433 1975 
Q 2163 2241 1756 2241 
Q 1359 2241 1098 1978 
Q 838 1716 838 1322 
z
" transform="scale(0.015625)"/>
       </defs>
       <use xlink:href="#ArialMT-32"/>
       <use xlink:href="#ArialMT-30" transform="translate(55.615234 0)"/>
       <use xlink:href="#ArialMT-30" transform="translate(111.230469 0)"/>
       <use xlink:href="#ArialMT-38" transform="translate(166.845703 0)"/>
      </g>
     </g>
    </g>
    <g id="xtick_4">
     <g id="line2d_4">
      <path d="M 225.148249 260.823426 
L 225.148249 39.197355 
" clip-path="url(#p7801a48085)" style="fill: none; stroke: #ffffff; stroke-width: 0.8; stroke-linecap: round"/>
     </g>
     <g id="text_4">
      <!-- 2012 -->
      <g style="fill: #555555" transform="translate(215.138562 274.265457) scale(0.09 -0.09)">
       <defs>
        <path id="ArialMT-31" d="M 2384 0 
L 1822 0 
L 1822 3584 
Q 1619 3391 1289 3197 
Q 959 3003 697 2906 
L 697 3450 
Q 1169 3672 1522 3987 
Q 1875 4303 2022 4600 
L 2384 4600 
L 2384 0 
z
" transform="scale(0.015625)"/>
       </defs>
       <use xlink:href="#ArialMT-32"/>
       <use xlink:href="#ArialMT-30" transform="translate(55.615234 0)"/>
       <use xlink:href="#ArialMT-31" transform="translate(111.230469 0)"/>
       <use xlink:href="#ArialMT-32" transform="translate(166.845703 0)"/>
      </g>
     </g>
    </g>
    <g id="xtick_5">
     <g id="line2d_5">
      <path d="M 275.2093 260.823426 
L 275.2093 39.197355 
" clip-path="url(#p7801a48085)" style="fill: none; stroke: #ffffff; stroke-width: 0.8; stroke-linecap: round"/>
     </g>
     <g id="text_5">
      <!-- 2016 -->
      <g style="fill: #555555" transform="translate(265.199612 274.265457) scale(0.09 -0.09)">
       <defs>
        <path id="ArialMT-36" d="M 3184 3459 
L 2625 3416 
Q 2550 3747 2413 3897 
Q 2184 4138 1850 4138 
Q 1581 4138 1378 3988 
Q 1113 3794 959 3422 
Q 806 3050 800 2363 
Q 1003 2672 1297 2822 
Q 1591 2972 1913 2972 
Q 2475 2972 2870 2558 
Q 3266 2144 3266 1488 
Q 3266 1056 3080 686 
Q 2894 316 2569 119 
Q 2244 -78 1831 -78 
Q 1128 -78 684 439 
Q 241 956 241 2144 
Q 241 3472 731 4075 
Q 1159 4600 1884 4600 
Q 2425 4600 2770 4297 
Q 3116 3994 3184 3459 
z
M 888 1484 
Q 888 1194 1011 928 
Q 1134 663 1356 523 
Q 1578 384 1822 384 
Q 2178 384 2434 671 
Q 2691 959 2691 1453 
Q 2691 1928 2437 2201 
Q 2184 2475 1800 2475 
Q 1419 2475 1153 2201 
Q 888 1928 888 1484 
z
" transform="scale(0.015625)"/>
       </defs>
       <use xlink:href="#ArialMT-32"/>
       <use xlink:href="#ArialMT-30" transform="translate(55.615234 0)"/>
       <use xlink:href="#ArialMT-31" transform="translate(111.230469 0)"/>
       <use xlink:href="#ArialMT-36" transform="translate(166.845703 0)"/>
      </g>
     </g>
    </g>
    <g id="text_6">
     <!-- Quarter -->
     <g style="fill: #555555" transform="translate(156.578927 287.21202) scale(0.1 -0.1)">
      <defs>
       <path id="ArialMT-51" d="M 3966 491 
Q 4388 200 4744 66 
L 4566 -356 
Q 4072 -178 3581 206 
Q 3072 -78 2456 -78 
Q 1834 -78 1328 222 
Q 822 522 548 1065 
Q 275 1609 275 2291 
Q 275 2969 550 3525 
Q 825 4081 1333 4372 
Q 1841 4663 2469 4663 
Q 3103 4663 3612 4361 
Q 4122 4059 4389 3517 
Q 4656 2975 4656 2294 
Q 4656 1728 4484 1276 
Q 4313 825 3966 491 
z
M 2631 1266 
Q 3156 1119 3497 828 
Q 4031 1316 4031 2294 
Q 4031 2850 3842 3265 
Q 3653 3681 3289 3911 
Q 2925 4141 2472 4141 
Q 1794 4141 1347 3677 
Q 900 3213 900 2291 
Q 900 1397 1342 919 
Q 1784 441 2472 441 
Q 2797 441 3084 563 
Q 2800 747 2484 825 
L 2631 1266 
z
" transform="scale(0.015625)"/>
       <path id="ArialMT-75" d="M 2597 0 
L 2597 488 
Q 2209 -75 1544 -75 
Q 1250 -75 995 37 
Q 741 150 617 320 
Q 494 491 444 738 
Q 409 903 409 1263 
L 409 3319 
L 972 3319 
L 972 1478 
Q 972 1038 1006 884 
Q 1059 663 1231 536 
Q 1403 409 1656 409 
Q 1909 409 2131 539 
Q 2353 669 2445 892 
Q 2538 1116 2538 1541 
L 2538 3319 
L 3100 3319 
L 3100 0 
L 2597 0 
z
" transform="scale(0.015625)"/>
       <path id="ArialMT-61" d="M 2588 409 
Q 2275 144 1986 34 
Q 1697 -75 1366 -75 
Q 819 -75 525 192 
Q 231 459 231 875 
Q 231 1119 342 1320 
Q 453 1522 633 1644 
Q 813 1766 1038 1828 
Q 1203 1872 1538 1913 
Q 2219 1994 2541 2106 
Q 2544 2222 2544 2253 
Q 2544 2597 2384 2738 
Q 2169 2928 1744 2928 
Q 1347 2928 1158 2789 
Q 969 2650 878 2297 
L 328 2372 
Q 403 2725 575 2942 
Q 747 3159 1072 3276 
Q 1397 3394 1825 3394 
Q 2250 3394 2515 3294 
Q 2781 3194 2906 3042 
Q 3031 2891 3081 2659 
Q 3109 2516 3109 2141 
L 3109 1391 
Q 3109 606 3145 398 
Q 3181 191 3288 0 
L 2700 0 
Q 2613 175 2588 409 
z
M 2541 1666 
Q 2234 1541 1622 1453 
Q 1275 1403 1131 1340 
Q 988 1278 909 1158 
Q 831 1038 831 891 
Q 831 666 1001 516 
Q 1172 366 1500 366 
Q 1825 366 2078 508 
Q 2331 650 2450 897 
Q 2541 1088 2541 1459 
L 2541 1666 
z
" transform="scale(0.015625)"/>
       <path id="ArialMT-72" d="M 416 0 
L 416 3319 
L 922 3319 
L 922 2816 
Q 1116 3169 1280 3281 
Q 1444 3394 1641 3394 
Q 1925 3394 2219 3213 
L 2025 2691 
Q 1819 2813 1613 2813 
Q 1428 2813 1281 2702 
Q 1134 2591 1072 2394 
Q 978 2094 978 1738 
L 978 0 
L 416 0 
z
" transform="scale(0.015625)"/>
       <path id="ArialMT-74" d="M 1650 503 
L 1731 6 
Q 1494 -44 1306 -44 
Q 1000 -44 831 53 
Q 663 150 594 308 
Q 525 466 525 972 
L 525 2881 
L 113 2881 
L 113 3319 
L 525 3319 
L 525 4141 
L 1084 4478 
L 1084 3319 
L 1650 3319 
L 1650 2881 
L 1084 2881 
L 1084 941 
Q 1084 700 1114 631 
Q 1144 563 1211 522 
Q 1278 481 1403 481 
Q 1497 481 1650 503 
z
" transform="scale(0.015625)"/>
       <path id="ArialMT-65" d="M 2694 1069 
L 3275 997 
Q 3138 488 2766 206 
Q 2394 -75 1816 -75 
Q 1088 -75 661 373 
Q 234 822 234 1631 
Q 234 2469 665 2931 
Q 1097 3394 1784 3394 
Q 2450 3394 2872 2941 
Q 3294 2488 3294 1666 
Q 3294 1616 3291 1516 
L 816 1516 
Q 847 969 1125 678 
Q 1403 388 1819 388 
Q 2128 388 2347 550 
Q 2566 713 2694 1069 
z
M 847 1978 
L 2700 1978 
Q 2663 2397 2488 2606 
Q 2219 2931 1791 2931 
Q 1403 2931 1139 2672 
Q 875 2413 847 1978 
z
" transform="scale(0.015625)"/>
      </defs>
      <use xlink:href="#ArialMT-51"/>
      <use xlink:href="#ArialMT-75" transform="translate(77.783203 0)"/>
      <use xlink:href="#ArialMT-61" transform="translate(133.398438 0)"/>
      <use xlink:href="#ArialMT-72" transform="translate(189.013672 0)"/>
      <use xlink:href="#ArialMT-74" transform="translate(222.314453 0)"/>
      <use xlink:href="#ArialMT-65" transform="translate(250.097656 0)"/>
      <use xlink:href="#ArialMT-72" transform="translate(305.712891 0)"/>
     </g>
    </g>
   </g>
   <g id="matplotlib.axis_2">
    <g id="ytick_1">
     <g id="line2d_6">
      <path d="M 37.594062 227.342034 
L 309.462228 227.342034 
" clip-path="url(#p7801a48085)" style="fill: none; stroke: #ffffff; stroke-width: 0.8; stroke-linecap: round"/>
     </g>
     <g id="text_7">
      <!-- 8 -->
      <g style="fill: #555555" transform="translate(25.589219 230.56305) scale(0.09 -0.09)">
       <use xlink:href="#ArialMT-38"/>
      </g>
     </g>
    </g>
    <g id="ytick_2">
     <g id="line2d_7">
      <path d="M 37.594062 188.573504 
L 309.462228 188.573504 
" clip-path="url(#p7801a48085)" style="fill: none; stroke: #ffffff; stroke-width: 0.8; stroke-linecap: round"/>
     </g>
     <g id="text_8">
      <!-- 9 -->
      <g style="fill: #555555" transform="translate(25.589219 191.794519) scale(0.09 -0.09)">
       <defs>
        <path id="ArialMT-39" d="M 350 1059 
L 891 1109 
Q 959 728 1153 556 
Q 1347 384 1650 384 
Q 1909 384 2104 503 
Q 2300 622 2425 820 
Q 2550 1019 2634 1356 
Q 2719 1694 2719 2044 
Q 2719 2081 2716 2156 
Q 2547 1888 2255 1720 
Q 1963 1553 1622 1553 
Q 1053 1553 659 1965 
Q 266 2378 266 3053 
Q 266 3750 677 4175 
Q 1088 4600 1706 4600 
Q 2153 4600 2523 4359 
Q 2894 4119 3086 3673 
Q 3278 3228 3278 2384 
Q 3278 1506 3087 986 
Q 2897 466 2520 194 
Q 2144 -78 1638 -78 
Q 1100 -78 759 220 
Q 419 519 350 1059 
z
M 2653 3081 
Q 2653 3566 2395 3850 
Q 2138 4134 1775 4134 
Q 1400 4134 1122 3828 
Q 844 3522 844 3034 
Q 844 2597 1108 2323 
Q 1372 2050 1759 2050 
Q 2150 2050 2401 2323 
Q 2653 2597 2653 3081 
z
" transform="scale(0.015625)"/>
       </defs>
       <use xlink:href="#ArialMT-39"/>
      </g>
     </g>
    </g>
    <g id="ytick_3">
     <g id="line2d_8">
      <path d="M 37.594062 149.804973 
L 309.462228 149.804973 
" clip-path="url(#p7801a48085)" style="fill: none; stroke: #ffffff; stroke-width: 0.8; stroke-linecap: round"/>
     </g>
     <g id="text_9">
      <!-- 10 -->
      <g style="fill: #555555" transform="translate(20.584375 153.025989) scale(0.09 -0.09)">
       <use xlink:href="#ArialMT-31"/>
       <use xlink:href="#ArialMT-30" transform="translate(55.615234 0)"/>
      </g>
     </g>
    </g>
    <g id="ytick_4">
     <g id="line2d_9">
      <path d="M 37.594062 111.036443 
L 309.462228 111.036443 
" clip-path="url(#p7801a48085)" style="fill: none; stroke: #ffffff; stroke-width: 0.8; stroke-linecap: round"/>
     </g>
     <g id="text_10">
      <!-- 11 -->
      <g style="fill: #555555" transform="translate(21.248125 114.257458) scale(0.09 -0.09)">
       <use xlink:href="#ArialMT-31"/>
       <use xlink:href="#ArialMT-31" transform="translate(48.240234 0)"/>
      </g>
     </g>
    </g>
    <g id="ytick_5">
     <g id="line2d_10">
      <path d="M 37.594062 72.267912 
L 309.462228 72.267912 
" clip-path="url(#p7801a48085)" style="fill: none; stroke: #ffffff; stroke-width: 0.8; stroke-linecap: round"/>
     </g>
     <g id="text_11">
      <!-- 12 -->
      <g style="fill: #555555" transform="translate(20.584375 75.488928) scale(0.09 -0.09)">
       <use xlink:href="#ArialMT-31"/>
       <use xlink:href="#ArialMT-32" transform="translate(55.615234 0)"/>
      </g>
     </g>
    </g>
    <g id="text_12">
     <!-- Trips (millions) -->
     <g style="fill: #555555" transform="translate(14.479687 182.321328) rotate(-90) scale(0.1 -0.1)">
      <defs>
       <path id="ArialMT-54" d="M 1659 0 
L 1659 4041 
L 150 4041 
L 150 4581 
L 3781 4581 
L 3781 4041 
L 2266 4041 
L 2266 0 
L 1659 0 
z
" transform="scale(0.015625)"/>
       <path id="ArialMT-69" d="M 425 3934 
L 425 4581 
L 988 4581 
L 988 3934 
L 425 3934 
z
M 425 0 
L 425 3319 
L 988 3319 
L 988 0 
L 425 0 
z
" transform="scale(0.015625)"/>
       <path id="ArialMT-70" d="M 422 -1272 
L 422 3319 
L 934 3319 
L 934 2888 
Q 1116 3141 1344 3267 
Q 1572 3394 1897 3394 
Q 2322 3394 2647 3175 
Q 2972 2956 3137 2557 
Q 3303 2159 3303 1684 
Q 3303 1175 3120 767 
Q 2938 359 2589 142 
Q 2241 -75 1856 -75 
Q 1575 -75 1351 44 
Q 1128 163 984 344 
L 984 -1272 
L 422 -1272 
z
M 931 1641 
Q 931 1000 1190 694 
Q 1450 388 1819 388 
Q 2194 388 2461 705 
Q 2728 1022 2728 1688 
Q 2728 2322 2467 2637 
Q 2206 2953 1844 2953 
Q 1484 2953 1207 2617 
Q 931 2281 931 1641 
z
" transform="scale(0.015625)"/>
       <path id="ArialMT-73" d="M 197 991 
L 753 1078 
Q 800 744 1014 566 
Q 1228 388 1613 388 
Q 2000 388 2187 545 
Q 2375 703 2375 916 
Q 2375 1106 2209 1216 
Q 2094 1291 1634 1406 
Q 1016 1563 777 1677 
Q 538 1791 414 1992 
Q 291 2194 291 2438 
Q 291 2659 392 2848 
Q 494 3038 669 3163 
Q 800 3259 1026 3326 
Q 1253 3394 1513 3394 
Q 1903 3394 2198 3281 
Q 2494 3169 2634 2976 
Q 2775 2784 2828 2463 
L 2278 2388 
Q 2241 2644 2061 2787 
Q 1881 2931 1553 2931 
Q 1166 2931 1000 2803 
Q 834 2675 834 2503 
Q 834 2394 903 2306 
Q 972 2216 1119 2156 
Q 1203 2125 1616 2013 
Q 2213 1853 2448 1751 
Q 2684 1650 2818 1456 
Q 2953 1263 2953 975 
Q 2953 694 2789 445 
Q 2625 197 2315 61 
Q 2006 -75 1616 -75 
Q 969 -75 630 194 
Q 291 463 197 991 
z
" transform="scale(0.015625)"/>
       <path id="ArialMT-20" transform="scale(0.015625)"/>
       <path id="ArialMT-28" d="M 1497 -1347 
Q 1031 -759 709 28 
Q 388 816 388 1659 
Q 388 2403 628 3084 
Q 909 3875 1497 4659 
L 1900 4659 
Q 1522 4009 1400 3731 
Q 1209 3300 1100 2831 
Q 966 2247 966 1656 
Q 966 153 1900 -1347 
L 1497 -1347 
z
" transform="scale(0.015625)"/>
       <path id="ArialMT-6d" d="M 422 0 
L 422 3319 
L 925 3319 
L 925 2853 
Q 1081 3097 1340 3245 
Q 1600 3394 1931 3394 
Q 2300 3394 2536 3241 
Q 2772 3088 2869 2813 
Q 3263 3394 3894 3394 
Q 4388 3394 4653 3120 
Q 4919 2847 4919 2278 
L 4919 0 
L 4359 0 
L 4359 2091 
Q 4359 2428 4304 2576 
Q 4250 2725 4106 2815 
Q 3963 2906 3769 2906 
Q 3419 2906 3187 2673 
Q 2956 2441 2956 1928 
L 2956 0 
L 2394 0 
L 2394 2156 
Q 2394 2531 2256 2718 
Q 2119 2906 1806 2906 
Q 1569 2906 1367 2781 
Q 1166 2656 1075 2415 
Q 984 2175 984 1722 
L 984 0 
L 422 0 
z
" transform="scale(0.015625)"/>
       <path id="ArialMT-6c" d="M 409 0 
L 409 4581 
L 972 4581 
L 972 0 
L 409 0 
z
" transform="scale(0.015625)"/>
       <path id="ArialMT-6f" d="M 213 1659 
Q 213 2581 725 3025 
Q 1153 3394 1769 3394 
Q 2453 3394 2887 2945 
Q 3322 2497 3322 1706 
Q 3322 1066 3130 698 
Q 2938 331 2570 128 
Q 2203 -75 1769 -75 
Q 1072 -75 642 372 
Q 213 819 213 1659 
z
M 791 1659 
Q 791 1022 1069 705 
Q 1347 388 1769 388 
Q 2188 388 2466 706 
Q 2744 1025 2744 1678 
Q 2744 2294 2464 2611 
Q 2184 2928 1769 2928 
Q 1347 2928 1069 2612 
Q 791 2297 791 1659 
z
" transform="scale(0.015625)"/>
       <path id="ArialMT-6e" d="M 422 0 
L 422 3319 
L 928 3319 
L 928 2847 
Q 1294 3394 1984 3394 
Q 2284 3394 2536 3286 
Q 2788 3178 2913 3003 
Q 3038 2828 3088 2588 
Q 3119 2431 3119 2041 
L 3119 0 
L 2556 0 
L 2556 2019 
Q 2556 2363 2490 2533 
Q 2425 2703 2258 2804 
Q 2091 2906 1866 2906 
Q 1506 2906 1245 2678 
Q 984 2450 984 1813 
L 984 0 
L 422 0 
z
" transform="scale(0.015625)"/>
       <path id="ArialMT-29" d="M 791 -1347 
L 388 -1347 
Q 1322 153 1322 1656 
Q 1322 2244 1188 2822 
Q 1081 3291 891 3722 
Q 769 4003 388 4659 
L 791 4659 
Q 1378 3875 1659 3084 
Q 1900 2403 1900 1659 
Q 1900 816 1576 28 
Q 1253 -759 791 -1347 
z
" transform="scale(0.015625)"/>
      </defs>
      <use xlink:href="#ArialMT-54"/>
      <use xlink:href="#ArialMT-72" transform="translate(57.333984 0)"/>
      <use xlink:href="#ArialMT-69" transform="translate(90.634766 0)"/>
      <use xlink:href="#ArialMT-70" transform="translate(112.851562 0)"/>
      <use xlink:href="#ArialMT-73" transform="translate(168.466797 0)"/>
      <use xlink:href="#ArialMT-20" transform="translate(218.466797 0)"/>
      <use xlink:href="#ArialMT-28" transform="translate(246.25 0)"/>
      <use xlink:href="#ArialMT-6d" transform="translate(279.550781 0)"/>
      <use xlink:href="#ArialMT-69" transform="translate(362.851562 0)"/>
      <use xlink:href="#ArialMT-6c" transform="translate(385.068359 0)"/>
      <use xlink:href="#ArialMT-6c" transform="translate(407.285156 0)"/>
      <use xlink:href="#ArialMT-69" transform="translate(429.501953 0)"/>
      <use xlink:href="#ArialMT-6f" transform="translate(451.71875 0)"/>
      <use xlink:href="#ArialMT-6e" transform="translate(507.333984 0)"/>
      <use xlink:href="#ArialMT-73" transform="translate(562.949219 0)"/>
      <use xlink:href="#ArialMT-29" transform="translate(612.949219 0)"/>
     </g>
    </g>
   </g>
   <g id="line2d_11">
    <path d="M 49.951706 79.787548 
L 53.035549 177.88649 
L 56.153657 202.433696 
L 59.30603 176.961407 
L 62.458403 104.367206 
L 65.542246 165.017233 
L 68.660353 191.911997 
L 71.812726 187.577604 
L 74.965099 108.28908 
L 78.083207 180.964702 
L 81.201315 175.101214 
L 84.353687 189.193249 
L 87.50606 123.740335 
L 90.589903 167.890797 
L 93.708011 196.049662 
L 96.860384 189.467318 
L 100.012757 117.137855 
L 103.096599 179.550305 
L 106.214707 194.923241 
L 109.36708 178.976693 
L 112.519453 130.360269 
L 115.603296 184.947488 
L 118.721404 194.755427 
L 121.873776 194.727596 
L 125.026149 122.610417 
L 128.144257 180.383021 
L 131.262365 191.502827 
L 134.414738 212.664879 
L 137.56711 113.789603 
L 140.650953 224.773239 
L 143.769061 223.446087 
L 146.921434 237.536534 
L 150.073807 102.536557 
L 153.15765 177.949123 
L 156.275757 235.242621 
L 159.42813 191.349218 
L 162.580503 114.513771 
L 165.664346 174.755908 
L 168.782454 203.404002 
L 171.934827 199.570161 
L 175.087199 74.148516 
L 178.205307 207.978695 
L 181.323415 208.646468 
L 184.475788 212.179402 
L 187.628161 144.688505 
L 190.712003 211.818521 
L 193.830111 200.579963 
L 196.982484 217.171198 
L 200.134857 143.717662 
L 203.2187 198.888725 
L 206.336808 203.82842 
L 209.48918 207.776203 
L 212.641553 155.758174 
L 215.725396 188.215999 
L 218.843504 209.915633 
L 221.995877 208.398431 
L 225.148249 139.418094 
L 228.266357 203.968017 
L 231.384465 213.758451 
L 234.536838 179.36631 
L 237.689211 119.306335 
L 240.773054 187.282363 
L 243.891162 197.063698 
L 247.043534 193.347876 
L 250.195907 97.262232 
L 253.27975 142.092668 
L 256.397858 189.812688 
L 259.550231 172.510641 
L 262.702603 86.576077 
L 265.786446 161.16231 
L 268.904554 167.407647 
L 272.056927 148.01544 
L 275.2093 49.271267 
L 278.327408 150.572637 
L 281.445515 152.145911 
L 284.597888 146.511018 
L 287.750261 56.51165 
L 290.834104 131.537348 
L 293.952212 130.453065 
L 297.104584 102.863348 
" clip-path="url(#p7801a48085)" style="fill: none; stroke: #000000; stroke-linecap: round"/>
   </g>
   <g id="line2d_12">
    <path d="M 49.951706 108.832347 
L 53.035549 157.530039 
L 56.153657 184.890361 
L 59.30603 185.589201 
L 62.458403 110.019991 
L 65.542246 168.757454 
L 68.660353 186.447156 
L 71.812726 181.95244 
L 74.965099 112.127739 
L 78.083207 171.638067 
L 81.201315 194.779186 
L 84.353687 180.160429 
L 87.50606 111.562895 
L 90.589903 177.698187 
L 93.708011 192.829449 
L 96.860384 187.774059 
L 100.012757 116.330415 
L 103.096599 177.665167 
L 106.214707 197.664565 
L 109.36708 190.222446 
L 112.519453 113.503983 
L 115.603296 181.307085 
L 118.721404 202.014401 
L 121.873776 192.696114 
L 125.026149 121.691718 
L 128.144257 182.98228 
L 131.262365 201.029473 
L 134.414738 190.823615 
L 137.56711 127.817078 
L 140.650953 183.059493 
L 143.769061 219.082621 
L 146.921434 215.177616 
L 150.073807 152.454722 
L 153.15765 194.046417 
L 156.275757 206.257282 
L 159.42813 212.263611 
L 162.580503 131.045065 
L 165.664346 186.133257 
L 168.782454 200.524224 
L 171.934827 195.221785 
L 175.087199 123.986734 
L 178.205307 165.371796 
L 181.323415 201.499009 
L 184.475788 197.952444 
L 187.628161 130.240105 
L 190.712003 198.891703 
L 193.830111 223.182286 
L 196.982484 207.958602 
L 200.134857 138.354616 
L 203.2187 203.396058 
L 206.336808 220.257417 
L 209.48918 207.770327 
L 212.641553 134.320619 
L 215.725396 205.697217 
L 218.843504 217.150071 
L 221.995877 208.478976 
L 225.148249 135.182147 
L 228.266357 199.124432 
L 231.384465 219.623791 
L 234.536838 211.596944 
L 237.689211 125.251112 
L 240.773054 184.813607 
L 243.891162 203.92337 
L 247.043534 194.894606 
L 250.195907 120.990135 
L 253.27975 173.28619 
L 256.397858 178.331135 
L 259.550231 176.332098 
L 262.702603 100.917834 
L 265.786446 156.59069 
L 268.904554 176.351562 
L 272.056927 165.849023 
L 275.2093 84.432325 
L 278.327408 131.507659 
L 281.445515 156.58773 
L 284.597888 147.490161 
L 287.750261 72.469828 
L 290.834104 127.750061 
L 293.952212 146.343253 
L 297.104584 132.468641 
" clip-path="url(#p7801a48085)" style="fill: none; stroke: #20b2aa; stroke-width: 1.2; stroke-linecap: round"/>
   </g>
   <g id="patch_3">
    <path d="M 37.594062 260.823426 
L 37.594062 39.197355 
" style="fill: none; stroke: #ffffff; stroke-linejoin: miter; stroke-linecap: square"/>
   </g>
   <g id="patch_4">
    <path d="M 309.462228 260.823426 
L 309.462228 39.197355 
" style="fill: none; stroke: #ffffff; stroke-linejoin: miter; stroke-linecap: square"/>
   </g>
   <g id="patch_5">
    <path d="M 37.594062 260.823426 
L 309.462228 260.823426 
" style="fill: none; stroke: #ffffff; stroke-linejoin: miter; stroke-linecap: square"/>
   </g>
   <g id="patch_6">
    <path d="M 37.594062 39.197355 
L 309.462228 39.197355 
" style="fill: none; stroke: #ffffff; stroke-linejoin: miter; stroke-linecap: square"/>
   </g>
   <g id="text_13">
    <!-- γ = 0.01   (SSE = 15.8) -->
    <g style="fill: #262626" transform="translate(112.495958 33.197355) scale(0.12 -0.12)">
     <defs>
      <path id="ArialMT-3b3" d="M 78 3319 
L 669 3319 
L 1597 703 
L 2547 3319 
L 3122 3319 
L 1881 0 
L 1881 -1272 
L 1309 -1272 
L 1309 0 
L 78 3319 
z
" transform="scale(0.015625)"/>
      <path id="ArialMT-3d" d="M 3381 2694 
L 356 2694 
L 356 3219 
L 3381 3219 
L 3381 2694 
z
M 3381 1303 
L 356 1303 
L 356 1828 
L 3381 1828 
L 3381 1303 
z
" transform="scale(0.015625)"/>
      <path id="ArialMT-2e" d="M 581 0 
L 581 641 
L 1222 641 
L 1222 0 
L 581 0 
z
" transform="scale(0.015625)"/>
      <path id="ArialMT-53" d="M 288 1472 
L 859 1522 
Q 900 1178 1048 958 
Q 1197 738 1509 602 
Q 1822 466 2213 466 
Q 2559 466 2825 569 
Q 3091 672 3220 851 
Q 3350 1031 3350 1244 
Q 3350 1459 3225 1620 
Q 3100 1781 2813 1891 
Q 2628 1963 1997 2114 
Q 1366 2266 1113 2400 
Q 784 2572 623 2826 
Q 463 3081 463 3397 
Q 463 3744 659 4045 
Q 856 4347 1234 4503 
Q 1613 4659 2075 4659 
Q 2584 4659 2973 4495 
Q 3363 4331 3572 4012 
Q 3781 3694 3797 3291 
L 3216 3247 
Q 3169 3681 2898 3903 
Q 2628 4125 2100 4125 
Q 1550 4125 1298 3923 
Q 1047 3722 1047 3438 
Q 1047 3191 1225 3031 
Q 1400 2872 2139 2705 
Q 2878 2538 3153 2413 
Q 3553 2228 3743 1945 
Q 3934 1663 3934 1294 
Q 3934 928 3725 604 
Q 3516 281 3123 101 
Q 2731 -78 2241 -78 
Q 1619 -78 1198 103 
Q 778 284 539 648 
Q 300 1013 288 1472 
z
" transform="scale(0.015625)"/>
      <path id="ArialMT-45" d="M 506 0 
L 506 4581 
L 3819 4581 
L 3819 4041 
L 1113 4041 
L 1113 2638 
L 3647 2638 
L 3647 2100 
L 1113 2100 
L 1113 541 
L 3925 541 
L 3925 0 
L 506 0 
z
" transform="scale(0.015625)"/>
      <path id="ArialMT-35" d="M 266 1200 
L 856 1250 
Q 922 819 1161 601 
Q 1400 384 1738 384 
Q 2144 384 2425 690 
Q 2706 997 2706 1503 
Q 2706 1984 2436 2262 
Q 2166 2541 1728 2541 
Q 1456 2541 1237 2417 
Q 1019 2294 894 2097 
L 366 2166 
L 809 4519 
L 3088 4519 
L 3088 3981 
L 1259 3981 
L 1013 2750 
Q 1425 3038 1878 3038 
Q 2478 3038 2890 2622 
Q 3303 2206 3303 1553 
Q 3303 931 2941 478 
Q 2500 -78 1738 -78 
Q 1113 -78 717 272 
Q 322 622 266 1200 
z
" transform="scale(0.015625)"/>
     </defs>
     <use xlink:href="#ArialMT-3b3"/>
     <use xlink:href="#ArialMT-20" transform="translate(50 0)"/>
     <use xlink:href="#ArialMT-3d" transform="translate(77.783203 0)"/>
     <use xlink:href="#ArialMT-20" transform="translate(136.181641 0)"/>
     <use xlink:href="#ArialMT-30" transform="translate(163.964844 0)"/>
     <use xlink:href="#ArialMT-2e" transform="translate(219.580078 0)"/>
     <use xlink:href="#ArialMT-30" transform="translate(247.363281 0)"/>
     <use xlink:href="#ArialMT-31" transform="translate(302.978516 0)"/>
     <use xlink:href="#ArialMT-20" transform="translate(358.59375 0)"/>
     <use xlink:href="#ArialMT-20" transform="translate(386.376953 0)"/>
     <use xlink:href="#ArialMT-20" transform="translate(414.160156 0)"/>
     <use xlink:href="#ArialMT-28" transform="translate(441.943359 0)"/>
     <use xlink:href="#ArialMT-53" transform="translate(475.244141 0)"/>
     <use xlink:href="#ArialMT-53" transform="translate(541.943359 0)"/>
     <use xlink:href="#ArialMT-45" transform="translate(608.642578 0)"/>
     <use xlink:href="#ArialMT-20" transform="translate(675.341797 0)"/>
     <use xlink:href="#ArialMT-3d" transform="translate(703.125 0)"/>
     <use xlink:href="#ArialMT-20" transform="translate(761.523438 0)"/>
     <use xlink:href="#ArialMT-31" transform="translate(789.306641 0)"/>
     <use xlink:href="#ArialMT-35" transform="translate(844.921875 0)"/>
     <use xlink:href="#ArialMT-2e" transform="translate(900.537109 0)"/>
     <use xlink:href="#ArialMT-38" transform="translate(928.320312 0)"/>
     <use xlink:href="#ArialMT-29" transform="translate(983.935547 0)"/>
    </g>
   </g>
   <g id="legend_1">
    <g id="patch_7">
     <path d="M 43.894062 71.858917 
L 95.201094 71.858917 
Q 97.001094 71.858917 97.001094 70.058917 
L 97.001094 45.497355 
Q 97.001094 43.697355 95.201094 43.697355 
L 43.894062 43.697355 
Q 42.094062 43.697355 42.094062 45.497355 
L 42.094062 70.058917 
Q 42.094062 71.858917 43.894062 71.858917 
z
" style="fill: #e5e5e5; opacity: 0.8; stroke: #cccccc; stroke-width: 0.5; stroke-linejoin: miter"/>
    </g>
    <g id="line2d_13">
     <path d="M 45.694063 50.589386 
L 54.694063 50.589386 
L 63.694063 50.589386 
" style="fill: none; stroke: #000000; stroke-linecap: round"/>
    </g>
    <g id="text_14">
     <!-- Trips -->
     <g style="fill: #262626" transform="translate(70.894063 53.739386) scale(0.09 -0.09)">
      <use xlink:href="#ArialMT-54"/>
      <use xlink:href="#ArialMT-72" transform="translate(57.333984 0)"/>
      <use xlink:href="#ArialMT-69" transform="translate(90.634766 0)"/>
      <use xlink:href="#ArialMT-70" transform="translate(112.851562 0)"/>
      <use xlink:href="#ArialMT-73" transform="translate(168.466797 0)"/>
     </g>
    </g>
    <g id="line2d_14">
     <path d="M 45.694063 63.320167 
L 54.694063 63.320167 
L 63.694063 63.320167 
" style="fill: none; stroke: #20b2aa; stroke-width: 1.2; stroke-linecap: round"/>
    </g>
    <g id="text_15">
     <!-- Fitted -->
     <g style="fill: #262626" transform="translate(70.894063 66.470167) scale(0.09 -0.09)">
      <defs>
       <path id="ArialMT-46" d="M 525 0 
L 525 4581 
L 3616 4581 
L 3616 4041 
L 1131 4041 
L 1131 2622 
L 3281 2622 
L 3281 2081 
L 1131 2081 
L 1131 0 
L 525 0 
z
" transform="scale(0.015625)"/>
       <path id="ArialMT-64" d="M 2575 0 
L 2575 419 
Q 2259 -75 1647 -75 
Q 1250 -75 917 144 
Q 584 363 401 755 
Q 219 1147 219 1656 
Q 219 2153 384 2558 
Q 550 2963 881 3178 
Q 1213 3394 1622 3394 
Q 1922 3394 2156 3267 
Q 2391 3141 2538 2938 
L 2538 4581 
L 3097 4581 
L 3097 0 
L 2575 0 
z
M 797 1656 
Q 797 1019 1065 703 
Q 1334 388 1700 388 
Q 2069 388 2326 689 
Q 2584 991 2584 1609 
Q 2584 2291 2321 2609 
Q 2059 2928 1675 2928 
Q 1300 2928 1048 2622 
Q 797 2316 797 1656 
z
" transform="scale(0.015625)"/>
      </defs>
      <use xlink:href="#ArialMT-46"/>
      <use xlink:href="#ArialMT-69" transform="translate(61.083984 0)"/>
      <use xlink:href="#ArialMT-74" transform="translate(83.300781 0)"/>
      <use xlink:href="#ArialMT-74" transform="translate(111.083984 0)"/>
      <use xlink:href="#ArialMT-65" transform="translate(138.867188 0)"/>
      <use xlink:href="#ArialMT-64" transform="translate(194.482422 0)"/>
     </g>
    </g>
   </g>
  </g>
  <g id="axes_2">
   <g id="patch_8">
    <path d="M 315.462708 260.823426 
L 587.330874 260.823426 
L 587.330874 39.197355 
L 315.462708 39.197355 
z
" style="fill: #e5e5e5"/>
   </g>
   <g id="matplotlib.axis_3">
    <g id="xtick_6">
     <g id="line2d_15">
      <path d="M 352.833745 260.823426 
L 352.833745 39.197355 
" clip-path="url(#p067a72f58d)" style="fill: none; stroke: #ffffff; stroke-width: 0.8; stroke-linecap: round"/>
     </g>
     <g id="text_16">
      <!-- 2000 -->
      <g style="fill: #555555" transform="translate(342.824057 274.265457) scale(0.09 -0.09)">
       <use xlink:href="#ArialMT-32"/>
       <use xlink:href="#ArialMT-30" transform="translate(55.615234 0)"/>
       <use xlink:href="#ArialMT-30" transform="translate(111.230469 0)"/>
       <use xlink:href="#ArialMT-30" transform="translate(166.845703 0)"/>
      </g>
     </g>
    </g>
    <g id="xtick_7">
     <g id="line2d_16">
      <path d="M 402.894795 260.823426 
L 402.894795 39.197355 
" clip-path="url(#p067a72f58d)" style="fill: none; stroke: #ffffff; stroke-width: 0.8; stroke-linecap: round"/>
     </g>
     <g id="text_17">
      <!-- 2004 -->
      <g style="fill: #555555" transform="translate(392.885108 274.265457) scale(0.09 -0.09)">
       <use xlink:href="#ArialMT-32"/>
       <use xlink:href="#ArialMT-30" transform="translate(55.615234 0)"/>
       <use xlink:href="#ArialMT-30" transform="translate(111.230469 0)"/>
       <use xlink:href="#ArialMT-34" transform="translate(166.845703 0)"/>
      </g>
     </g>
    </g>
    <g id="xtick_8">
     <g id="line2d_17">
      <path d="M 452.955845 260.823426 
L 452.955845 39.197355 
" clip-path="url(#p067a72f58d)" style="fill: none; stroke: #ffffff; stroke-width: 0.8; stroke-linecap: round"/>
     </g>
     <g id="text_18">
      <!-- 2008 -->
      <g style="fill: #555555" transform="translate(442.946158 274.265457) scale(0.09 -0.09)">
       <use xlink:href="#ArialMT-32"/>
       <use xlink:href="#ArialMT-30" transform="translate(55.615234 0)"/>
       <use xlink:href="#ArialMT-30" transform="translate(111.230469 0)"/>
       <use xlink:href="#ArialMT-38" transform="translate(166.845703 0)"/>
      </g>
     </g>
    </g>
    <g id="xtick_9">
     <g id="line2d_18">
      <path d="M 503.016895 260.823426 
L 503.016895 39.197355 
" clip-path="url(#p067a72f58d)" style="fill: none; stroke: #ffffff; stroke-width: 0.8; stroke-linecap: round"/>
     </g>
     <g id="text_19">
      <!-- 2012 -->
      <g style="fill: #555555" transform="translate(493.007208 274.265457) scale(0.09 -0.09)">
       <use xlink:href="#ArialMT-32"/>
       <use xlink:href="#ArialMT-30" transform="translate(55.615234 0)"/>
       <use xlink:href="#ArialMT-31" transform="translate(111.230469 0)"/>
       <use xlink:href="#ArialMT-32" transform="translate(166.845703 0)"/>
      </g>
     </g>
    </g>
    <g id="xtick_10">
     <g id="line2d_19">
      <path d="M 553.077945 260.823426 
L 553.077945 39.197355 
" clip-path="url(#p067a72f58d)" style="fill: none; stroke: #ffffff; stroke-width: 0.8; stroke-linecap: round"/>
     </g>
     <g id="text_20">
      <!-- 2016 -->
      <g style="fill: #555555" transform="translate(543.068258 274.265457) scale(0.09 -0.09)">
       <use xlink:href="#ArialMT-32"/>
       <use xlink:href="#ArialMT-30" transform="translate(55.615234 0)"/>
       <use xlink:href="#ArialMT-31" transform="translate(111.230469 0)"/>
       <use xlink:href="#ArialMT-36" transform="translate(166.845703 0)"/>
      </g>
     </g>
    </g>
    <g id="text_21">
     <!-- Quarter -->
     <g style="fill: #555555" transform="translate(434.447573 287.21202) scale(0.1 -0.1)">
      <use xlink:href="#ArialMT-51"/>
      <use xlink:href="#ArialMT-75" transform="translate(77.783203 0)"/>
      <use xlink:href="#ArialMT-61" transform="translate(133.398438 0)"/>
      <use xlink:href="#ArialMT-72" transform="translate(189.013672 0)"/>
      <use xlink:href="#ArialMT-74" transform="translate(222.314453 0)"/>
      <use xlink:href="#ArialMT-65" transform="translate(250.097656 0)"/>
      <use xlink:href="#ArialMT-72" transform="translate(305.712891 0)"/>
     </g>
    </g>
   </g>
   <g id="matplotlib.axis_4">
    <g id="ytick_6">
     <g id="line2d_20">
      <path d="M 315.462708 227.342034 
L 587.330874 227.342034 
" clip-path="url(#p067a72f58d)" style="fill: none; stroke: #ffffff; stroke-width: 0.8; stroke-linecap: round"/>
     </g>
    </g>
    <g id="ytick_7">
     <g id="line2d_21">
      <path d="M 315.462708 188.573504 
L 587.330874 188.573504 
" clip-path="url(#p067a72f58d)" style="fill: none; stroke: #ffffff; stroke-width: 0.8; stroke-linecap: round"/>
     </g>
    </g>
    <g id="ytick_8">
     <g id="line2d_22">
      <path d="M 315.462708 149.804973 
L 587.330874 149.804973 
" clip-path="url(#p067a72f58d)" style="fill: none; stroke: #ffffff; stroke-width: 0.8; stroke-linecap: round"/>
     </g>
    </g>
    <g id="ytick_9">
     <g id="line2d_23">
      <path d="M 315.462708 111.036443 
L 587.330874 111.036443 
" clip-path="url(#p067a72f58d)" style="fill: none; stroke: #ffffff; stroke-width: 0.8; stroke-linecap: round"/>
     </g>
    </g>
    <g id="ytick_10">
     <g id="line2d_24">
      <path d="M 315.462708 72.267912 
L 587.330874 72.267912 
" clip-path="url(#p067a72f58d)" style="fill: none; stroke: #ffffff; stroke-width: 0.8; stroke-linecap: round"/>
     </g>
    </g>
   </g>
   <g id="line2d_25">
    <path d="M 327.820352 79.787548 
L 330.904195 177.88649 
L 334.022303 202.433696 
L 337.174676 176.961407 
L 340.327049 104.367206 
L 343.410891 165.017233 
L 346.528999 191.911997 
L 349.681372 187.577604 
L 352.833745 108.28908 
L 355.951853 180.964702 
L 359.069961 175.101214 
L 362.222333 189.193249 
L 365.374706 123.740335 
L 368.458549 167.890797 
L 371.576657 196.049662 
L 374.72903 189.467318 
L 377.881402 117.137855 
L 380.965245 179.550305 
L 384.083353 194.923241 
L 387.235726 178.976693 
L 390.388099 130.360269 
L 393.471942 184.947488 
L 396.590049 194.755427 
L 399.742422 194.727596 
L 402.894795 122.610417 
L 406.012903 180.383021 
L 409.131011 191.502827 
L 412.283383 212.664879 
L 415.435756 113.789603 
L 418.519599 224.773239 
L 421.637707 223.446087 
L 424.79008 237.536534 
L 427.942453 102.536557 
L 431.026295 177.949123 
L 434.144403 235.242621 
L 437.296776 191.349218 
L 440.449149 114.513771 
L 443.532992 174.755908 
L 446.6511 203.404002 
L 449.803472 199.570161 
L 452.955845 74.148516 
L 456.073953 207.978695 
L 459.192061 208.646468 
L 462.344434 212.179402 
L 465.496806 144.688505 
L 468.580649 211.818521 
L 471.698757 200.579963 
L 474.85113 217.171198 
L 478.003503 143.717662 
L 481.087346 198.888725 
L 484.205453 203.82842 
L 487.357826 207.776203 
L 490.510199 155.758174 
L 493.594042 188.215999 
L 496.71215 209.915633 
L 499.864523 208.398431 
L 503.016895 139.418094 
L 506.135003 203.968017 
L 509.253111 213.758451 
L 512.405484 179.36631 
L 515.557857 119.306335 
L 518.641699 187.282363 
L 521.759807 197.063698 
L 524.91218 193.347876 
L 528.064553 97.262232 
L 531.148396 142.092668 
L 534.266504 189.812688 
L 537.418876 172.510641 
L 540.571249 86.576077 
L 543.655092 161.16231 
L 546.7732 167.407647 
L 549.925573 148.01544 
L 553.077945 49.271267 
L 556.196053 150.572637 
L 559.314161 152.145911 
L 562.466534 146.511018 
L 565.618907 56.51165 
L 568.70275 131.537348 
L 571.820857 130.453065 
L 574.97323 102.863348 
" clip-path="url(#p067a72f58d)" style="fill: none; stroke: #000000; stroke-linecap: round"/>
   </g>
   <g id="line2d_26">
    <path d="M 327.820352 108.832347 
L 330.904195 157.530039 
L 334.022303 184.890361 
L 337.174676 185.589201 
L 340.327049 101.596999 
L 343.410891 178.097406 
L 346.528999 191.227988 
L 349.681372 177.185729 
L 352.833745 104.226922 
L 355.951853 176.505458 
L 359.069961 200.937839 
L 362.222333 179.1443 
L 365.374706 104.091278 
L 368.458549 182.790264 
L 371.576657 190.302096 
L 374.72903 192.072274 
L 377.881402 114.90086 
L 380.965245 176.194305 
L 384.083353 197.272319 
L 387.235726 193.303194 
L 390.388099 112.807087 
L 393.471942 180.596577 
L 396.590049 200.402859 
L 399.742422 191.536607 
L 402.894795 127.766982 
L 406.012903 182.485795 
L 409.131011 196.633374 
L 412.283383 190.551811 
L 415.435756 131.924537 
L 418.519599 182.342098 
L 421.637707 213.725141 
L 424.79008 222.206302 
L 427.942453 149.186272 
L 431.026295 206.534404 
L 434.144403 199.296349 
L 437.296776 219.758758 
L 440.449149 110.107249 
L 443.532992 193.16407 
L 446.6511 209.304609 
L 449.803472 193.335029 
L 452.955845 107.276871 
L 456.073953 168.06572 
L 459.192061 211.343934 
L 462.344434 200.37891 
L 465.496806 104.864951 
L 468.580649 217.457679 
L 471.698757 230.078207 
L 474.85113 212.874152 
L 478.003503 122.837599 
L 481.087346 214.134434 
L 484.205453 215.598081 
L 487.357826 215.60934 
L 490.510199 125.583871 
L 493.594042 209.723277 
L 496.71215 209.637624 
L 499.864523 215.657804 
L 503.016895 137.277558 
L 506.135003 194.488198 
L 509.253111 213.370082 
L 512.405484 217.211186 
L 515.557857 129.210023 
L 518.641699 183.501715 
L 521.759807 197.02786 
L 524.91218 188.906521 
L 528.064553 126.18904 
L 531.148396 176.811433 
L 534.266504 173.341022 
L 537.418876 172.77381 
L 540.571249 97.784573 
L 543.655092 153.518954 
L 546.7732 182.451668 
L 549.925573 164.106751 
L 553.077945 79.225056 
L 556.196053 132.689309 
L 559.314161 158.566152 
L 562.466534 143.079905 
L 565.618907 61.727959 
L 568.70275 139.515762 
L 571.820857 147.627367 
L 574.97323 130.579398 
" clip-path="url(#p067a72f58d)" style="fill: none; stroke: #20b2aa; stroke-width: 1.2; stroke-linecap: round"/>
   </g>
   <g id="patch_9">
    <path d="M 315.462708 260.823426 
L 315.462708 39.197355 
" style="fill: none; stroke: #ffffff; stroke-linejoin: miter; stroke-linecap: square"/>
   </g>
   <g id="patch_10">
    <path d="M 587.330874 260.823426 
L 587.330874 39.197355 
" style="fill: none; stroke: #ffffff; stroke-linejoin: miter; stroke-linecap: square"/>
   </g>
   <g id="patch_11">
    <path d="M 315.462708 260.823426 
L 587.330874 260.823426 
" style="fill: none; stroke: #ffffff; stroke-linejoin: miter; stroke-linecap: square"/>
   </g>
   <g id="patch_12">
    <path d="M 315.462708 39.197355 
L 587.330874 39.197355 
" style="fill: none; stroke: #ffffff; stroke-linejoin: miter; stroke-linecap: square"/>
   </g>
   <g id="text_22">
    <!-- γ = 0.3   (SSE = 18.1) -->
    <g style="fill: #262626" transform="translate(393.701166 33.197355) scale(0.12 -0.12)">
     <defs>
      <path id="ArialMT-33" d="M 269 1209 
L 831 1284 
Q 928 806 1161 595 
Q 1394 384 1728 384 
Q 2125 384 2398 659 
Q 2672 934 2672 1341 
Q 2672 1728 2419 1979 
Q 2166 2231 1775 2231 
Q 1616 2231 1378 2169 
L 1441 2663 
Q 1497 2656 1531 2656 
Q 1891 2656 2178 2843 
Q 2466 3031 2466 3422 
Q 2466 3731 2256 3934 
Q 2047 4138 1716 4138 
Q 1388 4138 1169 3931 
Q 950 3725 888 3313 
L 325 3413 
Q 428 3978 793 4289 
Q 1159 4600 1703 4600 
Q 2078 4600 2393 4439 
Q 2709 4278 2876 4000 
Q 3044 3722 3044 3409 
Q 3044 3113 2884 2869 
Q 2725 2625 2413 2481 
Q 2819 2388 3044 2092 
Q 3269 1797 3269 1353 
Q 3269 753 2831 336 
Q 2394 -81 1725 -81 
Q 1122 -81 723 278 
Q 325 638 269 1209 
z
" transform="scale(0.015625)"/>
     </defs>
     <use xlink:href="#ArialMT-3b3"/>
     <use xlink:href="#ArialMT-20" transform="translate(50 0)"/>
     <use xlink:href="#ArialMT-3d" transform="translate(77.783203 0)"/>
     <use xlink:href="#ArialMT-20" transform="translate(136.181641 0)"/>
     <use xlink:href="#ArialMT-30" transform="translate(163.964844 0)"/>
     <use xlink:href="#ArialMT-2e" transform="translate(219.580078 0)"/>
     <use xlink:href="#ArialMT-33" transform="translate(247.363281 0)"/>
     <use xlink:href="#ArialMT-20" transform="translate(302.978516 0)"/>
     <use xlink:href="#ArialMT-20" transform="translate(330.761719 0)"/>
     <use xlink:href="#ArialMT-20" transform="translate(358.544922 0)"/>
     <use xlink:href="#ArialMT-28" transform="translate(386.328125 0)"/>
     <use xlink:href="#ArialMT-53" transform="translate(419.628906 0)"/>
     <use xlink:href="#ArialMT-53" transform="translate(486.328125 0)"/>
     <use xlink:href="#ArialMT-45" transform="translate(553.027344 0)"/>
     <use xlink:href="#ArialMT-20" transform="translate(619.726562 0)"/>
     <use xlink:href="#ArialMT-3d" transform="translate(647.509766 0)"/>
     <use xlink:href="#ArialMT-20" transform="translate(705.908203 0)"/>
     <use xlink:href="#ArialMT-31" transform="translate(733.691406 0)"/>
     <use xlink:href="#ArialMT-38" transform="translate(789.306641 0)"/>
     <use xlink:href="#ArialMT-2e" transform="translate(844.921875 0)"/>
     <use xlink:href="#ArialMT-31" transform="translate(872.705078 0)"/>
     <use xlink:href="#ArialMT-29" transform="translate(928.320312 0)"/>
    </g>
   </g>
  </g>
  <g id="axes_3">
   <g id="patch_13">
    <path d="M 593.331354 260.823426 
L 865.19952 260.823426 
L 865.19952 39.197355 
L 593.331354 39.197355 
z
" style="fill: #e5e5e5"/>
   </g>
   <g id="matplotlib.axis_5">
    <g id="xtick_11">
     <g id="line2d_27">
      <path d="M 630.702391 260.823426 
L 630.702391 39.197355 
" clip-path="url(#p79062bae20)" style="fill: none; stroke: #ffffff; stroke-width: 0.8; stroke-linecap: round"/>
     </g>
     <g id="text_23">
      <!-- 2000 -->
      <g style="fill: #555555" transform="translate(620.692703 274.265457) scale(0.09 -0.09)">
       <use xlink:href="#ArialMT-32"/>
       <use xlink:href="#ArialMT-30" transform="translate(55.615234 0)"/>
       <use xlink:href="#ArialMT-30" transform="translate(111.230469 0)"/>
       <use xlink:href="#ArialMT-30" transform="translate(166.845703 0)"/>
      </g>
     </g>
    </g>
    <g id="xtick_12">
     <g id="line2d_28">
      <path d="M 680.763441 260.823426 
L 680.763441 39.197355 
" clip-path="url(#p79062bae20)" style="fill: none; stroke: #ffffff; stroke-width: 0.8; stroke-linecap: round"/>
     </g>
     <g id="text_24">
      <!-- 2004 -->
      <g style="fill: #555555" transform="translate(670.753753 274.265457) scale(0.09 -0.09)">
       <use xlink:href="#ArialMT-32"/>
       <use xlink:href="#ArialMT-30" transform="translate(55.615234 0)"/>
       <use xlink:href="#ArialMT-30" transform="translate(111.230469 0)"/>
       <use xlink:href="#ArialMT-34" transform="translate(166.845703 0)"/>
      </g>
     </g>
    </g>
    <g id="xtick_13">
     <g id="line2d_29">
      <path d="M 730.824491 260.823426 
L 730.824491 39.197355 
" clip-path="url(#p79062bae20)" style="fill: none; stroke: #ffffff; stroke-width: 0.8; stroke-linecap: round"/>
     </g>
     <g id="text_25">
      <!-- 2008 -->
      <g style="fill: #555555" transform="translate(720.814804 274.265457) scale(0.09 -0.09)">
       <use xlink:href="#ArialMT-32"/>
       <use xlink:href="#ArialMT-30" transform="translate(55.615234 0)"/>
       <use xlink:href="#ArialMT-30" transform="translate(111.230469 0)"/>
       <use xlink:href="#ArialMT-38" transform="translate(166.845703 0)"/>
      </g>
     </g>
    </g>
    <g id="xtick_14">
     <g id="line2d_30">
      <path d="M 780.885541 260.823426 
L 780.885541 39.197355 
" clip-path="url(#p79062bae20)" style="fill: none; stroke: #ffffff; stroke-width: 0.8; stroke-linecap: round"/>
     </g>
     <g id="text_26">
      <!-- 2012 -->
      <g style="fill: #555555" transform="translate(770.875854 274.265457) scale(0.09 -0.09)">
       <use xlink:href="#ArialMT-32"/>
       <use xlink:href="#ArialMT-30" transform="translate(55.615234 0)"/>
       <use xlink:href="#ArialMT-31" transform="translate(111.230469 0)"/>
       <use xlink:href="#ArialMT-32" transform="translate(166.845703 0)"/>
      </g>
     </g>
    </g>
    <g id="xtick_15">
     <g id="line2d_31">
      <path d="M 830.946591 260.823426 
L 830.946591 39.197355 
" clip-path="url(#p79062bae20)" style="fill: none; stroke: #ffffff; stroke-width: 0.8; stroke-linecap: round"/>
     </g>
     <g id="text_27">
      <!-- 2016 -->
      <g style="fill: #555555" transform="translate(820.936904 274.265457) scale(0.09 -0.09)">
       <use xlink:href="#ArialMT-32"/>
       <use xlink:href="#ArialMT-30" transform="translate(55.615234 0)"/>
       <use xlink:href="#ArialMT-31" transform="translate(111.230469 0)"/>
       <use xlink:href="#ArialMT-36" transform="translate(166.845703 0)"/>
      </g>
     </g>
    </g>
    <g id="text_28">
     <!-- Quarter -->
     <g style="fill: #555555" transform="translate(712.316218 287.21202) scale(0.1 -0.1)">
      <use xlink:href="#ArialMT-51"/>
      <use xlink:href="#ArialMT-75" transform="translate(77.783203 0)"/>
      <use xlink:href="#ArialMT-61" transform="translate(133.398438 0)"/>
      <use xlink:href="#ArialMT-72" transform="translate(189.013672 0)"/>
      <use xlink:href="#ArialMT-74" transform="translate(222.314453 0)"/>
      <use xlink:href="#ArialMT-65" transform="translate(250.097656 0)"/>
      <use xlink:href="#ArialMT-72" transform="translate(305.712891 0)"/>
     </g>
    </g>
   </g>
   <g id="matplotlib.axis_6">
    <g id="ytick_11">
     <g id="line2d_32">
      <path d="M 593.331354 227.342034 
L 865.19952 227.342034 
" clip-path="url(#p79062bae20)" style="fill: none; stroke: #ffffff; stroke-width: 0.8; stroke-linecap: round"/>
     </g>
    </g>
    <g id="ytick_12">
     <g id="line2d_33">
      <path d="M 593.331354 188.573504 
L 865.19952 188.573504 
" clip-path="url(#p79062bae20)" style="fill: none; stroke: #ffffff; stroke-width: 0.8; stroke-linecap: round"/>
     </g>
    </g>
    <g id="ytick_13">
     <g id="line2d_34">
      <path d="M 593.331354 149.804973 
L 865.19952 149.804973 
" clip-path="url(#p79062bae20)" style="fill: none; stroke: #ffffff; stroke-width: 0.8; stroke-linecap: round"/>
     </g>
    </g>
    <g id="ytick_14">
     <g id="line2d_35">
      <path d="M 593.331354 111.036443 
L 865.19952 111.036443 
" clip-path="url(#p79062bae20)" style="fill: none; stroke: #ffffff; stroke-width: 0.8; stroke-linecap: round"/>
     </g>
    </g>
    <g id="ytick_15">
     <g id="line2d_36">
      <path d="M 593.331354 72.267912 
L 865.19952 72.267912 
" clip-path="url(#p79062bae20)" style="fill: none; stroke: #ffffff; stroke-width: 0.8; stroke-linecap: round"/>
     </g>
    </g>
   </g>
   <g id="line2d_37">
    <path d="M 605.688998 79.787548 
L 608.772841 177.88649 
L 611.890949 202.433696 
L 615.043322 176.961407 
L 618.195694 104.367206 
L 621.279537 165.017233 
L 624.397645 191.911997 
L 627.550018 187.577604 
L 630.702391 108.28908 
L 633.820499 180.964702 
L 636.938606 175.101214 
L 640.090979 189.193249 
L 643.243352 123.740335 
L 646.327195 167.890797 
L 649.445303 196.049662 
L 652.597675 189.467318 
L 655.750048 117.137855 
L 658.833891 179.550305 
L 661.951999 194.923241 
L 665.104372 178.976693 
L 668.256745 130.360269 
L 671.340587 184.947488 
L 674.458695 194.755427 
L 677.611068 194.727596 
L 680.763441 122.610417 
L 683.881549 180.383021 
L 686.999657 191.502827 
L 690.152029 212.664879 
L 693.304402 113.789603 
L 696.388245 224.773239 
L 699.506353 223.446087 
L 702.658726 237.536534 
L 705.811098 102.536557 
L 708.894941 177.949123 
L 712.013049 235.242621 
L 715.165422 191.349218 
L 718.317795 114.513771 
L 721.401638 174.755908 
L 724.519745 203.404002 
L 727.672118 199.570161 
L 730.824491 74.148516 
L 733.942599 207.978695 
L 737.060707 208.646468 
L 740.213079 212.179402 
L 743.365452 144.688505 
L 746.449295 211.818521 
L 749.567403 200.579963 
L 752.719776 217.171198 
L 755.872149 143.717662 
L 758.955991 198.888725 
L 762.074099 203.82842 
L 765.226472 207.776203 
L 768.378845 155.758174 
L 771.462688 188.215999 
L 774.580796 209.915633 
L 777.733168 208.398431 
L 780.885541 139.418094 
L 784.003649 203.968017 
L 787.121757 213.758451 
L 790.27413 179.36631 
L 793.426502 119.306335 
L 796.510345 187.282363 
L 799.628453 197.063698 
L 802.780826 193.347876 
L 805.933199 97.262232 
L 809.017042 142.092668 
L 812.135149 189.812688 
L 815.287522 172.510641 
L 818.439895 86.576077 
L 821.523738 161.16231 
L 824.641846 167.407647 
L 827.794219 148.01544 
L 830.946591 49.271267 
L 834.064699 150.572637 
L 837.182807 152.145911 
L 840.33518 146.511018 
L 843.487553 56.51165 
L 846.571395 131.537348 
L 849.689503 130.453065 
L 852.841876 102.863348 
" clip-path="url(#p79062bae20)" style="fill: none; stroke: #000000; stroke-linecap: round"/>
   </g>
   <g id="line2d_38">
    <path d="M 605.688998 108.832347 
L 608.772841 157.530039 
L 611.890949 184.890361 
L 615.043322 185.589201 
L 618.195694 84.17012 
L 621.279537 197.421443 
L 624.397645 201.119363 
L 627.550018 167.323568 
L 630.702391 103.390328 
L 633.820499 163.04948 
L 636.938606 208.023217 
L 640.090979 191.337997 
L 643.243352 104.527466 
L 646.327195 181.643579 
L 649.445303 167.959759 
L 652.597675 203.630073 
L 655.750048 131.389293 
L 658.833891 165.337981 
L 661.951999 200.609724 
L 665.104372 184.582984 
L 668.256745 115.59432 
L 671.340587 186.908832 
L 674.458695 197.814275 
L 677.611068 182.943878 
L 680.763441 139.418469 
L 683.881549 182.968461 
L 686.999657 192.551164 
L 690.152029 191.774015 
L 693.304402 126.162464 
L 696.388245 184.325957 
L 699.506353 212.888477 
L 702.658726 236.975171 
L 705.811098 133.608014 
L 708.894941 231.994156 
L 712.013049 195.267065 
L 715.165422 221.767679 
L 718.317795 76.934579 
L 721.401638 182.049492 
L 724.519745 248.960252 
L 727.672118 177.528016 
L 730.824491 114.931218 
L 733.942599 147.743152 
L 737.060707 207.196674 
L 740.213079 215.748969 
L 743.365452 86.503789 
L 746.449295 250.749514 
L 749.567403 217.766319 
L 752.719776 214.334712 
L 755.872149 143.270038 
L 758.955991 196.594122 
L 762.074099 199.578478 
L 765.226472 222.820577 
L 768.378845 142.389166 
L 771.462688 202.583038 
L 774.580796 200.568202 
L 777.733168 208.430853 
L 780.885541 159.642802 
L 784.003649 181.234531 
L 787.121757 215.497519 
L 790.27413 210.489601 
L 793.426502 130.849316 
L 796.510345 194.402735 
L 799.628453 194.286677 
L 802.780826 164.263316 
L 805.933199 126.434036 
L 809.017042 186.88083 
L 812.135149 180.268522 
L 815.287522 176.346154 
L 818.439895 72.372108 
L 821.523738 135.915484 
L 824.641846 206.577542 
L 827.794219 171.099401 
L 830.946591 75.479086 
L 834.064699 132.290599 
L 837.182807 141.630256 
L 840.33518 140.339723 
L 843.487553 53.680127 
L 846.571395 162.450652 
L 849.689503 145.031269 
L 852.841876 129.501358 
" clip-path="url(#p79062bae20)" style="fill: none; stroke: #20b2aa; stroke-width: 1.2; stroke-linecap: round"/>
   </g>
   <g id="patch_14">
    <path d="M 593.331354 260.823426 
L 593.331354 39.197355 
" style="fill: none; stroke: #ffffff; stroke-linejoin: miter; stroke-linecap: square"/>
   </g>
   <g id="patch_15">
    <path d="M 865.19952 260.823426 
L 865.19952 39.197355 
" style="fill: none; stroke: #ffffff; stroke-linejoin: miter; stroke-linecap: square"/>
   </g>
   <g id="patch_16">
    <path d="M 593.331354 260.823426 
L 865.19952 260.823426 
" style="fill: none; stroke: #ffffff; stroke-linejoin: miter; stroke-linecap: square"/>
   </g>
   <g id="patch_17">
    <path d="M 593.331354 39.197355 
L 865.19952 39.197355 
" style="fill: none; stroke: #ffffff; stroke-linejoin: miter; stroke-linecap: square"/>
   </g>
   <g id="text_29">
    <!-- γ = 0.9   (SSE = 29.0) -->
    <g style="fill: #262626" transform="translate(671.569812 33.197355) scale(0.12 -0.12)">
     <use xlink:href="#ArialMT-3b3"/>
     <use xlink:href="#ArialMT-20" transform="translate(50 0)"/>
     <use xlink:href="#ArialMT-3d" transform="translate(77.783203 0)"/>
     <use xlink:href="#ArialMT-20" transform="translate(136.181641 0)"/>
     <use xlink:href="#ArialMT-30" transform="translate(163.964844 0)"/>
     <use xlink:href="#ArialMT-2e" transform="translate(219.580078 0)"/>
     <use xlink:href="#ArialMT-39" transform="translate(247.363281 0)"/>
     <use xlink:href="#ArialMT-20" transform="translate(302.978516 0)"/>
     <use xlink:href="#ArialMT-20" transform="translate(330.761719 0)"/>
     <use xlink:href="#ArialMT-20" transform="translate(358.544922 0)"/>
     <use xlink:href="#ArialMT-28" transform="translate(386.328125 0)"/>
     <use xlink:href="#ArialMT-53" transform="translate(419.628906 0)"/>
     <use xlink:href="#ArialMT-53" transform="translate(486.328125 0)"/>
     <use xlink:href="#ArialMT-45" transform="translate(553.027344 0)"/>
     <use xlink:href="#ArialMT-20" transform="translate(619.726562 0)"/>
     <use xlink:href="#ArialMT-3d" transform="translate(647.509766 0)"/>
     <use xlink:href="#ArialMT-20" transform="translate(705.908203 0)"/>
     <use xlink:href="#ArialMT-32" transform="translate(733.691406 0)"/>
     <use xlink:href="#ArialMT-39" transform="translate(789.306641 0)"/>
     <use xlink:href="#ArialMT-2e" transform="translate(844.921875 0)"/>
     <use xlink:href="#ArialMT-30" transform="translate(872.705078 0)"/>
     <use xlink:href="#ArialMT-29" transform="translate(928.320312 0)"/>
    </g>
   </g>
  </g>
  <g id="text_30">
   <!-- Australian domestic holidays: Holt-Winters additive, α and β* fixed -->
   <g style="fill: #262626" transform="translate(261.212573 15.935625) scale(0.12 -0.12)">
    <defs>
     <path id="ArialMT-41" d="M -9 0 
L 1750 4581 
L 2403 4581 
L 4278 0 
L 3588 0 
L 3053 1388 
L 1138 1388 
L 634 0 
L -9 0 
z
M 1313 1881 
L 2866 1881 
L 2388 3150 
Q 2169 3728 2063 4100 
Q 1975 3659 1816 3225 
L 1313 1881 
z
" transform="scale(0.015625)"/>
     <path id="ArialMT-63" d="M 2588 1216 
L 3141 1144 
Q 3050 572 2676 248 
Q 2303 -75 1759 -75 
Q 1078 -75 664 370 
Q 250 816 250 1647 
Q 250 2184 428 2587 
Q 606 2991 970 3192 
Q 1334 3394 1763 3394 
Q 2303 3394 2647 3120 
Q 2991 2847 3088 2344 
L 2541 2259 
Q 2463 2594 2264 2762 
Q 2066 2931 1784 2931 
Q 1359 2931 1093 2626 
Q 828 2322 828 1663 
Q 828 994 1084 691 
Q 1341 388 1753 388 
Q 2084 388 2306 591 
Q 2528 794 2588 1216 
z
" transform="scale(0.015625)"/>
     <path id="ArialMT-68" d="M 422 0 
L 422 4581 
L 984 4581 
L 984 2938 
Q 1378 3394 1978 3394 
Q 2347 3394 2619 3248 
Q 2891 3103 3008 2847 
Q 3125 2591 3125 2103 
L 3125 0 
L 2563 0 
L 2563 2103 
Q 2563 2525 2380 2717 
Q 2197 2909 1863 2909 
Q 1613 2909 1392 2779 
Q 1172 2650 1078 2428 
Q 984 2206 984 1816 
L 984 0 
L 422 0 
z
" transform="scale(0.015625)"/>
     <path id="ArialMT-79" d="M 397 -1278 
L 334 -750 
Q 519 -800 656 -800 
Q 844 -800 956 -737 
Q 1069 -675 1141 -563 
Q 1194 -478 1313 -144 
Q 1328 -97 1363 -6 
L 103 3319 
L 709 3319 
L 1400 1397 
Q 1534 1031 1641 628 
Q 1738 1016 1872 1384 
L 2581 3319 
L 3144 3319 
L 1881 -56 
Q 1678 -603 1566 -809 
Q 1416 -1088 1222 -1217 
Q 1028 -1347 759 -1347 
Q 597 -1347 397 -1278 
z
" transform="scale(0.015625)"/>
     <path id="ArialMT-3a" d="M 578 2678 
L 578 3319 
L 1219 3319 
L 1219 2678 
L 578 2678 
z
M 578 0 
L 578 641 
L 1219 641 
L 1219 0 
L 578 0 
z
" transform="scale(0.015625)"/>
     <path id="ArialMT-48" d="M 513 0 
L 513 4581 
L 1119 4581 
L 1119 2700 
L 3500 2700 
L 3500 4581 
L 4106 4581 
L 4106 0 
L 3500 0 
L 3500 2159 
L 1119 2159 
L 1119 0 
L 513 0 
z
" transform="scale(0.015625)"/>
     <path id="ArialMT-2d" d="M 203 1375 
L 203 1941 
L 1931 1941 
L 1931 1375 
L 203 1375 
z
" transform="scale(0.015625)"/>
     <path id="ArialMT-57" d="M 1294 0 
L 78 4581 
L 700 4581 
L 1397 1578 
Q 1509 1106 1591 641 
Q 1766 1375 1797 1488 
L 2669 4581 
L 3400 4581 
L 4056 2263 
Q 4303 1400 4413 641 
Q 4500 1075 4641 1638 
L 5359 4581 
L 5969 4581 
L 4713 0 
L 4128 0 
L 3163 3491 
Q 3041 3928 3019 4028 
Q 2947 3713 2884 3491 
L 1913 0 
L 1294 0 
z
" transform="scale(0.015625)"/>
     <path id="ArialMT-76" d="M 1344 0 
L 81 3319 
L 675 3319 
L 1388 1331 
Q 1503 1009 1600 663 
Q 1675 925 1809 1294 
L 2547 3319 
L 3125 3319 
L 1869 0 
L 1344 0 
z
" transform="scale(0.015625)"/>
     <path id="ArialMT-2c" d="M 569 0 
L 569 641 
L 1209 641 
L 1209 0 
Q 1209 -353 1084 -570 
Q 959 -788 688 -906 
L 531 -666 
Q 709 -588 793 -436 
Q 878 -284 888 0 
L 569 0 
z
" transform="scale(0.015625)"/>
     <path id="ArialMT-3b1" d="M 2884 3319 
L 3459 3319 
Q 3241 2631 3056 1659 
Q 3275 453 3459 0 
L 2900 0 
Q 2766 313 2697 606 
Q 2438 -75 1613 -75 
Q 988 -75 606 394 
Q 225 863 225 1666 
Q 225 2491 608 2942 
Q 991 3394 1622 3394 
Q 2013 3394 2259 3236 
Q 2506 3078 2719 2756 
Q 2741 2866 2884 3319 
z
M 1716 2928 
Q 1313 2928 1078 2603 
Q 844 2278 844 1666 
Q 844 1069 1066 728 
Q 1288 388 1684 388 
Q 2072 388 2331 723 
Q 2591 1059 2591 1691 
Q 2591 2303 2348 2615 
Q 2106 2928 1716 2928 
z
" transform="scale(0.015625)"/>
     <path id="ArialMT-3b2" d="M 997 422 
L 997 -1272 
L 438 -1272 
L 438 3144 
Q 438 3672 580 3970 
Q 722 4269 1069 4464 
Q 1416 4659 1841 4659 
Q 2469 4659 2792 4298 
Q 3116 3938 3116 3509 
Q 3116 3091 2855 2834 
Q 2594 2578 2256 2519 
Q 2800 2466 3095 2128 
Q 3391 1791 3391 1297 
Q 3391 766 3042 345 
Q 2694 -75 2034 -75 
Q 1359 -75 997 422 
z
M 1494 2700 
Q 2069 2700 2331 2900 
Q 2594 3100 2594 3478 
Q 2594 3784 2370 3990 
Q 2147 4197 1813 4197 
Q 1522 4197 1308 4044 
Q 1094 3891 1045 3703 
Q 997 3516 997 3047 
L 997 1788 
Q 997 1250 1072 997 
Q 1147 744 1394 541 
Q 1641 338 1963 338 
Q 2353 338 2579 605 
Q 2806 872 2806 1266 
Q 2806 1591 2639 1848 
Q 2472 2106 2226 2198 
Q 1981 2291 1575 2291 
L 1494 2291 
L 1494 2700 
z
" transform="scale(0.015625)"/>
     <path id="ArialMT-2a" d="M 200 3741 
L 344 4184 
Q 841 4009 1066 3881 
Q 1006 4447 1003 4659 
L 1456 4659 
Q 1447 4350 1384 3884 
Q 1706 4047 2122 4184 
L 2266 3741 
Q 1869 3609 1488 3566 
Q 1678 3400 2025 2975 
L 1650 2709 
Q 1469 2956 1222 3381 
Q 991 2941 816 2709 
L 447 2975 
Q 809 3422 966 3566 
Q 563 3644 200 3741 
z
" transform="scale(0.015625)"/>
     <path id="ArialMT-66" d="M 556 0 
L 556 2881 
L 59 2881 
L 59 3319 
L 556 3319 
L 556 3672 
Q 556 4006 616 4169 
Q 697 4388 901 4523 
Q 1106 4659 1475 4659 
Q 1713 4659 2000 4603 
L 1916 4113 
Q 1741 4144 1584 4144 
Q 1328 4144 1222 4034 
Q 1116 3925 1116 3625 
L 1116 3319 
L 1763 3319 
L 1763 2881 
L 1116 2881 
L 1116 0 
L 556 0 
z
" transform="scale(0.015625)"/>
     <path id="ArialMT-78" d="M 47 0 
L 1259 1725 
L 138 3319 
L 841 3319 
L 1350 2541 
Q 1494 2319 1581 2169 
Q 1719 2375 1834 2534 
L 2394 3319 
L 3066 3319 
L 1919 1756 
L 3153 0 
L 2463 0 
L 1781 1031 
L 1600 1309 
L 728 0 
L 47 0 
z
" transform="scale(0.015625)"/>
    </defs>
    <use xlink:href="#ArialMT-41"/>
    <use xlink:href="#ArialMT-75" transform="translate(66.699219 0)"/>
    <use xlink:href="#ArialMT-73" transform="translate(122.314453 0)"/>
    <use xlink:href="#ArialMT-74" transform="translate(172.314453 0)"/>
    <use xlink:href="#ArialMT-72" transform="translate(200.097656 0)"/>
    <use xlink:href="#ArialMT-61" transform="translate(233.398438 0)"/>
    <use xlink:href="#ArialMT-6c" transform="translate(289.013672 0)"/>
    <use xlink:href="#ArialMT-69" transform="translate(311.230469 0)"/>
    <use xlink:href="#ArialMT-61" transform="translate(333.447266 0)"/>
    <use xlink:href="#ArialMT-6e" transform="translate(389.0625 0)"/>
    <use xlink:href="#ArialMT-20" transform="translate(444.677734 0)"/>
    <use xlink:href="#ArialMT-64" transform="translate(472.460938 0)"/>
    <use xlink:href="#ArialMT-6f" transform="translate(528.076172 0)"/>
    <use xlink:href="#ArialMT-6d" transform="translate(583.691406 0)"/>
    <use xlink:href="#ArialMT-65" transform="translate(666.992188 0)"/>
    <use xlink:href="#ArialMT-73" transform="translate(722.607422 0)"/>
    <use xlink:href="#ArialMT-74" transform="translate(772.607422 0)"/>
    <use xlink:href="#ArialMT-69" transform="translate(800.390625 0)"/>
    <use xlink:href="#ArialMT-63" transform="translate(822.607422 0)"/>
    <use xlink:href="#ArialMT-20" transform="translate(872.607422 0)"/>
    <use xlink:href="#ArialMT-68" transform="translate(900.390625 0)"/>
    <use xlink:href="#ArialMT-6f" transform="translate(956.005859 0)"/>
    <use xlink:href="#ArialMT-6c" transform="translate(1011.621094 0)"/>
    <use xlink:href="#ArialMT-69" transform="translate(1033.837891 0)"/>
    <use xlink:href="#ArialMT-64" transform="translate(1056.054688 0)"/>
    <use xlink:href="#ArialMT-61" transform="translate(1111.669922 0)"/>
    <use xlink:href="#ArialMT-79" transform="translate(1167.285156 0)"/>
    <use xlink:href="#ArialMT-73" transform="translate(1217.285156 0)"/>
    <use xlink:href="#ArialMT-3a" transform="translate(1267.285156 0)"/>
    <use xlink:href="#ArialMT-20" transform="translate(1295.068359 0)"/>
    <use xlink:href="#ArialMT-48" transform="translate(1322.851562 0)"/>
    <use xlink:href="#ArialMT-6f" transform="translate(1395.068359 0)"/>
    <use xlink:href="#ArialMT-6c" transform="translate(1450.683594 0)"/>
    <use xlink:href="#ArialMT-74" transform="translate(1472.900391 0)"/>
    <use xlink:href="#ArialMT-2d" transform="translate(1500.683594 0)"/>
    <use xlink:href="#ArialMT-57" transform="translate(1533.984375 0)"/>
    <use xlink:href="#ArialMT-69" transform="translate(1628.369141 0)"/>
    <use xlink:href="#ArialMT-6e" transform="translate(1650.585938 0)"/>
    <use xlink:href="#ArialMT-74" transform="translate(1706.201172 0)"/>
    <use xlink:href="#ArialMT-65" transform="translate(1733.984375 0)"/>
    <use xlink:href="#ArialMT-72" transform="translate(1789.599609 0)"/>
    <use xlink:href="#ArialMT-73" transform="translate(1822.900391 0)"/>
    <use xlink:href="#ArialMT-20" transform="translate(1872.900391 0)"/>
    <use xlink:href="#ArialMT-61" transform="translate(1900.683594 0)"/>
    <use xlink:href="#ArialMT-64" transform="translate(1956.298828 0)"/>
    <use xlink:href="#ArialMT-64" transform="translate(2011.914062 0)"/>
    <use xlink:href="#ArialMT-69" transform="translate(2067.529297 0)"/>
    <use xlink:href="#ArialMT-74" transform="translate(2089.746094 0)"/>
    <use xlink:href="#ArialMT-69" transform="translate(2117.529297 0)"/>
    <use xlink:href="#ArialMT-76" transform="translate(2139.746094 0)"/>
    <use xlink:href="#ArialMT-65" transform="translate(2189.746094 0)"/>
    <use xlink:href="#ArialMT-2c" transform="translate(2245.361328 0)"/>
    <use xlink:href="#ArialMT-20" transform="translate(2273.144531 0)"/>
    <use xlink:href="#ArialMT-3b1" transform="translate(2300.927734 0)"/>
    <use xlink:href="#ArialMT-20" transform="translate(2358.740234 0)"/>
    <use xlink:href="#ArialMT-61" transform="translate(2386.523438 0)"/>
    <use xlink:href="#ArialMT-6e" transform="translate(2442.138672 0)"/>
    <use xlink:href="#ArialMT-64" transform="translate(2497.753906 0)"/>
    <use xlink:href="#ArialMT-20" transform="translate(2553.369141 0)"/>
    <use xlink:href="#ArialMT-3b2" transform="translate(2581.152344 0)"/>
    <use xlink:href="#ArialMT-2a" transform="translate(2638.671875 0)"/>
    <use xlink:href="#ArialMT-20" transform="translate(2677.587891 0)"/>
    <use xlink:href="#ArialMT-66" transform="translate(2705.371094 0)"/>
    <use xlink:href="#ArialMT-69" transform="translate(2733.154297 0)"/>
    <use xlink:href="#ArialMT-78" transform="translate(2755.371094 0)"/>
    <use xlink:href="#ArialMT-65" transform="translate(2805.371094 0)"/>
    <use xlink:href="#ArialMT-64" transform="translate(2860.986328 0)"/>
   </g>
  </g>
 </g>
 <defs>
  <clipPath id="p7801a48085">
   <rect x="37.594062" y="39.197355" width="271.868166" height="221.626071"/>
  </clipPath>
  <clipPath id="p067a72f58d">
   <rect x="315.462708" y="39.197355" width="271.868166" height="221.626071"/>
  </clipPath>
  <clipPath id="p79062bae20">
   <rect x="593.331354" y="39.197355" width="271.868166" height="221.626071"/>
  </clipPath>
 </defs>
</svg>
