<?xml version="1.0" encoding="utf-8" standalone="no"?>
<!DOCTYPE svg PUBLIC "-//W3C//DTD SVG 1.1//EN"
  "http://www.w3.org/Graphics/SVG/1.1/DTD/svg11.dtd">
<svg xmlns:xlink="http://www.w3.org/1999/xlink" width="516.6pt" height="291.6pt" viewBox="0 0 516.6 291.6" xmlns="http://www.w3.org/2000/svg" version="1.1">
 <metadata>
  <rdf:RDF xmlns:dc="http://purl.org/dc/elements/1.1/" xmlns:cc="http://creativecommons.org/ns#" xmlns:rdf="http://www.w3.org/1999/02/22-rdf-syntax-ns#">
   <cc:Work>
    <dc:type rdf:resource="http://purl.org/dc/dcmitype/StillImage"/>
    <dc:date>2024-09-16T01:16:17.241715</dc:date>
    <dc:format>image/svg+xml</dc:format>
    <dc:creator>
     <cc:Agent>
      <dc:title>Matplotlib v3.7.2, https://matplotlib.org/</dc:title>
     </cc:Agent>
    </dc:creator>
   </cc:Work>
  </rdf:RDF>
 </metadata>
 <defs>
  <style type="text/css">*{stroke-linejoin: round; stroke-linecap: butt}</style>
 </defs>
 <g id="figure_1">
  <g id="patch_1">
   <path d="M 0 291.6 
L 516.6 291.6 
L 516.6 0 
L 0 0 
z
" style="fill: #ffffff"/>
  </g>
  <g id="axes_1">
   <g id="patch_2">
    <path d="M 7.2 284.4 
L 509.4 284.4 
L 509.4 7.2 
L 7.2 7.2 
z
" style="fill: #ffffff"/>
   </g>
   <g id="line2d_1">
    <path d="M 30.027273 282.033701 
L 34.615669 280.830777 
L 36.909868 280.048684 
L 39.204066 279.121255 
L 41.498264 278.027585 
L 43.792462 276.745082 
L 46.086661 275.249595 
L 48.380859 273.515629 
L 50.675057 271.516628 
L 52.969255 269.22534 
L 55.263454 266.614273 
L 57.557652 263.656238 
L 59.85185 260.324982 
L 62.146048 256.595894 
L 64.440247 252.446791 
L 66.734445 247.858763 
L 69.028643 242.817055 
L 71.322841 237.311977 
L 73.61704 231.339799 
L 75.911238 224.903619 
L 78.205436 218.014164 
L 80.499635 210.690489 
L 85.088031 194.861586 
L 89.676428 177.753119 
L 105.735815 115.967723 
L 108.030014 108.10821 
L 110.324212 100.787569 
L 112.61841 94.101531 
L 114.912608 88.140029 
L 117.206807 82.985196 
L 119.501005 78.709484 
L 121.795203 75.373971 
L 124.089402 73.02691 
L 126.3836 71.70257 
L 128.677798 71.420397 
L 130.971996 72.184547 
L 133.266195 73.983778 
L 135.560393 76.791727 
L 137.854591 80.567555 
L 140.148789 85.256931 
L 142.442988 90.793338 
L 144.737186 97.099635 
L 147.031384 104.089851 
L 149.325582 111.671126 
L 153.913979 128.213264 
L 158.502376 145.923447 
L 167.679169 181.787775 
L 172.267565 198.638994 
L 176.855962 214.119714 
L 179.15016 221.246099 
L 181.444358 227.928404 
L 183.738556 234.151492 
L 186.032755 239.908249 
L 188.326953 245.198828 
L 190.621151 250.029817 
L 192.915349 254.413357 
L 195.209548 258.366227 
L 197.503746 261.908956 
L 199.797944 265.064945 
L 202.092143 267.859657 
L 204.386341 270.319859 
L 206.680539 272.472952 
L 208.974737 274.346375 
L 211.268936 275.967109 
L 213.563134 277.361258 
L 215.857332 278.553722 
L 218.15153 279.567947 
L 220.445729 280.425749 
L 222.739927 281.147208 
L 227.328323 282.252463 
L 231.91672 283.008754 
L 236.505116 283.514247 
L 243.387711 283.959096 
L 250.270306 284.171032 
L 259.447099 284.241552 
L 268.623892 284.114435 
L 275.506487 283.832318 
L 280.094884 283.496532 
L 284.68328 282.980741 
L 289.271677 282.209125 
L 293.860073 281.081518 
L 296.154271 280.345477 
L 298.44847 279.470341 
L 300.742668 278.435623 
L 303.036866 277.219067 
L 305.331064 275.796751 
L 307.625263 274.143274 
L 309.919461 272.232003 
L 312.213659 270.035413 
L 314.507857 267.52551 
L 316.802056 264.674339 
L 319.096254 261.454592 
L 321.390452 257.840293 
L 323.684651 253.807566 
L 325.978849 249.33547 
L 328.273047 244.406885 
L 330.567245 239.009426 
L 332.861444 233.136371 
L 335.155642 226.787564 
L 337.44984 219.970263 
L 339.744038 212.69991 
L 342.038237 205.000776 
L 346.626633 188.460146 
L 351.21503 170.732912 
L 362.686021 125.057977 
L 367.274418 108.181654 
L 369.568616 100.447222 
L 371.862814 93.315789 
L 374.157012 86.882092 
L 376.451211 81.233839 
L 378.745409 76.449728 
L 381.039607 72.597621 
L 383.333805 69.732945 
L 385.628004 67.897366 
L 387.922202 67.117779 
L 390.2164 67.405652 
L 392.510598 68.756747 
L 394.804797 71.151222 
L 397.098995 74.55412 
L 399.393193 78.91621 
L 401.687392 84.175181 
L 403.98159 90.257118 
L 406.275788 97.078227 
L 408.569986 104.546759 
L 410.864185 112.565051 
L 415.452581 129.843375 
L 422.335176 157.334987 
L 426.923572 175.598637 
L 431.511969 193.052729 
L 436.100365 209.201408 
L 438.394564 216.673036 
L 440.688762 223.701672 
L 442.98296 230.267876 
L 445.277159 236.360704 
L 447.571357 241.976996 
L 449.865555 247.120556 
L 452.159753 251.801271 
L 454.453952 256.034195 
L 456.74815 259.838618 
L 459.042348 263.237173 
L 461.336546 266.254965 
L 463.630745 268.918781 
L 465.924943 271.256358 
L 468.219141 273.295743 
L 470.513339 275.064738 
L 472.807538 276.590437 
L 475.101736 277.89885 
L 477.395934 279.014613 
L 479.690132 279.960779 
L 481.984331 280.758671 
L 486.572727 281.985897 
L 486.572727 281.985897 
" clip-path="url(#p11b372adb5)" style="fill: none; stroke: #447099; stroke-width: 1.5; stroke-linecap: square"/>
   </g>
   <g id="line2d_2">
    <path d="M 32.045193 282.45257 
L 36.593029 281.448442 
L 38.866946 280.793686 
L 41.140864 280.015828 
L 43.414782 279.096978 
L 45.688699 278.017792 
L 47.962617 276.757591 
L 50.236535 275.294552 
L 52.510452 273.605957 
L 54.78437 271.668525 
L 57.058288 269.458815 
L 59.332205 266.953709 
L 61.606123 264.130971 
L 63.88004 260.969879 
L 66.153958 257.451917 
L 68.427876 253.561519 
L 70.701793 249.286847 
L 72.975711 244.620582 
L 75.249629 239.560704 
L 77.523546 234.111243 
L 79.797464 228.282959 
L 82.071382 222.093926 
L 86.619217 208.74513 
L 91.167052 194.369346 
L 104.810558 149.95859 
L 107.084476 143.179426 
L 109.358394 136.803981 
L 111.632311 130.916015 
L 113.906229 125.59534 
L 116.180147 120.916031 
L 118.454064 116.944715 
L 120.727982 113.738996 
L 123.0019 111.346061 
L 125.275817 109.801529 
L 127.549735 109.128567 
L 129.823652 109.337312 
L 132.09757 110.424616 
L 134.371488 112.374129 
L 136.645405 115.1567 
L 138.919323 118.731113 
L 141.193241 123.045092 
L 143.467158 128.03658 
L 145.741076 133.635222 
L 148.014994 139.764007 
L 150.288911 146.341032 
L 154.836747 160.498556 
L 170.75417 212.008474 
L 175.302006 225.064986 
L 177.575923 231.086114 
L 179.849841 236.736999 
L 182.123759 242.003092 
L 184.397676 246.876897 
L 186.671594 251.357336 
L 188.945512 255.44903 
L 191.219429 259.161535 
L 193.493347 262.50855 
L 195.767264 265.507132 
L 198.041182 268.17693 
L 200.3151 270.539465 
L 202.589017 272.617464 
L 204.862935 274.434261 
L 207.136853 276.013278 
L 209.41077 277.377572 
L 211.684688 278.549473 
L 213.958606 279.550287 
L 216.232523 280.400075 
L 220.780359 281.719732 
L 225.328194 282.639552 
L 229.876029 283.266187 
L 234.423865 283.683159 
L 241.245618 284.048604 
L 250.341288 284.254257 
L 261.710876 284.265176 
L 270.806547 284.080108 
L 277.6283 283.731638 
L 282.176135 283.322371 
L 286.723971 282.693239 
L 291.271806 281.748819 
L 293.545724 281.120302 
L 295.819641 280.363054 
L 298.093559 279.455857 
L 300.367477 278.375168 
L 302.641394 277.095124 
L 304.915312 275.587607 
L 307.18923 273.822395 
L 309.463147 271.767393 
L 311.737065 269.388967 
L 314.010983 266.652381 
L 316.2849 263.52236 
L 318.558818 259.963752 
L 320.832736 255.942324 
L 323.106653 251.425662 
L 325.380571 246.384167 
L 327.654488 240.792149 
L 329.928406 234.628971 
L 332.202324 227.880239 
L 334.476241 220.538993 
L 336.750159 212.606858 
L 339.024077 204.095124 
L 341.297994 195.025705 
L 345.84583 175.35913 
L 350.393665 154.019391 
L 357.215418 120.25158 
L 361.763253 97.771509 
L 366.311089 76.446517 
L 368.585006 66.53977 
L 370.858924 57.308191 
L 373.132842 48.87515 
L 375.406759 41.356642 
L 377.680677 34.858644 
L 379.954595 29.474629 
L 382.228512 25.283337 
L 384.50243 22.346853 
L 386.776348 20.709083 
L 389.050265 20.394658 
L 391.324183 21.408317 
L 393.5981 23.734793 
L 395.872018 27.339189 
L 398.145936 32.167854 
L 400.419853 38.149711 
L 402.693771 45.197993 
L 404.967689 53.212344 
L 407.241606 62.081185 
L 409.515524 71.684298 
L 414.063359 92.585482 
L 420.885112 126.241507 
L 427.706865 159.773802 
L 432.254701 180.723737 
L 434.528618 190.5505 
L 436.802536 199.872828 
L 439.076454 208.651772 
L 441.350371 216.860108 
L 443.624289 224.481628 
L 445.898207 231.510264 
L 448.172124 237.949055 
L 450.446042 243.809028 
L 452.71996 249.108013 
L 454.993877 253.869457 
L 457.267795 258.121251 
L 459.541712 261.894606 
L 461.81563 265.223017 
L 464.089548 268.141304 
L 466.363465 270.684776 
L 468.637383 272.888502 
L 470.911301 274.786699 
L 473.185218 276.412241 
L 475.459136 277.796272 
L 477.733054 278.967933 
L 480.006971 279.95417 
L 482.280889 280.779636 
L 484.554807 281.466653 
L 484.554807 281.466653 
" clip-path="url(#p11b372adb5)" style="fill: none; stroke: #bf007f; stroke-width: 1.5; stroke-linecap: square"/>
   </g>
   <g id="line2d_3">
    <path d="M 259.601511 284.4 
L 259.601511 7.2 
" clip-path="url(#p11b372adb5)" style="fill: none; stroke-dasharray: 5.55,2.4; stroke-dashoffset: 0; stroke: #447099; stroke-width: 1.5"/>
   </g>
   <g id="line2d_4">
    <path d="M 284.590525 284.4 
L 284.590525 7.2 
" clip-path="url(#p11b372adb5)" style="fill: none; stroke-dasharray: 5.55,2.4; stroke-dashoffset: 0; stroke: #bf007f; stroke-width: 1.5"/>
   </g>
   <g id="text_1">
    <!-- B -->
    <g style="fill: #bf007f" transform="translate(128.148887 216.633496) scale(0.2 -0.2)">
     <defs>
      <path id="DejaVuSans-42" d="M 1259 2228 
L 1259 519 
L 2272 519 
Q 2781 519 3026 730 
Q 3272 941 3272 1375 
Q 3272 1813 3026 2020 
Q 2781 2228 2272 2228 
L 1259 2228 
z
M 1259 4147 
L 1259 2741 
L 2194 2741 
Q 2656 2741 2882 2914 
Q 3109 3088 3109 3444 
Q 3109 3797 2882 3972 
Q 2656 4147 2194 4147 
L 1259 4147 
z
M 628 4666 
L 2241 4666 
Q 2963 4666 3353 4366 
Q 3744 4066 3744 3513 
Q 3744 3084 3544 2831 
Q 3344 2578 2956 2516 
Q 3422 2416 3680 2098 
Q 3938 1781 3938 1306 
Q 3938 681 3513 340 
Q 3088 0 2303 0 
L 628 0 
L 628 4666 
z
" transform="scale(0.015625)"/>
     </defs>
     <use xlink:href="#DejaVuSans-42"/>
    </g>
   </g>
   <g id="text_2">
    <!-- A -->
    <g style="fill: #447099" transform="translate(388.451113 216.633496) scale(0.2 -0.2)">
     <defs>
      <path id="DejaVuSans-41" d="M 2188 4044 
L 1331 1722 
L 3047 1722 
L 2188 4044 
z
M 1831 4666 
L 2547 4666 
L 4325 0 
L 3669 0 
L 3244 1197 
L 1141 1197 
L 716 0 
L 50 0 
L 1831 4666 
z
" transform="scale(0.015625)"/>
     </defs>
     <use xlink:href="#DejaVuSans-41"/>
    </g>
   </g>
  </g>
 </g>
 <defs>
  <clipPath id="p11b372adb5">
   <rect x="7.2" y="7.2" width="502.2" height="277.2"/>
  </clipPath>
 </defs>
</svg>
