<?xml version="1.0" encoding="utf-8" standalone="no"?>
<!DOCTYPE svg PUBLIC "-//W3C//DTD SVG 1.1//EN"
  "http://www.w3.org/Graphics/SVG/1.1/DTD/svg11.dtd">
<svg xmlns:xlink="http://www.w3.org/1999/xlink" width="731.815625pt" height="455.583906pt" viewBox="0 0 731.815625 455.583906" xmlns="http://www.w3.org/2000/svg" version="1.1">
 <metadata>
  <rdf:RDF xmlns:dc="http://purl.org/dc/elements/1.1/" xmlns:cc="http://creativecommons.org/ns#" xmlns:rdf="http://www.w3.org/1999/02/22-rdf-syntax-ns#">
   <cc:Work>
    <dc:type rdf:resource="http://purl.org/dc/dcmitype/StillImage"/>
    <dc:date>2024-10-13T21:30:11.804299</dc:date>
    <dc:format>image/svg+xml</dc:format>
    <dc:creator>
     <cc:Agent>
      <dc:title>Matplotlib v3.7.2, https://matplotlib.org/</dc:title>
     </cc:Agent>
    </dc:creator>
   </cc:Work>
  </rdf:RDF>
 </metadata>
 <defs>
  <style type="text/css">*{stroke-linejoin: round; stroke-linecap: butt}</style>
 </defs>
 <g id="figure_1">
  <g id="patch_1">
   <path d="M 0 455.583906 
L 731.815625 455.583906 
L 731.815625 0 
L 0 0 
z
" style="fill: #ffffff"/>
  </g>
  <g id="axes_1">
   <g id="patch_2">
    <path d="M 55.015625 412.933125 
L 724.615625 412.933125 
L 724.615625 24.853125 
L 55.015625 24.853125 
z
" style="fill: #ffffff"/>
   </g>
   <g id="matplotlib.axis_1">
    <g id="xtick_1">
     <g id="line2d_1">
      <defs>
       <path id="me5636bbd09" d="M 0 0 
L 0 3.5 
" style="stroke: #000000; stroke-width: 0.8"/>
      </defs>
      <g>
       <use xlink:href="#me5636bbd09" x="84.827653" y="412.933125" style="stroke: #000000; stroke-width: 0.8"/>
      </g>
     </g>
     <g id="text_1">
      <!-- 0 -->
      <g transform="translate(81.646403 427.531562) scale(0.1 -0.1)">
       <defs>
        <path id="DejaVuSans-30" d="M 2034 4250 
Q 1547 4250 1301 3770 
Q 1056 3291 1056 2328 
Q 1056 1369 1301 889 
Q 1547 409 2034 409 
Q 2525 409 2770 889 
Q 3016 1369 3016 2328 
Q 3016 3291 2770 3770 
Q 2525 4250 2034 4250 
z
M 2034 4750 
Q 2819 4750 3233 4129 
Q 3647 3509 3647 2328 
Q 3647 1150 3233 529 
Q 2819 -91 2034 -91 
Q 1250 -91 836 529 
Q 422 1150 422 2328 
Q 422 3509 836 4129 
Q 1250 4750 2034 4750 
z
" transform="scale(0.015625)"/>
       </defs>
       <use xlink:href="#DejaVuSans-30"/>
      </g>
     </g>
    </g>
    <g id="xtick_2">
     <g id="line2d_2">
      <g>
       <use xlink:href="#me5636bbd09" x="209.694786" y="412.933125" style="stroke: #000000; stroke-width: 0.8"/>
      </g>
     </g>
     <g id="text_2">
      <!-- 200 -->
      <g transform="translate(200.151036 427.531562) scale(0.1 -0.1)">
       <defs>
        <path id="DejaVuSans-32" d="M 1228 531 
L 3431 531 
L 3431 0 
L 469 0 
L 469 531 
Q 828 903 1448 1529 
Q 2069 2156 2228 2338 
Q 2531 2678 2651 2914 
Q 2772 3150 2772 3378 
Q 2772 3750 2511 3984 
Q 2250 4219 1831 4219 
Q 1534 4219 1204 4116 
Q 875 4013 500 3803 
L 500 4441 
Q 881 4594 1212 4672 
Q 1544 4750 1819 4750 
Q 2544 4750 2975 4387 
Q 3406 4025 3406 3419 
Q 3406 3131 3298 2873 
Q 3191 2616 2906 2266 
Q 2828 2175 2409 1742 
Q 1991 1309 1228 531 
z
" transform="scale(0.015625)"/>
       </defs>
       <use xlink:href="#DejaVuSans-32"/>
       <use xlink:href="#DejaVuSans-30" x="63.623047"/>
       <use xlink:href="#DejaVuSans-30" x="127.246094"/>
      </g>
     </g>
    </g>
    <g id="xtick_3">
     <g id="line2d_3">
      <g>
       <use xlink:href="#me5636bbd09" x="334.561919" y="412.933125" style="stroke: #000000; stroke-width: 0.8"/>
      </g>
     </g>
     <g id="text_3">
      <!-- 400 -->
      <g transform="translate(325.018169 427.531562) scale(0.1 -0.1)">
       <defs>
        <path id="DejaVuSans-34" d="M 2419 4116 
L 825 1625 
L 2419 1625 
L 2419 4116 
z
M 2253 4666 
L 3047 4666 
L 3047 1625 
L 3713 1625 
L 3713 1100 
L 3047 1100 
L 3047 0 
L 2419 0 
L 2419 1100 
L 313 1100 
L 313 1709 
L 2253 4666 
z
" transform="scale(0.015625)"/>
       </defs>
       <use xlink:href="#DejaVuSans-34"/>
       <use xlink:href="#DejaVuSans-30" x="63.623047"/>
       <use xlink:href="#DejaVuSans-30" x="127.246094"/>
      </g>
     </g>
    </g>
    <g id="xtick_4">
     <g id="line2d_4">
      <g>
       <use xlink:href="#me5636bbd09" x="459.429052" y="412.933125" style="stroke: #000000; stroke-width: 0.8"/>
      </g>
     </g>
     <g id="text_4">
      <!-- 600 -->
      <g transform="translate(449.885302 427.531562) scale(0.1 -0.1)">
       <defs>
        <path id="DejaVuSans-36" d="M 2113 2584 
Q 1688 2584 1439 2293 
Q 1191 2003 1191 1497 
Q 1191 994 1439 701 
Q 1688 409 2113 409 
Q 2538 409 2786 701 
Q 3034 994 3034 1497 
Q 3034 2003 2786 2293 
Q 2538 2584 2113 2584 
z
M 3366 4563 
L 3366 3988 
Q 3128 4100 2886 4159 
Q 2644 4219 2406 4219 
Q 1781 4219 1451 3797 
Q 1122 3375 1075 2522 
Q 1259 2794 1537 2939 
Q 1816 3084 2150 3084 
Q 2853 3084 3261 2657 
Q 3669 2231 3669 1497 
Q 3669 778 3244 343 
Q 2819 -91 2113 -91 
Q 1303 -91 875 529 
Q 447 1150 447 2328 
Q 447 3434 972 4092 
Q 1497 4750 2381 4750 
Q 2619 4750 2861 4703 
Q 3103 4656 3366 4563 
z
" transform="scale(0.015625)"/>
       </defs>
       <use xlink:href="#DejaVuSans-36"/>
       <use xlink:href="#DejaVuSans-30" x="63.623047"/>
       <use xlink:href="#DejaVuSans-30" x="127.246094"/>
      </g>
     </g>
    </g>
    <g id="xtick_5">
     <g id="line2d_5">
      <g>
       <use xlink:href="#me5636bbd09" x="584.296184" y="412.933125" style="stroke: #000000; stroke-width: 0.8"/>
      </g>
     </g>
     <g id="text_5">
      <!-- 800 -->
      <g transform="translate(574.752434 427.531562) scale(0.1 -0.1)">
       <defs>
        <path id="DejaVuSans-38" d="M 2034 2216 
Q 1584 2216 1326 1975 
Q 1069 1734 1069 1313 
Q 1069 891 1326 650 
Q 1584 409 2034 409 
Q 2484 409 2743 651 
Q 3003 894 3003 1313 
Q 3003 1734 2745 1975 
Q 2488 2216 2034 2216 
z
M 1403 2484 
Q 997 2584 770 2862 
Q 544 3141 544 3541 
Q 544 4100 942 4425 
Q 1341 4750 2034 4750 
Q 2731 4750 3128 4425 
Q 3525 4100 3525 3541 
Q 3525 3141 3298 2862 
Q 3072 2584 2669 2484 
Q 3125 2378 3379 2068 
Q 3634 1759 3634 1313 
Q 3634 634 3220 271 
Q 2806 -91 2034 -91 
Q 1263 -91 848 271 
Q 434 634 434 1313 
Q 434 1759 690 2068 
Q 947 2378 1403 2484 
z
M 1172 3481 
Q 1172 3119 1398 2916 
Q 1625 2713 2034 2713 
Q 2441 2713 2670 2916 
Q 2900 3119 2900 3481 
Q 2900 3844 2670 4047 
Q 2441 4250 2034 4250 
Q 1625 4250 1398 4047 
Q 1172 3844 1172 3481 
z
" transform="scale(0.015625)"/>
       </defs>
       <use xlink:href="#DejaVuSans-38"/>
       <use xlink:href="#DejaVuSans-30" x="63.623047"/>
       <use xlink:href="#DejaVuSans-30" x="127.246094"/>
      </g>
     </g>
    </g>
    <g id="xtick_6">
     <g id="line2d_6">
      <g>
       <use xlink:href="#me5636bbd09" x="709.163317" y="412.933125" style="stroke: #000000; stroke-width: 0.8"/>
      </g>
     </g>
     <g id="text_6">
      <!-- 1000 -->
      <g transform="translate(696.438317 427.531562) scale(0.1 -0.1)">
       <defs>
        <path id="DejaVuSans-31" d="M 794 531 
L 1825 531 
L 1825 4091 
L 703 3866 
L 703 4441 
L 1819 4666 
L 2450 4666 
L 2450 531 
L 3481 531 
L 3481 0 
L 794 0 
L 794 531 
z
" transform="scale(0.015625)"/>
       </defs>
       <use xlink:href="#DejaVuSans-31"/>
       <use xlink:href="#DejaVuSans-30" x="63.623047"/>
       <use xlink:href="#DejaVuSans-30" x="127.246094"/>
       <use xlink:href="#DejaVuSans-30" x="190.869141"/>
      </g>
     </g>
    </g>
    <g id="text_7">
     <!-- Розмір вибірки -->
     <g transform="translate(331.661328 445.264375) scale(0.15 -0.15)">
      <defs>
       <path id="DejaVuSans-420" d="M 1259 4147 
L 1259 2394 
L 2053 2394 
Q 2494 2394 2734 2622 
Q 2975 2850 2975 3272 
Q 2975 3691 2734 3919 
Q 2494 4147 2053 4147 
L 1259 4147 
z
M 628 4666 
L 2053 4666 
Q 2838 4666 3239 4311 
Q 3641 3956 3641 3272 
Q 3641 2581 3239 2228 
Q 2838 1875 2053 1875 
L 1259 1875 
L 1259 0 
L 628 0 
L 628 4666 
z
" transform="scale(0.015625)"/>
       <path id="DejaVuSans-43e" d="M 1959 3097 
Q 1497 3097 1228 2736 
Q 959 2375 959 1747 
Q 959 1119 1226 758 
Q 1494 397 1959 397 
Q 2419 397 2687 759 
Q 2956 1122 2956 1747 
Q 2956 2369 2687 2733 
Q 2419 3097 1959 3097 
z
M 1959 3584 
Q 2709 3584 3137 3096 
Q 3566 2609 3566 1747 
Q 3566 888 3137 398 
Q 2709 -91 1959 -91 
Q 1206 -91 779 398 
Q 353 888 353 1747 
Q 353 2609 779 3096 
Q 1206 3584 1959 3584 
z
" transform="scale(0.015625)"/>
       <path id="DejaVuSans-437" d="M 2206 1888 
Q 2594 1813 2809 1584 
Q 3025 1356 3025 1019 
Q 3025 478 2622 193 
Q 2219 -91 1475 -91 
Q 1225 -91 961 -47 
Q 697 -3 416 84 
L 416 619 
Q 638 503 903 445 
Q 1169 388 1459 388 
Q 1931 388 2195 563 
Q 2459 738 2459 1019 
Q 2459 1294 2225 1461 
Q 1991 1628 1563 1628 
L 1100 1628 
L 1100 2103 
L 1584 2103 
Q 1947 2103 2158 2242 
Q 2369 2381 2369 2600 
Q 2369 2800 2151 2944 
Q 1934 3088 1563 3088 
Q 1341 3088 1089 3047 
Q 838 3006 534 2916 
L 534 3438 
Q 841 3513 1106 3550 
Q 1372 3588 1609 3588 
Q 2222 3588 2576 3342 
Q 2931 3097 2931 2656 
Q 2931 2366 2743 2164 
Q 2556 1963 2206 1888 
z
" transform="scale(0.015625)"/>
       <path id="DejaVuSans-43c" d="M 581 3500 
L 1422 3500 
L 2416 1156 
L 3413 3500 
L 4247 3500 
L 4247 0 
L 3669 0 
L 3669 2950 
L 2703 672 
L 2128 672 
L 1159 2950 
L 1159 0 
L 581 0 
L 581 3500 
z
" transform="scale(0.015625)"/>
       <path id="DejaVuSans-456" d="M 603 3500 
L 1178 3500 
L 1178 0 
L 603 0 
L 603 3500 
z
M 603 4863 
L 1178 4863 
L 1178 4134 
L 603 4134 
L 603 4863 
z
" transform="scale(0.015625)"/>
       <path id="DejaVuSans-440" d="M 1159 525 
L 1159 -1331 
L 581 -1331 
L 581 3500 
L 1159 3500 
L 1159 2969 
Q 1341 3281 1617 3432 
Q 1894 3584 2278 3584 
Q 2916 3584 3314 3078 
Q 3713 2572 3713 1747 
Q 3713 922 3314 415 
Q 2916 -91 2278 -91 
Q 1894 -91 1617 61 
Q 1341 213 1159 525 
z
M 3116 1747 
Q 3116 2381 2855 2742 
Q 2594 3103 2138 3103 
Q 1681 3103 1420 2742 
Q 1159 2381 1159 1747 
Q 1159 1113 1420 752 
Q 1681 391 2138 391 
Q 2594 391 2855 752 
Q 3116 1113 3116 1747 
z
" transform="scale(0.015625)"/>
       <path id="DejaVuSans-20" transform="scale(0.015625)"/>
       <path id="DejaVuSans-432" d="M 1156 1613 
L 1156 459 
L 1975 459 
Q 2369 459 2575 607 
Q 2781 756 2781 1038 
Q 2781 1319 2575 1466 
Q 2369 1613 1975 1613 
L 1156 1613 
z
M 1156 3041 
L 1156 2072 
L 1913 2072 
Q 2238 2072 2444 2201 
Q 2650 2331 2650 2563 
Q 2650 2794 2444 2917 
Q 2238 3041 1913 3041 
L 1156 3041 
z
M 581 3500 
L 1950 3500 
Q 2566 3500 2897 3275 
Q 3228 3050 3228 2634 
Q 3228 2313 3059 2123 
Q 2891 1934 2559 1888 
Q 2956 1813 3175 1575 
Q 3394 1338 3394 981 
Q 3394 513 3033 256 
Q 2672 0 2003 0 
L 581 0 
L 581 3500 
z
" transform="scale(0.015625)"/>
       <path id="DejaVuSans-438" d="M 3578 3500 
L 3578 0 
L 3006 0 
L 3006 2809 
L 1319 0 
L 581 0 
L 581 3500 
L 1153 3500 
L 1153 697 
L 2838 3500 
L 3578 3500 
z
" transform="scale(0.015625)"/>
       <path id="DejaVuSans-431" d="M 1991 3584 
Q 2741 3584 3169 3096 
Q 3597 2609 3597 1747 
Q 3597 888 3169 398 
Q 2741 -91 1991 -91 
Q 1238 -91 822 384 
Q 406 859 384 1747 
L 366 2463 
Q 350 2834 350 2963 
Q 350 3463 531 3831 
Q 816 4409 1308 4659 
Q 1800 4909 2625 4916 
Q 3006 4919 3175 4972 
L 3334 4516 
Q 3181 4453 3041 4450 
L 2259 4397 
Q 1866 4369 1628 4231 
Q 1006 3866 947 3388 
L 925 3213 
Q 1331 3584 1991 3584 
z
M 1991 3097 
Q 1528 3097 1259 2736 
Q 991 2375 991 1747 
Q 991 1119 1258 758 
Q 1525 397 1991 397 
Q 2450 397 2719 759 
Q 2988 1122 2988 1747 
Q 2988 2369 2719 2733 
Q 2450 3097 1991 3097 
z
" transform="scale(0.015625)"/>
       <path id="DejaVuSans-43a" d="M 581 3500 
L 1153 3500 
L 1153 1856 
L 2775 3500 
L 3481 3500 
L 2144 2147 
L 3653 0 
L 3009 0 
L 1769 1766 
L 1153 1141 
L 1153 0 
L 581 0 
L 581 3500 
z
" transform="scale(0.015625)"/>
      </defs>
      <use xlink:href="#DejaVuSans-420"/>
      <use xlink:href="#DejaVuSans-43e" x="60.302734"/>
      <use xlink:href="#DejaVuSans-437" x="121.484375"/>
      <use xlink:href="#DejaVuSans-43c" x="174.658203"/>
      <use xlink:href="#DejaVuSans-456" x="250.097656"/>
      <use xlink:href="#DejaVuSans-440" x="277.880859"/>
      <use xlink:href="#DejaVuSans-20" x="341.357422"/>
      <use xlink:href="#DejaVuSans-432" x="373.144531"/>
      <use xlink:href="#DejaVuSans-438" x="432.080078"/>
      <use xlink:href="#DejaVuSans-431" x="497.070312"/>
      <use xlink:href="#DejaVuSans-456" x="558.740234"/>
      <use xlink:href="#DejaVuSans-440" x="586.523438"/>
      <use xlink:href="#DejaVuSans-43a" x="650"/>
      <use xlink:href="#DejaVuSans-438" x="710.400391"/>
     </g>
    </g>
   </g>
   <g id="matplotlib.axis_2">
    <g id="ytick_1">
     <g id="line2d_7">
      <defs>
       <path id="mc5ff28850a" d="M 0 0 
L -3.5 0 
" style="stroke: #000000; stroke-width: 0.8"/>
      </defs>
      <g>
       <use xlink:href="#mc5ff28850a" x="55.015625" y="382.541318" style="stroke: #000000; stroke-width: 0.8"/>
      </g>
     </g>
     <g id="text_8">
      <!-- 0.92 -->
      <g transform="translate(25.75 386.340537) scale(0.1 -0.1)">
       <defs>
        <path id="DejaVuSans-2e" d="M 684 794 
L 1344 794 
L 1344 0 
L 684 0 
L 684 794 
z
" transform="scale(0.015625)"/>
        <path id="DejaVuSans-39" d="M 703 97 
L 703 672 
Q 941 559 1184 500 
Q 1428 441 1663 441 
Q 2288 441 2617 861 
Q 2947 1281 2994 2138 
Q 2813 1869 2534 1725 
Q 2256 1581 1919 1581 
Q 1219 1581 811 2004 
Q 403 2428 403 3163 
Q 403 3881 828 4315 
Q 1253 4750 1959 4750 
Q 2769 4750 3195 4129 
Q 3622 3509 3622 2328 
Q 3622 1225 3098 567 
Q 2575 -91 1691 -91 
Q 1453 -91 1209 -44 
Q 966 3 703 97 
z
M 1959 2075 
Q 2384 2075 2632 2365 
Q 2881 2656 2881 3163 
Q 2881 3666 2632 3958 
Q 2384 4250 1959 4250 
Q 1534 4250 1286 3958 
Q 1038 3666 1038 3163 
Q 1038 2656 1286 2365 
Q 1534 2075 1959 2075 
z
" transform="scale(0.015625)"/>
       </defs>
       <use xlink:href="#DejaVuSans-30"/>
       <use xlink:href="#DejaVuSans-2e" x="63.623047"/>
       <use xlink:href="#DejaVuSans-39" x="95.410156"/>
       <use xlink:href="#DejaVuSans-32" x="159.033203"/>
      </g>
     </g>
    </g>
    <g id="ytick_2">
     <g id="line2d_8">
      <g>
       <use xlink:href="#mc5ff28850a" x="55.015625" y="297.52927" style="stroke: #000000; stroke-width: 0.8"/>
      </g>
     </g>
     <g id="text_9">
      <!-- 0.94 -->
      <g transform="translate(25.75 301.328488) scale(0.1 -0.1)">
       <use xlink:href="#DejaVuSans-30"/>
       <use xlink:href="#DejaVuSans-2e" x="63.623047"/>
       <use xlink:href="#DejaVuSans-39" x="95.410156"/>
       <use xlink:href="#DejaVuSans-34" x="159.033203"/>
      </g>
     </g>
    </g>
    <g id="ytick_3">
     <g id="line2d_9">
      <g>
       <use xlink:href="#mc5ff28850a" x="55.015625" y="212.517221" style="stroke: #000000; stroke-width: 0.8"/>
      </g>
     </g>
     <g id="text_10">
      <!-- 0.96 -->
      <g transform="translate(25.75 216.31644) scale(0.1 -0.1)">
       <use xlink:href="#DejaVuSans-30"/>
       <use xlink:href="#DejaVuSans-2e" x="63.623047"/>
       <use xlink:href="#DejaVuSans-39" x="95.410156"/>
       <use xlink:href="#DejaVuSans-36" x="159.033203"/>
      </g>
     </g>
    </g>
    <g id="ytick_4">
     <g id="line2d_10">
      <g>
       <use xlink:href="#mc5ff28850a" x="55.015625" y="127.505173" style="stroke: #000000; stroke-width: 0.8"/>
      </g>
     </g>
     <g id="text_11">
      <!-- 0.98 -->
      <g transform="translate(25.75 131.304392) scale(0.1 -0.1)">
       <use xlink:href="#DejaVuSans-30"/>
       <use xlink:href="#DejaVuSans-2e" x="63.623047"/>
       <use xlink:href="#DejaVuSans-39" x="95.410156"/>
       <use xlink:href="#DejaVuSans-38" x="159.033203"/>
      </g>
     </g>
    </g>
    <g id="ytick_5">
     <g id="line2d_11">
      <g>
       <use xlink:href="#mc5ff28850a" x="55.015625" y="42.493125" style="stroke: #000000; stroke-width: 0.8"/>
      </g>
     </g>
     <g id="text_12">
      <!-- 1.00 -->
      <g transform="translate(25.75 46.292344) scale(0.1 -0.1)">
       <use xlink:href="#DejaVuSans-31"/>
       <use xlink:href="#DejaVuSans-2e" x="63.623047"/>
       <use xlink:href="#DejaVuSans-30" x="95.410156"/>
       <use xlink:href="#DejaVuSans-30" x="159.033203"/>
      </g>
     </g>
    </g>
    <g id="text_13">
     <!-- Частка влучень $\mu$ в інтервал -->
     <g transform="translate(18.6 331.543125) rotate(-90) scale(0.15 -0.15)">
      <defs>
       <path id="DejaVuSans-427" d="M 3125 0 
L 3125 1913 
L 1822 1913 
Q 1241 1913 894 2277 
Q 547 2641 547 3384 
L 547 4666 
L 1175 4666 
L 1175 3434 
Q 1175 2938 1369 2691 
Q 1563 2444 1950 2444 
L 3125 2444 
L 3125 4666 
L 3759 4666 
L 3759 0 
L 3125 0 
z
" transform="scale(0.015625)"/>
       <path id="DejaVuSans-430" d="M 2194 1759 
Q 1497 1759 1228 1600 
Q 959 1441 959 1056 
Q 959 750 1161 570 
Q 1363 391 1709 391 
Q 2188 391 2477 730 
Q 2766 1069 2766 1631 
L 2766 1759 
L 2194 1759 
z
M 3341 1997 
L 3341 0 
L 2766 0 
L 2766 531 
Q 2569 213 2275 61 
Q 1981 -91 1556 -91 
Q 1019 -91 701 211 
Q 384 513 384 1019 
Q 384 1609 779 1909 
Q 1175 2209 1959 2209 
L 2766 2209 
L 2766 2266 
Q 2766 2663 2505 2880 
Q 2244 3097 1772 3097 
Q 1472 3097 1187 3025 
Q 903 2953 641 2809 
L 641 3341 
Q 956 3463 1253 3523 
Q 1550 3584 1831 3584 
Q 2591 3584 2966 3190 
Q 3341 2797 3341 1997 
z
" transform="scale(0.015625)"/>
       <path id="DejaVuSans-441" d="M 3122 3366 
L 3122 2828 
Q 2878 2963 2633 3030 
Q 2388 3097 2138 3097 
Q 1578 3097 1268 2742 
Q 959 2388 959 1747 
Q 959 1106 1268 751 
Q 1578 397 2138 397 
Q 2388 397 2633 464 
Q 2878 531 3122 666 
L 3122 134 
Q 2881 22 2623 -34 
Q 2366 -91 2075 -91 
Q 1284 -91 818 406 
Q 353 903 353 1747 
Q 353 2603 823 3093 
Q 1294 3584 2113 3584 
Q 2378 3584 2631 3529 
Q 2884 3475 3122 3366 
z
" transform="scale(0.015625)"/>
       <path id="DejaVuSans-442" d="M 188 3500 
L 3541 3500 
L 3541 3041 
L 2147 3041 
L 2147 0 
L 1581 0 
L 1581 3041 
L 188 3041 
L 188 3500 
z
" transform="scale(0.015625)"/>
       <path id="DejaVuSans-43b" d="M 238 0 
L 238 478 
Q 806 566 981 959 
Q 1194 1513 1194 2928 
L 1194 3500 
L 3559 3500 
L 3559 0 
L 2984 0 
L 2984 3041 
L 1769 3041 
L 1769 2694 
Q 1769 1344 1494 738 
Q 1200 91 238 0 
z
" transform="scale(0.015625)"/>
       <path id="DejaVuSans-443" d="M 2059 -325 
Q 1816 -950 1584 -1140 
Q 1353 -1331 966 -1331 
L 506 -1331 
L 506 -850 
L 844 -850 
Q 1081 -850 1212 -737 
Q 1344 -625 1503 -206 
L 1606 56 
L 191 3500 
L 800 3500 
L 1894 763 
L 2988 3500 
L 3597 3500 
L 2059 -325 
z
" transform="scale(0.015625)"/>
       <path id="DejaVuSans-447" d="M 2625 0 
L 2625 1472 
L 1553 1472 
Q 1075 1472 756 1769 
Q 469 2038 469 2613 
L 469 3500 
L 1044 3500 
L 1044 2666 
Q 1044 2300 1206 2116 
Q 1372 1931 1697 1931 
L 2625 1931 
L 2625 3500 
L 3200 3500 
L 3200 0 
L 2625 0 
z
" transform="scale(0.015625)"/>
       <path id="DejaVuSans-435" d="M 3597 1894 
L 3597 1613 
L 953 1613 
Q 991 1019 1311 708 
Q 1631 397 2203 397 
Q 2534 397 2845 478 
Q 3156 559 3463 722 
L 3463 178 
Q 3153 47 2828 -22 
Q 2503 -91 2169 -91 
Q 1331 -91 842 396 
Q 353 884 353 1716 
Q 353 2575 817 3079 
Q 1281 3584 2069 3584 
Q 2775 3584 3186 3129 
Q 3597 2675 3597 1894 
z
M 3022 2063 
Q 3016 2534 2758 2815 
Q 2500 3097 2075 3097 
Q 1594 3097 1305 2825 
Q 1016 2553 972 2059 
L 3022 2063 
z
" transform="scale(0.015625)"/>
       <path id="DejaVuSans-43d" d="M 581 3500 
L 1159 3500 
L 1159 2072 
L 3025 2072 
L 3025 3500 
L 3603 3500 
L 3603 0 
L 3025 0 
L 3025 1613 
L 1159 1613 
L 1159 0 
L 581 0 
L 581 3500 
z
" transform="scale(0.015625)"/>
       <path id="DejaVuSans-44c" d="M 2781 1038 
Q 2781 1319 2576 1466 
Q 2372 1613 1978 1613 
L 1159 1613 
L 1159 459 
L 1978 459 
Q 2372 459 2576 607 
Q 2781 756 2781 1038 
z
M 581 3500 
L 1159 3500 
L 1159 2072 
L 2003 2072 
Q 2672 2072 3033 1817 
Q 3394 1563 3394 1038 
Q 3394 513 3033 256 
Q 2672 0 2003 0 
L 581 0 
L 581 3500 
z
" transform="scale(0.015625)"/>
       <path id="DejaVuSans-Oblique-3bc" d="M -84 -1331 
L 856 3500 
L 1434 3500 
L 1009 1322 
Q 997 1256 987 1175 
Q 978 1094 978 1013 
Q 978 722 1161 565 
Q 1344 409 1684 409 
Q 2147 409 2431 671 
Q 2716 934 2816 1459 
L 3213 3500 
L 3788 3500 
L 3266 809 
Q 3253 750 3248 706 
Q 3244 663 3244 628 
Q 3244 531 3283 486 
Q 3322 441 3406 441 
Q 3438 441 3492 456 
Q 3547 472 3647 513 
L 3559 50 
Q 3422 -19 3297 -55 
Q 3172 -91 3053 -91 
Q 2847 -91 2730 40 
Q 2613 172 2613 403 
Q 2438 153 2195 31 
Q 1953 -91 1625 -91 
Q 1334 -91 1117 43 
Q 900 178 831 397 
L 494 -1331 
L -84 -1331 
z
" transform="scale(0.015625)"/>
      </defs>
      <use xlink:href="#DejaVuSans-427" transform="translate(0 0.015625)"/>
      <use xlink:href="#DejaVuSans-430" transform="translate(68.554688 0.015625)"/>
      <use xlink:href="#DejaVuSans-441" transform="translate(129.833984 0.015625)"/>
      <use xlink:href="#DejaVuSans-442" transform="translate(184.814453 0.015625)"/>
      <use xlink:href="#DejaVuSans-43a" transform="translate(243.066406 0.015625)"/>
      <use xlink:href="#DejaVuSans-430" transform="translate(303.466797 0.015625)"/>
      <use xlink:href="#DejaVuSans-20" transform="translate(364.746094 0.015625)"/>
      <use xlink:href="#DejaVuSans-432" transform="translate(396.533203 0.015625)"/>
      <use xlink:href="#DejaVuSans-43b" transform="translate(455.46875 0.015625)"/>
      <use xlink:href="#DejaVuSans-443" transform="translate(519.384766 0.015625)"/>
      <use xlink:href="#DejaVuSans-447" transform="translate(578.564453 0.015625)"/>
      <use xlink:href="#DejaVuSans-435" transform="translate(637.646484 0.015625)"/>
      <use xlink:href="#DejaVuSans-43d" transform="translate(699.169922 0.015625)"/>
      <use xlink:href="#DejaVuSans-44c" transform="translate(764.550781 0.015625)"/>
      <use xlink:href="#DejaVuSans-20" transform="translate(823.486328 0.015625)"/>
      <use xlink:href="#DejaVuSans-Oblique-3bc" transform="translate(855.273438 0.015625)"/>
      <use xlink:href="#DejaVuSans-20" transform="translate(918.896484 0.015625)"/>
      <use xlink:href="#DejaVuSans-432" transform="translate(950.683594 0.015625)"/>
      <use xlink:href="#DejaVuSans-20" transform="translate(1009.619141 0.015625)"/>
      <use xlink:href="#DejaVuSans-456" transform="translate(1041.40625 0.015625)"/>
      <use xlink:href="#DejaVuSans-43d" transform="translate(1069.189453 0.015625)"/>
      <use xlink:href="#DejaVuSans-442" transform="translate(1134.570312 0.015625)"/>
      <use xlink:href="#DejaVuSans-435" transform="translate(1192.822266 0.015625)"/>
      <use xlink:href="#DejaVuSans-440" transform="translate(1254.345703 0.015625)"/>
      <use xlink:href="#DejaVuSans-432" transform="translate(1317.822266 0.015625)"/>
      <use xlink:href="#DejaVuSans-430" transform="translate(1376.757812 0.015625)"/>
      <use xlink:href="#DejaVuSans-43b" transform="translate(1438.037109 0.015625)"/>
     </g>
    </g>
   </g>
   <g id="line2d_12">
    <path d="M 85.451989 42.493125 
L 101.06038 395.293125 
L 116.668772 259.273848 
L 132.277163 233.770233 
L 147.885555 250.772643 
L 163.493947 191.264209 
L 179.102338 259.273848 
L 194.71073 225.269029 
L 210.319122 267.775053 
L 225.927513 208.266619 
L 241.535905 165.760595 
L 257.144296 259.273848 
L 272.752688 242.271438 
L 288.36108 318.782282 
L 303.969471 365.538908 
L 319.577863 182.763005 
L 335.186254 246.522041 
L 350.794646 212.517221 
L 366.403038 208.266619 
L 382.011429 225.269029 
L 397.619821 263.52445 
L 413.228212 199.765414 
L 428.836604 238.020836 
L 444.444996 259.273848 
L 460.053387 233.770233 
L 475.661779 323.032884 
L 491.27017 310.281077 
L 506.878562 242.271438 
L 522.486954 225.269029 
L 538.095345 229.519631 
L 553.703737 242.271438 
L 569.312128 263.52445 
L 584.92052 199.765414 
L 600.528912 208.266619 
L 616.137303 267.775053 
L 631.745695 259.273848 
L 647.354087 242.271438 
L 662.962478 216.767824 
L 678.57087 267.775053 
L 694.179261 225.269029 
" clip-path="url(#pe2c9fb4803)" style="fill: none; stroke: #1f77b4; stroke-width: 1.5; stroke-linecap: square"/>
   </g>
   <g id="line2d_13">
    <path d="M 55.015625 255.023245 
L 724.615625 255.023245 
" clip-path="url(#pe2c9fb4803)" style="fill: none; stroke-dasharray: 5.55,2.4; stroke-dashoffset: 0; stroke: #ff0000; stroke-width: 1.5"/>
   </g>
   <g id="patch_3">
    <path d="M 55.015625 412.933125 
L 55.015625 24.853125 
" style="fill: none; stroke: #000000; stroke-width: 0.8; stroke-linejoin: miter; stroke-linecap: square"/>
   </g>
   <g id="patch_4">
    <path d="M 724.615625 412.933125 
L 724.615625 24.853125 
" style="fill: none; stroke: #000000; stroke-width: 0.8; stroke-linejoin: miter; stroke-linecap: square"/>
   </g>
   <g id="patch_5">
    <path d="M 55.015625 412.933125 
L 724.615625 412.933125 
" style="fill: none; stroke: #000000; stroke-width: 0.8; stroke-linejoin: miter; stroke-linecap: square"/>
   </g>
   <g id="patch_6">
    <path d="M 55.015625 24.853125 
L 724.615625 24.853125 
" style="fill: none; stroke: #000000; stroke-width: 0.8; stroke-linejoin: miter; stroke-linecap: square"/>
   </g>
   <g id="text_14">
    <!-- Успішність довірчого інтервалу Вілсона за різного розміру вибірки -->
    <g transform="translate(124.992969 18.853125) scale(0.15 -0.15)">
     <defs>
      <path id="DejaVuSans-423" d="M 2047 566 
Q 1981 409 1881 291 
Q 1634 0 850 0 
L 609 0 
L 609 531 
L 806 531 
Q 1178 531 1322 616 
Q 1409 669 1466 800 
L 1606 1131 
L 109 4666 
L 788 4666 
L 1947 1928 
L 3113 4666 
L 3791 4666 
L 2047 566 
z
" transform="scale(0.015625)"/>
      <path id="DejaVuSans-43f" d="M 3603 3500 
L 3603 0 
L 3025 0 
L 3025 3041 
L 1159 3041 
L 1159 0 
L 581 0 
L 581 3500 
L 3603 3500 
z
" transform="scale(0.015625)"/>
      <path id="DejaVuSans-448" d="M 3216 459 
L 4697 459 
L 4697 3500 
L 5275 3500 
L 5275 0 
L 581 0 
L 581 3500 
L 1159 3500 
L 1159 459 
L 2638 459 
L 2638 3500 
L 3216 3500 
L 3216 459 
z
" transform="scale(0.015625)"/>
      <path id="DejaVuSans-434" d="M 1384 459 
L 3053 459 
L 3053 3041 
L 1844 3041 
L 1844 2603 
Q 1844 1316 1475 628 
L 1384 459 
z
M 550 459 
Q 834 584 959 850 
Q 1266 1509 1266 2838 
L 1266 3500 
L 3631 3500 
L 3631 459 
L 4091 459 
L 4091 -884 
L 3631 -884 
L 3631 0 
L 794 0 
L 794 -884 
L 334 -884 
L 334 459 
L 550 459 
z
" transform="scale(0.015625)"/>
      <path id="DejaVuSans-433" d="M 581 0 
L 581 3500 
L 3050 3500 
L 3050 3041 
L 1159 3041 
L 1159 0 
L 581 0 
z
" transform="scale(0.015625)"/>
      <path id="DejaVuSans-412" d="M 1259 2228 
L 1259 519 
L 2272 519 
Q 2781 519 3026 730 
Q 3272 941 3272 1375 
Q 3272 1813 3026 2020 
Q 2781 2228 2272 2228 
L 1259 2228 
z
M 1259 4147 
L 1259 2741 
L 2194 2741 
Q 2656 2741 2882 2914 
Q 3109 3088 3109 3444 
Q 3109 3797 2882 3972 
Q 2656 4147 2194 4147 
L 1259 4147 
z
M 628 4666 
L 2241 4666 
Q 2963 4666 3353 4366 
Q 3744 4066 3744 3513 
Q 3744 3084 3544 2831 
Q 3344 2578 2956 2516 
Q 3422 2416 3680 2098 
Q 3938 1781 3938 1306 
Q 3938 681 3513 340 
Q 3088 0 2303 0 
L 628 0 
L 628 4666 
z
" transform="scale(0.015625)"/>
     </defs>
     <use xlink:href="#DejaVuSans-423"/>
     <use xlink:href="#DejaVuSans-441" x="60.9375"/>
     <use xlink:href="#DejaVuSans-43f" x="115.917969"/>
     <use xlink:href="#DejaVuSans-456" x="181.298828"/>
     <use xlink:href="#DejaVuSans-448" x="209.082031"/>
     <use xlink:href="#DejaVuSans-43d" x="300.585938"/>
     <use xlink:href="#DejaVuSans-456" x="365.966797"/>
     <use xlink:href="#DejaVuSans-441" x="393.75"/>
     <use xlink:href="#DejaVuSans-442" x="448.730469"/>
     <use xlink:href="#DejaVuSans-44c" x="506.982422"/>
     <use xlink:href="#DejaVuSans-20" x="565.917969"/>
     <use xlink:href="#DejaVuSans-434" x="597.705078"/>
     <use xlink:href="#DejaVuSans-43e" x="666.845703"/>
     <use xlink:href="#DejaVuSans-432" x="728.027344"/>
     <use xlink:href="#DejaVuSans-456" x="786.962891"/>
     <use xlink:href="#DejaVuSans-440" x="814.746094"/>
     <use xlink:href="#DejaVuSans-447" x="878.222656"/>
     <use xlink:href="#DejaVuSans-43e" x="937.304688"/>
     <use xlink:href="#DejaVuSans-433" x="998.486328"/>
     <use xlink:href="#DejaVuSans-43e" x="1051.025391"/>
     <use xlink:href="#DejaVuSans-20" x="1112.207031"/>
     <use xlink:href="#DejaVuSans-456" x="1143.994141"/>
     <use xlink:href="#DejaVuSans-43d" x="1171.777344"/>
     <use xlink:href="#DejaVuSans-442" x="1237.158203"/>
     <use xlink:href="#DejaVuSans-435" x="1295.410156"/>
     <use xlink:href="#DejaVuSans-440" x="1356.933594"/>
     <use xlink:href="#DejaVuSans-432" x="1420.410156"/>
     <use xlink:href="#DejaVuSans-430" x="1479.345703"/>
     <use xlink:href="#DejaVuSans-43b" x="1540.625"/>
     <use xlink:href="#DejaVuSans-443" x="1604.541016"/>
     <use xlink:href="#DejaVuSans-20" x="1663.720703"/>
     <use xlink:href="#DejaVuSans-412" x="1695.507812"/>
     <use xlink:href="#DejaVuSans-456" x="1764.111328"/>
     <use xlink:href="#DejaVuSans-43b" x="1791.894531"/>
     <use xlink:href="#DejaVuSans-441" x="1855.810547"/>
     <use xlink:href="#DejaVuSans-43e" x="1910.791016"/>
     <use xlink:href="#DejaVuSans-43d" x="1971.972656"/>
     <use xlink:href="#DejaVuSans-430" x="2037.353516"/>
     <use xlink:href="#DejaVuSans-20" x="2098.632812"/>
     <use xlink:href="#DejaVuSans-437" x="2130.419922"/>
     <use xlink:href="#DejaVuSans-430" x="2183.59375"/>
     <use xlink:href="#DejaVuSans-20" x="2244.873047"/>
     <use xlink:href="#DejaVuSans-440" x="2276.660156"/>
     <use xlink:href="#DejaVuSans-456" x="2340.136719"/>
     <use xlink:href="#DejaVuSans-437" x="2367.919922"/>
     <use xlink:href="#DejaVuSans-43d" x="2421.09375"/>
     <use xlink:href="#DejaVuSans-43e" x="2486.474609"/>
     <use xlink:href="#DejaVuSans-433" x="2547.65625"/>
     <use xlink:href="#DejaVuSans-43e" x="2600.195312"/>
     <use xlink:href="#DejaVuSans-20" x="2661.376953"/>
     <use xlink:href="#DejaVuSans-440" x="2693.164062"/>
     <use xlink:href="#DejaVuSans-43e" x="2756.640625"/>
     <use xlink:href="#DejaVuSans-437" x="2817.822266"/>
     <use xlink:href="#DejaVuSans-43c" x="2870.996094"/>
     <use xlink:href="#DejaVuSans-456" x="2946.435547"/>
     <use xlink:href="#DejaVuSans-440" x="2974.21875"/>
     <use xlink:href="#DejaVuSans-443" x="3037.695312"/>
     <use xlink:href="#DejaVuSans-20" x="3096.875"/>
     <use xlink:href="#DejaVuSans-432" x="3128.662109"/>
     <use xlink:href="#DejaVuSans-438" x="3187.597656"/>
     <use xlink:href="#DejaVuSans-431" x="3252.587891"/>
     <use xlink:href="#DejaVuSans-456" x="3314.257812"/>
     <use xlink:href="#DejaVuSans-440" x="3342.041016"/>
     <use xlink:href="#DejaVuSans-43a" x="3405.517578"/>
     <use xlink:href="#DejaVuSans-438" x="3465.917969"/>
    </g>
   </g>
   <g id="legend_1">
    <g id="patch_7">
     <path d="M 440.850781 80.8875 
L 714.115625 80.8875 
Q 717.115625 80.8875 717.115625 77.8875 
L 717.115625 35.353125 
Q 717.115625 32.353125 714.115625 32.353125 
L 440.850781 32.353125 
Q 437.850781 32.353125 437.850781 35.353125 
L 437.850781 77.8875 
Q 437.850781 80.8875 440.850781 80.8875 
z
" style="fill: #ffffff; opacity: 0.8; stroke: #cccccc; stroke-linejoin: miter"/>
    </g>
    <g id="line2d_14">
     <path d="M 443.850781 44.500781 
L 458.850781 44.500781 
L 473.850781 44.500781 
" style="fill: none; stroke: #1f77b4; stroke-width: 1.5; stroke-linecap: square"/>
    </g>
    <g id="text_15">
     <!-- Успішність в експериментах -->
     <g transform="translate(485.850781 49.750781) scale(0.15 -0.15)">
      <defs>
       <path id="DejaVuSans-445" d="M 3513 3500 
L 2247 1797 
L 3578 0 
L 2900 0 
L 1881 1375 
L 863 0 
L 184 0 
L 1544 1831 
L 300 3500 
L 978 3500 
L 1906 2253 
L 2834 3500 
L 3513 3500 
z
" transform="scale(0.015625)"/>
      </defs>
      <use xlink:href="#DejaVuSans-423"/>
      <use xlink:href="#DejaVuSans-441" x="60.9375"/>
      <use xlink:href="#DejaVuSans-43f" x="115.917969"/>
      <use xlink:href="#DejaVuSans-456" x="181.298828"/>
      <use xlink:href="#DejaVuSans-448" x="209.082031"/>
      <use xlink:href="#DejaVuSans-43d" x="300.585938"/>
      <use xlink:href="#DejaVuSans-456" x="365.966797"/>
      <use xlink:href="#DejaVuSans-441" x="393.75"/>
      <use xlink:href="#DejaVuSans-442" x="448.730469"/>
      <use xlink:href="#DejaVuSans-44c" x="506.982422"/>
      <use xlink:href="#DejaVuSans-20" x="565.917969"/>
      <use xlink:href="#DejaVuSans-432" x="597.705078"/>
      <use xlink:href="#DejaVuSans-20" x="656.640625"/>
      <use xlink:href="#DejaVuSans-435" x="688.427734"/>
      <use xlink:href="#DejaVuSans-43a" x="749.951172"/>
      <use xlink:href="#DejaVuSans-441" x="810.351562"/>
      <use xlink:href="#DejaVuSans-43f" x="865.332031"/>
      <use xlink:href="#DejaVuSans-435" x="930.712891"/>
      <use xlink:href="#DejaVuSans-440" x="992.236328"/>
      <use xlink:href="#DejaVuSans-438" x="1055.712891"/>
      <use xlink:href="#DejaVuSans-43c" x="1120.703125"/>
      <use xlink:href="#DejaVuSans-435" x="1196.142578"/>
      <use xlink:href="#DejaVuSans-43d" x="1257.666016"/>
      <use xlink:href="#DejaVuSans-442" x="1323.046875"/>
      <use xlink:href="#DejaVuSans-430" x="1381.298828"/>
      <use xlink:href="#DejaVuSans-445" x="1442.578125"/>
     </g>
    </g>
    <g id="line2d_15">
     <path d="M 443.850781 66.517969 
L 458.850781 66.517969 
L 473.850781 66.517969 
" style="fill: none; stroke-dasharray: 5.55,2.4; stroke-dashoffset: 0; stroke: #ff0000; stroke-width: 1.5"/>
    </g>
    <g id="text_16">
     <!-- Бажана успішність -->
     <g transform="translate(485.850781 71.767969) scale(0.15 -0.15)">
      <defs>
       <path id="DejaVuSans-411" d="M 3272 1372 
Q 3272 1806 3026 2017 
Q 2781 2228 2272 2228 
L 1259 2228 
L 1259 519 
L 2272 519 
Q 2781 519 3026 730 
Q 3272 941 3272 1372 
z
M 3609 4666 
L 3609 4147 
L 1259 4147 
L 1259 2747 
L 2303 2747 
Q 3088 2747 3513 2406 
Q 3938 2066 3938 1372 
Q 3938 681 3527 340 
Q 3116 0 2303 0 
L 628 0 
L 628 4666 
L 3609 4666 
z
" transform="scale(0.015625)"/>
       <path id="DejaVuSans-436" d="M 2597 3500 
L 3169 3500 
L 3169 1856 
L 4697 3500 
L 5366 3500 
L 4109 2153 
L 5547 0 
L 4931 0 
L 3753 1769 
L 3169 1141 
L 3169 0 
L 2597 0 
L 2597 1141 
L 2013 1769 
L 834 0 
L 219 0 
L 1656 2153 
L 400 3500 
L 1069 3500 
L 2597 1856 
L 2597 3500 
z
" transform="scale(0.015625)"/>
      </defs>
      <use xlink:href="#DejaVuSans-411"/>
      <use xlink:href="#DejaVuSans-430" x="68.603516"/>
      <use xlink:href="#DejaVuSans-436" x="129.882812"/>
      <use xlink:href="#DejaVuSans-430" x="219.970703"/>
      <use xlink:href="#DejaVuSans-43d" x="281.25"/>
      <use xlink:href="#DejaVuSans-430" x="346.630859"/>
      <use xlink:href="#DejaVuSans-20" x="407.910156"/>
      <use xlink:href="#DejaVuSans-443" x="439.697266"/>
      <use xlink:href="#DejaVuSans-441" x="498.876953"/>
      <use xlink:href="#DejaVuSans-43f" x="553.857422"/>
      <use xlink:href="#DejaVuSans-456" x="619.238281"/>
      <use xlink:href="#DejaVuSans-448" x="647.021484"/>
      <use xlink:href="#DejaVuSans-43d" x="738.525391"/>
      <use xlink:href="#DejaVuSans-456" x="803.90625"/>
      <use xlink:href="#DejaVuSans-441" x="831.689453"/>
      <use xlink:href="#DejaVuSans-442" x="886.669922"/>
      <use xlink:href="#DejaVuSans-44c" x="944.921875"/>
     </g>
    </g>
   </g>
  </g>
 </g>
 <defs>
  <clipPath id="pe2c9fb4803">
   <rect x="55.015625" y="24.853125" width="669.6" height="388.08"/>
  </clipPath>
 </defs>
</svg>
