<?xml version="1.0" encoding="utf-8" standalone="no"?>
<!DOCTYPE svg PUBLIC "-//W3C//DTD SVG 1.1//EN"
  "http://www.w3.org/Graphics/SVG/1.1/DTD/svg11.dtd">
<svg xmlns:xlink="http://www.w3.org/1999/xlink" width="614.789062pt" height="322.334688pt" viewBox="0 0 614.789062 322.334688" xmlns="http://www.w3.org/2000/svg" version="1.1">
 <metadata>
  <rdf:RDF xmlns:dc="http://purl.org/dc/elements/1.1/" xmlns:cc="http://creativecommons.org/ns#" xmlns:rdf="http://www.w3.org/1999/02/22-rdf-syntax-ns#">
   <cc:Work>
    <dc:type rdf:resource="http://purl.org/dc/dcmitype/StillImage"/>
    <dc:date>2024-01-29T20:01:59.078872</dc:date>
    <dc:format>image/svg+xml</dc:format>
    <dc:creator>
     <cc:Agent>
      <dc:title>Matplotlib v3.7.2, https://matplotlib.org/</dc:title>
     </cc:Agent>
    </dc:creator>
   </cc:Work>
  </rdf:RDF>
 </metadata>
 <defs>
  <style type="text/css">*{stroke-linejoin: round; stroke-linecap: butt}</style>
 </defs>
 <g id="figure_1">
  <g id="patch_1">
   <path d="M 0 322.334688 
L 614.789062 322.334688 
L 614.789062 0 
L 0 0 
z
" style="fill: #ffffff"/>
  </g>
  <g id="axes_1">
   <g id="patch_2">
    <path d="M 49.589063 298.989375 
L 607.589062 298.989375 
L 607.589062 21.789375 
L 49.589063 21.789375 
z
" style="fill: #ffffff"/>
   </g>
   <g id="matplotlib.axis_1">
    <g id="xtick_1">
     <g id="line2d_1">
      <path d="M 68.395923 298.989375 
L 68.395923 21.789375 
" clip-path="url(#p0aedc58e35)" style="fill: none; stroke: #cccccc; stroke-width: 0.8; stroke-linecap: round"/>
     </g>
     <g id="text_1">
      <!-- 2000 -->
      <g style="fill: #262626" transform="translate(57.274048 313.147188) scale(0.1 -0.1)">
       <defs>
        <path id="ArialMT-32" d="M 3222 541 
L 3222 0 
L 194 0 
Q 188 203 259 391 
Q 375 700 629 1000 
Q 884 1300 1366 1694 
Q 2113 2306 2375 2664 
Q 2638 3022 2638 3341 
Q 2638 3675 2398 3904 
Q 2159 4134 1775 4134 
Q 1369 4134 1125 3890 
Q 881 3647 878 3216 
L 300 3275 
Q 359 3922 746 4261 
Q 1134 4600 1788 4600 
Q 2447 4600 2831 4234 
Q 3216 3869 3216 3328 
Q 3216 3053 3103 2787 
Q 2991 2522 2730 2228 
Q 2469 1934 1863 1422 
Q 1356 997 1212 845 
Q 1069 694 975 541 
L 3222 541 
z
" transform="scale(0.015625)"/>
        <path id="ArialMT-30" d="M 266 2259 
Q 266 3072 433 3567 
Q 600 4063 929 4331 
Q 1259 4600 1759 4600 
Q 2128 4600 2406 4451 
Q 2684 4303 2865 4023 
Q 3047 3744 3150 3342 
Q 3253 2941 3253 2259 
Q 3253 1453 3087 958 
Q 2922 463 2592 192 
Q 2263 -78 1759 -78 
Q 1097 -78 719 397 
Q 266 969 266 2259 
z
M 844 2259 
Q 844 1131 1108 757 
Q 1372 384 1759 384 
Q 2147 384 2411 759 
Q 2675 1134 2675 2259 
Q 2675 3391 2411 3762 
Q 2147 4134 1753 4134 
Q 1366 4134 1134 3806 
Q 844 3388 844 2259 
z
" transform="scale(0.015625)"/>
       </defs>
       <use xlink:href="#ArialMT-32"/>
       <use xlink:href="#ArialMT-30" x="55.615234"/>
       <use xlink:href="#ArialMT-30" x="111.230469"/>
       <use xlink:href="#ArialMT-30" x="166.845703"/>
      </g>
     </g>
    </g>
    <g id="xtick_2">
     <g id="line2d_2">
      <path d="M 132.796897 298.989375 
L 132.796897 21.789375 
" clip-path="url(#p0aedc58e35)" style="fill: none; stroke: #cccccc; stroke-width: 0.8; stroke-linecap: round"/>
     </g>
     <g id="text_2">
      <!-- 2200 -->
      <g style="fill: #262626" transform="translate(121.675022 313.147188) scale(0.1 -0.1)">
       <use xlink:href="#ArialMT-32"/>
       <use xlink:href="#ArialMT-32" x="55.615234"/>
       <use xlink:href="#ArialMT-30" x="111.230469"/>
       <use xlink:href="#ArialMT-30" x="166.845703"/>
      </g>
     </g>
    </g>
    <g id="xtick_3">
     <g id="line2d_3">
      <path d="M 197.19787 298.989375 
L 197.19787 21.789375 
" clip-path="url(#p0aedc58e35)" style="fill: none; stroke: #cccccc; stroke-width: 0.8; stroke-linecap: round"/>
     </g>
     <g id="text_3">
      <!-- 2400 -->
      <g style="fill: #262626" transform="translate(186.075995 313.147188) scale(0.1 -0.1)">
       <defs>
        <path id="ArialMT-34" d="M 2069 0 
L 2069 1097 
L 81 1097 
L 81 1613 
L 2172 4581 
L 2631 4581 
L 2631 1613 
L 3250 1613 
L 3250 1097 
L 2631 1097 
L 2631 0 
L 2069 0 
z
M 2069 1613 
L 2069 3678 
L 634 1613 
L 2069 1613 
z
" transform="scale(0.015625)"/>
       </defs>
       <use xlink:href="#ArialMT-32"/>
       <use xlink:href="#ArialMT-34" x="55.615234"/>
       <use xlink:href="#ArialMT-30" x="111.230469"/>
       <use xlink:href="#ArialMT-30" x="166.845703"/>
      </g>
     </g>
    </g>
    <g id="xtick_4">
     <g id="line2d_4">
      <path d="M 261.598844 298.989375 
L 261.598844 21.789375 
" clip-path="url(#p0aedc58e35)" style="fill: none; stroke: #cccccc; stroke-width: 0.8; stroke-linecap: round"/>
     </g>
     <g id="text_4">
      <!-- 2600 -->
      <g style="fill: #262626" transform="translate(250.476969 313.147188) scale(0.1 -0.1)">
       <defs>
        <path id="ArialMT-36" d="M 3184 3459 
L 2625 3416 
Q 2550 3747 2413 3897 
Q 2184 4138 1850 4138 
Q 1581 4138 1378 3988 
Q 1113 3794 959 3422 
Q 806 3050 800 2363 
Q 1003 2672 1297 2822 
Q 1591 2972 1913 2972 
Q 2475 2972 2870 2558 
Q 3266 2144 3266 1488 
Q 3266 1056 3080 686 
Q 2894 316 2569 119 
Q 2244 -78 1831 -78 
Q 1128 -78 684 439 
Q 241 956 241 2144 
Q 241 3472 731 4075 
Q 1159 4600 1884 4600 
Q 2425 4600 2770 4297 
Q 3116 3994 3184 3459 
z
M 888 1484 
Q 888 1194 1011 928 
Q 1134 663 1356 523 
Q 1578 384 1822 384 
Q 2178 384 2434 671 
Q 2691 959 2691 1453 
Q 2691 1928 2437 2201 
Q 2184 2475 1800 2475 
Q 1419 2475 1153 2201 
Q 888 1928 888 1484 
z
" transform="scale(0.015625)"/>
       </defs>
       <use xlink:href="#ArialMT-32"/>
       <use xlink:href="#ArialMT-36" x="55.615234"/>
       <use xlink:href="#ArialMT-30" x="111.230469"/>
       <use xlink:href="#ArialMT-30" x="166.845703"/>
      </g>
     </g>
    </g>
    <g id="xtick_5">
     <g id="line2d_5">
      <path d="M 325.999818 298.989375 
L 325.999818 21.789375 
" clip-path="url(#p0aedc58e35)" style="fill: none; stroke: #cccccc; stroke-width: 0.8; stroke-linecap: round"/>
     </g>
     <g id="text_5">
      <!-- 2800 -->
      <g style="fill: #262626" transform="translate(314.877943 313.147188) scale(0.1 -0.1)">
       <defs>
        <path id="ArialMT-38" d="M 1131 2484 
Q 781 2613 612 2850 
Q 444 3088 444 3419 
Q 444 3919 803 4259 
Q 1163 4600 1759 4600 
Q 2359 4600 2725 4251 
Q 3091 3903 3091 3403 
Q 3091 3084 2923 2848 
Q 2756 2613 2416 2484 
Q 2838 2347 3058 2040 
Q 3278 1734 3278 1309 
Q 3278 722 2862 322 
Q 2447 -78 1769 -78 
Q 1091 -78 675 323 
Q 259 725 259 1325 
Q 259 1772 486 2073 
Q 713 2375 1131 2484 
z
M 1019 3438 
Q 1019 3113 1228 2906 
Q 1438 2700 1772 2700 
Q 2097 2700 2305 2904 
Q 2513 3109 2513 3406 
Q 2513 3716 2298 3927 
Q 2084 4138 1766 4138 
Q 1444 4138 1231 3931 
Q 1019 3725 1019 3438 
z
M 838 1322 
Q 838 1081 952 856 
Q 1066 631 1291 507 
Q 1516 384 1775 384 
Q 2178 384 2440 643 
Q 2703 903 2703 1303 
Q 2703 1709 2433 1975 
Q 2163 2241 1756 2241 
Q 1359 2241 1098 1978 
Q 838 1716 838 1322 
z
" transform="scale(0.015625)"/>
       </defs>
       <use xlink:href="#ArialMT-32"/>
       <use xlink:href="#ArialMT-38" x="55.615234"/>
       <use xlink:href="#ArialMT-30" x="111.230469"/>
       <use xlink:href="#ArialMT-30" x="166.845703"/>
      </g>
     </g>
    </g>
    <g id="xtick_6">
     <g id="line2d_6">
      <path d="M 390.400792 298.989375 
L 390.400792 21.789375 
" clip-path="url(#p0aedc58e35)" style="fill: none; stroke: #cccccc; stroke-width: 0.8; stroke-linecap: round"/>
     </g>
     <g id="text_6">
      <!-- 3000 -->
      <g style="fill: #262626" transform="translate(379.278917 313.147188) scale(0.1 -0.1)">
       <defs>
        <path id="ArialMT-33" d="M 269 1209 
L 831 1284 
Q 928 806 1161 595 
Q 1394 384 1728 384 
Q 2125 384 2398 659 
Q 2672 934 2672 1341 
Q 2672 1728 2419 1979 
Q 2166 2231 1775 2231 
Q 1616 2231 1378 2169 
L 1441 2663 
Q 1497 2656 1531 2656 
Q 1891 2656 2178 2843 
Q 2466 3031 2466 3422 
Q 2466 3731 2256 3934 
Q 2047 4138 1716 4138 
Q 1388 4138 1169 3931 
Q 950 3725 888 3313 
L 325 3413 
Q 428 3978 793 4289 
Q 1159 4600 1703 4600 
Q 2078 4600 2393 4439 
Q 2709 4278 2876 4000 
Q 3044 3722 3044 3409 
Q 3044 3113 2884 2869 
Q 2725 2625 2413 2481 
Q 2819 2388 3044 2092 
Q 3269 1797 3269 1353 
Q 3269 753 2831 336 
Q 2394 -81 1725 -81 
Q 1122 -81 723 278 
Q 325 638 269 1209 
z
" transform="scale(0.015625)"/>
       </defs>
       <use xlink:href="#ArialMT-33"/>
       <use xlink:href="#ArialMT-30" x="55.615234"/>
       <use xlink:href="#ArialMT-30" x="111.230469"/>
       <use xlink:href="#ArialMT-30" x="166.845703"/>
      </g>
     </g>
    </g>
    <g id="xtick_7">
     <g id="line2d_7">
      <path d="M 454.801765 298.989375 
L 454.801765 21.789375 
" clip-path="url(#p0aedc58e35)" style="fill: none; stroke: #cccccc; stroke-width: 0.8; stroke-linecap: round"/>
     </g>
     <g id="text_7">
      <!-- 3200 -->
      <g style="fill: #262626" transform="translate(443.67989 313.147188) scale(0.1 -0.1)">
       <use xlink:href="#ArialMT-33"/>
       <use xlink:href="#ArialMT-32" x="55.615234"/>
       <use xlink:href="#ArialMT-30" x="111.230469"/>
       <use xlink:href="#ArialMT-30" x="166.845703"/>
      </g>
     </g>
    </g>
    <g id="xtick_8">
     <g id="line2d_8">
      <path d="M 519.202739 298.989375 
L 519.202739 21.789375 
" clip-path="url(#p0aedc58e35)" style="fill: none; stroke: #cccccc; stroke-width: 0.8; stroke-linecap: round"/>
     </g>
     <g id="text_8">
      <!-- 3400 -->
      <g style="fill: #262626" transform="translate(508.080864 313.147188) scale(0.1 -0.1)">
       <use xlink:href="#ArialMT-33"/>
       <use xlink:href="#ArialMT-34" x="55.615234"/>
       <use xlink:href="#ArialMT-30" x="111.230469"/>
       <use xlink:href="#ArialMT-30" x="166.845703"/>
      </g>
     </g>
    </g>
    <g id="xtick_9">
     <g id="line2d_9">
      <path d="M 583.603713 298.989375 
L 583.603713 21.789375 
" clip-path="url(#p0aedc58e35)" style="fill: none; stroke: #cccccc; stroke-width: 0.8; stroke-linecap: round"/>
     </g>
     <g id="text_9">
      <!-- 3600 -->
      <g style="fill: #262626" transform="translate(572.481838 313.147188) scale(0.1 -0.1)">
       <use xlink:href="#ArialMT-33"/>
       <use xlink:href="#ArialMT-36" x="55.615234"/>
       <use xlink:href="#ArialMT-30" x="111.230469"/>
       <use xlink:href="#ArialMT-30" x="166.845703"/>
      </g>
     </g>
    </g>
   </g>
   <g id="matplotlib.axis_2">
    <g id="ytick_1">
     <g id="line2d_10">
      <path d="M 49.589063 298.989375 
L 607.589062 298.989375 
" clip-path="url(#p0aedc58e35)" style="fill: none; stroke: #cccccc; stroke-width: 0.8; stroke-linecap: round"/>
     </g>
     <g id="text_10">
      <!-- 0 -->
      <g style="fill: #262626" transform="translate(37.028125 302.568281) scale(0.1 -0.1)">
       <use xlink:href="#ArialMT-30"/>
      </g>
     </g>
    </g>
    <g id="ytick_2">
     <g id="line2d_11">
      <path d="M 49.589063 250.055177 
L 607.589062 250.055177 
" clip-path="url(#p0aedc58e35)" style="fill: none; stroke: #cccccc; stroke-width: 0.8; stroke-linecap: round"/>
     </g>
     <g id="text_11">
      <!-- 200 -->
      <g style="fill: #262626" transform="translate(25.90625 253.634083) scale(0.1 -0.1)">
       <use xlink:href="#ArialMT-32"/>
       <use xlink:href="#ArialMT-30" x="55.615234"/>
       <use xlink:href="#ArialMT-30" x="111.230469"/>
      </g>
     </g>
    </g>
    <g id="ytick_3">
     <g id="line2d_12">
      <path d="M 49.589063 201.120978 
L 607.589062 201.120978 
" clip-path="url(#p0aedc58e35)" style="fill: none; stroke: #cccccc; stroke-width: 0.8; stroke-linecap: round"/>
     </g>
     <g id="text_12">
      <!-- 400 -->
      <g style="fill: #262626" transform="translate(25.90625 204.699885) scale(0.1 -0.1)">
       <use xlink:href="#ArialMT-34"/>
       <use xlink:href="#ArialMT-30" x="55.615234"/>
       <use xlink:href="#ArialMT-30" x="111.230469"/>
      </g>
     </g>
    </g>
    <g id="ytick_4">
     <g id="line2d_13">
      <path d="M 49.589063 152.18678 
L 607.589062 152.18678 
" clip-path="url(#p0aedc58e35)" style="fill: none; stroke: #cccccc; stroke-width: 0.8; stroke-linecap: round"/>
     </g>
     <g id="text_13">
      <!-- 600 -->
      <g style="fill: #262626" transform="translate(25.90625 155.765686) scale(0.1 -0.1)">
       <use xlink:href="#ArialMT-36"/>
       <use xlink:href="#ArialMT-30" x="55.615234"/>
       <use xlink:href="#ArialMT-30" x="111.230469"/>
      </g>
     </g>
    </g>
    <g id="ytick_5">
     <g id="line2d_14">
      <path d="M 49.589063 103.252582 
L 607.589062 103.252582 
" clip-path="url(#p0aedc58e35)" style="fill: none; stroke: #cccccc; stroke-width: 0.8; stroke-linecap: round"/>
     </g>
     <g id="text_14">
      <!-- 800 -->
      <g style="fill: #262626" transform="translate(25.90625 106.831488) scale(0.1 -0.1)">
       <use xlink:href="#ArialMT-38"/>
       <use xlink:href="#ArialMT-30" x="55.615234"/>
       <use xlink:href="#ArialMT-30" x="111.230469"/>
      </g>
     </g>
    </g>
    <g id="ytick_6">
     <g id="line2d_15">
      <path d="M 49.589063 54.318383 
L 607.589062 54.318383 
" clip-path="url(#p0aedc58e35)" style="fill: none; stroke: #cccccc; stroke-width: 0.8; stroke-linecap: round"/>
     </g>
     <g id="text_15">
      <!-- 1000 -->
      <g style="fill: #262626" transform="translate(20.345313 57.89729) scale(0.1 -0.1)">
       <defs>
        <path id="ArialMT-31" d="M 2384 0 
L 1822 0 
L 1822 3584 
Q 1619 3391 1289 3197 
Q 959 3003 697 2906 
L 697 3450 
Q 1169 3672 1522 3987 
Q 1875 4303 2022 4600 
L 2384 4600 
L 2384 0 
z
" transform="scale(0.015625)"/>
       </defs>
       <use xlink:href="#ArialMT-31"/>
       <use xlink:href="#ArialMT-30" x="55.615234"/>
       <use xlink:href="#ArialMT-30" x="111.230469"/>
       <use xlink:href="#ArialMT-30" x="166.845703"/>
      </g>
     </g>
    </g>
    <g id="text_16">
     <!-- Count -->
     <g style="fill: #262626" transform="translate(14.357813 173.730781) rotate(-90) scale(0.1 -0.1)">
      <defs>
       <path id="ArialMT-43" d="M 3763 1606 
L 4369 1453 
Q 4178 706 3683 314 
Q 3188 -78 2472 -78 
Q 1731 -78 1267 223 
Q 803 525 561 1097 
Q 319 1669 319 2325 
Q 319 3041 592 3573 
Q 866 4106 1370 4382 
Q 1875 4659 2481 4659 
Q 3169 4659 3637 4309 
Q 4106 3959 4291 3325 
L 3694 3184 
Q 3534 3684 3231 3912 
Q 2928 4141 2469 4141 
Q 1941 4141 1586 3887 
Q 1231 3634 1087 3207 
Q 944 2781 944 2328 
Q 944 1744 1114 1308 
Q 1284 872 1643 656 
Q 2003 441 2422 441 
Q 2931 441 3284 734 
Q 3638 1028 3763 1606 
z
" transform="scale(0.015625)"/>
       <path id="ArialMT-6f" d="M 213 1659 
Q 213 2581 725 3025 
Q 1153 3394 1769 3394 
Q 2453 3394 2887 2945 
Q 3322 2497 3322 1706 
Q 3322 1066 3130 698 
Q 2938 331 2570 128 
Q 2203 -75 1769 -75 
Q 1072 -75 642 372 
Q 213 819 213 1659 
z
M 791 1659 
Q 791 1022 1069 705 
Q 1347 388 1769 388 
Q 2188 388 2466 706 
Q 2744 1025 2744 1678 
Q 2744 2294 2464 2611 
Q 2184 2928 1769 2928 
Q 1347 2928 1069 2612 
Q 791 2297 791 1659 
z
" transform="scale(0.015625)"/>
       <path id="ArialMT-75" d="M 2597 0 
L 2597 488 
Q 2209 -75 1544 -75 
Q 1250 -75 995 37 
Q 741 150 617 320 
Q 494 491 444 738 
Q 409 903 409 1263 
L 409 3319 
L 972 3319 
L 972 1478 
Q 972 1038 1006 884 
Q 1059 663 1231 536 
Q 1403 409 1656 409 
Q 1909 409 2131 539 
Q 2353 669 2445 892 
Q 2538 1116 2538 1541 
L 2538 3319 
L 3100 3319 
L 3100 0 
L 2597 0 
z
" transform="scale(0.015625)"/>
       <path id="ArialMT-6e" d="M 422 0 
L 422 3319 
L 928 3319 
L 928 2847 
Q 1294 3394 1984 3394 
Q 2284 3394 2536 3286 
Q 2788 3178 2913 3003 
Q 3038 2828 3088 2588 
Q 3119 2431 3119 2041 
L 3119 0 
L 2556 0 
L 2556 2019 
Q 2556 2363 2490 2533 
Q 2425 2703 2258 2804 
Q 2091 2906 1866 2906 
Q 1506 2906 1245 2678 
Q 984 2450 984 1813 
L 984 0 
L 422 0 
z
" transform="scale(0.015625)"/>
       <path id="ArialMT-74" d="M 1650 503 
L 1731 6 
Q 1494 -44 1306 -44 
Q 1000 -44 831 53 
Q 663 150 594 308 
Q 525 466 525 972 
L 525 2881 
L 113 2881 
L 113 3319 
L 525 3319 
L 525 4141 
L 1084 4478 
L 1084 3319 
L 1650 3319 
L 1650 2881 
L 1084 2881 
L 1084 941 
Q 1084 700 1114 631 
Q 1144 563 1211 522 
Q 1278 481 1403 481 
Q 1497 481 1650 503 
z
" transform="scale(0.015625)"/>
      </defs>
      <use xlink:href="#ArialMT-43"/>
      <use xlink:href="#ArialMT-6f" x="72.216797"/>
      <use xlink:href="#ArialMT-75" x="127.832031"/>
      <use xlink:href="#ArialMT-6e" x="183.447266"/>
      <use xlink:href="#ArialMT-74" x="239.0625"/>
     </g>
    </g>
   </g>
   <g id="patch_3">
    <path d="M 210.00343 298.989375 
L 216.89643 298.989375 
L 216.89643 298.744704 
L 210.00343 298.744704 
z
" clip-path="url(#p0aedc58e35)" style="fill: #181485; fill-opacity: 0.75; stroke: #ffffff; stroke-width: 0.939394; stroke-linejoin: miter"/>
   </g>
   <g id="patch_4">
    <path d="M 216.89643 298.989375 
L 223.78943 298.989375 
L 223.78943 298.989375 
L 216.89643 298.989375 
z
" clip-path="url(#p0aedc58e35)" style="fill: #181485; fill-opacity: 0.75; stroke: #ffffff; stroke-width: 0.939394; stroke-linejoin: miter"/>
   </g>
   <g id="patch_5">
    <path d="M 223.78943 298.989375 
L 230.682429 298.989375 
L 230.682429 298.744704 
L 223.78943 298.744704 
z
" clip-path="url(#p0aedc58e35)" style="fill: #181485; fill-opacity: 0.75; stroke: #ffffff; stroke-width: 0.939394; stroke-linejoin: miter"/>
   </g>
   <g id="patch_6">
    <path d="M 230.682429 298.989375 
L 237.575429 298.989375 
L 237.575429 298.744704 
L 230.682429 298.744704 
z
" clip-path="url(#p0aedc58e35)" style="fill: #181485; fill-opacity: 0.75; stroke: #ffffff; stroke-width: 0.939394; stroke-linejoin: miter"/>
   </g>
   <g id="patch_7">
    <path d="M 237.575429 298.989375 
L 244.468429 298.989375 
L 244.468429 298.255362 
L 237.575429 298.255362 
z
" clip-path="url(#p0aedc58e35)" style="fill: #181485; fill-opacity: 0.75; stroke: #ffffff; stroke-width: 0.939394; stroke-linejoin: miter"/>
   </g>
   <g id="patch_8">
    <path d="M 244.468429 298.989375 
L 251.361429 298.989375 
L 251.361429 297.521349 
L 244.468429 297.521349 
z
" clip-path="url(#p0aedc58e35)" style="fill: #181485; fill-opacity: 0.75; stroke: #ffffff; stroke-width: 0.939394; stroke-linejoin: miter"/>
   </g>
   <g id="patch_9">
    <path d="M 251.361429 298.989375 
L 258.254429 298.989375 
L 258.254429 298.500033 
L 251.361429 298.500033 
z
" clip-path="url(#p0aedc58e35)" style="fill: #181485; fill-opacity: 0.75; stroke: #ffffff; stroke-width: 0.939394; stroke-linejoin: miter"/>
   </g>
   <g id="patch_10">
    <path d="M 258.254429 298.989375 
L 265.147429 298.989375 
L 265.147429 298.989375 
L 258.254429 298.989375 
z
" clip-path="url(#p0aedc58e35)" style="fill: #181485; fill-opacity: 0.75; stroke: #ffffff; stroke-width: 0.939394; stroke-linejoin: miter"/>
   </g>
   <g id="patch_11">
    <path d="M 265.147429 298.989375 
L 272.040429 298.989375 
L 272.040429 296.787336 
L 265.147429 296.787336 
z
" clip-path="url(#p0aedc58e35)" style="fill: #181485; fill-opacity: 0.75; stroke: #ffffff; stroke-width: 0.939394; stroke-linejoin: miter"/>
   </g>
   <g id="patch_12">
    <path d="M 272.040429 298.989375 
L 278.933429 298.989375 
L 278.933429 293.117271 
L 272.040429 293.117271 
z
" clip-path="url(#p0aedc58e35)" style="fill: #181485; fill-opacity: 0.75; stroke: #ffffff; stroke-width: 0.939394; stroke-linejoin: miter"/>
   </g>
   <g id="patch_13">
    <path d="M 278.933429 298.989375 
L 285.826429 298.989375 
L 285.826429 293.851284 
L 278.933429 293.851284 
z
" clip-path="url(#p0aedc58e35)" style="fill: #181485; fill-opacity: 0.75; stroke: #ffffff; stroke-width: 0.939394; stroke-linejoin: miter"/>
   </g>
   <g id="patch_14">
    <path d="M 285.826429 298.989375 
L 292.719429 298.989375 
L 292.719429 280.39438 
L 285.826429 280.39438 
z
" clip-path="url(#p0aedc58e35)" style="fill: #181485; fill-opacity: 0.75; stroke: #ffffff; stroke-width: 0.939394; stroke-linejoin: miter"/>
   </g>
   <g id="patch_15">
    <path d="M 292.719429 298.989375 
L 299.612429 298.989375 
L 299.612429 283.819774 
L 292.719429 283.819774 
z
" clip-path="url(#p0aedc58e35)" style="fill: #181485; fill-opacity: 0.75; stroke: #ffffff; stroke-width: 0.939394; stroke-linejoin: miter"/>
   </g>
   <g id="patch_16">
    <path d="M 299.612429 298.989375 
L 306.505429 298.989375 
L 306.505429 235.864259 
L 299.612429 235.864259 
z
" clip-path="url(#p0aedc58e35)" style="fill: #181485; fill-opacity: 0.75; stroke: #ffffff; stroke-width: 0.939394; stroke-linejoin: miter"/>
   </g>
   <g id="patch_17">
    <path d="M 306.505429 298.989375 
L 313.398429 298.989375 
L 313.398429 274.522276 
L 306.505429 274.522276 
z
" clip-path="url(#p0aedc58e35)" style="fill: #181485; fill-opacity: 0.75; stroke: #ffffff; stroke-width: 0.939394; stroke-linejoin: miter"/>
   </g>
   <g id="patch_18">
    <path d="M 313.398429 298.989375 
L 320.291429 298.989375 
L 320.291429 274.277605 
L 313.398429 274.277605 
z
" clip-path="url(#p0aedc58e35)" style="fill: #181485; fill-opacity: 0.75; stroke: #ffffff; stroke-width: 0.939394; stroke-linejoin: miter"/>
   </g>
   <g id="patch_19">
    <path d="M 320.291429 298.989375 
L 327.184429 298.989375 
L 327.184429 270.852211 
L 320.291429 270.852211 
z
" clip-path="url(#p0aedc58e35)" style="fill: #181485; fill-opacity: 0.75; stroke: #ffffff; stroke-width: 0.939394; stroke-linejoin: miter"/>
   </g>
   <g id="patch_20">
    <path d="M 327.184429 298.989375 
L 334.077428 298.989375 
L 334.077428 169.803091 
L 327.184429 169.803091 
z
" clip-path="url(#p0aedc58e35)" style="fill: #181485; fill-opacity: 0.75; stroke: #ffffff; stroke-width: 0.939394; stroke-linejoin: miter"/>
   </g>
   <g id="patch_21">
    <path d="M 334.077428 298.989375 
L 340.970428 298.989375 
L 340.970428 172.00513 
L 334.077428 172.00513 
z
" clip-path="url(#p0aedc58e35)" style="fill: #181485; fill-opacity: 0.75; stroke: #ffffff; stroke-width: 0.939394; stroke-linejoin: miter"/>
   </g>
   <g id="patch_22">
    <path d="M 340.970428 298.989375 
L 347.863428 298.989375 
L 347.863428 229.258142 
L 340.970428 229.258142 
z
" clip-path="url(#p0aedc58e35)" style="fill: #181485; fill-opacity: 0.75; stroke: #ffffff; stroke-width: 0.939394; stroke-linejoin: miter"/>
   </g>
   <g id="patch_23">
    <path d="M 347.863428 298.989375 
L 354.756428 298.989375 
L 354.756428 121.847577 
L 347.863428 121.847577 
z
" clip-path="url(#p0aedc58e35)" style="fill: #181485; fill-opacity: 0.75; stroke: #ffffff; stroke-width: 0.939394; stroke-linejoin: miter"/>
   </g>
   <g id="patch_24">
    <path d="M 354.756428 298.989375 
L 361.649428 298.989375 
L 361.649428 34.989375 
L 354.756428 34.989375 
z
" clip-path="url(#p0aedc58e35)" style="fill: #181485; fill-opacity: 0.75; stroke: #ffffff; stroke-width: 0.939394; stroke-linejoin: miter"/>
   </g>
   <g id="patch_25">
    <path d="M 361.649428 298.989375 
L 368.542428 298.989375 
L 368.542428 250.055177 
L 361.649428 250.055177 
z
" clip-path="url(#p0aedc58e35)" style="fill: #181485; fill-opacity: 0.75; stroke: #ffffff; stroke-width: 0.939394; stroke-linejoin: miter"/>
   </g>
   <g id="patch_26">
    <path d="M 368.542428 298.989375 
L 375.435428 298.989375 
L 375.435428 220.694658 
L 368.542428 220.694658 
z
" clip-path="url(#p0aedc58e35)" style="fill: #181485; fill-opacity: 0.75; stroke: #ffffff; stroke-width: 0.939394; stroke-linejoin: miter"/>
   </g>
   <g id="patch_27">
    <path d="M 375.435428 298.989375 
L 382.328428 298.989375 
L 382.328428 48.44628 
L 375.435428 48.44628 
z
" clip-path="url(#p0aedc58e35)" style="fill: #181485; fill-opacity: 0.75; stroke: #ffffff; stroke-width: 0.939394; stroke-linejoin: miter"/>
   </g>
   <g id="patch_28">
    <path d="M 382.328428 298.989375 
L 389.221428 298.989375 
L 389.221428 242.225705 
L 382.328428 242.225705 
z
" clip-path="url(#p0aedc58e35)" style="fill: #181485; fill-opacity: 0.75; stroke: #ffffff; stroke-width: 0.939394; stroke-linejoin: miter"/>
   </g>
   <g id="patch_29">
    <path d="M 389.221428 298.989375 
L 396.114428 298.989375 
L 396.114428 176.89855 
L 389.221428 176.89855 
z
" clip-path="url(#p0aedc58e35)" style="fill: #181485; fill-opacity: 0.75; stroke: #ffffff; stroke-width: 0.939394; stroke-linejoin: miter"/>
   </g>
   <g id="patch_30">
    <path d="M 396.114428 298.989375 
L 403.007428 298.989375 
L 403.007428 264.735436 
L 396.114428 264.735436 
z
" clip-path="url(#p0aedc58e35)" style="fill: #181485; fill-opacity: 0.75; stroke: #ffffff; stroke-width: 0.939394; stroke-linejoin: miter"/>
   </g>
   <g id="patch_31">
    <path d="M 403.007428 298.989375 
L 409.900428 298.989375 
L 409.900428 257.639977 
L 403.007428 257.639977 
z
" clip-path="url(#p0aedc58e35)" style="fill: #181485; fill-opacity: 0.75; stroke: #ffffff; stroke-width: 0.939394; stroke-linejoin: miter"/>
   </g>
   <g id="patch_32">
    <path d="M 409.900428 298.989375 
L 416.793428 298.989375 
L 416.793428 266.937475 
L 409.900428 266.937475 
z
" clip-path="url(#p0aedc58e35)" style="fill: #181485; fill-opacity: 0.75; stroke: #ffffff; stroke-width: 0.939394; stroke-linejoin: miter"/>
   </g>
   <g id="patch_33">
    <path d="M 416.793428 298.989375 
L 423.686428 298.989375 
L 423.686428 98.359162 
L 416.793428 98.359162 
z
" clip-path="url(#p0aedc58e35)" style="fill: #181485; fill-opacity: 0.75; stroke: #ffffff; stroke-width: 0.939394; stroke-linejoin: miter"/>
   </g>
   <g id="patch_34">
    <path d="M 423.686428 298.989375 
L 430.579428 298.989375 
L 430.579428 150.963425 
L 423.686428 150.963425 
z
" clip-path="url(#p0aedc58e35)" style="fill: #181485; fill-opacity: 0.75; stroke: #ffffff; stroke-width: 0.939394; stroke-linejoin: miter"/>
   </g>
   <g id="patch_35">
    <path d="M 430.579428 298.989375 
L 437.472428 298.989375 
L 437.472428 206.748411 
L 430.579428 206.748411 
z
" clip-path="url(#p0aedc58e35)" style="fill: #181485; fill-opacity: 0.75; stroke: #ffffff; stroke-width: 0.939394; stroke-linejoin: miter"/>
   </g>
   <g id="patch_36">
    <path d="M 437.472428 298.989375 
L 444.365427 298.989375 
L 444.365427 224.364723 
L 437.472428 224.364723 
z
" clip-path="url(#p0aedc58e35)" style="fill: #181485; fill-opacity: 0.75; stroke: #ffffff; stroke-width: 0.939394; stroke-linejoin: miter"/>
   </g>
   <g id="patch_37">
    <path d="M 444.365427 298.989375 
L 451.258427 298.989375 
L 451.258427 176.653879 
L 444.365427 176.653879 
z
" clip-path="url(#p0aedc58e35)" style="fill: #181485; fill-opacity: 0.75; stroke: #ffffff; stroke-width: 0.939394; stroke-linejoin: miter"/>
   </g>
   <g id="patch_38">
    <path d="M 451.258427 298.989375 
L 458.151427 298.989375 
L 458.151427 257.395306 
L 451.258427 257.395306 
z
" clip-path="url(#p0aedc58e35)" style="fill: #181485; fill-opacity: 0.75; stroke: #ffffff; stroke-width: 0.939394; stroke-linejoin: miter"/>
   </g>
   <g id="patch_39">
    <path d="M 458.151427 298.989375 
L 465.044427 298.989375 
L 465.044427 265.71412 
L 458.151427 265.71412 
z
" clip-path="url(#p0aedc58e35)" style="fill: #181485; fill-opacity: 0.75; stroke: #ffffff; stroke-width: 0.939394; stroke-linejoin: miter"/>
   </g>
   <g id="patch_40">
    <path d="M 465.044427 298.989375 
L 471.937427 298.989375 
L 471.937427 239.778995 
L 465.044427 239.778995 
z
" clip-path="url(#p0aedc58e35)" style="fill: #181485; fill-opacity: 0.75; stroke: #ffffff; stroke-width: 0.939394; stroke-linejoin: miter"/>
   </g>
   <g id="patch_41">
    <path d="M 471.937427 298.989375 
L 478.830427 298.989375 
L 478.830427 290.42589 
L 471.937427 290.42589 
z
" clip-path="url(#p0aedc58e35)" style="fill: #181485; fill-opacity: 0.75; stroke: #ffffff; stroke-width: 0.939394; stroke-linejoin: miter"/>
   </g>
   <g id="patch_42">
    <path d="M 478.830427 298.989375 
L 485.723427 298.989375 
L 485.723427 285.53247 
L 478.830427 285.53247 
z
" clip-path="url(#p0aedc58e35)" style="fill: #181485; fill-opacity: 0.75; stroke: #ffffff; stroke-width: 0.939394; stroke-linejoin: miter"/>
   </g>
   <g id="patch_43">
    <path d="M 485.723427 298.989375 
L 492.616427 298.989375 
L 492.616427 289.691877 
L 485.723427 289.691877 
z
" clip-path="url(#p0aedc58e35)" style="fill: #181485; fill-opacity: 0.75; stroke: #ffffff; stroke-width: 0.939394; stroke-linejoin: miter"/>
   </g>
   <g id="patch_44">
    <path d="M 492.616427 298.989375 
L 499.509427 298.989375 
L 499.509427 295.808652 
L 492.616427 295.808652 
z
" clip-path="url(#p0aedc58e35)" style="fill: #181485; fill-opacity: 0.75; stroke: #ffffff; stroke-width: 0.939394; stroke-linejoin: miter"/>
   </g>
   <g id="patch_45">
    <path d="M 499.509427 298.989375 
L 506.402427 298.989375 
L 506.402427 296.053323 
L 499.509427 296.053323 
z
" clip-path="url(#p0aedc58e35)" style="fill: #181485; fill-opacity: 0.75; stroke: #ffffff; stroke-width: 0.939394; stroke-linejoin: miter"/>
   </g>
   <g id="patch_46">
    <path d="M 506.402427 298.989375 
L 513.295427 298.989375 
L 513.295427 295.563981 
L 506.402427 295.563981 
z
" clip-path="url(#p0aedc58e35)" style="fill: #181485; fill-opacity: 0.75; stroke: #ffffff; stroke-width: 0.939394; stroke-linejoin: miter"/>
   </g>
   <g id="patch_47">
    <path d="M 513.295427 298.989375 
L 520.188427 298.989375 
L 520.188427 292.8726 
L 513.295427 292.8726 
z
" clip-path="url(#p0aedc58e35)" style="fill: #181485; fill-opacity: 0.75; stroke: #ffffff; stroke-width: 0.939394; stroke-linejoin: miter"/>
   </g>
   <g id="patch_48">
    <path d="M 520.188427 298.989375 
L 527.081427 298.989375 
L 527.081427 297.76602 
L 520.188427 297.76602 
z
" clip-path="url(#p0aedc58e35)" style="fill: #181485; fill-opacity: 0.75; stroke: #ffffff; stroke-width: 0.939394; stroke-linejoin: miter"/>
   </g>
   <g id="patch_49">
    <path d="M 527.081427 298.989375 
L 533.974427 298.989375 
L 533.974427 297.76602 
L 527.081427 297.76602 
z
" clip-path="url(#p0aedc58e35)" style="fill: #181485; fill-opacity: 0.75; stroke: #ffffff; stroke-width: 0.939394; stroke-linejoin: miter"/>
   </g>
   <g id="patch_50">
    <path d="M 533.974427 298.989375 
L 540.867427 298.989375 
L 540.867427 297.521349 
L 533.974427 297.521349 
z
" clip-path="url(#p0aedc58e35)" style="fill: #181485; fill-opacity: 0.75; stroke: #ffffff; stroke-width: 0.939394; stroke-linejoin: miter"/>
   </g>
   <g id="patch_51">
    <path d="M 540.867427 298.989375 
L 547.760426 298.989375 
L 547.760426 298.255362 
L 540.867427 298.255362 
z
" clip-path="url(#p0aedc58e35)" style="fill: #181485; fill-opacity: 0.75; stroke: #ffffff; stroke-width: 0.939394; stroke-linejoin: miter"/>
   </g>
   <g id="patch_52">
    <path d="M 547.760426 298.989375 
L 554.653426 298.989375 
L 554.653426 298.744704 
L 547.760426 298.744704 
z
" clip-path="url(#p0aedc58e35)" style="fill: #181485; fill-opacity: 0.75; stroke: #ffffff; stroke-width: 0.939394; stroke-linejoin: miter"/>
   </g>
   <g id="patch_53">
    <path d="M 554.653426 298.989375 
L 561.546426 298.989375 
L 561.546426 298.744704 
L 554.653426 298.744704 
z
" clip-path="url(#p0aedc58e35)" style="fill: #181485; fill-opacity: 0.75; stroke: #ffffff; stroke-width: 0.939394; stroke-linejoin: miter"/>
   </g>
   <g id="patch_54">
    <path d="M 561.546426 298.989375 
L 568.439426 298.989375 
L 568.439426 298.989375 
L 561.546426 298.989375 
z
" clip-path="url(#p0aedc58e35)" style="fill: #181485; fill-opacity: 0.75; stroke: #ffffff; stroke-width: 0.939394; stroke-linejoin: miter"/>
   </g>
   <g id="patch_55">
    <path d="M 568.439426 298.989375 
L 575.332426 298.989375 
L 575.332426 298.989375 
L 568.439426 298.989375 
z
" clip-path="url(#p0aedc58e35)" style="fill: #181485; fill-opacity: 0.75; stroke: #ffffff; stroke-width: 0.939394; stroke-linejoin: miter"/>
   </g>
   <g id="patch_56">
    <path d="M 575.332426 298.989375 
L 582.225426 298.989375 
L 582.225426 298.744704 
L 575.332426 298.744704 
z
" clip-path="url(#p0aedc58e35)" style="fill: #181485; fill-opacity: 0.75; stroke: #ffffff; stroke-width: 0.939394; stroke-linejoin: miter"/>
   </g>
   <g id="patch_57">
    <path d="M 74.952699 298.989375 
L 81.111055 298.989375 
L 81.111055 298.744704 
L 74.952699 298.744704 
z
" clip-path="url(#p0aedc58e35)" style="fill: #fb6107; fill-opacity: 0.75; stroke: #ffffff; stroke-width: 0.615836; stroke-linejoin: miter"/>
   </g>
   <g id="patch_58">
    <path d="M 81.111055 298.989375 
L 87.269411 298.989375 
L 87.269411 298.744704 
L 81.111055 298.744704 
z
" clip-path="url(#p0aedc58e35)" style="fill: #fb6107; fill-opacity: 0.75; stroke: #ffffff; stroke-width: 0.615836; stroke-linejoin: miter"/>
   </g>
   <g id="patch_59">
    <path d="M 87.269411 298.989375 
L 93.427767 298.989375 
L 93.427767 298.255362 
L 87.269411 298.255362 
z
" clip-path="url(#p0aedc58e35)" style="fill: #fb6107; fill-opacity: 0.75; stroke: #ffffff; stroke-width: 0.615836; stroke-linejoin: miter"/>
   </g>
   <g id="patch_60">
    <path d="M 93.427767 298.989375 
L 99.586123 298.989375 
L 99.586123 298.989375 
L 93.427767 298.989375 
z
" clip-path="url(#p0aedc58e35)" style="fill: #fb6107; fill-opacity: 0.75; stroke: #ffffff; stroke-width: 0.615836; stroke-linejoin: miter"/>
   </g>
   <g id="patch_61">
    <path d="M 99.586123 298.989375 
L 105.744479 298.989375 
L 105.744479 298.500033 
L 99.586123 298.500033 
z
" clip-path="url(#p0aedc58e35)" style="fill: #fb6107; fill-opacity: 0.75; stroke: #ffffff; stroke-width: 0.615836; stroke-linejoin: miter"/>
   </g>
   <g id="patch_62">
    <path d="M 105.744479 298.989375 
L 111.902835 298.989375 
L 111.902835 297.76602 
L 105.744479 297.76602 
z
" clip-path="url(#p0aedc58e35)" style="fill: #fb6107; fill-opacity: 0.75; stroke: #ffffff; stroke-width: 0.615836; stroke-linejoin: miter"/>
   </g>
   <g id="patch_63">
    <path d="M 111.902835 298.989375 
L 118.061191 298.989375 
L 118.061191 298.010691 
L 111.902835 298.010691 
z
" clip-path="url(#p0aedc58e35)" style="fill: #fb6107; fill-opacity: 0.75; stroke: #ffffff; stroke-width: 0.615836; stroke-linejoin: miter"/>
   </g>
   <g id="patch_64">
    <path d="M 118.061191 298.989375 
L 124.219546 298.989375 
L 124.219546 298.255362 
L 118.061191 298.255362 
z
" clip-path="url(#p0aedc58e35)" style="fill: #fb6107; fill-opacity: 0.75; stroke: #ffffff; stroke-width: 0.615836; stroke-linejoin: miter"/>
   </g>
   <g id="patch_65">
    <path d="M 124.219546 298.989375 
L 130.377902 298.989375 
L 130.377902 297.76602 
L 124.219546 297.76602 
z
" clip-path="url(#p0aedc58e35)" style="fill: #fb6107; fill-opacity: 0.75; stroke: #ffffff; stroke-width: 0.615836; stroke-linejoin: miter"/>
   </g>
   <g id="patch_66">
    <path d="M 130.377902 298.989375 
L 136.536258 298.989375 
L 136.536258 298.744704 
L 130.377902 298.744704 
z
" clip-path="url(#p0aedc58e35)" style="fill: #fb6107; fill-opacity: 0.75; stroke: #ffffff; stroke-width: 0.615836; stroke-linejoin: miter"/>
   </g>
   <g id="patch_67">
    <path d="M 136.536258 298.989375 
L 142.694614 298.989375 
L 142.694614 288.957864 
L 136.536258 288.957864 
z
" clip-path="url(#p0aedc58e35)" style="fill: #fb6107; fill-opacity: 0.75; stroke: #ffffff; stroke-width: 0.615836; stroke-linejoin: miter"/>
   </g>
   <g id="patch_68">
    <path d="M 142.694614 298.989375 
L 148.85297 298.989375 
L 148.85297 293.117271 
L 142.694614 293.117271 
z
" clip-path="url(#p0aedc58e35)" style="fill: #fb6107; fill-opacity: 0.75; stroke: #ffffff; stroke-width: 0.615836; stroke-linejoin: miter"/>
   </g>
   <g id="patch_69">
    <path d="M 148.85297 298.989375 
L 155.011326 298.989375 
L 155.011326 283.819774 
L 148.85297 283.819774 
z
" clip-path="url(#p0aedc58e35)" style="fill: #fb6107; fill-opacity: 0.75; stroke: #ffffff; stroke-width: 0.615836; stroke-linejoin: miter"/>
   </g>
   <g id="patch_70">
    <path d="M 155.011326 298.989375 
L 161.169682 298.989375 
L 161.169682 278.926354 
L 155.011326 278.926354 
z
" clip-path="url(#p0aedc58e35)" style="fill: #fb6107; fill-opacity: 0.75; stroke: #ffffff; stroke-width: 0.615836; stroke-linejoin: miter"/>
   </g>
   <g id="patch_71">
    <path d="M 161.169682 298.989375 
L 167.328038 298.989375 
L 167.328038 270.60754 
L 161.169682 270.60754 
z
" clip-path="url(#p0aedc58e35)" style="fill: #fb6107; fill-opacity: 0.75; stroke: #ffffff; stroke-width: 0.615836; stroke-linejoin: miter"/>
   </g>
   <g id="patch_72">
    <path d="M 167.328038 298.989375 
L 173.486394 298.989375 
L 173.486394 288.713193 
L 167.328038 288.713193 
z
" clip-path="url(#p0aedc58e35)" style="fill: #fb6107; fill-opacity: 0.75; stroke: #ffffff; stroke-width: 0.615836; stroke-linejoin: miter"/>
   </g>
   <g id="patch_73">
    <path d="M 173.486394 298.989375 
L 179.64475 298.989375 
L 179.64475 285.777141 
L 173.486394 285.777141 
z
" clip-path="url(#p0aedc58e35)" style="fill: #fb6107; fill-opacity: 0.75; stroke: #ffffff; stroke-width: 0.615836; stroke-linejoin: miter"/>
   </g>
   <g id="patch_74">
    <path d="M 179.64475 298.989375 
L 185.803106 298.989375 
L 185.803106 283.819774 
L 179.64475 283.819774 
z
" clip-path="url(#p0aedc58e35)" style="fill: #fb6107; fill-opacity: 0.75; stroke: #ffffff; stroke-width: 0.615836; stroke-linejoin: miter"/>
   </g>
   <g id="patch_75">
    <path d="M 185.803106 298.989375 
L 191.961462 298.989375 
L 191.961462 271.341553 
L 185.803106 271.341553 
z
" clip-path="url(#p0aedc58e35)" style="fill: #fb6107; fill-opacity: 0.75; stroke: #ffffff; stroke-width: 0.615836; stroke-linejoin: miter"/>
   </g>
   <g id="patch_76">
    <path d="M 191.961462 298.989375 
L 198.119818 298.989375 
L 198.119818 246.629783 
L 191.961462 246.629783 
z
" clip-path="url(#p0aedc58e35)" style="fill: #fb6107; fill-opacity: 0.75; stroke: #ffffff; stroke-width: 0.615836; stroke-linejoin: miter"/>
   </g>
   <g id="patch_77">
    <path d="M 198.119818 298.989375 
L 204.278174 298.989375 
L 204.278174 268.894843 
L 198.119818 268.894843 
z
" clip-path="url(#p0aedc58e35)" style="fill: #fb6107; fill-opacity: 0.75; stroke: #ffffff; stroke-width: 0.615836; stroke-linejoin: miter"/>
   </g>
   <g id="patch_78">
    <path d="M 204.278174 298.989375 
L 210.43653 298.989375 
L 210.43653 224.120052 
L 204.278174 224.120052 
z
" clip-path="url(#p0aedc58e35)" style="fill: #fb6107; fill-opacity: 0.75; stroke: #ffffff; stroke-width: 0.615836; stroke-linejoin: miter"/>
   </g>
   <g id="patch_79">
    <path d="M 210.43653 298.989375 
L 216.594886 298.989375 
L 216.594886 150.718754 
L 210.43653 150.718754 
z
" clip-path="url(#p0aedc58e35)" style="fill: #fb6107; fill-opacity: 0.75; stroke: #ffffff; stroke-width: 0.615836; stroke-linejoin: miter"/>
   </g>
   <g id="patch_80">
    <path d="M 216.594886 298.989375 
L 222.753242 298.989375 
L 222.753242 244.183073 
L 216.594886 244.183073 
z
" clip-path="url(#p0aedc58e35)" style="fill: #fb6107; fill-opacity: 0.75; stroke: #ffffff; stroke-width: 0.615836; stroke-linejoin: miter"/>
   </g>
   <g id="patch_81">
    <path d="M 222.753242 298.989375 
L 228.911598 298.989375 
L 228.911598 233.417549 
L 222.753242 233.417549 
z
" clip-path="url(#p0aedc58e35)" style="fill: #fb6107; fill-opacity: 0.75; stroke: #ffffff; stroke-width: 0.615836; stroke-linejoin: miter"/>
   </g>
   <g id="patch_82">
    <path d="M 228.911598 298.989375 
L 235.069954 298.989375 
L 235.069954 241.736363 
L 228.911598 241.736363 
z
" clip-path="url(#p0aedc58e35)" style="fill: #fb6107; fill-opacity: 0.75; stroke: #ffffff; stroke-width: 0.615836; stroke-linejoin: miter"/>
   </g>
   <g id="patch_83">
    <path d="M 235.069954 298.989375 
L 241.22831 298.989375 
L 241.22831 214.822554 
L 235.069954 214.822554 
z
" clip-path="url(#p0aedc58e35)" style="fill: #fb6107; fill-opacity: 0.75; stroke: #ffffff; stroke-width: 0.615836; stroke-linejoin: miter"/>
   </g>
   <g id="patch_84">
    <path d="M 241.22831 298.989375 
L 247.386666 298.989375 
L 247.386666 229.992155 
L 241.22831 229.992155 
z
" clip-path="url(#p0aedc58e35)" style="fill: #fb6107; fill-opacity: 0.75; stroke: #ffffff; stroke-width: 0.615836; stroke-linejoin: miter"/>
   </g>
   <g id="patch_85">
    <path d="M 247.386666 298.989375 
L 253.545022 298.989375 
L 253.545022 80.008837 
L 247.386666 80.008837 
z
" clip-path="url(#p0aedc58e35)" style="fill: #fb6107; fill-opacity: 0.75; stroke: #ffffff; stroke-width: 0.615836; stroke-linejoin: miter"/>
   </g>
   <g id="patch_86">
    <path d="M 253.545022 298.989375 
L 259.703377 298.989375 
L 259.703377 109.124685 
L 253.545022 109.124685 
z
" clip-path="url(#p0aedc58e35)" style="fill: #fb6107; fill-opacity: 0.75; stroke: #ffffff; stroke-width: 0.615836; stroke-linejoin: miter"/>
   </g>
   <g id="patch_87">
    <path d="M 259.703377 298.989375 
L 265.861733 298.989375 
L 265.861733 221.184 
L 259.703377 221.184 
z
" clip-path="url(#p0aedc58e35)" style="fill: #fb6107; fill-opacity: 0.75; stroke: #ffffff; stroke-width: 0.615836; stroke-linejoin: miter"/>
   </g>
   <g id="patch_88">
    <path d="M 265.861733 298.989375 
L 272.020089 298.989375 
L 272.020089 183.504667 
L 265.861733 183.504667 
z
" clip-path="url(#p0aedc58e35)" style="fill: #fb6107; fill-opacity: 0.75; stroke: #ffffff; stroke-width: 0.615836; stroke-linejoin: miter"/>
   </g>
   <g id="patch_89">
    <path d="M 272.020089 298.989375 
L 278.178445 298.989375 
L 278.178445 241.736363 
L 272.020089 241.736363 
z
" clip-path="url(#p0aedc58e35)" style="fill: #fb6107; fill-opacity: 0.75; stroke: #ffffff; stroke-width: 0.615836; stroke-linejoin: miter"/>
   </g>
   <g id="patch_90">
    <path d="M 278.178445 298.989375 
L 284.336801 298.989375 
L 284.336801 148.027373 
L 278.178445 148.027373 
z
" clip-path="url(#p0aedc58e35)" style="fill: #fb6107; fill-opacity: 0.75; stroke: #ffffff; stroke-width: 0.615836; stroke-linejoin: miter"/>
   </g>
   <g id="patch_91">
    <path d="M 284.336801 298.989375 
L 290.495157 298.989375 
L 290.495157 228.524129 
L 284.336801 228.524129 
z
" clip-path="url(#p0aedc58e35)" style="fill: #fb6107; fill-opacity: 0.75; stroke: #ffffff; stroke-width: 0.615836; stroke-linejoin: miter"/>
   </g>
   <g id="patch_92">
    <path d="M 290.495157 298.989375 
L 296.653513 298.989375 
L 296.653513 190.844797 
L 290.495157 190.844797 
z
" clip-path="url(#p0aedc58e35)" style="fill: #fb6107; fill-opacity: 0.75; stroke: #ffffff; stroke-width: 0.615836; stroke-linejoin: miter"/>
   </g>
   <g id="patch_93">
    <path d="M 296.653513 298.989375 
L 302.811869 298.989375 
L 302.811869 151.452767 
L 296.653513 151.452767 
z
" clip-path="url(#p0aedc58e35)" style="fill: #fb6107; fill-opacity: 0.75; stroke: #ffffff; stroke-width: 0.615836; stroke-linejoin: miter"/>
   </g>
   <g id="patch_94">
    <path d="M 302.811869 298.989375 
L 308.970225 298.989375 
L 308.970225 174.941182 
L 302.811869 174.941182 
z
" clip-path="url(#p0aedc58e35)" style="fill: #fb6107; fill-opacity: 0.75; stroke: #ffffff; stroke-width: 0.615836; stroke-linejoin: miter"/>
   </g>
   <g id="patch_95">
    <path d="M 308.970225 298.989375 
L 315.128581 298.989375 
L 315.128581 263.512081 
L 308.970225 263.512081 
z
" clip-path="url(#p0aedc58e35)" style="fill: #fb6107; fill-opacity: 0.75; stroke: #ffffff; stroke-width: 0.615836; stroke-linejoin: miter"/>
   </g>
   <g id="patch_96">
    <path d="M 315.128581 298.989375 
L 321.286937 298.989375 
L 321.286937 235.374917 
L 315.128581 235.374917 
z
" clip-path="url(#p0aedc58e35)" style="fill: #fb6107; fill-opacity: 0.75; stroke: #ffffff; stroke-width: 0.615836; stroke-linejoin: miter"/>
   </g>
   <g id="patch_97">
    <path d="M 321.286937 298.989375 
L 327.445293 298.989375 
L 327.445293 265.958791 
L 321.286937 265.958791 
z
" clip-path="url(#p0aedc58e35)" style="fill: #fb6107; fill-opacity: 0.75; stroke: #ffffff; stroke-width: 0.615836; stroke-linejoin: miter"/>
   </g>
   <g id="patch_98">
    <path d="M 327.445293 298.989375 
L 333.603649 298.989375 
L 333.603649 219.226632 
L 327.445293 219.226632 
z
" clip-path="url(#p0aedc58e35)" style="fill: #fb6107; fill-opacity: 0.75; stroke: #ffffff; stroke-width: 0.615836; stroke-linejoin: miter"/>
   </g>
   <g id="patch_99">
    <path d="M 333.603649 298.989375 
L 339.762005 298.989375 
L 339.762005 268.894843 
L 333.603649 268.894843 
z
" clip-path="url(#p0aedc58e35)" style="fill: #fb6107; fill-opacity: 0.75; stroke: #ffffff; stroke-width: 0.615836; stroke-linejoin: miter"/>
   </g>
   <g id="patch_100">
    <path d="M 339.762005 298.989375 
L 345.920361 298.989375 
L 345.920361 283.330432 
L 339.762005 283.330432 
z
" clip-path="url(#p0aedc58e35)" style="fill: #fb6107; fill-opacity: 0.75; stroke: #ffffff; stroke-width: 0.615836; stroke-linejoin: miter"/>
   </g>
   <g id="patch_101">
    <path d="M 345.920361 298.989375 
L 352.078717 298.989375 
L 352.078717 254.459255 
L 345.920361 254.459255 
z
" clip-path="url(#p0aedc58e35)" style="fill: #fb6107; fill-opacity: 0.75; stroke: #ffffff; stroke-width: 0.615836; stroke-linejoin: miter"/>
   </g>
   <g id="patch_102">
    <path d="M 352.078717 298.989375 
L 358.237073 298.989375 
L 358.237073 287.97918 
L 352.078717 287.97918 
z
" clip-path="url(#p0aedc58e35)" style="fill: #fb6107; fill-opacity: 0.75; stroke: #ffffff; stroke-width: 0.615836; stroke-linejoin: miter"/>
   </g>
   <g id="patch_103">
    <path d="M 358.237073 298.989375 
L 364.395429 298.989375 
L 364.395429 272.320237 
L 358.237073 272.320237 
z
" clip-path="url(#p0aedc58e35)" style="fill: #fb6107; fill-opacity: 0.75; stroke: #ffffff; stroke-width: 0.615836; stroke-linejoin: miter"/>
   </g>
   <g id="patch_104">
    <path d="M 364.395429 298.989375 
L 370.553785 298.989375 
L 370.553785 287.000496 
L 364.395429 287.000496 
z
" clip-path="url(#p0aedc58e35)" style="fill: #fb6107; fill-opacity: 0.75; stroke: #ffffff; stroke-width: 0.615836; stroke-linejoin: miter"/>
   </g>
   <g id="patch_105">
    <path d="M 370.553785 298.989375 
L 376.712141 298.989375 
L 376.712141 287.734509 
L 370.553785 287.734509 
z
" clip-path="url(#p0aedc58e35)" style="fill: #fb6107; fill-opacity: 0.75; stroke: #ffffff; stroke-width: 0.615836; stroke-linejoin: miter"/>
   </g>
   <g id="patch_106">
    <path d="M 376.712141 298.989375 
L 382.870497 298.989375 
L 382.870497 291.159903 
L 376.712141 291.159903 
z
" clip-path="url(#p0aedc58e35)" style="fill: #fb6107; fill-opacity: 0.75; stroke: #ffffff; stroke-width: 0.615836; stroke-linejoin: miter"/>
   </g>
   <g id="patch_107">
    <path d="M 382.870497 298.989375 
L 389.028852 298.989375 
L 389.028852 290.181219 
L 382.870497 290.181219 
z
" clip-path="url(#p0aedc58e35)" style="fill: #fb6107; fill-opacity: 0.75; stroke: #ffffff; stroke-width: 0.615836; stroke-linejoin: miter"/>
   </g>
   <g id="patch_108">
    <path d="M 389.028852 298.989375 
L 395.187208 298.989375 
L 395.187208 286.511154 
L 389.028852 286.511154 
z
" clip-path="url(#p0aedc58e35)" style="fill: #fb6107; fill-opacity: 0.75; stroke: #ffffff; stroke-width: 0.615836; stroke-linejoin: miter"/>
   </g>
   <g id="patch_109">
    <path d="M 395.187208 298.989375 
L 401.345564 298.989375 
L 401.345564 295.074639 
L 395.187208 295.074639 
z
" clip-path="url(#p0aedc58e35)" style="fill: #fb6107; fill-opacity: 0.75; stroke: #ffffff; stroke-width: 0.615836; stroke-linejoin: miter"/>
   </g>
   <g id="patch_110">
    <path d="M 401.345564 298.989375 
L 407.50392 298.989375 
L 407.50392 298.989375 
L 401.345564 298.989375 
z
" clip-path="url(#p0aedc58e35)" style="fill: #fb6107; fill-opacity: 0.75; stroke: #ffffff; stroke-width: 0.615836; stroke-linejoin: miter"/>
   </g>
   <g id="patch_111">
    <path d="M 407.50392 298.989375 
L 413.662276 298.989375 
L 413.662276 298.255362 
L 407.50392 298.255362 
z
" clip-path="url(#p0aedc58e35)" style="fill: #fb6107; fill-opacity: 0.75; stroke: #ffffff; stroke-width: 0.615836; stroke-linejoin: miter"/>
   </g>
   <g id="patch_112">
    <path d="M 413.662276 298.989375 
L 419.820632 298.989375 
L 419.820632 298.744704 
L 413.662276 298.744704 
z
" clip-path="url(#p0aedc58e35)" style="fill: #fb6107; fill-opacity: 0.75; stroke: #ffffff; stroke-width: 0.615836; stroke-linejoin: miter"/>
   </g>
   <g id="patch_113">
    <path d="M 419.820632 298.989375 
L 425.978988 298.989375 
L 425.978988 298.744704 
L 419.820632 298.744704 
z
" clip-path="url(#p0aedc58e35)" style="fill: #fb6107; fill-opacity: 0.75; stroke: #ffffff; stroke-width: 0.615836; stroke-linejoin: miter"/>
   </g>
   <g id="patch_114">
    <path d="M 425.978988 298.989375 
L 432.137344 298.989375 
L 432.137344 298.744704 
L 425.978988 298.744704 
z
" clip-path="url(#p0aedc58e35)" style="fill: #fb6107; fill-opacity: 0.75; stroke: #ffffff; stroke-width: 0.615836; stroke-linejoin: miter"/>
   </g>
   <g id="patch_115">
    <path d="M 49.589063 298.989375 
L 49.589063 21.789375 
" style="fill: none; stroke: #cccccc; stroke-width: 0.8; stroke-linejoin: miter; stroke-linecap: square"/>
   </g>
   <g id="patch_116">
    <path d="M 607.589062 298.989375 
L 607.589062 21.789375 
" style="fill: none; stroke: #cccccc; stroke-width: 0.8; stroke-linejoin: miter; stroke-linecap: square"/>
   </g>
   <g id="patch_117">
    <path d="M 49.589062 298.989375 
L 607.589062 298.989375 
" style="fill: none; stroke: #cccccc; stroke-width: 0.8; stroke-linejoin: miter; stroke-linecap: square"/>
   </g>
   <g id="patch_118">
    <path d="M 49.589062 21.789375 
L 607.589062 21.789375 
" style="fill: none; stroke: #cccccc; stroke-width: 0.8; stroke-linejoin: miter; stroke-linecap: square"/>
   </g>
   <g id="text_17">
    <!-- Розподіл медіани доходу -->
    <g style="fill: #262626" transform="translate(259.144688 15.789375) scale(0.12 -0.12)">
     <defs>
      <path id="ArialMT-420" d="M 494 0 
L 494 4581 
L 2222 4581 
Q 2678 4581 2919 4538 
Q 3256 4481 3484 4323 
Q 3713 4166 3852 3881 
Q 3991 3597 3991 3256 
Q 3991 2672 3619 2267 
Q 3247 1863 2275 1863 
L 1100 1863 
L 1100 0 
L 494 0 
z
M 1100 2403 
L 2284 2403 
Q 2872 2403 3119 2622 
Q 3366 2841 3366 3238 
Q 3366 3525 3220 3729 
Q 3075 3934 2838 4000 
Q 2684 4041 2272 4041 
L 1100 4041 
L 1100 2403 
z
" transform="scale(0.015625)"/>
      <path id="ArialMT-43e" d="M 213 1659 
Q 213 2581 725 3025 
Q 1153 3394 1769 3394 
Q 2453 3394 2887 2945 
Q 3322 2497 3322 1706 
Q 3322 1066 3130 698 
Q 2938 331 2570 128 
Q 2203 -75 1769 -75 
Q 1072 -75 642 372 
Q 213 819 213 1659 
z
M 791 1659 
Q 791 1022 1069 705 
Q 1347 388 1769 388 
Q 2188 388 2466 706 
Q 2744 1025 2744 1678 
Q 2744 2294 2464 2611 
Q 2184 2928 1769 2928 
Q 1347 2928 1069 2612 
Q 791 2297 791 1659 
z
" transform="scale(0.015625)"/>
      <path id="ArialMT-437" d="M 1156 1500 
L 1156 1941 
Q 1513 1944 1642 1969 
Q 1772 1994 1887 2119 
Q 2003 2244 2003 2431 
Q 2003 2659 1851 2795 
Q 1700 2931 1459 2931 
Q 984 2931 794 2372 
L 259 2459 
Q 509 3394 1466 3394 
Q 1997 3394 2298 3103 
Q 2600 2813 2600 2409 
Q 2600 2003 2206 1763 
Q 2456 1628 2581 1420 
Q 2706 1213 2706 928 
Q 2706 481 2381 203 
Q 2056 -75 1472 -75 
Q 338 -75 156 934 
L 684 1047 
Q 756 728 976 553 
Q 1197 378 1481 378 
Q 1766 378 1955 539 
Q 2144 700 2144 950 
Q 2144 1144 2025 1287 
Q 1906 1431 1772 1467 
Q 1638 1503 1284 1503 
Q 1256 1503 1156 1500 
z
" transform="scale(0.015625)"/>
      <path id="ArialMT-43f" d="M 425 3319 
L 3044 3319 
L 3044 0 
L 2481 0 
L 2481 2853 
L 988 2853 
L 988 0 
L 425 0 
L 425 3319 
z
" transform="scale(0.015625)"/>
      <path id="ArialMT-434" d="M 866 3319 
L 3178 3319 
L 3178 463 
L 3538 463 
L 3538 -941 
L 3075 -941 
L 3075 0 
L 463 0 
L 463 -941 
L 0 -941 
L 0 463 
L 297 463 
Q 891 1269 866 3319 
z
M 1334 2853 
Q 1272 1238 834 463 
L 2619 463 
L 2619 2853 
L 1334 2853 
z
" transform="scale(0.015625)"/>
      <path id="ArialMT-456" d="M 425 3934 
L 425 4581 
L 988 4581 
L 988 3934 
L 425 3934 
z
M 425 0 
L 425 3319 
L 988 3319 
L 988 0 
L 425 0 
z
" transform="scale(0.015625)"/>
      <path id="ArialMT-43b" d="M 697 3319 
L 3309 3319 
L 3309 0 
L 2750 0 
L 2750 2853 
L 1259 2853 
L 1259 1200 
Q 1259 622 1221 437 
Q 1184 253 1015 115 
Q 847 -22 528 -22 
Q 331 -22 75 3 
L 75 472 
L 322 472 
Q 497 472 572 508 
Q 647 544 672 622 
Q 697 700 697 1131 
L 697 3319 
z
" transform="scale(0.015625)"/>
      <path id="ArialMT-20" transform="scale(0.015625)"/>
      <path id="ArialMT-43c" d="M 438 3319 
L 1313 3319 
L 2184 663 
L 3153 3319 
L 3963 3319 
L 3963 0 
L 3400 0 
L 3400 2672 
L 2419 0 
L 1916 0 
L 988 2800 
L 988 0 
L 438 0 
L 438 3319 
z
" transform="scale(0.015625)"/>
      <path id="ArialMT-435" d="M 2694 1069 
L 3275 997 
Q 3138 488 2766 206 
Q 2394 -75 1816 -75 
Q 1088 -75 661 373 
Q 234 822 234 1631 
Q 234 2469 665 2931 
Q 1097 3394 1784 3394 
Q 2450 3394 2872 2941 
Q 3294 2488 3294 1666 
Q 3294 1616 3291 1516 
L 816 1516 
Q 847 969 1125 678 
Q 1403 388 1819 388 
Q 2128 388 2347 550 
Q 2566 713 2694 1069 
z
M 847 1978 
L 2700 1978 
Q 2663 2397 2488 2606 
Q 2219 2931 1791 2931 
Q 1403 2931 1139 2672 
Q 875 2413 847 1978 
z
" transform="scale(0.015625)"/>
      <path id="ArialMT-430" d="M 2588 409 
Q 2275 144 1986 34 
Q 1697 -75 1366 -75 
Q 819 -75 525 192 
Q 231 459 231 875 
Q 231 1119 342 1320 
Q 453 1522 633 1644 
Q 813 1766 1038 1828 
Q 1203 1872 1538 1913 
Q 2219 1994 2541 2106 
Q 2544 2222 2544 2253 
Q 2544 2597 2384 2738 
Q 2169 2928 1744 2928 
Q 1347 2928 1158 2789 
Q 969 2650 878 2297 
L 328 2372 
Q 403 2725 575 2942 
Q 747 3159 1072 3276 
Q 1397 3394 1825 3394 
Q 2250 3394 2515 3294 
Q 2781 3194 2906 3042 
Q 3031 2891 3081 2659 
Q 3109 2516 3109 2141 
L 3109 1391 
Q 3109 606 3145 398 
Q 3181 191 3288 0 
L 2700 0 
Q 2613 175 2588 409 
z
M 2541 1666 
Q 2234 1541 1622 1453 
Q 1275 1403 1131 1340 
Q 988 1278 909 1158 
Q 831 1038 831 891 
Q 831 666 1001 516 
Q 1172 366 1500 366 
Q 1825 366 2078 508 
Q 2331 650 2450 897 
Q 2541 1088 2541 1459 
L 2541 1666 
z
" transform="scale(0.015625)"/>
      <path id="ArialMT-43d" d="M 425 3319 
L 988 3319 
L 988 1938 
L 2547 1938 
L 2547 3319 
L 3109 3319 
L 3109 0 
L 2547 0 
L 2547 1472 
L 988 1472 
L 988 0 
L 425 0 
L 425 3319 
z
" transform="scale(0.015625)"/>
      <path id="ArialMT-438" d="M 422 3319 
L 984 3319 
L 984 788 
L 2544 3319 
L 3150 3319 
L 3150 0 
L 2588 0 
L 2588 2516 
L 1028 0 
L 422 0 
L 422 3319 
z
" transform="scale(0.015625)"/>
      <path id="ArialMT-445" d="M 47 0 
L 1259 1725 
L 138 3319 
L 841 3319 
L 1350 2541 
Q 1494 2319 1581 2169 
Q 1719 2375 1834 2534 
L 2394 3319 
L 3066 3319 
L 1919 1756 
L 3153 0 
L 2463 0 
L 1781 1031 
L 1600 1309 
L 728 0 
L 47 0 
z
" transform="scale(0.015625)"/>
      <path id="ArialMT-443" d="M 397 -1278 
L 334 -750 
Q 519 -800 656 -800 
Q 844 -800 956 -737 
Q 1069 -675 1141 -563 
Q 1194 -478 1313 -144 
Q 1328 -97 1363 -6 
L 103 3319 
L 709 3319 
L 1400 1397 
Q 1534 1031 1641 628 
Q 1738 1016 1872 1384 
L 2581 3319 
L 3144 3319 
L 1881 -56 
Q 1678 -603 1566 -809 
Q 1416 -1088 1222 -1217 
Q 1028 -1347 759 -1347 
Q 597 -1347 397 -1278 
z
" transform="scale(0.015625)"/>
     </defs>
     <use xlink:href="#ArialMT-420"/>
     <use xlink:href="#ArialMT-43e" x="62.324219"/>
     <use xlink:href="#ArialMT-437" x="116.814453"/>
     <use xlink:href="#ArialMT-43f" x="162.664062"/>
     <use xlink:href="#ArialMT-43e" x="216.814453"/>
     <use xlink:href="#ArialMT-434" x="270.179688"/>
     <use xlink:href="#ArialMT-456" x="328.529297"/>
     <use xlink:href="#ArialMT-43b" x="350.746094"/>
     <use xlink:href="#ArialMT-20" x="409.095703"/>
     <use xlink:href="#ArialMT-43c" x="436.878906"/>
     <use xlink:href="#ArialMT-435" x="505.628906"/>
     <use xlink:href="#ArialMT-434" x="558.994141"/>
     <use xlink:href="#ArialMT-456" x="617.34375"/>
     <use xlink:href="#ArialMT-430" x="639.560547"/>
     <use xlink:href="#ArialMT-43d" x="695.175781"/>
     <use xlink:href="#ArialMT-438" x="750.400391"/>
     <use xlink:href="#ArialMT-20" x="806.259766"/>
     <use xlink:href="#ArialMT-434" x="834.042969"/>
     <use xlink:href="#ArialMT-43e" x="892.392578"/>
     <use xlink:href="#ArialMT-445" x="946.882812"/>
     <use xlink:href="#ArialMT-43e" x="995.757812"/>
     <use xlink:href="#ArialMT-434" x="1049.123047"/>
     <use xlink:href="#ArialMT-443" x="1107.472656"/>
    </g>
   </g>
   <g id="legend_1">
    <g id="patch_119">
     <path d="M 56.589063 58.540937 
L 327.939063 58.540937 
Q 329.939063 58.540937 329.939063 56.540937 
L 329.939063 28.789375 
Q 329.939063 26.789375 327.939063 26.789375 
L 56.589063 26.789375 
Q 54.589063 26.789375 54.589063 28.789375 
L 54.589063 56.540937 
Q 54.589063 58.540937 56.589063 58.540937 
z
" style="fill: #ffffff; opacity: 0.8; stroke: #cccccc; stroke-linejoin: miter"/>
    </g>
    <g id="patch_120">
     <path d="M 58.589063 38.119062 
L 78.589063 38.119062 
L 78.589063 31.119062 
L 58.589063 31.119062 
z
" style="fill: #181485; fill-opacity: 0.75; stroke: #ffffff; stroke-width: 0.939394; stroke-linejoin: miter"/>
    </g>
    <g id="text_18">
     <!-- Середнє вибіркової медіани для тесту: 2983.86 -->
     <g style="fill: #262626" transform="translate(86.589063 38.119062) scale(0.1 -0.1)">
      <defs>
       <path id="ArialMT-421" d="M 3763 1606 
L 4369 1453 
Q 4178 706 3683 314 
Q 3188 -78 2472 -78 
Q 1731 -78 1267 223 
Q 803 525 561 1097 
Q 319 1669 319 2325 
Q 319 3041 592 3573 
Q 866 4106 1370 4382 
Q 1875 4659 2481 4659 
Q 3169 4659 3637 4309 
Q 4106 3959 4291 3325 
L 3694 3184 
Q 3534 3684 3231 3912 
Q 2928 4141 2469 4141 
Q 1941 4141 1586 3887 
Q 1231 3634 1087 3207 
Q 944 2781 944 2328 
Q 944 1744 1114 1308 
Q 1284 872 1643 656 
Q 2003 441 2422 441 
Q 2931 441 3284 734 
Q 3638 1028 3763 1606 
z
" transform="scale(0.015625)"/>
       <path id="ArialMT-440" d="M 422 -1272 
L 422 3319 
L 934 3319 
L 934 2888 
Q 1116 3141 1344 3267 
Q 1572 3394 1897 3394 
Q 2322 3394 2647 3175 
Q 2972 2956 3137 2557 
Q 3303 2159 3303 1684 
Q 3303 1175 3120 767 
Q 2938 359 2589 142 
Q 2241 -75 1856 -75 
Q 1575 -75 1351 44 
Q 1128 163 984 344 
L 984 -1272 
L 422 -1272 
z
M 931 1641 
Q 931 1000 1190 694 
Q 1450 388 1819 388 
Q 2194 388 2461 705 
Q 2728 1022 2728 1688 
Q 2728 2322 2467 2637 
Q 2206 2953 1844 2953 
Q 1484 2953 1207 2617 
Q 931 2281 931 1641 
z
" transform="scale(0.015625)"/>
       <path id="ArialMT-454" d="M 2003 1931 
L 2003 1469 
L 831 1469 
Q 884 928 1111 658 
Q 1338 388 1741 388 
Q 2453 388 2581 1213 
L 3131 1141 
Q 3044 594 2676 259 
Q 2309 -75 1716 -75 
Q 1009 -116 621 373 
Q 234 863 253 1659 
Q 253 2469 656 2931 
Q 1059 3394 1756 3394 
Q 2313 3394 2656 3098 
Q 3000 2803 3075 2338 
L 2528 2250 
Q 2391 2928 1738 2928 
Q 1363 2928 1123 2651 
Q 884 2375 831 1931 
L 2003 1931 
z
" transform="scale(0.015625)"/>
       <path id="ArialMT-432" d="M 425 3319 
L 1722 3319 
Q 2200 3319 2433 3239 
Q 2666 3159 2833 2946 
Q 3000 2734 3000 2438 
Q 3000 2200 2901 2023 
Q 2803 1847 2606 1728 
Q 2841 1650 2995 1436 
Q 3150 1222 3150 928 
Q 3119 456 2812 228 
Q 2506 0 1922 0 
L 425 0 
L 425 3319 
z
M 988 1922 
L 1588 1922 
Q 1947 1922 2081 1959 
Q 2216 1997 2322 2111 
Q 2428 2225 2428 2384 
Q 2428 2647 2242 2750 
Q 2056 2853 1606 2853 
L 988 2853 
L 988 1922 
z
M 988 463 
L 1728 463 
Q 2206 463 2384 573 
Q 2563 684 2572 956 
Q 2572 1116 2469 1252 
Q 2366 1388 2200 1423 
Q 2034 1459 1669 1459 
L 988 1459 
L 988 463 
z
" transform="scale(0.015625)"/>
       <path id="ArialMT-431" d="M 2853 4691 
L 3350 4684 
Q 3316 4350 3202 4219 
Q 3088 4088 2908 4050 
Q 2728 4013 2203 4013 
Q 1506 4013 1253 3878 
Q 1000 3744 889 3448 
Q 778 3153 766 2688 
Q 978 3003 1262 3161 
Q 1547 3319 1903 3319 
Q 2556 3319 2984 2870 
Q 3413 2422 3413 1656 
Q 3413 1075 3197 703 
Q 2981 331 2686 128 
Q 2391 -75 1881 -75 
Q 1291 -75 962 195 
Q 634 466 459 887 
Q 284 1309 284 2356 
Q 284 3672 729 4128 
Q 1175 4584 2100 4584 
Q 2675 4584 2753 4603 
Q 2831 4622 2853 4691 
z
M 2825 1672 
Q 2825 2191 2579 2522 
Q 2334 2853 1888 2853 
Q 1422 2853 1169 2503 
Q 916 2153 916 1569 
Q 916 991 1195 684 
Q 1475 378 1884 378 
Q 2303 378 2564 733 
Q 2825 1088 2825 1672 
z
" transform="scale(0.015625)"/>
       <path id="ArialMT-43a" d="M 419 3319 
L 981 3319 
L 981 1884 
Q 1250 1884 1358 1987 
Q 1466 2091 1675 2588 
Q 1841 2981 1944 3106 
Q 2047 3231 2181 3275 
Q 2316 3319 2613 3319 
L 2725 3319 
L 2725 2853 
L 2569 2856 
Q 2347 2856 2284 2791 
Q 2219 2722 2084 2381 
Q 1956 2056 1850 1931 
Q 1744 1806 1522 1703 
Q 1884 1606 2234 1028 
L 2850 0 
L 2231 0 
L 1631 1028 
Q 1447 1338 1309 1436 
Q 1172 1534 981 1534 
L 981 0 
L 419 0 
L 419 3319 
z
" transform="scale(0.015625)"/>
       <path id="ArialMT-457" d="M 619 0 
L 619 3319 
L 1181 3319 
L 1181 0 
L 619 0 
z
M 31 3969 
L 31 4609 
L 618 4609 
L 618 3969 
L 31 3969 
z
M 1196 3969 
L 1196 4609 
L 1784 4609 
L 1784 3969 
L 1196 3969 
z
" transform="scale(0.015625)"/>
       <path id="ArialMT-44f" d="M 3034 3319 
L 3034 0 
L 2475 0 
L 2475 1294 
L 2150 1294 
Q 1853 1294 1708 1217 
Q 1563 1141 1284 725 
L 794 0 
L 97 0 
L 703 894 
Q 981 1303 1256 1356 
Q 775 1422 542 1703 
Q 309 1984 309 2350 
Q 309 2781 614 3050 
Q 919 3319 1497 3319 
L 3034 3319 
z
M 2475 2853 
L 1675 2853 
Q 1172 2853 1026 2697 
Q 881 2541 881 2331 
Q 881 2034 1095 1895 
Q 1309 1756 1853 1756 
L 2475 1756 
L 2475 2853 
z
" transform="scale(0.015625)"/>
       <path id="ArialMT-442" d="M 119 3319 
L 2816 3319 
L 2816 2853 
L 1747 2853 
L 1747 0 
L 1188 0 
L 1188 2853 
L 119 2853 
L 119 3319 
z
" transform="scale(0.015625)"/>
       <path id="ArialMT-441" d="M 2588 1216 
L 3141 1144 
Q 3050 572 2676 248 
Q 2303 -75 1759 -75 
Q 1078 -75 664 370 
Q 250 816 250 1647 
Q 250 2184 428 2587 
Q 606 2991 970 3192 
Q 1334 3394 1763 3394 
Q 2303 3394 2647 3120 
Q 2991 2847 3088 2344 
L 2541 2259 
Q 2463 2594 2264 2762 
Q 2066 2931 1784 2931 
Q 1359 2931 1093 2626 
Q 828 2322 828 1663 
Q 828 994 1084 691 
Q 1341 388 1753 388 
Q 2084 388 2306 591 
Q 2528 794 2588 1216 
z
" transform="scale(0.015625)"/>
       <path id="ArialMT-3a" d="M 578 2678 
L 578 3319 
L 1219 3319 
L 1219 2678 
L 578 2678 
z
M 578 0 
L 578 641 
L 1219 641 
L 1219 0 
L 578 0 
z
" transform="scale(0.015625)"/>
       <path id="ArialMT-39" d="M 350 1059 
L 891 1109 
Q 959 728 1153 556 
Q 1347 384 1650 384 
Q 1909 384 2104 503 
Q 2300 622 2425 820 
Q 2550 1019 2634 1356 
Q 2719 1694 2719 2044 
Q 2719 2081 2716 2156 
Q 2547 1888 2255 1720 
Q 1963 1553 1622 1553 
Q 1053 1553 659 1965 
Q 266 2378 266 3053 
Q 266 3750 677 4175 
Q 1088 4600 1706 4600 
Q 2153 4600 2523 4359 
Q 2894 4119 3086 3673 
Q 3278 3228 3278 2384 
Q 3278 1506 3087 986 
Q 2897 466 2520 194 
Q 2144 -78 1638 -78 
Q 1100 -78 759 220 
Q 419 519 350 1059 
z
M 2653 3081 
Q 2653 3566 2395 3850 
Q 2138 4134 1775 4134 
Q 1400 4134 1122 3828 
Q 844 3522 844 3034 
Q 844 2597 1108 2323 
Q 1372 2050 1759 2050 
Q 2150 2050 2401 2323 
Q 2653 2597 2653 3081 
z
" transform="scale(0.015625)"/>
       <path id="ArialMT-2e" d="M 581 0 
L 581 641 
L 1222 641 
L 1222 0 
L 581 0 
z
" transform="scale(0.015625)"/>
      </defs>
      <use xlink:href="#ArialMT-421"/>
      <use xlink:href="#ArialMT-435" x="72.216797"/>
      <use xlink:href="#ArialMT-440" x="127.832031"/>
      <use xlink:href="#ArialMT-435" x="183.447266"/>
      <use xlink:href="#ArialMT-434" x="236.8125"/>
      <use xlink:href="#ArialMT-43d" x="295.162109"/>
      <use xlink:href="#ArialMT-454" x="350.386719"/>
      <use xlink:href="#ArialMT-20" x="401.412109"/>
      <use xlink:href="#ArialMT-432" x="429.195312"/>
      <use xlink:href="#ArialMT-438" x="482.320312"/>
      <use xlink:href="#ArialMT-431" x="538.179688"/>
      <use xlink:href="#ArialMT-456" x="595.455078"/>
      <use xlink:href="#ArialMT-440" x="617.671875"/>
      <use xlink:href="#ArialMT-43a" x="673.287109"/>
      <use xlink:href="#ArialMT-43e" x="718.162109"/>
      <use xlink:href="#ArialMT-432" x="773.777344"/>
      <use xlink:href="#ArialMT-43e" x="825.777344"/>
      <use xlink:href="#ArialMT-457" x="881.392578"/>
      <use xlink:href="#ArialMT-20" x="909.175781"/>
      <use xlink:href="#ArialMT-43c" x="936.958984"/>
      <use xlink:href="#ArialMT-435" x="1005.708984"/>
      <use xlink:href="#ArialMT-434" x="1059.074219"/>
      <use xlink:href="#ArialMT-456" x="1117.423828"/>
      <use xlink:href="#ArialMT-430" x="1139.640625"/>
      <use xlink:href="#ArialMT-43d" x="1195.255859"/>
      <use xlink:href="#ArialMT-438" x="1250.480469"/>
      <use xlink:href="#ArialMT-20" x="1306.339844"/>
      <use xlink:href="#ArialMT-434" x="1334.123047"/>
      <use xlink:href="#ArialMT-43b" x="1392.472656"/>
      <use xlink:href="#ArialMT-44f" x="1450.822266"/>
      <use xlink:href="#ArialMT-20" x="1504.972656"/>
      <use xlink:href="#ArialMT-442" x="1532.755859"/>
      <use xlink:href="#ArialMT-435" x="1577.431641"/>
      <use xlink:href="#ArialMT-441" x="1633.046875"/>
      <use xlink:href="#ArialMT-442" x="1683.046875"/>
      <use xlink:href="#ArialMT-443" x="1729.972656"/>
      <use xlink:href="#ArialMT-3a" x="1779.972656"/>
      <use xlink:href="#ArialMT-20" x="1807.755859"/>
      <use xlink:href="#ArialMT-32" x="1835.539062"/>
      <use xlink:href="#ArialMT-39" x="1891.154297"/>
      <use xlink:href="#ArialMT-38" x="1946.769531"/>
      <use xlink:href="#ArialMT-33" x="2002.384766"/>
      <use xlink:href="#ArialMT-2e" x="2058"/>
      <use xlink:href="#ArialMT-38" x="2085.783203"/>
      <use xlink:href="#ArialMT-36" x="2141.398438"/>
     </g>
    </g>
    <g id="patch_121">
     <path d="M 58.589063 52.553437 
L 78.589063 52.553437 
L 78.589063 45.553437 
L 58.589063 45.553437 
z
" style="fill: #fb6107; fill-opacity: 0.75; stroke: #ffffff; stroke-width: 0.615836; stroke-linejoin: miter"/>
    </g>
    <g id="text_19">
     <!-- Середнє вибіркової медіани для контролю: 2609.66 -->
     <g style="fill: #262626" transform="translate(86.589063 52.553437) scale(0.1 -0.1)">
      <defs>
       <path id="ArialMT-44e" d="M 428 3319 
L 991 3319 
L 991 1931 
L 1672 1931 
Q 1747 2644 2117 3019 
Q 2488 3394 3078 3394 
Q 3581 3394 3872 3191 
Q 4163 2988 4352 2631 
Q 4541 2275 4541 1672 
Q 4541 813 4150 369 
Q 3759 -75 3091 -75 
Q 2469 -75 2094 337 
Q 1719 750 1672 1469 
L 991 1469 
L 991 0 
L 428 0 
L 428 3319 
z
M 3109 2916 
Q 2697 2916 2467 2598 
Q 2238 2281 2238 1709 
Q 2238 1025 2469 706 
Q 2700 388 3088 388 
Q 3472 388 3717 683 
Q 3963 978 3963 1634 
Q 3963 2275 3750 2595 
Q 3538 2916 3109 2916 
z
" transform="scale(0.015625)"/>
      </defs>
      <use xlink:href="#ArialMT-421"/>
      <use xlink:href="#ArialMT-435" x="72.216797"/>
      <use xlink:href="#ArialMT-440" x="127.832031"/>
      <use xlink:href="#ArialMT-435" x="183.447266"/>
      <use xlink:href="#ArialMT-434" x="236.8125"/>
      <use xlink:href="#ArialMT-43d" x="295.162109"/>
      <use xlink:href="#ArialMT-454" x="350.386719"/>
      <use xlink:href="#ArialMT-20" x="401.412109"/>
      <use xlink:href="#ArialMT-432" x="429.195312"/>
      <use xlink:href="#ArialMT-438" x="482.320312"/>
      <use xlink:href="#ArialMT-431" x="538.179688"/>
      <use xlink:href="#ArialMT-456" x="595.455078"/>
      <use xlink:href="#ArialMT-440" x="617.671875"/>
      <use xlink:href="#ArialMT-43a" x="673.287109"/>
      <use xlink:href="#ArialMT-43e" x="718.162109"/>
      <use xlink:href="#ArialMT-432" x="773.777344"/>
      <use xlink:href="#ArialMT-43e" x="825.777344"/>
      <use xlink:href="#ArialMT-457" x="881.392578"/>
      <use xlink:href="#ArialMT-20" x="909.175781"/>
      <use xlink:href="#ArialMT-43c" x="936.958984"/>
      <use xlink:href="#ArialMT-435" x="1005.708984"/>
      <use xlink:href="#ArialMT-434" x="1059.074219"/>
      <use xlink:href="#ArialMT-456" x="1117.423828"/>
      <use xlink:href="#ArialMT-430" x="1139.640625"/>
      <use xlink:href="#ArialMT-43d" x="1195.255859"/>
      <use xlink:href="#ArialMT-438" x="1250.480469"/>
      <use xlink:href="#ArialMT-20" x="1306.339844"/>
      <use xlink:href="#ArialMT-434" x="1334.123047"/>
      <use xlink:href="#ArialMT-43b" x="1392.472656"/>
      <use xlink:href="#ArialMT-44f" x="1450.822266"/>
      <use xlink:href="#ArialMT-20" x="1504.972656"/>
      <use xlink:href="#ArialMT-43a" x="1532.755859"/>
      <use xlink:href="#ArialMT-43e" x="1577.630859"/>
      <use xlink:href="#ArialMT-43d" x="1633.246094"/>
      <use xlink:href="#ArialMT-442" x="1688.470703"/>
      <use xlink:href="#ArialMT-440" x="1734.271484"/>
      <use xlink:href="#ArialMT-43e" x="1789.886719"/>
      <use xlink:href="#ArialMT-43b" x="1843.251953"/>
      <use xlink:href="#ArialMT-44e" x="1901.601562"/>
      <use xlink:href="#ArialMT-3a" x="1976.601562"/>
      <use xlink:href="#ArialMT-20" x="2004.384766"/>
      <use xlink:href="#ArialMT-32" x="2032.167969"/>
      <use xlink:href="#ArialMT-36" x="2087.783203"/>
      <use xlink:href="#ArialMT-30" x="2143.398438"/>
      <use xlink:href="#ArialMT-39" x="2199.013672"/>
      <use xlink:href="#ArialMT-2e" x="2254.628906"/>
      <use xlink:href="#ArialMT-36" x="2282.412109"/>
      <use xlink:href="#ArialMT-36" x="2338.027344"/>
     </g>
    </g>
   </g>
  </g>
 </g>
 <defs>
  <clipPath id="p0aedc58e35">
   <rect x="49.589063" y="21.789375" width="558" height="277.2"/>
  </clipPath>
 </defs>
</svg>
