<?xml version="1.0" encoding="utf-8" standalone="no"?>
<!DOCTYPE svg PUBLIC "-//W3C//DTD SVG 1.1//EN"
  "http://www.w3.org/Graphics/SVG/1.1/DTD/svg11.dtd">
<svg xmlns:xlink="http://www.w3.org/1999/xlink" width="712.854687pt" height="353.149219pt" viewBox="0 0 712.854687 353.149219" xmlns="http://www.w3.org/2000/svg" version="1.1">
 <metadata>
  <rdf:RDF xmlns:dc="http://purl.org/dc/elements/1.1/" xmlns:cc="http://creativecommons.org/ns#" xmlns:rdf="http://www.w3.org/1999/02/22-rdf-syntax-ns#">
   <cc:Work>
    <dc:type rdf:resource="http://purl.org/dc/dcmitype/StillImage"/>
    <dc:date>2024-01-31T16:40:31.054000</dc:date>
    <dc:format>image/svg+xml</dc:format>
    <dc:creator>
     <cc:Agent>
      <dc:title>Matplotlib v3.7.2, https://matplotlib.org/</dc:title>
     </cc:Agent>
    </dc:creator>
   </cc:Work>
  </rdf:RDF>
 </metadata>
 <defs>
  <style type="text/css">*{stroke-linejoin: round; stroke-linecap: butt}</style>
 </defs>
 <g id="figure_1">
  <g id="patch_1">
   <path d="M 0 353.149219 
L 712.854687 353.149219 
L 712.854687 0 
L 0 0 
z
" style="fill: #ffffff"/>
  </g>
  <g id="axes_1">
   <g id="patch_2">
    <path d="M 33.660938 329.803906 
L 705.654688 329.803906 
L 705.654688 10.778906 
L 33.660938 10.778906 
z
" style="fill: #ffffff"/>
   </g>
   <g id="matplotlib.axis_1">
    <g id="xtick_1">
     <g id="line2d_1">
      <path d="M 119.742782 329.803906 
L 119.742782 10.778906 
" clip-path="url(#p56472d7306)" style="fill: none; stroke: #cccccc; stroke-width: 0.8; stroke-linecap: round"/>
     </g>
     <g id="text_1">
      <!-- −5 -->
      <g style="fill: #262626" transform="translate(114.042 343.961719) scale(0.1 -0.1)">
       <defs>
        <path id="ArialMT-2212" d="M 3381 1997 
L 356 1997 
L 356 2522 
L 3381 2522 
L 3381 1997 
z
" transform="scale(0.015625)"/>
        <path id="ArialMT-35" d="M 266 1200 
L 856 1250 
Q 922 819 1161 601 
Q 1400 384 1738 384 
Q 2144 384 2425 690 
Q 2706 997 2706 1503 
Q 2706 1984 2436 2262 
Q 2166 2541 1728 2541 
Q 1456 2541 1237 2417 
Q 1019 2294 894 2097 
L 366 2166 
L 809 4519 
L 3088 4519 
L 3088 3981 
L 1259 3981 
L 1013 2750 
Q 1425 3038 1878 3038 
Q 2478 3038 2890 2622 
Q 3303 2206 3303 1553 
Q 3303 931 2941 478 
Q 2500 -78 1738 -78 
Q 1113 -78 717 272 
Q 322 622 266 1200 
z
" transform="scale(0.015625)"/>
       </defs>
       <use xlink:href="#ArialMT-2212"/>
       <use xlink:href="#ArialMT-35" x="58.398438"/>
      </g>
     </g>
    </g>
    <g id="xtick_2">
     <g id="line2d_2">
      <path d="M 258.584465 329.803906 
L 258.584465 10.778906 
" clip-path="url(#p56472d7306)" style="fill: none; stroke: #cccccc; stroke-width: 0.8; stroke-linecap: round"/>
     </g>
     <g id="text_2">
      <!-- 0 -->
      <g style="fill: #262626" transform="translate(255.803997 343.961719) scale(0.1 -0.1)">
       <defs>
        <path id="ArialMT-30" d="M 266 2259 
Q 266 3072 433 3567 
Q 600 4063 929 4331 
Q 1259 4600 1759 4600 
Q 2128 4600 2406 4451 
Q 2684 4303 2865 4023 
Q 3047 3744 3150 3342 
Q 3253 2941 3253 2259 
Q 3253 1453 3087 958 
Q 2922 463 2592 192 
Q 2263 -78 1759 -78 
Q 1097 -78 719 397 
Q 266 969 266 2259 
z
M 844 2259 
Q 844 1131 1108 757 
Q 1372 384 1759 384 
Q 2147 384 2411 759 
Q 2675 1134 2675 2259 
Q 2675 3391 2411 3762 
Q 2147 4134 1753 4134 
Q 1366 4134 1134 3806 
Q 844 3388 844 2259 
z
" transform="scale(0.015625)"/>
       </defs>
       <use xlink:href="#ArialMT-30"/>
      </g>
     </g>
    </g>
    <g id="xtick_3">
     <g id="line2d_3">
      <path d="M 397.426149 329.803906 
L 397.426149 10.778906 
" clip-path="url(#p56472d7306)" style="fill: none; stroke: #cccccc; stroke-width: 0.8; stroke-linecap: round"/>
     </g>
     <g id="text_3">
      <!-- 5 -->
      <g style="fill: #262626" transform="translate(394.645681 343.961719) scale(0.1 -0.1)">
       <use xlink:href="#ArialMT-35"/>
      </g>
     </g>
    </g>
    <g id="xtick_4">
     <g id="line2d_4">
      <path d="M 536.267833 329.803906 
L 536.267833 10.778906 
" clip-path="url(#p56472d7306)" style="fill: none; stroke: #cccccc; stroke-width: 0.8; stroke-linecap: round"/>
     </g>
     <g id="text_4">
      <!-- 10 -->
      <g style="fill: #262626" transform="translate(530.706896 343.961719) scale(0.1 -0.1)">
       <defs>
        <path id="ArialMT-31" d="M 2384 0 
L 1822 0 
L 1822 3584 
Q 1619 3391 1289 3197 
Q 959 3003 697 2906 
L 697 3450 
Q 1169 3672 1522 3987 
Q 1875 4303 2022 4600 
L 2384 4600 
L 2384 0 
z
" transform="scale(0.015625)"/>
       </defs>
       <use xlink:href="#ArialMT-31"/>
       <use xlink:href="#ArialMT-30" x="55.615234"/>
      </g>
     </g>
    </g>
    <g id="xtick_5">
     <g id="line2d_5">
      <path d="M 675.109517 329.803906 
L 675.109517 10.778906 
" clip-path="url(#p56472d7306)" style="fill: none; stroke: #cccccc; stroke-width: 0.8; stroke-linecap: round"/>
     </g>
     <g id="text_5">
      <!-- 15 -->
      <g style="fill: #262626" transform="translate(669.54858 343.961719) scale(0.1 -0.1)">
       <use xlink:href="#ArialMT-31"/>
       <use xlink:href="#ArialMT-35" x="55.615234"/>
      </g>
     </g>
    </g>
   </g>
   <g id="matplotlib.axis_2">
    <g id="ytick_1">
     <g id="line2d_6">
      <path d="M 33.660938 329.803906 
L 705.654688 329.803906 
" clip-path="url(#p56472d7306)" style="fill: none; stroke: #cccccc; stroke-width: 0.8; stroke-linecap: round"/>
     </g>
     <g id="text_6">
      <!-- 0.00 -->
      <g style="fill: #262626" transform="translate(7.2 333.382813) scale(0.1 -0.1)">
       <defs>
        <path id="ArialMT-2e" d="M 581 0 
L 581 641 
L 1222 641 
L 1222 0 
L 581 0 
z
" transform="scale(0.015625)"/>
       </defs>
       <use xlink:href="#ArialMT-30"/>
       <use xlink:href="#ArialMT-2e" x="55.615234"/>
       <use xlink:href="#ArialMT-30" x="83.398438"/>
       <use xlink:href="#ArialMT-30" x="139.013672"/>
      </g>
     </g>
    </g>
    <g id="ytick_2">
     <g id="line2d_7">
      <path d="M 33.660938 294.356684 
L 705.654688 294.356684 
" clip-path="url(#p56472d7306)" style="fill: none; stroke: #cccccc; stroke-width: 0.8; stroke-linecap: round"/>
     </g>
     <g id="text_7">
      <!-- 0.05 -->
      <g style="fill: #262626" transform="translate(7.2 297.93559) scale(0.1 -0.1)">
       <use xlink:href="#ArialMT-30"/>
       <use xlink:href="#ArialMT-2e" x="55.615234"/>
       <use xlink:href="#ArialMT-30" x="83.398438"/>
       <use xlink:href="#ArialMT-35" x="139.013672"/>
      </g>
     </g>
    </g>
    <g id="ytick_3">
     <g id="line2d_8">
      <path d="M 33.660938 258.909462 
L 705.654688 258.909462 
" clip-path="url(#p56472d7306)" style="fill: none; stroke: #cccccc; stroke-width: 0.8; stroke-linecap: round"/>
     </g>
     <g id="text_8">
      <!-- 0.10 -->
      <g style="fill: #262626" transform="translate(7.2 262.488368) scale(0.1 -0.1)">
       <use xlink:href="#ArialMT-30"/>
       <use xlink:href="#ArialMT-2e" x="55.615234"/>
       <use xlink:href="#ArialMT-31" x="83.398438"/>
       <use xlink:href="#ArialMT-30" x="139.013672"/>
      </g>
     </g>
    </g>
    <g id="ytick_4">
     <g id="line2d_9">
      <path d="M 33.660938 223.46224 
L 705.654688 223.46224 
" clip-path="url(#p56472d7306)" style="fill: none; stroke: #cccccc; stroke-width: 0.8; stroke-linecap: round"/>
     </g>
     <g id="text_9">
      <!-- 0.15 -->
      <g style="fill: #262626" transform="translate(7.2 227.041146) scale(0.1 -0.1)">
       <use xlink:href="#ArialMT-30"/>
       <use xlink:href="#ArialMT-2e" x="55.615234"/>
       <use xlink:href="#ArialMT-31" x="83.398438"/>
       <use xlink:href="#ArialMT-35" x="139.013672"/>
      </g>
     </g>
    </g>
    <g id="ytick_5">
     <g id="line2d_10">
      <path d="M 33.660938 188.015017 
L 705.654688 188.015017 
" clip-path="url(#p56472d7306)" style="fill: none; stroke: #cccccc; stroke-width: 0.8; stroke-linecap: round"/>
     </g>
     <g id="text_10">
      <!-- 0.20 -->
      <g style="fill: #262626" transform="translate(7.2 191.593924) scale(0.1 -0.1)">
       <defs>
        <path id="ArialMT-32" d="M 3222 541 
L 3222 0 
L 194 0 
Q 188 203 259 391 
Q 375 700 629 1000 
Q 884 1300 1366 1694 
Q 2113 2306 2375 2664 
Q 2638 3022 2638 3341 
Q 2638 3675 2398 3904 
Q 2159 4134 1775 4134 
Q 1369 4134 1125 3890 
Q 881 3647 878 3216 
L 300 3275 
Q 359 3922 746 4261 
Q 1134 4600 1788 4600 
Q 2447 4600 2831 4234 
Q 3216 3869 3216 3328 
Q 3216 3053 3103 2787 
Q 2991 2522 2730 2228 
Q 2469 1934 1863 1422 
Q 1356 997 1212 845 
Q 1069 694 975 541 
L 3222 541 
z
" transform="scale(0.015625)"/>
       </defs>
       <use xlink:href="#ArialMT-30"/>
       <use xlink:href="#ArialMT-2e" x="55.615234"/>
       <use xlink:href="#ArialMT-32" x="83.398438"/>
       <use xlink:href="#ArialMT-30" x="139.013672"/>
      </g>
     </g>
    </g>
    <g id="ytick_6">
     <g id="line2d_11">
      <path d="M 33.660938 152.567795 
L 705.654688 152.567795 
" clip-path="url(#p56472d7306)" style="fill: none; stroke: #cccccc; stroke-width: 0.8; stroke-linecap: round"/>
     </g>
     <g id="text_11">
      <!-- 0.25 -->
      <g style="fill: #262626" transform="translate(7.2 156.146701) scale(0.1 -0.1)">
       <use xlink:href="#ArialMT-30"/>
       <use xlink:href="#ArialMT-2e" x="55.615234"/>
       <use xlink:href="#ArialMT-32" x="83.398438"/>
       <use xlink:href="#ArialMT-35" x="139.013672"/>
      </g>
     </g>
    </g>
    <g id="ytick_7">
     <g id="line2d_12">
      <path d="M 33.660938 117.120573 
L 705.654688 117.120573 
" clip-path="url(#p56472d7306)" style="fill: none; stroke: #cccccc; stroke-width: 0.8; stroke-linecap: round"/>
     </g>
     <g id="text_12">
      <!-- 0.30 -->
      <g style="fill: #262626" transform="translate(7.2 120.699479) scale(0.1 -0.1)">
       <defs>
        <path id="ArialMT-33" d="M 269 1209 
L 831 1284 
Q 928 806 1161 595 
Q 1394 384 1728 384 
Q 2125 384 2398 659 
Q 2672 934 2672 1341 
Q 2672 1728 2419 1979 
Q 2166 2231 1775 2231 
Q 1616 2231 1378 2169 
L 1441 2663 
Q 1497 2656 1531 2656 
Q 1891 2656 2178 2843 
Q 2466 3031 2466 3422 
Q 2466 3731 2256 3934 
Q 2047 4138 1716 4138 
Q 1388 4138 1169 3931 
Q 950 3725 888 3313 
L 325 3413 
Q 428 3978 793 4289 
Q 1159 4600 1703 4600 
Q 2078 4600 2393 4439 
Q 2709 4278 2876 4000 
Q 3044 3722 3044 3409 
Q 3044 3113 2884 2869 
Q 2725 2625 2413 2481 
Q 2819 2388 3044 2092 
Q 3269 1797 3269 1353 
Q 3269 753 2831 336 
Q 2394 -81 1725 -81 
Q 1122 -81 723 278 
Q 325 638 269 1209 
z
" transform="scale(0.015625)"/>
       </defs>
       <use xlink:href="#ArialMT-30"/>
       <use xlink:href="#ArialMT-2e" x="55.615234"/>
       <use xlink:href="#ArialMT-33" x="83.398438"/>
       <use xlink:href="#ArialMT-30" x="139.013672"/>
      </g>
     </g>
    </g>
    <g id="ytick_8">
     <g id="line2d_13">
      <path d="M 33.660938 81.673351 
L 705.654688 81.673351 
" clip-path="url(#p56472d7306)" style="fill: none; stroke: #cccccc; stroke-width: 0.8; stroke-linecap: round"/>
     </g>
     <g id="text_13">
      <!-- 0.35 -->
      <g style="fill: #262626" transform="translate(7.2 85.252257) scale(0.1 -0.1)">
       <use xlink:href="#ArialMT-30"/>
       <use xlink:href="#ArialMT-2e" x="55.615234"/>
       <use xlink:href="#ArialMT-33" x="83.398438"/>
       <use xlink:href="#ArialMT-35" x="139.013672"/>
      </g>
     </g>
    </g>
    <g id="ytick_9">
     <g id="line2d_14">
      <path d="M 33.660938 46.226128 
L 705.654688 46.226128 
" clip-path="url(#p56472d7306)" style="fill: none; stroke: #cccccc; stroke-width: 0.8; stroke-linecap: round"/>
     </g>
     <g id="text_14">
      <!-- 0.40 -->
      <g style="fill: #262626" transform="translate(7.2 49.805035) scale(0.1 -0.1)">
       <defs>
        <path id="ArialMT-34" d="M 2069 0 
L 2069 1097 
L 81 1097 
L 81 1613 
L 2172 4581 
L 2631 4581 
L 2631 1613 
L 3250 1613 
L 3250 1097 
L 2631 1097 
L 2631 0 
L 2069 0 
z
M 2069 1613 
L 2069 3678 
L 634 1613 
L 2069 1613 
z
" transform="scale(0.015625)"/>
       </defs>
       <use xlink:href="#ArialMT-30"/>
       <use xlink:href="#ArialMT-2e" x="55.615234"/>
       <use xlink:href="#ArialMT-34" x="83.398438"/>
       <use xlink:href="#ArialMT-30" x="139.013672"/>
      </g>
     </g>
    </g>
    <g id="ytick_10">
     <g id="line2d_15">
      <path d="M 33.660938 10.778906 
L 705.654688 10.778906 
" clip-path="url(#p56472d7306)" style="fill: none; stroke: #cccccc; stroke-width: 0.8; stroke-linecap: round"/>
     </g>
     <g id="text_15">
      <!-- 0.45 -->
      <g style="fill: #262626" transform="translate(7.2 14.357812) scale(0.1 -0.1)">
       <use xlink:href="#ArialMT-30"/>
       <use xlink:href="#ArialMT-2e" x="55.615234"/>
       <use xlink:href="#ArialMT-34" x="83.398438"/>
       <use xlink:href="#ArialMT-35" x="139.013672"/>
      </g>
     </g>
    </g>
   </g>
   <g id="line2d_16">
    <path d="M 64.206108 329.439443 
L 70.376849 329.338646 
L 76.547591 329.213223 
L 82.718332 329.058093 
L 88.889074 328.867373 
L 95.059815 328.634318 
L 101.230557 328.35126 
L 107.401298 328.00957 
L 113.57204 327.599636 
L 119.742782 327.110866 
L 125.913523 326.531721 
L 132.084265 325.849784 
L 138.255006 325.051876 
L 144.425748 324.124206 
L 150.596489 323.052587 
L 156.767231 321.822692 
L 162.937972 320.420375 
L 169.108714 318.832036 
L 175.279455 317.045041 
L 181.450197 315.048183 
L 187.620938 312.832182 
L 193.79168 310.390198 
L 199.962421 307.718364 
L 206.133163 304.816299 
L 212.303904 301.687597 
L 218.474646 298.340264 
L 224.645387 294.787086 
L 230.816129 291.045896 
L 236.98687 287.139739 
L 243.157612 283.096891 
L 249.328353 278.95074 
L 255.499095 274.739505 
L 261.669836 270.505792 
L 267.840578 266.295987 
L 274.011319 262.159494 
L 280.182061 258.147832 
L 286.352802 254.31361 
L 292.523544 250.709405 
L 298.694285 247.386586 
L 304.865027 244.394101 
L 311.035768 241.777289 
L 317.20651 239.576737 
L 323.377251 237.827234 
L 329.547993 236.556858 
L 335.718734 235.786225 
L 341.889476 235.527935 
L 348.060217 235.786225 
L 354.230959 236.556858 
L 360.4017 237.827234 
L 366.572442 239.576737 
L 372.743183 241.777289 
L 378.913925 244.394101 
L 385.084666 247.386586 
L 391.255408 250.709405 
L 397.426149 254.31361 
L 403.596891 258.147832 
L 409.767632 262.159494 
L 415.938374 266.295987 
L 422.109115 270.505792 
L 428.279857 274.739505 
L 434.450598 278.95074 
L 440.62134 283.096891 
L 446.792081 287.139739 
L 452.962823 291.045896 
L 459.133564 294.787086 
L 465.304306 298.340264 
L 471.475047 301.687597 
L 477.645789 304.816299 
L 483.81653 307.718364 
L 489.987272 310.390198 
L 496.158013 312.832182 
L 502.328755 315.048183 
L 508.499496 317.045041 
L 514.670238 318.832036 
L 520.840979 320.420375 
L 527.011721 321.822692 
L 533.182462 323.052587 
L 539.353204 324.124206 
L 545.523945 325.051876 
L 551.694687 325.849784 
L 557.865428 326.531721 
L 564.03617 327.110866 
L 570.206911 327.599636 
L 576.377653 328.00957 
L 582.548394 328.35126 
L 588.719136 328.634318 
L 594.889877 328.867373 
L 601.060619 329.058093 
L 607.23136 329.213223 
L 613.402102 329.338646 
L 619.572843 329.439443 
L 625.743585 329.519965 
L 631.914327 329.583907 
L 638.085068 329.634382 
L 644.25581 329.673992 
L 650.426551 329.704891 
L 656.597293 329.728854 
L 662.768034 329.747329 
L 668.938776 329.76149 
L 675.109517 329.77228 
" clip-path="url(#p56472d7306)" style="fill: none; stroke: #0173b2; stroke-width: 1.5; stroke-linecap: round"/>
   </g>
   <g id="line2d_17">
    <path d="M 64.206108 329.690411 
L 70.376849 329.655401 
L 76.547591 329.610654 
L 82.718332 329.553801 
L 88.889074 329.481993 
L 95.059815 329.391835 
L 101.230557 329.279313 
L 107.401298 329.13972 
L 113.57204 328.967582 
L 119.742782 328.756595 
L 125.913523 328.499556 
L 132.084265 328.188322 
L 138.255006 327.813773 
L 144.425748 327.365805 
L 150.596489 326.833347 
L 156.767231 326.204409 
L 162.937972 325.466176 
L 169.108714 324.605141 
L 175.279455 323.607285 
L 181.450197 322.458316 
L 187.620938 321.143954 
L 193.79168 319.650276 
L 199.962421 317.96411 
L 206.133163 316.073476 
L 212.303904 313.968066 
L 218.474646 311.639755 
L 224.645387 309.083124 
L 230.816129 306.295985 
L 236.98687 303.279886 
L 243.157612 300.040576 
L 249.328353 296.588412 
L 255.499095 292.938675 
L 261.669836 289.111793 
L 267.840578 285.133431 
L 274.011319 281.034448 
L 280.182061 276.850691 
L 286.352802 272.622639 
L 292.523544 268.394874 
L 298.694285 264.215394 
L 304.865027 260.134784 
L 311.035768 256.205241 
L 317.20651 252.479502 
L 323.377251 249.009692 
L 329.547993 245.846119 
L 335.718734 243.036075 
L 341.889476 240.622659 
L 348.060217 238.643682 
L 354.230959 237.130684 
L 360.4017 236.108093 
L 366.572442 235.592574 
L 372.743183 235.592574 
L 378.913925 236.108093 
L 385.084666 237.130684 
L 391.255408 238.643682 
L 397.426149 240.622659 
L 403.596891 243.036075 
L 409.767632 245.846119 
L 415.938374 249.009692 
L 422.109115 252.479502 
L 428.279857 256.205241 
L 434.450598 260.134784 
L 440.62134 264.215394 
L 446.792081 268.394874 
L 452.962823 272.622639 
L 459.133564 276.850691 
L 465.304306 281.034448 
L 471.475047 285.133431 
L 477.645789 289.111793 
L 483.81653 292.938675 
L 489.987272 296.588412 
L 496.158013 300.040576 
L 502.328755 303.279886 
L 508.499496 306.295985 
L 514.670238 309.083124 
L 520.840979 311.639755 
L 527.011721 313.968066 
L 533.182462 316.073476 
L 539.353204 317.96411 
L 545.523945 319.650276 
L 551.694687 321.143954 
L 557.865428 322.458316 
L 564.03617 323.607285 
L 570.206911 324.605141 
L 576.377653 325.466176 
L 582.548394 326.204409 
L 588.719136 326.833347 
L 594.889877 327.365805 
L 601.060619 327.813773 
L 607.23136 328.188322 
L 613.402102 328.499556 
L 619.572843 328.756595 
L 625.743585 328.967582 
L 631.914327 329.13972 
L 638.085068 329.279313 
L 644.25581 329.391835 
L 650.426551 329.481993 
L 656.597293 329.553801 
L 662.768034 329.610654 
L 668.938776 329.655401 
L 675.109517 329.690411 
" clip-path="url(#p56472d7306)" style="fill: none; stroke: #de8f05; stroke-width: 1.5; stroke-linecap: round"/>
   </g>
   <g id="patch_3">
    <path d="M 33.660938 329.803906 
L 33.660938 10.778906 
" style="fill: none; stroke: #cccccc; stroke-width: 0.8; stroke-linejoin: miter; stroke-linecap: square"/>
   </g>
   <g id="patch_4">
    <path d="M 705.654688 329.803906 
L 705.654688 10.778906 
" style="fill: none; stroke: #cccccc; stroke-width: 0.8; stroke-linejoin: miter; stroke-linecap: square"/>
   </g>
   <g id="patch_5">
    <path d="M 33.660937 329.803906 
L 705.654687 329.803906 
" style="fill: none; stroke: #cccccc; stroke-width: 0.8; stroke-linejoin: miter; stroke-linecap: square"/>
   </g>
   <g id="patch_6">
    <path d="M 33.660937 10.778906 
L 705.654687 10.778906 
" style="fill: none; stroke: #cccccc; stroke-width: 0.8; stroke-linejoin: miter; stroke-linecap: square"/>
   </g>
   <g id="legend_1">
    <g id="patch_7">
     <path d="M 636.642187 47.069531 
L 698.654688 47.069531 
Q 700.654688 47.069531 700.654688 45.069531 
L 700.654688 17.778906 
Q 700.654688 15.778906 698.654688 15.778906 
L 636.642187 15.778906 
Q 634.642187 15.778906 634.642187 17.778906 
L 634.642187 45.069531 
Q 634.642187 47.069531 636.642187 47.069531 
z
" style="fill: #ffffff; opacity: 0.8; stroke: #cccccc; stroke-linejoin: miter"/>
    </g>
    <g id="line2d_18">
     <path d="M 638.642187 23.436719 
L 648.642187 23.436719 
L 658.642187 23.436719 
" style="fill: none; stroke: #0173b2; stroke-width: 1.5; stroke-linecap: round"/>
    </g>
    <g id="text_16">
     <!-- control -->
     <g style="fill: #262626" transform="translate(666.642187 26.936719) scale(0.1 -0.1)">
      <defs>
       <path id="ArialMT-63" d="M 2588 1216 
L 3141 1144 
Q 3050 572 2676 248 
Q 2303 -75 1759 -75 
Q 1078 -75 664 370 
Q 250 816 250 1647 
Q 250 2184 428 2587 
Q 606 2991 970 3192 
Q 1334 3394 1763 3394 
Q 2303 3394 2647 3120 
Q 2991 2847 3088 2344 
L 2541 2259 
Q 2463 2594 2264 2762 
Q 2066 2931 1784 2931 
Q 1359 2931 1093 2626 
Q 828 2322 828 1663 
Q 828 994 1084 691 
Q 1341 388 1753 388 
Q 2084 388 2306 591 
Q 2528 794 2588 1216 
z
" transform="scale(0.015625)"/>
       <path id="ArialMT-6f" d="M 213 1659 
Q 213 2581 725 3025 
Q 1153 3394 1769 3394 
Q 2453 3394 2887 2945 
Q 3322 2497 3322 1706 
Q 3322 1066 3130 698 
Q 2938 331 2570 128 
Q 2203 -75 1769 -75 
Q 1072 -75 642 372 
Q 213 819 213 1659 
z
M 791 1659 
Q 791 1022 1069 705 
Q 1347 388 1769 388 
Q 2188 388 2466 706 
Q 2744 1025 2744 1678 
Q 2744 2294 2464 2611 
Q 2184 2928 1769 2928 
Q 1347 2928 1069 2612 
Q 791 2297 791 1659 
z
" transform="scale(0.015625)"/>
       <path id="ArialMT-6e" d="M 422 0 
L 422 3319 
L 928 3319 
L 928 2847 
Q 1294 3394 1984 3394 
Q 2284 3394 2536 3286 
Q 2788 3178 2913 3003 
Q 3038 2828 3088 2588 
Q 3119 2431 3119 2041 
L 3119 0 
L 2556 0 
L 2556 2019 
Q 2556 2363 2490 2533 
Q 2425 2703 2258 2804 
Q 2091 2906 1866 2906 
Q 1506 2906 1245 2678 
Q 984 2450 984 1813 
L 984 0 
L 422 0 
z
" transform="scale(0.015625)"/>
       <path id="ArialMT-74" d="M 1650 503 
L 1731 6 
Q 1494 -44 1306 -44 
Q 1000 -44 831 53 
Q 663 150 594 308 
Q 525 466 525 972 
L 525 2881 
L 113 2881 
L 113 3319 
L 525 3319 
L 525 4141 
L 1084 4478 
L 1084 3319 
L 1650 3319 
L 1650 2881 
L 1084 2881 
L 1084 941 
Q 1084 700 1114 631 
Q 1144 563 1211 522 
Q 1278 481 1403 481 
Q 1497 481 1650 503 
z
" transform="scale(0.015625)"/>
       <path id="ArialMT-72" d="M 416 0 
L 416 3319 
L 922 3319 
L 922 2816 
Q 1116 3169 1280 3281 
Q 1444 3394 1641 3394 
Q 1925 3394 2219 3213 
L 2025 2691 
Q 1819 2813 1613 2813 
Q 1428 2813 1281 2702 
Q 1134 2591 1072 2394 
Q 978 2094 978 1738 
L 978 0 
L 416 0 
z
" transform="scale(0.015625)"/>
       <path id="ArialMT-6c" d="M 409 0 
L 409 4581 
L 972 4581 
L 972 0 
L 409 0 
z
" transform="scale(0.015625)"/>
      </defs>
      <use xlink:href="#ArialMT-63"/>
      <use xlink:href="#ArialMT-6f" x="50"/>
      <use xlink:href="#ArialMT-6e" x="105.615234"/>
      <use xlink:href="#ArialMT-74" x="161.230469"/>
      <use xlink:href="#ArialMT-72" x="189.013672"/>
      <use xlink:href="#ArialMT-6f" x="222.314453"/>
      <use xlink:href="#ArialMT-6c" x="277.929688"/>
     </g>
    </g>
    <g id="line2d_19">
     <path d="M 638.642187 37.582031 
L 648.642187 37.582031 
L 658.642187 37.582031 
" style="fill: none; stroke: #de8f05; stroke-width: 1.5; stroke-linecap: round"/>
    </g>
    <g id="text_17">
     <!-- test -->
     <g style="fill: #262626" transform="translate(666.642187 41.082031) scale(0.1 -0.1)">
      <defs>
       <path id="ArialMT-65" d="M 2694 1069 
L 3275 997 
Q 3138 488 2766 206 
Q 2394 -75 1816 -75 
Q 1088 -75 661 373 
Q 234 822 234 1631 
Q 234 2469 665 2931 
Q 1097 3394 1784 3394 
Q 2450 3394 2872 2941 
Q 3294 2488 3294 1666 
Q 3294 1616 3291 1516 
L 816 1516 
Q 847 969 1125 678 
Q 1403 388 1819 388 
Q 2128 388 2347 550 
Q 2566 713 2694 1069 
z
M 847 1978 
L 2700 1978 
Q 2663 2397 2488 2606 
Q 2219 2931 1791 2931 
Q 1403 2931 1139 2672 
Q 875 2413 847 1978 
z
" transform="scale(0.015625)"/>
       <path id="ArialMT-73" d="M 197 991 
L 753 1078 
Q 800 744 1014 566 
Q 1228 388 1613 388 
Q 2000 388 2187 545 
Q 2375 703 2375 916 
Q 2375 1106 2209 1216 
Q 2094 1291 1634 1406 
Q 1016 1563 777 1677 
Q 538 1791 414 1992 
Q 291 2194 291 2438 
Q 291 2659 392 2848 
Q 494 3038 669 3163 
Q 800 3259 1026 3326 
Q 1253 3394 1513 3394 
Q 1903 3394 2198 3281 
Q 2494 3169 2634 2976 
Q 2775 2784 2828 2463 
L 2278 2388 
Q 2241 2644 2061 2787 
Q 1881 2931 1553 2931 
Q 1166 2931 1000 2803 
Q 834 2675 834 2503 
Q 834 2394 903 2306 
Q 972 2216 1119 2156 
Q 1203 2125 1616 2013 
Q 2213 1853 2448 1751 
Q 2684 1650 2818 1456 
Q 2953 1263 2953 975 
Q 2953 694 2789 445 
Q 2625 197 2315 61 
Q 2006 -75 1616 -75 
Q 969 -75 630 194 
Q 291 463 197 991 
z
" transform="scale(0.015625)"/>
      </defs>
      <use xlink:href="#ArialMT-74"/>
      <use xlink:href="#ArialMT-65" x="27.783203"/>
      <use xlink:href="#ArialMT-73" x="83.398438"/>
      <use xlink:href="#ArialMT-74" x="133.398438"/>
     </g>
    </g>
   </g>
  </g>
 </g>
 <defs>
  <clipPath id="p56472d7306">
   <rect x="33.660938" y="10.778906" width="671.99375" height="319.025"/>
  </clipPath>
 </defs>
</svg>
