<?xml version="1.0" encoding="utf-8" standalone="no"?>
<!DOCTYPE svg PUBLIC "-//W3C//DTD SVG 1.1//EN"
  "http://www.w3.org/Graphics/SVG/1.1/DTD/svg11.dtd">
<svg xmlns:xlink="http://www.w3.org/1999/xlink" width="712.99375pt" height="352.68pt" viewBox="0 0 712.99375 352.68" xmlns="http://www.w3.org/2000/svg" version="1.1">
 <metadata>
  <rdf:RDF xmlns:dc="http://purl.org/dc/elements/1.1/" xmlns:cc="http://creativecommons.org/ns#" xmlns:rdf="http://www.w3.org/1999/02/22-rdf-syntax-ns#">
   <cc:Work>
    <dc:type rdf:resource="http://purl.org/dc/dcmitype/StillImage"/>
    <dc:date>2024-01-29T20:02:24.466016</dc:date>
    <dc:format>image/svg+xml</dc:format>
    <dc:creator>
     <cc:Agent>
      <dc:title>Matplotlib v3.7.2, https://matplotlib.org/</dc:title>
     </cc:Agent>
    </dc:creator>
   </cc:Work>
  </rdf:RDF>
 </metadata>
 <defs>
  <style type="text/css">*{stroke-linejoin: round; stroke-linecap: butt}</style>
 </defs>
 <g id="figure_1">
  <g id="patch_1">
   <path d="M 0 352.68 
L 712.99375 352.68 
L 712.99375 0 
L 0 0 
z
" style="fill: #ffffff"/>
  </g>
  <g id="axes_1">
   <g id="patch_2">
    <path d="M 41.3625 316.189375 
L 705.79375 316.189375 
L 705.79375 21.789375 
L 41.3625 21.789375 
z
" style="fill: #ffffff"/>
   </g>
   <g id="matplotlib.axis_1">
    <g id="xtick_1">
     <g id="line2d_1">
      <path d="M 72.410689 316.189375 
L 72.410689 21.789375 
" clip-path="url(#p5a0665a646)" style="fill: none; stroke: #cccccc; stroke-width: 0.8; stroke-linecap: round"/>
     </g>
     <g id="text_1">
      <!-- 0.0 -->
      <g style="fill: #262626" transform="translate(65.460689 330.347187) scale(0.1 -0.1)">
       <defs>
        <path id="ArialMT-30" d="M 266 2259 
Q 266 3072 433 3567 
Q 600 4063 929 4331 
Q 1259 4600 1759 4600 
Q 2128 4600 2406 4451 
Q 2684 4303 2865 4023 
Q 3047 3744 3150 3342 
Q 3253 2941 3253 2259 
Q 3253 1453 3087 958 
Q 2922 463 2592 192 
Q 2263 -78 1759 -78 
Q 1097 -78 719 397 
Q 266 969 266 2259 
z
M 844 2259 
Q 844 1131 1108 757 
Q 1372 384 1759 384 
Q 2147 384 2411 759 
Q 2675 1134 2675 2259 
Q 2675 3391 2411 3762 
Q 2147 4134 1753 4134 
Q 1366 4134 1134 3806 
Q 844 3388 844 2259 
z
" transform="scale(0.015625)"/>
        <path id="ArialMT-2e" d="M 581 0 
L 581 641 
L 1222 641 
L 1222 0 
L 581 0 
z
" transform="scale(0.015625)"/>
       </defs>
       <use xlink:href="#ArialMT-30"/>
       <use xlink:href="#ArialMT-2e" x="55.615234"/>
       <use xlink:href="#ArialMT-30" x="83.398438"/>
      </g>
     </g>
    </g>
    <g id="xtick_2">
     <g id="line2d_2">
      <path d="M 196.603446 316.189375 
L 196.603446 21.789375 
" clip-path="url(#p5a0665a646)" style="fill: none; stroke: #cccccc; stroke-width: 0.8; stroke-linecap: round"/>
     </g>
     <g id="text_2">
      <!-- 0.2 -->
      <g style="fill: #262626" transform="translate(189.653446 330.347187) scale(0.1 -0.1)">
       <defs>
        <path id="ArialMT-32" d="M 3222 541 
L 3222 0 
L 194 0 
Q 188 203 259 391 
Q 375 700 629 1000 
Q 884 1300 1366 1694 
Q 2113 2306 2375 2664 
Q 2638 3022 2638 3341 
Q 2638 3675 2398 3904 
Q 2159 4134 1775 4134 
Q 1369 4134 1125 3890 
Q 881 3647 878 3216 
L 300 3275 
Q 359 3922 746 4261 
Q 1134 4600 1788 4600 
Q 2447 4600 2831 4234 
Q 3216 3869 3216 3328 
Q 3216 3053 3103 2787 
Q 2991 2522 2730 2228 
Q 2469 1934 1863 1422 
Q 1356 997 1212 845 
Q 1069 694 975 541 
L 3222 541 
z
" transform="scale(0.015625)"/>
       </defs>
       <use xlink:href="#ArialMT-30"/>
       <use xlink:href="#ArialMT-2e" x="55.615234"/>
       <use xlink:href="#ArialMT-32" x="83.398438"/>
      </g>
     </g>
    </g>
    <g id="xtick_3">
     <g id="line2d_3">
      <path d="M 320.796203 316.189375 
L 320.796203 21.789375 
" clip-path="url(#p5a0665a646)" style="fill: none; stroke: #cccccc; stroke-width: 0.8; stroke-linecap: round"/>
     </g>
     <g id="text_3">
      <!-- 0.4 -->
      <g style="fill: #262626" transform="translate(313.846203 330.347187) scale(0.1 -0.1)">
       <defs>
        <path id="ArialMT-34" d="M 2069 0 
L 2069 1097 
L 81 1097 
L 81 1613 
L 2172 4581 
L 2631 4581 
L 2631 1613 
L 3250 1613 
L 3250 1097 
L 2631 1097 
L 2631 0 
L 2069 0 
z
M 2069 1613 
L 2069 3678 
L 634 1613 
L 2069 1613 
z
" transform="scale(0.015625)"/>
       </defs>
       <use xlink:href="#ArialMT-30"/>
       <use xlink:href="#ArialMT-2e" x="55.615234"/>
       <use xlink:href="#ArialMT-34" x="83.398438"/>
      </g>
     </g>
    </g>
    <g id="xtick_4">
     <g id="line2d_4">
      <path d="M 444.98896 316.189375 
L 444.98896 21.789375 
" clip-path="url(#p5a0665a646)" style="fill: none; stroke: #cccccc; stroke-width: 0.8; stroke-linecap: round"/>
     </g>
     <g id="text_4">
      <!-- 0.6 -->
      <g style="fill: #262626" transform="translate(438.03896 330.347187) scale(0.1 -0.1)">
       <defs>
        <path id="ArialMT-36" d="M 3184 3459 
L 2625 3416 
Q 2550 3747 2413 3897 
Q 2184 4138 1850 4138 
Q 1581 4138 1378 3988 
Q 1113 3794 959 3422 
Q 806 3050 800 2363 
Q 1003 2672 1297 2822 
Q 1591 2972 1913 2972 
Q 2475 2972 2870 2558 
Q 3266 2144 3266 1488 
Q 3266 1056 3080 686 
Q 2894 316 2569 119 
Q 2244 -78 1831 -78 
Q 1128 -78 684 439 
Q 241 956 241 2144 
Q 241 3472 731 4075 
Q 1159 4600 1884 4600 
Q 2425 4600 2770 4297 
Q 3116 3994 3184 3459 
z
M 888 1484 
Q 888 1194 1011 928 
Q 1134 663 1356 523 
Q 1578 384 1822 384 
Q 2178 384 2434 671 
Q 2691 959 2691 1453 
Q 2691 1928 2437 2201 
Q 2184 2475 1800 2475 
Q 1419 2475 1153 2201 
Q 888 1928 888 1484 
z
" transform="scale(0.015625)"/>
       </defs>
       <use xlink:href="#ArialMT-30"/>
       <use xlink:href="#ArialMT-2e" x="55.615234"/>
       <use xlink:href="#ArialMT-36" x="83.398438"/>
      </g>
     </g>
    </g>
    <g id="xtick_5">
     <g id="line2d_5">
      <path d="M 569.181717 316.189375 
L 569.181717 21.789375 
" clip-path="url(#p5a0665a646)" style="fill: none; stroke: #cccccc; stroke-width: 0.8; stroke-linecap: round"/>
     </g>
     <g id="text_5">
      <!-- 0.8 -->
      <g style="fill: #262626" transform="translate(562.231717 330.347187) scale(0.1 -0.1)">
       <defs>
        <path id="ArialMT-38" d="M 1131 2484 
Q 781 2613 612 2850 
Q 444 3088 444 3419 
Q 444 3919 803 4259 
Q 1163 4600 1759 4600 
Q 2359 4600 2725 4251 
Q 3091 3903 3091 3403 
Q 3091 3084 2923 2848 
Q 2756 2613 2416 2484 
Q 2838 2347 3058 2040 
Q 3278 1734 3278 1309 
Q 3278 722 2862 322 
Q 2447 -78 1769 -78 
Q 1091 -78 675 323 
Q 259 725 259 1325 
Q 259 1772 486 2073 
Q 713 2375 1131 2484 
z
M 1019 3438 
Q 1019 3113 1228 2906 
Q 1438 2700 1772 2700 
Q 2097 2700 2305 2904 
Q 2513 3109 2513 3406 
Q 2513 3716 2298 3927 
Q 2084 4138 1766 4138 
Q 1444 4138 1231 3931 
Q 1019 3725 1019 3438 
z
M 838 1322 
Q 838 1081 952 856 
Q 1066 631 1291 507 
Q 1516 384 1775 384 
Q 2178 384 2440 643 
Q 2703 903 2703 1303 
Q 2703 1709 2433 1975 
Q 2163 2241 1756 2241 
Q 1359 2241 1098 1978 
Q 838 1716 838 1322 
z
" transform="scale(0.015625)"/>
       </defs>
       <use xlink:href="#ArialMT-30"/>
       <use xlink:href="#ArialMT-2e" x="55.615234"/>
       <use xlink:href="#ArialMT-38" x="83.398438"/>
      </g>
     </g>
    </g>
    <g id="xtick_6">
     <g id="line2d_6">
      <path d="M 693.374474 316.189375 
L 693.374474 21.789375 
" clip-path="url(#p5a0665a646)" style="fill: none; stroke: #cccccc; stroke-width: 0.8; stroke-linecap: round"/>
     </g>
     <g id="text_6">
      <!-- 1.0 -->
      <g style="fill: #262626" transform="translate(686.424474 330.347187) scale(0.1 -0.1)">
       <defs>
        <path id="ArialMT-31" d="M 2384 0 
L 1822 0 
L 1822 3584 
Q 1619 3391 1289 3197 
Q 959 3003 697 2906 
L 697 3450 
Q 1169 3672 1522 3987 
Q 1875 4303 2022 4600 
L 2384 4600 
L 2384 0 
z
" transform="scale(0.015625)"/>
       </defs>
       <use xlink:href="#ArialMT-31"/>
       <use xlink:href="#ArialMT-2e" x="55.615234"/>
       <use xlink:href="#ArialMT-30" x="83.398438"/>
      </g>
     </g>
    </g>
    <g id="text_7">
     <!-- $\alpha$ -->
     <g style="fill: #262626" transform="translate(370.278125 343.4925) scale(0.1 -0.1)">
      <defs>
       <path id="DejaVuSans-Oblique-3b1" d="M 2619 1628 
L 2622 2350 
Q 2625 3088 2069 3091 
Q 1653 3094 1394 2747 
Q 1069 2319 959 1747 
Q 825 1059 994 731 
Q 1169 397 1547 397 
Q 1966 397 2319 1063 
L 2619 1628 
z
M 2166 3578 
Q 3141 3594 3128 2584 
Q 3128 2584 3616 3500 
L 4128 3500 
L 3119 1603 
L 3109 919 
Q 3109 766 3194 638 
Q 3291 488 3391 488 
L 3669 488 
L 3575 0 
L 3228 0 
Q 2934 0 2722 263 
Q 2622 394 2619 669 
Q 2416 334 2066 50 
Q 1900 -81 1453 -78 
Q 722 -72 456 397 
Q 184 884 353 1747 
Q 534 2675 1009 3097 
Q 1544 3569 2166 3578 
z
" transform="scale(0.015625)"/>
      </defs>
      <use xlink:href="#DejaVuSans-Oblique-3b1" transform="translate(0 0.84375)"/>
     </g>
    </g>
   </g>
   <g id="matplotlib.axis_2">
    <g id="ytick_1">
     <g id="line2d_7">
      <path d="M 41.3625 310.527837 
L 705.79375 310.527837 
" clip-path="url(#p5a0665a646)" style="fill: none; stroke: #cccccc; stroke-width: 0.8; stroke-linecap: round"/>
     </g>
     <g id="text_8">
      <!-- 0.0 -->
      <g style="fill: #262626" transform="translate(20.4625 314.106743) scale(0.1 -0.1)">
       <use xlink:href="#ArialMT-30"/>
       <use xlink:href="#ArialMT-2e" x="55.615234"/>
       <use xlink:href="#ArialMT-30" x="83.398438"/>
      </g>
     </g>
    </g>
    <g id="ytick_2">
     <g id="line2d_8">
      <path d="M 41.3625 253.912452 
L 705.79375 253.912452 
" clip-path="url(#p5a0665a646)" style="fill: none; stroke: #cccccc; stroke-width: 0.8; stroke-linecap: round"/>
     </g>
     <g id="text_9">
      <!-- 0.2 -->
      <g style="fill: #262626" transform="translate(20.4625 257.491358) scale(0.1 -0.1)">
       <use xlink:href="#ArialMT-30"/>
       <use xlink:href="#ArialMT-2e" x="55.615234"/>
       <use xlink:href="#ArialMT-32" x="83.398438"/>
      </g>
     </g>
    </g>
    <g id="ytick_3">
     <g id="line2d_9">
      <path d="M 41.3625 197.297067 
L 705.79375 197.297067 
" clip-path="url(#p5a0665a646)" style="fill: none; stroke: #cccccc; stroke-width: 0.8; stroke-linecap: round"/>
     </g>
     <g id="text_10">
      <!-- 0.4 -->
      <g style="fill: #262626" transform="translate(20.4625 200.875974) scale(0.1 -0.1)">
       <use xlink:href="#ArialMT-30"/>
       <use xlink:href="#ArialMT-2e" x="55.615234"/>
       <use xlink:href="#ArialMT-34" x="83.398438"/>
      </g>
     </g>
    </g>
    <g id="ytick_4">
     <g id="line2d_10">
      <path d="M 41.3625 140.681683 
L 705.79375 140.681683 
" clip-path="url(#p5a0665a646)" style="fill: none; stroke: #cccccc; stroke-width: 0.8; stroke-linecap: round"/>
     </g>
     <g id="text_11">
      <!-- 0.6 -->
      <g style="fill: #262626" transform="translate(20.4625 144.260589) scale(0.1 -0.1)">
       <use xlink:href="#ArialMT-30"/>
       <use xlink:href="#ArialMT-2e" x="55.615234"/>
       <use xlink:href="#ArialMT-36" x="83.398438"/>
      </g>
     </g>
    </g>
    <g id="ytick_5">
     <g id="line2d_11">
      <path d="M 41.3625 84.066298 
L 705.79375 84.066298 
" clip-path="url(#p5a0665a646)" style="fill: none; stroke: #cccccc; stroke-width: 0.8; stroke-linecap: round"/>
     </g>
     <g id="text_12">
      <!-- 0.8 -->
      <g style="fill: #262626" transform="translate(20.4625 87.645204) scale(0.1 -0.1)">
       <use xlink:href="#ArialMT-30"/>
       <use xlink:href="#ArialMT-2e" x="55.615234"/>
       <use xlink:href="#ArialMT-38" x="83.398438"/>
      </g>
     </g>
    </g>
    <g id="ytick_6">
     <g id="line2d_12">
      <path d="M 41.3625 27.450913 
L 705.79375 27.450913 
" clip-path="url(#p5a0665a646)" style="fill: none; stroke: #cccccc; stroke-width: 0.8; stroke-linecap: round"/>
     </g>
     <g id="text_13">
      <!-- 1.0 -->
      <g style="fill: #262626" transform="translate(20.4625 31.02982) scale(0.1 -0.1)">
       <use xlink:href="#ArialMT-31"/>
       <use xlink:href="#ArialMT-2e" x="55.615234"/>
       <use xlink:href="#ArialMT-30" x="83.398438"/>
      </g>
     </g>
    </g>
    <g id="text_14">
     <!-- Потужність -->
     <g style="fill: #262626" transform="translate(14.357813 194.764375) rotate(-90) scale(0.1 -0.1)">
      <defs>
       <path id="ArialMT-41f" d="M 500 4581 
L 4103 4581 
L 4103 0 
L 3494 0 
L 3494 4041 
L 1106 4041 
L 1106 0 
L 500 0 
L 500 4581 
z
" transform="scale(0.015625)"/>
       <path id="ArialMT-43e" d="M 213 1659 
Q 213 2581 725 3025 
Q 1153 3394 1769 3394 
Q 2453 3394 2887 2945 
Q 3322 2497 3322 1706 
Q 3322 1066 3130 698 
Q 2938 331 2570 128 
Q 2203 -75 1769 -75 
Q 1072 -75 642 372 
Q 213 819 213 1659 
z
M 791 1659 
Q 791 1022 1069 705 
Q 1347 388 1769 388 
Q 2188 388 2466 706 
Q 2744 1025 2744 1678 
Q 2744 2294 2464 2611 
Q 2184 2928 1769 2928 
Q 1347 2928 1069 2612 
Q 791 2297 791 1659 
z
" transform="scale(0.015625)"/>
       <path id="ArialMT-442" d="M 119 3319 
L 2816 3319 
L 2816 2853 
L 1747 2853 
L 1747 0 
L 1188 0 
L 1188 2853 
L 119 2853 
L 119 3319 
z
" transform="scale(0.015625)"/>
       <path id="ArialMT-443" d="M 397 -1278 
L 334 -750 
Q 519 -800 656 -800 
Q 844 -800 956 -737 
Q 1069 -675 1141 -563 
Q 1194 -478 1313 -144 
Q 1328 -97 1363 -6 
L 103 3319 
L 709 3319 
L 1400 1397 
Q 1534 1031 1641 628 
Q 1738 1016 1872 1384 
L 2581 3319 
L 3144 3319 
L 1881 -56 
Q 1678 -603 1566 -809 
Q 1416 -1088 1222 -1217 
Q 1028 -1347 759 -1347 
Q 597 -1347 397 -1278 
z
" transform="scale(0.015625)"/>
       <path id="ArialMT-436" d="M 2428 3319 
L 2428 1884 
Q 2697 1884 2806 1987 
Q 2916 2091 3125 2588 
Q 3322 3059 3478 3191 
Q 3631 3319 3966 3319 
L 4172 3319 
L 4172 2853 
L 4019 2856 
Q 3794 2856 3731 2791 
Q 3666 2722 3531 2381 
Q 3406 2056 3300 1931 
Q 3194 1806 2969 1703 
Q 3334 1606 3681 1028 
L 4300 0 
L 3681 0 
L 3078 1028 
Q 2894 1341 2756 1437 
Q 2619 1534 2428 1534 
L 2428 0 
L 1853 0 
L 1853 1534 
Q 1666 1534 1528 1439 
Q 1391 1344 1206 1028 
L 603 0 
L -16 0 
L 600 1028 
Q 950 1606 1316 1703 
Q 1066 1819 966 1955 
Q 866 2091 666 2603 
Q 597 2775 519 2816 
Q 438 2856 278 2856 
Q 238 2856 113 2853 
L 113 3319 
L 191 3319 
Q 516 3319 648 3280 
Q 781 3241 886 3114 
Q 991 2988 1159 2588 
Q 1366 2097 1473 1990 
Q 1581 1884 1853 1884 
L 1853 3319 
L 2428 3319 
z
" transform="scale(0.015625)"/>
       <path id="ArialMT-43d" d="M 425 3319 
L 988 3319 
L 988 1938 
L 2547 1938 
L 2547 3319 
L 3109 3319 
L 3109 0 
L 2547 0 
L 2547 1472 
L 988 1472 
L 988 0 
L 425 0 
L 425 3319 
z
" transform="scale(0.015625)"/>
       <path id="ArialMT-456" d="M 425 3934 
L 425 4581 
L 988 4581 
L 988 3934 
L 425 3934 
z
M 425 0 
L 425 3319 
L 988 3319 
L 988 0 
L 425 0 
z
" transform="scale(0.015625)"/>
       <path id="ArialMT-441" d="M 2588 1216 
L 3141 1144 
Q 3050 572 2676 248 
Q 2303 -75 1759 -75 
Q 1078 -75 664 370 
Q 250 816 250 1647 
Q 250 2184 428 2587 
Q 606 2991 970 3192 
Q 1334 3394 1763 3394 
Q 2303 3394 2647 3120 
Q 2991 2847 3088 2344 
L 2541 2259 
Q 2463 2594 2264 2762 
Q 2066 2931 1784 2931 
Q 1359 2931 1093 2626 
Q 828 2322 828 1663 
Q 828 994 1084 691 
Q 1341 388 1753 388 
Q 2084 388 2306 591 
Q 2528 794 2588 1216 
z
" transform="scale(0.015625)"/>
       <path id="ArialMT-44c" d="M 413 3319 
L 975 3319 
L 975 2022 
L 1688 2022 
Q 2384 2022 2761 1751 
Q 3138 1481 3138 1006 
Q 3138 591 2823 295 
Q 2509 0 1819 0 
L 413 0 
L 413 3319 
z
M 975 463 
L 1566 463 
Q 2100 463 2328 594 
Q 2556 725 2556 1003 
Q 2556 1219 2387 1387 
Q 2219 1556 1641 1556 
L 975 1556 
L 975 463 
z
" transform="scale(0.015625)"/>
      </defs>
      <use xlink:href="#ArialMT-41f"/>
      <use xlink:href="#ArialMT-43e" x="71.875"/>
      <use xlink:href="#ArialMT-442" x="125.240234"/>
      <use xlink:href="#ArialMT-443" x="172.166016"/>
      <use xlink:href="#ArialMT-436" x="223.291016"/>
      <use xlink:href="#ArialMT-43d" x="290.185547"/>
      <use xlink:href="#ArialMT-456" x="345.410156"/>
      <use xlink:href="#ArialMT-441" x="367.626953"/>
      <use xlink:href="#ArialMT-442" x="417.626953"/>
      <use xlink:href="#ArialMT-44c" x="463.427734"/>
     </g>
    </g>
   </g>
   <g id="line2d_13">
    <path d="M 72.410689 310.499529 
L 72.531237 287.79676 
L 72.83086 270.415837 
L 72.909631 267.500144 
L 73.074642 261.385683 
L 73.129001 259.658913 
L 73.247626 256.488452 
L 73.279286 255.865683 
L 73.486207 250.515529 
L 73.732586 245.448452 
L 74.044202 239.418913 
L 74.110175 238.513067 
L 74.377687 234.43676 
L 74.54887 232.313683 
L 74.664635 231.12476 
L 74.731112 230.218913 
L 76.407363 212.498298 
L 76.452079 212.158606 
L 76.59455 210.714913 
L 76.76084 209.299529 
L 76.934678 208.195529 
L 77.074978 207.261375 
L 77.262613 205.902606 
L 77.386321 204.940144 
L 77.500556 204.289067 
L 78.094268 199.816452 
L 78.185274 199.505067 
L 78.404226 198.202913 
L 78.693605 196.249683 
L 78.912554 194.919221 
L 79.269293 193.022606 
L 79.311456 192.711221 
L 79.458279 191.890298 
L 79.958893 189.144452 
L 80.332833 187.106298 
L 80.444914 186.455221 
L 80.510915 185.945683 
L 81.267977 182.18076 
L 81.342057 181.756144 
L 81.545886 180.737067 
L 82.147379 177.481683 
L 82.258736 176.887221 
L 82.36824 176.321067 
L 82.582705 175.471837 
L 82.694886 174.93399 
L 83.335152 172.754298 
L 83.495061 172.273067 
L 83.821992 171.197375 
L 84.080849 169.980144 
L 84.18185 169.725375 
L 84.330083 169.30076 
L 84.455782 168.819529 
L 84.540827 168.593067 
L 84.76268 168.026913 
L 84.997744 167.121067 
L 85.1296 166.554913 
L 85.23367 166.243529 
L 85.379727 165.818913 
L 85.864837 164.346913 
L 86.043526 163.78076 
L 86.261309 163.129683 
L 86.532558 162.42199 
L 86.684616 162.025683 
L 86.73781 161.770913 
L 86.854932 161.402913 
L 86.922208 161.233067 
L 87.089294 160.751837 
L 87.644286 159.138298 
L 87.823773 158.770298 
L 87.986426 158.317375 
L 88.115434 157.807837 
L 88.722653 156.16599 
L 88.802505 156.024452 
L 88.92756 155.656452 
L 89.03017 155.31676 
L 89.138672 155.090298 
L 89.355703 154.524144 
L 89.715388 153.306913 
L 89.810361 153.137067 
L 89.925468 152.797375 
L 89.998388 152.542606 
L 90.152723 151.976452 
L 91.157196 149.089067 
L 91.288794 148.636144 
L 91.402086 148.43799 
L 91.619908 147.786913 
L 91.715715 147.617067 
L 91.927173 147.22076 
L 92.064747 146.994298 
L 93.018405 144.899529 
L 93.159604 144.64476 
L 93.275464 144.418298 
L 93.382425 143.937067 
L 93.501549 143.738913 
L 93.77856 142.80476 
L 94.036904 142.380144 
L 94.282737 142.06876 
L 94.390584 141.898913 
L 94.62346 141.587529 
L 94.739266 141.44599 
L 94.919806 140.993067 
L 95.324054 140.313683 
L 96.107458 138.926606 
L 96.199862 138.671837 
L 96.450146 138.417067 
L 96.65581 137.76599 
L 96.826794 137.482913 
L 98.498985 134.765375 
L 98.618297 134.595529 
L 100.694338 130.77399 
L 100.95087 130.547529 
L 101.174975 130.122913 
L 101.356771 129.896452 
L 101.581751 129.528452 
L 101.863728 129.160452 
L 101.902878 129.047221 
L 102.074686 128.905683 
L 103.194689 127.34876 
L 103.704919 126.754298 
L 103.828475 126.527837 
L 104.0458 126.386298 
L 104.196986 126.216452 
L 104.908289 125.338913 
L 105.004371 125.027529 
L 105.444533 124.659529 
L 105.589866 124.461375 
L 105.802867 124.263221 
L 106.4323 123.442298 
L 106.612546 123.272452 
L 106.711017 123.074298 
L 106.92077 122.791221 
L 107.394077 122.140144 
L 107.771598 121.885375 
L 107.890578 121.687221 
L 108.035755 121.517375 
L 108.216561 121.149375 
L 109.990836 118.62999 
L 110.11177 118.403529 
L 110.396644 118.120452 
L 110.827849 117.41276 
L 111.137912 117.242913 
L 111.33603 116.931529 
L 111.849897 116.252144 
L 112.081326 116.082298 
L 112.281835 115.855837 
L 112.392999 115.742606 
L 112.928092 115.091529 
L 113.161778 114.780144 
L 113.379645 114.638606 
L 113.740948 114.383837 
L 114.005442 114.10076 
L 114.121916 113.902606 
L 114.425534 113.562913 
L 114.511151 113.506298 
L 114.703061 113.36476 
L 115.784784 112.175837 
L 115.90653 111.949375 
L 116.258097 111.751221 
L 116.263163 111.722913 
L 116.680869 111.553067 
L 116.824695 111.383221 
L 116.93555 111.26999 
L 117.067284 111.128452 
L 117.442365 110.873683 
L 117.630963 110.647221 
L 117.94237 110.364144 
L 118.003882 110.16599 
L 118.223815 110.024452 
L 118.257001 109.911221 
L 118.503037 109.741375 
L 118.71696 109.543221 
L 119.237464 108.863837 
L 119.383943 108.69399 
L 119.616672 108.439221 
L 120.677257 107.703221 
L 120.842683 107.420144 
L 121.07457 107.278606 
L 121.446866 107.023837 
L 121.838277 106.684144 
L 124.43874 104.079837 
L 124.610031 103.881683 
L 124.732109 103.740144 
L 125.221287 103.372144 
L 125.40051 103.230606 
L 125.731393 103.06076 
L 125.955994 102.749375 
L 126.357784 102.522913 
L 126.828626 102.098298 
L 127.06098 101.815221 
L 127.337984 101.673683 
L 127.469762 101.532144 
L 127.648185 101.418913 
L 128.154384 101.249067 
L 128.235294 101.107529 
L 128.546805 100.937683 
L 128.782605 100.682913 
L 128.867078 100.59799 
L 129.28824 100.286606 
L 129.451731 100.201683 
L 129.657976 100.003529 
L 130.11504 99.522298 
L 130.974174 99.041067 
L 131.145531 98.899529 
L 131.724623 98.333375 
L 131.960243 98.135221 
L 132.863083 97.597375 
L 133.190549 97.455837 
L 133.379675 97.257683 
L 134.202406 96.80476 
L 134.297386 96.691529 
L 134.620702 96.493375 
L 134.657322 96.408452 
L 134.992614 96.210298 
L 135.070363 96.125375 
L 135.19554 95.983837 
L 135.291442 95.898913 
L 137.301221 94.143837 
L 137.331007 94.087221 
L 137.582112 93.945683 
L 137.71861 93.86076 
L 138.124572 93.436144 
L 138.319141 93.153067 
L 138.651928 93.039837 
L 138.898354 92.841683 
L 138.917107 92.785067 
L 139.115731 92.643529 
L 140.365721 91.850913 
L 140.840017 91.681067 
L 141.45292 91.199837 
L 141.656822 91.058298 
L 142.150611 90.831837 
L 142.240034 90.775221 
L 142.594986 90.633683 
L 142.792754 90.520452 
L 145.178825 89.331529 
L 145.227557 89.274913 
L 145.541351 89.105067 
L 145.826693 88.963529 
L 146.118867 88.82199 
L 146.726827 88.595529 
L 146.996177 88.482298 
L 147.658911 88.227529 
L 147.8389 88.142606 
L 148.294676 88.001067 
L 149.243774 87.463221 
L 149.584901 87.321683 
L 150.015316 87.038606 
L 150.147414 86.925375 
L 151.282289 86.444144 
L 151.330369 86.387529 
L 152.218069 85.962913 
L 152.934394 85.623221 
L 153.470383 85.340144 
L 153.596789 85.255221 
L 153.925871 85.113683 
L 154.214391 84.943837 
L 154.938197 84.604144 
L 155.57712 84.434298 
L 155.808381 84.236144 
L 157.342153 83.500144 
L 157.759695 83.330298 
L 157.920094 83.217067 
L 158.521041 83.018913 
L 158.847484 82.905683 
L 159.139393 82.764144 
L 159.257893 82.622606 
L 159.980394 82.19799 
L 160.769512 81.999837 
L 161.144725 81.82999 
L 165.701222 79.678606 
L 165.795232 79.593683 
L 167.792231 78.319837 
L 168.470874 78.121683 
L 169.506337 77.725375 
L 170.821166 77.272452 
L 170.933164 77.215837 
L 171.452049 77.017683 
L 172.519161 76.451529 
L 173.219549 76.253375 
L 173.241849 76.225067 
L 174.944529 75.885375 
L 174.992734 75.82876 
L 175.800798 75.630606 
L 179.81584 74.073683 
L 180.122418 73.847221 
L 180.365379 73.73399 
L 181.344455 73.535837 
L 181.445533 73.479221 
L 181.748697 73.309375 
L 181.971102 73.167837 
L 182.59599 72.941375 
L 183.065015 72.771529 
L 183.575572 72.51676 
L 184.31077 72.318606 
L 184.726155 72.177067 
L 184.77478 72.14876 
L 185.298131 72.007221 
L 192.565819 69.742606 
L 192.573717 69.714298 
L 192.861015 69.57276 
L 193.233493 69.431221 
L 194.049014 69.148144 
L 195.41759 68.751837 
L 196.324464 68.46876 
L 196.329104 68.440452 
L 197.522275 68.157375 
L 197.899699 67.987529 
L 197.901242 67.959221 
L 198.435369 67.789375 
L 198.64372 67.676144 
L 199.183892 67.534606 
L 199.297826 67.47799 
L 200.339083 67.279837 
L 201.252771 67.025067 
L 202.141537 66.855221 
L 202.514677 66.74199 
L 203.105724 66.487221 
L 203.424184 66.402298 
L 204.402643 66.204144 
L 205.580382 65.836144 
L 205.66235 65.722913 
L 206.341604 65.52476 
L 206.433836 65.411529 
L 207.967978 65.071837 
L 208.230674 64.986913 
L 209.480966 64.732144 
L 209.99233 64.505683 
L 214.325287 63.599837 
L 214.406658 63.543221 
L 216.215815 63.288452 
L 216.901108 63.090298 
L 217.918541 62.920452 
L 219.084306 62.69399 
L 219.174348 62.609067 
L 219.554159 62.524144 
L 222.55367 61.84476 
L 222.714694 61.788144 
L 223.680053 61.58999 
L 223.689902 61.533375 
L 224.325532 61.363529 
L 224.34157 61.335221 
L 225.688529 61.10876 
L 226.414526 60.995529 
L 227.584533 60.825683 
L 228.684866 60.570913 
L 231.920471 59.74999 
L 233.251981 59.551837 
L 233.292083 59.523529 
L 235.40444 59.240452 
L 236.005498 59.01399 
L 237.49344 58.759221 
L 238.752798 58.476144 
L 238.757425 58.447837 
L 239.826126 58.306298 
L 240.673238 58.16476 
L 241.578875 58.023221 
L 242.117617 57.825067 
L 246.295929 57.032452 
L 246.701408 56.862606 
L 246.891396 56.721067 
L 249.187627 56.381375 
L 249.237099 56.353067 
L 250.10724 56.183221 
L 250.274545 56.098298 
L 251.095106 55.730298 
L 252.572722 55.503837 
L 252.860946 55.390606 
L 253.767905 55.22076 
L 253.771495 55.192452 
L 254.982297 55.050913 
L 256.273269 54.824452 
L 256.298388 54.796144 
L 264.030339 53.663837 
L 266.964772 53.49399 
L 267.327467 53.437375 
L 268.943534 53.295837 
L 272.80387 52.786298 
L 274.308817 52.559837 
L 278.114171 52.050298 
L 279.595023 51.880452 
L 279.71319 51.795529 
L 281.724984 51.484144 
L 281.780318 51.427529 
L 282.67947 51.314298 
L 284.762214 51.116144 
L 286.43971 50.776452 
L 288.155151 50.634913 
L 291.195323 50.266913 
L 292.437934 50.040452 
L 299.996734 48.993067 
L 300.097617 48.936452 
L 302.901462 48.59676 
L 306.046212 48.143837 
L 309.342886 47.662606 
L 309.960487 47.577683 
L 312.181565 47.436144 
L 312.534319 47.351221 
L 318.676129 46.841683 
L 319.287492 46.728452 
L 322.302802 46.50199 
L 322.320581 46.473683 
L 324.078496 46.303837 
L 324.138996 46.275529 
L 326.269554 46.077375 
L 327.024993 45.992452 
L 330.072826 45.794298 
L 330.714448 45.65276 
L 332.137645 45.454606 
L 334.338983 45.199837 
L 335.123578 45.058298 
L 336.288314 44.945067 
L 338.457775 44.718606 
L 338.46857 44.690298 
L 344.448741 44.095837 
L 347.418369 43.897683 
L 353.138377 43.303221 
L 356.765752 42.991837 
L 357.62573 42.850298 
L 360.916678 42.567221 
L 361.149345 42.510606 
L 362.991779 42.34076 
L 367.56671 41.916144 
L 367.698299 41.887837 
L 369.124064 41.746298 
L 369.143269 41.71799 
L 372.919069 41.463221 
L 374.320142 41.321683 
L 377.947075 41.095221 
L 379.067147 41.010298 
L 385.06585 40.61399 
L 389.245012 40.444144 
L 393.212478 40.161067 
L 393.663375 40.019529 
L 396.505064 39.821375 
L 397.986086 39.708144 
L 401.615093 39.368452 
L 405.505527 39.198606 
L 413.319709 38.547529 
L 417.947912 38.349375 
L 418.038228 38.321067 
L 421.91004 38.151221 
L 426.735634 37.868144 
L 427.678667 37.783221 
L 431.985205 37.528452 
L 432.043543 37.500144 
L 437.959045 37.18876 
L 439.969613 36.93399 
L 439.98136 36.905683 
L 445.995406 36.679221 
L 446.403287 36.594298 
L 447.089991 36.509375 
L 454.040694 36.254606 
L 461.580968 35.71676 
L 469.861928 35.490298 
L 469.962359 35.46199 
L 481.068182 35.065683 
L 481.584251 35.009067 
L 484.140099 34.867529 
L 491.892292 34.35799 
L 497.185137 34.159837 
L 497.27726 34.131529 
L 501.969653 33.933375 
L 501.976783 33.905067 
L 506.328497 33.706913 
L 510.287545 33.50876 
L 519.31617 33.197375 
L 525.49243 32.942606 
L 533.035608 32.744452 
L 533.190678 32.716144 
L 540.245033 32.546298 
L 575.974543 31.357375 
L 585.630624 30.989375 
L 588.691646 30.847837 
L 595.442914 30.56476 
L 601.036145 30.366606 
L 608.765356 29.998606 
L 609.243437 29.970298 
L 614.311943 29.82876 
L 615.014807 29.772144 
L 627.057219 29.404144 
L 627.252081 29.375837 
L 631.882164 29.149375 
L 634.648451 28.894606 
L 642.422394 28.696452 
L 643.836201 28.639837 
L 653.750182 28.498298 
L 659.244633 28.271837 
L 666.028549 28.10199 
L 666.976155 28.045375 
L 675.334058 27.903837 
L 675.402702 27.875529 
L 693.374474 27.450913 
L 693.374474 27.450913 
" clip-path="url(#p5a0665a646)" style="fill: none; stroke: #0173b2; stroke-width: 1.5; stroke-linecap: round"/>
   </g>
   <g id="line2d_14">
    <path d="M 103.458879 316.189375 
L 103.458879 21.789375 
" clip-path="url(#p5a0665a646)" style="fill: none; stroke: #000000; stroke-opacity: 0.5; stroke-width: 1.5; stroke-linecap: round"/>
   </g>
   <g id="patch_3">
    <path d="M 41.3625 316.189375 
L 41.3625 21.789375 
" style="fill: none; stroke: #cccccc; stroke-width: 0.8; stroke-linejoin: miter; stroke-linecap: square"/>
   </g>
   <g id="patch_4">
    <path d="M 705.79375 316.189375 
L 705.79375 21.789375 
" style="fill: none; stroke: #cccccc; stroke-width: 0.8; stroke-linejoin: miter; stroke-linecap: square"/>
   </g>
   <g id="patch_5">
    <path d="M 41.3625 316.189375 
L 705.79375 316.189375 
" style="fill: none; stroke: #cccccc; stroke-width: 0.8; stroke-linejoin: miter; stroke-linecap: square"/>
   </g>
   <g id="patch_6">
    <path d="M 41.3625 21.789375 
L 705.79375 21.789375 
" style="fill: none; stroke: #cccccc; stroke-width: 0.8; stroke-linejoin: miter; stroke-linecap: square"/>
   </g>
   <g id="text_15">
    <!-- Потужність критерію Манна-Уітні при оцінці числа кліків -->
    <g style="fill: #262626" transform="translate(218.132188 15.789375) scale(0.12 -0.12)">
     <defs>
      <path id="ArialMT-20" transform="scale(0.015625)"/>
      <path id="ArialMT-43a" d="M 419 3319 
L 981 3319 
L 981 1884 
Q 1250 1884 1358 1987 
Q 1466 2091 1675 2588 
Q 1841 2981 1944 3106 
Q 2047 3231 2181 3275 
Q 2316 3319 2613 3319 
L 2725 3319 
L 2725 2853 
L 2569 2856 
Q 2347 2856 2284 2791 
Q 2219 2722 2084 2381 
Q 1956 2056 1850 1931 
Q 1744 1806 1522 1703 
Q 1884 1606 2234 1028 
L 2850 0 
L 2231 0 
L 1631 1028 
Q 1447 1338 1309 1436 
Q 1172 1534 981 1534 
L 981 0 
L 419 0 
L 419 3319 
z
" transform="scale(0.015625)"/>
      <path id="ArialMT-440" d="M 422 -1272 
L 422 3319 
L 934 3319 
L 934 2888 
Q 1116 3141 1344 3267 
Q 1572 3394 1897 3394 
Q 2322 3394 2647 3175 
Q 2972 2956 3137 2557 
Q 3303 2159 3303 1684 
Q 3303 1175 3120 767 
Q 2938 359 2589 142 
Q 2241 -75 1856 -75 
Q 1575 -75 1351 44 
Q 1128 163 984 344 
L 984 -1272 
L 422 -1272 
z
M 931 1641 
Q 931 1000 1190 694 
Q 1450 388 1819 388 
Q 2194 388 2461 705 
Q 2728 1022 2728 1688 
Q 2728 2322 2467 2637 
Q 2206 2953 1844 2953 
Q 1484 2953 1207 2617 
Q 931 2281 931 1641 
z
" transform="scale(0.015625)"/>
      <path id="ArialMT-438" d="M 422 3319 
L 984 3319 
L 984 788 
L 2544 3319 
L 3150 3319 
L 3150 0 
L 2588 0 
L 2588 2516 
L 1028 0 
L 422 0 
L 422 3319 
z
" transform="scale(0.015625)"/>
      <path id="ArialMT-435" d="M 2694 1069 
L 3275 997 
Q 3138 488 2766 206 
Q 2394 -75 1816 -75 
Q 1088 -75 661 373 
Q 234 822 234 1631 
Q 234 2469 665 2931 
Q 1097 3394 1784 3394 
Q 2450 3394 2872 2941 
Q 3294 2488 3294 1666 
Q 3294 1616 3291 1516 
L 816 1516 
Q 847 969 1125 678 
Q 1403 388 1819 388 
Q 2128 388 2347 550 
Q 2566 713 2694 1069 
z
M 847 1978 
L 2700 1978 
Q 2663 2397 2488 2606 
Q 2219 2931 1791 2931 
Q 1403 2931 1139 2672 
Q 875 2413 847 1978 
z
" transform="scale(0.015625)"/>
      <path id="ArialMT-44e" d="M 428 3319 
L 991 3319 
L 991 1931 
L 1672 1931 
Q 1747 2644 2117 3019 
Q 2488 3394 3078 3394 
Q 3581 3394 3872 3191 
Q 4163 2988 4352 2631 
Q 4541 2275 4541 1672 
Q 4541 813 4150 369 
Q 3759 -75 3091 -75 
Q 2469 -75 2094 337 
Q 1719 750 1672 1469 
L 991 1469 
L 991 0 
L 428 0 
L 428 3319 
z
M 3109 2916 
Q 2697 2916 2467 2598 
Q 2238 2281 2238 1709 
Q 2238 1025 2469 706 
Q 2700 388 3088 388 
Q 3472 388 3717 683 
Q 3963 978 3963 1634 
Q 3963 2275 3750 2595 
Q 3538 2916 3109 2916 
z
" transform="scale(0.015625)"/>
      <path id="ArialMT-41c" d="M 475 0 
L 475 4581 
L 1388 4581 
L 2472 1338 
Q 2622 884 2691 659 
Q 2769 909 2934 1394 
L 4031 4581 
L 4847 4581 
L 4847 0 
L 4263 0 
L 4263 3834 
L 2931 0 
L 2384 0 
L 1059 3900 
L 1059 0 
L 475 0 
z
" transform="scale(0.015625)"/>
      <path id="ArialMT-430" d="M 2588 409 
Q 2275 144 1986 34 
Q 1697 -75 1366 -75 
Q 819 -75 525 192 
Q 231 459 231 875 
Q 231 1119 342 1320 
Q 453 1522 633 1644 
Q 813 1766 1038 1828 
Q 1203 1872 1538 1913 
Q 2219 1994 2541 2106 
Q 2544 2222 2544 2253 
Q 2544 2597 2384 2738 
Q 2169 2928 1744 2928 
Q 1347 2928 1158 2789 
Q 969 2650 878 2297 
L 328 2372 
Q 403 2725 575 2942 
Q 747 3159 1072 3276 
Q 1397 3394 1825 3394 
Q 2250 3394 2515 3294 
Q 2781 3194 2906 3042 
Q 3031 2891 3081 2659 
Q 3109 2516 3109 2141 
L 3109 1391 
Q 3109 606 3145 398 
Q 3181 191 3288 0 
L 2700 0 
Q 2613 175 2588 409 
z
M 2541 1666 
Q 2234 1541 1622 1453 
Q 1275 1403 1131 1340 
Q 988 1278 909 1158 
Q 831 1038 831 891 
Q 831 666 1001 516 
Q 1172 366 1500 366 
Q 1825 366 2078 508 
Q 2331 650 2450 897 
Q 2541 1088 2541 1459 
L 2541 1666 
z
" transform="scale(0.015625)"/>
      <path id="ArialMT-2d" d="M 203 1375 
L 203 1941 
L 1931 1941 
L 1931 1375 
L 203 1375 
z
" transform="scale(0.015625)"/>
      <path id="ArialMT-423" d="M 31 4581 
L 644 4581 
L 2138 1775 
L 3444 4581 
L 4047 4581 
L 2328 1019 
Q 2006 350 1800 143 
Q 1594 -63 1209 -63 
Q 975 -63 634 47 
L 634 566 
Q 878 425 1150 425 
Q 1372 425 1533 567 
Q 1694 709 1888 1216 
L 31 4581 
z
" transform="scale(0.015625)"/>
      <path id="ArialMT-43f" d="M 425 3319 
L 3044 3319 
L 3044 0 
L 2481 0 
L 2481 2853 
L 988 2853 
L 988 0 
L 425 0 
L 425 3319 
z
" transform="scale(0.015625)"/>
      <path id="ArialMT-446" d="M 431 3319 
L 994 3319 
L 994 463 
L 2550 463 
L 2550 3319 
L 3113 3319 
L 3113 463 
L 3475 463 
L 3475 -941 
L 3013 -941 
L 3013 0 
L 431 0 
L 431 3319 
z
" transform="scale(0.015625)"/>
      <path id="ArialMT-447" d="M 216 3319 
L 778 3319 
L 778 2691 
Q 778 2284 826 2101 
Q 875 1919 1059 1783 
Q 1244 1647 1522 1647 
Q 1841 1647 2347 1816 
L 2347 3319 
L 2909 3319 
L 2909 0 
L 2347 0 
L 2347 1338 
Q 1828 1175 1378 1175 
Q 1000 1175 711 1367 
Q 422 1559 319 1837 
Q 216 2116 216 2450 
L 216 3319 
z
" transform="scale(0.015625)"/>
      <path id="ArialMT-43b" d="M 697 3319 
L 3309 3319 
L 3309 0 
L 2750 0 
L 2750 2853 
L 1259 2853 
L 1259 1200 
Q 1259 622 1221 437 
Q 1184 253 1015 115 
Q 847 -22 528 -22 
Q 331 -22 75 3 
L 75 472 
L 322 472 
Q 497 472 572 508 
Q 647 544 672 622 
Q 697 700 697 1131 
L 697 3319 
z
" transform="scale(0.015625)"/>
      <path id="ArialMT-432" d="M 425 3319 
L 1722 3319 
Q 2200 3319 2433 3239 
Q 2666 3159 2833 2946 
Q 3000 2734 3000 2438 
Q 3000 2200 2901 2023 
Q 2803 1847 2606 1728 
Q 2841 1650 2995 1436 
Q 3150 1222 3150 928 
Q 3119 456 2812 228 
Q 2506 0 1922 0 
L 425 0 
L 425 3319 
z
M 988 1922 
L 1588 1922 
Q 1947 1922 2081 1959 
Q 2216 1997 2322 2111 
Q 2428 2225 2428 2384 
Q 2428 2647 2242 2750 
Q 2056 2853 1606 2853 
L 988 2853 
L 988 1922 
z
M 988 463 
L 1728 463 
Q 2206 463 2384 573 
Q 2563 684 2572 956 
Q 2572 1116 2469 1252 
Q 2366 1388 2200 1423 
Q 2034 1459 1669 1459 
L 988 1459 
L 988 463 
z
" transform="scale(0.015625)"/>
     </defs>
     <use xlink:href="#ArialMT-41f"/>
     <use xlink:href="#ArialMT-43e" x="71.875"/>
     <use xlink:href="#ArialMT-442" x="125.240234"/>
     <use xlink:href="#ArialMT-443" x="172.166016"/>
     <use xlink:href="#ArialMT-436" x="223.291016"/>
     <use xlink:href="#ArialMT-43d" x="290.185547"/>
     <use xlink:href="#ArialMT-456" x="345.410156"/>
     <use xlink:href="#ArialMT-441" x="367.626953"/>
     <use xlink:href="#ArialMT-442" x="417.626953"/>
     <use xlink:href="#ArialMT-44c" x="463.427734"/>
     <use xlink:href="#ArialMT-20" x="515.527344"/>
     <use xlink:href="#ArialMT-43a" x="543.310547"/>
     <use xlink:href="#ArialMT-440" x="587.060547"/>
     <use xlink:href="#ArialMT-438" x="642.675781"/>
     <use xlink:href="#ArialMT-442" x="698.535156"/>
     <use xlink:href="#ArialMT-435" x="743.210938"/>
     <use xlink:href="#ArialMT-440" x="798.826172"/>
     <use xlink:href="#ArialMT-456" x="854.441406"/>
     <use xlink:href="#ArialMT-44e" x="876.658203"/>
     <use xlink:href="#ArialMT-20" x="951.658203"/>
     <use xlink:href="#ArialMT-41c" x="979.441406"/>
     <use xlink:href="#ArialMT-430" x="1063.867188"/>
     <use xlink:href="#ArialMT-43d" x="1119.482422"/>
     <use xlink:href="#ArialMT-43d" x="1174.707031"/>
     <use xlink:href="#ArialMT-430" x="1229.931641"/>
     <use xlink:href="#ArialMT-2d" x="1285.546875"/>
     <use xlink:href="#ArialMT-423" x="1318.847656"/>
     <use xlink:href="#ArialMT-456" x="1382.373047"/>
     <use xlink:href="#ArialMT-442" x="1404.589844"/>
     <use xlink:href="#ArialMT-43d" x="1450.390625"/>
     <use xlink:href="#ArialMT-456" x="1505.615234"/>
     <use xlink:href="#ArialMT-20" x="1527.832031"/>
     <use xlink:href="#ArialMT-43f" x="1555.615234"/>
     <use xlink:href="#ArialMT-440" x="1609.765625"/>
     <use xlink:href="#ArialMT-438" x="1665.380859"/>
     <use xlink:href="#ArialMT-20" x="1721.240234"/>
     <use xlink:href="#ArialMT-43e" x="1749.023438"/>
     <use xlink:href="#ArialMT-446" x="1804.638672"/>
     <use xlink:href="#ArialMT-456" x="1861.914062"/>
     <use xlink:href="#ArialMT-43d" x="1884.130859"/>
     <use xlink:href="#ArialMT-446" x="1939.355469"/>
     <use xlink:href="#ArialMT-456" x="1996.630859"/>
     <use xlink:href="#ArialMT-20" x="2018.847656"/>
     <use xlink:href="#ArialMT-447" x="2046.630859"/>
     <use xlink:href="#ArialMT-438" x="2098.730469"/>
     <use xlink:href="#ArialMT-441" x="2154.589844"/>
     <use xlink:href="#ArialMT-43b" x="2204.589844"/>
     <use xlink:href="#ArialMT-430" x="2262.939453"/>
     <use xlink:href="#ArialMT-20" x="2318.554688"/>
     <use xlink:href="#ArialMT-43a" x="2346.337891"/>
     <use xlink:href="#ArialMT-43b" x="2391.212891"/>
     <use xlink:href="#ArialMT-456" x="2449.5625"/>
     <use xlink:href="#ArialMT-43a" x="2471.779297"/>
     <use xlink:href="#ArialMT-456" x="2515.529297"/>
     <use xlink:href="#ArialMT-432" x="2537.746094"/>
    </g>
   </g>
  </g>
 </g>
 <defs>
  <clipPath id="p5a0665a646">
   <rect x="41.3625" y="21.789375" width="664.43125" height="294.4"/>
  </clipPath>
 </defs>
</svg>
