<?xml version="1.0" encoding="utf-8" standalone="no"?>
<!DOCTYPE svg PUBLIC "-//W3C//DTD SVG 1.1//EN"
  "http://www.w3.org/Graphics/SVG/1.1/DTD/svg11.dtd">
<svg xmlns:xlink="http://www.w3.org/1999/xlink" width="614.789062pt" height="323.926592pt" viewBox="0 0 614.789062 323.926592" xmlns="http://www.w3.org/2000/svg" version="1.1">
 <metadata>
  <rdf:RDF xmlns:dc="http://purl.org/dc/elements/1.1/" xmlns:cc="http://creativecommons.org/ns#" xmlns:rdf="http://www.w3.org/1999/02/22-rdf-syntax-ns#">
   <cc:Work>
    <dc:type rdf:resource="http://purl.org/dc/dcmitype/StillImage"/>
    <dc:date>2024-01-31T16:40:21.469598</dc:date>
    <dc:format>image/svg+xml</dc:format>
    <dc:creator>
     <cc:Agent>
      <dc:title>Matplotlib v3.7.2, https://matplotlib.org/</dc:title>
     </cc:Agent>
    </dc:creator>
   </cc:Work>
  </rdf:RDF>
 </metadata>
 <defs>
  <style type="text/css">*{stroke-linejoin: round; stroke-linecap: butt}</style>
 </defs>
 <g id="figure_1">
  <g id="patch_1">
   <path d="M 0 323.926592 
L 614.789062 323.926592 
L 614.789062 0 
L 0 0 
z
" style="fill: #ffffff"/>
  </g>
  <g id="axes_1">
   <g id="patch_2">
    <path d="M 49.589063 287.435967 
L 607.589062 287.435967 
L 607.589062 10.235967 
L 49.589063 10.235967 
z
" style="fill: #ffffff"/>
   </g>
   <g id="matplotlib.axis_1">
    <g id="xtick_1">
     <g id="line2d_1">
      <path d="M 74.952699 287.435967 
L 74.952699 10.235967 
" clip-path="url(#pfac2272b18)" style="fill: none; stroke: #cccccc; stroke-width: 0.8; stroke-linecap: round"/>
     </g>
     <g id="text_1">
      <!-- 0.0 -->
      <g style="fill: #262626" transform="translate(68.002699 301.593779) scale(0.1 -0.1)">
       <defs>
        <path id="ArialMT-30" d="M 266 2259 
Q 266 3072 433 3567 
Q 600 4063 929 4331 
Q 1259 4600 1759 4600 
Q 2128 4600 2406 4451 
Q 2684 4303 2865 4023 
Q 3047 3744 3150 3342 
Q 3253 2941 3253 2259 
Q 3253 1453 3087 958 
Q 2922 463 2592 192 
Q 2263 -78 1759 -78 
Q 1097 -78 719 397 
Q 266 969 266 2259 
z
M 844 2259 
Q 844 1131 1108 757 
Q 1372 384 1759 384 
Q 2147 384 2411 759 
Q 2675 1134 2675 2259 
Q 2675 3391 2411 3762 
Q 2147 4134 1753 4134 
Q 1366 4134 1134 3806 
Q 844 3388 844 2259 
z
" transform="scale(0.015625)"/>
        <path id="ArialMT-2e" d="M 581 0 
L 581 641 
L 1222 641 
L 1222 0 
L 581 0 
z
" transform="scale(0.015625)"/>
       </defs>
       <use xlink:href="#ArialMT-30"/>
       <use xlink:href="#ArialMT-2e" x="55.615234"/>
       <use xlink:href="#ArialMT-30" x="83.398438"/>
      </g>
     </g>
    </g>
    <g id="xtick_2">
     <g id="line2d_2">
      <path d="M 176.564908 287.435967 
L 176.564908 10.235967 
" clip-path="url(#pfac2272b18)" style="fill: none; stroke: #cccccc; stroke-width: 0.8; stroke-linecap: round"/>
     </g>
     <g id="text_2">
      <!-- 0.2 -->
      <g style="fill: #262626" transform="translate(169.614908 301.593779) scale(0.1 -0.1)">
       <defs>
        <path id="ArialMT-32" d="M 3222 541 
L 3222 0 
L 194 0 
Q 188 203 259 391 
Q 375 700 629 1000 
Q 884 1300 1366 1694 
Q 2113 2306 2375 2664 
Q 2638 3022 2638 3341 
Q 2638 3675 2398 3904 
Q 2159 4134 1775 4134 
Q 1369 4134 1125 3890 
Q 881 3647 878 3216 
L 300 3275 
Q 359 3922 746 4261 
Q 1134 4600 1788 4600 
Q 2447 4600 2831 4234 
Q 3216 3869 3216 3328 
Q 3216 3053 3103 2787 
Q 2991 2522 2730 2228 
Q 2469 1934 1863 1422 
Q 1356 997 1212 845 
Q 1069 694 975 541 
L 3222 541 
z
" transform="scale(0.015625)"/>
       </defs>
       <use xlink:href="#ArialMT-30"/>
       <use xlink:href="#ArialMT-2e" x="55.615234"/>
       <use xlink:href="#ArialMT-32" x="83.398438"/>
      </g>
     </g>
    </g>
    <g id="xtick_3">
     <g id="line2d_3">
      <path d="M 278.177118 287.435967 
L 278.177118 10.235967 
" clip-path="url(#pfac2272b18)" style="fill: none; stroke: #cccccc; stroke-width: 0.8; stroke-linecap: round"/>
     </g>
     <g id="text_3">
      <!-- 0.4 -->
      <g style="fill: #262626" transform="translate(271.227118 301.593779) scale(0.1 -0.1)">
       <defs>
        <path id="ArialMT-34" d="M 2069 0 
L 2069 1097 
L 81 1097 
L 81 1613 
L 2172 4581 
L 2631 4581 
L 2631 1613 
L 3250 1613 
L 3250 1097 
L 2631 1097 
L 2631 0 
L 2069 0 
z
M 2069 1613 
L 2069 3678 
L 634 1613 
L 2069 1613 
z
" transform="scale(0.015625)"/>
       </defs>
       <use xlink:href="#ArialMT-30"/>
       <use xlink:href="#ArialMT-2e" x="55.615234"/>
       <use xlink:href="#ArialMT-34" x="83.398438"/>
      </g>
     </g>
    </g>
    <g id="xtick_4">
     <g id="line2d_4">
      <path d="M 379.789328 287.435967 
L 379.789328 10.235967 
" clip-path="url(#pfac2272b18)" style="fill: none; stroke: #cccccc; stroke-width: 0.8; stroke-linecap: round"/>
     </g>
     <g id="text_4">
      <!-- 0.6 -->
      <g style="fill: #262626" transform="translate(372.839328 301.593779) scale(0.1 -0.1)">
       <defs>
        <path id="ArialMT-36" d="M 3184 3459 
L 2625 3416 
Q 2550 3747 2413 3897 
Q 2184 4138 1850 4138 
Q 1581 4138 1378 3988 
Q 1113 3794 959 3422 
Q 806 3050 800 2363 
Q 1003 2672 1297 2822 
Q 1591 2972 1913 2972 
Q 2475 2972 2870 2558 
Q 3266 2144 3266 1488 
Q 3266 1056 3080 686 
Q 2894 316 2569 119 
Q 2244 -78 1831 -78 
Q 1128 -78 684 439 
Q 241 956 241 2144 
Q 241 3472 731 4075 
Q 1159 4600 1884 4600 
Q 2425 4600 2770 4297 
Q 3116 3994 3184 3459 
z
M 888 1484 
Q 888 1194 1011 928 
Q 1134 663 1356 523 
Q 1578 384 1822 384 
Q 2178 384 2434 671 
Q 2691 959 2691 1453 
Q 2691 1928 2437 2201 
Q 2184 2475 1800 2475 
Q 1419 2475 1153 2201 
Q 888 1928 888 1484 
z
" transform="scale(0.015625)"/>
       </defs>
       <use xlink:href="#ArialMT-30"/>
       <use xlink:href="#ArialMT-2e" x="55.615234"/>
       <use xlink:href="#ArialMT-36" x="83.398438"/>
      </g>
     </g>
    </g>
    <g id="xtick_5">
     <g id="line2d_5">
      <path d="M 481.401538 287.435967 
L 481.401538 10.235967 
" clip-path="url(#pfac2272b18)" style="fill: none; stroke: #cccccc; stroke-width: 0.8; stroke-linecap: round"/>
     </g>
     <g id="text_5">
      <!-- 0.8 -->
      <g style="fill: #262626" transform="translate(474.451538 301.593779) scale(0.1 -0.1)">
       <defs>
        <path id="ArialMT-38" d="M 1131 2484 
Q 781 2613 612 2850 
Q 444 3088 444 3419 
Q 444 3919 803 4259 
Q 1163 4600 1759 4600 
Q 2359 4600 2725 4251 
Q 3091 3903 3091 3403 
Q 3091 3084 2923 2848 
Q 2756 2613 2416 2484 
Q 2838 2347 3058 2040 
Q 3278 1734 3278 1309 
Q 3278 722 2862 322 
Q 2447 -78 1769 -78 
Q 1091 -78 675 323 
Q 259 725 259 1325 
Q 259 1772 486 2073 
Q 713 2375 1131 2484 
z
M 1019 3438 
Q 1019 3113 1228 2906 
Q 1438 2700 1772 2700 
Q 2097 2700 2305 2904 
Q 2513 3109 2513 3406 
Q 2513 3716 2298 3927 
Q 2084 4138 1766 4138 
Q 1444 4138 1231 3931 
Q 1019 3725 1019 3438 
z
M 838 1322 
Q 838 1081 952 856 
Q 1066 631 1291 507 
Q 1516 384 1775 384 
Q 2178 384 2440 643 
Q 2703 903 2703 1303 
Q 2703 1709 2433 1975 
Q 2163 2241 1756 2241 
Q 1359 2241 1098 1978 
Q 838 1716 838 1322 
z
" transform="scale(0.015625)"/>
       </defs>
       <use xlink:href="#ArialMT-30"/>
       <use xlink:href="#ArialMT-2e" x="55.615234"/>
       <use xlink:href="#ArialMT-38" x="83.398438"/>
      </g>
     </g>
    </g>
    <g id="xtick_6">
     <g id="line2d_6">
      <path d="M 583.013748 287.435967 
L 583.013748 10.235967 
" clip-path="url(#pfac2272b18)" style="fill: none; stroke: #cccccc; stroke-width: 0.8; stroke-linecap: round"/>
     </g>
     <g id="text_6">
      <!-- 1.0 -->
      <g style="fill: #262626" transform="translate(576.063748 301.593779) scale(0.1 -0.1)">
       <defs>
        <path id="ArialMT-31" d="M 2384 0 
L 1822 0 
L 1822 3584 
Q 1619 3391 1289 3197 
Q 959 3003 697 2906 
L 697 3450 
Q 1169 3672 1522 3987 
Q 1875 4303 2022 4600 
L 2384 4600 
L 2384 0 
z
" transform="scale(0.015625)"/>
       </defs>
       <use xlink:href="#ArialMT-31"/>
       <use xlink:href="#ArialMT-2e" x="55.615234"/>
       <use xlink:href="#ArialMT-30" x="83.398438"/>
      </g>
     </g>
    </g>
    <g id="text_7">
     <!-- p-values -->
     <g style="fill: #262626" transform="translate(309.691406 314.739092) scale(0.1 -0.1)">
      <defs>
       <path id="ArialMT-70" d="M 422 -1272 
L 422 3319 
L 934 3319 
L 934 2888 
Q 1116 3141 1344 3267 
Q 1572 3394 1897 3394 
Q 2322 3394 2647 3175 
Q 2972 2956 3137 2557 
Q 3303 2159 3303 1684 
Q 3303 1175 3120 767 
Q 2938 359 2589 142 
Q 2241 -75 1856 -75 
Q 1575 -75 1351 44 
Q 1128 163 984 344 
L 984 -1272 
L 422 -1272 
z
M 931 1641 
Q 931 1000 1190 694 
Q 1450 388 1819 388 
Q 2194 388 2461 705 
Q 2728 1022 2728 1688 
Q 2728 2322 2467 2637 
Q 2206 2953 1844 2953 
Q 1484 2953 1207 2617 
Q 931 2281 931 1641 
z
" transform="scale(0.015625)"/>
       <path id="ArialMT-2d" d="M 203 1375 
L 203 1941 
L 1931 1941 
L 1931 1375 
L 203 1375 
z
" transform="scale(0.015625)"/>
       <path id="ArialMT-76" d="M 1344 0 
L 81 3319 
L 675 3319 
L 1388 1331 
Q 1503 1009 1600 663 
Q 1675 925 1809 1294 
L 2547 3319 
L 3125 3319 
L 1869 0 
L 1344 0 
z
" transform="scale(0.015625)"/>
       <path id="ArialMT-61" d="M 2588 409 
Q 2275 144 1986 34 
Q 1697 -75 1366 -75 
Q 819 -75 525 192 
Q 231 459 231 875 
Q 231 1119 342 1320 
Q 453 1522 633 1644 
Q 813 1766 1038 1828 
Q 1203 1872 1538 1913 
Q 2219 1994 2541 2106 
Q 2544 2222 2544 2253 
Q 2544 2597 2384 2738 
Q 2169 2928 1744 2928 
Q 1347 2928 1158 2789 
Q 969 2650 878 2297 
L 328 2372 
Q 403 2725 575 2942 
Q 747 3159 1072 3276 
Q 1397 3394 1825 3394 
Q 2250 3394 2515 3294 
Q 2781 3194 2906 3042 
Q 3031 2891 3081 2659 
Q 3109 2516 3109 2141 
L 3109 1391 
Q 3109 606 3145 398 
Q 3181 191 3288 0 
L 2700 0 
Q 2613 175 2588 409 
z
M 2541 1666 
Q 2234 1541 1622 1453 
Q 1275 1403 1131 1340 
Q 988 1278 909 1158 
Q 831 1038 831 891 
Q 831 666 1001 516 
Q 1172 366 1500 366 
Q 1825 366 2078 508 
Q 2331 650 2450 897 
Q 2541 1088 2541 1459 
L 2541 1666 
z
" transform="scale(0.015625)"/>
       <path id="ArialMT-6c" d="M 409 0 
L 409 4581 
L 972 4581 
L 972 0 
L 409 0 
z
" transform="scale(0.015625)"/>
       <path id="ArialMT-75" d="M 2597 0 
L 2597 488 
Q 2209 -75 1544 -75 
Q 1250 -75 995 37 
Q 741 150 617 320 
Q 494 491 444 738 
Q 409 903 409 1263 
L 409 3319 
L 972 3319 
L 972 1478 
Q 972 1038 1006 884 
Q 1059 663 1231 536 
Q 1403 409 1656 409 
Q 1909 409 2131 539 
Q 2353 669 2445 892 
Q 2538 1116 2538 1541 
L 2538 3319 
L 3100 3319 
L 3100 0 
L 2597 0 
z
" transform="scale(0.015625)"/>
       <path id="ArialMT-65" d="M 2694 1069 
L 3275 997 
Q 3138 488 2766 206 
Q 2394 -75 1816 -75 
Q 1088 -75 661 373 
Q 234 822 234 1631 
Q 234 2469 665 2931 
Q 1097 3394 1784 3394 
Q 2450 3394 2872 2941 
Q 3294 2488 3294 1666 
Q 3294 1616 3291 1516 
L 816 1516 
Q 847 969 1125 678 
Q 1403 388 1819 388 
Q 2128 388 2347 550 
Q 2566 713 2694 1069 
z
M 847 1978 
L 2700 1978 
Q 2663 2397 2488 2606 
Q 2219 2931 1791 2931 
Q 1403 2931 1139 2672 
Q 875 2413 847 1978 
z
" transform="scale(0.015625)"/>
       <path id="ArialMT-73" d="M 197 991 
L 753 1078 
Q 800 744 1014 566 
Q 1228 388 1613 388 
Q 2000 388 2187 545 
Q 2375 703 2375 916 
Q 2375 1106 2209 1216 
Q 2094 1291 1634 1406 
Q 1016 1563 777 1677 
Q 538 1791 414 1992 
Q 291 2194 291 2438 
Q 291 2659 392 2848 
Q 494 3038 669 3163 
Q 800 3259 1026 3326 
Q 1253 3394 1513 3394 
Q 1903 3394 2198 3281 
Q 2494 3169 2634 2976 
Q 2775 2784 2828 2463 
L 2278 2388 
Q 2241 2644 2061 2787 
Q 1881 2931 1553 2931 
Q 1166 2931 1000 2803 
Q 834 2675 834 2503 
Q 834 2394 903 2306 
Q 972 2216 1119 2156 
Q 1203 2125 1616 2013 
Q 2213 1853 2448 1751 
Q 2684 1650 2818 1456 
Q 2953 1263 2953 975 
Q 2953 694 2789 445 
Q 2625 197 2315 61 
Q 2006 -75 1616 -75 
Q 969 -75 630 194 
Q 291 463 197 991 
z
" transform="scale(0.015625)"/>
      </defs>
      <use xlink:href="#ArialMT-70"/>
      <use xlink:href="#ArialMT-2d" x="55.615234"/>
      <use xlink:href="#ArialMT-76" x="88.916016"/>
      <use xlink:href="#ArialMT-61" x="138.916016"/>
      <use xlink:href="#ArialMT-6c" x="194.53125"/>
      <use xlink:href="#ArialMT-75" x="216.748047"/>
      <use xlink:href="#ArialMT-65" x="272.363281"/>
      <use xlink:href="#ArialMT-73" x="327.978516"/>
     </g>
    </g>
   </g>
   <g id="matplotlib.axis_2">
    <g id="ytick_1">
     <g id="line2d_7">
      <path d="M 49.589063 287.435967 
L 607.589062 287.435967 
" clip-path="url(#pfac2272b18)" style="fill: none; stroke: #cccccc; stroke-width: 0.8; stroke-linecap: round"/>
     </g>
     <g id="text_8">
      <!-- 0 -->
      <g style="fill: #262626" transform="translate(37.028125 291.014873) scale(0.1 -0.1)">
       <use xlink:href="#ArialMT-30"/>
      </g>
     </g>
    </g>
    <g id="ytick_2">
     <g id="line2d_8">
      <path d="M 49.589063 252.853834 
L 607.589062 252.853834 
" clip-path="url(#pfac2272b18)" style="fill: none; stroke: #cccccc; stroke-width: 0.8; stroke-linecap: round"/>
     </g>
     <g id="text_9">
      <!-- 500 -->
      <g style="fill: #262626" transform="translate(25.90625 256.43274) scale(0.1 -0.1)">
       <defs>
        <path id="ArialMT-35" d="M 266 1200 
L 856 1250 
Q 922 819 1161 601 
Q 1400 384 1738 384 
Q 2144 384 2425 690 
Q 2706 997 2706 1503 
Q 2706 1984 2436 2262 
Q 2166 2541 1728 2541 
Q 1456 2541 1237 2417 
Q 1019 2294 894 2097 
L 366 2166 
L 809 4519 
L 3088 4519 
L 3088 3981 
L 1259 3981 
L 1013 2750 
Q 1425 3038 1878 3038 
Q 2478 3038 2890 2622 
Q 3303 2206 3303 1553 
Q 3303 931 2941 478 
Q 2500 -78 1738 -78 
Q 1113 -78 717 272 
Q 322 622 266 1200 
z
" transform="scale(0.015625)"/>
       </defs>
       <use xlink:href="#ArialMT-35"/>
       <use xlink:href="#ArialMT-30" x="55.615234"/>
       <use xlink:href="#ArialMT-30" x="111.230469"/>
      </g>
     </g>
    </g>
    <g id="ytick_3">
     <g id="line2d_9">
      <path d="M 49.589063 218.271702 
L 607.589062 218.271702 
" clip-path="url(#pfac2272b18)" style="fill: none; stroke: #cccccc; stroke-width: 0.8; stroke-linecap: round"/>
     </g>
     <g id="text_10">
      <!-- 1000 -->
      <g style="fill: #262626" transform="translate(20.345313 221.850608) scale(0.1 -0.1)">
       <use xlink:href="#ArialMT-31"/>
       <use xlink:href="#ArialMT-30" x="55.615234"/>
       <use xlink:href="#ArialMT-30" x="111.230469"/>
       <use xlink:href="#ArialMT-30" x="166.845703"/>
      </g>
     </g>
    </g>
    <g id="ytick_4">
     <g id="line2d_10">
      <path d="M 49.589063 183.689569 
L 607.589062 183.689569 
" clip-path="url(#pfac2272b18)" style="fill: none; stroke: #cccccc; stroke-width: 0.8; stroke-linecap: round"/>
     </g>
     <g id="text_11">
      <!-- 1500 -->
      <g style="fill: #262626" transform="translate(20.345313 187.268475) scale(0.1 -0.1)">
       <use xlink:href="#ArialMT-31"/>
       <use xlink:href="#ArialMT-35" x="55.615234"/>
       <use xlink:href="#ArialMT-30" x="111.230469"/>
       <use xlink:href="#ArialMT-30" x="166.845703"/>
      </g>
     </g>
    </g>
    <g id="ytick_5">
     <g id="line2d_11">
      <path d="M 49.589063 149.107437 
L 607.589062 149.107437 
" clip-path="url(#pfac2272b18)" style="fill: none; stroke: #cccccc; stroke-width: 0.8; stroke-linecap: round"/>
     </g>
     <g id="text_12">
      <!-- 2000 -->
      <g style="fill: #262626" transform="translate(20.345313 152.686343) scale(0.1 -0.1)">
       <use xlink:href="#ArialMT-32"/>
       <use xlink:href="#ArialMT-30" x="55.615234"/>
       <use xlink:href="#ArialMT-30" x="111.230469"/>
       <use xlink:href="#ArialMT-30" x="166.845703"/>
      </g>
     </g>
    </g>
    <g id="ytick_6">
     <g id="line2d_12">
      <path d="M 49.589063 114.525304 
L 607.589062 114.525304 
" clip-path="url(#pfac2272b18)" style="fill: none; stroke: #cccccc; stroke-width: 0.8; stroke-linecap: round"/>
     </g>
     <g id="text_13">
      <!-- 2500 -->
      <g style="fill: #262626" transform="translate(20.345313 118.10421) scale(0.1 -0.1)">
       <use xlink:href="#ArialMT-32"/>
       <use xlink:href="#ArialMT-35" x="55.615234"/>
       <use xlink:href="#ArialMT-30" x="111.230469"/>
       <use xlink:href="#ArialMT-30" x="166.845703"/>
      </g>
     </g>
    </g>
    <g id="ytick_7">
     <g id="line2d_13">
      <path d="M 49.589063 79.943171 
L 607.589062 79.943171 
" clip-path="url(#pfac2272b18)" style="fill: none; stroke: #cccccc; stroke-width: 0.8; stroke-linecap: round"/>
     </g>
     <g id="text_14">
      <!-- 3000 -->
      <g style="fill: #262626" transform="translate(20.345313 83.522078) scale(0.1 -0.1)">
       <defs>
        <path id="ArialMT-33" d="M 269 1209 
L 831 1284 
Q 928 806 1161 595 
Q 1394 384 1728 384 
Q 2125 384 2398 659 
Q 2672 934 2672 1341 
Q 2672 1728 2419 1979 
Q 2166 2231 1775 2231 
Q 1616 2231 1378 2169 
L 1441 2663 
Q 1497 2656 1531 2656 
Q 1891 2656 2178 2843 
Q 2466 3031 2466 3422 
Q 2466 3731 2256 3934 
Q 2047 4138 1716 4138 
Q 1388 4138 1169 3931 
Q 950 3725 888 3313 
L 325 3413 
Q 428 3978 793 4289 
Q 1159 4600 1703 4600 
Q 2078 4600 2393 4439 
Q 2709 4278 2876 4000 
Q 3044 3722 3044 3409 
Q 3044 3113 2884 2869 
Q 2725 2625 2413 2481 
Q 2819 2388 3044 2092 
Q 3269 1797 3269 1353 
Q 3269 753 2831 336 
Q 2394 -81 1725 -81 
Q 1122 -81 723 278 
Q 325 638 269 1209 
z
" transform="scale(0.015625)"/>
       </defs>
       <use xlink:href="#ArialMT-33"/>
       <use xlink:href="#ArialMT-30" x="55.615234"/>
       <use xlink:href="#ArialMT-30" x="111.230469"/>
       <use xlink:href="#ArialMT-30" x="166.845703"/>
      </g>
     </g>
    </g>
    <g id="ytick_8">
     <g id="line2d_14">
      <path d="M 49.589063 45.361039 
L 607.589062 45.361039 
" clip-path="url(#pfac2272b18)" style="fill: none; stroke: #cccccc; stroke-width: 0.8; stroke-linecap: round"/>
     </g>
     <g id="text_15">
      <!-- 3500 -->
      <g style="fill: #262626" transform="translate(20.345313 48.939945) scale(0.1 -0.1)">
       <use xlink:href="#ArialMT-33"/>
       <use xlink:href="#ArialMT-35" x="55.615234"/>
       <use xlink:href="#ArialMT-30" x="111.230469"/>
       <use xlink:href="#ArialMT-30" x="166.845703"/>
      </g>
     </g>
    </g>
    <g id="ytick_9">
     <g id="line2d_15">
      <path d="M 49.589063 10.778906 
L 607.589062 10.778906 
" clip-path="url(#pfac2272b18)" style="fill: none; stroke: #cccccc; stroke-width: 0.8; stroke-linecap: round"/>
     </g>
     <g id="text_16">
      <!-- 4000 -->
      <g style="fill: #262626" transform="translate(20.345313 14.357813) scale(0.1 -0.1)">
       <use xlink:href="#ArialMT-34"/>
       <use xlink:href="#ArialMT-30" x="55.615234"/>
       <use xlink:href="#ArialMT-30" x="111.230469"/>
       <use xlink:href="#ArialMT-30" x="166.845703"/>
      </g>
     </g>
    </g>
    <g id="text_17">
     <!-- Count -->
     <g style="fill: #262626" transform="translate(14.357813 162.177373) rotate(-90) scale(0.1 -0.1)">
      <defs>
       <path id="ArialMT-43" d="M 3763 1606 
L 4369 1453 
Q 4178 706 3683 314 
Q 3188 -78 2472 -78 
Q 1731 -78 1267 223 
Q 803 525 561 1097 
Q 319 1669 319 2325 
Q 319 3041 592 3573 
Q 866 4106 1370 4382 
Q 1875 4659 2481 4659 
Q 3169 4659 3637 4309 
Q 4106 3959 4291 3325 
L 3694 3184 
Q 3534 3684 3231 3912 
Q 2928 4141 2469 4141 
Q 1941 4141 1586 3887 
Q 1231 3634 1087 3207 
Q 944 2781 944 2328 
Q 944 1744 1114 1308 
Q 1284 872 1643 656 
Q 2003 441 2422 441 
Q 2931 441 3284 734 
Q 3638 1028 3763 1606 
z
" transform="scale(0.015625)"/>
       <path id="ArialMT-6f" d="M 213 1659 
Q 213 2581 725 3025 
Q 1153 3394 1769 3394 
Q 2453 3394 2887 2945 
Q 3322 2497 3322 1706 
Q 3322 1066 3130 698 
Q 2938 331 2570 128 
Q 2203 -75 1769 -75 
Q 1072 -75 642 372 
Q 213 819 213 1659 
z
M 791 1659 
Q 791 1022 1069 705 
Q 1347 388 1769 388 
Q 2188 388 2466 706 
Q 2744 1025 2744 1678 
Q 2744 2294 2464 2611 
Q 2184 2928 1769 2928 
Q 1347 2928 1069 2612 
Q 791 2297 791 1659 
z
" transform="scale(0.015625)"/>
       <path id="ArialMT-6e" d="M 422 0 
L 422 3319 
L 928 3319 
L 928 2847 
Q 1294 3394 1984 3394 
Q 2284 3394 2536 3286 
Q 2788 3178 2913 3003 
Q 3038 2828 3088 2588 
Q 3119 2431 3119 2041 
L 3119 0 
L 2556 0 
L 2556 2019 
Q 2556 2363 2490 2533 
Q 2425 2703 2258 2804 
Q 2091 2906 1866 2906 
Q 1506 2906 1245 2678 
Q 984 2450 984 1813 
L 984 0 
L 422 0 
z
" transform="scale(0.015625)"/>
       <path id="ArialMT-74" d="M 1650 503 
L 1731 6 
Q 1494 -44 1306 -44 
Q 1000 -44 831 53 
Q 663 150 594 308 
Q 525 466 525 972 
L 525 2881 
L 113 2881 
L 113 3319 
L 525 3319 
L 525 4141 
L 1084 4478 
L 1084 3319 
L 1650 3319 
L 1650 2881 
L 1084 2881 
L 1084 941 
Q 1084 700 1114 631 
Q 1144 563 1211 522 
Q 1278 481 1403 481 
Q 1497 481 1650 503 
z
" transform="scale(0.015625)"/>
      </defs>
      <use xlink:href="#ArialMT-43"/>
      <use xlink:href="#ArialMT-6f" x="72.216797"/>
      <use xlink:href="#ArialMT-75" x="127.832031"/>
      <use xlink:href="#ArialMT-6e" x="183.447266"/>
      <use xlink:href="#ArialMT-74" x="239.0625"/>
     </g>
    </g>
   </g>
   <g id="patch_3">
    <path d="M 74.952699 287.435967 
L 79.32574 287.435967 
L 79.32574 23.435967 
L 74.952699 23.435967 
z
" clip-path="url(#pfac2272b18)" style="fill: #0173b2; fill-opacity: 0.75; stroke: #ffffff; stroke-width: 0.437304; stroke-linejoin: miter"/>
   </g>
   <g id="patch_4">
    <path d="M 79.32574 287.435967 
L 83.69878 287.435967 
L 83.69878 216.750088 
L 79.32574 216.750088 
z
" clip-path="url(#pfac2272b18)" style="fill: #0173b2; fill-opacity: 0.75; stroke: #ffffff; stroke-width: 0.437304; stroke-linejoin: miter"/>
   </g>
   <g id="patch_5">
    <path d="M 83.69878 287.435967 
L 88.071821 287.435967 
L 88.071821 246.767379 
L 83.69878 246.767379 
z
" clip-path="url(#pfac2272b18)" style="fill: #0173b2; fill-opacity: 0.75; stroke: #ffffff; stroke-width: 0.437304; stroke-linejoin: miter"/>
   </g>
   <g id="patch_6">
    <path d="M 88.071821 287.435967 
L 92.444862 287.435967 
L 92.444862 252.992163 
L 88.071821 252.992163 
z
" clip-path="url(#pfac2272b18)" style="fill: #0173b2; fill-opacity: 0.75; stroke: #ffffff; stroke-width: 0.437304; stroke-linejoin: miter"/>
   </g>
   <g id="patch_7">
    <path d="M 92.444862 287.435967 
L 96.817903 287.435967 
L 96.817903 265.165073 
L 92.444862 265.165073 
z
" clip-path="url(#pfac2272b18)" style="fill: #0173b2; fill-opacity: 0.75; stroke: #ffffff; stroke-width: 0.437304; stroke-linejoin: miter"/>
   </g>
   <g id="patch_8">
    <path d="M 96.817903 287.435967 
L 101.190943 287.435967 
L 101.190943 268.554122 
L 96.817903 268.554122 
z
" clip-path="url(#pfac2272b18)" style="fill: #0173b2; fill-opacity: 0.75; stroke: #ffffff; stroke-width: 0.437304; stroke-linejoin: miter"/>
   </g>
   <g id="patch_9">
    <path d="M 101.190943 287.435967 
L 105.563984 287.435967 
L 105.563984 270.698215 
L 101.190943 270.698215 
z
" clip-path="url(#pfac2272b18)" style="fill: #0173b2; fill-opacity: 0.75; stroke: #ffffff; stroke-width: 0.437304; stroke-linejoin: miter"/>
   </g>
   <g id="patch_10">
    <path d="M 105.563984 287.435967 
L 109.937025 287.435967 
L 109.937025 272.219828 
L 105.563984 272.219828 
z
" clip-path="url(#pfac2272b18)" style="fill: #0173b2; fill-opacity: 0.75; stroke: #ffffff; stroke-width: 0.437304; stroke-linejoin: miter"/>
   </g>
   <g id="patch_11">
    <path d="M 109.937025 287.435967 
L 114.310066 287.435967 
L 114.310066 275.193892 
L 109.937025 275.193892 
z
" clip-path="url(#pfac2272b18)" style="fill: #0173b2; fill-opacity: 0.75; stroke: #ffffff; stroke-width: 0.437304; stroke-linejoin: miter"/>
   </g>
   <g id="patch_12">
    <path d="M 114.310066 287.435967 
L 118.683106 287.435967 
L 118.683106 275.193892 
L 114.310066 275.193892 
z
" clip-path="url(#pfac2272b18)" style="fill: #0173b2; fill-opacity: 0.75; stroke: #ffffff; stroke-width: 0.437304; stroke-linejoin: miter"/>
   </g>
   <g id="patch_13">
    <path d="M 118.683106 287.435967 
L 123.056147 287.435967 
L 123.056147 277.407148 
L 118.683106 277.407148 
z
" clip-path="url(#pfac2272b18)" style="fill: #0173b2; fill-opacity: 0.75; stroke: #ffffff; stroke-width: 0.437304; stroke-linejoin: miter"/>
   </g>
   <g id="patch_14">
    <path d="M 123.056147 287.435967 
L 127.429188 287.435967 
L 127.429188 278.098791 
L 123.056147 278.098791 
z
" clip-path="url(#pfac2272b18)" style="fill: #0173b2; fill-opacity: 0.75; stroke: #ffffff; stroke-width: 0.437304; stroke-linejoin: miter"/>
   </g>
   <g id="patch_15">
    <path d="M 127.429188 287.435967 
L 131.802229 287.435967 
L 131.802229 277.683805 
L 127.429188 277.683805 
z
" clip-path="url(#pfac2272b18)" style="fill: #0173b2; fill-opacity: 0.75; stroke: #ffffff; stroke-width: 0.437304; stroke-linejoin: miter"/>
   </g>
   <g id="patch_16">
    <path d="M 131.802229 287.435967 
L 136.175269 287.435967 
L 136.175269 281.072854 
L 131.802229 281.072854 
z
" clip-path="url(#pfac2272b18)" style="fill: #0173b2; fill-opacity: 0.75; stroke: #ffffff; stroke-width: 0.437304; stroke-linejoin: miter"/>
   </g>
   <g id="patch_17">
    <path d="M 136.175269 287.435967 
L 140.54831 287.435967 
L 140.54831 281.142019 
L 136.175269 281.142019 
z
" clip-path="url(#pfac2272b18)" style="fill: #0173b2; fill-opacity: 0.75; stroke: #ffffff; stroke-width: 0.437304; stroke-linejoin: miter"/>
   </g>
   <g id="patch_18">
    <path d="M 140.54831 287.435967 
L 144.921351 287.435967 
L 144.921351 281.211183 
L 140.54831 281.211183 
z
" clip-path="url(#pfac2272b18)" style="fill: #0173b2; fill-opacity: 0.75; stroke: #ffffff; stroke-width: 0.437304; stroke-linejoin: miter"/>
   </g>
   <g id="patch_19">
    <path d="M 144.921351 287.435967 
L 149.294392 287.435967 
L 149.294392 281.833661 
L 144.921351 281.833661 
z
" clip-path="url(#pfac2272b18)" style="fill: #0173b2; fill-opacity: 0.75; stroke: #ffffff; stroke-width: 0.437304; stroke-linejoin: miter"/>
   </g>
   <g id="patch_20">
    <path d="M 149.294392 287.435967 
L 153.667432 287.435967 
L 153.667432 280.242883 
L 149.294392 280.242883 
z
" clip-path="url(#pfac2272b18)" style="fill: #0173b2; fill-opacity: 0.75; stroke: #ffffff; stroke-width: 0.437304; stroke-linejoin: miter"/>
   </g>
   <g id="patch_21">
    <path d="M 153.667432 287.435967 
L 158.040473 287.435967 
L 158.040473 282.871125 
L 153.667432 282.871125 
z
" clip-path="url(#pfac2272b18)" style="fill: #0173b2; fill-opacity: 0.75; stroke: #ffffff; stroke-width: 0.437304; stroke-linejoin: miter"/>
   </g>
   <g id="patch_22">
    <path d="M 158.040473 287.435967 
L 162.413514 287.435967 
L 162.413514 283.078618 
L 158.040473 283.078618 
z
" clip-path="url(#pfac2272b18)" style="fill: #0173b2; fill-opacity: 0.75; stroke: #ffffff; stroke-width: 0.437304; stroke-linejoin: miter"/>
   </g>
   <g id="patch_23">
    <path d="M 162.413514 287.435967 
L 166.786555 287.435967 
L 166.786555 282.386975 
L 162.413514 282.386975 
z
" clip-path="url(#pfac2272b18)" style="fill: #0173b2; fill-opacity: 0.75; stroke: #ffffff; stroke-width: 0.437304; stroke-linejoin: miter"/>
   </g>
   <g id="patch_24">
    <path d="M 166.786555 287.435967 
L 171.159595 287.435967 
L 171.159595 283.493604 
L 166.786555 283.493604 
z
" clip-path="url(#pfac2272b18)" style="fill: #0173b2; fill-opacity: 0.75; stroke: #ffffff; stroke-width: 0.437304; stroke-linejoin: miter"/>
   </g>
   <g id="patch_25">
    <path d="M 171.159595 287.435967 
L 175.532636 287.435967 
L 175.532636 282.871125 
L 171.159595 282.871125 
z
" clip-path="url(#pfac2272b18)" style="fill: #0173b2; fill-opacity: 0.75; stroke: #ffffff; stroke-width: 0.437304; stroke-linejoin: miter"/>
   </g>
   <g id="patch_26">
    <path d="M 175.532636 287.435967 
L 179.905677 287.435967 
L 179.905677 283.562768 
L 175.532636 283.562768 
z
" clip-path="url(#pfac2272b18)" style="fill: #0173b2; fill-opacity: 0.75; stroke: #ffffff; stroke-width: 0.437304; stroke-linejoin: miter"/>
   </g>
   <g id="patch_27">
    <path d="M 179.905677 287.435967 
L 184.278718 287.435967 
L 184.278718 283.701096 
L 179.905677 283.701096 
z
" clip-path="url(#pfac2272b18)" style="fill: #0173b2; fill-opacity: 0.75; stroke: #ffffff; stroke-width: 0.437304; stroke-linejoin: miter"/>
   </g>
   <g id="patch_28">
    <path d="M 184.278718 287.435967 
L 188.651758 287.435967 
L 188.651758 283.977754 
L 184.278718 283.977754 
z
" clip-path="url(#pfac2272b18)" style="fill: #0173b2; fill-opacity: 0.75; stroke: #ffffff; stroke-width: 0.437304; stroke-linejoin: miter"/>
   </g>
   <g id="patch_29">
    <path d="M 188.651758 287.435967 
L 193.024799 287.435967 
L 193.024799 284.669396 
L 188.651758 284.669396 
z
" clip-path="url(#pfac2272b18)" style="fill: #0173b2; fill-opacity: 0.75; stroke: #ffffff; stroke-width: 0.437304; stroke-linejoin: miter"/>
   </g>
   <g id="patch_30">
    <path d="M 193.024799 287.435967 
L 197.39784 287.435967 
L 197.39784 284.73856 
L 193.024799 284.73856 
z
" clip-path="url(#pfac2272b18)" style="fill: #0173b2; fill-opacity: 0.75; stroke: #ffffff; stroke-width: 0.437304; stroke-linejoin: miter"/>
   </g>
   <g id="patch_31">
    <path d="M 197.39784 287.435967 
L 201.770881 287.435967 
L 201.770881 284.669396 
L 197.39784 284.669396 
z
" clip-path="url(#pfac2272b18)" style="fill: #0173b2; fill-opacity: 0.75; stroke: #ffffff; stroke-width: 0.437304; stroke-linejoin: miter"/>
   </g>
   <g id="patch_32">
    <path d="M 201.770881 287.435967 
L 206.143921 287.435967 
L 206.143921 284.392739 
L 201.770881 284.392739 
z
" clip-path="url(#pfac2272b18)" style="fill: #0173b2; fill-opacity: 0.75; stroke: #ffffff; stroke-width: 0.437304; stroke-linejoin: miter"/>
   </g>
   <g id="patch_33">
    <path d="M 206.143921 287.435967 
L 210.516962 287.435967 
L 210.516962 285.084382 
L 206.143921 285.084382 
z
" clip-path="url(#pfac2272b18)" style="fill: #0173b2; fill-opacity: 0.75; stroke: #ffffff; stroke-width: 0.437304; stroke-linejoin: miter"/>
   </g>
   <g id="patch_34">
    <path d="M 210.516962 287.435967 
L 214.890003 287.435967 
L 214.890003 284.73856 
L 210.516962 284.73856 
z
" clip-path="url(#pfac2272b18)" style="fill: #0173b2; fill-opacity: 0.75; stroke: #ffffff; stroke-width: 0.437304; stroke-linejoin: miter"/>
   </g>
   <g id="patch_35">
    <path d="M 214.890003 287.435967 
L 219.263044 287.435967 
L 219.263044 284.876889 
L 214.890003 284.876889 
z
" clip-path="url(#pfac2272b18)" style="fill: #0173b2; fill-opacity: 0.75; stroke: #ffffff; stroke-width: 0.437304; stroke-linejoin: miter"/>
   </g>
   <g id="patch_36">
    <path d="M 219.263044 287.435967 
L 223.636084 287.435967 
L 223.636084 284.046918 
L 219.263044 284.046918 
z
" clip-path="url(#pfac2272b18)" style="fill: #0173b2; fill-opacity: 0.75; stroke: #ffffff; stroke-width: 0.437304; stroke-linejoin: miter"/>
   </g>
   <g id="patch_37">
    <path d="M 223.636084 287.435967 
L 228.009125 287.435967 
L 228.009125 285.499367 
L 223.636084 285.499367 
z
" clip-path="url(#pfac2272b18)" style="fill: #0173b2; fill-opacity: 0.75; stroke: #ffffff; stroke-width: 0.437304; stroke-linejoin: miter"/>
   </g>
   <g id="patch_38">
    <path d="M 228.009125 287.435967 
L 232.382166 287.435967 
L 232.382166 285.776024 
L 228.009125 285.776024 
z
" clip-path="url(#pfac2272b18)" style="fill: #0173b2; fill-opacity: 0.75; stroke: #ffffff; stroke-width: 0.437304; stroke-linejoin: miter"/>
   </g>
   <g id="patch_39">
    <path d="M 232.382166 287.435967 
L 236.755207 287.435967 
L 236.755207 286.052681 
L 232.382166 286.052681 
z
" clip-path="url(#pfac2272b18)" style="fill: #0173b2; fill-opacity: 0.75; stroke: #ffffff; stroke-width: 0.437304; stroke-linejoin: miter"/>
   </g>
   <g id="patch_40">
    <path d="M 236.755207 287.435967 
L 241.128247 287.435967 
L 241.128247 285.776024 
L 236.755207 285.776024 
z
" clip-path="url(#pfac2272b18)" style="fill: #0173b2; fill-opacity: 0.75; stroke: #ffffff; stroke-width: 0.437304; stroke-linejoin: miter"/>
   </g>
   <g id="patch_41">
    <path d="M 241.128247 287.435967 
L 245.501288 287.435967 
L 245.501288 285.568532 
L 241.128247 285.568532 
z
" clip-path="url(#pfac2272b18)" style="fill: #0173b2; fill-opacity: 0.75; stroke: #ffffff; stroke-width: 0.437304; stroke-linejoin: miter"/>
   </g>
   <g id="patch_42">
    <path d="M 245.501288 287.435967 
L 249.874329 287.435967 
L 249.874329 285.499367 
L 245.501288 285.499367 
z
" clip-path="url(#pfac2272b18)" style="fill: #0173b2; fill-opacity: 0.75; stroke: #ffffff; stroke-width: 0.437304; stroke-linejoin: miter"/>
   </g>
   <g id="patch_43">
    <path d="M 249.874329 287.435967 
L 254.24737 287.435967 
L 254.24737 285.70686 
L 249.874329 285.70686 
z
" clip-path="url(#pfac2272b18)" style="fill: #0173b2; fill-opacity: 0.75; stroke: #ffffff; stroke-width: 0.437304; stroke-linejoin: miter"/>
   </g>
   <g id="patch_44">
    <path d="M 254.24737 287.435967 
L 258.62041 287.435967 
L 258.62041 285.914353 
L 254.24737 285.914353 
z
" clip-path="url(#pfac2272b18)" style="fill: #0173b2; fill-opacity: 0.75; stroke: #ffffff; stroke-width: 0.437304; stroke-linejoin: miter"/>
   </g>
   <g id="patch_45">
    <path d="M 258.62041 287.435967 
L 262.993451 287.435967 
L 262.993451 285.499367 
L 258.62041 285.499367 
z
" clip-path="url(#pfac2272b18)" style="fill: #0173b2; fill-opacity: 0.75; stroke: #ffffff; stroke-width: 0.437304; stroke-linejoin: miter"/>
   </g>
   <g id="patch_46">
    <path d="M 262.993451 287.435967 
L 267.366492 287.435967 
L 267.366492 285.70686 
L 262.993451 285.70686 
z
" clip-path="url(#pfac2272b18)" style="fill: #0173b2; fill-opacity: 0.75; stroke: #ffffff; stroke-width: 0.437304; stroke-linejoin: miter"/>
   </g>
   <g id="patch_47">
    <path d="M 267.366492 287.435967 
L 271.739533 287.435967 
L 271.739533 285.776024 
L 267.366492 285.776024 
z
" clip-path="url(#pfac2272b18)" style="fill: #0173b2; fill-opacity: 0.75; stroke: #ffffff; stroke-width: 0.437304; stroke-linejoin: miter"/>
   </g>
   <g id="patch_48">
    <path d="M 271.739533 287.435967 
L 276.112573 287.435967 
L 276.112573 286.329339 
L 271.739533 286.329339 
z
" clip-path="url(#pfac2272b18)" style="fill: #0173b2; fill-opacity: 0.75; stroke: #ffffff; stroke-width: 0.437304; stroke-linejoin: miter"/>
   </g>
   <g id="patch_49">
    <path d="M 276.112573 287.435967 
L 280.485614 287.435967 
L 280.485614 286.121846 
L 276.112573 286.121846 
z
" clip-path="url(#pfac2272b18)" style="fill: #0173b2; fill-opacity: 0.75; stroke: #ffffff; stroke-width: 0.437304; stroke-linejoin: miter"/>
   </g>
   <g id="patch_50">
    <path d="M 280.485614 287.435967 
L 284.858655 287.435967 
L 284.858655 286.329339 
L 280.485614 286.329339 
z
" clip-path="url(#pfac2272b18)" style="fill: #0173b2; fill-opacity: 0.75; stroke: #ffffff; stroke-width: 0.437304; stroke-linejoin: miter"/>
   </g>
   <g id="patch_51">
    <path d="M 284.858655 287.435967 
L 289.231696 287.435967 
L 289.231696 285.776024 
L 284.858655 285.776024 
z
" clip-path="url(#pfac2272b18)" style="fill: #0173b2; fill-opacity: 0.75; stroke: #ffffff; stroke-width: 0.437304; stroke-linejoin: miter"/>
   </g>
   <g id="patch_52">
    <path d="M 289.231696 287.435967 
L 293.604736 287.435967 
L 293.604736 285.845189 
L 289.231696 285.845189 
z
" clip-path="url(#pfac2272b18)" style="fill: #0173b2; fill-opacity: 0.75; stroke: #ffffff; stroke-width: 0.437304; stroke-linejoin: miter"/>
   </g>
   <g id="patch_53">
    <path d="M 293.604736 287.435967 
L 297.977777 287.435967 
L 297.977777 286.260174 
L 293.604736 286.260174 
z
" clip-path="url(#pfac2272b18)" style="fill: #0173b2; fill-opacity: 0.75; stroke: #ffffff; stroke-width: 0.437304; stroke-linejoin: miter"/>
   </g>
   <g id="patch_54">
    <path d="M 297.977777 287.435967 
L 302.350818 287.435967 
L 302.350818 286.121846 
L 297.977777 286.121846 
z
" clip-path="url(#pfac2272b18)" style="fill: #0173b2; fill-opacity: 0.75; stroke: #ffffff; stroke-width: 0.437304; stroke-linejoin: miter"/>
   </g>
   <g id="patch_55">
    <path d="M 302.350818 287.435967 
L 306.723859 287.435967 
L 306.723859 286.329339 
L 302.350818 286.329339 
z
" clip-path="url(#pfac2272b18)" style="fill: #0173b2; fill-opacity: 0.75; stroke: #ffffff; stroke-width: 0.437304; stroke-linejoin: miter"/>
   </g>
   <g id="patch_56">
    <path d="M 306.723859 287.435967 
L 311.096899 287.435967 
L 311.096899 286.052681 
L 306.723859 286.052681 
z
" clip-path="url(#pfac2272b18)" style="fill: #0173b2; fill-opacity: 0.75; stroke: #ffffff; stroke-width: 0.437304; stroke-linejoin: miter"/>
   </g>
   <g id="patch_57">
    <path d="M 311.096899 287.435967 
L 315.46994 287.435967 
L 315.46994 286.19101 
L 311.096899 286.19101 
z
" clip-path="url(#pfac2272b18)" style="fill: #0173b2; fill-opacity: 0.75; stroke: #ffffff; stroke-width: 0.437304; stroke-linejoin: miter"/>
   </g>
   <g id="patch_58">
    <path d="M 315.46994 287.435967 
L 319.842981 287.435967 
L 319.842981 286.467667 
L 315.46994 286.467667 
z
" clip-path="url(#pfac2272b18)" style="fill: #0173b2; fill-opacity: 0.75; stroke: #ffffff; stroke-width: 0.437304; stroke-linejoin: miter"/>
   </g>
   <g id="patch_59">
    <path d="M 319.842981 287.435967 
L 324.216022 287.435967 
L 324.216022 286.398503 
L 319.842981 286.398503 
z
" clip-path="url(#pfac2272b18)" style="fill: #0173b2; fill-opacity: 0.75; stroke: #ffffff; stroke-width: 0.437304; stroke-linejoin: miter"/>
   </g>
   <g id="patch_60">
    <path d="M 324.216022 287.435967 
L 328.589063 287.435967 
L 328.589063 286.398503 
L 324.216022 286.398503 
z
" clip-path="url(#pfac2272b18)" style="fill: #0173b2; fill-opacity: 0.75; stroke: #ffffff; stroke-width: 0.437304; stroke-linejoin: miter"/>
   </g>
   <g id="patch_61">
    <path d="M 328.589063 287.435967 
L 332.962103 287.435967 
L 332.962103 286.813488 
L 328.589063 286.813488 
z
" clip-path="url(#pfac2272b18)" style="fill: #0173b2; fill-opacity: 0.75; stroke: #ffffff; stroke-width: 0.437304; stroke-linejoin: miter"/>
   </g>
   <g id="patch_62">
    <path d="M 332.962103 287.435967 
L 337.335144 287.435967 
L 337.335144 286.605996 
L 332.962103 286.605996 
z
" clip-path="url(#pfac2272b18)" style="fill: #0173b2; fill-opacity: 0.75; stroke: #ffffff; stroke-width: 0.437304; stroke-linejoin: miter"/>
   </g>
   <g id="patch_63">
    <path d="M 337.335144 287.435967 
L 341.708185 287.435967 
L 341.708185 286.19101 
L 337.335144 286.19101 
z
" clip-path="url(#pfac2272b18)" style="fill: #0173b2; fill-opacity: 0.75; stroke: #ffffff; stroke-width: 0.437304; stroke-linejoin: miter"/>
   </g>
   <g id="patch_64">
    <path d="M 341.708185 287.435967 
L 346.081226 287.435967 
L 346.081226 286.605996 
L 341.708185 286.605996 
z
" clip-path="url(#pfac2272b18)" style="fill: #0173b2; fill-opacity: 0.75; stroke: #ffffff; stroke-width: 0.437304; stroke-linejoin: miter"/>
   </g>
   <g id="patch_65">
    <path d="M 346.081226 287.435967 
L 350.454266 287.435967 
L 350.454266 286.121846 
L 346.081226 286.121846 
z
" clip-path="url(#pfac2272b18)" style="fill: #0173b2; fill-opacity: 0.75; stroke: #ffffff; stroke-width: 0.437304; stroke-linejoin: miter"/>
   </g>
   <g id="patch_66">
    <path d="M 350.454266 287.435967 
L 354.827307 287.435967 
L 354.827307 286.813488 
L 350.454266 286.813488 
z
" clip-path="url(#pfac2272b18)" style="fill: #0173b2; fill-opacity: 0.75; stroke: #ffffff; stroke-width: 0.437304; stroke-linejoin: miter"/>
   </g>
   <g id="patch_67">
    <path d="M 354.827307 287.435967 
L 359.200348 287.435967 
L 359.200348 286.744324 
L 354.827307 286.744324 
z
" clip-path="url(#pfac2272b18)" style="fill: #0173b2; fill-opacity: 0.75; stroke: #ffffff; stroke-width: 0.437304; stroke-linejoin: miter"/>
   </g>
   <g id="patch_68">
    <path d="M 359.200348 287.435967 
L 363.573389 287.435967 
L 363.573389 286.67516 
L 359.200348 286.67516 
z
" clip-path="url(#pfac2272b18)" style="fill: #0173b2; fill-opacity: 0.75; stroke: #ffffff; stroke-width: 0.437304; stroke-linejoin: miter"/>
   </g>
   <g id="patch_69">
    <path d="M 363.573389 287.435967 
L 367.946429 287.435967 
L 367.946429 286.744324 
L 363.573389 286.744324 
z
" clip-path="url(#pfac2272b18)" style="fill: #0173b2; fill-opacity: 0.75; stroke: #ffffff; stroke-width: 0.437304; stroke-linejoin: miter"/>
   </g>
   <g id="patch_70">
    <path d="M 367.946429 287.435967 
L 372.31947 287.435967 
L 372.31947 286.536831 
L 367.946429 286.536831 
z
" clip-path="url(#pfac2272b18)" style="fill: #0173b2; fill-opacity: 0.75; stroke: #ffffff; stroke-width: 0.437304; stroke-linejoin: miter"/>
   </g>
   <g id="patch_71">
    <path d="M 372.31947 287.435967 
L 376.692511 287.435967 
L 376.692511 286.467667 
L 372.31947 286.467667 
z
" clip-path="url(#pfac2272b18)" style="fill: #0173b2; fill-opacity: 0.75; stroke: #ffffff; stroke-width: 0.437304; stroke-linejoin: miter"/>
   </g>
   <g id="patch_72">
    <path d="M 376.692511 287.435967 
L 381.065552 287.435967 
L 381.065552 286.605996 
L 376.692511 286.605996 
z
" clip-path="url(#pfac2272b18)" style="fill: #0173b2; fill-opacity: 0.75; stroke: #ffffff; stroke-width: 0.437304; stroke-linejoin: miter"/>
   </g>
   <g id="patch_73">
    <path d="M 381.065552 287.435967 
L 385.438592 287.435967 
L 385.438592 286.951817 
L 381.065552 286.951817 
z
" clip-path="url(#pfac2272b18)" style="fill: #0173b2; fill-opacity: 0.75; stroke: #ffffff; stroke-width: 0.437304; stroke-linejoin: miter"/>
   </g>
   <g id="patch_74">
    <path d="M 385.438592 287.435967 
L 389.811633 287.435967 
L 389.811633 286.398503 
L 385.438592 286.398503 
z
" clip-path="url(#pfac2272b18)" style="fill: #0173b2; fill-opacity: 0.75; stroke: #ffffff; stroke-width: 0.437304; stroke-linejoin: miter"/>
   </g>
   <g id="patch_75">
    <path d="M 389.811633 287.435967 
L 394.184674 287.435967 
L 394.184674 286.882653 
L 389.811633 286.882653 
z
" clip-path="url(#pfac2272b18)" style="fill: #0173b2; fill-opacity: 0.75; stroke: #ffffff; stroke-width: 0.437304; stroke-linejoin: miter"/>
   </g>
   <g id="patch_76">
    <path d="M 394.184674 287.435967 
L 398.557715 287.435967 
L 398.557715 287.020981 
L 394.184674 287.020981 
z
" clip-path="url(#pfac2272b18)" style="fill: #0173b2; fill-opacity: 0.75; stroke: #ffffff; stroke-width: 0.437304; stroke-linejoin: miter"/>
   </g>
   <g id="patch_77">
    <path d="M 398.557715 287.435967 
L 402.930755 287.435967 
L 402.930755 286.882653 
L 398.557715 286.882653 
z
" clip-path="url(#pfac2272b18)" style="fill: #0173b2; fill-opacity: 0.75; stroke: #ffffff; stroke-width: 0.437304; stroke-linejoin: miter"/>
   </g>
   <g id="patch_78">
    <path d="M 402.930755 287.435967 
L 407.303796 287.435967 
L 407.303796 287.090145 
L 402.930755 287.090145 
z
" clip-path="url(#pfac2272b18)" style="fill: #0173b2; fill-opacity: 0.75; stroke: #ffffff; stroke-width: 0.437304; stroke-linejoin: miter"/>
   </g>
   <g id="patch_79">
    <path d="M 407.303796 287.435967 
L 411.676837 287.435967 
L 411.676837 286.744324 
L 407.303796 286.744324 
z
" clip-path="url(#pfac2272b18)" style="fill: #0173b2; fill-opacity: 0.75; stroke: #ffffff; stroke-width: 0.437304; stroke-linejoin: miter"/>
   </g>
   <g id="patch_80">
    <path d="M 411.676837 287.435967 
L 416.049878 287.435967 
L 416.049878 286.536831 
L 411.676837 286.536831 
z
" clip-path="url(#pfac2272b18)" style="fill: #0173b2; fill-opacity: 0.75; stroke: #ffffff; stroke-width: 0.437304; stroke-linejoin: miter"/>
   </g>
   <g id="patch_81">
    <path d="M 416.049878 287.435967 
L 420.422918 287.435967 
L 420.422918 286.813488 
L 416.049878 286.813488 
z
" clip-path="url(#pfac2272b18)" style="fill: #0173b2; fill-opacity: 0.75; stroke: #ffffff; stroke-width: 0.437304; stroke-linejoin: miter"/>
   </g>
   <g id="patch_82">
    <path d="M 420.422918 287.435967 
L 424.795959 287.435967 
L 424.795959 286.882653 
L 420.422918 286.882653 
z
" clip-path="url(#pfac2272b18)" style="fill: #0173b2; fill-opacity: 0.75; stroke: #ffffff; stroke-width: 0.437304; stroke-linejoin: miter"/>
   </g>
   <g id="patch_83">
    <path d="M 424.795959 287.435967 
L 429.169 287.435967 
L 429.169 286.882653 
L 424.795959 286.882653 
z
" clip-path="url(#pfac2272b18)" style="fill: #0173b2; fill-opacity: 0.75; stroke: #ffffff; stroke-width: 0.437304; stroke-linejoin: miter"/>
   </g>
   <g id="patch_84">
    <path d="M 429.169 287.435967 
L 433.542041 287.435967 
L 433.542041 286.67516 
L 429.169 286.67516 
z
" clip-path="url(#pfac2272b18)" style="fill: #0173b2; fill-opacity: 0.75; stroke: #ffffff; stroke-width: 0.437304; stroke-linejoin: miter"/>
   </g>
   <g id="patch_85">
    <path d="M 433.542041 287.435967 
L 437.915081 287.435967 
L 437.915081 286.951817 
L 433.542041 286.951817 
z
" clip-path="url(#pfac2272b18)" style="fill: #0173b2; fill-opacity: 0.75; stroke: #ffffff; stroke-width: 0.437304; stroke-linejoin: miter"/>
   </g>
   <g id="patch_86">
    <path d="M 437.915081 287.435967 
L 442.288122 287.435967 
L 442.288122 287.020981 
L 437.915081 287.020981 
z
" clip-path="url(#pfac2272b18)" style="fill: #0173b2; fill-opacity: 0.75; stroke: #ffffff; stroke-width: 0.437304; stroke-linejoin: miter"/>
   </g>
   <g id="patch_87">
    <path d="M 442.288122 287.435967 
L 446.661163 287.435967 
L 446.661163 286.951817 
L 442.288122 286.951817 
z
" clip-path="url(#pfac2272b18)" style="fill: #0173b2; fill-opacity: 0.75; stroke: #ffffff; stroke-width: 0.437304; stroke-linejoin: miter"/>
   </g>
   <g id="patch_88">
    <path d="M 446.661163 287.435967 
L 451.034204 287.435967 
L 451.034204 287.15931 
L 446.661163 287.15931 
z
" clip-path="url(#pfac2272b18)" style="fill: #0173b2; fill-opacity: 0.75; stroke: #ffffff; stroke-width: 0.437304; stroke-linejoin: miter"/>
   </g>
   <g id="patch_89">
    <path d="M 451.034204 287.435967 
L 455.407244 287.435967 
L 455.407244 286.951817 
L 451.034204 286.951817 
z
" clip-path="url(#pfac2272b18)" style="fill: #0173b2; fill-opacity: 0.75; stroke: #ffffff; stroke-width: 0.437304; stroke-linejoin: miter"/>
   </g>
   <g id="patch_90">
    <path d="M 455.407244 287.435967 
L 459.780285 287.435967 
L 459.780285 287.020981 
L 455.407244 287.020981 
z
" clip-path="url(#pfac2272b18)" style="fill: #0173b2; fill-opacity: 0.75; stroke: #ffffff; stroke-width: 0.437304; stroke-linejoin: miter"/>
   </g>
   <g id="patch_91">
    <path d="M 459.780285 287.435967 
L 464.153326 287.435967 
L 464.153326 286.951817 
L 459.780285 286.951817 
z
" clip-path="url(#pfac2272b18)" style="fill: #0173b2; fill-opacity: 0.75; stroke: #ffffff; stroke-width: 0.437304; stroke-linejoin: miter"/>
   </g>
   <g id="patch_92">
    <path d="M 464.153326 287.435967 
L 468.526367 287.435967 
L 468.526367 286.951817 
L 464.153326 286.951817 
z
" clip-path="url(#pfac2272b18)" style="fill: #0173b2; fill-opacity: 0.75; stroke: #ffffff; stroke-width: 0.437304; stroke-linejoin: miter"/>
   </g>
   <g id="patch_93">
    <path d="M 468.526367 287.435967 
L 472.899407 287.435967 
L 472.899407 287.090145 
L 468.526367 287.090145 
z
" clip-path="url(#pfac2272b18)" style="fill: #0173b2; fill-opacity: 0.75; stroke: #ffffff; stroke-width: 0.437304; stroke-linejoin: miter"/>
   </g>
   <g id="patch_94">
    <path d="M 472.899407 287.435967 
L 477.272448 287.435967 
L 477.272448 287.228474 
L 472.899407 287.228474 
z
" clip-path="url(#pfac2272b18)" style="fill: #0173b2; fill-opacity: 0.75; stroke: #ffffff; stroke-width: 0.437304; stroke-linejoin: miter"/>
   </g>
   <g id="patch_95">
    <path d="M 477.272448 287.435967 
L 481.645489 287.435967 
L 481.645489 287.090145 
L 477.272448 287.090145 
z
" clip-path="url(#pfac2272b18)" style="fill: #0173b2; fill-opacity: 0.75; stroke: #ffffff; stroke-width: 0.437304; stroke-linejoin: miter"/>
   </g>
   <g id="patch_96">
    <path d="M 481.645489 287.435967 
L 486.01853 287.435967 
L 486.01853 286.813488 
L 481.645489 286.813488 
z
" clip-path="url(#pfac2272b18)" style="fill: #0173b2; fill-opacity: 0.75; stroke: #ffffff; stroke-width: 0.437304; stroke-linejoin: miter"/>
   </g>
   <g id="patch_97">
    <path d="M 486.01853 287.435967 
L 490.39157 287.435967 
L 490.39157 286.605996 
L 486.01853 286.605996 
z
" clip-path="url(#pfac2272b18)" style="fill: #0173b2; fill-opacity: 0.75; stroke: #ffffff; stroke-width: 0.437304; stroke-linejoin: miter"/>
   </g>
   <g id="patch_98">
    <path d="M 490.39157 287.435967 
L 494.764611 287.435967 
L 494.764611 287.228474 
L 490.39157 287.228474 
z
" clip-path="url(#pfac2272b18)" style="fill: #0173b2; fill-opacity: 0.75; stroke: #ffffff; stroke-width: 0.437304; stroke-linejoin: miter"/>
   </g>
   <g id="patch_99">
    <path d="M 494.764611 287.435967 
L 499.137652 287.435967 
L 499.137652 286.813488 
L 494.764611 286.813488 
z
" clip-path="url(#pfac2272b18)" style="fill: #0173b2; fill-opacity: 0.75; stroke: #ffffff; stroke-width: 0.437304; stroke-linejoin: miter"/>
   </g>
   <g id="patch_100">
    <path d="M 499.137652 287.435967 
L 503.510693 287.435967 
L 503.510693 286.951817 
L 499.137652 286.951817 
z
" clip-path="url(#pfac2272b18)" style="fill: #0173b2; fill-opacity: 0.75; stroke: #ffffff; stroke-width: 0.437304; stroke-linejoin: miter"/>
   </g>
   <g id="patch_101">
    <path d="M 503.510693 287.435967 
L 507.883733 287.435967 
L 507.883733 286.951817 
L 503.510693 286.951817 
z
" clip-path="url(#pfac2272b18)" style="fill: #0173b2; fill-opacity: 0.75; stroke: #ffffff; stroke-width: 0.437304; stroke-linejoin: miter"/>
   </g>
   <g id="patch_102">
    <path d="M 507.883733 287.435967 
L 512.256774 287.435967 
L 512.256774 286.882653 
L 507.883733 286.882653 
z
" clip-path="url(#pfac2272b18)" style="fill: #0173b2; fill-opacity: 0.75; stroke: #ffffff; stroke-width: 0.437304; stroke-linejoin: miter"/>
   </g>
   <g id="patch_103">
    <path d="M 512.256774 287.435967 
L 516.629815 287.435967 
L 516.629815 286.951817 
L 512.256774 286.951817 
z
" clip-path="url(#pfac2272b18)" style="fill: #0173b2; fill-opacity: 0.75; stroke: #ffffff; stroke-width: 0.437304; stroke-linejoin: miter"/>
   </g>
   <g id="patch_104">
    <path d="M 516.629815 287.435967 
L 521.002856 287.435967 
L 521.002856 286.951817 
L 516.629815 286.951817 
z
" clip-path="url(#pfac2272b18)" style="fill: #0173b2; fill-opacity: 0.75; stroke: #ffffff; stroke-width: 0.437304; stroke-linejoin: miter"/>
   </g>
   <g id="patch_105">
    <path d="M 521.002856 287.435967 
L 525.375896 287.435967 
L 525.375896 287.020981 
L 521.002856 287.020981 
z
" clip-path="url(#pfac2272b18)" style="fill: #0173b2; fill-opacity: 0.75; stroke: #ffffff; stroke-width: 0.437304; stroke-linejoin: miter"/>
   </g>
   <g id="patch_106">
    <path d="M 525.375896 287.435967 
L 529.748937 287.435967 
L 529.748937 286.882653 
L 525.375896 286.882653 
z
" clip-path="url(#pfac2272b18)" style="fill: #0173b2; fill-opacity: 0.75; stroke: #ffffff; stroke-width: 0.437304; stroke-linejoin: miter"/>
   </g>
   <g id="patch_107">
    <path d="M 529.748937 287.435967 
L 534.121978 287.435967 
L 534.121978 286.467667 
L 529.748937 286.467667 
z
" clip-path="url(#pfac2272b18)" style="fill: #0173b2; fill-opacity: 0.75; stroke: #ffffff; stroke-width: 0.437304; stroke-linejoin: miter"/>
   </g>
   <g id="patch_108">
    <path d="M 534.121978 287.435967 
L 538.495019 287.435967 
L 538.495019 287.15931 
L 534.121978 287.15931 
z
" clip-path="url(#pfac2272b18)" style="fill: #0173b2; fill-opacity: 0.75; stroke: #ffffff; stroke-width: 0.437304; stroke-linejoin: miter"/>
   </g>
   <g id="patch_109">
    <path d="M 538.495019 287.435967 
L 542.868059 287.435967 
L 542.868059 286.951817 
L 538.495019 286.951817 
z
" clip-path="url(#pfac2272b18)" style="fill: #0173b2; fill-opacity: 0.75; stroke: #ffffff; stroke-width: 0.437304; stroke-linejoin: miter"/>
   </g>
   <g id="patch_110">
    <path d="M 542.868059 287.435967 
L 547.2411 287.435967 
L 547.2411 287.297638 
L 542.868059 287.297638 
z
" clip-path="url(#pfac2272b18)" style="fill: #0173b2; fill-opacity: 0.75; stroke: #ffffff; stroke-width: 0.437304; stroke-linejoin: miter"/>
   </g>
   <g id="patch_111">
    <path d="M 547.2411 287.435967 
L 551.614141 287.435967 
L 551.614141 287.15931 
L 547.2411 287.15931 
z
" clip-path="url(#pfac2272b18)" style="fill: #0173b2; fill-opacity: 0.75; stroke: #ffffff; stroke-width: 0.437304; stroke-linejoin: miter"/>
   </g>
   <g id="patch_112">
    <path d="M 551.614141 287.435967 
L 555.987182 287.435967 
L 555.987182 286.951817 
L 551.614141 286.951817 
z
" clip-path="url(#pfac2272b18)" style="fill: #0173b2; fill-opacity: 0.75; stroke: #ffffff; stroke-width: 0.437304; stroke-linejoin: miter"/>
   </g>
   <g id="patch_113">
    <path d="M 555.987182 287.435967 
L 560.360222 287.435967 
L 560.360222 287.15931 
L 555.987182 287.15931 
z
" clip-path="url(#pfac2272b18)" style="fill: #0173b2; fill-opacity: 0.75; stroke: #ffffff; stroke-width: 0.437304; stroke-linejoin: miter"/>
   </g>
   <g id="patch_114">
    <path d="M 560.360222 287.435967 
L 564.733263 287.435967 
L 564.733263 287.15931 
L 560.360222 287.15931 
z
" clip-path="url(#pfac2272b18)" style="fill: #0173b2; fill-opacity: 0.75; stroke: #ffffff; stroke-width: 0.437304; stroke-linejoin: miter"/>
   </g>
   <g id="patch_115">
    <path d="M 564.733263 287.435967 
L 569.106304 287.435967 
L 569.106304 287.020981 
L 564.733263 287.020981 
z
" clip-path="url(#pfac2272b18)" style="fill: #0173b2; fill-opacity: 0.75; stroke: #ffffff; stroke-width: 0.437304; stroke-linejoin: miter"/>
   </g>
   <g id="patch_116">
    <path d="M 569.106304 287.435967 
L 573.479345 287.435967 
L 573.479345 287.020981 
L 569.106304 287.020981 
z
" clip-path="url(#pfac2272b18)" style="fill: #0173b2; fill-opacity: 0.75; stroke: #ffffff; stroke-width: 0.437304; stroke-linejoin: miter"/>
   </g>
   <g id="patch_117">
    <path d="M 573.479345 287.435967 
L 577.852385 287.435967 
L 577.852385 287.228474 
L 573.479345 287.228474 
z
" clip-path="url(#pfac2272b18)" style="fill: #0173b2; fill-opacity: 0.75; stroke: #ffffff; stroke-width: 0.437304; stroke-linejoin: miter"/>
   </g>
   <g id="patch_118">
    <path d="M 577.852385 287.435967 
L 582.225426 287.435967 
L 582.225426 287.020981 
L 577.852385 287.020981 
z
" clip-path="url(#pfac2272b18)" style="fill: #0173b2; fill-opacity: 0.75; stroke: #ffffff; stroke-width: 0.437304; stroke-linejoin: miter"/>
   </g>
   <g id="patch_119">
    <path d="M 49.589063 287.435967 
L 49.589063 10.235967 
" style="fill: none; stroke: #cccccc; stroke-width: 0.8; stroke-linejoin: miter; stroke-linecap: square"/>
   </g>
   <g id="patch_120">
    <path d="M 607.589062 287.435967 
L 607.589062 10.235967 
" style="fill: none; stroke: #cccccc; stroke-width: 0.8; stroke-linejoin: miter; stroke-linecap: square"/>
   </g>
   <g id="patch_121">
    <path d="M 49.589062 287.435967 
L 607.589062 287.435967 
" style="fill: none; stroke: #cccccc; stroke-width: 0.8; stroke-linejoin: miter; stroke-linecap: square"/>
   </g>
   <g id="patch_122">
    <path d="M 49.589062 10.235967 
L 607.589062 10.235967 
" style="fill: none; stroke: #cccccc; stroke-width: 0.8; stroke-linejoin: miter; stroke-linecap: square"/>
   </g>
  </g>
 </g>
 <defs>
  <clipPath id="pfac2272b18">
   <rect x="49.589063" y="10.235967" width="558" height="277.2"/>
  </clipPath>
 </defs>
</svg>
