<?xml version="1.0" encoding="utf-8" standalone="no"?>
<!DOCTYPE svg PUBLIC "-//W3C//DTD SVG 1.1//EN"
  "http://www.w3.org/Graphics/SVG/1.1/DTD/svg11.dtd">
<svg xmlns:xlink="http://www.w3.org/1999/xlink" width="712.876562pt" height="352.32225pt" viewBox="0 0 712.876562 352.32225" xmlns="http://www.w3.org/2000/svg" version="1.1">
 <metadata>
  <rdf:RDF xmlns:dc="http://purl.org/dc/elements/1.1/" xmlns:cc="http://creativecommons.org/ns#" xmlns:rdf="http://www.w3.org/1999/02/22-rdf-syntax-ns#">
   <cc:Work>
    <dc:type rdf:resource="http://purl.org/dc/dcmitype/StillImage"/>
    <dc:date>2024-01-26T23:36:14.930222</dc:date>
    <dc:format>image/svg+xml</dc:format>
    <dc:creator>
     <cc:Agent>
      <dc:title>Matplotlib v3.7.2, https://matplotlib.org/</dc:title>
     </cc:Agent>
    </dc:creator>
   </cc:Work>
  </rdf:RDF>
 </metadata>
 <defs>
  <style type="text/css">*{stroke-linejoin: round; stroke-linecap: butt}</style>
 </defs>
 <g id="figure_1">
  <g id="patch_1">
   <path d="M 0 352.32225 
L 712.876562 352.32225 
L 712.876562 0 
L 0 0 
z
" style="fill: #ffffff"/>
  </g>
  <g id="axes_1">
   <g id="patch_2">
    <path d="M 41.245313 315.831625 
L 705.676563 315.831625 
L 705.676563 34.481625 
L 41.245313 34.481625 
z
" style="fill: #ffffff"/>
   </g>
   <g id="matplotlib.axis_1">
    <g id="xtick_1">
     <g id="line2d_1">
      <path d="M 72.293502 315.831625 
L 72.293502 34.481625 
" clip-path="url(#p5054291432)" style="fill: none; stroke: #cccccc; stroke-width: 0.8; stroke-linecap: round"/>
     </g>
     <g id="text_1">
      <!-- 0.0 -->
      <g style="fill: #262626" transform="translate(65.343502 329.989437) scale(0.1 -0.1)">
       <defs>
        <path id="ArialMT-30" d="M 266 2259 
Q 266 3072 433 3567 
Q 600 4063 929 4331 
Q 1259 4600 1759 4600 
Q 2128 4600 2406 4451 
Q 2684 4303 2865 4023 
Q 3047 3744 3150 3342 
Q 3253 2941 3253 2259 
Q 3253 1453 3087 958 
Q 2922 463 2592 192 
Q 2263 -78 1759 -78 
Q 1097 -78 719 397 
Q 266 969 266 2259 
z
M 844 2259 
Q 844 1131 1108 757 
Q 1372 384 1759 384 
Q 2147 384 2411 759 
Q 2675 1134 2675 2259 
Q 2675 3391 2411 3762 
Q 2147 4134 1753 4134 
Q 1366 4134 1134 3806 
Q 844 3388 844 2259 
z
" transform="scale(0.015625)"/>
        <path id="ArialMT-2e" d="M 581 0 
L 581 641 
L 1222 641 
L 1222 0 
L 581 0 
z
" transform="scale(0.015625)"/>
       </defs>
       <use xlink:href="#ArialMT-30"/>
       <use xlink:href="#ArialMT-2e" x="55.615234"/>
       <use xlink:href="#ArialMT-30" x="83.398438"/>
      </g>
     </g>
    </g>
    <g id="xtick_2">
     <g id="line2d_2">
      <path d="M 196.486259 315.831625 
L 196.486259 34.481625 
" clip-path="url(#p5054291432)" style="fill: none; stroke: #cccccc; stroke-width: 0.8; stroke-linecap: round"/>
     </g>
     <g id="text_2">
      <!-- 0.2 -->
      <g style="fill: #262626" transform="translate(189.536259 329.989437) scale(0.1 -0.1)">
       <defs>
        <path id="ArialMT-32" d="M 3222 541 
L 3222 0 
L 194 0 
Q 188 203 259 391 
Q 375 700 629 1000 
Q 884 1300 1366 1694 
Q 2113 2306 2375 2664 
Q 2638 3022 2638 3341 
Q 2638 3675 2398 3904 
Q 2159 4134 1775 4134 
Q 1369 4134 1125 3890 
Q 881 3647 878 3216 
L 300 3275 
Q 359 3922 746 4261 
Q 1134 4600 1788 4600 
Q 2447 4600 2831 4234 
Q 3216 3869 3216 3328 
Q 3216 3053 3103 2787 
Q 2991 2522 2730 2228 
Q 2469 1934 1863 1422 
Q 1356 997 1212 845 
Q 1069 694 975 541 
L 3222 541 
z
" transform="scale(0.015625)"/>
       </defs>
       <use xlink:href="#ArialMT-30"/>
       <use xlink:href="#ArialMT-2e" x="55.615234"/>
       <use xlink:href="#ArialMT-32" x="83.398438"/>
      </g>
     </g>
    </g>
    <g id="xtick_3">
     <g id="line2d_3">
      <path d="M 320.679016 315.831625 
L 320.679016 34.481625 
" clip-path="url(#p5054291432)" style="fill: none; stroke: #cccccc; stroke-width: 0.8; stroke-linecap: round"/>
     </g>
     <g id="text_3">
      <!-- 0.4 -->
      <g style="fill: #262626" transform="translate(313.729016 329.989437) scale(0.1 -0.1)">
       <defs>
        <path id="ArialMT-34" d="M 2069 0 
L 2069 1097 
L 81 1097 
L 81 1613 
L 2172 4581 
L 2631 4581 
L 2631 1613 
L 3250 1613 
L 3250 1097 
L 2631 1097 
L 2631 0 
L 2069 0 
z
M 2069 1613 
L 2069 3678 
L 634 1613 
L 2069 1613 
z
" transform="scale(0.015625)"/>
       </defs>
       <use xlink:href="#ArialMT-30"/>
       <use xlink:href="#ArialMT-2e" x="55.615234"/>
       <use xlink:href="#ArialMT-34" x="83.398438"/>
      </g>
     </g>
    </g>
    <g id="xtick_4">
     <g id="line2d_4">
      <path d="M 444.871773 315.831625 
L 444.871773 34.481625 
" clip-path="url(#p5054291432)" style="fill: none; stroke: #cccccc; stroke-width: 0.8; stroke-linecap: round"/>
     </g>
     <g id="text_4">
      <!-- 0.6 -->
      <g style="fill: #262626" transform="translate(437.921773 329.989437) scale(0.1 -0.1)">
       <defs>
        <path id="ArialMT-36" d="M 3184 3459 
L 2625 3416 
Q 2550 3747 2413 3897 
Q 2184 4138 1850 4138 
Q 1581 4138 1378 3988 
Q 1113 3794 959 3422 
Q 806 3050 800 2363 
Q 1003 2672 1297 2822 
Q 1591 2972 1913 2972 
Q 2475 2972 2870 2558 
Q 3266 2144 3266 1488 
Q 3266 1056 3080 686 
Q 2894 316 2569 119 
Q 2244 -78 1831 -78 
Q 1128 -78 684 439 
Q 241 956 241 2144 
Q 241 3472 731 4075 
Q 1159 4600 1884 4600 
Q 2425 4600 2770 4297 
Q 3116 3994 3184 3459 
z
M 888 1484 
Q 888 1194 1011 928 
Q 1134 663 1356 523 
Q 1578 384 1822 384 
Q 2178 384 2434 671 
Q 2691 959 2691 1453 
Q 2691 1928 2437 2201 
Q 2184 2475 1800 2475 
Q 1419 2475 1153 2201 
Q 888 1928 888 1484 
z
" transform="scale(0.015625)"/>
       </defs>
       <use xlink:href="#ArialMT-30"/>
       <use xlink:href="#ArialMT-2e" x="55.615234"/>
       <use xlink:href="#ArialMT-36" x="83.398438"/>
      </g>
     </g>
    </g>
    <g id="xtick_5">
     <g id="line2d_5">
      <path d="M 569.06453 315.831625 
L 569.06453 34.481625 
" clip-path="url(#p5054291432)" style="fill: none; stroke: #cccccc; stroke-width: 0.8; stroke-linecap: round"/>
     </g>
     <g id="text_5">
      <!-- 0.8 -->
      <g style="fill: #262626" transform="translate(562.11453 329.989437) scale(0.1 -0.1)">
       <defs>
        <path id="ArialMT-38" d="M 1131 2484 
Q 781 2613 612 2850 
Q 444 3088 444 3419 
Q 444 3919 803 4259 
Q 1163 4600 1759 4600 
Q 2359 4600 2725 4251 
Q 3091 3903 3091 3403 
Q 3091 3084 2923 2848 
Q 2756 2613 2416 2484 
Q 2838 2347 3058 2040 
Q 3278 1734 3278 1309 
Q 3278 722 2862 322 
Q 2447 -78 1769 -78 
Q 1091 -78 675 323 
Q 259 725 259 1325 
Q 259 1772 486 2073 
Q 713 2375 1131 2484 
z
M 1019 3438 
Q 1019 3113 1228 2906 
Q 1438 2700 1772 2700 
Q 2097 2700 2305 2904 
Q 2513 3109 2513 3406 
Q 2513 3716 2298 3927 
Q 2084 4138 1766 4138 
Q 1444 4138 1231 3931 
Q 1019 3725 1019 3438 
z
M 838 1322 
Q 838 1081 952 856 
Q 1066 631 1291 507 
Q 1516 384 1775 384 
Q 2178 384 2440 643 
Q 2703 903 2703 1303 
Q 2703 1709 2433 1975 
Q 2163 2241 1756 2241 
Q 1359 2241 1098 1978 
Q 838 1716 838 1322 
z
" transform="scale(0.015625)"/>
       </defs>
       <use xlink:href="#ArialMT-30"/>
       <use xlink:href="#ArialMT-2e" x="55.615234"/>
       <use xlink:href="#ArialMT-38" x="83.398438"/>
      </g>
     </g>
    </g>
    <g id="xtick_6">
     <g id="line2d_6">
      <path d="M 693.257287 315.831625 
L 693.257287 34.481625 
" clip-path="url(#p5054291432)" style="fill: none; stroke: #cccccc; stroke-width: 0.8; stroke-linecap: round"/>
     </g>
     <g id="text_6">
      <!-- 1.0 -->
      <g style="fill: #262626" transform="translate(686.307287 329.989437) scale(0.1 -0.1)">
       <defs>
        <path id="ArialMT-31" d="M 2384 0 
L 1822 0 
L 1822 3584 
Q 1619 3391 1289 3197 
Q 959 3003 697 2906 
L 697 3450 
Q 1169 3672 1522 3987 
Q 1875 4303 2022 4600 
L 2384 4600 
L 2384 0 
z
" transform="scale(0.015625)"/>
       </defs>
       <use xlink:href="#ArialMT-31"/>
       <use xlink:href="#ArialMT-2e" x="55.615234"/>
       <use xlink:href="#ArialMT-30" x="83.398438"/>
      </g>
     </g>
    </g>
    <g id="text_7">
     <!-- $\alpha$ -->
     <g style="fill: #262626" transform="translate(370.160938 343.13475) scale(0.1 -0.1)">
      <defs>
       <path id="DejaVuSans-Oblique-3b1" d="M 2619 1628 
L 2622 2350 
Q 2625 3088 2069 3091 
Q 1653 3094 1394 2747 
Q 1069 2319 959 1747 
Q 825 1059 994 731 
Q 1169 397 1547 397 
Q 1966 397 2319 1063 
L 2619 1628 
z
M 2166 3578 
Q 3141 3594 3128 2584 
Q 3128 2584 3616 3500 
L 4128 3500 
L 3119 1603 
L 3109 919 
Q 3109 766 3194 638 
Q 3291 488 3391 488 
L 3669 488 
L 3575 0 
L 3228 0 
Q 2934 0 2722 263 
Q 2622 394 2619 669 
Q 2416 334 2066 50 
Q 1900 -81 1453 -78 
Q 722 -72 456 397 
Q 184 884 353 1747 
Q 534 2675 1009 3097 
Q 1544 3569 2166 3578 
z
" transform="scale(0.015625)"/>
      </defs>
      <use xlink:href="#DejaVuSans-Oblique-3b1" transform="translate(0 0.84375)"/>
     </g>
    </g>
   </g>
   <g id="matplotlib.axis_2">
    <g id="ytick_1">
     <g id="line2d_7">
      <path d="M 41.245313 310.421048 
L 705.676563 310.421048 
" clip-path="url(#p5054291432)" style="fill: none; stroke: #cccccc; stroke-width: 0.8; stroke-linecap: round"/>
     </g>
     <g id="text_8">
      <!-- 0.0 -->
      <g style="fill: #262626" transform="translate(20.345313 313.999954) scale(0.1 -0.1)">
       <use xlink:href="#ArialMT-30"/>
       <use xlink:href="#ArialMT-2e" x="55.615234"/>
       <use xlink:href="#ArialMT-30" x="83.398438"/>
      </g>
     </g>
    </g>
    <g id="ytick_2">
     <g id="line2d_8">
      <path d="M 41.245313 256.315279 
L 705.676563 256.315279 
" clip-path="url(#p5054291432)" style="fill: none; stroke: #cccccc; stroke-width: 0.8; stroke-linecap: round"/>
     </g>
     <g id="text_9">
      <!-- 0.2 -->
      <g style="fill: #262626" transform="translate(20.345313 259.894185) scale(0.1 -0.1)">
       <use xlink:href="#ArialMT-30"/>
       <use xlink:href="#ArialMT-2e" x="55.615234"/>
       <use xlink:href="#ArialMT-32" x="83.398438"/>
      </g>
     </g>
    </g>
    <g id="ytick_3">
     <g id="line2d_9">
      <path d="M 41.245313 202.20951 
L 705.676563 202.20951 
" clip-path="url(#p5054291432)" style="fill: none; stroke: #cccccc; stroke-width: 0.8; stroke-linecap: round"/>
     </g>
     <g id="text_10">
      <!-- 0.4 -->
      <g style="fill: #262626" transform="translate(20.345313 205.788416) scale(0.1 -0.1)">
       <use xlink:href="#ArialMT-30"/>
       <use xlink:href="#ArialMT-2e" x="55.615234"/>
       <use xlink:href="#ArialMT-34" x="83.398438"/>
      </g>
     </g>
    </g>
    <g id="ytick_4">
     <g id="line2d_10">
      <path d="M 41.245313 148.10374 
L 705.676563 148.10374 
" clip-path="url(#p5054291432)" style="fill: none; stroke: #cccccc; stroke-width: 0.8; stroke-linecap: round"/>
     </g>
     <g id="text_11">
      <!-- 0.6 -->
      <g style="fill: #262626" transform="translate(20.345313 151.682647) scale(0.1 -0.1)">
       <use xlink:href="#ArialMT-30"/>
       <use xlink:href="#ArialMT-2e" x="55.615234"/>
       <use xlink:href="#ArialMT-36" x="83.398438"/>
      </g>
     </g>
    </g>
    <g id="ytick_5">
     <g id="line2d_11">
      <path d="M 41.245313 93.997971 
L 705.676563 93.997971 
" clip-path="url(#p5054291432)" style="fill: none; stroke: #cccccc; stroke-width: 0.8; stroke-linecap: round"/>
     </g>
     <g id="text_12">
      <!-- 0.8 -->
      <g style="fill: #262626" transform="translate(20.345313 97.576877) scale(0.1 -0.1)">
       <use xlink:href="#ArialMT-30"/>
       <use xlink:href="#ArialMT-2e" x="55.615234"/>
       <use xlink:href="#ArialMT-38" x="83.398438"/>
      </g>
     </g>
    </g>
    <g id="ytick_6">
     <g id="line2d_12">
      <path d="M 41.245313 39.892202 
L 705.676563 39.892202 
" clip-path="url(#p5054291432)" style="fill: none; stroke: #cccccc; stroke-width: 0.8; stroke-linecap: round"/>
     </g>
     <g id="text_13">
      <!-- 1.0 -->
      <g style="fill: #262626" transform="translate(20.345313 43.471108) scale(0.1 -0.1)">
       <use xlink:href="#ArialMT-31"/>
       <use xlink:href="#ArialMT-2e" x="55.615234"/>
       <use xlink:href="#ArialMT-30" x="83.398438"/>
      </g>
     </g>
    </g>
    <g id="text_14">
     <!-- Мощность -->
     <g style="fill: #262626" transform="translate(14.357813 199.208187) rotate(-90) scale(0.1 -0.1)">
      <defs>
       <path id="ArialMT-41c" d="M 475 0 
L 475 4581 
L 1388 4581 
L 2472 1338 
Q 2622 884 2691 659 
Q 2769 909 2934 1394 
L 4031 4581 
L 4847 4581 
L 4847 0 
L 4263 0 
L 4263 3834 
L 2931 0 
L 2384 0 
L 1059 3900 
L 1059 0 
L 475 0 
z
" transform="scale(0.015625)"/>
       <path id="ArialMT-43e" d="M 213 1659 
Q 213 2581 725 3025 
Q 1153 3394 1769 3394 
Q 2453 3394 2887 2945 
Q 3322 2497 3322 1706 
Q 3322 1066 3130 698 
Q 2938 331 2570 128 
Q 2203 -75 1769 -75 
Q 1072 -75 642 372 
Q 213 819 213 1659 
z
M 791 1659 
Q 791 1022 1069 705 
Q 1347 388 1769 388 
Q 2188 388 2466 706 
Q 2744 1025 2744 1678 
Q 2744 2294 2464 2611 
Q 2184 2928 1769 2928 
Q 1347 2928 1069 2612 
Q 791 2297 791 1659 
z
" transform="scale(0.015625)"/>
       <path id="ArialMT-449" d="M 441 3319 
L 1003 3319 
L 1003 463 
L 2284 463 
L 2284 3319 
L 2847 3319 
L 2847 463 
L 4131 463 
L 4131 3319 
L 4691 3319 
L 4691 463 
L 5063 463 
L 5063 -941 
L 4597 -941 
L 4597 0 
L 441 0 
L 441 3319 
z
" transform="scale(0.015625)"/>
       <path id="ArialMT-43d" d="M 425 3319 
L 988 3319 
L 988 1938 
L 2547 1938 
L 2547 3319 
L 3109 3319 
L 3109 0 
L 2547 0 
L 2547 1472 
L 988 1472 
L 988 0 
L 425 0 
L 425 3319 
z
" transform="scale(0.015625)"/>
       <path id="ArialMT-441" d="M 2588 1216 
L 3141 1144 
Q 3050 572 2676 248 
Q 2303 -75 1759 -75 
Q 1078 -75 664 370 
Q 250 816 250 1647 
Q 250 2184 428 2587 
Q 606 2991 970 3192 
Q 1334 3394 1763 3394 
Q 2303 3394 2647 3120 
Q 2991 2847 3088 2344 
L 2541 2259 
Q 2463 2594 2264 2762 
Q 2066 2931 1784 2931 
Q 1359 2931 1093 2626 
Q 828 2322 828 1663 
Q 828 994 1084 691 
Q 1341 388 1753 388 
Q 2084 388 2306 591 
Q 2528 794 2588 1216 
z
" transform="scale(0.015625)"/>
       <path id="ArialMT-442" d="M 119 3319 
L 2816 3319 
L 2816 2853 
L 1747 2853 
L 1747 0 
L 1188 0 
L 1188 2853 
L 119 2853 
L 119 3319 
z
" transform="scale(0.015625)"/>
       <path id="ArialMT-44c" d="M 413 3319 
L 975 3319 
L 975 2022 
L 1688 2022 
Q 2384 2022 2761 1751 
Q 3138 1481 3138 1006 
Q 3138 591 2823 295 
Q 2509 0 1819 0 
L 413 0 
L 413 3319 
z
M 975 463 
L 1566 463 
Q 2100 463 2328 594 
Q 2556 725 2556 1003 
Q 2556 1219 2387 1387 
Q 2219 1556 1641 1556 
L 975 1556 
L 975 463 
z
" transform="scale(0.015625)"/>
      </defs>
      <use xlink:href="#ArialMT-41c"/>
      <use xlink:href="#ArialMT-43e" x="84.425781"/>
      <use xlink:href="#ArialMT-449" x="140.041016"/>
      <use xlink:href="#ArialMT-43d" x="222.316406"/>
      <use xlink:href="#ArialMT-43e" x="277.541016"/>
      <use xlink:href="#ArialMT-441" x="333.15625"/>
      <use xlink:href="#ArialMT-442" x="383.15625"/>
      <use xlink:href="#ArialMT-44c" x="428.957031"/>
     </g>
    </g>
   </g>
   <g id="line2d_13">
    <path d="M 72.354538 310.393995 
L 72.75797 310.177572 
L 73.246919 309.961149 
L 73.674312 309.825885 
L 73.750924 309.771779 
L 74.259674 309.609462 
L 74.491204 309.474197 
L 74.746309 309.338933 
L 75.075457 309.176615 
L 76.962769 308.662611 
L 77.212589 308.527346 
L 77.800714 308.28387 
L 78.269387 308.067447 
L 79.273675 307.769865 
L 79.669691 307.526389 
L 81.144443 306.87712 
L 81.562958 306.68775 
L 81.759281 306.579538 
L 82.708729 306.119639 
L 82.98924 305.930269 
L 83.444723 305.767952 
L 85.343913 305.064577 
L 85.401536 305.010471 
L 85.899177 304.821101 
L 86.049172 304.712889 
L 86.456375 304.496466 
L 86.579377 304.361202 
L 87.24085 304.198885 
L 87.761082 303.766038 
L 88.26687 303.576668 
L 88.453856 303.441404 
L 89.32416 303.062663 
L 89.41724 302.954452 
L 90.392446 302.683923 
L 90.97061 302.305183 
L 91.590393 302.115812 
L 91.665645 302.034654 
L 93.016281 301.25012 
L 93.737926 300.844327 
L 94.538731 300.600851 
L 94.581465 300.546745 
L 94.897601 300.384428 
L 94.998429 300.330322 
L 95.784241 300.168005 
L 95.94594 300.113899 
L 97.114117 299.789264 
L 97.194997 299.735159 
L 97.899513 299.437577 
L 98.908797 299.248207 
L 99.005718 299.058837 
L 99.625956 298.761255 
L 100.066754 298.62599 
L 100.173888 298.490726 
L 100.591932 298.301356 
L 101.045508 297.976721 
L 101.385091 297.814404 
L 101.420973 297.760298 
L 102.834864 297.408611 
L 102.928829 297.300399 
L 103.456188 297.02987 
L 103.610371 296.948712 
L 107.730615 295.43375 
L 108.378958 295.271433 
L 108.414449 295.217327 
L 109.527915 294.973851 
L 112.59588 293.864683 
L 112.696072 293.810577 
L 113.025833 293.621207 
L 113.162391 293.567101 
L 113.517288 293.242466 
L 113.900666 293.080149 
L 115.297562 292.647303 
L 115.42404 292.593197 
L 115.939048 292.403827 
L 116.903206 291.943928 
L 117.36492 291.700452 
L 117.527601 291.59224 
L 118.412583 291.348764 
L 121.803756 289.482115 
L 122.500511 289.238639 
L 123.706993 288.535264 
L 124.712414 288.237683 
L 125.26241 287.831889 
L 125.767377 287.642519 
L 126.835344 287.209673 
L 126.900318 287.155567 
L 127.666313 286.939144 
L 127.926035 286.80388 
L 128.560094 286.533351 
L 128.795226 286.425139 
L 129.302309 286.208716 
L 129.307767 286.181663 
L 130.341986 285.857029 
L 130.563677 285.667659 
L 130.799891 285.5865 
L 131.258901 285.451236 
L 132.132551 285.072495 
L 132.530686 284.856072 
L 132.638507 284.747861 
L 133.931077 284.071538 
L 134.979544 283.882168 
L 135.277178 283.638692 
L 136.187657 283.287005 
L 137.182449 282.908264 
L 137.646385 282.664788 
L 137.716988 282.610683 
L 138.161582 282.39426 
L 138.382445 282.258995 
L 138.899945 282.096678 
L 143.196443 280.554663 
L 143.674147 280.392346 
L 144.423868 280.230029 
L 144.5032 280.14887 
L 145.041685 279.932447 
L 145.178496 279.824236 
L 146.045877 279.472548 
L 147.008778 279.012649 
L 147.687247 278.823279 
L 148.010756 278.660962 
L 149.089738 278.17401 
L 149.181831 278.065798 
L 149.34341 278.011692 
L 150.004439 277.876428 
L 150.133763 277.741163 
L 150.536699 277.52474 
L 150.746803 277.389476 
L 151.440869 277.091894 
L 151.953862 276.929577 
L 152.185234 276.76726 
L 152.829614 276.577889 
L 153.023285 276.469678 
L 153.967934 276.307361 
L 154.159249 276.063885 
L 154.912981 275.793356 
L 155.092395 275.73925 
L 155.883626 275.387562 
L 156.125812 275.333457 
L 156.466409 275.171139 
L 158.959543 274.14313 
L 158.967168 274.116077 
L 159.809632 273.845548 
L 160.452831 273.493861 
L 160.532588 273.385649 
L 163.543619 271.870687 
L 164.063941 271.573106 
L 164.632239 271.32963 
L 164.745327 271.275524 
L 164.8382 271.167312 
L 165.379332 271.032048 
L 166.29711 270.518043 
L 166.86823 270.355726 
L 167.865359 269.841721 
L 167.907947 269.814668 
L 168.560878 269.652351 
L 169.53558 269.219505 
L 169.923845 269.003082 
L 170.806132 268.678447 
L 171.722982 268.407918 
L 171.781125 268.299707 
L 172.373793 268.083284 
L 172.823666 267.812755 
L 173.773287 267.434014 
L 174.272169 267.29875 
L 174.374489 267.217591 
L 175.23955 266.892957 
L 175.562913 266.730639 
L 175.770617 266.541269 
L 176.121454 266.406005 
L 176.508005 266.243687 
L 176.696878 266.162529 
L 177.712041 265.864947 
L 177.843964 265.729683 
L 178.736032 265.269784 
L 178.775317 265.242731 
L 179.396493 265.080413 
L 182.051018 263.835981 
L 182.484918 263.673663 
L 182.492259 263.646611 
L 183.174853 263.403135 
L 184.318698 262.807971 
L 184.433931 262.753865 
L 184.91644 262.618601 
L 185.541933 262.429231 
L 185.57133 262.402178 
L 186.07982 262.239861 
L 186.083449 262.212808 
L 186.618831 262.05049 
L 186.992954 261.915226 
L 187.803468 261.725856 
L 188.04576 261.617644 
L 189.324633 261.265957 
L 189.529943 261.076587 
L 190.297204 260.914269 
L 192.669455 259.778048 
L 193.309924 259.588678 
L 194.732934 258.939409 
L 194.816706 258.85825 
L 195.037369 258.641827 
L 195.19499 258.587721 
L 197.44138 257.965505 
L 197.753021 257.694976 
L 198.851756 257.4515 
L 199.121265 257.316236 
L 199.758868 256.991601 
L 199.860212 256.856337 
L 200.287841 256.666966 
L 200.417169 256.477596 
L 200.585559 256.396437 
L 201.501205 256.071803 
L 201.903493 255.909486 
L 202.60252 255.720115 
L 202.793091 255.611904 
L 205.003841 254.82737 
L 205.709499 254.394524 
L 206.4767 254.178101 
L 207.338287 253.718202 
L 208.032219 253.528832 
L 208.577447 253.23125 
L 208.66875 253.123038 
L 209.375817 252.771351 
L 210.134375 252.636087 
L 210.300849 252.419663 
L 210.923738 252.257346 
L 211.114568 252.040923 
L 211.63999 251.743341 
L 213.056073 251.229337 
L 213.139888 251.175231 
L 213.727339 250.931755 
L 213.828585 250.823543 
L 214.088506 250.634173 
L 214.20629 250.553014 
L 214.937661 250.390697 
L 215.886528 249.984904 
L 216.171919 249.876692 
L 216.524394 249.687322 
L 216.86675 249.497952 
L 217.318698 249.335635 
L 217.41262 249.281529 
L 218.020871 249.092159 
L 218.103786 249.038053 
L 218.617886 248.875736 
L 218.821973 248.605207 
L 219.679633 248.334678 
L 222.408391 247.090245 
L 222.988157 246.954981 
L 222.994021 246.927928 
L 223.687049 246.792663 
L 223.771621 246.711505 
L 225.682729 246.251606 
L 226.701131 245.764654 
L 227.440357 245.304755 
L 227.703725 245.16949 
L 228.248781 244.871909 
L 228.266392 244.844856 
L 228.719655 244.709591 
L 229.663638 244.384957 
L 230.011685 244.222639 
L 230.420934 244.033269 
L 230.565111 243.952111 
L 231.147527 243.546317 
L 231.408999 243.384 
L 231.796015 243.248736 
L 232.809115 242.788837 
L 233.872769 242.518308 
L 233.934686 242.410096 
L 235.633654 242.085462 
L 235.765846 242.031356 
L 236.378228 241.814933 
L 236.481737 241.679668 
L 237.24274 241.436192 
L 237.348471 241.382087 
L 238.831553 240.678712 
L 239.016887 240.516394 
L 239.70678 240.299971 
L 239.778516 240.218812 
L 240.371772 240.029442 
L 240.475557 239.894178 
L 240.823823 239.785966 
L 241.420853 239.623649 
L 241.428124 239.569543 
L 242.13391 239.380173 
L 242.320557 239.299014 
L 243.588139 238.920274 
L 243.608856 238.812062 
L 244.17718 238.649745 
L 244.182931 238.622692 
L 244.476422 238.487428 
L 244.618918 238.379216 
L 246.10042 237.486471 
L 246.800408 237.215942 
L 246.869097 237.134784 
L 247.983831 236.756043 
L 248.013776 236.701937 
L 248.472095 236.512567 
L 249.147577 236.187933 
L 249.87221 235.998562 
L 250.882141 235.268135 
L 251.143458 235.024659 
L 251.967161 234.835288 
L 252.37532 234.618865 
L 254.531945 233.509697 
L 255.306251 233.266221 
L 255.309329 233.239168 
L 256.087189 233.049798 
L 256.195649 232.995692 
L 256.587811 232.752216 
L 257.507636 232.400529 
L 258.017818 232.238212 
L 258.198759 232.102947 
L 259.69339 231.615995 
L 259.91128 231.534837 
L 260.244731 231.399572 
L 260.482689 231.291361 
L 263.179296 230.073981 
L 263.753903 229.830505 
L 263.890187 229.749346 
L 264.652469 229.559976 
L 265.131471 229.208288 
L 266.209555 228.694284 
L 267.6041 228.045014 
L 267.811219 227.963856 
L 268.074341 227.747433 
L 268.516704 227.53101 
L 269.466837 227.152269 
L 270.382235 226.800582 
L 270.769635 226.611212 
L 270.771713 226.584159 
L 271.24125 226.421841 
L 272.344315 225.880784 
L 272.789826 225.745519 
L 273.565972 225.366779 
L 273.568541 225.339726 
L 273.955852 225.150356 
L 274.090469 225.042144 
L 274.288649 224.90688 
L 274.35087 224.852774 
L 275.920285 224.230558 
L 276.297393 224.095293 
L 277.824188 223.256654 
L 278.348328 223.067284 
L 278.484252 222.932019 
L 279.27495 222.769702 
L 279.870024 222.526226 
L 280.505359 222.363909 
L 280.914545 221.958115 
L 282.40022 221.25474 
L 282.638083 221.146529 
L 283.055507 220.957159 
L 283.181593 220.876 
L 283.492074 220.740736 
L 283.654059 220.578418 
L 284.182864 220.334942 
L 284.292696 220.253784 
L 285.369958 219.929149 
L 287.955504 219.009351 
L 288.64927 218.874087 
L 288.729798 218.765875 
L 289.070028 218.576505 
L 289.562106 218.360082 
L 290.128494 218.170712 
L 290.534159 217.954288 
L 290.611784 217.819024 
L 291.149853 217.629654 
L 291.279638 217.521442 
L 292.135915 217.223861 
L 292.188646 217.196808 
L 292.567675 217.061543 
L 293.845407 216.439327 
L 293.951942 216.331115 
L 294.222251 216.195851 
L 294.714868 216.006481 
L 294.760977 215.952375 
L 295.223243 215.763005 
L 295.625826 215.654793 
L 296.177127 215.492476 
L 299.063757 214.22099 
L 299.375761 214.03162 
L 299.92211 213.84225 
L 301.286593 213.192981 
L 301.978413 212.976558 
L 302.935286 212.570764 
L 302.950689 212.516659 
L 303.8224 212.300236 
L 303.919265 212.24613 
L 304.204403 212.083812 
L 305.803216 211.515702 
L 305.976737 211.434543 
L 306.714549 211.001697 
L 306.771867 210.947591 
L 307.821795 210.541798 
L 307.987521 210.379481 
L 308.789087 210.108952 
L 308.79028 210.081899 
L 309.385172 209.865476 
L 309.508189 209.784317 
L 310.256973 209.459683 
L 310.893549 209.297365 
L 311.050678 209.135048 
L 311.805094 208.945678 
L 313.238121 208.458726 
L 313.445423 208.296409 
L 314.024965 208.161144 
L 315.28162 207.701245 
L 315.471458 207.647139 
L 315.712032 207.484822 
L 315.766589 207.430716 
L 316.398974 207.160187 
L 316.432224 207.106082 
L 316.893659 206.943764 
L 317.261778 206.727341 
L 317.58768 206.61913 
L 318.162886 206.42976 
L 319.836102 205.915755 
L 319.929514 205.78049 
L 320.315454 205.564067 
L 320.425449 205.455856 
L 320.951401 205.293538 
L 321.175284 205.158274 
L 321.600124 204.968904 
L 321.772908 204.887745 
L 322.568028 204.617216 
L 322.623939 204.563111 
L 322.969265 204.400793 
L 323.136105 204.319635 
L 325.111957 203.778577 
L 325.134962 203.724471 
L 325.590993 203.562154 
L 327.090659 203.021096 
L 327.595478 202.858779 
L 327.88922 202.642356 
L 328.7795 202.182457 
L 329.252696 201.938981 
L 329.718382 201.803716 
L 330.053789 201.614346 
L 330.654823 201.127394 
L 331.215513 200.965077 
L 331.618643 200.80276 
L 331.742639 200.748654 
L 332.67656 200.369913 
L 332.853655 200.288755 
L 333.106637 200.099385 
L 333.704324 199.855909 
L 333.807957 199.801803 
L 334.282373 199.58538 
L 334.388825 199.504221 
L 334.520379 199.423062 
L 334.961352 199.287798 
L 335.475766 199.071375 
L 335.917272 198.936111 
L 336.220057 198.773793 
L 336.490574 198.584423 
L 336.655152 198.449159 
L 337.786088 198.016312 
L 338.295008 197.799889 
L 339.150052 197.502308 
L 339.911676 197.15062 
L 340.428085 196.96125 
L 340.555432 196.853038 
L 340.903701 196.663668 
L 342.192809 196.203769 
L 342.296956 196.068505 
L 343.153167 195.662712 
L 344.039204 195.202812 
L 344.565288 194.851125 
L 345.071764 194.688808 
L 346.19844 194.120697 
L 346.27725 194.066591 
L 347.530047 193.606692 
L 348.13359 193.417322 
L 348.591402 193.255005 
L 348.865983 193.065635 
L 349.180717 192.876264 
L 349.228761 192.822159 
L 350.071027 192.389312 
L 350.346588 192.091731 
L 350.401564 192.037625 
L 351.36499 191.740043 
L 351.638588 191.658885 
L 352.174879 191.496567 
L 352.777338 191.280144 
L 353.011796 191.14488 
L 353.281721 191.009615 
L 353.557979 190.820245 
L 354.141284 190.684981 
L 354.544782 190.495611 
L 355.427325 190.252135 
L 356.173773 189.873394 
L 357.268181 189.305284 
L 358.87886 188.52075 
L 359.086712 188.385486 
L 359.182125 188.304327 
L 360.440475 187.817375 
L 360.44983 187.790322 
L 361.537419 187.465687 
L 361.646894 187.411582 
L 362.259133 187.276317 
L 362.619589 187.114 
L 363.623714 186.870524 
L 363.63858 186.843471 
L 363.994934 186.708207 
L 366.277616 185.788409 
L 366.369007 185.680197 
L 366.773109 185.51788 
L 367.006048 185.301457 
L 367.755212 184.949769 
L 368.229786 184.706293 
L 370.841167 183.488913 
L 371.301783 183.218385 
L 371.77181 183.001962 
L 372.084172 182.839644 
L 372.435904 182.70438 
L 373.135246 182.487957 
L 373.469436 182.325639 
L 374.113825 181.973952 
L 374.622697 181.730476 
L 374.638398 181.67637 
L 375.579915 181.541106 
L 375.962422 181.351736 
L 376.159594 181.243524 
L 376.68497 181.027101 
L 378.846097 179.809721 
L 379.466728 179.647404 
L 380.393725 179.241611 
L 381.552483 178.889923 
L 382.647054 178.348865 
L 382.730564 178.213601 
L 383.17871 178.024231 
L 384.516716 177.429067 
L 384.955752 177.293803 
L 386.354721 176.833904 
L 386.500167 176.779798 
L 387.531337 176.374005 
L 387.534244 176.346952 
L 387.848809 176.184635 
L 387.950039 176.076423 
L 388.642603 175.86 
L 388.837081 175.751788 
L 389.316176 175.616524 
L 389.471529 175.400101 
L 390.526009 174.913149 
L 390.560866 174.886096 
L 391.325387 174.696726 
L 393.827388 173.506399 
L 394.290545 173.317029 
L 396.447718 172.397231 
L 397.087229 172.180808 
L 397.387345 172.045543 
L 397.660585 171.883226 
L 397.663884 171.856173 
L 398.269995 171.612697 
L 398.35891 171.531538 
L 398.936474 171.342168 
L 399.133583 171.206904 
L 399.388268 171.125745 
L 399.776565 170.963428 
L 399.861061 170.855216 
L 400.349054 170.557635 
L 400.756472 170.395317 
L 402.415419 169.881312 
L 403.231959 169.691942 
L 403.421104 169.556678 
L 403.738048 169.448466 
L 404.120496 169.286149 
L 404.217229 169.232043 
L 404.773349 169.069726 
L 404.798688 169.042673 
L 405.343306 168.907409 
L 405.436039 168.799197 
L 406.727018 168.366351 
L 406.843364 168.285192 
L 407.274962 168.041716 
L 407.521149 167.906452 
L 408.271594 167.60887 
L 408.516481 167.338341 
L 408.625685 167.284236 
L 408.916873 167.148971 
L 409.037621 167.04076 
L 409.291249 166.851389 
L 409.950793 166.662019 
L 410.357966 166.472649 
L 411.375742 166.175067 
L 411.66285 165.904538 
L 411.663332 165.877486 
L 412.183929 165.688115 
L 412.900424 165.336428 
L 413.035506 165.282322 
L 413.820244 165.065899 
L 414.094652 164.822423 
L 414.869809 164.606 
L 415.309436 164.389577 
L 416.120038 163.983784 
L 416.963827 163.821466 
L 417.39374 163.605043 
L 417.893697 163.361567 
L 417.904017 163.334514 
L 419.019914 163.00988 
L 419.028554 162.982827 
L 419.657122 162.847562 
L 419.817718 162.766404 
L 420.495978 162.549981 
L 420.842195 162.252399 
L 424.803572 160.629226 
L 424.813658 160.602173 
L 425.178209 160.439856 
L 425.286265 160.358697 
L 426.556773 159.763534 
L 428.133084 159.303635 
L 429.197365 158.816683 
L 429.375251 158.654365 
L 429.70682 158.464995 
L 430.313569 158.086255 
L 430.442806 158.005096 
L 430.713775 157.842779 
L 430.898725 157.76162 
L 431.320493 157.599303 
L 431.555988 157.436986 
L 431.698884 157.38288 
L 432.59898 157.166457 
L 435.127454 156.084341 
L 435.796034 155.922024 
L 436.227496 155.705601 
L 436.549194 155.489178 
L 436.83156 155.326861 
L 437.140771 155.245702 
L 437.662485 155.083385 
L 437.671581 155.056332 
L 437.955796 154.894014 
L 440.165007 153.73074 
L 440.476885 153.54137 
L 441.025904 153.352 
L 441.452617 153.189683 
L 442.386549 152.810942 
L 443.478964 152.540413 
L 443.571417 152.486308 
L 443.745289 152.405149 
L 444.264726 152.242832 
L 444.45896 152.026409 
L 446.225152 151.295981 
L 447.81121 150.186812 
L 448.67296 149.835125 
L 448.861762 149.753966 
L 449.32589 149.564596 
L 449.78744 149.32112 
L 450.895862 148.969433 
L 451.000608 148.861221 
L 451.339122 148.644798 
L 451.346479 148.617745 
L 452.288196 148.320163 
L 452.379571 148.211952 
L 453.301388 147.833212 
L 453.791981 147.589736 
L 454.276518 147.454471 
L 454.440851 147.238048 
L 454.760682 146.967519 
L 454.85883 146.886361 
L 455.201553 146.724043 
L 455.326681 146.588779 
L 456.269646 146.291197 
L 456.657147 145.993615 
L 457.277869 145.777192 
L 457.99009 145.479611 
L 459.14575 145.046764 
L 459.522424 144.884447 
L 460.207653 144.316337 
L 460.250019 144.262231 
L 461.010849 144.045808 
L 462.031808 143.585909 
L 462.081544 143.450644 
L 462.403182 143.207168 
L 462.429647 143.180115 
L 463.352753 142.936639 
L 463.364758 142.909587 
L 464.026142 142.693163 
L 464.238345 142.530846 
L 465.555837 142.314423 
L 465.737034 142.070947 
L 466.777493 141.854524 
L 467.105923 141.665154 
L 467.360743 141.583995 
L 467.632692 141.394625 
L 467.697227 141.286413 
L 468.14221 141.124096 
L 468.146717 141.097043 
L 468.464919 140.961779 
L 468.674579 140.799462 
L 469.168682 140.420721 
L 469.388805 140.258404 
L 469.77978 139.960822 
L 469.866171 139.852611 
L 470.899145 139.500923 
L 470.924107 139.446817 
L 471.3147 139.2845 
L 471.408093 139.149236 
L 471.749309 138.986918 
L 472.467994 138.770495 
L 472.487468 138.743442 
L 473.194195 138.554072 
L 476.49551 137.471957 
L 476.891424 137.228481 
L 477.217285 137.093216 
L 478.88546 136.443947 
L 479.023009 136.308683 
L 479.867157 135.956995 
L 480.504606 135.740572 
L 480.797412 135.605308 
L 481.299956 135.415937 
L 481.419183 135.334779 
L 481.945017 135.199514 
L 482.201723 135.010144 
L 482.777859 134.847827 
L 482.877044 134.739615 
L 487.008063 133.089389 
L 487.211172 132.954125 
L 488.10602 132.602437 
L 488.418112 132.44012 
L 488.845523 132.25075 
L 489.018197 132.088433 
L 489.398228 131.926115 
L 489.506121 131.87201 
L 489.981093 131.682639 
L 490.47506 131.439163 
L 490.665937 131.249793 
L 490.694145 131.141582 
L 491.170881 130.952212 
L 491.323621 130.789894 
L 491.645905 130.708736 
L 492.195001 130.492312 
L 492.37757 130.384101 
L 493.090748 130.140625 
L 493.505993 129.843043 
L 493.665815 129.599567 
L 494.245101 129.356091 
L 494.608917 129.193774 
L 495.092427 129.031457 
L 495.64985 128.869139 
L 496.370566 128.463346 
L 496.499832 128.355135 
L 496.972155 128.138712 
L 497.052511 128.084606 
L 497.48228 127.949341 
L 497.729001 127.787024 
L 497.744998 127.759971 
L 498.369696 127.570601 
L 498.628148 127.381231 
L 498.989666 127.245966 
L 499.216152 127.110702 
L 499.602257 126.894279 
L 500.012584 126.704909 
L 500.172115 126.596697 
L 500.410938 126.43438 
L 500.540039 126.380274 
L 500.868498 126.109745 
L 501.399972 125.920375 
L 502.468941 125.514582 
L 502.856441 125.352264 
L 503.962248 124.865312 
L 504.257514 124.730048 
L 504.590594 124.621837 
L 505.206891 124.432466 
L 505.22591 124.351308 
L 505.597905 124.18899 
L 505.697539 124.080779 
L 505.856314 123.945514 
L 505.967041 123.837303 
L 507.226677 123.377404 
L 507.266935 123.323298 
L 507.490939 123.188034 
L 509.021996 122.457606 
L 509.431886 122.268236 
L 509.578872 122.105918 
L 512.91925 120.726221 
L 513.173696 120.61801 
L 513.760081 120.428639 
L 513.78293 120.374534 
L 514.677784 120.131058 
L 516.414612 119.373577 
L 516.41577 119.346524 
L 517.281501 119.075995 
L 517.370132 118.967784 
L 517.939646 118.778413 
L 518.042676 118.697255 
L 518.820313 118.453779 
L 519.223739 118.237356 
L 520.952958 117.344611 
L 521.762365 117.128187 
L 522.202288 116.938817 
L 522.92579 116.614183 
L 523.761174 116.424812 
L 523.798721 116.370707 
L 524.285536 116.208389 
L 525.50958 115.55912 
L 525.636147 115.477962 
L 526.061761 115.261538 
L 526.725641 114.855745 
L 527.494141 114.666375 
L 527.495342 114.639322 
L 527.952859 114.504058 
L 528.659852 114.179423 
L 529.842569 113.58426 
L 530.313023 113.340784 
L 530.357829 113.286678 
L 531.19004 112.989096 
L 533.299775 111.961087 
L 533.503153 111.798769 
L 534.549258 111.1495 
L 535.052331 110.987183 
L 535.699612 110.581389 
L 536.585258 110.202649 
L 539.266877 108.877058 
L 540.466444 108.741793 
L 540.582406 108.633582 
L 541.113233 108.308947 
L 541.185043 108.254841 
L 542.130527 108.038418 
L 542.80352 107.740837 
L 542.839635 107.659678 
L 543.262832 107.524413 
L 543.279475 107.497361 
L 543.893757 107.280937 
L 544.837873 106.92925 
L 546.338599 106.171769 
L 546.681909 106.009452 
L 546.79142 105.928293 
L 547.612083 105.657764 
L 547.623158 105.630712 
L 548.249508 105.414288 
L 548.357177 105.33313 
L 548.611164 105.170812 
L 548.677796 105.062601 
L 549.675301 104.710913 
L 549.827324 104.629755 
L 550.451624 104.440385 
L 550.563143 104.386279 
L 551.412981 104.034591 
L 551.544037 103.92638 
L 552.302857 103.655851 
L 552.688753 103.331216 
L 553.055897 103.168899 
L 553.181665 103.060687 
L 553.455758 102.89837 
L 553.904897 102.736053 
L 554.270377 102.546683 
L 555.466448 101.870361 
L 555.470218 101.843308 
L 555.922368 101.653937 
L 556.408797 101.356356 
L 556.846621 101.004668 
L 557.405578 100.842351 
L 560.814813 99.733183 
L 560.817577 99.70613 
L 561.924887 99.354442 
L 562.543841 99.002755 
L 563.240222 98.813385 
L 563.419555 98.732226 
L 564.345544 98.407591 
L 565.01485 98.055904 
L 565.599237 97.812428 
L 565.712807 97.677163 
L 569.109466 95.86462 
L 569.851753 95.377668 
L 571.011763 94.998928 
L 571.827955 94.620187 
L 572.378916 94.484923 
L 573.255331 94.187341 
L 573.482931 94.052077 
L 573.751406 93.916812 
L 573.85492 93.808601 
L 574.212892 93.646284 
L 574.735186 93.429861 
L 575.42441 93.159332 
L 576.013474 92.915856 
L 576.318489 92.726486 
L 576.492289 92.67238 
L 578.186116 92.266587 
L 578.230759 92.185428 
L 578.844202 91.941952 
L 580.743894 91.319736 
L 581.291218 91.103312 
L 582.155242 90.724572 
L 582.264339 90.670466 
L 583.335225 90.129409 
L 583.436612 89.994144 
L 585.212278 89.182558 
L 585.223476 89.155505 
L 585.52939 89.02024 
L 585.630746 88.966135 
L 586.128387 88.722659 
L 586.168777 88.668553 
L 586.589606 88.479183 
L 586.594165 88.45213 
L 586.890306 88.289812 
L 587.096956 88.208654 
L 587.609658 87.992231 
L 587.959285 87.775808 
L 588.359547 87.61349 
L 588.956375 87.315909 
L 589.082758 87.180644 
L 589.42253 87.04538 
L 589.887851 86.883062 
L 589.975122 86.774851 
L 590.468574 86.531375 
L 590.588292 86.477269 
L 590.749099 86.423163 
L 591.185743 86.260846 
L 592.511846 85.44926 
L 592.58301 85.395154 
L 592.944303 85.205784 
L 592.947866 85.178731 
L 594.141414 84.854096 
L 594.399901 84.691779 
L 594.946994 84.448303 
L 595.221427 84.285986 
L 595.558837 84.150721 
L 595.918955 83.988404 
L 596.838106 83.447346 
L 597.308396 83.257976 
L 597.508572 83.122712 
L 597.769385 82.987447 
L 598.379385 82.798077 
L 598.740304 82.63576 
L 598.959383 82.581654 
L 599.519188 82.446389 
L 599.875083 82.284072 
L 601.37942 81.634803 
L 601.965576 81.391327 
L 603.069387 80.904375 
L 603.588333 80.769111 
L 604.054288 80.552687 
L 604.302491 80.363317 
L 605.044058 80.065736 
L 605.109275 80.01163 
L 605.516051 79.82226 
L 605.667076 79.741101 
L 606.747608 79.281202 
L 607.407748 79.091832 
L 608.15665 78.821303 
L 608.490616 78.658986 
L 608.501083 78.631933 
L 609.591978 78.361404 
L 609.985631 78.117928 
L 610.87822 77.57687 
L 610.940338 77.468659 
L 612.016832 77.035812 
L 612.160622 76.954654 
L 612.504034 76.711178 
L 612.548945 76.684125 
L 613.09166 76.548861 
L 613.623537 76.278332 
L 614.286545 76.088962 
L 614.697308 75.79138 
L 615.450125 75.547904 
L 615.760382 75.331481 
L 621.863913 72.78851 
L 621.988519 72.707351 
L 622.384558 72.409769 
L 622.607167 72.274505 
L 622.845927 72.085135 
L 626.066225 70.54312 
L 627.238491 70.137327 
L 627.259283 70.083221 
L 627.855621 69.947957 
L 628.345281 69.650375 
L 629.658494 69.217529 
L 629.793692 69.13637 
L 630.14346 68.947 
L 630.689338 68.676471 
L 631.811576 68.108361 
L 631.978444 68.000149 
L 632.743471 67.783726 
L 633.520682 67.432038 
L 634.037187 67.269721 
L 634.162445 67.215615 
L 634.519583 67.080351 
L 634.688983 66.972139 
L 634.983784 66.836875 
L 635.130286 66.674558 
L 635.200803 66.620452 
L 635.689347 66.268764 
L 635.805274 66.160553 
L 636.517008 65.94413 
L 636.628724 65.835918 
L 637.126071 65.646548 
L 637.496335 65.484231 
L 637.633967 65.321913 
L 637.643537 65.294861 
L 638.079986 65.10549 
L 641.51648 63.32 
L 641.627621 63.238841 
L 642.013868 63.049471 
L 642.128629 62.94126 
L 643.499996 62.373149 
L 643.582922 62.237885 
L 644.93881 61.72388 
L 645.486298 61.561562 
L 646.115463 61.263981 
L 646.633249 61.047558 
L 646.772617 60.912293 
L 647.470998 60.668817 
L 647.831065 60.533553 
L 647.946802 60.398288 
L 649.462433 59.938389 
L 650.331873 59.343226 
L 650.95991 59.153856 
L 653.103121 58.044687 
L 653.82328 57.855317 
L 654.563799 57.530683 
L 654.961514 57.260154 
L 655.692453 57.124889 
L 655.719691 57.070784 
L 656.1826 56.908466 
L 656.538635 56.719096 
L 656.759837 56.583832 
L 658.852927 55.826351 
L 659.438253 55.474663 
L 659.755074 55.285293 
L 659.877299 55.177082 
L 660.118796 55.06887 
L 660.592124 54.8795 
L 663.574908 53.28338 
L 663.587686 53.256327 
L 664.014852 53.09401 
L 664.220115 52.931692 
L 664.761295 52.769375 
L 664.995676 52.634111 
L 666.591704 52.038947 
L 667.151531 51.903683 
L 667.903097 51.660207 
L 668.070774 51.524942 
L 669.824015 50.767462 
L 669.931817 50.686303 
L 670.498256 50.442827 
L 670.590969 50.334615 
L 671.165125 50.037034 
L 671.558693 49.847663 
L 672.264636 49.577135 
L 672.941966 49.198394 
L 675.08487 48.413861 
L 675.397795 48.197437 
L 676.562202 47.629327 
L 677.186443 47.358798 
L 677.316389 47.250587 
L 677.511689 47.115322 
L 677.9817 46.953005 
L 678.389037 46.763635 
L 679.706067 46.195524 
L 680.060079 46.033207 
L 680.231472 45.897942 
L 681.525941 45.356885 
L 681.633625 45.248673 
L 681.939907 45.059303 
L 682.113403 45.005197 
L 683.036794 44.65351 
L 683.10573 44.599404 
L 684.877374 43.733712 
L 685.429732 43.544341 
L 685.701995 43.327918 
L 686.037561 43.138548 
L 687.999821 42.191697 
L 688.530674 42.02938 
L 688.547266 42.002327 
L 689.280585 41.812957 
L 689.401992 41.731798 
L 690.384056 41.136635 
L 690.938709 40.974317 
L 691.218246 40.893159 
L 691.445627 40.757894 
L 691.454742 40.730841 
L 691.975064 40.541471 
L 691.977151 40.514418 
L 692.553364 40.325048 
L 692.671177 40.162731 
L 693.257287 39.892202 
L 693.257287 39.892202 
" clip-path="url(#p5054291432)" style="fill: none; stroke: #0173b2; stroke-width: 1.5; stroke-linecap: round"/>
   </g>
   <g id="line2d_14">
    <path d="M 103.341691 315.831625 
L 103.341691 34.481625 
" clip-path="url(#p5054291432)" style="fill: none; stroke: #000000; stroke-opacity: 0.5; stroke-width: 1.5; stroke-linecap: round"/>
   </g>
   <g id="patch_3">
    <path d="M 41.245313 315.831625 
L 41.245313 34.481625 
" style="fill: none; stroke: #cccccc; stroke-width: 0.8; stroke-linejoin: miter; stroke-linecap: square"/>
   </g>
   <g id="patch_4">
    <path d="M 705.676563 315.831625 
L 705.676563 34.481625 
" style="fill: none; stroke: #cccccc; stroke-width: 0.8; stroke-linejoin: miter; stroke-linecap: square"/>
   </g>
   <g id="patch_5">
    <path d="M 41.245312 315.831625 
L 705.676563 315.831625 
" style="fill: none; stroke: #cccccc; stroke-width: 0.8; stroke-linejoin: miter; stroke-linecap: square"/>
   </g>
   <g id="patch_6">
    <path d="M 41.245312 34.481625 
L 705.676563 34.481625 
" style="fill: none; stroke: #cccccc; stroke-width: 0.8; stroke-linejoin: miter; stroke-linecap: square"/>
   </g>
   <g id="text_15">
    <!-- Мощность критерия Манна-Уитни-Уилкоксона -->
    <g style="fill: #262626" transform="translate(245.162188 15.789375) scale(0.12 -0.12)">
     <defs>
      <path id="ArialMT-20" transform="scale(0.015625)"/>
      <path id="ArialMT-43a" d="M 419 3319 
L 981 3319 
L 981 1884 
Q 1250 1884 1358 1987 
Q 1466 2091 1675 2588 
Q 1841 2981 1944 3106 
Q 2047 3231 2181 3275 
Q 2316 3319 2613 3319 
L 2725 3319 
L 2725 2853 
L 2569 2856 
Q 2347 2856 2284 2791 
Q 2219 2722 2084 2381 
Q 1956 2056 1850 1931 
Q 1744 1806 1522 1703 
Q 1884 1606 2234 1028 
L 2850 0 
L 2231 0 
L 1631 1028 
Q 1447 1338 1309 1436 
Q 1172 1534 981 1534 
L 981 0 
L 419 0 
L 419 3319 
z
" transform="scale(0.015625)"/>
      <path id="ArialMT-440" d="M 422 -1272 
L 422 3319 
L 934 3319 
L 934 2888 
Q 1116 3141 1344 3267 
Q 1572 3394 1897 3394 
Q 2322 3394 2647 3175 
Q 2972 2956 3137 2557 
Q 3303 2159 3303 1684 
Q 3303 1175 3120 767 
Q 2938 359 2589 142 
Q 2241 -75 1856 -75 
Q 1575 -75 1351 44 
Q 1128 163 984 344 
L 984 -1272 
L 422 -1272 
z
M 931 1641 
Q 931 1000 1190 694 
Q 1450 388 1819 388 
Q 2194 388 2461 705 
Q 2728 1022 2728 1688 
Q 2728 2322 2467 2637 
Q 2206 2953 1844 2953 
Q 1484 2953 1207 2617 
Q 931 2281 931 1641 
z
" transform="scale(0.015625)"/>
      <path id="ArialMT-438" d="M 422 3319 
L 984 3319 
L 984 788 
L 2544 3319 
L 3150 3319 
L 3150 0 
L 2588 0 
L 2588 2516 
L 1028 0 
L 422 0 
L 422 3319 
z
" transform="scale(0.015625)"/>
      <path id="ArialMT-435" d="M 2694 1069 
L 3275 997 
Q 3138 488 2766 206 
Q 2394 -75 1816 -75 
Q 1088 -75 661 373 
Q 234 822 234 1631 
Q 234 2469 665 2931 
Q 1097 3394 1784 3394 
Q 2450 3394 2872 2941 
Q 3294 2488 3294 1666 
Q 3294 1616 3291 1516 
L 816 1516 
Q 847 969 1125 678 
Q 1403 388 1819 388 
Q 2128 388 2347 550 
Q 2566 713 2694 1069 
z
M 847 1978 
L 2700 1978 
Q 2663 2397 2488 2606 
Q 2219 2931 1791 2931 
Q 1403 2931 1139 2672 
Q 875 2413 847 1978 
z
" transform="scale(0.015625)"/>
      <path id="ArialMT-44f" d="M 3034 3319 
L 3034 0 
L 2475 0 
L 2475 1294 
L 2150 1294 
Q 1853 1294 1708 1217 
Q 1563 1141 1284 725 
L 794 0 
L 97 0 
L 703 894 
Q 981 1303 1256 1356 
Q 775 1422 542 1703 
Q 309 1984 309 2350 
Q 309 2781 614 3050 
Q 919 3319 1497 3319 
L 3034 3319 
z
M 2475 2853 
L 1675 2853 
Q 1172 2853 1026 2697 
Q 881 2541 881 2331 
Q 881 2034 1095 1895 
Q 1309 1756 1853 1756 
L 2475 1756 
L 2475 2853 
z
" transform="scale(0.015625)"/>
      <path id="ArialMT-430" d="M 2588 409 
Q 2275 144 1986 34 
Q 1697 -75 1366 -75 
Q 819 -75 525 192 
Q 231 459 231 875 
Q 231 1119 342 1320 
Q 453 1522 633 1644 
Q 813 1766 1038 1828 
Q 1203 1872 1538 1913 
Q 2219 1994 2541 2106 
Q 2544 2222 2544 2253 
Q 2544 2597 2384 2738 
Q 2169 2928 1744 2928 
Q 1347 2928 1158 2789 
Q 969 2650 878 2297 
L 328 2372 
Q 403 2725 575 2942 
Q 747 3159 1072 3276 
Q 1397 3394 1825 3394 
Q 2250 3394 2515 3294 
Q 2781 3194 2906 3042 
Q 3031 2891 3081 2659 
Q 3109 2516 3109 2141 
L 3109 1391 
Q 3109 606 3145 398 
Q 3181 191 3288 0 
L 2700 0 
Q 2613 175 2588 409 
z
M 2541 1666 
Q 2234 1541 1622 1453 
Q 1275 1403 1131 1340 
Q 988 1278 909 1158 
Q 831 1038 831 891 
Q 831 666 1001 516 
Q 1172 366 1500 366 
Q 1825 366 2078 508 
Q 2331 650 2450 897 
Q 2541 1088 2541 1459 
L 2541 1666 
z
" transform="scale(0.015625)"/>
      <path id="ArialMT-2d" d="M 203 1375 
L 203 1941 
L 1931 1941 
L 1931 1375 
L 203 1375 
z
" transform="scale(0.015625)"/>
      <path id="ArialMT-423" d="M 31 4581 
L 644 4581 
L 2138 1775 
L 3444 4581 
L 4047 4581 
L 2328 1019 
Q 2006 350 1800 143 
Q 1594 -63 1209 -63 
Q 975 -63 634 47 
L 634 566 
Q 878 425 1150 425 
Q 1372 425 1533 567 
Q 1694 709 1888 1216 
L 31 4581 
z
" transform="scale(0.015625)"/>
      <path id="ArialMT-43b" d="M 697 3319 
L 3309 3319 
L 3309 0 
L 2750 0 
L 2750 2853 
L 1259 2853 
L 1259 1200 
Q 1259 622 1221 437 
Q 1184 253 1015 115 
Q 847 -22 528 -22 
Q 331 -22 75 3 
L 75 472 
L 322 472 
Q 497 472 572 508 
Q 647 544 672 622 
Q 697 700 697 1131 
L 697 3319 
z
" transform="scale(0.015625)"/>
     </defs>
     <use xlink:href="#ArialMT-41c"/>
     <use xlink:href="#ArialMT-43e" x="84.425781"/>
     <use xlink:href="#ArialMT-449" x="140.041016"/>
     <use xlink:href="#ArialMT-43d" x="222.316406"/>
     <use xlink:href="#ArialMT-43e" x="277.541016"/>
     <use xlink:href="#ArialMT-441" x="333.15625"/>
     <use xlink:href="#ArialMT-442" x="383.15625"/>
     <use xlink:href="#ArialMT-44c" x="428.957031"/>
     <use xlink:href="#ArialMT-20" x="481.056641"/>
     <use xlink:href="#ArialMT-43a" x="508.839844"/>
     <use xlink:href="#ArialMT-440" x="552.589844"/>
     <use xlink:href="#ArialMT-438" x="608.205078"/>
     <use xlink:href="#ArialMT-442" x="664.064453"/>
     <use xlink:href="#ArialMT-435" x="708.740234"/>
     <use xlink:href="#ArialMT-440" x="764.355469"/>
     <use xlink:href="#ArialMT-438" x="819.970703"/>
     <use xlink:href="#ArialMT-44f" x="875.830078"/>
     <use xlink:href="#ArialMT-20" x="929.980469"/>
     <use xlink:href="#ArialMT-41c" x="957.763672"/>
     <use xlink:href="#ArialMT-430" x="1042.189453"/>
     <use xlink:href="#ArialMT-43d" x="1097.804688"/>
     <use xlink:href="#ArialMT-43d" x="1153.029297"/>
     <use xlink:href="#ArialMT-430" x="1208.253906"/>
     <use xlink:href="#ArialMT-2d" x="1263.869141"/>
     <use xlink:href="#ArialMT-423" x="1297.169922"/>
     <use xlink:href="#ArialMT-438" x="1356.195312"/>
     <use xlink:href="#ArialMT-442" x="1412.054688"/>
     <use xlink:href="#ArialMT-43d" x="1457.855469"/>
     <use xlink:href="#ArialMT-438" x="1513.080078"/>
     <use xlink:href="#ArialMT-2d" x="1568.939453"/>
     <use xlink:href="#ArialMT-423" x="1602.240234"/>
     <use xlink:href="#ArialMT-438" x="1661.265625"/>
     <use xlink:href="#ArialMT-43b" x="1717.125"/>
     <use xlink:href="#ArialMT-43a" x="1775.474609"/>
     <use xlink:href="#ArialMT-43e" x="1820.349609"/>
     <use xlink:href="#ArialMT-43a" x="1875.964844"/>
     <use xlink:href="#ArialMT-441" x="1920.839844"/>
     <use xlink:href="#ArialMT-43e" x="1971.964844"/>
     <use xlink:href="#ArialMT-43d" x="2027.580078"/>
     <use xlink:href="#ArialMT-430" x="2082.804688"/>
    </g>
    <!-- при оценке числа кликов -->
    <g style="fill: #262626" transform="translate(304.0625 28.481625) scale(0.12 -0.12)">
     <defs>
      <path id="ArialMT-43f" d="M 425 3319 
L 3044 3319 
L 3044 0 
L 2481 0 
L 2481 2853 
L 988 2853 
L 988 0 
L 425 0 
L 425 3319 
z
" transform="scale(0.015625)"/>
      <path id="ArialMT-446" d="M 431 3319 
L 994 3319 
L 994 463 
L 2550 463 
L 2550 3319 
L 3113 3319 
L 3113 463 
L 3475 463 
L 3475 -941 
L 3013 -941 
L 3013 0 
L 431 0 
L 431 3319 
z
" transform="scale(0.015625)"/>
      <path id="ArialMT-447" d="M 216 3319 
L 778 3319 
L 778 2691 
Q 778 2284 826 2101 
Q 875 1919 1059 1783 
Q 1244 1647 1522 1647 
Q 1841 1647 2347 1816 
L 2347 3319 
L 2909 3319 
L 2909 0 
L 2347 0 
L 2347 1338 
Q 1828 1175 1378 1175 
Q 1000 1175 711 1367 
Q 422 1559 319 1837 
Q 216 2116 216 2450 
L 216 3319 
z
" transform="scale(0.015625)"/>
      <path id="ArialMT-432" d="M 425 3319 
L 1722 3319 
Q 2200 3319 2433 3239 
Q 2666 3159 2833 2946 
Q 3000 2734 3000 2438 
Q 3000 2200 2901 2023 
Q 2803 1847 2606 1728 
Q 2841 1650 2995 1436 
Q 3150 1222 3150 928 
Q 3119 456 2812 228 
Q 2506 0 1922 0 
L 425 0 
L 425 3319 
z
M 988 1922 
L 1588 1922 
Q 1947 1922 2081 1959 
Q 2216 1997 2322 2111 
Q 2428 2225 2428 2384 
Q 2428 2647 2242 2750 
Q 2056 2853 1606 2853 
L 988 2853 
L 988 1922 
z
M 988 463 
L 1728 463 
Q 2206 463 2384 573 
Q 2563 684 2572 956 
Q 2572 1116 2469 1252 
Q 2366 1388 2200 1423 
Q 2034 1459 1669 1459 
L 988 1459 
L 988 463 
z
" transform="scale(0.015625)"/>
     </defs>
     <use xlink:href="#ArialMT-43f"/>
     <use xlink:href="#ArialMT-440" x="54.150391"/>
     <use xlink:href="#ArialMT-438" x="109.765625"/>
     <use xlink:href="#ArialMT-20" x="165.625"/>
     <use xlink:href="#ArialMT-43e" x="193.408203"/>
     <use xlink:href="#ArialMT-446" x="249.023438"/>
     <use xlink:href="#ArialMT-435" x="305.173828"/>
     <use xlink:href="#ArialMT-43d" x="360.789062"/>
     <use xlink:href="#ArialMT-43a" x="416.013672"/>
     <use xlink:href="#ArialMT-435" x="460.888672"/>
     <use xlink:href="#ArialMT-20" x="516.503906"/>
     <use xlink:href="#ArialMT-447" x="544.287109"/>
     <use xlink:href="#ArialMT-438" x="596.386719"/>
     <use xlink:href="#ArialMT-441" x="652.246094"/>
     <use xlink:href="#ArialMT-43b" x="702.246094"/>
     <use xlink:href="#ArialMT-430" x="760.595703"/>
     <use xlink:href="#ArialMT-20" x="816.210938"/>
     <use xlink:href="#ArialMT-43a" x="843.994141"/>
     <use xlink:href="#ArialMT-43b" x="888.869141"/>
     <use xlink:href="#ArialMT-438" x="947.21875"/>
     <use xlink:href="#ArialMT-43a" x="1003.078125"/>
     <use xlink:href="#ArialMT-43e" x="1047.953125"/>
     <use xlink:href="#ArialMT-432" x="1103.568359"/>
    </g>
   </g>
  </g>
 </g>
 <defs>
  <clipPath id="p5054291432">
   <rect x="41.245313" y="34.481625" width="664.43125" height="281.35"/>
  </clipPath>
 </defs>
</svg>
