<?xml version="1.0" encoding="utf-8" standalone="no"?>
<!DOCTYPE svg PUBLIC "-//W3C//DTD SVG 1.1//EN"
  "http://www.w3.org/Graphics/SVG/1.1/DTD/svg11.dtd">
<svg xmlns:xlink="http://www.w3.org/1999/xlink" width="608.98125pt" height="337.074375pt" viewBox="0 0 608.98125 337.074375" xmlns="http://www.w3.org/2000/svg" version="1.1">
 <metadata>
  <rdf:RDF xmlns:dc="http://purl.org/dc/elements/1.1/" xmlns:cc="http://creativecommons.org/ns#" xmlns:rdf="http://www.w3.org/1999/02/22-rdf-syntax-ns#">
   <cc:Work>
    <dc:type rdf:resource="http://purl.org/dc/dcmitype/StillImage"/>
    <dc:date>2025-05-14T19:33:02.197958</dc:date>
    <dc:format>image/svg+xml</dc:format>
    <dc:creator>
     <cc:Agent>
      <dc:title>Matplotlib v3.7.2, https://matplotlib.org/</dc:title>
     </cc:Agent>
    </dc:creator>
   </cc:Work>
  </rdf:RDF>
 </metadata>
 <defs>
  <style type="text/css">*{stroke-linejoin: round; stroke-linecap: butt}</style>
 </defs>
 <g id="figure_1">
  <g id="patch_1">
   <path d="M 0 337.074375 
L 608.98125 337.074375 
L 608.98125 0 
L 0 0 
z
" style="fill: #ffffff"/>
  </g>
  <g id="axes_1">
   <g id="patch_2">
    <path d="M 43.78125 299.518125 
L 601.78125 299.518125 
L 601.78125 22.318125 
L 43.78125 22.318125 
z
" style="fill: #ffffff"/>
   </g>
   <g id="matplotlib.axis_1">
    <g id="xtick_1">
     <g id="line2d_1">
      <defs>
       <path id="md3b7f39adf" d="M 0 0 
L 0 3.5 
" style="stroke: #000000; stroke-width: 0.8"/>
      </defs>
      <g>
       <use xlink:href="#md3b7f39adf" x="69.144886" y="299.518125" style="stroke: #000000; stroke-width: 0.8"/>
      </g>
     </g>
     <g id="text_1">
      <!-- −3 -->
      <g transform="translate(61.773793 314.116563) scale(0.1 -0.1)">
       <defs>
        <path id="DejaVuSans-2212" d="M 678 2272 
L 4684 2272 
L 4684 1741 
L 678 1741 
L 678 2272 
z
" transform="scale(0.015625)"/>
        <path id="DejaVuSans-33" d="M 2597 2516 
Q 3050 2419 3304 2112 
Q 3559 1806 3559 1356 
Q 3559 666 3084 287 
Q 2609 -91 1734 -91 
Q 1441 -91 1130 -33 
Q 819 25 488 141 
L 488 750 
Q 750 597 1062 519 
Q 1375 441 1716 441 
Q 2309 441 2620 675 
Q 2931 909 2931 1356 
Q 2931 1769 2642 2001 
Q 2353 2234 1838 2234 
L 1294 2234 
L 1294 2753 
L 1863 2753 
Q 2328 2753 2575 2939 
Q 2822 3125 2822 3475 
Q 2822 3834 2567 4026 
Q 2313 4219 1838 4219 
Q 1578 4219 1281 4162 
Q 984 4106 628 3988 
L 628 4550 
Q 988 4650 1302 4700 
Q 1616 4750 1894 4750 
Q 2613 4750 3031 4423 
Q 3450 4097 3450 3541 
Q 3450 3153 3228 2886 
Q 3006 2619 2597 2516 
z
" transform="scale(0.015625)"/>
       </defs>
       <use xlink:href="#DejaVuSans-2212"/>
       <use xlink:href="#DejaVuSans-33" x="83.789062"/>
      </g>
     </g>
    </g>
    <g id="xtick_2">
     <g id="line2d_2">
      <g>
       <use xlink:href="#md3b7f39adf" x="153.704434" y="299.518125" style="stroke: #000000; stroke-width: 0.8"/>
      </g>
     </g>
     <g id="text_2">
      <!-- −2 -->
      <g transform="translate(146.33334 314.116563) scale(0.1 -0.1)">
       <defs>
        <path id="DejaVuSans-32" d="M 1228 531 
L 3431 531 
L 3431 0 
L 469 0 
L 469 531 
Q 828 903 1448 1529 
Q 2069 2156 2228 2338 
Q 2531 2678 2651 2914 
Q 2772 3150 2772 3378 
Q 2772 3750 2511 3984 
Q 2250 4219 1831 4219 
Q 1534 4219 1204 4116 
Q 875 4013 500 3803 
L 500 4441 
Q 881 4594 1212 4672 
Q 1544 4750 1819 4750 
Q 2544 4750 2975 4387 
Q 3406 4025 3406 3419 
Q 3406 3131 3298 2873 
Q 3191 2616 2906 2266 
Q 2828 2175 2409 1742 
Q 1991 1309 1228 531 
z
" transform="scale(0.015625)"/>
       </defs>
       <use xlink:href="#DejaVuSans-2212"/>
       <use xlink:href="#DejaVuSans-32" x="83.789062"/>
      </g>
     </g>
    </g>
    <g id="xtick_3">
     <g id="line2d_3">
      <g>
       <use xlink:href="#md3b7f39adf" x="238.263982" y="299.518125" style="stroke: #000000; stroke-width: 0.8"/>
      </g>
     </g>
     <g id="text_3">
      <!-- −1 -->
      <g transform="translate(230.892888 314.116563) scale(0.1 -0.1)">
       <defs>
        <path id="DejaVuSans-31" d="M 794 531 
L 1825 531 
L 1825 4091 
L 703 3866 
L 703 4441 
L 1819 4666 
L 2450 4666 
L 2450 531 
L 3481 531 
L 3481 0 
L 794 0 
L 794 531 
z
" transform="scale(0.015625)"/>
       </defs>
       <use xlink:href="#DejaVuSans-2212"/>
       <use xlink:href="#DejaVuSans-31" x="83.789062"/>
      </g>
     </g>
    </g>
    <g id="xtick_4">
     <g id="line2d_4">
      <g>
       <use xlink:href="#md3b7f39adf" x="322.82353" y="299.518125" style="stroke: #000000; stroke-width: 0.8"/>
      </g>
     </g>
     <g id="text_4">
      <!-- 0 -->
      <g transform="translate(319.64228 314.116563) scale(0.1 -0.1)">
       <defs>
        <path id="DejaVuSans-30" d="M 2034 4250 
Q 1547 4250 1301 3770 
Q 1056 3291 1056 2328 
Q 1056 1369 1301 889 
Q 1547 409 2034 409 
Q 2525 409 2770 889 
Q 3016 1369 3016 2328 
Q 3016 3291 2770 3770 
Q 2525 4250 2034 4250 
z
M 2034 4750 
Q 2819 4750 3233 4129 
Q 3647 3509 3647 2328 
Q 3647 1150 3233 529 
Q 2819 -91 2034 -91 
Q 1250 -91 836 529 
Q 422 1150 422 2328 
Q 422 3509 836 4129 
Q 1250 4750 2034 4750 
z
" transform="scale(0.015625)"/>
       </defs>
       <use xlink:href="#DejaVuSans-30"/>
      </g>
     </g>
    </g>
    <g id="xtick_5">
     <g id="line2d_5">
      <g>
       <use xlink:href="#md3b7f39adf" x="407.383078" y="299.518125" style="stroke: #000000; stroke-width: 0.8"/>
      </g>
     </g>
     <g id="text_5">
      <!-- 1 -->
      <g transform="translate(404.201828 314.116563) scale(0.1 -0.1)">
       <use xlink:href="#DejaVuSans-31"/>
      </g>
     </g>
    </g>
    <g id="xtick_6">
     <g id="line2d_6">
      <g>
       <use xlink:href="#md3b7f39adf" x="491.942625" y="299.518125" style="stroke: #000000; stroke-width: 0.8"/>
      </g>
     </g>
     <g id="text_6">
      <!-- 2 -->
      <g transform="translate(488.761375 314.116563) scale(0.1 -0.1)">
       <use xlink:href="#DejaVuSans-32"/>
      </g>
     </g>
    </g>
    <g id="xtick_7">
     <g id="line2d_7">
      <g>
       <use xlink:href="#md3b7f39adf" x="576.502173" y="299.518125" style="stroke: #000000; stroke-width: 0.8"/>
      </g>
     </g>
     <g id="text_7">
      <!-- 3 -->
      <g transform="translate(573.320923 314.116563) scale(0.1 -0.1)">
       <use xlink:href="#DejaVuSans-33"/>
      </g>
     </g>
    </g>
    <g id="text_8">
     <!-- X -->
     <g transform="translate(319.35625 327.794688) scale(0.1 -0.1)">
      <defs>
       <path id="DejaVuSans-58" d="M 403 4666 
L 1081 4666 
L 2241 2931 
L 3406 4666 
L 4084 4666 
L 2584 2425 
L 4184 0 
L 3506 0 
L 2194 1984 
L 872 0 
L 191 0 
L 1856 2491 
L 403 4666 
z
" transform="scale(0.015625)"/>
      </defs>
      <use xlink:href="#DejaVuSans-58"/>
     </g>
    </g>
   </g>
   <g id="matplotlib.axis_2">
    <g id="ytick_1">
     <g id="line2d_8">
      <defs>
       <path id="m853ba21aa3" d="M 0 0 
L -3.5 0 
" style="stroke: #000000; stroke-width: 0.8"/>
      </defs>
      <g>
       <use xlink:href="#m853ba21aa3" x="43.78125" y="286.918125" style="stroke: #000000; stroke-width: 0.8"/>
      </g>
     </g>
     <g id="text_9">
      <!-- 0.0 -->
      <g transform="translate(20.878125 290.717344) scale(0.1 -0.1)">
       <defs>
        <path id="DejaVuSans-2e" d="M 684 794 
L 1344 794 
L 1344 0 
L 684 0 
L 684 794 
z
" transform="scale(0.015625)"/>
       </defs>
       <use xlink:href="#DejaVuSans-30"/>
       <use xlink:href="#DejaVuSans-2e" x="63.623047"/>
       <use xlink:href="#DejaVuSans-30" x="95.410156"/>
      </g>
     </g>
    </g>
    <g id="ytick_2">
     <g id="line2d_9">
      <g>
       <use xlink:href="#m853ba21aa3" x="43.78125" y="236.518125" style="stroke: #000000; stroke-width: 0.8"/>
      </g>
     </g>
     <g id="text_10">
      <!-- 0.2 -->
      <g transform="translate(20.878125 240.317344) scale(0.1 -0.1)">
       <use xlink:href="#DejaVuSans-30"/>
       <use xlink:href="#DejaVuSans-2e" x="63.623047"/>
       <use xlink:href="#DejaVuSans-32" x="95.410156"/>
      </g>
     </g>
    </g>
    <g id="ytick_3">
     <g id="line2d_10">
      <g>
       <use xlink:href="#m853ba21aa3" x="43.78125" y="186.118125" style="stroke: #000000; stroke-width: 0.8"/>
      </g>
     </g>
     <g id="text_11">
      <!-- 0.4 -->
      <g transform="translate(20.878125 189.917344) scale(0.1 -0.1)">
       <defs>
        <path id="DejaVuSans-34" d="M 2419 4116 
L 825 1625 
L 2419 1625 
L 2419 4116 
z
M 2253 4666 
L 3047 4666 
L 3047 1625 
L 3713 1625 
L 3713 1100 
L 3047 1100 
L 3047 0 
L 2419 0 
L 2419 1100 
L 313 1100 
L 313 1709 
L 2253 4666 
z
" transform="scale(0.015625)"/>
       </defs>
       <use xlink:href="#DejaVuSans-30"/>
       <use xlink:href="#DejaVuSans-2e" x="63.623047"/>
       <use xlink:href="#DejaVuSans-34" x="95.410156"/>
      </g>
     </g>
    </g>
    <g id="ytick_4">
     <g id="line2d_11">
      <g>
       <use xlink:href="#m853ba21aa3" x="43.78125" y="135.718125" style="stroke: #000000; stroke-width: 0.8"/>
      </g>
     </g>
     <g id="text_12">
      <!-- 0.6 -->
      <g transform="translate(20.878125 139.517344) scale(0.1 -0.1)">
       <defs>
        <path id="DejaVuSans-36" d="M 2113 2584 
Q 1688 2584 1439 2293 
Q 1191 2003 1191 1497 
Q 1191 994 1439 701 
Q 1688 409 2113 409 
Q 2538 409 2786 701 
Q 3034 994 3034 1497 
Q 3034 2003 2786 2293 
Q 2538 2584 2113 2584 
z
M 3366 4563 
L 3366 3988 
Q 3128 4100 2886 4159 
Q 2644 4219 2406 4219 
Q 1781 4219 1451 3797 
Q 1122 3375 1075 2522 
Q 1259 2794 1537 2939 
Q 1816 3084 2150 3084 
Q 2853 3084 3261 2657 
Q 3669 2231 3669 1497 
Q 3669 778 3244 343 
Q 2819 -91 2113 -91 
Q 1303 -91 875 529 
Q 447 1150 447 2328 
Q 447 3434 972 4092 
Q 1497 4750 2381 4750 
Q 2619 4750 2861 4703 
Q 3103 4656 3366 4563 
z
" transform="scale(0.015625)"/>
       </defs>
       <use xlink:href="#DejaVuSans-30"/>
       <use xlink:href="#DejaVuSans-2e" x="63.623047"/>
       <use xlink:href="#DejaVuSans-36" x="95.410156"/>
      </g>
     </g>
    </g>
    <g id="ytick_5">
     <g id="line2d_12">
      <g>
       <use xlink:href="#m853ba21aa3" x="43.78125" y="85.318125" style="stroke: #000000; stroke-width: 0.8"/>
      </g>
     </g>
     <g id="text_13">
      <!-- 0.8 -->
      <g transform="translate(20.878125 89.117344) scale(0.1 -0.1)">
       <defs>
        <path id="DejaVuSans-38" d="M 2034 2216 
Q 1584 2216 1326 1975 
Q 1069 1734 1069 1313 
Q 1069 891 1326 650 
Q 1584 409 2034 409 
Q 2484 409 2743 651 
Q 3003 894 3003 1313 
Q 3003 1734 2745 1975 
Q 2488 2216 2034 2216 
z
M 1403 2484 
Q 997 2584 770 2862 
Q 544 3141 544 3541 
Q 544 4100 942 4425 
Q 1341 4750 2034 4750 
Q 2731 4750 3128 4425 
Q 3525 4100 3525 3541 
Q 3525 3141 3298 2862 
Q 3072 2584 2669 2484 
Q 3125 2378 3379 2068 
Q 3634 1759 3634 1313 
Q 3634 634 3220 271 
Q 2806 -91 2034 -91 
Q 1263 -91 848 271 
Q 434 634 434 1313 
Q 434 1759 690 2068 
Q 947 2378 1403 2484 
z
M 1172 3481 
Q 1172 3119 1398 2916 
Q 1625 2713 2034 2713 
Q 2441 2713 2670 2916 
Q 2900 3119 2900 3481 
Q 2900 3844 2670 4047 
Q 2441 4250 2034 4250 
Q 1625 4250 1398 4047 
Q 1172 3844 1172 3481 
z
" transform="scale(0.015625)"/>
       </defs>
       <use xlink:href="#DejaVuSans-30"/>
       <use xlink:href="#DejaVuSans-2e" x="63.623047"/>
       <use xlink:href="#DejaVuSans-38" x="95.410156"/>
      </g>
     </g>
    </g>
    <g id="ytick_6">
     <g id="line2d_13">
      <g>
       <use xlink:href="#m853ba21aa3" x="43.78125" y="34.918125" style="stroke: #000000; stroke-width: 0.8"/>
      </g>
     </g>
     <g id="text_14">
      <!-- 1.0 -->
      <g transform="translate(20.878125 38.717344) scale(0.1 -0.1)">
       <use xlink:href="#DejaVuSans-31"/>
       <use xlink:href="#DejaVuSans-2e" x="63.623047"/>
       <use xlink:href="#DejaVuSans-30" x="95.410156"/>
      </g>
     </g>
    </g>
    <g id="text_15">
     <!-- Cumulative probability -->
     <g transform="translate(14.798438 217.720469) rotate(-90) scale(0.1 -0.1)">
      <defs>
       <path id="DejaVuSans-43" d="M 4122 4306 
L 4122 3641 
Q 3803 3938 3442 4084 
Q 3081 4231 2675 4231 
Q 1875 4231 1450 3742 
Q 1025 3253 1025 2328 
Q 1025 1406 1450 917 
Q 1875 428 2675 428 
Q 3081 428 3442 575 
Q 3803 722 4122 1019 
L 4122 359 
Q 3791 134 3420 21 
Q 3050 -91 2638 -91 
Q 1578 -91 968 557 
Q 359 1206 359 2328 
Q 359 3453 968 4101 
Q 1578 4750 2638 4750 
Q 3056 4750 3426 4639 
Q 3797 4528 4122 4306 
z
" transform="scale(0.015625)"/>
       <path id="DejaVuSans-75" d="M 544 1381 
L 544 3500 
L 1119 3500 
L 1119 1403 
Q 1119 906 1312 657 
Q 1506 409 1894 409 
Q 2359 409 2629 706 
Q 2900 1003 2900 1516 
L 2900 3500 
L 3475 3500 
L 3475 0 
L 2900 0 
L 2900 538 
Q 2691 219 2414 64 
Q 2138 -91 1772 -91 
Q 1169 -91 856 284 
Q 544 659 544 1381 
z
M 1991 3584 
L 1991 3584 
z
" transform="scale(0.015625)"/>
       <path id="DejaVuSans-6d" d="M 3328 2828 
Q 3544 3216 3844 3400 
Q 4144 3584 4550 3584 
Q 5097 3584 5394 3201 
Q 5691 2819 5691 2113 
L 5691 0 
L 5113 0 
L 5113 2094 
Q 5113 2597 4934 2840 
Q 4756 3084 4391 3084 
Q 3944 3084 3684 2787 
Q 3425 2491 3425 1978 
L 3425 0 
L 2847 0 
L 2847 2094 
Q 2847 2600 2669 2842 
Q 2491 3084 2119 3084 
Q 1678 3084 1418 2786 
Q 1159 2488 1159 1978 
L 1159 0 
L 581 0 
L 581 3500 
L 1159 3500 
L 1159 2956 
Q 1356 3278 1631 3431 
Q 1906 3584 2284 3584 
Q 2666 3584 2933 3390 
Q 3200 3197 3328 2828 
z
" transform="scale(0.015625)"/>
       <path id="DejaVuSans-6c" d="M 603 4863 
L 1178 4863 
L 1178 0 
L 603 0 
L 603 4863 
z
" transform="scale(0.015625)"/>
       <path id="DejaVuSans-61" d="M 2194 1759 
Q 1497 1759 1228 1600 
Q 959 1441 959 1056 
Q 959 750 1161 570 
Q 1363 391 1709 391 
Q 2188 391 2477 730 
Q 2766 1069 2766 1631 
L 2766 1759 
L 2194 1759 
z
M 3341 1997 
L 3341 0 
L 2766 0 
L 2766 531 
Q 2569 213 2275 61 
Q 1981 -91 1556 -91 
Q 1019 -91 701 211 
Q 384 513 384 1019 
Q 384 1609 779 1909 
Q 1175 2209 1959 2209 
L 2766 2209 
L 2766 2266 
Q 2766 2663 2505 2880 
Q 2244 3097 1772 3097 
Q 1472 3097 1187 3025 
Q 903 2953 641 2809 
L 641 3341 
Q 956 3463 1253 3523 
Q 1550 3584 1831 3584 
Q 2591 3584 2966 3190 
Q 3341 2797 3341 1997 
z
" transform="scale(0.015625)"/>
       <path id="DejaVuSans-74" d="M 1172 4494 
L 1172 3500 
L 2356 3500 
L 2356 3053 
L 1172 3053 
L 1172 1153 
Q 1172 725 1289 603 
Q 1406 481 1766 481 
L 2356 481 
L 2356 0 
L 1766 0 
Q 1100 0 847 248 
Q 594 497 594 1153 
L 594 3053 
L 172 3053 
L 172 3500 
L 594 3500 
L 594 4494 
L 1172 4494 
z
" transform="scale(0.015625)"/>
       <path id="DejaVuSans-69" d="M 603 3500 
L 1178 3500 
L 1178 0 
L 603 0 
L 603 3500 
z
M 603 4863 
L 1178 4863 
L 1178 4134 
L 603 4134 
L 603 4863 
z
" transform="scale(0.015625)"/>
       <path id="DejaVuSans-76" d="M 191 3500 
L 800 3500 
L 1894 563 
L 2988 3500 
L 3597 3500 
L 2284 0 
L 1503 0 
L 191 3500 
z
" transform="scale(0.015625)"/>
       <path id="DejaVuSans-65" d="M 3597 1894 
L 3597 1613 
L 953 1613 
Q 991 1019 1311 708 
Q 1631 397 2203 397 
Q 2534 397 2845 478 
Q 3156 559 3463 722 
L 3463 178 
Q 3153 47 2828 -22 
Q 2503 -91 2169 -91 
Q 1331 -91 842 396 
Q 353 884 353 1716 
Q 353 2575 817 3079 
Q 1281 3584 2069 3584 
Q 2775 3584 3186 3129 
Q 3597 2675 3597 1894 
z
M 3022 2063 
Q 3016 2534 2758 2815 
Q 2500 3097 2075 3097 
Q 1594 3097 1305 2825 
Q 1016 2553 972 2059 
L 3022 2063 
z
" transform="scale(0.015625)"/>
       <path id="DejaVuSans-20" transform="scale(0.015625)"/>
       <path id="DejaVuSans-70" d="M 1159 525 
L 1159 -1331 
L 581 -1331 
L 581 3500 
L 1159 3500 
L 1159 2969 
Q 1341 3281 1617 3432 
Q 1894 3584 2278 3584 
Q 2916 3584 3314 3078 
Q 3713 2572 3713 1747 
Q 3713 922 3314 415 
Q 2916 -91 2278 -91 
Q 1894 -91 1617 61 
Q 1341 213 1159 525 
z
M 3116 1747 
Q 3116 2381 2855 2742 
Q 2594 3103 2138 3103 
Q 1681 3103 1420 2742 
Q 1159 2381 1159 1747 
Q 1159 1113 1420 752 
Q 1681 391 2138 391 
Q 2594 391 2855 752 
Q 3116 1113 3116 1747 
z
" transform="scale(0.015625)"/>
       <path id="DejaVuSans-72" d="M 2631 2963 
Q 2534 3019 2420 3045 
Q 2306 3072 2169 3072 
Q 1681 3072 1420 2755 
Q 1159 2438 1159 1844 
L 1159 0 
L 581 0 
L 581 3500 
L 1159 3500 
L 1159 2956 
Q 1341 3275 1631 3429 
Q 1922 3584 2338 3584 
Q 2397 3584 2469 3576 
Q 2541 3569 2628 3553 
L 2631 2963 
z
" transform="scale(0.015625)"/>
       <path id="DejaVuSans-6f" d="M 1959 3097 
Q 1497 3097 1228 2736 
Q 959 2375 959 1747 
Q 959 1119 1226 758 
Q 1494 397 1959 397 
Q 2419 397 2687 759 
Q 2956 1122 2956 1747 
Q 2956 2369 2687 2733 
Q 2419 3097 1959 3097 
z
M 1959 3584 
Q 2709 3584 3137 3096 
Q 3566 2609 3566 1747 
Q 3566 888 3137 398 
Q 2709 -91 1959 -91 
Q 1206 -91 779 398 
Q 353 888 353 1747 
Q 353 2609 779 3096 
Q 1206 3584 1959 3584 
z
" transform="scale(0.015625)"/>
       <path id="DejaVuSans-62" d="M 3116 1747 
Q 3116 2381 2855 2742 
Q 2594 3103 2138 3103 
Q 1681 3103 1420 2742 
Q 1159 2381 1159 1747 
Q 1159 1113 1420 752 
Q 1681 391 2138 391 
Q 2594 391 2855 752 
Q 3116 1113 3116 1747 
z
M 1159 2969 
Q 1341 3281 1617 3432 
Q 1894 3584 2278 3584 
Q 2916 3584 3314 3078 
Q 3713 2572 3713 1747 
Q 3713 922 3314 415 
Q 2916 -91 2278 -91 
Q 1894 -91 1617 61 
Q 1341 213 1159 525 
L 1159 0 
L 581 0 
L 581 4863 
L 1159 4863 
L 1159 2969 
z
" transform="scale(0.015625)"/>
       <path id="DejaVuSans-79" d="M 2059 -325 
Q 1816 -950 1584 -1140 
Q 1353 -1331 966 -1331 
L 506 -1331 
L 506 -850 
L 844 -850 
Q 1081 -850 1212 -737 
Q 1344 -625 1503 -206 
L 1606 56 
L 191 3500 
L 800 3500 
L 1894 763 
L 2988 3500 
L 3597 3500 
L 2059 -325 
z
" transform="scale(0.015625)"/>
      </defs>
      <use xlink:href="#DejaVuSans-43"/>
      <use xlink:href="#DejaVuSans-75" x="69.824219"/>
      <use xlink:href="#DejaVuSans-6d" x="133.203125"/>
      <use xlink:href="#DejaVuSans-75" x="230.615234"/>
      <use xlink:href="#DejaVuSans-6c" x="293.994141"/>
      <use xlink:href="#DejaVuSans-61" x="321.777344"/>
      <use xlink:href="#DejaVuSans-74" x="383.056641"/>
      <use xlink:href="#DejaVuSans-69" x="422.265625"/>
      <use xlink:href="#DejaVuSans-76" x="450.048828"/>
      <use xlink:href="#DejaVuSans-65" x="509.228516"/>
      <use xlink:href="#DejaVuSans-20" x="570.751953"/>
      <use xlink:href="#DejaVuSans-70" x="602.539062"/>
      <use xlink:href="#DejaVuSans-72" x="666.015625"/>
      <use xlink:href="#DejaVuSans-6f" x="704.878906"/>
      <use xlink:href="#DejaVuSans-62" x="766.060547"/>
      <use xlink:href="#DejaVuSans-61" x="829.537109"/>
      <use xlink:href="#DejaVuSans-62" x="890.816406"/>
      <use xlink:href="#DejaVuSans-69" x="954.292969"/>
      <use xlink:href="#DejaVuSans-6c" x="982.076172"/>
      <use xlink:href="#DejaVuSans-69" x="1009.859375"/>
      <use xlink:href="#DejaVuSans-74" x="1037.642578"/>
      <use xlink:href="#DejaVuSans-79" x="1076.851562"/>
     </g>
    </g>
   </g>
   <g id="line2d_14">
    <path d="M 69.144886 286.918125 
L 101.277515 286.918125 
L 101.446634 284.398125 
L 154.719149 284.398125 
L 154.888268 281.878125 
L 157.086816 281.878125 
L 157.255935 279.358125 
L 160.976555 279.358125 
L 161.145674 276.838125 
L 173.660487 276.838125 
L 173.829607 274.318125 
L 176.95831 274.318125 
L 177.127429 271.798125 
L 197.759959 271.798125 
L 197.929078 269.278125 
L 199.028352 269.278125 
L 199.197471 266.758125 
L 202.326174 266.758125 
L 202.495293 264.238125 
L 203.340889 264.238125 
L 203.510008 261.718125 
L 210.443891 261.718125 
L 210.61301 259.198125 
L 219.576322 259.198125 
L 219.745441 256.678125 
L 221.605751 256.678125 
L 221.77487 254.158125 
L 225.49549 254.158125 
L 225.664609 251.638125 
L 229.21611 251.638125 
L 229.385229 249.118125 
L 233.359528 249.118125 
L 233.528647 246.598125 
L 237.164708 246.598125 
L 237.333827 244.078125 
L 245.958901 244.078125 
L 246.12802 241.558125 
L 251.79351 241.558125 
L 251.962629 239.038125 
L 254.414856 239.038125 
L 254.583975 236.518125 
L 261.940655 236.518125 
L 262.109774 233.998125 
L 263.378168 233.998125 
L 263.547287 231.478125 
L 265.576716 231.478125 
L 265.745835 228.958125 
L 268.198062 228.958125 
L 268.367181 226.438125 
L 271.918682 226.438125 
L 272.172361 221.398125 
L 275.216504 221.398125 
L 275.385623 218.878125 
L 276.738576 218.878125 
L 276.907695 216.358125 
L 278.006969 216.358125 
L 278.176089 213.838125 
L 278.937124 213.838125 
L 279.106244 211.318125 
L 280.374637 211.318125 
L 280.543756 208.798125 
L 282.234947 208.798125 
L 282.404066 206.278125 
L 283.080542 206.278125 
L 283.249661 203.758125 
L 283.41878 203.758125 
L 283.672459 198.718125 
L 283.841578 198.718125 
L 284.010697 196.198125 
L 289.591627 196.198125 
L 289.760747 193.678125 
L 290.183544 193.678125 
L 290.352663 191.158125 
L 295.087998 191.158125 
L 295.257117 188.638125 
L 296.61007 188.638125 
L 296.779189 186.118125 
L 297.286546 186.118125 
L 297.540225 181.078125 
L 298.132142 181.078125 
L 298.301261 178.558125 
L 302.952036 178.558125 
L 303.121155 170.998125 
L 303.713072 170.998125 
L 303.882191 168.478125 
L 304.220429 168.478125 
L 304.389548 165.958125 
L 307.095454 165.958125 
L 307.264573 163.438125 
L 311.069753 163.438125 
L 311.238872 160.918125 
L 313.014622 160.918125 
L 313.183741 158.398125 
L 316.650683 158.398125 
L 316.819802 155.878125 
L 319.779386 155.878125 
L 319.948505 153.358125 
L 321.639696 153.358125 
L 321.808815 150.838125 
L 323.246328 150.838125 
L 323.415447 148.318125 
L 328.489019 148.318125 
L 328.658139 145.798125 
L 330.18021 145.798125 
L 330.34933 143.278125 
L 330.518449 143.278125 
L 330.687568 140.758125 
L 331.025806 140.758125 
L 331.194925 138.238125 
L 332.12508 138.238125 
L 332.294199 135.718125 
L 337.283212 135.718125 
L 337.452332 133.198125 
L 339.397201 133.198125 
L 339.56632 130.678125 
L 340.411916 130.678125 
L 340.581035 128.158125 
L 343.202381 128.158125 
L 343.3715 125.638125 
L 344.893572 125.638125 
L 345.062691 123.118125 
L 347.853156 123.118125 
L 348.022275 120.598125 
L 349.375228 120.598125 
L 349.544347 118.078125 
L 350.220823 118.078125 
L 350.389942 115.558125 
L 350.559061 115.558125 
L 350.728181 113.038125 
L 350.81274 113.038125 
L 350.981859 110.518125 
L 351.827455 110.518125 
L 351.996574 107.998125 
L 353.011288 107.998125 
L 353.180407 105.478125 
L 353.349527 105.478125 
L 353.518646 100.438125 
L 354.53336 100.438125 
L 354.702479 97.918125 
L 364.765065 97.918125 
L 364.934185 95.398125 
L 366.202578 95.398125 
L 366.371697 92.878125 
L 368.654805 92.878125 
L 368.823924 90.358125 
L 374.489413 90.358125 
L 374.658533 87.838125 
L 377.533557 87.838125 
L 377.702676 85.318125 
L 385.228476 85.318125 
L 385.397595 82.798125 
L 387.680703 82.798125 
L 387.849822 80.278125 
L 391.485883 80.278125 
L 391.655002 77.758125 
L 392.246919 77.758125 
L 392.500597 72.718125 
L 400.195516 72.718125 
L 400.364635 70.198125 
L 401.548469 70.198125 
L 401.717588 67.678125 
L 404.677172 67.678125 
L 404.846291 65.158125 
L 405.269089 65.158125 
L 405.438208 62.638125 
L 407.636756 62.638125 
L 407.805875 60.118125 
L 409.919864 60.118125 
L 410.088983 57.598125 
L 412.202972 57.598125 
L 412.372091 55.078125 
L 437.486277 55.078125 
L 437.655396 52.558125 
L 446.703267 52.558125 
L 446.872386 50.038125 
L 447.717982 50.038125 
L 447.887101 47.518125 
L 451.607721 47.518125 
L 451.77684 44.998125 
L 452.876114 44.998125 
L 453.045233 42.478125 
L 455.074663 42.478125 
L 455.243782 39.958125 
L 456.343056 39.958125 
L 456.512175 37.438125 
L 479.427812 37.438125 
L 479.596931 34.918125 
L 576.417614 34.918125 
L 576.417614 34.918125 
" clip-path="url(#p3f40e2e64f)" style="fill: none; stroke: #e64173; stroke-width: 2; stroke-linecap: square"/>
   </g>
   <g id="line2d_15">
    <path d="M 69.144886 286.918125 
L 160.553758 286.918125 
L 160.722877 284.398125 
L 186.851777 284.398125 
L 187.020896 281.878125 
L 191.671671 281.878125 
L 191.84079 279.358125 
L 194.715815 279.358125 
L 194.884934 276.838125 
L 203.08721 276.838125 
L 203.256329 274.318125 
L 204.271044 274.318125 
L 204.440163 271.798125 
L 211.120367 271.798125 
L 211.289486 269.278125 
L 217.462333 269.278125 
L 217.631452 266.758125 
L 218.223369 266.758125 
L 218.392488 264.238125 
L 218.730726 264.238125 
L 218.899846 261.718125 
L 222.028549 261.718125 
L 222.197668 259.198125 
L 223.973418 259.198125 
L 224.142537 256.678125 
L 226.171967 256.678125 
L 226.341086 254.158125 
L 232.260254 254.158125 
L 232.429373 251.638125 
L 232.93673 251.638125 
L 233.10585 249.118125 
L 239.025018 249.118125 
L 239.194137 246.598125 
L 240.377971 246.598125 
L 240.54709 244.078125 
L 245.028746 244.078125 
L 245.197865 241.558125 
L 245.874341 241.558125 
L 246.04346 239.038125 
L 247.565532 239.038125 
L 247.734651 236.518125 
L 248.07289 236.518125 
L 248.242009 233.998125 
L 250.271438 233.998125 
L 250.440557 231.478125 
L 251.201593 231.478125 
L 251.370712 228.958125 
L 253.400141 228.958125 
L 253.56926 226.438125 
L 253.822939 226.438125 
L 253.992058 223.918125 
L 254.922213 223.918125 
L 255.091332 221.398125 
L 256.528844 221.398125 
L 256.697963 218.878125 
L 259.065631 218.878125 
L 259.23475 216.358125 
L 262.363453 216.358125 
L 262.532572 213.838125 
L 265.238478 213.838125 
L 265.407597 211.318125 
L 274.878266 211.318125 
L 275.047385 208.798125 
L 280.205518 208.798125 
L 280.374637 206.278125 
L 285.025412 206.278125 
L 285.194531 203.758125 
L 287.22396 203.758125 
L 287.393079 201.238125 
L 293.819605 201.238125 
L 293.988724 198.718125 
L 295.510796 198.718125 
L 295.679915 196.198125 
L 300.41525 196.198125 
L 300.584369 193.678125 
L 302.021881 193.678125 
L 302.191 191.158125 
L 303.882191 191.158125 
L 304.05131 188.638125 
L 306.503537 188.638125 
L 306.672656 186.118125 
L 309.124883 186.118125 
L 309.294002 183.598125 
L 316.227885 183.598125 
L 316.397004 181.078125 
L 316.481564 181.078125 
L 316.735242 176.038125 
L 319.863946 176.038125 
L 320.033065 173.518125 
L 320.540422 173.518125 
L 320.709541 170.998125 
L 323.922804 170.998125 
L 324.091923 168.478125 
L 327.727984 168.478125 
L 327.981662 163.438125 
L 328.573579 163.438125 
L 328.742698 160.918125 
L 331.194925 160.918125 
L 331.364044 158.398125 
L 335.761141 158.398125 
L 335.93026 155.878125 
L 337.452332 155.878125 
L 337.70601 150.838125 
L 338.382487 150.838125 
L 338.551606 148.318125 
L 340.919273 148.318125 
L 341.088392 145.798125 
L 342.018547 145.798125 
L 342.187666 143.278125 
L 342.441345 143.278125 
L 342.610464 140.758125 
L 343.963417 140.758125 
L 344.132536 138.238125 
L 344.555334 138.238125 
L 344.809012 133.198125 
L 346.161965 133.198125 
L 346.331084 130.678125 
L 347.599477 130.678125 
L 347.768596 128.158125 
L 347.853156 128.158125 
L 348.022275 125.638125 
L 348.275954 125.638125 
L 348.445073 123.118125 
L 351.658336 123.118125 
L 351.827455 120.598125 
L 352.081133 120.598125 
L 352.250252 118.078125 
L 355.378956 118.078125 
L 355.548075 115.558125 
L 356.985587 115.558125 
L 357.154706 113.038125 
L 357.662063 113.038125 
L 357.831183 110.518125 
L 362.820196 110.518125 
L 362.989315 102.958125 
L 363.581232 102.958125 
L 363.750351 100.438125 
L 366.879054 100.438125 
L 367.048173 97.918125 
L 372.375425 97.918125 
L 372.544544 95.398125 
L 375.673247 95.398125 
L 375.842366 92.878125 
L 378.294593 92.878125 
L 378.463712 90.358125 
L 383.199047 90.358125 
L 383.368166 87.838125 
L 386.32775 87.838125 
L 386.496869 85.318125 
L 388.864537 85.318125 
L 389.033656 82.798125 
L 389.371894 82.798125 
L 389.541013 80.278125 
L 389.710132 80.278125 
L 389.879251 77.758125 
L 391.570442 77.758125 
L 391.739561 75.238125 
L 392.331478 75.238125 
L 392.500597 72.718125 
L 392.754276 72.718125 
L 392.923395 70.198125 
L 395.206503 70.198125 
L 395.375622 67.678125 
L 404.254374 67.678125 
L 404.423493 65.158125 
L 419.390533 65.158125 
L 419.559652 62.638125 
L 420.743486 62.638125 
L 420.912605 60.118125 
L 433.342859 60.118125 
L 433.511978 57.598125 
L 441.376016 57.598125 
L 441.545135 55.078125 
L 445.688553 55.078125 
L 445.857672 52.558125 
L 453.806269 52.558125 
L 453.975388 50.038125 
L 480.527086 50.038125 
L 480.696206 47.518125 
L 482.302837 47.518125 
L 482.471956 44.998125 
L 483.148432 44.998125 
L 483.317552 42.478125 
L 508.008939 42.478125 
L 508.178059 39.958125 
L 531.093696 39.958125 
L 531.262815 37.438125 
L 552.8255 37.438125 
L 552.994619 34.918125 
L 576.417614 34.918125 
L 576.417614 34.918125 
" clip-path="url(#p3f40e2e64f)" style="fill: none; stroke: #20b2aa; stroke-width: 2; stroke-linecap: square"/>
   </g>
   <g id="patch_3">
    <path d="M 43.78125 299.518125 
L 43.78125 22.318125 
" style="fill: none; stroke: #000000; stroke-width: 0.8; stroke-linejoin: miter; stroke-linecap: square"/>
   </g>
   <g id="patch_4">
    <path d="M 601.78125 299.518125 
L 601.78125 22.318125 
" style="fill: none; stroke: #000000; stroke-width: 0.8; stroke-linejoin: miter; stroke-linecap: square"/>
   </g>
   <g id="patch_5">
    <path d="M 43.78125 299.518125 
L 601.78125 299.518125 
" style="fill: none; stroke: #000000; stroke-width: 0.8; stroke-linejoin: miter; stroke-linecap: square"/>
   </g>
   <g id="patch_6">
    <path d="M 43.78125 22.318125 
L 601.78125 22.318125 
" style="fill: none; stroke: #000000; stroke-width: 0.8; stroke-linejoin: miter; stroke-linecap: square"/>
   </g>
   <g id="text_16">
    <!-- Empirical distributions of 2 samples -->
    <g transform="translate(215.4075 16.318125) scale(0.12 -0.12)">
     <defs>
      <path id="DejaVuSans-45" d="M 628 4666 
L 3578 4666 
L 3578 4134 
L 1259 4134 
L 1259 2753 
L 3481 2753 
L 3481 2222 
L 1259 2222 
L 1259 531 
L 3634 531 
L 3634 0 
L 628 0 
L 628 4666 
z
" transform="scale(0.015625)"/>
      <path id="DejaVuSans-63" d="M 3122 3366 
L 3122 2828 
Q 2878 2963 2633 3030 
Q 2388 3097 2138 3097 
Q 1578 3097 1268 2742 
Q 959 2388 959 1747 
Q 959 1106 1268 751 
Q 1578 397 2138 397 
Q 2388 397 2633 464 
Q 2878 531 3122 666 
L 3122 134 
Q 2881 22 2623 -34 
Q 2366 -91 2075 -91 
Q 1284 -91 818 406 
Q 353 903 353 1747 
Q 353 2603 823 3093 
Q 1294 3584 2113 3584 
Q 2378 3584 2631 3529 
Q 2884 3475 3122 3366 
z
" transform="scale(0.015625)"/>
      <path id="DejaVuSans-64" d="M 2906 2969 
L 2906 4863 
L 3481 4863 
L 3481 0 
L 2906 0 
L 2906 525 
Q 2725 213 2448 61 
Q 2172 -91 1784 -91 
Q 1150 -91 751 415 
Q 353 922 353 1747 
Q 353 2572 751 3078 
Q 1150 3584 1784 3584 
Q 2172 3584 2448 3432 
Q 2725 3281 2906 2969 
z
M 947 1747 
Q 947 1113 1208 752 
Q 1469 391 1925 391 
Q 2381 391 2643 752 
Q 2906 1113 2906 1747 
Q 2906 2381 2643 2742 
Q 2381 3103 1925 3103 
Q 1469 3103 1208 2742 
Q 947 2381 947 1747 
z
" transform="scale(0.015625)"/>
      <path id="DejaVuSans-73" d="M 2834 3397 
L 2834 2853 
Q 2591 2978 2328 3040 
Q 2066 3103 1784 3103 
Q 1356 3103 1142 2972 
Q 928 2841 928 2578 
Q 928 2378 1081 2264 
Q 1234 2150 1697 2047 
L 1894 2003 
Q 2506 1872 2764 1633 
Q 3022 1394 3022 966 
Q 3022 478 2636 193 
Q 2250 -91 1575 -91 
Q 1294 -91 989 -36 
Q 684 19 347 128 
L 347 722 
Q 666 556 975 473 
Q 1284 391 1588 391 
Q 1994 391 2212 530 
Q 2431 669 2431 922 
Q 2431 1156 2273 1281 
Q 2116 1406 1581 1522 
L 1381 1569 
Q 847 1681 609 1914 
Q 372 2147 372 2553 
Q 372 3047 722 3315 
Q 1072 3584 1716 3584 
Q 2034 3584 2315 3537 
Q 2597 3491 2834 3397 
z
" transform="scale(0.015625)"/>
      <path id="DejaVuSans-6e" d="M 3513 2113 
L 3513 0 
L 2938 0 
L 2938 2094 
Q 2938 2591 2744 2837 
Q 2550 3084 2163 3084 
Q 1697 3084 1428 2787 
Q 1159 2491 1159 1978 
L 1159 0 
L 581 0 
L 581 3500 
L 1159 3500 
L 1159 2956 
Q 1366 3272 1645 3428 
Q 1925 3584 2291 3584 
Q 2894 3584 3203 3211 
Q 3513 2838 3513 2113 
z
" transform="scale(0.015625)"/>
      <path id="DejaVuSans-66" d="M 2375 4863 
L 2375 4384 
L 1825 4384 
Q 1516 4384 1395 4259 
Q 1275 4134 1275 3809 
L 1275 3500 
L 2222 3500 
L 2222 3053 
L 1275 3053 
L 1275 0 
L 697 0 
L 697 3053 
L 147 3053 
L 147 3500 
L 697 3500 
L 697 3744 
Q 697 4328 969 4595 
Q 1241 4863 1831 4863 
L 2375 4863 
z
" transform="scale(0.015625)"/>
     </defs>
     <use xlink:href="#DejaVuSans-45"/>
     <use xlink:href="#DejaVuSans-6d" x="63.183594"/>
     <use xlink:href="#DejaVuSans-70" x="160.595703"/>
     <use xlink:href="#DejaVuSans-69" x="224.072266"/>
     <use xlink:href="#DejaVuSans-72" x="251.855469"/>
     <use xlink:href="#DejaVuSans-69" x="292.96875"/>
     <use xlink:href="#DejaVuSans-63" x="320.751953"/>
     <use xlink:href="#DejaVuSans-61" x="375.732422"/>
     <use xlink:href="#DejaVuSans-6c" x="437.011719"/>
     <use xlink:href="#DejaVuSans-20" x="464.794922"/>
     <use xlink:href="#DejaVuSans-64" x="496.582031"/>
     <use xlink:href="#DejaVuSans-69" x="560.058594"/>
     <use xlink:href="#DejaVuSans-73" x="587.841797"/>
     <use xlink:href="#DejaVuSans-74" x="639.941406"/>
     <use xlink:href="#DejaVuSans-72" x="679.150391"/>
     <use xlink:href="#DejaVuSans-69" x="720.263672"/>
     <use xlink:href="#DejaVuSans-62" x="748.046875"/>
     <use xlink:href="#DejaVuSans-75" x="811.523438"/>
     <use xlink:href="#DejaVuSans-74" x="874.902344"/>
     <use xlink:href="#DejaVuSans-69" x="914.111328"/>
     <use xlink:href="#DejaVuSans-6f" x="941.894531"/>
     <use xlink:href="#DejaVuSans-6e" x="1003.076172"/>
     <use xlink:href="#DejaVuSans-73" x="1066.455078"/>
     <use xlink:href="#DejaVuSans-20" x="1118.554688"/>
     <use xlink:href="#DejaVuSans-6f" x="1150.341797"/>
     <use xlink:href="#DejaVuSans-66" x="1211.523438"/>
     <use xlink:href="#DejaVuSans-20" x="1246.728516"/>
     <use xlink:href="#DejaVuSans-32" x="1278.515625"/>
     <use xlink:href="#DejaVuSans-20" x="1342.138672"/>
     <use xlink:href="#DejaVuSans-73" x="1373.925781"/>
     <use xlink:href="#DejaVuSans-61" x="1426.025391"/>
     <use xlink:href="#DejaVuSans-6d" x="1487.304688"/>
     <use xlink:href="#DejaVuSans-70" x="1584.716797"/>
     <use xlink:href="#DejaVuSans-6c" x="1648.193359"/>
     <use xlink:href="#DejaVuSans-65" x="1675.976562"/>
     <use xlink:href="#DejaVuSans-73" x="1737.5"/>
    </g>
   </g>
   <g id="legend_1">
    <g id="patch_7">
     <path d="M 50.78125 59.674375 
L 174.596875 59.674375 
Q 176.596875 59.674375 176.596875 57.674375 
L 176.596875 29.318125 
Q 176.596875 27.318125 174.596875 27.318125 
L 50.78125 27.318125 
Q 48.78125 27.318125 48.78125 29.318125 
L 48.78125 57.674375 
Q 48.78125 59.674375 50.78125 59.674375 
z
" style="fill: #ffffff; opacity: 0.8; stroke: #cccccc; stroke-linejoin: miter"/>
    </g>
    <g id="line2d_16">
     <path d="M 52.78125 35.416562 
L 62.78125 35.416562 
L 72.78125 35.416562 
" style="fill: none; stroke: #e64173; stroke-width: 2; stroke-linecap: square"/>
    </g>
    <g id="text_17">
     <!-- empirical cdf for X -->
     <g transform="translate(80.78125 38.916562) scale(0.1 -0.1)">
      <use xlink:href="#DejaVuSans-65"/>
      <use xlink:href="#DejaVuSans-6d" x="61.523438"/>
      <use xlink:href="#DejaVuSans-70" x="158.935547"/>
      <use xlink:href="#DejaVuSans-69" x="222.412109"/>
      <use xlink:href="#DejaVuSans-72" x="250.195312"/>
      <use xlink:href="#DejaVuSans-69" x="291.308594"/>
      <use xlink:href="#DejaVuSans-63" x="319.091797"/>
      <use xlink:href="#DejaVuSans-61" x="374.072266"/>
      <use xlink:href="#DejaVuSans-6c" x="435.351562"/>
      <use xlink:href="#DejaVuSans-20" x="463.134766"/>
      <use xlink:href="#DejaVuSans-63" x="494.921875"/>
      <use xlink:href="#DejaVuSans-64" x="549.902344"/>
      <use xlink:href="#DejaVuSans-66" x="613.378906"/>
      <use xlink:href="#DejaVuSans-20" x="648.583984"/>
      <use xlink:href="#DejaVuSans-66" x="680.371094"/>
      <use xlink:href="#DejaVuSans-6f" x="715.576172"/>
      <use xlink:href="#DejaVuSans-72" x="776.757812"/>
      <use xlink:href="#DejaVuSans-20" x="817.871094"/>
      <use xlink:href="#DejaVuSans-58" x="849.658203"/>
     </g>
    </g>
    <g id="line2d_17">
     <path d="M 52.78125 50.094688 
L 62.78125 50.094688 
L 72.78125 50.094688 
" style="fill: none; stroke: #20b2aa; stroke-width: 2; stroke-linecap: square"/>
    </g>
    <g id="text_18">
     <!-- empirical cdf for Y -->
     <g transform="translate(80.78125 53.594688) scale(0.1 -0.1)">
      <defs>
       <path id="DejaVuSans-59" d="M -13 4666 
L 666 4666 
L 1959 2747 
L 3244 4666 
L 3922 4666 
L 2272 2222 
L 2272 0 
L 1638 0 
L 1638 2222 
L -13 4666 
z
" transform="scale(0.015625)"/>
      </defs>
      <use xlink:href="#DejaVuSans-65"/>
      <use xlink:href="#DejaVuSans-6d" x="61.523438"/>
      <use xlink:href="#DejaVuSans-70" x="158.935547"/>
      <use xlink:href="#DejaVuSans-69" x="222.412109"/>
      <use xlink:href="#DejaVuSans-72" x="250.195312"/>
      <use xlink:href="#DejaVuSans-69" x="291.308594"/>
      <use xlink:href="#DejaVuSans-63" x="319.091797"/>
      <use xlink:href="#DejaVuSans-61" x="374.072266"/>
      <use xlink:href="#DejaVuSans-6c" x="435.351562"/>
      <use xlink:href="#DejaVuSans-20" x="463.134766"/>
      <use xlink:href="#DejaVuSans-63" x="494.921875"/>
      <use xlink:href="#DejaVuSans-64" x="549.902344"/>
      <use xlink:href="#DejaVuSans-66" x="613.378906"/>
      <use xlink:href="#DejaVuSans-20" x="648.583984"/>
      <use xlink:href="#DejaVuSans-66" x="680.371094"/>
      <use xlink:href="#DejaVuSans-6f" x="715.576172"/>
      <use xlink:href="#DejaVuSans-72" x="776.757812"/>
      <use xlink:href="#DejaVuSans-20" x="817.871094"/>
      <use xlink:href="#DejaVuSans-59" x="849.658203"/>
     </g>
    </g>
   </g>
  </g>
 </g>
 <defs>
  <clipPath id="p3f40e2e64f">
   <rect x="43.78125" y="22.318125" width="558" height="277.2"/>
  </clipPath>
 </defs>
</svg>
