<?xml version="1.0" encoding="utf-8" standalone="no"?>
<!DOCTYPE svg PUBLIC "-//W3C//DTD SVG 1.1//EN"
  "http://www.w3.org/Graphics/SVG/1.1/DTD/svg11.dtd">
<svg xmlns:xlink="http://www.w3.org/1999/xlink" width="621.70625pt" height="337.074375pt" viewBox="0 0 621.70625 337.074375" xmlns="http://www.w3.org/2000/svg" version="1.1">
 <metadata>
  <rdf:RDF xmlns:dc="http://purl.org/dc/elements/1.1/" xmlns:cc="http://creativecommons.org/ns#" xmlns:rdf="http://www.w3.org/1999/02/22-rdf-syntax-ns#">
   <cc:Work>
    <dc:type rdf:resource="http://purl.org/dc/dcmitype/StillImage"/>
    <dc:date>2025-05-14T19:33:02.471913</dc:date>
    <dc:format>image/svg+xml</dc:format>
    <dc:creator>
     <cc:Agent>
      <dc:title>Matplotlib v3.7.2, https://matplotlib.org/</dc:title>
     </cc:Agent>
    </dc:creator>
   </cc:Work>
  </rdf:RDF>
 </metadata>
 <defs>
  <style type="text/css">*{stroke-linejoin: round; stroke-linecap: butt}</style>
 </defs>
 <g id="figure_1">
  <g id="patch_1">
   <path d="M 0 337.074375 
L 621.70625 337.074375 
L 621.70625 0 
L 0 0 
z
" style="fill: #ffffff"/>
  </g>
  <g id="axes_1">
   <g id="patch_2">
    <path d="M 56.50625 299.518125 
L 614.50625 299.518125 
L 614.50625 22.318125 
L 56.50625 22.318125 
z
" style="fill: #ffffff"/>
   </g>
   <g id="patch_3">
    <path d="M 81.869886 299.518125 
L 83.560795 299.518125 
L 83.560795 299.403114 
L 81.869886 299.403114 
z
" clip-path="url(#p25ce3b577e)" style="fill: #20b2aa"/>
   </g>
   <g id="patch_4">
    <path d="M 83.560795 299.518125 
L 85.251705 299.518125 
L 85.251705 299.337393 
L 83.560795 299.337393 
z
" clip-path="url(#p25ce3b577e)" style="fill: #20b2aa"/>
   </g>
   <g id="patch_5">
    <path d="M 85.251705 299.518125 
L 86.942614 299.518125 
L 86.942614 298.828058 
L 85.251705 298.828058 
z
" clip-path="url(#p25ce3b577e)" style="fill: #20b2aa"/>
   </g>
   <g id="patch_6">
    <path d="M 86.942614 299.518125 
L 88.633523 299.518125 
L 88.633523 298.483024 
L 86.942614 298.483024 
z
" clip-path="url(#p25ce3b577e)" style="fill: #20b2aa"/>
   </g>
   <g id="patch_7">
    <path d="M 88.633523 299.518125 
L 90.324432 299.518125 
L 90.324432 297.464354 
L 88.633523 297.464354 
z
" clip-path="url(#p25ce3b577e)" style="fill: #20b2aa"/>
   </g>
   <g id="patch_8">
    <path d="M 90.324432 299.518125 
L 92.015341 299.518125 
L 92.015341 295.821336 
L 90.324432 295.821336 
z
" clip-path="url(#p25ce3b577e)" style="fill: #20b2aa"/>
   </g>
   <g id="patch_9">
    <path d="M 92.015341 299.518125 
L 93.70625 299.518125 
L 93.70625 293.685414 
L 92.015341 293.685414 
z
" clip-path="url(#p25ce3b577e)" style="fill: #20b2aa"/>
   </g>
   <g id="patch_10">
    <path d="M 93.70625 299.518125 
L 95.397159 299.518125 
L 95.397159 289.922905 
L 93.70625 289.922905 
z
" clip-path="url(#p25ce3b577e)" style="fill: #20b2aa"/>
   </g>
   <g id="patch_11">
    <path d="M 95.397159 299.518125 
L 97.088068 299.518125 
L 97.088068 286.258976 
L 95.397159 286.258976 
z
" clip-path="url(#p25ce3b577e)" style="fill: #20b2aa"/>
   </g>
   <g id="patch_12">
    <path d="M 97.088068 299.518125 
L 98.778977 299.518125 
L 98.778977 282.841501 
L 97.088068 282.841501 
z
" clip-path="url(#p25ce3b577e)" style="fill: #20b2aa"/>
   </g>
   <g id="patch_13">
    <path d="M 98.778977 299.518125 
L 100.469886 299.518125 
L 100.469886 279.161142 
L 98.778977 279.161142 
z
" clip-path="url(#p25ce3b577e)" style="fill: #20b2aa"/>
   </g>
   <g id="patch_14">
    <path d="M 100.469886 299.518125 
L 102.160795 299.518125 
L 102.160795 272.851956 
L 100.469886 272.851956 
z
" clip-path="url(#p25ce3b577e)" style="fill: #20b2aa"/>
   </g>
   <g id="patch_15">
    <path d="M 102.160795 299.518125 
L 103.851705 299.518125 
L 103.851705 267.44643 
L 102.160795 267.44643 
z
" clip-path="url(#p25ce3b577e)" style="fill: #20b2aa"/>
   </g>
   <g id="patch_16">
    <path d="M 103.851705 299.518125 
L 105.542614 299.518125 
L 105.542614 259.576377 
L 103.851705 259.576377 
z
" clip-path="url(#p25ce3b577e)" style="fill: #20b2aa"/>
   </g>
   <g id="patch_17">
    <path d="M 105.542614 299.518125 
L 107.233523 299.518125 
L 107.233523 252.938588 
L 105.542614 252.938588 
z
" clip-path="url(#p25ce3b577e)" style="fill: #20b2aa"/>
   </g>
   <g id="patch_18">
    <path d="M 107.233523 299.518125 
L 108.924432 299.518125 
L 108.924432 244.871374 
L 107.233523 244.871374 
z
" clip-path="url(#p25ce3b577e)" style="fill: #20b2aa"/>
   </g>
   <g id="patch_19">
    <path d="M 108.924432 299.518125 
L 110.615341 299.518125 
L 110.615341 235.818349 
L 108.924432 235.818349 
z
" clip-path="url(#p25ce3b577e)" style="fill: #20b2aa"/>
   </g>
   <g id="patch_20">
    <path d="M 110.615341 299.518125 
L 112.30625 299.518125 
L 112.30625 228.523353 
L 110.615341 228.523353 
z
" clip-path="url(#p25ce3b577e)" style="fill: #20b2aa"/>
   </g>
   <g id="patch_21">
    <path d="M 112.30625 299.518125 
L 113.997159 299.518125 
L 113.997159 215.987132 
L 112.30625 215.987132 
z
" clip-path="url(#p25ce3b577e)" style="fill: #20b2aa"/>
   </g>
   <g id="patch_22">
    <path d="M 113.997159 299.518125 
L 115.688068 299.518125 
L 115.688068 204.962486 
L 113.997159 204.962486 
z
" clip-path="url(#p25ce3b577e)" style="fill: #20b2aa"/>
   </g>
   <g id="patch_23">
    <path d="M 115.688068 299.518125 
L 117.378977 299.518125 
L 117.378977 200.312748 
L 115.688068 200.312748 
z
" clip-path="url(#p25ce3b577e)" style="fill: #20b2aa"/>
   </g>
   <g id="patch_24">
    <path d="M 117.378977 299.518125 
L 119.069886 299.518125 
L 119.069886 189.189522 
L 117.378977 189.189522 
z
" clip-path="url(#p25ce3b577e)" style="fill: #20b2aa"/>
   </g>
   <g id="patch_25">
    <path d="M 119.069886 299.518125 
L 120.760795 299.518125 
L 120.760795 178.279888 
L 119.069886 178.279888 
z
" clip-path="url(#p25ce3b577e)" style="fill: #20b2aa"/>
   </g>
   <g id="patch_26">
    <path d="M 120.760795 299.518125 
L 122.451705 299.518125 
L 122.451705 169.078991 
L 120.760795 169.078991 
z
" clip-path="url(#p25ce3b577e)" style="fill: #20b2aa"/>
   </g>
   <g id="patch_27">
    <path d="M 122.451705 299.518125 
L 124.142614 299.518125 
L 124.142614 159.467341 
L 122.451705 159.467341 
z
" clip-path="url(#p25ce3b577e)" style="fill: #20b2aa"/>
   </g>
   <g id="patch_28">
    <path d="M 124.142614 299.518125 
L 125.833523 299.518125 
L 125.833523 148.524846 
L 124.142614 148.524846 
z
" clip-path="url(#p25ce3b577e)" style="fill: #20b2aa"/>
   </g>
   <g id="patch_29">
    <path d="M 125.833523 299.518125 
L 127.524432 299.518125 
L 127.524432 141.361292 
L 125.833523 141.361292 
z
" clip-path="url(#p25ce3b577e)" style="fill: #20b2aa"/>
   </g>
   <g id="patch_30">
    <path d="M 127.524432 299.518125 
L 129.215341 299.518125 
L 129.215341 129.153674 
L 127.524432 129.153674 
z
" clip-path="url(#p25ce3b577e)" style="fill: #20b2aa"/>
   </g>
   <g id="patch_31">
    <path d="M 129.215341 299.518125 
L 130.90625 299.518125 
L 130.90625 122.022979 
L 129.215341 122.022979 
z
" clip-path="url(#p25ce3b577e)" style="fill: #20b2aa"/>
   </g>
   <g id="patch_32">
    <path d="M 130.90625 299.518125 
L 132.597159 299.518125 
L 132.597159 109.733211 
L 130.90625 109.733211 
z
" clip-path="url(#p25ce3b577e)" style="fill: #20b2aa"/>
   </g>
   <g id="patch_33">
    <path d="M 132.597159 299.518125 
L 134.288068 299.518125 
L 134.288068 103.029701 
L 132.597159 103.029701 
z
" clip-path="url(#p25ce3b577e)" style="fill: #20b2aa"/>
   </g>
   <g id="patch_34">
    <path d="M 134.288068 299.518125 
L 135.978977 299.518125 
L 135.978977 96.523353 
L 134.288068 96.523353 
z
" clip-path="url(#p25ce3b577e)" style="fill: #20b2aa"/>
   </g>
   <g id="patch_35">
    <path d="M 135.978977 299.518125 
L 137.669886 299.518125 
L 137.669886 87.355317 
L 135.978977 87.355317 
z
" clip-path="url(#p25ce3b577e)" style="fill: #20b2aa"/>
   </g>
   <g id="patch_36">
    <path d="M 137.669886 299.518125 
L 139.360795 299.518125 
L 139.360795 81.210433 
L 137.669886 81.210433 
z
" clip-path="url(#p25ce3b577e)" style="fill: #20b2aa"/>
   </g>
   <g id="patch_37">
    <path d="M 139.360795 299.518125 
L 141.051705 299.518125 
L 141.051705 71.450911 
L 139.360795 71.450911 
z
" clip-path="url(#p25ce3b577e)" style="fill: #20b2aa"/>
   </g>
   <g id="patch_38">
    <path d="M 141.051705 299.518125 
L 142.742614 299.518125 
L 142.742614 66.981904 
L 141.051705 66.981904 
z
" clip-path="url(#p25ce3b577e)" style="fill: #20b2aa"/>
   </g>
   <g id="patch_39">
    <path d="M 142.742614 299.518125 
L 144.433523 299.518125 
L 144.433523 61.82283 
L 142.742614 61.82283 
z
" clip-path="url(#p25ce3b577e)" style="fill: #20b2aa"/>
   </g>
   <g id="patch_40">
    <path d="M 144.433523 299.518125 
L 146.124432 299.518125 
L 146.124432 57.04165 
L 144.433523 57.04165 
z
" clip-path="url(#p25ce3b577e)" style="fill: #20b2aa"/>
   </g>
   <g id="patch_41">
    <path d="M 146.124432 299.518125 
L 147.815341 299.518125 
L 147.815341 56.220141 
L 146.124432 56.220141 
z
" clip-path="url(#p25ce3b577e)" style="fill: #20b2aa"/>
   </g>
   <g id="patch_42">
    <path d="M 147.815341 299.518125 
L 149.50625 299.518125 
L 149.50625 48.350089 
L 147.815341 48.350089 
z
" clip-path="url(#p25ce3b577e)" style="fill: #20b2aa"/>
   </g>
   <g id="patch_43">
    <path d="M 149.50625 299.518125 
L 151.197159 299.518125 
L 151.197159 43.338887 
L 149.50625 43.338887 
z
" clip-path="url(#p25ce3b577e)" style="fill: #20b2aa"/>
   </g>
   <g id="patch_44">
    <path d="M 151.197159 299.518125 
L 152.888068 299.518125 
L 152.888068 43.092434 
L 151.197159 43.092434 
z
" clip-path="url(#p25ce3b577e)" style="fill: #20b2aa"/>
   </g>
   <g id="patch_45">
    <path d="M 152.888068 299.518125 
L 154.578977 299.518125 
L 154.578977 41.893032 
L 152.888068 41.893032 
z
" clip-path="url(#p25ce3b577e)" style="fill: #20b2aa"/>
   </g>
   <g id="patch_46">
    <path d="M 154.578977 299.518125 
L 156.269886 299.518125 
L 156.269886 41.137244 
L 154.578977 41.137244 
z
" clip-path="url(#p25ce3b577e)" style="fill: #20b2aa"/>
   </g>
   <g id="patch_47">
    <path d="M 156.269886 299.518125 
L 157.960795 299.518125 
L 157.960795 39.609238 
L 156.269886 39.609238 
z
" clip-path="url(#p25ce3b577e)" style="fill: #20b2aa"/>
   </g>
   <g id="patch_48">
    <path d="M 157.960795 299.518125 
L 159.651705 299.518125 
L 159.651705 35.518125 
L 157.960795 35.518125 
z
" clip-path="url(#p25ce3b577e)" style="fill: #20b2aa"/>
   </g>
   <g id="patch_49">
    <path d="M 159.651705 299.518125 
L 161.342614 299.518125 
L 161.342614 37.013271 
L 159.651705 37.013271 
z
" clip-path="url(#p25ce3b577e)" style="fill: #20b2aa"/>
   </g>
   <g id="patch_50">
    <path d="M 161.342614 299.518125 
L 163.033523 299.518125 
L 163.033523 35.912449 
L 161.342614 35.912449 
z
" clip-path="url(#p25ce3b577e)" style="fill: #20b2aa"/>
   </g>
   <g id="patch_51">
    <path d="M 163.033523 299.518125 
L 164.724432 299.518125 
L 164.724432 37.473315 
L 163.033523 37.473315 
z
" clip-path="url(#p25ce3b577e)" style="fill: #20b2aa"/>
   </g>
   <g id="patch_52">
    <path d="M 164.724432 299.518125 
L 166.415341 299.518125 
L 166.415341 35.748147 
L 164.724432 35.748147 
z
" clip-path="url(#p25ce3b577e)" style="fill: #20b2aa"/>
   </g>
   <g id="patch_53">
    <path d="M 166.415341 299.518125 
L 168.10625 299.518125 
L 168.10625 40.299305 
L 166.415341 40.299305 
z
" clip-path="url(#p25ce3b577e)" style="fill: #20b2aa"/>
   </g>
   <g id="patch_54">
    <path d="M 168.10625 299.518125 
L 169.797159 299.518125 
L 169.797159 40.496467 
L 168.10625 40.496467 
z
" clip-path="url(#p25ce3b577e)" style="fill: #20b2aa"/>
   </g>
   <g id="patch_55">
    <path d="M 169.797159 299.518125 
L 171.488068 299.518125 
L 171.488068 44.242546 
L 169.797159 44.242546 
z
" clip-path="url(#p25ce3b577e)" style="fill: #20b2aa"/>
   </g>
   <g id="patch_56">
    <path d="M 171.488068 299.518125 
L 173.178977 299.518125 
L 173.178977 46.805653 
L 171.488068 46.805653 
z
" clip-path="url(#p25ce3b577e)" style="fill: #20b2aa"/>
   </g>
   <g id="patch_57">
    <path d="M 173.178977 299.518125 
L 174.869886 299.518125 
L 174.869886 46.279888 
L 173.178977 46.279888 
z
" clip-path="url(#p25ce3b577e)" style="fill: #20b2aa"/>
   </g>
   <g id="patch_58">
    <path d="M 174.869886 299.518125 
L 176.560795 299.518125 
L 176.560795 51.241799 
L 174.869886 51.241799 
z
" clip-path="url(#p25ce3b577e)" style="fill: #20b2aa"/>
   </g>
   <g id="patch_59">
    <path d="M 176.560795 299.518125 
L 178.251705 299.518125 
L 178.251705 51.767565 
L 176.560795 51.767565 
z
" clip-path="url(#p25ce3b577e)" style="fill: #20b2aa"/>
   </g>
   <g id="patch_60">
    <path d="M 178.251705 299.518125 
L 179.942614 299.518125 
L 179.942614 57.255242 
L 178.251705 57.255242 
z
" clip-path="url(#p25ce3b577e)" style="fill: #20b2aa"/>
   </g>
   <g id="patch_61">
    <path d="M 179.942614 299.518125 
L 181.633523 299.518125 
L 181.633523 60.952031 
L 179.942614 60.952031 
z
" clip-path="url(#p25ce3b577e)" style="fill: #20b2aa"/>
   </g>
   <g id="patch_62">
    <path d="M 181.633523 299.518125 
L 183.324432 299.518125 
L 183.324432 64.895272 
L 181.633523 64.895272 
z
" clip-path="url(#p25ce3b577e)" style="fill: #20b2aa"/>
   </g>
   <g id="patch_63">
    <path d="M 183.324432 299.518125 
L 185.015341 299.518125 
L 185.015341 64.353076 
L 183.324432 64.353076 
z
" clip-path="url(#p25ce3b577e)" style="fill: #20b2aa"/>
   </g>
   <g id="patch_64">
    <path d="M 185.015341 299.518125 
L 186.70625 299.518125 
L 186.70625 74.112598 
L 185.015341 74.112598 
z
" clip-path="url(#p25ce3b577e)" style="fill: #20b2aa"/>
   </g>
   <g id="patch_65">
    <path d="M 186.70625 299.518125 
L 188.397159 299.518125 
L 188.397159 77.464354 
L 186.70625 77.464354 
z
" clip-path="url(#p25ce3b577e)" style="fill: #20b2aa"/>
   </g>
   <g id="patch_66">
    <path d="M 188.397159 299.518125 
L 190.088068 299.518125 
L 190.088068 76.330672 
L 188.397159 76.330672 
z
" clip-path="url(#p25ce3b577e)" style="fill: #20b2aa"/>
   </g>
   <g id="patch_67">
    <path d="M 190.088068 299.518125 
L 191.778977 299.518125 
L 191.778977 86.369507 
L 190.088068 86.369507 
z
" clip-path="url(#p25ce3b577e)" style="fill: #20b2aa"/>
   </g>
   <g id="patch_68">
    <path d="M 191.778977 299.518125 
L 193.469886 299.518125 
L 193.469886 91.380709 
L 191.778977 91.380709 
z
" clip-path="url(#p25ce3b577e)" style="fill: #20b2aa"/>
   </g>
   <g id="patch_69">
    <path d="M 193.469886 299.518125 
L 195.160795 299.518125 
L 195.160795 95.406101 
L 193.469886 95.406101 
z
" clip-path="url(#p25ce3b577e)" style="fill: #20b2aa"/>
   </g>
   <g id="patch_70">
    <path d="M 195.160795 299.518125 
L 196.851705 299.518125 
L 196.851705 99.858678 
L 195.160795 99.858678 
z
" clip-path="url(#p25ce3b577e)" style="fill: #20b2aa"/>
   </g>
   <g id="patch_71">
    <path d="M 196.851705 299.518125 
L 198.542614 299.518125 
L 198.542614 101.370253 
L 196.851705 101.370253 
z
" clip-path="url(#p25ce3b577e)" style="fill: #20b2aa"/>
   </g>
   <g id="patch_72">
    <path d="M 198.542614 299.518125 
L 200.233523 299.518125 
L 200.233523 107.77802 
L 198.542614 107.77802 
z
" clip-path="url(#p25ce3b577e)" style="fill: #20b2aa"/>
   </g>
   <g id="patch_73">
    <path d="M 200.233523 299.518125 
L 201.924432 299.518125 
L 201.924432 114.300799 
L 200.233523 114.300799 
z
" clip-path="url(#p25ce3b577e)" style="fill: #20b2aa"/>
   </g>
   <g id="patch_74">
    <path d="M 201.924432 299.518125 
L 203.615341 299.518125 
L 203.615341 121.497214 
L 201.924432 121.497214 
z
" clip-path="url(#p25ce3b577e)" style="fill: #20b2aa"/>
   </g>
   <g id="patch_75">
    <path d="M 203.615341 299.518125 
L 205.30625 299.518125 
L 205.30625 125.539036 
L 203.615341 125.539036 
z
" clip-path="url(#p25ce3b577e)" style="fill: #20b2aa"/>
   </g>
   <g id="patch_76">
    <path d="M 205.30625 299.518125 
L 206.997159 299.518125 
L 206.997159 129.317976 
L 205.30625 129.317976 
z
" clip-path="url(#p25ce3b577e)" style="fill: #20b2aa"/>
   </g>
   <g id="patch_77">
    <path d="M 206.997159 299.518125 
L 208.688068 299.518125 
L 208.688068 135.857184 
L 206.997159 135.857184 
z
" clip-path="url(#p25ce3b577e)" style="fill: #20b2aa"/>
   </g>
   <g id="patch_78">
    <path d="M 208.688068 299.518125 
L 210.378977 299.518125 
L 210.378977 140.753375 
L 208.688068 140.753375 
z
" clip-path="url(#p25ce3b577e)" style="fill: #20b2aa"/>
   </g>
   <g id="patch_79">
    <path d="M 210.378977 299.518125 
L 212.069886 299.518125 
L 212.069886 146.076751 
L 210.378977 146.076751 
z
" clip-path="url(#p25ce3b577e)" style="fill: #20b2aa"/>
   </g>
   <g id="patch_80">
    <path d="M 212.069886 299.518125 
L 213.760795 299.518125 
L 213.760795 150.660769 
L 212.069886 150.660769 
z
" clip-path="url(#p25ce3b577e)" style="fill: #20b2aa"/>
   </g>
   <g id="patch_81">
    <path d="M 213.760795 299.518125 
L 215.451705 299.518125 
L 215.451705 155.507669 
L 213.760795 155.507669 
z
" clip-path="url(#p25ce3b577e)" style="fill: #20b2aa"/>
   </g>
   <g id="patch_82">
    <path d="M 215.451705 299.518125 
L 217.142614 299.518125 
L 217.142614 158.941575 
L 215.451705 158.941575 
z
" clip-path="url(#p25ce3b577e)" style="fill: #20b2aa"/>
   </g>
   <g id="patch_83">
    <path d="M 217.142614 299.518125 
L 218.833523 299.518125 
L 218.833523 163.542023 
L 217.142614 163.542023 
z
" clip-path="url(#p25ce3b577e)" style="fill: #20b2aa"/>
   </g>
   <g id="patch_84">
    <path d="M 218.833523 299.518125 
L 220.524432 299.518125 
L 220.524432 169.752628 
L 218.833523 169.752628 
z
" clip-path="url(#p25ce3b577e)" style="fill: #20b2aa"/>
   </g>
   <g id="patch_85">
    <path d="M 220.524432 299.518125 
L 222.215341 299.518125 
L 222.215341 170.294824 
L 220.524432 170.294824 
z
" clip-path="url(#p25ce3b577e)" style="fill: #20b2aa"/>
   </g>
   <g id="patch_86">
    <path d="M 222.215341 299.518125 
L 223.90625 299.518125 
L 223.90625 179.545011 
L 222.215341 179.545011 
z
" clip-path="url(#p25ce3b577e)" style="fill: #20b2aa"/>
   </g>
   <g id="patch_87">
    <path d="M 223.90625 299.518125 
L 225.597159 299.518125 
L 225.597159 180.530821 
L 223.90625 180.530821 
z
" clip-path="url(#p25ce3b577e)" style="fill: #20b2aa"/>
   </g>
   <g id="patch_88">
    <path d="M 225.597159 299.518125 
L 227.288068 299.518125 
L 227.288068 187.562935 
L 225.597159 187.562935 
z
" clip-path="url(#p25ce3b577e)" style="fill: #20b2aa"/>
   </g>
   <g id="patch_89">
    <path d="M 227.288068 299.518125 
L 228.978977 299.518125 
L 228.978977 188.450164 
L 227.288068 188.450164 
z
" clip-path="url(#p25ce3b577e)" style="fill: #20b2aa"/>
   </g>
   <g id="patch_90">
    <path d="M 228.978977 299.518125 
L 230.669886 299.518125 
L 230.669886 193.740679 
L 228.978977 193.740679 
z
" clip-path="url(#p25ce3b577e)" style="fill: #20b2aa"/>
   </g>
   <g id="patch_91">
    <path d="M 230.669886 299.518125 
L 232.360795 299.518125 
L 232.360795 197.519619 
L 230.669886 197.519619 
z
" clip-path="url(#p25ce3b577e)" style="fill: #20b2aa"/>
   </g>
   <g id="patch_92">
    <path d="M 232.360795 299.518125 
L 234.051705 299.518125 
L 234.051705 199.113345 
L 232.360795 199.113345 
z
" clip-path="url(#p25ce3b577e)" style="fill: #20b2aa"/>
   </g>
   <g id="patch_93">
    <path d="M 234.051705 299.518125 
L 235.742614 299.518125 
L 235.742614 203.648073 
L 234.051705 203.648073 
z
" clip-path="url(#p25ce3b577e)" style="fill: #20b2aa"/>
   </g>
   <g id="patch_94">
    <path d="M 235.742614 299.518125 
L 237.433523 299.518125 
L 237.433523 207.640604 
L 235.742614 207.640604 
z
" clip-path="url(#p25ce3b577e)" style="fill: #20b2aa"/>
   </g>
   <g id="patch_95">
    <path d="M 237.433523 299.518125 
L 239.124432 299.518125 
L 239.124432 211.238812 
L 237.433523 211.238812 
z
" clip-path="url(#p25ce3b577e)" style="fill: #20b2aa"/>
   </g>
   <g id="patch_96">
    <path d="M 239.124432 299.518125 
L 240.815341 299.518125 
L 240.815341 215.346355 
L 239.124432 215.346355 
z
" clip-path="url(#p25ce3b577e)" style="fill: #20b2aa"/>
   </g>
   <g id="patch_97">
    <path d="M 240.815341 299.518125 
L 242.50625 299.518125 
L 242.50625 219.141725 
L 240.815341 219.141725 
z
" clip-path="url(#p25ce3b577e)" style="fill: #20b2aa"/>
   </g>
   <g id="patch_98">
    <path d="M 242.50625 299.518125 
L 244.197159 299.518125 
L 244.197159 221.031194 
L 242.50625 221.031194 
z
" clip-path="url(#p25ce3b577e)" style="fill: #20b2aa"/>
   </g>
   <g id="patch_99">
    <path d="M 244.197159 299.518125 
L 245.888068 299.518125 
L 245.888068 224.974436 
L 244.197159 224.974436 
z
" clip-path="url(#p25ce3b577e)" style="fill: #20b2aa"/>
   </g>
   <g id="patch_100">
    <path d="M 245.888068 299.518125 
L 247.578977 299.518125 
L 247.578977 226.32171 
L 245.888068 226.32171 
z
" clip-path="url(#p25ce3b577e)" style="fill: #20b2aa"/>
   </g>
   <g id="patch_101">
    <path d="M 247.578977 299.518125 
L 249.269886 299.518125 
L 249.269886 230.938588 
L 247.578977 230.938588 
z
" clip-path="url(#p25ce3b577e)" style="fill: #20b2aa"/>
   </g>
   <g id="patch_102">
    <path d="M 249.269886 299.518125 
L 250.960795 299.518125 
L 250.960795 234.339634 
L 249.269886 234.339634 
z
" clip-path="url(#p25ce3b577e)" style="fill: #20b2aa"/>
   </g>
   <g id="patch_103">
    <path d="M 250.960795 299.518125 
L 252.651705 299.518125 
L 252.651705 236.787729 
L 250.960795 236.787729 
z
" clip-path="url(#p25ce3b577e)" style="fill: #20b2aa"/>
   </g>
   <g id="patch_104">
    <path d="M 252.651705 299.518125 
L 254.342614 299.518125 
L 254.342614 240.123054 
L 252.651705 240.123054 
z
" clip-path="url(#p25ce3b577e)" style="fill: #20b2aa"/>
   </g>
   <g id="patch_105">
    <path d="M 254.342614 299.518125 
L 256.033523 299.518125 
L 256.033523 241.141725 
L 254.342614 241.141725 
z
" clip-path="url(#p25ce3b577e)" style="fill: #20b2aa"/>
   </g>
   <g id="patch_106">
    <path d="M 256.033523 299.518125 
L 257.724432 299.518125 
L 257.724432 243.869133 
L 256.033523 243.869133 
z
" clip-path="url(#p25ce3b577e)" style="fill: #20b2aa"/>
   </g>
   <g id="patch_107">
    <path d="M 257.724432 299.518125 
L 259.415341 299.518125 
L 259.415341 247.105877 
L 257.724432 247.105877 
z
" clip-path="url(#p25ce3b577e)" style="fill: #20b2aa"/>
   </g>
   <g id="patch_108">
    <path d="M 259.415341 299.518125 
L 261.10625 299.518125 
L 261.10625 247.138737 
L 259.415341 247.138737 
z
" clip-path="url(#p25ce3b577e)" style="fill: #20b2aa"/>
   </g>
   <g id="patch_109">
    <path d="M 261.10625 299.518125 
L 262.797159 299.518125 
L 262.797159 250.26047 
L 261.10625 250.26047 
z
" clip-path="url(#p25ce3b577e)" style="fill: #20b2aa"/>
   </g>
   <g id="patch_110">
    <path d="M 262.797159 299.518125 
L 264.488068 299.518125 
L 264.488068 254.959499 
L 262.797159 254.959499 
z
" clip-path="url(#p25ce3b577e)" style="fill: #20b2aa"/>
   </g>
   <g id="patch_111">
    <path d="M 264.488068 299.518125 
L 266.178977 299.518125 
L 266.178977 254.384443 
L 264.488068 254.384443 
z
" clip-path="url(#p25ce3b577e)" style="fill: #20b2aa"/>
   </g>
   <g id="patch_112">
    <path d="M 266.178977 299.518125 
L 267.869886 299.518125 
L 267.869886 257.177572 
L 266.178977 257.177572 
z
" clip-path="url(#p25ce3b577e)" style="fill: #20b2aa"/>
   </g>
   <g id="patch_113">
    <path d="M 267.869886 299.518125 
L 269.560795 299.518125 
L 269.560795 259.362785 
L 267.869886 259.362785 
z
" clip-path="url(#p25ce3b577e)" style="fill: #20b2aa"/>
   </g>
   <g id="patch_114">
    <path d="M 269.560795 299.518125 
L 271.251705 299.518125 
L 271.251705 261.72873 
L 269.560795 261.72873 
z
" clip-path="url(#p25ce3b577e)" style="fill: #20b2aa"/>
   </g>
   <g id="patch_115">
    <path d="M 271.251705 299.518125 
L 272.942614 299.518125 
L 272.942614 262.073764 
L 271.251705 262.073764 
z
" clip-path="url(#p25ce3b577e)" style="fill: #20b2aa"/>
   </g>
   <g id="patch_116">
    <path d="M 272.942614 299.518125 
L 274.633523 299.518125 
L 274.633523 265.474809 
L 272.942614 265.474809 
z
" clip-path="url(#p25ce3b577e)" style="fill: #20b2aa"/>
   </g>
   <g id="patch_117">
    <path d="M 274.633523 299.518125 
L 276.324432 299.518125 
L 276.324432 265.869133 
L 274.633523 265.869133 
z
" clip-path="url(#p25ce3b577e)" style="fill: #20b2aa"/>
   </g>
   <g id="patch_118">
    <path d="M 276.324432 299.518125 
L 278.015341 299.518125 
L 278.015341 267.528581 
L 276.324432 267.528581 
z
" clip-path="url(#p25ce3b577e)" style="fill: #20b2aa"/>
   </g>
   <g id="patch_119">
    <path d="M 278.015341 299.518125 
L 279.70625 299.518125 
L 279.70625 267.380709 
L 278.015341 267.380709 
z
" clip-path="url(#p25ce3b577e)" style="fill: #20b2aa"/>
   </g>
   <g id="patch_120">
    <path d="M 279.70625 299.518125 
L 281.397159 299.518125 
L 281.397159 270.946056 
L 279.70625 270.946056 
z
" clip-path="url(#p25ce3b577e)" style="fill: #20b2aa"/>
   </g>
   <g id="patch_121">
    <path d="M 281.397159 299.518125 
L 283.088068 299.518125 
L 283.088068 272.21118 
L 281.397159 272.21118 
z
" clip-path="url(#p25ce3b577e)" style="fill: #20b2aa"/>
   </g>
   <g id="patch_122">
    <path d="M 283.088068 299.518125 
L 284.778977 299.518125 
L 284.778977 273.344861 
L 283.088068 273.344861 
z
" clip-path="url(#p25ce3b577e)" style="fill: #20b2aa"/>
   </g>
   <g id="patch_123">
    <path d="M 284.778977 299.518125 
L 286.469886 299.518125 
L 286.469886 274.823577 
L 284.778977 274.823577 
z
" clip-path="url(#p25ce3b577e)" style="fill: #20b2aa"/>
   </g>
   <g id="patch_124">
    <path d="M 286.469886 299.518125 
L 288.160795 299.518125 
L 288.160795 275.10289 
L 286.469886 275.10289 
z
" clip-path="url(#p25ce3b577e)" style="fill: #20b2aa"/>
   </g>
   <g id="patch_125">
    <path d="M 288.160795 299.518125 
L 289.851705 299.518125 
L 289.851705 276.745907 
L 288.160795 276.745907 
z
" clip-path="url(#p25ce3b577e)" style="fill: #20b2aa"/>
   </g>
   <g id="patch_126">
    <path d="M 289.851705 299.518125 
L 291.542614 299.518125 
L 291.542614 277.748147 
L 289.851705 277.748147 
z
" clip-path="url(#p25ce3b577e)" style="fill: #20b2aa"/>
   </g>
   <g id="patch_127">
    <path d="M 291.542614 299.518125 
L 293.233523 299.518125 
L 293.233523 278.848969 
L 291.542614 278.848969 
z
" clip-path="url(#p25ce3b577e)" style="fill: #20b2aa"/>
   </g>
   <g id="patch_128">
    <path d="M 293.233523 299.518125 
L 294.924432 299.518125 
L 294.924432 279.834779 
L 293.233523 279.834779 
z
" clip-path="url(#p25ce3b577e)" style="fill: #20b2aa"/>
   </g>
   <g id="patch_129">
    <path d="M 294.924432 299.518125 
L 296.615341 299.518125 
L 296.615341 281.395646 
L 294.924432 281.395646 
z
" clip-path="url(#p25ce3b577e)" style="fill: #20b2aa"/>
   </g>
   <g id="patch_130">
    <path d="M 296.615341 299.518125 
L 298.30625 299.518125 
L 298.30625 281.78997 
L 296.615341 281.78997 
z
" clip-path="url(#p25ce3b577e)" style="fill: #20b2aa"/>
   </g>
   <g id="patch_131">
    <path d="M 298.30625 299.518125 
L 299.997159 299.518125 
L 299.997159 283.219395 
L 298.30625 283.219395 
z
" clip-path="url(#p25ce3b577e)" style="fill: #20b2aa"/>
   </g>
   <g id="patch_132">
    <path d="M 299.997159 299.518125 
L 301.688068 299.518125 
L 301.688068 282.381456 
L 299.997159 282.381456 
z
" clip-path="url(#p25ce3b577e)" style="fill: #20b2aa"/>
   </g>
   <g id="patch_133">
    <path d="M 301.688068 299.518125 
L 303.378977 299.518125 
L 303.378977 284.090194 
L 301.688068 284.090194 
z
" clip-path="url(#p25ce3b577e)" style="fill: #20b2aa"/>
   </g>
   <g id="patch_134">
    <path d="M 303.378977 299.518125 
L 305.069886 299.518125 
L 305.069886 285.864652 
L 303.378977 285.864652 
z
" clip-path="url(#p25ce3b577e)" style="fill: #20b2aa"/>
   </g>
   <g id="patch_135">
    <path d="M 305.069886 299.518125 
L 306.760795 299.518125 
L 306.760795 285.881082 
L 305.069886 285.881082 
z
" clip-path="url(#p25ce3b577e)" style="fill: #20b2aa"/>
   </g>
   <g id="patch_136">
    <path d="M 306.760795 299.518125 
L 308.451705 299.518125 
L 308.451705 286.702591 
L 306.760795 286.702591 
z
" clip-path="url(#p25ce3b577e)" style="fill: #20b2aa"/>
   </g>
   <g id="patch_137">
    <path d="M 308.451705 299.518125 
L 310.142614 299.518125 
L 310.142614 287.080485 
L 308.451705 287.080485 
z
" clip-path="url(#p25ce3b577e)" style="fill: #20b2aa"/>
   </g>
   <g id="patch_138">
    <path d="M 310.142614 299.518125 
L 311.833523 299.518125 
L 311.833523 288.411329 
L 310.142614 288.411329 
z
" clip-path="url(#p25ce3b577e)" style="fill: #20b2aa"/>
   </g>
   <g id="patch_139">
    <path d="M 311.833523 299.518125 
L 313.524432 299.518125 
L 313.524432 287.458379 
L 311.833523 287.458379 
z
" clip-path="url(#p25ce3b577e)" style="fill: #20b2aa"/>
   </g>
   <g id="patch_140">
    <path d="M 313.524432 299.518125 
L 315.215341 299.518125 
L 315.215341 289.51215 
L 313.524432 289.51215 
z
" clip-path="url(#p25ce3b577e)" style="fill: #20b2aa"/>
   </g>
   <g id="patch_141">
    <path d="M 315.215341 299.518125 
L 316.90625 299.518125 
L 316.90625 289.988625 
L 315.215341 289.988625 
z
" clip-path="url(#p25ce3b577e)" style="fill: #20b2aa"/>
   </g>
   <g id="patch_142">
    <path d="M 316.90625 299.518125 
L 318.597159 299.518125 
L 318.597159 290.629402 
L 316.90625 290.629402 
z
" clip-path="url(#p25ce3b577e)" style="fill: #20b2aa"/>
   </g>
   <g id="patch_143">
    <path d="M 318.597159 299.518125 
L 320.288068 299.518125 
L 320.288068 290.580112 
L 318.597159 290.580112 
z
" clip-path="url(#p25ce3b577e)" style="fill: #20b2aa"/>
   </g>
   <g id="patch_144">
    <path d="M 320.288068 299.518125 
L 321.978977 299.518125 
L 321.978977 291.073017 
L 320.288068 291.073017 
z
" clip-path="url(#p25ce3b577e)" style="fill: #20b2aa"/>
   </g>
   <g id="patch_145">
    <path d="M 321.978977 299.518125 
L 323.669886 299.518125 
L 323.669886 292.173838 
L 321.978977 292.173838 
z
" clip-path="url(#p25ce3b577e)" style="fill: #20b2aa"/>
   </g>
   <g id="patch_146">
    <path d="M 323.669886 299.518125 
L 325.360795 299.518125 
L 325.360795 292.469581 
L 323.669886 292.469581 
z
" clip-path="url(#p25ce3b577e)" style="fill: #20b2aa"/>
   </g>
   <g id="patch_147">
    <path d="M 325.360795 299.518125 
L 327.051705 299.518125 
L 327.051705 292.913196 
L 325.360795 292.913196 
z
" clip-path="url(#p25ce3b577e)" style="fill: #20b2aa"/>
   </g>
   <g id="patch_148">
    <path d="M 327.051705 299.518125 
L 328.742614 299.518125 
L 328.742614 292.683174 
L 327.051705 292.683174 
z
" clip-path="url(#p25ce3b577e)" style="fill: #20b2aa"/>
   </g>
   <g id="patch_149">
    <path d="M 328.742614 299.518125 
L 330.433523 299.518125 
L 330.433523 292.765324 
L 328.742614 292.765324 
z
" clip-path="url(#p25ce3b577e)" style="fill: #20b2aa"/>
   </g>
   <g id="patch_150">
    <path d="M 330.433523 299.518125 
L 332.124432 299.518125 
L 332.124432 293.734705 
L 330.433523 293.734705 
z
" clip-path="url(#p25ce3b577e)" style="fill: #20b2aa"/>
   </g>
   <g id="patch_151">
    <path d="M 332.124432 299.518125 
L 333.815341 299.518125 
L 333.815341 293.685414 
L 332.124432 293.685414 
z
" clip-path="url(#p25ce3b577e)" style="fill: #20b2aa"/>
   </g>
   <g id="patch_152">
    <path d="M 333.815341 299.518125 
L 335.50625 299.518125 
L 335.50625 294.523353 
L 333.815341 294.523353 
z
" clip-path="url(#p25ce3b577e)" style="fill: #20b2aa"/>
   </g>
   <g id="patch_153">
    <path d="M 335.50625 299.518125 
L 337.197159 299.518125 
L 337.197159 294.129029 
L 335.50625 294.129029 
z
" clip-path="url(#p25ce3b577e)" style="fill: #20b2aa"/>
   </g>
   <g id="patch_154">
    <path d="M 337.197159 299.518125 
L 338.888068 299.518125 
L 338.888068 294.638364 
L 337.197159 294.638364 
z
" clip-path="url(#p25ce3b577e)" style="fill: #20b2aa"/>
   </g>
   <g id="patch_155">
    <path d="M 338.888068 299.518125 
L 340.578977 299.518125 
L 340.578977 295.459873 
L 338.888068 295.459873 
z
" clip-path="url(#p25ce3b577e)" style="fill: #20b2aa"/>
   </g>
   <g id="patch_156">
    <path d="M 340.578977 299.518125 
L 342.269886 299.518125 
L 342.269886 295.591314 
L 340.578977 295.591314 
z
" clip-path="url(#p25ce3b577e)" style="fill: #20b2aa"/>
   </g>
   <g id="patch_157">
    <path d="M 342.269886 299.518125 
L 343.960795 299.518125 
L 343.960795 295.443442 
L 342.269886 295.443442 
z
" clip-path="url(#p25ce3b577e)" style="fill: #20b2aa"/>
   </g>
   <g id="patch_158">
    <path d="M 343.960795 299.518125 
L 345.651705 299.518125 
L 345.651705 294.950537 
L 343.960795 294.950537 
z
" clip-path="url(#p25ce3b577e)" style="fill: #20b2aa"/>
   </g>
   <g id="patch_159">
    <path d="M 345.651705 299.518125 
L 347.342614 299.518125 
L 347.342614 295.804906 
L 345.651705 295.804906 
z
" clip-path="url(#p25ce3b577e)" style="fill: #20b2aa"/>
   </g>
   <g id="patch_160">
    <path d="M 347.342614 299.518125 
L 349.033523 299.518125 
L 349.033523 296.232091 
L 347.342614 296.232091 
z
" clip-path="url(#p25ce3b577e)" style="fill: #20b2aa"/>
   </g>
   <g id="patch_161">
    <path d="M 349.033523 299.518125 
L 350.724432 299.518125 
L 350.724432 296.560694 
L 349.033523 296.560694 
z
" clip-path="url(#p25ce3b577e)" style="fill: #20b2aa"/>
   </g>
   <g id="patch_162">
    <path d="M 350.724432 299.518125 
L 352.415341 299.518125 
L 352.415341 296.692135 
L 350.724432 296.692135 
z
" clip-path="url(#p25ce3b577e)" style="fill: #20b2aa"/>
   </g>
   <g id="patch_163">
    <path d="M 352.415341 299.518125 
L 354.10625 299.518125 
L 354.10625 296.577124 
L 352.415341 296.577124 
z
" clip-path="url(#p25ce3b577e)" style="fill: #20b2aa"/>
   </g>
   <g id="patch_164">
    <path d="M 354.10625 299.518125 
L 355.797159 299.518125 
L 355.797159 296.856437 
L 354.10625 296.856437 
z
" clip-path="url(#p25ce3b577e)" style="fill: #20b2aa"/>
   </g>
   <g id="patch_165">
    <path d="M 355.797159 299.518125 
L 357.488068 299.518125 
L 357.488068 297.11932 
L 355.797159 297.11932 
z
" clip-path="url(#p25ce3b577e)" style="fill: #20b2aa"/>
   </g>
   <g id="patch_166">
    <path d="M 357.488068 299.518125 
L 359.178977 299.518125 
L 359.178977 297.267191 
L 357.488068 297.267191 
z
" clip-path="url(#p25ce3b577e)" style="fill: #20b2aa"/>
   </g>
   <g id="patch_167">
    <path d="M 359.178977 299.518125 
L 360.869886 299.518125 
L 360.869886 297.332912 
L 359.178977 297.332912 
z
" clip-path="url(#p25ce3b577e)" style="fill: #20b2aa"/>
   </g>
   <g id="patch_168">
    <path d="M 360.869886 299.518125 
L 362.560795 299.518125 
L 362.560795 296.938588 
L 360.869886 296.938588 
z
" clip-path="url(#p25ce3b577e)" style="fill: #20b2aa"/>
   </g>
   <g id="patch_169">
    <path d="M 362.560795 299.518125 
L 364.251705 299.518125 
L 364.251705 297.513644 
L 362.560795 297.513644 
z
" clip-path="url(#p25ce3b577e)" style="fill: #20b2aa"/>
   </g>
   <g id="patch_170">
    <path d="M 364.251705 299.518125 
L 365.942614 299.518125 
L 365.942614 297.760097 
L 364.251705 297.760097 
z
" clip-path="url(#p25ce3b577e)" style="fill: #20b2aa"/>
   </g>
   <g id="patch_171">
    <path d="M 365.942614 299.518125 
L 367.633523 299.518125 
L 367.633523 297.875108 
L 365.942614 297.875108 
z
" clip-path="url(#p25ce3b577e)" style="fill: #20b2aa"/>
   </g>
   <g id="patch_172">
    <path d="M 367.633523 299.518125 
L 369.324432 299.518125 
L 369.324432 297.924398 
L 367.633523 297.924398 
z
" clip-path="url(#p25ce3b577e)" style="fill: #20b2aa"/>
   </g>
   <g id="patch_173">
    <path d="M 369.324432 299.518125 
L 371.015341 299.518125 
L 371.015341 297.940829 
L 369.324432 297.940829 
z
" clip-path="url(#p25ce3b577e)" style="fill: #20b2aa"/>
   </g>
   <g id="patch_174">
    <path d="M 371.015341 299.518125 
L 372.70625 299.518125 
L 372.70625 298.187281 
L 371.015341 298.187281 
z
" clip-path="url(#p25ce3b577e)" style="fill: #20b2aa"/>
   </g>
   <g id="patch_175">
    <path d="M 372.70625 299.518125 
L 374.397159 299.518125 
L 374.397159 298.269432 
L 372.70625 298.269432 
z
" clip-path="url(#p25ce3b577e)" style="fill: #20b2aa"/>
   </g>
   <g id="patch_176">
    <path d="M 374.397159 299.518125 
L 376.088068 299.518125 
L 376.088068 298.269432 
L 374.397159 298.269432 
z
" clip-path="url(#p25ce3b577e)" style="fill: #20b2aa"/>
   </g>
   <g id="patch_177">
    <path d="M 376.088068 299.518125 
L 377.778977 299.518125 
L 377.778977 298.12156 
L 376.088068 298.12156 
z
" clip-path="url(#p25ce3b577e)" style="fill: #20b2aa"/>
   </g>
   <g id="patch_178">
    <path d="M 377.778977 299.518125 
L 379.469886 299.518125 
L 379.469886 298.450164 
L 377.778977 298.450164 
z
" clip-path="url(#p25ce3b577e)" style="fill: #20b2aa"/>
   </g>
   <g id="patch_179">
    <path d="M 379.469886 299.518125 
L 381.160795 299.518125 
L 381.160795 298.10513 
L 379.469886 298.10513 
z
" clip-path="url(#p25ce3b577e)" style="fill: #20b2aa"/>
   </g>
   <g id="patch_180">
    <path d="M 381.160795 299.518125 
L 382.851705 299.518125 
L 382.851705 298.236572 
L 381.160795 298.236572 
z
" clip-path="url(#p25ce3b577e)" style="fill: #20b2aa"/>
   </g>
   <g id="patch_181">
    <path d="M 382.851705 299.518125 
L 384.542614 299.518125 
L 384.542614 298.450164 
L 382.851705 298.450164 
z
" clip-path="url(#p25ce3b577e)" style="fill: #20b2aa"/>
   </g>
   <g id="patch_182">
    <path d="M 384.542614 299.518125 
L 386.233523 299.518125 
L 386.233523 298.713047 
L 384.542614 298.713047 
z
" clip-path="url(#p25ce3b577e)" style="fill: #20b2aa"/>
   </g>
   <g id="patch_183">
    <path d="M 386.233523 299.518125 
L 387.924432 299.518125 
L 387.924432 298.532315 
L 386.233523 298.532315 
z
" clip-path="url(#p25ce3b577e)" style="fill: #20b2aa"/>
   </g>
   <g id="patch_184">
    <path d="M 387.924432 299.518125 
L 389.615341 299.518125 
L 389.615341 298.318722 
L 387.924432 298.318722 
z
" clip-path="url(#p25ce3b577e)" style="fill: #20b2aa"/>
   </g>
   <g id="patch_185">
    <path d="M 389.615341 299.518125 
L 391.30625 299.518125 
L 391.30625 298.778767 
L 389.615341 298.778767 
z
" clip-path="url(#p25ce3b577e)" style="fill: #20b2aa"/>
   </g>
   <g id="patch_186">
    <path d="M 391.30625 299.518125 
L 392.997159 299.518125 
L 392.997159 298.828058 
L 391.30625 298.828058 
z
" clip-path="url(#p25ce3b577e)" style="fill: #20b2aa"/>
   </g>
   <g id="patch_187">
    <path d="M 392.997159 299.518125 
L 394.688068 299.518125 
L 394.688068 298.713047 
L 392.997159 298.713047 
z
" clip-path="url(#p25ce3b577e)" style="fill: #20b2aa"/>
   </g>
   <g id="patch_188">
    <path d="M 394.688068 299.518125 
L 396.378977 299.518125 
L 396.378977 298.943069 
L 394.688068 298.943069 
z
" clip-path="url(#p25ce3b577e)" style="fill: #20b2aa"/>
   </g>
   <g id="patch_189">
    <path d="M 396.378977 299.518125 
L 398.069886 299.518125 
L 398.069886 298.99236 
L 396.378977 298.99236 
z
" clip-path="url(#p25ce3b577e)" style="fill: #20b2aa"/>
   </g>
   <g id="patch_190">
    <path d="M 398.069886 299.518125 
L 399.760795 299.518125 
L 399.760795 298.910209 
L 398.069886 298.910209 
z
" clip-path="url(#p25ce3b577e)" style="fill: #20b2aa"/>
   </g>
   <g id="patch_191">
    <path d="M 399.760795 299.518125 
L 401.451705 299.518125 
L 401.451705 299.02522 
L 399.760795 299.02522 
z
" clip-path="url(#p25ce3b577e)" style="fill: #20b2aa"/>
   </g>
   <g id="patch_192">
    <path d="M 401.451705 299.518125 
L 403.142614 299.518125 
L 403.142614 298.99236 
L 401.451705 298.99236 
z
" clip-path="url(#p25ce3b577e)" style="fill: #20b2aa"/>
   </g>
   <g id="patch_193">
    <path d="M 403.142614 299.518125 
L 404.833523 299.518125 
L 404.833523 299.07451 
L 403.142614 299.07451 
z
" clip-path="url(#p25ce3b577e)" style="fill: #20b2aa"/>
   </g>
   <g id="patch_194">
    <path d="M 404.833523 299.518125 
L 406.524432 299.518125 
L 406.524432 299.00879 
L 404.833523 299.00879 
z
" clip-path="url(#p25ce3b577e)" style="fill: #20b2aa"/>
   </g>
   <g id="patch_195">
    <path d="M 406.524432 299.518125 
L 408.215341 299.518125 
L 408.215341 299.05808 
L 406.524432 299.05808 
z
" clip-path="url(#p25ce3b577e)" style="fill: #20b2aa"/>
   </g>
   <g id="patch_196">
    <path d="M 408.215341 299.518125 
L 409.90625 299.518125 
L 409.90625 299.222382 
L 408.215341 299.222382 
z
" clip-path="url(#p25ce3b577e)" style="fill: #20b2aa"/>
   </g>
   <g id="patch_197">
    <path d="M 409.90625 299.518125 
L 411.597159 299.518125 
L 411.597159 299.222382 
L 409.90625 299.222382 
z
" clip-path="url(#p25ce3b577e)" style="fill: #20b2aa"/>
   </g>
   <g id="patch_198">
    <path d="M 411.597159 299.518125 
L 413.288068 299.518125 
L 413.288068 299.173091 
L 411.597159 299.173091 
z
" clip-path="url(#p25ce3b577e)" style="fill: #20b2aa"/>
   </g>
   <g id="patch_199">
    <path d="M 413.288068 299.518125 
L 414.978977 299.518125 
L 414.978977 299.107371 
L 413.288068 299.107371 
z
" clip-path="url(#p25ce3b577e)" style="fill: #20b2aa"/>
   </g>
   <g id="patch_200">
    <path d="M 414.978977 299.518125 
L 416.669886 299.518125 
L 416.669886 299.123801 
L 414.978977 299.123801 
z
" clip-path="url(#p25ce3b577e)" style="fill: #20b2aa"/>
   </g>
   <g id="patch_201">
    <path d="M 416.669886 299.518125 
L 418.360795 299.518125 
L 418.360795 299.107371 
L 416.669886 299.107371 
z
" clip-path="url(#p25ce3b577e)" style="fill: #20b2aa"/>
   </g>
   <g id="patch_202">
    <path d="M 418.360795 299.518125 
L 420.051705 299.518125 
L 420.051705 299.288103 
L 418.360795 299.288103 
z
" clip-path="url(#p25ce3b577e)" style="fill: #20b2aa"/>
   </g>
   <g id="patch_203">
    <path d="M 420.051705 299.518125 
L 421.742614 299.518125 
L 421.742614 299.222382 
L 420.051705 299.222382 
z
" clip-path="url(#p25ce3b577e)" style="fill: #20b2aa"/>
   </g>
   <g id="patch_204">
    <path d="M 421.742614 299.518125 
L 423.433523 299.518125 
L 423.433523 299.238812 
L 421.742614 299.238812 
z
" clip-path="url(#p25ce3b577e)" style="fill: #20b2aa"/>
   </g>
   <g id="patch_205">
    <path d="M 423.433523 299.518125 
L 425.124432 299.518125 
L 425.124432 299.353823 
L 423.433523 299.353823 
z
" clip-path="url(#p25ce3b577e)" style="fill: #20b2aa"/>
   </g>
   <g id="patch_206">
    <path d="M 425.124432 299.518125 
L 426.815341 299.518125 
L 426.815341 299.255242 
L 425.124432 299.255242 
z
" clip-path="url(#p25ce3b577e)" style="fill: #20b2aa"/>
   </g>
   <g id="patch_207">
    <path d="M 426.815341 299.518125 
L 428.50625 299.518125 
L 428.50625 299.353823 
L 426.815341 299.353823 
z
" clip-path="url(#p25ce3b577e)" style="fill: #20b2aa"/>
   </g>
   <g id="patch_208">
    <path d="M 428.50625 299.518125 
L 430.197159 299.518125 
L 430.197159 299.337393 
L 428.50625 299.337393 
z
" clip-path="url(#p25ce3b577e)" style="fill: #20b2aa"/>
   </g>
   <g id="patch_209">
    <path d="M 430.197159 299.518125 
L 431.888068 299.518125 
L 431.888068 299.403114 
L 430.197159 299.403114 
z
" clip-path="url(#p25ce3b577e)" style="fill: #20b2aa"/>
   </g>
   <g id="patch_210">
    <path d="M 431.888068 299.518125 
L 433.578977 299.518125 
L 433.578977 299.337393 
L 431.888068 299.337393 
z
" clip-path="url(#p25ce3b577e)" style="fill: #20b2aa"/>
   </g>
   <g id="patch_211">
    <path d="M 433.578977 299.518125 
L 435.269886 299.518125 
L 435.269886 299.337393 
L 433.578977 299.337393 
z
" clip-path="url(#p25ce3b577e)" style="fill: #20b2aa"/>
   </g>
   <g id="patch_212">
    <path d="M 435.269886 299.518125 
L 436.960795 299.518125 
L 436.960795 299.386684 
L 435.269886 299.386684 
z
" clip-path="url(#p25ce3b577e)" style="fill: #20b2aa"/>
   </g>
   <g id="patch_213">
    <path d="M 436.960795 299.518125 
L 438.651705 299.518125 
L 438.651705 299.386684 
L 436.960795 299.386684 
z
" clip-path="url(#p25ce3b577e)" style="fill: #20b2aa"/>
   </g>
   <g id="patch_214">
    <path d="M 438.651705 299.518125 
L 440.342614 299.518125 
L 440.342614 299.403114 
L 438.651705 299.403114 
z
" clip-path="url(#p25ce3b577e)" style="fill: #20b2aa"/>
   </g>
   <g id="patch_215">
    <path d="M 440.342614 299.518125 
L 442.033523 299.518125 
L 442.033523 299.337393 
L 440.342614 299.337393 
z
" clip-path="url(#p25ce3b577e)" style="fill: #20b2aa"/>
   </g>
   <g id="patch_216">
    <path d="M 442.033523 299.518125 
L 443.724432 299.518125 
L 443.724432 299.403114 
L 442.033523 299.403114 
z
" clip-path="url(#p25ce3b577e)" style="fill: #20b2aa"/>
   </g>
   <g id="patch_217">
    <path d="M 443.724432 299.518125 
L 445.415341 299.518125 
L 445.415341 299.370253 
L 443.724432 299.370253 
z
" clip-path="url(#p25ce3b577e)" style="fill: #20b2aa"/>
   </g>
   <g id="patch_218">
    <path d="M 445.415341 299.518125 
L 447.10625 299.518125 
L 447.10625 299.386684 
L 445.415341 299.386684 
z
" clip-path="url(#p25ce3b577e)" style="fill: #20b2aa"/>
   </g>
   <g id="patch_219">
    <path d="M 447.10625 299.518125 
L 448.797159 299.518125 
L 448.797159 299.337393 
L 447.10625 299.337393 
z
" clip-path="url(#p25ce3b577e)" style="fill: #20b2aa"/>
   </g>
   <g id="patch_220">
    <path d="M 448.797159 299.518125 
L 450.488068 299.518125 
L 450.488068 299.452404 
L 448.797159 299.452404 
z
" clip-path="url(#p25ce3b577e)" style="fill: #20b2aa"/>
   </g>
   <g id="patch_221">
    <path d="M 450.488068 299.518125 
L 452.178977 299.518125 
L 452.178977 299.452404 
L 450.488068 299.452404 
z
" clip-path="url(#p25ce3b577e)" style="fill: #20b2aa"/>
   </g>
   <g id="patch_222">
    <path d="M 452.178977 299.518125 
L 453.869886 299.518125 
L 453.869886 299.468834 
L 452.178977 299.468834 
z
" clip-path="url(#p25ce3b577e)" style="fill: #20b2aa"/>
   </g>
   <g id="patch_223">
    <path d="M 453.869886 299.518125 
L 455.560795 299.518125 
L 455.560795 299.435974 
L 453.869886 299.435974 
z
" clip-path="url(#p25ce3b577e)" style="fill: #20b2aa"/>
   </g>
   <g id="patch_224">
    <path d="M 455.560795 299.518125 
L 457.251705 299.518125 
L 457.251705 299.452404 
L 455.560795 299.452404 
z
" clip-path="url(#p25ce3b577e)" style="fill: #20b2aa"/>
   </g>
   <g id="patch_225">
    <path d="M 457.251705 299.518125 
L 458.942614 299.518125 
L 458.942614 299.320963 
L 457.251705 299.320963 
z
" clip-path="url(#p25ce3b577e)" style="fill: #20b2aa"/>
   </g>
   <g id="patch_226">
    <path d="M 458.942614 299.518125 
L 460.633523 299.518125 
L 460.633523 299.485265 
L 458.942614 299.485265 
z
" clip-path="url(#p25ce3b577e)" style="fill: #20b2aa"/>
   </g>
   <g id="patch_227">
    <path d="M 460.633523 299.518125 
L 462.324432 299.518125 
L 462.324432 299.452404 
L 460.633523 299.452404 
z
" clip-path="url(#p25ce3b577e)" style="fill: #20b2aa"/>
   </g>
   <g id="patch_228">
    <path d="M 462.324432 299.518125 
L 464.015341 299.518125 
L 464.015341 299.485265 
L 462.324432 299.485265 
z
" clip-path="url(#p25ce3b577e)" style="fill: #20b2aa"/>
   </g>
   <g id="patch_229">
    <path d="M 464.015341 299.518125 
L 465.70625 299.518125 
L 465.70625 299.485265 
L 464.015341 299.485265 
z
" clip-path="url(#p25ce3b577e)" style="fill: #20b2aa"/>
   </g>
   <g id="patch_230">
    <path d="M 465.70625 299.518125 
L 467.397159 299.518125 
L 467.397159 299.485265 
L 465.70625 299.485265 
z
" clip-path="url(#p25ce3b577e)" style="fill: #20b2aa"/>
   </g>
   <g id="patch_231">
    <path d="M 467.397159 299.518125 
L 469.088068 299.518125 
L 469.088068 299.468834 
L 467.397159 299.468834 
z
" clip-path="url(#p25ce3b577e)" style="fill: #20b2aa"/>
   </g>
   <g id="patch_232">
    <path d="M 469.088068 299.518125 
L 470.778977 299.518125 
L 470.778977 299.485265 
L 469.088068 299.485265 
z
" clip-path="url(#p25ce3b577e)" style="fill: #20b2aa"/>
   </g>
   <g id="patch_233">
    <path d="M 470.778977 299.518125 
L 472.469886 299.518125 
L 472.469886 299.501695 
L 470.778977 299.501695 
z
" clip-path="url(#p25ce3b577e)" style="fill: #20b2aa"/>
   </g>
   <g id="patch_234">
    <path d="M 472.469886 299.518125 
L 474.160795 299.518125 
L 474.160795 299.501695 
L 472.469886 299.501695 
z
" clip-path="url(#p25ce3b577e)" style="fill: #20b2aa"/>
   </g>
   <g id="patch_235">
    <path d="M 474.160795 299.518125 
L 475.851705 299.518125 
L 475.851705 299.485265 
L 474.160795 299.485265 
z
" clip-path="url(#p25ce3b577e)" style="fill: #20b2aa"/>
   </g>
   <g id="patch_236">
    <path d="M 475.851705 299.518125 
L 477.542614 299.518125 
L 477.542614 299.485265 
L 475.851705 299.485265 
z
" clip-path="url(#p25ce3b577e)" style="fill: #20b2aa"/>
   </g>
   <g id="patch_237">
    <path d="M 477.542614 299.518125 
L 479.233523 299.518125 
L 479.233523 299.501695 
L 477.542614 299.501695 
z
" clip-path="url(#p25ce3b577e)" style="fill: #20b2aa"/>
   </g>
   <g id="patch_238">
    <path d="M 479.233523 299.518125 
L 480.924432 299.518125 
L 480.924432 299.485265 
L 479.233523 299.485265 
z
" clip-path="url(#p25ce3b577e)" style="fill: #20b2aa"/>
   </g>
   <g id="patch_239">
    <path d="M 480.924432 299.518125 
L 482.615341 299.518125 
L 482.615341 299.518125 
L 480.924432 299.518125 
z
" clip-path="url(#p25ce3b577e)" style="fill: #20b2aa"/>
   </g>
   <g id="patch_240">
    <path d="M 482.615341 299.518125 
L 484.30625 299.518125 
L 484.30625 299.501695 
L 482.615341 299.501695 
z
" clip-path="url(#p25ce3b577e)" style="fill: #20b2aa"/>
   </g>
   <g id="patch_241">
    <path d="M 484.30625 299.518125 
L 485.997159 299.518125 
L 485.997159 299.468834 
L 484.30625 299.468834 
z
" clip-path="url(#p25ce3b577e)" style="fill: #20b2aa"/>
   </g>
   <g id="patch_242">
    <path d="M 485.997159 299.518125 
L 487.688068 299.518125 
L 487.688068 299.501695 
L 485.997159 299.501695 
z
" clip-path="url(#p25ce3b577e)" style="fill: #20b2aa"/>
   </g>
   <g id="patch_243">
    <path d="M 487.688068 299.518125 
L 489.378977 299.518125 
L 489.378977 299.518125 
L 487.688068 299.518125 
z
" clip-path="url(#p25ce3b577e)" style="fill: #20b2aa"/>
   </g>
   <g id="patch_244">
    <path d="M 489.378977 299.518125 
L 491.069886 299.518125 
L 491.069886 299.518125 
L 489.378977 299.518125 
z
" clip-path="url(#p25ce3b577e)" style="fill: #20b2aa"/>
   </g>
   <g id="patch_245">
    <path d="M 491.069886 299.518125 
L 492.760795 299.518125 
L 492.760795 299.501695 
L 491.069886 299.501695 
z
" clip-path="url(#p25ce3b577e)" style="fill: #20b2aa"/>
   </g>
   <g id="patch_246">
    <path d="M 492.760795 299.518125 
L 494.451705 299.518125 
L 494.451705 299.518125 
L 492.760795 299.518125 
z
" clip-path="url(#p25ce3b577e)" style="fill: #20b2aa"/>
   </g>
   <g id="patch_247">
    <path d="M 494.451705 299.518125 
L 496.142614 299.518125 
L 496.142614 299.518125 
L 494.451705 299.518125 
z
" clip-path="url(#p25ce3b577e)" style="fill: #20b2aa"/>
   </g>
   <g id="patch_248">
    <path d="M 496.142614 299.518125 
L 497.833523 299.518125 
L 497.833523 299.501695 
L 496.142614 299.501695 
z
" clip-path="url(#p25ce3b577e)" style="fill: #20b2aa"/>
   </g>
   <g id="patch_249">
    <path d="M 497.833523 299.518125 
L 499.524432 299.518125 
L 499.524432 299.518125 
L 497.833523 299.518125 
z
" clip-path="url(#p25ce3b577e)" style="fill: #20b2aa"/>
   </g>
   <g id="patch_250">
    <path d="M 499.524432 299.518125 
L 501.215341 299.518125 
L 501.215341 299.518125 
L 499.524432 299.518125 
z
" clip-path="url(#p25ce3b577e)" style="fill: #20b2aa"/>
   </g>
   <g id="patch_251">
    <path d="M 501.215341 299.518125 
L 502.90625 299.518125 
L 502.90625 299.501695 
L 501.215341 299.501695 
z
" clip-path="url(#p25ce3b577e)" style="fill: #20b2aa"/>
   </g>
   <g id="patch_252">
    <path d="M 502.90625 299.518125 
L 504.597159 299.518125 
L 504.597159 299.501695 
L 502.90625 299.501695 
z
" clip-path="url(#p25ce3b577e)" style="fill: #20b2aa"/>
   </g>
   <g id="patch_253">
    <path d="M 504.597159 299.518125 
L 506.288068 299.518125 
L 506.288068 299.518125 
L 504.597159 299.518125 
z
" clip-path="url(#p25ce3b577e)" style="fill: #20b2aa"/>
   </g>
   <g id="patch_254">
    <path d="M 506.288068 299.518125 
L 507.978977 299.518125 
L 507.978977 299.518125 
L 506.288068 299.518125 
z
" clip-path="url(#p25ce3b577e)" style="fill: #20b2aa"/>
   </g>
   <g id="patch_255">
    <path d="M 507.978977 299.518125 
L 509.669886 299.518125 
L 509.669886 299.501695 
L 507.978977 299.501695 
z
" clip-path="url(#p25ce3b577e)" style="fill: #20b2aa"/>
   </g>
   <g id="patch_256">
    <path d="M 509.669886 299.518125 
L 511.360795 299.518125 
L 511.360795 299.518125 
L 509.669886 299.518125 
z
" clip-path="url(#p25ce3b577e)" style="fill: #20b2aa"/>
   </g>
   <g id="patch_257">
    <path d="M 511.360795 299.518125 
L 513.051705 299.518125 
L 513.051705 299.518125 
L 511.360795 299.518125 
z
" clip-path="url(#p25ce3b577e)" style="fill: #20b2aa"/>
   </g>
   <g id="patch_258">
    <path d="M 513.051705 299.518125 
L 514.742614 299.518125 
L 514.742614 299.518125 
L 513.051705 299.518125 
z
" clip-path="url(#p25ce3b577e)" style="fill: #20b2aa"/>
   </g>
   <g id="patch_259">
    <path d="M 514.742614 299.518125 
L 516.433523 299.518125 
L 516.433523 299.518125 
L 514.742614 299.518125 
z
" clip-path="url(#p25ce3b577e)" style="fill: #20b2aa"/>
   </g>
   <g id="patch_260">
    <path d="M 516.433523 299.518125 
L 518.124432 299.518125 
L 518.124432 299.518125 
L 516.433523 299.518125 
z
" clip-path="url(#p25ce3b577e)" style="fill: #20b2aa"/>
   </g>
   <g id="patch_261">
    <path d="M 518.124432 299.518125 
L 519.815341 299.518125 
L 519.815341 299.518125 
L 518.124432 299.518125 
z
" clip-path="url(#p25ce3b577e)" style="fill: #20b2aa"/>
   </g>
   <g id="patch_262">
    <path d="M 519.815341 299.518125 
L 521.50625 299.518125 
L 521.50625 299.501695 
L 519.815341 299.501695 
z
" clip-path="url(#p25ce3b577e)" style="fill: #20b2aa"/>
   </g>
   <g id="patch_263">
    <path d="M 521.50625 299.518125 
L 523.197159 299.518125 
L 523.197159 299.518125 
L 521.50625 299.518125 
z
" clip-path="url(#p25ce3b577e)" style="fill: #20b2aa"/>
   </g>
   <g id="patch_264">
    <path d="M 523.197159 299.518125 
L 524.888068 299.518125 
L 524.888068 299.518125 
L 523.197159 299.518125 
z
" clip-path="url(#p25ce3b577e)" style="fill: #20b2aa"/>
   </g>
   <g id="patch_265">
    <path d="M 524.888068 299.518125 
L 526.578977 299.518125 
L 526.578977 299.518125 
L 524.888068 299.518125 
z
" clip-path="url(#p25ce3b577e)" style="fill: #20b2aa"/>
   </g>
   <g id="patch_266">
    <path d="M 526.578977 299.518125 
L 528.269886 299.518125 
L 528.269886 299.501695 
L 526.578977 299.501695 
z
" clip-path="url(#p25ce3b577e)" style="fill: #20b2aa"/>
   </g>
   <g id="patch_267">
    <path d="M 528.269886 299.518125 
L 529.960795 299.518125 
L 529.960795 299.518125 
L 528.269886 299.518125 
z
" clip-path="url(#p25ce3b577e)" style="fill: #20b2aa"/>
   </g>
   <g id="patch_268">
    <path d="M 529.960795 299.518125 
L 531.651705 299.518125 
L 531.651705 299.518125 
L 529.960795 299.518125 
z
" clip-path="url(#p25ce3b577e)" style="fill: #20b2aa"/>
   </g>
   <g id="patch_269">
    <path d="M 531.651705 299.518125 
L 533.342614 299.518125 
L 533.342614 299.501695 
L 531.651705 299.501695 
z
" clip-path="url(#p25ce3b577e)" style="fill: #20b2aa"/>
   </g>
   <g id="patch_270">
    <path d="M 533.342614 299.518125 
L 535.033523 299.518125 
L 535.033523 299.518125 
L 533.342614 299.518125 
z
" clip-path="url(#p25ce3b577e)" style="fill: #20b2aa"/>
   </g>
   <g id="patch_271">
    <path d="M 535.033523 299.518125 
L 536.724432 299.518125 
L 536.724432 299.518125 
L 535.033523 299.518125 
z
" clip-path="url(#p25ce3b577e)" style="fill: #20b2aa"/>
   </g>
   <g id="patch_272">
    <path d="M 536.724432 299.518125 
L 538.415341 299.518125 
L 538.415341 299.518125 
L 536.724432 299.518125 
z
" clip-path="url(#p25ce3b577e)" style="fill: #20b2aa"/>
   </g>
   <g id="patch_273">
    <path d="M 538.415341 299.518125 
L 540.10625 299.518125 
L 540.10625 299.518125 
L 538.415341 299.518125 
z
" clip-path="url(#p25ce3b577e)" style="fill: #20b2aa"/>
   </g>
   <g id="patch_274">
    <path d="M 540.10625 299.518125 
L 541.797159 299.518125 
L 541.797159 299.518125 
L 540.10625 299.518125 
z
" clip-path="url(#p25ce3b577e)" style="fill: #20b2aa"/>
   </g>
   <g id="patch_275">
    <path d="M 541.797159 299.518125 
L 543.488068 299.518125 
L 543.488068 299.518125 
L 541.797159 299.518125 
z
" clip-path="url(#p25ce3b577e)" style="fill: #20b2aa"/>
   </g>
   <g id="patch_276">
    <path d="M 543.488068 299.518125 
L 545.178977 299.518125 
L 545.178977 299.518125 
L 543.488068 299.518125 
z
" clip-path="url(#p25ce3b577e)" style="fill: #20b2aa"/>
   </g>
   <g id="patch_277">
    <path d="M 545.178977 299.518125 
L 546.869886 299.518125 
L 546.869886 299.518125 
L 545.178977 299.518125 
z
" clip-path="url(#p25ce3b577e)" style="fill: #20b2aa"/>
   </g>
   <g id="patch_278">
    <path d="M 546.869886 299.518125 
L 548.560795 299.518125 
L 548.560795 299.518125 
L 546.869886 299.518125 
z
" clip-path="url(#p25ce3b577e)" style="fill: #20b2aa"/>
   </g>
   <g id="patch_279">
    <path d="M 548.560795 299.518125 
L 550.251705 299.518125 
L 550.251705 299.518125 
L 548.560795 299.518125 
z
" clip-path="url(#p25ce3b577e)" style="fill: #20b2aa"/>
   </g>
   <g id="patch_280">
    <path d="M 550.251705 299.518125 
L 551.942614 299.518125 
L 551.942614 299.518125 
L 550.251705 299.518125 
z
" clip-path="url(#p25ce3b577e)" style="fill: #20b2aa"/>
   </g>
   <g id="patch_281">
    <path d="M 551.942614 299.518125 
L 553.633523 299.518125 
L 553.633523 299.518125 
L 551.942614 299.518125 
z
" clip-path="url(#p25ce3b577e)" style="fill: #20b2aa"/>
   </g>
   <g id="patch_282">
    <path d="M 553.633523 299.518125 
L 555.324432 299.518125 
L 555.324432 299.518125 
L 553.633523 299.518125 
z
" clip-path="url(#p25ce3b577e)" style="fill: #20b2aa"/>
   </g>
   <g id="patch_283">
    <path d="M 555.324432 299.518125 
L 557.015341 299.518125 
L 557.015341 299.518125 
L 555.324432 299.518125 
z
" clip-path="url(#p25ce3b577e)" style="fill: #20b2aa"/>
   </g>
   <g id="patch_284">
    <path d="M 557.015341 299.518125 
L 558.70625 299.518125 
L 558.70625 299.518125 
L 557.015341 299.518125 
z
" clip-path="url(#p25ce3b577e)" style="fill: #20b2aa"/>
   </g>
   <g id="patch_285">
    <path d="M 558.70625 299.518125 
L 560.397159 299.518125 
L 560.397159 299.518125 
L 558.70625 299.518125 
z
" clip-path="url(#p25ce3b577e)" style="fill: #20b2aa"/>
   </g>
   <g id="patch_286">
    <path d="M 560.397159 299.518125 
L 562.088068 299.518125 
L 562.088068 299.501695 
L 560.397159 299.501695 
z
" clip-path="url(#p25ce3b577e)" style="fill: #20b2aa"/>
   </g>
   <g id="patch_287">
    <path d="M 562.088068 299.518125 
L 563.778977 299.518125 
L 563.778977 299.518125 
L 562.088068 299.518125 
z
" clip-path="url(#p25ce3b577e)" style="fill: #20b2aa"/>
   </g>
   <g id="patch_288">
    <path d="M 563.778977 299.518125 
L 565.469886 299.518125 
L 565.469886 299.518125 
L 563.778977 299.518125 
z
" clip-path="url(#p25ce3b577e)" style="fill: #20b2aa"/>
   </g>
   <g id="patch_289">
    <path d="M 565.469886 299.518125 
L 567.160795 299.518125 
L 567.160795 299.518125 
L 565.469886 299.518125 
z
" clip-path="url(#p25ce3b577e)" style="fill: #20b2aa"/>
   </g>
   <g id="patch_290">
    <path d="M 567.160795 299.518125 
L 568.851705 299.518125 
L 568.851705 299.518125 
L 567.160795 299.518125 
z
" clip-path="url(#p25ce3b577e)" style="fill: #20b2aa"/>
   </g>
   <g id="patch_291">
    <path d="M 568.851705 299.518125 
L 570.542614 299.518125 
L 570.542614 299.501695 
L 568.851705 299.501695 
z
" clip-path="url(#p25ce3b577e)" style="fill: #20b2aa"/>
   </g>
   <g id="patch_292">
    <path d="M 570.542614 299.518125 
L 572.233523 299.518125 
L 572.233523 299.518125 
L 570.542614 299.518125 
z
" clip-path="url(#p25ce3b577e)" style="fill: #20b2aa"/>
   </g>
   <g id="patch_293">
    <path d="M 572.233523 299.518125 
L 573.924432 299.518125 
L 573.924432 299.518125 
L 572.233523 299.518125 
z
" clip-path="url(#p25ce3b577e)" style="fill: #20b2aa"/>
   </g>
   <g id="patch_294">
    <path d="M 573.924432 299.518125 
L 575.615341 299.518125 
L 575.615341 299.518125 
L 573.924432 299.518125 
z
" clip-path="url(#p25ce3b577e)" style="fill: #20b2aa"/>
   </g>
   <g id="patch_295">
    <path d="M 575.615341 299.518125 
L 577.30625 299.518125 
L 577.30625 299.518125 
L 575.615341 299.518125 
z
" clip-path="url(#p25ce3b577e)" style="fill: #20b2aa"/>
   </g>
   <g id="patch_296">
    <path d="M 577.30625 299.518125 
L 578.997159 299.518125 
L 578.997159 299.518125 
L 577.30625 299.518125 
z
" clip-path="url(#p25ce3b577e)" style="fill: #20b2aa"/>
   </g>
   <g id="patch_297">
    <path d="M 578.997159 299.518125 
L 580.688068 299.518125 
L 580.688068 299.518125 
L 578.997159 299.518125 
z
" clip-path="url(#p25ce3b577e)" style="fill: #20b2aa"/>
   </g>
   <g id="patch_298">
    <path d="M 580.688068 299.518125 
L 582.378977 299.518125 
L 582.378977 299.518125 
L 580.688068 299.518125 
z
" clip-path="url(#p25ce3b577e)" style="fill: #20b2aa"/>
   </g>
   <g id="patch_299">
    <path d="M 582.378977 299.518125 
L 584.069886 299.518125 
L 584.069886 299.518125 
L 582.378977 299.518125 
z
" clip-path="url(#p25ce3b577e)" style="fill: #20b2aa"/>
   </g>
   <g id="patch_300">
    <path d="M 584.069886 299.518125 
L 585.760795 299.518125 
L 585.760795 299.518125 
L 584.069886 299.518125 
z
" clip-path="url(#p25ce3b577e)" style="fill: #20b2aa"/>
   </g>
   <g id="patch_301">
    <path d="M 585.760795 299.518125 
L 587.451705 299.518125 
L 587.451705 299.518125 
L 585.760795 299.518125 
z
" clip-path="url(#p25ce3b577e)" style="fill: #20b2aa"/>
   </g>
   <g id="patch_302">
    <path d="M 587.451705 299.518125 
L 589.142614 299.518125 
L 589.142614 299.501695 
L 587.451705 299.501695 
z
" clip-path="url(#p25ce3b577e)" style="fill: #20b2aa"/>
   </g>
   <g id="matplotlib.axis_1">
    <g id="xtick_1">
     <g id="line2d_1">
      <defs>
       <path id="ma9c615403c" d="M 0 0 
L 0 3.5 
" style="stroke: #000000; stroke-width: 0.8"/>
      </defs>
      <g>
       <use xlink:href="#ma9c615403c" x="78.983062" y="299.518125" style="stroke: #000000; stroke-width: 0.8"/>
      </g>
     </g>
     <g id="text_1">
      <!-- 110 -->
      <g transform="translate(69.439312 314.116563) scale(0.1 -0.1)">
       <defs>
        <path id="DejaVuSans-31" d="M 794 531 
L 1825 531 
L 1825 4091 
L 703 3866 
L 703 4441 
L 1819 4666 
L 2450 4666 
L 2450 531 
L 3481 531 
L 3481 0 
L 794 0 
L 794 531 
z
" transform="scale(0.015625)"/>
        <path id="DejaVuSans-30" d="M 2034 4250 
Q 1547 4250 1301 3770 
Q 1056 3291 1056 2328 
Q 1056 1369 1301 889 
Q 1547 409 2034 409 
Q 2525 409 2770 889 
Q 3016 1369 3016 2328 
Q 3016 3291 2770 3770 
Q 2525 4250 2034 4250 
z
M 2034 4750 
Q 2819 4750 3233 4129 
Q 3647 3509 3647 2328 
Q 3647 1150 3233 529 
Q 2819 -91 2034 -91 
Q 1250 -91 836 529 
Q 422 1150 422 2328 
Q 422 3509 836 4129 
Q 1250 4750 2034 4750 
z
" transform="scale(0.015625)"/>
       </defs>
       <use xlink:href="#DejaVuSans-31"/>
       <use xlink:href="#DejaVuSans-31" x="63.623047"/>
       <use xlink:href="#DejaVuSans-30" x="127.246094"/>
      </g>
     </g>
    </g>
    <g id="xtick_2">
     <g id="line2d_2">
      <g>
       <use xlink:href="#ma9c615403c" x="181.866131" y="299.518125" style="stroke: #000000; stroke-width: 0.8"/>
      </g>
     </g>
     <g id="text_2">
      <!-- 115 -->
      <g transform="translate(172.322381 314.116563) scale(0.1 -0.1)">
       <defs>
        <path id="DejaVuSans-35" d="M 691 4666 
L 3169 4666 
L 3169 4134 
L 1269 4134 
L 1269 2991 
Q 1406 3038 1543 3061 
Q 1681 3084 1819 3084 
Q 2600 3084 3056 2656 
Q 3513 2228 3513 1497 
Q 3513 744 3044 326 
Q 2575 -91 1722 -91 
Q 1428 -91 1123 -41 
Q 819 9 494 109 
L 494 744 
Q 775 591 1075 516 
Q 1375 441 1709 441 
Q 2250 441 2565 725 
Q 2881 1009 2881 1497 
Q 2881 1984 2565 2268 
Q 2250 2553 1709 2553 
Q 1456 2553 1204 2497 
Q 953 2441 691 2322 
L 691 4666 
z
" transform="scale(0.015625)"/>
       </defs>
       <use xlink:href="#DejaVuSans-31"/>
       <use xlink:href="#DejaVuSans-31" x="63.623047"/>
       <use xlink:href="#DejaVuSans-35" x="127.246094"/>
      </g>
     </g>
    </g>
    <g id="xtick_3">
     <g id="line2d_3">
      <g>
       <use xlink:href="#ma9c615403c" x="284.749199" y="299.518125" style="stroke: #000000; stroke-width: 0.8"/>
      </g>
     </g>
     <g id="text_3">
      <!-- 120 -->
      <g transform="translate(275.205449 314.116563) scale(0.1 -0.1)">
       <defs>
        <path id="DejaVuSans-32" d="M 1228 531 
L 3431 531 
L 3431 0 
L 469 0 
L 469 531 
Q 828 903 1448 1529 
Q 2069 2156 2228 2338 
Q 2531 2678 2651 2914 
Q 2772 3150 2772 3378 
Q 2772 3750 2511 3984 
Q 2250 4219 1831 4219 
Q 1534 4219 1204 4116 
Q 875 4013 500 3803 
L 500 4441 
Q 881 4594 1212 4672 
Q 1544 4750 1819 4750 
Q 2544 4750 2975 4387 
Q 3406 4025 3406 3419 
Q 3406 3131 3298 2873 
Q 3191 2616 2906 2266 
Q 2828 2175 2409 1742 
Q 1991 1309 1228 531 
z
" transform="scale(0.015625)"/>
       </defs>
       <use xlink:href="#DejaVuSans-31"/>
       <use xlink:href="#DejaVuSans-32" x="63.623047"/>
       <use xlink:href="#DejaVuSans-30" x="127.246094"/>
      </g>
     </g>
    </g>
    <g id="xtick_4">
     <g id="line2d_4">
      <g>
       <use xlink:href="#ma9c615403c" x="387.632268" y="299.518125" style="stroke: #000000; stroke-width: 0.8"/>
      </g>
     </g>
     <g id="text_4">
      <!-- 125 -->
      <g transform="translate(378.088518 314.116563) scale(0.1 -0.1)">
       <use xlink:href="#DejaVuSans-31"/>
       <use xlink:href="#DejaVuSans-32" x="63.623047"/>
       <use xlink:href="#DejaVuSans-35" x="127.246094"/>
      </g>
     </g>
    </g>
    <g id="xtick_5">
     <g id="line2d_5">
      <g>
       <use xlink:href="#ma9c615403c" x="490.515336" y="299.518125" style="stroke: #000000; stroke-width: 0.8"/>
      </g>
     </g>
     <g id="text_5">
      <!-- 130 -->
      <g transform="translate(480.971586 314.116563) scale(0.1 -0.1)">
       <defs>
        <path id="DejaVuSans-33" d="M 2597 2516 
Q 3050 2419 3304 2112 
Q 3559 1806 3559 1356 
Q 3559 666 3084 287 
Q 2609 -91 1734 -91 
Q 1441 -91 1130 -33 
Q 819 25 488 141 
L 488 750 
Q 750 597 1062 519 
Q 1375 441 1716 441 
Q 2309 441 2620 675 
Q 2931 909 2931 1356 
Q 2931 1769 2642 2001 
Q 2353 2234 1838 2234 
L 1294 2234 
L 1294 2753 
L 1863 2753 
Q 2328 2753 2575 2939 
Q 2822 3125 2822 3475 
Q 2822 3834 2567 4026 
Q 2313 4219 1838 4219 
Q 1578 4219 1281 4162 
Q 984 4106 628 3988 
L 628 4550 
Q 988 4650 1302 4700 
Q 1616 4750 1894 4750 
Q 2613 4750 3031 4423 
Q 3450 4097 3450 3541 
Q 3450 3153 3228 2886 
Q 3006 2619 2597 2516 
z
" transform="scale(0.015625)"/>
       </defs>
       <use xlink:href="#DejaVuSans-31"/>
       <use xlink:href="#DejaVuSans-33" x="63.623047"/>
       <use xlink:href="#DejaVuSans-30" x="127.246094"/>
      </g>
     </g>
    </g>
    <g id="xtick_6">
     <g id="line2d_6">
      <g>
       <use xlink:href="#ma9c615403c" x="593.398405" y="299.518125" style="stroke: #000000; stroke-width: 0.8"/>
      </g>
     </g>
     <g id="text_6">
      <!-- 135 -->
      <g transform="translate(583.854655 314.116563) scale(0.1 -0.1)">
       <use xlink:href="#DejaVuSans-31"/>
       <use xlink:href="#DejaVuSans-33" x="63.623047"/>
       <use xlink:href="#DejaVuSans-35" x="127.246094"/>
      </g>
     </g>
    </g>
    <g id="text_7">
     <!-- Arterial pressure -->
     <g transform="translate(293.915625 327.794688) scale(0.1 -0.1)">
      <defs>
       <path id="DejaVuSans-41" d="M 2188 4044 
L 1331 1722 
L 3047 1722 
L 2188 4044 
z
M 1831 4666 
L 2547 4666 
L 4325 0 
L 3669 0 
L 3244 1197 
L 1141 1197 
L 716 0 
L 50 0 
L 1831 4666 
z
" transform="scale(0.015625)"/>
       <path id="DejaVuSans-72" d="M 2631 2963 
Q 2534 3019 2420 3045 
Q 2306 3072 2169 3072 
Q 1681 3072 1420 2755 
Q 1159 2438 1159 1844 
L 1159 0 
L 581 0 
L 581 3500 
L 1159 3500 
L 1159 2956 
Q 1341 3275 1631 3429 
Q 1922 3584 2338 3584 
Q 2397 3584 2469 3576 
Q 2541 3569 2628 3553 
L 2631 2963 
z
" transform="scale(0.015625)"/>
       <path id="DejaVuSans-74" d="M 1172 4494 
L 1172 3500 
L 2356 3500 
L 2356 3053 
L 1172 3053 
L 1172 1153 
Q 1172 725 1289 603 
Q 1406 481 1766 481 
L 2356 481 
L 2356 0 
L 1766 0 
Q 1100 0 847 248 
Q 594 497 594 1153 
L 594 3053 
L 172 3053 
L 172 3500 
L 594 3500 
L 594 4494 
L 1172 4494 
z
" transform="scale(0.015625)"/>
       <path id="DejaVuSans-65" d="M 3597 1894 
L 3597 1613 
L 953 1613 
Q 991 1019 1311 708 
Q 1631 397 2203 397 
Q 2534 397 2845 478 
Q 3156 559 3463 722 
L 3463 178 
Q 3153 47 2828 -22 
Q 2503 -91 2169 -91 
Q 1331 -91 842 396 
Q 353 884 353 1716 
Q 353 2575 817 3079 
Q 1281 3584 2069 3584 
Q 2775 3584 3186 3129 
Q 3597 2675 3597 1894 
z
M 3022 2063 
Q 3016 2534 2758 2815 
Q 2500 3097 2075 3097 
Q 1594 3097 1305 2825 
Q 1016 2553 972 2059 
L 3022 2063 
z
" transform="scale(0.015625)"/>
       <path id="DejaVuSans-69" d="M 603 3500 
L 1178 3500 
L 1178 0 
L 603 0 
L 603 3500 
z
M 603 4863 
L 1178 4863 
L 1178 4134 
L 603 4134 
L 603 4863 
z
" transform="scale(0.015625)"/>
       <path id="DejaVuSans-61" d="M 2194 1759 
Q 1497 1759 1228 1600 
Q 959 1441 959 1056 
Q 959 750 1161 570 
Q 1363 391 1709 391 
Q 2188 391 2477 730 
Q 2766 1069 2766 1631 
L 2766 1759 
L 2194 1759 
z
M 3341 1997 
L 3341 0 
L 2766 0 
L 2766 531 
Q 2569 213 2275 61 
Q 1981 -91 1556 -91 
Q 1019 -91 701 211 
Q 384 513 384 1019 
Q 384 1609 779 1909 
Q 1175 2209 1959 2209 
L 2766 2209 
L 2766 2266 
Q 2766 2663 2505 2880 
Q 2244 3097 1772 3097 
Q 1472 3097 1187 3025 
Q 903 2953 641 2809 
L 641 3341 
Q 956 3463 1253 3523 
Q 1550 3584 1831 3584 
Q 2591 3584 2966 3190 
Q 3341 2797 3341 1997 
z
" transform="scale(0.015625)"/>
       <path id="DejaVuSans-6c" d="M 603 4863 
L 1178 4863 
L 1178 0 
L 603 0 
L 603 4863 
z
" transform="scale(0.015625)"/>
       <path id="DejaVuSans-20" transform="scale(0.015625)"/>
       <path id="DejaVuSans-70" d="M 1159 525 
L 1159 -1331 
L 581 -1331 
L 581 3500 
L 1159 3500 
L 1159 2969 
Q 1341 3281 1617 3432 
Q 1894 3584 2278 3584 
Q 2916 3584 3314 3078 
Q 3713 2572 3713 1747 
Q 3713 922 3314 415 
Q 2916 -91 2278 -91 
Q 1894 -91 1617 61 
Q 1341 213 1159 525 
z
M 3116 1747 
Q 3116 2381 2855 2742 
Q 2594 3103 2138 3103 
Q 1681 3103 1420 2742 
Q 1159 2381 1159 1747 
Q 1159 1113 1420 752 
Q 1681 391 2138 391 
Q 2594 391 2855 752 
Q 3116 1113 3116 1747 
z
" transform="scale(0.015625)"/>
       <path id="DejaVuSans-73" d="M 2834 3397 
L 2834 2853 
Q 2591 2978 2328 3040 
Q 2066 3103 1784 3103 
Q 1356 3103 1142 2972 
Q 928 2841 928 2578 
Q 928 2378 1081 2264 
Q 1234 2150 1697 2047 
L 1894 2003 
Q 2506 1872 2764 1633 
Q 3022 1394 3022 966 
Q 3022 478 2636 193 
Q 2250 -91 1575 -91 
Q 1294 -91 989 -36 
Q 684 19 347 128 
L 347 722 
Q 666 556 975 473 
Q 1284 391 1588 391 
Q 1994 391 2212 530 
Q 2431 669 2431 922 
Q 2431 1156 2273 1281 
Q 2116 1406 1581 1522 
L 1381 1569 
Q 847 1681 609 1914 
Q 372 2147 372 2553 
Q 372 3047 722 3315 
Q 1072 3584 1716 3584 
Q 2034 3584 2315 3537 
Q 2597 3491 2834 3397 
z
" transform="scale(0.015625)"/>
       <path id="DejaVuSans-75" d="M 544 1381 
L 544 3500 
L 1119 3500 
L 1119 1403 
Q 1119 906 1312 657 
Q 1506 409 1894 409 
Q 2359 409 2629 706 
Q 2900 1003 2900 1516 
L 2900 3500 
L 3475 3500 
L 3475 0 
L 2900 0 
L 2900 538 
Q 2691 219 2414 64 
Q 2138 -91 1772 -91 
Q 1169 -91 856 284 
Q 544 659 544 1381 
z
M 1991 3584 
L 1991 3584 
z
" transform="scale(0.015625)"/>
      </defs>
      <use xlink:href="#DejaVuSans-41"/>
      <use xlink:href="#DejaVuSans-72" x="68.408203"/>
      <use xlink:href="#DejaVuSans-74" x="109.521484"/>
      <use xlink:href="#DejaVuSans-65" x="148.730469"/>
      <use xlink:href="#DejaVuSans-72" x="210.253906"/>
      <use xlink:href="#DejaVuSans-69" x="251.367188"/>
      <use xlink:href="#DejaVuSans-61" x="279.150391"/>
      <use xlink:href="#DejaVuSans-6c" x="340.429688"/>
      <use xlink:href="#DejaVuSans-20" x="368.212891"/>
      <use xlink:href="#DejaVuSans-70" x="400"/>
      <use xlink:href="#DejaVuSans-72" x="463.476562"/>
      <use xlink:href="#DejaVuSans-65" x="502.339844"/>
      <use xlink:href="#DejaVuSans-73" x="563.863281"/>
      <use xlink:href="#DejaVuSans-73" x="615.962891"/>
      <use xlink:href="#DejaVuSans-75" x="668.0625"/>
      <use xlink:href="#DejaVuSans-72" x="731.441406"/>
      <use xlink:href="#DejaVuSans-65" x="770.304688"/>
     </g>
    </g>
   </g>
   <g id="matplotlib.axis_2">
    <g id="ytick_1">
     <g id="line2d_7">
      <defs>
       <path id="m4a9689c521" d="M 0 0 
L -3.5 0 
" style="stroke: #000000; stroke-width: 0.8"/>
      </defs>
      <g>
       <use xlink:href="#m4a9689c521" x="56.50625" y="299.518125" style="stroke: #000000; stroke-width: 0.8"/>
      </g>
     </g>
     <g id="text_8">
      <!-- 0.000 -->
      <g transform="translate(20.878125 303.317344) scale(0.1 -0.1)">
       <defs>
        <path id="DejaVuSans-2e" d="M 684 794 
L 1344 794 
L 1344 0 
L 684 0 
L 684 794 
z
" transform="scale(0.015625)"/>
       </defs>
       <use xlink:href="#DejaVuSans-30"/>
       <use xlink:href="#DejaVuSans-2e" x="63.623047"/>
       <use xlink:href="#DejaVuSans-30" x="95.410156"/>
       <use xlink:href="#DejaVuSans-30" x="159.033203"/>
       <use xlink:href="#DejaVuSans-30" x="222.65625"/>
      </g>
     </g>
    </g>
    <g id="ytick_2">
     <g id="line2d_8">
      <g>
       <use xlink:href="#m4a9689c521" x="56.50625" y="265.763875" style="stroke: #000000; stroke-width: 0.8"/>
      </g>
     </g>
     <g id="text_9">
      <!-- 0.025 -->
      <g transform="translate(20.878125 269.563093) scale(0.1 -0.1)">
       <use xlink:href="#DejaVuSans-30"/>
       <use xlink:href="#DejaVuSans-2e" x="63.623047"/>
       <use xlink:href="#DejaVuSans-30" x="95.410156"/>
       <use xlink:href="#DejaVuSans-32" x="159.033203"/>
       <use xlink:href="#DejaVuSans-35" x="222.65625"/>
      </g>
     </g>
    </g>
    <g id="ytick_3">
     <g id="line2d_9">
      <g>
       <use xlink:href="#m4a9689c521" x="56.50625" y="232.009624" style="stroke: #000000; stroke-width: 0.8"/>
      </g>
     </g>
     <g id="text_10">
      <!-- 0.050 -->
      <g transform="translate(20.878125 235.808843) scale(0.1 -0.1)">
       <use xlink:href="#DejaVuSans-30"/>
       <use xlink:href="#DejaVuSans-2e" x="63.623047"/>
       <use xlink:href="#DejaVuSans-30" x="95.410156"/>
       <use xlink:href="#DejaVuSans-35" x="159.033203"/>
       <use xlink:href="#DejaVuSans-30" x="222.65625"/>
      </g>
     </g>
    </g>
    <g id="ytick_4">
     <g id="line2d_10">
      <g>
       <use xlink:href="#m4a9689c521" x="56.50625" y="198.255374" style="stroke: #000000; stroke-width: 0.8"/>
      </g>
     </g>
     <g id="text_11">
      <!-- 0.075 -->
      <g transform="translate(20.878125 202.054593) scale(0.1 -0.1)">
       <defs>
        <path id="DejaVuSans-37" d="M 525 4666 
L 3525 4666 
L 3525 4397 
L 1831 0 
L 1172 0 
L 2766 4134 
L 525 4134 
L 525 4666 
z
" transform="scale(0.015625)"/>
       </defs>
       <use xlink:href="#DejaVuSans-30"/>
       <use xlink:href="#DejaVuSans-2e" x="63.623047"/>
       <use xlink:href="#DejaVuSans-30" x="95.410156"/>
       <use xlink:href="#DejaVuSans-37" x="159.033203"/>
       <use xlink:href="#DejaVuSans-35" x="222.65625"/>
      </g>
     </g>
    </g>
    <g id="ytick_5">
     <g id="line2d_11">
      <g>
       <use xlink:href="#m4a9689c521" x="56.50625" y="164.501124" style="stroke: #000000; stroke-width: 0.8"/>
      </g>
     </g>
     <g id="text_12">
      <!-- 0.100 -->
      <g transform="translate(20.878125 168.300342) scale(0.1 -0.1)">
       <use xlink:href="#DejaVuSans-30"/>
       <use xlink:href="#DejaVuSans-2e" x="63.623047"/>
       <use xlink:href="#DejaVuSans-31" x="95.410156"/>
       <use xlink:href="#DejaVuSans-30" x="159.033203"/>
       <use xlink:href="#DejaVuSans-30" x="222.65625"/>
      </g>
     </g>
    </g>
    <g id="ytick_6">
     <g id="line2d_12">
      <g>
       <use xlink:href="#m4a9689c521" x="56.50625" y="130.746873" style="stroke: #000000; stroke-width: 0.8"/>
      </g>
     </g>
     <g id="text_13">
      <!-- 0.125 -->
      <g transform="translate(20.878125 134.546092) scale(0.1 -0.1)">
       <use xlink:href="#DejaVuSans-30"/>
       <use xlink:href="#DejaVuSans-2e" x="63.623047"/>
       <use xlink:href="#DejaVuSans-31" x="95.410156"/>
       <use xlink:href="#DejaVuSans-32" x="159.033203"/>
       <use xlink:href="#DejaVuSans-35" x="222.65625"/>
      </g>
     </g>
    </g>
    <g id="ytick_7">
     <g id="line2d_13">
      <g>
       <use xlink:href="#m4a9689c521" x="56.50625" y="96.992623" style="stroke: #000000; stroke-width: 0.8"/>
      </g>
     </g>
     <g id="text_14">
      <!-- 0.150 -->
      <g transform="translate(20.878125 100.791842) scale(0.1 -0.1)">
       <use xlink:href="#DejaVuSans-30"/>
       <use xlink:href="#DejaVuSans-2e" x="63.623047"/>
       <use xlink:href="#DejaVuSans-31" x="95.410156"/>
       <use xlink:href="#DejaVuSans-35" x="159.033203"/>
       <use xlink:href="#DejaVuSans-30" x="222.65625"/>
      </g>
     </g>
    </g>
    <g id="ytick_8">
     <g id="line2d_14">
      <g>
       <use xlink:href="#m4a9689c521" x="56.50625" y="63.238373" style="stroke: #000000; stroke-width: 0.8"/>
      </g>
     </g>
     <g id="text_15">
      <!-- 0.175 -->
      <g transform="translate(20.878125 67.037592) scale(0.1 -0.1)">
       <use xlink:href="#DejaVuSans-30"/>
       <use xlink:href="#DejaVuSans-2e" x="63.623047"/>
       <use xlink:href="#DejaVuSans-31" x="95.410156"/>
       <use xlink:href="#DejaVuSans-37" x="159.033203"/>
       <use xlink:href="#DejaVuSans-35" x="222.65625"/>
      </g>
     </g>
    </g>
    <g id="ytick_9">
     <g id="line2d_15">
      <g>
       <use xlink:href="#m4a9689c521" x="56.50625" y="29.484122" style="stroke: #000000; stroke-width: 0.8"/>
      </g>
     </g>
     <g id="text_16">
      <!-- 0.200 -->
      <g transform="translate(20.878125 33.283341) scale(0.1 -0.1)">
       <use xlink:href="#DejaVuSans-30"/>
       <use xlink:href="#DejaVuSans-2e" x="63.623047"/>
       <use xlink:href="#DejaVuSans-32" x="95.410156"/>
       <use xlink:href="#DejaVuSans-30" x="159.033203"/>
       <use xlink:href="#DejaVuSans-30" x="222.65625"/>
      </g>
     </g>
    </g>
    <g id="text_17">
     <!-- Density -->
     <g transform="translate(14.798437 179.926719) rotate(-90) scale(0.1 -0.1)">
      <defs>
       <path id="DejaVuSans-44" d="M 1259 4147 
L 1259 519 
L 2022 519 
Q 2988 519 3436 956 
Q 3884 1394 3884 2338 
Q 3884 3275 3436 3711 
Q 2988 4147 2022 4147 
L 1259 4147 
z
M 628 4666 
L 1925 4666 
Q 3281 4666 3915 4102 
Q 4550 3538 4550 2338 
Q 4550 1131 3912 565 
Q 3275 0 1925 0 
L 628 0 
L 628 4666 
z
" transform="scale(0.015625)"/>
       <path id="DejaVuSans-6e" d="M 3513 2113 
L 3513 0 
L 2938 0 
L 2938 2094 
Q 2938 2591 2744 2837 
Q 2550 3084 2163 3084 
Q 1697 3084 1428 2787 
Q 1159 2491 1159 1978 
L 1159 0 
L 581 0 
L 581 3500 
L 1159 3500 
L 1159 2956 
Q 1366 3272 1645 3428 
Q 1925 3584 2291 3584 
Q 2894 3584 3203 3211 
Q 3513 2838 3513 2113 
z
" transform="scale(0.015625)"/>
       <path id="DejaVuSans-79" d="M 2059 -325 
Q 1816 -950 1584 -1140 
Q 1353 -1331 966 -1331 
L 506 -1331 
L 506 -850 
L 844 -850 
Q 1081 -850 1212 -737 
Q 1344 -625 1503 -206 
L 1606 56 
L 191 3500 
L 800 3500 
L 1894 763 
L 2988 3500 
L 3597 3500 
L 2059 -325 
z
" transform="scale(0.015625)"/>
      </defs>
      <use xlink:href="#DejaVuSans-44"/>
      <use xlink:href="#DejaVuSans-65" x="77.001953"/>
      <use xlink:href="#DejaVuSans-6e" x="138.525391"/>
      <use xlink:href="#DejaVuSans-73" x="201.904297"/>
      <use xlink:href="#DejaVuSans-69" x="254.003906"/>
      <use xlink:href="#DejaVuSans-74" x="281.787109"/>
      <use xlink:href="#DejaVuSans-79" x="320.996094"/>
     </g>
    </g>
   </g>
   <g id="patch_303">
    <path d="M 56.50625 299.518125 
L 56.50625 22.318125 
" style="fill: none; stroke: #000000; stroke-width: 0.8; stroke-linejoin: miter; stroke-linecap: square"/>
   </g>
   <g id="patch_304">
    <path d="M 614.50625 299.518125 
L 614.50625 22.318125 
" style="fill: none; stroke: #000000; stroke-width: 0.8; stroke-linejoin: miter; stroke-linecap: square"/>
   </g>
   <g id="patch_305">
    <path d="M 56.50625 299.518125 
L 614.50625 299.518125 
" style="fill: none; stroke: #000000; stroke-width: 0.8; stroke-linejoin: miter; stroke-linecap: square"/>
   </g>
   <g id="patch_306">
    <path d="M 56.50625 22.318125 
L 614.50625 22.318125 
" style="fill: none; stroke: #000000; stroke-width: 0.8; stroke-linejoin: miter; stroke-linecap: square"/>
   </g>
   <g id="text_18">
    <!-- Gamma (5, 110) -->
    <g transform="translate(286.142188 16.318125) scale(0.12 -0.12)">
     <defs>
      <path id="DejaVuSans-47" d="M 3809 666 
L 3809 1919 
L 2778 1919 
L 2778 2438 
L 4434 2438 
L 4434 434 
Q 4069 175 3628 42 
Q 3188 -91 2688 -91 
Q 1594 -91 976 548 
Q 359 1188 359 2328 
Q 359 3472 976 4111 
Q 1594 4750 2688 4750 
Q 3144 4750 3555 4637 
Q 3966 4525 4313 4306 
L 4313 3634 
Q 3963 3931 3569 4081 
Q 3175 4231 2741 4231 
Q 1884 4231 1454 3753 
Q 1025 3275 1025 2328 
Q 1025 1384 1454 906 
Q 1884 428 2741 428 
Q 3075 428 3337 486 
Q 3600 544 3809 666 
z
" transform="scale(0.015625)"/>
      <path id="DejaVuSans-6d" d="M 3328 2828 
Q 3544 3216 3844 3400 
Q 4144 3584 4550 3584 
Q 5097 3584 5394 3201 
Q 5691 2819 5691 2113 
L 5691 0 
L 5113 0 
L 5113 2094 
Q 5113 2597 4934 2840 
Q 4756 3084 4391 3084 
Q 3944 3084 3684 2787 
Q 3425 2491 3425 1978 
L 3425 0 
L 2847 0 
L 2847 2094 
Q 2847 2600 2669 2842 
Q 2491 3084 2119 3084 
Q 1678 3084 1418 2786 
Q 1159 2488 1159 1978 
L 1159 0 
L 581 0 
L 581 3500 
L 1159 3500 
L 1159 2956 
Q 1356 3278 1631 3431 
Q 1906 3584 2284 3584 
Q 2666 3584 2933 3390 
Q 3200 3197 3328 2828 
z
" transform="scale(0.015625)"/>
      <path id="DejaVuSans-28" d="M 1984 4856 
Q 1566 4138 1362 3434 
Q 1159 2731 1159 2009 
Q 1159 1288 1364 580 
Q 1569 -128 1984 -844 
L 1484 -844 
Q 1016 -109 783 600 
Q 550 1309 550 2009 
Q 550 2706 781 3412 
Q 1013 4119 1484 4856 
L 1984 4856 
z
" transform="scale(0.015625)"/>
      <path id="DejaVuSans-2c" d="M 750 794 
L 1409 794 
L 1409 256 
L 897 -744 
L 494 -744 
L 750 256 
L 750 794 
z
" transform="scale(0.015625)"/>
      <path id="DejaVuSans-29" d="M 513 4856 
L 1013 4856 
Q 1481 4119 1714 3412 
Q 1947 2706 1947 2009 
Q 1947 1309 1714 600 
Q 1481 -109 1013 -844 
L 513 -844 
Q 928 -128 1133 580 
Q 1338 1288 1338 2009 
Q 1338 2731 1133 3434 
Q 928 4138 513 4856 
z
" transform="scale(0.015625)"/>
     </defs>
     <use xlink:href="#DejaVuSans-47"/>
     <use xlink:href="#DejaVuSans-61" x="77.490234"/>
     <use xlink:href="#DejaVuSans-6d" x="138.769531"/>
     <use xlink:href="#DejaVuSans-6d" x="236.181641"/>
     <use xlink:href="#DejaVuSans-61" x="333.59375"/>
     <use xlink:href="#DejaVuSans-20" x="394.873047"/>
     <use xlink:href="#DejaVuSans-28" x="426.660156"/>
     <use xlink:href="#DejaVuSans-35" x="465.673828"/>
     <use xlink:href="#DejaVuSans-2c" x="529.296875"/>
     <use xlink:href="#DejaVuSans-20" x="561.083984"/>
     <use xlink:href="#DejaVuSans-31" x="592.871094"/>
     <use xlink:href="#DejaVuSans-31" x="656.494141"/>
     <use xlink:href="#DejaVuSans-30" x="720.117188"/>
     <use xlink:href="#DejaVuSans-29" x="783.740234"/>
    </g>
   </g>
  </g>
 </g>
 <defs>
  <clipPath id="p25ce3b577e">
   <rect x="56.50625" y="22.318125" width="558" height="277.2"/>
  </clipPath>
 </defs>
</svg>
