<?xml version="1.0" encoding="utf-8" standalone="no"?>
<!DOCTYPE svg PUBLIC "-//W3C//DTD SVG 1.1//EN"
  "http://www.w3.org/Graphics/SVG/1.1/DTD/svg11.dtd">
<svg xmlns:xlink="http://www.w3.org/1999/xlink" width="608.98125pt" height="337.074375pt" viewBox="0 0 608.98125 337.074375" xmlns="http://www.w3.org/2000/svg" version="1.1">
 <metadata>
  <rdf:RDF xmlns:dc="http://purl.org/dc/elements/1.1/" xmlns:cc="http://creativecommons.org/ns#" xmlns:rdf="http://www.w3.org/1999/02/22-rdf-syntax-ns#">
   <cc:Work>
    <dc:type rdf:resource="http://purl.org/dc/dcmitype/StillImage"/>
    <dc:date>2025-05-14T19:36:01.583843</dc:date>
    <dc:format>image/svg+xml</dc:format>
    <dc:creator>
     <cc:Agent>
      <dc:title>Matplotlib v3.7.2, https://matplotlib.org/</dc:title>
     </cc:Agent>
    </dc:creator>
   </cc:Work>
  </rdf:RDF>
 </metadata>
 <defs>
  <style type="text/css">*{stroke-linejoin: round; stroke-linecap: butt}</style>
 </defs>
 <g id="figure_1">
  <g id="patch_1">
   <path d="M 0 337.074375 
L 608.98125 337.074375 
L 608.98125 0 
L 0 0 
z
" style="fill: #ffffff"/>
  </g>
  <g id="axes_1">
   <g id="patch_2">
    <path d="M 43.78125 299.518125 
L 601.78125 299.518125 
L 601.78125 22.318125 
L 43.78125 22.318125 
z
" style="fill: #ffffff"/>
   </g>
   <g id="matplotlib.axis_1">
    <g id="xtick_1">
     <g id="line2d_1">
      <defs>
       <path id="m76ce8cb24d" d="M 0 0 
L 0 3.5 
" style="stroke: #000000; stroke-width: 0.8"/>
      </defs>
      <g>
       <use xlink:href="#m76ce8cb24d" x="69.144886" y="299.518125" style="stroke: #000000; stroke-width: 0.8"/>
      </g>
     </g>
     <g id="text_1">
      <!-- −15 -->
      <g transform="translate(58.592543 314.116563) scale(0.1 -0.1)">
       <defs>
        <path id="DejaVuSans-2212" d="M 678 2272 
L 4684 2272 
L 4684 1741 
L 678 1741 
L 678 2272 
z
" transform="scale(0.015625)"/>
        <path id="DejaVuSans-31" d="M 794 531 
L 1825 531 
L 1825 4091 
L 703 3866 
L 703 4441 
L 1819 4666 
L 2450 4666 
L 2450 531 
L 3481 531 
L 3481 0 
L 794 0 
L 794 531 
z
" transform="scale(0.015625)"/>
        <path id="DejaVuSans-35" d="M 691 4666 
L 3169 4666 
L 3169 4134 
L 1269 4134 
L 1269 2991 
Q 1406 3038 1543 3061 
Q 1681 3084 1819 3084 
Q 2600 3084 3056 2656 
Q 3513 2228 3513 1497 
Q 3513 744 3044 326 
Q 2575 -91 1722 -91 
Q 1428 -91 1123 -41 
Q 819 9 494 109 
L 494 744 
Q 775 591 1075 516 
Q 1375 441 1709 441 
Q 2250 441 2565 725 
Q 2881 1009 2881 1497 
Q 2881 1984 2565 2268 
Q 2250 2553 1709 2553 
Q 1456 2553 1204 2497 
Q 953 2441 691 2322 
L 691 4666 
z
" transform="scale(0.015625)"/>
       </defs>
       <use xlink:href="#DejaVuSans-2212"/>
       <use xlink:href="#DejaVuSans-31" x="83.789062"/>
       <use xlink:href="#DejaVuSans-35" x="147.412109"/>
      </g>
     </g>
    </g>
    <g id="xtick_2">
     <g id="line2d_2">
      <g>
       <use xlink:href="#m76ce8cb24d" x="153.693159" y="299.518125" style="stroke: #000000; stroke-width: 0.8"/>
      </g>
     </g>
     <g id="text_2">
      <!-- −10 -->
      <g transform="translate(143.140815 314.116563) scale(0.1 -0.1)">
       <defs>
        <path id="DejaVuSans-30" d="M 2034 4250 
Q 1547 4250 1301 3770 
Q 1056 3291 1056 2328 
Q 1056 1369 1301 889 
Q 1547 409 2034 409 
Q 2525 409 2770 889 
Q 3016 1369 3016 2328 
Q 3016 3291 2770 3770 
Q 2525 4250 2034 4250 
z
M 2034 4750 
Q 2819 4750 3233 4129 
Q 3647 3509 3647 2328 
Q 3647 1150 3233 529 
Q 2819 -91 2034 -91 
Q 1250 -91 836 529 
Q 422 1150 422 2328 
Q 422 3509 836 4129 
Q 1250 4750 2034 4750 
z
" transform="scale(0.015625)"/>
       </defs>
       <use xlink:href="#DejaVuSans-2212"/>
       <use xlink:href="#DejaVuSans-31" x="83.789062"/>
       <use xlink:href="#DejaVuSans-30" x="147.412109"/>
      </g>
     </g>
    </g>
    <g id="xtick_3">
     <g id="line2d_3">
      <g>
       <use xlink:href="#m76ce8cb24d" x="238.241432" y="299.518125" style="stroke: #000000; stroke-width: 0.8"/>
      </g>
     </g>
     <g id="text_3">
      <!-- −5 -->
      <g transform="translate(230.870338 314.116563) scale(0.1 -0.1)">
       <use xlink:href="#DejaVuSans-2212"/>
       <use xlink:href="#DejaVuSans-35" x="83.789062"/>
      </g>
     </g>
    </g>
    <g id="xtick_4">
     <g id="line2d_4">
      <g>
       <use xlink:href="#m76ce8cb24d" x="322.789705" y="299.518125" style="stroke: #000000; stroke-width: 0.8"/>
      </g>
     </g>
     <g id="text_4">
      <!-- 0 -->
      <g transform="translate(319.608455 314.116563) scale(0.1 -0.1)">
       <use xlink:href="#DejaVuSans-30"/>
      </g>
     </g>
    </g>
    <g id="xtick_5">
     <g id="line2d_5">
      <g>
       <use xlink:href="#m76ce8cb24d" x="407.337978" y="299.518125" style="stroke: #000000; stroke-width: 0.8"/>
      </g>
     </g>
     <g id="text_5">
      <!-- 5 -->
      <g transform="translate(404.156728 314.116563) scale(0.1 -0.1)">
       <use xlink:href="#DejaVuSans-35"/>
      </g>
     </g>
    </g>
    <g id="xtick_6">
     <g id="line2d_6">
      <g>
       <use xlink:href="#m76ce8cb24d" x="491.88625" y="299.518125" style="stroke: #000000; stroke-width: 0.8"/>
      </g>
     </g>
     <g id="text_6">
      <!-- 10 -->
      <g transform="translate(485.52375 314.116563) scale(0.1 -0.1)">
       <use xlink:href="#DejaVuSans-31"/>
       <use xlink:href="#DejaVuSans-30" x="63.623047"/>
      </g>
     </g>
    </g>
    <g id="xtick_7">
     <g id="line2d_7">
      <g>
       <use xlink:href="#m76ce8cb24d" x="576.434523" y="299.518125" style="stroke: #000000; stroke-width: 0.8"/>
      </g>
     </g>
     <g id="text_7">
      <!-- 15 -->
      <g transform="translate(570.072023 314.116563) scale(0.1 -0.1)">
       <use xlink:href="#DejaVuSans-31"/>
       <use xlink:href="#DejaVuSans-35" x="63.623047"/>
      </g>
     </g>
    </g>
    <g id="text_8">
     <!-- X -->
     <g transform="translate(319.35625 327.794688) scale(0.1 -0.1)">
      <defs>
       <path id="DejaVuSans-58" d="M 403 4666 
L 1081 4666 
L 2241 2931 
L 3406 4666 
L 4084 4666 
L 2584 2425 
L 4184 0 
L 3506 0 
L 2194 1984 
L 872 0 
L 191 0 
L 1856 2491 
L 403 4666 
z
" transform="scale(0.015625)"/>
      </defs>
      <use xlink:href="#DejaVuSans-58"/>
     </g>
    </g>
   </g>
   <g id="matplotlib.axis_2">
    <g id="ytick_1">
     <g id="line2d_8">
      <defs>
       <path id="m6d5fcfd2d2" d="M 0 0 
L -3.5 0 
" style="stroke: #000000; stroke-width: 0.8"/>
      </defs>
      <g>
       <use xlink:href="#m6d5fcfd2d2" x="43.78125" y="286.918125" style="stroke: #000000; stroke-width: 0.8"/>
      </g>
     </g>
     <g id="text_9">
      <!-- 0.0 -->
      <g transform="translate(20.878125 290.717344) scale(0.1 -0.1)">
       <defs>
        <path id="DejaVuSans-2e" d="M 684 794 
L 1344 794 
L 1344 0 
L 684 0 
L 684 794 
z
" transform="scale(0.015625)"/>
       </defs>
       <use xlink:href="#DejaVuSans-30"/>
       <use xlink:href="#DejaVuSans-2e" x="63.623047"/>
       <use xlink:href="#DejaVuSans-30" x="95.410156"/>
      </g>
     </g>
    </g>
    <g id="ytick_2">
     <g id="line2d_9">
      <g>
       <use xlink:href="#m6d5fcfd2d2" x="43.78125" y="236.518125" style="stroke: #000000; stroke-width: 0.8"/>
      </g>
     </g>
     <g id="text_10">
      <!-- 0.2 -->
      <g transform="translate(20.878125 240.317344) scale(0.1 -0.1)">
       <defs>
        <path id="DejaVuSans-32" d="M 1228 531 
L 3431 531 
L 3431 0 
L 469 0 
L 469 531 
Q 828 903 1448 1529 
Q 2069 2156 2228 2338 
Q 2531 2678 2651 2914 
Q 2772 3150 2772 3378 
Q 2772 3750 2511 3984 
Q 2250 4219 1831 4219 
Q 1534 4219 1204 4116 
Q 875 4013 500 3803 
L 500 4441 
Q 881 4594 1212 4672 
Q 1544 4750 1819 4750 
Q 2544 4750 2975 4387 
Q 3406 4025 3406 3419 
Q 3406 3131 3298 2873 
Q 3191 2616 2906 2266 
Q 2828 2175 2409 1742 
Q 1991 1309 1228 531 
z
" transform="scale(0.015625)"/>
       </defs>
       <use xlink:href="#DejaVuSans-30"/>
       <use xlink:href="#DejaVuSans-2e" x="63.623047"/>
       <use xlink:href="#DejaVuSans-32" x="95.410156"/>
      </g>
     </g>
    </g>
    <g id="ytick_3">
     <g id="line2d_10">
      <g>
       <use xlink:href="#m6d5fcfd2d2" x="43.78125" y="186.118125" style="stroke: #000000; stroke-width: 0.8"/>
      </g>
     </g>
     <g id="text_11">
      <!-- 0.4 -->
      <g transform="translate(20.878125 189.917344) scale(0.1 -0.1)">
       <defs>
        <path id="DejaVuSans-34" d="M 2419 4116 
L 825 1625 
L 2419 1625 
L 2419 4116 
z
M 2253 4666 
L 3047 4666 
L 3047 1625 
L 3713 1625 
L 3713 1100 
L 3047 1100 
L 3047 0 
L 2419 0 
L 2419 1100 
L 313 1100 
L 313 1709 
L 2253 4666 
z
" transform="scale(0.015625)"/>
       </defs>
       <use xlink:href="#DejaVuSans-30"/>
       <use xlink:href="#DejaVuSans-2e" x="63.623047"/>
       <use xlink:href="#DejaVuSans-34" x="95.410156"/>
      </g>
     </g>
    </g>
    <g id="ytick_4">
     <g id="line2d_11">
      <g>
       <use xlink:href="#m6d5fcfd2d2" x="43.78125" y="135.718125" style="stroke: #000000; stroke-width: 0.8"/>
      </g>
     </g>
     <g id="text_12">
      <!-- 0.6 -->
      <g transform="translate(20.878125 139.517344) scale(0.1 -0.1)">
       <defs>
        <path id="DejaVuSans-36" d="M 2113 2584 
Q 1688 2584 1439 2293 
Q 1191 2003 1191 1497 
Q 1191 994 1439 701 
Q 1688 409 2113 409 
Q 2538 409 2786 701 
Q 3034 994 3034 1497 
Q 3034 2003 2786 2293 
Q 2538 2584 2113 2584 
z
M 3366 4563 
L 3366 3988 
Q 3128 4100 2886 4159 
Q 2644 4219 2406 4219 
Q 1781 4219 1451 3797 
Q 1122 3375 1075 2522 
Q 1259 2794 1537 2939 
Q 1816 3084 2150 3084 
Q 2853 3084 3261 2657 
Q 3669 2231 3669 1497 
Q 3669 778 3244 343 
Q 2819 -91 2113 -91 
Q 1303 -91 875 529 
Q 447 1150 447 2328 
Q 447 3434 972 4092 
Q 1497 4750 2381 4750 
Q 2619 4750 2861 4703 
Q 3103 4656 3366 4563 
z
" transform="scale(0.015625)"/>
       </defs>
       <use xlink:href="#DejaVuSans-30"/>
       <use xlink:href="#DejaVuSans-2e" x="63.623047"/>
       <use xlink:href="#DejaVuSans-36" x="95.410156"/>
      </g>
     </g>
    </g>
    <g id="ytick_5">
     <g id="line2d_12">
      <g>
       <use xlink:href="#m6d5fcfd2d2" x="43.78125" y="85.318125" style="stroke: #000000; stroke-width: 0.8"/>
      </g>
     </g>
     <g id="text_13">
      <!-- 0.8 -->
      <g transform="translate(20.878125 89.117344) scale(0.1 -0.1)">
       <defs>
        <path id="DejaVuSans-38" d="M 2034 2216 
Q 1584 2216 1326 1975 
Q 1069 1734 1069 1313 
Q 1069 891 1326 650 
Q 1584 409 2034 409 
Q 2484 409 2743 651 
Q 3003 894 3003 1313 
Q 3003 1734 2745 1975 
Q 2488 2216 2034 2216 
z
M 1403 2484 
Q 997 2584 770 2862 
Q 544 3141 544 3541 
Q 544 4100 942 4425 
Q 1341 4750 2034 4750 
Q 2731 4750 3128 4425 
Q 3525 4100 3525 3541 
Q 3525 3141 3298 2862 
Q 3072 2584 2669 2484 
Q 3125 2378 3379 2068 
Q 3634 1759 3634 1313 
Q 3634 634 3220 271 
Q 2806 -91 2034 -91 
Q 1263 -91 848 271 
Q 434 634 434 1313 
Q 434 1759 690 2068 
Q 947 2378 1403 2484 
z
M 1172 3481 
Q 1172 3119 1398 2916 
Q 1625 2713 2034 2713 
Q 2441 2713 2670 2916 
Q 2900 3119 2900 3481 
Q 2900 3844 2670 4047 
Q 2441 4250 2034 4250 
Q 1625 4250 1398 4047 
Q 1172 3844 1172 3481 
z
" transform="scale(0.015625)"/>
       </defs>
       <use xlink:href="#DejaVuSans-30"/>
       <use xlink:href="#DejaVuSans-2e" x="63.623047"/>
       <use xlink:href="#DejaVuSans-38" x="95.410156"/>
      </g>
     </g>
    </g>
    <g id="ytick_6">
     <g id="line2d_13">
      <g>
       <use xlink:href="#m6d5fcfd2d2" x="43.78125" y="34.918125" style="stroke: #000000; stroke-width: 0.8"/>
      </g>
     </g>
     <g id="text_14">
      <!-- 1.0 -->
      <g transform="translate(20.878125 38.717344) scale(0.1 -0.1)">
       <use xlink:href="#DejaVuSans-31"/>
       <use xlink:href="#DejaVuSans-2e" x="63.623047"/>
       <use xlink:href="#DejaVuSans-30" x="95.410156"/>
      </g>
     </g>
    </g>
    <g id="text_15">
     <!-- Cumulative probability -->
     <g transform="translate(14.798438 217.720469) rotate(-90) scale(0.1 -0.1)">
      <defs>
       <path id="DejaVuSans-43" d="M 4122 4306 
L 4122 3641 
Q 3803 3938 3442 4084 
Q 3081 4231 2675 4231 
Q 1875 4231 1450 3742 
Q 1025 3253 1025 2328 
Q 1025 1406 1450 917 
Q 1875 428 2675 428 
Q 3081 428 3442 575 
Q 3803 722 4122 1019 
L 4122 359 
Q 3791 134 3420 21 
Q 3050 -91 2638 -91 
Q 1578 -91 968 557 
Q 359 1206 359 2328 
Q 359 3453 968 4101 
Q 1578 4750 2638 4750 
Q 3056 4750 3426 4639 
Q 3797 4528 4122 4306 
z
" transform="scale(0.015625)"/>
       <path id="DejaVuSans-75" d="M 544 1381 
L 544 3500 
L 1119 3500 
L 1119 1403 
Q 1119 906 1312 657 
Q 1506 409 1894 409 
Q 2359 409 2629 706 
Q 2900 1003 2900 1516 
L 2900 3500 
L 3475 3500 
L 3475 0 
L 2900 0 
L 2900 538 
Q 2691 219 2414 64 
Q 2138 -91 1772 -91 
Q 1169 -91 856 284 
Q 544 659 544 1381 
z
M 1991 3584 
L 1991 3584 
z
" transform="scale(0.015625)"/>
       <path id="DejaVuSans-6d" d="M 3328 2828 
Q 3544 3216 3844 3400 
Q 4144 3584 4550 3584 
Q 5097 3584 5394 3201 
Q 5691 2819 5691 2113 
L 5691 0 
L 5113 0 
L 5113 2094 
Q 5113 2597 4934 2840 
Q 4756 3084 4391 3084 
Q 3944 3084 3684 2787 
Q 3425 2491 3425 1978 
L 3425 0 
L 2847 0 
L 2847 2094 
Q 2847 2600 2669 2842 
Q 2491 3084 2119 3084 
Q 1678 3084 1418 2786 
Q 1159 2488 1159 1978 
L 1159 0 
L 581 0 
L 581 3500 
L 1159 3500 
L 1159 2956 
Q 1356 3278 1631 3431 
Q 1906 3584 2284 3584 
Q 2666 3584 2933 3390 
Q 3200 3197 3328 2828 
z
" transform="scale(0.015625)"/>
       <path id="DejaVuSans-6c" d="M 603 4863 
L 1178 4863 
L 1178 0 
L 603 0 
L 603 4863 
z
" transform="scale(0.015625)"/>
       <path id="DejaVuSans-61" d="M 2194 1759 
Q 1497 1759 1228 1600 
Q 959 1441 959 1056 
Q 959 750 1161 570 
Q 1363 391 1709 391 
Q 2188 391 2477 730 
Q 2766 1069 2766 1631 
L 2766 1759 
L 2194 1759 
z
M 3341 1997 
L 3341 0 
L 2766 0 
L 2766 531 
Q 2569 213 2275 61 
Q 1981 -91 1556 -91 
Q 1019 -91 701 211 
Q 384 513 384 1019 
Q 384 1609 779 1909 
Q 1175 2209 1959 2209 
L 2766 2209 
L 2766 2266 
Q 2766 2663 2505 2880 
Q 2244 3097 1772 3097 
Q 1472 3097 1187 3025 
Q 903 2953 641 2809 
L 641 3341 
Q 956 3463 1253 3523 
Q 1550 3584 1831 3584 
Q 2591 3584 2966 3190 
Q 3341 2797 3341 1997 
z
" transform="scale(0.015625)"/>
       <path id="DejaVuSans-74" d="M 1172 4494 
L 1172 3500 
L 2356 3500 
L 2356 3053 
L 1172 3053 
L 1172 1153 
Q 1172 725 1289 603 
Q 1406 481 1766 481 
L 2356 481 
L 2356 0 
L 1766 0 
Q 1100 0 847 248 
Q 594 497 594 1153 
L 594 3053 
L 172 3053 
L 172 3500 
L 594 3500 
L 594 4494 
L 1172 4494 
z
" transform="scale(0.015625)"/>
       <path id="DejaVuSans-69" d="M 603 3500 
L 1178 3500 
L 1178 0 
L 603 0 
L 603 3500 
z
M 603 4863 
L 1178 4863 
L 1178 4134 
L 603 4134 
L 603 4863 
z
" transform="scale(0.015625)"/>
       <path id="DejaVuSans-76" d="M 191 3500 
L 800 3500 
L 1894 563 
L 2988 3500 
L 3597 3500 
L 2284 0 
L 1503 0 
L 191 3500 
z
" transform="scale(0.015625)"/>
       <path id="DejaVuSans-65" d="M 3597 1894 
L 3597 1613 
L 953 1613 
Q 991 1019 1311 708 
Q 1631 397 2203 397 
Q 2534 397 2845 478 
Q 3156 559 3463 722 
L 3463 178 
Q 3153 47 2828 -22 
Q 2503 -91 2169 -91 
Q 1331 -91 842 396 
Q 353 884 353 1716 
Q 353 2575 817 3079 
Q 1281 3584 2069 3584 
Q 2775 3584 3186 3129 
Q 3597 2675 3597 1894 
z
M 3022 2063 
Q 3016 2534 2758 2815 
Q 2500 3097 2075 3097 
Q 1594 3097 1305 2825 
Q 1016 2553 972 2059 
L 3022 2063 
z
" transform="scale(0.015625)"/>
       <path id="DejaVuSans-20" transform="scale(0.015625)"/>
       <path id="DejaVuSans-70" d="M 1159 525 
L 1159 -1331 
L 581 -1331 
L 581 3500 
L 1159 3500 
L 1159 2969 
Q 1341 3281 1617 3432 
Q 1894 3584 2278 3584 
Q 2916 3584 3314 3078 
Q 3713 2572 3713 1747 
Q 3713 922 3314 415 
Q 2916 -91 2278 -91 
Q 1894 -91 1617 61 
Q 1341 213 1159 525 
z
M 3116 1747 
Q 3116 2381 2855 2742 
Q 2594 3103 2138 3103 
Q 1681 3103 1420 2742 
Q 1159 2381 1159 1747 
Q 1159 1113 1420 752 
Q 1681 391 2138 391 
Q 2594 391 2855 752 
Q 3116 1113 3116 1747 
z
" transform="scale(0.015625)"/>
       <path id="DejaVuSans-72" d="M 2631 2963 
Q 2534 3019 2420 3045 
Q 2306 3072 2169 3072 
Q 1681 3072 1420 2755 
Q 1159 2438 1159 1844 
L 1159 0 
L 581 0 
L 581 3500 
L 1159 3500 
L 1159 2956 
Q 1341 3275 1631 3429 
Q 1922 3584 2338 3584 
Q 2397 3584 2469 3576 
Q 2541 3569 2628 3553 
L 2631 2963 
z
" transform="scale(0.015625)"/>
       <path id="DejaVuSans-6f" d="M 1959 3097 
Q 1497 3097 1228 2736 
Q 959 2375 959 1747 
Q 959 1119 1226 758 
Q 1494 397 1959 397 
Q 2419 397 2687 759 
Q 2956 1122 2956 1747 
Q 2956 2369 2687 2733 
Q 2419 3097 1959 3097 
z
M 1959 3584 
Q 2709 3584 3137 3096 
Q 3566 2609 3566 1747 
Q 3566 888 3137 398 
Q 2709 -91 1959 -91 
Q 1206 -91 779 398 
Q 353 888 353 1747 
Q 353 2609 779 3096 
Q 1206 3584 1959 3584 
z
" transform="scale(0.015625)"/>
       <path id="DejaVuSans-62" d="M 3116 1747 
Q 3116 2381 2855 2742 
Q 2594 3103 2138 3103 
Q 1681 3103 1420 2742 
Q 1159 2381 1159 1747 
Q 1159 1113 1420 752 
Q 1681 391 2138 391 
Q 2594 391 2855 752 
Q 3116 1113 3116 1747 
z
M 1159 2969 
Q 1341 3281 1617 3432 
Q 1894 3584 2278 3584 
Q 2916 3584 3314 3078 
Q 3713 2572 3713 1747 
Q 3713 922 3314 415 
Q 2916 -91 2278 -91 
Q 1894 -91 1617 61 
Q 1341 213 1159 525 
L 1159 0 
L 581 0 
L 581 4863 
L 1159 4863 
L 1159 2969 
z
" transform="scale(0.015625)"/>
       <path id="DejaVuSans-79" d="M 2059 -325 
Q 1816 -950 1584 -1140 
Q 1353 -1331 966 -1331 
L 506 -1331 
L 506 -850 
L 844 -850 
Q 1081 -850 1212 -737 
Q 1344 -625 1503 -206 
L 1606 56 
L 191 3500 
L 800 3500 
L 1894 763 
L 2988 3500 
L 3597 3500 
L 2059 -325 
z
" transform="scale(0.015625)"/>
      </defs>
      <use xlink:href="#DejaVuSans-43"/>
      <use xlink:href="#DejaVuSans-75" x="69.824219"/>
      <use xlink:href="#DejaVuSans-6d" x="133.203125"/>
      <use xlink:href="#DejaVuSans-75" x="230.615234"/>
      <use xlink:href="#DejaVuSans-6c" x="293.994141"/>
      <use xlink:href="#DejaVuSans-61" x="321.777344"/>
      <use xlink:href="#DejaVuSans-74" x="383.056641"/>
      <use xlink:href="#DejaVuSans-69" x="422.265625"/>
      <use xlink:href="#DejaVuSans-76" x="450.048828"/>
      <use xlink:href="#DejaVuSans-65" x="509.228516"/>
      <use xlink:href="#DejaVuSans-20" x="570.751953"/>
      <use xlink:href="#DejaVuSans-70" x="602.539062"/>
      <use xlink:href="#DejaVuSans-72" x="666.015625"/>
      <use xlink:href="#DejaVuSans-6f" x="704.878906"/>
      <use xlink:href="#DejaVuSans-62" x="766.060547"/>
      <use xlink:href="#DejaVuSans-61" x="829.537109"/>
      <use xlink:href="#DejaVuSans-62" x="890.816406"/>
      <use xlink:href="#DejaVuSans-69" x="954.292969"/>
      <use xlink:href="#DejaVuSans-6c" x="982.076172"/>
      <use xlink:href="#DejaVuSans-69" x="1009.859375"/>
      <use xlink:href="#DejaVuSans-74" x="1037.642578"/>
      <use xlink:href="#DejaVuSans-79" x="1076.851562"/>
     </g>
    </g>
   </g>
   <g id="line2d_14">
    <path d="M 69.144886 286.498125 
L 76.33149 286.498125 
L 76.449857 286.078125 
L 83.788647 286.078125 
L 83.907015 285.658125 
L 85.039962 285.658125 
L 85.158329 285.238125 
L 109.254587 285.238125 
L 109.372955 284.818125 
L 110.928643 284.818125 
L 111.04701 284.398125 
L 125.28494 284.398125 
L 125.403307 283.978125 
L 126.603893 283.978125 
L 126.72226 283.558125 
L 127.432466 283.558125 
L 127.550833 283.138125 
L 127.618472 283.138125 
L 127.736839 282.718125 
L 134.179418 282.718125 
L 134.297785 282.298125 
L 135.684377 282.298125 
L 135.802745 281.878125 
L 144.020837 281.878125 
L 144.139204 281.458125 
L 145.847079 281.458125 
L 145.965447 281.038125 
L 147.571864 281.038125 
L 147.690232 280.618125 
L 149.313559 280.618125 
L 149.431926 280.198125 
L 157.785296 280.198125 
L 157.903663 279.778125 
L 158.157308 279.778125 
L 158.275676 279.358125 
L 163.365482 279.358125 
L 163.483849 278.938125 
L 169.283861 278.938125 
L 169.402228 278.518125 
L 171.076284 278.518125 
L 171.194652 278.098125 
L 171.482116 278.098125 
L 171.600483 277.678125 
L 176.284458 277.678125 
L 176.419735 276.838125 
L 181.56027 276.838125 
L 181.678637 276.418125 
L 181.729366 276.418125 
L 181.847734 275.998125 
L 182.03374 275.998125 
L 182.152108 275.578125 
L 182.507211 275.578125 
L 182.625578 275.158125 
L 183.420332 275.158125 
L 183.538699 274.738125 
L 184.333453 274.738125 
L 184.46873 273.898125 
L 185.178936 273.898125 
L 185.297304 273.478125 
L 185.348033 273.478125 
L 185.4664 273.058125 
L 187.038998 273.058125 
L 187.174275 272.218125 
L 189.034337 272.218125 
L 189.152705 271.798125 
L 189.237253 271.798125 
L 189.355621 271.378125 
L 190.38711 271.378125 
L 190.505477 270.958125 
L 192.568455 270.958125 
L 192.703732 270.118125 
L 193.684492 270.118125 
L 193.80286 269.698125 
L 194.056505 269.698125 
L 194.174872 269.278125 
L 195.104903 269.278125 
L 195.24018 268.438125 
L 195.848928 268.438125 
L 195.967296 268.018125 
L 196.71132 268.018125 
L 196.829688 267.598125 
L 197.641351 267.598125 
L 197.759719 267.178125 
L 200.059432 267.178125 
L 200.1778 266.758125 
L 202.409874 266.758125 
L 202.528242 266.338125 
L 203.221537 266.338125 
L 203.339905 265.918125 
L 208.548079 265.918125 
L 208.666446 265.498125 
L 210.239044 265.498125 
L 210.357412 265.078125 
L 210.898521 265.078125 
L 211.016888 264.658125 
L 211.067617 264.658125 
L 211.185985 264.238125 
L 212.860041 264.238125 
L 212.978408 263.818125 
L 213.36733 263.818125 
L 213.485698 263.398125 
L 213.722433 263.398125 
L 213.85771 262.558125 
L 214.601735 262.558125 
L 214.720103 262.138125 
L 214.973747 262.138125 
L 215.092115 261.718125 
L 215.886869 261.718125 
L 216.005236 261.298125 
L 216.174333 261.298125 
L 216.2927 260.878125 
L 217.679292 260.878125 
L 217.814569 260.038125 
L 218.152762 260.038125 
L 218.27113 259.618125 
L 219.826818 259.618125 
L 219.945186 259.198125 
L 220.131192 259.198125 
L 220.24956 258.778125 
L 220.266469 258.778125 
L 220.384837 258.358125 
L 221.450145 258.358125 
L 221.568513 257.938125 
L 221.771428 257.938125 
L 221.889796 257.518125 
L 222.887466 257.518125 
L 223.022743 256.678125 
L 223.580761 256.678125 
L 223.699129 256.258125 
L 225.542281 256.258125 
L 225.660649 255.838125 
L 227.030331 255.838125 
L 227.148699 255.418125 
L 228.738206 255.418125 
L 228.856574 254.998125 
L 230.158617 254.998125 
L 230.276985 254.578125 
L 230.767365 254.578125 
L 230.885732 254.158125 
L 231.223925 254.158125 
L 231.342293 253.738125 
L 231.426841 253.738125 
L 231.545209 253.318125 
L 232.120137 253.318125 
L 232.255414 252.478125 
L 232.542878 252.478125 
L 232.661246 252.058125 
L 232.796523 252.058125 
L 232.914891 251.638125 
L 233.675825 251.638125 
L 233.794193 251.218125 
L 233.828012 251.218125 
L 233.94638 250.798125 
L 234.470579 250.798125 
L 234.605856 249.958125 
L 236.668834 249.958125 
L 236.787202 249.538125 
L 238.072335 249.538125 
L 238.190703 249.118125 
L 238.579625 249.118125 
L 238.697993 248.698125 
L 239.086915 248.698125 
L 239.205282 248.278125 
L 239.289831 248.278125 
L 239.408198 247.858125 
L 239.712572 247.858125 
L 239.83094 247.438125 
L 240.507326 247.438125 
L 240.625693 247.018125 
L 241.082254 247.018125 
L 241.200622 246.598125 
L 241.606453 246.598125 
L 241.724821 246.178125 
L 241.741731 246.178125 
L 241.860098 245.758125 
L 241.978466 245.758125 
L 242.096833 245.338125 
L 242.688671 245.338125 
L 242.807039 244.918125 
L 243.73707 244.918125 
L 243.855437 244.498125 
L 244.058353 244.498125 
L 244.176721 244.078125 
L 244.464185 244.078125 
L 244.582552 243.658125 
L 245.343487 243.658125 
L 245.478764 242.818125 
L 246.746988 242.818125 
L 246.882265 241.978125 
L 246.932994 241.978125 
L 247.051362 241.558125 
L 247.6432 241.558125 
L 247.761568 241.138125 
L 248.471773 241.138125 
L 248.60705 240.298125 
L 248.759237 240.298125 
L 248.877605 239.878125 
L 249.09743 239.878125 
L 249.215798 239.458125 
L 249.672358 239.458125 
L 249.807636 238.618125 
L 251.447872 238.618125 
L 251.56624 238.198125 
L 251.955162 238.198125 
L 252.073529 237.778125 
L 252.191897 237.778125 
L 252.327174 236.938125 
L 252.360994 236.938125 
L 252.479361 236.518125 
L 253.612308 236.518125 
L 253.764495 235.258125 
L 254.762165 235.258125 
L 254.897442 234.418125 
L 255.083448 234.418125 
L 255.218725 233.578125 
L 255.370912 233.578125 
L 255.48928 233.158125 
L 255.573828 233.158125 
L 255.692196 232.738125 
L 256.131847 232.738125 
L 256.250214 232.318125 
L 256.503859 232.318125 
L 256.622227 231.898125 
L 257.264793 231.898125 
L 257.383161 231.478125 
L 257.856631 231.478125 
L 257.974999 231.058125 
L 258.617566 231.058125 
L 258.735933 230.638125 
L 259.41232 230.638125 
L 259.530687 230.218125 
L 260.139435 230.218125 
L 260.257802 229.798125 
L 260.325441 229.798125 
L 260.443808 229.378125 
L 261.035646 229.378125 
L 261.154014 228.958125 
L 261.424568 228.958125 
L 261.559846 228.118125 
L 261.81349 228.118125 
L 261.931858 227.698125 
L 261.948768 227.698125 
L 262.067135 227.278125 
L 263.555185 227.278125 
L 263.673552 226.858125 
L 264.383758 226.858125 
L 264.502126 226.438125 
L 265.026325 226.438125 
L 265.144692 226.018125 
L 265.584343 226.018125 
L 265.702711 225.598125 
L 267.173851 225.598125 
L 267.292219 225.178125 
L 268.120792 225.178125 
L 268.256069 224.338125 
L 268.323707 224.338125 
L 268.442075 223.918125 
L 270.606511 223.918125 
L 270.758698 222.658125 
L 270.995433 222.658125 
L 271.1138 222.238125 
L 271.942374 222.238125 
L 272.060741 221.818125 
L 272.196018 221.818125 
L 272.314386 221.398125 
L 272.940043 221.398125 
L 273.058411 220.978125 
L 273.531881 220.978125 
L 273.650249 220.558125 
L 273.785526 220.558125 
L 273.937713 219.298125 
L 274.56337 219.298125 
L 274.681738 218.878125 
L 274.698647 218.878125 
L 274.833924 218.038125 
L 274.986111 218.038125 
L 275.104479 217.618125 
L 275.138298 217.618125 
L 275.256666 217.198125 
L 275.341214 217.198125 
L 275.459582 216.778125 
L 275.54413 216.778125 
L 275.696317 215.518125 
L 276.186697 215.518125 
L 276.305064 215.098125 
L 277.049089 215.098125 
L 277.167457 214.678125 
L 277.302734 214.678125 
L 277.421102 214.258125 
L 278.638597 214.258125 
L 278.756964 213.838125 
L 279.281164 213.838125 
L 279.399531 213.418125 
L 280.650846 213.418125 
L 280.769213 212.998125 
L 281.107406 212.998125 
L 281.225774 212.578125 
L 281.293413 212.578125 
L 281.41178 212.158125 
L 283.271842 212.158125 
L 283.39021 211.738125 
L 283.525487 211.738125 
L 283.643855 211.318125 
L 285.774471 211.318125 
L 285.892839 210.898125 
L 286.011206 210.898125 
L 286.146483 210.058125 
L 286.247941 210.058125 
L 286.366309 209.638125 
L 286.535405 209.638125 
L 286.653773 209.218125 
L 287.414707 209.218125 
L 287.549985 208.378125 
L 287.566894 208.378125 
L 287.685262 207.958125 
L 287.702172 207.958125 
L 287.820539 207.538125 
L 289.393137 207.538125 
L 289.511505 207.118125 
L 289.596053 207.118125 
L 289.73133 206.278125 
L 289.765149 206.278125 
L 289.900427 205.438125 
L 290.103343 205.438125 
L 290.23862 204.598125 
L 290.526084 204.598125 
L 290.644452 204.178125 
L 290.69518 204.178125 
L 290.813548 203.758125 
L 290.982645 203.758125 
L 291.101012 203.338125 
L 291.168651 203.338125 
L 291.303928 202.078125 
L 291.591392 202.078125 
L 291.70976 201.238125 
L 292.047953 201.238125 
L 292.16632 200.818125 
L 292.436875 200.818125 
L 292.589062 199.558125 
L 292.622881 199.558125 
L 292.741249 199.138125 
L 293.1809 199.138125 
L 293.299267 198.718125 
L 293.333087 198.718125 
L 293.451454 198.298125 
L 293.738918 198.298125 
L 293.874196 197.458125 
L 294.263118 197.458125 
L 294.381485 197.038125 
L 294.668949 197.038125 
L 294.787317 196.618125 
L 294.804227 196.618125 
L 294.922594 196.198125 
L 294.956413 196.198125 
L 295.074781 195.778125 
L 295.226968 195.778125 
L 295.345335 194.938125 
L 295.869535 194.938125 
L 295.987902 194.098125 
L 296.410644 194.098125 
L 296.529011 193.678125 
L 297.611229 193.678125 
L 297.729597 193.258125 
L 297.898693 193.258125 
L 298.017061 192.838125 
L 298.964002 192.838125 
L 299.082369 192.418125 
L 299.674207 192.418125 
L 299.792575 191.998125 
L 299.877123 191.998125 
L 300.0124 191.158125 
L 300.046219 191.158125 
L 300.181497 190.318125 
L 300.452051 190.318125 
L 300.587328 189.478125 
L 300.807154 189.478125 
L 300.925521 189.058125 
L 300.99316 189.058125 
L 301.111528 188.638125 
L 301.50045 188.638125 
L 301.618817 188.218125 
L 302.565758 188.218125 
L 302.684126 187.798125 
L 303.123777 187.798125 
L 303.242144 187.378125 
L 303.512699 187.378125 
L 303.631066 186.958125 
L 303.817072 186.958125 
L 303.93544 186.538125 
L 303.969259 186.538125 
L 304.104537 185.698125 
L 304.40891 185.698125 
L 304.527278 185.278125 
L 304.9162 185.278125 
L 305.034568 184.858125 
L 305.203664 184.858125 
L 305.338941 184.018125 
L 305.592586 184.018125 
L 305.710954 183.598125 
L 305.863141 183.598125 
L 305.981508 183.178125 
L 306.471888 183.178125 
L 306.590256 182.758125 
L 306.87772 182.758125 
L 306.996087 182.338125 
L 307.131365 182.338125 
L 307.283552 181.078125 
L 307.38501 181.078125 
L 307.503377 180.658125 
L 307.587925 180.658125 
L 307.706293 180.238125 
L 307.723203 180.238125 
L 307.84157 179.818125 
L 308.027576 179.818125 
L 308.145944 179.398125 
L 308.501047 179.398125 
L 308.636324 178.558125 
L 309.278891 178.558125 
L 309.397258 178.138125 
L 309.447987 178.138125 
L 309.566355 177.718125 
L 309.701632 177.718125 
L 309.82 177.298125 
L 309.972187 177.298125 
L 310.090554 176.878125 
L 310.665483 176.878125 
L 310.78385 176.458125 
L 311.527875 176.458125 
L 311.646242 176.038125 
L 311.832249 176.038125 
L 311.950616 175.618125 
L 312.559364 175.618125 
L 312.677731 175.198125 
L 312.694641 175.198125 
L 312.813009 174.778125 
L 313.455576 174.778125 
L 313.573943 174.358125 
L 314.013594 174.358125 
L 314.131962 173.938125 
L 314.250329 173.938125 
L 314.368697 173.518125 
L 315.569282 173.518125 
L 315.68765 173.098125 
L 315.822927 173.098125 
L 315.958204 171.838125 
L 316.533133 171.838125 
L 316.6515 171.418125 
L 318.173369 171.418125 
L 318.308646 170.578125 
L 318.748297 170.578125 
L 318.866665 170.158125 
L 319.154129 170.158125 
L 319.272497 169.738125 
L 319.948883 169.738125 
L 320.08416 168.898125 
L 320.253257 168.898125 
L 320.371624 168.478125 
L 320.777456 168.478125 
L 320.895824 168.058125 
L 320.912733 168.058125 
L 321.031101 167.638125 
L 321.250926 167.638125 
L 321.369294 167.218125 
L 321.436932 167.218125 
L 321.5553 166.798125 
L 321.707487 166.798125 
L 321.825855 166.378125 
L 322.02877 166.378125 
L 322.147138 165.958125 
L 322.53606 165.958125 
L 322.654428 165.538125 
L 323.483001 165.538125 
L 323.601368 165.118125 
L 323.956471 165.118125 
L 324.074839 164.698125 
L 324.277754 164.698125 
L 324.396122 164.278125 
L 324.599038 164.278125 
L 324.717405 163.858125 
L 325.782714 163.858125 
L 325.901081 163.438125 
L 326.205455 163.438125 
L 326.323823 163.018125 
L 326.47601 163.018125 
L 326.594377 162.598125 
L 327.169305 162.598125 
L 327.287673 162.178125 
L 327.473679 162.178125 
L 327.592047 161.758125 
L 327.642776 161.758125 
L 327.761143 161.338125 
L 327.778053 161.338125 
L 327.91333 160.498125 
L 328.150065 160.498125 
L 328.268433 160.078125 
L 328.352981 160.078125 
L 328.471349 159.658125 
L 328.87718 159.658125 
L 329.012458 158.818125 
L 329.130825 158.818125 
L 329.266103 157.978125 
L 329.350651 157.978125 
L 329.469018 157.558125 
L 330.145405 157.558125 
L 330.280682 156.718125 
L 330.720333 156.718125 
L 330.8387 156.298125 
L 331.126165 156.298125 
L 331.261442 155.458125 
L 331.734912 155.458125 
L 331.85328 155.038125 
L 332.681853 155.038125 
L 332.81713 154.198125 
L 333.79789 154.198125 
L 333.933167 153.358125 
L 334.051535 153.358125 
L 334.169902 152.938125 
L 334.525005 152.938125 
L 334.694102 151.258125 
L 335.336669 151.258125 
L 335.455036 150.838125 
L 335.911597 150.838125 
L 336.029964 150.418125 
L 336.046874 150.418125 
L 336.165242 149.998125 
L 336.401977 149.998125 
L 336.537254 149.158125 
L 336.571073 149.158125 
L 336.706351 148.318125 
L 337.602562 148.318125 
L 337.737839 147.478125 
L 338.059123 147.478125 
L 338.17749 147.058125 
L 338.515684 147.058125 
L 338.634051 146.638125 
L 338.752419 146.638125 
L 338.887696 145.798125 
L 339.259708 145.798125 
L 339.378076 145.378125 
L 339.716269 145.378125 
L 339.834637 144.958125 
L 339.902275 144.958125 
L 340.020643 144.538125 
L 340.950674 144.538125 
L 341.085951 143.698125 
L 341.13668 143.698125 
L 341.255048 143.278125 
L 341.288867 143.278125 
L 341.407235 142.858125 
L 341.711608 142.858125 
L 341.829976 142.438125 
L 342.083621 142.438125 
L 342.201988 142.018125 
L 342.404904 142.018125 
L 342.557091 140.758125 
L 342.996742 140.758125 
L 343.11511 140.338125 
L 343.808405 140.338125 
L 343.926773 139.918125 
L 343.960592 139.918125 
L 344.07896 139.498125 
L 344.603159 139.498125 
L 344.738436 138.658125 
L 345.53319 138.658125 
L 345.651558 138.238125 
L 346.683047 138.238125 
L 346.801414 137.818125 
L 347.325614 137.818125 
L 347.443981 137.398125 
L 347.596168 137.398125 
L 347.731445 136.558125 
L 347.883632 136.558125 
L 348.052729 134.878125 
L 348.120367 134.878125 
L 348.238735 134.458125 
L 348.441651 134.458125 
L 348.560018 134.038125 
L 348.847483 134.038125 
L 348.96585 133.618125 
L 349.270224 133.618125 
L 349.388591 133.198125 
L 349.574598 133.198125 
L 349.692965 132.778125 
L 350.115707 132.778125 
L 350.250984 131.938125 
L 350.775183 131.938125 
L 350.893551 131.518125 
L 351.011918 131.518125 
L 351.147196 130.678125 
L 351.248653 130.678125 
L 351.367021 130.258125 
L 352.41542 130.258125 
L 352.533787 129.838125 
L 352.956529 129.838125 
L 353.074896 129.418125 
L 353.243993 129.418125 
L 353.36236 128.998125 
L 353.480728 128.998125 
L 353.616005 128.158125 
L 353.666734 128.158125 
L 353.785102 127.738125 
L 353.818921 127.738125 
L 353.954198 126.898125 
L 354.207843 126.898125 
L 354.326211 126.478125 
L 355.002597 126.478125 
L 355.120964 126.058125 
L 355.678983 126.058125 
L 355.797351 125.638125 
L 356.372279 125.638125 
L 356.524466 124.378125 
L 356.81193 124.378125 
L 356.947207 123.538125 
L 357.251581 123.538125 
L 357.369948 123.118125 
L 357.640503 123.118125 
L 357.75887 122.698125 
L 357.944877 122.698125 
L 358.063244 122.278125 
L 358.638173 122.278125 
L 358.75654 121.858125 
L 358.807269 121.858125 
L 358.942546 121.018125 
L 359.077824 121.018125 
L 359.196191 120.598125 
L 359.686571 120.598125 
L 359.821848 119.758125 
L 359.974035 119.758125 
L 360.092403 119.338125 
L 360.937886 119.338125 
L 361.056253 118.918125 
L 361.174621 118.918125 
L 361.309898 118.078125 
L 362.087742 118.078125 
L 362.20611 117.658125 
L 362.239929 117.658125 
L 362.358297 117.238125 
L 362.611941 117.238125 
L 362.730309 116.818125 
L 362.764128 116.818125 
L 362.882496 116.398125 
L 362.967044 116.398125 
L 363.085412 115.978125 
L 363.711069 115.978125 
L 363.829436 115.558125 
L 364.979293 115.558125 
L 365.097661 115.138125 
L 365.418944 115.138125 
L 365.554221 114.298125 
L 365.824776 114.298125 
L 365.943143 113.878125 
L 366.382794 113.878125 
L 366.518072 113.038125 
L 367.329735 113.038125 
L 367.465012 112.198125 
L 367.837025 112.198125 
L 367.955392 111.778125 
L 367.989211 111.778125 
L 368.107579 111.358125 
L 368.192127 111.358125 
L 368.327405 110.518125 
L 368.648688 110.518125 
L 368.767056 110.098125 
L 368.783965 110.098125 
L 368.919242 109.258125 
L 369.105249 109.258125 
L 369.223616 108.838125 
L 369.578719 108.838125 
L 369.713996 107.998125 
L 369.747816 107.998125 
L 369.883093 107.158125 
L 370.830033 107.158125 
L 370.948401 106.738125 
L 371.861522 106.738125 
L 371.97989 106.318125 
L 372.707005 106.318125 
L 372.825373 105.898125 
L 374.296513 105.898125 
L 374.41488 105.478125 
L 374.567067 105.478125 
L 374.685435 105.058125 
L 375.108176 105.058125 
L 375.226544 104.638125 
L 375.514008 104.638125 
L 375.632375 104.218125 
L 377.221883 104.218125 
L 377.34025 103.378125 
L 378.659204 103.378125 
L 378.777571 102.958125 
L 380.417808 102.958125 
L 380.553085 102.118125 
L 380.671452 102.118125 
L 380.78982 101.698125 
L 380.80673 101.698125 
L 380.925097 101.278125 
L 381.161832 101.278125 
L 381.2802 100.858125 
L 381.29711 100.858125 
L 381.415477 100.438125 
L 381.449297 100.438125 
L 381.618393 98.758125 
L 382.007315 98.758125 
L 382.125683 98.338125 
L 382.75134 98.338125 
L 382.886617 97.498125 
L 382.920436 97.498125 
L 383.038804 97.078125 
L 383.089533 97.078125 
L 383.22481 96.238125 
L 383.427726 96.238125 
L 383.563003 95.398125 
L 383.918106 95.398125 
L 384.053383 94.558125 
L 384.20557 94.558125 
L 384.340847 93.718125 
L 384.831227 93.718125 
L 384.949595 93.298125 
L 385.338517 93.298125 
L 385.456885 92.878125 
L 385.575252 92.878125 
L 385.69362 92.458125 
L 386.691289 92.458125 
L 386.826567 91.618125 
L 386.928025 91.618125 
L 387.046392 91.198125 
L 387.384585 91.198125 
L 387.502953 90.778125 
L 388.500622 90.778125 
L 388.6359 89.938125 
L 389.785756 89.938125 
L 389.921033 89.098125 
L 390.022491 89.098125 
L 390.140859 88.678125 
L 390.225407 88.678125 
L 390.343775 87.838125 
L 391.493631 87.838125 
L 391.611999 87.418125 
L 392.186927 87.418125 
L 392.305295 86.998125 
L 392.356024 86.998125 
L 392.474391 86.578125 
L 392.55894 86.578125 
L 392.677307 86.158125 
L 392.897133 86.158125 
L 393.0155 85.738125 
L 393.658067 85.738125 
L 393.776435 85.318125 
L 394.334453 85.318125 
L 394.452821 84.898125 
L 394.605008 84.898125 
L 394.723375 84.478125 
L 395.670316 84.478125 
L 395.788684 84.058125 
L 396.143786 84.058125 
L 396.262154 83.218125 
L 397.006179 83.218125 
L 397.141456 82.378125 
L 398.020758 82.378125 
L 398.172945 81.118125 
L 398.189855 81.118125 
L 398.308222 80.698125 
L 398.544957 80.698125 
L 398.663325 80.278125 
L 398.90006 80.278125 
L 399.018428 79.858125 
L 399.728633 79.858125 
L 399.847001 79.438125 
L 400.033007 79.438125 
L 400.151374 79.018125 
L 400.87849 79.018125 
L 400.996857 78.598125 
L 401.723972 78.598125 
L 401.876159 77.338125 
L 401.977617 77.338125 
L 402.095985 76.918125 
L 402.366539 76.918125 
L 402.484907 76.498125 
L 403.465667 76.498125 
L 403.584034 76.078125 
L 404.006776 76.078125 
L 404.125143 75.658125 
L 405.224271 75.658125 
L 405.342638 75.238125 
L 405.359548 75.238125 
L 405.477916 74.818125 
L 405.545554 74.818125 
L 405.663922 74.398125 
L 405.714651 74.398125 
L 405.833018 73.978125 
L 405.934476 73.978125 
L 406.052844 73.558125 
L 406.374127 73.558125 
L 406.492495 73.138125 
L 406.71232 73.138125 
L 406.830688 72.718125 
L 407.490165 72.718125 
L 407.608532 72.298125 
L 407.743809 72.298125 
L 407.862177 71.878125 
L 408.487834 71.878125 
L 408.606202 71.458125 
L 409.536233 71.458125 
L 409.6546 71.038125 
L 410.702999 71.038125 
L 410.821366 70.618125 
L 411.058102 70.618125 
L 411.176469 70.198125 
L 412.343235 70.198125 
L 412.461603 69.778125 
L 413.036531 69.778125 
L 413.154899 69.358125 
L 413.357815 69.358125 
L 413.476182 68.938125 
L 413.949653 68.938125 
L 414.08493 68.098125 
L 415.099509 68.098125 
L 415.217877 67.678125 
L 415.471521 67.678125 
L 415.589889 67.258125 
L 415.809715 67.258125 
L 415.944992 66.418125 
L 416.925752 66.418125 
L 417.044119 65.998125 
L 417.094848 65.998125 
L 417.213216 65.578125 
L 418.363072 65.578125 
L 418.48144 65.158125 
L 418.633627 65.158125 
L 418.751994 64.738125 
L 419.208555 64.738125 
L 419.326923 64.318125 
L 419.631297 64.318125 
L 419.749664 63.898125 
L 420.44296 63.898125 
L 420.561328 63.478125 
L 422.38757 63.478125 
L 422.505938 63.058125 
L 422.573576 63.058125 
L 422.691944 62.638125 
L 422.928679 62.638125 
L 423.047047 62.218125 
L 423.520517 62.218125 
L 423.638885 61.798125 
L 424.027807 61.798125 
L 424.146174 61.378125 
L 425.887869 61.378125 
L 426.006236 60.958125 
L 429.421987 60.958125 
L 429.540354 60.538125 
L 430.166011 60.538125 
L 430.284379 60.118125 
L 431.992254 60.118125 
L 432.110622 59.698125 
L 433.006833 59.698125 
L 433.125201 59.278125 
L 433.328117 59.278125 
L 433.446484 58.858125 
L 433.919955 58.858125 
L 434.038322 58.438125 
L 435.188179 58.438125 
L 435.323456 57.598125 
L 436.625499 57.598125 
L 436.743867 57.178125 
L 436.777686 57.178125 
L 436.896054 56.758125 
L 439.939792 56.758125 
L 440.058159 56.338125 
L 440.869823 56.338125 
L 440.98819 55.918125 
L 442.121137 55.918125 
L 442.239505 55.498125 
L 443.558458 55.498125 
L 443.676825 55.078125 
L 444.353211 55.078125 
L 444.471579 54.658125 
L 444.91123 54.658125 
L 445.029598 54.238125 
L 445.773622 54.238125 
L 445.89199 53.818125 
L 448.32698 53.818125 
L 448.445348 53.398125 
L 449.544475 53.398125 
L 449.662843 52.978125 
L 449.967217 52.978125 
L 450.085584 52.558125 
L 454.296088 52.558125 
L 454.414456 52.138125 
L 459.521172 52.138125 
L 459.639539 51.718125 
L 459.757907 51.718125 
L 459.876274 51.298125 
L 460.11301 51.298125 
L 460.231377 50.878125 
L 460.468112 50.878125 
L 460.58648 50.458125 
L 460.789396 50.458125 
L 460.907763 50.038125 
L 461.516511 50.038125 
L 461.651788 49.198125 
L 462.361994 49.198125 
L 462.480361 48.778125 
L 464.137507 48.778125 
L 464.255875 48.358125 
L 465.270454 48.358125 
L 465.388822 47.938125 
L 466.268124 47.938125 
L 466.386491 47.518125 
L 466.47104 47.518125 
L 466.589407 47.098125 
L 467.722354 47.098125 
L 467.840722 46.678125 
L 468.855301 46.678125 
L 468.973669 46.258125 
L 471.171924 46.258125 
L 471.290291 45.838125 
L 472.33869 45.838125 
L 472.457057 45.418125 
L 472.659973 45.418125 
L 472.778341 44.998125 
L 473.031986 44.998125 
L 473.150353 44.578125 
L 474.198752 44.578125 
L 474.317119 44.158125 
L 475.669892 44.158125 
L 475.805169 43.318125 
L 479.254739 43.318125 
L 479.373106 42.898125 
L 482.467573 42.898125 
L 482.58594 42.478125 
L 485.494401 42.478125 
L 485.612769 42.058125 
L 488.385952 42.058125 
L 488.521229 41.218125 
L 491.176045 41.218125 
L 491.294413 40.798125 
L 491.869341 40.798125 
L 491.987708 40.378125 
L 493.171384 40.378125 
L 493.289752 39.958125 
L 494.541066 39.958125 
L 494.659434 39.538125 
L 499.613963 39.538125 
L 499.73233 39.118125 
L 503.232629 39.118125 
L 503.367906 38.278125 
L 506.868204 38.278125 
L 506.986572 37.858125 
L 509.878123 37.858125 
L 509.996491 37.438125 
L 524.589522 37.438125 
L 524.70789 37.018125 
L 525.790108 37.018125 
L 525.908475 36.598125 
L 527.751628 36.598125 
L 527.869995 36.178125 
L 543.274691 36.178125 
L 543.393058 35.758125 
L 543.663613 35.758125 
L 543.78198 35.338125 
L 576.417614 35.338125 
L 576.417614 35.338125 
" clip-path="url(#pf13f4d754f)" style="fill: none; stroke: #e64173; stroke-width: 1.5; stroke-linecap: square"/>
   </g>
   <g id="line2d_15">
    <path d="M 69.144886 286.918125 
L 114.631857 286.918125 
L 114.750225 286.498125 
L 120.972978 286.498125 
L 121.091345 286.078125 
L 127.517014 286.078125 
L 127.635382 285.658125 
L 131.355506 285.658125 
L 131.473873 285.238125 
L 142.9048 285.238125 
L 143.023167 284.818125 
L 150.869247 284.818125 
L 150.987614 284.398125 
L 153.879165 284.398125 
L 153.997533 283.978125 
L 155.773047 283.978125 
L 155.891414 283.558125 
L 157.734567 283.558125 
L 157.852934 283.138125 
L 160.01737 283.138125 
L 160.135738 282.718125 
L 160.321744 282.718125 
L 160.440111 282.298125 
L 160.947401 282.298125 
L 161.065769 281.878125 
L 161.167227 281.878125 
L 161.285594 281.458125 
L 168.742752 281.458125 
L 168.861119 281.038125 
L 170.501356 281.038125 
L 170.619723 280.618125 
L 171.668122 280.618125 
L 171.78649 280.198125 
L 175.286788 280.198125 
L 175.405156 279.778125 
L 176.199909 279.778125 
L 176.335187 278.938125 
L 179.61566 278.938125 
L 179.734027 278.518125 
L 179.818575 278.518125 
L 179.936943 278.098125 
L 185.398761 278.098125 
L 185.534039 277.258125 
L 186.075148 277.258125 
L 186.193515 276.838125 
L 187.157366 276.838125 
L 187.275733 276.418125 
L 188.324132 276.418125 
L 188.442499 275.998125 
L 189.034337 275.998125 
L 189.152705 275.578125 
L 189.981278 275.578125 
L 190.099645 275.158125 
L 196.339308 275.158125 
L 196.457676 274.738125 
L 196.998785 274.738125 
L 197.117152 274.318125 
L 201.64894 274.318125 
L 201.784217 273.478125 
L 203.069351 273.478125 
L 203.187718 273.058125 
L 204.591219 273.058125 
L 204.709587 272.638125 
L 204.794135 272.638125 
L 204.912503 272.218125 
L 205.876353 272.218125 
L 205.994721 271.798125 
L 207.144577 271.798125 
L 207.262945 271.378125 
L 207.854783 271.378125 
L 207.97315 270.958125 
L 209.241374 270.958125 
L 209.359742 270.538125 
L 210.171405 270.538125 
L 210.289773 270.118125 
L 210.374321 270.118125 
L 210.492689 269.698125 
L 211.287443 269.698125 
L 211.40581 269.278125 
L 211.42272 269.278125 
L 211.541087 268.858125 
L 211.811642 268.858125 
L 211.93001 268.438125 
L 212.606396 268.438125 
L 212.724763 268.018125 
L 213.316601 268.018125 
L 213.451878 267.178125 
L 213.502607 267.178125 
L 213.620975 266.758125 
L 214.077536 266.758125 
L 214.212813 265.918125 
L 214.500277 265.918125 
L 214.618645 265.498125 
L 214.973747 265.498125 
L 215.092115 265.078125 
L 215.650134 265.078125 
L 215.768501 264.658125 
L 216.360339 264.658125 
L 216.478707 264.238125 
L 218.169672 264.238125 
L 218.28804 263.818125 
L 218.304949 263.818125 
L 218.423317 263.398125 
L 218.490955 263.398125 
L 218.609323 262.978125 
L 219.843728 262.978125 
L 219.962095 262.558125 
L 220.452475 262.558125 
L 220.570843 262.138125 
L 221.382506 262.138125 
L 221.517784 261.298125 
L 222.058893 261.298125 
L 222.17726 260.878125 
L 222.65073 260.878125 
L 222.769098 260.458125 
L 223.225659 260.458125 
L 223.344026 260.038125 
L 224.561521 260.038125 
L 224.679889 259.618125 
L 224.865895 259.618125 
L 224.984263 259.198125 
L 225.373185 259.198125 
L 225.491552 258.778125 
L 226.911963 258.778125 
L 227.047241 257.938125 
L 227.114879 257.938125 
L 227.267066 256.678125 
L 229.482231 256.678125 
L 229.600599 256.258125 
L 229.854243 256.258125 
L 229.972611 255.838125 
L 230.682816 255.838125 
L 230.818094 254.998125 
L 231.49448 254.998125 
L 231.612847 254.578125 
L 233.92947 254.578125 
L 234.047838 254.158125 
L 234.91023 254.158125 
L 235.028598 253.738125 
L 236.330641 253.738125 
L 236.449009 253.318125 
L 236.618105 253.318125 
L 236.736473 252.898125 
L 236.753382 252.898125 
L 236.87175 252.478125 
L 237.074666 252.478125 
L 237.193033 252.058125 
L 237.480498 252.058125 
L 237.598865 251.638125 
L 238.173793 251.638125 
L 238.292161 251.218125 
L 241.014615 251.218125 
L 241.149893 250.378125 
L 241.166802 250.378125 
L 241.28517 249.958125 
L 242.164472 249.958125 
L 242.282839 249.538125 
L 242.959226 249.538125 
L 243.077593 249.118125 
L 243.415786 249.118125 
L 243.534154 248.698125 
L 244.125992 248.698125 
L 244.244359 248.278125 
L 245.140571 248.278125 
L 245.292758 247.018125 
L 245.766228 247.018125 
L 245.918415 245.758125 
L 246.696259 245.758125 
L 246.814627 245.338125 
L 247.321917 245.338125 
L 247.440284 244.918125 
L 248.13358 244.918125 
L 248.251948 244.498125 
L 248.437954 244.498125 
L 248.556321 244.078125 
L 249.165069 244.078125 
L 249.283436 243.658125 
L 250.010552 243.658125 
L 250.145829 242.818125 
L 250.331835 242.818125 
L 250.450203 242.398125 
L 250.670028 242.398125 
L 250.788396 241.978125 
L 250.923673 241.978125 
L 251.042041 241.558125 
L 251.481692 241.558125 
L 251.600059 241.138125 
L 251.786065 241.138125 
L 251.904433 240.718125 
L 252.242626 240.718125 
L 252.360994 240.298125 
L 252.411723 240.298125 
L 252.53009 239.878125 
L 252.547 239.878125 
L 252.665367 239.458125 
L 252.851374 239.458125 
L 252.969741 239.038125 
L 253.341754 239.038125 
L 253.460121 238.618125 
L 253.933591 238.618125 
L 254.051959 238.198125 
L 254.153417 238.198125 
L 254.271785 237.778125 
L 255.556918 237.778125 
L 255.692196 236.938125 
L 255.726015 236.938125 
L 255.861292 236.098125 
L 256.672955 236.098125 
L 256.791323 235.678125 
L 257.180245 235.678125 
L 257.315522 234.838125 
L 258.363921 234.838125 
L 258.482289 234.418125 
L 258.854301 234.418125 
L 258.972669 233.998125 
L 259.277042 233.998125 
L 259.39541 233.578125 
L 259.86888 233.578125 
L 259.987248 233.158125 
L 260.037977 233.158125 
L 260.156344 232.738125 
L 260.426899 232.738125 
L 260.545266 232.318125 
L 261.001827 232.318125 
L 261.137104 231.478125 
L 262.354599 231.478125 
L 262.472967 231.058125 
L 262.81116 231.058125 
L 262.929528 230.638125 
L 263.081715 230.638125 
L 263.200082 230.218125 
L 264.75577 230.218125 
L 264.874138 229.798125 
L 265.905627 229.798125 
L 266.040904 228.958125 
L 266.193091 228.958125 
L 266.311459 228.538125 
L 266.362188 228.538125 
L 266.480555 228.118125 
L 267.326038 228.118125 
L 267.461315 227.278125 
L 267.664231 227.278125 
L 267.782599 226.858125 
L 268.137701 226.858125 
L 268.256069 226.438125 
L 268.864816 226.438125 
L 269.017003 225.178125 
L 269.389016 225.178125 
L 269.524293 224.338125 
L 269.710299 224.338125 
L 269.828667 223.918125 
L 269.879396 223.918125 
L 269.997763 223.498125 
L 270.268318 223.498125 
L 270.386685 223.078125 
L 270.961614 223.078125 
L 271.079981 222.658125 
L 271.350536 222.658125 
L 271.468903 222.238125 
L 271.654909 222.238125 
L 271.773277 221.818125 
L 271.891645 221.818125 
L 272.010012 221.398125 
L 272.737127 221.398125 
L 272.855495 220.978125 
L 273.278236 220.978125 
L 273.396604 220.558125 
L 273.886984 220.558125 
L 274.005351 220.138125 
L 274.225177 220.138125 
L 274.343545 219.718125 
L 274.529551 219.718125 
L 274.647918 219.298125 
L 274.901563 219.298125 
L 275.019931 218.878125 
L 275.273576 218.878125 
L 275.391943 218.458125 
L 275.899233 218.458125 
L 276.0176 218.038125 
L 277.945301 218.038125 
L 278.097488 216.778125 
L 278.384952 216.778125 
L 278.50332 216.358125 
L 278.9937 216.358125 
L 279.128977 215.518125 
L 279.145886 215.518125 
L 279.298073 214.258125 
L 279.365712 214.258125 
L 279.484079 213.418125 
L 279.500989 213.418125 
L 279.619357 212.998125 
L 280.295743 212.998125 
L 280.41411 212.578125 
L 281.039768 212.578125 
L 281.158135 212.158125 
L 281.259593 212.158125 
L 281.39487 211.318125 
L 281.648515 211.318125 
L 281.766883 210.898125 
L 281.91907 210.898125 
L 282.071257 209.638125 
L 282.426359 209.638125 
L 282.544727 209.218125 
L 282.680004 209.218125 
L 282.798372 208.798125 
L 283.018197 208.798125 
L 283.136565 208.378125 
L 283.187294 208.378125 
L 283.305661 207.958125 
L 283.457848 207.958125 
L 283.576216 207.538125 
L 284.015867 207.538125 
L 284.134234 207.118125 
L 284.658434 207.118125 
L 284.776801 206.698125 
L 284.945898 206.698125 
L 285.064265 206.278125 
L 285.148814 206.278125 
L 285.267181 205.858125 
L 285.436278 205.858125 
L 285.554645 205.438125 
L 285.605374 205.438125 
L 285.723742 205.018125 
L 285.977387 205.018125 
L 286.146483 203.338125 
L 286.569225 203.338125 
L 286.687592 202.918125 
L 287.110334 202.918125 
L 287.228701 202.498125 
L 287.549985 202.498125 
L 287.668352 202.078125 
L 287.76981 202.078125 
L 287.905087 201.238125 
L 288.29401 201.238125 
L 288.429287 200.398125 
L 288.480016 200.398125 
L 288.615293 199.558125 
L 288.649112 199.558125 
L 288.784389 198.298125 
L 289.562234 198.298125 
L 289.680601 197.878125 
L 290.086433 197.878125 
L 290.2048 197.458125 
L 290.779729 197.458125 
L 290.898096 197.038125 
L 290.948825 197.038125 
L 291.067193 196.618125 
L 291.117922 196.618125 
L 291.236289 196.198125 
L 291.270109 196.198125 
L 291.422296 194.938125 
L 291.828127 194.938125 
L 291.946495 194.518125 
L 292.149411 194.518125 
L 292.301598 193.258125 
L 292.487604 193.258125 
L 292.622881 192.418125 
L 293.113261 192.418125 
L 293.231629 191.998125 
L 293.468364 191.998125 
L 293.603641 191.158125 
L 295.277697 191.158125 
L 295.396064 190.738125 
L 295.531342 190.738125 
L 295.649709 190.318125 
L 295.784986 190.318125 
L 295.920264 189.478125 
L 296.072451 189.478125 
L 296.190818 189.058125 
L 296.782656 189.058125 
L 296.901024 188.638125 
L 296.917933 188.638125 
L 297.036301 188.218125 
L 297.645048 188.218125 
L 297.763416 187.798125 
L 298.372164 187.798125 
L 298.490531 187.378125 
L 298.777995 187.378125 
L 298.896363 186.958125 
L 299.03164 186.958125 
L 299.150008 186.538125 
L 299.200737 186.538125 
L 299.336014 185.698125 
L 299.877123 185.698125 
L 299.99549 185.278125 
L 301.094618 185.278125 
L 301.212986 184.858125 
L 301.99083 184.858125 
L 302.109197 184.438125 
L 302.701035 184.438125 
L 302.819403 184.018125 
L 303.411241 184.018125 
L 303.529608 183.598125 
L 303.563428 183.598125 
L 303.681795 183.178125 
L 303.91853 183.178125 
L 304.053808 182.338125 
L 305.271303 182.338125 
L 305.38967 181.918125 
L 306.150605 181.918125 
L 306.285882 181.078125 
L 306.573346 181.078125 
L 306.691714 180.658125 
L 307.148274 180.658125 
L 307.283552 179.818125 
L 307.300461 179.818125 
L 307.418829 179.398125 
L 308.230492 179.398125 
L 308.34886 178.978125 
L 308.754692 178.978125 
L 308.873059 178.558125 
L 308.957607 178.558125 
L 309.075975 178.138125 
L 309.278891 178.138125 
L 309.397258 177.718125 
L 309.78618 177.718125 
L 309.904548 177.298125 
L 309.938367 177.298125 
L 310.073645 176.458125 
L 311.494056 176.458125 
L 311.629333 175.618125 
L 312.846828 175.618125 
L 312.965196 175.198125 
L 313.201931 175.198125 
L 313.337208 174.358125 
L 314.21651 174.358125 
L 314.334878 173.938125 
L 315.366366 173.938125 
L 315.484734 173.518125 
L 315.586192 173.518125 
L 315.70456 173.098125 
L 315.738379 173.098125 
L 315.856746 172.678125 
L 316.516223 172.678125 
L 316.634591 172.258125 
L 316.803687 172.258125 
L 316.938964 171.418125 
L 317.327886 171.418125 
L 317.446254 170.998125 
L 317.970453 170.998125 
L 318.088821 170.578125 
L 318.393195 170.578125 
L 318.511562 170.158125 
L 318.748297 170.158125 
L 318.866665 169.738125 
L 318.951213 169.738125 
L 319.069581 169.318125 
L 319.1034 169.318125 
L 319.255587 168.058125 
L 320.134889 168.058125 
L 320.270166 167.218125 
L 320.709817 167.218125 
L 320.828185 166.798125 
L 320.963462 166.798125 
L 321.08183 166.378125 
L 321.217107 166.378125 
L 321.335475 165.958125 
L 321.453842 165.958125 
L 321.589119 165.118125 
L 322.451512 165.118125 
L 322.569879 164.698125 
L 322.586789 164.698125 
L 322.705157 164.278125 
L 325.021779 164.278125 
L 325.140147 163.858125 
L 325.731985 163.858125 
L 325.850352 163.438125 
L 326.120907 163.438125 
L 326.256184 162.598125 
L 327.067847 162.598125 
L 327.186215 162.178125 
L 327.642776 162.178125 
L 327.778053 161.338125 
L 327.947149 161.338125 
L 328.065517 160.918125 
L 328.082427 160.918125 
L 328.200794 160.498125 
L 328.522078 160.498125 
L 328.674265 159.238125 
L 329.063187 159.238125 
L 329.198464 158.398125 
L 329.249193 158.398125 
L 329.36756 157.978125 
L 330.077766 157.978125 
L 330.196134 157.558125 
L 330.213043 157.558125 
L 330.34832 156.718125 
L 330.36523 156.718125 
L 330.483598 156.298125 
L 330.618875 156.298125 
L 330.737242 155.878125 
L 330.973978 155.878125 
L 331.092345 155.458125 
L 332.005467 155.458125 
L 332.140744 154.618125 
L 332.276021 154.618125 
L 332.394389 154.198125 
L 332.462027 154.198125 
L 332.580395 153.778125 
L 332.715672 153.778125 
L 332.83404 153.358125 
L 333.442787 153.358125 
L 333.578064 152.518125 
L 334.237541 152.518125 
L 334.355909 152.098125 
L 334.744831 152.098125 
L 334.880108 151.258125 
L 334.998475 151.258125 
L 335.116843 150.838125 
L 335.404307 150.838125 
L 335.522675 150.418125 
L 335.691771 150.418125 
L 335.810139 149.998125 
L 336.283609 149.998125 
L 336.401977 149.578125 
L 336.503435 149.578125 
L 336.621802 149.158125 
L 337.923846 149.158125 
L 338.042213 148.738125 
L 338.076033 148.738125 
L 338.1944 148.318125 
L 338.363497 148.318125 
L 338.481864 147.898125 
L 338.549503 147.898125 
L 338.66787 147.478125 
L 339.225889 147.478125 
L 339.344257 147.058125 
L 339.766998 147.058125 
L 339.919185 145.798125 
L 340.375746 145.798125 
L 340.511023 144.958125 
L 340.781577 144.958125 
L 340.899945 144.538125 
L 340.916855 144.538125 
L 341.035222 144.118125 
L 341.356506 144.118125 
L 341.474873 143.698125 
L 341.677789 143.698125 
L 341.796157 143.278125 
L 341.965253 143.278125 
L 342.083621 142.858125 
L 342.13435 142.858125 
L 342.252717 142.438125 
L 342.62473 142.438125 
L 342.743097 142.018125 
L 342.929103 142.018125 
L 343.047471 141.598125 
L 344.06205 141.598125 
L 344.180418 141.178125 
L 344.501701 141.178125 
L 344.636979 140.338125 
L 345.397913 140.338125 
L 345.516281 139.918125 
L 345.736106 139.918125 
L 345.854474 139.498125 
L 345.871383 139.498125 
L 346.02357 138.238125 
L 346.395583 138.238125 
L 346.547769 136.978125 
L 346.615408 136.978125 
L 346.750685 136.138125 
L 346.801414 136.138125 
L 346.919782 135.718125 
L 346.987421 135.718125 
L 347.139607 134.458125 
L 347.697626 134.458125 
L 347.832903 133.618125 
L 348.086548 133.618125 
L 348.204916 133.198125 
L 348.255645 133.198125 
L 348.374012 132.778125 
L 348.543109 132.778125 
L 348.661476 132.358125 
L 349.94661 132.358125 
L 350.064978 131.938125 
L 350.656816 131.938125 
L 350.775183 131.518125 
L 351.451569 131.518125 
L 351.569937 131.098125 
L 352.804342 131.098125 
L 352.922709 130.678125 
L 353.480728 130.678125 
L 353.599095 130.258125 
L 353.85274 130.258125 
L 353.971108 129.838125 
L 354.089475 129.838125 
L 354.207843 129.418125 
L 355.256242 129.418125 
L 355.374609 128.998125 
L 356.220092 128.998125 
L 356.338459 128.578125 
L 356.439917 128.578125 
L 356.558285 128.158125 
L 356.575195 128.158125 
L 356.693562 127.738125 
L 356.828839 127.738125 
L 356.947207 127.318125 
L 356.981026 127.318125 
L 357.099394 126.898125 
L 357.234671 126.898125 
L 357.353039 126.478125 
L 357.657413 126.478125 
L 357.77578 126.058125 
L 358.164702 126.058125 
L 358.299979 125.218125 
L 359.213101 125.218125 
L 359.348378 124.378125 
L 359.72039 124.378125 
L 359.838758 123.958125 
L 359.957126 123.958125 
L 360.075493 123.538125 
L 360.430596 123.538125 
L 360.548963 123.118125 
L 360.819518 123.118125 
L 360.988614 121.438125 
L 361.140801 121.438125 
L 361.259169 121.018125 
L 362.037013 121.018125 
L 362.155381 120.598125 
L 362.425935 120.598125 
L 362.544303 120.178125 
L 362.69649 120.178125 
L 362.814857 119.758125 
L 364.083081 119.758125 
L 364.218359 118.918125 
L 364.776377 118.918125 
L 364.911654 118.078125 
L 364.928564 118.078125 
L 365.046932 117.658125 
L 365.993872 117.658125 
L 366.11224 117.238125 
L 366.146059 117.238125 
L 366.264427 116.818125 
L 366.619529 116.818125 
L 366.754807 115.978125 
L 366.923903 115.978125 
L 367.05918 115.138125 
L 367.498831 115.138125 
L 367.651018 113.878125 
L 368.192127 113.878125 
L 368.327405 113.038125 
L 369.781635 113.038125 
L 369.900002 112.618125 
L 370.086009 112.618125 
L 370.221286 111.778125 
L 370.931491 111.778125 
L 371.049859 111.358125 
L 371.320413 111.358125 
L 371.438781 110.938125 
L 371.4726 110.938125 
L 371.590968 110.518125 
L 371.895342 110.518125 
L 372.013709 110.098125 
L 372.098258 110.098125 
L 372.216625 109.258125 
L 372.707005 109.258125 
L 372.842282 108.418125 
L 373.603217 108.418125 
L 373.738494 107.578125 
L 373.772313 107.578125 
L 373.890681 107.158125 
L 374.397971 107.158125 
L 374.516338 106.738125 
L 374.617796 106.738125 
L 374.736164 106.318125 
L 374.753073 106.318125 
L 374.871441 105.898125 
L 375.141995 105.898125 
L 375.260363 105.478125 
L 376.190394 105.478125 
L 376.308762 105.058125 
L 376.630045 105.058125 
L 376.799142 103.378125 
L 378.270281 103.378125 
L 378.388649 102.958125 
L 379.589235 102.958125 
L 379.707602 102.538125 
L 380.569994 102.538125 
L 380.688362 102.118125 
L 381.719851 102.118125 
L 381.838219 101.698125 
L 381.990405 101.698125 
L 382.108773 101.278125 
L 382.26096 101.278125 
L 382.379328 100.858125 
L 382.76825 100.858125 
L 382.886617 100.438125 
L 383.072623 100.438125 
L 383.207901 99.598125 
L 383.968835 99.598125 
L 384.087203 99.178125 
L 384.865047 99.178125 
L 384.983414 98.758125 
L 385.101782 98.758125 
L 385.220149 98.338125 
L 385.456885 98.338125 
L 385.592162 97.498125 
L 386.589831 97.498125 
L 386.725109 96.658125 
L 386.809657 96.658125 
L 386.928025 96.238125 
L 388.297707 96.238125 
L 388.416074 95.818125 
L 388.483713 95.818125 
L 388.60208 95.398125 
L 389.650479 95.398125 
L 389.768847 94.978125 
L 390.462142 94.978125 
L 390.58051 94.558125 
L 390.614329 94.558125 
L 390.732697 94.138125 
L 391.459812 94.138125 
L 391.595089 93.298125 
L 391.611999 93.298125 
L 391.730366 92.878125 
L 392.271475 92.878125 
L 392.389843 92.458125 
L 392.711126 92.458125 
L 392.846404 91.618125 
L 393.03241 91.618125 
L 393.150777 91.198125 
L 393.302964 91.198125 
L 393.421332 90.778125 
L 393.52279 90.778125 
L 393.641157 90.358125 
L 394.114628 90.358125 
L 394.232995 89.938125 
L 394.300634 89.938125 
L 394.419002 89.518125 
L 395.687226 89.518125 
L 395.805593 89.098125 
L 396.583437 89.098125 
L 396.701805 88.678125 
L 396.853992 88.678125 
L 396.972359 88.258125 
L 397.141456 88.258125 
L 397.259824 87.838125 
L 397.310552 87.838125 
L 397.462739 86.578125 
L 398.156035 86.578125 
L 398.274403 86.158125 
L 398.714054 86.158125 
L 398.832421 85.738125 
L 398.950789 85.738125 
L 399.069157 85.318125 
L 399.305892 85.318125 
L 399.424259 84.898125 
L 399.474988 84.898125 
L 399.593356 84.478125 
L 399.745543 84.478125 
L 399.88082 83.638125 
L 400.303561 83.638125 
L 400.421929 83.218125 
L 400.996857 83.218125 
L 401.115225 82.798125 
L 402.84001 82.798125 
L 402.958377 82.378125 
L 403.161293 82.378125 
L 403.279661 81.958125 
L 404.108234 81.958125 
L 404.226601 81.538125 
L 404.598614 81.538125 
L 404.716981 81.118125 
L 405.782289 81.118125 
L 405.900657 80.698125 
L 406.188121 80.698125 
L 406.306489 80.278125 
L 407.050514 80.278125 
L 407.168881 79.858125 
L 407.439436 79.858125 
L 407.557803 79.438125 
L 407.7269 79.438125 
L 407.845267 79.018125 
L 409.316407 79.018125 
L 409.468594 77.758125 
L 409.637691 77.758125 
L 409.756058 77.338125 
L 410.753728 77.338125 
L 410.872095 76.918125 
L 411.041192 76.918125 
L 411.15956 76.498125 
L 412.343235 76.498125 
L 412.461603 76.078125 
L 412.968893 76.078125 
L 413.08726 75.658125 
L 413.526911 75.658125 
L 413.645279 75.238125 
L 413.780556 75.238125 
L 413.898924 74.818125 
L 414.034201 74.818125 
L 414.169478 73.978125 
L 414.203297 73.978125 
L 414.321665 73.558125 
L 415.420793 73.558125 
L 415.53916 73.138125 
L 415.758986 73.138125 
L 415.877353 72.718125 
L 415.911173 72.718125 
L 416.02954 72.298125 
L 416.384643 72.298125 
L 416.50301 71.878125 
L 416.621378 71.878125 
L 416.739746 71.458125 
L 416.942661 71.458125 
L 417.061029 71.038125 
L 417.280855 71.038125 
L 417.416132 70.198125 
L 417.50068 70.198125 
L 417.619048 69.778125 
L 417.923421 69.778125 
L 418.041789 69.358125 
L 418.48144 69.358125 
L 418.599808 68.938125 
L 418.887272 68.938125 
L 419.005639 68.518125 
L 420.104767 68.518125 
L 420.223134 68.098125 
L 420.747334 68.098125 
L 420.865701 67.678125 
L 421.034798 67.678125 
L 421.170075 66.838125 
L 421.761913 66.838125 
L 421.880281 66.418125 
L 422.049377 66.418125 
L 422.167745 65.998125 
L 422.455209 65.998125 
L 422.573576 65.578125 
L 422.675034 65.578125 
L 422.793402 65.158125 
L 423.452878 65.158125 
L 423.571246 64.738125 
L 423.943258 64.738125 
L 424.061626 64.318125 
L 425.414398 64.318125 
L 425.549676 63.478125 
L 426.530436 63.478125 
L 426.648803 63.058125 
L 426.716442 63.058125 
L 426.834809 62.638125 
L 428.610323 62.638125 
L 428.7456 61.798125 
L 430.571843 61.798125 
L 430.70712 60.958125 
L 431.163681 60.958125 
L 431.282049 60.538125 
L 431.518784 60.538125 
L 431.654061 59.698125 
L 432.871556 59.698125 
L 432.989924 59.278125 
L 433.683219 59.278125 
L 433.801587 58.858125 
L 434.173599 58.858125 
L 434.291967 58.438125 
L 434.765437 58.438125 
L 434.883805 58.018125 
L 435.492552 58.018125 
L 435.61092 57.598125 
L 436.1013 57.598125 
L 436.219668 57.178125 
L 437.606259 57.178125 
L 437.724627 56.758125 
L 437.792266 56.758125 
L 437.910633 56.338125 
L 440.210346 56.338125 
L 440.328714 55.918125 
L 441.952041 55.918125 
L 442.070408 55.498125 
L 443.051168 55.498125 
L 443.169536 55.078125 
L 444.285573 55.078125 
L 444.42085 54.238125 
L 444.471579 54.238125 
L 444.589947 53.818125 
L 446.247093 53.818125 
L 446.36546 53.398125 
L 447.177124 53.398125 
L 447.295491 52.978125 
L 449.662843 52.978125 
L 449.781211 52.558125 
L 450.660513 52.558125 
L 450.77888 52.138125 
L 451.28617 52.138125 
L 451.404537 51.718125 
L 451.979466 51.718125 
L 452.097833 51.298125 
L 452.26693 51.298125 
L 452.402207 50.458125 
L 455.429035 50.458125 
L 455.547403 50.038125 
L 457.035452 50.038125 
L 457.15382 49.618125 
L 457.525832 49.618125 
L 457.6442 49.198125 
L 459.385894 49.198125 
L 459.504262 48.778125 
L 460.214467 48.778125 
L 460.332835 48.358125 
L 461.07686 48.358125 
L 461.195227 47.938125 
L 461.820885 47.938125 
L 461.939252 47.518125 
L 462.04071 47.518125 
L 462.159078 47.098125 
L 462.395813 47.098125 
L 462.51418 46.678125 
L 462.920012 46.678125 
L 463.03838 46.258125 
L 463.106018 46.258125 
L 463.258205 44.998125 
L 463.49494 44.998125 
L 463.613308 44.578125 
L 465.642467 44.578125 
L 465.760834 44.158125 
L 468.009818 44.158125 
L 468.128186 43.738125 
L 470.343351 43.738125 
L 470.461718 43.318125 
L 472.626154 43.318125 
L 472.744522 42.898125 
L 473.048895 42.898125 
L 473.167263 42.478125 
L 473.725281 42.478125 
L 473.843649 42.058125 
L 476.769019 42.058125 
L 476.887387 41.638125 
L 477.005754 41.638125 
L 477.124122 41.218125 
L 480.15095 41.218125 
L 480.269318 40.798125 
L 480.336956 40.798125 
L 480.455324 40.378125 
L 485.832594 40.378125 
L 485.950962 39.958125 
L 486.001691 39.958125 
L 486.120058 39.538125 
L 486.272245 39.538125 
L 486.390613 39.118125 
L 487.01627 39.118125 
L 487.134638 38.698125 
L 487.574289 38.698125 
L 487.692656 38.278125 
L 499.850698 38.278125 
L 499.969065 37.858125 
L 500.949825 37.858125 
L 501.068193 37.438125 
L 501.879856 37.438125 
L 501.998224 37.018125 
L 508.254796 37.018125 
L 508.373164 36.598125 
L 513.42915 36.598125 
L 513.547518 36.178125 
L 521.241411 36.178125 
L 521.359778 35.758125 
L 528.698568 35.758125 
L 528.816936 35.338125 
L 534.650767 35.338125 
L 534.769134 34.918125 
L 576.417614 34.918125 
L 576.417614 34.918125 
" clip-path="url(#pf13f4d754f)" style="fill: none; stroke: #20b2aa; stroke-width: 1.5; stroke-linecap: square"/>
   </g>
   <g id="patch_3">
    <path d="M 43.78125 299.518125 
L 43.78125 22.318125 
" style="fill: none; stroke: #000000; stroke-width: 0.8; stroke-linejoin: miter; stroke-linecap: square"/>
   </g>
   <g id="patch_4">
    <path d="M 601.78125 299.518125 
L 601.78125 22.318125 
" style="fill: none; stroke: #000000; stroke-width: 0.8; stroke-linejoin: miter; stroke-linecap: square"/>
   </g>
   <g id="patch_5">
    <path d="M 43.78125 299.518125 
L 601.78125 299.518125 
" style="fill: none; stroke: #000000; stroke-width: 0.8; stroke-linejoin: miter; stroke-linecap: square"/>
   </g>
   <g id="patch_6">
    <path d="M 43.78125 22.318125 
L 601.78125 22.318125 
" style="fill: none; stroke: #000000; stroke-width: 0.8; stroke-linejoin: miter; stroke-linecap: square"/>
   </g>
   <g id="text_16">
    <!-- Empirical distributions of dependent samples (w/ noise) -->
    <g transform="translate(155.383125 16.318125) scale(0.12 -0.12)">
     <defs>
      <path id="DejaVuSans-45" d="M 628 4666 
L 3578 4666 
L 3578 4134 
L 1259 4134 
L 1259 2753 
L 3481 2753 
L 3481 2222 
L 1259 2222 
L 1259 531 
L 3634 531 
L 3634 0 
L 628 0 
L 628 4666 
z
" transform="scale(0.015625)"/>
      <path id="DejaVuSans-63" d="M 3122 3366 
L 3122 2828 
Q 2878 2963 2633 3030 
Q 2388 3097 2138 3097 
Q 1578 3097 1268 2742 
Q 959 2388 959 1747 
Q 959 1106 1268 751 
Q 1578 397 2138 397 
Q 2388 397 2633 464 
Q 2878 531 3122 666 
L 3122 134 
Q 2881 22 2623 -34 
Q 2366 -91 2075 -91 
Q 1284 -91 818 406 
Q 353 903 353 1747 
Q 353 2603 823 3093 
Q 1294 3584 2113 3584 
Q 2378 3584 2631 3529 
Q 2884 3475 3122 3366 
z
" transform="scale(0.015625)"/>
      <path id="DejaVuSans-64" d="M 2906 2969 
L 2906 4863 
L 3481 4863 
L 3481 0 
L 2906 0 
L 2906 525 
Q 2725 213 2448 61 
Q 2172 -91 1784 -91 
Q 1150 -91 751 415 
Q 353 922 353 1747 
Q 353 2572 751 3078 
Q 1150 3584 1784 3584 
Q 2172 3584 2448 3432 
Q 2725 3281 2906 2969 
z
M 947 1747 
Q 947 1113 1208 752 
Q 1469 391 1925 391 
Q 2381 391 2643 752 
Q 2906 1113 2906 1747 
Q 2906 2381 2643 2742 
Q 2381 3103 1925 3103 
Q 1469 3103 1208 2742 
Q 947 2381 947 1747 
z
" transform="scale(0.015625)"/>
      <path id="DejaVuSans-73" d="M 2834 3397 
L 2834 2853 
Q 2591 2978 2328 3040 
Q 2066 3103 1784 3103 
Q 1356 3103 1142 2972 
Q 928 2841 928 2578 
Q 928 2378 1081 2264 
Q 1234 2150 1697 2047 
L 1894 2003 
Q 2506 1872 2764 1633 
Q 3022 1394 3022 966 
Q 3022 478 2636 193 
Q 2250 -91 1575 -91 
Q 1294 -91 989 -36 
Q 684 19 347 128 
L 347 722 
Q 666 556 975 473 
Q 1284 391 1588 391 
Q 1994 391 2212 530 
Q 2431 669 2431 922 
Q 2431 1156 2273 1281 
Q 2116 1406 1581 1522 
L 1381 1569 
Q 847 1681 609 1914 
Q 372 2147 372 2553 
Q 372 3047 722 3315 
Q 1072 3584 1716 3584 
Q 2034 3584 2315 3537 
Q 2597 3491 2834 3397 
z
" transform="scale(0.015625)"/>
      <path id="DejaVuSans-6e" d="M 3513 2113 
L 3513 0 
L 2938 0 
L 2938 2094 
Q 2938 2591 2744 2837 
Q 2550 3084 2163 3084 
Q 1697 3084 1428 2787 
Q 1159 2491 1159 1978 
L 1159 0 
L 581 0 
L 581 3500 
L 1159 3500 
L 1159 2956 
Q 1366 3272 1645 3428 
Q 1925 3584 2291 3584 
Q 2894 3584 3203 3211 
Q 3513 2838 3513 2113 
z
" transform="scale(0.015625)"/>
      <path id="DejaVuSans-66" d="M 2375 4863 
L 2375 4384 
L 1825 4384 
Q 1516 4384 1395 4259 
Q 1275 4134 1275 3809 
L 1275 3500 
L 2222 3500 
L 2222 3053 
L 1275 3053 
L 1275 0 
L 697 0 
L 697 3053 
L 147 3053 
L 147 3500 
L 697 3500 
L 697 3744 
Q 697 4328 969 4595 
Q 1241 4863 1831 4863 
L 2375 4863 
z
" transform="scale(0.015625)"/>
      <path id="DejaVuSans-28" d="M 1984 4856 
Q 1566 4138 1362 3434 
Q 1159 2731 1159 2009 
Q 1159 1288 1364 580 
Q 1569 -128 1984 -844 
L 1484 -844 
Q 1016 -109 783 600 
Q 550 1309 550 2009 
Q 550 2706 781 3412 
Q 1013 4119 1484 4856 
L 1984 4856 
z
" transform="scale(0.015625)"/>
      <path id="DejaVuSans-77" d="M 269 3500 
L 844 3500 
L 1563 769 
L 2278 3500 
L 2956 3500 
L 3675 769 
L 4391 3500 
L 4966 3500 
L 4050 0 
L 3372 0 
L 2619 2869 
L 1863 0 
L 1184 0 
L 269 3500 
z
" transform="scale(0.015625)"/>
      <path id="DejaVuSans-2f" d="M 1625 4666 
L 2156 4666 
L 531 -594 
L 0 -594 
L 1625 4666 
z
" transform="scale(0.015625)"/>
      <path id="DejaVuSans-29" d="M 513 4856 
L 1013 4856 
Q 1481 4119 1714 3412 
Q 1947 2706 1947 2009 
Q 1947 1309 1714 600 
Q 1481 -109 1013 -844 
L 513 -844 
Q 928 -128 1133 580 
Q 1338 1288 1338 2009 
Q 1338 2731 1133 3434 
Q 928 4138 513 4856 
z
" transform="scale(0.015625)"/>
     </defs>
     <use xlink:href="#DejaVuSans-45"/>
     <use xlink:href="#DejaVuSans-6d" x="63.183594"/>
     <use xlink:href="#DejaVuSans-70" x="160.595703"/>
     <use xlink:href="#DejaVuSans-69" x="224.072266"/>
     <use xlink:href="#DejaVuSans-72" x="251.855469"/>
     <use xlink:href="#DejaVuSans-69" x="292.96875"/>
     <use xlink:href="#DejaVuSans-63" x="320.751953"/>
     <use xlink:href="#DejaVuSans-61" x="375.732422"/>
     <use xlink:href="#DejaVuSans-6c" x="437.011719"/>
     <use xlink:href="#DejaVuSans-20" x="464.794922"/>
     <use xlink:href="#DejaVuSans-64" x="496.582031"/>
     <use xlink:href="#DejaVuSans-69" x="560.058594"/>
     <use xlink:href="#DejaVuSans-73" x="587.841797"/>
     <use xlink:href="#DejaVuSans-74" x="639.941406"/>
     <use xlink:href="#DejaVuSans-72" x="679.150391"/>
     <use xlink:href="#DejaVuSans-69" x="720.263672"/>
     <use xlink:href="#DejaVuSans-62" x="748.046875"/>
     <use xlink:href="#DejaVuSans-75" x="811.523438"/>
     <use xlink:href="#DejaVuSans-74" x="874.902344"/>
     <use xlink:href="#DejaVuSans-69" x="914.111328"/>
     <use xlink:href="#DejaVuSans-6f" x="941.894531"/>
     <use xlink:href="#DejaVuSans-6e" x="1003.076172"/>
     <use xlink:href="#DejaVuSans-73" x="1066.455078"/>
     <use xlink:href="#DejaVuSans-20" x="1118.554688"/>
     <use xlink:href="#DejaVuSans-6f" x="1150.341797"/>
     <use xlink:href="#DejaVuSans-66" x="1211.523438"/>
     <use xlink:href="#DejaVuSans-20" x="1246.728516"/>
     <use xlink:href="#DejaVuSans-64" x="1278.515625"/>
     <use xlink:href="#DejaVuSans-65" x="1341.992188"/>
     <use xlink:href="#DejaVuSans-70" x="1403.515625"/>
     <use xlink:href="#DejaVuSans-65" x="1466.992188"/>
     <use xlink:href="#DejaVuSans-6e" x="1528.515625"/>
     <use xlink:href="#DejaVuSans-64" x="1591.894531"/>
     <use xlink:href="#DejaVuSans-65" x="1655.371094"/>
     <use xlink:href="#DejaVuSans-6e" x="1716.894531"/>
     <use xlink:href="#DejaVuSans-74" x="1780.273438"/>
     <use xlink:href="#DejaVuSans-20" x="1819.482422"/>
     <use xlink:href="#DejaVuSans-73" x="1851.269531"/>
     <use xlink:href="#DejaVuSans-61" x="1903.369141"/>
     <use xlink:href="#DejaVuSans-6d" x="1964.648438"/>
     <use xlink:href="#DejaVuSans-70" x="2062.060547"/>
     <use xlink:href="#DejaVuSans-6c" x="2125.537109"/>
     <use xlink:href="#DejaVuSans-65" x="2153.320312"/>
     <use xlink:href="#DejaVuSans-73" x="2214.84375"/>
     <use xlink:href="#DejaVuSans-20" x="2266.943359"/>
     <use xlink:href="#DejaVuSans-28" x="2298.730469"/>
     <use xlink:href="#DejaVuSans-77" x="2337.744141"/>
     <use xlink:href="#DejaVuSans-2f" x="2419.53125"/>
     <use xlink:href="#DejaVuSans-20" x="2453.222656"/>
     <use xlink:href="#DejaVuSans-6e" x="2485.009766"/>
     <use xlink:href="#DejaVuSans-6f" x="2548.388672"/>
     <use xlink:href="#DejaVuSans-69" x="2609.570312"/>
     <use xlink:href="#DejaVuSans-73" x="2637.353516"/>
     <use xlink:href="#DejaVuSans-65" x="2689.453125"/>
     <use xlink:href="#DejaVuSans-29" x="2750.976562"/>
    </g>
   </g>
   <g id="legend_1">
    <g id="patch_7">
     <path d="M 50.78125 59.674375 
L 174.607813 59.674375 
Q 176.607813 59.674375 176.607813 57.674375 
L 176.607813 29.318125 
Q 176.607813 27.318125 174.607813 27.318125 
L 50.78125 27.318125 
Q 48.78125 27.318125 48.78125 29.318125 
L 48.78125 57.674375 
Q 48.78125 59.674375 50.78125 59.674375 
z
" style="fill: #ffffff; opacity: 0.8; stroke: #cccccc; stroke-linejoin: miter"/>
    </g>
    <g id="line2d_16">
     <path d="M 52.78125 35.416562 
L 62.78125 35.416562 
L 72.78125 35.416562 
" style="fill: none; stroke: #e64173; stroke-width: 1.5; stroke-linecap: square"/>
    </g>
    <g id="text_17">
     <!-- empirical cdf for A -->
     <g transform="translate(80.78125 38.916562) scale(0.1 -0.1)">
      <defs>
       <path id="DejaVuSans-41" d="M 2188 4044 
L 1331 1722 
L 3047 1722 
L 2188 4044 
z
M 1831 4666 
L 2547 4666 
L 4325 0 
L 3669 0 
L 3244 1197 
L 1141 1197 
L 716 0 
L 50 0 
L 1831 4666 
z
" transform="scale(0.015625)"/>
      </defs>
      <use xlink:href="#DejaVuSans-65"/>
      <use xlink:href="#DejaVuSans-6d" x="61.523438"/>
      <use xlink:href="#DejaVuSans-70" x="158.935547"/>
      <use xlink:href="#DejaVuSans-69" x="222.412109"/>
      <use xlink:href="#DejaVuSans-72" x="250.195312"/>
      <use xlink:href="#DejaVuSans-69" x="291.308594"/>
      <use xlink:href="#DejaVuSans-63" x="319.091797"/>
      <use xlink:href="#DejaVuSans-61" x="374.072266"/>
      <use xlink:href="#DejaVuSans-6c" x="435.351562"/>
      <use xlink:href="#DejaVuSans-20" x="463.134766"/>
      <use xlink:href="#DejaVuSans-63" x="494.921875"/>
      <use xlink:href="#DejaVuSans-64" x="549.902344"/>
      <use xlink:href="#DejaVuSans-66" x="613.378906"/>
      <use xlink:href="#DejaVuSans-20" x="648.583984"/>
      <use xlink:href="#DejaVuSans-66" x="680.371094"/>
      <use xlink:href="#DejaVuSans-6f" x="715.576172"/>
      <use xlink:href="#DejaVuSans-72" x="776.757812"/>
      <use xlink:href="#DejaVuSans-20" x="817.871094"/>
      <use xlink:href="#DejaVuSans-41" x="849.658203"/>
     </g>
    </g>
    <g id="line2d_17">
     <path d="M 52.78125 50.094688 
L 62.78125 50.094688 
L 72.78125 50.094688 
" style="fill: none; stroke: #20b2aa; stroke-width: 1.5; stroke-linecap: square"/>
    </g>
    <g id="text_18">
     <!-- empirical cdf for B -->
     <g transform="translate(80.78125 53.594688) scale(0.1 -0.1)">
      <defs>
       <path id="DejaVuSans-42" d="M 1259 2228 
L 1259 519 
L 2272 519 
Q 2781 519 3026 730 
Q 3272 941 3272 1375 
Q 3272 1813 3026 2020 
Q 2781 2228 2272 2228 
L 1259 2228 
z
M 1259 4147 
L 1259 2741 
L 2194 2741 
Q 2656 2741 2882 2914 
Q 3109 3088 3109 3444 
Q 3109 3797 2882 3972 
Q 2656 4147 2194 4147 
L 1259 4147 
z
M 628 4666 
L 2241 4666 
Q 2963 4666 3353 4366 
Q 3744 4066 3744 3513 
Q 3744 3084 3544 2831 
Q 3344 2578 2956 2516 
Q 3422 2416 3680 2098 
Q 3938 1781 3938 1306 
Q 3938 681 3513 340 
Q 3088 0 2303 0 
L 628 0 
L 628 4666 
z
" transform="scale(0.015625)"/>
      </defs>
      <use xlink:href="#DejaVuSans-65"/>
      <use xlink:href="#DejaVuSans-6d" x="61.523438"/>
      <use xlink:href="#DejaVuSans-70" x="158.935547"/>
      <use xlink:href="#DejaVuSans-69" x="222.412109"/>
      <use xlink:href="#DejaVuSans-72" x="250.195312"/>
      <use xlink:href="#DejaVuSans-69" x="291.308594"/>
      <use xlink:href="#DejaVuSans-63" x="319.091797"/>
      <use xlink:href="#DejaVuSans-61" x="374.072266"/>
      <use xlink:href="#DejaVuSans-6c" x="435.351562"/>
      <use xlink:href="#DejaVuSans-20" x="463.134766"/>
      <use xlink:href="#DejaVuSans-63" x="494.921875"/>
      <use xlink:href="#DejaVuSans-64" x="549.902344"/>
      <use xlink:href="#DejaVuSans-66" x="613.378906"/>
      <use xlink:href="#DejaVuSans-20" x="648.583984"/>
      <use xlink:href="#DejaVuSans-66" x="680.371094"/>
      <use xlink:href="#DejaVuSans-6f" x="715.576172"/>
      <use xlink:href="#DejaVuSans-72" x="776.757812"/>
      <use xlink:href="#DejaVuSans-20" x="817.871094"/>
      <use xlink:href="#DejaVuSans-42" x="849.658203"/>
     </g>
    </g>
   </g>
  </g>
 </g>
 <defs>
  <clipPath id="pf13f4d754f">
   <rect x="43.78125" y="22.318125" width="558" height="277.2"/>
  </clipPath>
 </defs>
</svg>
