<?xml version="1.0" encoding="utf-8" standalone="no"?>
<!DOCTYPE svg PUBLIC "-//W3C//DTD SVG 1.1//EN"
  "http://www.w3.org/Graphics/SVG/1.1/DTD/svg11.dtd">
<svg xmlns:xlink="http://www.w3.org/1999/xlink" width="608.98125pt" height="337.074375pt" viewBox="0 0 608.98125 337.074375" xmlns="http://www.w3.org/2000/svg" version="1.1">
 <metadata>
  <rdf:RDF xmlns:dc="http://purl.org/dc/elements/1.1/" xmlns:cc="http://creativecommons.org/ns#" xmlns:rdf="http://www.w3.org/1999/02/22-rdf-syntax-ns#">
   <cc:Work>
    <dc:type rdf:resource="http://purl.org/dc/dcmitype/StillImage"/>
    <dc:date>2025-05-14T19:35:54.028776</dc:date>
    <dc:format>image/svg+xml</dc:format>
    <dc:creator>
     <cc:Agent>
      <dc:title>Matplotlib v3.7.2, https://matplotlib.org/</dc:title>
     </cc:Agent>
    </dc:creator>
   </cc:Work>
  </rdf:RDF>
 </metadata>
 <defs>
  <style type="text/css">*{stroke-linejoin: round; stroke-linecap: butt}</style>
 </defs>
 <g id="figure_1">
  <g id="patch_1">
   <path d="M 0 337.074375 
L 608.98125 337.074375 
L 608.98125 0 
L 0 0 
z
" style="fill: #ffffff"/>
  </g>
  <g id="axes_1">
   <g id="patch_2">
    <path d="M 43.78125 299.518125 
L 601.78125 299.518125 
L 601.78125 22.318125 
L 43.78125 22.318125 
z
" style="fill: #ffffff"/>
   </g>
   <g id="matplotlib.axis_1">
    <g id="xtick_1">
     <g id="line2d_1">
      <defs>
       <path id="mce700f7770" d="M 0 0 
L 0 3.5 
" style="stroke: #000000; stroke-width: 0.8"/>
      </defs>
      <g>
       <use xlink:href="#mce700f7770" x="69.144886" y="299.518125" style="stroke: #000000; stroke-width: 0.8"/>
      </g>
     </g>
     <g id="text_1">
      <!-- −3 -->
      <g transform="translate(61.773793 314.116563) scale(0.1 -0.1)">
       <defs>
        <path id="DejaVuSans-2212" d="M 678 2272 
L 4684 2272 
L 4684 1741 
L 678 1741 
L 678 2272 
z
" transform="scale(0.015625)"/>
        <path id="DejaVuSans-33" d="M 2597 2516 
Q 3050 2419 3304 2112 
Q 3559 1806 3559 1356 
Q 3559 666 3084 287 
Q 2609 -91 1734 -91 
Q 1441 -91 1130 -33 
Q 819 25 488 141 
L 488 750 
Q 750 597 1062 519 
Q 1375 441 1716 441 
Q 2309 441 2620 675 
Q 2931 909 2931 1356 
Q 2931 1769 2642 2001 
Q 2353 2234 1838 2234 
L 1294 2234 
L 1294 2753 
L 1863 2753 
Q 2328 2753 2575 2939 
Q 2822 3125 2822 3475 
Q 2822 3834 2567 4026 
Q 2313 4219 1838 4219 
Q 1578 4219 1281 4162 
Q 984 4106 628 3988 
L 628 4550 
Q 988 4650 1302 4700 
Q 1616 4750 1894 4750 
Q 2613 4750 3031 4423 
Q 3450 4097 3450 3541 
Q 3450 3153 3228 2886 
Q 3006 2619 2597 2516 
z
" transform="scale(0.015625)"/>
       </defs>
       <use xlink:href="#DejaVuSans-2212"/>
       <use xlink:href="#DejaVuSans-33" x="83.789062"/>
      </g>
     </g>
    </g>
    <g id="xtick_2">
     <g id="line2d_2">
      <g>
       <use xlink:href="#mce700f7770" x="153.704434" y="299.518125" style="stroke: #000000; stroke-width: 0.8"/>
      </g>
     </g>
     <g id="text_2">
      <!-- −2 -->
      <g transform="translate(146.33334 314.116563) scale(0.1 -0.1)">
       <defs>
        <path id="DejaVuSans-32" d="M 1228 531 
L 3431 531 
L 3431 0 
L 469 0 
L 469 531 
Q 828 903 1448 1529 
Q 2069 2156 2228 2338 
Q 2531 2678 2651 2914 
Q 2772 3150 2772 3378 
Q 2772 3750 2511 3984 
Q 2250 4219 1831 4219 
Q 1534 4219 1204 4116 
Q 875 4013 500 3803 
L 500 4441 
Q 881 4594 1212 4672 
Q 1544 4750 1819 4750 
Q 2544 4750 2975 4387 
Q 3406 4025 3406 3419 
Q 3406 3131 3298 2873 
Q 3191 2616 2906 2266 
Q 2828 2175 2409 1742 
Q 1991 1309 1228 531 
z
" transform="scale(0.015625)"/>
       </defs>
       <use xlink:href="#DejaVuSans-2212"/>
       <use xlink:href="#DejaVuSans-32" x="83.789062"/>
      </g>
     </g>
    </g>
    <g id="xtick_3">
     <g id="line2d_3">
      <g>
       <use xlink:href="#mce700f7770" x="238.263982" y="299.518125" style="stroke: #000000; stroke-width: 0.8"/>
      </g>
     </g>
     <g id="text_3">
      <!-- −1 -->
      <g transform="translate(230.892888 314.116563) scale(0.1 -0.1)">
       <defs>
        <path id="DejaVuSans-31" d="M 794 531 
L 1825 531 
L 1825 4091 
L 703 3866 
L 703 4441 
L 1819 4666 
L 2450 4666 
L 2450 531 
L 3481 531 
L 3481 0 
L 794 0 
L 794 531 
z
" transform="scale(0.015625)"/>
       </defs>
       <use xlink:href="#DejaVuSans-2212"/>
       <use xlink:href="#DejaVuSans-31" x="83.789062"/>
      </g>
     </g>
    </g>
    <g id="xtick_4">
     <g id="line2d_4">
      <g>
       <use xlink:href="#mce700f7770" x="322.82353" y="299.518125" style="stroke: #000000; stroke-width: 0.8"/>
      </g>
     </g>
     <g id="text_4">
      <!-- 0 -->
      <g transform="translate(319.64228 314.116563) scale(0.1 -0.1)">
       <defs>
        <path id="DejaVuSans-30" d="M 2034 4250 
Q 1547 4250 1301 3770 
Q 1056 3291 1056 2328 
Q 1056 1369 1301 889 
Q 1547 409 2034 409 
Q 2525 409 2770 889 
Q 3016 1369 3016 2328 
Q 3016 3291 2770 3770 
Q 2525 4250 2034 4250 
z
M 2034 4750 
Q 2819 4750 3233 4129 
Q 3647 3509 3647 2328 
Q 3647 1150 3233 529 
Q 2819 -91 2034 -91 
Q 1250 -91 836 529 
Q 422 1150 422 2328 
Q 422 3509 836 4129 
Q 1250 4750 2034 4750 
z
" transform="scale(0.015625)"/>
       </defs>
       <use xlink:href="#DejaVuSans-30"/>
      </g>
     </g>
    </g>
    <g id="xtick_5">
     <g id="line2d_5">
      <g>
       <use xlink:href="#mce700f7770" x="407.383078" y="299.518125" style="stroke: #000000; stroke-width: 0.8"/>
      </g>
     </g>
     <g id="text_5">
      <!-- 1 -->
      <g transform="translate(404.201828 314.116563) scale(0.1 -0.1)">
       <use xlink:href="#DejaVuSans-31"/>
      </g>
     </g>
    </g>
    <g id="xtick_6">
     <g id="line2d_6">
      <g>
       <use xlink:href="#mce700f7770" x="491.942625" y="299.518125" style="stroke: #000000; stroke-width: 0.8"/>
      </g>
     </g>
     <g id="text_6">
      <!-- 2 -->
      <g transform="translate(488.761375 314.116563) scale(0.1 -0.1)">
       <use xlink:href="#DejaVuSans-32"/>
      </g>
     </g>
    </g>
    <g id="xtick_7">
     <g id="line2d_7">
      <g>
       <use xlink:href="#mce700f7770" x="576.502173" y="299.518125" style="stroke: #000000; stroke-width: 0.8"/>
      </g>
     </g>
     <g id="text_7">
      <!-- 3 -->
      <g transform="translate(573.320923 314.116563) scale(0.1 -0.1)">
       <use xlink:href="#DejaVuSans-33"/>
      </g>
     </g>
    </g>
    <g id="text_8">
     <!-- X -->
     <g transform="translate(319.35625 327.794688) scale(0.1 -0.1)">
      <defs>
       <path id="DejaVuSans-58" d="M 403 4666 
L 1081 4666 
L 2241 2931 
L 3406 4666 
L 4084 4666 
L 2584 2425 
L 4184 0 
L 3506 0 
L 2194 1984 
L 872 0 
L 191 0 
L 1856 2491 
L 403 4666 
z
" transform="scale(0.015625)"/>
      </defs>
      <use xlink:href="#DejaVuSans-58"/>
     </g>
    </g>
   </g>
   <g id="matplotlib.axis_2">
    <g id="ytick_1">
     <g id="line2d_8">
      <defs>
       <path id="m7f8ed1f18c" d="M 0 0 
L -3.5 0 
" style="stroke: #000000; stroke-width: 0.8"/>
      </defs>
      <g>
       <use xlink:href="#m7f8ed1f18c" x="43.78125" y="287.338826" style="stroke: #000000; stroke-width: 0.8"/>
      </g>
     </g>
     <g id="text_9">
      <!-- 0.0 -->
      <g transform="translate(20.878125 291.138045) scale(0.1 -0.1)">
       <defs>
        <path id="DejaVuSans-2e" d="M 684 794 
L 1344 794 
L 1344 0 
L 684 0 
L 684 794 
z
" transform="scale(0.015625)"/>
       </defs>
       <use xlink:href="#DejaVuSans-30"/>
       <use xlink:href="#DejaVuSans-2e" x="63.623047"/>
       <use xlink:href="#DejaVuSans-30" x="95.410156"/>
      </g>
     </g>
    </g>
    <g id="ytick_2">
     <g id="line2d_9">
      <g>
       <use xlink:href="#m7f8ed1f18c" x="43.78125" y="236.854686" style="stroke: #000000; stroke-width: 0.8"/>
      </g>
     </g>
     <g id="text_10">
      <!-- 0.2 -->
      <g transform="translate(20.878125 240.653905) scale(0.1 -0.1)">
       <use xlink:href="#DejaVuSans-30"/>
       <use xlink:href="#DejaVuSans-2e" x="63.623047"/>
       <use xlink:href="#DejaVuSans-32" x="95.410156"/>
      </g>
     </g>
    </g>
    <g id="ytick_3">
     <g id="line2d_10">
      <g>
       <use xlink:href="#m7f8ed1f18c" x="43.78125" y="186.370546" style="stroke: #000000; stroke-width: 0.8"/>
      </g>
     </g>
     <g id="text_11">
      <!-- 0.4 -->
      <g transform="translate(20.878125 190.169764) scale(0.1 -0.1)">
       <defs>
        <path id="DejaVuSans-34" d="M 2419 4116 
L 825 1625 
L 2419 1625 
L 2419 4116 
z
M 2253 4666 
L 3047 4666 
L 3047 1625 
L 3713 1625 
L 3713 1100 
L 3047 1100 
L 3047 0 
L 2419 0 
L 2419 1100 
L 313 1100 
L 313 1709 
L 2253 4666 
z
" transform="scale(0.015625)"/>
       </defs>
       <use xlink:href="#DejaVuSans-30"/>
       <use xlink:href="#DejaVuSans-2e" x="63.623047"/>
       <use xlink:href="#DejaVuSans-34" x="95.410156"/>
      </g>
     </g>
    </g>
    <g id="ytick_4">
     <g id="line2d_11">
      <g>
       <use xlink:href="#m7f8ed1f18c" x="43.78125" y="135.886405" style="stroke: #000000; stroke-width: 0.8"/>
      </g>
     </g>
     <g id="text_12">
      <!-- 0.6 -->
      <g transform="translate(20.878125 139.685624) scale(0.1 -0.1)">
       <defs>
        <path id="DejaVuSans-36" d="M 2113 2584 
Q 1688 2584 1439 2293 
Q 1191 2003 1191 1497 
Q 1191 994 1439 701 
Q 1688 409 2113 409 
Q 2538 409 2786 701 
Q 3034 994 3034 1497 
Q 3034 2003 2786 2293 
Q 2538 2584 2113 2584 
z
M 3366 4563 
L 3366 3988 
Q 3128 4100 2886 4159 
Q 2644 4219 2406 4219 
Q 1781 4219 1451 3797 
Q 1122 3375 1075 2522 
Q 1259 2794 1537 2939 
Q 1816 3084 2150 3084 
Q 2853 3084 3261 2657 
Q 3669 2231 3669 1497 
Q 3669 778 3244 343 
Q 2819 -91 2113 -91 
Q 1303 -91 875 529 
Q 447 1150 447 2328 
Q 447 3434 972 4092 
Q 1497 4750 2381 4750 
Q 2619 4750 2861 4703 
Q 3103 4656 3366 4563 
z
" transform="scale(0.015625)"/>
       </defs>
       <use xlink:href="#DejaVuSans-30"/>
       <use xlink:href="#DejaVuSans-2e" x="63.623047"/>
       <use xlink:href="#DejaVuSans-36" x="95.410156"/>
      </g>
     </g>
    </g>
    <g id="ytick_5">
     <g id="line2d_12">
      <g>
       <use xlink:href="#m7f8ed1f18c" x="43.78125" y="85.402265" style="stroke: #000000; stroke-width: 0.8"/>
      </g>
     </g>
     <g id="text_13">
      <!-- 0.8 -->
      <g transform="translate(20.878125 89.201484) scale(0.1 -0.1)">
       <defs>
        <path id="DejaVuSans-38" d="M 2034 2216 
Q 1584 2216 1326 1975 
Q 1069 1734 1069 1313 
Q 1069 891 1326 650 
Q 1584 409 2034 409 
Q 2484 409 2743 651 
Q 3003 894 3003 1313 
Q 3003 1734 2745 1975 
Q 2488 2216 2034 2216 
z
M 1403 2484 
Q 997 2584 770 2862 
Q 544 3141 544 3541 
Q 544 4100 942 4425 
Q 1341 4750 2034 4750 
Q 2731 4750 3128 4425 
Q 3525 4100 3525 3541 
Q 3525 3141 3298 2862 
Q 3072 2584 2669 2484 
Q 3125 2378 3379 2068 
Q 3634 1759 3634 1313 
Q 3634 634 3220 271 
Q 2806 -91 2034 -91 
Q 1263 -91 848 271 
Q 434 634 434 1313 
Q 434 1759 690 2068 
Q 947 2378 1403 2484 
z
M 1172 3481 
Q 1172 3119 1398 2916 
Q 1625 2713 2034 2713 
Q 2441 2713 2670 2916 
Q 2900 3119 2900 3481 
Q 2900 3844 2670 4047 
Q 2441 4250 2034 4250 
Q 1625 4250 1398 4047 
Q 1172 3844 1172 3481 
z
" transform="scale(0.015625)"/>
       </defs>
       <use xlink:href="#DejaVuSans-30"/>
       <use xlink:href="#DejaVuSans-2e" x="63.623047"/>
       <use xlink:href="#DejaVuSans-38" x="95.410156"/>
      </g>
     </g>
    </g>
    <g id="ytick_6">
     <g id="line2d_13">
      <g>
       <use xlink:href="#m7f8ed1f18c" x="43.78125" y="34.918125" style="stroke: #000000; stroke-width: 0.8"/>
      </g>
     </g>
     <g id="text_14">
      <!-- 1.0 -->
      <g transform="translate(20.878125 38.717344) scale(0.1 -0.1)">
       <use xlink:href="#DejaVuSans-31"/>
       <use xlink:href="#DejaVuSans-2e" x="63.623047"/>
       <use xlink:href="#DejaVuSans-30" x="95.410156"/>
      </g>
     </g>
    </g>
    <g id="text_15">
     <!-- Cumulative probability -->
     <g transform="translate(14.798438 217.720469) rotate(-90) scale(0.1 -0.1)">
      <defs>
       <path id="DejaVuSans-43" d="M 4122 4306 
L 4122 3641 
Q 3803 3938 3442 4084 
Q 3081 4231 2675 4231 
Q 1875 4231 1450 3742 
Q 1025 3253 1025 2328 
Q 1025 1406 1450 917 
Q 1875 428 2675 428 
Q 3081 428 3442 575 
Q 3803 722 4122 1019 
L 4122 359 
Q 3791 134 3420 21 
Q 3050 -91 2638 -91 
Q 1578 -91 968 557 
Q 359 1206 359 2328 
Q 359 3453 968 4101 
Q 1578 4750 2638 4750 
Q 3056 4750 3426 4639 
Q 3797 4528 4122 4306 
z
" transform="scale(0.015625)"/>
       <path id="DejaVuSans-75" d="M 544 1381 
L 544 3500 
L 1119 3500 
L 1119 1403 
Q 1119 906 1312 657 
Q 1506 409 1894 409 
Q 2359 409 2629 706 
Q 2900 1003 2900 1516 
L 2900 3500 
L 3475 3500 
L 3475 0 
L 2900 0 
L 2900 538 
Q 2691 219 2414 64 
Q 2138 -91 1772 -91 
Q 1169 -91 856 284 
Q 544 659 544 1381 
z
M 1991 3584 
L 1991 3584 
z
" transform="scale(0.015625)"/>
       <path id="DejaVuSans-6d" d="M 3328 2828 
Q 3544 3216 3844 3400 
Q 4144 3584 4550 3584 
Q 5097 3584 5394 3201 
Q 5691 2819 5691 2113 
L 5691 0 
L 5113 0 
L 5113 2094 
Q 5113 2597 4934 2840 
Q 4756 3084 4391 3084 
Q 3944 3084 3684 2787 
Q 3425 2491 3425 1978 
L 3425 0 
L 2847 0 
L 2847 2094 
Q 2847 2600 2669 2842 
Q 2491 3084 2119 3084 
Q 1678 3084 1418 2786 
Q 1159 2488 1159 1978 
L 1159 0 
L 581 0 
L 581 3500 
L 1159 3500 
L 1159 2956 
Q 1356 3278 1631 3431 
Q 1906 3584 2284 3584 
Q 2666 3584 2933 3390 
Q 3200 3197 3328 2828 
z
" transform="scale(0.015625)"/>
       <path id="DejaVuSans-6c" d="M 603 4863 
L 1178 4863 
L 1178 0 
L 603 0 
L 603 4863 
z
" transform="scale(0.015625)"/>
       <path id="DejaVuSans-61" d="M 2194 1759 
Q 1497 1759 1228 1600 
Q 959 1441 959 1056 
Q 959 750 1161 570 
Q 1363 391 1709 391 
Q 2188 391 2477 730 
Q 2766 1069 2766 1631 
L 2766 1759 
L 2194 1759 
z
M 3341 1997 
L 3341 0 
L 2766 0 
L 2766 531 
Q 2569 213 2275 61 
Q 1981 -91 1556 -91 
Q 1019 -91 701 211 
Q 384 513 384 1019 
Q 384 1609 779 1909 
Q 1175 2209 1959 2209 
L 2766 2209 
L 2766 2266 
Q 2766 2663 2505 2880 
Q 2244 3097 1772 3097 
Q 1472 3097 1187 3025 
Q 903 2953 641 2809 
L 641 3341 
Q 956 3463 1253 3523 
Q 1550 3584 1831 3584 
Q 2591 3584 2966 3190 
Q 3341 2797 3341 1997 
z
" transform="scale(0.015625)"/>
       <path id="DejaVuSans-74" d="M 1172 4494 
L 1172 3500 
L 2356 3500 
L 2356 3053 
L 1172 3053 
L 1172 1153 
Q 1172 725 1289 603 
Q 1406 481 1766 481 
L 2356 481 
L 2356 0 
L 1766 0 
Q 1100 0 847 248 
Q 594 497 594 1153 
L 594 3053 
L 172 3053 
L 172 3500 
L 594 3500 
L 594 4494 
L 1172 4494 
z
" transform="scale(0.015625)"/>
       <path id="DejaVuSans-69" d="M 603 3500 
L 1178 3500 
L 1178 0 
L 603 0 
L 603 3500 
z
M 603 4863 
L 1178 4863 
L 1178 4134 
L 603 4134 
L 603 4863 
z
" transform="scale(0.015625)"/>
       <path id="DejaVuSans-76" d="M 191 3500 
L 800 3500 
L 1894 563 
L 2988 3500 
L 3597 3500 
L 2284 0 
L 1503 0 
L 191 3500 
z
" transform="scale(0.015625)"/>
       <path id="DejaVuSans-65" d="M 3597 1894 
L 3597 1613 
L 953 1613 
Q 991 1019 1311 708 
Q 1631 397 2203 397 
Q 2534 397 2845 478 
Q 3156 559 3463 722 
L 3463 178 
Q 3153 47 2828 -22 
Q 2503 -91 2169 -91 
Q 1331 -91 842 396 
Q 353 884 353 1716 
Q 353 2575 817 3079 
Q 1281 3584 2069 3584 
Q 2775 3584 3186 3129 
Q 3597 2675 3597 1894 
z
M 3022 2063 
Q 3016 2534 2758 2815 
Q 2500 3097 2075 3097 
Q 1594 3097 1305 2825 
Q 1016 2553 972 2059 
L 3022 2063 
z
" transform="scale(0.015625)"/>
       <path id="DejaVuSans-20" transform="scale(0.015625)"/>
       <path id="DejaVuSans-70" d="M 1159 525 
L 1159 -1331 
L 581 -1331 
L 581 3500 
L 1159 3500 
L 1159 2969 
Q 1341 3281 1617 3432 
Q 1894 3584 2278 3584 
Q 2916 3584 3314 3078 
Q 3713 2572 3713 1747 
Q 3713 922 3314 415 
Q 2916 -91 2278 -91 
Q 1894 -91 1617 61 
Q 1341 213 1159 525 
z
M 3116 1747 
Q 3116 2381 2855 2742 
Q 2594 3103 2138 3103 
Q 1681 3103 1420 2742 
Q 1159 2381 1159 1747 
Q 1159 1113 1420 752 
Q 1681 391 2138 391 
Q 2594 391 2855 752 
Q 3116 1113 3116 1747 
z
" transform="scale(0.015625)"/>
       <path id="DejaVuSans-72" d="M 2631 2963 
Q 2534 3019 2420 3045 
Q 2306 3072 2169 3072 
Q 1681 3072 1420 2755 
Q 1159 2438 1159 1844 
L 1159 0 
L 581 0 
L 581 3500 
L 1159 3500 
L 1159 2956 
Q 1341 3275 1631 3429 
Q 1922 3584 2338 3584 
Q 2397 3584 2469 3576 
Q 2541 3569 2628 3553 
L 2631 2963 
z
" transform="scale(0.015625)"/>
       <path id="DejaVuSans-6f" d="M 1959 3097 
Q 1497 3097 1228 2736 
Q 959 2375 959 1747 
Q 959 1119 1226 758 
Q 1494 397 1959 397 
Q 2419 397 2687 759 
Q 2956 1122 2956 1747 
Q 2956 2369 2687 2733 
Q 2419 3097 1959 3097 
z
M 1959 3584 
Q 2709 3584 3137 3096 
Q 3566 2609 3566 1747 
Q 3566 888 3137 398 
Q 2709 -91 1959 -91 
Q 1206 -91 779 398 
Q 353 888 353 1747 
Q 353 2609 779 3096 
Q 1206 3584 1959 3584 
z
" transform="scale(0.015625)"/>
       <path id="DejaVuSans-62" d="M 3116 1747 
Q 3116 2381 2855 2742 
Q 2594 3103 2138 3103 
Q 1681 3103 1420 2742 
Q 1159 2381 1159 1747 
Q 1159 1113 1420 752 
Q 1681 391 2138 391 
Q 2594 391 2855 752 
Q 3116 1113 3116 1747 
z
M 1159 2969 
Q 1341 3281 1617 3432 
Q 1894 3584 2278 3584 
Q 2916 3584 3314 3078 
Q 3713 2572 3713 1747 
Q 3713 922 3314 415 
Q 2916 -91 2278 -91 
Q 1894 -91 1617 61 
Q 1341 213 1159 525 
L 1159 0 
L 581 0 
L 581 4863 
L 1159 4863 
L 1159 2969 
z
" transform="scale(0.015625)"/>
       <path id="DejaVuSans-79" d="M 2059 -325 
Q 1816 -950 1584 -1140 
Q 1353 -1331 966 -1331 
L 506 -1331 
L 506 -850 
L 844 -850 
Q 1081 -850 1212 -737 
Q 1344 -625 1503 -206 
L 1606 56 
L 191 3500 
L 800 3500 
L 1894 763 
L 2988 3500 
L 3597 3500 
L 2059 -325 
z
" transform="scale(0.015625)"/>
      </defs>
      <use xlink:href="#DejaVuSans-43"/>
      <use xlink:href="#DejaVuSans-75" x="69.824219"/>
      <use xlink:href="#DejaVuSans-6d" x="133.203125"/>
      <use xlink:href="#DejaVuSans-75" x="230.615234"/>
      <use xlink:href="#DejaVuSans-6c" x="293.994141"/>
      <use xlink:href="#DejaVuSans-61" x="321.777344"/>
      <use xlink:href="#DejaVuSans-74" x="383.056641"/>
      <use xlink:href="#DejaVuSans-69" x="422.265625"/>
      <use xlink:href="#DejaVuSans-76" x="450.048828"/>
      <use xlink:href="#DejaVuSans-65" x="509.228516"/>
      <use xlink:href="#DejaVuSans-20" x="570.751953"/>
      <use xlink:href="#DejaVuSans-70" x="602.539062"/>
      <use xlink:href="#DejaVuSans-72" x="666.015625"/>
      <use xlink:href="#DejaVuSans-6f" x="704.878906"/>
      <use xlink:href="#DejaVuSans-62" x="766.060547"/>
      <use xlink:href="#DejaVuSans-61" x="829.537109"/>
      <use xlink:href="#DejaVuSans-62" x="890.816406"/>
      <use xlink:href="#DejaVuSans-69" x="954.292969"/>
      <use xlink:href="#DejaVuSans-6c" x="982.076172"/>
      <use xlink:href="#DejaVuSans-69" x="1009.859375"/>
      <use xlink:href="#DejaVuSans-74" x="1037.642578"/>
      <use xlink:href="#DejaVuSans-79" x="1076.851562"/>
     </g>
    </g>
   </g>
   <g id="line2d_14">
    <path d="M 69.144886 286.918125 
L 83.858248 286.918125 
L 84.027367 286.497424 
L 96.119382 286.497424 
L 96.288501 286.076723 
L 100.685598 286.076723 
L 100.854717 285.656021 
L 107.957719 285.656021 
L 108.126838 285.23532 
L 116.159995 285.23532 
L 116.329114 284.814619 
L 122.840199 284.814619 
L 123.009318 284.393918 
L 125.376986 284.393918 
L 125.546105 283.973217 
L 127.068177 283.973217 
L 127.237296 283.552516 
L 137.807239 283.552516 
L 137.976358 283.131814 
L 140.513145 283.131814 
L 140.682264 282.711113 
L 148.377183 282.711113 
L 148.546302 282.290412 
L 149.983814 282.290412 
L 150.152933 281.869711 
L 154.888268 281.869711 
L 155.057387 281.44901 
L 162.414068 281.44901 
L 162.583187 281.028309 
L 164.528056 281.028309 
L 164.781735 280.186906 
L 165.119973 280.186906 
L 165.289092 279.766205 
L 168.333236 279.766205 
L 168.502355 279.345504 
L 169.094272 279.345504 
L 169.263391 278.924803 
L 169.939867 278.924803 
L 170.108986 278.504102 
L 171.631058 278.504102 
L 171.800177 278.0834 
L 180.763489 278.0834 
L 181.017168 277.241998 
L 187.020896 277.241998 
L 187.274575 276.400596 
L 189.895921 276.400596 
L 190.234159 275.138492 
L 191.756231 275.138492 
L 191.92535 274.717791 
L 192.179028 274.717791 
L 192.348148 274.29709 
L 193.193743 274.29709 
L 193.362862 273.876389 
L 193.7011 273.876389 
L 193.870219 273.455688 
L 196.576125 273.455688 
L 196.745244 273.034986 
L 197.42172 273.034986 
L 197.590839 272.614285 
L 198.013637 272.614285 
L 198.182756 272.193584 
L 200.804102 272.193584 
L 200.973221 271.772883 
L 201.565138 271.772883 
L 201.734257 271.352182 
L 201.818817 271.352182 
L 201.987936 270.931481 
L 202.072496 270.931481 
L 202.326174 270.090078 
L 203.08721 270.090078 
L 203.256329 269.669377 
L 203.340889 269.669377 
L 203.510008 269.248676 
L 204.355603 269.248676 
L 204.524722 268.827975 
L 204.693841 268.827975 
L 204.862961 268.407274 
L 206.89239 268.407274 
L 207.061509 267.986572 
L 207.315187 267.986572 
L 207.568866 267.14517 
L 208.66814 267.14517 
L 208.837259 266.724469 
L 209.851974 266.724469 
L 210.021093 266.303768 
L 210.61301 266.303768 
L 210.782129 265.883067 
L 213.065237 265.883067 
L 213.318915 265.041664 
L 216.024821 265.041664 
L 216.19394 264.620963 
L 216.785857 264.620963 
L 217.039535 263.779561 
L 217.546893 263.779561 
L 217.716012 263.35886 
L 217.800571 263.35886 
L 218.05425 262.517457 
L 218.392488 262.517457 
L 218.561607 262.096756 
L 220.252798 262.096756 
L 220.421917 261.676055 
L 221.690311 261.676055 
L 221.85943 261.255354 
L 222.789585 261.255354 
L 222.958704 260.834653 
L 223.888859 260.834653 
L 224.057978 260.413951 
L 224.565335 260.413951 
L 224.819014 259.572549 
L 225.326371 259.572549 
L 225.49549 259.151848 
L 226.594764 259.151848 
L 226.933003 257.889744 
L 227.271241 257.889744 
L 227.44036 257.469043 
L 228.285955 257.469043 
L 228.455074 256.627641 
L 229.046991 256.627641 
L 229.21611 256.20694 
L 229.469789 256.20694 
L 229.638908 255.786239 
L 231.330099 255.786239 
L 231.499218 255.365537 
L 231.668337 255.365537 
L 231.837456 254.944836 
L 232.091135 254.944836 
L 232.260254 254.103434 
L 232.598492 254.103434 
L 232.767611 253.682733 
L 233.866885 253.682733 
L 234.036005 253.262032 
L 234.205124 253.262032 
L 234.374243 252.84133 
L 234.627921 252.84133 
L 234.797041 251.579227 
L 235.050719 251.579227 
L 235.219838 251.158526 
L 235.304398 251.158526 
L 235.473517 250.737824 
L 235.811755 250.737824 
L 235.980874 250.317123 
L 236.572791 250.317123 
L 236.74191 249.896422 
L 236.995589 249.896422 
L 237.164708 249.475721 
L 237.756625 249.475721 
L 237.925744 249.05502 
L 238.940458 249.05502 
L 239.109577 248.634319 
L 239.194137 248.634319 
L 239.363256 248.213617 
L 240.377971 248.213617 
L 240.54709 247.792916 
L 241.730923 247.792916 
L 241.984602 246.951514 
L 242.153721 246.951514 
L 242.32284 246.530813 
L 242.491959 246.530813 
L 242.661078 245.68941 
L 242.999317 245.68941 
L 243.168436 245.268709 
L 243.844912 245.268709 
L 244.014031 244.848008 
L 245.113305 244.848008 
L 245.366984 244.006606 
L 247.734651 244.006606 
L 247.98833 243.165203 
L 248.157449 243.165203 
L 248.326568 242.744502 
L 248.833925 242.744502 
L 249.003045 242.323801 
L 249.510402 242.323801 
L 249.679521 241.9031 
L 249.76408 241.9031 
L 250.102319 240.640996 
L 250.186878 240.640996 
L 250.355997 240.220295 
L 250.694235 240.220295 
L 250.863355 239.799594 
L 251.117033 239.799594 
L 251.286152 239.378893 
L 251.455271 239.378893 
L 251.624391 238.958192 
L 251.79351 238.958192 
L 251.962629 238.537491 
L 252.639105 238.537491 
L 252.808224 238.116789 
L 253.061903 238.116789 
L 253.231022 237.696088 
L 253.907498 237.696088 
L 254.161177 236.854686 
L 255.51413 236.854686 
L 255.767808 236.013284 
L 255.852368 236.013284 
L 256.021487 235.592582 
L 256.444285 235.592582 
L 256.613404 235.171881 
L 257.28988 235.171881 
L 257.458999 234.75118 
L 257.543559 234.75118 
L 257.712678 234.330479 
L 258.304595 234.330479 
L 258.558273 233.489077 
L 258.727393 233.489077 
L 258.896512 233.068375 
L 258.981071 233.068375 
L 259.15019 232.226973 
L 259.403869 231.385571 
L 259.657548 231.385571 
L 259.826667 230.544168 
L 260.334024 230.544168 
L 260.503143 230.123467 
L 261.517858 230.123467 
L 261.686977 229.702766 
L 261.856096 229.702766 
L 262.109774 228.861364 
L 262.194334 228.861364 
L 262.363453 228.440663 
L 262.87081 228.440663 
L 263.039929 228.019961 
L 264.392882 228.019961 
L 264.562001 227.178559 
L 265.745835 227.178559 
L 265.999514 226.337157 
L 266.084073 226.337157 
L 266.337752 225.495754 
L 266.422311 225.495754 
L 266.67599 224.654352 
L 267.267907 224.654352 
L 267.437026 224.233651 
L 267.606145 224.233651 
L 267.859824 223.392249 
L 268.113502 223.392249 
L 268.282621 222.971547 
L 268.367181 222.971547 
L 268.62086 222.130145 
L 268.705419 222.130145 
L 268.874538 221.709444 
L 269.043657 221.709444 
L 269.381896 220.44734 
L 270.903967 220.44734 
L 271.073087 220.026639 
L 271.242206 220.026639 
L 271.411325 219.605938 
L 271.495884 219.605938 
L 271.749563 218.764536 
L 271.834122 218.764536 
L 272.003242 217.502432 
L 272.426039 217.502432 
L 272.679718 216.66103 
L 273.017956 216.66103 
L 273.271635 215.819628 
L 273.356194 215.819628 
L 273.525313 215.398926 
L 273.609873 215.398926 
L 273.778992 214.978225 
L 274.11723 214.978225 
L 274.370909 214.136823 
L 274.793707 214.136823 
L 274.962826 213.716122 
L 275.301064 213.716122 
L 275.470183 213.29542 
L 275.554743 213.29542 
L 275.808421 212.454018 
L 276.231219 212.454018 
L 276.400338 212.033317 
L 276.484898 212.033317 
L 276.823136 210.771213 
L 277.83785 210.771213 
L 278.176089 209.50911 
L 278.514327 209.50911 
L 278.683446 209.088409 
L 278.852565 209.088409 
L 279.021684 208.667708 
L 279.78272 208.667708 
L 279.951839 207.826305 
L 280.036399 207.826305 
L 280.374637 206.564202 
L 280.628315 206.564202 
L 280.797435 206.143501 
L 281.304792 206.143501 
L 281.473911 205.722799 
L 281.72759 205.722799 
L 281.896709 205.302098 
L 282.150387 205.302098 
L 282.319506 204.881397 
L 282.404066 204.881397 
L 282.573185 204.039995 
L 283.672459 204.039995 
L 283.841578 203.619294 
L 284.095257 203.619294 
L 284.264376 203.198592 
L 284.348936 203.198592 
L 284.518055 202.777891 
L 284.602614 202.777891 
L 284.771733 202.35719 
L 284.856293 202.35719 
L 285.025412 201.936489 
L 285.194531 201.936489 
L 285.532769 200.674385 
L 285.617329 200.674385 
L 285.786448 200.253684 
L 286.124686 200.253684 
L 286.293805 199.832983 
L 286.462924 199.832983 
L 286.632043 199.412282 
L 286.716603 199.412282 
L 286.885722 198.991581 
L 287.562198 198.991581 
L 287.815877 198.150178 
L 288.407794 198.150178 
L 288.576913 197.729477 
L 288.999711 197.729477 
L 289.253389 196.046673 
L 289.929866 196.046673 
L 290.098985 195.625971 
L 290.183544 195.625971 
L 290.437223 194.784569 
L 290.775461 194.784569 
L 290.94458 194.363868 
L 291.113699 194.363868 
L 291.367378 193.522466 
L 291.536497 193.522466 
L 291.790176 192.681063 
L 292.128414 192.681063 
L 292.466652 191.41896 
L 292.551212 191.41896 
L 292.88945 190.156856 
L 293.396807 190.156856 
L 293.735045 188.894753 
L 294.242403 188.894753 
L 294.411522 188.474052 
L 294.834319 188.474052 
L 295.003439 188.05335 
L 295.087998 188.05335 
L 295.341677 187.211948 
L 295.426236 187.211948 
L 295.679915 186.370546 
L 296.102713 186.370546 
L 296.271832 185.949845 
L 296.356391 185.949845 
L 296.52551 185.529143 
L 296.948308 185.529143 
L 297.201987 184.687741 
L 297.624785 184.687741 
L 297.793904 184.26704 
L 298.132142 184.26704 
L 298.301261 183.846339 
L 299.146856 183.846339 
L 299.400535 183.004936 
L 299.569654 183.004936 
L 299.738773 182.584235 
L 299.823333 182.584235 
L 299.992452 182.163534 
L 300.161571 182.163534 
L 300.41525 181.322132 
L 301.091726 181.322132 
L 301.429964 180.060028 
L 301.683643 180.060028 
L 302.021881 178.797925 
L 302.867476 178.797925 
L 303.036596 178.377223 
L 303.121155 178.377223 
L 303.713072 175.853016 
L 304.05131 175.853016 
L 304.304989 175.011614 
L 304.558667 175.011614 
L 304.896906 173.749511 
L 305.319703 173.749511 
L 305.488822 173.328809 
L 306.165299 173.328809 
L 306.418978 172.487407 
L 307.180013 172.487407 
L 307.518252 171.225304 
L 308.110168 171.225304 
L 308.363847 170.383901 
L 308.702085 170.383901 
L 308.871204 169.9632 
L 309.040323 169.9632 
L 309.209443 169.542499 
L 309.294002 169.542499 
L 309.463121 169.121798 
L 310.393276 169.121798 
L 310.731514 167.859694 
L 311.069753 167.859694 
L 311.238872 167.438993 
L 311.323431 167.438993 
L 311.49255 167.018292 
L 311.915348 167.018292 
L 312.338146 165.335487 
L 313.014622 165.335487 
L 313.183741 164.914786 
L 313.268301 164.914786 
L 313.43742 164.494085 
L 315.551409 164.494085 
L 315.720528 164.073384 
L 315.889647 164.073384 
L 316.058766 163.231981 
L 316.566123 163.231981 
L 316.735242 162.390579 
L 319.525707 162.390579 
L 319.694827 161.969878 
L 320.624982 161.969878 
L 320.794101 161.549177 
L 321.132339 161.549177 
L 321.301458 161.128476 
L 321.555137 161.128476 
L 321.808815 160.287073 
L 322.231613 160.287073 
L 322.400732 159.866372 
L 324.852959 159.866372 
L 325.022078 159.445671 
L 325.444876 159.445671 
L 325.867673 157.762866 
L 326.205912 157.762866 
L 326.375031 156.921464 
L 326.628709 156.080062 
L 326.882388 156.080062 
L 327.136067 155.238659 
L 327.389745 155.238659 
L 327.727984 153.976556 
L 328.066222 153.976556 
L 328.235341 153.555855 
L 328.827258 153.555855 
L 328.996377 153.135153 
L 329.080936 153.135153 
L 329.334615 152.293751 
L 329.503734 152.293751 
L 329.672853 151.87305 
L 330.603008 151.87305 
L 330.856687 151.031648 
L 331.025806 151.031648 
L 331.194925 150.610946 
L 331.702282 150.610946 
L 332.12508 148.928142 
L 333.562592 148.928142 
L 333.731711 148.086739 
L 333.900831 148.086739 
L 334.154509 147.245337 
L 334.408188 147.245337 
L 334.577307 146.403935 
L 334.661866 146.403935 
L 334.830986 145.983234 
L 334.915545 145.983234 
L 335.169224 145.141831 
L 335.93026 145.141831 
L 336.099379 144.72113 
L 336.437617 144.72113 
L 336.775855 143.459027 
L 336.944974 143.459027 
L 337.283212 142.196923 
L 338.297927 142.196923 
L 338.551606 141.355521 
L 338.636165 141.355521 
L 338.889844 140.514118 
L 339.904558 140.514118 
L 340.073678 140.093417 
L 340.242797 140.093417 
L 340.496475 139.252015 
L 340.581035 139.252015 
L 340.919273 137.989911 
L 341.003833 137.989911 
L 341.257511 137.148509 
L 341.342071 137.148509 
L 341.51119 136.727808 
L 342.187666 136.727808 
L 342.441345 135.886405 
L 342.948702 135.886405 
L 343.202381 135.045003 
L 343.28694 135.045003 
L 343.709738 133.362198 
L 343.794298 133.362198 
L 343.963417 132.520796 
L 344.978131 132.520796 
L 345.14725 132.100095 
L 345.570048 132.100095 
L 345.739167 131.679394 
L 346.077405 131.679394 
L 346.331084 130.837991 
L 347.599477 130.837991 
L 347.937715 129.575888 
L 348.614192 129.575888 
L 348.783311 129.155187 
L 349.121549 129.155187 
L 349.290668 128.313784 
L 349.375228 128.313784 
L 349.544347 127.893083 
L 349.967145 127.893083 
L 350.136264 127.472382 
L 350.220823 127.472382 
L 350.389942 127.051681 
L 350.643621 127.051681 
L 350.81274 126.63098 
L 351.658336 126.63098 
L 351.827455 126.210279 
L 352.334812 126.210279 
L 352.503931 125.789577 
L 352.842169 125.789577 
L 353.264967 124.106773 
L 353.434086 124.106773 
L 353.687765 123.26537 
L 353.772324 123.26537 
L 354.448801 120.320462 
L 354.787039 120.320462 
L 355.294396 118.216956 
L 355.970873 118.216956 
L 356.139992 117.796255 
L 356.47823 117.796255 
L 356.647349 117.375554 
L 357.239266 117.375554 
L 357.408385 116.534152 
L 357.492944 116.534152 
L 357.662063 116.113451 
L 357.746623 116.113451 
L 357.915742 115.692749 
L 358.000302 115.692749 
L 358.25398 114.851347 
L 359.015016 114.851347 
L 359.184135 114.009945 
L 359.945171 114.009945 
L 360.19885 113.168542 
L 360.367969 113.168542 
L 360.537088 112.747841 
L 361.9746 112.747841 
L 362.14372 112.32714 
L 362.566517 112.32714 
L 362.735636 111.906439 
L 363.158434 111.906439 
L 363.327553 111.485738 
L 363.496672 111.485738 
L 363.750351 109.802933 
L 363.83491 109.802933 
L 364.00403 109.382232 
L 364.342268 109.382232 
L 364.765065 107.699427 
L 365.610661 107.699427 
L 365.77978 106.858025 
L 366.879054 106.858025 
L 367.048173 106.437324 
L 367.386411 106.437324 
L 367.64009 105.595921 
L 368.739364 105.595921 
L 368.993043 104.754519 
L 369.246722 104.754519 
L 369.58496 103.492415 
L 369.923198 103.492415 
L 370.176877 102.651013 
L 370.853353 102.651013 
L 371.107032 100.968208 
L 371.276151 100.968208 
L 371.529829 100.126806 
L 372.206306 100.126806 
L 372.459984 99.285404 
L 372.713663 99.285404 
L 372.882782 98.864703 
L 373.30558 98.864703 
L 373.474699 98.444001 
L 374.743092 98.444001 
L 374.912211 98.0233 
L 375.757807 98.0233 
L 375.926926 97.602599 
L 376.265164 97.602599 
L 376.518843 96.761197 
L 377.787236 96.761197 
L 377.956355 95.499093 
L 378.463712 95.499093 
L 378.632831 95.078392 
L 380.324022 95.078392 
L 380.577701 94.23699 
L 380.83138 94.23699 
L 381.085058 93.395587 
L 381.592415 93.395587 
L 381.761535 92.974886 
L 382.015213 92.974886 
L 382.184332 92.554185 
L 382.776249 92.554185 
L 383.114487 91.292082 
L 383.368166 91.292082 
L 383.537285 90.87138 
L 384.129202 90.87138 
L 384.382881 90.029978 
L 384.636559 90.029978 
L 384.805678 89.609277 
L 384.974797 89.609277 
L 385.228476 88.767875 
L 385.313036 88.767875 
L 385.482155 88.347173 
L 385.735833 88.347173 
L 386.158631 86.664369 
L 387.088786 86.664369 
L 387.257905 86.243668 
L 388.018941 86.243668 
L 388.18806 85.822966 
L 388.27262 85.822966 
L 388.441739 85.402265 
L 389.710132 85.402265 
L 389.963811 84.560863 
L 390.04837 84.560863 
L 390.217489 84.140162 
L 390.978525 84.140162 
L 391.147644 83.298759 
L 391.485883 83.298759 
L 391.655002 82.878058 
L 391.824121 82.878058 
L 391.99324 82.457357 
L 392.416038 82.457357 
L 392.585157 82.036656 
L 392.754276 82.036656 
L 392.923395 81.615955 
L 393.76899 81.615955 
L 393.938109 81.195254 
L 395.375622 81.195254 
L 395.544741 80.774552 
L 395.882979 80.774552 
L 396.221217 79.512449 
L 396.813134 79.512449 
L 396.982253 79.091748 
L 397.405051 79.091748 
L 397.57417 78.671047 
L 397.65873 78.671047 
L 397.827849 78.250345 
L 398.166087 78.250345 
L 398.335206 77.829644 
L 398.419766 77.829644 
L 398.588885 76.988242 
L 399.941837 76.988242 
L 400.110956 76.567541 
L 400.618314 76.567541 
L 400.787433 76.14684 
L 400.956552 76.14684 
L 401.125671 75.726138 
L 401.548469 75.726138 
L 401.886707 74.464035 
L 401.971267 74.464035 
L 402.140386 74.043334 
L 402.309505 74.043334 
L 402.478624 73.622633 
L 402.647743 73.622633 
L 402.816862 73.201931 
L 403.577898 73.201931 
L 404.000696 71.519127 
L 404.761732 71.519127 
L 404.930851 71.098426 
L 405.353648 71.098426 
L 405.691887 69.836322 
L 406.283803 69.836322 
L 406.452923 69.415621 
L 407.298518 69.415621 
L 407.467637 68.99492 
L 407.721316 68.99492 
L 407.974994 68.153517 
L 408.313233 68.153517 
L 408.482352 67.732816 
L 408.989709 67.732816 
L 409.158828 67.312115 
L 409.412507 67.312115 
L 409.581626 66.891414 
L 410.258102 66.891414 
L 410.427221 66.470713 
L 412.54121 66.470713 
L 412.710329 66.050011 
L 413.048567 66.050011 
L 413.217686 65.62931 
L 414.147841 65.62931 
L 414.570639 63.946506 
L 415.416235 63.946506 
L 415.754473 62.684402 
L 416.008151 62.684402 
L 416.177271 62.263701 
L 417.191985 62.263701 
L 417.361104 61.843 
L 417.868462 61.843 
L 418.037581 61.422299 
L 422.096439 61.422299 
L 422.265558 61.001597 
L 424.041308 61.001597 
L 424.210428 60.160195 
L 425.817059 60.160195 
L 426.070738 59.318793 
L 426.408976 59.318793 
L 426.578095 58.898092 
L 426.747214 58.898092 
L 427.000893 58.056689 
L 429.45312 58.056689 
L 429.622239 57.635988 
L 430.045036 57.635988 
L 430.214155 57.215287 
L 430.383275 57.215287 
L 430.552394 56.794586 
L 431.059751 56.794586 
L 431.22887 56.373885 
L 432.666382 56.373885 
L 432.835501 55.953183 
L 432.920061 55.953183 
L 433.08918 55.532482 
L 434.019335 55.532482 
L 434.273014 54.69108 
L 434.780371 54.69108 
L 434.94949 54.270379 
L 435.625967 54.270379 
L 435.795086 53.849678 
L 436.217883 53.849678 
L 436.387002 53.428976 
L 438.585551 53.428976 
L 438.75467 53.008275 
L 441.798814 53.008275 
L 441.967933 52.587574 
L 442.052492 52.587574 
L 442.221611 52.166873 
L 442.39073 52.166873 
L 442.644409 51.325471 
L 443.574564 51.325471 
L 443.743683 50.904769 
L 446.11135 50.904769 
L 446.28047 50.484068 
L 446.956946 50.484068 
L 447.126065 50.063367 
L 447.887101 50.063367 
L 448.14078 49.221965 
L 450.00109 49.221965 
L 450.170209 48.801264 
L 453.045233 48.801264 
L 453.214352 48.380562 
L 453.468031 48.380562 
L 453.63715 47.959861 
L 453.975388 47.959861 
L 454.144508 47.53916 
L 454.736424 47.53916 
L 454.905543 47.118459 
L 455.835698 47.118459 
L 456.004818 46.697758 
L 457.696009 46.697758 
L 457.865128 46.277057 
L 463.530617 46.277057 
L 463.699736 45.856355 
L 464.799011 45.856355 
L 464.96813 45.435654 
L 465.137249 45.435654 
L 465.306368 45.014953 
L 469.111547 45.014953 
L 469.280667 44.594252 
L 471.056417 44.594252 
L 471.225536 44.173551 
L 471.902013 44.173551 
L 472.071132 43.75285 
L 476.552788 43.75285 
L 476.721907 43.332148 
L 477.90574 43.332148 
L 478.07486 42.911447 
L 478.582217 42.911447 
L 478.751336 42.490746 
L 481.372682 42.490746 
L 481.626361 41.649344 
L 482.556516 41.649344 
L 482.894754 40.38724 
L 483.909468 40.38724 
L 484.078587 39.966539 
L 487.207291 39.966539 
L 487.37641 39.545838 
L 491.181589 39.545838 
L 491.350709 39.125137 
L 491.942625 39.125137 
L 492.111744 38.704436 
L 492.280864 38.704436 
L 492.449983 38.283734 
L 497.608115 38.283734 
L 497.777234 37.863033 
L 497.861794 37.863033 
L 498.030913 37.442332 
L 499.214746 37.442332 
L 499.383866 37.021631 
L 504.034641 37.021631 
L 504.20376 36.60093 
L 513.167072 36.60093 
L 513.336191 36.180229 
L 515.534739 36.180229 
L 515.703858 35.759527 
L 547.667367 35.759527 
L 547.836486 35.338826 
L 561.957931 35.338826 
L 562.12705 34.918125 
L 576.417614 34.918125 
L 576.417614 34.918125 
" clip-path="url(#p95d0aef51a)" style="fill: none; stroke: #e64173; stroke-linecap: square"/>
   </g>
   <g id="line2d_15">
    <path d="M 69.144886 286.918125 
L 83.858248 286.918125 
L 84.027367 286.497424 
L 96.119382 286.497424 
L 96.288501 286.076723 
L 100.685598 286.076723 
L 100.854717 285.656021 
L 107.957719 285.656021 
L 108.126838 285.23532 
L 116.159995 285.23532 
L 116.329114 284.814619 
L 122.840199 284.814619 
L 123.009318 284.393918 
L 125.376986 284.393918 
L 125.546105 283.973217 
L 127.068177 283.973217 
L 127.237296 283.552516 
L 137.807239 283.552516 
L 137.976358 283.131814 
L 140.513145 283.131814 
L 140.682264 282.711113 
L 148.377183 282.711113 
L 148.546302 282.290412 
L 149.983814 282.290412 
L 150.152933 281.869711 
L 154.888268 281.869711 
L 155.057387 281.44901 
L 162.414068 281.44901 
L 162.583187 281.028309 
L 164.528056 281.028309 
L 164.781735 280.186906 
L 165.119973 280.186906 
L 165.289092 279.766205 
L 168.333236 279.766205 
L 168.502355 279.345504 
L 169.094272 279.345504 
L 169.263391 278.924803 
L 169.939867 278.924803 
L 170.108986 278.504102 
L 171.631058 278.504102 
L 171.800177 278.0834 
L 180.763489 278.0834 
L 181.017168 277.241998 
L 187.020896 277.241998 
L 187.274575 276.400596 
L 189.895921 276.400596 
L 190.234159 275.138492 
L 191.756231 275.138492 
L 191.92535 274.717791 
L 192.179028 274.717791 
L 192.348148 274.29709 
L 193.193743 274.29709 
L 193.362862 273.876389 
L 193.7011 273.876389 
L 193.870219 273.455688 
L 196.576125 273.455688 
L 196.745244 273.034986 
L 197.42172 273.034986 
L 197.590839 272.614285 
L 198.013637 272.614285 
L 198.182756 272.193584 
L 200.804102 272.193584 
L 200.973221 271.772883 
L 201.565138 271.772883 
L 201.734257 271.352182 
L 201.818817 271.352182 
L 201.987936 270.931481 
L 202.072496 270.931481 
L 202.326174 270.090078 
L 203.08721 270.090078 
L 203.256329 269.669377 
L 203.340889 269.669377 
L 203.510008 269.248676 
L 204.355603 269.248676 
L 204.524722 268.827975 
L 204.693841 268.827975 
L 204.862961 268.407274 
L 206.89239 268.407274 
L 207.061509 267.986572 
L 207.315187 267.986572 
L 207.568866 267.14517 
L 208.66814 267.14517 
L 208.837259 266.724469 
L 209.851974 266.724469 
L 210.021093 266.303768 
L 210.61301 266.303768 
L 210.782129 265.883067 
L 213.065237 265.883067 
L 213.318915 265.041664 
L 216.024821 265.041664 
L 216.19394 264.620963 
L 216.785857 264.620963 
L 217.039535 263.779561 
L 217.546893 263.779561 
L 217.716012 263.35886 
L 217.800571 263.35886 
L 218.05425 262.517457 
L 218.392488 262.517457 
L 218.561607 262.096756 
L 220.252798 262.096756 
L 220.421917 261.676055 
L 221.690311 261.676055 
L 221.85943 261.255354 
L 222.789585 261.255354 
L 222.958704 260.834653 
L 223.888859 260.834653 
L 224.057978 260.413951 
L 224.565335 260.413951 
L 224.819014 259.572549 
L 225.326371 259.572549 
L 225.49549 259.151848 
L 226.594764 259.151848 
L 226.933003 257.889744 
L 227.271241 257.889744 
L 227.44036 257.469043 
L 228.285955 257.469043 
L 228.455074 256.627641 
L 229.046991 256.627641 
L 229.21611 256.20694 
L 229.469789 256.20694 
L 229.638908 255.786239 
L 231.330099 255.786239 
L 231.499218 255.365537 
L 231.668337 255.365537 
L 231.837456 254.944836 
L 232.091135 254.944836 
L 232.260254 254.103434 
L 232.598492 254.103434 
L 232.767611 253.682733 
L 233.866885 253.682733 
L 234.036005 253.262032 
L 234.205124 253.262032 
L 234.374243 252.84133 
L 234.627921 252.84133 
L 234.797041 251.579227 
L 235.050719 251.579227 
L 235.219838 251.158526 
L 235.304398 251.158526 
L 235.473517 250.737824 
L 235.811755 250.737824 
L 235.980874 250.317123 
L 236.572791 250.317123 
L 236.74191 249.896422 
L 236.995589 249.896422 
L 237.164708 249.475721 
L 237.756625 249.475721 
L 237.925744 249.05502 
L 238.940458 249.05502 
L 239.109577 248.634319 
L 239.194137 248.634319 
L 239.363256 248.213617 
L 240.377971 248.213617 
L 240.54709 247.792916 
L 241.730923 247.792916 
L 241.984602 246.951514 
L 242.153721 246.951514 
L 242.32284 246.530813 
L 242.491959 246.530813 
L 242.661078 245.68941 
L 242.999317 245.68941 
L 243.168436 245.268709 
L 243.844912 245.268709 
L 244.014031 244.848008 
L 245.113305 244.848008 
L 245.366984 244.006606 
L 247.734651 244.006606 
L 247.98833 243.165203 
L 248.157449 243.165203 
L 248.326568 242.744502 
L 248.833925 242.744502 
L 249.003045 242.323801 
L 249.510402 242.323801 
L 249.679521 241.9031 
L 249.76408 241.9031 
L 250.102319 240.640996 
L 250.186878 240.640996 
L 250.355997 240.220295 
L 250.694235 240.220295 
L 250.863355 239.799594 
L 251.117033 239.799594 
L 251.286152 239.378893 
L 251.455271 239.378893 
L 251.624391 238.958192 
L 251.79351 238.958192 
L 251.962629 238.537491 
L 252.639105 238.537491 
L 252.808224 238.116789 
L 253.061903 238.116789 
L 253.231022 237.696088 
L 253.907498 237.696088 
L 254.161177 236.854686 
L 255.51413 236.854686 
L 255.767808 236.013284 
L 255.852368 236.013284 
L 256.021487 235.592582 
L 256.444285 235.592582 
L 256.613404 235.171881 
L 257.28988 235.171881 
L 257.458999 234.75118 
L 257.543559 234.75118 
L 257.712678 234.330479 
L 258.304595 234.330479 
L 258.558273 233.489077 
L 258.727393 233.489077 
L 258.896512 233.068375 
L 258.981071 233.068375 
L 259.15019 232.226973 
L 259.403869 231.385571 
L 259.657548 231.385571 
L 259.826667 230.544168 
L 260.334024 230.544168 
L 260.503143 230.123467 
L 261.517858 230.123467 
L 261.686977 229.702766 
L 261.856096 229.702766 
L 262.109774 228.861364 
L 262.194334 228.861364 
L 262.363453 228.440663 
L 262.87081 228.440663 
L 263.039929 228.019961 
L 264.392882 228.019961 
L 264.562001 227.178559 
L 265.745835 227.178559 
L 265.999514 226.337157 
L 266.084073 226.337157 
L 266.337752 225.495754 
L 266.422311 225.495754 
L 266.67599 224.654352 
L 267.267907 224.654352 
L 267.437026 224.233651 
L 267.606145 224.233651 
L 267.859824 223.392249 
L 268.113502 223.392249 
L 268.282621 222.971547 
L 268.367181 222.971547 
L 268.62086 222.130145 
L 268.705419 222.130145 
L 268.874538 221.709444 
L 269.043657 221.709444 
L 269.381896 220.44734 
L 270.903967 220.44734 
L 271.073087 220.026639 
L 271.242206 220.026639 
L 271.411325 219.605938 
L 271.495884 219.605938 
L 271.749563 218.764536 
L 271.834122 218.764536 
L 272.003242 217.502432 
L 272.426039 217.502432 
L 272.679718 216.66103 
L 273.017956 216.66103 
L 273.271635 215.819628 
L 273.356194 215.819628 
L 273.525313 215.398926 
L 273.609873 215.398926 
L 273.778992 214.978225 
L 274.11723 214.978225 
L 274.370909 214.136823 
L 274.793707 214.136823 
L 274.962826 213.716122 
L 275.301064 213.716122 
L 275.470183 213.29542 
L 275.554743 213.29542 
L 275.808421 212.454018 
L 276.231219 212.454018 
L 276.400338 212.033317 
L 276.484898 212.033317 
L 276.823136 210.771213 
L 277.83785 210.771213 
L 278.176089 209.50911 
L 278.514327 209.50911 
L 278.683446 209.088409 
L 278.852565 209.088409 
L 279.021684 208.667708 
L 279.78272 208.667708 
L 279.951839 207.826305 
L 280.036399 207.826305 
L 280.374637 206.564202 
L 280.628315 206.564202 
L 280.797435 206.143501 
L 281.304792 206.143501 
L 281.473911 205.722799 
L 281.72759 205.722799 
L 281.896709 205.302098 
L 282.150387 205.302098 
L 282.319506 204.881397 
L 282.404066 204.881397 
L 282.573185 204.039995 
L 283.672459 204.039995 
L 283.841578 203.619294 
L 284.095257 203.619294 
L 284.264376 203.198592 
L 284.348936 203.198592 
L 284.518055 202.777891 
L 284.602614 202.777891 
L 284.771733 202.35719 
L 284.856293 202.35719 
L 285.025412 201.936489 
L 285.194531 201.936489 
L 285.532769 200.674385 
L 285.617329 200.674385 
L 285.786448 200.253684 
L 286.124686 200.253684 
L 286.293805 199.832983 
L 286.462924 199.832983 
L 286.632043 199.412282 
L 286.716603 199.412282 
L 286.885722 198.991581 
L 287.562198 198.991581 
L 287.815877 198.150178 
L 288.407794 198.150178 
L 288.576913 197.729477 
L 288.999711 197.729477 
L 289.253389 196.046673 
L 289.929866 196.046673 
L 290.098985 195.625971 
L 290.183544 195.625971 
L 290.437223 194.784569 
L 290.775461 194.784569 
L 290.94458 194.363868 
L 291.113699 194.363868 
L 291.367378 193.522466 
L 291.536497 193.522466 
L 291.790176 192.681063 
L 292.128414 192.681063 
L 292.466652 191.41896 
L 292.551212 191.41896 
L 292.88945 190.156856 
L 293.396807 190.156856 
L 293.735045 188.894753 
L 294.242403 188.894753 
L 294.411522 188.474052 
L 294.834319 188.474052 
L 295.003439 188.05335 
L 295.087998 188.05335 
L 295.341677 187.211948 
L 295.426236 187.211948 
L 295.679915 186.370546 
L 296.102713 186.370546 
L 296.271832 185.949845 
L 296.356391 185.949845 
L 296.52551 185.529143 
L 296.948308 185.529143 
L 297.201987 184.687741 
L 297.624785 184.687741 
L 297.793904 184.26704 
L 298.132142 184.26704 
L 298.301261 183.846339 
L 299.146856 183.846339 
L 299.400535 183.004936 
L 299.569654 183.004936 
L 299.738773 182.584235 
L 299.823333 182.584235 
L 299.992452 182.163534 
L 300.161571 182.163534 
L 300.41525 181.322132 
L 301.091726 181.322132 
L 301.429964 180.060028 
L 301.683643 180.060028 
L 302.021881 178.797925 
L 302.867476 178.797925 
L 303.036596 178.377223 
L 303.121155 178.377223 
L 303.713072 175.853016 
L 304.05131 175.853016 
L 304.304989 175.011614 
L 304.558667 175.011614 
L 304.896906 173.749511 
L 305.319703 173.749511 
L 305.488822 173.328809 
L 306.165299 173.328809 
L 306.418978 172.487407 
L 307.180013 172.487407 
L 307.518252 171.225304 
L 308.110168 171.225304 
L 308.363847 170.383901 
L 308.702085 170.383901 
L 308.871204 169.9632 
L 309.040323 169.9632 
L 309.209443 169.542499 
L 309.294002 169.542499 
L 309.463121 169.121798 
L 310.393276 169.121798 
L 310.731514 167.859694 
L 311.069753 167.859694 
L 311.238872 167.438993 
L 311.323431 167.438993 
L 311.49255 167.018292 
L 311.915348 167.018292 
L 312.338146 165.335487 
L 313.014622 165.335487 
L 313.183741 164.914786 
L 313.268301 164.914786 
L 313.43742 164.494085 
L 315.551409 164.494085 
L 315.720528 164.073384 
L 315.889647 164.073384 
L 316.058766 163.231981 
L 316.566123 163.231981 
L 316.735242 162.390579 
L 319.525707 162.390579 
L 319.694827 161.969878 
L 320.624982 161.969878 
L 320.794101 161.549177 
L 321.132339 161.549177 
L 321.301458 161.128476 
L 321.555137 161.128476 
L 321.808815 160.287073 
L 322.231613 160.287073 
L 322.400732 159.866372 
L 324.852959 159.866372 
L 325.022078 159.445671 
L 325.444876 159.445671 
L 325.867673 157.762866 
L 326.205912 157.762866 
L 326.375031 156.921464 
L 326.628709 156.080062 
L 326.882388 156.080062 
L 327.136067 155.238659 
L 327.389745 155.238659 
L 327.727984 153.976556 
L 328.066222 153.976556 
L 328.235341 153.555855 
L 328.827258 153.555855 
L 328.996377 153.135153 
L 329.080936 153.135153 
L 329.334615 152.293751 
L 329.503734 152.293751 
L 329.672853 151.87305 
L 330.603008 151.87305 
L 330.856687 151.031648 
L 331.025806 151.031648 
L 331.194925 150.610946 
L 331.702282 150.610946 
L 332.12508 148.928142 
L 333.562592 148.928142 
L 333.731711 148.086739 
L 333.900831 148.086739 
L 334.154509 147.245337 
L 334.408188 147.245337 
L 334.577307 146.403935 
L 334.661866 146.403935 
L 334.830986 145.983234 
L 334.915545 145.983234 
L 335.169224 145.141831 
L 335.93026 145.141831 
L 336.099379 144.72113 
L 336.437617 144.72113 
L 336.775855 143.459027 
L 336.944974 143.459027 
L 337.283212 142.196923 
L 338.297927 142.196923 
L 338.551606 141.355521 
L 338.636165 141.355521 
L 338.889844 140.514118 
L 339.904558 140.514118 
L 340.073678 140.093417 
L 340.242797 140.093417 
L 340.496475 139.252015 
L 340.581035 139.252015 
L 340.919273 137.989911 
L 341.003833 137.989911 
L 341.257511 137.148509 
L 341.342071 137.148509 
L 341.51119 136.727808 
L 342.187666 136.727808 
L 342.441345 135.886405 
L 342.948702 135.886405 
L 343.202381 135.045003 
L 343.28694 135.045003 
L 343.709738 133.362198 
L 343.794298 133.362198 
L 343.963417 132.520796 
L 344.978131 132.520796 
L 345.14725 132.100095 
L 345.570048 132.100095 
L 345.739167 131.679394 
L 346.077405 131.679394 
L 346.331084 130.837991 
L 347.599477 130.837991 
L 347.937715 129.575888 
L 348.614192 129.575888 
L 348.783311 129.155187 
L 349.121549 129.155187 
L 349.290668 128.313784 
L 349.375228 128.313784 
L 349.544347 127.893083 
L 349.967145 127.893083 
L 350.136264 127.472382 
L 350.220823 127.472382 
L 350.389942 127.051681 
L 350.643621 127.051681 
L 350.81274 126.63098 
L 351.658336 126.63098 
L 351.827455 126.210279 
L 352.334812 126.210279 
L 352.503931 125.789577 
L 352.842169 125.789577 
L 353.264967 124.106773 
L 353.434086 124.106773 
L 353.687765 123.26537 
L 353.772324 123.26537 
L 354.448801 120.320462 
L 354.787039 120.320462 
L 355.294396 118.216956 
L 355.970873 118.216956 
L 356.139992 117.796255 
L 356.47823 117.796255 
L 356.647349 117.375554 
L 357.239266 117.375554 
L 357.408385 116.534152 
L 357.492944 116.534152 
L 357.662063 116.113451 
L 357.746623 116.113451 
L 357.915742 115.692749 
L 358.000302 115.692749 
L 358.25398 114.851347 
L 359.015016 114.851347 
L 359.184135 114.009945 
L 359.945171 114.009945 
L 360.19885 113.168542 
L 360.367969 113.168542 
L 360.537088 112.747841 
L 361.9746 112.747841 
L 362.14372 112.32714 
L 362.566517 112.32714 
L 362.735636 111.906439 
L 363.158434 111.906439 
L 363.327553 111.485738 
L 363.496672 111.485738 
L 363.750351 109.802933 
L 363.83491 109.802933 
L 364.00403 109.382232 
L 364.342268 109.382232 
L 364.765065 107.699427 
L 365.610661 107.699427 
L 365.77978 106.858025 
L 366.879054 106.858025 
L 367.048173 106.437324 
L 367.386411 106.437324 
L 367.64009 105.595921 
L 368.739364 105.595921 
L 368.993043 104.754519 
L 369.246722 104.754519 
L 369.58496 103.492415 
L 369.923198 103.492415 
L 370.176877 102.651013 
L 370.853353 102.651013 
L 371.107032 100.968208 
L 371.276151 100.968208 
L 371.529829 100.126806 
L 372.206306 100.126806 
L 372.459984 99.285404 
L 372.713663 99.285404 
L 372.882782 98.864703 
L 373.30558 98.864703 
L 373.474699 98.444001 
L 374.743092 98.444001 
L 374.912211 98.0233 
L 375.757807 98.0233 
L 375.926926 97.602599 
L 376.265164 97.602599 
L 376.518843 96.761197 
L 377.787236 96.761197 
L 377.956355 95.499093 
L 378.463712 95.499093 
L 378.632831 95.078392 
L 380.324022 95.078392 
L 380.577701 94.23699 
L 380.83138 94.23699 
L 381.085058 93.395587 
L 381.592415 93.395587 
L 381.761535 92.974886 
L 382.015213 92.974886 
L 382.184332 92.554185 
L 382.776249 92.554185 
L 383.114487 91.292082 
L 383.368166 91.292082 
L 383.537285 90.87138 
L 384.129202 90.87138 
L 384.382881 90.029978 
L 384.636559 90.029978 
L 384.805678 89.609277 
L 384.974797 89.609277 
L 385.228476 88.767875 
L 385.313036 88.767875 
L 385.482155 88.347173 
L 385.735833 88.347173 
L 386.158631 86.664369 
L 387.088786 86.664369 
L 387.257905 86.243668 
L 388.018941 86.243668 
L 388.18806 85.822966 
L 388.27262 85.822966 
L 388.441739 85.402265 
L 389.710132 85.402265 
L 389.963811 84.560863 
L 390.04837 84.560863 
L 390.217489 84.140162 
L 390.978525 84.140162 
L 391.147644 83.298759 
L 391.485883 83.298759 
L 391.655002 82.878058 
L 391.824121 82.878058 
L 391.99324 82.457357 
L 392.416038 82.457357 
L 392.585157 82.036656 
L 392.754276 82.036656 
L 392.923395 81.615955 
L 393.76899 81.615955 
L 393.938109 81.195254 
L 395.375622 81.195254 
L 395.544741 80.774552 
L 395.882979 80.774552 
L 396.221217 79.512449 
L 396.813134 79.512449 
L 396.982253 79.091748 
L 397.405051 79.091748 
L 397.57417 78.671047 
L 397.65873 78.671047 
L 397.827849 78.250345 
L 398.166087 78.250345 
L 398.335206 77.829644 
L 398.419766 77.829644 
L 398.588885 76.988242 
L 399.941837 76.988242 
L 400.110956 76.567541 
L 400.618314 76.567541 
L 400.787433 76.14684 
L 400.956552 76.14684 
L 401.125671 75.726138 
L 401.548469 75.726138 
L 401.886707 74.464035 
L 401.971267 74.464035 
L 402.140386 74.043334 
L 402.309505 74.043334 
L 402.478624 73.622633 
L 402.647743 73.622633 
L 402.816862 73.201931 
L 403.577898 73.201931 
L 404.000696 71.519127 
L 404.761732 71.519127 
L 404.930851 71.098426 
L 405.353648 71.098426 
L 405.691887 69.836322 
L 406.283803 69.836322 
L 406.452923 69.415621 
L 407.298518 69.415621 
L 407.467637 68.99492 
L 407.721316 68.99492 
L 407.974994 68.153517 
L 408.313233 68.153517 
L 408.482352 67.732816 
L 408.989709 67.732816 
L 409.158828 67.312115 
L 409.412507 67.312115 
L 409.581626 66.891414 
L 410.258102 66.891414 
L 410.427221 66.470713 
L 412.54121 66.470713 
L 412.710329 66.050011 
L 413.048567 66.050011 
L 413.217686 65.62931 
L 414.147841 65.62931 
L 414.570639 63.946506 
L 415.416235 63.946506 
L 415.754473 62.684402 
L 416.008151 62.684402 
L 416.177271 62.263701 
L 417.191985 62.263701 
L 417.361104 61.843 
L 417.868462 61.843 
L 418.037581 61.422299 
L 422.096439 61.422299 
L 422.265558 61.001597 
L 424.041308 61.001597 
L 424.210428 60.160195 
L 425.817059 60.160195 
L 426.070738 59.318793 
L 426.408976 59.318793 
L 426.578095 58.898092 
L 426.747214 58.898092 
L 427.000893 58.056689 
L 429.45312 58.056689 
L 429.622239 57.635988 
L 430.045036 57.635988 
L 430.214155 57.215287 
L 430.383275 57.215287 
L 430.552394 56.794586 
L 431.059751 56.794586 
L 431.22887 56.373885 
L 432.666382 56.373885 
L 432.835501 55.953183 
L 432.920061 55.953183 
L 433.08918 55.532482 
L 434.019335 55.532482 
L 434.273014 54.69108 
L 434.780371 54.69108 
L 434.94949 54.270379 
L 435.625967 54.270379 
L 435.795086 53.849678 
L 436.217883 53.849678 
L 436.387002 53.428976 
L 438.585551 53.428976 
L 438.75467 53.008275 
L 441.798814 53.008275 
L 441.967933 52.587574 
L 442.052492 52.587574 
L 442.221611 52.166873 
L 442.39073 52.166873 
L 442.644409 51.325471 
L 443.574564 51.325471 
L 443.743683 50.904769 
L 446.11135 50.904769 
L 446.28047 50.484068 
L 446.956946 50.484068 
L 447.126065 50.063367 
L 447.887101 50.063367 
L 448.14078 49.221965 
L 450.00109 49.221965 
L 450.170209 48.801264 
L 453.045233 48.801264 
L 453.214352 48.380562 
L 453.468031 48.380562 
L 453.63715 47.959861 
L 453.975388 47.959861 
L 454.144508 47.53916 
L 454.736424 47.53916 
L 454.905543 47.118459 
L 455.835698 47.118459 
L 456.004818 46.697758 
L 457.696009 46.697758 
L 457.865128 46.277057 
L 463.530617 46.277057 
L 463.699736 45.856355 
L 464.799011 45.856355 
L 464.96813 45.435654 
L 465.137249 45.435654 
L 465.306368 45.014953 
L 469.111547 45.014953 
L 469.280667 44.594252 
L 471.056417 44.594252 
L 471.225536 44.173551 
L 471.902013 44.173551 
L 472.071132 43.75285 
L 476.552788 43.75285 
L 476.721907 43.332148 
L 477.90574 43.332148 
L 478.07486 42.911447 
L 478.582217 42.911447 
L 478.751336 42.490746 
L 481.372682 42.490746 
L 481.626361 41.649344 
L 482.556516 41.649344 
L 482.894754 40.38724 
L 483.909468 40.38724 
L 484.078587 39.966539 
L 487.207291 39.966539 
L 487.37641 39.545838 
L 491.181589 39.545838 
L 491.350709 39.125137 
L 491.942625 39.125137 
L 492.111744 38.704436 
L 492.280864 38.704436 
L 492.449983 38.283734 
L 497.608115 38.283734 
L 497.777234 37.863033 
L 497.861794 37.863033 
L 498.030913 37.442332 
L 499.214746 37.442332 
L 499.383866 37.021631 
L 504.034641 37.021631 
L 504.20376 36.60093 
L 513.167072 36.60093 
L 513.336191 36.180229 
L 515.534739 36.180229 
L 515.703858 35.759527 
L 547.667367 35.759527 
L 547.836486 35.338826 
L 561.957931 35.338826 
L 562.12705 34.918125 
L 576.417614 34.918125 
L 576.417614 34.918125 
" clip-path="url(#p95d0aef51a)" style="fill: none; stroke-dasharray: 4,12; stroke-dashoffset: 0; stroke: #20b2aa; stroke-width: 4"/>
   </g>
   <g id="patch_3">
    <path d="M 43.78125 299.518125 
L 43.78125 22.318125 
" style="fill: none; stroke: #000000; stroke-width: 0.8; stroke-linejoin: miter; stroke-linecap: square"/>
   </g>
   <g id="patch_4">
    <path d="M 601.78125 299.518125 
L 601.78125 22.318125 
" style="fill: none; stroke: #000000; stroke-width: 0.8; stroke-linejoin: miter; stroke-linecap: square"/>
   </g>
   <g id="patch_5">
    <path d="M 43.78125 299.518125 
L 601.78125 299.518125 
" style="fill: none; stroke: #000000; stroke-width: 0.8; stroke-linejoin: miter; stroke-linecap: square"/>
   </g>
   <g id="patch_6">
    <path d="M 43.78125 22.318125 
L 601.78125 22.318125 
" style="fill: none; stroke: #000000; stroke-width: 0.8; stroke-linejoin: miter; stroke-linecap: square"/>
   </g>
   <g id="text_16">
    <!-- Empirical distributions of dependent samples (w/o noise) -->
    <g transform="translate(151.711875 16.318125) scale(0.12 -0.12)">
     <defs>
      <path id="DejaVuSans-45" d="M 628 4666 
L 3578 4666 
L 3578 4134 
L 1259 4134 
L 1259 2753 
L 3481 2753 
L 3481 2222 
L 1259 2222 
L 1259 531 
L 3634 531 
L 3634 0 
L 628 0 
L 628 4666 
z
" transform="scale(0.015625)"/>
      <path id="DejaVuSans-63" d="M 3122 3366 
L 3122 2828 
Q 2878 2963 2633 3030 
Q 2388 3097 2138 3097 
Q 1578 3097 1268 2742 
Q 959 2388 959 1747 
Q 959 1106 1268 751 
Q 1578 397 2138 397 
Q 2388 397 2633 464 
Q 2878 531 3122 666 
L 3122 134 
Q 2881 22 2623 -34 
Q 2366 -91 2075 -91 
Q 1284 -91 818 406 
Q 353 903 353 1747 
Q 353 2603 823 3093 
Q 1294 3584 2113 3584 
Q 2378 3584 2631 3529 
Q 2884 3475 3122 3366 
z
" transform="scale(0.015625)"/>
      <path id="DejaVuSans-64" d="M 2906 2969 
L 2906 4863 
L 3481 4863 
L 3481 0 
L 2906 0 
L 2906 525 
Q 2725 213 2448 61 
Q 2172 -91 1784 -91 
Q 1150 -91 751 415 
Q 353 922 353 1747 
Q 353 2572 751 3078 
Q 1150 3584 1784 3584 
Q 2172 3584 2448 3432 
Q 2725 3281 2906 2969 
z
M 947 1747 
Q 947 1113 1208 752 
Q 1469 391 1925 391 
Q 2381 391 2643 752 
Q 2906 1113 2906 1747 
Q 2906 2381 2643 2742 
Q 2381 3103 1925 3103 
Q 1469 3103 1208 2742 
Q 947 2381 947 1747 
z
" transform="scale(0.015625)"/>
      <path id="DejaVuSans-73" d="M 2834 3397 
L 2834 2853 
Q 2591 2978 2328 3040 
Q 2066 3103 1784 3103 
Q 1356 3103 1142 2972 
Q 928 2841 928 2578 
Q 928 2378 1081 2264 
Q 1234 2150 1697 2047 
L 1894 2003 
Q 2506 1872 2764 1633 
Q 3022 1394 3022 966 
Q 3022 478 2636 193 
Q 2250 -91 1575 -91 
Q 1294 -91 989 -36 
Q 684 19 347 128 
L 347 722 
Q 666 556 975 473 
Q 1284 391 1588 391 
Q 1994 391 2212 530 
Q 2431 669 2431 922 
Q 2431 1156 2273 1281 
Q 2116 1406 1581 1522 
L 1381 1569 
Q 847 1681 609 1914 
Q 372 2147 372 2553 
Q 372 3047 722 3315 
Q 1072 3584 1716 3584 
Q 2034 3584 2315 3537 
Q 2597 3491 2834 3397 
z
" transform="scale(0.015625)"/>
      <path id="DejaVuSans-6e" d="M 3513 2113 
L 3513 0 
L 2938 0 
L 2938 2094 
Q 2938 2591 2744 2837 
Q 2550 3084 2163 3084 
Q 1697 3084 1428 2787 
Q 1159 2491 1159 1978 
L 1159 0 
L 581 0 
L 581 3500 
L 1159 3500 
L 1159 2956 
Q 1366 3272 1645 3428 
Q 1925 3584 2291 3584 
Q 2894 3584 3203 3211 
Q 3513 2838 3513 2113 
z
" transform="scale(0.015625)"/>
      <path id="DejaVuSans-66" d="M 2375 4863 
L 2375 4384 
L 1825 4384 
Q 1516 4384 1395 4259 
Q 1275 4134 1275 3809 
L 1275 3500 
L 2222 3500 
L 2222 3053 
L 1275 3053 
L 1275 0 
L 697 0 
L 697 3053 
L 147 3053 
L 147 3500 
L 697 3500 
L 697 3744 
Q 697 4328 969 4595 
Q 1241 4863 1831 4863 
L 2375 4863 
z
" transform="scale(0.015625)"/>
      <path id="DejaVuSans-28" d="M 1984 4856 
Q 1566 4138 1362 3434 
Q 1159 2731 1159 2009 
Q 1159 1288 1364 580 
Q 1569 -128 1984 -844 
L 1484 -844 
Q 1016 -109 783 600 
Q 550 1309 550 2009 
Q 550 2706 781 3412 
Q 1013 4119 1484 4856 
L 1984 4856 
z
" transform="scale(0.015625)"/>
      <path id="DejaVuSans-77" d="M 269 3500 
L 844 3500 
L 1563 769 
L 2278 3500 
L 2956 3500 
L 3675 769 
L 4391 3500 
L 4966 3500 
L 4050 0 
L 3372 0 
L 2619 2869 
L 1863 0 
L 1184 0 
L 269 3500 
z
" transform="scale(0.015625)"/>
      <path id="DejaVuSans-2f" d="M 1625 4666 
L 2156 4666 
L 531 -594 
L 0 -594 
L 1625 4666 
z
" transform="scale(0.015625)"/>
      <path id="DejaVuSans-29" d="M 513 4856 
L 1013 4856 
Q 1481 4119 1714 3412 
Q 1947 2706 1947 2009 
Q 1947 1309 1714 600 
Q 1481 -109 1013 -844 
L 513 -844 
Q 928 -128 1133 580 
Q 1338 1288 1338 2009 
Q 1338 2731 1133 3434 
Q 928 4138 513 4856 
z
" transform="scale(0.015625)"/>
     </defs>
     <use xlink:href="#DejaVuSans-45"/>
     <use xlink:href="#DejaVuSans-6d" x="63.183594"/>
     <use xlink:href="#DejaVuSans-70" x="160.595703"/>
     <use xlink:href="#DejaVuSans-69" x="224.072266"/>
     <use xlink:href="#DejaVuSans-72" x="251.855469"/>
     <use xlink:href="#DejaVuSans-69" x="292.96875"/>
     <use xlink:href="#DejaVuSans-63" x="320.751953"/>
     <use xlink:href="#DejaVuSans-61" x="375.732422"/>
     <use xlink:href="#DejaVuSans-6c" x="437.011719"/>
     <use xlink:href="#DejaVuSans-20" x="464.794922"/>
     <use xlink:href="#DejaVuSans-64" x="496.582031"/>
     <use xlink:href="#DejaVuSans-69" x="560.058594"/>
     <use xlink:href="#DejaVuSans-73" x="587.841797"/>
     <use xlink:href="#DejaVuSans-74" x="639.941406"/>
     <use xlink:href="#DejaVuSans-72" x="679.150391"/>
     <use xlink:href="#DejaVuSans-69" x="720.263672"/>
     <use xlink:href="#DejaVuSans-62" x="748.046875"/>
     <use xlink:href="#DejaVuSans-75" x="811.523438"/>
     <use xlink:href="#DejaVuSans-74" x="874.902344"/>
     <use xlink:href="#DejaVuSans-69" x="914.111328"/>
     <use xlink:href="#DejaVuSans-6f" x="941.894531"/>
     <use xlink:href="#DejaVuSans-6e" x="1003.076172"/>
     <use xlink:href="#DejaVuSans-73" x="1066.455078"/>
     <use xlink:href="#DejaVuSans-20" x="1118.554688"/>
     <use xlink:href="#DejaVuSans-6f" x="1150.341797"/>
     <use xlink:href="#DejaVuSans-66" x="1211.523438"/>
     <use xlink:href="#DejaVuSans-20" x="1246.728516"/>
     <use xlink:href="#DejaVuSans-64" x="1278.515625"/>
     <use xlink:href="#DejaVuSans-65" x="1341.992188"/>
     <use xlink:href="#DejaVuSans-70" x="1403.515625"/>
     <use xlink:href="#DejaVuSans-65" x="1466.992188"/>
     <use xlink:href="#DejaVuSans-6e" x="1528.515625"/>
     <use xlink:href="#DejaVuSans-64" x="1591.894531"/>
     <use xlink:href="#DejaVuSans-65" x="1655.371094"/>
     <use xlink:href="#DejaVuSans-6e" x="1716.894531"/>
     <use xlink:href="#DejaVuSans-74" x="1780.273438"/>
     <use xlink:href="#DejaVuSans-20" x="1819.482422"/>
     <use xlink:href="#DejaVuSans-73" x="1851.269531"/>
     <use xlink:href="#DejaVuSans-61" x="1903.369141"/>
     <use xlink:href="#DejaVuSans-6d" x="1964.648438"/>
     <use xlink:href="#DejaVuSans-70" x="2062.060547"/>
     <use xlink:href="#DejaVuSans-6c" x="2125.537109"/>
     <use xlink:href="#DejaVuSans-65" x="2153.320312"/>
     <use xlink:href="#DejaVuSans-73" x="2214.84375"/>
     <use xlink:href="#DejaVuSans-20" x="2266.943359"/>
     <use xlink:href="#DejaVuSans-28" x="2298.730469"/>
     <use xlink:href="#DejaVuSans-77" x="2337.744141"/>
     <use xlink:href="#DejaVuSans-2f" x="2419.53125"/>
     <use xlink:href="#DejaVuSans-6f" x="2453.222656"/>
     <use xlink:href="#DejaVuSans-20" x="2514.404297"/>
     <use xlink:href="#DejaVuSans-6e" x="2546.191406"/>
     <use xlink:href="#DejaVuSans-6f" x="2609.570312"/>
     <use xlink:href="#DejaVuSans-69" x="2670.751953"/>
     <use xlink:href="#DejaVuSans-73" x="2698.535156"/>
     <use xlink:href="#DejaVuSans-65" x="2750.634766"/>
     <use xlink:href="#DejaVuSans-29" x="2812.158203"/>
    </g>
   </g>
   <g id="legend_1">
    <g id="patch_7">
     <path d="M 50.78125 59.674375 
L 174.607813 59.674375 
Q 176.607813 59.674375 176.607813 57.674375 
L 176.607813 29.318125 
Q 176.607813 27.318125 174.607813 27.318125 
L 50.78125 27.318125 
Q 48.78125 27.318125 48.78125 29.318125 
L 48.78125 57.674375 
Q 48.78125 59.674375 50.78125 59.674375 
z
" style="fill: #ffffff; opacity: 0.8; stroke: #cccccc; stroke-linejoin: miter"/>
    </g>
    <g id="line2d_16">
     <path d="M 52.78125 35.416562 
L 62.78125 35.416562 
L 72.78125 35.416562 
" style="fill: none; stroke: #e64173; stroke-linecap: square"/>
    </g>
    <g id="text_17">
     <!-- empirical cdf for A -->
     <g transform="translate(80.78125 38.916562) scale(0.1 -0.1)">
      <defs>
       <path id="DejaVuSans-41" d="M 2188 4044 
L 1331 1722 
L 3047 1722 
L 2188 4044 
z
M 1831 4666 
L 2547 4666 
L 4325 0 
L 3669 0 
L 3244 1197 
L 1141 1197 
L 716 0 
L 50 0 
L 1831 4666 
z
" transform="scale(0.015625)"/>
      </defs>
      <use xlink:href="#DejaVuSans-65"/>
      <use xlink:href="#DejaVuSans-6d" x="61.523438"/>
      <use xlink:href="#DejaVuSans-70" x="158.935547"/>
      <use xlink:href="#DejaVuSans-69" x="222.412109"/>
      <use xlink:href="#DejaVuSans-72" x="250.195312"/>
      <use xlink:href="#DejaVuSans-69" x="291.308594"/>
      <use xlink:href="#DejaVuSans-63" x="319.091797"/>
      <use xlink:href="#DejaVuSans-61" x="374.072266"/>
      <use xlink:href="#DejaVuSans-6c" x="435.351562"/>
      <use xlink:href="#DejaVuSans-20" x="463.134766"/>
      <use xlink:href="#DejaVuSans-63" x="494.921875"/>
      <use xlink:href="#DejaVuSans-64" x="549.902344"/>
      <use xlink:href="#DejaVuSans-66" x="613.378906"/>
      <use xlink:href="#DejaVuSans-20" x="648.583984"/>
      <use xlink:href="#DejaVuSans-66" x="680.371094"/>
      <use xlink:href="#DejaVuSans-6f" x="715.576172"/>
      <use xlink:href="#DejaVuSans-72" x="776.757812"/>
      <use xlink:href="#DejaVuSans-20" x="817.871094"/>
      <use xlink:href="#DejaVuSans-41" x="849.658203"/>
     </g>
    </g>
    <g id="line2d_17">
     <path d="M 52.78125 50.094688 
L 62.78125 50.094688 
L 72.78125 50.094688 
" style="fill: none; stroke-dasharray: 4,12; stroke-dashoffset: 0; stroke: #20b2aa; stroke-width: 4"/>
    </g>
    <g id="text_18">
     <!-- empirical cdf for B -->
     <g transform="translate(80.78125 53.594688) scale(0.1 -0.1)">
      <defs>
       <path id="DejaVuSans-42" d="M 1259 2228 
L 1259 519 
L 2272 519 
Q 2781 519 3026 730 
Q 3272 941 3272 1375 
Q 3272 1813 3026 2020 
Q 2781 2228 2272 2228 
L 1259 2228 
z
M 1259 4147 
L 1259 2741 
L 2194 2741 
Q 2656 2741 2882 2914 
Q 3109 3088 3109 3444 
Q 3109 3797 2882 3972 
Q 2656 4147 2194 4147 
L 1259 4147 
z
M 628 4666 
L 2241 4666 
Q 2963 4666 3353 4366 
Q 3744 4066 3744 3513 
Q 3744 3084 3544 2831 
Q 3344 2578 2956 2516 
Q 3422 2416 3680 2098 
Q 3938 1781 3938 1306 
Q 3938 681 3513 340 
Q 3088 0 2303 0 
L 628 0 
L 628 4666 
z
" transform="scale(0.015625)"/>
      </defs>
      <use xlink:href="#DejaVuSans-65"/>
      <use xlink:href="#DejaVuSans-6d" x="61.523438"/>
      <use xlink:href="#DejaVuSans-70" x="158.935547"/>
      <use xlink:href="#DejaVuSans-69" x="222.412109"/>
      <use xlink:href="#DejaVuSans-72" x="250.195312"/>
      <use xlink:href="#DejaVuSans-69" x="291.308594"/>
      <use xlink:href="#DejaVuSans-63" x="319.091797"/>
      <use xlink:href="#DejaVuSans-61" x="374.072266"/>
      <use xlink:href="#DejaVuSans-6c" x="435.351562"/>
      <use xlink:href="#DejaVuSans-20" x="463.134766"/>
      <use xlink:href="#DejaVuSans-63" x="494.921875"/>
      <use xlink:href="#DejaVuSans-64" x="549.902344"/>
      <use xlink:href="#DejaVuSans-66" x="613.378906"/>
      <use xlink:href="#DejaVuSans-20" x="648.583984"/>
      <use xlink:href="#DejaVuSans-66" x="680.371094"/>
      <use xlink:href="#DejaVuSans-6f" x="715.576172"/>
      <use xlink:href="#DejaVuSans-72" x="776.757812"/>
      <use xlink:href="#DejaVuSans-20" x="817.871094"/>
      <use xlink:href="#DejaVuSans-42" x="849.658203"/>
     </g>
    </g>
   </g>
  </g>
 </g>
 <defs>
  <clipPath id="p95d0aef51a">
   <rect x="43.78125" y="22.318125" width="558" height="277.2"/>
  </clipPath>
 </defs>
</svg>
