<?xml version="1.0" encoding="utf-8" standalone="no"?>
<!DOCTYPE svg PUBLIC "-//W3C//DTD SVG 1.1//EN"
  "http://www.w3.org/Graphics/SVG/1.1/DTD/svg11.dtd">
<svg xmlns:xlink="http://www.w3.org/1999/xlink" width="1451.788125pt" height="515.635625pt" viewBox="0 0 1451.788125 515.635625" xmlns="http://www.w3.org/2000/svg" version="1.1">
 <metadata>
  <rdf:RDF xmlns:dc="http://purl.org/dc/elements/1.1/" xmlns:cc="http://creativecommons.org/ns#" xmlns:rdf="http://www.w3.org/1999/02/22-rdf-syntax-ns#">
   <cc:Work>
    <dc:type rdf:resource="http://purl.org/dc/dcmitype/StillImage"/>
    <dc:date>2024-12-23T19:56:34.688009</dc:date>
    <dc:format>image/svg+xml</dc:format>
    <dc:creator>
     <cc:Agent>
      <dc:title>Matplotlib v3.7.2, https://matplotlib.org/</dc:title>
     </cc:Agent>
    </dc:creator>
   </cc:Work>
  </rdf:RDF>
 </metadata>
 <defs>
  <style type="text/css">*{stroke-linejoin: round; stroke-linecap: butt}</style>
 </defs>
 <g id="figure_1">
  <g id="patch_1">
   <path d="M 0 515.635625 
L 1451.788125 515.635625 
L 1451.788125 0 
L 0 0 
z
" style="fill: #ffffff"/>
  </g>
  <g id="axes_1">
   <g id="patch_2">
    <path d="M 49.588125 472.2725 
L 683.679034 472.2725 
L 683.679034 28.7525 
L 49.588125 28.7525 
z
" style="fill: #ffffff"/>
   </g>
   <g id="matplotlib.axis_1">
    <g id="xtick_1">
     <g id="line2d_1">
      <path d="M 78.410439 472.2725 
L 78.410439 28.7525 
" clip-path="url(#p302a61e514)" style="fill: none; stroke: #b0b0b0; stroke-width: 0.2; stroke-linecap: square"/>
     </g>
     <g id="line2d_2">
      <defs>
       <path id="m1279bd4660" d="M 0 0 
L 0 3.5 
" style="stroke: #000000; stroke-width: 0.8"/>
      </defs>
      <g>
       <use xlink:href="#m1279bd4660" x="78.410439" y="472.2725" style="stroke: #000000; stroke-width: 0.8"/>
      </g>
     </g>
     <g id="text_1">
      <!-- 0 -->
      <g transform="translate(75.229189 486.870938) scale(0.1 -0.1)">
       <defs>
        <path id="DejaVuSans-30" d="M 2034 4250 
Q 1547 4250 1301 3770 
Q 1056 3291 1056 2328 
Q 1056 1369 1301 889 
Q 1547 409 2034 409 
Q 2525 409 2770 889 
Q 3016 1369 3016 2328 
Q 3016 3291 2770 3770 
Q 2525 4250 2034 4250 
z
M 2034 4750 
Q 2819 4750 3233 4129 
Q 3647 3509 3647 2328 
Q 3647 1150 3233 529 
Q 2819 -91 2034 -91 
Q 1250 -91 836 529 
Q 422 1150 422 2328 
Q 422 3509 836 4129 
Q 1250 4750 2034 4750 
z
" transform="scale(0.015625)"/>
       </defs>
       <use xlink:href="#DejaVuSans-30"/>
      </g>
     </g>
    </g>
    <g id="xtick_2">
     <g id="line2d_3">
      <path d="M 193.699695 472.2725 
L 193.699695 28.7525 
" clip-path="url(#p302a61e514)" style="fill: none; stroke: #b0b0b0; stroke-width: 0.2; stroke-linecap: square"/>
     </g>
     <g id="line2d_4">
      <g>
       <use xlink:href="#m1279bd4660" x="193.699695" y="472.2725" style="stroke: #000000; stroke-width: 0.8"/>
      </g>
     </g>
     <g id="text_2">
      <!-- 1 -->
      <g transform="translate(190.518445 486.870938) scale(0.1 -0.1)">
       <defs>
        <path id="DejaVuSans-31" d="M 794 531 
L 1825 531 
L 1825 4091 
L 703 3866 
L 703 4441 
L 1819 4666 
L 2450 4666 
L 2450 531 
L 3481 531 
L 3481 0 
L 794 0 
L 794 531 
z
" transform="scale(0.015625)"/>
       </defs>
       <use xlink:href="#DejaVuSans-31"/>
      </g>
     </g>
    </g>
    <g id="xtick_3">
     <g id="line2d_5">
      <path d="M 308.988951 472.2725 
L 308.988951 28.7525 
" clip-path="url(#p302a61e514)" style="fill: none; stroke: #b0b0b0; stroke-width: 0.2; stroke-linecap: square"/>
     </g>
     <g id="line2d_6">
      <g>
       <use xlink:href="#m1279bd4660" x="308.988951" y="472.2725" style="stroke: #000000; stroke-width: 0.8"/>
      </g>
     </g>
     <g id="text_3">
      <!-- 2 -->
      <g transform="translate(305.807701 486.870938) scale(0.1 -0.1)">
       <defs>
        <path id="DejaVuSans-32" d="M 1228 531 
L 3431 531 
L 3431 0 
L 469 0 
L 469 531 
Q 828 903 1448 1529 
Q 2069 2156 2228 2338 
Q 2531 2678 2651 2914 
Q 2772 3150 2772 3378 
Q 2772 3750 2511 3984 
Q 2250 4219 1831 4219 
Q 1534 4219 1204 4116 
Q 875 4013 500 3803 
L 500 4441 
Q 881 4594 1212 4672 
Q 1544 4750 1819 4750 
Q 2544 4750 2975 4387 
Q 3406 4025 3406 3419 
Q 3406 3131 3298 2873 
Q 3191 2616 2906 2266 
Q 2828 2175 2409 1742 
Q 1991 1309 1228 531 
z
" transform="scale(0.015625)"/>
       </defs>
       <use xlink:href="#DejaVuSans-32"/>
      </g>
     </g>
    </g>
    <g id="xtick_4">
     <g id="line2d_7">
      <path d="M 424.278208 472.2725 
L 424.278208 28.7525 
" clip-path="url(#p302a61e514)" style="fill: none; stroke: #b0b0b0; stroke-width: 0.2; stroke-linecap: square"/>
     </g>
     <g id="line2d_8">
      <g>
       <use xlink:href="#m1279bd4660" x="424.278208" y="472.2725" style="stroke: #000000; stroke-width: 0.8"/>
      </g>
     </g>
     <g id="text_4">
      <!-- 3 -->
      <g transform="translate(421.096958 486.870938) scale(0.1 -0.1)">
       <defs>
        <path id="DejaVuSans-33" d="M 2597 2516 
Q 3050 2419 3304 2112 
Q 3559 1806 3559 1356 
Q 3559 666 3084 287 
Q 2609 -91 1734 -91 
Q 1441 -91 1130 -33 
Q 819 25 488 141 
L 488 750 
Q 750 597 1062 519 
Q 1375 441 1716 441 
Q 2309 441 2620 675 
Q 2931 909 2931 1356 
Q 2931 1769 2642 2001 
Q 2353 2234 1838 2234 
L 1294 2234 
L 1294 2753 
L 1863 2753 
Q 2328 2753 2575 2939 
Q 2822 3125 2822 3475 
Q 2822 3834 2567 4026 
Q 2313 4219 1838 4219 
Q 1578 4219 1281 4162 
Q 984 4106 628 3988 
L 628 4550 
Q 988 4650 1302 4700 
Q 1616 4750 1894 4750 
Q 2613 4750 3031 4423 
Q 3450 4097 3450 3541 
Q 3450 3153 3228 2886 
Q 3006 2619 2597 2516 
z
" transform="scale(0.015625)"/>
       </defs>
       <use xlink:href="#DejaVuSans-33"/>
      </g>
     </g>
    </g>
    <g id="xtick_5">
     <g id="line2d_9">
      <path d="M 539.567464 472.2725 
L 539.567464 28.7525 
" clip-path="url(#p302a61e514)" style="fill: none; stroke: #b0b0b0; stroke-width: 0.2; stroke-linecap: square"/>
     </g>
     <g id="line2d_10">
      <g>
       <use xlink:href="#m1279bd4660" x="539.567464" y="472.2725" style="stroke: #000000; stroke-width: 0.8"/>
      </g>
     </g>
     <g id="text_5">
      <!-- 4 -->
      <g transform="translate(536.386214 486.870938) scale(0.1 -0.1)">
       <defs>
        <path id="DejaVuSans-34" d="M 2419 4116 
L 825 1625 
L 2419 1625 
L 2419 4116 
z
M 2253 4666 
L 3047 4666 
L 3047 1625 
L 3713 1625 
L 3713 1100 
L 3047 1100 
L 3047 0 
L 2419 0 
L 2419 1100 
L 313 1100 
L 313 1709 
L 2253 4666 
z
" transform="scale(0.015625)"/>
       </defs>
       <use xlink:href="#DejaVuSans-34"/>
      </g>
     </g>
    </g>
    <g id="xtick_6">
     <g id="line2d_11">
      <path d="M 654.85672 472.2725 
L 654.85672 28.7525 
" clip-path="url(#p302a61e514)" style="fill: none; stroke: #b0b0b0; stroke-width: 0.2; stroke-linecap: square"/>
     </g>
     <g id="line2d_12">
      <g>
       <use xlink:href="#m1279bd4660" x="654.85672" y="472.2725" style="stroke: #000000; stroke-width: 0.8"/>
      </g>
     </g>
     <g id="text_6">
      <!-- 5 -->
      <g transform="translate(651.67547 486.870938) scale(0.1 -0.1)">
       <defs>
        <path id="DejaVuSans-35" d="M 691 4666 
L 3169 4666 
L 3169 4134 
L 1269 4134 
L 1269 2991 
Q 1406 3038 1543 3061 
Q 1681 3084 1819 3084 
Q 2600 3084 3056 2656 
Q 3513 2228 3513 1497 
Q 3513 744 3044 326 
Q 2575 -91 1722 -91 
Q 1428 -91 1123 -41 
Q 819 9 494 109 
L 494 744 
Q 775 591 1075 516 
Q 1375 441 1709 441 
Q 2250 441 2565 725 
Q 2881 1009 2881 1497 
Q 2881 1984 2565 2268 
Q 2250 2553 1709 2553 
Q 1456 2553 1204 2497 
Q 953 2441 691 2322 
L 691 4666 
z
" transform="scale(0.015625)"/>
       </defs>
       <use xlink:href="#DejaVuSans-35"/>
      </g>
     </g>
    </g>
    <g id="text_7">
     <!-- x -->
     <g transform="translate(361.89858 505.108125) scale(0.16 -0.16)">
      <defs>
       <path id="DejaVuSans-78" d="M 3513 3500 
L 2247 1797 
L 3578 0 
L 2900 0 
L 1881 1375 
L 863 0 
L 184 0 
L 1544 1831 
L 300 3500 
L 978 3500 
L 1906 2253 
L 2834 3500 
L 3513 3500 
z
" transform="scale(0.015625)"/>
      </defs>
      <use xlink:href="#DejaVuSans-78"/>
     </g>
    </g>
   </g>
   <g id="matplotlib.axis_2">
    <g id="ytick_1">
     <g id="line2d_13">
      <path d="M 49.588125 452.1125 
L 683.679034 452.1125 
" clip-path="url(#p302a61e514)" style="fill: none; stroke: #b0b0b0; stroke-width: 0.2; stroke-linecap: square"/>
     </g>
     <g id="line2d_14">
      <defs>
       <path id="m655eb8aca6" d="M 0 0 
L -3.5 0 
" style="stroke: #000000; stroke-width: 0.8"/>
      </defs>
      <g>
       <use xlink:href="#m655eb8aca6" x="49.588125" y="452.1125" style="stroke: #000000; stroke-width: 0.8"/>
      </g>
     </g>
     <g id="text_8">
      <!-- 0.0 -->
      <g transform="translate(26.685 455.911719) scale(0.1 -0.1)">
       <defs>
        <path id="DejaVuSans-2e" d="M 684 794 
L 1344 794 
L 1344 0 
L 684 0 
L 684 794 
z
" transform="scale(0.015625)"/>
       </defs>
       <use xlink:href="#DejaVuSans-30"/>
       <use xlink:href="#DejaVuSans-2e" x="63.623047"/>
       <use xlink:href="#DejaVuSans-30" x="95.410156"/>
      </g>
     </g>
    </g>
    <g id="ytick_2">
     <g id="line2d_15">
      <path d="M 49.588125 371.4725 
L 683.679034 371.4725 
" clip-path="url(#p302a61e514)" style="fill: none; stroke: #b0b0b0; stroke-width: 0.2; stroke-linecap: square"/>
     </g>
     <g id="line2d_16">
      <g>
       <use xlink:href="#m655eb8aca6" x="49.588125" y="371.4725" style="stroke: #000000; stroke-width: 0.8"/>
      </g>
     </g>
     <g id="text_9">
      <!-- 0.2 -->
      <g transform="translate(26.685 375.271719) scale(0.1 -0.1)">
       <use xlink:href="#DejaVuSans-30"/>
       <use xlink:href="#DejaVuSans-2e" x="63.623047"/>
       <use xlink:href="#DejaVuSans-32" x="95.410156"/>
      </g>
     </g>
    </g>
    <g id="ytick_3">
     <g id="line2d_17">
      <path d="M 49.588125 290.8325 
L 683.679034 290.8325 
" clip-path="url(#p302a61e514)" style="fill: none; stroke: #b0b0b0; stroke-width: 0.2; stroke-linecap: square"/>
     </g>
     <g id="line2d_18">
      <g>
       <use xlink:href="#m655eb8aca6" x="49.588125" y="290.8325" style="stroke: #000000; stroke-width: 0.8"/>
      </g>
     </g>
     <g id="text_10">
      <!-- 0.4 -->
      <g transform="translate(26.685 294.631719) scale(0.1 -0.1)">
       <use xlink:href="#DejaVuSans-30"/>
       <use xlink:href="#DejaVuSans-2e" x="63.623047"/>
       <use xlink:href="#DejaVuSans-34" x="95.410156"/>
      </g>
     </g>
    </g>
    <g id="ytick_4">
     <g id="line2d_19">
      <path d="M 49.588125 210.1925 
L 683.679034 210.1925 
" clip-path="url(#p302a61e514)" style="fill: none; stroke: #b0b0b0; stroke-width: 0.2; stroke-linecap: square"/>
     </g>
     <g id="line2d_20">
      <g>
       <use xlink:href="#m655eb8aca6" x="49.588125" y="210.1925" style="stroke: #000000; stroke-width: 0.8"/>
      </g>
     </g>
     <g id="text_11">
      <!-- 0.6 -->
      <g transform="translate(26.685 213.991719) scale(0.1 -0.1)">
       <defs>
        <path id="DejaVuSans-36" d="M 2113 2584 
Q 1688 2584 1439 2293 
Q 1191 2003 1191 1497 
Q 1191 994 1439 701 
Q 1688 409 2113 409 
Q 2538 409 2786 701 
Q 3034 994 3034 1497 
Q 3034 2003 2786 2293 
Q 2538 2584 2113 2584 
z
M 3366 4563 
L 3366 3988 
Q 3128 4100 2886 4159 
Q 2644 4219 2406 4219 
Q 1781 4219 1451 3797 
Q 1122 3375 1075 2522 
Q 1259 2794 1537 2939 
Q 1816 3084 2150 3084 
Q 2853 3084 3261 2657 
Q 3669 2231 3669 1497 
Q 3669 778 3244 343 
Q 2819 -91 2113 -91 
Q 1303 -91 875 529 
Q 447 1150 447 2328 
Q 447 3434 972 4092 
Q 1497 4750 2381 4750 
Q 2619 4750 2861 4703 
Q 3103 4656 3366 4563 
z
" transform="scale(0.015625)"/>
       </defs>
       <use xlink:href="#DejaVuSans-30"/>
       <use xlink:href="#DejaVuSans-2e" x="63.623047"/>
       <use xlink:href="#DejaVuSans-36" x="95.410156"/>
      </g>
     </g>
    </g>
    <g id="ytick_5">
     <g id="line2d_21">
      <path d="M 49.588125 129.5525 
L 683.679034 129.5525 
" clip-path="url(#p302a61e514)" style="fill: none; stroke: #b0b0b0; stroke-width: 0.2; stroke-linecap: square"/>
     </g>
     <g id="line2d_22">
      <g>
       <use xlink:href="#m655eb8aca6" x="49.588125" y="129.5525" style="stroke: #000000; stroke-width: 0.8"/>
      </g>
     </g>
     <g id="text_12">
      <!-- 0.8 -->
      <g transform="translate(26.685 133.351719) scale(0.1 -0.1)">
       <defs>
        <path id="DejaVuSans-38" d="M 2034 2216 
Q 1584 2216 1326 1975 
Q 1069 1734 1069 1313 
Q 1069 891 1326 650 
Q 1584 409 2034 409 
Q 2484 409 2743 651 
Q 3003 894 3003 1313 
Q 3003 1734 2745 1975 
Q 2488 2216 2034 2216 
z
M 1403 2484 
Q 997 2584 770 2862 
Q 544 3141 544 3541 
Q 544 4100 942 4425 
Q 1341 4750 2034 4750 
Q 2731 4750 3128 4425 
Q 3525 4100 3525 3541 
Q 3525 3141 3298 2862 
Q 3072 2584 2669 2484 
Q 3125 2378 3379 2068 
Q 3634 1759 3634 1313 
Q 3634 634 3220 271 
Q 2806 -91 2034 -91 
Q 1263 -91 848 271 
Q 434 634 434 1313 
Q 434 1759 690 2068 
Q 947 2378 1403 2484 
z
M 1172 3481 
Q 1172 3119 1398 2916 
Q 1625 2713 2034 2713 
Q 2441 2713 2670 2916 
Q 2900 3119 2900 3481 
Q 2900 3844 2670 4047 
Q 2441 4250 2034 4250 
Q 1625 4250 1398 4047 
Q 1172 3844 1172 3481 
z
" transform="scale(0.015625)"/>
       </defs>
       <use xlink:href="#DejaVuSans-30"/>
       <use xlink:href="#DejaVuSans-2e" x="63.623047"/>
       <use xlink:href="#DejaVuSans-38" x="95.410156"/>
      </g>
     </g>
    </g>
    <g id="ytick_6">
     <g id="line2d_23">
      <path d="M 49.588125 48.9125 
L 683.679034 48.9125 
" clip-path="url(#p302a61e514)" style="fill: none; stroke: #b0b0b0; stroke-width: 0.2; stroke-linecap: square"/>
     </g>
     <g id="line2d_24">
      <g>
       <use xlink:href="#m655eb8aca6" x="49.588125" y="48.9125" style="stroke: #000000; stroke-width: 0.8"/>
      </g>
     </g>
     <g id="text_13">
      <!-- 1.0 -->
      <g transform="translate(26.685 52.711719) scale(0.1 -0.1)">
       <use xlink:href="#DejaVuSans-31"/>
       <use xlink:href="#DejaVuSans-2e" x="63.623047"/>
       <use xlink:href="#DejaVuSans-30" x="95.410156"/>
      </g>
     </g>
    </g>
    <g id="text_14">
     <!-- CDF -->
     <g transform="translate(19.3575 266.86) rotate(-90) scale(0.16 -0.16)">
      <defs>
       <path id="DejaVuSans-43" d="M 4122 4306 
L 4122 3641 
Q 3803 3938 3442 4084 
Q 3081 4231 2675 4231 
Q 1875 4231 1450 3742 
Q 1025 3253 1025 2328 
Q 1025 1406 1450 917 
Q 1875 428 2675 428 
Q 3081 428 3442 575 
Q 3803 722 4122 1019 
L 4122 359 
Q 3791 134 3420 21 
Q 3050 -91 2638 -91 
Q 1578 -91 968 557 
Q 359 1206 359 2328 
Q 359 3453 968 4101 
Q 1578 4750 2638 4750 
Q 3056 4750 3426 4639 
Q 3797 4528 4122 4306 
z
" transform="scale(0.015625)"/>
       <path id="DejaVuSans-44" d="M 1259 4147 
L 1259 519 
L 2022 519 
Q 2988 519 3436 956 
Q 3884 1394 3884 2338 
Q 3884 3275 3436 3711 
Q 2988 4147 2022 4147 
L 1259 4147 
z
M 628 4666 
L 1925 4666 
Q 3281 4666 3915 4102 
Q 4550 3538 4550 2338 
Q 4550 1131 3912 565 
Q 3275 0 1925 0 
L 628 0 
L 628 4666 
z
" transform="scale(0.015625)"/>
       <path id="DejaVuSans-46" d="M 628 4666 
L 3309 4666 
L 3309 4134 
L 1259 4134 
L 1259 2759 
L 3109 2759 
L 3109 2228 
L 1259 2228 
L 1259 0 
L 628 0 
L 628 4666 
z
" transform="scale(0.015625)"/>
      </defs>
      <use xlink:href="#DejaVuSans-43"/>
      <use xlink:href="#DejaVuSans-44" x="69.824219"/>
      <use xlink:href="#DejaVuSans-46" x="146.826172"/>
     </g>
    </g>
   </g>
   <g id="line2d_25">
    <path d="M 78.410439 452.1125 
L 83.603649 434.353322 
L 88.796859 417.376357 
L 93.990068 401.147153 
L 99.183278 385.632773 
L 104.376488 370.801734 
L 109.569697 356.623936 
L 114.762907 343.070607 
L 119.956117 330.114242 
L 125.149327 317.728549 
L 130.342536 305.88839 
L 135.535746 294.569738 
L 140.728956 283.749622 
L 145.922166 273.406085 
L 151.115375 263.518135 
L 156.308585 254.065705 
L 161.501795 245.029613 
L 167.272028 235.455532 
L 173.042261 226.34884 
L 178.812494 217.68672 
L 184.582727 209.447469 
L 190.35296 201.610444 
L 196.123193 194.156007 
L 201.893426 187.065483 
L 207.663659 180.321106 
L 213.433892 173.905976 
L 219.204125 167.804022 
L 224.974358 161.999954 
L 231.321615 155.942203 
L 237.668871 150.208947 
L 244.016127 144.782804 
L 250.363384 139.647324 
L 256.71064 134.786935 
L 263.057896 130.186903 
L 269.982176 125.449253 
L 276.906456 120.98777 
L 283.830735 116.786357 
L 290.755015 112.829852 
L 298.256318 108.803474 
L 305.757621 105.030732 
L 313.258924 101.495648 
L 321.33725 97.937267 
L 329.415576 94.619687 
L 338.070926 91.313861 
L 346.726276 88.247133 
L 355.958648 85.220036 
L 365.191021 82.425896 
L 375.000417 79.692347 
L 385.386837 77.040627 
L 395.773256 74.617357 
L 406.736699 72.285579 
L 418.277165 70.059219 
L 430.394655 67.949409 
L 443.089167 65.964535 
L 456.360703 64.110357 
L 470.786286 62.322884 
L 485.788892 60.686564 
L 501.945544 59.146946 
L 519.256244 57.720046 
L 538.298013 56.37913 
L 559.070852 55.14803 
L 581.57476 54.042309 
L 606.386762 53.049013 
L 634.083881 52.165615 
L 654.85672 51.62924 
L 654.85672 51.62924 
" clip-path="url(#p302a61e514)" style="fill: none; stroke: #ffa500; stroke-width: 1.5; stroke-linecap: square"/>
   </g>
   <g id="line2d_26">
    <path d="M 78.410439 452.1125 
L 78.987462 452.1125 
L 79.564486 411.7925 
L 106.107558 411.7925 
L 106.684581 371.4725 
L 111.877791 371.4725 
L 112.454814 331.1525 
L 143.614072 331.1525 
L 144.191096 290.8325 
L 169.580121 290.8325 
L 170.157144 250.5125 
L 216.319009 250.5125 
L 216.896032 210.1925 
L 222.666265 210.1925 
L 223.243288 169.8725 
L 471.363309 169.8725 
L 471.940333 129.5525 
L 493.290195 129.5525 
L 493.867218 89.2325 
L 509.446847 89.2325 
L 510.023871 48.9125 
L 654.85672 48.9125 
L 654.85672 48.9125 
" clip-path="url(#p302a61e514)" style="fill: none; stroke: #0000ff; stroke-width: 1.5; stroke-linecap: square"/>
   </g>
   <g id="LineCollection_1">
    <path d="M 471.363309 169.8725 
L 471.363309 62.255932 
" clip-path="url(#p302a61e514)" style="fill: none; stroke: #800000; stroke-width: 3"/>
   </g>
   <g id="patch_3">
    <path d="M 49.588125 472.2725 
L 49.588125 28.7525 
" style="fill: none; stroke: #000000; stroke-width: 0.8; stroke-linejoin: miter; stroke-linecap: square"/>
   </g>
   <g id="patch_4">
    <path d="M 683.679034 472.2725 
L 683.679034 28.7525 
" style="fill: none; stroke: #000000; stroke-width: 0.8; stroke-linejoin: miter; stroke-linecap: square"/>
   </g>
   <g id="patch_5">
    <path d="M 49.588125 472.2725 
L 683.679034 472.2725 
" style="fill: none; stroke: #000000; stroke-width: 0.8; stroke-linejoin: miter; stroke-linecap: square"/>
   </g>
   <g id="patch_6">
    <path d="M 49.588125 28.7525 
L 683.679034 28.7525 
" style="fill: none; stroke: #000000; stroke-width: 0.8; stroke-linejoin: miter; stroke-linecap: square"/>
   </g>
   <g id="text_15">
    <!-- $\widehat{F_n} - F$, n=10 -->
    <g transform="translate(316.79358 22.7525) scale(0.16 -0.16)">
     <defs>
      <path id="STIXSizeThreeSym-Regular-302" d="M -960 3610 
L -1939 3610 
L -5632 4538 
L -9325 3610 
L -10304 3610 
L -5786 4973 
L -5478 4973 
L -960 3610 
z
" transform="scale(0.015625)"/>
      <path id="DejaVuSans-Oblique-46" d="M 1081 4666 
L 3756 4666 
L 3653 4134 
L 1606 4134 
L 1338 2759 
L 3188 2759 
L 3084 2228 
L 1234 2228 
L 800 0 
L 172 0 
L 1081 4666 
z
" transform="scale(0.015625)"/>
      <path id="DejaVuSans-Oblique-6e" d="M 3566 2113 
L 3156 0 
L 2578 0 
L 2988 2091 
Q 3016 2238 3031 2350 
Q 3047 2463 3047 2528 
Q 3047 2791 2881 2937 
Q 2716 3084 2419 3084 
Q 1956 3084 1622 2776 
Q 1288 2469 1184 1941 
L 800 0 
L 225 0 
L 903 3500 
L 1478 3500 
L 1363 2950 
Q 1603 3253 1940 3418 
Q 2278 3584 2650 3584 
Q 3113 3584 3367 3334 
Q 3622 3084 3622 2631 
Q 3622 2519 3608 2391 
Q 3594 2263 3566 2113 
z
" transform="scale(0.015625)"/>
      <path id="DejaVuSans-2212" d="M 678 2272 
L 4684 2272 
L 4684 1741 
L 678 1741 
L 678 2272 
z
" transform="scale(0.015625)"/>
      <path id="DejaVuSans-2c" d="M 750 794 
L 1409 794 
L 1409 256 
L 897 -744 
L 494 -744 
L 750 256 
L 750 794 
z
" transform="scale(0.015625)"/>
      <path id="DejaVuSans-20" transform="scale(0.015625)"/>
      <path id="DejaVuSans-6e" d="M 3513 2113 
L 3513 0 
L 2938 0 
L 2938 2094 
Q 2938 2591 2744 2837 
Q 2550 3084 2163 3084 
Q 1697 3084 1428 2787 
Q 1159 2491 1159 1978 
L 1159 0 
L 581 0 
L 581 3500 
L 1159 3500 
L 1159 2956 
Q 1366 3272 1645 3428 
Q 1925 3584 2291 3584 
Q 2894 3584 3203 3211 
Q 3513 2838 3513 2113 
z
" transform="scale(0.015625)"/>
      <path id="DejaVuSans-3d" d="M 678 2906 
L 4684 2906 
L 4684 2381 
L 678 2381 
L 678 2906 
z
M 678 1631 
L 4684 1631 
L 4684 1100 
L 678 1100 
L 678 1631 
z
" transform="scale(0.015625)"/>
     </defs>
     <use xlink:href="#STIXSizeThreeSym-Regular-302" transform="translate(128.467285 45.0625) scale(0.716569)"/>
     <use xlink:href="#DejaVuSans-Oblique-46" transform="translate(0 0.265625)"/>
     <use xlink:href="#DejaVuSans-Oblique-6e" transform="translate(57.519531 -16.140625) scale(0.7)"/>
     <use xlink:href="#DejaVuSans-2212" transform="translate(124.101562 0.265625)"/>
     <use xlink:href="#DejaVuSans-Oblique-46" transform="translate(227.373047 0.265625)"/>
     <use xlink:href="#DejaVuSans-2c" transform="translate(284.892578 0.265625)"/>
     <use xlink:href="#DejaVuSans-20" transform="translate(316.679688 0.265625)"/>
     <use xlink:href="#DejaVuSans-6e" transform="translate(348.466797 0.265625)"/>
     <use xlink:href="#DejaVuSans-3d" transform="translate(411.845703 0.265625)"/>
     <use xlink:href="#DejaVuSans-31" transform="translate(495.634766 0.265625)"/>
     <use xlink:href="#DejaVuSans-30" transform="translate(559.257812 0.265625)"/>
    </g>
   </g>
   <g id="legend_1">
    <g id="patch_7">
     <path d="M 60.788125 115.4025 
L 150.708125 115.4025 
Q 153.908125 115.4025 153.908125 112.2025 
L 153.908125 39.9525 
Q 153.908125 36.7525 150.708125 36.7525 
L 60.788125 36.7525 
Q 57.588125 36.7525 57.588125 39.9525 
L 57.588125 112.2025 
Q 57.588125 115.4025 60.788125 115.4025 
z
" style="fill: #ffffff; opacity: 0.8; stroke: #cccccc; stroke-linejoin: miter"/>
    </g>
    <g id="line2d_27">
     <path d="M 63.988125 49.71 
L 79.988125 49.71 
L 95.988125 49.71 
" style="fill: none; stroke: #ffa500; stroke-width: 1.5; stroke-linecap: square"/>
    </g>
    <g id="text_16">
     <!-- F(x) -->
     <g transform="translate(108.788125 55.31) scale(0.16 -0.16)">
      <defs>
       <path id="DejaVuSans-28" d="M 1984 4856 
Q 1566 4138 1362 3434 
Q 1159 2731 1159 2009 
Q 1159 1288 1364 580 
Q 1569 -128 1984 -844 
L 1484 -844 
Q 1016 -109 783 600 
Q 550 1309 550 2009 
Q 550 2706 781 3412 
Q 1013 4119 1484 4856 
L 1984 4856 
z
" transform="scale(0.015625)"/>
       <path id="DejaVuSans-29" d="M 513 4856 
L 1013 4856 
Q 1481 4119 1714 3412 
Q 1947 2706 1947 2009 
Q 1947 1309 1714 600 
Q 1481 -109 1013 -844 
L 513 -844 
Q 928 -128 1133 580 
Q 1338 1288 1338 2009 
Q 1338 2731 1133 3434 
Q 928 4138 513 4856 
z
" transform="scale(0.015625)"/>
      </defs>
      <use xlink:href="#DejaVuSans-46"/>
      <use xlink:href="#DejaVuSans-28" x="57.519531"/>
      <use xlink:href="#DejaVuSans-78" x="96.533203"/>
      <use xlink:href="#DejaVuSans-29" x="155.712891"/>
     </g>
    </g>
    <g id="line2d_28">
     <path d="M 63.988125 76.59 
L 79.988125 76.59 
L 95.988125 76.59 
" style="fill: none; stroke: #0000ff; stroke-width: 1.5; stroke-linecap: square"/>
    </g>
    <g id="text_17">
     <!-- $\widehat{F_n}(x)$ -->
     <g transform="translate(108.788125 82.19) scale(0.16 -0.16)">
      <defs>
       <path id="DejaVuSans-Oblique-78" d="M 3841 3500 
L 2234 1784 
L 3219 0 
L 2559 0 
L 1819 1388 
L 531 0 
L -166 0 
L 1556 1844 
L 641 3500 
L 1300 3500 
L 1972 2234 
L 3144 3500 
L 3841 3500 
z
" transform="scale(0.015625)"/>
      </defs>
      <use xlink:href="#STIXSizeThreeSym-Regular-302" transform="translate(128.467285 45.0625) scale(0.716569)"/>
      <use xlink:href="#DejaVuSans-Oblique-46" transform="translate(0 0.265625)"/>
      <use xlink:href="#DejaVuSans-Oblique-6e" transform="translate(57.519531 -16.140625) scale(0.7)"/>
      <use xlink:href="#DejaVuSans-28" transform="translate(104.619141 0.265625)"/>
      <use xlink:href="#DejaVuSans-Oblique-78" transform="translate(143.632812 0.265625)"/>
      <use xlink:href="#DejaVuSans-29" transform="translate(202.8125 0.265625)"/>
     </g>
    </g>
    <g id="line2d_29">
     <path d="M 63.988125 100.075 
L 95.988125 100.075 
" style="fill: none; stroke: #800000; stroke-width: 3"/>
    </g>
    <g id="text_18">
     <!-- $D_n$ -->
     <g transform="translate(108.788125 105.675) scale(0.16 -0.16)">
      <defs>
       <path id="DejaVuSans-Oblique-44" d="M 1081 4666 
L 2438 4666 
Q 3519 4666 4070 4208 
Q 4622 3750 4622 2847 
Q 4622 2250 4412 1698 
Q 4203 1147 3834 769 
Q 3463 381 2891 190 
Q 2319 0 1538 0 
L 172 0 
L 1081 4666 
z
M 1613 4147 
L 909 519 
L 1734 519 
Q 2794 519 3375 1128 
Q 3956 1738 3956 2847 
Q 3956 3519 3581 3833 
Q 3206 4147 2406 4147 
L 1613 4147 
z
" transform="scale(0.015625)"/>
      </defs>
      <use xlink:href="#DejaVuSans-Oblique-44" transform="translate(0 0.09375)"/>
      <use xlink:href="#DejaVuSans-Oblique-6e" transform="translate(77.001953 -16.3125) scale(0.7)"/>
     </g>
    </g>
   </g>
  </g>
  <g id="axes_2">
   <g id="patch_8">
    <path d="M 810.497216 472.2725 
L 1444.588125 472.2725 
L 1444.588125 28.7525 
L 810.497216 28.7525 
z
" style="fill: #ffffff"/>
   </g>
   <g id="matplotlib.axis_3">
    <g id="xtick_7">
     <g id="line2d_30">
      <path d="M 839.31953 472.2725 
L 839.31953 28.7525 
" clip-path="url(#pcfd88ae694)" style="fill: none; stroke: #b0b0b0; stroke-width: 0.2; stroke-linecap: square"/>
     </g>
     <g id="line2d_31">
      <g>
       <use xlink:href="#m1279bd4660" x="839.31953" y="472.2725" style="stroke: #000000; stroke-width: 0.8"/>
      </g>
     </g>
     <g id="text_19">
      <!-- 0 -->
      <g transform="translate(836.13828 486.870938) scale(0.1 -0.1)">
       <use xlink:href="#DejaVuSans-30"/>
      </g>
     </g>
    </g>
    <g id="xtick_8">
     <g id="line2d_32">
      <path d="M 954.608786 472.2725 
L 954.608786 28.7525 
" clip-path="url(#pcfd88ae694)" style="fill: none; stroke: #b0b0b0; stroke-width: 0.2; stroke-linecap: square"/>
     </g>
     <g id="line2d_33">
      <g>
       <use xlink:href="#m1279bd4660" x="954.608786" y="472.2725" style="stroke: #000000; stroke-width: 0.8"/>
      </g>
     </g>
     <g id="text_20">
      <!-- 1 -->
      <g transform="translate(951.427536 486.870938) scale(0.1 -0.1)">
       <use xlink:href="#DejaVuSans-31"/>
      </g>
     </g>
    </g>
    <g id="xtick_9">
     <g id="line2d_34">
      <path d="M 1069.898042 472.2725 
L 1069.898042 28.7525 
" clip-path="url(#pcfd88ae694)" style="fill: none; stroke: #b0b0b0; stroke-width: 0.2; stroke-linecap: square"/>
     </g>
     <g id="line2d_35">
      <g>
       <use xlink:href="#m1279bd4660" x="1069.898042" y="472.2725" style="stroke: #000000; stroke-width: 0.8"/>
      </g>
     </g>
     <g id="text_21">
      <!-- 2 -->
      <g transform="translate(1066.716792 486.870938) scale(0.1 -0.1)">
       <use xlink:href="#DejaVuSans-32"/>
      </g>
     </g>
    </g>
    <g id="xtick_10">
     <g id="line2d_36">
      <path d="M 1185.187299 472.2725 
L 1185.187299 28.7525 
" clip-path="url(#pcfd88ae694)" style="fill: none; stroke: #b0b0b0; stroke-width: 0.2; stroke-linecap: square"/>
     </g>
     <g id="line2d_37">
      <g>
       <use xlink:href="#m1279bd4660" x="1185.187299" y="472.2725" style="stroke: #000000; stroke-width: 0.8"/>
      </g>
     </g>
     <g id="text_22">
      <!-- 3 -->
      <g transform="translate(1182.006049 486.870938) scale(0.1 -0.1)">
       <use xlink:href="#DejaVuSans-33"/>
      </g>
     </g>
    </g>
    <g id="xtick_11">
     <g id="line2d_38">
      <path d="M 1300.476555 472.2725 
L 1300.476555 28.7525 
" clip-path="url(#pcfd88ae694)" style="fill: none; stroke: #b0b0b0; stroke-width: 0.2; stroke-linecap: square"/>
     </g>
     <g id="line2d_39">
      <g>
       <use xlink:href="#m1279bd4660" x="1300.476555" y="472.2725" style="stroke: #000000; stroke-width: 0.8"/>
      </g>
     </g>
     <g id="text_23">
      <!-- 4 -->
      <g transform="translate(1297.295305 486.870938) scale(0.1 -0.1)">
       <use xlink:href="#DejaVuSans-34"/>
      </g>
     </g>
    </g>
    <g id="xtick_12">
     <g id="line2d_40">
      <path d="M 1415.765811 472.2725 
L 1415.765811 28.7525 
" clip-path="url(#pcfd88ae694)" style="fill: none; stroke: #b0b0b0; stroke-width: 0.2; stroke-linecap: square"/>
     </g>
     <g id="line2d_41">
      <g>
       <use xlink:href="#m1279bd4660" x="1415.765811" y="472.2725" style="stroke: #000000; stroke-width: 0.8"/>
      </g>
     </g>
     <g id="text_24">
      <!-- 5 -->
      <g transform="translate(1412.584561 486.870938) scale(0.1 -0.1)">
       <use xlink:href="#DejaVuSans-35"/>
      </g>
     </g>
    </g>
    <g id="text_25">
     <!-- x -->
     <g transform="translate(1122.80767 505.108125) scale(0.16 -0.16)">
      <use xlink:href="#DejaVuSans-78"/>
     </g>
    </g>
   </g>
   <g id="matplotlib.axis_4">
    <g id="ytick_7">
     <g id="line2d_42">
      <path d="M 810.497216 452.1125 
L 1444.588125 452.1125 
" clip-path="url(#pcfd88ae694)" style="fill: none; stroke: #b0b0b0; stroke-width: 0.2; stroke-linecap: square"/>
     </g>
     <g id="line2d_43">
      <g>
       <use xlink:href="#m655eb8aca6" x="810.497216" y="452.1125" style="stroke: #000000; stroke-width: 0.8"/>
      </g>
     </g>
     <g id="text_26">
      <!-- 0.0 -->
      <g transform="translate(787.594091 455.911719) scale(0.1 -0.1)">
       <use xlink:href="#DejaVuSans-30"/>
       <use xlink:href="#DejaVuSans-2e" x="63.623047"/>
       <use xlink:href="#DejaVuSans-30" x="95.410156"/>
      </g>
     </g>
    </g>
    <g id="ytick_8">
     <g id="line2d_44">
      <path d="M 810.497216 371.4725 
L 1444.588125 371.4725 
" clip-path="url(#pcfd88ae694)" style="fill: none; stroke: #b0b0b0; stroke-width: 0.2; stroke-linecap: square"/>
     </g>
     <g id="line2d_45">
      <g>
       <use xlink:href="#m655eb8aca6" x="810.497216" y="371.4725" style="stroke: #000000; stroke-width: 0.8"/>
      </g>
     </g>
     <g id="text_27">
      <!-- 0.2 -->
      <g transform="translate(787.594091 375.271719) scale(0.1 -0.1)">
       <use xlink:href="#DejaVuSans-30"/>
       <use xlink:href="#DejaVuSans-2e" x="63.623047"/>
       <use xlink:href="#DejaVuSans-32" x="95.410156"/>
      </g>
     </g>
    </g>
    <g id="ytick_9">
     <g id="line2d_46">
      <path d="M 810.497216 290.8325 
L 1444.588125 290.8325 
" clip-path="url(#pcfd88ae694)" style="fill: none; stroke: #b0b0b0; stroke-width: 0.2; stroke-linecap: square"/>
     </g>
     <g id="line2d_47">
      <g>
       <use xlink:href="#m655eb8aca6" x="810.497216" y="290.8325" style="stroke: #000000; stroke-width: 0.8"/>
      </g>
     </g>
     <g id="text_28">
      <!-- 0.4 -->
      <g transform="translate(787.594091 294.631719) scale(0.1 -0.1)">
       <use xlink:href="#DejaVuSans-30"/>
       <use xlink:href="#DejaVuSans-2e" x="63.623047"/>
       <use xlink:href="#DejaVuSans-34" x="95.410156"/>
      </g>
     </g>
    </g>
    <g id="ytick_10">
     <g id="line2d_48">
      <path d="M 810.497216 210.1925 
L 1444.588125 210.1925 
" clip-path="url(#pcfd88ae694)" style="fill: none; stroke: #b0b0b0; stroke-width: 0.2; stroke-linecap: square"/>
     </g>
     <g id="line2d_49">
      <g>
       <use xlink:href="#m655eb8aca6" x="810.497216" y="210.1925" style="stroke: #000000; stroke-width: 0.8"/>
      </g>
     </g>
     <g id="text_29">
      <!-- 0.6 -->
      <g transform="translate(787.594091 213.991719) scale(0.1 -0.1)">
       <use xlink:href="#DejaVuSans-30"/>
       <use xlink:href="#DejaVuSans-2e" x="63.623047"/>
       <use xlink:href="#DejaVuSans-36" x="95.410156"/>
      </g>
     </g>
    </g>
    <g id="ytick_11">
     <g id="line2d_50">
      <path d="M 810.497216 129.5525 
L 1444.588125 129.5525 
" clip-path="url(#pcfd88ae694)" style="fill: none; stroke: #b0b0b0; stroke-width: 0.2; stroke-linecap: square"/>
     </g>
     <g id="line2d_51">
      <g>
       <use xlink:href="#m655eb8aca6" x="810.497216" y="129.5525" style="stroke: #000000; stroke-width: 0.8"/>
      </g>
     </g>
     <g id="text_30">
      <!-- 0.8 -->
      <g transform="translate(787.594091 133.351719) scale(0.1 -0.1)">
       <use xlink:href="#DejaVuSans-30"/>
       <use xlink:href="#DejaVuSans-2e" x="63.623047"/>
       <use xlink:href="#DejaVuSans-38" x="95.410156"/>
      </g>
     </g>
    </g>
    <g id="ytick_12">
     <g id="line2d_52">
      <path d="M 810.497216 48.9125 
L 1444.588125 48.9125 
" clip-path="url(#pcfd88ae694)" style="fill: none; stroke: #b0b0b0; stroke-width: 0.2; stroke-linecap: square"/>
     </g>
     <g id="line2d_53">
      <g>
       <use xlink:href="#m655eb8aca6" x="810.497216" y="48.9125" style="stroke: #000000; stroke-width: 0.8"/>
      </g>
     </g>
     <g id="text_31">
      <!-- 1.0 -->
      <g transform="translate(787.594091 52.711719) scale(0.1 -0.1)">
       <use xlink:href="#DejaVuSans-31"/>
       <use xlink:href="#DejaVuSans-2e" x="63.623047"/>
       <use xlink:href="#DejaVuSans-30" x="95.410156"/>
      </g>
     </g>
    </g>
    <g id="text_32">
     <!-- CDF -->
     <g transform="translate(780.266591 266.86) rotate(-90) scale(0.16 -0.16)">
      <use xlink:href="#DejaVuSans-43"/>
      <use xlink:href="#DejaVuSans-44" x="69.824219"/>
      <use xlink:href="#DejaVuSans-46" x="146.826172"/>
     </g>
    </g>
   </g>
   <g id="line2d_54">
    <path d="M 839.31953 452.1125 
L 844.51274 434.353322 
L 849.705949 417.376357 
L 854.899159 401.147153 
L 860.092369 385.632773 
L 865.285579 370.801734 
L 870.478788 356.623936 
L 875.671998 343.070607 
L 880.865208 330.114242 
L 886.058418 317.728549 
L 891.251627 305.88839 
L 896.444837 294.569738 
L 901.638047 283.749622 
L 906.831257 273.406085 
L 912.024466 263.518135 
L 917.217676 254.065705 
L 922.410886 245.029613 
L 928.181119 235.455532 
L 933.951352 226.34884 
L 939.721585 217.68672 
L 945.491818 209.447469 
L 951.262051 201.610444 
L 957.032284 194.156007 
L 962.802517 187.065483 
L 968.57275 180.321106 
L 974.342983 173.905976 
L 980.113216 167.804022 
L 985.883449 161.999954 
L 992.230706 155.942203 
L 998.577962 150.208947 
L 1004.925218 144.782804 
L 1011.272475 139.647324 
L 1017.619731 134.786935 
L 1023.966987 130.186903 
L 1030.891267 125.449253 
L 1037.815547 120.98777 
L 1044.739826 116.786357 
L 1051.664106 112.829852 
L 1059.165409 108.803474 
L 1066.666712 105.030732 
L 1074.168015 101.495648 
L 1082.246341 97.937267 
L 1090.324667 94.619687 
L 1098.980017 91.313861 
L 1107.635366 88.247133 
L 1116.867739 85.220036 
L 1126.100112 82.425896 
L 1135.909508 79.692347 
L 1146.295928 77.040627 
L 1156.682347 74.617357 
L 1167.64579 72.285579 
L 1179.186256 70.059219 
L 1191.303746 67.949409 
L 1203.998258 65.964535 
L 1217.269794 64.110357 
L 1231.695377 62.322884 
L 1246.697983 60.686564 
L 1262.854635 59.146946 
L 1280.165334 57.720046 
L 1299.207103 56.37913 
L 1319.979942 55.14803 
L 1342.483851 54.042309 
L 1367.295853 53.049013 
L 1394.992972 52.165615 
L 1415.765811 51.62924 
L 1415.765811 51.62924 
" clip-path="url(#pcfd88ae694)" style="fill: none; stroke: #ffa500; stroke-width: 1.5; stroke-linecap: square"/>
   </g>
   <g id="line2d_55">
    <path d="M 839.31953 452.1125 
L 839.896553 452.1125 
L 840.473577 444.0485 
L 844.51274 444.0485 
L 845.089763 435.9845 
L 846.820833 435.9845 
L 847.397856 431.9525 
L 847.97488 431.9525 
L 848.551903 427.9205 
L 849.128926 427.9205 
L 849.705949 423.8885 
L 852.014043 423.8885 
L 853.168089 415.8245 
L 854.899159 415.8245 
L 855.476182 411.7925 
L 857.784276 411.7925 
L 858.361299 407.7605 
L 858.938322 407.7605 
L 861.246416 391.6325 
L 861.823439 391.6325 
L 864.131532 375.5045 
L 864.708555 375.5045 
L 865.285579 371.4725 
L 867.016649 371.4725 
L 867.593672 367.4405 
L 871.632835 367.4405 
L 872.209858 363.4085 
L 872.786882 363.4085 
L 873.363905 355.3445 
L 885.481394 355.3445 
L 886.058418 351.3125 
L 888.943534 351.3125 
L 889.520557 347.2805 
L 891.251627 347.2805 
L 891.828651 335.1845 
L 893.559721 335.1845 
L 894.136744 331.1525 
L 895.29079 331.1525 
L 895.867814 327.1205 
L 896.444837 327.1205 
L 897.02186 323.0885 
L 897.598884 323.0885 
L 899.906977 306.9605 
L 901.061024 306.9605 
L 901.638047 302.9285 
L 903.94614 302.9285 
L 905.100187 294.8645 
L 905.67721 286.8005 
L 912.60149 286.8005 
L 913.178513 282.7685 
L 916.063629 282.7685 
L 916.640653 278.7365 
L 918.371723 278.7365 
L 918.948746 274.7045 
L 919.525769 274.7045 
L 920.102793 270.6725 
L 921.256839 270.6725 
L 921.833862 266.6405 
L 922.410886 266.6405 
L 922.987909 258.5765 
L 924.141956 258.5765 
L 925.873026 246.4805 
L 928.758142 246.4805 
L 929.335165 242.4485 
L 929.912189 242.4485 
L 931.066235 234.3845 
L 932.220282 234.3845 
L 932.797305 230.3525 
L 936.836468 230.3525 
L 937.413492 222.2885 
L 943.183725 222.2885 
L 943.760748 218.2565 
L 944.337771 210.1925 
L 944.914795 210.1925 
L 946.068841 202.1285 
L 948.953958 202.1285 
L 949.530981 198.0965 
L 950.108004 198.0965 
L 950.685028 194.0645 
L 951.839074 194.0645 
L 952.416098 186.0005 
L 955.878237 186.0005 
L 956.455261 177.9365 
L 959.917401 177.9365 
L 960.494424 173.9045 
L 965.687634 173.9045 
L 966.264657 169.8725 
L 972.03489 169.8725 
L 973.188937 161.8085 
L 977.2281 161.8085 
L 977.805123 157.7765 
L 983.575356 157.7765 
L 984.152379 153.7445 
L 991.076659 153.7445 
L 992.230706 145.6805 
L 1007.233312 145.6805 
L 1007.810335 137.6165 
L 1013.003545 137.6165 
L 1013.580568 133.5845 
L 1017.042708 133.5845 
L 1017.619731 129.5525 
L 1030.314244 129.5525 
L 1030.891267 125.5205 
L 1043.58578 125.5205 
L 1044.162803 121.4885 
L 1052.818153 121.4885 
L 1053.395176 117.4565 
L 1054.549222 117.4565 
L 1055.126246 113.4245 
L 1066.666712 113.4245 
L 1067.243735 109.3925 
L 1068.397782 109.3925 
L 1068.974805 105.3605 
L 1070.705875 105.3605 
L 1071.859922 97.2965 
L 1098.402994 97.2965 
L 1098.980017 93.2645 
L 1099.55704 93.2645 
L 1100.134064 89.2325 
L 1109.94346 89.2325 
L 1110.520483 85.2005 
L 1127.831182 85.2005 
L 1128.408205 81.1685 
L 1140.525695 81.1685 
L 1141.102718 77.1365 
L 1158.990441 77.1365 
L 1159.567464 73.1045 
L 1182.071373 73.1045 
L 1182.648396 69.0725 
L 1201.113142 69.0725 
L 1201.690165 65.0405 
L 1232.2724 65.0405 
L 1232.849423 61.0085 
L 1254.199286 61.0085 
L 1254.776309 56.9765 
L 1270.355938 56.9765 
L 1270.932962 52.9445 
L 1311.324593 52.9445 
L 1311.901616 48.9125 
L 1415.765811 48.9125 
L 1415.765811 48.9125 
" clip-path="url(#pcfd88ae694)" style="fill: none; stroke: #0000ff; stroke-width: 1.5; stroke-linecap: square"/>
   </g>
   <g id="LineCollection_2">
    <path d="M 891.251627 347.2805 
L 891.251627 305.88839 
" clip-path="url(#pcfd88ae694)" style="fill: none; stroke: #800000; stroke-width: 3"/>
   </g>
   <g id="patch_9">
    <path d="M 810.497216 472.2725 
L 810.497216 28.7525 
" style="fill: none; stroke: #000000; stroke-width: 0.8; stroke-linejoin: miter; stroke-linecap: square"/>
   </g>
   <g id="patch_10">
    <path d="M 1444.588125 472.2725 
L 1444.588125 28.7525 
" style="fill: none; stroke: #000000; stroke-width: 0.8; stroke-linejoin: miter; stroke-linecap: square"/>
   </g>
   <g id="patch_11">
    <path d="M 810.497216 472.2725 
L 1444.588125 472.2725 
" style="fill: none; stroke: #000000; stroke-width: 0.8; stroke-linejoin: miter; stroke-linecap: square"/>
   </g>
   <g id="patch_12">
    <path d="M 810.497216 28.7525 
L 1444.588125 28.7525 
" style="fill: none; stroke: #000000; stroke-width: 0.8; stroke-linejoin: miter; stroke-linecap: square"/>
   </g>
   <g id="text_33">
    <!-- $\widehat{F_n} - F$, n=100 -->
    <g transform="translate(1072.58267 22.7525) scale(0.16 -0.16)">
     <use xlink:href="#STIXSizeThreeSym-Regular-302" transform="translate(128.467285 45.0625) scale(0.716569)"/>
     <use xlink:href="#DejaVuSans-Oblique-46" transform="translate(0 0.265625)"/>
     <use xlink:href="#DejaVuSans-Oblique-6e" transform="translate(57.519531 -16.140625) scale(0.7)"/>
     <use xlink:href="#DejaVuSans-2212" transform="translate(124.101562 0.265625)"/>
     <use xlink:href="#DejaVuSans-Oblique-46" transform="translate(227.373047 0.265625)"/>
     <use xlink:href="#DejaVuSans-2c" transform="translate(284.892578 0.265625)"/>
     <use xlink:href="#DejaVuSans-20" transform="translate(316.679688 0.265625)"/>
     <use xlink:href="#DejaVuSans-6e" transform="translate(348.466797 0.265625)"/>
     <use xlink:href="#DejaVuSans-3d" transform="translate(411.845703 0.265625)"/>
     <use xlink:href="#DejaVuSans-31" transform="translate(495.634766 0.265625)"/>
     <use xlink:href="#DejaVuSans-30" transform="translate(559.257812 0.265625)"/>
     <use xlink:href="#DejaVuSans-30" transform="translate(622.880859 0.265625)"/>
    </g>
   </g>
   <g id="legend_2">
    <g id="patch_13">
     <path d="M 821.697216 115.4025 
L 911.617216 115.4025 
Q 914.817216 115.4025 914.817216 112.2025 
L 914.817216 39.9525 
Q 914.817216 36.7525 911.617216 36.7525 
L 821.697216 36.7525 
Q 818.497216 36.7525 818.497216 39.9525 
L 818.497216 112.2025 
Q 818.497216 115.4025 821.697216 115.4025 
z
" style="fill: #ffffff; opacity: 0.8; stroke: #cccccc; stroke-linejoin: miter"/>
    </g>
    <g id="line2d_56">
     <path d="M 824.897216 49.71 
L 840.897216 49.71 
L 856.897216 49.71 
" style="fill: none; stroke: #ffa500; stroke-width: 1.5; stroke-linecap: square"/>
    </g>
    <g id="text_34">
     <!-- F(x) -->
     <g transform="translate(869.697216 55.31) scale(0.16 -0.16)">
      <use xlink:href="#DejaVuSans-46"/>
      <use xlink:href="#DejaVuSans-28" x="57.519531"/>
      <use xlink:href="#DejaVuSans-78" x="96.533203"/>
      <use xlink:href="#DejaVuSans-29" x="155.712891"/>
     </g>
    </g>
    <g id="line2d_57">
     <path d="M 824.897216 76.59 
L 840.897216 76.59 
L 856.897216 76.59 
" style="fill: none; stroke: #0000ff; stroke-width: 1.5; stroke-linecap: square"/>
    </g>
    <g id="text_35">
     <!-- $\widehat{F_n}(x)$ -->
     <g transform="translate(869.697216 82.19) scale(0.16 -0.16)">
      <use xlink:href="#STIXSizeThreeSym-Regular-302" transform="translate(128.467285 45.0625) scale(0.716569)"/>
      <use xlink:href="#DejaVuSans-Oblique-46" transform="translate(0 0.265625)"/>
      <use xlink:href="#DejaVuSans-Oblique-6e" transform="translate(57.519531 -16.140625) scale(0.7)"/>
      <use xlink:href="#DejaVuSans-28" transform="translate(104.619141 0.265625)"/>
      <use xlink:href="#DejaVuSans-Oblique-78" transform="translate(143.632812 0.265625)"/>
      <use xlink:href="#DejaVuSans-29" transform="translate(202.8125 0.265625)"/>
     </g>
    </g>
    <g id="line2d_58">
     <path d="M 824.897216 100.075 
L 856.897216 100.075 
" style="fill: none; stroke: #800000; stroke-width: 3"/>
    </g>
    <g id="text_36">
     <!-- $D_n$ -->
     <g transform="translate(869.697216 105.675) scale(0.16 -0.16)">
      <use xlink:href="#DejaVuSans-Oblique-44" transform="translate(0 0.09375)"/>
      <use xlink:href="#DejaVuSans-Oblique-6e" transform="translate(77.001953 -16.3125) scale(0.7)"/>
     </g>
    </g>
   </g>
  </g>
 </g>
 <defs>
  <clipPath id="p302a61e514">
   <rect x="49.588125" y="28.7525" width="634.090909" height="443.52"/>
  </clipPath>
  <clipPath id="pcfd88ae694">
   <rect x="810.497216" y="28.7525" width="634.090909" height="443.52"/>
  </clipPath>
 </defs>
</svg>
