<?xml version="1.0" encoding="utf-8" standalone="no"?>
<!DOCTYPE svg PUBLIC "-//W3C//DTD SVG 1.1//EN"
  "http://www.w3.org/Graphics/SVG/1.1/DTD/svg11.dtd">
<svg xmlns:xlink="http://www.w3.org/1999/xlink" width="1458.150625pt" height="512.240625pt" viewBox="0 0 1458.150625 512.240625" xmlns="http://www.w3.org/2000/svg" version="1.1">
 <metadata>
  <rdf:RDF xmlns:dc="http://purl.org/dc/elements/1.1/" xmlns:cc="http://creativecommons.org/ns#" xmlns:rdf="http://www.w3.org/1999/02/22-rdf-syntax-ns#">
   <cc:Work>
    <dc:type rdf:resource="http://purl.org/dc/dcmitype/StillImage"/>
    <dc:date>2024-12-26T00:55:22.689519</dc:date>
    <dc:format>image/svg+xml</dc:format>
    <dc:creator>
     <cc:Agent>
      <dc:title>Matplotlib v3.7.2, https://matplotlib.org/</dc:title>
     </cc:Agent>
    </dc:creator>
   </cc:Work>
  </rdf:RDF>
 </metadata>
 <defs>
  <style type="text/css">*{stroke-linejoin: round; stroke-linecap: butt}</style>
 </defs>
 <g id="figure_1">
  <g id="patch_1">
   <path d="M 0 512.240625 
L 1458.150625 512.240625 
L 1458.150625 0 
L 0 0 
z
" style="fill: #ffffff"/>
  </g>
  <g id="axes_1">
   <g id="patch_2">
    <path d="M 55.950625 468.8775 
L 690.041534 468.8775 
L 690.041534 25.3575 
L 55.950625 25.3575 
z
" style="fill: #ffffff"/>
   </g>
   <g id="patch_3">
    <path d="M 164.717823 468.8775 
L 174.000084 468.8775 
L 174.000084 463.814486 
L 164.717823 463.814486 
z
" clip-path="url(#p950a2e67bb)" style="fill: #1f77b4; opacity: 0.4"/>
   </g>
   <g id="patch_4">
    <path d="M 174.000084 468.8775 
L 183.282345 468.8775 
L 183.282345 454.411747 
L 174.000084 454.411747 
z
" clip-path="url(#p950a2e67bb)" style="fill: #1f77b4; opacity: 0.4"/>
   </g>
   <g id="patch_5">
    <path d="M 183.282345 468.8775 
L 192.564606 468.8775 
L 192.564606 430.543253 
L 183.282345 430.543253 
z
" clip-path="url(#p950a2e67bb)" style="fill: #1f77b4; opacity: 0.4"/>
   </g>
   <g id="patch_6">
    <path d="M 192.564606 468.8775 
L 201.846867 468.8775 
L 201.846867 385.699418 
L 192.564606 385.699418 
z
" clip-path="url(#p950a2e67bb)" style="fill: #1f77b4; opacity: 0.4"/>
   </g>
   <g id="patch_7">
    <path d="M 201.846867 468.8775 
L 211.129128 468.8775 
L 211.129128 302.521336 
L 201.846867 302.521336 
z
" clip-path="url(#p950a2e67bb)" style="fill: #1f77b4; opacity: 0.4"/>
   </g>
   <g id="patch_8">
    <path d="M 211.129128 468.8775 
L 220.411389 468.8775 
L 220.411389 281.545993 
L 211.129128 281.545993 
z
" clip-path="url(#p950a2e67bb)" style="fill: #1f77b4; opacity: 0.4"/>
   </g>
   <g id="patch_9">
    <path d="M 220.411389 468.8775 
L 229.69365 468.8775 
L 229.69365 207.770651 
L 220.411389 207.770651 
z
" clip-path="url(#p950a2e67bb)" style="fill: #1f77b4; opacity: 0.4"/>
   </g>
   <g id="patch_10">
    <path d="M 229.69365 468.8775 
L 238.975911 468.8775 
L 238.975911 173.052842 
L 229.69365 173.052842 
z
" clip-path="url(#p950a2e67bb)" style="fill: #1f77b4; opacity: 0.4"/>
   </g>
   <g id="patch_11">
    <path d="M 238.975911 468.8775 
L 248.258172 468.8775 
L 248.258172 130.37887 
L 238.975911 130.37887 
z
" clip-path="url(#p950a2e67bb)" style="fill: #1f77b4; opacity: 0.4"/>
   </g>
   <g id="patch_12">
    <path d="M 248.258172 468.8775 
L 257.540433 468.8775 
L 257.540433 99.2775 
L 248.258172 99.2775 
z
" clip-path="url(#p950a2e67bb)" style="fill: #1f77b4; opacity: 0.4"/>
   </g>
   <g id="patch_13">
    <path d="M 257.540433 468.8775 
L 266.822694 468.8775 
L 266.822694 49.370651 
L 257.540433 49.370651 
z
" clip-path="url(#p950a2e67bb)" style="fill: #1f77b4; opacity: 0.4"/>
   </g>
   <g id="patch_14">
    <path d="M 266.822694 468.8775 
L 276.104954 468.8775 
L 276.104954 57.326815 
L 266.822694 57.326815 
z
" clip-path="url(#p950a2e67bb)" style="fill: #1f77b4; opacity: 0.4"/>
   </g>
   <g id="patch_15">
    <path d="M 276.104954 468.8775 
L 285.387215 468.8775 
L 285.387215 46.4775 
L 276.104954 46.4775 
z
" clip-path="url(#p950a2e67bb)" style="fill: #1f77b4; opacity: 0.4"/>
   </g>
   <g id="patch_16">
    <path d="M 285.387215 468.8775 
L 294.669476 468.8775 
L 294.669476 47.200788 
L 285.387215 47.200788 
z
" clip-path="url(#p950a2e67bb)" style="fill: #1f77b4; opacity: 0.4"/>
   </g>
   <g id="patch_17">
    <path d="M 294.669476 468.8775 
L 303.951737 468.8775 
L 303.951737 63.836404 
L 294.669476 63.836404 
z
" clip-path="url(#p950a2e67bb)" style="fill: #1f77b4; opacity: 0.4"/>
   </g>
   <g id="patch_18">
    <path d="M 303.951737 468.8775 
L 313.233998 468.8775 
L 313.233998 70.345993 
L 303.951737 70.345993 
z
" clip-path="url(#p950a2e67bb)" style="fill: #1f77b4; opacity: 0.4"/>
   </g>
   <g id="patch_19">
    <path d="M 313.233998 468.8775 
L 322.516259 468.8775 
L 322.516259 94.214486 
L 313.233998 94.214486 
z
" clip-path="url(#p950a2e67bb)" style="fill: #1f77b4; opacity: 0.4"/>
   </g>
   <g id="patch_20">
    <path d="M 322.516259 468.8775 
L 331.79852 468.8775 
L 331.79852 146.291199 
L 322.516259 146.291199 
z
" clip-path="url(#p950a2e67bb)" style="fill: #1f77b4; opacity: 0.4"/>
   </g>
   <g id="patch_21">
    <path d="M 331.79852 468.8775 
L 341.080781 468.8775 
L 341.080781 187.518596 
L 331.79852 187.518596 
z
" clip-path="url(#p950a2e67bb)" style="fill: #1f77b4; opacity: 0.4"/>
   </g>
   <g id="patch_22">
    <path d="M 341.080781 468.8775 
L 350.363042 468.8775 
L 350.363042 217.896678 
L 341.080781 217.896678 
z
" clip-path="url(#p950a2e67bb)" style="fill: #1f77b4; opacity: 0.4"/>
   </g>
   <g id="patch_23">
    <path d="M 350.363042 468.8775 
L 359.645303 468.8775 
L 359.645303 241.041884 
L 350.363042 241.041884 
z
" clip-path="url(#p950a2e67bb)" style="fill: #1f77b4; opacity: 0.4"/>
   </g>
   <g id="patch_24">
    <path d="M 359.645303 468.8775 
L 368.927564 468.8775 
L 368.927564 255.507637 
L 359.645303 255.507637 
z
" clip-path="url(#p950a2e67bb)" style="fill: #1f77b4; opacity: 0.4"/>
   </g>
   <g id="patch_25">
    <path d="M 368.927564 468.8775 
L 378.209825 468.8775 
L 378.209825 269.250103 
L 368.927564 269.250103 
z
" clip-path="url(#p950a2e67bb)" style="fill: #1f77b4; opacity: 0.4"/>
   </g>
   <g id="patch_26">
    <path d="M 378.209825 468.8775 
L 387.492086 468.8775 
L 387.492086 313.370651 
L 378.209825 313.370651 
z
" clip-path="url(#p950a2e67bb)" style="fill: #1f77b4; opacity: 0.4"/>
   </g>
   <g id="patch_27">
    <path d="M 387.492086 468.8775 
L 396.774347 468.8775 
L 396.774347 295.288459 
L 387.492086 295.288459 
z
" clip-path="url(#p950a2e67bb)" style="fill: #1f77b4; opacity: 0.4"/>
   </g>
   <g id="patch_28">
    <path d="M 396.774347 468.8775 
L 406.056608 468.8775 
L 406.056608 346.641884 
L 396.774347 346.641884 
z
" clip-path="url(#p950a2e67bb)" style="fill: #1f77b4; opacity: 0.4"/>
   </g>
   <g id="patch_29">
    <path d="M 406.056608 468.8775 
L 415.338869 468.8775 
L 415.338869 364.724075 
L 406.056608 364.724075 
z
" clip-path="url(#p950a2e67bb)" style="fill: #1f77b4; opacity: 0.4"/>
   </g>
   <g id="patch_30">
    <path d="M 415.338869 468.8775 
L 424.62113 468.8775 
L 424.62113 373.403527 
L 415.338869 373.403527 
z
" clip-path="url(#p950a2e67bb)" style="fill: #1f77b4; opacity: 0.4"/>
   </g>
   <g id="patch_31">
    <path d="M 424.62113 468.8775 
L 433.903391 468.8775 
L 433.903391 376.296678 
L 424.62113 376.296678 
z
" clip-path="url(#p950a2e67bb)" style="fill: #1f77b4; opacity: 0.4"/>
   </g>
   <g id="patch_32">
    <path d="M 433.903391 468.8775 
L 443.185652 468.8775 
L 443.185652 406.67476 
L 433.903391 406.67476 
z
" clip-path="url(#p950a2e67bb)" style="fill: #1f77b4; opacity: 0.4"/>
   </g>
   <g id="patch_33">
    <path d="M 443.185652 468.8775 
L 452.467913 468.8775 
L 452.467913 406.67476 
L 443.185652 406.67476 
z
" clip-path="url(#p950a2e67bb)" style="fill: #1f77b4; opacity: 0.4"/>
   </g>
   <g id="patch_34">
    <path d="M 452.467913 468.8775 
L 461.750173 468.8775 
L 461.750173 421.140514 
L 452.467913 421.140514 
z
" clip-path="url(#p950a2e67bb)" style="fill: #1f77b4; opacity: 0.4"/>
   </g>
   <g id="patch_35">
    <path d="M 461.750173 468.8775 
L 471.032434 468.8775 
L 471.032434 430.543253 
L 461.750173 430.543253 
z
" clip-path="url(#p950a2e67bb)" style="fill: #1f77b4; opacity: 0.4"/>
   </g>
   <g id="patch_36">
    <path d="M 471.032434 468.8775 
L 480.314695 468.8775 
L 480.314695 427.650103 
L 471.032434 427.650103 
z
" clip-path="url(#p950a2e67bb)" style="fill: #1f77b4; opacity: 0.4"/>
   </g>
   <g id="patch_37">
    <path d="M 480.314695 468.8775 
L 489.596956 468.8775 
L 489.596956 444.285719 
L 480.314695 444.285719 
z
" clip-path="url(#p950a2e67bb)" style="fill: #1f77b4; opacity: 0.4"/>
   </g>
   <g id="patch_38">
    <path d="M 489.596956 468.8775 
L 498.879217 468.8775 
L 498.879217 442.115856 
L 489.596956 442.115856 
z
" clip-path="url(#p950a2e67bb)" style="fill: #1f77b4; opacity: 0.4"/>
   </g>
   <g id="patch_39">
    <path d="M 498.879217 468.8775 
L 508.161478 468.8775 
L 508.161478 450.072021 
L 498.879217 450.072021 
z
" clip-path="url(#p950a2e67bb)" style="fill: #1f77b4; opacity: 0.4"/>
   </g>
   <g id="patch_40">
    <path d="M 508.161478 468.8775 
L 517.443739 468.8775 
L 517.443739 449.348733 
L 508.161478 449.348733 
z
" clip-path="url(#p950a2e67bb)" style="fill: #1f77b4; opacity: 0.4"/>
   </g>
   <g id="patch_41">
    <path d="M 517.443739 468.8775 
L 526.726 468.8775 
L 526.726 458.028185 
L 517.443739 458.028185 
z
" clip-path="url(#p950a2e67bb)" style="fill: #1f77b4; opacity: 0.4"/>
   </g>
   <g id="patch_42">
    <path d="M 526.726 468.8775 
L 536.008261 468.8775 
L 536.008261 460.921336 
L 526.726 460.921336 
z
" clip-path="url(#p950a2e67bb)" style="fill: #1f77b4; opacity: 0.4"/>
   </g>
   <g id="patch_43">
    <path d="M 536.008261 468.8775 
L 545.290522 468.8775 
L 545.290522 462.367911 
L 536.008261 462.367911 
z
" clip-path="url(#p950a2e67bb)" style="fill: #1f77b4; opacity: 0.4"/>
   </g>
   <g id="patch_44">
    <path d="M 545.290522 468.8775 
L 554.572783 468.8775 
L 554.572783 465.261062 
L 545.290522 465.261062 
z
" clip-path="url(#p950a2e67bb)" style="fill: #1f77b4; opacity: 0.4"/>
   </g>
   <g id="patch_45">
    <path d="M 554.572783 468.8775 
L 563.855044 468.8775 
L 563.855044 465.984349 
L 554.572783 465.984349 
z
" clip-path="url(#p950a2e67bb)" style="fill: #1f77b4; opacity: 0.4"/>
   </g>
   <g id="patch_46">
    <path d="M 563.855044 468.8775 
L 573.137305 468.8775 
L 573.137305 465.261062 
L 563.855044 465.261062 
z
" clip-path="url(#p950a2e67bb)" style="fill: #1f77b4; opacity: 0.4"/>
   </g>
   <g id="patch_47">
    <path d="M 573.137305 468.8775 
L 582.419566 468.8775 
L 582.419566 468.8775 
L 573.137305 468.8775 
z
" clip-path="url(#p950a2e67bb)" style="fill: #1f77b4; opacity: 0.4"/>
   </g>
   <g id="patch_48">
    <path d="M 582.419566 468.8775 
L 591.701827 468.8775 
L 591.701827 468.154212 
L 582.419566 468.154212 
z
" clip-path="url(#p950a2e67bb)" style="fill: #1f77b4; opacity: 0.4"/>
   </g>
   <g id="patch_49">
    <path d="M 591.701827 468.8775 
L 600.984088 468.8775 
L 600.984088 466.707637 
L 591.701827 466.707637 
z
" clip-path="url(#p950a2e67bb)" style="fill: #1f77b4; opacity: 0.4"/>
   </g>
   <g id="patch_50">
    <path d="M 600.984088 468.8775 
L 610.266349 468.8775 
L 610.266349 468.8775 
L 600.984088 468.8775 
z
" clip-path="url(#p950a2e67bb)" style="fill: #1f77b4; opacity: 0.4"/>
   </g>
   <g id="patch_51">
    <path d="M 610.266349 468.8775 
L 619.54861 468.8775 
L 619.54861 468.8775 
L 610.266349 468.8775 
z
" clip-path="url(#p950a2e67bb)" style="fill: #1f77b4; opacity: 0.4"/>
   </g>
   <g id="patch_52">
    <path d="M 619.54861 468.8775 
L 628.830871 468.8775 
L 628.830871 468.154212 
L 619.54861 468.154212 
z
" clip-path="url(#p950a2e67bb)" style="fill: #1f77b4; opacity: 0.4"/>
   </g>
   <g id="matplotlib.axis_1">
    <g id="xtick_1">
     <g id="line2d_1">
      <path d="M 84.772939 468.8775 
L 84.772939 25.3575 
" clip-path="url(#p950a2e67bb)" style="fill: none; stroke: #b0b0b0; stroke-width: 0.2; stroke-linecap: square"/>
     </g>
     <g id="line2d_2">
      <defs>
       <path id="mc033d4c728" d="M 0 0 
L 0 3.5 
" style="stroke: #000000; stroke-width: 0.8"/>
      </defs>
      <g>
       <use xlink:href="#mc033d4c728" x="84.772939" y="468.8775" style="stroke: #000000; stroke-width: 0.8"/>
      </g>
     </g>
     <g id="text_1">
      <!-- 0.0 -->
      <g transform="translate(76.821377 483.475938) scale(0.1 -0.1)">
       <defs>
        <path id="DejaVuSans-30" d="M 2034 4250 
Q 1547 4250 1301 3770 
Q 1056 3291 1056 2328 
Q 1056 1369 1301 889 
Q 1547 409 2034 409 
Q 2525 409 2770 889 
Q 3016 1369 3016 2328 
Q 3016 3291 2770 3770 
Q 2525 4250 2034 4250 
z
M 2034 4750 
Q 2819 4750 3233 4129 
Q 3647 3509 3647 2328 
Q 3647 1150 3233 529 
Q 2819 -91 2034 -91 
Q 1250 -91 836 529 
Q 422 1150 422 2328 
Q 422 3509 836 4129 
Q 1250 4750 2034 4750 
z
" transform="scale(0.015625)"/>
        <path id="DejaVuSans-2e" d="M 684 794 
L 1344 794 
L 1344 0 
L 684 0 
L 684 794 
z
" transform="scale(0.015625)"/>
       </defs>
       <use xlink:href="#DejaVuSans-30"/>
       <use xlink:href="#DejaVuSans-2e" x="63.623047"/>
       <use xlink:href="#DejaVuSans-30" x="95.410156"/>
      </g>
     </g>
    </g>
    <g id="xtick_2">
     <g id="line2d_3">
      <path d="M 223.845957 468.8775 
L 223.845957 25.3575 
" clip-path="url(#p950a2e67bb)" style="fill: none; stroke: #b0b0b0; stroke-width: 0.2; stroke-linecap: square"/>
     </g>
     <g id="line2d_4">
      <g>
       <use xlink:href="#mc033d4c728" x="223.845957" y="468.8775" style="stroke: #000000; stroke-width: 0.8"/>
      </g>
     </g>
     <g id="text_2">
      <!-- 0.5 -->
      <g transform="translate(215.894395 483.475938) scale(0.1 -0.1)">
       <defs>
        <path id="DejaVuSans-35" d="M 691 4666 
L 3169 4666 
L 3169 4134 
L 1269 4134 
L 1269 2991 
Q 1406 3038 1543 3061 
Q 1681 3084 1819 3084 
Q 2600 3084 3056 2656 
Q 3513 2228 3513 1497 
Q 3513 744 3044 326 
Q 2575 -91 1722 -91 
Q 1428 -91 1123 -41 
Q 819 9 494 109 
L 494 744 
Q 775 591 1075 516 
Q 1375 441 1709 441 
Q 2250 441 2565 725 
Q 2881 1009 2881 1497 
Q 2881 1984 2565 2268 
Q 2250 2553 1709 2553 
Q 1456 2553 1204 2497 
Q 953 2441 691 2322 
L 691 4666 
z
" transform="scale(0.015625)"/>
       </defs>
       <use xlink:href="#DejaVuSans-30"/>
       <use xlink:href="#DejaVuSans-2e" x="63.623047"/>
       <use xlink:href="#DejaVuSans-35" x="95.410156"/>
      </g>
     </g>
    </g>
    <g id="xtick_3">
     <g id="line2d_5">
      <path d="M 362.918976 468.8775 
L 362.918976 25.3575 
" clip-path="url(#p950a2e67bb)" style="fill: none; stroke: #b0b0b0; stroke-width: 0.2; stroke-linecap: square"/>
     </g>
     <g id="line2d_6">
      <g>
       <use xlink:href="#mc033d4c728" x="362.918976" y="468.8775" style="stroke: #000000; stroke-width: 0.8"/>
      </g>
     </g>
     <g id="text_3">
      <!-- 1.0 -->
      <g transform="translate(354.967413 483.475938) scale(0.1 -0.1)">
       <defs>
        <path id="DejaVuSans-31" d="M 794 531 
L 1825 531 
L 1825 4091 
L 703 3866 
L 703 4441 
L 1819 4666 
L 2450 4666 
L 2450 531 
L 3481 531 
L 3481 0 
L 794 0 
L 794 531 
z
" transform="scale(0.015625)"/>
       </defs>
       <use xlink:href="#DejaVuSans-31"/>
       <use xlink:href="#DejaVuSans-2e" x="63.623047"/>
       <use xlink:href="#DejaVuSans-30" x="95.410156"/>
      </g>
     </g>
    </g>
    <g id="xtick_4">
     <g id="line2d_7">
      <path d="M 501.991994 468.8775 
L 501.991994 25.3575 
" clip-path="url(#p950a2e67bb)" style="fill: none; stroke: #b0b0b0; stroke-width: 0.2; stroke-linecap: square"/>
     </g>
     <g id="line2d_8">
      <g>
       <use xlink:href="#mc033d4c728" x="501.991994" y="468.8775" style="stroke: #000000; stroke-width: 0.8"/>
      </g>
     </g>
     <g id="text_4">
      <!-- 1.5 -->
      <g transform="translate(494.040431 483.475938) scale(0.1 -0.1)">
       <use xlink:href="#DejaVuSans-31"/>
       <use xlink:href="#DejaVuSans-2e" x="63.623047"/>
       <use xlink:href="#DejaVuSans-35" x="95.410156"/>
      </g>
     </g>
    </g>
    <g id="xtick_5">
     <g id="line2d_9">
      <path d="M 641.065012 468.8775 
L 641.065012 25.3575 
" clip-path="url(#p950a2e67bb)" style="fill: none; stroke: #b0b0b0; stroke-width: 0.2; stroke-linecap: square"/>
     </g>
     <g id="line2d_10">
      <g>
       <use xlink:href="#mc033d4c728" x="641.065012" y="468.8775" style="stroke: #000000; stroke-width: 0.8"/>
      </g>
     </g>
     <g id="text_5">
      <!-- 2.0 -->
      <g transform="translate(633.11345 483.475938) scale(0.1 -0.1)">
       <defs>
        <path id="DejaVuSans-32" d="M 1228 531 
L 3431 531 
L 3431 0 
L 469 0 
L 469 531 
Q 828 903 1448 1529 
Q 2069 2156 2228 2338 
Q 2531 2678 2651 2914 
Q 2772 3150 2772 3378 
Q 2772 3750 2511 3984 
Q 2250 4219 1831 4219 
Q 1534 4219 1204 4116 
Q 875 4013 500 3803 
L 500 4441 
Q 881 4594 1212 4672 
Q 1544 4750 1819 4750 
Q 2544 4750 2975 4387 
Q 3406 4025 3406 3419 
Q 3406 3131 3298 2873 
Q 3191 2616 2906 2266 
Q 2828 2175 2409 1742 
Q 1991 1309 1228 531 
z
" transform="scale(0.015625)"/>
       </defs>
       <use xlink:href="#DejaVuSans-32"/>
       <use xlink:href="#DejaVuSans-2e" x="63.623047"/>
       <use xlink:href="#DejaVuSans-30" x="95.410156"/>
      </g>
     </g>
    </g>
    <g id="text_6">
     <!-- Statistics -->
     <g transform="translate(336.42733 501.713125) scale(0.16 -0.16)">
      <defs>
       <path id="DejaVuSans-53" d="M 3425 4513 
L 3425 3897 
Q 3066 4069 2747 4153 
Q 2428 4238 2131 4238 
Q 1616 4238 1336 4038 
Q 1056 3838 1056 3469 
Q 1056 3159 1242 3001 
Q 1428 2844 1947 2747 
L 2328 2669 
Q 3034 2534 3370 2195 
Q 3706 1856 3706 1288 
Q 3706 609 3251 259 
Q 2797 -91 1919 -91 
Q 1588 -91 1214 -16 
Q 841 59 441 206 
L 441 856 
Q 825 641 1194 531 
Q 1563 422 1919 422 
Q 2459 422 2753 634 
Q 3047 847 3047 1241 
Q 3047 1584 2836 1778 
Q 2625 1972 2144 2069 
L 1759 2144 
Q 1053 2284 737 2584 
Q 422 2884 422 3419 
Q 422 4038 858 4394 
Q 1294 4750 2059 4750 
Q 2388 4750 2728 4690 
Q 3069 4631 3425 4513 
z
" transform="scale(0.015625)"/>
       <path id="DejaVuSans-74" d="M 1172 4494 
L 1172 3500 
L 2356 3500 
L 2356 3053 
L 1172 3053 
L 1172 1153 
Q 1172 725 1289 603 
Q 1406 481 1766 481 
L 2356 481 
L 2356 0 
L 1766 0 
Q 1100 0 847 248 
Q 594 497 594 1153 
L 594 3053 
L 172 3053 
L 172 3500 
L 594 3500 
L 594 4494 
L 1172 4494 
z
" transform="scale(0.015625)"/>
       <path id="DejaVuSans-61" d="M 2194 1759 
Q 1497 1759 1228 1600 
Q 959 1441 959 1056 
Q 959 750 1161 570 
Q 1363 391 1709 391 
Q 2188 391 2477 730 
Q 2766 1069 2766 1631 
L 2766 1759 
L 2194 1759 
z
M 3341 1997 
L 3341 0 
L 2766 0 
L 2766 531 
Q 2569 213 2275 61 
Q 1981 -91 1556 -91 
Q 1019 -91 701 211 
Q 384 513 384 1019 
Q 384 1609 779 1909 
Q 1175 2209 1959 2209 
L 2766 2209 
L 2766 2266 
Q 2766 2663 2505 2880 
Q 2244 3097 1772 3097 
Q 1472 3097 1187 3025 
Q 903 2953 641 2809 
L 641 3341 
Q 956 3463 1253 3523 
Q 1550 3584 1831 3584 
Q 2591 3584 2966 3190 
Q 3341 2797 3341 1997 
z
" transform="scale(0.015625)"/>
       <path id="DejaVuSans-69" d="M 603 3500 
L 1178 3500 
L 1178 0 
L 603 0 
L 603 3500 
z
M 603 4863 
L 1178 4863 
L 1178 4134 
L 603 4134 
L 603 4863 
z
" transform="scale(0.015625)"/>
       <path id="DejaVuSans-73" d="M 2834 3397 
L 2834 2853 
Q 2591 2978 2328 3040 
Q 2066 3103 1784 3103 
Q 1356 3103 1142 2972 
Q 928 2841 928 2578 
Q 928 2378 1081 2264 
Q 1234 2150 1697 2047 
L 1894 2003 
Q 2506 1872 2764 1633 
Q 3022 1394 3022 966 
Q 3022 478 2636 193 
Q 2250 -91 1575 -91 
Q 1294 -91 989 -36 
Q 684 19 347 128 
L 347 722 
Q 666 556 975 473 
Q 1284 391 1588 391 
Q 1994 391 2212 530 
Q 2431 669 2431 922 
Q 2431 1156 2273 1281 
Q 2116 1406 1581 1522 
L 1381 1569 
Q 847 1681 609 1914 
Q 372 2147 372 2553 
Q 372 3047 722 3315 
Q 1072 3584 1716 3584 
Q 2034 3584 2315 3537 
Q 2597 3491 2834 3397 
z
" transform="scale(0.015625)"/>
       <path id="DejaVuSans-63" d="M 3122 3366 
L 3122 2828 
Q 2878 2963 2633 3030 
Q 2388 3097 2138 3097 
Q 1578 3097 1268 2742 
Q 959 2388 959 1747 
Q 959 1106 1268 751 
Q 1578 397 2138 397 
Q 2388 397 2633 464 
Q 2878 531 3122 666 
L 3122 134 
Q 2881 22 2623 -34 
Q 2366 -91 2075 -91 
Q 1284 -91 818 406 
Q 353 903 353 1747 
Q 353 2603 823 3093 
Q 1294 3584 2113 3584 
Q 2378 3584 2631 3529 
Q 2884 3475 3122 3366 
z
" transform="scale(0.015625)"/>
      </defs>
      <use xlink:href="#DejaVuSans-53"/>
      <use xlink:href="#DejaVuSans-74" x="63.476562"/>
      <use xlink:href="#DejaVuSans-61" x="102.685547"/>
      <use xlink:href="#DejaVuSans-74" x="163.964844"/>
      <use xlink:href="#DejaVuSans-69" x="203.173828"/>
      <use xlink:href="#DejaVuSans-73" x="230.957031"/>
      <use xlink:href="#DejaVuSans-74" x="283.056641"/>
      <use xlink:href="#DejaVuSans-69" x="322.265625"/>
      <use xlink:href="#DejaVuSans-63" x="350.048828"/>
      <use xlink:href="#DejaVuSans-73" x="405.029297"/>
     </g>
    </g>
   </g>
   <g id="matplotlib.axis_2">
    <g id="ytick_1">
     <g id="line2d_11">
      <path d="M 55.950625 468.8775 
L 690.041534 468.8775 
" clip-path="url(#p950a2e67bb)" style="fill: none; stroke: #b0b0b0; stroke-width: 0.2; stroke-linecap: square"/>
     </g>
     <g id="line2d_12">
      <defs>
       <path id="m338804e6f9" d="M 0 0 
L -3.5 0 
" style="stroke: #000000; stroke-width: 0.8"/>
      </defs>
      <g>
       <use xlink:href="#m338804e6f9" x="55.950625" y="468.8775" style="stroke: #000000; stroke-width: 0.8"/>
      </g>
     </g>
     <g id="text_7">
      <!-- 0.00 -->
      <g transform="translate(26.685 472.676719) scale(0.1 -0.1)">
       <use xlink:href="#DejaVuSans-30"/>
       <use xlink:href="#DejaVuSans-2e" x="63.623047"/>
       <use xlink:href="#DejaVuSans-30" x="95.410156"/>
       <use xlink:href="#DejaVuSans-30" x="159.033203"/>
      </g>
     </g>
    </g>
    <g id="ytick_2">
     <g id="line2d_13">
      <path d="M 55.950625 408.533795 
L 690.041534 408.533795 
" clip-path="url(#p950a2e67bb)" style="fill: none; stroke: #b0b0b0; stroke-width: 0.2; stroke-linecap: square"/>
     </g>
     <g id="line2d_14">
      <g>
       <use xlink:href="#m338804e6f9" x="55.950625" y="408.533795" style="stroke: #000000; stroke-width: 0.8"/>
      </g>
     </g>
     <g id="text_8">
      <!-- 0.25 -->
      <g transform="translate(26.685 412.333014) scale(0.1 -0.1)">
       <use xlink:href="#DejaVuSans-30"/>
       <use xlink:href="#DejaVuSans-2e" x="63.623047"/>
       <use xlink:href="#DejaVuSans-32" x="95.410156"/>
       <use xlink:href="#DejaVuSans-35" x="159.033203"/>
      </g>
     </g>
    </g>
    <g id="ytick_3">
     <g id="line2d_15">
      <path d="M 55.950625 348.190091 
L 690.041534 348.190091 
" clip-path="url(#p950a2e67bb)" style="fill: none; stroke: #b0b0b0; stroke-width: 0.2; stroke-linecap: square"/>
     </g>
     <g id="line2d_16">
      <g>
       <use xlink:href="#m338804e6f9" x="55.950625" y="348.190091" style="stroke: #000000; stroke-width: 0.8"/>
      </g>
     </g>
     <g id="text_9">
      <!-- 0.50 -->
      <g transform="translate(26.685 351.98931) scale(0.1 -0.1)">
       <use xlink:href="#DejaVuSans-30"/>
       <use xlink:href="#DejaVuSans-2e" x="63.623047"/>
       <use xlink:href="#DejaVuSans-35" x="95.410156"/>
       <use xlink:href="#DejaVuSans-30" x="159.033203"/>
      </g>
     </g>
    </g>
    <g id="ytick_4">
     <g id="line2d_17">
      <path d="M 55.950625 287.846386 
L 690.041534 287.846386 
" clip-path="url(#p950a2e67bb)" style="fill: none; stroke: #b0b0b0; stroke-width: 0.2; stroke-linecap: square"/>
     </g>
     <g id="line2d_18">
      <g>
       <use xlink:href="#m338804e6f9" x="55.950625" y="287.846386" style="stroke: #000000; stroke-width: 0.8"/>
      </g>
     </g>
     <g id="text_10">
      <!-- 0.75 -->
      <g transform="translate(26.685 291.645605) scale(0.1 -0.1)">
       <defs>
        <path id="DejaVuSans-37" d="M 525 4666 
L 3525 4666 
L 3525 4397 
L 1831 0 
L 1172 0 
L 2766 4134 
L 525 4134 
L 525 4666 
z
" transform="scale(0.015625)"/>
       </defs>
       <use xlink:href="#DejaVuSans-30"/>
       <use xlink:href="#DejaVuSans-2e" x="63.623047"/>
       <use xlink:href="#DejaVuSans-37" x="95.410156"/>
       <use xlink:href="#DejaVuSans-35" x="159.033203"/>
      </g>
     </g>
    </g>
    <g id="ytick_5">
     <g id="line2d_19">
      <path d="M 55.950625 227.502682 
L 690.041534 227.502682 
" clip-path="url(#p950a2e67bb)" style="fill: none; stroke: #b0b0b0; stroke-width: 0.2; stroke-linecap: square"/>
     </g>
     <g id="line2d_20">
      <g>
       <use xlink:href="#m338804e6f9" x="55.950625" y="227.502682" style="stroke: #000000; stroke-width: 0.8"/>
      </g>
     </g>
     <g id="text_11">
      <!-- 1.00 -->
      <g transform="translate(26.685 231.3019) scale(0.1 -0.1)">
       <use xlink:href="#DejaVuSans-31"/>
       <use xlink:href="#DejaVuSans-2e" x="63.623047"/>
       <use xlink:href="#DejaVuSans-30" x="95.410156"/>
       <use xlink:href="#DejaVuSans-30" x="159.033203"/>
      </g>
     </g>
    </g>
    <g id="ytick_6">
     <g id="line2d_21">
      <path d="M 55.950625 167.158977 
L 690.041534 167.158977 
" clip-path="url(#p950a2e67bb)" style="fill: none; stroke: #b0b0b0; stroke-width: 0.2; stroke-linecap: square"/>
     </g>
     <g id="line2d_22">
      <g>
       <use xlink:href="#m338804e6f9" x="55.950625" y="167.158977" style="stroke: #000000; stroke-width: 0.8"/>
      </g>
     </g>
     <g id="text_12">
      <!-- 1.25 -->
      <g transform="translate(26.685 170.958196) scale(0.1 -0.1)">
       <use xlink:href="#DejaVuSans-31"/>
       <use xlink:href="#DejaVuSans-2e" x="63.623047"/>
       <use xlink:href="#DejaVuSans-32" x="95.410156"/>
       <use xlink:href="#DejaVuSans-35" x="159.033203"/>
      </g>
     </g>
    </g>
    <g id="ytick_7">
     <g id="line2d_23">
      <path d="M 55.950625 106.815272 
L 690.041534 106.815272 
" clip-path="url(#p950a2e67bb)" style="fill: none; stroke: #b0b0b0; stroke-width: 0.2; stroke-linecap: square"/>
     </g>
     <g id="line2d_24">
      <g>
       <use xlink:href="#m338804e6f9" x="55.950625" y="106.815272" style="stroke: #000000; stroke-width: 0.8"/>
      </g>
     </g>
     <g id="text_13">
      <!-- 1.50 -->
      <g transform="translate(26.685 110.614491) scale(0.1 -0.1)">
       <use xlink:href="#DejaVuSans-31"/>
       <use xlink:href="#DejaVuSans-2e" x="63.623047"/>
       <use xlink:href="#DejaVuSans-35" x="95.410156"/>
       <use xlink:href="#DejaVuSans-30" x="159.033203"/>
      </g>
     </g>
    </g>
    <g id="ytick_8">
     <g id="line2d_25">
      <path d="M 55.950625 46.471568 
L 690.041534 46.471568 
" clip-path="url(#p950a2e67bb)" style="fill: none; stroke: #b0b0b0; stroke-width: 0.2; stroke-linecap: square"/>
     </g>
     <g id="line2d_26">
      <g>
       <use xlink:href="#m338804e6f9" x="55.950625" y="46.471568" style="stroke: #000000; stroke-width: 0.8"/>
      </g>
     </g>
     <g id="text_14">
      <!-- 1.75 -->
      <g transform="translate(26.685 50.270786) scale(0.1 -0.1)">
       <use xlink:href="#DejaVuSans-31"/>
       <use xlink:href="#DejaVuSans-2e" x="63.623047"/>
       <use xlink:href="#DejaVuSans-37" x="95.410156"/>
       <use xlink:href="#DejaVuSans-35" x="159.033203"/>
      </g>
     </g>
    </g>
    <g id="text_15">
     <!-- Density -->
     <g transform="translate(19.3575 277.53125) rotate(-90) scale(0.16 -0.16)">
      <defs>
       <path id="DejaVuSans-44" d="M 1259 4147 
L 1259 519 
L 2022 519 
Q 2988 519 3436 956 
Q 3884 1394 3884 2338 
Q 3884 3275 3436 3711 
Q 2988 4147 2022 4147 
L 1259 4147 
z
M 628 4666 
L 1925 4666 
Q 3281 4666 3915 4102 
Q 4550 3538 4550 2338 
Q 4550 1131 3912 565 
Q 3275 0 1925 0 
L 628 0 
L 628 4666 
z
" transform="scale(0.015625)"/>
       <path id="DejaVuSans-65" d="M 3597 1894 
L 3597 1613 
L 953 1613 
Q 991 1019 1311 708 
Q 1631 397 2203 397 
Q 2534 397 2845 478 
Q 3156 559 3463 722 
L 3463 178 
Q 3153 47 2828 -22 
Q 2503 -91 2169 -91 
Q 1331 -91 842 396 
Q 353 884 353 1716 
Q 353 2575 817 3079 
Q 1281 3584 2069 3584 
Q 2775 3584 3186 3129 
Q 3597 2675 3597 1894 
z
M 3022 2063 
Q 3016 2534 2758 2815 
Q 2500 3097 2075 3097 
Q 1594 3097 1305 2825 
Q 1016 2553 972 2059 
L 3022 2063 
z
" transform="scale(0.015625)"/>
       <path id="DejaVuSans-6e" d="M 3513 2113 
L 3513 0 
L 2938 0 
L 2938 2094 
Q 2938 2591 2744 2837 
Q 2550 3084 2163 3084 
Q 1697 3084 1428 2787 
Q 1159 2491 1159 1978 
L 1159 0 
L 581 0 
L 581 3500 
L 1159 3500 
L 1159 2956 
Q 1366 3272 1645 3428 
Q 1925 3584 2291 3584 
Q 2894 3584 3203 3211 
Q 3513 2838 3513 2113 
z
" transform="scale(0.015625)"/>
       <path id="DejaVuSans-79" d="M 2059 -325 
Q 1816 -950 1584 -1140 
Q 1353 -1331 966 -1331 
L 506 -1331 
L 506 -850 
L 844 -850 
Q 1081 -850 1212 -737 
Q 1344 -625 1503 -206 
L 1606 56 
L 191 3500 
L 800 3500 
L 1894 763 
L 2988 3500 
L 3597 3500 
L 2059 -325 
z
" transform="scale(0.015625)"/>
      </defs>
      <use xlink:href="#DejaVuSans-44"/>
      <use xlink:href="#DejaVuSans-65" x="77.001953"/>
      <use xlink:href="#DejaVuSans-6e" x="138.525391"/>
      <use xlink:href="#DejaVuSans-73" x="201.904297"/>
      <use xlink:href="#DejaVuSans-69" x="254.003906"/>
      <use xlink:href="#DejaVuSans-74" x="281.787109"/>
      <use xlink:href="#DejaVuSans-79" x="320.996094"/>
     </g>
    </g>
   </g>
   <g id="line2d_27">
    <path d="M 132.329474 468.872103 
L 142.960423 468.779851 
L 148.275898 468.55987 
L 150.933636 468.337733 
L 153.591373 467.993015 
L 156.24911 467.476406 
L 158.906848 466.726669 
L 161.564585 465.670345 
L 164.222323 464.222232 
L 166.88006 462.286667 
L 169.537797 459.759322 
L 172.195535 456.52896 
L 174.853272 452.478553 
L 177.51101 447.485907 
L 180.168747 441.425289 
L 182.826485 434.173063 
L 185.484222 425.620659 
L 188.141959 415.696302 
L 190.799697 404.392501 
L 193.457434 391.791109 
L 196.115172 378.074611 
L 201.430647 348.432609 
L 209.403859 302.946442 
L 214.719334 273.889773 
L 222.692546 232.078948 
L 228.008021 205.135034 
L 233.323496 179.241256 
L 238.63897 154.700133 
L 243.954445 131.508073 
L 249.26992 109.71012 
L 251.927657 99.562693 
L 254.585395 90.168426 
L 257.243132 81.749437 
L 259.90087 74.490412 
L 262.558607 68.491426 
L 265.216345 63.748115 
L 267.874082 60.165087 
L 270.531819 57.592976 
L 273.189557 55.870267 
L 275.847294 54.852367 
L 278.505032 54.420268 
L 281.162769 54.473204 
L 283.820507 54.917415 
L 286.478244 55.663502 
L 289.135981 56.638699 
L 291.793719 57.811264 
L 294.451456 59.216263 
L 297.109194 60.968963 
L 299.766931 63.255611 
L 302.424668 66.300604 
L 305.082406 70.319744 
L 307.740143 75.475744 
L 310.397881 81.850472 
L 313.055618 89.439332 
L 315.713356 98.162295 
L 318.371093 107.880096 
L 321.02883 118.406433 
L 326.344305 140.947514 
L 331.65978 163.700018 
L 334.317517 174.53576 
L 336.975255 184.781051 
L 339.632992 194.35271 
L 342.29073 203.231581 
L 344.948467 211.442415 
L 347.606205 219.032873 
L 350.263942 226.060294 
L 352.921679 232.589393 
L 355.579417 238.697629 
L 360.894892 250.051389 
L 371.525841 272.155059 
L 379.499054 288.974874 
L 390.130003 311.0754 
L 395.445478 323.154942 
L 403.41869 342.15176 
L 406.076428 348.129024 
L 408.734165 353.686403 
L 411.391903 358.74734 
L 414.04964 363.298401 
L 416.707377 367.38671 
L 419.365115 371.108668 
L 424.68059 377.96853 
L 429.996065 384.826723 
L 435.311539 392.081714 
L 443.284752 403.089488 
L 448.600227 409.886048 
L 451.257964 413.014106 
L 453.915701 415.930076 
L 456.573439 418.61689 
L 459.231176 421.069118 
L 461.888914 423.299608 
L 467.204388 427.250735 
L 483.150813 438.207836 
L 488.466288 441.522527 
L 493.781763 444.337354 
L 499.097237 446.717738 
L 504.412712 448.820258 
L 515.043662 452.867009 
L 523.016874 456.262981 
L 528.332349 458.51288 
L 533.647824 460.466849 
L 538.963299 462.030258 
L 544.278774 463.265235 
L 549.594248 464.264309 
L 554.909723 465.074144 
L 562.882936 466.003563 
L 573.513885 466.963029 
L 581.487097 467.443379 
L 616.037684 468.67736 
L 639.957321 468.731574 
L 655.903745 468.866806 
L 661.21922 468.874744 
L 661.21922 468.874744 
" clip-path="url(#p950a2e67bb)" style="fill: none; stroke: #1f77b4; stroke-width: 1.5; stroke-linecap: square"/>
   </g>
   <g id="line2d_28">
    <path d="M 84.772939 468.8775 
L 165.918717 468.776661 
L 170.275537 468.533736 
L 173.543152 468.119798 
L 176.266165 467.515129 
L 178.444575 466.787744 
L 180.622985 465.776749 
L 182.256793 464.791316 
L 183.8906 463.577351 
L 185.524408 462.103666 
L 187.158215 460.339073 
L 188.792023 458.253082 
L 190.425831 455.816585 
L 192.059638 453.002533 
L 193.693446 449.786547 
L 195.327253 446.147471 
L 196.961061 442.067842 
L 199.139471 435.920501 
L 201.317881 428.946992 
L 203.496291 421.142028 
L 205.674702 412.514818 
L 207.853112 403.088684 
L 210.576124 390.239501 
L 213.299137 376.297913 
L 216.566752 358.300519 
L 220.37897 335.874626 
L 225.280393 305.466291 
L 239.984661 212.910803 
L 243.796879 190.644292 
L 247.609097 169.736307 
L 250.876712 153.076315 
L 254.144327 137.702926 
L 256.86734 125.937028 
L 259.590352 115.159183 
L 262.313365 105.391969 
L 264.491775 98.313878 
L 266.670185 91.89127 
L 268.848596 86.12158 
L 271.027006 80.998872 
L 273.205416 76.5142 
L 275.383826 72.655961 
L 277.017634 70.165077 
L 278.651441 68.012138 
L 280.285249 66.189952 
L 281.919056 64.690833 
L 283.552864 63.506665 
L 285.186672 62.628967 
L 286.820479 62.048945 
L 288.454287 61.75755 
L 290.088094 61.745526 
L 291.721902 62.003458 
L 293.35571 62.521816 
L 294.989517 63.290992 
L 296.623325 64.30134 
L 298.257132 65.543208 
L 300.435543 67.542543 
L 302.613953 69.913701 
L 304.792363 72.63429 
L 306.970773 75.682283 
L 309.693786 79.919836 
L 312.416798 84.594207 
L 315.684413 90.724307 
L 318.952029 97.360764 
L 322.764246 105.660373 
L 327.121067 115.767114 
L 332.02249 127.777401 
L 337.468515 141.724571 
L 344.548348 160.487153 
L 373.956885 239.193351 
L 381.036718 257.123051 
L 387.571948 273.056585 
L 393.562576 287.081158 
L 399.553204 300.509648 
L 404.999229 312.176938 
L 410.445254 323.315457 
L 415.89128 333.917515 
L 420.792703 342.99837 
L 425.694125 351.643476 
L 430.595548 359.856311 
L 435.496971 367.642482 
L 440.398394 375.00943 
L 445.299817 381.966168 
L 450.201239 388.523041 
L 455.102662 394.691509 
L 460.004085 400.483952 
L 464.905508 405.913493 
L 469.806931 410.993832 
L 474.708353 415.739103 
L 479.609776 420.163737 
L 484.511199 424.282344 
L 489.412622 428.109602 
L 494.314045 431.660163 
L 499.215467 434.948562 
L 504.11689 437.989146 
L 509.562916 441.094048 
L 515.008941 443.929249 
L 520.454966 446.513046 
L 525.900992 448.8631 
L 531.891619 451.198423 
L 537.882247 453.293004 
L 544.417478 455.32743 
L 550.952708 457.124643 
L 558.032541 458.830947 
L 565.112374 460.313671 
L 572.73681 461.6893 
L 580.905848 462.940401 
L 589.619488 464.055683 
L 599.422334 465.081211 
L 610.314384 465.985132 
L 622.29564 466.749139 
L 628.830871 467.08303 
L 628.830871 467.08303 
" clip-path="url(#p950a2e67bb)" style="fill: none; stroke: #ff7f0e; stroke-width: 1.5; stroke-linecap: square"/>
   </g>
   <g id="patch_53">
    <path d="M 55.950625 468.8775 
L 55.950625 25.3575 
" style="fill: none; stroke: #000000; stroke-width: 0.8; stroke-linejoin: miter; stroke-linecap: square"/>
   </g>
   <g id="patch_54">
    <path d="M 690.041534 468.8775 
L 690.041534 25.3575 
" style="fill: none; stroke: #000000; stroke-width: 0.8; stroke-linejoin: miter; stroke-linecap: square"/>
   </g>
   <g id="patch_55">
    <path d="M 55.950625 468.8775 
L 690.041534 468.8775 
" style="fill: none; stroke: #000000; stroke-width: 0.8; stroke-linejoin: miter; stroke-linecap: square"/>
   </g>
   <g id="patch_56">
    <path d="M 55.950625 25.3575 
L 690.041534 25.3575 
" style="fill: none; stroke: #000000; stroke-width: 0.8; stroke-linejoin: miter; stroke-linecap: square"/>
   </g>
   <g id="text_16">
    <!-- Visualization of Kolmogorov statistic distribution, N=5 -->
    <g transform="translate(157.28358 19.3575) scale(0.16 -0.16)">
     <defs>
      <path id="DejaVuSans-56" d="M 1831 0 
L 50 4666 
L 709 4666 
L 2188 738 
L 3669 4666 
L 4325 4666 
L 2547 0 
L 1831 0 
z
" transform="scale(0.015625)"/>
      <path id="DejaVuSans-75" d="M 544 1381 
L 544 3500 
L 1119 3500 
L 1119 1403 
Q 1119 906 1312 657 
Q 1506 409 1894 409 
Q 2359 409 2629 706 
Q 2900 1003 2900 1516 
L 2900 3500 
L 3475 3500 
L 3475 0 
L 2900 0 
L 2900 538 
Q 2691 219 2414 64 
Q 2138 -91 1772 -91 
Q 1169 -91 856 284 
Q 544 659 544 1381 
z
M 1991 3584 
L 1991 3584 
z
" transform="scale(0.015625)"/>
      <path id="DejaVuSans-6c" d="M 603 4863 
L 1178 4863 
L 1178 0 
L 603 0 
L 603 4863 
z
" transform="scale(0.015625)"/>
      <path id="DejaVuSans-7a" d="M 353 3500 
L 3084 3500 
L 3084 2975 
L 922 459 
L 3084 459 
L 3084 0 
L 275 0 
L 275 525 
L 2438 3041 
L 353 3041 
L 353 3500 
z
" transform="scale(0.015625)"/>
      <path id="DejaVuSans-6f" d="M 1959 3097 
Q 1497 3097 1228 2736 
Q 959 2375 959 1747 
Q 959 1119 1226 758 
Q 1494 397 1959 397 
Q 2419 397 2687 759 
Q 2956 1122 2956 1747 
Q 2956 2369 2687 2733 
Q 2419 3097 1959 3097 
z
M 1959 3584 
Q 2709 3584 3137 3096 
Q 3566 2609 3566 1747 
Q 3566 888 3137 398 
Q 2709 -91 1959 -91 
Q 1206 -91 779 398 
Q 353 888 353 1747 
Q 353 2609 779 3096 
Q 1206 3584 1959 3584 
z
" transform="scale(0.015625)"/>
      <path id="DejaVuSans-20" transform="scale(0.015625)"/>
      <path id="DejaVuSans-66" d="M 2375 4863 
L 2375 4384 
L 1825 4384 
Q 1516 4384 1395 4259 
Q 1275 4134 1275 3809 
L 1275 3500 
L 2222 3500 
L 2222 3053 
L 1275 3053 
L 1275 0 
L 697 0 
L 697 3053 
L 147 3053 
L 147 3500 
L 697 3500 
L 697 3744 
Q 697 4328 969 4595 
Q 1241 4863 1831 4863 
L 2375 4863 
z
" transform="scale(0.015625)"/>
      <path id="DejaVuSans-4b" d="M 628 4666 
L 1259 4666 
L 1259 2694 
L 3353 4666 
L 4166 4666 
L 1850 2491 
L 4331 0 
L 3500 0 
L 1259 2247 
L 1259 0 
L 628 0 
L 628 4666 
z
" transform="scale(0.015625)"/>
      <path id="DejaVuSans-6d" d="M 3328 2828 
Q 3544 3216 3844 3400 
Q 4144 3584 4550 3584 
Q 5097 3584 5394 3201 
Q 5691 2819 5691 2113 
L 5691 0 
L 5113 0 
L 5113 2094 
Q 5113 2597 4934 2840 
Q 4756 3084 4391 3084 
Q 3944 3084 3684 2787 
Q 3425 2491 3425 1978 
L 3425 0 
L 2847 0 
L 2847 2094 
Q 2847 2600 2669 2842 
Q 2491 3084 2119 3084 
Q 1678 3084 1418 2786 
Q 1159 2488 1159 1978 
L 1159 0 
L 581 0 
L 581 3500 
L 1159 3500 
L 1159 2956 
Q 1356 3278 1631 3431 
Q 1906 3584 2284 3584 
Q 2666 3584 2933 3390 
Q 3200 3197 3328 2828 
z
" transform="scale(0.015625)"/>
      <path id="DejaVuSans-67" d="M 2906 1791 
Q 2906 2416 2648 2759 
Q 2391 3103 1925 3103 
Q 1463 3103 1205 2759 
Q 947 2416 947 1791 
Q 947 1169 1205 825 
Q 1463 481 1925 481 
Q 2391 481 2648 825 
Q 2906 1169 2906 1791 
z
M 3481 434 
Q 3481 -459 3084 -895 
Q 2688 -1331 1869 -1331 
Q 1566 -1331 1297 -1286 
Q 1028 -1241 775 -1147 
L 775 -588 
Q 1028 -725 1275 -790 
Q 1522 -856 1778 -856 
Q 2344 -856 2625 -561 
Q 2906 -266 2906 331 
L 2906 616 
Q 2728 306 2450 153 
Q 2172 0 1784 0 
Q 1141 0 747 490 
Q 353 981 353 1791 
Q 353 2603 747 3093 
Q 1141 3584 1784 3584 
Q 2172 3584 2450 3431 
Q 2728 3278 2906 2969 
L 2906 3500 
L 3481 3500 
L 3481 434 
z
" transform="scale(0.015625)"/>
      <path id="DejaVuSans-72" d="M 2631 2963 
Q 2534 3019 2420 3045 
Q 2306 3072 2169 3072 
Q 1681 3072 1420 2755 
Q 1159 2438 1159 1844 
L 1159 0 
L 581 0 
L 581 3500 
L 1159 3500 
L 1159 2956 
Q 1341 3275 1631 3429 
Q 1922 3584 2338 3584 
Q 2397 3584 2469 3576 
Q 2541 3569 2628 3553 
L 2631 2963 
z
" transform="scale(0.015625)"/>
      <path id="DejaVuSans-76" d="M 191 3500 
L 800 3500 
L 1894 563 
L 2988 3500 
L 3597 3500 
L 2284 0 
L 1503 0 
L 191 3500 
z
" transform="scale(0.015625)"/>
      <path id="DejaVuSans-64" d="M 2906 2969 
L 2906 4863 
L 3481 4863 
L 3481 0 
L 2906 0 
L 2906 525 
Q 2725 213 2448 61 
Q 2172 -91 1784 -91 
Q 1150 -91 751 415 
Q 353 922 353 1747 
Q 353 2572 751 3078 
Q 1150 3584 1784 3584 
Q 2172 3584 2448 3432 
Q 2725 3281 2906 2969 
z
M 947 1747 
Q 947 1113 1208 752 
Q 1469 391 1925 391 
Q 2381 391 2643 752 
Q 2906 1113 2906 1747 
Q 2906 2381 2643 2742 
Q 2381 3103 1925 3103 
Q 1469 3103 1208 2742 
Q 947 2381 947 1747 
z
" transform="scale(0.015625)"/>
      <path id="DejaVuSans-62" d="M 3116 1747 
Q 3116 2381 2855 2742 
Q 2594 3103 2138 3103 
Q 1681 3103 1420 2742 
Q 1159 2381 1159 1747 
Q 1159 1113 1420 752 
Q 1681 391 2138 391 
Q 2594 391 2855 752 
Q 3116 1113 3116 1747 
z
M 1159 2969 
Q 1341 3281 1617 3432 
Q 1894 3584 2278 3584 
Q 2916 3584 3314 3078 
Q 3713 2572 3713 1747 
Q 3713 922 3314 415 
Q 2916 -91 2278 -91 
Q 1894 -91 1617 61 
Q 1341 213 1159 525 
L 1159 0 
L 581 0 
L 581 4863 
L 1159 4863 
L 1159 2969 
z
" transform="scale(0.015625)"/>
      <path id="DejaVuSans-2c" d="M 750 794 
L 1409 794 
L 1409 256 
L 897 -744 
L 494 -744 
L 750 256 
L 750 794 
z
" transform="scale(0.015625)"/>
      <path id="DejaVuSans-4e" d="M 628 4666 
L 1478 4666 
L 3547 763 
L 3547 4666 
L 4159 4666 
L 4159 0 
L 3309 0 
L 1241 3903 
L 1241 0 
L 628 0 
L 628 4666 
z
" transform="scale(0.015625)"/>
      <path id="DejaVuSans-3d" d="M 678 2906 
L 4684 2906 
L 4684 2381 
L 678 2381 
L 678 2906 
z
M 678 1631 
L 4684 1631 
L 4684 1100 
L 678 1100 
L 678 1631 
z
" transform="scale(0.015625)"/>
     </defs>
     <use xlink:href="#DejaVuSans-56"/>
     <use xlink:href="#DejaVuSans-69" x="66.158203"/>
     <use xlink:href="#DejaVuSans-73" x="93.941406"/>
     <use xlink:href="#DejaVuSans-75" x="146.041016"/>
     <use xlink:href="#DejaVuSans-61" x="209.419922"/>
     <use xlink:href="#DejaVuSans-6c" x="270.699219"/>
     <use xlink:href="#DejaVuSans-69" x="298.482422"/>
     <use xlink:href="#DejaVuSans-7a" x="326.265625"/>
     <use xlink:href="#DejaVuSans-61" x="378.755859"/>
     <use xlink:href="#DejaVuSans-74" x="440.035156"/>
     <use xlink:href="#DejaVuSans-69" x="479.244141"/>
     <use xlink:href="#DejaVuSans-6f" x="507.027344"/>
     <use xlink:href="#DejaVuSans-6e" x="568.208984"/>
     <use xlink:href="#DejaVuSans-20" x="631.587891"/>
     <use xlink:href="#DejaVuSans-6f" x="663.375"/>
     <use xlink:href="#DejaVuSans-66" x="724.556641"/>
     <use xlink:href="#DejaVuSans-20" x="759.761719"/>
     <use xlink:href="#DejaVuSans-4b" x="791.548828"/>
     <use xlink:href="#DejaVuSans-6f" x="852.125"/>
     <use xlink:href="#DejaVuSans-6c" x="913.306641"/>
     <use xlink:href="#DejaVuSans-6d" x="941.089844"/>
     <use xlink:href="#DejaVuSans-6f" x="1038.501953"/>
     <use xlink:href="#DejaVuSans-67" x="1099.683594"/>
     <use xlink:href="#DejaVuSans-6f" x="1163.160156"/>
     <use xlink:href="#DejaVuSans-72" x="1224.341797"/>
     <use xlink:href="#DejaVuSans-6f" x="1263.205078"/>
     <use xlink:href="#DejaVuSans-76" x="1324.386719"/>
     <use xlink:href="#DejaVuSans-20" x="1383.566406"/>
     <use xlink:href="#DejaVuSans-73" x="1415.353516"/>
     <use xlink:href="#DejaVuSans-74" x="1467.453125"/>
     <use xlink:href="#DejaVuSans-61" x="1506.662109"/>
     <use xlink:href="#DejaVuSans-74" x="1567.941406"/>
     <use xlink:href="#DejaVuSans-69" x="1607.150391"/>
     <use xlink:href="#DejaVuSans-73" x="1634.933594"/>
     <use xlink:href="#DejaVuSans-74" x="1687.033203"/>
     <use xlink:href="#DejaVuSans-69" x="1726.242188"/>
     <use xlink:href="#DejaVuSans-63" x="1754.025391"/>
     <use xlink:href="#DejaVuSans-20" x="1809.005859"/>
     <use xlink:href="#DejaVuSans-64" x="1840.792969"/>
     <use xlink:href="#DejaVuSans-69" x="1904.269531"/>
     <use xlink:href="#DejaVuSans-73" x="1932.052734"/>
     <use xlink:href="#DejaVuSans-74" x="1984.152344"/>
     <use xlink:href="#DejaVuSans-72" x="2023.361328"/>
     <use xlink:href="#DejaVuSans-69" x="2064.474609"/>
     <use xlink:href="#DejaVuSans-62" x="2092.257812"/>
     <use xlink:href="#DejaVuSans-75" x="2155.734375"/>
     <use xlink:href="#DejaVuSans-74" x="2219.113281"/>
     <use xlink:href="#DejaVuSans-69" x="2258.322266"/>
     <use xlink:href="#DejaVuSans-6f" x="2286.105469"/>
     <use xlink:href="#DejaVuSans-6e" x="2347.287109"/>
     <use xlink:href="#DejaVuSans-2c" x="2410.666016"/>
     <use xlink:href="#DejaVuSans-20" x="2442.453125"/>
     <use xlink:href="#DejaVuSans-4e" x="2474.240234"/>
     <use xlink:href="#DejaVuSans-3d" x="2549.044922"/>
     <use xlink:href="#DejaVuSans-35" x="2632.833984"/>
    </g>
   </g>
   <g id="legend_1">
    <g id="patch_57">
     <path d="M 436.651534 86.4425 
L 678.841534 86.4425 
Q 682.041534 86.4425 682.041534 83.2425 
L 682.041534 36.5575 
Q 682.041534 33.3575 678.841534 33.3575 
L 436.651534 33.3575 
Q 433.451534 33.3575 433.451534 36.5575 
L 433.451534 83.2425 
Q 433.451534 86.4425 436.651534 86.4425 
z
" style="fill: #ffffff; opacity: 0.8; stroke: #cccccc; stroke-linejoin: miter"/>
    </g>
    <g id="patch_58">
     <path d="M 439.851534 53.23 
L 471.851534 53.23 
L 471.851534 42.03 
L 439.851534 42.03 
z
" style="fill: #1f77b4; opacity: 0.4"/>
    </g>
    <g id="text_17">
     <!-- $\sqrt{n}D_n$ -->
     <g transform="translate(484.651534 53.23) scale(0.16 -0.16)">
      <defs>
       <path id="DejaVuSans-221a" d="M 3488 5191 
L 4078 5191 
L 4078 4891 
L 3719 4891 
L 1863 -128 
L 1656 -128 
L 659 2631 
L 269 2491 
L 191 2741 
L 1075 3047 
L 1875 831 
L 3488 5191 
z
" transform="scale(0.015625)"/>
       <path id="DejaVuSans-Oblique-6e" d="M 3566 2113 
L 3156 0 
L 2578 0 
L 2988 2091 
Q 3016 2238 3031 2350 
Q 3047 2463 3047 2528 
Q 3047 2791 2881 2937 
Q 2716 3084 2419 3084 
Q 1956 3084 1622 2776 
Q 1288 2469 1184 1941 
L 800 0 
L 225 0 
L 903 3500 
L 1478 3500 
L 1363 2950 
Q 1603 3253 1940 3418 
Q 2278 3584 2650 3584 
Q 3113 3584 3367 3334 
Q 3622 3084 3622 2631 
Q 3622 2519 3608 2391 
Q 3594 2263 3566 2113 
z
" transform="scale(0.015625)"/>
       <path id="DejaVuSans-Oblique-44" d="M 1081 4666 
L 2438 4666 
Q 3519 4666 4070 4208 
Q 4622 3750 4622 2847 
Q 4622 2250 4412 1698 
Q 4203 1147 3834 769 
Q 3463 381 2891 190 
Q 2319 0 1538 0 
L 172 0 
L 1081 4666 
z
M 1613 4147 
L 909 519 
L 1734 519 
Q 2794 519 3375 1128 
Q 3956 1738 3956 2847 
Q 3956 3519 3581 3833 
Q 3206 4147 2406 4147 
L 1613 4147 
z
" transform="scale(0.015625)"/>
      </defs>
      <use xlink:href="#DejaVuSans-221a" transform="translate(0 0.890625)"/>
      <use xlink:href="#DejaVuSans-Oblique-6e" transform="translate(76.220703 0.75)"/>
      <use xlink:href="#DejaVuSans-Oblique-44" transform="translate(152.099609 0.890625)"/>
      <use xlink:href="#DejaVuSans-Oblique-6e" transform="translate(229.101562 -15.515625) scale(0.7)"/>
      <path d="M 63.720703 75.5 
L 63.720703 81.75 
L 152.099609 81.75 
L 152.099609 75.5 
L 63.720703 75.5 
z
"/>
     </g>
    </g>
    <g id="line2d_29">
     <path d="M 439.851534 71.115 
L 455.851534 71.115 
L 471.851534 71.115 
" style="fill: none; stroke: #ff7f0e; stroke-width: 1.5; stroke-linecap: square"/>
    </g>
    <g id="text_18">
     <!-- Kolmogorov distribution -->
     <g transform="translate(484.651534 76.715) scale(0.16 -0.16)">
      <use xlink:href="#DejaVuSans-4b"/>
      <use xlink:href="#DejaVuSans-6f" x="60.576172"/>
      <use xlink:href="#DejaVuSans-6c" x="121.757812"/>
      <use xlink:href="#DejaVuSans-6d" x="149.541016"/>
      <use xlink:href="#DejaVuSans-6f" x="246.953125"/>
      <use xlink:href="#DejaVuSans-67" x="308.134766"/>
      <use xlink:href="#DejaVuSans-6f" x="371.611328"/>
      <use xlink:href="#DejaVuSans-72" x="432.792969"/>
      <use xlink:href="#DejaVuSans-6f" x="471.65625"/>
      <use xlink:href="#DejaVuSans-76" x="532.837891"/>
      <use xlink:href="#DejaVuSans-20" x="592.017578"/>
      <use xlink:href="#DejaVuSans-64" x="623.804688"/>
      <use xlink:href="#DejaVuSans-69" x="687.28125"/>
      <use xlink:href="#DejaVuSans-73" x="715.064453"/>
      <use xlink:href="#DejaVuSans-74" x="767.164062"/>
      <use xlink:href="#DejaVuSans-72" x="806.373047"/>
      <use xlink:href="#DejaVuSans-69" x="847.486328"/>
      <use xlink:href="#DejaVuSans-62" x="875.269531"/>
      <use xlink:href="#DejaVuSans-75" x="938.746094"/>
      <use xlink:href="#DejaVuSans-74" x="1002.125"/>
      <use xlink:href="#DejaVuSans-69" x="1041.333984"/>
      <use xlink:href="#DejaVuSans-6f" x="1069.117188"/>
      <use xlink:href="#DejaVuSans-6e" x="1130.298828"/>
     </g>
    </g>
   </g>
  </g>
  <g id="axes_2">
   <g id="patch_59">
    <path d="M 816.859716 468.8775 
L 1450.950625 468.8775 
L 1450.950625 25.3575 
L 816.859716 25.3575 
z
" style="fill: #ffffff"/>
   </g>
   <g id="patch_60">
    <path d="M 919.653702 468.8775 
L 929.098042 468.8775 
L 929.098042 466.945793 
L 919.653702 466.945793 
z
" clip-path="url(#p69c5aeef7d)" style="fill: #1f77b4; opacity: 0.4"/>
   </g>
   <g id="patch_61">
    <path d="M 929.098042 468.8775 
L 938.542381 468.8775 
L 938.542381 454.711646 
L 929.098042 454.711646 
z
" clip-path="url(#p69c5aeef7d)" style="fill: #1f77b4; opacity: 0.4"/>
   </g>
   <g id="patch_62">
    <path d="M 938.542381 468.8775 
L 947.986721 468.8775 
L 947.986721 418.65311 
L 938.542381 418.65311 
z
" clip-path="url(#p69c5aeef7d)" style="fill: #1f77b4; opacity: 0.4"/>
   </g>
   <g id="patch_63">
    <path d="M 947.986721 468.8775 
L 957.431061 468.8775 
L 957.431061 379.375061 
L 947.986721 379.375061 
z
" clip-path="url(#p69c5aeef7d)" style="fill: #1f77b4; opacity: 0.4"/>
   </g>
   <g id="patch_64">
    <path d="M 957.431061 468.8775 
L 966.8754 468.8775 
L 966.8754 322.067744 
L 957.431061 322.067744 
z
" clip-path="url(#p69c5aeef7d)" style="fill: #1f77b4; opacity: 0.4"/>
   </g>
   <g id="patch_65">
    <path d="M 966.8754 468.8775 
L 976.31974 468.8775 
L 976.31974 242.867744 
L 966.8754 242.867744 
z
" clip-path="url(#p69c5aeef7d)" style="fill: #1f77b4; opacity: 0.4"/>
   </g>
   <g id="patch_66">
    <path d="M 976.31974 468.8775 
L 985.76408 468.8775 
L 985.76408 195.862866 
L 976.31974 195.862866 
z
" clip-path="url(#p69c5aeef7d)" style="fill: #1f77b4; opacity: 0.4"/>
   </g>
   <g id="patch_67">
    <path d="M 985.76408 468.8775 
L 995.20842 468.8775 
L 995.20842 116.662866 
L 985.76408 116.662866 
z
" clip-path="url(#p69c5aeef7d)" style="fill: #1f77b4; opacity: 0.4"/>
   </g>
   <g id="patch_68">
    <path d="M 995.20842 468.8775 
L 1004.652759 468.8775 
L 1004.652759 65.794573 
L 995.20842 65.794573 
z
" clip-path="url(#p69c5aeef7d)" style="fill: #1f77b4; opacity: 0.4"/>
   </g>
   <g id="patch_69">
    <path d="M 1004.652759 468.8775 
L 1014.097099 468.8775 
L 1014.097099 59.355549 
L 1004.652759 59.355549 
z
" clip-path="url(#p69c5aeef7d)" style="fill: #1f77b4; opacity: 0.4"/>
   </g>
   <g id="patch_70">
    <path d="M 1014.097099 468.8775 
L 1023.541439 468.8775 
L 1023.541439 59.355549 
L 1014.097099 59.355549 
z
" clip-path="url(#p69c5aeef7d)" style="fill: #1f77b4; opacity: 0.4"/>
   </g>
   <g id="patch_71">
    <path d="M 1023.541439 468.8775 
L 1032.985779 468.8775 
L 1032.985779 46.4775 
L 1023.541439 46.4775 
z
" clip-path="url(#p69c5aeef7d)" style="fill: #1f77b4; opacity: 0.4"/>
   </g>
   <g id="patch_72">
    <path d="M 1032.985779 468.8775 
L 1042.430118 468.8775 
L 1042.430118 74.165305 
L 1032.985779 74.165305 
z
" clip-path="url(#p69c5aeef7d)" style="fill: #1f77b4; opacity: 0.4"/>
   </g>
   <g id="patch_73">
    <path d="M 1042.430118 468.8775 
L 1051.874458 468.8775 
L 1051.874458 72.233598 
L 1042.430118 72.233598 
z
" clip-path="url(#p69c5aeef7d)" style="fill: #1f77b4; opacity: 0.4"/>
   </g>
   <g id="patch_74">
    <path d="M 1051.874458 468.8775 
L 1061.318798 468.8775 
L 1061.318798 116.018963 
L 1051.874458 116.018963 
z
" clip-path="url(#p69c5aeef7d)" style="fill: #1f77b4; opacity: 0.4"/>
   </g>
   <g id="patch_75">
    <path d="M 1061.318798 468.8775 
L 1070.763138 468.8775 
L 1070.763138 137.267744 
L 1061.318798 137.267744 
z
" clip-path="url(#p69c5aeef7d)" style="fill: #1f77b4; opacity: 0.4"/>
   </g>
   <g id="patch_76">
    <path d="M 1070.763138 468.8775 
L 1080.207477 468.8775 
L 1080.207477 161.092134 
L 1070.763138 161.092134 
z
" clip-path="url(#p69c5aeef7d)" style="fill: #1f77b4; opacity: 0.4"/>
   </g>
   <g id="patch_77">
    <path d="M 1080.207477 468.8775 
L 1089.651817 468.8775 
L 1089.651817 208.097012 
L 1080.207477 208.097012 
z
" clip-path="url(#p69c5aeef7d)" style="fill: #1f77b4; opacity: 0.4"/>
   </g>
   <g id="patch_78">
    <path d="M 1089.651817 468.8775 
L 1099.096157 468.8775 
L 1099.096157 217.111646 
L 1089.651817 217.111646 
z
" clip-path="url(#p69c5aeef7d)" style="fill: #1f77b4; opacity: 0.4"/>
   </g>
   <g id="patch_79">
    <path d="M 1099.096157 468.8775 
L 1108.540496 468.8775 
L 1108.540496 257.6775 
L 1099.096157 257.6775 
z
" clip-path="url(#p69c5aeef7d)" style="fill: #1f77b4; opacity: 0.4"/>
   </g>
   <g id="patch_80">
    <path d="M 1108.540496 468.8775 
L 1117.984836 468.8775 
L 1117.984836 294.379939 
L 1108.540496 294.379939 
z
" clip-path="url(#p69c5aeef7d)" style="fill: #1f77b4; opacity: 0.4"/>
   </g>
   <g id="patch_81">
    <path d="M 1117.984836 468.8775 
L 1127.429176 468.8775 
L 1127.429176 304.038476 
L 1117.984836 304.038476 
z
" clip-path="url(#p69c5aeef7d)" style="fill: #1f77b4; opacity: 0.4"/>
   </g>
   <g id="patch_82">
    <path d="M 1127.429176 468.8775 
L 1136.873516 468.8775 
L 1136.873516 338.165305 
L 1127.429176 338.165305 
z
" clip-path="url(#p69c5aeef7d)" style="fill: #1f77b4; opacity: 0.4"/>
   </g>
   <g id="patch_83">
    <path d="M 1136.873516 468.8775 
L 1146.317855 468.8775 
L 1146.317855 361.345793 
L 1136.873516 361.345793 
z
" clip-path="url(#p69c5aeef7d)" style="fill: #1f77b4; opacity: 0.4"/>
   </g>
   <g id="patch_84">
    <path d="M 1146.317855 468.8775 
L 1155.762195 468.8775 
L 1155.762195 383.882378 
L 1146.317855 383.882378 
z
" clip-path="url(#p69c5aeef7d)" style="fill: #1f77b4; opacity: 0.4"/>
   </g>
   <g id="patch_85">
    <path d="M 1155.762195 468.8775 
L 1165.206535 468.8775 
L 1165.206535 388.389695 
L 1155.762195 388.389695 
z
" clip-path="url(#p69c5aeef7d)" style="fill: #1f77b4; opacity: 0.4"/>
   </g>
   <g id="patch_86">
    <path d="M 1165.206535 468.8775 
L 1174.650875 468.8775 
L 1174.650875 385.814085 
L 1165.206535 385.814085 
z
" clip-path="url(#p69c5aeef7d)" style="fill: #1f77b4; opacity: 0.4"/>
   </g>
   <g id="patch_87">
    <path d="M 1174.650875 468.8775 
L 1184.095214 468.8775 
L 1184.095214 412.214085 
L 1174.650875 412.214085 
z
" clip-path="url(#p69c5aeef7d)" style="fill: #1f77b4; opacity: 0.4"/>
   </g>
   <g id="patch_88">
    <path d="M 1184.095214 468.8775 
L 1193.539554 468.8775 
L 1193.539554 420.584817 
L 1184.095214 420.584817 
z
" clip-path="url(#p69c5aeef7d)" style="fill: #1f77b4; opacity: 0.4"/>
   </g>
   <g id="patch_89">
    <path d="M 1193.539554 468.8775 
L 1202.983894 468.8775 
L 1202.983894 423.160427 
L 1193.539554 423.160427 
z
" clip-path="url(#p69c5aeef7d)" style="fill: #1f77b4; opacity: 0.4"/>
   </g>
   <g id="patch_90">
    <path d="M 1202.983894 468.8775 
L 1212.428234 468.8775 
L 1212.428234 442.4775 
L 1202.983894 442.4775 
z
" clip-path="url(#p69c5aeef7d)" style="fill: #1f77b4; opacity: 0.4"/>
   </g>
   <g id="patch_91">
    <path d="M 1212.428234 468.8775 
L 1221.872573 468.8775 
L 1221.872573 439.257988 
L 1212.428234 439.257988 
z
" clip-path="url(#p69c5aeef7d)" style="fill: #1f77b4; opacity: 0.4"/>
   </g>
   <g id="patch_92">
    <path d="M 1221.872573 468.8775 
L 1231.316913 468.8775 
L 1231.316913 449.560427 
L 1221.872573 449.560427 
z
" clip-path="url(#p69c5aeef7d)" style="fill: #1f77b4; opacity: 0.4"/>
   </g>
   <g id="patch_93">
    <path d="M 1231.316913 468.8775 
L 1240.761253 468.8775 
L 1240.761253 455.999451 
L 1231.316913 455.999451 
z
" clip-path="url(#p69c5aeef7d)" style="fill: #1f77b4; opacity: 0.4"/>
   </g>
   <g id="patch_94">
    <path d="M 1240.761253 468.8775 
L 1250.205592 468.8775 
L 1250.205592 459.218963 
L 1240.761253 459.218963 
z
" clip-path="url(#p69c5aeef7d)" style="fill: #1f77b4; opacity: 0.4"/>
   </g>
   <g id="patch_95">
    <path d="M 1250.205592 468.8775 
L 1259.649932 468.8775 
L 1259.649932 453.423841 
L 1250.205592 453.423841 
z
" clip-path="url(#p69c5aeef7d)" style="fill: #1f77b4; opacity: 0.4"/>
   </g>
   <g id="patch_96">
    <path d="M 1259.649932 468.8775 
L 1269.094272 468.8775 
L 1269.094272 458.575061 
L 1259.649932 458.575061 
z
" clip-path="url(#p69c5aeef7d)" style="fill: #1f77b4; opacity: 0.4"/>
   </g>
   <g id="patch_97">
    <path d="M 1269.094272 468.8775 
L 1278.538612 468.8775 
L 1278.538612 459.862866 
L 1269.094272 459.862866 
z
" clip-path="url(#p69c5aeef7d)" style="fill: #1f77b4; opacity: 0.4"/>
   </g>
   <g id="patch_98">
    <path d="M 1278.538612 468.8775 
L 1287.982951 468.8775 
L 1287.982951 460.506768 
L 1278.538612 460.506768 
z
" clip-path="url(#p69c5aeef7d)" style="fill: #1f77b4; opacity: 0.4"/>
   </g>
   <g id="patch_99">
    <path d="M 1287.982951 468.8775 
L 1297.427291 468.8775 
L 1297.427291 466.30189 
L 1287.982951 466.30189 
z
" clip-path="url(#p69c5aeef7d)" style="fill: #1f77b4; opacity: 0.4"/>
   </g>
   <g id="patch_100">
    <path d="M 1297.427291 468.8775 
L 1306.871631 468.8775 
L 1306.871631 465.657988 
L 1297.427291 465.657988 
z
" clip-path="url(#p69c5aeef7d)" style="fill: #1f77b4; opacity: 0.4"/>
   </g>
   <g id="patch_101">
    <path d="M 1306.871631 468.8775 
L 1316.315971 468.8775 
L 1316.315971 467.589695 
L 1306.871631 467.589695 
z
" clip-path="url(#p69c5aeef7d)" style="fill: #1f77b4; opacity: 0.4"/>
   </g>
   <g id="patch_102">
    <path d="M 1316.315971 468.8775 
L 1325.76031 468.8775 
L 1325.76031 466.30189 
L 1316.315971 466.30189 
z
" clip-path="url(#p69c5aeef7d)" style="fill: #1f77b4; opacity: 0.4"/>
   </g>
   <g id="patch_103">
    <path d="M 1325.76031 468.8775 
L 1335.20465 468.8775 
L 1335.20465 467.589695 
L 1325.76031 467.589695 
z
" clip-path="url(#p69c5aeef7d)" style="fill: #1f77b4; opacity: 0.4"/>
   </g>
   <g id="patch_104">
    <path d="M 1335.20465 468.8775 
L 1344.64899 468.8775 
L 1344.64899 466.30189 
L 1335.20465 466.30189 
z
" clip-path="url(#p69c5aeef7d)" style="fill: #1f77b4; opacity: 0.4"/>
   </g>
   <g id="patch_105">
    <path d="M 1344.64899 468.8775 
L 1354.093329 468.8775 
L 1354.093329 468.233598 
L 1344.64899 468.233598 
z
" clip-path="url(#p69c5aeef7d)" style="fill: #1f77b4; opacity: 0.4"/>
   </g>
   <g id="patch_106">
    <path d="M 1354.093329 468.8775 
L 1363.537669 468.8775 
L 1363.537669 468.8775 
L 1354.093329 468.8775 
z
" clip-path="url(#p69c5aeef7d)" style="fill: #1f77b4; opacity: 0.4"/>
   </g>
   <g id="patch_107">
    <path d="M 1363.537669 468.8775 
L 1372.982009 468.8775 
L 1372.982009 468.233598 
L 1363.537669 468.233598 
z
" clip-path="url(#p69c5aeef7d)" style="fill: #1f77b4; opacity: 0.4"/>
   </g>
   <g id="patch_108">
    <path d="M 1372.982009 468.8775 
L 1382.426349 468.8775 
L 1382.426349 468.8775 
L 1372.982009 468.8775 
z
" clip-path="url(#p69c5aeef7d)" style="fill: #1f77b4; opacity: 0.4"/>
   </g>
   <g id="patch_109">
    <path d="M 1382.426349 468.8775 
L 1391.870688 468.8775 
L 1391.870688 468.233598 
L 1382.426349 468.233598 
z
" clip-path="url(#p69c5aeef7d)" style="fill: #1f77b4; opacity: 0.4"/>
   </g>
   <g id="matplotlib.axis_3">
    <g id="xtick_6">
     <g id="line2d_30">
      <path d="M 845.68203 468.8775 
L 845.68203 25.3575 
" clip-path="url(#p69c5aeef7d)" style="fill: none; stroke: #b0b0b0; stroke-width: 0.2; stroke-linecap: square"/>
     </g>
     <g id="line2d_31">
      <g>
       <use xlink:href="#mc033d4c728" x="845.68203" y="468.8775" style="stroke: #000000; stroke-width: 0.8"/>
      </g>
     </g>
     <g id="text_19">
      <!-- 0.0 -->
      <g transform="translate(837.730467 483.475938) scale(0.1 -0.1)">
       <use xlink:href="#DejaVuSans-30"/>
       <use xlink:href="#DejaVuSans-2e" x="63.623047"/>
       <use xlink:href="#DejaVuSans-30" x="95.410156"/>
      </g>
     </g>
    </g>
    <g id="xtick_7">
     <g id="line2d_32">
      <path d="M 967.746728 468.8775 
L 967.746728 25.3575 
" clip-path="url(#p69c5aeef7d)" style="fill: none; stroke: #b0b0b0; stroke-width: 0.2; stroke-linecap: square"/>
     </g>
     <g id="line2d_33">
      <g>
       <use xlink:href="#mc033d4c728" x="967.746728" y="468.8775" style="stroke: #000000; stroke-width: 0.8"/>
      </g>
     </g>
     <g id="text_20">
      <!-- 0.5 -->
      <g transform="translate(959.795166 483.475938) scale(0.1 -0.1)">
       <use xlink:href="#DejaVuSans-30"/>
       <use xlink:href="#DejaVuSans-2e" x="63.623047"/>
       <use xlink:href="#DejaVuSans-35" x="95.410156"/>
      </g>
     </g>
    </g>
    <g id="xtick_8">
     <g id="line2d_34">
      <path d="M 1089.811426 468.8775 
L 1089.811426 25.3575 
" clip-path="url(#p69c5aeef7d)" style="fill: none; stroke: #b0b0b0; stroke-width: 0.2; stroke-linecap: square"/>
     </g>
     <g id="line2d_35">
      <g>
       <use xlink:href="#mc033d4c728" x="1089.811426" y="468.8775" style="stroke: #000000; stroke-width: 0.8"/>
      </g>
     </g>
     <g id="text_21">
      <!-- 1.0 -->
      <g transform="translate(1081.859864 483.475938) scale(0.1 -0.1)">
       <use xlink:href="#DejaVuSans-31"/>
       <use xlink:href="#DejaVuSans-2e" x="63.623047"/>
       <use xlink:href="#DejaVuSans-30" x="95.410156"/>
      </g>
     </g>
    </g>
    <g id="xtick_9">
     <g id="line2d_36">
      <path d="M 1211.876125 468.8775 
L 1211.876125 25.3575 
" clip-path="url(#p69c5aeef7d)" style="fill: none; stroke: #b0b0b0; stroke-width: 0.2; stroke-linecap: square"/>
     </g>
     <g id="line2d_37">
      <g>
       <use xlink:href="#mc033d4c728" x="1211.876125" y="468.8775" style="stroke: #000000; stroke-width: 0.8"/>
      </g>
     </g>
     <g id="text_22">
      <!-- 1.5 -->
      <g transform="translate(1203.924562 483.475938) scale(0.1 -0.1)">
       <use xlink:href="#DejaVuSans-31"/>
       <use xlink:href="#DejaVuSans-2e" x="63.623047"/>
       <use xlink:href="#DejaVuSans-35" x="95.410156"/>
      </g>
     </g>
    </g>
    <g id="xtick_10">
     <g id="line2d_38">
      <path d="M 1333.940823 468.8775 
L 1333.940823 25.3575 
" clip-path="url(#p69c5aeef7d)" style="fill: none; stroke: #b0b0b0; stroke-width: 0.2; stroke-linecap: square"/>
     </g>
     <g id="line2d_39">
      <g>
       <use xlink:href="#mc033d4c728" x="1333.940823" y="468.8775" style="stroke: #000000; stroke-width: 0.8"/>
      </g>
     </g>
     <g id="text_23">
      <!-- 2.0 -->
      <g transform="translate(1325.98926 483.475938) scale(0.1 -0.1)">
       <use xlink:href="#DejaVuSans-32"/>
       <use xlink:href="#DejaVuSans-2e" x="63.623047"/>
       <use xlink:href="#DejaVuSans-30" x="95.410156"/>
      </g>
     </g>
    </g>
    <g id="text_24">
     <!-- Statistics -->
     <g transform="translate(1097.33642 501.713125) scale(0.16 -0.16)">
      <use xlink:href="#DejaVuSans-53"/>
      <use xlink:href="#DejaVuSans-74" x="63.476562"/>
      <use xlink:href="#DejaVuSans-61" x="102.685547"/>
      <use xlink:href="#DejaVuSans-74" x="163.964844"/>
      <use xlink:href="#DejaVuSans-69" x="203.173828"/>
      <use xlink:href="#DejaVuSans-73" x="230.957031"/>
      <use xlink:href="#DejaVuSans-74" x="283.056641"/>
      <use xlink:href="#DejaVuSans-69" x="322.265625"/>
      <use xlink:href="#DejaVuSans-63" x="350.048828"/>
      <use xlink:href="#DejaVuSans-73" x="405.029297"/>
     </g>
    </g>
   </g>
   <g id="matplotlib.axis_4">
    <g id="ytick_9">
     <g id="line2d_40">
      <path d="M 816.859716 468.8775 
L 1450.950625 468.8775 
" clip-path="url(#p69c5aeef7d)" style="fill: none; stroke: #b0b0b0; stroke-width: 0.2; stroke-linecap: square"/>
     </g>
     <g id="line2d_41">
      <g>
       <use xlink:href="#m338804e6f9" x="816.859716" y="468.8775" style="stroke: #000000; stroke-width: 0.8"/>
      </g>
     </g>
     <g id="text_25">
      <!-- 0.0 -->
      <g transform="translate(793.956591 472.676719) scale(0.1 -0.1)">
       <use xlink:href="#DejaVuSans-30"/>
       <use xlink:href="#DejaVuSans-2e" x="63.623047"/>
       <use xlink:href="#DejaVuSans-30" x="95.410156"/>
      </g>
     </g>
    </g>
    <g id="ytick_10">
     <g id="line2d_42">
      <path d="M 816.859716 419.057745 
L 1450.950625 419.057745 
" clip-path="url(#p69c5aeef7d)" style="fill: none; stroke: #b0b0b0; stroke-width: 0.2; stroke-linecap: square"/>
     </g>
     <g id="line2d_43">
      <g>
       <use xlink:href="#m338804e6f9" x="816.859716" y="419.057745" style="stroke: #000000; stroke-width: 0.8"/>
      </g>
     </g>
     <g id="text_26">
      <!-- 0.2 -->
      <g transform="translate(793.956591 422.856964) scale(0.1 -0.1)">
       <use xlink:href="#DejaVuSans-30"/>
       <use xlink:href="#DejaVuSans-2e" x="63.623047"/>
       <use xlink:href="#DejaVuSans-32" x="95.410156"/>
      </g>
     </g>
    </g>
    <g id="ytick_11">
     <g id="line2d_44">
      <path d="M 816.859716 369.23799 
L 1450.950625 369.23799 
" clip-path="url(#p69c5aeef7d)" style="fill: none; stroke: #b0b0b0; stroke-width: 0.2; stroke-linecap: square"/>
     </g>
     <g id="line2d_45">
      <g>
       <use xlink:href="#m338804e6f9" x="816.859716" y="369.23799" style="stroke: #000000; stroke-width: 0.8"/>
      </g>
     </g>
     <g id="text_27">
      <!-- 0.4 -->
      <g transform="translate(793.956591 373.037208) scale(0.1 -0.1)">
       <defs>
        <path id="DejaVuSans-34" d="M 2419 4116 
L 825 1625 
L 2419 1625 
L 2419 4116 
z
M 2253 4666 
L 3047 4666 
L 3047 1625 
L 3713 1625 
L 3713 1100 
L 3047 1100 
L 3047 0 
L 2419 0 
L 2419 1100 
L 313 1100 
L 313 1709 
L 2253 4666 
z
" transform="scale(0.015625)"/>
       </defs>
       <use xlink:href="#DejaVuSans-30"/>
       <use xlink:href="#DejaVuSans-2e" x="63.623047"/>
       <use xlink:href="#DejaVuSans-34" x="95.410156"/>
      </g>
     </g>
    </g>
    <g id="ytick_12">
     <g id="line2d_46">
      <path d="M 816.859716 319.418234 
L 1450.950625 319.418234 
" clip-path="url(#p69c5aeef7d)" style="fill: none; stroke: #b0b0b0; stroke-width: 0.2; stroke-linecap: square"/>
     </g>
     <g id="line2d_47">
      <g>
       <use xlink:href="#m338804e6f9" x="816.859716" y="319.418234" style="stroke: #000000; stroke-width: 0.8"/>
      </g>
     </g>
     <g id="text_28">
      <!-- 0.6 -->
      <g transform="translate(793.956591 323.217453) scale(0.1 -0.1)">
       <defs>
        <path id="DejaVuSans-36" d="M 2113 2584 
Q 1688 2584 1439 2293 
Q 1191 2003 1191 1497 
Q 1191 994 1439 701 
Q 1688 409 2113 409 
Q 2538 409 2786 701 
Q 3034 994 3034 1497 
Q 3034 2003 2786 2293 
Q 2538 2584 2113 2584 
z
M 3366 4563 
L 3366 3988 
Q 3128 4100 2886 4159 
Q 2644 4219 2406 4219 
Q 1781 4219 1451 3797 
Q 1122 3375 1075 2522 
Q 1259 2794 1537 2939 
Q 1816 3084 2150 3084 
Q 2853 3084 3261 2657 
Q 3669 2231 3669 1497 
Q 3669 778 3244 343 
Q 2819 -91 2113 -91 
Q 1303 -91 875 529 
Q 447 1150 447 2328 
Q 447 3434 972 4092 
Q 1497 4750 2381 4750 
Q 2619 4750 2861 4703 
Q 3103 4656 3366 4563 
z
" transform="scale(0.015625)"/>
       </defs>
       <use xlink:href="#DejaVuSans-30"/>
       <use xlink:href="#DejaVuSans-2e" x="63.623047"/>
       <use xlink:href="#DejaVuSans-36" x="95.410156"/>
      </g>
     </g>
    </g>
    <g id="ytick_13">
     <g id="line2d_48">
      <path d="M 816.859716 269.598479 
L 1450.950625 269.598479 
" clip-path="url(#p69c5aeef7d)" style="fill: none; stroke: #b0b0b0; stroke-width: 0.2; stroke-linecap: square"/>
     </g>
     <g id="line2d_49">
      <g>
       <use xlink:href="#m338804e6f9" x="816.859716" y="269.598479" style="stroke: #000000; stroke-width: 0.8"/>
      </g>
     </g>
     <g id="text_29">
      <!-- 0.8 -->
      <g transform="translate(793.956591 273.397698) scale(0.1 -0.1)">
       <defs>
        <path id="DejaVuSans-38" d="M 2034 2216 
Q 1584 2216 1326 1975 
Q 1069 1734 1069 1313 
Q 1069 891 1326 650 
Q 1584 409 2034 409 
Q 2484 409 2743 651 
Q 3003 894 3003 1313 
Q 3003 1734 2745 1975 
Q 2488 2216 2034 2216 
z
M 1403 2484 
Q 997 2584 770 2862 
Q 544 3141 544 3541 
Q 544 4100 942 4425 
Q 1341 4750 2034 4750 
Q 2731 4750 3128 4425 
Q 3525 4100 3525 3541 
Q 3525 3141 3298 2862 
Q 3072 2584 2669 2484 
Q 3125 2378 3379 2068 
Q 3634 1759 3634 1313 
Q 3634 634 3220 271 
Q 2806 -91 2034 -91 
Q 1263 -91 848 271 
Q 434 634 434 1313 
Q 434 1759 690 2068 
Q 947 2378 1403 2484 
z
M 1172 3481 
Q 1172 3119 1398 2916 
Q 1625 2713 2034 2713 
Q 2441 2713 2670 2916 
Q 2900 3119 2900 3481 
Q 2900 3844 2670 4047 
Q 2441 4250 2034 4250 
Q 1625 4250 1398 4047 
Q 1172 3844 1172 3481 
z
" transform="scale(0.015625)"/>
       </defs>
       <use xlink:href="#DejaVuSans-30"/>
       <use xlink:href="#DejaVuSans-2e" x="63.623047"/>
       <use xlink:href="#DejaVuSans-38" x="95.410156"/>
      </g>
     </g>
    </g>
    <g id="ytick_14">
     <g id="line2d_50">
      <path d="M 816.859716 219.778724 
L 1450.950625 219.778724 
" clip-path="url(#p69c5aeef7d)" style="fill: none; stroke: #b0b0b0; stroke-width: 0.2; stroke-linecap: square"/>
     </g>
     <g id="line2d_51">
      <g>
       <use xlink:href="#m338804e6f9" x="816.859716" y="219.778724" style="stroke: #000000; stroke-width: 0.8"/>
      </g>
     </g>
     <g id="text_30">
      <!-- 1.0 -->
      <g transform="translate(793.956591 223.577943) scale(0.1 -0.1)">
       <use xlink:href="#DejaVuSans-31"/>
       <use xlink:href="#DejaVuSans-2e" x="63.623047"/>
       <use xlink:href="#DejaVuSans-30" x="95.410156"/>
      </g>
     </g>
    </g>
    <g id="ytick_15">
     <g id="line2d_52">
      <path d="M 816.859716 169.958969 
L 1450.950625 169.958969 
" clip-path="url(#p69c5aeef7d)" style="fill: none; stroke: #b0b0b0; stroke-width: 0.2; stroke-linecap: square"/>
     </g>
     <g id="line2d_53">
      <g>
       <use xlink:href="#m338804e6f9" x="816.859716" y="169.958969" style="stroke: #000000; stroke-width: 0.8"/>
      </g>
     </g>
     <g id="text_31">
      <!-- 1.2 -->
      <g transform="translate(793.956591 173.758187) scale(0.1 -0.1)">
       <use xlink:href="#DejaVuSans-31"/>
       <use xlink:href="#DejaVuSans-2e" x="63.623047"/>
       <use xlink:href="#DejaVuSans-32" x="95.410156"/>
      </g>
     </g>
    </g>
    <g id="ytick_16">
     <g id="line2d_54">
      <path d="M 816.859716 120.139213 
L 1450.950625 120.139213 
" clip-path="url(#p69c5aeef7d)" style="fill: none; stroke: #b0b0b0; stroke-width: 0.2; stroke-linecap: square"/>
     </g>
     <g id="line2d_55">
      <g>
       <use xlink:href="#m338804e6f9" x="816.859716" y="120.139213" style="stroke: #000000; stroke-width: 0.8"/>
      </g>
     </g>
     <g id="text_32">
      <!-- 1.4 -->
      <g transform="translate(793.956591 123.938432) scale(0.1 -0.1)">
       <use xlink:href="#DejaVuSans-31"/>
       <use xlink:href="#DejaVuSans-2e" x="63.623047"/>
       <use xlink:href="#DejaVuSans-34" x="95.410156"/>
      </g>
     </g>
    </g>
    <g id="ytick_17">
     <g id="line2d_56">
      <path d="M 816.859716 70.319458 
L 1450.950625 70.319458 
" clip-path="url(#p69c5aeef7d)" style="fill: none; stroke: #b0b0b0; stroke-width: 0.2; stroke-linecap: square"/>
     </g>
     <g id="line2d_57">
      <g>
       <use xlink:href="#m338804e6f9" x="816.859716" y="70.319458" style="stroke: #000000; stroke-width: 0.8"/>
      </g>
     </g>
     <g id="text_33">
      <!-- 1.6 -->
      <g transform="translate(793.956591 74.118677) scale(0.1 -0.1)">
       <use xlink:href="#DejaVuSans-31"/>
       <use xlink:href="#DejaVuSans-2e" x="63.623047"/>
       <use xlink:href="#DejaVuSans-36" x="95.410156"/>
      </g>
     </g>
    </g>
    <g id="text_34">
     <!-- Density -->
     <g transform="translate(786.629091 277.53125) rotate(-90) scale(0.16 -0.16)">
      <use xlink:href="#DejaVuSans-44"/>
      <use xlink:href="#DejaVuSans-65" x="77.001953"/>
      <use xlink:href="#DejaVuSans-6e" x="138.525391"/>
      <use xlink:href="#DejaVuSans-73" x="201.904297"/>
      <use xlink:href="#DejaVuSans-69" x="254.003906"/>
      <use xlink:href="#DejaVuSans-74" x="281.787109"/>
      <use xlink:href="#DejaVuSans-79" x="320.996094"/>
     </g>
    </g>
   </g>
   <g id="line2d_58">
    <path d="M 889.396079 468.873421 
L 900.104265 468.791689 
L 905.458358 468.580382 
L 908.135404 468.355646 
L 910.81245 467.991735 
L 913.489497 467.42102 
L 916.166543 466.553528 
L 918.84359 465.275913 
L 921.520636 463.454546 
L 924.197682 460.943969 
L 926.874729 457.600464 
L 929.551775 453.2982 
L 932.228822 447.943453 
L 934.905868 441.482 
L 937.582914 433.896696 
L 940.259961 425.196093 
L 942.937007 415.398938 
L 945.614053 404.521361 
L 948.2911 392.572342 
L 950.968146 379.559261 
L 953.645193 365.501011 
L 956.322239 350.443398 
L 958.999285 334.470932 
L 964.353378 300.323397 
L 972.384517 246.152247 
L 980.415657 191.721125 
L 985.769749 156.660659 
L 988.446796 140.053739 
L 991.123842 124.48035 
L 993.800888 110.305702 
L 996.477935 97.864772 
L 999.154981 87.390368 
L 1001.832028 78.956103 
L 1004.509074 72.45565 
L 1007.18612 67.628241 
L 1009.863167 64.123856 
L 1012.540213 61.587383 
L 1015.21726 59.735583 
L 1017.894306 58.405007 
L 1020.571352 57.560117 
L 1023.248399 57.264178 
L 1025.925445 57.627046 
L 1028.602492 58.750595 
L 1031.279538 60.691379 
L 1033.956584 63.451042 
L 1036.633631 66.991303 
L 1039.310677 71.259118 
L 1041.987724 76.205102 
L 1044.66477 81.785623 
L 1047.341816 87.951041 
L 1050.018863 94.631351 
L 1055.372955 109.136812 
L 1063.404095 132.191229 
L 1074.11228 163.587053 
L 1090.174559 211.802096 
L 1095.528651 228.542605 
L 1100.882744 246.366311 
L 1106.236837 264.389701 
L 1108.913883 272.937265 
L 1111.59093 280.946493 
L 1114.267976 288.380357 
L 1119.622069 301.991587 
L 1124.976162 315.353078 
L 1130.330254 329.694755 
L 1138.361394 351.947102 
L 1141.03844 358.780521 
L 1143.715486 364.995746 
L 1146.392533 370.465328 
L 1149.069579 375.125967 
L 1151.746626 378.981757 
L 1154.423672 382.102641 
L 1157.100718 384.61863 
L 1159.777765 386.709341 
L 1165.131857 390.477424 
L 1167.808904 392.581592 
L 1170.48595 395.050082 
L 1173.162997 397.94951 
L 1175.840043 401.249307 
L 1186.548229 415.59493 
L 1189.225275 418.774124 
L 1191.902321 421.703265 
L 1197.256414 427.042289 
L 1202.610507 432.0088 
L 1207.9646 436.546674 
L 1210.641646 438.572504 
L 1215.995739 442.165857 
L 1229.380971 450.401505 
L 1232.058017 451.933739 
L 1234.735064 453.313623 
L 1237.41211 454.483005 
L 1240.089156 455.399415 
L 1242.766203 456.045199 
L 1245.443249 456.4338 
L 1248.120296 456.610984 
L 1258.828481 456.757455 
L 1261.505528 456.994209 
L 1264.182574 457.364005 
L 1269.536667 458.42194 
L 1277.567806 460.428452 
L 1290.953038 463.989876 
L 1296.307131 465.093817 
L 1301.661223 465.852763 
L 1307.015316 466.350431 
L 1315.046455 466.840368 
L 1323.077595 467.082249 
L 1339.139873 467.322575 
L 1365.910337 468.47157 
L 1379.295569 468.640868 
L 1403.388986 468.751816 
L 1419.451265 468.87178 
L 1422.128311 468.874828 
L 1422.128311 468.874828 
" clip-path="url(#p69c5aeef7d)" style="fill: none; stroke: #1f77b4; stroke-width: 1.5; stroke-linecap: square"/>
   </g>
   <g id="line2d_59">
    <path d="M 845.68203 468.8775 
L 916.757631 468.778642 
L 920.584779 468.537374 
L 923.318456 468.14997 
L 925.505397 467.621903 
L 927.145604 467.047396 
L 928.78581 466.276887 
L 930.426016 465.26739 
L 932.066222 463.972972 
L 933.706428 462.345897 
L 935.346635 460.337922 
L 936.986841 457.901683 
L 938.627047 454.992098 
L 940.267253 451.567711 
L 941.907459 447.591937 
L 943.547665 443.034132 
L 945.187872 437.870476 
L 946.828078 432.084633 
L 949.015019 423.388928 
L 951.201961 413.5755 
L 953.388903 402.672081 
L 955.575844 390.730388 
L 958.309521 374.457023 
L 961.043198 356.861829 
L 964.32361 334.31472 
L 968.697494 302.527175 
L 982.365878 201.528985 
L 986.193026 175.556577 
L 989.473439 154.816031 
L 992.207116 138.771792 
L 994.940792 123.957167 
L 997.674469 110.442566 
L 999.861411 100.599558 
L 1002.048353 91.634007 
L 1004.235294 83.552715 
L 1006.422236 76.355411 
L 1008.609177 70.035494 
L 1010.249384 65.864199 
L 1011.88959 62.172704 
L 1013.529796 58.95266 
L 1015.170002 56.194494 
L 1016.810208 53.887564 
L 1018.450414 52.0203 
L 1020.090621 50.580335 
L 1021.730827 49.554633 
L 1022.824298 49.094287 
L 1023.917768 48.807888 
L 1025.011239 48.69122 
L 1026.10471 48.74001 
L 1027.198181 48.949931 
L 1028.838387 49.55738 
L 1030.478593 50.502719 
L 1032.118799 51.771047 
L 1033.759005 53.347469 
L 1035.399212 55.217147 
L 1037.039418 57.365361 
L 1039.226359 60.637796 
L 1041.413301 64.345632 
L 1043.600243 68.455754 
L 1046.33392 74.110163 
L 1049.067596 80.282336 
L 1052.348009 88.291105 
L 1055.628421 96.867816 
L 1059.455569 107.474462 
L 1063.829452 120.231028 
L 1069.296806 136.876174 
L 1076.951102 160.962336 
L 1094.99337 218.042487 
L 1102.10093 239.670685 
L 1108.115019 257.310883 
L 1114.129108 274.24132 
L 1119.596462 288.956492 
L 1124.517081 301.616785 
L 1129.437699 313.704858 
L 1134.358318 325.209233 
L 1139.278936 336.124591 
L 1144.199555 346.45091 
L 1148.573438 355.138909 
L 1152.947321 363.370739 
L 1157.321204 371.15421 
L 1161.695088 378.498899 
L 1166.068971 385.415883 
L 1170.442854 391.917492 
L 1174.816737 398.017087 
L 1179.19062 403.728859 
L 1183.564503 409.067646 
L 1187.938387 414.048766 
L 1192.31227 418.687871 
L 1196.686153 423.000807 
L 1201.060036 427.003494 
L 1205.433919 430.71182 
L 1209.807802 434.141539 
L 1214.181685 437.308193 
L 1218.555569 440.227028 
L 1223.476187 443.233028 
L 1228.396806 445.964803 
L 1233.317424 448.4422 
L 1238.238043 450.684261 
L 1243.705397 452.921523 
L 1249.172751 454.914346 
L 1254.640105 456.685005 
L 1260.654194 458.40099 
L 1267.215019 460.025414 
L 1273.775843 461.421349 
L 1280.883403 462.708113 
L 1288.537699 463.867191 
L 1296.73873 464.887319 
L 1306.033232 465.812754 
L 1316.421204 466.612203 
L 1327.902647 467.270066 
L 1341.571032 467.822065 
L 1357.973094 468.25151 
L 1378.749039 468.563223 
L 1391.870688 468.67729 
L 1391.870688 468.67729 
" clip-path="url(#p69c5aeef7d)" style="fill: none; stroke: #ff7f0e; stroke-width: 1.5; stroke-linecap: square"/>
   </g>
   <g id="patch_110">
    <path d="M 816.859716 468.8775 
L 816.859716 25.3575 
" style="fill: none; stroke: #000000; stroke-width: 0.8; stroke-linejoin: miter; stroke-linecap: square"/>
   </g>
   <g id="patch_111">
    <path d="M 1450.950625 468.8775 
L 1450.950625 25.3575 
" style="fill: none; stroke: #000000; stroke-width: 0.8; stroke-linejoin: miter; stroke-linecap: square"/>
   </g>
   <g id="patch_112">
    <path d="M 816.859716 468.8775 
L 1450.950625 468.8775 
" style="fill: none; stroke: #000000; stroke-width: 0.8; stroke-linejoin: miter; stroke-linecap: square"/>
   </g>
   <g id="patch_113">
    <path d="M 816.859716 25.3575 
L 1450.950625 25.3575 
" style="fill: none; stroke: #000000; stroke-width: 0.8; stroke-linejoin: miter; stroke-linecap: square"/>
   </g>
   <g id="text_35">
    <!-- Visualization of Kolmogorov statistic distribution, N=100 -->
    <g transform="translate(908.01267 19.3575) scale(0.16 -0.16)">
     <use xlink:href="#DejaVuSans-56"/>
     <use xlink:href="#DejaVuSans-69" x="66.158203"/>
     <use xlink:href="#DejaVuSans-73" x="93.941406"/>
     <use xlink:href="#DejaVuSans-75" x="146.041016"/>
     <use xlink:href="#DejaVuSans-61" x="209.419922"/>
     <use xlink:href="#DejaVuSans-6c" x="270.699219"/>
     <use xlink:href="#DejaVuSans-69" x="298.482422"/>
     <use xlink:href="#DejaVuSans-7a" x="326.265625"/>
     <use xlink:href="#DejaVuSans-61" x="378.755859"/>
     <use xlink:href="#DejaVuSans-74" x="440.035156"/>
     <use xlink:href="#DejaVuSans-69" x="479.244141"/>
     <use xlink:href="#DejaVuSans-6f" x="507.027344"/>
     <use xlink:href="#DejaVuSans-6e" x="568.208984"/>
     <use xlink:href="#DejaVuSans-20" x="631.587891"/>
     <use xlink:href="#DejaVuSans-6f" x="663.375"/>
     <use xlink:href="#DejaVuSans-66" x="724.556641"/>
     <use xlink:href="#DejaVuSans-20" x="759.761719"/>
     <use xlink:href="#DejaVuSans-4b" x="791.548828"/>
     <use xlink:href="#DejaVuSans-6f" x="852.125"/>
     <use xlink:href="#DejaVuSans-6c" x="913.306641"/>
     <use xlink:href="#DejaVuSans-6d" x="941.089844"/>
     <use xlink:href="#DejaVuSans-6f" x="1038.501953"/>
     <use xlink:href="#DejaVuSans-67" x="1099.683594"/>
     <use xlink:href="#DejaVuSans-6f" x="1163.160156"/>
     <use xlink:href="#DejaVuSans-72" x="1224.341797"/>
     <use xlink:href="#DejaVuSans-6f" x="1263.205078"/>
     <use xlink:href="#DejaVuSans-76" x="1324.386719"/>
     <use xlink:href="#DejaVuSans-20" x="1383.566406"/>
     <use xlink:href="#DejaVuSans-73" x="1415.353516"/>
     <use xlink:href="#DejaVuSans-74" x="1467.453125"/>
     <use xlink:href="#DejaVuSans-61" x="1506.662109"/>
     <use xlink:href="#DejaVuSans-74" x="1567.941406"/>
     <use xlink:href="#DejaVuSans-69" x="1607.150391"/>
     <use xlink:href="#DejaVuSans-73" x="1634.933594"/>
     <use xlink:href="#DejaVuSans-74" x="1687.033203"/>
     <use xlink:href="#DejaVuSans-69" x="1726.242188"/>
     <use xlink:href="#DejaVuSans-63" x="1754.025391"/>
     <use xlink:href="#DejaVuSans-20" x="1809.005859"/>
     <use xlink:href="#DejaVuSans-64" x="1840.792969"/>
     <use xlink:href="#DejaVuSans-69" x="1904.269531"/>
     <use xlink:href="#DejaVuSans-73" x="1932.052734"/>
     <use xlink:href="#DejaVuSans-74" x="1984.152344"/>
     <use xlink:href="#DejaVuSans-72" x="2023.361328"/>
     <use xlink:href="#DejaVuSans-69" x="2064.474609"/>
     <use xlink:href="#DejaVuSans-62" x="2092.257812"/>
     <use xlink:href="#DejaVuSans-75" x="2155.734375"/>
     <use xlink:href="#DejaVuSans-74" x="2219.113281"/>
     <use xlink:href="#DejaVuSans-69" x="2258.322266"/>
     <use xlink:href="#DejaVuSans-6f" x="2286.105469"/>
     <use xlink:href="#DejaVuSans-6e" x="2347.287109"/>
     <use xlink:href="#DejaVuSans-2c" x="2410.666016"/>
     <use xlink:href="#DejaVuSans-20" x="2442.453125"/>
     <use xlink:href="#DejaVuSans-4e" x="2474.240234"/>
     <use xlink:href="#DejaVuSans-3d" x="2549.044922"/>
     <use xlink:href="#DejaVuSans-31" x="2632.833984"/>
     <use xlink:href="#DejaVuSans-30" x="2696.457031"/>
     <use xlink:href="#DejaVuSans-30" x="2760.080078"/>
    </g>
   </g>
   <g id="legend_2">
    <g id="patch_114">
     <path d="M 1197.560625 86.4425 
L 1439.750625 86.4425 
Q 1442.950625 86.4425 1442.950625 83.2425 
L 1442.950625 36.5575 
Q 1442.950625 33.3575 1439.750625 33.3575 
L 1197.560625 33.3575 
Q 1194.360625 33.3575 1194.360625 36.5575 
L 1194.360625 83.2425 
Q 1194.360625 86.4425 1197.560625 86.4425 
z
" style="fill: #ffffff; opacity: 0.8; stroke: #cccccc; stroke-linejoin: miter"/>
    </g>
    <g id="patch_115">
     <path d="M 1200.760625 53.23 
L 1232.760625 53.23 
L 1232.760625 42.03 
L 1200.760625 42.03 
z
" style="fill: #1f77b4; opacity: 0.4"/>
    </g>
    <g id="text_36">
     <!-- $\sqrt{n}D_n$ -->
     <g transform="translate(1245.560625 53.23) scale(0.16 -0.16)">
      <use xlink:href="#DejaVuSans-221a" transform="translate(0 0.890625)"/>
      <use xlink:href="#DejaVuSans-Oblique-6e" transform="translate(76.220703 0.75)"/>
      <use xlink:href="#DejaVuSans-Oblique-44" transform="translate(152.099609 0.890625)"/>
      <use xlink:href="#DejaVuSans-Oblique-6e" transform="translate(229.101562 -15.515625) scale(0.7)"/>
      <path d="M 63.720703 75.5 
L 63.720703 81.75 
L 152.099609 81.75 
L 152.099609 75.5 
L 63.720703 75.5 
z
"/>
     </g>
    </g>
    <g id="line2d_60">
     <path d="M 1200.760625 71.115 
L 1216.760625 71.115 
L 1232.760625 71.115 
" style="fill: none; stroke: #ff7f0e; stroke-width: 1.5; stroke-linecap: square"/>
    </g>
    <g id="text_37">
     <!-- Kolmogorov distribution -->
     <g transform="translate(1245.560625 76.715) scale(0.16 -0.16)">
      <use xlink:href="#DejaVuSans-4b"/>
      <use xlink:href="#DejaVuSans-6f" x="60.576172"/>
      <use xlink:href="#DejaVuSans-6c" x="121.757812"/>
      <use xlink:href="#DejaVuSans-6d" x="149.541016"/>
      <use xlink:href="#DejaVuSans-6f" x="246.953125"/>
      <use xlink:href="#DejaVuSans-67" x="308.134766"/>
      <use xlink:href="#DejaVuSans-6f" x="371.611328"/>
      <use xlink:href="#DejaVuSans-72" x="432.792969"/>
      <use xlink:href="#DejaVuSans-6f" x="471.65625"/>
      <use xlink:href="#DejaVuSans-76" x="532.837891"/>
      <use xlink:href="#DejaVuSans-20" x="592.017578"/>
      <use xlink:href="#DejaVuSans-64" x="623.804688"/>
      <use xlink:href="#DejaVuSans-69" x="687.28125"/>
      <use xlink:href="#DejaVuSans-73" x="715.064453"/>
      <use xlink:href="#DejaVuSans-74" x="767.164062"/>
      <use xlink:href="#DejaVuSans-72" x="806.373047"/>
      <use xlink:href="#DejaVuSans-69" x="847.486328"/>
      <use xlink:href="#DejaVuSans-62" x="875.269531"/>
      <use xlink:href="#DejaVuSans-75" x="938.746094"/>
      <use xlink:href="#DejaVuSans-74" x="1002.125"/>
      <use xlink:href="#DejaVuSans-69" x="1041.333984"/>
      <use xlink:href="#DejaVuSans-6f" x="1069.117188"/>
      <use xlink:href="#DejaVuSans-6e" x="1130.298828"/>
     </g>
    </g>
   </g>
  </g>
 </g>
 <defs>
  <clipPath id="p950a2e67bb">
   <rect x="55.950625" y="25.3575" width="634.090909" height="443.52"/>
  </clipPath>
  <clipPath id="p69c5aeef7d">
   <rect x="816.859716" y="25.3575" width="634.090909" height="443.52"/>
  </clipPath>
 </defs>
</svg>
