<?xml version="1.0" encoding="utf-8" standalone="no"?>
<!DOCTYPE svg PUBLIC "-//W3C//DTD SVG 1.1//EN"
  "http://www.w3.org/Graphics/SVG/1.1/DTD/svg11.dtd">
<svg xmlns:xlink="http://www.w3.org/1999/xlink" width="388.80625pt" height="252.427187pt" viewBox="0 0 388.80625 252.427187" xmlns="http://www.w3.org/2000/svg" version="1.1">
 <metadata>
  <rdf:RDF xmlns:dc="http://purl.org/dc/elements/1.1/" xmlns:cc="http://creativecommons.org/ns#" xmlns:rdf="http://www.w3.org/1999/02/22-rdf-syntax-ns#">
   <cc:Work>
    <dc:type rdf:resource="http://purl.org/dc/dcmitype/StillImage"/>
    <dc:date>2024-10-01T16:16:43.581416</dc:date>
    <dc:format>image/svg+xml</dc:format>
    <dc:creator>
     <cc:Agent>
      <dc:title>Matplotlib v3.7.2, https://matplotlib.org/</dc:title>
     </cc:Agent>
    </dc:creator>
   </cc:Work>
  </rdf:RDF>
 </metadata>
 <defs>
  <style type="text/css">*{stroke-linejoin: round; stroke-linecap: butt}</style>
 </defs>
 <g id="figure_1">
  <g id="patch_1">
   <path d="M 0 252.427187 
L 388.80625 252.427187 
L 388.80625 0 
L 0 0 
z
" style="fill: #ffffff"/>
  </g>
  <g id="axes_1">
   <g id="patch_2">
    <path d="M 46.80625 228.96 
L 381.60625 228.96 
L 381.60625 7.2 
L 46.80625 7.2 
z
" style="fill: #ffffff"/>
   </g>
   <g id="matplotlib.axis_1">
    <g id="xtick_1">
     <g id="line2d_1">
      <path d="M 105.504951 228.96 
L 105.504951 7.2 
" clip-path="url(#p28655982f7)" style="fill: none; stroke: #cccccc; stroke-width: 0.8; stroke-linecap: round"/>
     </g>
     <g id="text_1">
      <!-- Страта 1 -->
      <g style="fill: #262626" transform="translate(84.972139 243.239687) scale(0.1 -0.1)">
       <defs>
        <path id="ArialMT-421" d="M 3763 1606 
L 4369 1453 
Q 4178 706 3683 314 
Q 3188 -78 2472 -78 
Q 1731 -78 1267 223 
Q 803 525 561 1097 
Q 319 1669 319 2325 
Q 319 3041 592 3573 
Q 866 4106 1370 4382 
Q 1875 4659 2481 4659 
Q 3169 4659 3637 4309 
Q 4106 3959 4291 3325 
L 3694 3184 
Q 3534 3684 3231 3912 
Q 2928 4141 2469 4141 
Q 1941 4141 1586 3887 
Q 1231 3634 1087 3207 
Q 944 2781 944 2328 
Q 944 1744 1114 1308 
Q 1284 872 1643 656 
Q 2003 441 2422 441 
Q 2931 441 3284 734 
Q 3638 1028 3763 1606 
z
" transform="scale(0.015625)"/>
        <path id="ArialMT-442" d="M 119 3319 
L 2816 3319 
L 2816 2853 
L 1747 2853 
L 1747 0 
L 1188 0 
L 1188 2853 
L 119 2853 
L 119 3319 
z
" transform="scale(0.015625)"/>
        <path id="ArialMT-440" d="M 422 -1272 
L 422 3319 
L 934 3319 
L 934 2888 
Q 1116 3141 1344 3267 
Q 1572 3394 1897 3394 
Q 2322 3394 2647 3175 
Q 2972 2956 3137 2557 
Q 3303 2159 3303 1684 
Q 3303 1175 3120 767 
Q 2938 359 2589 142 
Q 2241 -75 1856 -75 
Q 1575 -75 1351 44 
Q 1128 163 984 344 
L 984 -1272 
L 422 -1272 
z
M 931 1641 
Q 931 1000 1190 694 
Q 1450 388 1819 388 
Q 2194 388 2461 705 
Q 2728 1022 2728 1688 
Q 2728 2322 2467 2637 
Q 2206 2953 1844 2953 
Q 1484 2953 1207 2617 
Q 931 2281 931 1641 
z
" transform="scale(0.015625)"/>
        <path id="ArialMT-430" d="M 2588 409 
Q 2275 144 1986 34 
Q 1697 -75 1366 -75 
Q 819 -75 525 192 
Q 231 459 231 875 
Q 231 1119 342 1320 
Q 453 1522 633 1644 
Q 813 1766 1038 1828 
Q 1203 1872 1538 1913 
Q 2219 1994 2541 2106 
Q 2544 2222 2544 2253 
Q 2544 2597 2384 2738 
Q 2169 2928 1744 2928 
Q 1347 2928 1158 2789 
Q 969 2650 878 2297 
L 328 2372 
Q 403 2725 575 2942 
Q 747 3159 1072 3276 
Q 1397 3394 1825 3394 
Q 2250 3394 2515 3294 
Q 2781 3194 2906 3042 
Q 3031 2891 3081 2659 
Q 3109 2516 3109 2141 
L 3109 1391 
Q 3109 606 3145 398 
Q 3181 191 3288 0 
L 2700 0 
Q 2613 175 2588 409 
z
M 2541 1666 
Q 2234 1541 1622 1453 
Q 1275 1403 1131 1340 
Q 988 1278 909 1158 
Q 831 1038 831 891 
Q 831 666 1001 516 
Q 1172 366 1500 366 
Q 1825 366 2078 508 
Q 2331 650 2450 897 
Q 2541 1088 2541 1459 
L 2541 1666 
z
" transform="scale(0.015625)"/>
        <path id="ArialMT-20" transform="scale(0.015625)"/>
        <path id="ArialMT-31" d="M 2384 0 
L 1822 0 
L 1822 3584 
Q 1619 3391 1289 3197 
Q 959 3003 697 2906 
L 697 3450 
Q 1169 3672 1522 3987 
Q 1875 4303 2022 4600 
L 2384 4600 
L 2384 0 
z
" transform="scale(0.015625)"/>
       </defs>
       <use xlink:href="#ArialMT-421"/>
       <use xlink:href="#ArialMT-442" x="72.216797"/>
       <use xlink:href="#ArialMT-440" x="118.017578"/>
       <use xlink:href="#ArialMT-430" x="173.632812"/>
       <use xlink:href="#ArialMT-442" x="226.998047"/>
       <use xlink:href="#ArialMT-430" x="271.673828"/>
       <use xlink:href="#ArialMT-20" x="327.289062"/>
       <use xlink:href="#ArialMT-31" x="355.072266"/>
      </g>
     </g>
    </g>
    <g id="xtick_2">
     <g id="line2d_2">
      <path d="M 214.20625 228.96 
L 214.20625 7.2 
" clip-path="url(#p28655982f7)" style="fill: none; stroke: #cccccc; stroke-width: 0.8; stroke-linecap: round"/>
     </g>
     <g id="text_2">
      <!-- Страта 2 -->
      <g style="fill: #262626" transform="translate(193.673437 243.239687) scale(0.1 -0.1)">
       <defs>
        <path id="ArialMT-32" d="M 3222 541 
L 3222 0 
L 194 0 
Q 188 203 259 391 
Q 375 700 629 1000 
Q 884 1300 1366 1694 
Q 2113 2306 2375 2664 
Q 2638 3022 2638 3341 
Q 2638 3675 2398 3904 
Q 2159 4134 1775 4134 
Q 1369 4134 1125 3890 
Q 881 3647 878 3216 
L 300 3275 
Q 359 3922 746 4261 
Q 1134 4600 1788 4600 
Q 2447 4600 2831 4234 
Q 3216 3869 3216 3328 
Q 3216 3053 3103 2787 
Q 2991 2522 2730 2228 
Q 2469 1934 1863 1422 
Q 1356 997 1212 845 
Q 1069 694 975 541 
L 3222 541 
z
" transform="scale(0.015625)"/>
       </defs>
       <use xlink:href="#ArialMT-421"/>
       <use xlink:href="#ArialMT-442" x="72.216797"/>
       <use xlink:href="#ArialMT-440" x="118.017578"/>
       <use xlink:href="#ArialMT-430" x="173.632812"/>
       <use xlink:href="#ArialMT-442" x="226.998047"/>
       <use xlink:href="#ArialMT-430" x="271.673828"/>
       <use xlink:href="#ArialMT-20" x="327.289062"/>
       <use xlink:href="#ArialMT-32" x="355.072266"/>
      </g>
     </g>
    </g>
    <g id="xtick_3">
     <g id="line2d_3">
      <path d="M 322.907549 228.96 
L 322.907549 7.2 
" clip-path="url(#p28655982f7)" style="fill: none; stroke: #cccccc; stroke-width: 0.8; stroke-linecap: round"/>
     </g>
     <g id="text_3">
      <!-- Страта 3 -->
      <g style="fill: #262626" transform="translate(302.374736 243.239687) scale(0.1 -0.1)">
       <defs>
        <path id="ArialMT-33" d="M 269 1209 
L 831 1284 
Q 928 806 1161 595 
Q 1394 384 1728 384 
Q 2125 384 2398 659 
Q 2672 934 2672 1341 
Q 2672 1728 2419 1979 
Q 2166 2231 1775 2231 
Q 1616 2231 1378 2169 
L 1441 2663 
Q 1497 2656 1531 2656 
Q 1891 2656 2178 2843 
Q 2466 3031 2466 3422 
Q 2466 3731 2256 3934 
Q 2047 4138 1716 4138 
Q 1388 4138 1169 3931 
Q 950 3725 888 3313 
L 325 3413 
Q 428 3978 793 4289 
Q 1159 4600 1703 4600 
Q 2078 4600 2393 4439 
Q 2709 4278 2876 4000 
Q 3044 3722 3044 3409 
Q 3044 3113 2884 2869 
Q 2725 2625 2413 2481 
Q 2819 2388 3044 2092 
Q 3269 1797 3269 1353 
Q 3269 753 2831 336 
Q 2394 -81 1725 -81 
Q 1122 -81 723 278 
Q 325 638 269 1209 
z
" transform="scale(0.015625)"/>
       </defs>
       <use xlink:href="#ArialMT-421"/>
       <use xlink:href="#ArialMT-442" x="72.216797"/>
       <use xlink:href="#ArialMT-440" x="118.017578"/>
       <use xlink:href="#ArialMT-430" x="173.632812"/>
       <use xlink:href="#ArialMT-442" x="226.998047"/>
       <use xlink:href="#ArialMT-430" x="271.673828"/>
       <use xlink:href="#ArialMT-20" x="327.289062"/>
       <use xlink:href="#ArialMT-33" x="355.072266"/>
      </g>
     </g>
    </g>
   </g>
   <g id="matplotlib.axis_2">
    <g id="ytick_1">
     <g id="line2d_4">
      <path d="M 46.80625 228.96 
L 381.60625 228.96 
" clip-path="url(#p28655982f7)" style="fill: none; stroke: #cccccc; stroke-width: 0.8; stroke-linecap: round"/>
     </g>
     <g id="text_4">
      <!-- 0.00 -->
      <g style="fill: #262626" transform="translate(20.345313 232.538906) scale(0.1 -0.1)">
       <defs>
        <path id="ArialMT-30" d="M 266 2259 
Q 266 3072 433 3567 
Q 600 4063 929 4331 
Q 1259 4600 1759 4600 
Q 2128 4600 2406 4451 
Q 2684 4303 2865 4023 
Q 3047 3744 3150 3342 
Q 3253 2941 3253 2259 
Q 3253 1453 3087 958 
Q 2922 463 2592 192 
Q 2263 -78 1759 -78 
Q 1097 -78 719 397 
Q 266 969 266 2259 
z
M 844 2259 
Q 844 1131 1108 757 
Q 1372 384 1759 384 
Q 2147 384 2411 759 
Q 2675 1134 2675 2259 
Q 2675 3391 2411 3762 
Q 2147 4134 1753 4134 
Q 1366 4134 1134 3806 
Q 844 3388 844 2259 
z
" transform="scale(0.015625)"/>
        <path id="ArialMT-2e" d="M 581 0 
L 581 641 
L 1222 641 
L 1222 0 
L 581 0 
z
" transform="scale(0.015625)"/>
       </defs>
       <use xlink:href="#ArialMT-30"/>
       <use xlink:href="#ArialMT-2e" x="55.615234"/>
       <use xlink:href="#ArialMT-30" x="83.398438"/>
       <use xlink:href="#ArialMT-30" x="139.013672"/>
      </g>
     </g>
    </g>
    <g id="ytick_2">
     <g id="line2d_5">
      <path d="M 46.80625 193.76 
L 381.60625 193.76 
" clip-path="url(#p28655982f7)" style="fill: none; stroke: #cccccc; stroke-width: 0.8; stroke-linecap: round"/>
     </g>
     <g id="text_5">
      <!-- 0.05 -->
      <g style="fill: #262626" transform="translate(20.345313 197.338906) scale(0.1 -0.1)">
       <defs>
        <path id="ArialMT-35" d="M 266 1200 
L 856 1250 
Q 922 819 1161 601 
Q 1400 384 1738 384 
Q 2144 384 2425 690 
Q 2706 997 2706 1503 
Q 2706 1984 2436 2262 
Q 2166 2541 1728 2541 
Q 1456 2541 1237 2417 
Q 1019 2294 894 2097 
L 366 2166 
L 809 4519 
L 3088 4519 
L 3088 3981 
L 1259 3981 
L 1013 2750 
Q 1425 3038 1878 3038 
Q 2478 3038 2890 2622 
Q 3303 2206 3303 1553 
Q 3303 931 2941 478 
Q 2500 -78 1738 -78 
Q 1113 -78 717 272 
Q 322 622 266 1200 
z
" transform="scale(0.015625)"/>
       </defs>
       <use xlink:href="#ArialMT-30"/>
       <use xlink:href="#ArialMT-2e" x="55.615234"/>
       <use xlink:href="#ArialMT-30" x="83.398438"/>
       <use xlink:href="#ArialMT-35" x="139.013672"/>
      </g>
     </g>
    </g>
    <g id="ytick_3">
     <g id="line2d_6">
      <path d="M 46.80625 158.56 
L 381.60625 158.56 
" clip-path="url(#p28655982f7)" style="fill: none; stroke: #cccccc; stroke-width: 0.8; stroke-linecap: round"/>
     </g>
     <g id="text_6">
      <!-- 0.10 -->
      <g style="fill: #262626" transform="translate(20.345313 162.138906) scale(0.1 -0.1)">
       <use xlink:href="#ArialMT-30"/>
       <use xlink:href="#ArialMT-2e" x="55.615234"/>
       <use xlink:href="#ArialMT-31" x="83.398438"/>
       <use xlink:href="#ArialMT-30" x="139.013672"/>
      </g>
     </g>
    </g>
    <g id="ytick_4">
     <g id="line2d_7">
      <path d="M 46.80625 123.36 
L 381.60625 123.36 
" clip-path="url(#p28655982f7)" style="fill: none; stroke: #cccccc; stroke-width: 0.8; stroke-linecap: round"/>
     </g>
     <g id="text_7">
      <!-- 0.15 -->
      <g style="fill: #262626" transform="translate(20.345313 126.938906) scale(0.1 -0.1)">
       <use xlink:href="#ArialMT-30"/>
       <use xlink:href="#ArialMT-2e" x="55.615234"/>
       <use xlink:href="#ArialMT-31" x="83.398438"/>
       <use xlink:href="#ArialMT-35" x="139.013672"/>
      </g>
     </g>
    </g>
    <g id="ytick_5">
     <g id="line2d_8">
      <path d="M 46.80625 88.16 
L 381.60625 88.16 
" clip-path="url(#p28655982f7)" style="fill: none; stroke: #cccccc; stroke-width: 0.8; stroke-linecap: round"/>
     </g>
     <g id="text_8">
      <!-- 0.20 -->
      <g style="fill: #262626" transform="translate(20.345313 91.738906) scale(0.1 -0.1)">
       <use xlink:href="#ArialMT-30"/>
       <use xlink:href="#ArialMT-2e" x="55.615234"/>
       <use xlink:href="#ArialMT-32" x="83.398438"/>
       <use xlink:href="#ArialMT-30" x="139.013672"/>
      </g>
     </g>
    </g>
    <g id="ytick_6">
     <g id="line2d_9">
      <path d="M 46.80625 52.96 
L 381.60625 52.96 
" clip-path="url(#p28655982f7)" style="fill: none; stroke: #cccccc; stroke-width: 0.8; stroke-linecap: round"/>
     </g>
     <g id="text_9">
      <!-- 0.25 -->
      <g style="fill: #262626" transform="translate(20.345313 56.538906) scale(0.1 -0.1)">
       <use xlink:href="#ArialMT-30"/>
       <use xlink:href="#ArialMT-2e" x="55.615234"/>
       <use xlink:href="#ArialMT-32" x="83.398438"/>
       <use xlink:href="#ArialMT-35" x="139.013672"/>
      </g>
     </g>
    </g>
    <g id="ytick_7">
     <g id="line2d_10">
      <path d="M 46.80625 17.76 
L 381.60625 17.76 
" clip-path="url(#p28655982f7)" style="fill: none; stroke: #cccccc; stroke-width: 0.8; stroke-linecap: round"/>
     </g>
     <g id="text_10">
      <!-- 0.30 -->
      <g style="fill: #262626" transform="translate(20.345313 21.338906) scale(0.1 -0.1)">
       <use xlink:href="#ArialMT-30"/>
       <use xlink:href="#ArialMT-2e" x="55.615234"/>
       <use xlink:href="#ArialMT-33" x="83.398438"/>
       <use xlink:href="#ArialMT-30" x="139.013672"/>
      </g>
     </g>
    </g>
    <g id="text_11">
     <!-- Дисперсія -->
     <g style="fill: #262626" transform="translate(14.357813 141.346406) rotate(-90) scale(0.1 -0.1)">
      <defs>
       <path id="ArialMT-414" d="M 909 4581 
L 3697 4581 
L 3697 541 
L 4109 541 
L 4109 -1069 
L 3569 -1069 
L 3569 0 
L 541 0 
L 541 -1069 
L 0 -1069 
L 0 541 
L 356 541 
Q 909 1375 909 3913 
L 909 4581 
z
M 3091 4041 
L 1494 4041 
L 1494 3806 
Q 1494 3222 1389 2208 
Q 1284 1194 978 541 
L 3091 541 
L 3091 4041 
z
" transform="scale(0.015625)"/>
       <path id="ArialMT-438" d="M 422 3319 
L 984 3319 
L 984 788 
L 2544 3319 
L 3150 3319 
L 3150 0 
L 2588 0 
L 2588 2516 
L 1028 0 
L 422 0 
L 422 3319 
z
" transform="scale(0.015625)"/>
       <path id="ArialMT-441" d="M 2588 1216 
L 3141 1144 
Q 3050 572 2676 248 
Q 2303 -75 1759 -75 
Q 1078 -75 664 370 
Q 250 816 250 1647 
Q 250 2184 428 2587 
Q 606 2991 970 3192 
Q 1334 3394 1763 3394 
Q 2303 3394 2647 3120 
Q 2991 2847 3088 2344 
L 2541 2259 
Q 2463 2594 2264 2762 
Q 2066 2931 1784 2931 
Q 1359 2931 1093 2626 
Q 828 2322 828 1663 
Q 828 994 1084 691 
Q 1341 388 1753 388 
Q 2084 388 2306 591 
Q 2528 794 2588 1216 
z
" transform="scale(0.015625)"/>
       <path id="ArialMT-43f" d="M 425 3319 
L 3044 3319 
L 3044 0 
L 2481 0 
L 2481 2853 
L 988 2853 
L 988 0 
L 425 0 
L 425 3319 
z
" transform="scale(0.015625)"/>
       <path id="ArialMT-435" d="M 2694 1069 
L 3275 997 
Q 3138 488 2766 206 
Q 2394 -75 1816 -75 
Q 1088 -75 661 373 
Q 234 822 234 1631 
Q 234 2469 665 2931 
Q 1097 3394 1784 3394 
Q 2450 3394 2872 2941 
Q 3294 2488 3294 1666 
Q 3294 1616 3291 1516 
L 816 1516 
Q 847 969 1125 678 
Q 1403 388 1819 388 
Q 2128 388 2347 550 
Q 2566 713 2694 1069 
z
M 847 1978 
L 2700 1978 
Q 2663 2397 2488 2606 
Q 2219 2931 1791 2931 
Q 1403 2931 1139 2672 
Q 875 2413 847 1978 
z
" transform="scale(0.015625)"/>
       <path id="ArialMT-456" d="M 425 3934 
L 425 4581 
L 988 4581 
L 988 3934 
L 425 3934 
z
M 425 0 
L 425 3319 
L 988 3319 
L 988 0 
L 425 0 
z
" transform="scale(0.015625)"/>
       <path id="ArialMT-44f" d="M 3034 3319 
L 3034 0 
L 2475 0 
L 2475 1294 
L 2150 1294 
Q 1853 1294 1708 1217 
Q 1563 1141 1284 725 
L 794 0 
L 97 0 
L 703 894 
Q 981 1303 1256 1356 
Q 775 1422 542 1703 
Q 309 1984 309 2350 
Q 309 2781 614 3050 
Q 919 3319 1497 3319 
L 3034 3319 
z
M 2475 2853 
L 1675 2853 
Q 1172 2853 1026 2697 
Q 881 2541 881 2331 
Q 881 2034 1095 1895 
Q 1309 1756 1853 1756 
L 2475 1756 
L 2475 2853 
z
" transform="scale(0.015625)"/>
      </defs>
      <use xlink:href="#ArialMT-414"/>
      <use xlink:href="#ArialMT-438" x="67.724609"/>
      <use xlink:href="#ArialMT-441" x="123.583984"/>
      <use xlink:href="#ArialMT-43f" x="173.583984"/>
      <use xlink:href="#ArialMT-435" x="227.734375"/>
      <use xlink:href="#ArialMT-440" x="283.349609"/>
      <use xlink:href="#ArialMT-441" x="338.964844"/>
      <use xlink:href="#ArialMT-456" x="388.964844"/>
      <use xlink:href="#ArialMT-44f" x="411.181641"/>
     </g>
    </g>
   </g>
   <g id="patch_3">
    <path d="M 62.024432 228.96 
L 148.985471 228.96 
L 148.985471 158.56 
L 62.024432 158.56 
z
" clip-path="url(#p28655982f7)" style="fill: #e64173; stroke: #ffffff; stroke-linejoin: miter"/>
   </g>
   <g id="patch_4">
    <path d="M 170.725731 228.96 
L 257.686769 228.96 
L 257.686769 88.16 
L 170.725731 88.16 
z
" clip-path="url(#p28655982f7)" style="fill: #e64173; stroke: #ffffff; stroke-linejoin: miter"/>
   </g>
   <g id="patch_5">
    <path d="M 279.427029 228.96 
L 366.388068 228.96 
L 366.388068 17.76 
L 279.427029 17.76 
z
" clip-path="url(#p28655982f7)" style="fill: #e64173; stroke: #ffffff; stroke-linejoin: miter"/>
   </g>
   <g id="line2d_11">
    <path d="M 46.80625 95.2 
L 381.60625 95.2 
" clip-path="url(#p28655982f7)" style="fill: none; stroke-dasharray: 5.55,2.4; stroke-dashoffset: 0; stroke: #181485; stroke-width: 1.5"/>
   </g>
   <g id="patch_6">
    <path d="M 46.80625 228.96 
L 46.80625 7.2 
" style="fill: none; stroke: #cccccc; stroke-width: 0.8; stroke-linejoin: miter; stroke-linecap: square"/>
   </g>
   <g id="patch_7">
    <path d="M 381.60625 228.96 
L 381.60625 7.2 
" style="fill: none; stroke: #cccccc; stroke-width: 0.8; stroke-linejoin: miter; stroke-linecap: square"/>
   </g>
   <g id="patch_8">
    <path d="M 46.80625 228.96 
L 381.60625 228.96 
" style="fill: none; stroke: #cccccc; stroke-width: 0.8; stroke-linejoin: miter; stroke-linecap: square"/>
   </g>
   <g id="patch_9">
    <path d="M 46.80625 7.2 
L 381.60625 7.2 
" style="fill: none; stroke: #cccccc; stroke-width: 0.8; stroke-linejoin: miter; stroke-linecap: square"/>
   </g>
   <g id="legend_1">
    <g id="patch_10">
     <path d="M 53.80625 43.6125 
L 209.385938 43.6125 
Q 211.385938 43.6125 211.385938 41.6125 
L 211.385938 14.2 
Q 211.385938 12.2 209.385938 12.2 
L 53.80625 12.2 
Q 51.80625 12.2 51.80625 14.2 
L 51.80625 41.6125 
Q 51.80625 43.6125 53.80625 43.6125 
z
" style="fill: #ffffff; opacity: 0.8; stroke: #cccccc; stroke-linejoin: miter"/>
    </g>
    <g id="line2d_12">
     <path d="M 55.80625 19.979687 
L 65.80625 19.979687 
L 75.80625 19.979687 
" style="fill: none; stroke-dasharray: 5.55,2.4; stroke-dashoffset: 0; stroke: #181485; stroke-width: 1.5"/>
    </g>
    <g id="text_12">
     <!-- Стратифікована дисперсія -->
     <g style="fill: #262626" transform="translate(83.80625 23.479687) scale(0.1 -0.1)">
      <defs>
       <path id="ArialMT-444" d="M 2353 4581 
L 2916 4581 
L 2916 2997 
Q 3091 3197 3300 3295 
Q 3509 3394 3750 3394 
Q 4341 3394 4686 2901 
Q 5031 2409 5031 1663 
Q 5031 884 4659 404 
Q 4288 -75 3734 -75 
Q 3553 -75 3365 -18 
Q 3178 38 2916 288 
L 2916 -1272 
L 2353 -1272 
L 2353 288 
Q 2184 106 1979 15 
Q 1775 -75 1538 -75 
Q 1016 -75 625 383 
Q 234 841 234 1694 
Q 234 2416 587 2905 
Q 941 3394 1538 3394 
Q 1788 3394 1991 3295 
Q 2194 3197 2353 2997 
L 2353 4581 
z
M 2913 1647 
Q 2913 897 3119 639 
Q 3325 381 3634 381 
Q 3978 381 4220 698 
Q 4463 1016 4463 1684 
Q 4463 2316 4239 2625 
Q 4016 2934 3666 2934 
Q 3291 2934 3102 2612 
Q 2913 2291 2913 1647 
z
M 806 1709 
Q 806 1006 1042 697 
Q 1278 388 1628 388 
Q 1994 388 2175 695 
Q 2356 1003 2356 1619 
Q 2356 2275 2165 2603 
Q 1975 2931 1591 2931 
Q 1244 2931 1025 2611 
Q 806 2291 806 1709 
z
" transform="scale(0.015625)"/>
       <path id="ArialMT-43a" d="M 419 3319 
L 981 3319 
L 981 1884 
Q 1250 1884 1358 1987 
Q 1466 2091 1675 2588 
Q 1841 2981 1944 3106 
Q 2047 3231 2181 3275 
Q 2316 3319 2613 3319 
L 2725 3319 
L 2725 2853 
L 2569 2856 
Q 2347 2856 2284 2791 
Q 2219 2722 2084 2381 
Q 1956 2056 1850 1931 
Q 1744 1806 1522 1703 
Q 1884 1606 2234 1028 
L 2850 0 
L 2231 0 
L 1631 1028 
Q 1447 1338 1309 1436 
Q 1172 1534 981 1534 
L 981 0 
L 419 0 
L 419 3319 
z
" transform="scale(0.015625)"/>
       <path id="ArialMT-43e" d="M 213 1659 
Q 213 2581 725 3025 
Q 1153 3394 1769 3394 
Q 2453 3394 2887 2945 
Q 3322 2497 3322 1706 
Q 3322 1066 3130 698 
Q 2938 331 2570 128 
Q 2203 -75 1769 -75 
Q 1072 -75 642 372 
Q 213 819 213 1659 
z
M 791 1659 
Q 791 1022 1069 705 
Q 1347 388 1769 388 
Q 2188 388 2466 706 
Q 2744 1025 2744 1678 
Q 2744 2294 2464 2611 
Q 2184 2928 1769 2928 
Q 1347 2928 1069 2612 
Q 791 2297 791 1659 
z
" transform="scale(0.015625)"/>
       <path id="ArialMT-432" d="M 425 3319 
L 1722 3319 
Q 2200 3319 2433 3239 
Q 2666 3159 2833 2946 
Q 3000 2734 3000 2438 
Q 3000 2200 2901 2023 
Q 2803 1847 2606 1728 
Q 2841 1650 2995 1436 
Q 3150 1222 3150 928 
Q 3119 456 2812 228 
Q 2506 0 1922 0 
L 425 0 
L 425 3319 
z
M 988 1922 
L 1588 1922 
Q 1947 1922 2081 1959 
Q 2216 1997 2322 2111 
Q 2428 2225 2428 2384 
Q 2428 2647 2242 2750 
Q 2056 2853 1606 2853 
L 988 2853 
L 988 1922 
z
M 988 463 
L 1728 463 
Q 2206 463 2384 573 
Q 2563 684 2572 956 
Q 2572 1116 2469 1252 
Q 2366 1388 2200 1423 
Q 2034 1459 1669 1459 
L 988 1459 
L 988 463 
z
" transform="scale(0.015625)"/>
       <path id="ArialMT-43d" d="M 425 3319 
L 988 3319 
L 988 1938 
L 2547 1938 
L 2547 3319 
L 3109 3319 
L 3109 0 
L 2547 0 
L 2547 1472 
L 988 1472 
L 988 0 
L 425 0 
L 425 3319 
z
" transform="scale(0.015625)"/>
       <path id="ArialMT-434" d="M 866 3319 
L 3178 3319 
L 3178 463 
L 3538 463 
L 3538 -941 
L 3075 -941 
L 3075 0 
L 463 0 
L 463 -941 
L 0 -941 
L 0 463 
L 297 463 
Q 891 1269 866 3319 
z
M 1334 2853 
Q 1272 1238 834 463 
L 2619 463 
L 2619 2853 
L 1334 2853 
z
" transform="scale(0.015625)"/>
      </defs>
      <use xlink:href="#ArialMT-421"/>
      <use xlink:href="#ArialMT-442" x="72.216797"/>
      <use xlink:href="#ArialMT-440" x="118.017578"/>
      <use xlink:href="#ArialMT-430" x="173.632812"/>
      <use xlink:href="#ArialMT-442" x="226.998047"/>
      <use xlink:href="#ArialMT-438" x="272.798828"/>
      <use xlink:href="#ArialMT-444" x="328.658203"/>
      <use xlink:href="#ArialMT-456" x="410.933594"/>
      <use xlink:href="#ArialMT-43a" x="433.150391"/>
      <use xlink:href="#ArialMT-43e" x="478.025391"/>
      <use xlink:href="#ArialMT-432" x="533.640625"/>
      <use xlink:href="#ArialMT-430" x="585.640625"/>
      <use xlink:href="#ArialMT-43d" x="641.255859"/>
      <use xlink:href="#ArialMT-430" x="696.480469"/>
      <use xlink:href="#ArialMT-20" x="752.095703"/>
      <use xlink:href="#ArialMT-434" x="779.878906"/>
      <use xlink:href="#ArialMT-438" x="838.228516"/>
      <use xlink:href="#ArialMT-441" x="894.087891"/>
      <use xlink:href="#ArialMT-43f" x="944.087891"/>
      <use xlink:href="#ArialMT-435" x="998.238281"/>
      <use xlink:href="#ArialMT-440" x="1053.853516"/>
      <use xlink:href="#ArialMT-441" x="1109.46875"/>
      <use xlink:href="#ArialMT-456" x="1159.46875"/>
      <use xlink:href="#ArialMT-44f" x="1181.685547"/>
     </g>
    </g>
    <g id="patch_11">
     <path d="M 55.80625 37.625 
L 75.80625 37.625 
L 75.80625 30.625 
L 55.80625 30.625 
z
" style="fill: #e64173; stroke: #ffffff; stroke-linejoin: miter"/>
    </g>
    <g id="text_13">
     <!-- Дисперсія в страті -->
     <g style="fill: #262626" transform="translate(83.80625 37.625) scale(0.1 -0.1)">
      <use xlink:href="#ArialMT-414"/>
      <use xlink:href="#ArialMT-438" x="67.724609"/>
      <use xlink:href="#ArialMT-441" x="123.583984"/>
      <use xlink:href="#ArialMT-43f" x="173.583984"/>
      <use xlink:href="#ArialMT-435" x="227.734375"/>
      <use xlink:href="#ArialMT-440" x="283.349609"/>
      <use xlink:href="#ArialMT-441" x="338.964844"/>
      <use xlink:href="#ArialMT-456" x="388.964844"/>
      <use xlink:href="#ArialMT-44f" x="411.181641"/>
      <use xlink:href="#ArialMT-20" x="465.332031"/>
      <use xlink:href="#ArialMT-432" x="493.115234"/>
      <use xlink:href="#ArialMT-20" x="546.240234"/>
      <use xlink:href="#ArialMT-441" x="574.023438"/>
      <use xlink:href="#ArialMT-442" x="624.023438"/>
      <use xlink:href="#ArialMT-440" x="669.824219"/>
      <use xlink:href="#ArialMT-430" x="725.439453"/>
      <use xlink:href="#ArialMT-442" x="778.804688"/>
      <use xlink:href="#ArialMT-456" x="824.605469"/>
     </g>
    </g>
   </g>
  </g>
 </g>
 <defs>
  <clipPath id="p28655982f7">
   <rect x="46.80625" y="7.2" width="334.8" height="221.76"/>
  </clipPath>
 </defs>
</svg>
