<?xml version="1.0" encoding="UTF-8"?>
<svg xmlns="http://www.w3.org/2000/svg" xmlns:xlink="http://www.w3.org/1999/xlink" width="1584" height="576" viewBox="0 0 1584 576">
<rect x="-158.4" y="-57.6" width="1900.8" height="691.2" fill="rgb(100%, 100%, 100%)" fill-opacity="1"/>
<path fill="none" stroke-width="1.066978" stroke-linecap="butt" stroke-linejoin="round" stroke="rgb(0%, 0%, 0%)" stroke-opacity="0.2" stroke-miterlimit="10" d="M 778.785156 265.28125 L 778.785156 412.492188 "/>
<path fill="none" stroke-width="1.066978" stroke-linecap="butt" stroke-linejoin="round" stroke="rgb(0%, 0%, 0%)" stroke-opacity="0.2" stroke-miterlimit="10" d="M 410.605469 249.433594 L 410.605469 438.191406 "/>
<path fill="none" stroke-width="1.066978" stroke-linecap="butt" stroke-linejoin="round" stroke="rgb(0%, 0%, 0%)" stroke-opacity="0.2" stroke-miterlimit="10" d="M 940.601562 560.949219 L 940.601562 401.199219 "/>
<path fill="none" stroke-width="1.066978" stroke-linecap="butt" stroke-linejoin="round" stroke="rgb(0%, 0%, 0%)" stroke-opacity="0.2" stroke-miterlimit="10" d="M 824.675781 376.554688 L 824.675781 409.289062 "/>
<path fill="none" stroke-width="1.066978" stroke-linecap="butt" stroke-linejoin="round" stroke="rgb(0%, 0%, 0%)" stroke-opacity="0.2" stroke-miterlimit="10" d="M 653.90625 233.886719 L 653.90625 421.210938 "/>
<path fill="none" stroke-width="1.066978" stroke-linecap="butt" stroke-linejoin="round" stroke="rgb(0%, 0%, 0%)" stroke-opacity="0.2" stroke-miterlimit="10" d="M 835.863281 343.335938 L 835.863281 408.511719 "/>
<path fill="none" stroke-width="1.066978" stroke-linecap="butt" stroke-linejoin="round" stroke="rgb(0%, 0%, 0%)" stroke-opacity="0.2" stroke-miterlimit="10" d="M 822.167969 236.183594 L 822.167969 409.464844 "/>
<path fill="none" stroke-width="1.066978" stroke-linecap="butt" stroke-linejoin="round" stroke="rgb(0%, 0%, 0%)" stroke-opacity="0.2" stroke-miterlimit="10" d="M 587.386719 461.242188 L 587.386719 425.851562 "/>
<path fill="none" stroke-width="1.066978" stroke-linecap="butt" stroke-linejoin="round" stroke="rgb(0%, 0%, 0%)" stroke-opacity="0.2" stroke-miterlimit="10" d="M 1004.484375 302.566406 L 1004.484375 396.742188 "/>
<path fill="none" stroke-width="1.066978" stroke-linecap="butt" stroke-linejoin="round" stroke="rgb(0%, 0%, 0%)" stroke-opacity="0.2" stroke-miterlimit="10" d="M 1208.652344 108.886719 L 1208.652344 382.488281 "/>
<path fill="none" stroke-width="1.066978" stroke-linecap="butt" stroke-linejoin="round" stroke="rgb(0%, 0%, 0%)" stroke-opacity="0.2" stroke-miterlimit="10" d="M 625.371094 488.671875 L 625.371094 423.203125 "/>
<path fill="none" stroke-width="1.066978" stroke-linecap="butt" stroke-linejoin="round" stroke="rgb(0%, 0%, 0%)" stroke-opacity="0.2" stroke-miterlimit="10" d="M 533.839844 293.980469 L 533.839844 429.589844 "/>
<path fill="none" stroke-width="1.066978" stroke-linecap="butt" stroke-linejoin="round" stroke="rgb(0%, 0%, 0%)" stroke-opacity="0.2" stroke-miterlimit="10" d="M 836.902344 373.03125 L 836.902344 408.4375 "/>
<path fill="none" stroke-width="1.066978" stroke-linecap="butt" stroke-linejoin="round" stroke="rgb(0%, 0%, 0%)" stroke-opacity="0.2" stroke-miterlimit="10" d="M 643.148438 362.371094 L 643.148438 421.960938 "/>
<path fill="none" stroke-width="1.066978" stroke-linecap="butt" stroke-linejoin="round" stroke="rgb(0%, 0%, 0%)" stroke-opacity="0.2" stroke-miterlimit="10" d="M 1231.15625 239.71875 L 1231.15625 380.917969 "/>
<path fill="none" stroke-width="1.066978" stroke-linecap="butt" stroke-linejoin="round" stroke="rgb(0%, 0%, 0%)" stroke-opacity="0.2" stroke-miterlimit="10" d="M 620.011719 183.648438 L 620.011719 423.574219 "/>
<path fill="none" stroke-width="1.066978" stroke-linecap="butt" stroke-linejoin="round" stroke="rgb(0%, 0%, 0%)" stroke-opacity="0.2" stroke-miterlimit="10" d="M 977.800781 233.441406 L 977.800781 398.601562 "/>
<path fill="none" stroke-width="1.066978" stroke-linecap="butt" stroke-linejoin="round" stroke="rgb(0%, 0%, 0%)" stroke-opacity="0.2" stroke-miterlimit="10" d="M 1179.34375 349.433594 L 1179.34375 384.535156 "/>
<path fill="none" stroke-width="1.066978" stroke-linecap="butt" stroke-linejoin="round" stroke="rgb(0%, 0%, 0%)" stroke-opacity="0.2" stroke-miterlimit="10" d="M 1511.46875 133.457031 L 1511.46875 361.355469 "/>
<path fill="none" stroke-width="1.066978" stroke-linecap="butt" stroke-linejoin="round" stroke="rgb(0%, 0%, 0%)" stroke-opacity="0.2" stroke-miterlimit="10" d="M 883.820312 357.1875 L 883.820312 405.164062 "/>
<path fill="none" stroke-width="1.066978" stroke-linecap="butt" stroke-linejoin="round" stroke="rgb(0%, 0%, 0%)" stroke-opacity="0.2" stroke-miterlimit="10" d="M 1276.675781 283.066406 L 1276.675781 377.742188 "/>
<path fill="none" stroke-width="1.066978" stroke-linecap="butt" stroke-linejoin="round" stroke="rgb(0%, 0%, 0%)" stroke-opacity="0.2" stroke-miterlimit="10" d="M 934.523438 384.144531 L 934.523438 401.625 "/>
<path fill="none" stroke-width="1.066978" stroke-linecap="butt" stroke-linejoin="round" stroke="rgb(0%, 0%, 0%)" stroke-opacity="0.2" stroke-miterlimit="10" d="M 811.234375 360.261719 L 811.234375 410.230469 "/>
<path fill="none" stroke-width="1.066978" stroke-linecap="butt" stroke-linejoin="round" stroke="rgb(0%, 0%, 0%)" stroke-opacity="0.2" stroke-miterlimit="10" d="M 884.234375 332.398438 L 884.234375 405.132812 "/>
<path fill="none" stroke-width="1.066978" stroke-linecap="butt" stroke-linejoin="round" stroke="rgb(0%, 0%, 0%)" stroke-opacity="0.2" stroke-miterlimit="10" d="M 1184.324219 295.269531 L 1184.324219 384.1875 "/>
<path fill="none" stroke-width="1.066978" stroke-linecap="butt" stroke-linejoin="round" stroke="rgb(0%, 0%, 0%)" stroke-opacity="0.2" stroke-miterlimit="10" d="M 848.238281 319.746094 L 848.238281 407.644531 "/>
<path fill="none" stroke-width="1.066978" stroke-linecap="butt" stroke-linejoin="round" stroke="rgb(0%, 0%, 0%)" stroke-opacity="0.2" stroke-miterlimit="10" d="M 748.734375 231.457031 L 748.734375 414.589844 "/>
<path fill="none" stroke-width="1.066978" stroke-linecap="butt" stroke-linejoin="round" stroke="rgb(0%, 0%, 0%)" stroke-opacity="0.2" stroke-miterlimit="10" d="M 553.136719 336.582031 L 553.136719 428.242188 "/>
<path fill="none" stroke-width="1.066978" stroke-linecap="butt" stroke-linejoin="round" stroke="rgb(0%, 0%, 0%)" stroke-opacity="0.2" stroke-miterlimit="10" d="M 266.222656 496.074219 L 266.222656 448.269531 "/>
<path fill="none" stroke-width="1.066978" stroke-linecap="butt" stroke-linejoin="round" stroke="rgb(0%, 0%, 0%)" stroke-opacity="0.2" stroke-miterlimit="10" d="M 1129.140625 78.246094 L 1129.140625 388.039062 "/>
<path fill="none" stroke-width="1.066978" stroke-linecap="butt" stroke-linejoin="round" stroke="rgb(0%, 0%, 0%)" stroke-opacity="0.2" stroke-miterlimit="10" d="M 603.195312 314.929688 L 603.195312 424.75 "/>
<path fill="none" stroke-width="1.066978" stroke-linecap="butt" stroke-linejoin="round" stroke="rgb(0%, 0%, 0%)" stroke-opacity="0.2" stroke-miterlimit="10" d="M 912.007812 402.890625 L 912.007812 403.195312 "/>
<path fill="none" stroke-width="1.066978" stroke-linecap="butt" stroke-linejoin="round" stroke="rgb(0%, 0%, 0%)" stroke-opacity="0.2" stroke-miterlimit="10" d="M 1008.867188 233.449219 L 1008.867188 396.433594 "/>
<path fill="none" stroke-width="1.066978" stroke-linecap="butt" stroke-linejoin="round" stroke="rgb(0%, 0%, 0%)" stroke-opacity="0.2" stroke-miterlimit="10" d="M 1063.34375 235.449219 L 1063.34375 392.632812 "/>
<path fill="none" stroke-width="1.066978" stroke-linecap="butt" stroke-linejoin="round" stroke="rgb(0%, 0%, 0%)" stroke-opacity="0.2" stroke-miterlimit="10" d="M 529.035156 461.21875 L 529.035156 429.925781 "/>
<path fill="none" stroke-width="1.066978" stroke-linecap="butt" stroke-linejoin="round" stroke="rgb(0%, 0%, 0%)" stroke-opacity="0.2" stroke-miterlimit="10" d="M 1360.582031 26.710938 L 1360.582031 371.886719 "/>
<path fill="none" stroke-width="1.066978" stroke-linecap="butt" stroke-linejoin="round" stroke="rgb(0%, 0%, 0%)" stroke-opacity="0.2" stroke-miterlimit="10" d="M 1363.699219 172.054688 L 1363.699219 371.667969 "/>
<path fill="none" stroke-width="1.066978" stroke-linecap="butt" stroke-linejoin="round" stroke="rgb(0%, 0%, 0%)" stroke-opacity="0.2" stroke-miterlimit="10" d="M 1207.496094 184.789062 L 1207.496094 382.570312 "/>
<path fill="none" stroke-width="1.066978" stroke-linecap="butt" stroke-linejoin="round" stroke="rgb(0%, 0%, 0%)" stroke-opacity="0.2" stroke-miterlimit="10" d="M 995.089844 319.363281 L 995.089844 397.394531 "/>
<path fill="none" stroke-width="1.066978" stroke-linecap="butt" stroke-linejoin="round" stroke="rgb(0%, 0%, 0%)" stroke-opacity="0.2" stroke-miterlimit="10" d="M 817.035156 281.542969 L 817.035156 409.824219 "/>
<path fill="none" stroke-width="1.066978" stroke-linecap="butt" stroke-linejoin="round" stroke="rgb(0%, 0%, 0%)" stroke-opacity="0.2" stroke-miterlimit="10" d="M 997.582031 241.601562 L 997.582031 397.222656 "/>
<path fill="none" stroke-width="1.066978" stroke-linecap="butt" stroke-linejoin="round" stroke="rgb(0%, 0%, 0%)" stroke-opacity="0.2" stroke-miterlimit="10" d="M 1061.136719 194.28125 L 1061.136719 392.785156 "/>
<path fill="none" stroke-width="1.066978" stroke-linecap="butt" stroke-linejoin="round" stroke="rgb(0%, 0%, 0%)" stroke-opacity="0.2" stroke-miterlimit="10" d="M 1153.46875 322.601562 L 1153.46875 386.339844 "/>
<path fill="none" stroke-width="1.066978" stroke-linecap="butt" stroke-linejoin="round" stroke="rgb(0%, 0%, 0%)" stroke-opacity="0.2" stroke-miterlimit="10" d="M 688.507812 315.574219 L 688.507812 418.796875 "/>
<path fill="none" stroke-width="1.066978" stroke-linecap="butt" stroke-linejoin="round" stroke="rgb(0%, 0%, 0%)" stroke-opacity="0.2" stroke-miterlimit="10" d="M 708.484375 357.925781 L 708.484375 417.402344 "/>
<path fill="none" stroke-width="1.066978" stroke-linecap="butt" stroke-linejoin="round" stroke="rgb(0%, 0%, 0%)" stroke-opacity="0.2" stroke-miterlimit="10" d="M 748.070312 362.949219 L 748.070312 414.636719 "/>
<path fill="none" stroke-width="1.066978" stroke-linecap="butt" stroke-linejoin="round" stroke="rgb(0%, 0%, 0%)" stroke-opacity="0.2" stroke-miterlimit="10" d="M 503.085938 307.164062 L 503.085938 431.738281 "/>
<path fill="none" stroke-width="1.066978" stroke-linecap="butt" stroke-linejoin="round" stroke="rgb(0%, 0%, 0%)" stroke-opacity="0.2" stroke-miterlimit="10" d="M 970.636719 175.523438 L 970.636719 399.101562 "/>
<path fill="none" stroke-width="1.066978" stroke-linecap="butt" stroke-linejoin="round" stroke="rgb(0%, 0%, 0%)" stroke-opacity="0.2" stroke-miterlimit="10" d="M 986.261719 287.074219 L 986.261719 398.011719 "/>
<path fill="none" stroke-width="1.066978" stroke-linecap="butt" stroke-linejoin="round" stroke="rgb(0%, 0%, 0%)" stroke-opacity="0.2" stroke-miterlimit="10" d="M 1290.027344 265.507812 L 1290.027344 376.808594 "/>
<path fill="none" stroke-width="1.066978" stroke-linecap="butt" stroke-linejoin="round" stroke="rgb(0%, 0%, 0%)" stroke-opacity="0.2" stroke-miterlimit="10" d="M 649.285156 314.019531 L 649.285156 421.53125 "/>
<path fill="none" stroke-width="1.066978" stroke-linecap="butt" stroke-linejoin="round" stroke="rgb(0%, 0%, 0%)" stroke-opacity="0.2" stroke-miterlimit="10" d="M 496.390625 429.292969 L 496.390625 432.203125 "/>
<path fill="none" stroke-width="1.066978" stroke-linecap="butt" stroke-linejoin="round" stroke="rgb(0%, 0%, 0%)" stroke-opacity="0.2" stroke-miterlimit="10" d="M 1137.984375 279.628906 L 1137.984375 387.421875 "/>
<path fill="none" stroke-width="1.066978" stroke-linecap="butt" stroke-linejoin="round" stroke="rgb(0%, 0%, 0%)" stroke-opacity="0.2" stroke-miterlimit="10" d="M 983.171875 368.867188 L 983.171875 398.226562 "/>
<path fill="none" stroke-width="1.066978" stroke-linecap="butt" stroke-linejoin="round" stroke="rgb(0%, 0%, 0%)" stroke-opacity="0.2" stroke-miterlimit="10" d="M 629.597656 403.335938 L 629.597656 422.90625 "/>
<path fill="none" stroke-width="1.066978" stroke-linecap="butt" stroke-linejoin="round" stroke="rgb(0%, 0%, 0%)" stroke-opacity="0.2" stroke-miterlimit="10" d="M 949.488281 320.691406 L 949.488281 400.578125 "/>
<path fill="none" stroke-width="1.066978" stroke-linecap="butt" stroke-linejoin="round" stroke="rgb(0%, 0%, 0%)" stroke-opacity="0.2" stroke-miterlimit="10" d="M 1110.484375 144.460938 L 1110.484375 389.34375 "/>
<path fill="none" stroke-width="1.066978" stroke-linecap="butt" stroke-linejoin="round" stroke="rgb(0%, 0%, 0%)" stroke-opacity="0.2" stroke-miterlimit="10" d="M 648.960938 215.847656 L 648.960938 421.554688 "/>
<path fill="none" stroke-width="1.066978" stroke-linecap="butt" stroke-linejoin="round" stroke="rgb(0%, 0%, 0%)" stroke-opacity="0.2" stroke-miterlimit="10" d="M 1237.707031 219.914062 L 1237.707031 380.460938 "/>
<path fill="none" stroke-width="1.066978" stroke-linecap="butt" stroke-linejoin="round" stroke="rgb(0%, 0%, 0%)" stroke-opacity="0.2" stroke-miterlimit="10" d="M 902.515625 321.667969 L 902.515625 403.859375 "/>
<path fill="none" stroke-width="1.066978" stroke-linecap="butt" stroke-linejoin="round" stroke="rgb(0%, 0%, 0%)" stroke-opacity="0.2" stroke-miterlimit="10" d="M 96.15625 512.917969 L 96.15625 460.140625 "/>
<path fill="none" stroke-width="1.066978" stroke-linecap="butt" stroke-linejoin="round" stroke="rgb(0%, 0%, 0%)" stroke-opacity="0.2" stroke-miterlimit="10" d="M 165.523438 495.511719 L 165.523438 455.296875 "/>
<path fill="none" stroke-width="1.066978" stroke-linecap="butt" stroke-linejoin="round" stroke="rgb(0%, 0%, 0%)" stroke-opacity="0.2" stroke-miterlimit="10" d="M 923.203125 236.691406 L 923.203125 402.414062 "/>
<path fill="none" stroke-width="1.066978" stroke-linecap="butt" stroke-linejoin="round" stroke="rgb(0%, 0%, 0%)" stroke-opacity="0.2" stroke-miterlimit="10" d="M 618.339844 262.964844 L 618.339844 423.691406 "/>
<path fill="none" stroke-width="1.066978" stroke-linecap="butt" stroke-linejoin="round" stroke="rgb(0%, 0%, 0%)" stroke-opacity="0.2" stroke-miterlimit="10" d="M 705.765625 367.957031 L 705.765625 417.589844 "/>
<path fill="none" stroke-width="1.066978" stroke-linecap="butt" stroke-linejoin="round" stroke="rgb(0%, 0%, 0%)" stroke-opacity="0.2" stroke-miterlimit="10" d="M 862.527344 201.648438 L 862.527344 406.648438 "/>
<path fill="none" stroke-width="1.066978" stroke-linecap="butt" stroke-linejoin="round" stroke="rgb(0%, 0%, 0%)" stroke-opacity="0.2" stroke-miterlimit="10" d="M 788.121094 315.832031 L 788.121094 411.84375 "/>
<path fill="none" stroke-width="1.066978" stroke-linecap="butt" stroke-linejoin="round" stroke="rgb(0%, 0%, 0%)" stroke-opacity="0.2" stroke-miterlimit="10" d="M 596.78125 457.980469 L 596.78125 425.199219 "/>
<path fill="none" stroke-width="1.066978" stroke-linecap="butt" stroke-linejoin="round" stroke="rgb(0%, 0%, 0%)" stroke-opacity="0.2" stroke-miterlimit="10" d="M 513.269531 377.011719 L 513.269531 431.027344 "/>
<path fill="none" stroke-width="1.066978" stroke-linecap="butt" stroke-linejoin="round" stroke="rgb(0%, 0%, 0%)" stroke-opacity="0.2" stroke-miterlimit="10" d="M 726.09375 305.339844 L 726.09375 416.171875 "/>
<path fill="none" stroke-width="1.066978" stroke-linecap="butt" stroke-linejoin="round" stroke="rgb(0%, 0%, 0%)" stroke-opacity="0.2" stroke-miterlimit="10" d="M 1348.003906 272.855469 L 1348.003906 372.761719 "/>
<path fill="none" stroke-width="1.066978" stroke-linecap="butt" stroke-linejoin="round" stroke="rgb(0%, 0%, 0%)" stroke-opacity="0.2" stroke-miterlimit="10" d="M 1222.625 285.625 L 1222.625 381.515625 "/>
<path fill="none" stroke-width="1.066978" stroke-linecap="butt" stroke-linejoin="round" stroke="rgb(0%, 0%, 0%)" stroke-opacity="0.2" stroke-miterlimit="10" d="M 805.769531 215.695312 L 805.769531 410.609375 "/>
<path fill="none" stroke-width="1.066978" stroke-linecap="butt" stroke-linejoin="round" stroke="rgb(0%, 0%, 0%)" stroke-opacity="0.2" stroke-miterlimit="10" d="M 723.414062 225.5625 L 723.414062 416.359375 "/>
<path fill="none" stroke-width="1.066978" stroke-linecap="butt" stroke-linejoin="round" stroke="rgb(0%, 0%, 0%)" stroke-opacity="0.2" stroke-miterlimit="10" d="M 247.511719 262.191406 L 247.511719 449.574219 "/>
<path fill="none" stroke-width="1.066978" stroke-linecap="butt" stroke-linejoin="round" stroke="rgb(0%, 0%, 0%)" stroke-opacity="0.2" stroke-miterlimit="10" d="M 748.910156 409.792969 L 748.910156 414.578125 "/>
<path fill="none" stroke-width="1.066978" stroke-linecap="butt" stroke-linejoin="round" stroke="rgb(0%, 0%, 0%)" stroke-opacity="0.2" stroke-miterlimit="10" d="M 984.949219 274.050781 L 984.949219 398.105469 "/>
<path fill="none" stroke-width="1.066978" stroke-linecap="butt" stroke-linejoin="round" stroke="rgb(0%, 0%, 0%)" stroke-opacity="0.2" stroke-miterlimit="10" d="M 422.410156 313.324219 L 422.410156 437.367188 "/>
<path fill="none" stroke-width="1.066978" stroke-linecap="butt" stroke-linejoin="round" stroke="rgb(0%, 0%, 0%)" stroke-opacity="0.2" stroke-miterlimit="10" d="M 1037.351562 195.789062 L 1037.351562 394.445312 "/>
<path fill="none" stroke-width="1.066978" stroke-linecap="butt" stroke-linejoin="round" stroke="rgb(0%, 0%, 0%)" stroke-opacity="0.2" stroke-miterlimit="10" d="M 1055.316406 270.867188 L 1055.316406 393.191406 "/>
<path fill="none" stroke-width="1.066978" stroke-linecap="butt" stroke-linejoin="round" stroke="rgb(0%, 0%, 0%)" stroke-opacity="0.2" stroke-miterlimit="10" d="M 440.8125 247.097656 L 440.8125 436.082031 "/>
<path fill="none" stroke-width="1.066978" stroke-linecap="butt" stroke-linejoin="round" stroke="rgb(0%, 0%, 0%)" stroke-opacity="0.2" stroke-miterlimit="10" d="M 1122.558594 37.839844 L 1122.558594 388.5 "/>
<path fill="none" stroke-width="1.066978" stroke-linecap="butt" stroke-linejoin="round" stroke="rgb(0%, 0%, 0%)" stroke-opacity="0.2" stroke-miterlimit="10" d="M 686.375 335.046875 L 686.375 418.945312 "/>
<path fill="none" stroke-width="1.066978" stroke-linecap="butt" stroke-linejoin="round" stroke="rgb(0%, 0%, 0%)" stroke-opacity="0.2" stroke-miterlimit="10" d="M 638.703125 433.671875 L 638.703125 422.273438 "/>
<path fill="none" stroke-width="1.066978" stroke-linecap="butt" stroke-linejoin="round" stroke="rgb(0%, 0%, 0%)" stroke-opacity="0.2" stroke-miterlimit="10" d="M 1057.097656 256.40625 L 1057.097656 393.066406 "/>
<path fill="none" stroke-width="1.066978" stroke-linecap="butt" stroke-linejoin="round" stroke="rgb(0%, 0%, 0%)" stroke-opacity="0.2" stroke-miterlimit="10" d="M 901.417969 424.101562 L 901.417969 403.933594 "/>
<path fill="none" stroke-width="1.066978" stroke-linecap="butt" stroke-linejoin="round" stroke="rgb(0%, 0%, 0%)" stroke-opacity="0.2" stroke-miterlimit="10" d="M 667.496094 270.433594 L 667.496094 420.261719 "/>
<path fill="none" stroke-width="1.066978" stroke-linecap="butt" stroke-linejoin="round" stroke="rgb(0%, 0%, 0%)" stroke-opacity="0.2" stroke-miterlimit="10" d="M 414.828125 468.074219 L 414.828125 437.898438 "/>
<path fill="none" stroke-width="1.066978" stroke-linecap="butt" stroke-linejoin="round" stroke="rgb(0%, 0%, 0%)" stroke-opacity="0.2" stroke-miterlimit="10" d="M 1074.378906 182.085938 L 1074.378906 391.863281 "/>
<path fill="none" stroke-width="1.066978" stroke-linecap="butt" stroke-linejoin="round" stroke="rgb(0%, 0%, 0%)" stroke-opacity="0.2" stroke-miterlimit="10" d="M 442.835938 402.742188 L 442.835938 435.941406 "/>
<path fill="none" stroke-width="1.066978" stroke-linecap="butt" stroke-linejoin="round" stroke="rgb(0%, 0%, 0%)" stroke-opacity="0.2" stroke-miterlimit="10" d="M 194.449219 425.476562 L 194.449219 453.28125 "/>
<path fill="none" stroke-width="1.066978" stroke-linecap="butt" stroke-linejoin="round" stroke="rgb(0%, 0%, 0%)" stroke-opacity="0.2" stroke-miterlimit="10" d="M 1085.777344 328.03125 L 1085.777344 391.066406 "/>
<path fill="none" stroke-width="1.066978" stroke-linecap="butt" stroke-linejoin="round" stroke="rgb(0%, 0%, 0%)" stroke-opacity="0.2" stroke-miterlimit="10" d="M 1054.140625 228.222656 L 1054.140625 393.273438 "/>
<path fill="none" stroke-width="1.066978" stroke-linecap="butt" stroke-linejoin="round" stroke="rgb(0%, 0%, 0%)" stroke-opacity="0.2" stroke-miterlimit="10" d="M 962.089844 298.296875 L 962.089844 399.699219 "/>
<path fill="none" stroke-width="1.066978" stroke-linecap="butt" stroke-linejoin="round" stroke="rgb(0%, 0%, 0%)" stroke-opacity="0.2" stroke-miterlimit="10" d="M 60.871094 465.46875 L 60.871094 462.601562 "/>
<path fill="none" stroke-width="1.066978" stroke-linecap="butt" stroke-linejoin="round" stroke="rgb(0%, 0%, 0%)" stroke-opacity="0.2" stroke-miterlimit="10" d="M 699.371094 331.683594 L 699.371094 418.035156 "/>
<path fill="none" stroke-width="1.066978" stroke-linecap="butt" stroke-linejoin="round" stroke="rgb(0%, 0%, 0%)" stroke-opacity="0.2" stroke-miterlimit="10" d="M 810.867188 217.28125 L 810.867188 410.253906 "/>
<path fill="none" stroke-width="1.066978" stroke-linecap="butt" stroke-linejoin="round" stroke="rgb(0%, 0%, 0%)" stroke-opacity="0.2" stroke-miterlimit="10" d="M 1156.105469 330.363281 L 1156.105469 386.15625 "/>
<path fill="none" stroke-width="1.066978" stroke-linecap="butt" stroke-linejoin="round" stroke="rgb(0%, 0%, 0%)" stroke-opacity="0.2" stroke-miterlimit="10" d="M 879.121094 296.441406 L 879.121094 405.492188 "/>
<path fill="none" stroke-width="1.066978" stroke-linecap="butt" stroke-linejoin="round" stroke="rgb(0%, 0%, 0%)" stroke-opacity="0.2" stroke-miterlimit="10" d="M 388.777344 394.222656 L 388.777344 439.714844 "/>
<path fill-rule="nonzero" fill="rgb(18.431373%, 30.980392%, 30.980392%)" fill-opacity="0.901961" stroke-width="0.708661" stroke-linecap="round" stroke-linejoin="round" stroke="rgb(18.431373%, 30.980392%, 30.980392%)" stroke-opacity="0.901961" stroke-miterlimit="10" d="M 784.476562 265.28125 C 784.476562 268.421875 781.929688 270.96875 778.785156 270.96875 C 775.644531 270.96875 773.097656 268.421875 773.097656 265.28125 C 773.097656 262.136719 775.644531 259.589844 778.785156 259.589844 C 781.929688 259.589844 784.476562 262.136719 784.476562 265.28125 "/>
<path fill-rule="nonzero" fill="rgb(18.431373%, 30.980392%, 30.980392%)" fill-opacity="0.901961" stroke-width="0.708661" stroke-linecap="round" stroke-linejoin="round" stroke="rgb(18.431373%, 30.980392%, 30.980392%)" stroke-opacity="0.901961" stroke-miterlimit="10" d="M 416.296875 249.433594 C 416.296875 252.578125 413.75 255.125 410.605469 255.125 C 407.464844 255.125 404.917969 252.578125 404.917969 249.433594 C 404.917969 246.292969 407.464844 243.746094 410.605469 243.746094 C 413.75 243.746094 416.296875 246.292969 416.296875 249.433594 "/>
<path fill-rule="nonzero" fill="rgb(18.431373%, 30.980392%, 30.980392%)" fill-opacity="0.901961" stroke-width="0.708661" stroke-linecap="round" stroke-linejoin="round" stroke="rgb(18.431373%, 30.980392%, 30.980392%)" stroke-opacity="0.901961" stroke-miterlimit="10" d="M 946.289062 560.949219 C 946.289062 564.089844 943.742188 566.636719 940.601562 566.636719 C 937.457031 566.636719 934.910156 564.089844 934.910156 560.949219 C 934.910156 557.804688 937.457031 555.257812 940.601562 555.257812 C 943.742188 555.257812 946.289062 557.804688 946.289062 560.949219 "/>
<path fill-rule="nonzero" fill="rgb(18.431373%, 30.980392%, 30.980392%)" fill-opacity="0.901961" stroke-width="0.708661" stroke-linecap="round" stroke-linejoin="round" stroke="rgb(18.431373%, 30.980392%, 30.980392%)" stroke-opacity="0.901961" stroke-miterlimit="10" d="M 830.363281 376.554688 C 830.363281 379.695312 827.816406 382.242188 824.675781 382.242188 C 821.53125 382.242188 818.984375 379.695312 818.984375 376.554688 C 818.984375 373.410156 821.53125 370.863281 824.675781 370.863281 C 827.816406 370.863281 830.363281 373.410156 830.363281 376.554688 "/>
<path fill-rule="nonzero" fill="rgb(18.431373%, 30.980392%, 30.980392%)" fill-opacity="0.901961" stroke-width="0.708661" stroke-linecap="round" stroke-linejoin="round" stroke="rgb(18.431373%, 30.980392%, 30.980392%)" stroke-opacity="0.901961" stroke-miterlimit="10" d="M 659.59375 233.886719 C 659.59375 237.03125 657.046875 239.578125 653.90625 239.578125 C 650.761719 239.578125 648.214844 237.03125 648.214844 233.886719 C 648.214844 230.746094 650.761719 228.199219 653.90625 228.199219 C 657.046875 228.199219 659.59375 230.746094 659.59375 233.886719 "/>
<path fill-rule="nonzero" fill="rgb(18.431373%, 30.980392%, 30.980392%)" fill-opacity="0.901961" stroke-width="0.708661" stroke-linecap="round" stroke-linejoin="round" stroke="rgb(18.431373%, 30.980392%, 30.980392%)" stroke-opacity="0.901961" stroke-miterlimit="10" d="M 841.554688 343.335938 C 841.554688 346.476562 839.007812 349.027344 835.863281 349.027344 C 832.722656 349.027344 830.175781 346.476562 830.175781 343.335938 C 830.175781 340.195312 832.722656 337.648438 835.863281 337.648438 C 839.007812 337.648438 841.554688 340.195312 841.554688 343.335938 "/>
<path fill-rule="nonzero" fill="rgb(18.431373%, 30.980392%, 30.980392%)" fill-opacity="0.901961" stroke-width="0.708661" stroke-linecap="round" stroke-linejoin="round" stroke="rgb(18.431373%, 30.980392%, 30.980392%)" stroke-opacity="0.901961" stroke-miterlimit="10" d="M 827.859375 236.183594 C 827.859375 239.328125 825.308594 241.875 822.167969 241.875 C 819.027344 241.875 816.480469 239.328125 816.480469 236.183594 C 816.480469 233.042969 819.027344 230.496094 822.167969 230.496094 C 825.308594 230.496094 827.859375 233.042969 827.859375 236.183594 "/>
<path fill-rule="nonzero" fill="rgb(18.431373%, 30.980392%, 30.980392%)" fill-opacity="0.901961" stroke-width="0.708661" stroke-linecap="round" stroke-linejoin="round" stroke="rgb(18.431373%, 30.980392%, 30.980392%)" stroke-opacity="0.901961" stroke-miterlimit="10" d="M 593.074219 461.242188 C 593.074219 464.382812 590.527344 466.933594 587.386719 466.933594 C 584.242188 466.933594 581.695312 464.382812 581.695312 461.242188 C 581.695312 458.101562 584.242188 455.554688 587.386719 455.554688 C 590.527344 455.554688 593.074219 458.101562 593.074219 461.242188 "/>
<path fill-rule="nonzero" fill="rgb(18.431373%, 30.980392%, 30.980392%)" fill-opacity="0.901961" stroke-width="0.708661" stroke-linecap="round" stroke-linejoin="round" stroke="rgb(18.431373%, 30.980392%, 30.980392%)" stroke-opacity="0.901961" stroke-miterlimit="10" d="M 1010.171875 302.566406 C 1010.171875 305.707031 1007.625 308.253906 1004.484375 308.253906 C 1001.339844 308.253906 998.792969 305.707031 998.792969 302.566406 C 998.792969 299.425781 1001.339844 296.878906 1004.484375 296.878906 C 1007.625 296.878906 1010.171875 299.425781 1010.171875 302.566406 "/>
<path fill-rule="nonzero" fill="rgb(18.431373%, 30.980392%, 30.980392%)" fill-opacity="0.901961" stroke-width="0.708661" stroke-linecap="round" stroke-linejoin="round" stroke="rgb(18.431373%, 30.980392%, 30.980392%)" stroke-opacity="0.901961" stroke-miterlimit="10" d="M 1214.34375 108.886719 C 1214.34375 112.027344 1211.796875 114.574219 1208.652344 114.574219 C 1205.511719 114.574219 1202.964844 112.027344 1202.964844 108.886719 C 1202.964844 105.742188 1205.511719 103.195312 1208.652344 103.195312 C 1211.796875 103.195312 1214.34375 105.742188 1214.34375 108.886719 "/>
<path fill-rule="nonzero" fill="rgb(18.431373%, 30.980392%, 30.980392%)" fill-opacity="0.901961" stroke-width="0.708661" stroke-linecap="round" stroke-linejoin="round" stroke="rgb(18.431373%, 30.980392%, 30.980392%)" stroke-opacity="0.901961" stroke-miterlimit="10" d="M 631.058594 488.671875 C 631.058594 491.816406 628.511719 494.363281 625.371094 494.363281 C 622.226562 494.363281 619.679688 491.816406 619.679688 488.671875 C 619.679688 485.53125 622.226562 482.984375 625.371094 482.984375 C 628.511719 482.984375 631.058594 485.53125 631.058594 488.671875 "/>
<path fill-rule="nonzero" fill="rgb(18.431373%, 30.980392%, 30.980392%)" fill-opacity="0.901961" stroke-width="0.708661" stroke-linecap="round" stroke-linejoin="round" stroke="rgb(18.431373%, 30.980392%, 30.980392%)" stroke-opacity="0.901961" stroke-miterlimit="10" d="M 539.527344 293.980469 C 539.527344 297.125 536.980469 299.671875 533.839844 299.671875 C 530.695312 299.671875 528.148438 297.125 528.148438 293.980469 C 528.148438 290.839844 530.695312 288.292969 533.839844 288.292969 C 536.980469 288.292969 539.527344 290.839844 539.527344 293.980469 "/>
<path fill-rule="nonzero" fill="rgb(18.431373%, 30.980392%, 30.980392%)" fill-opacity="0.901961" stroke-width="0.708661" stroke-linecap="round" stroke-linejoin="round" stroke="rgb(18.431373%, 30.980392%, 30.980392%)" stroke-opacity="0.901961" stroke-miterlimit="10" d="M 842.589844 373.03125 C 842.589844 376.175781 840.042969 378.722656 836.902344 378.722656 C 833.757812 378.722656 831.210938 376.175781 831.210938 373.03125 C 831.210938 369.890625 833.757812 367.34375 836.902344 367.34375 C 840.042969 367.34375 842.589844 369.890625 842.589844 373.03125 "/>
<path fill-rule="nonzero" fill="rgb(18.431373%, 30.980392%, 30.980392%)" fill-opacity="0.901961" stroke-width="0.708661" stroke-linecap="round" stroke-linejoin="round" stroke="rgb(18.431373%, 30.980392%, 30.980392%)" stroke-opacity="0.901961" stroke-miterlimit="10" d="M 648.835938 362.371094 C 648.835938 365.511719 646.289062 368.058594 643.148438 368.058594 C 640.003906 368.058594 637.457031 365.511719 637.457031 362.371094 C 637.457031 359.226562 640.003906 356.679688 643.148438 356.679688 C 646.289062 356.679688 648.835938 359.226562 648.835938 362.371094 "/>
<path fill-rule="nonzero" fill="rgb(18.431373%, 30.980392%, 30.980392%)" fill-opacity="0.901961" stroke-width="0.708661" stroke-linecap="round" stroke-linejoin="round" stroke="rgb(18.431373%, 30.980392%, 30.980392%)" stroke-opacity="0.901961" stroke-miterlimit="10" d="M 1236.84375 239.71875 C 1236.84375 242.859375 1234.296875 245.40625 1231.15625 245.40625 C 1228.011719 245.40625 1225.464844 242.859375 1225.464844 239.71875 C 1225.464844 236.574219 1228.011719 234.027344 1231.15625 234.027344 C 1234.296875 234.027344 1236.84375 236.574219 1236.84375 239.71875 "/>
<path fill-rule="nonzero" fill="rgb(18.431373%, 30.980392%, 30.980392%)" fill-opacity="0.901961" stroke-width="0.708661" stroke-linecap="round" stroke-linejoin="round" stroke="rgb(18.431373%, 30.980392%, 30.980392%)" stroke-opacity="0.901961" stroke-miterlimit="10" d="M 625.699219 183.648438 C 625.699219 186.792969 623.152344 189.339844 620.011719 189.339844 C 616.867188 189.339844 614.320312 186.792969 614.320312 183.648438 C 614.320312 180.507812 616.867188 177.960938 620.011719 177.960938 C 623.152344 177.960938 625.699219 180.507812 625.699219 183.648438 "/>
<path fill-rule="nonzero" fill="rgb(18.431373%, 30.980392%, 30.980392%)" fill-opacity="0.901961" stroke-width="0.708661" stroke-linecap="round" stroke-linejoin="round" stroke="rgb(18.431373%, 30.980392%, 30.980392%)" stroke-opacity="0.901961" stroke-miterlimit="10" d="M 983.488281 233.441406 C 983.488281 236.582031 980.941406 239.128906 977.800781 239.128906 C 974.660156 239.128906 972.113281 236.582031 972.113281 233.441406 C 972.113281 230.296875 974.660156 227.75 977.800781 227.75 C 980.941406 227.75 983.488281 230.296875 983.488281 233.441406 "/>
<path fill-rule="nonzero" fill="rgb(18.431373%, 30.980392%, 30.980392%)" fill-opacity="0.901961" stroke-width="0.708661" stroke-linecap="round" stroke-linejoin="round" stroke="rgb(18.431373%, 30.980392%, 30.980392%)" stroke-opacity="0.901961" stroke-miterlimit="10" d="M 1185.03125 349.433594 C 1185.03125 352.574219 1182.484375 355.121094 1179.34375 355.121094 C 1176.203125 355.121094 1173.65625 352.574219 1173.65625 349.433594 C 1173.65625 346.289062 1176.203125 343.742188 1179.34375 343.742188 C 1182.484375 343.742188 1185.03125 346.289062 1185.03125 349.433594 "/>
<path fill-rule="nonzero" fill="rgb(18.431373%, 30.980392%, 30.980392%)" fill-opacity="0.901961" stroke-width="0.708661" stroke-linecap="round" stroke-linejoin="round" stroke="rgb(18.431373%, 30.980392%, 30.980392%)" stroke-opacity="0.901961" stroke-miterlimit="10" d="M 1517.160156 133.457031 C 1517.160156 136.601562 1514.613281 139.148438 1511.46875 139.148438 C 1508.328125 139.148438 1505.78125 136.601562 1505.78125 133.457031 C 1505.78125 130.316406 1508.328125 127.769531 1511.46875 127.769531 C 1514.613281 127.769531 1517.160156 130.316406 1517.160156 133.457031 "/>
<path fill-rule="nonzero" fill="rgb(18.431373%, 30.980392%, 30.980392%)" fill-opacity="0.901961" stroke-width="0.708661" stroke-linecap="round" stroke-linejoin="round" stroke="rgb(18.431373%, 30.980392%, 30.980392%)" stroke-opacity="0.901961" stroke-miterlimit="10" d="M 889.511719 357.1875 C 889.511719 360.328125 886.964844 362.875 883.820312 362.875 C 880.679688 362.875 878.132812 360.328125 878.132812 357.1875 C 878.132812 354.046875 880.679688 351.5 883.820312 351.5 C 886.964844 351.5 889.511719 354.046875 889.511719 357.1875 "/>
<path fill-rule="nonzero" fill="rgb(18.431373%, 30.980392%, 30.980392%)" fill-opacity="0.901961" stroke-width="0.708661" stroke-linecap="round" stroke-linejoin="round" stroke="rgb(18.431373%, 30.980392%, 30.980392%)" stroke-opacity="0.901961" stroke-miterlimit="10" d="M 1282.363281 283.066406 C 1282.363281 286.207031 1279.816406 288.753906 1276.675781 288.753906 C 1273.535156 288.753906 1270.984375 286.207031 1270.984375 283.066406 C 1270.984375 279.921875 1273.535156 277.375 1276.675781 277.375 C 1279.816406 277.375 1282.363281 279.921875 1282.363281 283.066406 "/>
<path fill-rule="nonzero" fill="rgb(18.431373%, 30.980392%, 30.980392%)" fill-opacity="0.901961" stroke-width="0.708661" stroke-linecap="round" stroke-linejoin="round" stroke="rgb(18.431373%, 30.980392%, 30.980392%)" stroke-opacity="0.901961" stroke-miterlimit="10" d="M 940.210938 384.144531 C 940.210938 387.289062 937.664062 389.835938 934.523438 389.835938 C 931.378906 389.835938 928.832031 387.289062 928.832031 384.144531 C 928.832031 381.003906 931.378906 378.457031 934.523438 378.457031 C 937.664062 378.457031 940.210938 381.003906 940.210938 384.144531 "/>
<path fill-rule="nonzero" fill="rgb(18.431373%, 30.980392%, 30.980392%)" fill-opacity="0.901961" stroke-width="0.708661" stroke-linecap="round" stroke-linejoin="round" stroke="rgb(18.431373%, 30.980392%, 30.980392%)" stroke-opacity="0.901961" stroke-miterlimit="10" d="M 816.921875 360.261719 C 816.921875 363.40625 814.375 365.953125 811.234375 365.953125 C 808.089844 365.953125 805.542969 363.40625 805.542969 360.261719 C 805.542969 357.121094 808.089844 354.574219 811.234375 354.574219 C 814.375 354.574219 816.921875 357.121094 816.921875 360.261719 "/>
<path fill-rule="nonzero" fill="rgb(18.431373%, 30.980392%, 30.980392%)" fill-opacity="0.901961" stroke-width="0.708661" stroke-linecap="round" stroke-linejoin="round" stroke="rgb(18.431373%, 30.980392%, 30.980392%)" stroke-opacity="0.901961" stroke-miterlimit="10" d="M 889.925781 332.398438 C 889.925781 335.542969 887.378906 338.089844 884.234375 338.089844 C 881.09375 338.089844 878.546875 335.542969 878.546875 332.398438 C 878.546875 329.257812 881.09375 326.710938 884.234375 326.710938 C 887.378906 326.710938 889.925781 329.257812 889.925781 332.398438 "/>
<path fill-rule="nonzero" fill="rgb(18.431373%, 30.980392%, 30.980392%)" fill-opacity="0.901961" stroke-width="0.708661" stroke-linecap="round" stroke-linejoin="round" stroke="rgb(18.431373%, 30.980392%, 30.980392%)" stroke-opacity="0.901961" stroke-miterlimit="10" d="M 1190.015625 295.269531 C 1190.015625 298.414062 1187.46875 300.960938 1184.324219 300.960938 C 1181.183594 300.960938 1178.636719 298.414062 1178.636719 295.269531 C 1178.636719 292.128906 1181.183594 289.582031 1184.324219 289.582031 C 1187.46875 289.582031 1190.015625 292.128906 1190.015625 295.269531 "/>
<path fill-rule="nonzero" fill="rgb(18.431373%, 30.980392%, 30.980392%)" fill-opacity="0.901961" stroke-width="0.708661" stroke-linecap="round" stroke-linejoin="round" stroke="rgb(18.431373%, 30.980392%, 30.980392%)" stroke-opacity="0.901961" stroke-miterlimit="10" d="M 853.925781 319.746094 C 853.925781 322.886719 851.378906 325.4375 848.238281 325.4375 C 845.097656 325.4375 842.550781 322.886719 842.550781 319.746094 C 842.550781 316.605469 845.097656 314.058594 848.238281 314.058594 C 851.378906 314.058594 853.925781 316.605469 853.925781 319.746094 "/>
<path fill-rule="nonzero" fill="rgb(18.431373%, 30.980392%, 30.980392%)" fill-opacity="0.901961" stroke-width="0.708661" stroke-linecap="round" stroke-linejoin="round" stroke="rgb(18.431373%, 30.980392%, 30.980392%)" stroke-opacity="0.901961" stroke-miterlimit="10" d="M 754.421875 231.457031 C 754.421875 234.601562 751.875 237.148438 748.734375 237.148438 C 745.589844 237.148438 743.042969 234.601562 743.042969 231.457031 C 743.042969 228.316406 745.589844 225.769531 748.734375 225.769531 C 751.875 225.769531 754.421875 228.316406 754.421875 231.457031 "/>
<path fill-rule="nonzero" fill="rgb(18.431373%, 30.980392%, 30.980392%)" fill-opacity="0.901961" stroke-width="0.708661" stroke-linecap="round" stroke-linejoin="round" stroke="rgb(18.431373%, 30.980392%, 30.980392%)" stroke-opacity="0.901961" stroke-miterlimit="10" d="M 558.828125 336.582031 C 558.828125 339.726562 556.28125 342.273438 553.136719 342.273438 C 549.996094 342.273438 547.449219 339.726562 547.449219 336.582031 C 547.449219 333.441406 549.996094 330.894531 553.136719 330.894531 C 556.28125 330.894531 558.828125 333.441406 558.828125 336.582031 "/>
<path fill-rule="nonzero" fill="rgb(18.431373%, 30.980392%, 30.980392%)" fill-opacity="0.901961" stroke-width="0.708661" stroke-linecap="round" stroke-linejoin="round" stroke="rgb(18.431373%, 30.980392%, 30.980392%)" stroke-opacity="0.901961" stroke-miterlimit="10" d="M 271.910156 496.074219 C 271.910156 499.214844 269.363281 501.765625 266.222656 501.765625 C 263.078125 501.765625 260.53125 499.214844 260.53125 496.074219 C 260.53125 492.933594 263.078125 490.386719 266.222656 490.386719 C 269.363281 490.386719 271.910156 492.933594 271.910156 496.074219 "/>
<path fill-rule="nonzero" fill="rgb(18.431373%, 30.980392%, 30.980392%)" fill-opacity="0.901961" stroke-width="0.708661" stroke-linecap="round" stroke-linejoin="round" stroke="rgb(18.431373%, 30.980392%, 30.980392%)" stroke-opacity="0.901961" stroke-miterlimit="10" d="M 1134.828125 78.246094 C 1134.828125 81.386719 1132.28125 83.933594 1129.140625 83.933594 C 1125.996094 83.933594 1123.449219 81.386719 1123.449219 78.246094 C 1123.449219 75.101562 1125.996094 72.554688 1129.140625 72.554688 C 1132.28125 72.554688 1134.828125 75.101562 1134.828125 78.246094 "/>
<path fill-rule="nonzero" fill="rgb(18.431373%, 30.980392%, 30.980392%)" fill-opacity="0.901961" stroke-width="0.708661" stroke-linecap="round" stroke-linejoin="round" stroke="rgb(18.431373%, 30.980392%, 30.980392%)" stroke-opacity="0.901961" stroke-miterlimit="10" d="M 608.886719 314.929688 C 608.886719 318.070312 606.335938 320.621094 603.195312 320.621094 C 600.054688 320.621094 597.507812 318.070312 597.507812 314.929688 C 597.507812 311.789062 600.054688 309.242188 603.195312 309.242188 C 606.335938 309.242188 608.886719 311.789062 608.886719 314.929688 "/>
<path fill-rule="nonzero" fill="rgb(18.431373%, 30.980392%, 30.980392%)" fill-opacity="0.901961" stroke-width="0.708661" stroke-linecap="round" stroke-linejoin="round" stroke="rgb(18.431373%, 30.980392%, 30.980392%)" stroke-opacity="0.901961" stroke-miterlimit="10" d="M 917.695312 402.890625 C 917.695312 406.03125 915.148438 408.582031 912.007812 408.582031 C 908.863281 408.582031 906.316406 406.03125 906.316406 402.890625 C 906.316406 399.75 908.863281 397.203125 912.007812 397.203125 C 915.148438 397.203125 917.695312 399.75 917.695312 402.890625 "/>
<path fill-rule="nonzero" fill="rgb(18.431373%, 30.980392%, 30.980392%)" fill-opacity="0.901961" stroke-width="0.708661" stroke-linecap="round" stroke-linejoin="round" stroke="rgb(18.431373%, 30.980392%, 30.980392%)" stroke-opacity="0.901961" stroke-miterlimit="10" d="M 1014.554688 233.449219 C 1014.554688 236.589844 1012.007812 239.136719 1008.867188 239.136719 C 1005.722656 239.136719 1003.175781 236.589844 1003.175781 233.449219 C 1003.175781 230.308594 1005.722656 227.757812 1008.867188 227.757812 C 1012.007812 227.757812 1014.554688 230.308594 1014.554688 233.449219 "/>
<path fill-rule="nonzero" fill="rgb(18.431373%, 30.980392%, 30.980392%)" fill-opacity="0.901961" stroke-width="0.708661" stroke-linecap="round" stroke-linejoin="round" stroke="rgb(18.431373%, 30.980392%, 30.980392%)" stroke-opacity="0.901961" stroke-miterlimit="10" d="M 1069.03125 235.449219 C 1069.03125 238.59375 1066.484375 241.140625 1063.34375 241.140625 C 1060.199219 241.140625 1057.652344 238.59375 1057.652344 235.449219 C 1057.652344 232.308594 1060.199219 229.761719 1063.34375 229.761719 C 1066.484375 229.761719 1069.03125 232.308594 1069.03125 235.449219 "/>
<path fill-rule="nonzero" fill="rgb(18.431373%, 30.980392%, 30.980392%)" fill-opacity="0.901961" stroke-width="0.708661" stroke-linecap="round" stroke-linejoin="round" stroke="rgb(18.431373%, 30.980392%, 30.980392%)" stroke-opacity="0.901961" stroke-miterlimit="10" d="M 534.726562 461.21875 C 534.726562 464.359375 532.179688 466.910156 529.035156 466.910156 C 525.894531 466.910156 523.347656 464.359375 523.347656 461.21875 C 523.347656 458.078125 525.894531 455.53125 529.035156 455.53125 C 532.179688 455.53125 534.726562 458.078125 534.726562 461.21875 "/>
<path fill-rule="nonzero" fill="rgb(18.431373%, 30.980392%, 30.980392%)" fill-opacity="0.901961" stroke-width="0.708661" stroke-linecap="round" stroke-linejoin="round" stroke="rgb(18.431373%, 30.980392%, 30.980392%)" stroke-opacity="0.901961" stroke-miterlimit="10" d="M 1366.269531 26.710938 C 1366.269531 29.855469 1363.722656 32.402344 1360.582031 32.402344 C 1357.4375 32.402344 1354.890625 29.855469 1354.890625 26.710938 C 1354.890625 23.570312 1357.4375 21.023438 1360.582031 21.023438 C 1363.722656 21.023438 1366.269531 23.570312 1366.269531 26.710938 "/>
<path fill-rule="nonzero" fill="rgb(18.431373%, 30.980392%, 30.980392%)" fill-opacity="0.901961" stroke-width="0.708661" stroke-linecap="round" stroke-linejoin="round" stroke="rgb(18.431373%, 30.980392%, 30.980392%)" stroke-opacity="0.901961" stroke-miterlimit="10" d="M 1369.390625 172.054688 C 1369.390625 175.195312 1366.84375 177.742188 1363.699219 177.742188 C 1360.558594 177.742188 1358.011719 175.195312 1358.011719 172.054688 C 1358.011719 168.914062 1360.558594 166.367188 1363.699219 166.367188 C 1366.84375 166.367188 1369.390625 168.914062 1369.390625 172.054688 "/>
<path fill-rule="nonzero" fill="rgb(18.431373%, 30.980392%, 30.980392%)" fill-opacity="0.901961" stroke-width="0.708661" stroke-linecap="round" stroke-linejoin="round" stroke="rgb(18.431373%, 30.980392%, 30.980392%)" stroke-opacity="0.901961" stroke-miterlimit="10" d="M 1213.183594 184.789062 C 1213.183594 187.929688 1210.636719 190.476562 1207.496094 190.476562 C 1204.355469 190.476562 1201.804688 187.929688 1201.804688 184.789062 C 1201.804688 181.644531 1204.355469 179.097656 1207.496094 179.097656 C 1210.636719 179.097656 1213.183594 181.644531 1213.183594 184.789062 "/>
<path fill-rule="nonzero" fill="rgb(18.431373%, 30.980392%, 30.980392%)" fill-opacity="0.901961" stroke-width="0.708661" stroke-linecap="round" stroke-linejoin="round" stroke="rgb(18.431373%, 30.980392%, 30.980392%)" stroke-opacity="0.901961" stroke-miterlimit="10" d="M 1000.78125 319.363281 C 1000.78125 322.503906 998.234375 325.050781 995.089844 325.050781 C 991.949219 325.050781 989.402344 322.503906 989.402344 319.363281 C 989.402344 316.21875 991.949219 313.671875 995.089844 313.671875 C 998.234375 313.671875 1000.78125 316.21875 1000.78125 319.363281 "/>
<path fill-rule="nonzero" fill="rgb(18.431373%, 30.980392%, 30.980392%)" fill-opacity="0.901961" stroke-width="0.708661" stroke-linecap="round" stroke-linejoin="round" stroke="rgb(18.431373%, 30.980392%, 30.980392%)" stroke-opacity="0.901961" stroke-miterlimit="10" d="M 822.722656 281.542969 C 822.722656 284.6875 820.175781 287.234375 817.035156 287.234375 C 813.894531 287.234375 811.347656 284.6875 811.347656 281.542969 C 811.347656 278.402344 813.894531 275.855469 817.035156 275.855469 C 820.175781 275.855469 822.722656 278.402344 822.722656 281.542969 "/>
<path fill-rule="nonzero" fill="rgb(18.431373%, 30.980392%, 30.980392%)" fill-opacity="0.901961" stroke-width="0.708661" stroke-linecap="round" stroke-linejoin="round" stroke="rgb(18.431373%, 30.980392%, 30.980392%)" stroke-opacity="0.901961" stroke-miterlimit="10" d="M 1003.269531 241.601562 C 1003.269531 244.742188 1000.722656 247.289062 997.582031 247.289062 C 994.441406 247.289062 991.894531 244.742188 991.894531 241.601562 C 991.894531 238.457031 994.441406 235.910156 997.582031 235.910156 C 1000.722656 235.910156 1003.269531 238.457031 1003.269531 241.601562 "/>
<path fill-rule="nonzero" fill="rgb(18.431373%, 30.980392%, 30.980392%)" fill-opacity="0.901961" stroke-width="0.708661" stroke-linecap="round" stroke-linejoin="round" stroke="rgb(18.431373%, 30.980392%, 30.980392%)" stroke-opacity="0.901961" stroke-miterlimit="10" d="M 1066.824219 194.28125 C 1066.824219 197.421875 1064.277344 199.96875 1061.136719 199.96875 C 1057.992188 199.96875 1055.445312 197.421875 1055.445312 194.28125 C 1055.445312 191.136719 1057.992188 188.589844 1061.136719 188.589844 C 1064.277344 188.589844 1066.824219 191.136719 1066.824219 194.28125 "/>
<path fill-rule="nonzero" fill="rgb(18.431373%, 30.980392%, 30.980392%)" fill-opacity="0.901961" stroke-width="0.708661" stroke-linecap="round" stroke-linejoin="round" stroke="rgb(18.431373%, 30.980392%, 30.980392%)" stroke-opacity="0.901961" stroke-miterlimit="10" d="M 1159.160156 322.601562 C 1159.160156 325.742188 1156.613281 328.289062 1153.46875 328.289062 C 1150.328125 328.289062 1147.78125 325.742188 1147.78125 322.601562 C 1147.78125 319.460938 1150.328125 316.914062 1153.46875 316.914062 C 1156.613281 316.914062 1159.160156 319.460938 1159.160156 322.601562 "/>
<path fill-rule="nonzero" fill="rgb(18.431373%, 30.980392%, 30.980392%)" fill-opacity="0.901961" stroke-width="0.708661" stroke-linecap="round" stroke-linejoin="round" stroke="rgb(18.431373%, 30.980392%, 30.980392%)" stroke-opacity="0.901961" stroke-miterlimit="10" d="M 694.199219 315.574219 C 694.199219 318.714844 691.652344 321.261719 688.507812 321.261719 C 685.367188 321.261719 682.820312 318.714844 682.820312 315.574219 C 682.820312 312.429688 685.367188 309.882812 688.507812 309.882812 C 691.652344 309.882812 694.199219 312.429688 694.199219 315.574219 "/>
<path fill-rule="nonzero" fill="rgb(18.431373%, 30.980392%, 30.980392%)" fill-opacity="0.901961" stroke-width="0.708661" stroke-linecap="round" stroke-linejoin="round" stroke="rgb(18.431373%, 30.980392%, 30.980392%)" stroke-opacity="0.901961" stroke-miterlimit="10" d="M 714.171875 357.925781 C 714.171875 361.070312 711.625 363.617188 708.484375 363.617188 C 705.339844 363.617188 702.792969 361.070312 702.792969 357.925781 C 702.792969 354.785156 705.339844 352.238281 708.484375 352.238281 C 711.625 352.238281 714.171875 354.785156 714.171875 357.925781 "/>
<path fill-rule="nonzero" fill="rgb(18.431373%, 30.980392%, 30.980392%)" fill-opacity="0.901961" stroke-width="0.708661" stroke-linecap="round" stroke-linejoin="round" stroke="rgb(18.431373%, 30.980392%, 30.980392%)" stroke-opacity="0.901961" stroke-miterlimit="10" d="M 753.757812 362.949219 C 753.757812 366.089844 751.210938 368.636719 748.070312 368.636719 C 744.925781 368.636719 742.378906 366.089844 742.378906 362.949219 C 742.378906 359.804688 744.925781 357.257812 748.070312 357.257812 C 751.210938 357.257812 753.757812 359.804688 753.757812 362.949219 "/>
<path fill-rule="nonzero" fill="rgb(18.431373%, 30.980392%, 30.980392%)" fill-opacity="0.901961" stroke-width="0.708661" stroke-linecap="round" stroke-linejoin="round" stroke="rgb(18.431373%, 30.980392%, 30.980392%)" stroke-opacity="0.901961" stroke-miterlimit="10" d="M 508.777344 307.164062 C 508.777344 310.304688 506.230469 312.851562 503.085938 312.851562 C 499.945312 312.851562 497.398438 310.304688 497.398438 307.164062 C 497.398438 304.019531 499.945312 301.472656 503.085938 301.472656 C 506.230469 301.472656 508.777344 304.019531 508.777344 307.164062 "/>
<path fill-rule="nonzero" fill="rgb(18.431373%, 30.980392%, 30.980392%)" fill-opacity="0.901961" stroke-width="0.708661" stroke-linecap="round" stroke-linejoin="round" stroke="rgb(18.431373%, 30.980392%, 30.980392%)" stroke-opacity="0.901961" stroke-miterlimit="10" d="M 976.328125 175.523438 C 976.328125 178.667969 973.78125 181.214844 970.636719 181.214844 C 967.496094 181.214844 964.949219 178.667969 964.949219 175.523438 C 964.949219 172.382812 967.496094 169.835938 970.636719 169.835938 C 973.78125 169.835938 976.328125 172.382812 976.328125 175.523438 "/>
<path fill-rule="nonzero" fill="rgb(18.431373%, 30.980392%, 30.980392%)" fill-opacity="0.901961" stroke-width="0.708661" stroke-linecap="round" stroke-linejoin="round" stroke="rgb(18.431373%, 30.980392%, 30.980392%)" stroke-opacity="0.901961" stroke-miterlimit="10" d="M 991.953125 287.074219 C 991.953125 290.21875 989.40625 292.765625 986.261719 292.765625 C 983.121094 292.765625 980.574219 290.21875 980.574219 287.074219 C 980.574219 283.933594 983.121094 281.386719 986.261719 281.386719 C 989.40625 281.386719 991.953125 283.933594 991.953125 287.074219 "/>
<path fill-rule="nonzero" fill="rgb(18.431373%, 30.980392%, 30.980392%)" fill-opacity="0.901961" stroke-width="0.708661" stroke-linecap="round" stroke-linejoin="round" stroke="rgb(18.431373%, 30.980392%, 30.980392%)" stroke-opacity="0.901961" stroke-miterlimit="10" d="M 1295.71875 265.507812 C 1295.71875 268.648438 1293.171875 271.199219 1290.027344 271.199219 C 1286.886719 271.199219 1284.339844 268.648438 1284.339844 265.507812 C 1284.339844 262.367188 1286.886719 259.820312 1290.027344 259.820312 C 1293.171875 259.820312 1295.71875 262.367188 1295.71875 265.507812 "/>
<path fill-rule="nonzero" fill="rgb(18.431373%, 30.980392%, 30.980392%)" fill-opacity="0.901961" stroke-width="0.708661" stroke-linecap="round" stroke-linejoin="round" stroke="rgb(18.431373%, 30.980392%, 30.980392%)" stroke-opacity="0.901961" stroke-miterlimit="10" d="M 654.972656 314.019531 C 654.972656 317.160156 652.425781 319.707031 649.285156 319.707031 C 646.140625 319.707031 643.59375 317.160156 643.59375 314.019531 C 643.59375 310.875 646.140625 308.328125 649.285156 308.328125 C 652.425781 308.328125 654.972656 310.875 654.972656 314.019531 "/>
<path fill-rule="nonzero" fill="rgb(18.431373%, 30.980392%, 30.980392%)" fill-opacity="0.901961" stroke-width="0.708661" stroke-linecap="round" stroke-linejoin="round" stroke="rgb(18.431373%, 30.980392%, 30.980392%)" stroke-opacity="0.901961" stroke-miterlimit="10" d="M 502.082031 429.292969 C 502.082031 432.433594 499.535156 434.980469 496.390625 434.980469 C 493.25 434.980469 490.703125 432.433594 490.703125 429.292969 C 490.703125 426.148438 493.25 423.601562 496.390625 423.601562 C 499.535156 423.601562 502.082031 426.148438 502.082031 429.292969 "/>
<path fill-rule="nonzero" fill="rgb(18.431373%, 30.980392%, 30.980392%)" fill-opacity="0.901961" stroke-width="0.708661" stroke-linecap="round" stroke-linejoin="round" stroke="rgb(18.431373%, 30.980392%, 30.980392%)" stroke-opacity="0.901961" stroke-miterlimit="10" d="M 1143.671875 279.628906 C 1143.671875 282.773438 1141.125 285.320312 1137.984375 285.320312 C 1134.84375 285.320312 1132.296875 282.773438 1132.296875 279.628906 C 1132.296875 276.488281 1134.84375 273.941406 1137.984375 273.941406 C 1141.125 273.941406 1143.671875 276.488281 1143.671875 279.628906 "/>
<path fill-rule="nonzero" fill="rgb(18.431373%, 30.980392%, 30.980392%)" fill-opacity="0.901961" stroke-width="0.708661" stroke-linecap="round" stroke-linejoin="round" stroke="rgb(18.431373%, 30.980392%, 30.980392%)" stroke-opacity="0.901961" stroke-miterlimit="10" d="M 988.863281 368.867188 C 988.863281 372.007812 986.316406 374.554688 983.171875 374.554688 C 980.03125 374.554688 977.484375 372.007812 977.484375 368.867188 C 977.484375 365.722656 980.03125 363.175781 983.171875 363.175781 C 986.316406 363.175781 988.863281 365.722656 988.863281 368.867188 "/>
<path fill-rule="nonzero" fill="rgb(18.431373%, 30.980392%, 30.980392%)" fill-opacity="0.901961" stroke-width="0.708661" stroke-linecap="round" stroke-linejoin="round" stroke="rgb(18.431373%, 30.980392%, 30.980392%)" stroke-opacity="0.901961" stroke-miterlimit="10" d="M 635.289062 403.335938 C 635.289062 406.476562 632.742188 409.023438 629.597656 409.023438 C 626.457031 409.023438 623.910156 406.476562 623.910156 403.335938 C 623.910156 400.195312 626.457031 397.644531 629.597656 397.644531 C 632.742188 397.644531 635.289062 400.195312 635.289062 403.335938 "/>
<path fill-rule="nonzero" fill="rgb(18.431373%, 30.980392%, 30.980392%)" fill-opacity="0.901961" stroke-width="0.708661" stroke-linecap="round" stroke-linejoin="round" stroke="rgb(18.431373%, 30.980392%, 30.980392%)" stroke-opacity="0.901961" stroke-miterlimit="10" d="M 955.175781 320.691406 C 955.175781 323.832031 952.628906 326.382812 949.488281 326.382812 C 946.347656 326.382812 943.796875 323.832031 943.796875 320.691406 C 943.796875 317.550781 946.347656 315.003906 949.488281 315.003906 C 952.628906 315.003906 955.175781 317.550781 955.175781 320.691406 "/>
<path fill-rule="nonzero" fill="rgb(18.431373%, 30.980392%, 30.980392%)" fill-opacity="0.901961" stroke-width="0.708661" stroke-linecap="round" stroke-linejoin="round" stroke="rgb(18.431373%, 30.980392%, 30.980392%)" stroke-opacity="0.901961" stroke-miterlimit="10" d="M 1116.171875 144.460938 C 1116.171875 147.601562 1113.625 150.148438 1110.484375 150.148438 C 1107.34375 150.148438 1104.796875 147.601562 1104.796875 144.460938 C 1104.796875 141.316406 1107.34375 138.769531 1110.484375 138.769531 C 1113.625 138.769531 1116.171875 141.316406 1116.171875 144.460938 "/>
<path fill-rule="nonzero" fill="rgb(18.431373%, 30.980392%, 30.980392%)" fill-opacity="0.901961" stroke-width="0.708661" stroke-linecap="round" stroke-linejoin="round" stroke="rgb(18.431373%, 30.980392%, 30.980392%)" stroke-opacity="0.901961" stroke-miterlimit="10" d="M 654.652344 215.847656 C 654.652344 218.992188 652.105469 221.539062 648.960938 221.539062 C 645.820312 221.539062 643.273438 218.992188 643.273438 215.847656 C 643.273438 212.707031 645.820312 210.160156 648.960938 210.160156 C 652.105469 210.160156 654.652344 212.707031 654.652344 215.847656 "/>
<path fill-rule="nonzero" fill="rgb(18.431373%, 30.980392%, 30.980392%)" fill-opacity="0.901961" stroke-width="0.708661" stroke-linecap="round" stroke-linejoin="round" stroke="rgb(18.431373%, 30.980392%, 30.980392%)" stroke-opacity="0.901961" stroke-miterlimit="10" d="M 1243.394531 219.914062 C 1243.394531 223.058594 1240.847656 225.605469 1237.707031 225.605469 C 1234.5625 225.605469 1232.015625 223.058594 1232.015625 219.914062 C 1232.015625 216.773438 1234.5625 214.226562 1237.707031 214.226562 C 1240.847656 214.226562 1243.394531 216.773438 1243.394531 219.914062 "/>
<path fill-rule="nonzero" fill="rgb(18.431373%, 30.980392%, 30.980392%)" fill-opacity="0.901961" stroke-width="0.708661" stroke-linecap="round" stroke-linejoin="round" stroke="rgb(18.431373%, 30.980392%, 30.980392%)" stroke-opacity="0.901961" stroke-miterlimit="10" d="M 908.203125 321.667969 C 908.203125 324.808594 905.65625 327.355469 902.515625 327.355469 C 899.371094 327.355469 896.824219 324.808594 896.824219 321.667969 C 896.824219 318.523438 899.371094 315.976562 902.515625 315.976562 C 905.65625 315.976562 908.203125 318.523438 908.203125 321.667969 "/>
<path fill-rule="nonzero" fill="rgb(18.431373%, 30.980392%, 30.980392%)" fill-opacity="0.901961" stroke-width="0.708661" stroke-linecap="round" stroke-linejoin="round" stroke="rgb(18.431373%, 30.980392%, 30.980392%)" stroke-opacity="0.901961" stroke-miterlimit="10" d="M 101.84375 512.917969 C 101.84375 516.0625 99.296875 518.609375 96.15625 518.609375 C 93.011719 518.609375 90.464844 516.0625 90.464844 512.917969 C 90.464844 509.777344 93.011719 507.230469 96.15625 507.230469 C 99.296875 507.230469 101.84375 509.777344 101.84375 512.917969 "/>
<path fill-rule="nonzero" fill="rgb(18.431373%, 30.980392%, 30.980392%)" fill-opacity="0.901961" stroke-width="0.708661" stroke-linecap="round" stroke-linejoin="round" stroke="rgb(18.431373%, 30.980392%, 30.980392%)" stroke-opacity="0.901961" stroke-miterlimit="10" d="M 171.210938 495.511719 C 171.210938 498.652344 168.664062 501.199219 165.523438 501.199219 C 162.378906 501.199219 159.832031 498.652344 159.832031 495.511719 C 159.832031 492.367188 162.378906 489.820312 165.523438 489.820312 C 168.664062 489.820312 171.210938 492.367188 171.210938 495.511719 "/>
<path fill-rule="nonzero" fill="rgb(18.431373%, 30.980392%, 30.980392%)" fill-opacity="0.901961" stroke-width="0.708661" stroke-linecap="round" stroke-linejoin="round" stroke="rgb(18.431373%, 30.980392%, 30.980392%)" stroke-opacity="0.901961" stroke-miterlimit="10" d="M 928.894531 236.691406 C 928.894531 239.835938 926.347656 242.382812 923.203125 242.382812 C 920.0625 242.382812 917.515625 239.835938 917.515625 236.691406 C 917.515625 233.550781 920.0625 231.003906 923.203125 231.003906 C 926.347656 231.003906 928.894531 233.550781 928.894531 236.691406 "/>
<path fill-rule="nonzero" fill="rgb(18.431373%, 30.980392%, 30.980392%)" fill-opacity="0.901961" stroke-width="0.708661" stroke-linecap="round" stroke-linejoin="round" stroke="rgb(18.431373%, 30.980392%, 30.980392%)" stroke-opacity="0.901961" stroke-miterlimit="10" d="M 624.03125 262.964844 C 624.03125 266.109375 621.484375 268.65625 618.339844 268.65625 C 615.199219 268.65625 612.652344 266.109375 612.652344 262.964844 C 612.652344 259.824219 615.199219 257.277344 618.339844 257.277344 C 621.484375 257.277344 624.03125 259.824219 624.03125 262.964844 "/>
<path fill-rule="nonzero" fill="rgb(18.431373%, 30.980392%, 30.980392%)" fill-opacity="0.901961" stroke-width="0.708661" stroke-linecap="round" stroke-linejoin="round" stroke="rgb(18.431373%, 30.980392%, 30.980392%)" stroke-opacity="0.901961" stroke-miterlimit="10" d="M 711.453125 367.957031 C 711.453125 371.097656 708.90625 373.644531 705.765625 373.644531 C 702.625 373.644531 700.074219 371.097656 700.074219 367.957031 C 700.074219 364.8125 702.625 362.265625 705.765625 362.265625 C 708.90625 362.265625 711.453125 364.8125 711.453125 367.957031 "/>
<path fill-rule="nonzero" fill="rgb(18.431373%, 30.980392%, 30.980392%)" fill-opacity="0.901961" stroke-width="0.708661" stroke-linecap="round" stroke-linejoin="round" stroke="rgb(18.431373%, 30.980392%, 30.980392%)" stroke-opacity="0.901961" stroke-miterlimit="10" d="M 868.21875 201.648438 C 868.21875 204.789062 865.671875 207.335938 862.527344 207.335938 C 859.386719 207.335938 856.839844 204.789062 856.839844 201.648438 C 856.839844 198.503906 859.386719 195.957031 862.527344 195.957031 C 865.671875 195.957031 868.21875 198.503906 868.21875 201.648438 "/>
<path fill-rule="nonzero" fill="rgb(18.431373%, 30.980392%, 30.980392%)" fill-opacity="0.901961" stroke-width="0.708661" stroke-linecap="round" stroke-linejoin="round" stroke="rgb(18.431373%, 30.980392%, 30.980392%)" stroke-opacity="0.901961" stroke-miterlimit="10" d="M 793.808594 315.832031 C 793.808594 318.972656 791.261719 321.519531 788.121094 321.519531 C 784.980469 321.519531 782.429688 318.972656 782.429688 315.832031 C 782.429688 312.691406 784.980469 310.144531 788.121094 310.144531 C 791.261719 310.144531 793.808594 312.691406 793.808594 315.832031 "/>
<path fill-rule="nonzero" fill="rgb(18.431373%, 30.980392%, 30.980392%)" fill-opacity="0.901961" stroke-width="0.708661" stroke-linecap="round" stroke-linejoin="round" stroke="rgb(18.431373%, 30.980392%, 30.980392%)" stroke-opacity="0.901961" stroke-miterlimit="10" d="M 602.46875 457.980469 C 602.46875 461.121094 599.921875 463.667969 596.78125 463.667969 C 593.636719 463.667969 591.089844 461.121094 591.089844 457.980469 C 591.089844 454.835938 593.636719 452.289062 596.78125 452.289062 C 599.921875 452.289062 602.46875 454.835938 602.46875 457.980469 "/>
<path fill-rule="nonzero" fill="rgb(18.431373%, 30.980392%, 30.980392%)" fill-opacity="0.901961" stroke-width="0.708661" stroke-linecap="round" stroke-linejoin="round" stroke="rgb(18.431373%, 30.980392%, 30.980392%)" stroke-opacity="0.901961" stroke-miterlimit="10" d="M 518.960938 377.011719 C 518.960938 380.152344 516.414062 382.699219 513.269531 382.699219 C 510.128906 382.699219 507.582031 380.152344 507.582031 377.011719 C 507.582031 373.867188 510.128906 371.320312 513.269531 371.320312 C 516.414062 371.320312 518.960938 373.867188 518.960938 377.011719 "/>
<path fill-rule="nonzero" fill="rgb(18.431373%, 30.980392%, 30.980392%)" fill-opacity="0.901961" stroke-width="0.708661" stroke-linecap="round" stroke-linejoin="round" stroke="rgb(18.431373%, 30.980392%, 30.980392%)" stroke-opacity="0.901961" stroke-miterlimit="10" d="M 731.78125 305.339844 C 731.78125 308.480469 729.234375 311.027344 726.09375 311.027344 C 722.953125 311.027344 720.40625 308.480469 720.40625 305.339844 C 720.40625 302.199219 722.953125 299.652344 726.09375 299.652344 C 729.234375 299.652344 731.78125 302.199219 731.78125 305.339844 "/>
<path fill-rule="nonzero" fill="rgb(18.431373%, 30.980392%, 30.980392%)" fill-opacity="0.901961" stroke-width="0.708661" stroke-linecap="round" stroke-linejoin="round" stroke="rgb(18.431373%, 30.980392%, 30.980392%)" stroke-opacity="0.901961" stroke-miterlimit="10" d="M 1353.691406 272.855469 C 1353.691406 275.996094 1351.144531 278.542969 1348.003906 278.542969 C 1344.859375 278.542969 1342.3125 275.996094 1342.3125 272.855469 C 1342.3125 269.710938 1344.859375 267.164062 1348.003906 267.164062 C 1351.144531 267.164062 1353.691406 269.710938 1353.691406 272.855469 "/>
<path fill-rule="nonzero" fill="rgb(18.431373%, 30.980392%, 30.980392%)" fill-opacity="0.901961" stroke-width="0.708661" stroke-linecap="round" stroke-linejoin="round" stroke="rgb(18.431373%, 30.980392%, 30.980392%)" stroke-opacity="0.901961" stroke-miterlimit="10" d="M 1228.3125 285.625 C 1228.3125 288.765625 1225.765625 291.3125 1222.625 291.3125 C 1219.480469 291.3125 1216.933594 288.765625 1216.933594 285.625 C 1216.933594 282.480469 1219.480469 279.933594 1222.625 279.933594 C 1225.765625 279.933594 1228.3125 282.480469 1228.3125 285.625 "/>
<path fill-rule="nonzero" fill="rgb(18.431373%, 30.980392%, 30.980392%)" fill-opacity="0.901961" stroke-width="0.708661" stroke-linecap="round" stroke-linejoin="round" stroke="rgb(18.431373%, 30.980392%, 30.980392%)" stroke-opacity="0.901961" stroke-miterlimit="10" d="M 811.460938 215.695312 C 811.460938 218.835938 808.914062 221.382812 805.769531 221.382812 C 802.628906 221.382812 800.082031 218.835938 800.082031 215.695312 C 800.082031 212.550781 802.628906 210.003906 805.769531 210.003906 C 808.914062 210.003906 811.460938 212.550781 811.460938 215.695312 "/>
<path fill-rule="nonzero" fill="rgb(18.431373%, 30.980392%, 30.980392%)" fill-opacity="0.901961" stroke-width="0.708661" stroke-linecap="round" stroke-linejoin="round" stroke="rgb(18.431373%, 30.980392%, 30.980392%)" stroke-opacity="0.901961" stroke-miterlimit="10" d="M 729.105469 225.5625 C 729.105469 228.707031 726.558594 231.253906 723.414062 231.253906 C 720.273438 231.253906 717.726562 228.707031 717.726562 225.5625 C 717.726562 222.421875 720.273438 219.875 723.414062 219.875 C 726.558594 219.875 729.105469 222.421875 729.105469 225.5625 "/>
<path fill-rule="nonzero" fill="rgb(18.431373%, 30.980392%, 30.980392%)" fill-opacity="0.901961" stroke-width="0.708661" stroke-linecap="round" stroke-linejoin="round" stroke="rgb(18.431373%, 30.980392%, 30.980392%)" stroke-opacity="0.901961" stroke-miterlimit="10" d="M 253.203125 262.191406 C 253.203125 265.332031 250.652344 267.878906 247.511719 267.878906 C 244.371094 267.878906 241.824219 265.332031 241.824219 262.191406 C 241.824219 259.050781 244.371094 256.503906 247.511719 256.503906 C 250.652344 256.503906 253.203125 259.050781 253.203125 262.191406 "/>
<path fill-rule="nonzero" fill="rgb(18.431373%, 30.980392%, 30.980392%)" fill-opacity="0.901961" stroke-width="0.708661" stroke-linecap="round" stroke-linejoin="round" stroke="rgb(18.431373%, 30.980392%, 30.980392%)" stroke-opacity="0.901961" stroke-miterlimit="10" d="M 754.601562 409.792969 C 754.601562 412.933594 752.054688 415.480469 748.910156 415.480469 C 745.769531 415.480469 743.222656 412.933594 743.222656 409.792969 C 743.222656 406.652344 745.769531 404.105469 748.910156 404.105469 C 752.054688 404.105469 754.601562 406.652344 754.601562 409.792969 "/>
<path fill-rule="nonzero" fill="rgb(18.431373%, 30.980392%, 30.980392%)" fill-opacity="0.901961" stroke-width="0.708661" stroke-linecap="round" stroke-linejoin="round" stroke="rgb(18.431373%, 30.980392%, 30.980392%)" stroke-opacity="0.901961" stroke-miterlimit="10" d="M 990.640625 274.050781 C 990.640625 277.191406 988.09375 279.738281 984.949219 279.738281 C 981.808594 279.738281 979.261719 277.191406 979.261719 274.050781 C 979.261719 270.910156 981.808594 268.363281 984.949219 268.363281 C 988.09375 268.363281 990.640625 270.910156 990.640625 274.050781 "/>
<path fill-rule="nonzero" fill="rgb(18.431373%, 30.980392%, 30.980392%)" fill-opacity="0.901961" stroke-width="0.708661" stroke-linecap="round" stroke-linejoin="round" stroke="rgb(18.431373%, 30.980392%, 30.980392%)" stroke-opacity="0.901961" stroke-miterlimit="10" d="M 428.097656 313.324219 C 428.097656 316.46875 425.550781 319.015625 422.410156 319.015625 C 419.265625 319.015625 416.71875 316.46875 416.71875 313.324219 C 416.71875 310.183594 419.265625 307.636719 422.410156 307.636719 C 425.550781 307.636719 428.097656 310.183594 428.097656 313.324219 "/>
<path fill-rule="nonzero" fill="rgb(18.431373%, 30.980392%, 30.980392%)" fill-opacity="0.901961" stroke-width="0.708661" stroke-linecap="round" stroke-linejoin="round" stroke="rgb(18.431373%, 30.980392%, 30.980392%)" stroke-opacity="0.901961" stroke-miterlimit="10" d="M 1043.042969 195.789062 C 1043.042969 198.929688 1040.496094 201.476562 1037.351562 201.476562 C 1034.210938 201.476562 1031.664062 198.929688 1031.664062 195.789062 C 1031.664062 192.644531 1034.210938 190.097656 1037.351562 190.097656 C 1040.496094 190.097656 1043.042969 192.644531 1043.042969 195.789062 "/>
<path fill-rule="nonzero" fill="rgb(18.431373%, 30.980392%, 30.980392%)" fill-opacity="0.901961" stroke-width="0.708661" stroke-linecap="round" stroke-linejoin="round" stroke="rgb(18.431373%, 30.980392%, 30.980392%)" stroke-opacity="0.901961" stroke-miterlimit="10" d="M 1061.003906 270.867188 C 1061.003906 274.011719 1058.457031 276.558594 1055.316406 276.558594 C 1052.171875 276.558594 1049.625 274.011719 1049.625 270.867188 C 1049.625 267.726562 1052.171875 265.179688 1055.316406 265.179688 C 1058.457031 265.179688 1061.003906 267.726562 1061.003906 270.867188 "/>
<path fill-rule="nonzero" fill="rgb(18.431373%, 30.980392%, 30.980392%)" fill-opacity="0.901961" stroke-width="0.708661" stroke-linecap="round" stroke-linejoin="round" stroke="rgb(18.431373%, 30.980392%, 30.980392%)" stroke-opacity="0.901961" stroke-miterlimit="10" d="M 446.5 247.097656 C 446.5 250.238281 443.953125 252.785156 440.8125 252.785156 C 437.671875 252.785156 435.125 250.238281 435.125 247.097656 C 435.125 243.957031 437.671875 241.410156 440.8125 241.410156 C 443.953125 241.410156 446.5 243.957031 446.5 247.097656 "/>
<path fill-rule="nonzero" fill="rgb(18.431373%, 30.980392%, 30.980392%)" fill-opacity="0.901961" stroke-width="0.708661" stroke-linecap="round" stroke-linejoin="round" stroke="rgb(18.431373%, 30.980392%, 30.980392%)" stroke-opacity="0.901961" stroke-miterlimit="10" d="M 1128.246094 37.839844 C 1128.246094 40.984375 1125.699219 43.53125 1122.558594 43.53125 C 1119.414062 43.53125 1116.867188 40.984375 1116.867188 37.839844 C 1116.867188 34.699219 1119.414062 32.152344 1122.558594 32.152344 C 1125.699219 32.152344 1128.246094 34.699219 1128.246094 37.839844 "/>
<path fill-rule="nonzero" fill="rgb(18.431373%, 30.980392%, 30.980392%)" fill-opacity="0.901961" stroke-width="0.708661" stroke-linecap="round" stroke-linejoin="round" stroke="rgb(18.431373%, 30.980392%, 30.980392%)" stroke-opacity="0.901961" stroke-miterlimit="10" d="M 692.0625 335.046875 C 692.0625 338.191406 689.515625 340.738281 686.375 340.738281 C 683.234375 340.738281 680.6875 338.191406 680.6875 335.046875 C 680.6875 331.90625 683.234375 329.359375 686.375 329.359375 C 689.515625 329.359375 692.0625 331.90625 692.0625 335.046875 "/>
<path fill-rule="nonzero" fill="rgb(18.431373%, 30.980392%, 30.980392%)" fill-opacity="0.901961" stroke-width="0.708661" stroke-linecap="round" stroke-linejoin="round" stroke="rgb(18.431373%, 30.980392%, 30.980392%)" stroke-opacity="0.901961" stroke-miterlimit="10" d="M 644.390625 433.671875 C 644.390625 436.8125 641.84375 439.359375 638.703125 439.359375 C 635.558594 439.359375 633.011719 436.8125 633.011719 433.671875 C 633.011719 430.527344 635.558594 427.980469 638.703125 427.980469 C 641.84375 427.980469 644.390625 430.527344 644.390625 433.671875 "/>
<path fill-rule="nonzero" fill="rgb(18.431373%, 30.980392%, 30.980392%)" fill-opacity="0.901961" stroke-width="0.708661" stroke-linecap="round" stroke-linejoin="round" stroke="rgb(18.431373%, 30.980392%, 30.980392%)" stroke-opacity="0.901961" stroke-miterlimit="10" d="M 1062.785156 256.40625 C 1062.785156 259.550781 1060.238281 262.097656 1057.097656 262.097656 C 1053.953125 262.097656 1051.40625 259.550781 1051.40625 256.40625 C 1051.40625 253.265625 1053.953125 250.71875 1057.097656 250.71875 C 1060.238281 250.71875 1062.785156 253.265625 1062.785156 256.40625 "/>
<path fill-rule="nonzero" fill="rgb(18.431373%, 30.980392%, 30.980392%)" fill-opacity="0.901961" stroke-width="0.708661" stroke-linecap="round" stroke-linejoin="round" stroke="rgb(18.431373%, 30.980392%, 30.980392%)" stroke-opacity="0.901961" stroke-miterlimit="10" d="M 907.105469 424.101562 C 907.105469 427.242188 904.558594 429.789062 901.417969 429.789062 C 898.273438 429.789062 895.726562 427.242188 895.726562 424.101562 C 895.726562 420.957031 898.273438 418.410156 901.417969 418.410156 C 904.558594 418.410156 907.105469 420.957031 907.105469 424.101562 "/>
<path fill-rule="nonzero" fill="rgb(18.431373%, 30.980392%, 30.980392%)" fill-opacity="0.901961" stroke-width="0.708661" stroke-linecap="round" stroke-linejoin="round" stroke="rgb(18.431373%, 30.980392%, 30.980392%)" stroke-opacity="0.901961" stroke-miterlimit="10" d="M 673.1875 270.433594 C 673.1875 273.574219 670.636719 276.121094 667.496094 276.121094 C 664.355469 276.121094 661.808594 273.574219 661.808594 270.433594 C 661.808594 267.289062 664.355469 264.742188 667.496094 264.742188 C 670.636719 264.742188 673.1875 267.289062 673.1875 270.433594 "/>
<path fill-rule="nonzero" fill="rgb(18.431373%, 30.980392%, 30.980392%)" fill-opacity="0.901961" stroke-width="0.708661" stroke-linecap="round" stroke-linejoin="round" stroke="rgb(18.431373%, 30.980392%, 30.980392%)" stroke-opacity="0.901961" stroke-miterlimit="10" d="M 420.515625 468.074219 C 420.515625 471.214844 417.96875 473.761719 414.828125 473.761719 C 411.683594 473.761719 409.136719 471.214844 409.136719 468.074219 C 409.136719 464.929688 411.683594 462.382812 414.828125 462.382812 C 417.96875 462.382812 420.515625 464.929688 420.515625 468.074219 "/>
<path fill-rule="nonzero" fill="rgb(18.431373%, 30.980392%, 30.980392%)" fill-opacity="0.901961" stroke-width="0.708661" stroke-linecap="round" stroke-linejoin="round" stroke="rgb(18.431373%, 30.980392%, 30.980392%)" stroke-opacity="0.901961" stroke-miterlimit="10" d="M 1080.070312 182.085938 C 1080.070312 185.226562 1077.523438 187.777344 1074.378906 187.777344 C 1071.238281 187.777344 1068.691406 185.226562 1068.691406 182.085938 C 1068.691406 178.945312 1071.238281 176.398438 1074.378906 176.398438 C 1077.523438 176.398438 1080.070312 178.945312 1080.070312 182.085938 "/>
<path fill-rule="nonzero" fill="rgb(18.431373%, 30.980392%, 30.980392%)" fill-opacity="0.901961" stroke-width="0.708661" stroke-linecap="round" stroke-linejoin="round" stroke="rgb(18.431373%, 30.980392%, 30.980392%)" stroke-opacity="0.901961" stroke-miterlimit="10" d="M 448.523438 402.742188 C 448.523438 405.886719 445.976562 408.433594 442.835938 408.433594 C 439.695312 408.433594 437.148438 405.886719 437.148438 402.742188 C 437.148438 399.601562 439.695312 397.054688 442.835938 397.054688 C 445.976562 397.054688 448.523438 399.601562 448.523438 402.742188 "/>
<path fill-rule="nonzero" fill="rgb(18.431373%, 30.980392%, 30.980392%)" fill-opacity="0.901961" stroke-width="0.708661" stroke-linecap="round" stroke-linejoin="round" stroke="rgb(18.431373%, 30.980392%, 30.980392%)" stroke-opacity="0.901961" stroke-miterlimit="10" d="M 200.140625 425.476562 C 200.140625 428.621094 197.589844 431.167969 194.449219 431.167969 C 191.308594 431.167969 188.761719 428.621094 188.761719 425.476562 C 188.761719 422.335938 191.308594 419.789062 194.449219 419.789062 C 197.589844 419.789062 200.140625 422.335938 200.140625 425.476562 "/>
<path fill-rule="nonzero" fill="rgb(18.431373%, 30.980392%, 30.980392%)" fill-opacity="0.901961" stroke-width="0.708661" stroke-linecap="round" stroke-linejoin="round" stroke="rgb(18.431373%, 30.980392%, 30.980392%)" stroke-opacity="0.901961" stroke-miterlimit="10" d="M 1091.464844 328.03125 C 1091.464844 331.171875 1088.917969 333.71875 1085.777344 333.71875 C 1082.636719 333.71875 1080.089844 331.171875 1080.089844 328.03125 C 1080.089844 324.886719 1082.636719 322.339844 1085.777344 322.339844 C 1088.917969 322.339844 1091.464844 324.886719 1091.464844 328.03125 "/>
<path fill-rule="nonzero" fill="rgb(18.431373%, 30.980392%, 30.980392%)" fill-opacity="0.901961" stroke-width="0.708661" stroke-linecap="round" stroke-linejoin="round" stroke="rgb(18.431373%, 30.980392%, 30.980392%)" stroke-opacity="0.901961" stroke-miterlimit="10" d="M 1059.828125 228.222656 C 1059.828125 231.363281 1057.28125 233.910156 1054.140625 233.910156 C 1051 233.910156 1048.453125 231.363281 1048.453125 228.222656 C 1048.453125 225.078125 1051 222.53125 1054.140625 222.53125 C 1057.28125 222.53125 1059.828125 225.078125 1059.828125 228.222656 "/>
<path fill-rule="nonzero" fill="rgb(18.431373%, 30.980392%, 30.980392%)" fill-opacity="0.901961" stroke-width="0.708661" stroke-linecap="round" stroke-linejoin="round" stroke="rgb(18.431373%, 30.980392%, 30.980392%)" stroke-opacity="0.901961" stroke-miterlimit="10" d="M 967.78125 298.296875 C 967.78125 301.4375 965.230469 303.984375 962.089844 303.984375 C 958.949219 303.984375 956.402344 301.4375 956.402344 298.296875 C 956.402344 295.152344 958.949219 292.605469 962.089844 292.605469 C 965.230469 292.605469 967.78125 295.152344 967.78125 298.296875 "/>
<path fill-rule="nonzero" fill="rgb(18.431373%, 30.980392%, 30.980392%)" fill-opacity="0.901961" stroke-width="0.708661" stroke-linecap="round" stroke-linejoin="round" stroke="rgb(18.431373%, 30.980392%, 30.980392%)" stroke-opacity="0.901961" stroke-miterlimit="10" d="M 66.558594 465.46875 C 66.558594 468.609375 64.011719 471.15625 60.871094 471.15625 C 57.726562 471.15625 55.179688 468.609375 55.179688 465.46875 C 55.179688 462.328125 57.726562 459.78125 60.871094 459.78125 C 64.011719 459.78125 66.558594 462.328125 66.558594 465.46875 "/>
<path fill-rule="nonzero" fill="rgb(18.431373%, 30.980392%, 30.980392%)" fill-opacity="0.901961" stroke-width="0.708661" stroke-linecap="round" stroke-linejoin="round" stroke="rgb(18.431373%, 30.980392%, 30.980392%)" stroke-opacity="0.901961" stroke-miterlimit="10" d="M 705.058594 331.683594 C 705.058594 334.828125 702.511719 337.375 699.371094 337.375 C 696.226562 337.375 693.679688 334.828125 693.679688 331.683594 C 693.679688 328.542969 696.226562 325.996094 699.371094 325.996094 C 702.511719 325.996094 705.058594 328.542969 705.058594 331.683594 "/>
<path fill-rule="nonzero" fill="rgb(18.431373%, 30.980392%, 30.980392%)" fill-opacity="0.901961" stroke-width="0.708661" stroke-linecap="round" stroke-linejoin="round" stroke="rgb(18.431373%, 30.980392%, 30.980392%)" stroke-opacity="0.901961" stroke-miterlimit="10" d="M 816.558594 217.28125 C 816.558594 220.425781 814.011719 222.972656 810.867188 222.972656 C 807.726562 222.972656 805.179688 220.425781 805.179688 217.28125 C 805.179688 214.140625 807.726562 211.59375 810.867188 211.59375 C 814.011719 211.59375 816.558594 214.140625 816.558594 217.28125 "/>
<path fill-rule="nonzero" fill="rgb(18.431373%, 30.980392%, 30.980392%)" fill-opacity="0.901961" stroke-width="0.708661" stroke-linecap="round" stroke-linejoin="round" stroke="rgb(18.431373%, 30.980392%, 30.980392%)" stroke-opacity="0.901961" stroke-miterlimit="10" d="M 1161.796875 330.363281 C 1161.796875 333.507812 1159.25 336.054688 1156.105469 336.054688 C 1152.964844 336.054688 1150.417969 333.507812 1150.417969 330.363281 C 1150.417969 327.222656 1152.964844 324.675781 1156.105469 324.675781 C 1159.25 324.675781 1161.796875 327.222656 1161.796875 330.363281 "/>
<path fill-rule="nonzero" fill="rgb(18.431373%, 30.980392%, 30.980392%)" fill-opacity="0.901961" stroke-width="0.708661" stroke-linecap="round" stroke-linejoin="round" stroke="rgb(18.431373%, 30.980392%, 30.980392%)" stroke-opacity="0.901961" stroke-miterlimit="10" d="M 884.8125 296.441406 C 884.8125 299.582031 882.265625 302.128906 879.121094 302.128906 C 875.980469 302.128906 873.433594 299.582031 873.433594 296.441406 C 873.433594 293.296875 875.980469 290.75 879.121094 290.75 C 882.265625 290.75 884.8125 293.296875 884.8125 296.441406 "/>
<path fill-rule="nonzero" fill="rgb(18.431373%, 30.980392%, 30.980392%)" fill-opacity="0.901961" stroke-width="0.708661" stroke-linecap="round" stroke-linejoin="round" stroke="rgb(18.431373%, 30.980392%, 30.980392%)" stroke-opacity="0.901961" stroke-miterlimit="10" d="M 394.46875 394.222656 C 394.46875 397.363281 391.921875 399.910156 388.777344 399.910156 C 385.636719 399.910156 383.089844 397.363281 383.089844 394.222656 C 383.089844 391.078125 385.636719 388.53125 388.777344 388.53125 C 391.921875 388.53125 394.46875 391.078125 394.46875 394.222656 "/>
<path fill="none" stroke-width="4.267913" stroke-linecap="butt" stroke-linejoin="round" stroke="rgb(100%, 64.705882%, 0%)" stroke-opacity="0.901961" stroke-miterlimit="10" d="M -1607.320312 579.039062 L 3179.660156 244.917969 "/>
</svg>
