<?xml version="1.0" encoding="utf-8" standalone="no"?>
<!DOCTYPE svg PUBLIC "-//W3C//DTD SVG 1.1//EN"
  "http://www.w3.org/Graphics/SVG/1.1/DTD/svg11.dtd">
<svg xmlns:xlink="http://www.w3.org/1999/xlink" width="597.610208pt" height="291.6pt" viewBox="0 0 597.610208 291.6" xmlns="http://www.w3.org/2000/svg" version="1.1">
 <metadata>
  <rdf:RDF xmlns:dc="http://purl.org/dc/elements/1.1/" xmlns:cc="http://creativecommons.org/ns#" xmlns:rdf="http://www.w3.org/1999/02/22-rdf-syntax-ns#">
   <cc:Work>
    <dc:type rdf:resource="http://purl.org/dc/dcmitype/StillImage"/>
    <dc:date>2024-01-22T00:03:15.105021</dc:date>
    <dc:format>image/svg+xml</dc:format>
    <dc:creator>
     <cc:Agent>
      <dc:title>Matplotlib v3.7.2, https://matplotlib.org/</dc:title>
     </cc:Agent>
    </dc:creator>
   </cc:Work>
  </rdf:RDF>
 </metadata>
 <defs>
  <style type="text/css">*{stroke-linejoin: round; stroke-linecap: butt}</style>
 </defs>
 <g id="figure_1">
  <g id="patch_1">
   <path d="M 0 291.6 
L 597.610208 291.6 
L 597.610208 0 
L 0 0 
z
" style="fill: #ffffff"/>
  </g>
  <g id="axes_1">
   <g id="matplotlib.axis_1">
    <g id="xtick_1"/>
    <g id="xtick_2"/>
    <g id="xtick_3"/>
    <g id="xtick_4"/>
    <g id="xtick_5"/>
    <g id="xtick_6"/>
    <g id="xtick_7"/>
   </g>
   <g id="matplotlib.axis_2">
    <g id="ytick_1"/>
    <g id="ytick_2"/>
    <g id="ytick_3"/>
    <g id="ytick_4"/>
    <g id="ytick_5"/>
    <g id="ytick_6"/>
    <g id="ytick_7"/>
   </g>
   <g id="PathCollection_1">
    <defs>
     <path id="C0_0_55b4a400e5" d="M 0 3 
C 0.795609 3 1.55874 2.683901 2.12132 2.12132 
C 2.683901 1.55874 3 0.795609 3 -0 
C 3 -0.795609 2.683901 -1.55874 2.12132 -2.12132 
C 1.55874 -2.683901 0.795609 -3 0 -3 
C -0.795609 -3 -1.55874 -2.683901 -2.12132 -2.12132 
C -2.683901 -1.55874 -3 -0.795609 -3 0 
C -3 0.795609 -2.683901 1.55874 -2.12132 2.12132 
C -1.55874 2.683901 -0.795609 3 0 3 
z
"/>
    </defs>
    <g clip-path="url(#p2dfc0948b6)">
     <use xlink:href="#C0_0_55b4a400e5" x="385.001952" y="148.768466" style="fill: #2f4f4f; stroke: #ffffff; stroke-width: 0.48"/>
    </g>
    <g clip-path="url(#p2dfc0948b6)">
     <use xlink:href="#C0_0_55b4a400e5" x="172.437696" y="215.823351" style="fill: #2f4f4f; stroke: #ffffff; stroke-width: 0.48"/>
    </g>
    <g clip-path="url(#p2dfc0948b6)">
     <use xlink:href="#C0_0_55b4a400e5" x="141.724638" y="154.312074" style="fill: #e64173; stroke: #ffffff; stroke-width: 0.48"/>
    </g>
    <g clip-path="url(#p2dfc0948b6)">
     <use xlink:href="#C0_0_55b4a400e5" x="309.807226" y="118.98514" style="fill: #e64173; stroke: #ffffff; stroke-width: 0.48"/>
    </g>
    <g clip-path="url(#p2dfc0948b6)">
     <use xlink:href="#C0_0_55b4a400e5" x="396.916591" y="93.074473" style="fill: #e64173; stroke: #ffffff; stroke-width: 0.48"/>
    </g>
    <g clip-path="url(#p2dfc0948b6)">
     <use xlink:href="#C0_0_55b4a400e5" x="243.391138" y="183.114147" style="fill: #2f4f4f; stroke: #ffffff; stroke-width: 0.48"/>
    </g>
    <g clip-path="url(#p2dfc0948b6)">
     <use xlink:href="#C0_0_55b4a400e5" x="532.276048" y="33.971582" style="fill: #e64173; stroke: #ffffff; stroke-width: 0.48"/>
    </g>
    <g clip-path="url(#p2dfc0948b6)">
     <use xlink:href="#C0_0_55b4a400e5" x="378.972339" y="76.368069" style="fill: #e64173; stroke: #ffffff; stroke-width: 0.48"/>
    </g>
    <g clip-path="url(#p2dfc0948b6)">
     <use xlink:href="#C0_0_55b4a400e5" x="273.346604" y="116.517872" style="fill: #e64173; stroke: #ffffff; stroke-width: 0.48"/>
    </g>
    <g clip-path="url(#p2dfc0948b6)">
     <use xlink:href="#C0_0_55b4a400e5" x="227.337854" y="158.24144" style="fill: #2f4f4f; stroke: #ffffff; stroke-width: 0.48"/>
    </g>
    <g clip-path="url(#p2dfc0948b6)">
     <use xlink:href="#C0_0_55b4a400e5" x="201.985595" y="92.738129" style="fill: #e64173; stroke: #ffffff; stroke-width: 0.48"/>
    </g>
    <g clip-path="url(#p2dfc0948b6)">
     <use xlink:href="#C0_0_55b4a400e5" x="401.879726" y="84.263679" style="fill: #e64173; stroke: #ffffff; stroke-width: 0.48"/>
    </g>
    <g clip-path="url(#p2dfc0948b6)">
     <use xlink:href="#C0_0_55b4a400e5" x="251.402919" y="126.645008" style="fill: #e64173; stroke: #ffffff; stroke-width: 0.48"/>
    </g>
    <g clip-path="url(#p2dfc0948b6)">
     <use xlink:href="#C0_0_55b4a400e5" x="55.123279" y="228.555775" style="fill: #2f4f4f; stroke: #ffffff; stroke-width: 0.48"/>
    </g>
    <g clip-path="url(#p2dfc0948b6)">
     <use xlink:href="#C0_0_55b4a400e5" x="230.408097" y="91.250949" style="fill: #e64173; stroke: #ffffff; stroke-width: 0.48"/>
    </g>
    <g clip-path="url(#p2dfc0948b6)">
     <use xlink:href="#C0_0_55b4a400e5" x="406.51389" y="146.707633" style="fill: #2f4f4f; stroke: #ffffff; stroke-width: 0.48"/>
    </g>
    <g clip-path="url(#p2dfc0948b6)">
     <use xlink:href="#C0_0_55b4a400e5" x="118.744854" y="206.271835" style="fill: #2f4f4f; stroke: #ffffff; stroke-width: 0.48"/>
    </g>
    <g clip-path="url(#p2dfc0948b6)">
     <use xlink:href="#C0_0_55b4a400e5" x="115.097917" y="221.805783" style="fill: #2f4f4f; stroke: #ffffff; stroke-width: 0.48"/>
    </g>
    <g clip-path="url(#p2dfc0948b6)">
     <use xlink:href="#C0_0_55b4a400e5" x="299.569143" y="168.070908" style="fill: #2f4f4f; stroke: #ffffff; stroke-width: 0.48"/>
    </g>
    <g clip-path="url(#p2dfc0948b6)">
     <use xlink:href="#C0_0_55b4a400e5" x="299.71223" y="70.562246" style="fill: #e64173; stroke: #ffffff; stroke-width: 0.48"/>
    </g>
    <g clip-path="url(#p2dfc0948b6)">
     <use xlink:href="#C0_0_55b4a400e5" x="352.848585" y="169.581301" style="fill: #2f4f4f; stroke: #ffffff; stroke-width: 0.48"/>
    </g>
    <g clip-path="url(#p2dfc0948b6)">
     <use xlink:href="#C0_0_55b4a400e5" x="464.241576" y="137.528263" style="fill: #2f4f4f; stroke: #ffffff; stroke-width: 0.48"/>
    </g>
    <g clip-path="url(#p2dfc0948b6)">
     <use xlink:href="#C0_0_55b4a400e5" x="399.499686" y="149.7764" style="fill: #2f4f4f; stroke: #ffffff; stroke-width: 0.48"/>
    </g>
    <g clip-path="url(#p2dfc0948b6)">
     <use xlink:href="#C0_0_55b4a400e5" x="340.738304" y="162.241625" style="fill: #2f4f4f; stroke: #ffffff; stroke-width: 0.48"/>
    </g>
    <g clip-path="url(#p2dfc0948b6)">
     <use xlink:href="#C0_0_55b4a400e5" x="398.457434" y="105.289183" style="fill: #e64173; stroke: #ffffff; stroke-width: 0.48"/>
    </g>
    <g clip-path="url(#p2dfc0948b6)">
     <use xlink:href="#C0_0_55b4a400e5" x="191.51144" y="160.114827" style="fill: #e64173; stroke: #ffffff; stroke-width: 0.48"/>
    </g>
    <g clip-path="url(#p2dfc0948b6)">
     <use xlink:href="#C0_0_55b4a400e5" x="211.626513" y="215.858508" style="fill: #2f4f4f; stroke: #ffffff; stroke-width: 0.48"/>
    </g>
    <g clip-path="url(#p2dfc0948b6)">
     <use xlink:href="#C0_0_55b4a400e5" x="142.455985" y="208.45532" style="fill: #2f4f4f; stroke: #ffffff; stroke-width: 0.48"/>
    </g>
    <g clip-path="url(#p2dfc0948b6)">
     <use xlink:href="#C0_0_55b4a400e5" x="176.361644" y="193.539189" style="fill: #2f4f4f; stroke: #ffffff; stroke-width: 0.48"/>
    </g>
    <g clip-path="url(#p2dfc0948b6)">
     <use xlink:href="#C0_0_55b4a400e5" x="351.074408" y="175.549808" style="fill: #2f4f4f; stroke: #ffffff; stroke-width: 0.48"/>
    </g>
    <g clip-path="url(#p2dfc0948b6)">
     <use xlink:href="#C0_0_55b4a400e5" x="71.921546" y="200.938709" style="fill: #2f4f4f; stroke: #ffffff; stroke-width: 0.48"/>
    </g>
    <g clip-path="url(#p2dfc0948b6)">
     <use xlink:href="#C0_0_55b4a400e5" x="248.879545" y="114.173136" style="fill: #e64173; stroke: #ffffff; stroke-width: 0.48"/>
    </g>
    <g clip-path="url(#p2dfc0948b6)">
     <use xlink:href="#C0_0_55b4a400e5" x="247.409156" y="111.367348" style="fill: #e64173; stroke: #ffffff; stroke-width: 0.48"/>
    </g>
    <g clip-path="url(#p2dfc0948b6)">
     <use xlink:href="#C0_0_55b4a400e5" x="279.953176" y="184.880029" style="fill: #2f4f4f; stroke: #ffffff; stroke-width: 0.48"/>
    </g>
    <g clip-path="url(#p2dfc0948b6)">
     <use xlink:href="#C0_0_55b4a400e5" x="244.802171" y="186.396092" style="fill: #2f4f4f; stroke: #ffffff; stroke-width: 0.48"/>
    </g>
    <g clip-path="url(#p2dfc0948b6)">
     <use xlink:href="#C0_0_55b4a400e5" x="185.969687" y="188.521908" style="fill: #2f4f4f; stroke: #ffffff; stroke-width: 0.48"/>
    </g>
    <g clip-path="url(#p2dfc0948b6)">
     <use xlink:href="#C0_0_55b4a400e5" x="245.072074" y="99.52307" style="fill: #e64173; stroke: #ffffff; stroke-width: 0.48"/>
    </g>
    <g clip-path="url(#p2dfc0948b6)">
     <use xlink:href="#C0_0_55b4a400e5" x="487.012928" y="152.432281" style="fill: #2f4f4f; stroke: #ffffff; stroke-width: 0.48"/>
    </g>
    <g clip-path="url(#p2dfc0948b6)">
     <use xlink:href="#C0_0_55b4a400e5" x="513.313888" y="23.567529" style="fill: #e64173; stroke: #ffffff; stroke-width: 0.48"/>
    </g>
    <g clip-path="url(#p2dfc0948b6)">
     <use xlink:href="#C0_0_55b4a400e5" x="284.175959" y="124.576196" style="fill: #e64173; stroke: #ffffff; stroke-width: 0.48"/>
    </g>
    <g clip-path="url(#p2dfc0948b6)">
     <use xlink:href="#C0_0_55b4a400e5" x="347.436176" y="88.044412" style="fill: #e64173; stroke: #ffffff; stroke-width: 0.48"/>
    </g>
    <g clip-path="url(#p2dfc0948b6)">
     <use xlink:href="#C0_0_55b4a400e5" x="84.102283" y="229.877017" style="fill: #2f4f4f; stroke: #ffffff; stroke-width: 0.48"/>
    </g>
    <g clip-path="url(#p2dfc0948b6)">
     <use xlink:href="#C0_0_55b4a400e5" x="188.572417" y="221.535843" style="fill: #2f4f4f; stroke: #ffffff; stroke-width: 0.48"/>
    </g>
    <g clip-path="url(#p2dfc0948b6)">
     <use xlink:href="#C0_0_55b4a400e5" x="239.101699" y="191.667606" style="fill: #2f4f4f; stroke: #ffffff; stroke-width: 0.48"/>
    </g>
    <g clip-path="url(#p2dfc0948b6)">
     <use xlink:href="#C0_0_55b4a400e5" x="472.984601" y="75.896919" style="fill: #e64173; stroke: #ffffff; stroke-width: 0.48"/>
    </g>
    <g clip-path="url(#p2dfc0948b6)">
     <use xlink:href="#C0_0_55b4a400e5" x="153.952235" y="207.725092" style="fill: #2f4f4f; stroke: #ffffff; stroke-width: 0.48"/>
    </g>
    <g clip-path="url(#p2dfc0948b6)">
     <use xlink:href="#C0_0_55b4a400e5" x="274.435696" y="98.03781" style="fill: #e64173; stroke: #ffffff; stroke-width: 0.48"/>
    </g>
    <g clip-path="url(#p2dfc0948b6)">
     <use xlink:href="#C0_0_55b4a400e5" x="534.760319" y="19.8" style="fill: #e64173; stroke: #ffffff; stroke-width: 0.48"/>
    </g>
    <g clip-path="url(#p2dfc0948b6)">
     <use xlink:href="#C0_0_55b4a400e5" x="293.318429" y="172.310087" style="fill: #2f4f4f; stroke: #ffffff; stroke-width: 0.48"/>
    </g>
    <g clip-path="url(#p2dfc0948b6)">
     <use xlink:href="#C0_0_55b4a400e5" x="341.70755" y="179.171286" style="fill: #2f4f4f; stroke: #ffffff; stroke-width: 0.48"/>
    </g>
    <g clip-path="url(#p2dfc0948b6)">
     <use xlink:href="#C0_0_55b4a400e5" x="86.697767" y="231.546786" style="fill: #2f4f4f; stroke: #ffffff; stroke-width: 0.48"/>
    </g>
    <g clip-path="url(#p2dfc0948b6)">
     <use xlink:href="#C0_0_55b4a400e5" x="452.279688" y="63.617524" style="fill: #e64173; stroke: #ffffff; stroke-width: 0.48"/>
    </g>
    <g clip-path="url(#p2dfc0948b6)">
     <use xlink:href="#C0_0_55b4a400e5" x="336.613012" y="166.80189" style="fill: #2f4f4f; stroke: #ffffff; stroke-width: 0.48"/>
    </g>
    <g clip-path="url(#p2dfc0948b6)">
     <use xlink:href="#C0_0_55b4a400e5" x="306.5712" y="147.296526" style="fill: #2f4f4f; stroke: #ffffff; stroke-width: 0.48"/>
    </g>
    <g clip-path="url(#p2dfc0948b6)">
     <use xlink:href="#C0_0_55b4a400e5" x="201.771035" y="95.15189" style="fill: #e64173; stroke: #ffffff; stroke-width: 0.48"/>
    </g>
    <g clip-path="url(#p2dfc0948b6)">
     <use xlink:href="#C0_0_55b4a400e5" x="181.752676" y="133.200845" style="fill: #e64173; stroke: #ffffff; stroke-width: 0.48"/>
    </g>
    <g clip-path="url(#p2dfc0948b6)">
     <use xlink:href="#C0_0_55b4a400e5" x="240.239298" y="123.857849" style="fill: #e64173; stroke: #ffffff; stroke-width: 0.48"/>
    </g>
    <g clip-path="url(#p2dfc0948b6)">
     <use xlink:href="#C0_0_55b4a400e5" x="377.144216" y="208.585046" style="fill: #2f4f4f; stroke: #ffffff; stroke-width: 0.48"/>
    </g>
    <g clip-path="url(#p2dfc0948b6)">
     <use xlink:href="#C0_0_55b4a400e5" x="477.7234" y="71.169324" style="fill: #e64173; stroke: #ffffff; stroke-width: 0.48"/>
    </g>
    <g clip-path="url(#p2dfc0948b6)">
     <use xlink:href="#C0_0_55b4a400e5" x="288.623612" y="197.977218" style="fill: #2f4f4f; stroke: #ffffff; stroke-width: 0.48"/>
    </g>
    <g clip-path="url(#p2dfc0948b6)">
     <use xlink:href="#C0_0_55b4a400e5" x="370.934567" y="167.774372" style="fill: #2f4f4f; stroke: #ffffff; stroke-width: 0.48"/>
    </g>
    <g clip-path="url(#p2dfc0948b6)">
     <use xlink:href="#C0_0_55b4a400e5" x="327.74244" y="86.430251" style="fill: #e64173; stroke: #ffffff; stroke-width: 0.48"/>
    </g>
    <g clip-path="url(#p2dfc0948b6)">
     <use xlink:href="#C0_0_55b4a400e5" x="347.928592" y="86.058415" style="fill: #e64173; stroke: #ffffff; stroke-width: 0.48"/>
    </g>
    <g clip-path="url(#p2dfc0948b6)">
     <use xlink:href="#C0_0_55b4a400e5" x="373.719132" y="160.933193" style="fill: #2f4f4f; stroke: #ffffff; stroke-width: 0.48"/>
    </g>
    <g clip-path="url(#p2dfc0948b6)">
     <use xlink:href="#C0_0_55b4a400e5" x="460.569058" y="137.265078" style="fill: #2f4f4f; stroke: #ffffff; stroke-width: 0.48"/>
    </g>
    <g clip-path="url(#p2dfc0948b6)">
     <use xlink:href="#C0_0_55b4a400e5" x="67.3059" y="230.763259" style="fill: #2f4f4f; stroke: #ffffff; stroke-width: 0.48"/>
    </g>
    <g clip-path="url(#p2dfc0948b6)">
     <use xlink:href="#C0_0_55b4a400e5" x="419.82082" y="146.355552" style="fill: #2f4f4f; stroke: #ffffff; stroke-width: 0.48"/>
    </g>
    <g clip-path="url(#p2dfc0948b6)">
     <use xlink:href="#C0_0_55b4a400e5" x="150.435316" y="271.8" style="fill: #2f4f4f; stroke: #ffffff; stroke-width: 0.48"/>
    </g>
    <g clip-path="url(#p2dfc0948b6)">
     <use xlink:href="#C0_0_55b4a400e5" x="124.822014" y="144.115537" style="fill: #e64173; stroke: #ffffff; stroke-width: 0.48"/>
    </g>
    <g clip-path="url(#p2dfc0948b6)">
     <use xlink:href="#C0_0_55b4a400e5" x="320.75957" y="174.233541" style="fill: #2f4f4f; stroke: #ffffff; stroke-width: 0.48"/>
    </g>
    <g clip-path="url(#p2dfc0948b6)">
     <use xlink:href="#C0_0_55b4a400e5" x="73.790389" y="233.446005" style="fill: #2f4f4f; stroke: #ffffff; stroke-width: 0.48"/>
    </g>
    <g clip-path="url(#p2dfc0948b6)">
     <use xlink:href="#C0_0_55b4a400e5" x="482.836374" y="140.322984" style="fill: #2f4f4f; stroke: #ffffff; stroke-width: 0.48"/>
    </g>
    <g clip-path="url(#p2dfc0948b6)">
     <use xlink:href="#C0_0_55b4a400e5" x="349.143622" y="75.709892" style="fill: #e64173; stroke: #ffffff; stroke-width: 0.48"/>
    </g>
    <g clip-path="url(#p2dfc0948b6)">
     <use xlink:href="#C0_0_55b4a400e5" x="398.961467" y="166.216232" style="fill: #2f4f4f; stroke: #ffffff; stroke-width: 0.48"/>
    </g>
    <g clip-path="url(#p2dfc0948b6)">
     <use xlink:href="#C0_0_55b4a400e5" x="32.563636" y="193.896721" style="fill: #2f4f4f; stroke: #ffffff; stroke-width: 0.48"/>
    </g>
    <g clip-path="url(#p2dfc0948b6)">
     <use xlink:href="#C0_0_55b4a400e5" x="332.143297" y="79.769598" style="fill: #e64173; stroke: #ffffff; stroke-width: 0.48"/>
    </g>
    <g clip-path="url(#p2dfc0948b6)">
     <use xlink:href="#C0_0_55b4a400e5" x="312.641084" y="97.403471" style="fill: #e64173; stroke: #ffffff; stroke-width: 0.48"/>
    </g>
    <g clip-path="url(#p2dfc0948b6)">
     <use xlink:href="#C0_0_55b4a400e5" x="106.554465" y="146.968972" style="fill: #e64173; stroke: #ffffff; stroke-width: 0.48"/>
    </g>
    <g clip-path="url(#p2dfc0948b6)">
     <use xlink:href="#C0_0_55b4a400e5" x="103.503704" y="221.973018" style="fill: #2f4f4f; stroke: #ffffff; stroke-width: 0.48"/>
    </g>
    <g clip-path="url(#p2dfc0948b6)">
     <use xlink:href="#C0_0_55b4a400e5" x="384.515179" y="175.498315" style="fill: #2f4f4f; stroke: #ffffff; stroke-width: 0.48"/>
    </g>
    <g clip-path="url(#p2dfc0948b6)">
     <use xlink:href="#C0_0_55b4a400e5" x="189.339594" y="126.465046" style="fill: #e64173; stroke: #ffffff; stroke-width: 0.48"/>
    </g>
    <g clip-path="url(#p2dfc0948b6)">
     <use xlink:href="#C0_0_55b4a400e5" x="382.67138" y="76.405272" style="fill: #e64173; stroke: #ffffff; stroke-width: 0.48"/>
    </g>
    <g clip-path="url(#p2dfc0948b6)">
     <use xlink:href="#C0_0_55b4a400e5" x="311.3968" y="163.085025" style="fill: #2f4f4f; stroke: #ffffff; stroke-width: 0.48"/>
    </g>
    <g clip-path="url(#p2dfc0948b6)">
     <use xlink:href="#C0_0_55b4a400e5" x="225.697274" y="105.468843" style="fill: #e64173; stroke: #ffffff; stroke-width: 0.48"/>
    </g>
    <g clip-path="url(#p2dfc0948b6)">
     <use xlink:href="#C0_0_55b4a400e5" x="503.457007" y="60.20957" style="fill: #e64173; stroke: #ffffff; stroke-width: 0.48"/>
    </g>
    <g clip-path="url(#p2dfc0948b6)">
     <use xlink:href="#C0_0_55b4a400e5" x="460.220712" y="91.665251" style="fill: #e64173; stroke: #ffffff; stroke-width: 0.48"/>
    </g>
    <g clip-path="url(#p2dfc0948b6)">
     <use xlink:href="#C0_0_55b4a400e5" x="209.351786" y="209.647641" style="fill: #2f4f4f; stroke: #ffffff; stroke-width: 0.48"/>
    </g>
    <g clip-path="url(#p2dfc0948b6)">
     <use xlink:href="#C0_0_55b4a400e5" x="46.789982" y="125.38562" style="fill: #e64173; stroke: #ffffff; stroke-width: 0.48"/>
    </g>
    <g clip-path="url(#p2dfc0948b6)">
     <use xlink:href="#C0_0_55b4a400e5" x="182.087991" y="185.712982" style="fill: #2f4f4f; stroke: #ffffff; stroke-width: 0.48"/>
    </g>
    <g clip-path="url(#p2dfc0948b6)">
     <use xlink:href="#C0_0_55b4a400e5" x="230.481361" y="185.060356" style="fill: #2f4f4f; stroke: #ffffff; stroke-width: 0.48"/>
    </g>
    <g clip-path="url(#p2dfc0948b6)">
     <use xlink:href="#C0_0_55b4a400e5" x="389.399865" y="171.464033" style="fill: #2f4f4f; stroke: #ffffff; stroke-width: 0.48"/>
    </g>
    <g clip-path="url(#p2dfc0948b6)">
     <use xlink:href="#C0_0_55b4a400e5" x="539.836364" y="46.801876" style="fill: #e64173; stroke: #ffffff; stroke-width: 0.48"/>
    </g>
    <g clip-path="url(#p2dfc0948b6)">
     <use xlink:href="#C0_0_55b4a400e5" x="208.583699" y="221.055012" style="fill: #2f4f4f; stroke: #ffffff; stroke-width: 0.48"/>
    </g>
    <g clip-path="url(#p2dfc0948b6)">
     <use xlink:href="#C0_0_55b4a400e5" x="419.232838" y="160.833888" style="fill: #2f4f4f; stroke: #ffffff; stroke-width: 0.48"/>
    </g>
    <g clip-path="url(#p2dfc0948b6)">
     <use xlink:href="#C0_0_55b4a400e5" x="331.493185" y="174.425743" style="fill: #2f4f4f; stroke: #ffffff; stroke-width: 0.48"/>
    </g>
    <g clip-path="url(#p2dfc0948b6)">
     <use xlink:href="#C0_0_55b4a400e5" x="382.53229" y="88.702918" style="fill: #e64173; stroke: #ffffff; stroke-width: 0.48"/>
    </g>
    <g clip-path="url(#p2dfc0948b6)">
     <use xlink:href="#C0_0_55b4a400e5" x="102.497134" y="125.584379" style="fill: #e64173; stroke: #ffffff; stroke-width: 0.48"/>
    </g>
    <g clip-path="url(#p2dfc0948b6)">
     <use xlink:href="#C0_0_55b4a400e5" x="230.83912" y="142.611937" style="fill: #e64173; stroke: #ffffff; stroke-width: 0.48"/>
    </g>
    <g clip-path="url(#p2dfc0948b6)">
     <use xlink:href="#C0_0_55b4a400e5" x="148.979398" y="150.175738" style="fill: #e64173; stroke: #ffffff; stroke-width: 0.48"/>
    </g>
    <g clip-path="url(#p2dfc0948b6)">
     <use xlink:href="#C0_0_55b4a400e5" x="202.129607" y="224.767142" style="fill: #2f4f4f; stroke: #ffffff; stroke-width: 0.48"/>
    </g>
   </g>
   <g id="PathCollection_2"/>
   <g id="PathCollection_3"/>
   <g id="line2d_1">
    <path d="M 283.224501 284.4 
L 283.224501 7.2 
" clip-path="url(#p2dfc0948b6)" style="fill: none; stroke: #808080; stroke-opacity: 0.8; stroke-width: 1.5; stroke-linecap: round"/>
   </g>
   <g id="line2d_2">
    <path d="M 7.2 170.859792 
L 565.2 170.859792 
" clip-path="url(#p2dfc0948b6)" style="fill: none; stroke: #808080; stroke-opacity: 0.8; stroke-width: 1.5; stroke-linecap: round"/>
   </g>
   <g id="text_1">
    <!-- y -->
    <g style="fill: #262626" transform="translate(265.956746 84.652534) scale(0.1 -0.1)">
     <defs>
      <path id="ArialMT-79" d="M 397 -1278 
L 334 -750 
Q 519 -800 656 -800 
Q 844 -800 956 -737 
Q 1069 -675 1141 -563 
Q 1194 -478 1313 -144 
Q 1328 -97 1363 -6 
L 103 3319 
L 709 3319 
L 1400 1397 
Q 1534 1031 1641 628 
Q 1738 1016 1872 1384 
L 2581 3319 
L 3144 3319 
L 1881 -56 
Q 1678 -603 1566 -809 
Q 1416 -1088 1222 -1217 
Q 1028 -1347 759 -1347 
Q 597 -1347 397 -1278 
z
" transform="scale(0.015625)"/>
     </defs>
     <use xlink:href="#ArialMT-79"/>
    </g>
   </g>
   <g id="text_2">
    <!-- x -->
    <g style="fill: #262626" transform="translate(585.410208 174.691226) scale(0.1 -0.1)">
     <defs>
      <path id="ArialMT-78" d="M 47 0 
L 1259 1725 
L 138 3319 
L 841 3319 
L 1350 2541 
Q 1494 2319 1581 2169 
Q 1719 2375 1834 2534 
L 2394 3319 
L 3066 3319 
L 1919 1756 
L 3153 0 
L 2463 0 
L 1781 1031 
L 1600 1309 
L 728 0 
L 47 0 
z
" transform="scale(0.015625)"/>
     </defs>
     <use xlink:href="#ArialMT-78"/>
    </g>
   </g>
   <g id="legend_1">
    <g id="patch_2">
     <path d="M 14.2 57.635937 
L 70.651562 57.635937 
Q 72.651562 57.635937 72.651562 55.635937 
L 72.651562 14.2 
Q 72.651562 12.2 70.651562 12.2 
L 14.2 12.2 
Q 12.2 12.2 12.2 14.2 
L 12.2 55.635937 
Q 12.2 57.635937 14.2 57.635937 
z
" style="fill: #ffffff; opacity: 0.8; stroke: #cccccc; stroke-linejoin: miter"/>
    </g>
    <g id="text_3">
     <!-- x2 -->
     <g style="fill: #262626" transform="translate(37.145313 23.357812) scale(0.1 -0.1)">
      <defs>
       <path id="ArialMT-32" d="M 3222 541 
L 3222 0 
L 194 0 
Q 188 203 259 391 
Q 375 700 629 1000 
Q 884 1300 1366 1694 
Q 2113 2306 2375 2664 
Q 2638 3022 2638 3341 
Q 2638 3675 2398 3904 
Q 2159 4134 1775 4134 
Q 1369 4134 1125 3890 
Q 881 3647 878 3216 
L 300 3275 
Q 359 3922 746 4261 
Q 1134 4600 1788 4600 
Q 2447 4600 2831 4234 
Q 3216 3869 3216 3328 
Q 3216 3053 3103 2787 
Q 2991 2522 2730 2228 
Q 2469 1934 1863 1422 
Q 1356 997 1212 845 
Q 1069 694 975 541 
L 3222 541 
z
" transform="scale(0.015625)"/>
      </defs>
      <use xlink:href="#ArialMT-78"/>
      <use xlink:href="#ArialMT-32" x="50"/>
     </g>
    </g>
    <g id="PathCollection_4">
     <defs>
      <path id="m6e862076b4" d="M 0 3 
C 0.795609 3 1.55874 2.683901 2.12132 2.12132 
C 2.683901 1.55874 3 0.795609 3 0 
C 3 -0.795609 2.683901 -1.55874 2.12132 -2.12132 
C 1.55874 -2.683901 0.795609 -3 0 -3 
C -0.795609 -3 -1.55874 -2.683901 -2.12132 -2.12132 
C -2.683901 -1.55874 -3 -0.795609 -3 0 
C -3 0.795609 -2.683901 1.55874 -2.12132 2.12132 
C -1.55874 2.683901 -0.795609 3 0 3 
z
" style="stroke: #2f4f4f"/>
     </defs>
     <g>
      <use xlink:href="#m6e862076b4" x="26.2" y="34.878125" style="fill: #2f4f4f; stroke: #2f4f4f"/>
     </g>
    </g>
    <g id="text_4">
     <!-- False -->
     <g style="fill: #262626" transform="translate(44.2 37.503125) scale(0.1 -0.1)">
      <defs>
       <path id="ArialMT-46" d="M 525 0 
L 525 4581 
L 3616 4581 
L 3616 4041 
L 1131 4041 
L 1131 2622 
L 3281 2622 
L 3281 2081 
L 1131 2081 
L 1131 0 
L 525 0 
z
" transform="scale(0.015625)"/>
       <path id="ArialMT-61" d="M 2588 409 
Q 2275 144 1986 34 
Q 1697 -75 1366 -75 
Q 819 -75 525 192 
Q 231 459 231 875 
Q 231 1119 342 1320 
Q 453 1522 633 1644 
Q 813 1766 1038 1828 
Q 1203 1872 1538 1913 
Q 2219 1994 2541 2106 
Q 2544 2222 2544 2253 
Q 2544 2597 2384 2738 
Q 2169 2928 1744 2928 
Q 1347 2928 1158 2789 
Q 969 2650 878 2297 
L 328 2372 
Q 403 2725 575 2942 
Q 747 3159 1072 3276 
Q 1397 3394 1825 3394 
Q 2250 3394 2515 3294 
Q 2781 3194 2906 3042 
Q 3031 2891 3081 2659 
Q 3109 2516 3109 2141 
L 3109 1391 
Q 3109 606 3145 398 
Q 3181 191 3288 0 
L 2700 0 
Q 2613 175 2588 409 
z
M 2541 1666 
Q 2234 1541 1622 1453 
Q 1275 1403 1131 1340 
Q 988 1278 909 1158 
Q 831 1038 831 891 
Q 831 666 1001 516 
Q 1172 366 1500 366 
Q 1825 366 2078 508 
Q 2331 650 2450 897 
Q 2541 1088 2541 1459 
L 2541 1666 
z
" transform="scale(0.015625)"/>
       <path id="ArialMT-6c" d="M 409 0 
L 409 4581 
L 972 4581 
L 972 0 
L 409 0 
z
" transform="scale(0.015625)"/>
       <path id="ArialMT-73" d="M 197 991 
L 753 1078 
Q 800 744 1014 566 
Q 1228 388 1613 388 
Q 2000 388 2187 545 
Q 2375 703 2375 916 
Q 2375 1106 2209 1216 
Q 2094 1291 1634 1406 
Q 1016 1563 777 1677 
Q 538 1791 414 1992 
Q 291 2194 291 2438 
Q 291 2659 392 2848 
Q 494 3038 669 3163 
Q 800 3259 1026 3326 
Q 1253 3394 1513 3394 
Q 1903 3394 2198 3281 
Q 2494 3169 2634 2976 
Q 2775 2784 2828 2463 
L 2278 2388 
Q 2241 2644 2061 2787 
Q 1881 2931 1553 2931 
Q 1166 2931 1000 2803 
Q 834 2675 834 2503 
Q 834 2394 903 2306 
Q 972 2216 1119 2156 
Q 1203 2125 1616 2013 
Q 2213 1853 2448 1751 
Q 2684 1650 2818 1456 
Q 2953 1263 2953 975 
Q 2953 694 2789 445 
Q 2625 197 2315 61 
Q 2006 -75 1616 -75 
Q 969 -75 630 194 
Q 291 463 197 991 
z
" transform="scale(0.015625)"/>
       <path id="ArialMT-65" d="M 2694 1069 
L 3275 997 
Q 3138 488 2766 206 
Q 2394 -75 1816 -75 
Q 1088 -75 661 373 
Q 234 822 234 1631 
Q 234 2469 665 2931 
Q 1097 3394 1784 3394 
Q 2450 3394 2872 2941 
Q 3294 2488 3294 1666 
Q 3294 1616 3291 1516 
L 816 1516 
Q 847 969 1125 678 
Q 1403 388 1819 388 
Q 2128 388 2347 550 
Q 2566 713 2694 1069 
z
M 847 1978 
L 2700 1978 
Q 2663 2397 2488 2606 
Q 2219 2931 1791 2931 
Q 1403 2931 1139 2672 
Q 875 2413 847 1978 
z
" transform="scale(0.015625)"/>
      </defs>
      <use xlink:href="#ArialMT-46"/>
      <use xlink:href="#ArialMT-61" x="61.083984"/>
      <use xlink:href="#ArialMT-6c" x="116.699219"/>
      <use xlink:href="#ArialMT-73" x="138.916016"/>
      <use xlink:href="#ArialMT-65" x="188.916016"/>
     </g>
    </g>
    <g id="PathCollection_5">
     <defs>
      <path id="mc30055218e" d="M 0 3 
C 0.795609 3 1.55874 2.683901 2.12132 2.12132 
C 2.683901 1.55874 3 0.795609 3 0 
C 3 -0.795609 2.683901 -1.55874 2.12132 -2.12132 
C 1.55874 -2.683901 0.795609 -3 0 -3 
C -0.795609 -3 -1.55874 -2.683901 -2.12132 -2.12132 
C -2.683901 -1.55874 -3 -0.795609 -3 0 
C -3 0.795609 -2.683901 1.55874 -2.12132 2.12132 
C -1.55874 2.683901 -0.795609 3 0 3 
z
" style="stroke: #e64173"/>
     </defs>
     <g>
      <use xlink:href="#mc30055218e" x="26.2" y="49.023437" style="fill: #e64173; stroke: #e64173"/>
     </g>
    </g>
    <g id="text_5">
     <!-- True -->
     <g style="fill: #262626" transform="translate(44.2 51.648437) scale(0.1 -0.1)">
      <defs>
       <path id="ArialMT-54" d="M 1659 0 
L 1659 4041 
L 150 4041 
L 150 4581 
L 3781 4581 
L 3781 4041 
L 2266 4041 
L 2266 0 
L 1659 0 
z
" transform="scale(0.015625)"/>
       <path id="ArialMT-72" d="M 416 0 
L 416 3319 
L 922 3319 
L 922 2816 
Q 1116 3169 1280 3281 
Q 1444 3394 1641 3394 
Q 1925 3394 2219 3213 
L 2025 2691 
Q 1819 2813 1613 2813 
Q 1428 2813 1281 2702 
Q 1134 2591 1072 2394 
Q 978 2094 978 1738 
L 978 0 
L 416 0 
z
" transform="scale(0.015625)"/>
       <path id="ArialMT-75" d="M 2597 0 
L 2597 488 
Q 2209 -75 1544 -75 
Q 1250 -75 995 37 
Q 741 150 617 320 
Q 494 491 444 738 
Q 409 903 409 1263 
L 409 3319 
L 972 3319 
L 972 1478 
Q 972 1038 1006 884 
Q 1059 663 1231 536 
Q 1403 409 1656 409 
Q 1909 409 2131 539 
Q 2353 669 2445 892 
Q 2538 1116 2538 1541 
L 2538 3319 
L 3100 3319 
L 3100 0 
L 2597 0 
z
" transform="scale(0.015625)"/>
      </defs>
      <use xlink:href="#ArialMT-54"/>
      <use xlink:href="#ArialMT-72" x="57.333984"/>
      <use xlink:href="#ArialMT-75" x="90.634766"/>
      <use xlink:href="#ArialMT-65" x="146.25"/>
     </g>
    </g>
   </g>
  </g>
 </g>
 <defs>
  <clipPath id="p2dfc0948b6">
   <rect x="7.2" y="7.2" width="558" height="277.2"/>
  </clipPath>
 </defs>
</svg>
