<?xml version="1.0" encoding="utf-8" standalone="no"?>
<!DOCTYPE svg PUBLIC "-//W3C//DTD SVG 1.1//EN"
  "http://www.w3.org/Graphics/SVG/1.1/DTD/svg11.dtd">
<svg xmlns:xlink="http://www.w3.org/1999/xlink" width="597.610208pt" height="297.973274pt" viewBox="0 0 597.610208 297.973274" xmlns="http://www.w3.org/2000/svg" version="1.1">
 <metadata>
  <rdf:RDF xmlns:dc="http://purl.org/dc/elements/1.1/" xmlns:cc="http://creativecommons.org/ns#" xmlns:rdf="http://www.w3.org/1999/02/22-rdf-syntax-ns#">
   <cc:Work>
    <dc:type rdf:resource="http://purl.org/dc/dcmitype/StillImage"/>
    <dc:date>2024-01-22T19:43:41.505318</dc:date>
    <dc:format>image/svg+xml</dc:format>
    <dc:creator>
     <cc:Agent>
      <dc:title>Matplotlib v3.7.2, https://matplotlib.org/</dc:title>
     </cc:Agent>
    </dc:creator>
   </cc:Work>
  </rdf:RDF>
 </metadata>
 <defs>
  <style type="text/css">*{stroke-linejoin: round; stroke-linecap: butt}</style>
 </defs>
 <g id="figure_1">
  <g id="patch_1">
   <path d="M 0 297.973274 
L 597.610208 297.973274 
L 597.610208 0 
L 0 0 
z
" style="fill: #ffffff"/>
  </g>
  <g id="axes_1">
   <g id="matplotlib.axis_1">
    <g id="xtick_1"/>
    <g id="xtick_2"/>
    <g id="xtick_3"/>
    <g id="xtick_4"/>
    <g id="xtick_5"/>
    <g id="xtick_6"/>
    <g id="xtick_7"/>
   </g>
   <g id="matplotlib.axis_2">
    <g id="ytick_1"/>
    <g id="ytick_2"/>
    <g id="ytick_3"/>
    <g id="ytick_4"/>
    <g id="ytick_5"/>
   </g>
   <g id="PathCollection_1">
    <defs>
     <path id="C0_0_1f7e22d997" d="M 0 3 
C 0.795609 3 1.55874 2.683901 2.12132 2.12132 
C 2.683901 1.55874 3 0.795609 3 -0 
C 3 -0.795609 2.683901 -1.55874 2.12132 -2.12132 
C 1.55874 -2.683901 0.795609 -3 0 -3 
C -0.795609 -3 -1.55874 -2.683901 -2.12132 -2.12132 
C -2.683901 -1.55874 -3 -0.795609 -3 0 
C -3 0.795609 -2.683901 1.55874 -2.12132 2.12132 
C -1.55874 2.683901 -0.795609 3 0 3 
z
"/>
    </defs>
    <g clip-path="url(#p53c7bd6a79)">
     <use xlink:href="#C0_0_1f7e22d997" x="385.001952" y="88.506514" style="fill: #2f4f4f; stroke: #ffffff; stroke-width: 0.48"/>
    </g>
    <g clip-path="url(#p53c7bd6a79)">
     <use xlink:href="#C0_0_1f7e22d997" x="172.437696" y="191.879059" style="fill: #2f4f4f; stroke: #ffffff; stroke-width: 0.48"/>
    </g>
    <g clip-path="url(#p53c7bd6a79)">
     <use xlink:href="#C0_0_1f7e22d997" x="141.724638" y="233.53856" style="fill: #e64173; stroke: #ffffff; stroke-width: 0.48"/>
    </g>
    <g clip-path="url(#p53c7bd6a79)">
     <use xlink:href="#C0_0_1f7e22d997" x="309.807226" y="179.078171" style="fill: #e64173; stroke: #ffffff; stroke-width: 0.48"/>
    </g>
    <g clip-path="url(#p53c7bd6a79)">
     <use xlink:href="#C0_0_1f7e22d997" x="396.916591" y="139.134004" style="fill: #e64173; stroke: #ffffff; stroke-width: 0.48"/>
    </g>
    <g clip-path="url(#p53c7bd6a79)">
     <use xlink:href="#C0_0_1f7e22d997" x="243.391138" y="141.454193" style="fill: #2f4f4f; stroke: #ffffff; stroke-width: 0.48"/>
    </g>
    <g clip-path="url(#p53c7bd6a79)">
     <use xlink:href="#C0_0_1f7e22d997" x="532.276048" y="48.020341" style="fill: #e64173; stroke: #ffffff; stroke-width: 0.48"/>
    </g>
    <g clip-path="url(#p53c7bd6a79)">
     <use xlink:href="#C0_0_1f7e22d997" x="378.972339" y="113.379228" style="fill: #e64173; stroke: #ffffff; stroke-width: 0.48"/>
    </g>
    <g clip-path="url(#p53c7bd6a79)">
     <use xlink:href="#C0_0_1f7e22d997" x="273.346604" y="175.274605" style="fill: #e64173; stroke: #ffffff; stroke-width: 0.48"/>
    </g>
    <g clip-path="url(#p53c7bd6a79)">
     <use xlink:href="#C0_0_1f7e22d997" x="227.337854" y="103.110155" style="fill: #2f4f4f; stroke: #ffffff; stroke-width: 0.48"/>
    </g>
    <g clip-path="url(#p53c7bd6a79)">
     <use xlink:href="#C0_0_1f7e22d997" x="201.985595" y="138.615492" style="fill: #e64173; stroke: #ffffff; stroke-width: 0.48"/>
    </g>
    <g clip-path="url(#p53c7bd6a79)">
     <use xlink:href="#C0_0_1f7e22d997" x="401.879726" y="125.551188" style="fill: #e64173; stroke: #ffffff; stroke-width: 0.48"/>
    </g>
    <g clip-path="url(#p53c7bd6a79)">
     <use xlink:href="#C0_0_1f7e22d997" x="251.402919" y="190.886708" style="fill: #e64173; stroke: #ffffff; stroke-width: 0.48"/>
    </g>
    <g clip-path="url(#p53c7bd6a79)">
     <use xlink:href="#C0_0_1f7e22d997" x="55.123279" y="211.507503" style="fill: #2f4f4f; stroke: #ffffff; stroke-width: 0.48"/>
    </g>
    <g clip-path="url(#p53c7bd6a79)">
     <use xlink:href="#C0_0_1f7e22d997" x="230.408097" y="136.322839" style="fill: #e64173; stroke: #ffffff; stroke-width: 0.48"/>
    </g>
    <g clip-path="url(#p53c7bd6a79)">
     <use xlink:href="#C0_0_1f7e22d997" x="406.51389" y="85.329512" style="fill: #2f4f4f; stroke: #ffffff; stroke-width: 0.48"/>
    </g>
    <g clip-path="url(#p53c7bd6a79)">
     <use xlink:href="#C0_0_1f7e22d997" x="118.744854" y="177.154338" style="fill: #2f4f4f; stroke: #ffffff; stroke-width: 0.48"/>
    </g>
    <g clip-path="url(#p53c7bd6a79)">
     <use xlink:href="#C0_0_1f7e22d997" x="115.097917" y="201.101642" style="fill: #2f4f4f; stroke: #ffffff; stroke-width: 0.48"/>
    </g>
    <g clip-path="url(#p53c7bd6a79)">
     <use xlink:href="#C0_0_1f7e22d997" x="299.569143" y="118.263371" style="fill: #2f4f4f; stroke: #ffffff; stroke-width: 0.48"/>
    </g>
    <g clip-path="url(#p53c7bd6a79)">
     <use xlink:href="#C0_0_1f7e22d997" x="299.71223" y="104.428908" style="fill: #e64173; stroke: #ffffff; stroke-width: 0.48"/>
    </g>
    <g clip-path="url(#p53c7bd6a79)">
     <use xlink:href="#C0_0_1f7e22d997" x="352.848585" y="120.591808" style="fill: #2f4f4f; stroke: #ffffff; stroke-width: 0.48"/>
    </g>
    <g clip-path="url(#p53c7bd6a79)">
     <use xlink:href="#C0_0_1f7e22d997" x="464.241576" y="71.178495" style="fill: #2f4f4f; stroke: #ffffff; stroke-width: 0.48"/>
    </g>
    <g clip-path="url(#p53c7bd6a79)">
     <use xlink:href="#C0_0_1f7e22d997" x="399.499686" y="90.060358" style="fill: #2f4f4f; stroke: #ffffff; stroke-width: 0.48"/>
    </g>
    <g clip-path="url(#p53c7bd6a79)">
     <use xlink:href="#C0_0_1f7e22d997" x="340.738304" y="109.276885" style="fill: #2f4f4f; stroke: #ffffff; stroke-width: 0.48"/>
    </g>
    <g clip-path="url(#p53c7bd6a79)">
     <use xlink:href="#C0_0_1f7e22d997" x="398.457434" y="157.964335" style="fill: #e64173; stroke: #ffffff; stroke-width: 0.48"/>
    </g>
    <g clip-path="url(#p53c7bd6a79)">
     <use xlink:href="#C0_0_1f7e22d997" x="191.51144" y="242.484147" style="fill: #e64173; stroke: #ffffff; stroke-width: 0.48"/>
    </g>
    <g clip-path="url(#p53c7bd6a79)">
     <use xlink:href="#C0_0_1f7e22d997" x="211.626513" y="191.933258" style="fill: #2f4f4f; stroke: #ffffff; stroke-width: 0.48"/>
    </g>
    <g clip-path="url(#p53c7bd6a79)">
     <use xlink:href="#C0_0_1f7e22d997" x="142.455985" y="180.520422" style="fill: #2f4f4f; stroke: #ffffff; stroke-width: 0.48"/>
    </g>
    <g clip-path="url(#p53c7bd6a79)">
     <use xlink:href="#C0_0_1f7e22d997" x="176.361644" y="157.525551" style="fill: #2f4f4f; stroke: #ffffff; stroke-width: 0.48"/>
    </g>
    <g clip-path="url(#p53c7bd6a79)">
     <use xlink:href="#C0_0_1f7e22d997" x="351.074408" y="129.792925" style="fill: #2f4f4f; stroke: #ffffff; stroke-width: 0.48"/>
    </g>
    <g clip-path="url(#p53c7bd6a79)">
     <use xlink:href="#C0_0_1f7e22d997" x="71.921546" y="168.932732" style="fill: #2f4f4f; stroke: #ffffff; stroke-width: 0.48"/>
    </g>
    <g clip-path="url(#p53c7bd6a79)">
     <use xlink:href="#C0_0_1f7e22d997" x="248.879545" y="171.659933" style="fill: #e64173; stroke: #ffffff; stroke-width: 0.48"/>
    </g>
    <g clip-path="url(#p53c7bd6a79)">
     <use xlink:href="#C0_0_1f7e22d997" x="247.409156" y="167.3345" style="fill: #e64173; stroke: #ffffff; stroke-width: 0.48"/>
    </g>
    <g clip-path="url(#p53c7bd6a79)">
     <use xlink:href="#C0_0_1f7e22d997" x="279.953176" y="144.176495" style="fill: #2f4f4f; stroke: #ffffff; stroke-width: 0.48"/>
    </g>
    <g clip-path="url(#p53c7bd6a79)">
     <use xlink:href="#C0_0_1f7e22d997" x="244.802171" y="146.513675" style="fill: #2f4f4f; stroke: #ffffff; stroke-width: 0.48"/>
    </g>
    <g clip-path="url(#p53c7bd6a79)">
     <use xlink:href="#C0_0_1f7e22d997" x="185.969687" y="149.790856" style="fill: #2f4f4f; stroke: #ffffff; stroke-width: 0.48"/>
    </g>
    <g clip-path="url(#p53c7bd6a79)">
     <use xlink:href="#C0_0_1f7e22d997" x="245.072074" y="149.075232" style="fill: #e64173; stroke: #ffffff; stroke-width: 0.48"/>
    </g>
    <g clip-path="url(#p53c7bd6a79)">
     <use xlink:href="#C0_0_1f7e22d997" x="487.012928" y="94.154692" style="fill: #2f4f4f; stroke: #ffffff; stroke-width: 0.48"/>
    </g>
    <g clip-path="url(#p53c7bd6a79)">
     <use xlink:href="#C0_0_1f7e22d997" x="513.313888" y="31.981338" style="fill: #e64173; stroke: #ffffff; stroke-width: 0.48"/>
    </g>
    <g clip-path="url(#p53c7bd6a79)">
     <use xlink:href="#C0_0_1f7e22d997" x="284.175959" y="187.697404" style="fill: #e64173; stroke: #ffffff; stroke-width: 0.48"/>
    </g>
    <g clip-path="url(#p53c7bd6a79)">
     <use xlink:href="#C0_0_1f7e22d997" x="347.436176" y="131.379606" style="fill: #e64173; stroke: #ffffff; stroke-width: 0.48"/>
    </g>
    <g clip-path="url(#p53c7bd6a79)">
     <use xlink:href="#C0_0_1f7e22d997" x="84.102283" y="213.544344" style="fill: #2f4f4f; stroke: #ffffff; stroke-width: 0.48"/>
    </g>
    <g clip-path="url(#p53c7bd6a79)">
     <use xlink:href="#C0_0_1f7e22d997" x="188.572417" y="200.6855" style="fill: #2f4f4f; stroke: #ffffff; stroke-width: 0.48"/>
    </g>
    <g clip-path="url(#p53c7bd6a79)">
     <use xlink:href="#C0_0_1f7e22d997" x="239.101699" y="154.640298" style="fill: #2f4f4f; stroke: #ffffff; stroke-width: 0.48"/>
    </g>
    <g clip-path="url(#p53c7bd6a79)">
     <use xlink:href="#C0_0_1f7e22d997" x="472.984601" y="112.652899" style="fill: #e64173; stroke: #ffffff; stroke-width: 0.48"/>
    </g>
    <g clip-path="url(#p53c7bd6a79)">
     <use xlink:href="#C0_0_1f7e22d997" x="153.952235" y="179.394694" style="fill: #2f4f4f; stroke: #ffffff; stroke-width: 0.48"/>
    </g>
    <g clip-path="url(#p53c7bd6a79)">
     <use xlink:href="#C0_0_1f7e22d997" x="274.435696" y="146.785538" style="fill: #e64173; stroke: #ffffff; stroke-width: 0.48"/>
    </g>
    <g clip-path="url(#p53c7bd6a79)">
     <use xlink:href="#C0_0_1f7e22d997" x="534.760319" y="26.173274" style="fill: #e64173; stroke: #ffffff; stroke-width: 0.48"/>
    </g>
    <g clip-path="url(#p53c7bd6a79)">
     <use xlink:href="#C0_0_1f7e22d997" x="293.318429" y="124.798535" style="fill: #2f4f4f; stroke: #ffffff; stroke-width: 0.48"/>
    </g>
    <g clip-path="url(#p53c7bd6a79)">
     <use xlink:href="#C0_0_1f7e22d997" x="341.70755" y="135.375835" style="fill: #2f4f4f; stroke: #ffffff; stroke-width: 0.48"/>
    </g>
    <g clip-path="url(#p53c7bd6a79)">
     <use xlink:href="#C0_0_1f7e22d997" x="86.697767" y="216.118479" style="fill: #2f4f4f; stroke: #ffffff; stroke-width: 0.48"/>
    </g>
    <g clip-path="url(#p53c7bd6a79)">
     <use xlink:href="#C0_0_1f7e22d997" x="452.279688" y="93.722849" style="fill: #e64173; stroke: #ffffff; stroke-width: 0.48"/>
    </g>
    <g clip-path="url(#p53c7bd6a79)">
     <use xlink:href="#C0_0_1f7e22d997" x="336.613012" y="116.307039" style="fill: #2f4f4f; stroke: #ffffff; stroke-width: 0.48"/>
    </g>
    <g clip-path="url(#p53c7bd6a79)">
     <use xlink:href="#C0_0_1f7e22d997" x="306.5712" y="86.237357" style="fill: #2f4f4f; stroke: #ffffff; stroke-width: 0.48"/>
    </g>
    <g clip-path="url(#p53c7bd6a79)">
     <use xlink:href="#C0_0_1f7e22d997" x="201.771035" y="142.336572" style="fill: #e64173; stroke: #ffffff; stroke-width: 0.48"/>
    </g>
    <g clip-path="url(#p53c7bd6a79)">
     <use xlink:href="#C0_0_1f7e22d997" x="181.752676" y="200.993258" style="fill: #e64173; stroke: #ffffff; stroke-width: 0.48"/>
    </g>
    <g clip-path="url(#p53c7bd6a79)">
     <use xlink:href="#C0_0_1f7e22d997" x="240.239298" y="186.589993" style="fill: #e64173; stroke: #ffffff; stroke-width: 0.48"/>
    </g>
    <g clip-path="url(#p53c7bd6a79)">
     <use xlink:href="#C0_0_1f7e22d997" x="377.144216" y="180.72041" style="fill: #2f4f4f; stroke: #ffffff; stroke-width: 0.48"/>
    </g>
    <g clip-path="url(#p53c7bd6a79)">
     <use xlink:href="#C0_0_1f7e22d997" x="477.7234" y="105.364786" style="fill: #e64173; stroke: #ffffff; stroke-width: 0.48"/>
    </g>
    <g clip-path="url(#p53c7bd6a79)">
     <use xlink:href="#C0_0_1f7e22d997" x="288.623612" y="164.367265" style="fill: #2f4f4f; stroke: #ffffff; stroke-width: 0.48"/>
    </g>
    <g clip-path="url(#p53c7bd6a79)">
     <use xlink:href="#C0_0_1f7e22d997" x="370.934567" y="117.806228" style="fill: #2f4f4f; stroke: #ffffff; stroke-width: 0.48"/>
    </g>
    <g clip-path="url(#p53c7bd6a79)">
     <use xlink:href="#C0_0_1f7e22d997" x="327.74244" y="128.891199" style="fill: #e64173; stroke: #ffffff; stroke-width: 0.48"/>
    </g>
    <g clip-path="url(#p53c7bd6a79)">
     <use xlink:href="#C0_0_1f7e22d997" x="347.928592" y="128.317971" style="fill: #e64173; stroke: #ffffff; stroke-width: 0.48"/>
    </g>
    <g clip-path="url(#p53c7bd6a79)">
     <use xlink:href="#C0_0_1f7e22d997" x="373.719132" y="107.259791" style="fill: #2f4f4f; stroke: #ffffff; stroke-width: 0.48"/>
    </g>
    <g clip-path="url(#p53c7bd6a79)">
     <use xlink:href="#C0_0_1f7e22d997" x="460.569058" y="70.772765" style="fill: #2f4f4f; stroke: #ffffff; stroke-width: 0.48"/>
    </g>
    <g clip-path="url(#p53c7bd6a79)">
     <use xlink:href="#C0_0_1f7e22d997" x="67.3059" y="214.910585" style="fill: #2f4f4f; stroke: #ffffff; stroke-width: 0.48"/>
    </g>
    <g clip-path="url(#p53c7bd6a79)">
     <use xlink:href="#C0_0_1f7e22d997" x="419.82082" y="84.78674" style="fill: #2f4f4f; stroke: #ffffff; stroke-width: 0.48"/>
    </g>
    <g clip-path="url(#p53c7bd6a79)">
     <use xlink:href="#C0_0_1f7e22d997" x="150.435316" y="278.173274" style="fill: #2f4f4f; stroke: #ffffff; stroke-width: 0.48"/>
    </g>
    <g clip-path="url(#p53c7bd6a79)">
     <use xlink:href="#C0_0_1f7e22d997" x="124.822014" y="217.819466" style="fill: #e64173; stroke: #ffffff; stroke-width: 0.48"/>
    </g>
    <g clip-path="url(#p53c7bd6a79)">
     <use xlink:href="#C0_0_1f7e22d997" x="320.75957" y="127.763754" style="fill: #2f4f4f; stroke: #ffffff; stroke-width: 0.48"/>
    </g>
    <g clip-path="url(#p53c7bd6a79)">
     <use xlink:href="#C0_0_1f7e22d997" x="73.790389" y="219.046336" style="fill: #2f4f4f; stroke: #ffffff; stroke-width: 0.48"/>
    </g>
    <g clip-path="url(#p53c7bd6a79)">
     <use xlink:href="#C0_0_1f7e22d997" x="482.836374" y="75.486867" style="fill: #2f4f4f; stroke: #ffffff; stroke-width: 0.48"/>
    </g>
    <g clip-path="url(#p53c7bd6a79)">
     <use xlink:href="#C0_0_1f7e22d997" x="349.143622" y="112.364576" style="fill: #e64173; stroke: #ffffff; stroke-width: 0.48"/>
    </g>
    <g clip-path="url(#p53c7bd6a79)">
     <use xlink:href="#C0_0_1f7e22d997" x="398.961467" y="115.404182" style="fill: #2f4f4f; stroke: #ffffff; stroke-width: 0.48"/>
    </g>
    <g clip-path="url(#p53c7bd6a79)">
     <use xlink:href="#C0_0_1f7e22d997" x="32.563636" y="158.076727" style="fill: #2f4f4f; stroke: #ffffff; stroke-width: 0.48"/>
    </g>
    <g clip-path="url(#p53c7bd6a79)">
     <use xlink:href="#C0_0_1f7e22d997" x="332.143297" y="118.623062" style="fill: #e64173; stroke: #ffffff; stroke-width: 0.48"/>
    </g>
    <g clip-path="url(#p53c7bd6a79)">
     <use xlink:href="#C0_0_1f7e22d997" x="312.641084" y="145.807634" style="fill: #e64173; stroke: #ffffff; stroke-width: 0.48"/>
    </g>
    <g clip-path="url(#p53c7bd6a79)">
     <use xlink:href="#C0_0_1f7e22d997" x="106.554465" y="222.218354" style="fill: #e64173; stroke: #ffffff; stroke-width: 0.48"/>
    </g>
    <g clip-path="url(#p53c7bd6a79)">
     <use xlink:href="#C0_0_1f7e22d997" x="103.503704" y="201.359453" style="fill: #2f4f4f; stroke: #ffffff; stroke-width: 0.48"/>
    </g>
    <g clip-path="url(#p53c7bd6a79)">
     <use xlink:href="#C0_0_1f7e22d997" x="384.515179" y="129.713543" style="fill: #2f4f4f; stroke: #ffffff; stroke-width: 0.48"/>
    </g>
    <g clip-path="url(#p53c7bd6a79)">
     <use xlink:href="#C0_0_1f7e22d997" x="189.339594" y="190.609277" style="fill: #e64173; stroke: #ffffff; stroke-width: 0.48"/>
    </g>
    <g clip-path="url(#p53c7bd6a79)">
     <use xlink:href="#C0_0_1f7e22d997" x="382.67138" y="113.436581" style="fill: #e64173; stroke: #ffffff; stroke-width: 0.48"/>
    </g>
    <g clip-path="url(#p53c7bd6a79)">
     <use xlink:href="#C0_0_1f7e22d997" x="311.3968" y="110.57708" style="fill: #2f4f4f; stroke: #ffffff; stroke-width: 0.48"/>
    </g>
    <g clip-path="url(#p53c7bd6a79)">
     <use xlink:href="#C0_0_1f7e22d997" x="225.697274" y="158.2413" style="fill: #e64173; stroke: #ffffff; stroke-width: 0.48"/>
    </g>
    <g clip-path="url(#p53c7bd6a79)">
     <use xlink:href="#C0_0_1f7e22d997" x="503.457007" y="88.469109" style="fill: #e64173; stroke: #ffffff; stroke-width: 0.48"/>
    </g>
    <g clip-path="url(#p53c7bd6a79)">
     <use xlink:href="#C0_0_1f7e22d997" x="460.220712" y="136.961531" style="fill: #e64173; stroke: #ffffff; stroke-width: 0.48"/>
    </g>
    <g clip-path="url(#p53c7bd6a79)">
     <use xlink:href="#C0_0_1f7e22d997" x="209.351786" y="182.358517" style="fill: #2f4f4f; stroke: #ffffff; stroke-width: 0.48"/>
    </g>
    <g clip-path="url(#p53c7bd6a79)">
     <use xlink:href="#C0_0_1f7e22d997" x="46.789982" y="188.945222" style="fill: #e64173; stroke: #ffffff; stroke-width: 0.48"/>
    </g>
    <g clip-path="url(#p53c7bd6a79)">
     <use xlink:href="#C0_0_1f7e22d997" x="182.087991" y="145.460584" style="fill: #2f4f4f; stroke: #ffffff; stroke-width: 0.48"/>
    </g>
    <g clip-path="url(#p53c7bd6a79)">
     <use xlink:href="#C0_0_1f7e22d997" x="230.481361" y="144.454489" style="fill: #2f4f4f; stroke: #ffffff; stroke-width: 0.48"/>
    </g>
    <g clip-path="url(#p53c7bd6a79)">
     <use xlink:href="#C0_0_1f7e22d997" x="389.399865" y="123.49425" style="fill: #2f4f4f; stroke: #ffffff; stroke-width: 0.48"/>
    </g>
    <g clip-path="url(#p53c7bd6a79)">
     <use xlink:href="#C0_0_1f7e22d997" x="539.836364" y="67.799662" style="fill: #e64173; stroke: #ffffff; stroke-width: 0.48"/>
    </g>
    <g clip-path="url(#p53c7bd6a79)">
     <use xlink:href="#C0_0_1f7e22d997" x="208.583699" y="199.944245" style="fill: #2f4f4f; stroke: #ffffff; stroke-width: 0.48"/>
    </g>
    <g clip-path="url(#p53c7bd6a79)">
     <use xlink:href="#C0_0_1f7e22d997" x="419.232838" y="107.106701" style="fill: #2f4f4f; stroke: #ffffff; stroke-width: 0.48"/>
    </g>
    <g clip-path="url(#p53c7bd6a79)">
     <use xlink:href="#C0_0_1f7e22d997" x="331.493185" y="128.060053" style="fill: #2f4f4f; stroke: #ffffff; stroke-width: 0.48"/>
    </g>
    <g clip-path="url(#p53c7bd6a79)">
     <use xlink:href="#C0_0_1f7e22d997" x="382.53229" y="132.394766" style="fill: #e64173; stroke: #ffffff; stroke-width: 0.48"/>
    </g>
    <g clip-path="url(#p53c7bd6a79)">
     <use xlink:href="#C0_0_1f7e22d997" x="102.497134" y="189.251631" style="fill: #e64173; stroke: #ffffff; stroke-width: 0.48"/>
    </g>
    <g clip-path="url(#p53c7bd6a79)">
     <use xlink:href="#C0_0_1f7e22d997" x="230.83912" y="215.501501" style="fill: #e64173; stroke: #ffffff; stroke-width: 0.48"/>
    </g>
    <g clip-path="url(#p53c7bd6a79)">
     <use xlink:href="#C0_0_1f7e22d997" x="148.979398" y="227.161938" style="fill: #e64173; stroke: #ffffff; stroke-width: 0.48"/>
    </g>
    <g clip-path="url(#p53c7bd6a79)">
     <use xlink:href="#C0_0_1f7e22d997" x="202.129607" y="205.666906" style="fill: #2f4f4f; stroke: #ffffff; stroke-width: 0.48"/>
    </g>
   </g>
   <g id="PathCollection_2"/>
   <g id="PathCollection_3"/>
   <g id="line2d_1">
    <path d="M 32.563636 226.416011 
L 37.687603 224.800209 
L 42.81157 223.184406 
L 47.935537 221.568604 
L 53.059504 219.952802 
L 58.183471 218.336999 
L 63.307438 216.721197 
L 68.431405 215.105395 
L 73.555372 213.489592 
L 78.679339 211.87379 
L 83.803306 210.257988 
L 88.927273 208.642185 
L 94.05124 207.026383 
L 99.175207 205.410581 
L 104.299174 203.794778 
L 109.42314 202.178976 
L 114.547107 200.563174 
L 119.671074 198.947371 
L 124.795041 197.331569 
L 129.919008 195.715767 
L 135.042975 194.099964 
L 140.166942 192.484162 
L 145.290909 190.86836 
L 150.414876 189.252558 
L 155.538843 187.636755 
L 160.66281 186.020953 
L 165.786777 184.405151 
L 170.910744 182.789348 
L 176.034711 181.173546 
L 181.158678 179.557744 
L 186.282645 177.941941 
L 191.406612 176.326139 
L 196.530579 174.710337 
L 201.654545 173.094534 
L 206.778512 171.478732 
L 211.902479 169.86293 
L 217.026446 168.247127 
L 222.150413 166.631325 
L 227.27438 165.015523 
L 232.398347 163.39972 
L 237.522314 161.783918 
L 242.646281 160.168116 
L 247.770248 158.552313 
L 252.894215 156.936511 
L 258.018182 155.320709 
L 263.142149 153.704906 
L 268.266116 152.089104 
L 273.390083 150.473302 
L 278.51405 148.857499 
L 283.638017 147.241697 
L 288.761983 145.625895 
L 293.88595 144.010092 
L 299.009917 142.39429 
L 304.133884 140.778488 
L 309.257851 139.162685 
L 314.381818 137.546883 
L 319.505785 135.931081 
L 324.629752 134.315278 
L 329.753719 132.699476 
L 334.877686 131.083674 
L 340.001653 129.467871 
L 345.12562 127.852069 
L 350.249587 126.236267 
L 355.373554 124.620464 
L 360.497521 123.004662 
L 365.621488 121.38886 
L 370.745455 119.773057 
L 375.869421 118.157255 
L 380.993388 116.541453 
L 386.117355 114.925651 
L 391.241322 113.309848 
L 396.365289 111.694046 
L 401.489256 110.078244 
L 406.613223 108.462441 
L 411.73719 106.846639 
L 416.861157 105.230837 
L 421.985124 103.615034 
L 427.109091 101.999232 
L 432.233058 100.38343 
L 437.357025 98.767627 
L 442.480992 97.151825 
L 447.604959 95.536023 
L 452.728926 93.92022 
L 457.852893 92.304418 
L 462.97686 90.688616 
L 468.100826 89.072813 
L 473.224793 87.457011 
L 478.34876 85.841209 
L 483.472727 84.225406 
L 488.596694 82.609604 
L 493.720661 80.993802 
L 498.844628 79.377999 
L 503.968595 77.762197 
L 509.092562 76.146395 
L 514.216529 74.530592 
L 519.340496 72.91479 
L 524.464463 71.298988 
L 529.58843 69.683185 
L 534.712397 68.067383 
L 539.836364 66.451581 
" clip-path="url(#p53c7bd6a79)" style="fill: none; stroke: #ffa500; stroke-width: 2.25; stroke-linecap: round"/>
   </g>
   <g id="line2d_2">
    <path d="M 283.224501 290.773274 
L 283.224501 13.573274 
" clip-path="url(#p53c7bd6a79)" style="fill: none; stroke: #808080; stroke-width: 1.5; stroke-linecap: round"/>
   </g>
   <g id="line2d_3">
    <path d="M 7.2 147.138678 
L 565.2 147.138678 
" clip-path="url(#p53c7bd6a79)" style="fill: none; stroke: #808080; stroke-width: 1.5; stroke-linecap: round"/>
   </g>
   <g id="text_1">
    <!-- y -->
    <g style="fill: #262626" transform="translate(265.956746 14.240625) scale(0.1 -0.1)">
     <defs>
      <path id="ArialMT-79" d="M 397 -1278 
L 334 -750 
Q 519 -800 656 -800 
Q 844 -800 956 -737 
Q 1069 -675 1141 -563 
Q 1194 -478 1313 -144 
Q 1328 -97 1363 -6 
L 103 3319 
L 709 3319 
L 1400 1397 
Q 1534 1031 1641 628 
Q 1738 1016 1872 1384 
L 2581 3319 
L 3144 3319 
L 1881 -56 
Q 1678 -603 1566 -809 
Q 1416 -1088 1222 -1217 
Q 1028 -1347 759 -1347 
Q 597 -1347 397 -1278 
z
" transform="scale(0.015625)"/>
     </defs>
     <use xlink:href="#ArialMT-79"/>
    </g>
   </g>
   <g id="text_2">
    <!-- x -->
    <g style="fill: #262626" transform="translate(585.410208 153.045258) scale(0.1 -0.1)">
     <defs>
      <path id="ArialMT-78" d="M 47 0 
L 1259 1725 
L 138 3319 
L 841 3319 
L 1350 2541 
Q 1494 2319 1581 2169 
Q 1719 2375 1834 2534 
L 2394 3319 
L 3066 3319 
L 1919 1756 
L 3153 0 
L 2463 0 
L 1781 1031 
L 1600 1309 
L 728 0 
L 47 0 
z
" transform="scale(0.015625)"/>
     </defs>
     <use xlink:href="#ArialMT-78"/>
    </g>
   </g>
   <g id="legend_1">
    <g id="patch_2">
     <path d="M 14.2 64.009212 
L 70.651562 64.009212 
Q 72.651562 64.009212 72.651562 62.009212 
L 72.651562 20.573274 
Q 72.651562 18.573274 70.651562 18.573274 
L 14.2 18.573274 
Q 12.2 18.573274 12.2 20.573274 
L 12.2 62.009212 
Q 12.2 64.009212 14.2 64.009212 
z
" style="fill: #ffffff; opacity: 0.8; stroke: #cccccc; stroke-linejoin: miter"/>
    </g>
    <g id="text_3">
     <!-- x2 -->
     <g style="fill: #262626" transform="translate(37.145313 29.731087) scale(0.1 -0.1)">
      <defs>
       <path id="ArialMT-32" d="M 3222 541 
L 3222 0 
L 194 0 
Q 188 203 259 391 
Q 375 700 629 1000 
Q 884 1300 1366 1694 
Q 2113 2306 2375 2664 
Q 2638 3022 2638 3341 
Q 2638 3675 2398 3904 
Q 2159 4134 1775 4134 
Q 1369 4134 1125 3890 
Q 881 3647 878 3216 
L 300 3275 
Q 359 3922 746 4261 
Q 1134 4600 1788 4600 
Q 2447 4600 2831 4234 
Q 3216 3869 3216 3328 
Q 3216 3053 3103 2787 
Q 2991 2522 2730 2228 
Q 2469 1934 1863 1422 
Q 1356 997 1212 845 
Q 1069 694 975 541 
L 3222 541 
z
" transform="scale(0.015625)"/>
      </defs>
      <use xlink:href="#ArialMT-78"/>
      <use xlink:href="#ArialMT-32" x="50"/>
     </g>
    </g>
    <g id="PathCollection_4">
     <defs>
      <path id="m2f98f7c8f1" d="M 0 3 
C 0.795609 3 1.55874 2.683901 2.12132 2.12132 
C 2.683901 1.55874 3 0.795609 3 0 
C 3 -0.795609 2.683901 -1.55874 2.12132 -2.12132 
C 1.55874 -2.683901 0.795609 -3 0 -3 
C -0.795609 -3 -1.55874 -2.683901 -2.12132 -2.12132 
C -2.683901 -1.55874 -3 -0.795609 -3 0 
C -3 0.795609 -2.683901 1.55874 -2.12132 2.12132 
C -1.55874 2.683901 -0.795609 3 0 3 
z
" style="stroke: #2f4f4f"/>
     </defs>
     <g>
      <use xlink:href="#m2f98f7c8f1" x="26.2" y="41.251399" style="fill: #2f4f4f; stroke: #2f4f4f"/>
     </g>
    </g>
    <g id="text_4">
     <!-- False -->
     <g style="fill: #262626" transform="translate(44.2 43.876399) scale(0.1 -0.1)">
      <defs>
       <path id="ArialMT-46" d="M 525 0 
L 525 4581 
L 3616 4581 
L 3616 4041 
L 1131 4041 
L 1131 2622 
L 3281 2622 
L 3281 2081 
L 1131 2081 
L 1131 0 
L 525 0 
z
" transform="scale(0.015625)"/>
       <path id="ArialMT-61" d="M 2588 409 
Q 2275 144 1986 34 
Q 1697 -75 1366 -75 
Q 819 -75 525 192 
Q 231 459 231 875 
Q 231 1119 342 1320 
Q 453 1522 633 1644 
Q 813 1766 1038 1828 
Q 1203 1872 1538 1913 
Q 2219 1994 2541 2106 
Q 2544 2222 2544 2253 
Q 2544 2597 2384 2738 
Q 2169 2928 1744 2928 
Q 1347 2928 1158 2789 
Q 969 2650 878 2297 
L 328 2372 
Q 403 2725 575 2942 
Q 747 3159 1072 3276 
Q 1397 3394 1825 3394 
Q 2250 3394 2515 3294 
Q 2781 3194 2906 3042 
Q 3031 2891 3081 2659 
Q 3109 2516 3109 2141 
L 3109 1391 
Q 3109 606 3145 398 
Q 3181 191 3288 0 
L 2700 0 
Q 2613 175 2588 409 
z
M 2541 1666 
Q 2234 1541 1622 1453 
Q 1275 1403 1131 1340 
Q 988 1278 909 1158 
Q 831 1038 831 891 
Q 831 666 1001 516 
Q 1172 366 1500 366 
Q 1825 366 2078 508 
Q 2331 650 2450 897 
Q 2541 1088 2541 1459 
L 2541 1666 
z
" transform="scale(0.015625)"/>
       <path id="ArialMT-6c" d="M 409 0 
L 409 4581 
L 972 4581 
L 972 0 
L 409 0 
z
" transform="scale(0.015625)"/>
       <path id="ArialMT-73" d="M 197 991 
L 753 1078 
Q 800 744 1014 566 
Q 1228 388 1613 388 
Q 2000 388 2187 545 
Q 2375 703 2375 916 
Q 2375 1106 2209 1216 
Q 2094 1291 1634 1406 
Q 1016 1563 777 1677 
Q 538 1791 414 1992 
Q 291 2194 291 2438 
Q 291 2659 392 2848 
Q 494 3038 669 3163 
Q 800 3259 1026 3326 
Q 1253 3394 1513 3394 
Q 1903 3394 2198 3281 
Q 2494 3169 2634 2976 
Q 2775 2784 2828 2463 
L 2278 2388 
Q 2241 2644 2061 2787 
Q 1881 2931 1553 2931 
Q 1166 2931 1000 2803 
Q 834 2675 834 2503 
Q 834 2394 903 2306 
Q 972 2216 1119 2156 
Q 1203 2125 1616 2013 
Q 2213 1853 2448 1751 
Q 2684 1650 2818 1456 
Q 2953 1263 2953 975 
Q 2953 694 2789 445 
Q 2625 197 2315 61 
Q 2006 -75 1616 -75 
Q 969 -75 630 194 
Q 291 463 197 991 
z
" transform="scale(0.015625)"/>
       <path id="ArialMT-65" d="M 2694 1069 
L 3275 997 
Q 3138 488 2766 206 
Q 2394 -75 1816 -75 
Q 1088 -75 661 373 
Q 234 822 234 1631 
Q 234 2469 665 2931 
Q 1097 3394 1784 3394 
Q 2450 3394 2872 2941 
Q 3294 2488 3294 1666 
Q 3294 1616 3291 1516 
L 816 1516 
Q 847 969 1125 678 
Q 1403 388 1819 388 
Q 2128 388 2347 550 
Q 2566 713 2694 1069 
z
M 847 1978 
L 2700 1978 
Q 2663 2397 2488 2606 
Q 2219 2931 1791 2931 
Q 1403 2931 1139 2672 
Q 875 2413 847 1978 
z
" transform="scale(0.015625)"/>
      </defs>
      <use xlink:href="#ArialMT-46"/>
      <use xlink:href="#ArialMT-61" x="61.083984"/>
      <use xlink:href="#ArialMT-6c" x="116.699219"/>
      <use xlink:href="#ArialMT-73" x="138.916016"/>
      <use xlink:href="#ArialMT-65" x="188.916016"/>
     </g>
    </g>
    <g id="PathCollection_5">
     <defs>
      <path id="m8ae334478b" d="M 0 3 
C 0.795609 3 1.55874 2.683901 2.12132 2.12132 
C 2.683901 1.55874 3 0.795609 3 0 
C 3 -0.795609 2.683901 -1.55874 2.12132 -2.12132 
C 1.55874 -2.683901 0.795609 -3 0 -3 
C -0.795609 -3 -1.55874 -2.683901 -2.12132 -2.12132 
C -2.683901 -1.55874 -3 -0.795609 -3 0 
C -3 0.795609 -2.683901 1.55874 -2.12132 2.12132 
C -1.55874 2.683901 -0.795609 3 0 3 
z
" style="stroke: #e64173"/>
     </defs>
     <g>
      <use xlink:href="#m8ae334478b" x="26.2" y="55.396712" style="fill: #e64173; stroke: #e64173"/>
     </g>
    </g>
    <g id="text_5">
     <!-- True -->
     <g style="fill: #262626" transform="translate(44.2 58.021712) scale(0.1 -0.1)">
      <defs>
       <path id="ArialMT-54" d="M 1659 0 
L 1659 4041 
L 150 4041 
L 150 4581 
L 3781 4581 
L 3781 4041 
L 2266 4041 
L 2266 0 
L 1659 0 
z
" transform="scale(0.015625)"/>
       <path id="ArialMT-72" d="M 416 0 
L 416 3319 
L 922 3319 
L 922 2816 
Q 1116 3169 1280 3281 
Q 1444 3394 1641 3394 
Q 1925 3394 2219 3213 
L 2025 2691 
Q 1819 2813 1613 2813 
Q 1428 2813 1281 2702 
Q 1134 2591 1072 2394 
Q 978 2094 978 1738 
L 978 0 
L 416 0 
z
" transform="scale(0.015625)"/>
       <path id="ArialMT-75" d="M 2597 0 
L 2597 488 
Q 2209 -75 1544 -75 
Q 1250 -75 995 37 
Q 741 150 617 320 
Q 494 491 444 738 
Q 409 903 409 1263 
L 409 3319 
L 972 3319 
L 972 1478 
Q 972 1038 1006 884 
Q 1059 663 1231 536 
Q 1403 409 1656 409 
Q 1909 409 2131 539 
Q 2353 669 2445 892 
Q 2538 1116 2538 1541 
L 2538 3319 
L 3100 3319 
L 3100 0 
L 2597 0 
z
" transform="scale(0.015625)"/>
      </defs>
      <use xlink:href="#ArialMT-54"/>
      <use xlink:href="#ArialMT-72" x="57.333984"/>
      <use xlink:href="#ArialMT-75" x="90.634766"/>
      <use xlink:href="#ArialMT-65" x="146.25"/>
     </g>
    </g>
   </g>
  </g>
 </g>
 <defs>
  <clipPath id="p53c7bd6a79">
   <rect x="7.2" y="13.573274" width="558" height="277.2"/>
  </clipPath>
 </defs>
</svg>
