<?xml version="1.0" encoding="utf-8" standalone="no"?>
<!DOCTYPE svg PUBLIC "-//W3C//DTD SVG 1.1//EN"
  "http://www.w3.org/Graphics/SVG/1.1/DTD/svg11.dtd">
<svg xmlns:xlink="http://www.w3.org/1999/xlink" width="572.4pt" height="442.920937pt" viewBox="0 0 572.4 442.920937" xmlns="http://www.w3.org/2000/svg" version="1.1">
 <metadata>
  <rdf:RDF xmlns:dc="http://purl.org/dc/elements/1.1/" xmlns:cc="http://creativecommons.org/ns#" xmlns:rdf="http://www.w3.org/1999/02/22-rdf-syntax-ns#">
   <cc:Work>
    <dc:type rdf:resource="http://purl.org/dc/dcmitype/StillImage"/>
    <dc:date>2024-01-22T19:43:42.419841</dc:date>
    <dc:format>image/svg+xml</dc:format>
    <dc:creator>
     <cc:Agent>
      <dc:title>Matplotlib v3.7.2, https://matplotlib.org/</dc:title>
     </cc:Agent>
    </dc:creator>
   </cc:Work>
  </rdf:RDF>
 </metadata>
 <defs>
  <style type="text/css">*{stroke-linejoin: round; stroke-linecap: butt}</style>
 </defs>
 <g id="figure_1">
  <g id="patch_1">
   <path d="M 0 442.920937 
L 572.4 442.920937 
L 572.4 -0 
L 0 -0 
z
" style="fill: #ffffff"/>
  </g>
  <g id="axes_1">
   <g id="patch_2">
    <path d="M 314.1 307.380937 
C 342.216833 307.380937 369.185858 296.210001 389.067461 276.328398 
C 408.949064 256.446795 420.12 229.47777 420.12 201.360937 
C 420.12 173.244105 408.949064 146.27508 389.067461 126.393477 
C 369.185858 106.511874 342.216833 95.340937 314.1 95.340937 
C 285.983167 95.340937 259.014142 106.511874 239.132539 126.393477 
C 219.250936 146.27508 208.08 173.244105 208.08 201.360937 
C 208.08 229.47777 219.250936 256.446795 239.132539 276.328398 
C 259.014142 296.210001 285.983167 307.380937 314.1 307.380937 
z
" clip-path="url(#p5883eacf98)" style="fill: #800080; opacity: 0.3; stroke: #800080; stroke-linejoin: miter"/>
   </g>
   <g id="patch_3">
    <path d="M 286.2 424.560938 
C 308.397499 424.560938 329.688835 415.741777 345.384838 400.045775 
C 361.08084 384.349773 369.9 363.058437 369.9 340.860937 
C 369.9 318.663438 361.08084 297.372102 345.384838 281.6761 
C 329.688835 265.980098 308.397499 257.160937 286.2 257.160937 
C 264.002501 257.160937 242.711165 265.980098 227.015162 281.6761 
C 211.31916 297.372102 202.5 318.663438 202.5 340.860937 
C 202.5 363.058437 211.31916 384.349773 227.015162 400.045775 
C 242.711165 415.741777 264.002501 424.560938 286.2 424.560938 
z
" clip-path="url(#p5883eacf98)" style="fill: #ff0000; opacity: 0.3; stroke: #ff0000; stroke-linejoin: miter"/>
   </g>
   <g id="patch_4">
    <path d="M 397.8 385.500937 
C 419.997499 385.500937 441.288835 376.681777 456.984838 360.985775 
C 472.68084 345.289773 481.5 323.998437 481.5 301.800937 
C 481.5 279.603438 472.68084 258.312102 456.984838 242.6161 
C 441.288835 226.920098 419.997499 218.100937 397.8 218.100937 
C 375.602501 218.100937 354.311165 226.920098 338.615162 242.6161 
C 322.91916 258.312102 314.1 279.603438 314.1 301.800937 
C 314.1 323.998437 322.91916 345.289773 338.615162 360.985775 
C 354.311165 376.681777 375.602501 385.500937 397.8 385.500937 
z
" clip-path="url(#p5883eacf98)" style="fill: #808080; opacity: 0.3; stroke-dasharray: 3.7,1.6; stroke-dashoffset: 0; stroke: #808080; stroke-linejoin: miter"/>
   </g>
   <g id="patch_5">
    <path d="M 258.3 162.300937 
C 277.537833 162.300937 295.990324 154.657665 309.593526 141.054463 
C 323.196728 127.451261 330.84 108.99877 330.84 89.760937 
C 330.84 70.523105 323.196728 52.070614 309.593526 38.467412 
C 295.990324 24.86421 277.537833 17.220937 258.3 17.220937 
C 239.062167 17.220937 220.609676 24.86421 207.006474 38.467412 
C 193.403272 52.070614 185.76 70.523105 185.76 89.760937 
C 185.76 108.99877 193.403272 127.451261 207.006474 141.054463 
C 220.609676 154.657665 239.062167 162.300937 258.3 162.300937 
z
" clip-path="url(#p5883eacf98)" style="fill: #ffa500; opacity: 0.3; stroke-dasharray: 3.7,1.6; stroke-dashoffset: 0; stroke: #ffa500; stroke-linejoin: miter"/>
   </g>
   <g id="patch_6">
    <path d="M 314.1 307.380937 
C 342.216833 307.380937 369.185858 296.210001 389.067461 276.328398 
C 408.949064 256.446795 420.12 229.47777 420.12 201.360937 
C 420.12 173.244105 408.949064 146.27508 389.067461 126.393477 
C 369.185858 106.511874 342.216833 95.340937 314.1 95.340937 
C 285.983167 95.340937 259.014142 106.511874 239.132539 126.393477 
C 219.250936 146.27508 208.08 173.244105 208.08 201.360937 
C 208.08 229.47777 219.250936 256.446795 239.132539 276.328398 
C 259.014142 296.210001 285.983167 307.380937 314.1 307.380937 
L 314.1 307.380937 
z
" clip-path="url(#p5883eacf98)" style="fill: none; opacity: 0.9; stroke: #800080; stroke-linejoin: miter"/>
   </g>
   <g id="patch_7">
    <path d="M 286.2 424.560938 
C 308.397499 424.560938 329.688835 415.741777 345.384838 400.045775 
C 361.08084 384.349773 369.9 363.058437 369.9 340.860937 
C 369.9 318.663438 361.08084 297.372102 345.384838 281.6761 
C 329.688835 265.980098 308.397499 257.160937 286.2 257.160937 
C 264.002501 257.160937 242.711165 265.980098 227.015162 281.6761 
C 211.31916 297.372102 202.5 318.663438 202.5 340.860937 
C 202.5 363.058437 211.31916 384.349773 227.015162 400.045775 
C 242.711165 415.741777 264.002501 424.560938 286.2 424.560938 
L 286.2 424.560938 
z
" clip-path="url(#p5883eacf98)" style="fill: none; opacity: 0.9; stroke: #ff0000; stroke-linejoin: miter"/>
   </g>
   <g id="patch_8">
    <path d="M 397.8 385.500937 
C 419.997499 385.500937 441.288835 376.681777 456.984838 360.985775 
C 472.68084 345.289773 481.5 323.998437 481.5 301.800937 
C 481.5 279.603438 472.68084 258.312102 456.984838 242.6161 
C 441.288835 226.920098 419.997499 218.100937 397.8 218.100937 
C 375.602501 218.100937 354.311165 226.920098 338.615162 242.6161 
C 322.91916 258.312102 314.1 279.603438 314.1 301.800937 
C 314.1 323.998437 322.91916 345.289773 338.615162 360.985775 
C 354.311165 376.681777 375.602501 385.500937 397.8 385.500937 
L 397.8 385.500937 
z
" clip-path="url(#p5883eacf98)" style="fill: none; opacity: 0.9; stroke-dasharray: 3.7,1.6; stroke-dashoffset: 0; stroke: #808080; stroke-linejoin: miter"/>
   </g>
   <g id="patch_9">
    <path d="M 258.3 162.300937 
C 277.537833 162.300937 295.990324 154.657665 309.593526 141.054463 
C 323.196728 127.451261 330.84 108.99877 330.84 89.760937 
C 330.84 70.523105 323.196728 52.070614 309.593526 38.467412 
C 295.990324 24.86421 277.537833 17.220937 258.3 17.220937 
C 239.062167 17.220937 220.609676 24.86421 207.006474 38.467412 
C 193.403272 52.070614 185.76 70.523105 185.76 89.760937 
C 185.76 108.99877 193.403272 127.451261 207.006474 141.054463 
C 220.609676 154.657665 239.062167 162.300937 258.3 162.300937 
L 258.3 162.300937 
z
" clip-path="url(#p5883eacf98)" style="fill: none; opacity: 0.9; stroke-dasharray: 3.7,1.6; stroke-dashoffset: 0; stroke: #ffa500; stroke-linejoin: miter"/>
   </g>
   <g id="text_1">
    <!-- $Y$ -->
    <g style="fill: #262626" transform="translate(309.76 204.980156) scale(0.14 -0.14)">
     <defs>
      <path id="DejaVuSans-Oblique-59" d="M 403 4666 
L 1081 4666 
L 1953 2747 
L 3616 4666 
L 4325 4666 
L 2209 2222 
L 1778 0 
L 1147 0 
L 1575 2222 
L 403 4666 
z
" transform="scale(0.015625)"/>
     </defs>
     <use xlink:href="#DejaVuSans-Oblique-59" transform="translate(0 0.09375)"/>
    </g>
   </g>
   <g id="text_2">
    <!-- $X_1$ -->
    <g style="fill: #262626" transform="translate(278.08 344.480156) scale(0.14 -0.14)">
     <defs>
      <path id="DejaVuSans-Oblique-58" d="M 878 4666 
L 1516 4666 
L 2316 2981 
L 3763 4666 
L 4500 4666 
L 2578 2438 
L 3738 0 
L 3103 0 
L 2163 1966 
L 459 0 
L -275 0 
L 1906 2509 
L 878 4666 
z
" transform="scale(0.015625)"/>
      <path id="DejaVuSans-31" d="M 794 531 
L 1825 531 
L 1825 4091 
L 703 3866 
L 703 4441 
L 1819 4666 
L 2450 4666 
L 2450 531 
L 3481 531 
L 3481 0 
L 794 0 
L 794 531 
z
" transform="scale(0.015625)"/>
     </defs>
     <use xlink:href="#DejaVuSans-Oblique-58" transform="translate(0 0.09375)"/>
     <use xlink:href="#DejaVuSans-31" transform="translate(68.505859 -16.3125) scale(0.7)"/>
    </g>
   </g>
   <g id="text_3">
    <!-- $X_2$ -->
    <g style="fill: #262626" transform="translate(395.26 311.000156) scale(0.14 -0.14)">
     <defs>
      <path id="DejaVuSans-32" d="M 1228 531 
L 3431 531 
L 3431 0 
L 469 0 
L 469 531 
Q 828 903 1448 1529 
Q 2069 2156 2228 2338 
Q 2531 2678 2651 2914 
Q 2772 3150 2772 3378 
Q 2772 3750 2511 3984 
Q 2250 4219 1831 4219 
Q 1534 4219 1204 4116 
Q 875 4013 500 3803 
L 500 4441 
Q 881 4594 1212 4672 
Q 1544 4750 1819 4750 
Q 2544 4750 2975 4387 
Q 3406 4025 3406 3419 
Q 3406 3131 3298 2873 
Q 3191 2616 2906 2266 
Q 2828 2175 2409 1742 
Q 1991 1309 1228 531 
z
" transform="scale(0.015625)"/>
     </defs>
     <use xlink:href="#DejaVuSans-Oblique-58" transform="translate(0 0.09375)"/>
     <use xlink:href="#DejaVuSans-32" transform="translate(68.505859 -16.3125) scale(0.7)"/>
    </g>
   </g>
   <g id="text_4">
    <!-- $X_3$ -->
    <g style="fill: #262626" transform="translate(250.18 82.220156) scale(0.14 -0.14)">
     <defs>
      <path id="DejaVuSans-33" d="M 2597 2516 
Q 3050 2419 3304 2112 
Q 3559 1806 3559 1356 
Q 3559 666 3084 287 
Q 2609 -91 1734 -91 
Q 1441 -91 1130 -33 
Q 819 25 488 141 
L 488 750 
Q 750 597 1062 519 
Q 1375 441 1716 441 
Q 2309 441 2620 675 
Q 2931 909 2931 1356 
Q 2931 1769 2642 2001 
Q 2353 2234 1838 2234 
L 1294 2234 
L 1294 2753 
L 1863 2753 
Q 2328 2753 2575 2939 
Q 2822 3125 2822 3475 
Q 2822 3834 2567 4026 
Q 2313 4219 1838 4219 
Q 1578 4219 1281 4162 
Q 984 4106 628 3988 
L 628 4550 
Q 988 4650 1302 4700 
Q 1616 4750 1894 4750 
Q 2613 4750 3031 4423 
Q 3450 4097 3450 3541 
Q 3450 3153 3228 2886 
Q 3006 2619 2597 2516 
z
" transform="scale(0.015625)"/>
     </defs>
     <use xlink:href="#DejaVuSans-Oblique-58" transform="translate(0 0.09375)"/>
     <use xlink:href="#DejaVuSans-33" transform="translate(68.505859 -16.3125) scale(0.7)"/>
    </g>
   </g>
   <g id="text_5">
    <!-- Пропущені змінні -->
    <g style="fill: #262626" transform="translate(7.2 17.220937) scale(0.14 -0.14)">
     <defs>
      <path id="ArialMT-41f" d="M 500 4581 
L 4103 4581 
L 4103 0 
L 3494 0 
L 3494 4041 
L 1106 4041 
L 1106 0 
L 500 0 
L 500 4581 
z
" transform="scale(0.015625)"/>
      <path id="ArialMT-440" d="M 422 -1272 
L 422 3319 
L 934 3319 
L 934 2888 
Q 1116 3141 1344 3267 
Q 1572 3394 1897 3394 
Q 2322 3394 2647 3175 
Q 2972 2956 3137 2557 
Q 3303 2159 3303 1684 
Q 3303 1175 3120 767 
Q 2938 359 2589 142 
Q 2241 -75 1856 -75 
Q 1575 -75 1351 44 
Q 1128 163 984 344 
L 984 -1272 
L 422 -1272 
z
M 931 1641 
Q 931 1000 1190 694 
Q 1450 388 1819 388 
Q 2194 388 2461 705 
Q 2728 1022 2728 1688 
Q 2728 2322 2467 2637 
Q 2206 2953 1844 2953 
Q 1484 2953 1207 2617 
Q 931 2281 931 1641 
z
" transform="scale(0.015625)"/>
      <path id="ArialMT-43e" d="M 213 1659 
Q 213 2581 725 3025 
Q 1153 3394 1769 3394 
Q 2453 3394 2887 2945 
Q 3322 2497 3322 1706 
Q 3322 1066 3130 698 
Q 2938 331 2570 128 
Q 2203 -75 1769 -75 
Q 1072 -75 642 372 
Q 213 819 213 1659 
z
M 791 1659 
Q 791 1022 1069 705 
Q 1347 388 1769 388 
Q 2188 388 2466 706 
Q 2744 1025 2744 1678 
Q 2744 2294 2464 2611 
Q 2184 2928 1769 2928 
Q 1347 2928 1069 2612 
Q 791 2297 791 1659 
z
" transform="scale(0.015625)"/>
      <path id="ArialMT-43f" d="M 425 3319 
L 3044 3319 
L 3044 0 
L 2481 0 
L 2481 2853 
L 988 2853 
L 988 0 
L 425 0 
L 425 3319 
z
" transform="scale(0.015625)"/>
      <path id="ArialMT-443" d="M 397 -1278 
L 334 -750 
Q 519 -800 656 -800 
Q 844 -800 956 -737 
Q 1069 -675 1141 -563 
Q 1194 -478 1313 -144 
Q 1328 -97 1363 -6 
L 103 3319 
L 709 3319 
L 1400 1397 
Q 1534 1031 1641 628 
Q 1738 1016 1872 1384 
L 2581 3319 
L 3144 3319 
L 1881 -56 
Q 1678 -603 1566 -809 
Q 1416 -1088 1222 -1217 
Q 1028 -1347 759 -1347 
Q 597 -1347 397 -1278 
z
" transform="scale(0.015625)"/>
      <path id="ArialMT-449" d="M 441 3319 
L 1003 3319 
L 1003 463 
L 2284 463 
L 2284 3319 
L 2847 3319 
L 2847 463 
L 4131 463 
L 4131 3319 
L 4691 3319 
L 4691 463 
L 5063 463 
L 5063 -941 
L 4597 -941 
L 4597 0 
L 441 0 
L 441 3319 
z
" transform="scale(0.015625)"/>
      <path id="ArialMT-435" d="M 2694 1069 
L 3275 997 
Q 3138 488 2766 206 
Q 2394 -75 1816 -75 
Q 1088 -75 661 373 
Q 234 822 234 1631 
Q 234 2469 665 2931 
Q 1097 3394 1784 3394 
Q 2450 3394 2872 2941 
Q 3294 2488 3294 1666 
Q 3294 1616 3291 1516 
L 816 1516 
Q 847 969 1125 678 
Q 1403 388 1819 388 
Q 2128 388 2347 550 
Q 2566 713 2694 1069 
z
M 847 1978 
L 2700 1978 
Q 2663 2397 2488 2606 
Q 2219 2931 1791 2931 
Q 1403 2931 1139 2672 
Q 875 2413 847 1978 
z
" transform="scale(0.015625)"/>
      <path id="ArialMT-43d" d="M 425 3319 
L 988 3319 
L 988 1938 
L 2547 1938 
L 2547 3319 
L 3109 3319 
L 3109 0 
L 2547 0 
L 2547 1472 
L 988 1472 
L 988 0 
L 425 0 
L 425 3319 
z
" transform="scale(0.015625)"/>
      <path id="ArialMT-456" d="M 425 3934 
L 425 4581 
L 988 4581 
L 988 3934 
L 425 3934 
z
M 425 0 
L 425 3319 
L 988 3319 
L 988 0 
L 425 0 
z
" transform="scale(0.015625)"/>
      <path id="ArialMT-20" transform="scale(0.015625)"/>
      <path id="ArialMT-437" d="M 1156 1500 
L 1156 1941 
Q 1513 1944 1642 1969 
Q 1772 1994 1887 2119 
Q 2003 2244 2003 2431 
Q 2003 2659 1851 2795 
Q 1700 2931 1459 2931 
Q 984 2931 794 2372 
L 259 2459 
Q 509 3394 1466 3394 
Q 1997 3394 2298 3103 
Q 2600 2813 2600 2409 
Q 2600 2003 2206 1763 
Q 2456 1628 2581 1420 
Q 2706 1213 2706 928 
Q 2706 481 2381 203 
Q 2056 -75 1472 -75 
Q 338 -75 156 934 
L 684 1047 
Q 756 728 976 553 
Q 1197 378 1481 378 
Q 1766 378 1955 539 
Q 2144 700 2144 950 
Q 2144 1144 2025 1287 
Q 1906 1431 1772 1467 
Q 1638 1503 1284 1503 
Q 1256 1503 1156 1500 
z
" transform="scale(0.015625)"/>
      <path id="ArialMT-43c" d="M 438 3319 
L 1313 3319 
L 2184 663 
L 3153 3319 
L 3963 3319 
L 3963 0 
L 3400 0 
L 3400 2672 
L 2419 0 
L 1916 0 
L 988 2800 
L 988 0 
L 438 0 
L 438 3319 
z
" transform="scale(0.015625)"/>
     </defs>
     <use xlink:href="#ArialMT-41f"/>
     <use xlink:href="#ArialMT-440" x="71.875"/>
     <use xlink:href="#ArialMT-43e" x="127.490234"/>
     <use xlink:href="#ArialMT-43f" x="183.105469"/>
     <use xlink:href="#ArialMT-443" x="237.255859"/>
     <use xlink:href="#ArialMT-449" x="287.255859"/>
     <use xlink:href="#ArialMT-435" x="368.40625"/>
     <use xlink:href="#ArialMT-43d" x="424.021484"/>
     <use xlink:href="#ArialMT-456" x="479.246094"/>
     <use xlink:href="#ArialMT-20" x="501.462891"/>
     <use xlink:href="#ArialMT-437" x="529.246094"/>
     <use xlink:href="#ArialMT-43c" x="575.095703"/>
     <use xlink:href="#ArialMT-456" x="643.845703"/>
     <use xlink:href="#ArialMT-43d" x="666.0625"/>
     <use xlink:href="#ArialMT-43d" x="721.287109"/>
     <use xlink:href="#ArialMT-456" x="776.511719"/>
    </g>
   </g>
  </g>
 </g>
 <defs>
  <clipPath id="p5883eacf98">
   <rect x="7.2" y="11.640937" width="558" height="424.08"/>
  </clipPath>
 </defs>
</svg>
