<?xml version="1.0" encoding="UTF-8"?>
<svg xmlns="http://www.w3.org/2000/svg" xmlns:xlink="http://www.w3.org/1999/xlink" width="720" height="576" viewBox="0 0 720 576">
<defs>
<clipPath id="clip-0">
<path clip-rule="nonzero" d="M 0 53.792969 L 720 53.792969 L 720 522.207031 L 0 522.207031 Z M 0 53.792969 "/>
</clipPath>
<clipPath id="clip-1">
<path clip-rule="nonzero" d="M 240 53.792969 L 720 53.792969 L 720 522.207031 L 240 522.207031 Z M 240 53.792969 "/>
</clipPath>
<clipPath id="clip-2">
<path clip-rule="nonzero" d="M 112 53.792969 L 410 53.792969 L 410 170 L 112 170 Z M 112 53.792969 "/>
</clipPath>
<clipPath id="clip-3">
<path clip-rule="nonzero" d="M 0 53.792969 L 139 53.792969 L 139 279 L 0 279 Z M 0 53.792969 "/>
</clipPath>
<clipPath id="clip-4">
<path clip-rule="nonzero" d="M 19 316 L 314 316 L 314 522.207031 L 19 522.207031 Z M 19 316 "/>
</clipPath>
<clipPath id="clip-5">
<path clip-rule="nonzero" d="M 87 505 L 280 505 L 280 522.207031 L 87 522.207031 Z M 87 505 "/>
</clipPath>
<clipPath id="clip-6">
<path clip-rule="nonzero" d="M 86 505 L 281 505 L 281 522.207031 L 86 522.207031 Z M 86 505 "/>
</clipPath>
<clipPath id="clip-7">
<path clip-rule="nonzero" d="M 0 458 L 1 458 L 1 522.207031 L 0 522.207031 Z M 0 458 "/>
</clipPath>
<clipPath id="clip-8">
<path clip-rule="nonzero" d="M 0 457 L 1 457 L 1 522.207031 L 0 522.207031 Z M 0 457 "/>
</clipPath>
<clipPath id="clip-9">
<path clip-rule="nonzero" d="M 0 413 L 107 413 L 107 522.207031 L 0 522.207031 Z M 0 413 "/>
</clipPath>
<clipPath id="clip-10">
<path clip-rule="nonzero" d="M 240 53.792969 L 720 53.792969 L 720 522.207031 L 240 522.207031 Z M 240 53.792969 "/>
</clipPath>
</defs>
<rect x="-72" y="-57.6" width="864" height="691.2" fill="rgb(100%, 100%, 100%)" fill-opacity="1"/>
<g clip-path="url(#clip-0)">
<path fill-rule="nonzero" fill="rgb(85.098039%, 94.117647%, 100%)" fill-opacity="1" stroke-width="0.75" stroke-linecap="round" stroke-linejoin="round" stroke="rgb(0%, 0%, 0%)" stroke-opacity="1" stroke-miterlimit="10" d="M 0 522.207031 L 720 522.207031 L 720 53.792969 L 0 53.792969 Z M 0 522.207031 "/>
</g>
<g clip-path="url(#clip-1)">
<path fill-rule="evenodd" fill="rgb(98.039216%, 79.607843%, 65.098039%)" fill-opacity="1" stroke-width="0.426791" stroke-linecap="butt" stroke-linejoin="round" stroke="rgb(34.901961%, 34.901961%, 34.901961%)" stroke-opacity="1" stroke-miterlimit="10" d="M 921.3125 402.820312 L 907.085938 430.941406 L 876.820312 438.753906 L 845.789062 487.699219 L 874.167969 532.699219 L 871.09375 564.636719 L 905.179688 620.480469 L 886.539062 639.589844 L 881.183594 651.652344 L 867.371094 648.414062 L 845.917969 619.613281 L 837.140625 618.023438 L 817.519531 607.035156 L 807.960938 587.578125 L 778.84375 577.65625 L 759.914062 585.101562 L 754.441406 576.289062 L 711.9375 553.554688 L 665.976562 545.882812 L 639.585938 537.777344 L 635.78125 543.375 L 595.976562 503.308594 L 560.359375 485.421875 L 533.394531 457.566406 L 556.113281 449.988281 L 582.019531 410.332031 L 564.5625 391.570312 L 610.574219 372.21875 L 609.75 361.851562 L 581.726562 369.492188 L 582.710938 348.429688 L 598.804688 335.191406 L 629.015625 331.714844 L 633.925781 315.902344 L 627.027344 289.757812 L 639.707031 264.929688 L 639.339844 251.007812 L 593.320312 235.578125 L 575.078125 236.09375 L 555.8125 213.886719 L 531.855469 221.394531 L 492.207031 204.726562 L 492.886719 195.394531 L 481.78125 174.835938 L 456.890625 172.539062 L 454.304688 157.820312 L 462.101562 148.21875 L 442.148438 121.375 L 409.777344 125.957031 L 400.296875 123.574219 L 392.410156 134.359375 L 380.75 132.441406 L 373.074219 102.078125 L 365.742188 86.339844 L 371.75 81.90625 L 396.9375 83.554688 L 409.085938 73.183594 L 400.09375 60.542969 L 379.042969 52.199219 L 380.921875 43.632812 L 368.214844 34.984375 L 348.644531 3.941406 L 355.335938 -8.851562 L 352.277344 -31.109375 L 321.757812 -42.417969 L 305.375 -36.757812 L 300.941406 -48.527344 L 268.074219 -60.417969 L 258.039062 -88.402344 L 255.375 -111.398438 L 240.335938 -122.316406 L 253.710938 -137.363281 L 244.453125 -181.585938 L 266.667969 -208.910156 L 261.96875 -217.1875 L 297.449219 -243.390625 L 264.742188 -265.9375 L 331.585938 -326.460938 L 360.582031 -353.851562 L 372.324219 -378.035156 L 326.113281 -410.519531 L 338.878906 -441.417969 L 310.773438 -476.703125 L 331.789062 -517.355469 L 295.480469 -571.328125 L 324.289062 -607.078125 L 276.476562 -638.671875 L 281.035156 -671.871094 L 306.25 -676.242188 L 359.367188 -695.261719 L 359.371094 -695.261719 L 391.574219 -711.757812 L 442.859375 -683.09375 L 528.355469 -671.808594 L 646.3125 -618.179688 L 670.273438 -595.644531 L 672.335938 -564.085938 L 637.679688 -539.175781 L 586.703125 -526.53125 L 447.332031 -562.570312 L 424.410156 -556.546875 L 475.308594 -521.820312 L 477.300781 -499.820312 L 479.339844 -451.371094 L 519.53125 -436.914062 L 543.925781 -424.601562 L 547.960938 -447.59375 L 529.152344 -467.96875 L 549.023438 -485.929688 L 624.492188 -456.417969 L 650.785156 -467.96875 L 629.773438 -502.695312 L 702.527344 -549.136719 L 731.34375 -546.402344 L 760.492188 -529.828125 L 778.675781 -562.417969 L 752.644531 -590.679688 L 767.929688 -619.039062 L 744.980469 -648.449219 L 832.304688 -633.238281 L 850.140625 -606.683594 L 810.613281 -600.832031 L 810.824219 -574.445312 L 835.398438 -558.210938 L 883.632812 -568.496094 L 891.269531 -598.738281 L 956.484375 -621.320312 L 1065.429688 -662.039062 L 1088.976562 -659.703125 L 1058.199219 -630.929688 L 1096.925781 -625.984375 L 1119.289062 -642.183594 L 1177.804688 -643.492188 L 1224.164062 -663.148438 L 1259.738281 -634.585938 L 1295.214844 -665.988281 L 1262.503906 -693.457031 L 1278.734375 -709.105469 L 1370.957031 -694.753906 L 1414.167969 -679.933594 L 1527.308594 -625.761719 L 1548.175781 -650.574219 L 1516.453125 -675.644531 L 1515.539062 -685.703125 L 1477.914062 -690.355469 L 1488.207031 -712.835938 L 1471.511719 -749.828125 L 1470.566406 -765.003906 L 1528.179688 -807.941406 L 1548.667969 -851.035156 L 1571.882812 -860.359375 L 1654.535156 -847.855469 L 1661.046875 -821.480469 L 1631.453125 -783.023438 L 1650.871094 -767.90625 L 1660.914062 -734.761719 L 1653.824219 -669.789062 L 1688.261719 -640.726562 L 1674.863281 -609.074219 L 1613.714844 -541.726562 L 1649.398438 -534.742188 L 1661.816406 -551.8125 L 1696.164062 -563.988281 L 1704.453125 -587.449219 L 1731.472656 -610.027344 L 1713.28125 -636.984375 L 1727.847656 -668.289062 L 1693.710938 -672.1875 L 1686.203125 -698.558594 L 1711.113281 -746.171875 L 1670.570312 -784.835938 L 1726.441406 -816.792969 L 1719.214844 -850.507812 L 1734.785156 -851.585938 L 1751.191406 -825.296875 L 1738.871094 -779.542969 L 1772.28125 -770.878906 L 1758.046875 -805.074219 L 1810.292969 -823.714844 L 1875.082031 -826.226562 L 1932.773438 -799.191406 L 1905.011719 -838.683594 L 1901.902344 -889.195312 L 1956.1875 -898.765625 L 2031.277344 -896.675781 L 2098.933594 -902.886719 L 2073.558594 -927.671875 L 2109.6875 -958.8125 L 2145.554688 -960.117188 L 2206.253906 -983.640625 L 2288.691406 -989.960938 L 2299.105469 -1002.945312 L 2381.082031 -1007.347656 L 2406.625 -996.703125 L 2476.691406 -1021.898438 L 2534.042969 -1021.109375 L 2542.648438 -1041.574219 L 2572.480469 -1061.757812 L 2646.179688 -1081.214844 L 2699.722656 -1065.851562 L 2657.210938 -1054.164062 L 2727.925781 -1046.902344 L 2736.351562 -1023.46875 L 2764.878906 -1035.007812 L 2856.148438 -1034.375 L 2926.523438 -1011.246094 L 2951.582031 -993.484375 L 2943.816406 -968.835938 L 2909.28125 -954.804688 L 2827.238281 -928.480469 L 2803.785156 -914.414062 L 2842.496094 -907.773438 L 2888.675781 -895.8125 L 2916.785156 -904.785156 L 2932.707031 -874.347656 L 2946.417969 -886.667969 L 2996.339844 -894.160156 L 3096.507812 -886.328125 L 3104.113281 -864.152344 L 3234.628906 -857.097656 L 3236.414062 -893.3125 L 3302.667969 -885.015625 L 3352.503906 -885.273438 L 3402.917969 -860.296875 L 3417.289062 -829.953125 L 3398.820312 -810.097656 L 3438.03125 -772.785156 L 3487.125 -753.53125 L 3517.25 -803.285156 L 3567.332031 -781.953125 L 3620.535156 -794.699219 L 3680.964844 -780.113281 L 3703.957031 -793.410156 L 3755.023438 -786.761719 L 3732.488281 -830.78125 L 3773.703125 -851.320312 L 4055.667969 -820.53125 L 4082.242188 -792.386719 L 4163.964844 -756.148438 L 4290.027344 -765.121094 L 4352.179688 -757.3125 L 4378.171875 -737.707031 L 4374.375 -703.035156 L 4412.832031 -689.535156 L 4454.621094 -699.242188 L 4509.984375 -700.484375 L 4568.921875 -691.179688 L 4628.089844 -696.429688 L 4682.472656 -654.28125 L 4721.160156 -669.445312 L 4695.914062 -699.75 L 4709.816406 -720.816406 L 4809.417969 -707.558594 L 4874.359375 -710.394531 L 4964.144531 -687.765625 L 5007.851562 -667.078125 L 5007.851562 -478.175781 L 5007.625 -477.921875 L 4967.488281 -457.085938 L 4927.03125 -460.5625 L 4955.183594 -435.324219 L 4973.765625 -396.253906 L 4988.191406 -383.484375 L 4991.816406 -363.867188 L 4983.757812 -351.3125 L 4925.566406 -361.636719 L 4838.308594 -325.945312 L 4810.550781 -320.421875 L 4762.78125 -287.105469 L 4717.464844 -258 L 4705.988281 -236.457031 L 4661.332031 -269.257812 L 4579.992188 -232.035156 L 4565.789062 -249.648438 L 4535.714844 -229.335938 L 4493.960938 -235.835938 L 4483.902344 -204.652344 L 4446.449219 -158.765625 L 4447.5625 -139.601562 L 4483.117188 -128.976562 L 4478.933594 -59.949219 L 4449.953125 -58.195312 L 4436.585938 -18.53125 L 4449.574219 1.882812 L 4394.980469 26.105469 L 4384.148438 80.242188 L 4337.605469 91.804688 L 4328.25 139.980469 L 4283.25 184.152344 L 4271.703125 151.488281 L 4258.335938 82.308594 L 4240.914062 -23.050781 L 4255.921875 -88.8125 L 4282.261719 -117.109375 L 4283.890625 -139.265625 L 4332.40625 -149.875 L 4388.171875 -209.570312 L 4441.914062 -258.324219 L 4498.035156 -296.15625 L 4523.128906 -363 L 4485.195312 -359 L 4466.445312 -319.941406 L 4387.261719 -267.867188 L 4361.6875 -326.175781 L 4281.09375 -310.074219 L 4202.960938 -230.59375 L 4228.738281 -201.519531 L 4159.0625 -189.140625 L 4110.792969 -184.257812 L 4113.054688 -218.542969 L 4064.527344 -225.738281 L 4025.847656 -202.445312 L 3930.394531 -210.59375 L 3827.703125 -196.542969 L 3726.574219 -103.988281 L 3606.933594 7.835938 L 3656.117188 13.8125 L 3671.46875 43.507812 L 3701.792969 54.046875 L 3721.769531 30.363281 L 3756.011719 33.4375 L 3801.085938 85.597656 L 3802.148438 125.941406 L 3777.738281 173.3125 L 3775.105469 229.933594 L 3761.023438 305.742188 L 3713.96875 374.355469 L 3703.507812 407.152344 L 3661.132812 462.367188 L 3619.082031 517.105469 L 3598.914062 545.121094 L 3557.316406 572.941406 L 3537.628906 573.554688 L 3518.015625 550.507812 L 3476.113281 585.207031 L 3471.25 600.984375 L 3466.878906 592.6875 L 3466.6875 568.601562 L 3482.632812 567.320312 L 3487.125 511.296875 L 3478.902344 470.6875 L 3505.699219 453.941406 L 3543.585938 462.339844 L 3564.582031 416.210938 L 3575.28125 364.265625 L 3587.410156 346.910156 L 3603.816406 304.25 L 3552.21875 318.226562 L 3525.15625 336.929688 L 3477.71875 336.875 L 3465.078125 292.324219 L 3428.097656 258.617188 L 3373.765625 243.460938 L 3362.214844 197.015625 L 3351.339844 167.898438 L 3339.640625 147.492188 L 3320.347656 99.671875 L 3292.933594 82.210938 L 3246.207031 68.09375 L 3204.816406 69.375 L 3166.023438 77.925781 L 3140.234375 101.515625 L 3157.367188 112.785156 L 3157.753906 138.964844 L 3140.390625 154.164062 L 3112.210938 204.453125 L 3112.492188 225.316406 L 3068.5 255.28125 L 3031.023438 237.378906 L 2993.777344 241.332031 L 2977.429688 225.441406 L 2958.710938 220.320312 L 2912.980469 253.734375 L 2871.882812 261.585938 L 2843.183594 273.339844 L 2803.863281 265.617188 L 2774.914062 266.109375 L 2755.964844 241.875 L 2725.390625 219.085938 L 2694.101562 212.839844 L 2654.609375 219.039062 L 2625.105469 227.828125 L 2580.753906 207.882812 L 2574.800781 172.355469 L 2538.097656 160.171875 L 2509.757812 154.617188 L 2474.785156 135.015625 L 2442.449219 184.15625 L 2455.125 212.066406 L 2424.78125 245.082031 L 2379.644531 233.160156 L 2348.484375 231.457031 L 2327.621094 209.308594 L 2295.046875 208.609375 L 2267.902344 194.058594 L 2220.417969 216.359375 L 2160.847656 257.199219 L 2127.933594 265.417969 L 2115.71875 269.316406 L 2099.152344 240.3125 L 2058.9375 246.65625 L 2045.648438 226.53125 L 2023.820312 217.328125 L 2008.796875 189.929688 L 1991.558594 181.398438 L 1946.699219 193.582031 L 1903.691406 166.265625 L 1887.054688 191.089844 L 1817.292969 70.671875 L 1777.464844 34.039062 L 1788.890625 19.171875 L 1710.644531 63.917969 L 1680.703125 66.621094 L 1683.289062 40.742188 L 1643.191406 24.570312 L 1610.597656 36.113281 L 1600.769531 -13.03125 L 1544.664062 -23.25 L 1516.597656 -3.582031 L 1438.480469 13.921875 L 1423.234375 25.636719 L 1306.414062 42.136719 L 1292.101562 58.316406 L 1314.636719 90.796875 L 1284.667969 103.125 L 1290.515625 116.042969 L 1260.550781 139.140625 L 1311.140625 171.75 L 1303.320312 194.203125 L 1259.46875 192.160156 L 1250.398438 206.230469 L 1210.46875 181.660156 L 1160.976562 182.613281 L 1127.851562 202.613281 L 1090.886719 183.433594 L 1022.074219 150.601562 L 973.308594 151.828125 L 908.863281 203.402344 L 904.976562 238.03125 L 872.871094 210.535156 L 847.964844 262.628906 L 857.082031 272.300781 L 839.0625 308.234375 L 865.558594 340.398438 L 888.722656 339.074219 L 908.625 370.753906 L 905.457031 395.152344 Z M 921.3125 402.820312 "/>
</g>
<path fill-rule="evenodd" fill="rgb(98.039216%, 79.607843%, 65.098039%)" fill-opacity="1" stroke-width="0.426791" stroke-linecap="butt" stroke-linejoin="round" stroke="rgb(34.901961%, 34.901961%, 34.901961%)" stroke-opacity="1" stroke-miterlimit="10" d="M 432.261719 423.085938 L 440.488281 411.34375 L 462.683594 421.511719 L 472.722656 423.382812 L 476.773438 432.746094 L 481.484375 434.191406 L 481.738281 438.292969 L 497.011719 449.730469 L 528.855469 446.886719 L 522.757812 463.800781 L 488.582031 472.015625 L 446.203125 499.445312 L 428.84375 489.800781 L 435.726562 467.523438 L 401.613281 453.644531 L 407.125 444.554688 L 437.011719 428.792969 Z M 432.261719 423.085938 "/>
<g clip-path="url(#clip-2)">
<path fill-rule="evenodd" fill="rgb(98.039216%, 79.607843%, 65.098039%)" fill-opacity="1" stroke-width="0.426791" stroke-linecap="butt" stroke-linejoin="round" stroke="rgb(34.901961%, 34.901961%, 34.901961%)" stroke-opacity="1" stroke-miterlimit="10" d="M 268.074219 -60.417969 L 300.941406 -48.527344 L 305.375 -36.757812 L 321.757812 -42.417969 L 352.277344 -31.109375 L 355.335938 -8.851562 L 348.644531 3.941406 L 368.214844 34.984375 L 380.921875 43.632812 L 379.042969 52.199219 L 400.09375 60.542969 L 409.085938 73.183594 L 396.9375 83.554688 L 371.75 81.90625 L 365.742188 86.339844 L 373.074219 102.078125 L 380.75 132.441406 L 353.953125 135.253906 L 344.332031 145.664062 L 342.324219 169.527344 L 329.90625 164.945312 L 301.734375 167.21875 L 293.550781 156.132812 L 281.835938 164.398438 L 270.097656 157.546875 L 245.511719 156.59375 L 210.667969 145.214844 L 179.132812 141.5 L 154.949219 142.550781 L 137.839844 155.402344 L 122.914062 157.25 L 122.320312 136.140625 L 112.6875 114.171875 L 131.410156 104.492188 L 131.589844 85.59375 L 122.929688 67.554688 L 121.574219 46.582031 L 151.75 46.902344 L 185.644531 29.039062 L 192.890625 2.273438 L 218.484375 -12.910156 L 215.550781 -34.148438 L 234.535156 -42.125 Z M 268.074219 -60.417969 "/>
</g>
<path fill-rule="evenodd" fill="rgb(98.039216%, 79.607843%, 65.098039%)" fill-opacity="1" stroke-width="0.426791" stroke-linecap="butt" stroke-linejoin="round" stroke="rgb(34.901961%, 34.901961%, 34.901961%)" stroke-opacity="1" stroke-miterlimit="10" d="M 380.75 132.441406 L 392.410156 134.359375 L 400.296875 123.574219 L 409.777344 125.957031 L 442.148438 121.375 L 462.101562 148.21875 L 454.304688 157.820312 L 456.890625 172.539062 L 481.78125 174.835938 L 492.886719 195.394531 L 492.207031 204.726562 L 531.855469 221.394531 L 555.8125 213.886719 L 575.078125 236.09375 L 593.320312 235.578125 L 639.339844 251.007812 L 639.707031 264.929688 L 627.027344 289.757812 L 633.925781 315.902344 L 629.015625 331.714844 L 598.804688 335.191406 L 582.710938 348.429688 L 581.726562 369.492188 L 556.800781 373.285156 L 536.03125 388.625 L 506.804688 391.125 L 479.914062 408.800781 L 481.484375 434.191406 L 476.773438 432.746094 L 472.722656 423.382812 L 462.683594 421.511719 L 440.488281 411.34375 L 432.261719 423.085938 L 427.972656 417.933594 L 379.445312 405.949219 L 377.296875 388.269531 L 348.371094 394.105469 L 336.78125 420.21875 L 312.609375 455.261719 L 298.449219 447.125 L 283.777344 454.753906 L 269.847656 446.019531 L 277.707031 440.867188 L 283.160156 424.601562 L 291.707031 409.480469 L 289.496094 400.992188 L 296.027344 397.207031 L 299.101562 403.773438 L 317.5 405.160156 L 325.765625 401.652344 L 319.945312 396.847656 L 322.148438 389.78125 L 311.246094 377.726562 L 306.734375 357.902344 L 295.363281 350.148438 L 297.605469 334.078125 L 283.5 321.320312 L 270.660156 319.546875 L 247.652344 304.773438 L 226.898438 309.464844 L 219.453125 316.457031 L 206.28125 316.449219 L 198.429688 327.535156 L 175.386719 332.089844 L 164.726562 339.371094 L 150.230469 327.78125 L 130.21875 327.605469 L 110.902344 322.355469 L 97.425781 332.507812 L 95.246094 319.800781 L 77.914062 306.902344 L 84.011719 287.789062 L 92.667969 275.441406 L 99.480469 278.210938 L 91.425781 256.902344 L 119.777344 217.464844 L 135.269531 211.945312 L 138.617188 198.644531 L 122.914062 157.25 L 137.839844 155.402344 L 154.949219 142.550781 L 179.132812 141.5 L 210.667969 145.214844 L 245.511719 156.59375 L 270.097656 157.546875 L 281.835938 164.398438 L 293.550781 156.132812 L 301.734375 167.21875 L 329.90625 164.945312 L 342.324219 169.527344 L 344.332031 145.664062 L 353.953125 135.253906 Z M 380.75 132.441406 "/>
<g clip-path="url(#clip-3)">
<path fill-rule="evenodd" fill="rgb(98.039216%, 79.607843%, 65.098039%)" fill-opacity="1" stroke-width="0.426791" stroke-linecap="butt" stroke-linejoin="round" stroke="rgb(34.901961%, 34.901961%, 34.901961%)" stroke-opacity="1" stroke-miterlimit="10" d="M 121.574219 46.582031 L 122.929688 67.554688 L 131.589844 85.59375 L 131.410156 104.492188 L 112.6875 114.171875 L 122.320312 136.140625 L 122.914062 157.25 L 138.617188 198.644531 L 135.269531 211.945312 L 119.777344 217.464844 L 91.425781 256.902344 L 99.480469 278.210938 L 92.667969 275.441406 L 63 257.21875 L 40.523438 263.917969 L 25.785156 259.050781 L 7.339844 269.214844 L -8.402344 252.40625 L -21.238281 258.84375 L -23 255.980469 L -37.367188 232.632812 L -60.578125 229.769531 L -63.539062 214.921875 L -84.949219 209.621094 L -89.609375 221.863281 L -106.570312 212.054688 L -104.621094 199.007812 L -127.964844 194.882812 L -142.761719 179.621094 L -155.558594 149.34375 L -153.125 132.996094 L -160.847656 107.632812 L -172.183594 90.734375 L -163.480469 78.078125 L -170.773438 53.953125 L -149.445312 40.027344 L -100.722656 18.097656 L -61.410156 2.054688 L -30.25 10.066406 L -27.898438 21.628906 L 2.210938 22.226562 L 40.660156 27.613281 L 98.066406 26.902344 L 114.078125 31.972656 Z M 121.574219 46.582031 "/>
</g>
<path fill-rule="evenodd" fill="rgb(98.039216%, 79.607843%, 65.098039%)" fill-opacity="1" stroke-width="0.426791" stroke-linecap="butt" stroke-linejoin="round" stroke="rgb(34.901961%, 34.901961%, 34.901961%)" stroke-opacity="1" stroke-miterlimit="10" d="M 77.914062 306.902344 L 95.246094 319.800781 L 97.425781 332.507812 L 78.355469 342.457031 L 63.582031 374.613281 L 44.707031 406.765625 L 19.679688 415.710938 L 0.191406 413.613281 L -23.726562 426.074219 L -35.394531 433.160156 L -61.183594 424.042969 L -84.519531 403.707031 L -94.4375 397.871094 L -100.503906 381.863281 L -105.757812 381.339844 L -95.394531 350.8125 L -101.4375 340.535156 L -83.859375 340.445312 L -81.488281 321.066406 L -65.601562 333.207031 L -54.09375 338.378906 L -27.890625 332.570312 L -25.375 323.046875 L -12.972656 321.644531 L 2.230469 314.28125 L 5.605469 317.3125 L 20.265625 311.390625 L 27.589844 300.234375 L 37.820312 297.34375 L 71.253906 311.753906 Z M 77.914062 306.902344 "/>
<path fill-rule="evenodd" fill="rgb(98.039216%, 79.607843%, 65.098039%)" fill-opacity="1" stroke-width="0.426791" stroke-linecap="butt" stroke-linejoin="round" stroke="rgb(34.901961%, 34.901961%, 34.901961%)" stroke-opacity="1" stroke-miterlimit="10" d="M 219.453125 316.457031 L 226.898438 309.464844 L 247.652344 304.773438 L 270.660156 319.546875 L 283.5 321.320312 L 297.605469 334.078125 L 295.363281 350.148438 L 306.734375 357.902344 L 311.246094 377.726562 L 322.148438 389.78125 L 319.945312 396.847656 L 325.765625 401.652344 L 317.5 405.160156 L 299.101562 403.773438 L 296.027344 397.207031 L 289.496094 400.992188 L 291.707031 409.480469 L 283.160156 424.601562 L 277.707031 440.867188 L 269.847656 446.019531 L 264.257812 424.382812 L 267.550781 404.136719 L 266.554688 383.324219 L 248.542969 355.128906 L 238.640625 335.136719 L 228.96875 321.078125 Z M 219.453125 316.457031 "/>
<g clip-path="url(#clip-4)">
<path fill-rule="evenodd" fill="rgb(98.039216%, 79.607843%, 65.098039%)" fill-opacity="1" stroke-width="0.426791" stroke-linecap="butt" stroke-linejoin="round" stroke="rgb(34.901961%, 34.901961%, 34.901961%)" stroke-opacity="1" stroke-miterlimit="10" d="M 269.847656 446.019531 L 283.777344 454.753906 L 298.449219 447.125 L 312.609375 455.261719 L 313.335938 467.492188 L 298.195312 477.695312 L 288.714844 473.253906 L 279.980469 530.457031 L 261.625 525.476562 L 238.90625 508.242188 L 202.152344 519.265625 L 186.671875 531.359375 L 140.824219 528.863281 L 116.835938 521.46875 L 104.738281 524.941406 L 95.757812 505.445312 L 90.039062 497.183594 L 97.273438 489.179688 L 89.574219 483.277344 L 79.773438 493.902344 L 61.570312 480.125 L 59.117188 460.578125 L 40.097656 449.425781 L 36.597656 434.339844 L 19.679688 415.710938 L 44.707031 406.765625 L 63.582031 374.613281 L 78.355469 342.457031 L 97.425781 332.507812 L 110.902344 322.355469 L 130.21875 327.605469 L 150.230469 327.78125 L 164.726562 339.371094 L 175.386719 332.089844 L 198.429688 327.535156 L 206.28125 316.449219 L 219.453125 316.457031 L 228.96875 321.078125 L 238.640625 335.136719 L 248.542969 355.128906 L 266.554688 383.324219 L 267.550781 404.136719 L 264.257812 424.382812 Z M 269.847656 446.019531 "/>
</g>
<g clip-path="url(#clip-5)">
<path fill-rule="evenodd" fill="rgb(98.039216%, 79.607843%, 65.098039%)" fill-opacity="1" d="M 95.757812 505.445312 L 104.738281 524.941406 L 116.835938 521.46875 L 140.824219 528.863281 L 186.671875 531.359375 L 202.152344 519.265625 L 238.90625 508.242188 L 261.625 525.476562 L 279.980469 530.457031 L 263.777344 550.101562 L 252.375 584.015625 L 262.453125 611.066406 L 235.574219 604.707031 L 203.773438 619.625 L 203.433594 643.238281 L 175.054688 647.714844 L 153.058594 631.144531 L 128.066406 644.175781 L 104.972656 642.804688 L 102.757812 611.449219 L 87.121094 596.230469 L 92.257812 589.539062 L 88.871094 583.898438 L 94.125 568.8125 L 106.023438 553.988281 L 90.855469 533.523438 L 88.054688 516.203125 Z M 95.757812 505.445312 "/>
</g>
<g clip-path="url(#clip-6)">
<path fill="none" stroke-width="0.426791" stroke-linecap="butt" stroke-linejoin="round" stroke="rgb(34.901961%, 34.901961%, 34.901961%)" stroke-opacity="1" stroke-miterlimit="10" d="M 95.757812 505.445312 L 104.738281 524.941406 L 116.835938 521.46875 L 140.824219 528.863281 L 186.671875 531.359375 L 202.152344 519.265625 L 238.90625 508.242188 L 261.625 525.476562 L 279.980469 530.457031 L 263.777344 550.101562 L 252.375 584.015625 L 262.453125 611.066406 L 235.574219 604.707031 L 203.773438 619.625 L 203.433594 643.238281 L 175.054688 647.714844 L 153.058594 631.144531 L 128.066406 644.175781 L 104.972656 642.804688 L 102.757812 611.449219 L 87.121094 596.230469 L 92.257812 589.539062 L 88.871094 583.898438 L 94.125 568.8125 L 106.023438 553.988281 L 90.855469 533.523438 L 88.054688 516.203125 Z M 95.757812 505.445312 "/>
</g>
<path fill-rule="evenodd" fill="rgb(98.039216%, 79.607843%, 65.098039%)" fill-opacity="1" stroke-width="0.426791" stroke-linecap="butt" stroke-linejoin="round" stroke="rgb(34.901961%, 34.901961%, 34.901961%)" stroke-opacity="1" stroke-miterlimit="10" d="M 92.667969 275.441406 L 84.011719 287.789062 L 77.914062 306.902344 L 71.253906 311.753906 L 37.820312 297.34375 L 27.589844 300.234375 L 20.265625 311.390625 L 5.605469 317.3125 L 2.230469 314.28125 L -12.972656 321.644531 L -25.375 323.046875 L -27.890625 332.570312 L -54.09375 338.378906 L -65.601562 333.207031 L -81.488281 321.066406 L -84.601562 304.636719 L -82.09375 298.617188 L -77.667969 288.1875 L -63.839844 288.992188 L -53.179688 284.085938 L -52.335938 279.675781 L -46.355469 277.421875 L -44.3125 266.632812 L -37.148438 264.574219 L -32.308594 256.035156 L -23 255.980469 L -21.238281 258.84375 L -8.402344 252.40625 L 7.339844 269.214844 L 25.785156 259.050781 L 40.523438 263.917969 L 63 257.21875 Z M 92.667969 275.441406 "/>
<g clip-path="url(#clip-7)">
<path fill-rule="evenodd" fill="rgb(98.039216%, 79.607843%, 65.098039%)" fill-opacity="1" d="M -32.152344 580.597656 L -59.78125 562.648438 L -71.570312 542.835938 L -83.46875 532.339844 L -97.824219 514.628906 L -104.589844 499.9375 L -119.875 477.765625 L -113.339844 458.085938 L -102.140625 468.972656 L -95.371094 459.136719 L -80.785156 458.085938 L -53.949219 465.957031 L -32.363281 465.300781 L -18.242188 475.796875 L -6.925781 475.667969 L -14.742188 496.527344 L 0.308594 514.761719 L -4.242188 537.0625 L -11.59375 539.164062 L -17.425781 543.492188 L -27.578125 554.511719 Z M -32.152344 580.597656 "/>
</g>
<g clip-path="url(#clip-8)">
<path fill="none" stroke-width="0.426791" stroke-linecap="butt" stroke-linejoin="round" stroke="rgb(34.901961%, 34.901961%, 34.901961%)" stroke-opacity="1" stroke-miterlimit="10" d="M -32.152344 580.597656 L -59.78125 562.648438 L -71.570312 542.835938 L -83.46875 532.339844 L -97.824219 514.628906 L -104.589844 499.9375 L -119.875 477.765625 L -113.339844 458.085938 L -102.140625 468.972656 L -95.371094 459.136719 L -80.785156 458.085938 L -53.949219 465.957031 L -32.363281 465.300781 L -18.242188 475.796875 L -6.925781 475.667969 L -14.742188 496.527344 L 0.308594 514.761719 L -4.242188 537.0625 L -11.59375 539.164062 L -17.425781 543.492188 L -27.578125 554.511719 Z M -32.152344 580.597656 "/>
</g>
<g clip-path="url(#clip-9)">
<path fill-rule="evenodd" fill="rgb(98.039216%, 79.607843%, 65.098039%)" fill-opacity="1" stroke-width="0.426791" stroke-linecap="butt" stroke-linejoin="round" stroke="rgb(34.901961%, 34.901961%, 34.901961%)" stroke-opacity="1" stroke-miterlimit="10" d="M -23.726562 426.074219 L 0.191406 413.613281 L 19.679688 415.710938 L 36.597656 434.339844 L 40.097656 449.425781 L 59.117188 460.578125 L 61.570312 480.125 L 79.773438 493.902344 L 89.574219 483.277344 L 97.273438 489.179688 L 90.039062 497.183594 L 95.757812 505.445312 L 88.054688 516.203125 L 90.855469 533.523438 L 106.023438 553.988281 L 94.125 568.8125 L 88.871094 583.898438 L 92.257812 589.539062 L 87.121094 596.230469 L 72.652344 597.019531 L 62.023438 599.789062 L 60.984375 596.230469 L 64.71875 590.589844 L 68.21875 579.046875 L 63.785156 579.308594 L 57.71875 570.519531 L 52.582031 568.289062 L 48.5 560.746094 L 42.664062 557.792969 L 38.230469 551.101562 L 32.628906 553.726562 L 28.3125 569.46875 L 20.84375 572.878906 L 23.414062 568.8125 L 11.511719 558.972656 L 1.253906 553.863281 L -3.308594 547.296875 L -11.59375 539.164062 L -4.242188 537.0625 L 0.308594 514.761719 L -14.742188 496.527344 L -6.925781 475.667969 L -18.242188 475.796875 L -6.226562 457.957031 L -16.144531 444.441406 Z M -23.726562 426.074219 "/>
</g>
<g clip-path="url(#clip-10)">
<path fill-rule="evenodd" fill="rgb(83.921569%, 15.294118%, 9.411765%)" fill-opacity="1" stroke-width="0.426791" stroke-linecap="butt" stroke-linejoin="round" stroke="rgb(34.901961%, 34.901961%, 34.901961%)" stroke-opacity="1" stroke-miterlimit="10" d="M 921.3125 402.820312 L 907.085938 430.941406 L 876.820312 438.753906 L 845.789062 487.699219 L 874.167969 532.699219 L 871.09375 564.636719 L 905.179688 620.480469 L 886.539062 639.589844 L 881.183594 651.652344 L 867.371094 648.414062 L 845.917969 619.613281 L 837.140625 618.023438 L 817.519531 607.035156 L 807.960938 587.578125 L 778.84375 577.65625 L 759.914062 585.101562 L 754.441406 576.289062 L 711.9375 553.554688 L 665.976562 545.882812 L 639.585938 537.777344 L 635.78125 543.375 L 595.976562 503.308594 L 560.359375 485.421875 L 533.394531 457.566406 L 556.113281 449.988281 L 582.019531 410.332031 L 564.5625 391.570312 L 610.574219 372.21875 L 609.75 361.851562 L 581.726562 369.492188 L 582.710938 348.429688 L 598.804688 335.191406 L 629.015625 331.714844 L 633.925781 315.902344 L 627.027344 289.757812 L 639.707031 264.929688 L 639.339844 251.007812 L 593.320312 235.578125 L 575.078125 236.09375 L 555.8125 213.886719 L 531.855469 221.394531 L 492.207031 204.726562 L 492.886719 195.394531 L 481.78125 174.835938 L 456.890625 172.539062 L 454.304688 157.820312 L 462.101562 148.21875 L 442.148438 121.375 L 409.777344 125.957031 L 400.296875 123.574219 L 392.410156 134.359375 L 380.75 132.441406 L 373.074219 102.078125 L 365.742188 86.339844 L 371.75 81.90625 L 396.9375 83.554688 L 409.085938 73.183594 L 400.09375 60.542969 L 379.042969 52.199219 L 380.921875 43.632812 L 368.214844 34.984375 L 348.644531 3.941406 L 355.335938 -8.851562 L 352.277344 -31.109375 L 321.757812 -42.417969 L 305.375 -36.757812 L 300.941406 -48.527344 L 268.074219 -60.417969 L 258.039062 -88.402344 L 255.375 -111.398438 L 240.335938 -122.316406 L 253.710938 -137.363281 L 244.453125 -181.585938 L 266.667969 -208.910156 L 261.96875 -217.1875 L 297.449219 -243.390625 L 264.742188 -265.9375 L 331.585938 -326.460938 L 360.582031 -353.851562 L 372.324219 -378.035156 L 326.113281 -410.519531 L 338.878906 -441.417969 L 310.773438 -476.703125 L 331.789062 -517.355469 L 295.480469 -571.328125 L 324.289062 -607.078125 L 276.476562 -638.671875 L 281.035156 -671.871094 L 306.25 -676.242188 L 359.367188 -695.261719 L 359.371094 -695.261719 L 391.574219 -711.757812 L 442.859375 -683.09375 L 528.355469 -671.808594 L 646.3125 -618.179688 L 670.273438 -595.644531 L 672.335938 -564.085938 L 637.679688 -539.175781 L 586.703125 -526.53125 L 447.332031 -562.570312 L 424.410156 -556.546875 L 475.308594 -521.820312 L 477.300781 -499.820312 L 479.339844 -451.371094 L 519.53125 -436.914062 L 543.925781 -424.601562 L 547.960938 -447.59375 L 529.152344 -467.96875 L 549.023438 -485.929688 L 624.492188 -456.417969 L 650.785156 -467.96875 L 629.773438 -502.695312 L 702.527344 -549.136719 L 731.34375 -546.402344 L 760.492188 -529.828125 L 778.675781 -562.417969 L 752.644531 -590.679688 L 767.929688 -619.039062 L 744.980469 -648.449219 L 832.304688 -633.238281 L 850.140625 -606.683594 L 810.613281 -600.832031 L 810.824219 -574.445312 L 835.398438 -558.210938 L 883.632812 -568.496094 L 891.269531 -598.738281 L 956.484375 -621.320312 L 1065.429688 -662.039062 L 1088.976562 -659.703125 L 1058.199219 -630.929688 L 1096.925781 -625.984375 L 1119.289062 -642.183594 L 1177.804688 -643.492188 L 1224.164062 -663.148438 L 1259.738281 -634.585938 L 1295.214844 -665.988281 L 1262.503906 -693.457031 L 1278.734375 -709.105469 L 1370.957031 -694.753906 L 1414.167969 -679.933594 L 1527.308594 -625.761719 L 1548.175781 -650.574219 L 1516.453125 -675.644531 L 1515.539062 -685.703125 L 1477.914062 -690.355469 L 1488.207031 -712.835938 L 1471.511719 -749.828125 L 1470.566406 -765.003906 L 1528.179688 -807.941406 L 1548.667969 -851.035156 L 1571.882812 -860.359375 L 1654.535156 -847.855469 L 1661.046875 -821.480469 L 1631.453125 -783.023438 L 1650.871094 -767.90625 L 1660.914062 -734.761719 L 1653.824219 -669.789062 L 1688.261719 -640.726562 L 1674.863281 -609.074219 L 1613.714844 -541.726562 L 1649.398438 -534.742188 L 1661.816406 -551.8125 L 1696.164062 -563.988281 L 1704.453125 -587.449219 L 1731.472656 -610.027344 L 1713.28125 -636.984375 L 1727.847656 -668.289062 L 1693.710938 -672.1875 L 1686.203125 -698.558594 L 1711.113281 -746.171875 L 1670.570312 -784.835938 L 1726.441406 -816.792969 L 1719.214844 -850.507812 L 1734.785156 -851.585938 L 1751.191406 -825.296875 L 1738.871094 -779.542969 L 1772.28125 -770.878906 L 1758.046875 -805.074219 L 1810.292969 -823.714844 L 1875.082031 -826.226562 L 1932.773438 -799.191406 L 1905.011719 -838.683594 L 1901.902344 -889.195312 L 1956.1875 -898.765625 L 2031.277344 -896.675781 L 2098.933594 -902.886719 L 2073.558594 -927.671875 L 2109.6875 -958.8125 L 2145.554688 -960.117188 L 2206.253906 -983.640625 L 2288.691406 -989.960938 L 2299.105469 -1002.945312 L 2381.082031 -1007.347656 L 2406.625 -996.703125 L 2476.691406 -1021.898438 L 2534.042969 -1021.109375 L 2542.648438 -1041.574219 L 2572.480469 -1061.757812 L 2646.179688 -1081.214844 L 2699.722656 -1065.851562 L 2657.210938 -1054.164062 L 2727.925781 -1046.902344 L 2736.351562 -1023.46875 L 2764.878906 -1035.007812 L 2856.148438 -1034.375 L 2926.523438 -1011.246094 L 2951.582031 -993.484375 L 2943.816406 -968.835938 L 2909.28125 -954.804688 L 2827.238281 -928.480469 L 2803.785156 -914.414062 L 2842.496094 -907.773438 L 2888.675781 -895.8125 L 2916.785156 -904.785156 L 2932.707031 -874.347656 L 2946.417969 -886.667969 L 2996.339844 -894.160156 L 3096.507812 -886.328125 L 3104.113281 -864.152344 L 3234.628906 -857.097656 L 3236.414062 -893.3125 L 3302.667969 -885.015625 L 3352.503906 -885.273438 L 3402.917969 -860.296875 L 3417.289062 -829.953125 L 3398.820312 -810.097656 L 3438.03125 -772.785156 L 3487.125 -753.53125 L 3517.25 -803.285156 L 3567.332031 -781.953125 L 3620.535156 -794.699219 L 3680.964844 -780.113281 L 3703.957031 -793.410156 L 3755.023438 -786.761719 L 3732.488281 -830.78125 L 3773.703125 -851.320312 L 4055.667969 -820.53125 L 4082.242188 -792.386719 L 4163.964844 -756.148438 L 4290.027344 -765.121094 L 4352.179688 -757.3125 L 4378.171875 -737.707031 L 4374.375 -703.035156 L 4412.832031 -689.535156 L 4454.621094 -699.242188 L 4509.984375 -700.484375 L 4568.921875 -691.179688 L 4628.089844 -696.429688 L 4682.472656 -654.28125 L 4721.160156 -669.445312 L 4695.914062 -699.75 L 4709.816406 -720.816406 L 4809.417969 -707.558594 L 4874.359375 -710.394531 L 4964.144531 -687.765625 L 5007.851562 -667.078125 L 5007.851562 -478.175781 L 5007.625 -477.921875 L 4967.488281 -457.085938 L 4927.03125 -460.5625 L 4955.183594 -435.324219 L 4973.765625 -396.253906 L 4988.191406 -383.484375 L 4991.816406 -363.867188 L 4983.757812 -351.3125 L 4925.566406 -361.636719 L 4838.308594 -325.945312 L 4810.550781 -320.421875 L 4762.78125 -287.105469 L 4717.464844 -258 L 4705.988281 -236.457031 L 4661.332031 -269.257812 L 4579.992188 -232.035156 L 4565.789062 -249.648438 L 4535.714844 -229.335938 L 4493.960938 -235.835938 L 4483.902344 -204.652344 L 4446.449219 -158.765625 L 4447.5625 -139.601562 L 4483.117188 -128.976562 L 4478.933594 -59.949219 L 4449.953125 -58.195312 L 4436.585938 -18.53125 L 4449.574219 1.882812 L 4394.980469 26.105469 L 4384.148438 80.242188 L 4337.605469 91.804688 L 4328.25 139.980469 L 4283.25 184.152344 L 4271.703125 151.488281 L 4258.335938 82.308594 L 4240.914062 -23.050781 L 4255.921875 -88.8125 L 4282.261719 -117.109375 L 4283.890625 -139.265625 L 4332.40625 -149.875 L 4388.171875 -209.570312 L 4441.914062 -258.324219 L 4498.035156 -296.15625 L 4523.128906 -363 L 4485.195312 -359 L 4466.445312 -319.941406 L 4387.261719 -267.867188 L 4361.6875 -326.175781 L 4281.09375 -310.074219 L 4202.960938 -230.59375 L 4228.738281 -201.519531 L 4159.0625 -189.140625 L 4110.792969 -184.257812 L 4113.054688 -218.542969 L 4064.527344 -225.738281 L 4025.847656 -202.445312 L 3930.394531 -210.59375 L 3827.703125 -196.542969 L 3726.574219 -103.988281 L 3606.933594 7.835938 L 3656.117188 13.8125 L 3671.46875 43.507812 L 3701.792969 54.046875 L 3721.769531 30.363281 L 3756.011719 33.4375 L 3801.085938 85.597656 L 3802.148438 125.941406 L 3777.738281 173.3125 L 3775.105469 229.933594 L 3761.023438 305.742188 L 3713.96875 374.355469 L 3703.507812 407.152344 L 3661.132812 462.367188 L 3619.082031 517.105469 L 3598.914062 545.121094 L 3557.316406 572.941406 L 3537.628906 573.554688 L 3518.015625 550.507812 L 3476.113281 585.207031 L 3471.25 600.984375 L 3466.878906 592.6875 L 3466.6875 568.601562 L 3482.632812 567.320312 L 3487.125 511.296875 L 3478.902344 470.6875 L 3505.699219 453.941406 L 3543.585938 462.339844 L 3564.582031 416.210938 L 3575.28125 364.265625 L 3587.410156 346.910156 L 3603.816406 304.25 L 3552.21875 318.226562 L 3525.15625 336.929688 L 3477.71875 336.875 L 3465.078125 292.324219 L 3428.097656 258.617188 L 3373.765625 243.460938 L 3362.214844 197.015625 L 3351.339844 167.898438 L 3339.640625 147.492188 L 3320.347656 99.671875 L 3292.933594 82.210938 L 3246.207031 68.09375 L 3204.816406 69.375 L 3166.023438 77.925781 L 3140.234375 101.515625 L 3157.367188 112.785156 L 3157.753906 138.964844 L 3140.390625 154.164062 L 3112.210938 204.453125 L 3112.492188 225.316406 L 3068.5 255.28125 L 3031.023438 237.378906 L 2993.777344 241.332031 L 2977.429688 225.441406 L 2958.710938 220.320312 L 2912.980469 253.734375 L 2871.882812 261.585938 L 2843.183594 273.339844 L 2803.863281 265.617188 L 2774.914062 266.109375 L 2755.964844 241.875 L 2725.390625 219.085938 L 2694.101562 212.839844 L 2654.609375 219.039062 L 2625.105469 227.828125 L 2580.753906 207.882812 L 2574.800781 172.355469 L 2538.097656 160.171875 L 2509.757812 154.617188 L 2474.785156 135.015625 L 2442.449219 184.15625 L 2455.125 212.066406 L 2424.78125 245.082031 L 2379.644531 233.160156 L 2348.484375 231.457031 L 2327.621094 209.308594 L 2295.046875 208.609375 L 2267.902344 194.058594 L 2220.417969 216.359375 L 2160.847656 257.199219 L 2127.933594 265.417969 L 2115.71875 269.316406 L 2099.152344 240.3125 L 2058.9375 246.65625 L 2045.648438 226.53125 L 2023.820312 217.328125 L 2008.796875 189.929688 L 1991.558594 181.398438 L 1946.699219 193.582031 L 1903.691406 166.265625 L 1887.054688 191.089844 L 1817.292969 70.671875 L 1777.464844 34.039062 L 1788.890625 19.171875 L 1710.644531 63.917969 L 1680.703125 66.621094 L 1683.289062 40.742188 L 1643.191406 24.570312 L 1610.597656 36.113281 L 1600.769531 -13.03125 L 1544.664062 -23.25 L 1516.597656 -3.582031 L 1438.480469 13.921875 L 1423.234375 25.636719 L 1306.414062 42.136719 L 1292.101562 58.316406 L 1314.636719 90.796875 L 1284.667969 103.125 L 1290.515625 116.042969 L 1260.550781 139.140625 L 1311.140625 171.75 L 1303.320312 194.203125 L 1259.46875 192.160156 L 1250.398438 206.230469 L 1210.46875 181.660156 L 1160.976562 182.613281 L 1127.851562 202.613281 L 1090.886719 183.433594 L 1022.074219 150.601562 L 973.308594 151.828125 L 908.863281 203.402344 L 904.976562 238.03125 L 872.871094 210.535156 L 847.964844 262.628906 L 857.082031 272.300781 L 839.0625 308.234375 L 865.558594 340.398438 L 888.722656 339.074219 L 908.625 370.753906 L 905.457031 395.152344 Z M 921.3125 402.820312 "/>
</g>
<path fill-rule="evenodd" fill="rgb(0%, 34.117647%, 71.764706%)" fill-opacity="1" stroke-width="4.267913" stroke-linecap="butt" stroke-linejoin="round" stroke="rgb(100%, 86.666667%, 0%)" stroke-opacity="1" stroke-miterlimit="10" d="M 437.011719 428.792969 L 407.125 444.554688 L 401.613281 453.644531 L 435.726562 467.523438 L 428.84375 489.800781 L 446.203125 499.445312 L 488.582031 472.015625 L 522.757812 463.800781 L 528.855469 446.886719 L 497.011719 449.730469 L 481.738281 438.292969 L 481.484375 434.191406 L 479.914062 408.800781 L 506.804688 391.125 L 536.03125 388.625 L 556.800781 373.285156 L 581.726562 369.492188 L 582.710938 348.429688 L 598.804688 335.191406 L 629.015625 331.714844 L 633.925781 315.902344 L 627.027344 289.757812 L 639.707031 264.929688 L 639.339844 251.007812 L 593.320312 235.578125 L 575.078125 236.09375 L 555.8125 213.886719 L 531.855469 221.394531 L 492.207031 204.726562 L 492.886719 195.394531 L 481.78125 174.835938 L 456.890625 172.539062 L 454.304688 157.820312 L 462.101562 148.21875 L 442.148438 121.375 L 409.777344 125.957031 L 400.296875 123.574219 L 392.410156 134.359375 L 380.75 132.441406 L 353.953125 135.253906 L 344.332031 145.664062 L 342.324219 169.527344 L 329.90625 164.945312 L 301.734375 167.21875 L 293.550781 156.132812 L 281.835938 164.398438 L 270.097656 157.546875 L 245.511719 156.59375 L 210.667969 145.214844 L 179.132812 141.5 L 154.949219 142.550781 L 137.839844 155.402344 L 122.914062 157.25 L 138.617188 198.644531 L 135.269531 211.945312 L 119.777344 217.464844 L 91.425781 256.902344 L 99.480469 278.210938 L 92.667969 275.441406 L 84.011719 287.789062 L 77.914062 306.902344 L 95.246094 319.800781 L 97.425781 332.507812 L 110.902344 322.355469 L 130.21875 327.605469 L 150.230469 327.78125 L 164.726562 339.371094 L 175.386719 332.089844 L 198.429688 327.535156 L 206.28125 316.449219 L 219.453125 316.457031 L 226.898438 309.464844 L 247.652344 304.773438 L 270.660156 319.546875 L 283.5 321.320312 L 297.605469 334.078125 L 295.363281 350.148438 L 306.734375 357.902344 L 311.246094 377.726562 L 322.148438 389.78125 L 319.945312 396.847656 L 325.765625 401.652344 L 317.5 405.160156 L 299.101562 403.773438 L 296.027344 397.207031 L 289.496094 400.992188 L 291.707031 409.480469 L 283.160156 424.601562 L 277.707031 440.867188 L 269.847656 446.019531 L 283.777344 454.753906 L 298.449219 447.125 L 312.609375 455.261719 L 336.78125 420.21875 L 348.371094 394.105469 L 377.296875 388.269531 L 379.445312 405.949219 L 427.972656 417.933594 L 432.261719 423.085938 Z M 437.011719 428.792969 "/>
</svg>
