<?xml version="1.0" encoding="UTF-8"?>
<svg xmlns="http://www.w3.org/2000/svg" xmlns:xlink="http://www.w3.org/1999/xlink" width="720" height="360" viewBox="0 0 720 360">
<defs>
<clipPath id="clip-0">
<path clip-rule="nonzero" d="M 59.039062 59.039062 L 689.757812 59.039062 L 689.757812 286.558594 L 59.039062 286.558594 Z M 59.039062 59.039062 "/>
</clipPath>
</defs>
<rect x="-72" y="-36" width="864" height="432" fill="rgb(100%, 100%, 100%)" fill-opacity="1"/>
<g clip-path="url(#clip-0)">
<path fill-rule="nonzero" fill="rgb(100%, 100%, 100%)" fill-opacity="1" stroke-width="0.75" stroke-linecap="round" stroke-linejoin="round" stroke="rgb(100%, 100%, 100%)" stroke-opacity="1" stroke-miterlimit="10" d="M 59.039062 286.558594 L 689.757812 286.558594 L 689.757812 59.039062 L 59.039062 59.039062 Z M 59.039062 286.558594 "/>
</g>
<path fill="none" stroke-width="0.75" stroke-linecap="round" stroke-linejoin="round" stroke="rgb(0%, 0%, 0%)" stroke-opacity="1" stroke-miterlimit="10" d="M 214.472656 247.882812 L 213.136719 251.300781 L 210.292969 252.25 L 207.378906 258.203125 L 210.042969 263.671875 L 209.753906 267.554688 L 212.957031 274.34375 L 211.207031 276.667969 L 210.703125 278.132812 L 209.40625 277.738281 L 207.390625 274.238281 L 206.566406 274.042969 L 204.722656 272.707031 L 203.824219 270.34375 L 201.089844 269.136719 L 199.3125 270.042969 L 198.800781 268.972656 L 194.804688 266.207031 L 190.488281 265.273438 L 188.011719 264.289062 L 187.652344 264.96875 L 183.914062 260.097656 L 180.570312 257.925781 L 178.039062 254.539062 L 180.171875 253.617188 L 182.605469 248.796875 L 180.964844 246.515625 L 185.285156 244.164062 L 185.207031 242.902344 L 182.578125 243.832031 L 182.667969 241.269531 L 184.179688 239.660156 L 187.019531 239.238281 L 187.480469 237.316406 L 186.832031 234.136719 L 188.023438 231.121094 L 187.988281 229.425781 L 183.664062 227.550781 L 181.953125 227.613281 L 180.144531 224.914062 L 177.894531 225.828125 L 174.167969 223.800781 L 174.234375 222.664062 L 173.191406 220.167969 L 170.851562 219.886719 L 170.609375 218.097656 L 171.339844 216.929688 L 169.46875 213.667969 L 166.425781 214.222656 L 165.535156 213.933594 L 164.796875 215.246094 L 163.699219 215.011719 L 162.980469 211.320312 L 162.292969 209.40625 L 162.855469 208.867188 L 165.222656 209.070312 L 166.363281 207.808594 L 165.519531 206.269531 L 163.539062 205.257812 L 163.71875 204.214844 L 162.523438 203.164062 L 160.683594 199.390625 L 161.3125 197.835938 L 161.027344 195.128906 L 158.160156 193.753906 L 156.621094 194.441406 L 156.203125 193.011719 L 153.117188 191.566406 L 152.175781 188.164062 L 151.925781 185.367188 L 150.511719 184.042969 L 151.769531 182.210938 L 150.898438 176.835938 L 152.984375 173.515625 L 152.542969 172.507812 L 155.878906 169.320312 L 152.804688 166.582031 L 159.082031 159.222656 L 161.808594 155.894531 L 162.910156 152.953125 L 158.570312 149.003906 L 159.769531 145.246094 L 157.128906 140.957031 L 159.101562 136.015625 L 155.691406 129.453125 L 158.398438 125.109375 L 153.90625 121.265625 L 154.335938 117.230469 L 156.703125 116.699219 L 161.691406 114.386719 L 164.71875 112.382812 L 169.535156 115.867188 L 177.5625 117.238281 L 188.644531 123.757812 L 190.894531 126.5 L 191.085938 130.335938 L 187.832031 133.363281 L 183.042969 134.898438 L 169.953125 130.519531 L 167.800781 131.25 L 172.582031 135.472656 L 172.769531 138.148438 L 172.960938 144.039062 L 176.734375 145.796875 L 179.027344 147.292969 L 179.40625 144.496094 L 177.640625 142.019531 L 179.503906 139.835938 L 186.59375 143.425781 L 189.0625 142.019531 L 187.089844 137.796875 L 193.921875 132.152344 L 196.628906 132.484375 L 199.367188 134.5 L 201.074219 130.539062 L 198.628906 127.101562 L 200.066406 123.652344 L 197.910156 120.078125 L 206.113281 121.929688 L 207.785156 125.15625 L 204.074219 125.867188 L 204.09375 129.074219 L 206.402344 131.050781 L 210.933594 129.796875 L 211.648438 126.121094 L 217.773438 123.375 L 228.007812 118.425781 L 230.21875 118.710938 L 227.328125 122.207031 L 230.964844 122.808594 L 233.066406 120.839844 L 238.5625 120.679688 L 242.917969 118.292969 L 246.257812 121.765625 L 249.589844 117.945312 L 246.515625 114.605469 L 248.042969 112.703125 L 256.703125 114.449219 L 260.761719 116.25 L 271.386719 122.835938 L 273.347656 119.820312 L 270.367188 116.773438 L 270.28125 115.550781 L 266.75 114.984375 L 267.714844 112.25 L 266.148438 107.753906 L 266.058594 105.910156 L 271.46875 100.6875 L 273.394531 95.449219 L 275.574219 94.316406 L 283.335938 95.835938 L 283.949219 99.042969 L 281.167969 103.71875 L 282.992188 105.554688 L 283.9375 109.585938 L 283.269531 117.484375 L 286.503906 121.015625 L 285.246094 124.867188 L 279.503906 133.054688 L 282.855469 133.902344 L 284.019531 131.828125 L 287.246094 130.347656 L 288.027344 127.496094 L 290.5625 124.75 L 288.855469 121.472656 L 290.222656 117.667969 L 287.015625 117.191406 L 286.3125 113.988281 L 288.652344 108.199219 L 284.84375 103.5 L 290.089844 99.613281 L 289.410156 95.515625 L 290.875 95.382812 L 292.414062 98.578125 L 291.257812 104.140625 L 294.394531 105.195312 L 293.058594 101.039062 L 297.964844 98.769531 L 304.050781 98.464844 L 309.46875 101.753906 L 306.863281 96.953125 L 306.570312 90.8125 L 311.667969 89.648438 L 318.722656 89.902344 L 325.074219 89.148438 L 322.691406 86.132812 L 326.085938 82.347656 L 329.453125 82.1875 L 335.15625 79.328125 L 342.898438 78.5625 L 343.875 76.980469 L 351.574219 76.445312 L 353.976562 77.742188 L 360.554688 74.679688 L 365.941406 74.773438 L 366.75 72.285156 L 369.550781 69.832031 L 376.472656 67.464844 L 381.503906 69.335938 L 377.511719 70.753906 L 384.152344 71.636719 L 384.945312 74.488281 L 387.625 73.085938 L 396.195312 73.160156 L 402.804688 75.972656 L 405.160156 78.132812 L 404.429688 81.128906 L 401.183594 82.835938 L 393.480469 86.035156 L 391.277344 87.746094 L 394.914062 88.550781 L 399.25 90.007812 L 401.890625 88.914062 L 403.386719 92.617188 L 404.671875 91.117188 L 409.363281 90.207031 L 418.769531 91.160156 L 419.484375 93.855469 L 431.742188 94.714844 L 431.910156 90.308594 L 438.132812 91.320312 L 442.8125 91.289062 L 447.550781 94.324219 L 448.898438 98.011719 L 447.164062 100.425781 L 450.847656 104.964844 L 455.457031 107.304688 L 458.289062 101.253906 L 462.992188 103.847656 L 467.988281 102.296875 L 473.664062 104.070312 L 475.824219 102.457031 L 480.621094 103.265625 L 478.503906 97.914062 L 482.375 95.414062 L 508.855469 99.160156 L 511.351562 102.582031 L 519.027344 106.984375 L 530.867188 105.894531 L 536.707031 106.84375 L 539.148438 109.226562 L 538.789062 113.441406 L 542.402344 115.082031 L 546.328125 113.902344 L 551.527344 113.753906 L 557.0625 114.882812 L 562.621094 114.246094 L 567.726562 119.371094 L 571.359375 117.527344 L 568.988281 113.839844 L 570.296875 111.28125 L 579.648438 112.890625 L 585.75 112.546875 L 594.183594 115.296875 L 598.289062 117.8125 L 598.289062 140.777344 L 598.265625 140.808594 L 594.496094 143.34375 L 590.695312 142.921875 L 593.339844 145.988281 L 595.085938 150.738281 L 596.441406 152.289062 L 596.78125 154.675781 L 596.023438 156.203125 L 590.558594 154.945312 L 582.363281 159.285156 L 579.757812 159.957031 L 575.269531 164.007812 L 571.015625 167.546875 L 569.9375 170.164062 L 565.742188 166.175781 L 558.101562 170.703125 L 556.769531 168.5625 L 553.945312 171.03125 L 550.023438 170.242188 L 549.078125 174.03125 L 545.558594 179.609375 L 545.664062 181.941406 L 549.003906 183.230469 L 548.609375 191.625 L 545.886719 191.835938 L 544.632812 196.660156 L 545.851562 199.140625 L 540.726562 202.085938 L 539.707031 208.667969 L 535.335938 210.070312 L 534.457031 215.929688 L 530.230469 221.300781 L 529.148438 217.328125 L 527.890625 208.917969 L 526.253906 196.109375 L 527.664062 188.113281 L 530.136719 184.675781 L 530.292969 181.980469 L 534.847656 180.691406 L 540.085938 173.433594 L 545.132812 167.507812 L 550.40625 162.90625 L 552.761719 154.78125 L 549.199219 155.265625 L 547.4375 160.015625 L 540 166.347656 L 537.597656 159.257812 L 530.027344 161.214844 L 522.691406 170.878906 L 525.113281 174.414062 L 518.566406 175.917969 L 514.035156 176.511719 L 514.246094 172.34375 L 509.6875 171.46875 L 506.054688 174.300781 L 497.089844 173.308594 L 487.445312 175.015625 L 477.945312 186.269531 L 466.710938 199.863281 L 471.328125 200.589844 L 472.773438 204.199219 L 475.621094 205.480469 L 477.496094 202.601562 L 480.710938 202.976562 L 484.945312 209.316406 L 485.046875 214.222656 L 482.753906 219.980469 L 482.503906 226.863281 L 481.183594 236.082031 L 476.761719 244.421875 L 475.78125 248.410156 L 471.800781 255.121094 L 467.851562 261.777344 L 465.957031 265.183594 L 462.050781 268.5625 L 460.203125 268.640625 L 458.359375 265.835938 L 454.421875 270.054688 L 453.964844 271.972656 L 453.554688 270.964844 L 453.539062 268.035156 L 455.035156 267.882812 L 455.457031 261.070312 L 454.6875 256.132812 L 457.203125 254.097656 L 460.761719 255.117188 L 462.734375 249.511719 L 463.738281 243.195312 L 464.875 241.085938 L 466.417969 235.898438 L 461.570312 237.597656 L 459.03125 239.871094 L 454.574219 239.867188 L 453.386719 234.449219 L 449.914062 230.351562 L 444.8125 228.507812 L 443.726562 222.863281 L 442.703125 219.324219 L 441.605469 216.84375 L 439.792969 211.027344 L 437.21875 208.90625 L 432.832031 207.1875 L 428.941406 207.34375 L 425.300781 208.386719 L 422.878906 211.253906 L 424.484375 212.621094 L 424.523438 215.804688 L 422.890625 217.652344 L 420.246094 223.765625 L 420.273438 226.304688 L 416.140625 229.945312 L 412.621094 227.769531 L 409.121094 228.25 L 407.585938 226.320312 L 405.828125 225.695312 L 401.53125 229.757812 L 397.671875 230.710938 L 394.976562 232.140625 L 391.285156 231.203125 L 388.566406 231.261719 L 386.785156 228.316406 L 383.914062 225.546875 L 380.976562 224.785156 L 377.265625 225.539062 L 374.496094 226.609375 L 370.328125 224.183594 L 369.769531 219.863281 L 366.324219 218.382812 L 363.660156 217.707031 L 360.375 215.324219 L 357.339844 221.300781 L 358.53125 224.691406 L 355.679688 228.707031 L 351.441406 227.257812 L 348.515625 227.050781 L 346.554688 224.355469 L 343.496094 224.273438 L 340.945312 222.503906 L 336.484375 225.214844 L 330.890625 230.179688 L 327.800781 231.179688 L 326.652344 231.652344 L 325.097656 228.125 L 321.320312 228.898438 L 320.070312 226.449219 L 318.019531 225.332031 L 316.609375 222 L 314.992188 220.964844 L 310.777344 222.445312 L 306.738281 219.125 L 305.175781 222.140625 L 298.625 207.503906 L 294.882812 203.050781 L 295.957031 201.242188 L 288.605469 206.683594 L 285.796875 207.011719 L 286.039062 203.863281 L 282.273438 201.898438 L 279.210938 203.300781 L 278.289062 197.328125 L 273.019531 196.085938 L 270.382812 198.476562 L 263.046875 200.605469 L 261.613281 202.027344 L 250.640625 204.035156 L 249.296875 206 L 251.414062 209.949219 L 248.597656 211.449219 L 249.148438 213.019531 L 246.332031 215.828125 L 251.085938 219.789062 L 250.351562 222.519531 L 246.230469 222.273438 L 245.378906 223.984375 L 241.628906 220.996094 L 236.980469 221.113281 L 233.871094 223.542969 L 230.398438 221.210938 L 223.933594 217.21875 L 219.355469 217.371094 L 213.300781 223.640625 L 212.9375 227.847656 L 209.921875 224.507812 L 207.582031 230.839844 L 208.4375 232.015625 L 206.746094 236.382812 L 209.234375 240.292969 L 211.410156 240.132812 L 213.28125 243.984375 L 212.984375 246.949219 Z M 214.472656 247.882812 "/>
</svg>
