<?xml version="1.0" encoding="UTF-8"?>
<svg xmlns="http://www.w3.org/2000/svg" xmlns:xlink="http://www.w3.org/1999/xlink" width="720" height="360" viewBox="0 0 720 360">
<defs>
<clipPath id="clip-0">
<path clip-rule="nonzero" d="M 59.039062 59.039062 L 689.757812 59.039062 L 689.757812 286.558594 L 59.039062 286.558594 Z M 59.039062 59.039062 "/>
</clipPath>
</defs>
<rect x="-72" y="-36" width="864" height="432" fill="rgb(100%, 100%, 100%)" fill-opacity="1"/>
<g clip-path="url(#clip-0)">
<path fill-rule="nonzero" fill="rgb(100%, 100%, 100%)" fill-opacity="1" stroke-width="0.75" stroke-linecap="round" stroke-linejoin="round" stroke="rgb(100%, 100%, 100%)" stroke-opacity="1" stroke-miterlimit="10" d="M 59.039062 286.558594 L 689.757812 286.558594 L 689.757812 59.039062 L 59.039062 59.039062 Z M 59.039062 286.558594 "/>
</g>
<path fill="none" stroke-width="0.75" stroke-linecap="round" stroke-linejoin="round" stroke="rgb(0%, 0%, 0%)" stroke-opacity="1" stroke-miterlimit="10" d="M 290.164062 95.546875 L 311.179688 67.464844 L 367.882812 91.777344 L 393.539062 96.253906 L 403.890625 118.644531 L 415.921875 122.097656 L 416.570312 131.90625 L 455.59375 159.253906 L 536.949219 152.453125 L 521.371094 192.902344 L 434.054688 212.542969 L 325.777344 278.132812 L 281.421875 255.074219 L 299.011719 201.796875 L 211.851562 168.613281 L 225.9375 146.875 L 302.300781 109.191406 Z M 290.164062 95.546875 "/>
</svg>
