<?xml version="1.0" encoding="UTF-8"?>
<svg xmlns="http://www.w3.org/2000/svg" xmlns:xlink="http://www.w3.org/1999/xlink" width="720" height="576" viewBox="0 0 720 576">
<rect x="-72" y="-57.6" width="864" height="691.2" fill="rgb(100%, 100%, 100%)" fill-opacity="1"/>
<path fill-rule="evenodd" fill="rgb(0%, 34.117647%, 71.764706%)" fill-opacity="1" stroke-width="0.426791" stroke-linecap="butt" stroke-linejoin="round" stroke="rgb(34.901961%, 34.901961%, 34.901961%)" stroke-opacity="1" stroke-miterlimit="10" d="M 382.445312 84.351562 L 384.679688 84.160156 L 385.871094 84.390625 L 386.71875 85.125 L 386.917969 86.019531 L 386.925781 87.03125 L 387.082031 87.871094 L 387.746094 88.257812 L 388.359375 88.148438 L 390.296875 87.246094 L 391.617188 87.125 L 393.800781 87.664062 L 394.472656 87.621094 L 399.472656 85.429688 L 401.085938 84.234375 L 402.140625 82.128906 L 402.578125 78.839844 L 402.917969 77.867188 L 403.269531 77.523438 L 403.714844 77.28125 L 404.121094 76.953125 L 404.328125 76.335938 L 404.191406 75.871094 L 403.507812 74.730469 L 403.328125 74.144531 L 403.839844 72.269531 L 405.316406 71.984375 L 408.453125 73.058594 L 410.1875 72.5625 L 417.339844 76.070312 L 418.4375 76.050781 L 420.585938 75.527344 L 421.652344 75.507812 L 422.265625 75.789062 L 423.347656 76.601562 L 424.007812 76.667969 L 424.65625 76.351562 L 428.40625 73.253906 L 429.0625 72.953125 L 429.390625 72.976562 L 429.867188 73.222656 L 430.203125 73.144531 L 430.484375 72.859375 L 430.90625 72.09375 L 431.265625 71.902344 L 431.957031 71.660156 L 432.425781 71.242188 L 433.363281 70.167969 L 433.949219 69.769531 L 434.445312 69.679688 L 438 70.316406 L 440.347656 70.304688 L 440.96875 70.429688 L 441.855469 71.023438 L 441.96875 71.101562 L 442.539062 71.355469 L 443.191406 71.308594 L 443.714844 70.976562 L 444.207031 70.566406 L 444.757812 70.292969 L 445.445312 71.207031 L 445.214844 73.277344 L 445.832031 74.128906 L 446.617188 74.058594 L 449.105469 71.765625 L 452.289062 70.398438 L 453.949219 70.117188 L 455.59375 70.167969 L 456.507812 70.464844 L 456.910156 70.984375 L 457.207031 71.730469 L 457.777344 72.6875 L 458.492188 73.332031 L 460.015625 74.222656 L 460.699219 75.101562 L 461.601562 76.960938 L 462.085938 77.566406 L 464.417969 79.03125 L 465.03125 79.65625 L 465.644531 80.539062 L 465.992188 81.175781 L 466.199219 81.707031 L 466.292969 82.21875 L 466.304688 82.832031 L 465.679688 84.0625 L 465.679688 84.359375 L 465.800781 85.300781 L 465.890625 87.101562 L 466.097656 88.152344 L 466.539062 89.101562 L 467.292969 90.257812 L 467.414062 91.199219 L 467.128906 92.003906 L 467.117188 92.480469 L 468.929688 92.492188 L 469.664062 93.003906 L 471.007812 94.640625 L 471.226562 94.832031 L 471.707031 95.140625 L 471.914062 95.355469 L 472.007812 95.613281 L 472.140625 96.367188 L 472.125 96.5 L 472.554688 96.65625 L 473.238281 96.34375 L 473.667969 96.339844 L 474.316406 96.742188 L 475.523438 98.019531 L 476.230469 98.5 L 477.097656 99.316406 L 477.628906 99.816406 L 478.605469 102 L 478.660156 104.253906 L 477.285156 105.777344 L 476.582031 105.941406 L 474.449219 105.910156 L 468.269531 107.300781 L 466.855469 108.070312 L 466.507812 109.355469 L 466.914062 109.898438 L 468.195312 110.238281 L 468.707031 110.554688 L 468.867188 110.960938 L 469.027344 112.085938 L 469.175781 112.589844 L 469.441406 113.019531 L 470.96875 114.65625 L 471.441406 115.429688 L 471.742188 116.371094 L 471.824219 117.570312 L 471.746094 118.144531 L 471.425781 119.109375 L 471.324219 119.636719 L 471.363281 120.195312 L 471.503906 120.675781 L 471.597656 121.15625 L 471.503906 121.710938 L 471.203125 122.019531 L 470.410156 122.191406 L 470.226562 122.515625 L 470.371094 122.964844 L 470.738281 123.429688 L 471.453125 124.078125 L 471.992188 124.414062 L 472.601562 124.644531 L 473.222656 124.765625 L 473.800781 124.761719 L 474.519531 124.375 L 474.832031 126.21875 L 473.917969 128.042969 L 472.476562 129.527344 L 470.375 130.90625 L 472.984375 131.960938 L 473.851562 132.132812 L 474.496094 131.847656 L 475.855469 130.78125 L 477.121094 130.46875 L 478.472656 130.675781 L 481.066406 131.558594 L 482.265625 131.960938 L 484.613281 131.574219 L 485.710938 131.71875 L 486.222656 132.226562 L 486.441406 132.972656 L 486.609375 133.816406 L 486.960938 134.636719 L 487.492188 135.128906 L 488.128906 135.34375 L 490.785156 135.503906 L 493.304688 134.960938 L 496.285156 133.769531 L 497.972656 132.796875 L 498.542969 132.742188 L 499.214844 133.058594 L 499.910156 133.464844 L 500.613281 133.328125 L 501.335938 133.023438 L 502.085938 132.902344 L 502.789062 133.160156 L 503.246094 133.703125 L 503.53125 134.496094 L 504.425781 139.519531 L 505.144531 141.3125 L 506.195312 142.289062 L 507.425781 142.382812 L 509.890625 141.84375 L 511.140625 141.921875 L 511.855469 142.152344 L 512.507812 142.511719 L 512.824219 143.113281 L 512.519531 144.058594 L 512.003906 144.515625 L 510.027344 144.914062 L 510.179688 145.519531 L 510.179688 147.011719 L 510.273438 147.554688 L 510.589844 147.921875 L 511.445312 148.105469 L 511.882812 148.386719 L 512.339844 149.109375 L 512.386719 149.75 L 512.289062 150.421875 L 512.328125 151.261719 L 512.585938 151.957031 L 513.332031 152.925781 L 513.644531 153.597656 L 513.71875 154.371094 L 513.632812 155.03125 L 513.695312 155.59375 L 514.203125 156.078125 L 515.117188 156.59375 L 515.523438 156.964844 L 515.851562 157.5 L 516.164062 159.035156 L 516.042969 160.390625 L 516.105469 161.59375 L 516.957031 162.628906 L 514.148438 163.839844 L 513.589844 164.484375 L 513.644531 165.183594 L 515.371094 171.816406 L 516.140625 173.152344 L 517.363281 173.652344 L 518.15625 173.792969 L 518.910156 174.054688 L 519.566406 174.574219 L 520.070312 175.492188 L 520.347656 176.78125 L 520.40625 177.757812 L 520.632812 178.59375 L 521.433594 179.46875 L 522.128906 179.949219 L 522.863281 180.316406 L 523.609375 180.527344 L 524.375 180.578125 L 525.066406 180.359375 L 525.234375 180.308594 L 525.722656 179.734375 L 526.121094 179.019531 L 526.714844 178.316406 L 527.023438 178.183594 L 527.722656 178.152344 L 528.046875 178.023438 L 528.453125 177.609375 L 529.175781 176.644531 L 529.679688 176.265625 L 530.335938 176.039062 L 533.769531 175.660156 L 540.082031 176.152344 L 541.078125 176.675781 L 541.351562 177.695312 L 542.386719 178.199219 L 546.007812 183.792969 L 546.84375 184.195312 L 547.710938 184.148438 L 548.570312 183.785156 L 549.363281 183.230469 L 550.074219 182.550781 L 550.328125 182.421875 L 550.769531 182.410156 L 551.128906 182.523438 L 551.875 182.945312 L 552.675781 183.125 L 553.675781 183.820312 L 554.835938 184.0625 L 555.160156 184.191406 L 555.71875 184.550781 L 555.808594 184.683594 L 555.707031 184.910156 L 555.628906 186.125 L 555.542969 186.664062 L 555.652344 187.152344 L 556.195312 187.574219 L 556.972656 187.863281 L 557.824219 188 L 558.640625 187.890625 L 559.328125 187.472656 L 559.640625 187.023438 L 560.21875 185.84375 L 560.5625 185.34375 L 561.027344 184.925781 L 567.054688 181.480469 L 569.429688 180.636719 L 571.828125 180.46875 L 574.429688 180.84375 L 579.703125 179.363281 L 580.78125 178.5625 L 582.90625 176.472656 L 583.980469 176.050781 L 587.625 175.566406 L 588.355469 175.945312 L 588.898438 177.363281 L 589.390625 179.136719 L 589.980469 180.585938 L 593.179688 182.089844 L 594.304688 183.273438 L 594.394531 185.5625 L 594.027344 186.855469 L 593.925781 187.441406 L 593.984375 188.03125 L 594.230469 188.40625 L 595.492188 189.65625 L 598.972656 194.871094 L 600.269531 195.753906 L 603.152344 197.035156 L 604.566406 197.914062 L 605.804688 198.992188 L 606.917969 200.367188 L 608.097656 202.375 L 608.136719 202.476562 L 608.691406 203.472656 L 608.710938 204.316406 L 608.875 204.652344 L 609.691406 204.140625 L 611.277344 203.152344 L 611.734375 203.003906 L 612.140625 203.085938 L 612.796875 203.507812 L 613.183594 203.589844 L 614.894531 202.421875 L 615.082031 200.042969 L 614.820312 197.511719 L 615.175781 195.886719 L 615.753906 195.742188 L 618.078125 195.945312 L 619.070312 195.761719 L 619.75 195.867188 L 620.265625 196.46875 L 621.355469 199.605469 L 621.789062 200.234375 L 622.523438 200.542969 L 624.113281 200.714844 L 624.757812 200.960938 L 625.605469 201.527344 L 626.925781 202.007812 L 629.5625 201.542969 L 631.351562 201.867188 L 631.695312 201.722656 L 632.019531 201.511719 L 632.902344 201.21875 L 632.992188 201.078125 L 632.980469 201.210938 L 633.289062 202.289062 L 633.390625 203.160156 L 633.585938 203.640625 L 633.816406 203.886719 L 636.015625 205.4375 L 639.804688 206.507812 L 641.042969 207.636719 L 641.921875 208.980469 L 642.898438 209.914062 L 646.34375 209.703125 L 646.953125 209.527344 L 647.652344 208.953125 L 648.796875 207.285156 L 649.421875 206.585938 L 650.828125 206.082031 L 651.742188 206.855469 L 651.804688 206.90625 L 653.8125 212.011719 L 654.644531 213.140625 L 655.699219 213.820312 L 657.066406 214.132812 L 658.503906 213.832031 L 659.910156 213.152344 L 661.277344 212.863281 L 662.59375 213.734375 L 663.292969 214.035156 L 665.414062 214.261719 L 665.882812 214.84375 L 666.289062 216.078125 L 666.863281 218.414062 L 667.789062 220.300781 L 668.890625 221.046875 L 670.175781 221.394531 L 671.644531 222.085938 L 673.53125 223.859375 L 674.273438 224.199219 L 675.261719 224.238281 L 676.375 224.015625 L 677.464844 223.59375 L 678.382812 223.0625 L 680.535156 220.898438 L 681.410156 220.585938 L 682.125 220.609375 L 685.675781 221.554688 L 685.78125 221.667969 L 686.226562 222.140625 L 686.058594 223.273438 L 685.496094 224.027344 L 684.09375 224.828125 L 683.453125 225.425781 L 682.746094 227.210938 L 682.964844 228.9375 L 683.730469 230.558594 L 685.160156 232.765625 L 686.855469 234.726562 L 687.273438 235.601562 L 687.1875 236.570312 L 686.660156 238.425781 L 686.625 240.402344 L 686.347656 240.921875 L 685.484375 241.390625 L 684.78125 241.960938 L 683.578125 243.84375 L 682.875 244.625 L 680.738281 246.082031 L 679.742188 247.027344 L 678.972656 248.339844 L 678.796875 249.105469 L 678.699219 250.664062 L 678.527344 251.222656 L 678.113281 251.507812 L 677.535156 251.554688 L 676.46875 251.371094 L 675.363281 251.359375 L 672.363281 252.402344 L 670.523438 252.285156 L 669.902344 252.726562 L 669.640625 255.46875 L 670.132812 256.15625 L 670.871094 256.632812 L 671.53125 257.277344 L 672.019531 258.265625 L 672.308594 259.011719 L 672.71875 259.554688 L 673.574219 259.933594 L 676.464844 260.589844 L 677.722656 260.398438 L 678.144531 260.480469 L 678.523438 260.808594 L 679.214844 261.695312 L 679.675781 261.882812 L 680.472656 261.472656 L 681.113281 260.632812 L 681.800781 259.96875 L 682.722656 260.089844 L 683.433594 260.984375 L 683.394531 262.050781 L 682.886719 263.128906 L 682.191406 264.050781 L 680.582031 265.332031 L 679.117188 265.496094 L 675.09375 263.914062 L 674.261719 263.953125 L 673.46875 264.347656 L 672.742188 265.160156 L 672.445312 265.757812 L 672.203125 266.378906 L 671.90625 266.871094 L 671 267.238281 L 670.691406 267.6875 L 668.476562 275.0625 L 668.109375 276.417969 L 669.507812 276.335938 L 670.226562 276.046875 L 674.550781 276.589844 L 675.5 277.152344 L 676.21875 278.101562 L 676.496094 279.523438 L 676.535156 279.921875 L 676.617188 280.234375 L 676.703125 280.460938 L 676.742188 280.625 L 676.59375 281.085938 L 676.25 281.203125 L 675.914062 281.175781 L 675.75 281.21875 L 675.84375 282.070312 L 676.191406 282.507812 L 676.570312 282.816406 L 677.710938 285.324219 L 678.097656 286.722656 L 678.375 287.46875 L 678.722656 287.9375 L 677.902344 288.753906 L 677.273438 289.566406 L 674.796875 291.652344 L 677.296875 293.246094 L 678.039062 293.15625 L 679.933594 292.460938 L 680.714844 292.640625 L 681.234375 293.5625 L 681.140625 294.628906 L 680.667969 295.628906 L 680.046875 296.359375 L 678.308594 297.691406 L 677.621094 298.496094 L 675.78125 301.953125 L 675.351562 303.03125 L 675.273438 304.300781 L 675.828125 306 L 675.777344 306.507812 L 675.679688 306.585938 L 675.4375 306.519531 L 673.449219 306.902344 L 673.0625 307.167969 L 672.761719 307.679688 L 672.835938 307.964844 L 673.132812 308.273438 L 673.5 308.875 L 674.015625 310.066406 L 674.078125 310.609375 L 674 311.464844 L 673.871094 311.902344 L 673.484375 312.734375 L 673.382812 313.214844 L 673.402344 313.605469 L 673.566406 314.351562 L 673.597656 314.699219 L 673.332031 316.261719 L 672.730469 317.628906 L 671.816406 318.554688 L 670.613281 318.800781 L 666.976562 317.820312 L 665.867188 317.738281 L 663.664062 318.1875 L 662.59375 318.003906 L 661.765625 317.71875 L 660.199219 318.164062 L 659.390625 318.195312 L 658.734375 317.882812 L 657.515625 317.050781 L 656.777344 316.914062 L 651.472656 317.40625 L 650.007812 317.816406 L 649.292969 317.871094 L 648.542969 317.675781 L 646.589844 316.320312 L 646.484375 316.316406 L 640.710938 316.082031 L 639.03125 316.792969 L 637.769531 318.34375 L 636.855469 320.480469 L 636.214844 322.976562 L 635.917969 325.273438 L 635.53125 326.148438 L 634.75 326.222656 L 633.472656 325.707031 L 632.902344 325.808594 L 632.21875 326.34375 L 630.875 327.902344 L 630.199219 328.488281 L 629.273438 328.90625 L 621.675781 329.976562 L 620.445312 330.839844 L 619.511719 332.398438 L 618.824219 334.308594 L 618.3125 336.214844 L 618.433594 340.109375 L 618.226562 341.664062 L 617.332031 343.351562 L 616.246094 344.871094 L 615.78125 345.839844 L 615.710938 346.707031 L 616.160156 347.273438 L 616.859375 347.375 L 618.214844 347.160156 L 618.871094 347.210938 L 619.457031 347.472656 L 619.789062 348.074219 L 619.6875 349.164062 L 619.199219 349.980469 L 618.445312 350.503906 L 617.621094 350.917969 L 616.9375 351.394531 L 616.25 352.648438 L 616.011719 354.285156 L 616.171875 356.015625 L 616.726562 357.515625 L 616.71875 357.527344 L 615.988281 358.269531 L 614.027344 361.101562 L 612.785156 361.71875 L 613.59375 359.96875 L 613.582031 359.082031 L 612.648438 358.699219 L 611.457031 357.707031 L 611.277344 357.800781 L 611.078125 357.96875 L 610.136719 358.554688 L 609.8125 358.699219 L 608.410156 358.136719 L 607.484375 357.917969 L 607.0625 358.171875 L 603.816406 357.613281 L 599.902344 359.046875 L 598.339844 359.105469 L 593.636719 358.21875 L 592.390625 358.699219 L 590.085938 361.195312 L 586.273438 366.773438 L 585.320312 368.695312 L 584.722656 369.585938 L 583.914062 369.964844 L 584.074219 368.582031 L 583.277344 367.519531 L 582.019531 366.839844 L 580.796875 366.605469 L 580.109375 366.792969 L 578.441406 368.128906 L 574.242188 369.84375 L 573.597656 369.964844 L 573.195312 370.195312 L 572 371.226562 L 571.597656 371.453125 L 570.328125 371.933594 L 568.417969 373.875 L 567.238281 374.066406 L 567.558594 375.355469 L 567.074219 376.582031 L 566.363281 377.816406 L 566 379.140625 L 565.734375 380.621094 L 565.058594 382.09375 L 564.171875 382.980469 L 563.25 382.722656 L 563.25 382.316406 L 563.519531 382.316406 L 564.257812 382.652344 L 564.9375 381.128906 L 565.371094 379.175781 L 565.378906 378.207031 L 565.082031 377.964844 L 563.765625 376.34375 L 563.214844 376.023438 L 562.027344 375.582031 L 561.515625 375.1875 L 560.902344 375.570312 L 560.265625 375.527344 L 559.257812 375.1875 L 558.644531 375.367188 L 558.242188 375.765625 L 557.949219 376.164062 L 557.664062 376.34375 L 555.269531 376.34375 L 553.765625 377.28125 L 551.945312 377.65625 L 550.769531 378.25 L 549.714844 379.097656 L 547.261719 381.789062 L 546.566406 383.035156 L 546.347656 384.621094 L 546.074219 384.621094 L 546.085938 383.8125 L 545.957031 383.628906 L 545.601562 383.839844 L 545.242188 383.984375 L 545.199219 384.328125 L 545.164062 384.433594 L 544.980469 383.9375 L 545.078125 383.710938 L 545.117188 383.359375 L 545.113281 383.09375 L 544.699219 382.800781 L 544.617188 382.722656 L 544.296875 382.070312 L 544.105469 381.820312 L 543.863281 381.601562 L 543.121094 381.253906 L 542.476562 381.277344 L 541.121094 381.601562 L 538.492188 381.195312 L 533.539062 382.167969 L 532.667969 382.144531 L 529.964844 383.75 L 527.933594 384.957031 L 526.871094 385.878906 L 523.941406 389.4375 L 522.757812 390.574219 L 518.46875 392.832031 L 517.777344 393.335938 L 517.207031 394.007812 L 516.105469 395.632812 L 515.546875 396.199219 L 514.273438 397.128906 L 513.734375 397.683594 L 510.261719 403.652344 L 510.082031 403.875 L 509.5 404.582031 L 507.539062 408.539062 L 506.640625 409.871094 L 505.804688 410.8125 L 504.328125 411.347656 L 503.4375 412.128906 L 502.191406 412.433594 L 501.332031 413.117188 L 499.929688 413.796875 L 499.28125 413.570312 L 499.398438 413.042969 L 500.550781 411.660156 L 501.816406 410.8125 L 501.714844 410.605469 L 501.542969 410.066406 L 505.339844 408.851562 L 507.210938 407.820312 L 508.203125 405.703125 L 509.074219 404.691406 L 509.453125 403.757812 L 510.511719 401.789062 L 511.832031 400.375 L 512.355469 399.46875 L 512.496094 398.089844 L 511.871094 398.796875 L 511.242188 399.367188 L 510.523438 399.433594 L 509.648438 398.632812 L 509.320312 397.414062 L 509.535156 395.96875 L 510.261719 393.914062 L 509.992188 393.730469 L 509.40625 393.683594 L 509.027344 393.578125 L 508.761719 393.390625 L 508.292969 392.925781 L 507.722656 392.535156 L 507.253906 391.789062 L 506.882812 390.804688 L 506.769531 389.8125 L 505.984375 390.867188 L 506.25 391.949219 L 506.90625 392.949219 L 507.265625 393.746094 L 507.378906 394.453125 L 507.582031 394.855469 L 507.691406 395.3125 L 507.539062 396.152344 L 507.246094 396.761719 L 506.023438 398.089844 L 503.867188 401.546875 L 503.746094 401.695312 L 502.65625 403.007812 L 501.046875 404.0625 L 497.609375 404.953125 L 497.261719 404.976562 L 496.8125 404.808594 L 496.59375 404.46875 L 496.5625 404.066406 L 496.472656 403.847656 L 496.066406 404.0625 L 495.8125 404.554688 L 495.769531 405.175781 L 495.652344 405.703125 L 494.082031 406.472656 L 493.945312 406.714844 L 493.308594 407.644531 L 493.113281 408.167969 L 493.078125 408.734375 L 493.148438 409.171875 L 493.363281 410.066406 L 493.546875 413.5625 L 493.71875 414.355469 L 494.070312 415.222656 L 495.367188 421.863281 L 495.699219 422.589844 L 496.125 423.234375 L 496.484375 423.914062 L 498.414062 429.328125 L 500 432.636719 L 501.542969 435.859375 L 511.992188 452.191406 L 517.386719 456.207031 L 518.734375 456.335938 L 525.167969 454.425781 L 525.929688 453.871094 L 526.921875 452.75 L 527.070312 452.21875 L 527.109375 451.730469 L 527.269531 451.363281 L 527.796875 451.222656 L 527.988281 451.042969 L 528.558594 450.214844 L 528.679688 449.949219 L 528.792969 448.949219 L 529.121094 447.933594 L 529.601562 447.121094 L 530.1875 446.746094 L 531.074219 446.824219 L 531.160156 447.367188 L 530.875 448.207031 L 530.683594 449.1875 L 530.941406 449.855469 L 531.558594 450.394531 L 534.300781 452.144531 L 535.734375 452.65625 L 537.050781 452.363281 L 538.121094 450.882812 L 538.609375 449.226562 L 538.742188 448.980469 L 539.738281 448.328125 L 540.523438 447.5 L 541.230469 447.230469 L 545.40625 447.261719 L 545.964844 446.945312 L 546.554688 446.433594 L 547.132812 446.613281 L 547.402344 447.289062 L 547.089844 448.269531 L 547.558594 448.242188 L 547.898438 447.976562 L 548.214844 447.65625 L 548.605469 447.492188 L 549.296875 447.640625 L 550.449219 448.453125 L 551.191406 448.640625 L 553.328125 448.117188 L 554.054688 448.269531 L 554.972656 449.542969 L 555.59375 450.132812 L 556.160156 449.949219 L 556.816406 449.242188 L 557.417969 449.125 L 557.984375 449.460938 L 558.519531 450.136719 L 559.15625 452 L 559.417969 453.285156 L 559.148438 453.871094 L 557.964844 454.210938 L 557.523438 454.238281 L 557.113281 454.113281 L 556.035156 453.496094 L 555.1875 453.359375 L 554.484375 453.527344 L 554.007812 454.101562 L 553.828125 455.191406 L 553.957031 455.578125 L 554.191406 455.800781 L 554.296875 456.046875 L 554.054688 456.515625 L 553.746094 456.699219 L 552.917969 456.757812 L 552.59375 456.886719 L 552.117188 457.617188 L 551.710938 458.738281 L 551.417969 459.917969 L 551.105469 463.132812 L 551.085938 464.316406 L 551.300781 465.46875 L 552.296875 466.664062 L 552.773438 467.476562 L 552.703125 468.304688 L 552.222656 468.800781 L 549.597656 469.820312 L 546.351562 469.980469 L 545.960938 470.097656 L 545.601562 470.355469 L 545.460938 470.671875 L 545.253906 471.605469 L 545.113281 471.886719 L 544.398438 472.074219 L 541.179688 471.316406 L 539.113281 469.953125 L 539.113281 470.355469 L 537.980469 469.820312 L 537.164062 470.6875 L 536.546875 471.953125 L 536 472.597656 L 533.222656 472.410156 L 530.722656 472.902344 L 529.988281 472.527344 L 529.667969 471.308594 L 529.449219 470.757812 L 528.371094 469.34375 L 527.933594 468.898438 L 525.578125 467.3125 L 522.953125 466.21875 L 521.375 465.933594 L 519.804688 465.941406 L 518.3125 466.28125 L 516.980469 466.964844 L 515.0625 468.613281 L 514.746094 469.070312 L 514.65625 469.699219 L 514.46875 470.144531 L 514.355469 470.570312 L 514.476562 471.140625 L 514.691406 471.386719 L 515.738281 471.886719 L 515.738281 472.222656 L 515.257812 472.460938 L 514.070312 472.378906 L 513.511719 472.597656 L 513.082031 473.222656 L 513.023438 473.929688 L 513.265625 475.582031 L 511.527344 474.125 L 511.378906 474.34375 L 511.003906 474.621094 L 510.757812 474.871094 L 509.851562 474.289062 L 509.226562 474.746094 L 508.398438 476.546875 L 507.742188 477.167969 L 506.171875 477.558594 L 505.535156 477.890625 L 504.640625 479.667969 L 503.867188 482.054688 L 502.867188 483.757812 L 501.296875 483.484375 L 500.914062 482.90625 L 500.578125 482.152344 L 500.136719 481.496094 L 499.421875 481.21875 L 498.207031 481.148438 L 497.828125 481.21875 L 497.394531 481.445312 L 497.121094 481.730469 L 496.882812 482.035156 L 496.585938 482.296875 L 495.933594 482.429688 L 494.746094 482.121094 L 494.214844 482.503906 L 493.632812 482.773438 L 491.109375 482.296875 L 489.800781 482.820312 L 487.246094 484.660156 L 485.878906 485.320312 L 482.980469 485.992188 L 481.777344 486.554688 L 480.878906 487.59375 L 480.84375 487.441406 L 480.84375 487.304688 L 480.808594 487.230469 L 480.652344 487.257812 L 479.210938 489.453125 L 479.015625 489.832031 L 478.664062 490.320312 L 477.425781 492.636719 L 476.007812 496.621094 L 475.652344 497.332031 L 475.339844 497.4375 L 474.523438 497.324219 L 474.011719 497.335938 L 473.621094 497.28125 L 473.460938 497.332031 L 473.285156 497.523438 L 473.273438 497.6875 L 473.285156 497.859375 L 473.191406 498.074219 L 472.441406 499.410156 L 471.964844 499.824219 L 470.246094 500.210938 L 469.796875 500.820312 L 469.460938 501.652344 L 468.976562 502.554688 L 468.578125 502.988281 L 467.34375 503.910156 L 466.84375 504.078125 L 466.007812 504.210938 L 462.089844 506.214844 L 461.359375 506.320312 L 460.53125 506.171875 L 458.25 505.199219 L 457.796875 505.21875 L 457.035156 505.503906 L 456.636719 505.574219 L 454.226562 505.507812 L 453.488281 505.304688 L 450.742188 503.910156 L 450.246094 503.410156 L 450.046875 502.386719 L 449.828125 501.882812 L 448.734375 500.359375 L 448.3125 499.976562 L 447.660156 500.019531 L 446.886719 500.277344 L 446.105469 500.335938 L 445.449219 499.773438 L 445 499.253906 L 441.097656 496.289062 L 440.832031 495.636719 L 440.796875 495.007812 L 440.785156 494.984375 L 440.929688 495.148438 L 442.03125 494.886719 L 442.335938 494.714844 L 443.136719 494.0625 L 443.46875 493.972656 L 444.25 494.035156 L 444.644531 493.988281 L 444.941406 493.785156 L 445.464844 493.589844 L 447.324219 493.550781 L 448.0625 493.226562 L 447.566406 493.019531 L 446.378906 492.773438 L 446.058594 492.476562 L 446.003906 491.667969 L 446.324219 490.992188 L 446.761719 490.40625 L 447.070312 489.832031 L 447.222656 488.957031 L 447.164062 488.363281 L 446.800781 487.257812 L 446.570312 485.753906 L 446.378906 484.925781 L 446.058594 484.234375 L 446.34375 483.980469 L 446.472656 483.789062 L 446.574219 483.484375 L 446.824219 482.378906 L 447.140625 481.402344 L 447.628906 480.699219 L 449.035156 480.175781 L 449.433594 479.496094 L 449.679688 478.546875 L 449.820312 477.480469 L 449.808594 476.234375 L 449.410156 474.09375 L 449.300781 473.171875 L 449.199219 472.847656 L 448.558594 471.476562 L 448.4375 470.984375 L 448.3125 469.578125 L 447.734375 467.351562 L 446.824219 466.070312 L 444.34375 464.351562 L 442.324219 462.398438 L 441.707031 462.113281 L 440.207031 462.332031 L 438.84375 462.894531 L 437.570312 463.710938 L 436.738281 463.953125 L 436.367188 463.433594 L 436.027344 462.667969 L 435.246094 462.238281 L 433.613281 461.738281 L 433.0625 461.183594 L 431.789062 459.484375 L 430.886719 458.921875 L 430.578125 458.457031 L 430.167969 457.636719 L 429.828125 457.367188 L 429.191406 457.089844 L 428.878906 456.886719 L 426.460938 454.683594 L 425.15625 453.761719 L 423.652344 453.121094 L 418.238281 452.625 L 417.453125 452.75 L 416.882812 453.179688 L 415.597656 454.667969 L 415.078125 454.988281 L 412.476562 454.988281 L 411.703125 454.710938 L 410.441406 454.007812 L 409.625 453.871094 L 408.644531 450.898438 L 408.488281 450.136719 L 408.980469 448.679688 L 410.070312 447.441406 L 414.371094 443.96875 L 415.078125 443.757812 L 415.917969 443.679688 L 416.59375 443.457031 L 417.160156 443.113281 L 417.679688 442.671875 L 418.007812 442.265625 L 418.226562 441.894531 L 418.519531 441.621094 L 419.066406 441.515625 L 419.433594 441.582031 L 420.136719 441.863281 L 420.558594 441.925781 L 421.0625 441.742188 L 421.128906 441.316406 L 421.007812 440.8125 L 420.953125 440.398438 L 421.03125 439.933594 L 421.164062 439.632812 L 421.417969 439.246094 L 422.523438 438.042969 L 425.015625 436.273438 L 433.246094 432.238281 L 433.707031 431.867188 L 433.882812 431.207031 L 433.71875 431 L 433.367188 430.800781 L 433.089844 430.476562 L 433.144531 429.914062 L 433.453125 429.609375 L 433.792969 429.835938 L 434.386719 430.664062 L 435.667969 431.4375 L 436.949219 431.28125 L 439.589844 429.542969 L 440.902344 428.945312 L 441.097656 428.589844 L 442.199219 427.300781 L 442.742188 427.0625 L 444.265625 426.019531 L 444.820312 425.777344 L 445.085938 425.894531 L 445.746094 426.40625 L 446.1875 426.519531 L 446.558594 426.46875 L 447.433594 426.183594 L 448.3125 425.03125 L 449.046875 424.527344 L 449.46875 424.339844 L 449.820312 424.285156 L 450.199219 424.382812 L 450.609375 424.597656 L 450.933594 424.894531 L 451.058594 425.234375 L 451.238281 425.511719 L 451.644531 425.554688 L 452.425781 425.4375 L 452.480469 424.789062 L 452.40625 423.496094 L 452.492188 422.496094 L 453.042969 422.757812 L 453.644531 422.410156 L 454.886719 422.074219 L 455.523438 421.671875 L 454.855469 421.054688 L 454.164062 420.675781 L 452.089844 420.09375 L 451.175781 420.175781 L 450.761719 420.363281 L 450.511719 420.703125 L 450.257812 420.863281 L 449.820312 420.515625 L 450.492188 419.558594 L 450.796875 418.933594 L 450.679688 418.648438 L 450.257812 418.464844 L 450.226562 418.011719 L 450.421875 417.472656 L 450.679688 417.007812 L 450.632812 416.613281 L 450.171875 414.730469 L 450.113281 414.117188 L 450.507812 413.542969 L 450.855469 412.902344 L 450.679688 412.101562 L 450.132812 410.996094 L 449.585938 409.886719 L 448.972656 409.308594 L 448.0625 409.660156 L 447.273438 410.367188 L 446.644531 411.179688 L 446.601562 411.980469 L 447.566406 412.644531 L 447.566406 413.050781 L 446.601562 413.125 L 445.671875 413.4375 L 445.3125 414.113281 L 446.058594 415.289062 L 445.695312 415.265625 L 444.941406 414.917969 L 442.699219 414.910156 L 442.390625 414.648438 L 441.265625 413.035156 L 440.300781 412.148438 L 439.332031 411.949219 L 438.597656 413.050781 L 438.417969 412.777344 L 438.257812 412.703125 L 438.074219 412.707031 L 437.851562 412.644531 L 438.453125 412.019531 L 438.847656 411.28125 L 438.773438 410.664062 L 437.96875 410.40625 L 435.105469 410.8125 L 435.367188 410.089844 L 435.492188 409.398438 L 435.847656 405.589844 L 435.007812 406.546875 L 434.390625 408.054688 L 433.667969 409.453125 L 432.511719 410.066406 L 432.230469 410.132812 L 431.773438 410.394531 L 431.40625 410.40625 L 431.0625 410.261719 L 430.28125 409.660156 L 428.164062 408.539062 L 428.492188 410.113281 L 427.972656 410.84375 L 424.15625 411.527344 L 423.652344 411.523438 L 423.375 411.445312 L 423.050781 411.226562 L 422.8125 411.1875 L 421.980469 411.246094 L 421.667969 411.1875 L 419.679688 410.480469 L 418.824219 410.40625 L 418.28125 410.550781 L 416.929688 411.261719 L 412.359375 412.117188 L 411.980469 412.273438 L 411.609375 412.542969 L 411.007812 413.214844 L 410.742188 413.425781 L 409.28125 413.664062 L 401.984375 411.445312 L 401.1875 410.847656 L 400.722656 410.902344 L 400.53125 410.8125 L 400.460938 410.601562 L 400.34375 409.898438 L 400.285156 409.660156 L 400.140625 409.246094 L 399.984375 408.492188 L 399.785156 408.167969 L 400.476562 407.511719 L 400.6875 407.175781 L 400.78125 406.640625 L 399.6875 407.148438 L 398.742188 407.269531 L 397.804688 407.070312 L 396.179688 406.453125 L 395.671875 406.359375 L 395.191406 406.097656 L 393.828125 404.183594 L 392.820312 403.28125 L 391.65625 403.746094 L 389.855469 402.753906 L 386.851562 400.332031 L 386.792969 400.953125 L 386.933594 401.691406 L 387.003906 402.308594 L 386.730469 402.566406 L 384.4375 402.484375 L 383.78125 402.242188 L 383.226562 401.839844 L 382.738281 401.277344 L 382.554688 400.429688 L 383.011719 399.6875 L 383.734375 399.117188 L 384.347656 398.804688 L 385.097656 398.714844 L 387.101562 399.175781 L 389.847656 398.632812 L 390.175781 398.402344 L 392.078125 396.5625 L 392.515625 396.457031 L 393.003906 396.472656 L 393.246094 396.296875 L 392.945312 395.632812 L 391.285156 393.28125 L 390.699219 393.03125 L 389.351562 393.171875 L 387.757812 392.902344 L 382.710938 390.71875 L 381.871094 390.496094 L 381.066406 390.445312 L 380.496094 390.742188 L 379.960938 391.359375 L 379.753906 391.664062 L 379.621094 392.082031 L 379.566406 392.605469 L 379.621094 394.324219 L 378.785156 392.015625 L 378.503906 391.675781 L 377.984375 391.472656 L 373.734375 386.984375 L 373.148438 385.703125 L 374.308594 386.664062 L 375.265625 387.738281 L 375.808594 388.019531 L 382.15625 387.527344 L 383.382812 387.910156 L 385.480469 389.234375 L 385.617188 389.292969 L 385.984375 389.4375 L 389.082031 389.4375 L 392.214844 390.148438 L 394.3125 389.789062 L 395.054688 389.8125 L 399.046875 390.742188 L 401.027344 392.082031 L 402.53125 392.441406 L 404.109375 392.304688 L 405.511719 391.675781 L 406.507812 390.554688 L 405.828125 389.546875 L 406.824219 388.132812 L 409.363281 385.894531 L 410.054688 385.425781 L 411.734375 385.222656 L 412.367188 384.789062 L 412.925781 384.167969 L 413.492188 383.742188 L 414.015625 383.214844 L 414.441406 382.316406 L 413.582031 382.742188 L 412.589844 383.476562 L 411.605469 384.015625 L 410.742188 383.839844 L 405.851562 386.726562 L 403.195312 387.09375 L 400.78125 385.703125 L 400.214844 384.769531 L 400.015625 384.621094 L 399.601562 384.785156 L 398.992188 385.53125 L 398.660156 385.703125 L 398.253906 385.765625 L 397.542969 386.023438 L 397.171875 386.078125 L 396.316406 387.199219 L 395.796875 386.648438 L 395.285156 384.648438 L 394.671875 384.210938 L 392.4375 383.742188 L 391.828125 383.433594 L 391.328125 382.851562 L 390.746094 381.886719 L 390.269531 380.8125 L 390.074219 379.886719 L 389.9375 378.855469 L 389.601562 378.050781 L 389.195312 377.277344 L 388.832031 376.34375 L 388.683594 374.074219 L 389.359375 372.375 L 390.335938 370.796875 L 391.089844 368.875 L 391.273438 367.792969 L 391.246094 366.960938 L 390.855469 366.421875 L 389.042969 366.074219 L 388.671875 365.628906 L 388.792969 364.914062 L 389.875 363.234375 L 390.164062 362.648438 L 389.945312 362.269531 L 388.957031 362.125 L 387.375 362.417969 L 386.683594 362.339844 L 386.109375 361.71875 L 387.125 359.421875 L 387.253906 358.09375 L 386.730469 356.679688 L 386.214844 356.199219 L 385.761719 356.074219 L 385.394531 355.835938 L 385.117188 355.003906 L 385 353.96875 L 384.992188 353.378906 L 384.851562 352.953125 L 384.347656 352.386719 L 382.203125 351.34375 L 381.871094 350.671875 L 382.042969 349.578125 L 382 349.175781 L 381.625 348.996094 L 381.480469 349.203125 L 380.972656 350.179688 L 380.855469 350.484375 L 381.082031 351.105469 L 381.648438 351.726562 L 382.351562 352.199219 L 383.964844 352.628906 L 384.328125 353.273438 L 384.304688 356.457031 L 384.464844 356.761719 L 385.363281 356.984375 L 385.613281 357.238281 L 385.796875 357.496094 L 385.984375 357.613281 L 386.4375 358.03125 L 386.152344 358.949219 L 385.640625 359.851562 L 385.363281 360.226562 L 385.097656 362.699219 L 386.246094 363.222656 L 387.882812 362.992188 L 389.082031 363.210938 L 388.015625 364.457031 L 387.527344 365.320312 L 387.351562 366.230469 L 387.652344 367.179688 L 388.300781 367.375 L 389.097656 367.085938 L 389.847656 366.605469 L 390.015625 367.789062 L 389.671875 369.410156 L 389.007812 370.839844 L 388.210938 371.453125 L 387.320312 371.746094 L 386.550781 372.546875 L 386.089844 373.734375 L 386.109375 375.1875 L 387.472656 377.089844 L 387.617188 377.46875 L 387.351562 379.886719 L 387.457031 380.816406 L 387.640625 381.246094 L 387.679688 381.597656 L 387.351562 382.316406 L 387.082031 382.640625 L 386.285156 383.214844 L 385.859375 383.433594 L 384.273438 383.765625 L 382.703125 383.523438 L 379.167969 382.117188 L 377 382.316406 L 376.375 382.664062 L 376.066406 383.410156 L 375.710938 384.078125 L 374.910156 384.210938 L 374.609375 384.039062 L 374.101562 383.539062 L 373.769531 383.433594 L 372.996094 383.496094 L 372.59375 383.457031 L 372.304688 383.261719 L 372.15625 382.488281 L 372.515625 381.5625 L 374.523438 378.050781 L 375.035156 376.875 L 375.019531 376.34375 L 375.464844 375.933594 L 377.136719 373.359375 L 376.699219 372.648438 L 376.398438 372.976562 L 376.164062 373.765625 L 375.898438 374.441406 L 375.628906 374.675781 L 374.929688 374.988281 L 374.636719 375.1875 L 374.425781 375.46875 L 373.726562 376.605469 L 373.679688 376.808594 L 373.554688 376.964844 L 373.148438 377.089844 L 372.6875 376.789062 L 372.179688 376.34375 L 371.640625 374.992188 L 371.25 374.308594 L 370.691406 374.066406 L 371.101562 375.433594 L 371.167969 375.78125 L 371.242188 376.574219 L 371.464844 376.898438 L 371.785156 377.082031 L 372.925781 378.042969 L 373.058594 378.445312 L 372.785156 379.140625 L 372.109375 380.257812 L 372.054688 380.445312 L 371.492188 380.914062 L 370.253906 382.96875 L 369.804688 383.433594 L 369.09375 383.601562 L 367.480469 384.515625 L 366.953125 384.957031 L 366.453125 384.691406 L 365.429688 384.542969 L 364.964844 384.210938 L 364.699219 384.621094 L 364.011719 384.128906 L 361.476562 383.433594 L 360.484375 383.441406 L 358.621094 384.054688 L 356.671875 384.328125 L 355.164062 384.84375 L 354.378906 384.957031 L 354.054688 385.167969 L 353.210938 385.933594 L 352.894531 385.894531 L 352.480469 385.699219 L 352.007812 385.882812 L 349.859375 387.441406 L 349.410156 387.574219 L 347.882812 387.210938 L 347.523438 387.199219 L 347.09375 387.597656 L 346.011719 389.160156 L 345.792969 389.625 L 345.917969 390.351562 L 346.53125 391.710938 L 346.777344 392.832031 L 346.917969 392.828125 L 347.191406 393.097656 L 347.363281 393.421875 L 347.175781 393.578125 L 347.082031 393.691406 L 346.949219 393.964844 L 346.832031 394.273438 L 346.511719 395.925781 L 346.429688 396.152344 L 344.933594 398.222656 L 344.328125 398.804688 L 342.371094 398.644531 L 342.050781 398.988281 L 342.21875 399.292969 L 343.050781 399.878906 L 343.308594 400.332031 L 343.320312 400.929688 L 343.160156 401.449219 L 342.109375 403.632812 L 339.570312 407.417969 L 338.78125 408.984375 L 338.269531 409.746094 L 337.699219 410.066406 L 337.382812 410.511719 L 336.660156 412.664062 L 336.324219 413.425781 L 331.863281 417.9375 L 327.875 423.535156 L 325.824219 425.703125 L 323.410156 427.675781 L 323.5 426.953125 L 323.292969 423.882812 L 323.011719 423.761719 L 322.679688 424.136719 L 322.398438 424.652344 L 322.222656 425.285156 L 322.097656 426.742188 L 322.035156 427.097656 L 321.898438 427.460938 L 321.882812 427.75 L 321.816406 427.945312 L 321.53125 428.015625 L 321.445312 427.902344 L 321.226562 427.695312 L 321.011719 427.609375 L 320.910156 427.84375 L 320.605469 428.019531 L 318.914062 426.585938 L 318.046875 426.183594 L 317.238281 426.628906 L 316.945312 427.707031 L 316.867188 429.050781 L 316.671875 430.289062 L 316.3125 429.65625 L 315.925781 429.171875 L 315.925781 428.761719 L 316.171875 428.183594 L 316.023438 427.875 L 315.707031 428.003906 L 315.429688 428.761719 L 315.394531 429.691406 L 315.5625 430.425781 L 315.847656 430.992188 L 316.179688 431.40625 L 315.925781 432.898438 L 315.746094 432.378906 L 315.464844 432.007812 L 314.6875 431.40625 L 314.597656 431.195312 L 314.636719 430.949219 L 314.613281 430.746094 L 314.304688 430.664062 L 314.085938 430.777344 L 313.980469 431.035156 L 313.910156 431.292969 L 313.808594 431.40625 L 312.964844 431.429688 L 311.980469 431.617188 L 311.207031 432.171875 L 310.964844 433.273438 L 311.238281 433.996094 L 311.714844 434.347656 L 312.683594 434.734375 L 313.234375 435.324219 L 313.480469 435.734375 L 313.304688 435.921875 L 312.664062 436.195312 L 312.089844 436.722656 L 311.46875 437.03125 L 310.722656 436.667969 L 310.617188 437.015625 L 310.535156 437.140625 L 310.550781 437.304688 L 310.722656 437.75 L 310.179688 438.070312 L 309.15625 438.453125 L 308.714844 438.90625 L 308.761719 437.472656 L 308.359375 436.003906 L 307.679688 434.855469 L 306.859375 434.394531 L 306.957031 433.988281 L 306.734375 431.40625 L 306.972656 430.519531 L 307.207031 430.105469 L 307.265625 429.777344 L 306.976562 429.171875 L 306.777344 428.851562 L 306.675781 428.746094 L 306.546875 428.667969 L 305.792969 427.996094 L 305.582031 427.742188 L 305.414062 427.269531 L 305.246094 427.316406 L 305.078125 427.589844 L 304.996094 428.015625 L 305.113281 428.394531 L 305.625 429.105469 L 305.742188 429.355469 L 305.597656 429.785156 L 304.933594 430.75 L 304.726562 431.40625 L 304.683594 432.242188 L 304.777344 432.679688 L 304.972656 433.046875 L 305.222656 433.679688 L 303.972656 434.699219 L 303.753906 436.832031 L 303.835938 439.445312 L 303.484375 441.925781 L 304.402344 442.414062 L 304.914062 442.601562 L 305.617188 442.671875 L 306.285156 442.523438 L 306.804688 442.140625 L 307.746094 441.148438 L 307.289062 441.753906 L 306.097656 443.742188 L 305.617188 444.164062 L 305.238281 444.398438 L 305.007812 444.910156 L 304.828125 445.425781 L 304.617188 445.660156 L 304.046875 445.863281 L 304.066406 446.347656 L 304.625 447.648438 L 304.933594 448.054688 L 305.339844 448.335938 L 305.742188 448.269531 L 305.878906 447.785156 L 305.8125 447.121094 L 305.890625 446.566406 L 306.484375 446.40625 L 306.484375 447.679688 L 306.59375 447.910156 L 306.816406 447.878906 L 307 447.695312 L 306.976562 447.492188 L 307.285156 447.585938 L 307.566406 447.527344 L 307.804688 447.734375 L 307.96875 448.640625 L 308.207031 447.8125 L 308.378906 446.894531 L 308.660156 446.480469 L 309.210938 447.152344 L 309.472656 448.039062 L 309.519531 449.097656 L 309.226562 449.839844 L 308.496094 449.765625 L 309.007812 450.375 L 309.3125 451.398438 L 309.445312 452.585938 L 309.53125 454.925781 L 309.480469 455.394531 L 309.359375 455.859375 L 309.046875 456.609375 L 308.984375 457.058594 L 308.570312 458.375 L 308.496094 458.945312 L 308.53125 459.402344 L 308.570312 459.492188 L 308.507812 459.539062 L 307.808594 460.277344 L 307.214844 460.636719 L 306.5625 460.8125 L 306 460.683594 L 306.191406 460.285156 L 306.273438 459.878906 L 306.21875 459.484375 L 306.007812 459.140625 L 306.484375 457.566406 L 306.292969 455.4375 L 305.683594 453.566406 L 304.878906 452.765625 L 304.453125 452.515625 L 302.757812 450.898438 L 297.707031 448.960938 L 294.917969 448.65625 L 294.558594 448.539062 L 294.164062 448.316406 L 293.769531 448.226562 L 293.429688 448.46875 L 293.21875 448.753906 L 292.9375 449.042969 L 292.621094 449.277344 L 292.304688 449.402344 L 291.542969 449.417969 L 290.953125 449.296875 L 290.355469 449.324219 L 289.578125 449.777344 L 289.027344 450.285156 L 288.722656 450.675781 L 288.585938 451.066406 L 288.402344 451.222656 L 287.523438 451.285156 L 287.222656 451.4375 L 286.703125 452.011719 L 286.078125 452.3125 L 284.597656 452.765625 L 282.730469 454.398438 L 282.238281 454.664062 L 281.433594 454.695312 L 281.117188 454.792969 L 280.855469 455 L 280.636719 455.46875 L 280.523438 456.523438 L 280.359375 456.902344 L 279.527344 457.230469 L 278.804688 456.777344 L 278.210938 456.097656 L 277.746094 455.75 L 276.921875 455.589844 L 275.964844 454.867188 L 275.402344 454.664062 L 274.4375 454.917969 L 274.398438 455.699219 L 274.453125 456.519531 L 273.414062 457.082031 L 273.347656 457.5 L 273.449219 457.992188 L 273.621094 458.398438 L 273.878906 458.636719 L 274.90625 459.140625 L 274.5 459.640625 L 274.035156 459.855469 L 272.898438 459.886719 L 271.542969 460.082031 L 266.714844 458.925781 L 263.707031 457.242188 L 260.472656 456.355469 L 259.207031 455.582031 L 258.589844 455.40625 L 257.753906 454.835938 L 257.046875 453.472656 L 255.972656 450.519531 L 256.164062 449.433594 L 255.453125 448.410156 L 254.390625 447.777344 L 253.574219 447.867188 L 253.492188 447.878906 L 253.007812 447.246094 L 253.082031 446.859375 L 253.332031 446.171875 L 253.648438 445.527344 L 253.652344 445.519531 L 255.582031 443.980469 L 255.585938 443.980469 L 258.175781 444.191406 L 260.898438 444.949219 L 263.226562 445.046875 L 263.992188 444.675781 L 264.152344 444.03125 L 263.917969 442.171875 L 263.84375 442.070312 L 263.851562 441.945312 L 264.054688 441.542969 L 264.085938 441.480469 L 264.296875 441.273438 L 265.257812 440.792969 L 264.757812 440.058594 L 264.597656 439.304688 L 264.53125 438.542969 L 264.328125 437.773438 L 263.863281 437.265625 L 263.296875 436.914062 L 262.972656 436.523438 L 263.226562 435.890625 L 264.070312 434.566406 L 264.472656 434.113281 L 265.097656 433.671875 L 266.148438 433.316406 L 266.375 432.878906 L 266.222656 432.28125 L 266.117188 431.859375 L 266.703125 430.839844 L 269.132812 430.585938 L 270.082031 429.996094 L 270.207031 429.472656 L 270.160156 428.90625 L 270.066406 428.410156 L 270.082031 428.097656 L 270.355469 427.851562 L 271.410156 427.601562 L 272.109375 427.183594 L 272.570312 426.703125 L 272.816406 425.996094 L 272.867188 424.898438 L 272.714844 423.984375 L 272.210938 422.089844 L 272.238281 421.175781 L 272.640625 420.382812 L 273.269531 419.945312 L 279.601562 418.199219 L 280.507812 417.75 L 280.582031 416.675781 L 279.9375 414.289062 L 279.847656 412.941406 L 280.128906 412.078125 L 281.375 410.601562 L 282.199219 409.136719 L 282.628906 407.839844 L 282.429688 406.652344 L 281.496094 405.730469 L 280.285156 404.535156 L 280.277344 404.535156 L 279.65625 403.667969 L 279.636719 402.921875 L 279.890625 402.136719 L 280.105469 401.152344 L 280.070312 400.292969 L 279.433594 397.707031 L 279.140625 395.703125 L 279.367188 394.167969 L 280.105469 392.964844 L 282.808594 391.066406 L 284.101562 390.5625 L 284.792969 390.292969 L 287.980469 388.410156 L 288.71875 388.414062 L 288.761719 388.414062 L 289.34375 389.179688 L 289.582031 390.355469 L 289.609375 394.980469 L 289.539062 395.625 L 289.308594 396.148438 L 288.984375 396.660156 L 288.730469 397.183594 L 288.742188 397.753906 L 289.359375 398.300781 L 290.164062 397.792969 L 291.484375 396.265625 L 291.925781 396.097656 L 292.171875 396.183594 L 292.355469 396.097656 L 292.605469 395.398438 L 292.628906 394.90625 L 292.453125 393.800781 L 292.570312 393.136719 L 293.210938 392.023438 L 293.71875 392.199219 L 294.570312 394.089844 L 295.21875 395.089844 L 295.679688 395.074219 L 297.257812 392.542969 L 297.933594 391.765625 L 298.65625 391.347656 L 298.6875 391.328125 L 299.53125 391.472656 L 299.734375 391.8125 L 299.800781 392.167969 L 299.726562 392.542969 L 299.53125 392.925781 L 299.328125 393.359375 L 299.257812 393.78125 L 299.324219 394.195312 L 299.53125 394.582031 L 300.085938 394.820312 L 301.226562 395.046875 L 301.730469 395.246094 L 302.246094 395.730469 L 302.75 396.925781 L 303.238281 397.617188 L 303.808594 397.976562 L 304.425781 398.046875 L 305.023438 397.8125 L 305.511719 397.292969 L 305.78125 396.402344 L 305.601562 395.0625 L 305.832031 394.71875 L 306.863281 394.707031 L 307.59375 394.410156 L 307.992188 393.605469 L 308.003906 392.066406 L 308.46875 392.910156 L 310.378906 394.804688 L 311.132812 396.046875 L 311.304688 396.507812 L 311.363281 397.003906 L 311.34375 398.058594 L 311.417969 398.433594 L 312.140625 399.269531 L 312.855469 399.160156 L 314.195312 397.914062 L 314.84375 397.535156 L 315.429688 397.398438 L 319.734375 397.65625 L 321.328125 397.367188 L 322.273438 396.402344 L 323.160156 394.710938 L 322.675781 394.390625 L 322.085938 394.277344 L 321.539062 394.378906 L 321.179688 394.710938 L 320.5625 393.945312 L 318.894531 392.566406 L 319.171875 392.097656 L 318.722656 391.144531 L 318.484375 390.808594 L 318.199219 390.574219 L 317.992188 390.5625 L 317.550781 390.863281 L 317.3125 390.945312 L 317.183594 390.828125 L 317.003906 390.304688 L 316.9375 390.167969 L 315.335938 389.464844 L 314.820312 388.808594 L 314.707031 387.589844 L 315.335938 387.519531 L 316.132812 387.359375 L 316.554688 386.179688 L 316.472656 385.664062 L 316.019531 384.542969 L 315.886719 383.976562 L 315.910156 383.257812 L 316.035156 382.738281 L 316.214844 382.25 L 316.363281 381.609375 L 316.660156 378.210938 L 316.605469 377.203125 L 316.445312 376.785156 L 316.046875 376 L 315.90625 375.601562 L 315.855469 375.097656 L 315.863281 373.925781 L 315.773438 373.558594 L 315.382812 373.332031 L 315.03125 373.496094 L 314.695312 373.730469 L 314.375 373.703125 L 314.203125 373.402344 L 313.914062 372.410156 L 313.742188 372.03125 L 312.703125 371.132812 L 311.671875 371 L 310.601562 371.105469 L 309.453125 370.921875 L 308.789062 370.421875 L 307.941406 368.984375 L 307.347656 368.371094 L 306.792969 368.160156 L 305.605469 368.058594 L 305.015625 367.839844 L 304.703125 367.558594 L 304.132812 366.878906 L 303.804688 366.695312 L 302.882812 366.785156 L 302.675781 366.734375 L 302.359375 366.128906 L 302.398438 365.410156 L 302.429688 365.277344 L 302.585938 364.554688 L 302.859375 362.519531 L 303.253906 361.914062 L 303.691406 361.402344 L 303.96875 360.660156 L 303.933594 359.828125 L 303.671875 359.082031 L 303.253906 358.503906 L 302.773438 358.164062 L 302.089844 358.230469 L 301.667969 358.847656 L 301.351562 359.550781 L 300.957031 359.886719 L 300.644531 359.550781 L 299.53125 357.410156 L 299.453125 357.230469 L 299.421875 357.0625 L 299.449219 356.894531 L 299.53125 356.738281 L 300.542969 356.632812 L 301.328125 356.398438 L 301.855469 355.75 L 302.066406 354.40625 L 301.695312 351.542969 L 301.824219 350.355469 L 302.722656 349.871094 L 303.140625 348.925781 L 303.105469 347.660156 L 302.769531 346.390625 L 302.28125 345.449219 L 301.675781 344.890625 L 300.988281 344.632812 L 300.265625 344.585938 L 299.53125 344.671875 L 299.160156 345.519531 L 298.996094 346.355469 L 298.746094 347.117188 L 298.109375 347.738281 L 297.523438 347.929688 L 296.941406 347.867188 L 296.394531 347.597656 L 295.898438 347.144531 L 295.539062 346.519531 L 295.417969 346.3125 L 295.308594 345.535156 L 295.292969 344.746094 L 295.105469 343.878906 L 294.628906 343.164062 L 294.070312 342.910156 L 293.5 342.789062 L 292.996094 342.488281 L 292.699219 341.90625 L 292.539062 341.253906 L 292.289062 340.667969 L 291.175781 339.910156 L 290.519531 338.761719 L 290 338.476562 L 289.402344 338.75 L 289.058594 339.339844 L 288.683594 339.664062 L 288.023438 339.144531 L 287.722656 338.5625 L 287.15625 336.914062 L 287.054688 336.703125 L 286.816406 336.214844 L 286.816406 336.210938 L 286.808594 336.203125 L 286.335938 334.007812 L 286.8125 332.570312 L 287.742188 331.304688 L 288.683594 329.640625 L 289.058594 327.582031 L 289.023438 325.648438 L 289.222656 323.941406 L 290.300781 322.535156 L 290.734375 321.835938 L 290.59375 321.246094 L 290.132812 320.808594 L 288.878906 320.347656 L 288.53125 319.992188 L 288.527344 319.394531 L 288.851562 318.433594 L 289.296875 317.820312 L 289.964844 317.085938 L 290.523438 316.3125 L 290.640625 315.566406 L 290.277344 315.300781 L 288.847656 314.859375 L 288.339844 314.457031 L 288.050781 313.660156 L 287.730469 311.785156 L 287.445312 310.9375 L 287.019531 310.238281 L 286.574219 309.8125 L 286.066406 309.609375 L 285.4375 309.582031 L 284.289062 310.152344 L 282.699219 312.265625 L 281.375 312.523438 L 280.269531 312.0625 L 279.75 311.660156 L 278.980469 311.058594 L 277.808594 309.769531 L 277.066406 308.472656 L 276.832031 308.066406 L 276.234375 307.5 L 275.992188 307.140625 L 275.929688 306.8125 L 275.8125 305.382812 L 275.230469 303.964844 L 275.144531 303.589844 L 275.113281 303.21875 L 275.023438 302.824219 L 274.785156 302.386719 L 273.765625 301.695312 L 272.453125 301.464844 L 269.929688 301.429688 L 266.589844 300.027344 L 265.425781 299.972656 L 264.617188 300.347656 L 263.957031 302.332031 L 263.910156 302.546875 L 263.707031 303.476562 L 263.691406 304.410156 L 263.554688 304.917969 L 263.175781 304.949219 L 262.441406 304.429688 L 262.007812 303.976562 L 260.976562 301.816406 L 261.582031 301.136719 L 261.625 300.308594 L 261.277344 299.570312 L 260.707031 299.167969 L 259.875 299.28125 L 259.398438 299.9375 L 259.015625 300.761719 L 258.457031 301.40625 L 257.695312 301.554688 L 257.289062 301.097656 L 257.21875 300.339844 L 257.460938 299.578125 L 258.03125 298.90625 L 258.554688 298.558594 L 258.957031 298.058594 L 259.199219 296.929688 L 259.128906 295.890625 L 258.75 295.457031 L 258.128906 295.375 L 256.453125 295.570312 L 255.839844 295.972656 L 255.265625 296.476562 L 254.488281 296.929688 L 253.640625 297.121094 L 253.019531 296.925781 L 252.636719 296.304688 L 252.507812 295.25 L 252.246094 294.347656 L 251.648438 294.441406 L 250.523438 295.402344 L 249.960938 295.558594 L 249.148438 295.519531 L 248.621094 295.109375 L 249.332031 292.96875 L 249.132812 291.988281 L 248.535156 291.285156 L 247.792969 290.925781 L 245.878906 290.683594 L 244.566406 290.519531 L 243.089844 289.945312 L 242.296875 288.683594 L 242.011719 288.425781 L 241.601562 287.8125 L 240.855469 286.691406 L 240.3125 286.105469 L 237.964844 284.359375 L 236.75 283.792969 L 232.21875 283.832031 L 231.488281 283.472656 L 231.414062 282.035156 L 230.621094 281.929688 L 229.679688 282.570312 L 229.246094 282.675781 L 227.746094 282.675781 L 226.914062 283.824219 L 224.710938 285.695312 L 224.101562 286.003906 L 223.609375 285.8125 L 222.574219 284.839844 L 221.878906 284.660156 L 220.5625 285.339844 L 218.601562 287.820312 L 218.402344 288.070312 L 217.023438 288.785156 L 215.835938 288.722656 L 211.953125 287.242188 L 211.195312 286.761719 L 210.8125 286.652344 L 210.410156 286.792969 L 210.375 287.1875 L 210.476562 287.652344 L 210.460938 288.011719 L 210.488281 288.230469 L 210.609375 288.535156 L 210.652344 288.808594 L 210.457031 288.941406 L 210.019531 288.851562 L 209.621094 288.886719 L 209.375 288.734375 L 209.109375 288.691406 L 208.765625 289.054688 L 207.390625 289.296875 L 206.136719 288.535156 L 204.949219 287.507812 L 203.746094 286.976562 L 203.351562 287.105469 L 203.222656 287.445312 L 203.121094 287.847656 L 202.804688 288.179688 L 202.554688 288.171875 L 201.957031 287.929688 L 201.757812 287.949219 L 201.375 288.484375 L 201.398438 288.972656 L 201.613281 289.632812 L 201.804688 290.683594 L 201.832031 291.714844 L 201.671875 292.421875 L 201.261719 292.800781 L 200.542969 292.855469 L 199.863281 292.546875 L 199.417969 291.957031 L 199.03125 291.285156 L 198.539062 290.726562 L 197.828125 290.449219 L 197.617188 290.914062 L 197.4375 291.617188 L 196.238281 292.378906 L 195.839844 293.035156 L 195.605469 293.894531 L 195.578125 294.34375 L 194.472656 294.867188 L 189.894531 295.90625 L 189.289062 296.050781 L 187.574219 296.132812 L 186.957031 296.296875 L 185.753906 296.90625 L 185.132812 297.101562 L 184.460938 297.035156 L 184.164062 296.90625 L 183.894531 298.714844 L 183.945312 299.953125 L 183.5625 301.679688 L 182.972656 303.382812 L 182.414062 304.542969 L 181.976562 305.058594 L 181.023438 305.875 L 180.578125 306.457031 L 179.777344 308.320312 L 179.425781 308.875 L 177.707031 309.679688 L 176.867188 309.6875 L 174.207031 309.710938 L 171.898438 310.417969 L 170.167969 310.238281 L 169.558594 310.359375 L 168.457031 310.847656 L 166.546875 311.089844 L 164.15625 312.074219 L 146.335938 314.042969 L 144.785156 315.140625 L 141.257812 321.054688 L 139.746094 322.539062 L 139.738281 322.542969 L 139.734375 322.550781 L 137.464844 323.554688 L 134.742188 324.046875 L 134.25 324.136719 L 133.078125 324.347656 L 132.394531 323.871094 L 131.546875 322.539062 L 130.324219 320.300781 L 129.871094 319.664062 L 129.339844 319.1875 L 126.40625 318.015625 L 125.183594 317.238281 L 124.542969 316.484375 L 124.375 315.8125 L 124.34375 315.097656 L 124.097656 314.226562 L 123.53125 313.511719 L 122.617188 312.765625 L 121.214844 311.925781 L 120.917969 311.75 L 120.207031 311.570312 L 118.152344 311.601562 L 116.082031 311.09375 L 115.382812 311.117188 L 114.546875 311.578125 L 113.128906 312.824219 L 111.339844 312.882812 L 108.910156 314.128906 L 108.125 314.097656 L 105.976562 313.257812 L 105.925781 313.300781 L 105.285156 313.167969 L 103.964844 311.890625 L 103.246094 311.550781 L 101.441406 311.054688 L 100.84375 310.617188 L 99.699219 310.558594 L 96.042969 312.082031 L 95.265625 312.09375 L 95.019531 311.25 L 93.136719 309.484375 L 92.539062 309.179688 L 90.011719 309.3125 L 89.167969 309.195312 L 87.675781 308.683594 L 85.335938 308.414062 L 84.664062 308.183594 L 83.300781 308.433594 L 82.894531 308.554688 L 82.503906 308.886719 L 82.347656 309.25 L 82.160156 309.5625 L 81.953125 309.816406 L 81.839844 309.90625 L 81.699219 310.019531 L 80.945312 310.066406 L 78.59375 308.878906 L 78.535156 308.855469 L 78.484375 308.847656 L 78.429688 308.855469 L 78.378906 308.878906 L 78.089844 308.984375 L 77.820312 309.015625 L 77.550781 308.980469 L 77.285156 308.875 L 76.46875 307.90625 L 74.734375 306.410156 L 73.242188 304.605469 L 72.613281 304.140625 L 70.085938 303.257812 L 69.265625 303.132812 L 68.519531 303.496094 L 67.808594 304.605469 L 66.992188 307.160156 L 66.503906 308.089844 L 64.953125 309.332031 L 64.375 309.425781 L 63.785156 309.242188 L 63.214844 308.886719 L 62.65625 308.492188 L 62.007812 308.191406 L 61.457031 308.234375 L 61.152344 308.882812 L 61.460938 309.988281 L 61.15625 310.730469 L 60.503906 311.179688 L 59.769531 311.410156 L 58.433594 310.3125 L 58.128906 309.648438 L 58.75 308.875 L 58.816406 308.015625 L 59.054688 307.511719 L 59.1875 306.945312 L 58.941406 305.914062 L 58.5625 305.160156 L 58.078125 304.539062 L 57.003906 303.527344 L 55.703125 302.785156 L 55.574219 302.527344 L 54.980469 302.140625 L 54.359375 302.3125 L 53.742188 302.714844 L 53.074219 302.933594 L 50.457031 302.933594 L 49.980469 303.207031 L 49.886719 303.195312 L 49.691406 302.972656 L 49.074219 301.675781 L 48.558594 299.941406 L 48.082031 298.8125 L 45.386719 295.238281 L 45.238281 295.164062 L 45.089844 295.132812 L 44.933594 295.152344 L 44.234375 295.507812 L 43.671875 295.558594 L 43.097656 295.4375 L 42.382812 295.140625 L 42.230469 295.121094 L 42.082031 295.140625 L 41.9375 295.210938 L 41.652344 295.441406 L 41.371094 295.523438 L 41.105469 295.449219 L 40.871094 295.210938 L 39.09375 292.445312 L 38.703125 291.335938 L 38.667969 290.578125 L 38.75 289.949219 L 38.75 289.414062 L 38.480469 288.953125 L 38.230469 288.90625 L 37.226562 288.96875 L 37.234375 288.097656 L 37.773438 286.445312 L 36.476562 285.796875 L 35.238281 285.640625 L 34.046875 286.113281 L 33.6875 286.507812 L 33.648438 286.511719 L 33.585938 286.519531 L 32.726562 286.371094 L 32.761719 282.433594 L 33.164062 281.542969 L 33.289062 280.683594 L 32.867188 278.46875 L 32.941406 277.363281 L 33.484375 276.472656 L 35.855469 274.554688 L 36.082031 274.15625 L 36.460938 273.285156 L 36.734375 272.902344 L 37.183594 272.597656 L 38.148438 272.289062 L 38.589844 272.003906 L 39.171875 271.234375 L 39.613281 270.214844 L 39.847656 269.054688 L 39.800781 267.882812 L 39.914062 267.152344 L 40.191406 266.792969 L 40.53125 266.523438 L 40.847656 266.074219 L 41.097656 265.445312 L 41.183594 265.074219 L 41.101562 263.222656 L 41.03125 262.777344 L 41.058594 262.347656 L 41.296875 261.683594 L 41.367188 261.585938 L 41.644531 261.191406 L 42.515625 260.460938 L 42.855469 259.972656 L 42.925781 259.636719 L 42.921875 258.929688 L 42.96875 258.664062 L 43.417969 257.691406 L 44.207031 255.398438 L 44.84375 254.898438 L 46.242188 254.695312 L 46.804688 254.222656 L 46.789062 253.296875 L 46.957031 252.039062 L 47.21875 250.789062 L 47.496094 249.890625 L 48.261719 249.160156 L 48.992188 249.382812 L 50.355469 250.871094 L 51.246094 251.476562 L 52.027344 251.570312 L 52.804688 251.496094 L 54.117188 251.59375 L 54.9375 251.347656 L 55.328125 251.390625 L 55.699219 251.738281 L 56.371094 252.667969 L 56.769531 252.796875 L 57.421875 253.132812 L 58.222656 253.847656 L 58.957031 254.164062 L 59.382812 253.289062 L 59.265625 252.996094 L 58.675781 251.992188 L 58.519531 251.480469 L 58.566406 250.738281 L 58.894531 249.667969 L 58.890625 249.203125 L 58.453125 248.648438 L 56.824219 247.746094 L 56.15625 247.257812 L 55.09375 245.878906 L 53.914062 245.058594 L 54.054688 245.023438 L 54.097656 245.003906 L 53.527344 244.605469 L 53.046875 245.203125 L 52.878906 245.3125 L 52.65625 245.023438 L 52.851562 244.359375 L 53.425781 243.175781 L 53.941406 241.238281 L 54.554688 239.574219 L 54.691406 238.78125 L 54.199219 233.769531 L 54.039062 232.902344 L 53.835938 232.484375 L 53.050781 231.667969 L 52.578125 230.933594 L 52.476562 230.632812 L 52.34375 230.011719 L 52.117188 227.6875 L 51.875 226.886719 L 51.175781 224.933594 L 52.078125 222.824219 L 54.835938 219.199219 L 55.460938 217.453125 L 55.722656 216.980469 L 56.128906 216.640625 L 56.910156 216.484375 L 57.308594 216.320312 L 57.917969 215.714844 L 60.15625 211.761719 L 60.507812 211.339844 L 60.828125 211.132812 L 61.46875 210.902344 L 61.785156 210.59375 L 61.953125 210.203125 L 62.25 209.101562 L 62.441406 208.652344 L 63.960938 207.128906 L 67.898438 201.519531 L 69.34375 199.96875 L 70.671875 198.957031 L 71.761719 197.316406 L 80.058594 188.597656 L 81.699219 187.367188 L 83.679688 185.902344 L 83.683594 185.902344 L 83.683594 185.898438 L 83.6875 185.898438 L 84.738281 185.082031 L 87.601562 182.082031 L 88.105469 181.375 L 88.128906 181.296875 L 88.585938 179.847656 L 88.984375 179.042969 L 89.476562 178.578125 L 90.101562 178.269531 L 91.355469 177.890625 L 97.933594 177.808594 L 99.84375 177.046875 L 100.640625 175.246094 L 100.804688 174.65625 L 100.867188 173.949219 L 100.808594 172.894531 L 100.910156 172.234375 L 103.25 171.0625 L 103.933594 170.359375 L 104.390625 169.730469 L 104.433594 169.609375 L 104.246094 169.457031 L 103.988281 168.734375 L 103.621094 166.136719 L 104.460938 164.742188 L 104.449219 164.71875 L 103.53125 162.59375 L 103.246094 161.445312 L 103.464844 160.199219 L 102.492188 159.972656 L 101.5 159.378906 L 100.988281 158.542969 L 101.460938 157.585938 L 101.460938 157.246094 L 100.449219 157.125 L 99.589844 156.746094 L 99.054688 156.050781 L 98.984375 155.003906 L 99.433594 154.066406 L 100.265625 153.464844 L 101.265625 153.335938 L 102.226562 153.851562 L 102.96875 153.539062 L 104.171875 153.53125 L 105.273438 153.308594 L 105.722656 152.359375 L 105.253906 151.675781 L 102.226562 150.085938 L 99.773438 147.925781 L 99.230469 147.066406 L 99.03125 146.351562 L 98.992188 145.859375 L 98.890625 145.410156 L 98.488281 144.828125 L 98.046875 144.539062 L 97.585938 144.363281 L 97.320312 144.136719 L 97.472656 143.707031 L 97.472656 143.371094 L 97.046875 141.082031 L 96.730469 140.351562 L 95.777344 138.949219 L 95.238281 137.867188 L 95.375 137.363281 L 95.976562 137.070312 L 95.570312 136.40625 L 93.84375 134.738281 L 91.996094 133.632812 L 91.179688 132.691406 L 89.167969 128.527344 L 88.550781 128.144531 L 87.847656 128.132812 L 87.277344 127.855469 L 87.039062 126.691406 L 87.234375 125.964844 L 87.734375 125.160156 L 88.378906 124.515625 L 89.042969 124.269531 L 88.820312 123.53125 L 88.863281 122.96875 L 89.125 122.589844 L 89.542969 122.402344 L 89.246094 121.746094 L 87.769531 119.695312 L 87.710938 119.355469 L 88.277344 118.261719 L 87.765625 117.933594 L 87.109375 117.703125 L 86.539062 117.332031 L 86.292969 116.566406 L 86.226562 116.226562 L 86.558594 116.460938 L 86.875 116.308594 L 87.039062 115.472656 L 86.953125 114.945312 L 85.96875 112.316406 L 85.757812 111.878906 L 85.792969 111.441406 L 86.234375 110.722656 L 86.605469 110.359375 L 87.050781 110.125 L 90.582031 109.261719 L 91.433594 109.28125 L 93.996094 110.003906 L 94.90625 110.082031 L 96.34375 110.625 L 97.359375 111.789062 L 98.390625 112.703125 L 99.84375 112.476562 L 105.269531 107.898438 L 109.386719 105.25 L 110.414062 103.902344 L 111.277344 100.335938 L 111.835938 99.273438 L 113.15625 97.4375 L 113.945312 96.675781 L 114.714844 96.40625 L 123.753906 95.746094 L 125.980469 96.25 L 126.734375 96.28125 L 136.933594 94.742188 L 140.199219 93.140625 L 141.84375 92.636719 L 143.488281 92.59375 L 149.613281 94.140625 L 156.710938 94.25 L 161.648438 94.328125 L 164.714844 93.753906 L 172.457031 95.125 L 174.980469 95.050781 L 176.074219 95.277344 L 178.421875 97.234375 L 179.507812 97.679688 L 187.949219 98.015625 L 188.382812 98.21875 L 188.390625 98.609375 L 188.28125 99.105469 L 188.367188 99.636719 L 188.8125 100.222656 L 189.324219 100.472656 L 197.316406 100.703125 L 204.179688 103.550781 L 206.578125 103.921875 L 210.238281 102.71875 L 213.445312 102.835938 L 214.9375 103.144531 L 215.910156 103.671875 L 216.140625 104.527344 L 216.042969 105.691406 L 216.027344 107.152344 L 216.316406 108.226562 L 216.84375 108.699219 L 217.574219 108.777344 L 218.453125 108.671875 L 219.527344 108.917969 L 219.417969 109.867188 L 218.882812 111.039062 L 218.675781 111.964844 L 219.164062 112.394531 L 219.957031 112.316406 L 221.402344 111.878906 L 223.554688 112.21875 L 224.304688 112.167969 L 225.101562 111.800781 L 226.109375 110.757812 L 226.78125 110.417969 L 228.054688 110.449219 L 228.058594 110.449219 L 231.988281 111.9375 L 234.027344 111.996094 L 234.601562 112.300781 L 235.058594 113.441406 L 234.773438 114.820312 L 233.566406 117.570312 L 233.640625 117.714844 L 233.792969 118.007812 L 234.28125 118.519531 L 234.871094 118.953125 L 235.386719 119.164062 L 235.964844 119.085938 L 236.34375 118.742188 L 238.039062 116.582031 L 238.230469 116.234375 L 238.398438 115.507812 L 238.363281 114.910156 L 238.273438 114.320312 L 238.253906 113.625 L 238.484375 112.523438 L 238.957031 111.601562 L 239.636719 111.007812 L 240.46875 110.875 L 241.246094 111.273438 L 243.441406 113.515625 L 244.121094 113.855469 L 244.789062 114.019531 L 248.335938 114.027344 L 249.035156 113.789062 L 249.910156 113.046875 L 251.089844 110.925781 L 251.796875 109.902344 L 252.574219 109.242188 L 253.390625 108.871094 L 254.128906 108.917969 L 254.664062 109.492188 L 254.800781 110.039062 L 254.78125 110.503906 L 254.816406 111 L 255.121094 111.617188 L 255.554688 112.027344 L 256.601562 112.644531 L 257.050781 113.109375 L 257.289062 113.683594 L 257.679688 115.191406 L 257.886719 115.628906 L 258.359375 115.804688 L 258.820312 115.574219 L 259.761719 114.71875 L 261.570312 113.566406 L 262.511719 113.261719 L 263.496094 113.242188 L 266.753906 113.894531 L 267.691406 114.253906 L 268.007812 114.996094 L 268.101562 116.109375 L 268.671875 119.167969 L 268.902344 119.933594 L 269.253906 120.511719 L 269.855469 120.789062 L 270.378906 120.5625 L 270.859375 120.273438 L 271.324219 120.316406 L 271.582031 120.992188 L 271.839844 122.011719 L 272.222656 122.578125 L 272.875 121.878906 L 273.054688 121.074219 L 272.972656 118.992188 L 273.074219 118.070312 L 273.789062 116.5625 L 274.804688 115.394531 L 275.96875 114.539062 L 277.121094 113.957031 L 278.183594 113.742188 L 280.421875 113.722656 L 281.375 113.382812 L 282.070312 112.675781 L 282.929688 110.945312 L 283.65625 110.28125 L 284.367188 110.039062 L 285.109375 110.007812 L 286.570312 110.34375 L 287.445312 110.859375 L 287.898438 111.53125 L 288.660156 113.515625 L 289.871094 115.242188 L 290.296875 116.136719 L 290.441406 117.570312 L 290.097656 118.984375 L 290.34375 119.605469 L 290.945312 120.027344 L 291.6875 120.847656 L 292.097656 121.902344 L 292.40625 123.097656 L 292.855469 124.082031 L 293.691406 124.527344 L 294.4375 124.28125 L 294.898438 123.898438 L 295.859375 123.109375 L 296.695312 122.855469 L 298.28125 123.472656 L 299.003906 123.460938 L 299.53125 122.578125 L 300.066406 121.242188 L 300.425781 120.597656 L 300.917969 120.359375 L 301.863281 120.257812 L 302.703125 119.933594 L 303.246094 119.320312 L 303.761719 118.601562 L 304.511719 117.964844 L 305.230469 117.675781 L 306.066406 117.554688 L 306.863281 117.660156 L 307.488281 118.070312 L 308.089844 119.054688 L 308.40625 119.886719 L 308.867188 120.488281 L 312.160156 121.007812 L 312.8125 120.847656 L 313.179688 120.464844 L 313.792969 119.410156 L 314.253906 119.105469 L 314.625 119.136719 L 315.207031 119.507812 L 315.660156 119.480469 L 317.863281 118.390625 L 318.699219 118.160156 L 323.777344 118.03125 L 324.820312 118.300781 L 325.839844 119.011719 L 327.199219 120.765625 L 327.710938 121.277344 L 329.542969 122.121094 L 330.007812 122.53125 L 330.226562 122.90625 L 330.328125 123.265625 L 330.367188 123.699219 L 330.363281 124.265625 L 330.300781 124.695312 L 329.996094 125.839844 L 329.894531 125.894531 L 330.164062 126.472656 L 331.277344 127.824219 L 331.761719 128.238281 L 332.316406 128.445312 L 333.398438 128.4375 L 333.925781 128.5625 L 334.460938 129.039062 L 335.269531 130.191406 L 335.835938 130.359375 L 336.34375 130.300781 L 336.832031 130.425781 L 337.292969 130.714844 L 337.699219 131.140625 L 337.976562 131.65625 L 338.375 131.566406 L 338.523438 131.253906 L 338.546875 131.203125 L 338.59375 129.898438 L 338.691406 129.789062 L 339.339844 128.710938 L 339.4375 127.910156 L 340.546875 127.152344 L 341.558594 126.152344 L 341.34375 124.609375 L 341.820312 124.425781 L 341.785156 124.140625 L 341.527344 123.816406 L 341.34375 123.523438 L 340.988281 121.984375 L 340.828125 121.621094 L 340.386719 121.304688 L 340.007812 121.28125 L 339.726562 121.148438 L 339.585938 120.503906 L 339.660156 119.8125 L 339.933594 119.425781 L 340.34375 119.296875 L 340.828125 119.386719 L 340.828125 118.976562 L 340.445312 118.828125 L 340.070312 118.585938 L 339.765625 118.171875 L 339.585938 117.515625 L 339.796875 117.070312 L 339.636719 116.667969 L 339.261719 116.300781 L 338.820312 115.988281 L 339.132812 115.734375 L 339.3125 115.476562 L 339.585938 114.871094 L 338.984375 114.59375 L 337.777344 114.269531 L 337.355469 113.75 L 337.355469 113.410156 L 337.542969 113.28125 L 337.664062 113.171875 L 337.816406 113.078125 L 338.101562 113.003906 L 338.101562 112.664062 L 337.792969 112.488281 L 337.085938 111.917969 L 337.085938 111.511719 L 338.128906 110.613281 L 338.59375 110.421875 L 338.457031 109.890625 L 338.351562 109.679688 L 338.546875 109.539062 L 338.84375 109.125 L 339.089844 108.898438 L 338.871094 108.144531 L 339.296875 106.988281 L 339.089844 106.25 L 339.542969 106.121094 L 340.667969 106.085938 L 341.074219 105.914062 L 341.277344 105.394531 L 341.332031 104.71875 L 341.441406 104.078125 L 341.84375 103.671875 L 341.84375 103.265625 L 341.550781 103.234375 L 340.828125 102.894531 L 341.273438 102.417969 L 342.085938 101.921875 L 342.730469 101.296875 L 342.695312 100.449219 L 342.429688 99.929688 L 342.417969 99.71875 L 342.574219 99.554688 L 342.808594 99.164062 L 343.601562 98.195312 L 343.703125 98.007812 L 343.902344 97.84375 L 344.074219 97.480469 L 344.304688 97.121094 L 345.054688 96.75 L 345.152344 96.285156 L 345.171875 95.773438 L 345.3125 95.429688 L 345.605469 95.335938 L 346.683594 95.429688 L 347 95.28125 L 347.324219 94.945312 L 347.816406 94.308594 L 347.816406 93.9375 L 347.621094 93.710938 L 347.523438 93.371094 L 347.539062 93.175781 L 348.570312 92.804688 L 349.085938 92.507812 L 349.539062 92.164062 L 349.9375 91.761719 L 350.308594 91.289062 L 350.320312 91.113281 L 350.300781 90.832031 L 350.367188 90.496094 L 350.652344 90.15625 L 350.949219 89.941406 L 351.164062 89.847656 L 351.363281 89.9375 L 351.613281 90.253906 L 352.558594 90.1875 L 352.882812 89.476562 L 352.53125 88.75 L 351.46875 88.613281 L 351.59375 88.339844 L 351.671875 88.078125 L 351.777344 87.8125 L 351.957031 87.535156 L 351.742188 86.613281 L 352.3125 86.035156 L 353.214844 85.765625 L 358.1875 85.496094 L 359.585938 85.65625 L 360.472656 86.125 L 362.132812 87.445312 L 363.007812 87.757812 L 363.859375 87.414062 L 364.453125 86.5 L 365.011719 85.40625 L 365.746094 84.519531 L 368.601562 83.425781 L 371.933594 83.410156 L 378.289062 84.554688 Z M 382.445312 84.351562 "/>
<path fill-rule="evenodd" fill="rgb(0%, 34.117647%, 71.764706%)" fill-opacity="1" stroke-width="0.426791" stroke-linecap="butt" stroke-linejoin="round" stroke="rgb(34.901961%, 34.901961%, 34.901961%)" stroke-opacity="1" stroke-miterlimit="10" d="M 315.429688 434.734375 L 321.128906 429.171875 L 322.957031 428.128906 L 315.042969 436.054688 L 311.390625 438.90625 L 308.613281 440.160156 L 310.441406 439.105469 L 311.171875 438.492188 L 311.460938 437.957031 L 311.65625 437.445312 L 312.125 437.242188 L 312.683594 437.164062 L 313.179688 437.003906 L 313.761719 436.503906 L 314.808594 435.289062 Z M 315.429688 434.734375 "/>
<path fill-rule="evenodd" fill="rgb(0%, 34.117647%, 71.764706%)" fill-opacity="1" stroke-width="0.426791" stroke-linecap="butt" stroke-linejoin="round" stroke="rgb(34.901961%, 34.901961%, 34.901961%)" stroke-opacity="1" stroke-miterlimit="10" d="M 426.921875 415.492188 L 427.289062 415.894531 L 428.949219 415.75 L 429.398438 416.445312 L 428.765625 417.160156 L 413.492188 414.542969 L 413.757812 414.222656 L 413.925781 414.203125 L 414.214844 414.542969 L 419.441406 415.289062 L 421.941406 414.746094 L 423.015625 414.796875 L 424.171875 415.703125 L 425.671875 414.996094 L 426.539062 414.910156 Z M 426.921875 415.492188 "/>
<path fill-rule="evenodd" fill="rgb(0%, 34.117647%, 71.764706%)" fill-opacity="1" stroke-width="0.426791" stroke-linecap="butt" stroke-linejoin="round" stroke="rgb(34.901961%, 34.901961%, 34.901961%)" stroke-opacity="1" stroke-miterlimit="10" d="M 388.832031 406.640625 L 393.574219 407.851562 L 396.558594 409.296875 L 397.039062 409.660156 L 396.226562 409.480469 L 394.699219 408.710938 L 381.457031 405.753906 L 375.761719 403.460938 L 374.625 402.386719 L 373.644531 400.703125 L 373.355469 399.816406 L 373.03125 398.421875 L 373.007812 397.414062 L 373.644531 397.683594 L 374.242188 400.011719 L 374.820312 401.625 L 375.679688 402.757812 L 377.136719 403.652344 Z M 388.832031 406.640625 "/>
</svg>
