<?xml version="1.0" encoding="utf-8" standalone="no"?>
<!DOCTYPE svg PUBLIC "-//W3C//DTD SVG 1.1//EN"
  "http://www.w3.org/Graphics/SVG/1.1/DTD/svg11.dtd">
<svg xmlns:xlink="http://www.w3.org/1999/xlink" width="625.659063pt" height="341.55625pt" viewBox="0 0 625.659063 341.55625" xmlns="http://www.w3.org/2000/svg" version="1.1">
 <metadata>
  <rdf:RDF xmlns:dc="http://purl.org/dc/elements/1.1/" xmlns:cc="http://creativecommons.org/ns#" xmlns:rdf="http://www.w3.org/1999/02/22-rdf-syntax-ns#">
   <cc:Work>
    <dc:type rdf:resource="http://purl.org/dc/dcmitype/StillImage"/>
    <dc:date>2025-01-24T16:44:03.776036</dc:date>
    <dc:format>image/svg+xml</dc:format>
    <dc:creator>
     <cc:Agent>
      <dc:title>Matplotlib v3.7.2, https://matplotlib.org/</dc:title>
     </cc:Agent>
    </dc:creator>
   </cc:Work>
  </rdf:RDF>
 </metadata>
 <defs>
  <style type="text/css">*{stroke-linejoin: round; stroke-linecap: butt}</style>
 </defs>
 <g id="figure_1">
  <g id="patch_1">
   <path d="M -0 341.55625 
L 625.659063 341.55625 
L 625.659063 0 
L -0 0 
z
" style="fill: #ffffff"/>
  </g>
  <g id="axes_1">
   <g id="patch_2">
    <path d="M 60.459062 302.064375 
L 618.459062 302.064375 
L 618.459062 24.864375 
L 60.459062 24.864375 
z
" style="fill: #ffffff"/>
   </g>
   <g id="matplotlib.axis_1">
    <g id="xtick_1">
     <g id="line2d_1">
      <path d="M 84.804079 302.064375 
L 84.804079 24.864375 
" clip-path="url(#p2bbffef805)" style="fill: none; stroke: #b0b0b0; stroke-width: 0.2; stroke-linecap: square"/>
     </g>
     <g id="line2d_2">
      <defs>
       <path id="mb55fa5e514" d="M 0 0 
L 0 3.5 
" style="stroke: #000000; stroke-width: 0.8"/>
      </defs>
      <g>
       <use xlink:href="#mb55fa5e514" x="84.804079" y="302.064375" style="stroke: #000000; stroke-width: 0.8"/>
      </g>
     </g>
     <g id="text_1">
      <!-- 0 -->
      <g transform="translate(81.622829 316.662813) scale(0.1 -0.1)">
       <defs>
        <path id="DejaVuSans-30" d="M 2034 4250 
Q 1547 4250 1301 3770 
Q 1056 3291 1056 2328 
Q 1056 1369 1301 889 
Q 1547 409 2034 409 
Q 2525 409 2770 889 
Q 3016 1369 3016 2328 
Q 3016 3291 2770 3770 
Q 2525 4250 2034 4250 
z
M 2034 4750 
Q 2819 4750 3233 4129 
Q 3647 3509 3647 2328 
Q 3647 1150 3233 529 
Q 2819 -91 2034 -91 
Q 1250 -91 836 529 
Q 422 1150 422 2328 
Q 422 3509 836 4129 
Q 1250 4750 2034 4750 
z
" transform="scale(0.015625)"/>
       </defs>
       <use xlink:href="#DejaVuSans-30"/>
      </g>
     </g>
    </g>
    <g id="xtick_2">
     <g id="line2d_3">
      <path d="M 186.666072 302.064375 
L 186.666072 24.864375 
" clip-path="url(#p2bbffef805)" style="fill: none; stroke: #b0b0b0; stroke-width: 0.2; stroke-linecap: square"/>
     </g>
     <g id="line2d_4">
      <g>
       <use xlink:href="#mb55fa5e514" x="186.666072" y="302.064375" style="stroke: #000000; stroke-width: 0.8"/>
      </g>
     </g>
     <g id="text_2">
      <!-- 1000 -->
      <g transform="translate(173.941072 316.662813) scale(0.1 -0.1)">
       <defs>
        <path id="DejaVuSans-31" d="M 794 531 
L 1825 531 
L 1825 4091 
L 703 3866 
L 703 4441 
L 1819 4666 
L 2450 4666 
L 2450 531 
L 3481 531 
L 3481 0 
L 794 0 
L 794 531 
z
" transform="scale(0.015625)"/>
       </defs>
       <use xlink:href="#DejaVuSans-31"/>
       <use xlink:href="#DejaVuSans-30" x="63.623047"/>
       <use xlink:href="#DejaVuSans-30" x="127.246094"/>
       <use xlink:href="#DejaVuSans-30" x="190.869141"/>
      </g>
     </g>
    </g>
    <g id="xtick_3">
     <g id="line2d_5">
      <path d="M 288.528066 302.064375 
L 288.528066 24.864375 
" clip-path="url(#p2bbffef805)" style="fill: none; stroke: #b0b0b0; stroke-width: 0.2; stroke-linecap: square"/>
     </g>
     <g id="line2d_6">
      <g>
       <use xlink:href="#mb55fa5e514" x="288.528066" y="302.064375" style="stroke: #000000; stroke-width: 0.8"/>
      </g>
     </g>
     <g id="text_3">
      <!-- 2000 -->
      <g transform="translate(275.803066 316.662813) scale(0.1 -0.1)">
       <defs>
        <path id="DejaVuSans-32" d="M 1228 531 
L 3431 531 
L 3431 0 
L 469 0 
L 469 531 
Q 828 903 1448 1529 
Q 2069 2156 2228 2338 
Q 2531 2678 2651 2914 
Q 2772 3150 2772 3378 
Q 2772 3750 2511 3984 
Q 2250 4219 1831 4219 
Q 1534 4219 1204 4116 
Q 875 4013 500 3803 
L 500 4441 
Q 881 4594 1212 4672 
Q 1544 4750 1819 4750 
Q 2544 4750 2975 4387 
Q 3406 4025 3406 3419 
Q 3406 3131 3298 2873 
Q 3191 2616 2906 2266 
Q 2828 2175 2409 1742 
Q 1991 1309 1228 531 
z
" transform="scale(0.015625)"/>
       </defs>
       <use xlink:href="#DejaVuSans-32"/>
       <use xlink:href="#DejaVuSans-30" x="63.623047"/>
       <use xlink:href="#DejaVuSans-30" x="127.246094"/>
       <use xlink:href="#DejaVuSans-30" x="190.869141"/>
      </g>
     </g>
    </g>
    <g id="xtick_4">
     <g id="line2d_7">
      <path d="M 390.390059 302.064375 
L 390.390059 24.864375 
" clip-path="url(#p2bbffef805)" style="fill: none; stroke: #b0b0b0; stroke-width: 0.2; stroke-linecap: square"/>
     </g>
     <g id="line2d_8">
      <g>
       <use xlink:href="#mb55fa5e514" x="390.390059" y="302.064375" style="stroke: #000000; stroke-width: 0.8"/>
      </g>
     </g>
     <g id="text_4">
      <!-- 3000 -->
      <g transform="translate(377.665059 316.662813) scale(0.1 -0.1)">
       <defs>
        <path id="DejaVuSans-33" d="M 2597 2516 
Q 3050 2419 3304 2112 
Q 3559 1806 3559 1356 
Q 3559 666 3084 287 
Q 2609 -91 1734 -91 
Q 1441 -91 1130 -33 
Q 819 25 488 141 
L 488 750 
Q 750 597 1062 519 
Q 1375 441 1716 441 
Q 2309 441 2620 675 
Q 2931 909 2931 1356 
Q 2931 1769 2642 2001 
Q 2353 2234 1838 2234 
L 1294 2234 
L 1294 2753 
L 1863 2753 
Q 2328 2753 2575 2939 
Q 2822 3125 2822 3475 
Q 2822 3834 2567 4026 
Q 2313 4219 1838 4219 
Q 1578 4219 1281 4162 
Q 984 4106 628 3988 
L 628 4550 
Q 988 4650 1302 4700 
Q 1616 4750 1894 4750 
Q 2613 4750 3031 4423 
Q 3450 4097 3450 3541 
Q 3450 3153 3228 2886 
Q 3006 2619 2597 2516 
z
" transform="scale(0.015625)"/>
       </defs>
       <use xlink:href="#DejaVuSans-33"/>
       <use xlink:href="#DejaVuSans-30" x="63.623047"/>
       <use xlink:href="#DejaVuSans-30" x="127.246094"/>
       <use xlink:href="#DejaVuSans-30" x="190.869141"/>
      </g>
     </g>
    </g>
    <g id="xtick_5">
     <g id="line2d_9">
      <path d="M 492.252053 302.064375 
L 492.252053 24.864375 
" clip-path="url(#p2bbffef805)" style="fill: none; stroke: #b0b0b0; stroke-width: 0.2; stroke-linecap: square"/>
     </g>
     <g id="line2d_10">
      <g>
       <use xlink:href="#mb55fa5e514" x="492.252053" y="302.064375" style="stroke: #000000; stroke-width: 0.8"/>
      </g>
     </g>
     <g id="text_5">
      <!-- 4000 -->
      <g transform="translate(479.527053 316.662813) scale(0.1 -0.1)">
       <defs>
        <path id="DejaVuSans-34" d="M 2419 4116 
L 825 1625 
L 2419 1625 
L 2419 4116 
z
M 2253 4666 
L 3047 4666 
L 3047 1625 
L 3713 1625 
L 3713 1100 
L 3047 1100 
L 3047 0 
L 2419 0 
L 2419 1100 
L 313 1100 
L 313 1709 
L 2253 4666 
z
" transform="scale(0.015625)"/>
       </defs>
       <use xlink:href="#DejaVuSans-34"/>
       <use xlink:href="#DejaVuSans-30" x="63.623047"/>
       <use xlink:href="#DejaVuSans-30" x="127.246094"/>
       <use xlink:href="#DejaVuSans-30" x="190.869141"/>
      </g>
     </g>
    </g>
    <g id="xtick_6">
     <g id="line2d_11">
      <path d="M 594.114046 302.064375 
L 594.114046 24.864375 
" clip-path="url(#p2bbffef805)" style="fill: none; stroke: #b0b0b0; stroke-width: 0.2; stroke-linecap: square"/>
     </g>
     <g id="line2d_12">
      <g>
       <use xlink:href="#mb55fa5e514" x="594.114046" y="302.064375" style="stroke: #000000; stroke-width: 0.8"/>
      </g>
     </g>
     <g id="text_6">
      <!-- 5000 -->
      <g transform="translate(581.389046 316.662813) scale(0.1 -0.1)">
       <defs>
        <path id="DejaVuSans-35" d="M 691 4666 
L 3169 4666 
L 3169 4134 
L 1269 4134 
L 1269 2991 
Q 1406 3038 1543 3061 
Q 1681 3084 1819 3084 
Q 2600 3084 3056 2656 
Q 3513 2228 3513 1497 
Q 3513 744 3044 326 
Q 2575 -91 1722 -91 
Q 1428 -91 1123 -41 
Q 819 9 494 109 
L 494 744 
Q 775 591 1075 516 
Q 1375 441 1709 441 
Q 2250 441 2565 725 
Q 2881 1009 2881 1497 
Q 2881 1984 2565 2268 
Q 2250 2553 1709 2553 
Q 1456 2553 1204 2497 
Q 953 2441 691 2322 
L 691 4666 
z
" transform="scale(0.015625)"/>
       </defs>
       <use xlink:href="#DejaVuSans-35"/>
       <use xlink:href="#DejaVuSans-30" x="63.623047"/>
       <use xlink:href="#DejaVuSans-30" x="127.246094"/>
       <use xlink:href="#DejaVuSans-30" x="190.869141"/>
      </g>
     </g>
    </g>
    <g id="text_7">
     <!-- Sample size -->
     <g transform="translate(303.420625 331.860625) scale(0.12 -0.12)">
      <defs>
       <path id="DejaVuSans-53" d="M 3425 4513 
L 3425 3897 
Q 3066 4069 2747 4153 
Q 2428 4238 2131 4238 
Q 1616 4238 1336 4038 
Q 1056 3838 1056 3469 
Q 1056 3159 1242 3001 
Q 1428 2844 1947 2747 
L 2328 2669 
Q 3034 2534 3370 2195 
Q 3706 1856 3706 1288 
Q 3706 609 3251 259 
Q 2797 -91 1919 -91 
Q 1588 -91 1214 -16 
Q 841 59 441 206 
L 441 856 
Q 825 641 1194 531 
Q 1563 422 1919 422 
Q 2459 422 2753 634 
Q 3047 847 3047 1241 
Q 3047 1584 2836 1778 
Q 2625 1972 2144 2069 
L 1759 2144 
Q 1053 2284 737 2584 
Q 422 2884 422 3419 
Q 422 4038 858 4394 
Q 1294 4750 2059 4750 
Q 2388 4750 2728 4690 
Q 3069 4631 3425 4513 
z
" transform="scale(0.015625)"/>
       <path id="DejaVuSans-61" d="M 2194 1759 
Q 1497 1759 1228 1600 
Q 959 1441 959 1056 
Q 959 750 1161 570 
Q 1363 391 1709 391 
Q 2188 391 2477 730 
Q 2766 1069 2766 1631 
L 2766 1759 
L 2194 1759 
z
M 3341 1997 
L 3341 0 
L 2766 0 
L 2766 531 
Q 2569 213 2275 61 
Q 1981 -91 1556 -91 
Q 1019 -91 701 211 
Q 384 513 384 1019 
Q 384 1609 779 1909 
Q 1175 2209 1959 2209 
L 2766 2209 
L 2766 2266 
Q 2766 2663 2505 2880 
Q 2244 3097 1772 3097 
Q 1472 3097 1187 3025 
Q 903 2953 641 2809 
L 641 3341 
Q 956 3463 1253 3523 
Q 1550 3584 1831 3584 
Q 2591 3584 2966 3190 
Q 3341 2797 3341 1997 
z
" transform="scale(0.015625)"/>
       <path id="DejaVuSans-6d" d="M 3328 2828 
Q 3544 3216 3844 3400 
Q 4144 3584 4550 3584 
Q 5097 3584 5394 3201 
Q 5691 2819 5691 2113 
L 5691 0 
L 5113 0 
L 5113 2094 
Q 5113 2597 4934 2840 
Q 4756 3084 4391 3084 
Q 3944 3084 3684 2787 
Q 3425 2491 3425 1978 
L 3425 0 
L 2847 0 
L 2847 2094 
Q 2847 2600 2669 2842 
Q 2491 3084 2119 3084 
Q 1678 3084 1418 2786 
Q 1159 2488 1159 1978 
L 1159 0 
L 581 0 
L 581 3500 
L 1159 3500 
L 1159 2956 
Q 1356 3278 1631 3431 
Q 1906 3584 2284 3584 
Q 2666 3584 2933 3390 
Q 3200 3197 3328 2828 
z
" transform="scale(0.015625)"/>
       <path id="DejaVuSans-70" d="M 1159 525 
L 1159 -1331 
L 581 -1331 
L 581 3500 
L 1159 3500 
L 1159 2969 
Q 1341 3281 1617 3432 
Q 1894 3584 2278 3584 
Q 2916 3584 3314 3078 
Q 3713 2572 3713 1747 
Q 3713 922 3314 415 
Q 2916 -91 2278 -91 
Q 1894 -91 1617 61 
Q 1341 213 1159 525 
z
M 3116 1747 
Q 3116 2381 2855 2742 
Q 2594 3103 2138 3103 
Q 1681 3103 1420 2742 
Q 1159 2381 1159 1747 
Q 1159 1113 1420 752 
Q 1681 391 2138 391 
Q 2594 391 2855 752 
Q 3116 1113 3116 1747 
z
" transform="scale(0.015625)"/>
       <path id="DejaVuSans-6c" d="M 603 4863 
L 1178 4863 
L 1178 0 
L 603 0 
L 603 4863 
z
" transform="scale(0.015625)"/>
       <path id="DejaVuSans-65" d="M 3597 1894 
L 3597 1613 
L 953 1613 
Q 991 1019 1311 708 
Q 1631 397 2203 397 
Q 2534 397 2845 478 
Q 3156 559 3463 722 
L 3463 178 
Q 3153 47 2828 -22 
Q 2503 -91 2169 -91 
Q 1331 -91 842 396 
Q 353 884 353 1716 
Q 353 2575 817 3079 
Q 1281 3584 2069 3584 
Q 2775 3584 3186 3129 
Q 3597 2675 3597 1894 
z
M 3022 2063 
Q 3016 2534 2758 2815 
Q 2500 3097 2075 3097 
Q 1594 3097 1305 2825 
Q 1016 2553 972 2059 
L 3022 2063 
z
" transform="scale(0.015625)"/>
       <path id="DejaVuSans-20" transform="scale(0.015625)"/>
       <path id="DejaVuSans-73" d="M 2834 3397 
L 2834 2853 
Q 2591 2978 2328 3040 
Q 2066 3103 1784 3103 
Q 1356 3103 1142 2972 
Q 928 2841 928 2578 
Q 928 2378 1081 2264 
Q 1234 2150 1697 2047 
L 1894 2003 
Q 2506 1872 2764 1633 
Q 3022 1394 3022 966 
Q 3022 478 2636 193 
Q 2250 -91 1575 -91 
Q 1294 -91 989 -36 
Q 684 19 347 128 
L 347 722 
Q 666 556 975 473 
Q 1284 391 1588 391 
Q 1994 391 2212 530 
Q 2431 669 2431 922 
Q 2431 1156 2273 1281 
Q 2116 1406 1581 1522 
L 1381 1569 
Q 847 1681 609 1914 
Q 372 2147 372 2553 
Q 372 3047 722 3315 
Q 1072 3584 1716 3584 
Q 2034 3584 2315 3537 
Q 2597 3491 2834 3397 
z
" transform="scale(0.015625)"/>
       <path id="DejaVuSans-69" d="M 603 3500 
L 1178 3500 
L 1178 0 
L 603 0 
L 603 3500 
z
M 603 4863 
L 1178 4863 
L 1178 4134 
L 603 4134 
L 603 4863 
z
" transform="scale(0.015625)"/>
       <path id="DejaVuSans-7a" d="M 353 3500 
L 3084 3500 
L 3084 2975 
L 922 459 
L 3084 459 
L 3084 0 
L 275 0 
L 275 525 
L 2438 3041 
L 353 3041 
L 353 3500 
z
" transform="scale(0.015625)"/>
      </defs>
      <use xlink:href="#DejaVuSans-53"/>
      <use xlink:href="#DejaVuSans-61" x="63.476562"/>
      <use xlink:href="#DejaVuSans-6d" x="124.755859"/>
      <use xlink:href="#DejaVuSans-70" x="222.167969"/>
      <use xlink:href="#DejaVuSans-6c" x="285.644531"/>
      <use xlink:href="#DejaVuSans-65" x="313.427734"/>
      <use xlink:href="#DejaVuSans-20" x="374.951172"/>
      <use xlink:href="#DejaVuSans-73" x="406.738281"/>
      <use xlink:href="#DejaVuSans-69" x="458.837891"/>
      <use xlink:href="#DejaVuSans-7a" x="486.621094"/>
      <use xlink:href="#DejaVuSans-65" x="539.111328"/>
     </g>
    </g>
   </g>
   <g id="matplotlib.axis_2">
    <g id="ytick_1">
     <g id="line2d_13">
      <path d="M 60.459062 288.621166 
L 618.459062 288.621166 
" clip-path="url(#p2bbffef805)" style="fill: none; stroke: #b0b0b0; stroke-width: 0.2; stroke-linecap: square"/>
     </g>
     <g id="line2d_14">
      <defs>
       <path id="m2c105089fe" d="M 0 0 
L -3.5 0 
" style="stroke: #000000; stroke-width: 0.8"/>
      </defs>
      <g>
       <use xlink:href="#m2c105089fe" x="60.459062" y="288.621166" style="stroke: #000000; stroke-width: 0.8"/>
      </g>
     </g>
     <g id="text_8">
      <!-- −0.05 -->
      <g transform="translate(22.81375 292.420384) scale(0.1 -0.1)">
       <defs>
        <path id="DejaVuSans-2212" d="M 678 2272 
L 4684 2272 
L 4684 1741 
L 678 1741 
L 678 2272 
z
" transform="scale(0.015625)"/>
        <path id="DejaVuSans-2e" d="M 684 794 
L 1344 794 
L 1344 0 
L 684 0 
L 684 794 
z
" transform="scale(0.015625)"/>
       </defs>
       <use xlink:href="#DejaVuSans-2212"/>
       <use xlink:href="#DejaVuSans-30" x="83.789062"/>
       <use xlink:href="#DejaVuSans-2e" x="147.412109"/>
       <use xlink:href="#DejaVuSans-30" x="179.199219"/>
       <use xlink:href="#DejaVuSans-35" x="242.822266"/>
      </g>
     </g>
    </g>
    <g id="ytick_2">
     <g id="line2d_15">
      <path d="M 60.459062 249.021166 
L 618.459062 249.021166 
" clip-path="url(#p2bbffef805)" style="fill: none; stroke: #b0b0b0; stroke-width: 0.2; stroke-linecap: square"/>
     </g>
     <g id="line2d_16">
      <g>
       <use xlink:href="#m2c105089fe" x="60.459062" y="249.021166" style="stroke: #000000; stroke-width: 0.8"/>
      </g>
     </g>
     <g id="text_9">
      <!-- −0.04 -->
      <g transform="translate(22.81375 252.820384) scale(0.1 -0.1)">
       <use xlink:href="#DejaVuSans-2212"/>
       <use xlink:href="#DejaVuSans-30" x="83.789062"/>
       <use xlink:href="#DejaVuSans-2e" x="147.412109"/>
       <use xlink:href="#DejaVuSans-30" x="179.199219"/>
       <use xlink:href="#DejaVuSans-34" x="242.822266"/>
      </g>
     </g>
    </g>
    <g id="ytick_3">
     <g id="line2d_17">
      <path d="M 60.459062 209.421166 
L 618.459062 209.421166 
" clip-path="url(#p2bbffef805)" style="fill: none; stroke: #b0b0b0; stroke-width: 0.2; stroke-linecap: square"/>
     </g>
     <g id="line2d_18">
      <g>
       <use xlink:href="#m2c105089fe" x="60.459062" y="209.421166" style="stroke: #000000; stroke-width: 0.8"/>
      </g>
     </g>
     <g id="text_10">
      <!-- −0.03 -->
      <g transform="translate(22.81375 213.220384) scale(0.1 -0.1)">
       <use xlink:href="#DejaVuSans-2212"/>
       <use xlink:href="#DejaVuSans-30" x="83.789062"/>
       <use xlink:href="#DejaVuSans-2e" x="147.412109"/>
       <use xlink:href="#DejaVuSans-30" x="179.199219"/>
       <use xlink:href="#DejaVuSans-33" x="242.822266"/>
      </g>
     </g>
    </g>
    <g id="ytick_4">
     <g id="line2d_19">
      <path d="M 60.459062 169.821166 
L 618.459062 169.821166 
" clip-path="url(#p2bbffef805)" style="fill: none; stroke: #b0b0b0; stroke-width: 0.2; stroke-linecap: square"/>
     </g>
     <g id="line2d_20">
      <g>
       <use xlink:href="#m2c105089fe" x="60.459062" y="169.821166" style="stroke: #000000; stroke-width: 0.8"/>
      </g>
     </g>
     <g id="text_11">
      <!-- −0.02 -->
      <g transform="translate(22.81375 173.620384) scale(0.1 -0.1)">
       <use xlink:href="#DejaVuSans-2212"/>
       <use xlink:href="#DejaVuSans-30" x="83.789062"/>
       <use xlink:href="#DejaVuSans-2e" x="147.412109"/>
       <use xlink:href="#DejaVuSans-30" x="179.199219"/>
       <use xlink:href="#DejaVuSans-32" x="242.822266"/>
      </g>
     </g>
    </g>
    <g id="ytick_5">
     <g id="line2d_21">
      <path d="M 60.459062 130.221166 
L 618.459062 130.221166 
" clip-path="url(#p2bbffef805)" style="fill: none; stroke: #b0b0b0; stroke-width: 0.2; stroke-linecap: square"/>
     </g>
     <g id="line2d_22">
      <g>
       <use xlink:href="#m2c105089fe" x="60.459062" y="130.221166" style="stroke: #000000; stroke-width: 0.8"/>
      </g>
     </g>
     <g id="text_12">
      <!-- −0.01 -->
      <g transform="translate(22.81375 134.020384) scale(0.1 -0.1)">
       <use xlink:href="#DejaVuSans-2212"/>
       <use xlink:href="#DejaVuSans-30" x="83.789062"/>
       <use xlink:href="#DejaVuSans-2e" x="147.412109"/>
       <use xlink:href="#DejaVuSans-30" x="179.199219"/>
       <use xlink:href="#DejaVuSans-31" x="242.822266"/>
      </g>
     </g>
    </g>
    <g id="ytick_6">
     <g id="line2d_23">
      <path d="M 60.459062 90.621166 
L 618.459062 90.621166 
" clip-path="url(#p2bbffef805)" style="fill: none; stroke: #b0b0b0; stroke-width: 0.2; stroke-linecap: square"/>
     </g>
     <g id="line2d_24">
      <g>
       <use xlink:href="#m2c105089fe" x="60.459062" y="90.621166" style="stroke: #000000; stroke-width: 0.8"/>
      </g>
     </g>
     <g id="text_13">
      <!-- 0.00 -->
      <g transform="translate(31.193437 94.420384) scale(0.1 -0.1)">
       <use xlink:href="#DejaVuSans-30"/>
       <use xlink:href="#DejaVuSans-2e" x="63.623047"/>
       <use xlink:href="#DejaVuSans-30" x="95.410156"/>
       <use xlink:href="#DejaVuSans-30" x="159.033203"/>
      </g>
     </g>
    </g>
    <g id="ytick_7">
     <g id="line2d_25">
      <path d="M 60.459062 51.021166 
L 618.459062 51.021166 
" clip-path="url(#p2bbffef805)" style="fill: none; stroke: #b0b0b0; stroke-width: 0.2; stroke-linecap: square"/>
     </g>
     <g id="line2d_26">
      <g>
       <use xlink:href="#m2c105089fe" x="60.459062" y="51.021166" style="stroke: #000000; stroke-width: 0.8"/>
      </g>
     </g>
     <g id="text_14">
      <!-- 0.01 -->
      <g transform="translate(31.193437 54.820384) scale(0.1 -0.1)">
       <use xlink:href="#DejaVuSans-30"/>
       <use xlink:href="#DejaVuSans-2e" x="63.623047"/>
       <use xlink:href="#DejaVuSans-30" x="95.410156"/>
       <use xlink:href="#DejaVuSans-31" x="159.033203"/>
      </g>
     </g>
    </g>
    <g id="text_15">
     <!-- $\delta$ -->
     <g transform="translate(16.318125 167.184375) rotate(-90) scale(0.12 -0.12)">
      <defs>
       <path id="DejaVuSans-Oblique-3b4" d="M 3472 4053 
Q 3197 4272 2450 4272 
Q 1659 4272 1588 3906 
Q 1531 3619 2328 3469 
Q 2953 3353 3253 3003 
Q 3616 2581 3447 1716 
Q 3284 888 2763 400 
Q 2238 -91 1488 -91 
Q 741 -91 406 400 
Q 72 888 241 1747 
Q 363 2384 891 2900 
Q 1097 3100 1353 3213 
Q 913 3459 1000 3900 
Q 1166 4750 2544 4750 
Q 3234 4750 3566 4531 
L 3472 4053 
z
M 1753 3056 
Q 1525 2966 1306 2738 
Q 969 2384 847 1747 
Q 722 1113 919 756 
Q 1119 397 1584 397 
Q 2044 397 2381 759 
Q 2722 1122 2838 1716 
Q 2956 2338 2731 2638 
Q 2491 2959 2103 2994 
Q 1906 3013 1753 3056 
z
" transform="scale(0.015625)"/>
      </defs>
      <use xlink:href="#DejaVuSans-Oblique-3b4" transform="translate(0 0.78125)"/>
     </g>
    </g>
   </g>
   <g id="line2d_27">
    <path d="M 85.822699 289.464375 
L 86.841319 289.464375 
L 87.859939 157.464375 
L 88.878559 190.464375 
L 89.897179 131.064375 
L 90.915799 157.464375 
L 91.934418 176.321518 
L 92.953038 140.964375 
L 93.971658 113.464375 
L 94.990278 91.464375 
L 96.008898 73.464375 
L 97.027518 58.464375 
L 98.046138 45.772067 
L 99.064758 63.178661 
L 100.083378 78.264375 
L 101.101998 91.464375 
L 102.120618 79.817316 
L 104.157858 60.201217 
L 106.195098 44.321518 
L 107.213717 37.464375 
L 108.232337 48.420897 
L 109.250957 41.964375 
L 110.269577 83.544375 
L 111.288197 76.233606 
L 112.306817 84.131042 
L 114.344057 70.981616 
L 115.362677 65.064375 
L 117.399917 79.089375 
L 118.418537 85.464375 
L 120.455777 74.492946 
L 121.474397 69.464375 
L 122.493016 75.410321 
L 124.530256 66.07976 
L 125.548876 71.664375 
L 126.567496 67.318034 
L 127.586116 72.607232 
L 129.623356 64.464375 
L 130.641976 78.264375 
L 131.660596 74.246984 
L 132.679216 87.251609 
L 133.697836 107.964375 
L 134.716456 111.668457 
L 135.735076 123.144375 
L 136.753696 118.640846 
L 138.790935 125.087017 
L 139.809555 135.464375 
L 140.828175 138.264375 
L 143.884035 125.602306 
L 144.902655 128.379629 
L 147.958515 117.012762 
L 151.014375 106.695144 
L 152.032995 103.464375 
L 153.051615 106.240494 
L 154.070234 114.758493 
L 156.107474 108.435804 
L 158.144714 113.464375 
L 161.200574 104.664375 
L 164.256434 96.541298 
L 167.312294 89.019931 
L 168.330914 91.464375 
L 170.368153 86.750089 
L 171.386773 93.793787 
L 174.442633 86.964375 
L 177.498493 80.585254 
L 179.535733 76.561149 
L 180.554353 78.826077 
L 184.628832 71.260293 
L 185.647452 69.464375 
L 186.666072 71.664375 
L 187.684692 69.900019 
L 189.721932 74.163404 
L 191.759172 70.721518 
L 195.833652 78.748779 
L 196.852272 77.064375 
L 197.870892 82.545456 
L 198.889512 80.857232 
L 199.908132 82.703313 
L 203.982611 76.233606 
L 206.019851 79.817316 
L 207.038471 84.864375 
L 208.057091 86.555284 
L 209.075711 84.972572 
L 210.094331 89.854619 
L 211.112951 91.464375 
L 214.168811 86.78721 
L 215.187431 88.370625 
L 219.26191 82.464375 
L 220.28053 84.020766 
L 221.29915 88.509151 
L 222.31777 89.997708 
L 224.35501 87.128609 
L 225.37363 88.59481 
L 226.39225 92.888835 
L 229.44811 88.675643 
L 230.46673 95.618221 
L 231.485349 94.214375 
L 232.503969 95.560927 
L 233.522589 94.176704 
L 234.541209 98.199069 
L 238.615689 92.775633 
L 239.634309 94.069638 
L 241.671549 91.464375 
L 243.708789 94.002837 
L 245.746029 91.464375 
L 247.783268 93.939375 
L 248.801888 92.694189 
L 251.857748 96.293643 
L 253.894988 93.849917 
L 254.913608 95.021261 
L 255.932228 93.821518 
L 258.988088 97.253849 
L 260.006708 100.673677 
L 261.025328 101.764953 
L 263.062567 99.384375 
L 264.081187 102.714375 
L 265.099807 101.532172 
L 266.118427 102.587971 
L 268.155667 100.264375 
L 272.230147 104.377418 
L 274.267387 102.109536 
L 275.286007 103.111434 
L 276.304627 101.99629 
L 277.323247 102.988185 
L 278.341866 101.885428 
L 280.379106 103.839375 
L 283.434966 100.602837 
L 284.453586 101.566416 
L 287.509446 98.429199 
L 288.528066 99.384375 
L 290.565306 97.345563 
L 291.583926 100.2427 
L 292.602546 101.170257 
L 295.658405 98.160027 
L 296.677025 99.07976 
L 297.695645 98.095954 
L 299.732885 99.909873 
L 300.751505 98.936073 
L 301.770125 101.689727 
L 304.825985 98.797708 
L 305.844605 99.676357 
L 308.900464 96.864375 
L 310.937704 98.59951 
L 312.974944 96.767946 
L 313.993564 97.624375 
L 316.030804 95.825608 
L 318.068044 97.516777 
L 320.105284 95.750089 
L 322.142524 97.412873 
L 328.254243 92.292827 
L 329.272863 91.464375 
L 332.328723 93.908819 
L 333.347343 96.333227 
L 334.365963 95.505191 
L 340.477682 100.141666 
L 341.496302 99.321518 
L 342.514922 101.638288 
L 344.552162 100.005551 
L 345.570782 100.745625 
L 346.589402 99.939083 
L 347.608022 100.673677 
L 351.682502 97.510177 
L 352.701122 98.24004 
L 353.719742 100.464375 
L 354.738362 101.177583 
L 358.812841 98.08891 
L 361.868701 100.199669 
L 362.887321 99.442397 
L 363.905941 103.026419 
L 365.943181 101.507853 
L 366.961801 102.186397 
L 367.980421 101.435598 
L 368.999041 106.367601 
L 371.03628 110.489286 
L 373.07352 108.955541 
L 375.11076 110.22227 
L 376.12938 109.464375 
L 377.148 110.091553 
L 380.20386 107.850582 
L 384.27834 110.321518 
L 386.315579 108.856267 
L 389.371439 110.668388 
L 393.445919 107.801009 
L 395.483159 108.992244 
L 396.501779 110.87614 
L 397.520399 111.45786 
L 399.557639 110.046899 
L 400.576259 111.903085 
L 402.613498 110.502837 
L 403.632118 111.074599 
L 409.743838 106.981616 
L 410.762458 107.551875 
L 413.818318 105.563446 
L 414.836938 106.131042 
L 419.930037 102.899025 
L 421.967277 104.026309 
L 430.116237 99.057295 
L 431.134857 99.617316 
L 432.153477 101.335343 
L 434.190716 100.123267 
L 435.209336 100.673677 
L 436.227956 102.368723 
L 438.265196 101.164663 
L 439.283816 101.705754 
L 441.321056 100.515804 
L 442.339676 102.182324 
L 443.358296 102.714375 
L 444.376916 104.365225 
L 448.451395 102.00219 
L 449.470015 102.525828 
L 450.488635 101.943484 
L 452.525875 102.982381 
L 455.581735 101.255584 
L 456.600355 101.771224 
L 460.674835 99.513155 
L 463.730694 101.04502 
L 464.749314 100.488504 
L 465.767934 100.993787 
L 469.842414 98.797708 
L 470.861034 99.300787 
L 471.879654 98.759112 
L 472.898274 100.299021 
L 475.954134 98.683125 
L 476.972754 99.178661 
L 480.028613 97.588086 
L 481.047233 98.081342 
L 483.084473 97.034707 
L 484.103093 98.535804 
L 485.121713 99.021627 
L 487.158953 97.980831 
L 488.177573 98.464375 
L 489.196193 97.948002 
L 490.214813 98.429199 
L 495.307912 95.886211 
L 496.326532 98.325761 
L 497.345152 97.819931 
L 499.382392 98.761672 
L 502.438252 97.259497 
L 503.456872 97.727149 
L 507.531352 95.758351 
L 508.549972 96.22399 
L 509.568592 95.737756 
L 510.587211 97.148586 
L 512.624451 96.178661 
L 513.643071 96.637772 
L 516.698931 95.200224 
L 518.736171 96.112262 
L 519.754791 95.637677 
L 520.773411 96.090543 
L 523.829271 94.680152 
L 524.847891 95.131042 
L 525.86651 96.494398 
L 527.90375 95.560927 
L 528.92237 96.005659 
L 530.95961 95.080813 
L 531.97823 95.523601 
L 532.99685 95.064375 
L 534.01547 95.505191 
L 535.03409 95.048085 
L 538.08995 96.358757 
L 539.10857 95.903837 
L 541.145809 96.767946 
L 548.276149 93.640199 
L 549.294769 94.069638 
L 550.313389 93.630677 
L 552.350629 94.483983 
L 553.369249 94.046984 
L 554.387869 94.470883 
L 556.425109 93.602604 
L 557.443728 94.02472 
L 560.499588 92.736324 
L 563.555448 93.992035 
L 564.574068 93.566286 
L 565.592688 93.981324 
L 567.629928 93.135261 
L 569.667168 93.960173 
L 570.685788 95.200224 
L 572.723027 94.357903 
L 574.760267 95.169157 
L 577.816127 93.91892 
L 578.834747 95.138602 
L 579.853367 95.538449 
L 583.927847 93.888865 
L 584.946467 94.287186 
L 585.965087 93.879009 
L 588.002326 94.670853 
L 590.039566 93.859536 
L 591.058186 95.049888 
L 592.076806 94.645098 
L 593.095426 95.035517 
L 593.095426 95.035517 
" clip-path="url(#p2bbffef805)" style="fill: none; stroke: #e64173; stroke-width: 1.5; stroke-linecap: square"/>
   </g>
   <g id="line2d_28">
    <path d="M 85.822699 90.621166 
L 593.095426 90.621166 
L 593.095426 90.621166 
" clip-path="url(#p2bbffef805)" style="fill: none; stroke: #20b2aa; stroke-width: 3; stroke-linecap: square"/>
   </g>
   <g id="patch_3">
    <path d="M 60.459062 302.064375 
L 60.459062 24.864375 
" style="fill: none; stroke: #000000; stroke-width: 0.8; stroke-linejoin: miter; stroke-linecap: square"/>
   </g>
   <g id="patch_4">
    <path d="M 618.459062 302.064375 
L 618.459062 24.864375 
" style="fill: none; stroke: #000000; stroke-width: 0.8; stroke-linejoin: miter; stroke-linecap: square"/>
   </g>
   <g id="patch_5">
    <path d="M 60.459063 302.064375 
L 618.459062 302.064375 
" style="fill: none; stroke: #000000; stroke-width: 0.8; stroke-linejoin: miter; stroke-linecap: square"/>
   </g>
   <g id="patch_6">
    <path d="M 60.459063 24.864375 
L 618.459062 24.864375 
" style="fill: none; stroke: #000000; stroke-width: 0.8; stroke-linejoin: miter; stroke-linecap: square"/>
   </g>
   <g id="text_16">
    <!-- Distribution $\widehat{F_n}(x) - F(x)$, x is fixed -->
    <g transform="translate(238.179063 18.864375) scale(0.12 -0.12)">
     <defs>
      <path id="DejaVuSans-44" d="M 1259 4147 
L 1259 519 
L 2022 519 
Q 2988 519 3436 956 
Q 3884 1394 3884 2338 
Q 3884 3275 3436 3711 
Q 2988 4147 2022 4147 
L 1259 4147 
z
M 628 4666 
L 1925 4666 
Q 3281 4666 3915 4102 
Q 4550 3538 4550 2338 
Q 4550 1131 3912 565 
Q 3275 0 1925 0 
L 628 0 
L 628 4666 
z
" transform="scale(0.015625)"/>
      <path id="DejaVuSans-74" d="M 1172 4494 
L 1172 3500 
L 2356 3500 
L 2356 3053 
L 1172 3053 
L 1172 1153 
Q 1172 725 1289 603 
Q 1406 481 1766 481 
L 2356 481 
L 2356 0 
L 1766 0 
Q 1100 0 847 248 
Q 594 497 594 1153 
L 594 3053 
L 172 3053 
L 172 3500 
L 594 3500 
L 594 4494 
L 1172 4494 
z
" transform="scale(0.015625)"/>
      <path id="DejaVuSans-72" d="M 2631 2963 
Q 2534 3019 2420 3045 
Q 2306 3072 2169 3072 
Q 1681 3072 1420 2755 
Q 1159 2438 1159 1844 
L 1159 0 
L 581 0 
L 581 3500 
L 1159 3500 
L 1159 2956 
Q 1341 3275 1631 3429 
Q 1922 3584 2338 3584 
Q 2397 3584 2469 3576 
Q 2541 3569 2628 3553 
L 2631 2963 
z
" transform="scale(0.015625)"/>
      <path id="DejaVuSans-62" d="M 3116 1747 
Q 3116 2381 2855 2742 
Q 2594 3103 2138 3103 
Q 1681 3103 1420 2742 
Q 1159 2381 1159 1747 
Q 1159 1113 1420 752 
Q 1681 391 2138 391 
Q 2594 391 2855 752 
Q 3116 1113 3116 1747 
z
M 1159 2969 
Q 1341 3281 1617 3432 
Q 1894 3584 2278 3584 
Q 2916 3584 3314 3078 
Q 3713 2572 3713 1747 
Q 3713 922 3314 415 
Q 2916 -91 2278 -91 
Q 1894 -91 1617 61 
Q 1341 213 1159 525 
L 1159 0 
L 581 0 
L 581 4863 
L 1159 4863 
L 1159 2969 
z
" transform="scale(0.015625)"/>
      <path id="DejaVuSans-75" d="M 544 1381 
L 544 3500 
L 1119 3500 
L 1119 1403 
Q 1119 906 1312 657 
Q 1506 409 1894 409 
Q 2359 409 2629 706 
Q 2900 1003 2900 1516 
L 2900 3500 
L 3475 3500 
L 3475 0 
L 2900 0 
L 2900 538 
Q 2691 219 2414 64 
Q 2138 -91 1772 -91 
Q 1169 -91 856 284 
Q 544 659 544 1381 
z
M 1991 3584 
L 1991 3584 
z
" transform="scale(0.015625)"/>
      <path id="DejaVuSans-6f" d="M 1959 3097 
Q 1497 3097 1228 2736 
Q 959 2375 959 1747 
Q 959 1119 1226 758 
Q 1494 397 1959 397 
Q 2419 397 2687 759 
Q 2956 1122 2956 1747 
Q 2956 2369 2687 2733 
Q 2419 3097 1959 3097 
z
M 1959 3584 
Q 2709 3584 3137 3096 
Q 3566 2609 3566 1747 
Q 3566 888 3137 398 
Q 2709 -91 1959 -91 
Q 1206 -91 779 398 
Q 353 888 353 1747 
Q 353 2609 779 3096 
Q 1206 3584 1959 3584 
z
" transform="scale(0.015625)"/>
      <path id="DejaVuSans-6e" d="M 3513 2113 
L 3513 0 
L 2938 0 
L 2938 2094 
Q 2938 2591 2744 2837 
Q 2550 3084 2163 3084 
Q 1697 3084 1428 2787 
Q 1159 2491 1159 1978 
L 1159 0 
L 581 0 
L 581 3500 
L 1159 3500 
L 1159 2956 
Q 1366 3272 1645 3428 
Q 1925 3584 2291 3584 
Q 2894 3584 3203 3211 
Q 3513 2838 3513 2113 
z
" transform="scale(0.015625)"/>
      <path id="STIXSizeThreeSym-Regular-302" d="M -960 3610 
L -1939 3610 
L -5632 4538 
L -9325 3610 
L -10304 3610 
L -5786 4973 
L -5478 4973 
L -960 3610 
z
" transform="scale(0.015625)"/>
      <path id="DejaVuSans-Oblique-46" d="M 1081 4666 
L 3756 4666 
L 3653 4134 
L 1606 4134 
L 1338 2759 
L 3188 2759 
L 3084 2228 
L 1234 2228 
L 800 0 
L 172 0 
L 1081 4666 
z
" transform="scale(0.015625)"/>
      <path id="DejaVuSans-Oblique-6e" d="M 3566 2113 
L 3156 0 
L 2578 0 
L 2988 2091 
Q 3016 2238 3031 2350 
Q 3047 2463 3047 2528 
Q 3047 2791 2881 2937 
Q 2716 3084 2419 3084 
Q 1956 3084 1622 2776 
Q 1288 2469 1184 1941 
L 800 0 
L 225 0 
L 903 3500 
L 1478 3500 
L 1363 2950 
Q 1603 3253 1940 3418 
Q 2278 3584 2650 3584 
Q 3113 3584 3367 3334 
Q 3622 3084 3622 2631 
Q 3622 2519 3608 2391 
Q 3594 2263 3566 2113 
z
" transform="scale(0.015625)"/>
      <path id="DejaVuSans-28" d="M 1984 4856 
Q 1566 4138 1362 3434 
Q 1159 2731 1159 2009 
Q 1159 1288 1364 580 
Q 1569 -128 1984 -844 
L 1484 -844 
Q 1016 -109 783 600 
Q 550 1309 550 2009 
Q 550 2706 781 3412 
Q 1013 4119 1484 4856 
L 1984 4856 
z
" transform="scale(0.015625)"/>
      <path id="DejaVuSans-Oblique-78" d="M 3841 3500 
L 2234 1784 
L 3219 0 
L 2559 0 
L 1819 1388 
L 531 0 
L -166 0 
L 1556 1844 
L 641 3500 
L 1300 3500 
L 1972 2234 
L 3144 3500 
L 3841 3500 
z
" transform="scale(0.015625)"/>
      <path id="DejaVuSans-29" d="M 513 4856 
L 1013 4856 
Q 1481 4119 1714 3412 
Q 1947 2706 1947 2009 
Q 1947 1309 1714 600 
Q 1481 -109 1013 -844 
L 513 -844 
Q 928 -128 1133 580 
Q 1338 1288 1338 2009 
Q 1338 2731 1133 3434 
Q 928 4138 513 4856 
z
" transform="scale(0.015625)"/>
      <path id="DejaVuSans-2c" d="M 750 794 
L 1409 794 
L 1409 256 
L 897 -744 
L 494 -744 
L 750 256 
L 750 794 
z
" transform="scale(0.015625)"/>
      <path id="DejaVuSans-78" d="M 3513 3500 
L 2247 1797 
L 3578 0 
L 2900 0 
L 1881 1375 
L 863 0 
L 184 0 
L 1544 1831 
L 300 3500 
L 978 3500 
L 1906 2253 
L 2834 3500 
L 3513 3500 
z
" transform="scale(0.015625)"/>
      <path id="DejaVuSans-66" d="M 2375 4863 
L 2375 4384 
L 1825 4384 
Q 1516 4384 1395 4259 
Q 1275 4134 1275 3809 
L 1275 3500 
L 2222 3500 
L 2222 3053 
L 1275 3053 
L 1275 0 
L 697 0 
L 697 3053 
L 147 3053 
L 147 3500 
L 697 3500 
L 697 3744 
Q 697 4328 969 4595 
Q 1241 4863 1831 4863 
L 2375 4863 
z
" transform="scale(0.015625)"/>
      <path id="DejaVuSans-64" d="M 2906 2969 
L 2906 4863 
L 3481 4863 
L 3481 0 
L 2906 0 
L 2906 525 
Q 2725 213 2448 61 
Q 2172 -91 1784 -91 
Q 1150 -91 751 415 
Q 353 922 353 1747 
Q 353 2572 751 3078 
Q 1150 3584 1784 3584 
Q 2172 3584 2448 3432 
Q 2725 3281 2906 2969 
z
M 947 1747 
Q 947 1113 1208 752 
Q 1469 391 1925 391 
Q 2381 391 2643 752 
Q 2906 1113 2906 1747 
Q 2906 2381 2643 2742 
Q 2381 3103 1925 3103 
Q 1469 3103 1208 2742 
Q 947 2381 947 1747 
z
" transform="scale(0.015625)"/>
     </defs>
     <use xlink:href="#DejaVuSans-44" transform="translate(0 0.265625)"/>
     <use xlink:href="#DejaVuSans-69" transform="translate(77.001953 0.265625)"/>
     <use xlink:href="#DejaVuSans-73" transform="translate(104.785156 0.265625)"/>
     <use xlink:href="#DejaVuSans-74" transform="translate(156.884766 0.265625)"/>
     <use xlink:href="#DejaVuSans-72" transform="translate(196.09375 0.265625)"/>
     <use xlink:href="#DejaVuSans-69" transform="translate(237.207031 0.265625)"/>
     <use xlink:href="#DejaVuSans-62" transform="translate(264.990234 0.265625)"/>
     <use xlink:href="#DejaVuSans-75" transform="translate(328.466797 0.265625)"/>
     <use xlink:href="#DejaVuSans-74" transform="translate(391.845703 0.265625)"/>
     <use xlink:href="#DejaVuSans-69" transform="translate(431.054688 0.265625)"/>
     <use xlink:href="#DejaVuSans-6f" transform="translate(458.837891 0.265625)"/>
     <use xlink:href="#DejaVuSans-6e" transform="translate(520.019531 0.265625)"/>
     <use xlink:href="#DejaVuSans-20" transform="translate(583.398438 0.265625)"/>
     <use xlink:href="#STIXSizeThreeSym-Regular-302" transform="translate(743.652832 45.0625) scale(0.716569)"/>
     <use xlink:href="#DejaVuSans-Oblique-46" transform="translate(615.185547 0.265625)"/>
     <use xlink:href="#DejaVuSans-Oblique-6e" transform="translate(672.705078 -16.140625) scale(0.7)"/>
     <use xlink:href="#DejaVuSans-28" transform="translate(719.804688 0.265625)"/>
     <use xlink:href="#DejaVuSans-Oblique-78" transform="translate(758.818359 0.265625)"/>
     <use xlink:href="#DejaVuSans-29" transform="translate(817.998047 0.265625)"/>
     <use xlink:href="#DejaVuSans-2212" transform="translate(876.494141 0.265625)"/>
     <use xlink:href="#DejaVuSans-Oblique-46" transform="translate(979.765625 0.265625)"/>
     <use xlink:href="#DejaVuSans-28" transform="translate(1037.285156 0.265625)"/>
     <use xlink:href="#DejaVuSans-Oblique-78" transform="translate(1076.298828 0.265625)"/>
     <use xlink:href="#DejaVuSans-29" transform="translate(1135.478516 0.265625)"/>
     <use xlink:href="#DejaVuSans-2c" transform="translate(1174.492188 0.265625)"/>
     <use xlink:href="#DejaVuSans-20" transform="translate(1206.279297 0.265625)"/>
     <use xlink:href="#DejaVuSans-78" transform="translate(1238.066406 0.265625)"/>
     <use xlink:href="#DejaVuSans-20" transform="translate(1297.246094 0.265625)"/>
     <use xlink:href="#DejaVuSans-69" transform="translate(1329.033203 0.265625)"/>
     <use xlink:href="#DejaVuSans-73" transform="translate(1356.816406 0.265625)"/>
     <use xlink:href="#DejaVuSans-20" transform="translate(1408.916016 0.265625)"/>
     <use xlink:href="#DejaVuSans-66" transform="translate(1440.703125 0.265625)"/>
     <use xlink:href="#DejaVuSans-69" transform="translate(1475.908203 0.265625)"/>
     <use xlink:href="#DejaVuSans-78" transform="translate(1503.691406 0.265625)"/>
     <use xlink:href="#DejaVuSans-65" transform="translate(1562.871094 0.265625)"/>
     <use xlink:href="#DejaVuSans-64" transform="translate(1624.394531 0.265625)"/>
    </g>
   </g>
   <g id="legend_1">
    <g id="patch_7">
     <path d="M 504.459062 72.238125 
L 610.059062 72.238125 
Q 612.459062 72.238125 612.459062 69.838125 
L 612.459062 33.264375 
Q 612.459062 30.864375 610.059062 30.864375 
L 504.459062 30.864375 
Q 502.059062 30.864375 502.059062 33.264375 
L 502.059062 69.838125 
Q 502.059062 72.238125 504.459062 72.238125 
z
" style="fill: #ffffff; opacity: 0.8; stroke: #cccccc; stroke-linejoin: miter"/>
    </g>
    <g id="line2d_29">
     <path d="M 506.859062 43.12875 
L 518.859062 43.12875 
L 530.859062 43.12875 
" style="fill: none; stroke: #e64173; stroke-width: 1.5; stroke-linecap: square"/>
    </g>
    <g id="text_17">
     <!-- $\widehat{F_n}(x) - F({x})$ -->
     <g transform="translate(540.459062 47.32875) scale(0.12 -0.12)">
      <use xlink:href="#STIXSizeThreeSym-Regular-302" transform="translate(128.467285 45.0625) scale(0.716569)"/>
      <use xlink:href="#DejaVuSans-Oblique-46" transform="translate(0 0.265625)"/>
      <use xlink:href="#DejaVuSans-Oblique-6e" transform="translate(57.519531 -16.140625) scale(0.7)"/>
      <use xlink:href="#DejaVuSans-28" transform="translate(104.619141 0.265625)"/>
      <use xlink:href="#DejaVuSans-Oblique-78" transform="translate(143.632812 0.265625)"/>
      <use xlink:href="#DejaVuSans-29" transform="translate(202.8125 0.265625)"/>
      <use xlink:href="#DejaVuSans-2212" transform="translate(261.308594 0.265625)"/>
      <use xlink:href="#DejaVuSans-Oblique-46" transform="translate(364.580078 0.265625)"/>
      <use xlink:href="#DejaVuSans-28" transform="translate(422.099609 0.265625)"/>
      <use xlink:href="#DejaVuSans-Oblique-78" transform="translate(461.113281 0.265625)"/>
      <use xlink:href="#DejaVuSans-29" transform="translate(520.292969 0.265625)"/>
     </g>
    </g>
    <g id="line2d_30">
     <path d="M 506.859062 60.7425 
L 518.859062 60.7425 
L 530.859062 60.7425 
" style="fill: none; stroke: #20b2aa; stroke-width: 3; stroke-linecap: square"/>
    </g>
    <g id="text_18">
     <!-- 0 -->
     <g transform="translate(540.459062 64.9425) scale(0.12 -0.12)">
      <use xlink:href="#DejaVuSans-30"/>
     </g>
    </g>
   </g>
  </g>
 </g>
 <defs>
  <clipPath id="p2bbffef805">
   <rect x="60.459062" y="24.864375" width="558" height="277.2"/>
  </clipPath>
 </defs>
</svg>
