<?xml version="1.0" encoding="utf-8" standalone="no"?>
<!DOCTYPE svg PUBLIC "-//W3C//DTD SVG 1.1//EN"
  "http://www.w3.org/Graphics/SVG/1.1/DTD/svg11.dtd">
<svg xmlns:xlink="http://www.w3.org/1999/xlink" width="781.904375pt" height="318.886875pt" viewBox="0 0 781.904375 318.886875" xmlns="http://www.w3.org/2000/svg" version="1.1">
 <metadata>
  <rdf:RDF xmlns:dc="http://purl.org/dc/elements/1.1/" xmlns:cc="http://creativecommons.org/ns#" xmlns:rdf="http://www.w3.org/1999/02/22-rdf-syntax-ns#">
   <cc:Work>
    <dc:type rdf:resource="http://purl.org/dc/dcmitype/StillImage"/>
    <dc:date>2026-06-22T17:39:21.512341</dc:date>
    <dc:format>image/svg+xml</dc:format>
    <dc:creator>
     <cc:Agent>
      <dc:title>Matplotlib v3.10.8, https://matplotlib.org/</dc:title>
     </cc:Agent>
    </dc:creator>
   </cc:Work>
  </rdf:RDF>
 </metadata>
 <defs>
  <style type="text/css">*{stroke-linejoin: round; stroke-linecap: butt}</style>
 </defs>
 <g id="figure_1">
  <g id="patch_1">
   <path d="M 0 318.886875 
L 781.904375 318.886875 
L 781.904375 0 
L 0 0 
z
" style="fill: #ffffff"/>
  </g>
  <g id="axes_1">
   <g id="patch_2">
    <path d="M 46.339375 279.395 
L 774.704375 279.395 
L 774.704375 25.03 
L 46.339375 25.03 
z
" style="fill: #ffffff"/>
   </g>
   <g id="matplotlib.axis_1">
    <g id="xtick_1">
     <g id="line2d_1">
      <path d="M 79.402729 279.395 
L 79.402729 25.03 
" clip-path="url(#p4c41365ced)" style="fill: none; stroke: #dddddd; stroke-opacity: 0.6; stroke-width: 0.8; stroke-linecap: square"/>
     </g>
     <g id="line2d_2">
      <defs>
       <path id="m1f3b3cf068" d="M 0 0 
L 0 3.5 
" style="stroke: #314f4f; stroke-width: 0.8"/>
      </defs>
      <g>
       <use xlink:href="#m1f3b3cf068" x="79.402729" y="279.395" style="fill: #314f4f; stroke: #314f4f; stroke-width: 0.8"/>
      </g>
     </g>
     <g id="text_1">
      <!-- 0 -->
      <g style="fill: #314f4f" transform="translate(75.903354 294.753281) scale(0.11 -0.11)">
       <defs>
        <path id="DejaVuSans-30" d="M 2034 4250 
Q 1547 4250 1301 3770 
Q 1056 3291 1056 2328 
Q 1056 1369 1301 889 
Q 1547 409 2034 409 
Q 2525 409 2770 889 
Q 3016 1369 3016 2328 
Q 3016 3291 2770 3770 
Q 2525 4250 2034 4250 
z
M 2034 4750 
Q 2819 4750 3233 4129 
Q 3647 3509 3647 2328 
Q 3647 1150 3233 529 
Q 2819 -91 2034 -91 
Q 1250 -91 836 529 
Q 422 1150 422 2328 
Q 422 3509 836 4129 
Q 1250 4750 2034 4750 
z
" transform="scale(0.015625)"/>
       </defs>
       <use xlink:href="#DejaVuSans-30"/>
      </g>
     </g>
    </g>
    <g id="xtick_2">
     <g id="line2d_3">
      <path d="M 167.695282 279.395 
L 167.695282 25.03 
" clip-path="url(#p4c41365ced)" style="fill: none; stroke: #dddddd; stroke-opacity: 0.6; stroke-width: 0.8; stroke-linecap: square"/>
     </g>
     <g id="line2d_4">
      <g>
       <use xlink:href="#m1f3b3cf068" x="167.695282" y="279.395" style="fill: #314f4f; stroke: #314f4f; stroke-width: 0.8"/>
      </g>
     </g>
     <g id="text_2">
      <!-- 2 -->
      <g style="fill: #314f4f" transform="translate(164.195907 294.753281) scale(0.11 -0.11)">
       <defs>
        <path id="DejaVuSans-32" d="M 1228 531 
L 3431 531 
L 3431 0 
L 469 0 
L 469 531 
Q 828 903 1448 1529 
Q 2069 2156 2228 2338 
Q 2531 2678 2651 2914 
Q 2772 3150 2772 3378 
Q 2772 3750 2511 3984 
Q 2250 4219 1831 4219 
Q 1534 4219 1204 4116 
Q 875 4013 500 3803 
L 500 4441 
Q 881 4594 1212 4672 
Q 1544 4750 1819 4750 
Q 2544 4750 2975 4387 
Q 3406 4025 3406 3419 
Q 3406 3131 3298 2873 
Q 3191 2616 2906 2266 
Q 2828 2175 2409 1742 
Q 1991 1309 1228 531 
z
" transform="scale(0.015625)"/>
       </defs>
       <use xlink:href="#DejaVuSans-32"/>
      </g>
     </g>
    </g>
    <g id="xtick_3">
     <g id="line2d_5">
      <path d="M 255.987834 279.395 
L 255.987834 25.03 
" clip-path="url(#p4c41365ced)" style="fill: none; stroke: #dddddd; stroke-opacity: 0.6; stroke-width: 0.8; stroke-linecap: square"/>
     </g>
     <g id="line2d_6">
      <g>
       <use xlink:href="#m1f3b3cf068" x="255.987834" y="279.395" style="fill: #314f4f; stroke: #314f4f; stroke-width: 0.8"/>
      </g>
     </g>
     <g id="text_3">
      <!-- 4 -->
      <g style="fill: #314f4f" transform="translate(252.488459 294.753281) scale(0.11 -0.11)">
       <defs>
        <path id="DejaVuSans-34" d="M 2419 4116 
L 825 1625 
L 2419 1625 
L 2419 4116 
z
M 2253 4666 
L 3047 4666 
L 3047 1625 
L 3713 1625 
L 3713 1100 
L 3047 1100 
L 3047 0 
L 2419 0 
L 2419 1100 
L 313 1100 
L 313 1709 
L 2253 4666 
z
" transform="scale(0.015625)"/>
       </defs>
       <use xlink:href="#DejaVuSans-34"/>
      </g>
     </g>
    </g>
    <g id="xtick_4">
     <g id="line2d_7">
      <path d="M 344.280387 279.395 
L 344.280387 25.03 
" clip-path="url(#p4c41365ced)" style="fill: none; stroke: #dddddd; stroke-opacity: 0.6; stroke-width: 0.8; stroke-linecap: square"/>
     </g>
     <g id="line2d_8">
      <g>
       <use xlink:href="#m1f3b3cf068" x="344.280387" y="279.395" style="fill: #314f4f; stroke: #314f4f; stroke-width: 0.8"/>
      </g>
     </g>
     <g id="text_4">
      <!-- 6 -->
      <g style="fill: #314f4f" transform="translate(340.781012 294.753281) scale(0.11 -0.11)">
       <defs>
        <path id="DejaVuSans-36" d="M 2113 2584 
Q 1688 2584 1439 2293 
Q 1191 2003 1191 1497 
Q 1191 994 1439 701 
Q 1688 409 2113 409 
Q 2538 409 2786 701 
Q 3034 994 3034 1497 
Q 3034 2003 2786 2293 
Q 2538 2584 2113 2584 
z
M 3366 4563 
L 3366 3988 
Q 3128 4100 2886 4159 
Q 2644 4219 2406 4219 
Q 1781 4219 1451 3797 
Q 1122 3375 1075 2522 
Q 1259 2794 1537 2939 
Q 1816 3084 2150 3084 
Q 2853 3084 3261 2657 
Q 3669 2231 3669 1497 
Q 3669 778 3244 343 
Q 2819 -91 2113 -91 
Q 1303 -91 875 529 
Q 447 1150 447 2328 
Q 447 3434 972 4092 
Q 1497 4750 2381 4750 
Q 2619 4750 2861 4703 
Q 3103 4656 3366 4563 
z
" transform="scale(0.015625)"/>
       </defs>
       <use xlink:href="#DejaVuSans-36"/>
      </g>
     </g>
    </g>
    <g id="xtick_5">
     <g id="line2d_9">
      <path d="M 432.57294 279.395 
L 432.57294 25.03 
" clip-path="url(#p4c41365ced)" style="fill: none; stroke: #dddddd; stroke-opacity: 0.6; stroke-width: 0.8; stroke-linecap: square"/>
     </g>
     <g id="line2d_10">
      <g>
       <use xlink:href="#m1f3b3cf068" x="432.57294" y="279.395" style="fill: #314f4f; stroke: #314f4f; stroke-width: 0.8"/>
      </g>
     </g>
     <g id="text_5">
      <!-- 8 -->
      <g style="fill: #314f4f" transform="translate(429.073565 294.753281) scale(0.11 -0.11)">
       <defs>
        <path id="DejaVuSans-38" d="M 2034 2216 
Q 1584 2216 1326 1975 
Q 1069 1734 1069 1313 
Q 1069 891 1326 650 
Q 1584 409 2034 409 
Q 2484 409 2743 651 
Q 3003 894 3003 1313 
Q 3003 1734 2745 1975 
Q 2488 2216 2034 2216 
z
M 1403 2484 
Q 997 2584 770 2862 
Q 544 3141 544 3541 
Q 544 4100 942 4425 
Q 1341 4750 2034 4750 
Q 2731 4750 3128 4425 
Q 3525 4100 3525 3541 
Q 3525 3141 3298 2862 
Q 3072 2584 2669 2484 
Q 3125 2378 3379 2068 
Q 3634 1759 3634 1313 
Q 3634 634 3220 271 
Q 2806 -91 2034 -91 
Q 1263 -91 848 271 
Q 434 634 434 1313 
Q 434 1759 690 2068 
Q 947 2378 1403 2484 
z
M 1172 3481 
Q 1172 3119 1398 2916 
Q 1625 2713 2034 2713 
Q 2441 2713 2670 2916 
Q 2900 3119 2900 3481 
Q 2900 3844 2670 4047 
Q 2441 4250 2034 4250 
Q 1625 4250 1398 4047 
Q 1172 3844 1172 3481 
z
" transform="scale(0.015625)"/>
       </defs>
       <use xlink:href="#DejaVuSans-38"/>
      </g>
     </g>
    </g>
    <g id="xtick_6">
     <g id="line2d_11">
      <path d="M 520.865493 279.395 
L 520.865493 25.03 
" clip-path="url(#p4c41365ced)" style="fill: none; stroke: #dddddd; stroke-opacity: 0.6; stroke-width: 0.8; stroke-linecap: square"/>
     </g>
     <g id="line2d_12">
      <g>
       <use xlink:href="#m1f3b3cf068" x="520.865493" y="279.395" style="fill: #314f4f; stroke: #314f4f; stroke-width: 0.8"/>
      </g>
     </g>
     <g id="text_6">
      <!-- 10 -->
      <g style="fill: #314f4f" transform="translate(513.866743 294.753281) scale(0.11 -0.11)">
       <defs>
        <path id="DejaVuSans-31" d="M 794 531 
L 1825 531 
L 1825 4091 
L 703 3866 
L 703 4441 
L 1819 4666 
L 2450 4666 
L 2450 531 
L 3481 531 
L 3481 0 
L 794 0 
L 794 531 
z
" transform="scale(0.015625)"/>
       </defs>
       <use xlink:href="#DejaVuSans-31"/>
       <use xlink:href="#DejaVuSans-30" transform="translate(63.623047 0)"/>
      </g>
     </g>
    </g>
    <g id="xtick_7">
     <g id="line2d_13">
      <path d="M 609.158046 279.395 
L 609.158046 25.03 
" clip-path="url(#p4c41365ced)" style="fill: none; stroke: #dddddd; stroke-opacity: 0.6; stroke-width: 0.8; stroke-linecap: square"/>
     </g>
     <g id="line2d_14">
      <g>
       <use xlink:href="#m1f3b3cf068" x="609.158046" y="279.395" style="fill: #314f4f; stroke: #314f4f; stroke-width: 0.8"/>
      </g>
     </g>
     <g id="text_7">
      <!-- 12 -->
      <g style="fill: #314f4f" transform="translate(602.159296 294.753281) scale(0.11 -0.11)">
       <use xlink:href="#DejaVuSans-31"/>
       <use xlink:href="#DejaVuSans-32" transform="translate(63.623047 0)"/>
      </g>
     </g>
    </g>
    <g id="xtick_8">
     <g id="line2d_15">
      <path d="M 697.450599 279.395 
L 697.450599 25.03 
" clip-path="url(#p4c41365ced)" style="fill: none; stroke: #dddddd; stroke-opacity: 0.6; stroke-width: 0.8; stroke-linecap: square"/>
     </g>
     <g id="line2d_16">
      <g>
       <use xlink:href="#m1f3b3cf068" x="697.450599" y="279.395" style="fill: #314f4f; stroke: #314f4f; stroke-width: 0.8"/>
      </g>
     </g>
     <g id="text_8">
      <!-- 14 -->
      <g style="fill: #314f4f" transform="translate(690.451849 294.753281) scale(0.11 -0.11)">
       <use xlink:href="#DejaVuSans-31"/>
       <use xlink:href="#DejaVuSans-34" transform="translate(63.623047 0)"/>
      </g>
     </g>
    </g>
    <g id="text_9">
     <!-- x -->
     <g style="fill: #314f4f" transform="translate(407.266562 309.399219) scale(0.11 -0.11)">
      <defs>
       <path id="DejaVuSans-78" d="M 3513 3500 
L 2247 1797 
L 3578 0 
L 2900 0 
L 1881 1375 
L 863 0 
L 184 0 
L 1544 1831 
L 300 3500 
L 978 3500 
L 1906 2253 
L 2834 3500 
L 3513 3500 
z
" transform="scale(0.015625)"/>
      </defs>
      <use xlink:href="#DejaVuSans-78"/>
     </g>
    </g>
   </g>
   <g id="matplotlib.axis_2">
    <g id="ytick_1">
     <g id="line2d_17">
      <path d="M 46.339375 279.395 
L 774.704375 279.395 
" clip-path="url(#p4c41365ced)" style="fill: none; stroke: #dddddd; stroke-opacity: 0.6; stroke-width: 0.8; stroke-linecap: square"/>
     </g>
     <g id="line2d_18">
      <defs>
       <path id="m1117178045" d="M 0 0 
L -3.5 0 
" style="stroke: #314f4f; stroke-width: 0.8"/>
      </defs>
      <g>
       <use xlink:href="#m1117178045" x="46.339375" y="279.395" style="fill: #314f4f; stroke: #314f4f; stroke-width: 0.8"/>
      </g>
     </g>
     <g id="text_10">
      <!-- 0.0 -->
      <g style="fill: #314f4f" transform="translate(21.845938 283.574141) scale(0.11 -0.11)">
       <defs>
        <path id="DejaVuSans-2e" d="M 684 794 
L 1344 794 
L 1344 0 
L 684 0 
L 684 794 
z
" transform="scale(0.015625)"/>
       </defs>
       <use xlink:href="#DejaVuSans-30"/>
       <use xlink:href="#DejaVuSans-2e" transform="translate(63.623047 0)"/>
       <use xlink:href="#DejaVuSans-30" transform="translate(95.410156 0)"/>
      </g>
     </g>
    </g>
    <g id="ytick_2">
     <g id="line2d_19">
      <path d="M 46.339375 228.522 
L 774.704375 228.522 
" clip-path="url(#p4c41365ced)" style="fill: none; stroke: #dddddd; stroke-opacity: 0.6; stroke-width: 0.8; stroke-linecap: square"/>
     </g>
     <g id="line2d_20">
      <g>
       <use xlink:href="#m1117178045" x="46.339375" y="228.522" style="fill: #314f4f; stroke: #314f4f; stroke-width: 0.8"/>
      </g>
     </g>
     <g id="text_11">
      <!-- 0.1 -->
      <g style="fill: #314f4f" transform="translate(21.845938 232.701141) scale(0.11 -0.11)">
       <use xlink:href="#DejaVuSans-30"/>
       <use xlink:href="#DejaVuSans-2e" transform="translate(63.623047 0)"/>
       <use xlink:href="#DejaVuSans-31" transform="translate(95.410156 0)"/>
      </g>
     </g>
    </g>
    <g id="ytick_3">
     <g id="line2d_21">
      <path d="M 46.339375 177.649 
L 774.704375 177.649 
" clip-path="url(#p4c41365ced)" style="fill: none; stroke: #dddddd; stroke-opacity: 0.6; stroke-width: 0.8; stroke-linecap: square"/>
     </g>
     <g id="line2d_22">
      <g>
       <use xlink:href="#m1117178045" x="46.339375" y="177.649" style="fill: #314f4f; stroke: #314f4f; stroke-width: 0.8"/>
      </g>
     </g>
     <g id="text_12">
      <!-- 0.2 -->
      <g style="fill: #314f4f" transform="translate(21.845938 181.828141) scale(0.11 -0.11)">
       <use xlink:href="#DejaVuSans-30"/>
       <use xlink:href="#DejaVuSans-2e" transform="translate(63.623047 0)"/>
       <use xlink:href="#DejaVuSans-32" transform="translate(95.410156 0)"/>
      </g>
     </g>
    </g>
    <g id="ytick_4">
     <g id="line2d_23">
      <path d="M 46.339375 126.776 
L 774.704375 126.776 
" clip-path="url(#p4c41365ced)" style="fill: none; stroke: #dddddd; stroke-opacity: 0.6; stroke-width: 0.8; stroke-linecap: square"/>
     </g>
     <g id="line2d_24">
      <g>
       <use xlink:href="#m1117178045" x="46.339375" y="126.776" style="fill: #314f4f; stroke: #314f4f; stroke-width: 0.8"/>
      </g>
     </g>
     <g id="text_13">
      <!-- 0.3 -->
      <g style="fill: #314f4f" transform="translate(21.845938 130.955141) scale(0.11 -0.11)">
       <defs>
        <path id="DejaVuSans-33" d="M 2597 2516 
Q 3050 2419 3304 2112 
Q 3559 1806 3559 1356 
Q 3559 666 3084 287 
Q 2609 -91 1734 -91 
Q 1441 -91 1130 -33 
Q 819 25 488 141 
L 488 750 
Q 750 597 1062 519 
Q 1375 441 1716 441 
Q 2309 441 2620 675 
Q 2931 909 2931 1356 
Q 2931 1769 2642 2001 
Q 2353 2234 1838 2234 
L 1294 2234 
L 1294 2753 
L 1863 2753 
Q 2328 2753 2575 2939 
Q 2822 3125 2822 3475 
Q 2822 3834 2567 4026 
Q 2313 4219 1838 4219 
Q 1578 4219 1281 4162 
Q 984 4106 628 3988 
L 628 4550 
Q 988 4650 1302 4700 
Q 1616 4750 1894 4750 
Q 2613 4750 3031 4423 
Q 3450 4097 3450 3541 
Q 3450 3153 3228 2886 
Q 3006 2619 2597 2516 
z
" transform="scale(0.015625)"/>
       </defs>
       <use xlink:href="#DejaVuSans-30"/>
       <use xlink:href="#DejaVuSans-2e" transform="translate(63.623047 0)"/>
       <use xlink:href="#DejaVuSans-33" transform="translate(95.410156 0)"/>
      </g>
     </g>
    </g>
    <g id="ytick_5">
     <g id="line2d_25">
      <path d="M 46.339375 75.903 
L 774.704375 75.903 
" clip-path="url(#p4c41365ced)" style="fill: none; stroke: #dddddd; stroke-opacity: 0.6; stroke-width: 0.8; stroke-linecap: square"/>
     </g>
     <g id="line2d_26">
      <g>
       <use xlink:href="#m1117178045" x="46.339375" y="75.903" style="fill: #314f4f; stroke: #314f4f; stroke-width: 0.8"/>
      </g>
     </g>
     <g id="text_14">
      <!-- 0.4 -->
      <g style="fill: #314f4f" transform="translate(21.845938 80.082141) scale(0.11 -0.11)">
       <use xlink:href="#DejaVuSans-30"/>
       <use xlink:href="#DejaVuSans-2e" transform="translate(63.623047 0)"/>
       <use xlink:href="#DejaVuSans-34" transform="translate(95.410156 0)"/>
      </g>
     </g>
    </g>
    <g id="ytick_6">
     <g id="line2d_27">
      <path d="M 46.339375 25.03 
L 774.704375 25.03 
" clip-path="url(#p4c41365ced)" style="fill: none; stroke: #dddddd; stroke-opacity: 0.6; stroke-width: 0.8; stroke-linecap: square"/>
     </g>
     <g id="line2d_28">
      <g>
       <use xlink:href="#m1117178045" x="46.339375" y="25.03" style="fill: #314f4f; stroke: #314f4f; stroke-width: 0.8"/>
      </g>
     </g>
     <g id="text_15">
      <!-- 0.5 -->
      <g style="fill: #314f4f" transform="translate(21.845938 29.209141) scale(0.11 -0.11)">
       <defs>
        <path id="DejaVuSans-35" d="M 691 4666 
L 3169 4666 
L 3169 4134 
L 1269 4134 
L 1269 2991 
Q 1406 3038 1543 3061 
Q 1681 3084 1819 3084 
Q 2600 3084 3056 2656 
Q 3513 2228 3513 1497 
Q 3513 744 3044 326 
Q 2575 -91 1722 -91 
Q 1428 -91 1123 -41 
Q 819 9 494 109 
L 494 744 
Q 775 591 1075 516 
Q 1375 441 1709 441 
Q 2250 441 2565 725 
Q 2881 1009 2881 1497 
Q 2881 1984 2565 2268 
Q 2250 2553 1709 2553 
Q 1456 2553 1204 2497 
Q 953 2441 691 2322 
L 691 4666 
z
" transform="scale(0.015625)"/>
       </defs>
       <use xlink:href="#DejaVuSans-30"/>
       <use xlink:href="#DejaVuSans-2e" transform="translate(63.623047 0)"/>
       <use xlink:href="#DejaVuSans-35" transform="translate(95.410156 0)"/>
      </g>
     </g>
    </g>
    <g id="text_16">
     <!-- density -->
     <g style="fill: #314f4f" transform="translate(15.558281 172.378594) rotate(-90) scale(0.11 -0.11)">
      <defs>
       <path id="DejaVuSans-64" d="M 2906 2969 
L 2906 4863 
L 3481 4863 
L 3481 0 
L 2906 0 
L 2906 525 
Q 2725 213 2448 61 
Q 2172 -91 1784 -91 
Q 1150 -91 751 415 
Q 353 922 353 1747 
Q 353 2572 751 3078 
Q 1150 3584 1784 3584 
Q 2172 3584 2448 3432 
Q 2725 3281 2906 2969 
z
M 947 1747 
Q 947 1113 1208 752 
Q 1469 391 1925 391 
Q 2381 391 2643 752 
Q 2906 1113 2906 1747 
Q 2906 2381 2643 2742 
Q 2381 3103 1925 3103 
Q 1469 3103 1208 2742 
Q 947 2381 947 1747 
z
" transform="scale(0.015625)"/>
       <path id="DejaVuSans-65" d="M 3597 1894 
L 3597 1613 
L 953 1613 
Q 991 1019 1311 708 
Q 1631 397 2203 397 
Q 2534 397 2845 478 
Q 3156 559 3463 722 
L 3463 178 
Q 3153 47 2828 -22 
Q 2503 -91 2169 -91 
Q 1331 -91 842 396 
Q 353 884 353 1716 
Q 353 2575 817 3079 
Q 1281 3584 2069 3584 
Q 2775 3584 3186 3129 
Q 3597 2675 3597 1894 
z
M 3022 2063 
Q 3016 2534 2758 2815 
Q 2500 3097 2075 3097 
Q 1594 3097 1305 2825 
Q 1016 2553 972 2059 
L 3022 2063 
z
" transform="scale(0.015625)"/>
       <path id="DejaVuSans-6e" d="M 3513 2113 
L 3513 0 
L 2938 0 
L 2938 2094 
Q 2938 2591 2744 2837 
Q 2550 3084 2163 3084 
Q 1697 3084 1428 2787 
Q 1159 2491 1159 1978 
L 1159 0 
L 581 0 
L 581 3500 
L 1159 3500 
L 1159 2956 
Q 1366 3272 1645 3428 
Q 1925 3584 2291 3584 
Q 2894 3584 3203 3211 
Q 3513 2838 3513 2113 
z
" transform="scale(0.015625)"/>
       <path id="DejaVuSans-73" d="M 2834 3397 
L 2834 2853 
Q 2591 2978 2328 3040 
Q 2066 3103 1784 3103 
Q 1356 3103 1142 2972 
Q 928 2841 928 2578 
Q 928 2378 1081 2264 
Q 1234 2150 1697 2047 
L 1894 2003 
Q 2506 1872 2764 1633 
Q 3022 1394 3022 966 
Q 3022 478 2636 193 
Q 2250 -91 1575 -91 
Q 1294 -91 989 -36 
Q 684 19 347 128 
L 347 722 
Q 666 556 975 473 
Q 1284 391 1588 391 
Q 1994 391 2212 530 
Q 2431 669 2431 922 
Q 2431 1156 2273 1281 
Q 2116 1406 1581 1522 
L 1381 1569 
Q 847 1681 609 1914 
Q 372 2147 372 2553 
Q 372 3047 722 3315 
Q 1072 3584 1716 3584 
Q 2034 3584 2315 3537 
Q 2597 3491 2834 3397 
z
" transform="scale(0.015625)"/>
       <path id="DejaVuSans-69" d="M 603 3500 
L 1178 3500 
L 1178 0 
L 603 0 
L 603 3500 
z
M 603 4863 
L 1178 4863 
L 1178 4134 
L 603 4134 
L 603 4863 
z
" transform="scale(0.015625)"/>
       <path id="DejaVuSans-74" d="M 1172 4494 
L 1172 3500 
L 2356 3500 
L 2356 3053 
L 1172 3053 
L 1172 1153 
Q 1172 725 1289 603 
Q 1406 481 1766 481 
L 2356 481 
L 2356 0 
L 1766 0 
Q 1100 0 847 248 
Q 594 497 594 1153 
L 594 3053 
L 172 3053 
L 172 3500 
L 594 3500 
L 594 4494 
L 1172 4494 
z
" transform="scale(0.015625)"/>
       <path id="DejaVuSans-79" d="M 2059 -325 
Q 1816 -950 1584 -1140 
Q 1353 -1331 966 -1331 
L 506 -1331 
L 506 -850 
L 844 -850 
Q 1081 -850 1212 -737 
Q 1344 -625 1503 -206 
L 1606 56 
L 191 3500 
L 800 3500 
L 1894 763 
L 2988 3500 
L 3597 3500 
L 2059 -325 
z
" transform="scale(0.015625)"/>
      </defs>
      <use xlink:href="#DejaVuSans-64"/>
      <use xlink:href="#DejaVuSans-65" transform="translate(63.476562 0)"/>
      <use xlink:href="#DejaVuSans-6e" transform="translate(125 0)"/>
      <use xlink:href="#DejaVuSans-73" transform="translate(188.378906 0)"/>
      <use xlink:href="#DejaVuSans-69" transform="translate(240.478516 0)"/>
      <use xlink:href="#DejaVuSans-74" transform="translate(268.261719 0)"/>
      <use xlink:href="#DejaVuSans-79" transform="translate(307.470703 0)"/>
     </g>
    </g>
   </g>
   <g id="line2d_29">
    <path d="M 95.476716 -1 
L 97.342821 19.565669 
L 99.331259 38.358887 
L 101.319698 54.671364 
L 103.308136 69.01223 
L 105.296575 81.753014 
L 107.285013 93.172326 
L 109.273452 103.483953 
L 111.26189 112.855194 
L 113.913141 124.113706 
L 116.564393 134.181954 
L 119.215644 143.250464 
L 121.866895 151.468683 
L 124.518146 158.955845 
L 127.169398 165.808503 
L 129.820649 172.105873 
L 132.4719 177.913701 
L 135.785964 184.56824 
L 139.100028 190.632953 
L 142.414092 196.181468 
L 145.728156 201.275023 
L 149.04222 205.965076 
L 152.356284 210.295264 
L 155.670348 214.302903 
L 159.647225 218.731255 
L 163.624102 222.788777 
L 167.600979 226.515926 
L 171.577856 229.947374 
L 175.554733 233.113051 
L 180.194423 236.504938 
L 184.834112 239.606064 
L 189.473802 242.447171 
L 194.776304 245.409761 
L 200.078807 248.101733 
L 205.381309 250.552618 
L 211.346625 253.053375 
L 217.31194 255.312681 
L 223.940068 257.572605 
L 230.568196 259.59963 
L 237.859137 261.592859 
L 245.812891 263.519983 
L 253.766645 265.222293 
L 262.383211 266.846395 
L 271.662591 268.374279 
L 281.604783 269.793087 
L 292.872601 271.169582 
L 304.803231 272.401988 
L 318.059488 273.546428 
L 332.641369 274.581664 
L 349.21169 275.529758 
L 367.770449 276.364987 
L 388.980459 277.095121 
L 414.167345 277.732237 
L 443.993922 278.258457 
L 481.11144 278.683853 
L 530.159588 279.009801 
L 599.754933 279.232002 
L 717.735614 279.35632 
L 741.596875 279.366017 
L 741.596875 279.366017 
" clip-path="url(#p4c41365ced)" style="fill: none; stroke: #e64173; stroke-width: 2.2; stroke-linecap: square"/>
   </g>
   <g id="line2d_30">
    <path d="M 79.446875 25.157151 
L 84.086565 38.17215 
L 88.726254 50.520883 
L 93.365944 62.237457 
L 98.005634 73.354233 
L 102.645323 83.901917 
L 107.285013 93.909641 
L 111.924703 103.405048 
L 116.564393 112.414364 
L 121.204082 120.962474 
L 125.843772 129.072986 
L 130.483462 136.768303 
L 135.123151 144.06968 
L 139.762841 150.997284 
L 144.402531 157.570248 
L 149.705033 164.6712 
L 155.007536 171.35825 
L 160.310038 177.655524 
L 165.612541 183.585741 
L 170.915043 189.170295 
L 176.217546 194.429336 
L 181.520048 199.381837 
L 186.822551 204.045664 
L 192.125053 208.437646 
L 198.090368 213.073377 
L 204.055684 217.406249 
L 210.020999 221.45605 
L 215.986314 225.241273 
L 221.95163 228.779202 
L 228.579758 232.439814 
L 235.207886 235.835684 
L 241.836014 238.98596 
L 249.126955 242.188761 
L 256.417896 245.137711 
L 263.708837 247.852927 
L 271.662591 250.57014 
L 279.616344 253.053276 
L 288.232911 255.502537 
L 296.849478 257.724065 
L 306.128857 259.88604 
L 316.071049 261.963677 
L 326.676054 263.936537 
L 337.281059 265.68611 
L 348.548877 267.328592 
L 361.14232 268.932554 
L 374.398577 270.391151 
L 388.980459 271.76187 
L 404.225153 272.972311 
L 421.458286 274.111152 
L 440.017045 275.112836 
L 461.227055 276.027286 
L 485.088316 276.824805 
L 512.263642 277.505722 
L 544.74147 278.087193 
L 583.847426 278.555175 
L 633.558387 278.916734 
L 701.828106 279.174269 
L 741.596875 279.254315 
L 741.596875 279.254315 
" clip-path="url(#p4c41365ced)" style="fill: none; stroke: #181485; stroke-width: 2.2; stroke-linecap: square"/>
   </g>
   <g id="line2d_31">
    <path d="M 79.446875 272.980242 
L 80.109688 253.916719 
L 80.772501 244.195471 
L 81.435313 236.837432 
L 82.760939 225.507763 
L 84.086565 216.702974 
L 85.41219 209.441613 
L 86.737816 203.261972 
L 88.063442 197.900786 
L 89.389067 193.189973 
L 91.377506 187.099099 
L 93.365944 181.949753 
L 95.354383 177.561647 
L 97.342821 173.805978 
L 99.331259 170.586376 
L 101.319698 167.828151 
L 103.308136 165.471782 
L 105.296575 163.468776 
L 107.285013 161.778884 
L 109.273452 160.368197 
L 111.26189 159.207773 
L 113.250328 158.272639 
L 115.238767 157.541045 
L 117.227205 156.993893 
L 119.878457 156.522355 
L 122.529708 156.313895 
L 125.180959 156.338273 
L 127.83221 156.569154 
L 131.146274 157.113238 
L 134.460338 157.904866 
L 137.774403 158.910231 
L 141.751279 160.357788 
L 146.390969 162.324603 
L 151.030659 164.535415 
L 156.333161 167.298226 
L 162.961289 171.018034 
L 170.915043 175.747636 
L 182.845674 183.126457 
L 205.381309 197.088571 
L 216.649127 203.779365 
L 226.591319 209.427812 
L 235.870699 214.452867 
L 245.150078 219.223118 
L 254.429458 223.730417 
L 263.046024 227.678272 
L 271.662591 231.399055 
L 280.94197 235.156895 
L 290.221349 238.663757 
L 299.500729 241.928967 
L 308.780108 244.963065 
L 318.7223 247.970276 
L 328.664493 250.739604 
L 338.606685 253.285677 
L 349.21169 255.771787 
L 360.479508 258.172381 
L 371.747325 260.344352 
L 383.677956 262.416044 
L 396.2714 264.37145 
L 409.527656 266.198249 
L 423.446725 267.887802 
L 438.028607 269.435034 
L 453.936114 270.89466 
L 471.169247 272.242825 
L 489.728006 273.462994 
L 509.612391 274.545802 
L 531.485213 275.514833 
L 556.009287 276.377188 
L 583.847426 277.129894 
L 616.325253 277.777348 
L 654.768397 278.311555 
L 701.828106 278.733697 
L 741.596875 278.960255 
L 741.596875 278.960255 
" clip-path="url(#p4c41365ced)" style="fill: none; stroke: #314f4f; stroke-width: 2.2; stroke-linecap: square"/>
   </g>
   <g id="line2d_32">
    <path d="M 79.446875 279.392862 
L 80.772501 279.030943 
L 82.098126 278.405055 
L 84.086565 277.177832 
L 86.737816 275.178394 
L 89.389067 272.894848 
L 93.365944 269.121208 
L 98.668447 263.714916 
L 117.890018 243.782761 
L 123.855333 238.078184 
L 129.157836 233.321043 
L 134.460338 228.888993 
L 139.100028 225.291262 
L 143.739718 221.961593 
L 148.379408 218.901998 
L 153.019097 216.111347 
L 157.658787 213.586022 
L 162.298477 211.320445 
L 166.938166 209.307506 
L 171.577856 207.538919 
L 176.217546 206.005507 
L 180.857235 204.697443 
L 185.496925 203.60445 
L 190.136615 202.715959 
L 195.439117 201.937201 
L 200.74162 201.395492 
L 206.044122 201.074881 
L 211.346625 200.959664 
L 217.31194 201.056464 
L 223.277255 201.372631 
L 229.905384 201.956489 
L 236.533512 202.759473 
L 243.824453 203.865908 
L 251.778206 205.303963 
L 260.394773 207.091653 
L 270.336965 209.396116 
L 281.604783 212.249105 
L 295.523852 216.019462 
L 316.071049 221.848591 
L 351.200128 231.819579 
L 369.096074 236.648981 
L 385.003582 240.716137 
L 400.248276 244.384357 
L 414.830158 247.668045 
L 429.41204 250.725218 
L 443.993922 253.555226 
L 458.575804 256.16174 
L 473.820499 258.655283 
L 489.065193 260.922674 
L 504.972701 263.060992 
L 521.543021 265.057609 
L 538.776154 266.903567 
L 556.6721 268.593551 
L 575.230859 270.125712 
L 595.115243 271.545291 
L 616.325253 272.836849 
L 639.523702 274.021863 
L 664.710589 275.079887 
L 692.548727 276.019556 
L 723.700929 276.840043 
L 741.596875 277.221276 
L 741.596875 277.221276 
" clip-path="url(#p4c41365ced)" style="fill: none; stroke: #8bb174; stroke-width: 2.2; stroke-linecap: square"/>
   </g>
   <g id="line2d_33">
    <path d="M 79.446875 279.395 
L 109.936264 279.287732 
L 123.192521 279.004476 
L 134.460338 278.535984 
L 144.402531 277.904005 
L 154.344723 277.040898 
L 163.624102 276.014585 
L 172.903482 274.77228 
L 182.845674 273.207191 
L 192.787866 271.414058 
L 203.392871 269.274214 
L 215.323502 266.626955 
L 228.579758 263.451493 
L 246.475704 258.91292 
L 287.570098 248.401955 
L 302.15198 244.947865 
L 315.408236 242.038033 
L 327.338867 239.643103 
L 338.606685 237.59842 
L 349.874503 235.77981 
L 361.14232 234.197209 
L 371.747325 232.928288 
L 382.35233 231.8747 
L 392.957335 231.034994 
L 404.225153 230.372739 
L 415.492971 229.940176 
L 426.760789 229.72773 
L 438.69142 229.730002 
L 450.62205 229.950955 
L 463.215494 230.403066 
L 476.47175 231.099584 
L 491.053632 232.098104 
L 506.298326 233.367513 
L 523.53146 235.034187 
L 542.753031 237.122832 
L 565.95148 239.875326 
L 599.09212 244.05466 
L 663.384963 252.189955 
L 693.21154 255.710073 
L 719.724052 258.620941 
L 741.596875 260.847621 
L 741.596875 260.847621 
" clip-path="url(#p4c41365ced)" style="fill: none; stroke: #ffa500; stroke-width: 2.2; stroke-linecap: square"/>
   </g>
   <g id="patch_3">
    <path d="M 46.339375 279.395 
L 46.339375 25.03 
" style="fill: none; stroke: #314f4f; stroke-width: 0.8; stroke-linejoin: miter; stroke-linecap: square"/>
   </g>
   <g id="patch_4">
    <path d="M 46.339375 279.395 
L 774.704375 279.395 
" style="fill: none; stroke: #314f4f; stroke-width: 0.8; stroke-linejoin: miter; stroke-linecap: square"/>
   </g>
   <g id="text_17">
    <!-- $\chi^2$ probability density -->
    <g transform="translate(340.516875 19.03) scale(0.13 -0.13)">
     <defs>
      <path id="DejaVuSans-Oblique-3c7" d="M 1922 -781 
L 1691 416 
L 394 -1334 
L -284 -1334 
L 1553 1141 
L 1269 2613 
Q 1194 3006 713 3006 
L 559 3006 
L 653 3500 
L 872 3494 
Q 1675 3472 1775 2950 
L 2006 1753 
L 3303 3503 
L 3981 3503 
L 2144 1028 
L 2428 -444 
Q 2503 -838 2984 -838 
L 3138 -838 
L 3044 -1331 
L 2825 -1325 
Q 2022 -1303 1922 -781 
z
" transform="scale(0.015625)"/>
      <path id="DejaVuSans-20" transform="scale(0.015625)"/>
      <path id="DejaVuSans-70" d="M 1159 525 
L 1159 -1331 
L 581 -1331 
L 581 3500 
L 1159 3500 
L 1159 2969 
Q 1341 3281 1617 3432 
Q 1894 3584 2278 3584 
Q 2916 3584 3314 3078 
Q 3713 2572 3713 1747 
Q 3713 922 3314 415 
Q 2916 -91 2278 -91 
Q 1894 -91 1617 61 
Q 1341 213 1159 525 
z
M 3116 1747 
Q 3116 2381 2855 2742 
Q 2594 3103 2138 3103 
Q 1681 3103 1420 2742 
Q 1159 2381 1159 1747 
Q 1159 1113 1420 752 
Q 1681 391 2138 391 
Q 2594 391 2855 752 
Q 3116 1113 3116 1747 
z
" transform="scale(0.015625)"/>
      <path id="DejaVuSans-72" d="M 2631 2963 
Q 2534 3019 2420 3045 
Q 2306 3072 2169 3072 
Q 1681 3072 1420 2755 
Q 1159 2438 1159 1844 
L 1159 0 
L 581 0 
L 581 3500 
L 1159 3500 
L 1159 2956 
Q 1341 3275 1631 3429 
Q 1922 3584 2338 3584 
Q 2397 3584 2469 3576 
Q 2541 3569 2628 3553 
L 2631 2963 
z
" transform="scale(0.015625)"/>
      <path id="DejaVuSans-6f" d="M 1959 3097 
Q 1497 3097 1228 2736 
Q 959 2375 959 1747 
Q 959 1119 1226 758 
Q 1494 397 1959 397 
Q 2419 397 2687 759 
Q 2956 1122 2956 1747 
Q 2956 2369 2687 2733 
Q 2419 3097 1959 3097 
z
M 1959 3584 
Q 2709 3584 3137 3096 
Q 3566 2609 3566 1747 
Q 3566 888 3137 398 
Q 2709 -91 1959 -91 
Q 1206 -91 779 398 
Q 353 888 353 1747 
Q 353 2609 779 3096 
Q 1206 3584 1959 3584 
z
" transform="scale(0.015625)"/>
      <path id="DejaVuSans-62" d="M 3116 1747 
Q 3116 2381 2855 2742 
Q 2594 3103 2138 3103 
Q 1681 3103 1420 2742 
Q 1159 2381 1159 1747 
Q 1159 1113 1420 752 
Q 1681 391 2138 391 
Q 2594 391 2855 752 
Q 3116 1113 3116 1747 
z
M 1159 2969 
Q 1341 3281 1617 3432 
Q 1894 3584 2278 3584 
Q 2916 3584 3314 3078 
Q 3713 2572 3713 1747 
Q 3713 922 3314 415 
Q 2916 -91 2278 -91 
Q 1894 -91 1617 61 
Q 1341 213 1159 525 
L 1159 0 
L 581 0 
L 581 4863 
L 1159 4863 
L 1159 2969 
z
" transform="scale(0.015625)"/>
      <path id="DejaVuSans-61" d="M 2194 1759 
Q 1497 1759 1228 1600 
Q 959 1441 959 1056 
Q 959 750 1161 570 
Q 1363 391 1709 391 
Q 2188 391 2477 730 
Q 2766 1069 2766 1631 
L 2766 1759 
L 2194 1759 
z
M 3341 1997 
L 3341 0 
L 2766 0 
L 2766 531 
Q 2569 213 2275 61 
Q 1981 -91 1556 -91 
Q 1019 -91 701 211 
Q 384 513 384 1019 
Q 384 1609 779 1909 
Q 1175 2209 1959 2209 
L 2766 2209 
L 2766 2266 
Q 2766 2663 2505 2880 
Q 2244 3097 1772 3097 
Q 1472 3097 1187 3025 
Q 903 2953 641 2809 
L 641 3341 
Q 956 3463 1253 3523 
Q 1550 3584 1831 3584 
Q 2591 3584 2966 3190 
Q 3341 2797 3341 1997 
z
" transform="scale(0.015625)"/>
      <path id="DejaVuSans-6c" d="M 603 4863 
L 1178 4863 
L 1178 0 
L 603 0 
L 603 4863 
z
" transform="scale(0.015625)"/>
     </defs>
     <use xlink:href="#DejaVuSans-Oblique-3c7" transform="translate(0 0.765625)"/>
     <use xlink:href="#DejaVuSans-32" transform="translate(63.652396 39.046875) scale(0.7)"/>
     <use xlink:href="#DejaVuSans-20" transform="translate(110.922904 0.765625)"/>
     <use xlink:href="#DejaVuSans-70" transform="translate(142.710013 0.765625)"/>
     <use xlink:href="#DejaVuSans-72" transform="translate(206.186576 0.765625)"/>
     <use xlink:href="#DejaVuSans-6f" transform="translate(247.299857 0.765625)"/>
     <use xlink:href="#DejaVuSans-62" transform="translate(308.481497 0.765625)"/>
     <use xlink:href="#DejaVuSans-61" transform="translate(371.95806 0.765625)"/>
     <use xlink:href="#DejaVuSans-62" transform="translate(433.237357 0.765625)"/>
     <use xlink:href="#DejaVuSans-69" transform="translate(496.713919 0.765625)"/>
     <use xlink:href="#DejaVuSans-6c" transform="translate(524.497122 0.765625)"/>
     <use xlink:href="#DejaVuSans-69" transform="translate(552.280326 0.765625)"/>
     <use xlink:href="#DejaVuSans-74" transform="translate(580.063529 0.765625)"/>
     <use xlink:href="#DejaVuSans-79" transform="translate(619.272513 0.765625)"/>
     <use xlink:href="#DejaVuSans-20" transform="translate(678.452201 0.765625)"/>
     <use xlink:href="#DejaVuSans-64" transform="translate(710.23931 0.765625)"/>
     <use xlink:href="#DejaVuSans-65" transform="translate(773.715872 0.765625)"/>
     <use xlink:href="#DejaVuSans-6e" transform="translate(835.23931 0.765625)"/>
     <use xlink:href="#DejaVuSans-73" transform="translate(898.618216 0.765625)"/>
     <use xlink:href="#DejaVuSans-69" transform="translate(950.717826 0.765625)"/>
     <use xlink:href="#DejaVuSans-74" transform="translate(978.501029 0.765625)"/>
     <use xlink:href="#DejaVuSans-79" transform="translate(1017.710013 0.765625)"/>
    </g>
   </g>
   <g id="legend_1">
    <g id="line2d_34">
     <path d="M 692.941719 39.438281 
L 703.941719 39.438281 
L 714.941719 39.438281 
" style="fill: none; stroke: #e64173; stroke-width: 2.2; stroke-linecap: square"/>
    </g>
    <g id="text_18">
     <!-- df = 1 -->
     <g transform="translate(723.741719 43.288281) scale(0.11 -0.11)">
      <defs>
       <path id="DejaVuSans-66" d="M 2375 4863 
L 2375 4384 
L 1825 4384 
Q 1516 4384 1395 4259 
Q 1275 4134 1275 3809 
L 1275 3500 
L 2222 3500 
L 2222 3053 
L 1275 3053 
L 1275 0 
L 697 0 
L 697 3053 
L 147 3053 
L 147 3500 
L 697 3500 
L 697 3744 
Q 697 4328 969 4595 
Q 1241 4863 1831 4863 
L 2375 4863 
z
" transform="scale(0.015625)"/>
       <path id="DejaVuSans-3d" d="M 678 2906 
L 4684 2906 
L 4684 2381 
L 678 2381 
L 678 2906 
z
M 678 1631 
L 4684 1631 
L 4684 1100 
L 678 1100 
L 678 1631 
z
" transform="scale(0.015625)"/>
      </defs>
      <use xlink:href="#DejaVuSans-64"/>
      <use xlink:href="#DejaVuSans-66" transform="translate(63.476562 0)"/>
      <use xlink:href="#DejaVuSans-20" transform="translate(98.681641 0)"/>
      <use xlink:href="#DejaVuSans-3d" transform="translate(130.46875 0)"/>
      <use xlink:href="#DejaVuSans-20" transform="translate(214.257812 0)"/>
      <use xlink:href="#DejaVuSans-31" transform="translate(246.044922 0)"/>
     </g>
    </g>
    <g id="line2d_35">
     <path d="M 692.941719 55.584219 
L 703.941719 55.584219 
L 714.941719 55.584219 
" style="fill: none; stroke: #181485; stroke-width: 2.2; stroke-linecap: square"/>
    </g>
    <g id="text_19">
     <!-- df = 2 -->
     <g transform="translate(723.741719 59.434219) scale(0.11 -0.11)">
      <use xlink:href="#DejaVuSans-64"/>
      <use xlink:href="#DejaVuSans-66" transform="translate(63.476562 0)"/>
      <use xlink:href="#DejaVuSans-20" transform="translate(98.681641 0)"/>
      <use xlink:href="#DejaVuSans-3d" transform="translate(130.46875 0)"/>
      <use xlink:href="#DejaVuSans-20" transform="translate(214.257812 0)"/>
      <use xlink:href="#DejaVuSans-32" transform="translate(246.044922 0)"/>
     </g>
    </g>
    <g id="line2d_36">
     <path d="M 692.941719 71.730156 
L 703.941719 71.730156 
L 714.941719 71.730156 
" style="fill: none; stroke: #314f4f; stroke-width: 2.2; stroke-linecap: square"/>
    </g>
    <g id="text_20">
     <!-- df = 3 -->
     <g transform="translate(723.741719 75.580156) scale(0.11 -0.11)">
      <use xlink:href="#DejaVuSans-64"/>
      <use xlink:href="#DejaVuSans-66" transform="translate(63.476562 0)"/>
      <use xlink:href="#DejaVuSans-20" transform="translate(98.681641 0)"/>
      <use xlink:href="#DejaVuSans-3d" transform="translate(130.46875 0)"/>
      <use xlink:href="#DejaVuSans-20" transform="translate(214.257812 0)"/>
      <use xlink:href="#DejaVuSans-33" transform="translate(246.044922 0)"/>
     </g>
    </g>
    <g id="line2d_37">
     <path d="M 692.941719 87.876094 
L 703.941719 87.876094 
L 714.941719 87.876094 
" style="fill: none; stroke: #8bb174; stroke-width: 2.2; stroke-linecap: square"/>
    </g>
    <g id="text_21">
     <!-- df = 5 -->
     <g transform="translate(723.741719 91.726094) scale(0.11 -0.11)">
      <use xlink:href="#DejaVuSans-64"/>
      <use xlink:href="#DejaVuSans-66" transform="translate(63.476562 0)"/>
      <use xlink:href="#DejaVuSans-20" transform="translate(98.681641 0)"/>
      <use xlink:href="#DejaVuSans-3d" transform="translate(130.46875 0)"/>
      <use xlink:href="#DejaVuSans-20" transform="translate(214.257812 0)"/>
      <use xlink:href="#DejaVuSans-35" transform="translate(246.044922 0)"/>
     </g>
    </g>
    <g id="line2d_38">
     <path d="M 692.941719 104.022031 
L 703.941719 104.022031 
L 714.941719 104.022031 
" style="fill: none; stroke: #ffa500; stroke-width: 2.2; stroke-linecap: square"/>
    </g>
    <g id="text_22">
     <!-- df = 10 -->
     <g transform="translate(723.741719 107.872031) scale(0.11 -0.11)">
      <use xlink:href="#DejaVuSans-64"/>
      <use xlink:href="#DejaVuSans-66" transform="translate(63.476562 0)"/>
      <use xlink:href="#DejaVuSans-20" transform="translate(98.681641 0)"/>
      <use xlink:href="#DejaVuSans-3d" transform="translate(130.46875 0)"/>
      <use xlink:href="#DejaVuSans-20" transform="translate(214.257812 0)"/>
      <use xlink:href="#DejaVuSans-31" transform="translate(246.044922 0)"/>
      <use xlink:href="#DejaVuSans-30" transform="translate(309.667969 0)"/>
     </g>
    </g>
   </g>
  </g>
 </g>
 <defs>
  <clipPath id="p4c41365ced">
   <rect x="46.339375" y="25.03" width="728.365" height="254.365"/>
  </clipPath>
 </defs>
</svg>
