<?xml version="1.0" encoding="utf-8" standalone="no"?>
<!DOCTYPE svg PUBLIC "-//W3C//DTD SVG 1.1//EN"
  "http://www.w3.org/Graphics/SVG/1.1/DTD/svg11.dtd">
<svg xmlns:xlink="http://www.w3.org/1999/xlink" width="610.916875pt" height="339.01pt" viewBox="0 0 610.916875 339.01" xmlns="http://www.w3.org/2000/svg" version="1.1">
 <metadata>
  <rdf:RDF xmlns:dc="http://purl.org/dc/elements/1.1/" xmlns:cc="http://creativecommons.org/ns#" xmlns:rdf="http://www.w3.org/1999/02/22-rdf-syntax-ns#">
   <cc:Work>
    <dc:type rdf:resource="http://purl.org/dc/dcmitype/StillImage"/>
    <dc:date>2024-10-14T14:05:24.031749</dc:date>
    <dc:format>image/svg+xml</dc:format>
    <dc:creator>
     <cc:Agent>
      <dc:title>Matplotlib v3.7.2, https://matplotlib.org/</dc:title>
     </cc:Agent>
    </dc:creator>
   </cc:Work>
  </rdf:RDF>
 </metadata>
 <defs>
  <style type="text/css">*{stroke-linejoin: round; stroke-linecap: butt}</style>
 </defs>
 <g id="figure_1">
  <g id="patch_1">
   <path d="M 0 339.01 
L 610.916875 339.01 
L 610.916875 0 
L 0 0 
z
" style="fill: #ffffff"/>
  </g>
  <g id="axes_1">
   <g id="patch_2">
    <path d="M 45.716875 299.518125 
L 603.716875 299.518125 
L 603.716875 22.318125 
L 45.716875 22.318125 
z
" style="fill: #ffffff"/>
   </g>
   <g id="patch_3">
    <path d="M 102.385771 299.518125 
L 111.279016 299.518125 
L 111.279016 298.73706 
L 102.385771 298.73706 
z
" clip-path="url(#p49921f4be9)" style="fill: #1f77b4; opacity: 0.4"/>
   </g>
   <g id="patch_4">
    <path d="M 111.279016 299.518125 
L 120.17226 299.518125 
L 120.17226 299.518125 
L 111.279016 299.518125 
z
" clip-path="url(#p49921f4be9)" style="fill: #1f77b4; opacity: 0.4"/>
   </g>
   <g id="patch_5">
    <path d="M 120.17226 299.518125 
L 129.065504 299.518125 
L 129.065504 299.518125 
L 120.17226 299.518125 
z
" clip-path="url(#p49921f4be9)" style="fill: #1f77b4; opacity: 0.4"/>
   </g>
   <g id="patch_6">
    <path d="M 129.065504 299.518125 
L 137.958748 299.518125 
L 137.958748 298.73706 
L 129.065504 298.73706 
z
" clip-path="url(#p49921f4be9)" style="fill: #1f77b4; opacity: 0.4"/>
   </g>
   <g id="patch_7">
    <path d="M 137.958748 299.518125 
L 146.851992 299.518125 
L 146.851992 299.518125 
L 137.958748 299.518125 
z
" clip-path="url(#p49921f4be9)" style="fill: #1f77b4; opacity: 0.4"/>
   </g>
   <g id="patch_8">
    <path d="M 146.851992 299.518125 
L 155.745236 299.518125 
L 155.745236 297.955995 
L 146.851992 297.955995 
z
" clip-path="url(#p49921f4be9)" style="fill: #1f77b4; opacity: 0.4"/>
   </g>
   <g id="patch_9">
    <path d="M 155.745236 299.518125 
L 164.63848 299.518125 
L 164.63848 298.73706 
L 155.745236 298.73706 
z
" clip-path="url(#p49921f4be9)" style="fill: #1f77b4; opacity: 0.4"/>
   </g>
   <g id="patch_10">
    <path d="M 164.63848 299.518125 
L 173.531725 299.518125 
L 173.531725 299.518125 
L 164.63848 299.518125 
z
" clip-path="url(#p49921f4be9)" style="fill: #1f77b4; opacity: 0.4"/>
   </g>
   <g id="patch_11">
    <path d="M 173.531725 299.518125 
L 182.424969 299.518125 
L 182.424969 295.6128 
L 173.531725 295.6128 
z
" clip-path="url(#p49921f4be9)" style="fill: #1f77b4; opacity: 0.4"/>
   </g>
   <g id="patch_12">
    <path d="M 182.424969 299.518125 
L 191.318213 299.518125 
L 191.318213 290.145344 
L 182.424969 290.145344 
z
" clip-path="url(#p49921f4be9)" style="fill: #1f77b4; opacity: 0.4"/>
   </g>
   <g id="patch_13">
    <path d="M 191.318213 299.518125 
L 200.211457 299.518125 
L 200.211457 287.802149 
L 191.318213 287.802149 
z
" clip-path="url(#p49921f4be9)" style="fill: #1f77b4; opacity: 0.4"/>
   </g>
   <g id="patch_14">
    <path d="M 200.211457 299.518125 
L 209.104701 299.518125 
L 209.104701 288.583214 
L 200.211457 288.583214 
z
" clip-path="url(#p49921f4be9)" style="fill: #1f77b4; opacity: 0.4"/>
   </g>
   <g id="patch_15">
    <path d="M 209.104701 299.518125 
L 217.997945 299.518125 
L 217.997945 283.896823 
L 209.104701 283.896823 
z
" clip-path="url(#p49921f4be9)" style="fill: #1f77b4; opacity: 0.4"/>
   </g>
   <g id="patch_16">
    <path d="M 217.997945 299.518125 
L 226.891189 299.518125 
L 226.891189 266.713391 
L 217.997945 266.713391 
z
" clip-path="url(#p49921f4be9)" style="fill: #1f77b4; opacity: 0.4"/>
   </g>
   <g id="patch_17">
    <path d="M 226.891189 299.518125 
L 235.784434 299.518125 
L 235.784434 247.186764 
L 226.891189 247.186764 
z
" clip-path="url(#p49921f4be9)" style="fill: #1f77b4; opacity: 0.4"/>
   </g>
   <g id="patch_18">
    <path d="M 235.784434 299.518125 
L 244.677678 299.518125 
L 244.677678 248.748894 
L 235.784434 248.748894 
z
" clip-path="url(#p49921f4be9)" style="fill: #1f77b4; opacity: 0.4"/>
   </g>
   <g id="patch_19">
    <path d="M 244.677678 299.518125 
L 253.570922 299.518125 
L 253.570922 226.879072 
L 244.677678 226.879072 
z
" clip-path="url(#p49921f4be9)" style="fill: #1f77b4; opacity: 0.4"/>
   </g>
   <g id="patch_20">
    <path d="M 253.570922 299.518125 
L 262.464166 299.518125 
L 262.464166 206.571379 
L 253.570922 206.571379 
z
" clip-path="url(#p49921f4be9)" style="fill: #1f77b4; opacity: 0.4"/>
   </g>
   <g id="patch_21">
    <path d="M 262.464166 299.518125 
L 271.35741 299.518125 
L 271.35741 188.606882 
L 262.464166 188.606882 
z
" clip-path="url(#p49921f4be9)" style="fill: #1f77b4; opacity: 0.4"/>
   </g>
   <g id="patch_22">
    <path d="M 271.35741 299.518125 
L 280.250654 299.518125 
L 280.250654 160.488539 
L 271.35741 160.488539 
z
" clip-path="url(#p49921f4be9)" style="fill: #1f77b4; opacity: 0.4"/>
   </g>
   <g id="patch_23">
    <path d="M 280.250654 299.518125 
L 289.143898 299.518125 
L 289.143898 147.210433 
L 280.250654 147.210433 
z
" clip-path="url(#p49921f4be9)" style="fill: #1f77b4; opacity: 0.4"/>
   </g>
   <g id="patch_24">
    <path d="M 289.143898 299.518125 
L 298.037143 299.518125 
L 298.037143 123.77848 
L 289.143898 123.77848 
z
" clip-path="url(#p49921f4be9)" style="fill: #1f77b4; opacity: 0.4"/>
   </g>
   <g id="patch_25">
    <path d="M 298.037143 299.518125 
L 306.930387 299.518125 
L 306.930387 86.287356 
L 298.037143 86.287356 
z
" clip-path="url(#p49921f4be9)" style="fill: #1f77b4; opacity: 0.4"/>
   </g>
   <g id="patch_26">
    <path d="M 306.930387 299.518125 
L 315.823631 299.518125 
L 315.823631 84.725226 
L 306.930387 84.725226 
z
" clip-path="url(#p49921f4be9)" style="fill: #1f77b4; opacity: 0.4"/>
   </g>
   <g id="patch_27">
    <path d="M 315.823631 299.518125 
L 324.716875 299.518125 
L 324.716875 62.855403 
L 315.823631 62.855403 
z
" clip-path="url(#p49921f4be9)" style="fill: #1f77b4; opacity: 0.4"/>
   </g>
   <g id="patch_28">
    <path d="M 324.716875 299.518125 
L 333.610119 299.518125 
L 333.610119 35.518125 
L 324.716875 35.518125 
z
" clip-path="url(#p49921f4be9)" style="fill: #1f77b4; opacity: 0.4"/>
   </g>
   <g id="patch_29">
    <path d="M 333.610119 299.518125 
L 342.503363 299.518125 
L 342.503363 44.890906 
L 333.610119 44.890906 
z
" clip-path="url(#p49921f4be9)" style="fill: #1f77b4; opacity: 0.4"/>
   </g>
   <g id="patch_30">
    <path d="M 342.503363 299.518125 
L 351.396607 299.518125 
L 351.396607 79.25777 
L 342.503363 79.25777 
z
" clip-path="url(#p49921f4be9)" style="fill: #1f77b4; opacity: 0.4"/>
   </g>
   <g id="patch_31">
    <path d="M 351.396607 299.518125 
L 360.289852 299.518125 
L 360.289852 81.600965 
L 351.396607 81.600965 
z
" clip-path="url(#p49921f4be9)" style="fill: #1f77b4; opacity: 0.4"/>
   </g>
   <g id="patch_32">
    <path d="M 360.289852 299.518125 
L 369.183096 299.518125 
L 369.183096 95.660137 
L 360.289852 95.660137 
z
" clip-path="url(#p49921f4be9)" style="fill: #1f77b4; opacity: 0.4"/>
   </g>
   <g id="patch_33">
    <path d="M 369.183096 299.518125 
L 378.07634 299.518125 
L 378.07634 111.281439 
L 369.183096 111.281439 
z
" clip-path="url(#p49921f4be9)" style="fill: #1f77b4; opacity: 0.4"/>
   </g>
   <g id="patch_34">
    <path d="M 378.07634 299.518125 
L 386.969584 299.518125 
L 386.969584 133.932326 
L 378.07634 133.932326 
z
" clip-path="url(#p49921f4be9)" style="fill: #1f77b4; opacity: 0.4"/>
   </g>
   <g id="patch_35">
    <path d="M 386.969584 299.518125 
L 395.862828 299.518125 
L 395.862828 129.245936 
L 386.969584 129.245936 
z
" clip-path="url(#p49921f4be9)" style="fill: #1f77b4; opacity: 0.4"/>
   </g>
   <g id="patch_36">
    <path d="M 395.862828 299.518125 
L 404.756072 299.518125 
L 404.756072 167.518125 
L 395.862828 167.518125 
z
" clip-path="url(#p49921f4be9)" style="fill: #1f77b4; opacity: 0.4"/>
   </g>
   <g id="patch_37">
    <path d="M 404.756072 299.518125 
L 413.649316 299.518125 
L 413.649316 197.198598 
L 404.756072 197.198598 
z
" clip-path="url(#p49921f4be9)" style="fill: #1f77b4; opacity: 0.4"/>
   </g>
   <g id="patch_38">
    <path d="M 413.649316 299.518125 
L 422.542561 299.518125 
L 422.542561 203.447119 
L 413.649316 203.447119 
z
" clip-path="url(#p49921f4be9)" style="fill: #1f77b4; opacity: 0.4"/>
   </g>
   <g id="patch_39">
    <path d="M 422.542561 299.518125 
L 431.435805 299.518125 
L 431.435805 220.630551 
L 422.542561 220.630551 
z
" clip-path="url(#p49921f4be9)" style="fill: #1f77b4; opacity: 0.4"/>
   </g>
   <g id="patch_40">
    <path d="M 431.435805 299.518125 
L 440.329049 299.518125 
L 440.329049 231.565462 
L 431.435805 231.565462 
z
" clip-path="url(#p49921f4be9)" style="fill: #1f77b4; opacity: 0.4"/>
   </g>
   <g id="patch_41">
    <path d="M 440.329049 299.518125 
L 449.222293 299.518125 
L 449.222293 258.121675 
L 440.329049 258.121675 
z
" clip-path="url(#p49921f4be9)" style="fill: #1f77b4; opacity: 0.4"/>
   </g>
   <g id="patch_42">
    <path d="M 449.222293 299.518125 
L 458.115537 299.518125 
L 458.115537 277.648303 
L 449.222293 277.648303 
z
" clip-path="url(#p49921f4be9)" style="fill: #1f77b4; opacity: 0.4"/>
   </g>
   <g id="patch_43">
    <path d="M 458.115537 299.518125 
L 467.008781 299.518125 
L 467.008781 276.867237 
L 458.115537 276.867237 
z
" clip-path="url(#p49921f4be9)" style="fill: #1f77b4; opacity: 0.4"/>
   </g>
   <g id="patch_44">
    <path d="M 467.008781 299.518125 
L 475.902025 299.518125 
L 475.902025 283.896823 
L 467.008781 283.896823 
z
" clip-path="url(#p49921f4be9)" style="fill: #1f77b4; opacity: 0.4"/>
   </g>
   <g id="patch_45">
    <path d="M 475.902025 299.518125 
L 484.79527 299.518125 
L 484.79527 283.115758 
L 475.902025 283.115758 
z
" clip-path="url(#p49921f4be9)" style="fill: #1f77b4; opacity: 0.4"/>
   </g>
   <g id="patch_46">
    <path d="M 484.79527 299.518125 
L 493.688514 299.518125 
L 493.688514 290.926409 
L 484.79527 290.926409 
z
" clip-path="url(#p49921f4be9)" style="fill: #1f77b4; opacity: 0.4"/>
   </g>
   <g id="patch_47">
    <path d="M 493.688514 299.518125 
L 502.581758 299.518125 
L 502.581758 289.364279 
L 493.688514 289.364279 
z
" clip-path="url(#p49921f4be9)" style="fill: #1f77b4; opacity: 0.4"/>
   </g>
   <g id="patch_48">
    <path d="M 502.581758 299.518125 
L 511.475002 299.518125 
L 511.475002 295.6128 
L 502.581758 295.6128 
z
" clip-path="url(#p49921f4be9)" style="fill: #1f77b4; opacity: 0.4"/>
   </g>
   <g id="patch_49">
    <path d="M 511.475002 299.518125 
L 520.368246 299.518125 
L 520.368246 298.73706 
L 511.475002 298.73706 
z
" clip-path="url(#p49921f4be9)" style="fill: #1f77b4; opacity: 0.4"/>
   </g>
   <g id="patch_50">
    <path d="M 520.368246 299.518125 
L 529.26149 299.518125 
L 529.26149 299.518125 
L 520.368246 299.518125 
z
" clip-path="url(#p49921f4be9)" style="fill: #1f77b4; opacity: 0.4"/>
   </g>
   <g id="patch_51">
    <path d="M 529.26149 299.518125 
L 538.154734 299.518125 
L 538.154734 299.518125 
L 529.26149 299.518125 
z
" clip-path="url(#p49921f4be9)" style="fill: #1f77b4; opacity: 0.4"/>
   </g>
   <g id="patch_52">
    <path d="M 538.154734 299.518125 
L 547.047979 299.518125 
L 547.047979 297.17493 
L 538.154734 297.17493 
z
" clip-path="url(#p49921f4be9)" style="fill: #1f77b4; opacity: 0.4"/>
   </g>
   <g id="matplotlib.axis_1">
    <g id="xtick_1">
     <g id="line2d_1">
      <defs>
       <path id="m15bf7d2d96" d="M 0 0 
L 0 3.5 
" style="stroke: #000000; stroke-width: 0.8"/>
      </defs>
      <g>
       <use xlink:href="#m15bf7d2d96" x="107.009591" y="299.518125" style="stroke: #000000; stroke-width: 0.8"/>
      </g>
     </g>
     <g id="text_1">
      <!-- −4 -->
      <g transform="translate(99.638497 314.116563) scale(0.1 -0.1)">
       <defs>
        <path id="DejaVuSans-2212" d="M 678 2272 
L 4684 2272 
L 4684 1741 
L 678 1741 
L 678 2272 
z
" transform="scale(0.015625)"/>
        <path id="DejaVuSans-34" d="M 2419 4116 
L 825 1625 
L 2419 1625 
L 2419 4116 
z
M 2253 4666 
L 3047 4666 
L 3047 1625 
L 3713 1625 
L 3713 1100 
L 3047 1100 
L 3047 0 
L 2419 0 
L 2419 1100 
L 313 1100 
L 313 1709 
L 2253 4666 
z
" transform="scale(0.015625)"/>
       </defs>
       <use xlink:href="#DejaVuSans-2212"/>
       <use xlink:href="#DejaVuSans-34" x="83.789062"/>
      </g>
     </g>
    </g>
    <g id="xtick_2">
     <g id="line2d_2">
      <g>
       <use xlink:href="#m15bf7d2d96" x="223.255188" y="299.518125" style="stroke: #000000; stroke-width: 0.8"/>
      </g>
     </g>
     <g id="text_2">
      <!-- −2 -->
      <g transform="translate(215.884094 314.116563) scale(0.1 -0.1)">
       <defs>
        <path id="DejaVuSans-32" d="M 1228 531 
L 3431 531 
L 3431 0 
L 469 0 
L 469 531 
Q 828 903 1448 1529 
Q 2069 2156 2228 2338 
Q 2531 2678 2651 2914 
Q 2772 3150 2772 3378 
Q 2772 3750 2511 3984 
Q 2250 4219 1831 4219 
Q 1534 4219 1204 4116 
Q 875 4013 500 3803 
L 500 4441 
Q 881 4594 1212 4672 
Q 1544 4750 1819 4750 
Q 2544 4750 2975 4387 
Q 3406 4025 3406 3419 
Q 3406 3131 3298 2873 
Q 3191 2616 2906 2266 
Q 2828 2175 2409 1742 
Q 1991 1309 1228 531 
z
" transform="scale(0.015625)"/>
       </defs>
       <use xlink:href="#DejaVuSans-2212"/>
       <use xlink:href="#DejaVuSans-32" x="83.789062"/>
      </g>
     </g>
    </g>
    <g id="xtick_3">
     <g id="line2d_3">
      <g>
       <use xlink:href="#m15bf7d2d96" x="339.500785" y="299.518125" style="stroke: #000000; stroke-width: 0.8"/>
      </g>
     </g>
     <g id="text_3">
      <!-- 0 -->
      <g transform="translate(336.319535 314.116563) scale(0.1 -0.1)">
       <defs>
        <path id="DejaVuSans-30" d="M 2034 4250 
Q 1547 4250 1301 3770 
Q 1056 3291 1056 2328 
Q 1056 1369 1301 889 
Q 1547 409 2034 409 
Q 2525 409 2770 889 
Q 3016 1369 3016 2328 
Q 3016 3291 2770 3770 
Q 2525 4250 2034 4250 
z
M 2034 4750 
Q 2819 4750 3233 4129 
Q 3647 3509 3647 2328 
Q 3647 1150 3233 529 
Q 2819 -91 2034 -91 
Q 1250 -91 836 529 
Q 422 1150 422 2328 
Q 422 3509 836 4129 
Q 1250 4750 2034 4750 
z
" transform="scale(0.015625)"/>
       </defs>
       <use xlink:href="#DejaVuSans-30"/>
      </g>
     </g>
    </g>
    <g id="xtick_4">
     <g id="line2d_4">
      <g>
       <use xlink:href="#m15bf7d2d96" x="455.746382" y="299.518125" style="stroke: #000000; stroke-width: 0.8"/>
      </g>
     </g>
     <g id="text_4">
      <!-- 2 -->
      <g transform="translate(452.565132 314.116563) scale(0.1 -0.1)">
       <use xlink:href="#DejaVuSans-32"/>
      </g>
     </g>
    </g>
    <g id="xtick_5">
     <g id="line2d_5">
      <g>
       <use xlink:href="#m15bf7d2d96" x="571.991979" y="299.518125" style="stroke: #000000; stroke-width: 0.8"/>
      </g>
     </g>
     <g id="text_5">
      <!-- 4 -->
      <g transform="translate(568.810729 314.116563) scale(0.1 -0.1)">
       <use xlink:href="#DejaVuSans-34"/>
      </g>
     </g>
    </g>
    <g id="text_6">
     <!-- X -->
     <g transform="translate(320.606875 329.314375) scale(0.12 -0.12)">
      <defs>
       <path id="DejaVuSans-58" d="M 403 4666 
L 1081 4666 
L 2241 2931 
L 3406 4666 
L 4084 4666 
L 2584 2425 
L 4184 0 
L 3506 0 
L 2194 1984 
L 872 0 
L 191 0 
L 1856 2491 
L 403 4666 
z
" transform="scale(0.015625)"/>
      </defs>
      <use xlink:href="#DejaVuSans-58"/>
     </g>
    </g>
   </g>
   <g id="matplotlib.axis_2">
    <g id="ytick_1">
     <g id="line2d_6">
      <defs>
       <path id="m2dd09ec30d" d="M 0 0 
L -3.5 0 
" style="stroke: #000000; stroke-width: 0.8"/>
      </defs>
      <g>
       <use xlink:href="#m2dd09ec30d" x="45.716875" y="299.518125" style="stroke: #000000; stroke-width: 0.8"/>
      </g>
     </g>
     <g id="text_7">
      <!-- 0.0 -->
      <g transform="translate(22.81375 303.317344) scale(0.1 -0.1)">
       <defs>
        <path id="DejaVuSans-2e" d="M 684 794 
L 1344 794 
L 1344 0 
L 684 0 
L 684 794 
z
" transform="scale(0.015625)"/>
       </defs>
       <use xlink:href="#DejaVuSans-30"/>
       <use xlink:href="#DejaVuSans-2e" x="63.623047"/>
       <use xlink:href="#DejaVuSans-30" x="95.410156"/>
      </g>
     </g>
    </g>
    <g id="ytick_2">
     <g id="line2d_7">
      <g>
       <use xlink:href="#m2dd09ec30d" x="45.716875" y="239.763582" style="stroke: #000000; stroke-width: 0.8"/>
      </g>
     </g>
     <g id="text_8">
      <!-- 0.1 -->
      <g transform="translate(22.81375 243.562801) scale(0.1 -0.1)">
       <defs>
        <path id="DejaVuSans-31" d="M 794 531 
L 1825 531 
L 1825 4091 
L 703 3866 
L 703 4441 
L 1819 4666 
L 2450 4666 
L 2450 531 
L 3481 531 
L 3481 0 
L 794 0 
L 794 531 
z
" transform="scale(0.015625)"/>
       </defs>
       <use xlink:href="#DejaVuSans-30"/>
       <use xlink:href="#DejaVuSans-2e" x="63.623047"/>
       <use xlink:href="#DejaVuSans-31" x="95.410156"/>
      </g>
     </g>
    </g>
    <g id="ytick_3">
     <g id="line2d_8">
      <g>
       <use xlink:href="#m2dd09ec30d" x="45.716875" y="180.009039" style="stroke: #000000; stroke-width: 0.8"/>
      </g>
     </g>
     <g id="text_9">
      <!-- 0.2 -->
      <g transform="translate(22.81375 183.808258) scale(0.1 -0.1)">
       <use xlink:href="#DejaVuSans-30"/>
       <use xlink:href="#DejaVuSans-2e" x="63.623047"/>
       <use xlink:href="#DejaVuSans-32" x="95.410156"/>
      </g>
     </g>
    </g>
    <g id="ytick_4">
     <g id="line2d_9">
      <g>
       <use xlink:href="#m2dd09ec30d" x="45.716875" y="120.254496" style="stroke: #000000; stroke-width: 0.8"/>
      </g>
     </g>
     <g id="text_10">
      <!-- 0.3 -->
      <g transform="translate(22.81375 124.053715) scale(0.1 -0.1)">
       <defs>
        <path id="DejaVuSans-33" d="M 2597 2516 
Q 3050 2419 3304 2112 
Q 3559 1806 3559 1356 
Q 3559 666 3084 287 
Q 2609 -91 1734 -91 
Q 1441 -91 1130 -33 
Q 819 25 488 141 
L 488 750 
Q 750 597 1062 519 
Q 1375 441 1716 441 
Q 2309 441 2620 675 
Q 2931 909 2931 1356 
Q 2931 1769 2642 2001 
Q 2353 2234 1838 2234 
L 1294 2234 
L 1294 2753 
L 1863 2753 
Q 2328 2753 2575 2939 
Q 2822 3125 2822 3475 
Q 2822 3834 2567 4026 
Q 2313 4219 1838 4219 
Q 1578 4219 1281 4162 
Q 984 4106 628 3988 
L 628 4550 
Q 988 4650 1302 4700 
Q 1616 4750 1894 4750 
Q 2613 4750 3031 4423 
Q 3450 4097 3450 3541 
Q 3450 3153 3228 2886 
Q 3006 2619 2597 2516 
z
" transform="scale(0.015625)"/>
       </defs>
       <use xlink:href="#DejaVuSans-30"/>
       <use xlink:href="#DejaVuSans-2e" x="63.623047"/>
       <use xlink:href="#DejaVuSans-33" x="95.410156"/>
      </g>
     </g>
    </g>
    <g id="ytick_5">
     <g id="line2d_10">
      <g>
       <use xlink:href="#m2dd09ec30d" x="45.716875" y="60.499953" style="stroke: #000000; stroke-width: 0.8"/>
      </g>
     </g>
     <g id="text_11">
      <!-- 0.4 -->
      <g transform="translate(22.81375 64.299172) scale(0.1 -0.1)">
       <use xlink:href="#DejaVuSans-30"/>
       <use xlink:href="#DejaVuSans-2e" x="63.623047"/>
       <use xlink:href="#DejaVuSans-34" x="95.410156"/>
      </g>
     </g>
    </g>
    <g id="text_12">
     <!-- Щільність -->
     <g transform="translate(16.318125 192.43875) rotate(-90) scale(0.12 -0.12)">
      <defs>
       <path id="DejaVuSans-429" d="M 6216 0 
L 628 0 
L 628 4666 
L 1259 4666 
L 1259 531 
L 3106 531 
L 3106 4666 
L 3738 4666 
L 3738 531 
L 5584 531 
L 5584 4666 
L 6216 4666 
L 6216 531 
L 6747 531 
L 6747 -1003 
L 6216 -1003 
L 6216 0 
z
" transform="scale(0.015625)"/>
       <path id="DejaVuSans-456" d="M 603 3500 
L 1178 3500 
L 1178 0 
L 603 0 
L 603 3500 
z
M 603 4863 
L 1178 4863 
L 1178 4134 
L 603 4134 
L 603 4863 
z
" transform="scale(0.015625)"/>
       <path id="DejaVuSans-43b" d="M 238 0 
L 238 478 
Q 806 566 981 959 
Q 1194 1513 1194 2928 
L 1194 3500 
L 3559 3500 
L 3559 0 
L 2984 0 
L 2984 3041 
L 1769 3041 
L 1769 2694 
Q 1769 1344 1494 738 
Q 1200 91 238 0 
z
" transform="scale(0.015625)"/>
       <path id="DejaVuSans-44c" d="M 2781 1038 
Q 2781 1319 2576 1466 
Q 2372 1613 1978 1613 
L 1159 1613 
L 1159 459 
L 1978 459 
Q 2372 459 2576 607 
Q 2781 756 2781 1038 
z
M 581 3500 
L 1159 3500 
L 1159 2072 
L 2003 2072 
Q 2672 2072 3033 1817 
Q 3394 1563 3394 1038 
Q 3394 513 3033 256 
Q 2672 0 2003 0 
L 581 0 
L 581 3500 
z
" transform="scale(0.015625)"/>
       <path id="DejaVuSans-43d" d="M 581 3500 
L 1159 3500 
L 1159 2072 
L 3025 2072 
L 3025 3500 
L 3603 3500 
L 3603 0 
L 3025 0 
L 3025 1613 
L 1159 1613 
L 1159 0 
L 581 0 
L 581 3500 
z
" transform="scale(0.015625)"/>
       <path id="DejaVuSans-441" d="M 3122 3366 
L 3122 2828 
Q 2878 2963 2633 3030 
Q 2388 3097 2138 3097 
Q 1578 3097 1268 2742 
Q 959 2388 959 1747 
Q 959 1106 1268 751 
Q 1578 397 2138 397 
Q 2388 397 2633 464 
Q 2878 531 3122 666 
L 3122 134 
Q 2881 22 2623 -34 
Q 2366 -91 2075 -91 
Q 1284 -91 818 406 
Q 353 903 353 1747 
Q 353 2603 823 3093 
Q 1294 3584 2113 3584 
Q 2378 3584 2631 3529 
Q 2884 3475 3122 3366 
z
" transform="scale(0.015625)"/>
       <path id="DejaVuSans-442" d="M 188 3500 
L 3541 3500 
L 3541 3041 
L 2147 3041 
L 2147 0 
L 1581 0 
L 1581 3041 
L 188 3041 
L 188 3500 
z
" transform="scale(0.015625)"/>
      </defs>
      <use xlink:href="#DejaVuSans-429"/>
      <use xlink:href="#DejaVuSans-456" x="109.375"/>
      <use xlink:href="#DejaVuSans-43b" x="137.158203"/>
      <use xlink:href="#DejaVuSans-44c" x="201.074219"/>
      <use xlink:href="#DejaVuSans-43d" x="260.009766"/>
      <use xlink:href="#DejaVuSans-456" x="325.390625"/>
      <use xlink:href="#DejaVuSans-441" x="353.173828"/>
      <use xlink:href="#DejaVuSans-442" x="408.154297"/>
      <use xlink:href="#DejaVuSans-44c" x="466.40625"/>
     </g>
    </g>
   </g>
   <g id="line2d_11">
    <path d="M 71.080511 299.515175 
L 88.924276 299.402532 
L 104.218931 299.250634 
L 124.611804 299.283752 
L 142.455568 298.929229 
L 162.848442 298.254844 
L 165.397551 298.015404 
L 167.94666 297.653934 
L 170.495769 297.150342 
L 173.044879 296.499499 
L 178.143097 294.818864 
L 188.339534 290.993748 
L 193.437752 289.370353 
L 198.53597 287.818534 
L 201.08508 286.90429 
L 203.634189 285.779004 
L 206.183298 284.354468 
L 208.732407 282.559354 
L 211.281516 280.350977 
L 213.830626 277.723059 
L 216.379735 274.707974 
L 218.928844 271.372761 
L 224.027062 264.118412 
L 231.67439 253.078254 
L 239.321717 242.273438 
L 241.870827 238.457084 
L 244.419936 234.402288 
L 246.969045 230.053128 
L 249.518154 225.378445 
L 252.067263 220.371285 
L 254.616372 215.045538 
L 259.714591 203.574419 
L 264.812809 191.350243 
L 275.009246 166.523638 
L 290.303901 130.288646 
L 295.402119 117.38324 
L 305.598556 91.025447 
L 308.147665 84.860718 
L 310.696774 79.037306 
L 313.245884 73.604712 
L 315.794993 68.60002 
L 318.344102 64.065558 
L 320.893211 60.066004 
L 323.44232 56.697183 
L 325.99143 54.081876 
L 328.540539 52.352698 
L 331.089648 51.626299 
L 333.638757 51.975433 
L 336.187866 53.405677 
L 338.736976 55.842551 
L 341.286085 59.133053 
L 343.835194 63.063173 
L 348.933412 71.877507 
L 354.031631 80.664368 
L 359.129849 88.829071 
L 364.228067 96.791364 
L 369.326286 105.225466 
L 374.424504 114.317238 
L 389.719159 142.261157 
L 392.268268 147.332181 
L 394.817378 152.768988 
L 397.366487 158.581796 
L 402.464705 170.971635 
L 407.562923 183.290591 
L 410.112033 189.03432 
L 412.661142 194.395473 
L 415.210251 199.38222 
L 420.308469 208.545239 
L 427.955797 221.985776 
L 433.054015 231.708787 
L 443.250452 252.051384 
L 445.799561 256.695968 
L 448.34867 260.932991 
L 450.89778 264.692961 
L 453.446889 267.952902 
L 455.995998 270.737785 
L 458.545107 273.111646 
L 461.094216 275.160109 
L 463.643325 276.969343 
L 468.741544 280.118414 
L 473.839762 282.801751 
L 478.937981 285.021785 
L 484.036199 286.842404 
L 496.781745 291.085697 
L 506.978182 294.818867 
L 512.0764 296.415748 
L 517.174618 297.644939 
L 522.272837 298.452717 
L 527.371055 298.846733 
L 532.469273 298.913492 
L 545.214819 298.74791 
L 552.862147 298.975598 
L 565.607693 299.418514 
L 578.353239 299.513677 
L 578.353239 299.513677 
" clip-path="url(#p49921f4be9)" style="fill: none; stroke: #1f77b4; stroke-width: 1.5; stroke-linecap: square"/>
   </g>
   <g id="line2d_12">
    <path d="M 107.009591 299.438155 
L 127.023848 299.219336 
L 139.590939 298.874719 
L 149.365344 298.386919 
L 157.277957 297.76858 
L 163.794227 297.047286 
L 169.845049 296.151711 
L 174.964975 295.181527 
L 179.619453 294.095517 
L 184.273932 292.780882 
L 188.462962 291.372064 
L 192.651993 289.719681 
L 196.375575 288.021758 
L 200.099158 286.084857 
L 203.822741 283.885917 
L 207.546324 281.401533 
L 210.804458 278.975141 
L 214.062593 276.29686 
L 217.320728 273.351751 
L 220.578863 270.125624 
L 223.836998 266.605323 
L 227.095133 262.779026 
L 230.353267 258.636564 
L 233.611402 254.169747 
L 237.334985 248.660218 
L 241.058568 242.714928 
L 244.78215 236.334484 
L 248.505733 229.525211 
L 252.694764 221.3681 
L 256.883794 212.712419 
L 261.538273 202.558614 
L 266.658199 190.820503 
L 272.709021 176.341427 
L 281.55253 154.495426 
L 291.792382 129.31061 
L 297.377756 116.189773 
L 301.566786 106.860618 
L 305.290369 99.046339 
L 309.013952 91.769505 
L 312.272087 85.906308 
L 315.064774 81.29564 
L 317.857461 77.099526 
L 320.650148 73.345475 
L 322.977387 70.57285 
L 325.304626 68.137483 
L 327.631865 66.050807 
L 329.493657 64.639204 
L 331.355448 63.461397 
L 333.217239 62.520979 
L 335.079031 61.82083 
L 336.940822 61.363097 
L 338.802613 61.149186 
L 340.664405 61.179757 
L 342.526196 61.454714 
L 344.387987 61.973212 
L 346.249779 62.733658 
L 348.11157 63.733721 
L 349.973361 64.970342 
L 351.835153 66.43975 
L 354.162392 68.597005 
L 356.489631 71.100786 
L 358.81687 73.93936 
L 361.14411 77.099526 
L 363.936797 81.29564 
L 366.729484 85.906308 
L 369.987618 91.769505 
L 373.245753 98.105659 
L 376.969336 105.857277 
L 381.158367 115.128628 
L 385.812845 125.970994 
L 391.863667 140.64903 
L 411.877924 189.727634 
L 417.463298 202.558614 
L 422.117776 212.712419 
L 426.306807 221.3681 
L 430.495837 229.525211 
L 434.21942 236.334484 
L 437.943003 242.714928 
L 441.666585 248.660218 
L 445.390168 254.169747 
L 449.113751 259.248036 
L 452.371886 263.34478 
L 455.63002 267.126698 
L 458.888155 270.604216 
L 462.14629 273.789365 
L 465.404425 276.695466 
L 468.66256 279.336834 
L 472.386142 282.050673 
L 476.109725 284.461495 
L 479.833308 286.592739 
L 483.556891 288.467754 
L 487.280473 290.109465 
L 491.469504 291.705141 
L 495.658534 293.063809 
L 500.313013 294.329895 
L 504.967491 295.374283 
L 510.087417 296.305879 
L 515.672791 297.10646 
L 522.189061 297.812013 
L 529.636226 298.386919 
L 538.479735 298.83837 
L 549.650483 299.172516 
L 565.010262 299.389755 
L 571.991979 299.438155 
L 571.991979 299.438155 
" clip-path="url(#p49921f4be9)" style="fill: none; stroke: #ff7f0e; stroke-width: 1.5; stroke-linecap: square"/>
   </g>
   <g id="patch_53">
    <path d="M 45.716875 299.518125 
L 45.716875 22.318125 
" style="fill: none; stroke: #000000; stroke-width: 0.8; stroke-linejoin: miter; stroke-linecap: square"/>
   </g>
   <g id="patch_54">
    <path d="M 603.716875 299.518125 
L 603.716875 22.318125 
" style="fill: none; stroke: #000000; stroke-width: 0.8; stroke-linejoin: miter; stroke-linecap: square"/>
   </g>
   <g id="patch_55">
    <path d="M 45.716875 299.518125 
L 603.716875 299.518125 
" style="fill: none; stroke: #000000; stroke-width: 0.8; stroke-linejoin: miter; stroke-linecap: square"/>
   </g>
   <g id="patch_56">
    <path d="M 45.716875 22.318125 
L 603.716875 22.318125 
" style="fill: none; stroke: #000000; stroke-width: 0.8; stroke-linejoin: miter; stroke-linecap: square"/>
   </g>
   <g id="text_13">
    <!-- Розподіл середніх значень -->
    <g transform="translate(239.913438 16.318125) scale(0.12 -0.12)">
     <defs>
      <path id="DejaVuSans-420" d="M 1259 4147 
L 1259 2394 
L 2053 2394 
Q 2494 2394 2734 2622 
Q 2975 2850 2975 3272 
Q 2975 3691 2734 3919 
Q 2494 4147 2053 4147 
L 1259 4147 
z
M 628 4666 
L 2053 4666 
Q 2838 4666 3239 4311 
Q 3641 3956 3641 3272 
Q 3641 2581 3239 2228 
Q 2838 1875 2053 1875 
L 1259 1875 
L 1259 0 
L 628 0 
L 628 4666 
z
" transform="scale(0.015625)"/>
      <path id="DejaVuSans-43e" d="M 1959 3097 
Q 1497 3097 1228 2736 
Q 959 2375 959 1747 
Q 959 1119 1226 758 
Q 1494 397 1959 397 
Q 2419 397 2687 759 
Q 2956 1122 2956 1747 
Q 2956 2369 2687 2733 
Q 2419 3097 1959 3097 
z
M 1959 3584 
Q 2709 3584 3137 3096 
Q 3566 2609 3566 1747 
Q 3566 888 3137 398 
Q 2709 -91 1959 -91 
Q 1206 -91 779 398 
Q 353 888 353 1747 
Q 353 2609 779 3096 
Q 1206 3584 1959 3584 
z
" transform="scale(0.015625)"/>
      <path id="DejaVuSans-437" d="M 2206 1888 
Q 2594 1813 2809 1584 
Q 3025 1356 3025 1019 
Q 3025 478 2622 193 
Q 2219 -91 1475 -91 
Q 1225 -91 961 -47 
Q 697 -3 416 84 
L 416 619 
Q 638 503 903 445 
Q 1169 388 1459 388 
Q 1931 388 2195 563 
Q 2459 738 2459 1019 
Q 2459 1294 2225 1461 
Q 1991 1628 1563 1628 
L 1100 1628 
L 1100 2103 
L 1584 2103 
Q 1947 2103 2158 2242 
Q 2369 2381 2369 2600 
Q 2369 2800 2151 2944 
Q 1934 3088 1563 3088 
Q 1341 3088 1089 3047 
Q 838 3006 534 2916 
L 534 3438 
Q 841 3513 1106 3550 
Q 1372 3588 1609 3588 
Q 2222 3588 2576 3342 
Q 2931 3097 2931 2656 
Q 2931 2366 2743 2164 
Q 2556 1963 2206 1888 
z
" transform="scale(0.015625)"/>
      <path id="DejaVuSans-43f" d="M 3603 3500 
L 3603 0 
L 3025 0 
L 3025 3041 
L 1159 3041 
L 1159 0 
L 581 0 
L 581 3500 
L 3603 3500 
z
" transform="scale(0.015625)"/>
      <path id="DejaVuSans-434" d="M 1384 459 
L 3053 459 
L 3053 3041 
L 1844 3041 
L 1844 2603 
Q 1844 1316 1475 628 
L 1384 459 
z
M 550 459 
Q 834 584 959 850 
Q 1266 1509 1266 2838 
L 1266 3500 
L 3631 3500 
L 3631 459 
L 4091 459 
L 4091 -884 
L 3631 -884 
L 3631 0 
L 794 0 
L 794 -884 
L 334 -884 
L 334 459 
L 550 459 
z
" transform="scale(0.015625)"/>
      <path id="DejaVuSans-20" transform="scale(0.015625)"/>
      <path id="DejaVuSans-435" d="M 3597 1894 
L 3597 1613 
L 953 1613 
Q 991 1019 1311 708 
Q 1631 397 2203 397 
Q 2534 397 2845 478 
Q 3156 559 3463 722 
L 3463 178 
Q 3153 47 2828 -22 
Q 2503 -91 2169 -91 
Q 1331 -91 842 396 
Q 353 884 353 1716 
Q 353 2575 817 3079 
Q 1281 3584 2069 3584 
Q 2775 3584 3186 3129 
Q 3597 2675 3597 1894 
z
M 3022 2063 
Q 3016 2534 2758 2815 
Q 2500 3097 2075 3097 
Q 1594 3097 1305 2825 
Q 1016 2553 972 2059 
L 3022 2063 
z
" transform="scale(0.015625)"/>
      <path id="DejaVuSans-440" d="M 1159 525 
L 1159 -1331 
L 581 -1331 
L 581 3500 
L 1159 3500 
L 1159 2969 
Q 1341 3281 1617 3432 
Q 1894 3584 2278 3584 
Q 2916 3584 3314 3078 
Q 3713 2572 3713 1747 
Q 3713 922 3314 415 
Q 2916 -91 2278 -91 
Q 1894 -91 1617 61 
Q 1341 213 1159 525 
z
M 3116 1747 
Q 3116 2381 2855 2742 
Q 2594 3103 2138 3103 
Q 1681 3103 1420 2742 
Q 1159 2381 1159 1747 
Q 1159 1113 1420 752 
Q 1681 391 2138 391 
Q 2594 391 2855 752 
Q 3116 1113 3116 1747 
z
" transform="scale(0.015625)"/>
      <path id="DejaVuSans-445" d="M 3513 3500 
L 2247 1797 
L 3578 0 
L 2900 0 
L 1881 1375 
L 863 0 
L 184 0 
L 1544 1831 
L 300 3500 
L 978 3500 
L 1906 2253 
L 2834 3500 
L 3513 3500 
z
" transform="scale(0.015625)"/>
      <path id="DejaVuSans-430" d="M 2194 1759 
Q 1497 1759 1228 1600 
Q 959 1441 959 1056 
Q 959 750 1161 570 
Q 1363 391 1709 391 
Q 2188 391 2477 730 
Q 2766 1069 2766 1631 
L 2766 1759 
L 2194 1759 
z
M 3341 1997 
L 3341 0 
L 2766 0 
L 2766 531 
Q 2569 213 2275 61 
Q 1981 -91 1556 -91 
Q 1019 -91 701 211 
Q 384 513 384 1019 
Q 384 1609 779 1909 
Q 1175 2209 1959 2209 
L 2766 2209 
L 2766 2266 
Q 2766 2663 2505 2880 
Q 2244 3097 1772 3097 
Q 1472 3097 1187 3025 
Q 903 2953 641 2809 
L 641 3341 
Q 956 3463 1253 3523 
Q 1550 3584 1831 3584 
Q 2591 3584 2966 3190 
Q 3341 2797 3341 1997 
z
" transform="scale(0.015625)"/>
      <path id="DejaVuSans-447" d="M 2625 0 
L 2625 1472 
L 1553 1472 
Q 1075 1472 756 1769 
Q 469 2038 469 2613 
L 469 3500 
L 1044 3500 
L 1044 2666 
Q 1044 2300 1206 2116 
Q 1372 1931 1697 1931 
L 2625 1931 
L 2625 3500 
L 3200 3500 
L 3200 0 
L 2625 0 
z
" transform="scale(0.015625)"/>
     </defs>
     <use xlink:href="#DejaVuSans-420"/>
     <use xlink:href="#DejaVuSans-43e" x="60.302734"/>
     <use xlink:href="#DejaVuSans-437" x="121.484375"/>
     <use xlink:href="#DejaVuSans-43f" x="174.658203"/>
     <use xlink:href="#DejaVuSans-43e" x="240.039062"/>
     <use xlink:href="#DejaVuSans-434" x="301.220703"/>
     <use xlink:href="#DejaVuSans-456" x="370.361328"/>
     <use xlink:href="#DejaVuSans-43b" x="398.144531"/>
     <use xlink:href="#DejaVuSans-20" x="462.060547"/>
     <use xlink:href="#DejaVuSans-441" x="493.847656"/>
     <use xlink:href="#DejaVuSans-435" x="548.828125"/>
     <use xlink:href="#DejaVuSans-440" x="610.351562"/>
     <use xlink:href="#DejaVuSans-435" x="673.828125"/>
     <use xlink:href="#DejaVuSans-434" x="735.351562"/>
     <use xlink:href="#DejaVuSans-43d" x="804.492188"/>
     <use xlink:href="#DejaVuSans-456" x="869.873047"/>
     <use xlink:href="#DejaVuSans-445" x="897.65625"/>
     <use xlink:href="#DejaVuSans-20" x="956.835938"/>
     <use xlink:href="#DejaVuSans-437" x="988.623047"/>
     <use xlink:href="#DejaVuSans-43d" x="1041.796875"/>
     <use xlink:href="#DejaVuSans-430" x="1107.177734"/>
     <use xlink:href="#DejaVuSans-447" x="1168.457031"/>
     <use xlink:href="#DejaVuSans-435" x="1227.539062"/>
     <use xlink:href="#DejaVuSans-43d" x="1289.0625"/>
     <use xlink:href="#DejaVuSans-44c" x="1354.443359"/>
    </g>
   </g>
   <g id="legend_1">
    <g id="patch_57">
     <path d="M 423.5125 67.145625 
L 595.316875 67.145625 
Q 597.716875 67.145625 597.716875 64.745625 
L 597.716875 30.718125 
Q 597.716875 28.318125 595.316875 28.318125 
L 423.5125 28.318125 
Q 421.1125 28.318125 421.1125 30.718125 
L 421.1125 64.745625 
Q 421.1125 67.145625 423.5125 67.145625 
z
" style="fill: #ffffff; opacity: 0.8; stroke: #cccccc; stroke-linejoin: miter"/>
    </g>
    <g id="patch_58">
     <path d="M 425.9125 42.23625 
L 449.9125 42.23625 
L 449.9125 33.83625 
L 425.9125 33.83625 
z
" style="fill: #1f77b4; opacity: 0.4"/>
    </g>
    <g id="text_14">
     <!-- Емпіричний розподіл -->
     <g transform="translate(459.5125 42.23625) scale(0.12 -0.12)">
      <defs>
       <path id="DejaVuSans-415" d="M 628 4666 
L 3578 4666 
L 3578 4134 
L 1259 4134 
L 1259 2753 
L 3481 2753 
L 3481 2222 
L 1259 2222 
L 1259 531 
L 3634 531 
L 3634 0 
L 628 0 
L 628 4666 
z
" transform="scale(0.015625)"/>
       <path id="DejaVuSans-43c" d="M 581 3500 
L 1422 3500 
L 2416 1156 
L 3413 3500 
L 4247 3500 
L 4247 0 
L 3669 0 
L 3669 2950 
L 2703 672 
L 2128 672 
L 1159 2950 
L 1159 0 
L 581 0 
L 581 3500 
z
" transform="scale(0.015625)"/>
       <path id="DejaVuSans-438" d="M 3578 3500 
L 3578 0 
L 3006 0 
L 3006 2809 
L 1319 0 
L 581 0 
L 581 3500 
L 1153 3500 
L 1153 697 
L 2838 3500 
L 3578 3500 
z
" transform="scale(0.015625)"/>
       <path id="DejaVuSans-439" d="M 3578 3500 
L 3578 0 
L 3006 0 
L 3006 2809 
L 1319 0 
L 581 0 
L 581 3500 
L 1153 3500 
L 1153 697 
L 2838 3500 
L 3578 3500 
z
M 1102 4833 
L 1471 4833 
Q 1505 4599 1656 4481 
Q 1808 4364 2080 4364 
Q 2349 4364 2499 4480 
Q 2649 4596 2689 4833 
L 3058 4833 
Q 3027 4386 2780 4161 
Q 2533 3936 2080 3936 
Q 1627 3936 1380 4161 
Q 1133 4386 1102 4833 
z
" transform="scale(0.015625)"/>
      </defs>
      <use xlink:href="#DejaVuSans-415"/>
      <use xlink:href="#DejaVuSans-43c" x="63.183594"/>
      <use xlink:href="#DejaVuSans-43f" x="138.623047"/>
      <use xlink:href="#DejaVuSans-456" x="204.003906"/>
      <use xlink:href="#DejaVuSans-440" x="231.787109"/>
      <use xlink:href="#DejaVuSans-438" x="295.263672"/>
      <use xlink:href="#DejaVuSans-447" x="360.253906"/>
      <use xlink:href="#DejaVuSans-43d" x="419.335938"/>
      <use xlink:href="#DejaVuSans-438" x="484.716797"/>
      <use xlink:href="#DejaVuSans-439" x="549.707031"/>
      <use xlink:href="#DejaVuSans-20" x="614.697266"/>
      <use xlink:href="#DejaVuSans-440" x="646.484375"/>
      <use xlink:href="#DejaVuSans-43e" x="709.960938"/>
      <use xlink:href="#DejaVuSans-437" x="771.142578"/>
      <use xlink:href="#DejaVuSans-43f" x="824.316406"/>
      <use xlink:href="#DejaVuSans-43e" x="889.697266"/>
      <use xlink:href="#DejaVuSans-434" x="950.878906"/>
      <use xlink:href="#DejaVuSans-456" x="1020.019531"/>
      <use xlink:href="#DejaVuSans-43b" x="1047.802734"/>
     </g>
    </g>
    <g id="line2d_13">
     <path d="M 425.9125 55.65 
L 437.9125 55.65 
L 449.9125 55.65 
" style="fill: none; stroke: #ff7f0e; stroke-width: 1.5; stroke-linecap: square"/>
    </g>
    <g id="text_15">
     <!-- $\mathcal{N}(0, 1)$ -->
     <g transform="translate(459.5125 59.85) scale(0.12 -0.12)">
      <defs>
       <path id="STIXNonUnicode-Italic-e23a" d="M 4294 800 
L 4301 800 
Q 5293 4070 5408 4378 
Q 5472 4538 5523 4614 
Q 5830 5088 6253 5088 
Q 6490 5088 6650 4931 
Q 6810 4774 6810 4550 
Q 6810 4378 6720 4272 
Q 6630 4166 6470 4166 
Q 6368 4166 6297 4224 
Q 6227 4282 6198 4349 
Q 6170 4416 6118 4473 
Q 6067 4531 6003 4531 
Q 5939 4531 5881 4508 
Q 5824 4486 5785 4457 
Q 5747 4429 5705 4371 
Q 5664 4314 5638 4275 
Q 5613 4237 5584 4163 
Q 5555 4090 5545 4058 
Q 5536 4026 5510 3952 
Q 5485 3878 5485 3866 
L 4262 -154 
L 4134 -154 
Q 3078 1280 2483 2893 
L 2470 2893 
Q 2406 2579 2358 2361 
Q 2310 2144 2214 1792 
Q 2118 1440 2028 1190 
Q 1939 941 1804 653 
Q 1670 365 1529 185 
Q 1389 6 1203 -115 
Q 1018 -237 813 -237 
Q 576 -237 416 -80 
Q 256 77 256 301 
Q 256 474 345 579 
Q 435 685 595 685 
Q 698 685 768 627 
Q 838 570 867 502 
Q 896 435 947 377 
Q 998 320 1062 320 
Q 1222 320 1369 480 
Q 1517 640 1638 928 
Q 1760 1216 1862 1542 
Q 1965 1869 2057 2288 
Q 2150 2707 2214 3033 
Q 2278 3360 2348 3741 
Q 2419 4122 2458 4294 
L 2630 4294 
Q 2682 4166 2874 3680 
Q 3066 3194 3142 3008 
Q 3219 2822 3392 2422 
Q 3565 2022 3683 1798 
Q 3802 1574 3968 1292 
Q 4134 1011 4294 800 
z
" transform="scale(0.015625)"/>
       <path id="DejaVuSans-28" d="M 1984 4856 
Q 1566 4138 1362 3434 
Q 1159 2731 1159 2009 
Q 1159 1288 1364 580 
Q 1569 -128 1984 -844 
L 1484 -844 
Q 1016 -109 783 600 
Q 550 1309 550 2009 
Q 550 2706 781 3412 
Q 1013 4119 1484 4856 
L 1984 4856 
z
" transform="scale(0.015625)"/>
       <path id="DejaVuSans-2c" d="M 750 794 
L 1409 794 
L 1409 256 
L 897 -744 
L 494 -744 
L 750 256 
L 750 794 
z
" transform="scale(0.015625)"/>
       <path id="DejaVuSans-29" d="M 513 4856 
L 1013 4856 
Q 1481 4119 1714 3412 
Q 1947 2706 1947 2009 
Q 1947 1309 1714 600 
Q 1481 -109 1013 -844 
L 513 -844 
Q 928 -128 1133 580 
Q 1338 1288 1338 2009 
Q 1338 2731 1133 3434 
Q 928 4138 513 4856 
z
" transform="scale(0.015625)"/>
      </defs>
      <use xlink:href="#STIXNonUnicode-Italic-e23a" transform="translate(0 0.5)"/>
      <use xlink:href="#DejaVuSans-28" transform="translate(95.699982 0.5)"/>
      <use xlink:href="#DejaVuSans-30" transform="translate(134.713654 0.5)"/>
      <use xlink:href="#DejaVuSans-2c" transform="translate(198.3367 0.5)"/>
      <use xlink:href="#DejaVuSans-31" transform="translate(249.606232 0.5)"/>
      <use xlink:href="#DejaVuSans-29" transform="translate(313.229279 0.5)"/>
     </g>
    </g>
   </g>
  </g>
 </g>
 <defs>
  <clipPath id="p49921f4be9">
   <rect x="45.716875" y="22.318125" width="558" height="277.2"/>
  </clipPath>
 </defs>
</svg>
