<?xml version="1.0" encoding="utf-8" standalone="no"?>
<!DOCTYPE svg PUBLIC "-//W3C//DTD SVG 1.1//EN"
  "http://www.w3.org/Graphics/SVG/1.1/DTD/svg11.dtd">
<svg xmlns:xlink="http://www.w3.org/1999/xlink" width="610.916875pt" height="339.01pt" viewBox="0 0 610.916875 339.01" xmlns="http://www.w3.org/2000/svg" version="1.1">
 <metadata>
  <rdf:RDF xmlns:dc="http://purl.org/dc/elements/1.1/" xmlns:cc="http://creativecommons.org/ns#" xmlns:rdf="http://www.w3.org/1999/02/22-rdf-syntax-ns#">
   <cc:Work>
    <dc:type rdf:resource="http://purl.org/dc/dcmitype/StillImage"/>
    <dc:date>2024-10-14T14:05:20.758572</dc:date>
    <dc:format>image/svg+xml</dc:format>
    <dc:creator>
     <cc:Agent>
      <dc:title>Matplotlib v3.7.2, https://matplotlib.org/</dc:title>
     </cc:Agent>
    </dc:creator>
   </cc:Work>
  </rdf:RDF>
 </metadata>
 <defs>
  <style type="text/css">*{stroke-linejoin: round; stroke-linecap: butt}</style>
 </defs>
 <g id="figure_1">
  <g id="patch_1">
   <path d="M 0 339.01 
L 610.916875 339.01 
L 610.916875 0 
L 0 0 
z
" style="fill: #ffffff"/>
  </g>
  <g id="axes_1">
   <g id="patch_2">
    <path d="M 45.716875 299.518125 
L 603.716875 299.518125 
L 603.716875 22.318125 
L 45.716875 22.318125 
z
" style="fill: #ffffff"/>
   </g>
   <g id="patch_3">
    <path d="M 113.113189 299.518125 
L 122.607365 299.518125 
L 122.607365 298.743931 
L 113.113189 298.743931 
z
" clip-path="url(#pbfadf58446)" style="fill: #1f77b4; opacity: 0.4"/>
   </g>
   <g id="patch_4">
    <path d="M 122.607365 299.518125 
L 132.101541 299.518125 
L 132.101541 296.421351 
L 122.607365 296.421351 
z
" clip-path="url(#pbfadf58446)" style="fill: #1f77b4; opacity: 0.4"/>
   </g>
   <g id="patch_5">
    <path d="M 132.101541 299.518125 
L 141.595717 299.518125 
L 141.595717 296.421351 
L 132.101541 296.421351 
z
" clip-path="url(#pbfadf58446)" style="fill: #1f77b4; opacity: 0.4"/>
   </g>
   <g id="patch_6">
    <path d="M 141.595717 299.518125 
L 151.089893 299.518125 
L 151.089893 296.421351 
L 141.595717 296.421351 
z
" clip-path="url(#pbfadf58446)" style="fill: #1f77b4; opacity: 0.4"/>
   </g>
   <g id="patch_7">
    <path d="M 151.089893 299.518125 
L 160.584069 299.518125 
L 160.584069 292.550383 
L 151.089893 292.550383 
z
" clip-path="url(#pbfadf58446)" style="fill: #1f77b4; opacity: 0.4"/>
   </g>
   <g id="patch_8">
    <path d="M 160.584069 299.518125 
L 170.078245 299.518125 
L 170.078245 292.550383 
L 160.584069 292.550383 
z
" clip-path="url(#pbfadf58446)" style="fill: #1f77b4; opacity: 0.4"/>
   </g>
   <g id="patch_9">
    <path d="M 170.078245 299.518125 
L 179.572421 299.518125 
L 179.572421 290.227802 
L 170.078245 290.227802 
z
" clip-path="url(#pbfadf58446)" style="fill: #1f77b4; opacity: 0.4"/>
   </g>
   <g id="patch_10">
    <path d="M 179.572421 299.518125 
L 189.066597 299.518125 
L 189.066597 276.292319 
L 179.572421 276.292319 
z
" clip-path="url(#pbfadf58446)" style="fill: #1f77b4; opacity: 0.4"/>
   </g>
   <g id="patch_11">
    <path d="M 189.066597 299.518125 
L 198.560773 299.518125 
L 198.560773 276.292319 
L 189.066597 276.292319 
z
" clip-path="url(#pbfadf58446)" style="fill: #1f77b4; opacity: 0.4"/>
   </g>
   <g id="patch_12">
    <path d="M 198.560773 299.518125 
L 208.054949 299.518125 
L 208.054949 263.131028 
L 198.560773 263.131028 
z
" clip-path="url(#pbfadf58446)" style="fill: #1f77b4; opacity: 0.4"/>
   </g>
   <g id="patch_13">
    <path d="M 208.054949 299.518125 
L 217.549125 299.518125 
L 217.549125 254.614899 
L 208.054949 254.614899 
z
" clip-path="url(#pbfadf58446)" style="fill: #1f77b4; opacity: 0.4"/>
   </g>
   <g id="patch_14">
    <path d="M 217.549125 299.518125 
L 227.043301 299.518125 
L 227.043301 238.356835 
L 217.549125 238.356835 
z
" clip-path="url(#pbfadf58446)" style="fill: #1f77b4; opacity: 0.4"/>
   </g>
   <g id="patch_15">
    <path d="M 227.043301 299.518125 
L 236.537477 299.518125 
L 236.537477 219.001996 
L 227.043301 219.001996 
z
" clip-path="url(#pbfadf58446)" style="fill: #1f77b4; opacity: 0.4"/>
   </g>
   <g id="patch_16">
    <path d="M 236.537477 299.518125 
L 246.031653 299.518125 
L 246.031653 219.77619 
L 236.537477 219.77619 
z
" clip-path="url(#pbfadf58446)" style="fill: #1f77b4; opacity: 0.4"/>
   </g>
   <g id="patch_17">
    <path d="M 246.031653 299.518125 
L 255.525828 299.518125 
L 255.525828 178.743931 
L 246.031653 178.743931 
z
" clip-path="url(#pbfadf58446)" style="fill: #1f77b4; opacity: 0.4"/>
   </g>
   <g id="patch_18">
    <path d="M 255.525828 299.518125 
L 265.020004 299.518125 
L 265.020004 142.356835 
L 255.525828 142.356835 
z
" clip-path="url(#pbfadf58446)" style="fill: #1f77b4; opacity: 0.4"/>
   </g>
   <g id="patch_19">
    <path d="M 265.020004 299.518125 
L 274.51418 299.518125 
L 274.51418 124.550383 
L 265.020004 124.550383 
z
" clip-path="url(#pbfadf58446)" style="fill: #1f77b4; opacity: 0.4"/>
   </g>
   <g id="patch_20">
    <path d="M 274.51418 299.518125 
L 284.008356 299.518125 
L 284.008356 143.905222 
L 274.51418 143.905222 
z
" clip-path="url(#pbfadf58446)" style="fill: #1f77b4; opacity: 0.4"/>
   </g>
   <g id="patch_21">
    <path d="M 284.008356 299.518125 
L 293.502532 299.518125 
L 293.502532 76.550383 
L 284.008356 76.550383 
z
" clip-path="url(#pbfadf58446)" style="fill: #1f77b4; opacity: 0.4"/>
   </g>
   <g id="patch_22">
    <path d="M 293.502532 299.518125 
L 302.996708 299.518125 
L 302.996708 75.77619 
L 293.502532 75.77619 
z
" clip-path="url(#pbfadf58446)" style="fill: #1f77b4; opacity: 0.4"/>
   </g>
   <g id="patch_23">
    <path d="M 302.996708 299.518125 
L 312.490884 299.518125 
L 312.490884 121.453609 
L 302.996708 121.453609 
z
" clip-path="url(#pbfadf58446)" style="fill: #1f77b4; opacity: 0.4"/>
   </g>
   <g id="patch_24">
    <path d="M 312.490884 299.518125 
L 321.98506 299.518125 
L 321.98506 59.518125 
L 312.490884 59.518125 
z
" clip-path="url(#pbfadf58446)" style="fill: #1f77b4; opacity: 0.4"/>
   </g>
   <g id="patch_25">
    <path d="M 321.98506 299.518125 
L 331.479236 299.518125 
L 331.479236 35.518125 
L 321.98506 35.518125 
z
" clip-path="url(#pbfadf58446)" style="fill: #1f77b4; opacity: 0.4"/>
   </g>
   <g id="patch_26">
    <path d="M 331.479236 299.518125 
L 340.973412 299.518125 
L 340.973412 39.389093 
L 331.479236 39.389093 
z
" clip-path="url(#pbfadf58446)" style="fill: #1f77b4; opacity: 0.4"/>
   </g>
   <g id="patch_27">
    <path d="M 340.973412 299.518125 
L 350.467588 299.518125 
L 350.467588 123.77619 
L 340.973412 123.77619 
z
" clip-path="url(#pbfadf58446)" style="fill: #1f77b4; opacity: 0.4"/>
   </g>
   <g id="patch_28">
    <path d="M 350.467588 299.518125 
L 359.961764 299.518125 
L 359.961764 67.26006 
L 350.467588 67.26006 
z
" clip-path="url(#pbfadf58446)" style="fill: #1f77b4; opacity: 0.4"/>
   </g>
   <g id="patch_29">
    <path d="M 359.961764 299.518125 
L 369.45594 299.518125 
L 369.45594 108.292319 
L 359.961764 108.292319 
z
" clip-path="url(#pbfadf58446)" style="fill: #1f77b4; opacity: 0.4"/>
   </g>
   <g id="patch_30">
    <path d="M 369.45594 299.518125 
L 378.950116 299.518125 
L 378.950116 154.743931 
L 369.45594 154.743931 
z
" clip-path="url(#pbfadf58446)" style="fill: #1f77b4; opacity: 0.4"/>
   </g>
   <g id="patch_31">
    <path d="M 378.950116 299.518125 
L 388.444292 299.518125 
L 388.444292 149.324577 
L 378.950116 149.324577 
z
" clip-path="url(#pbfadf58446)" style="fill: #1f77b4; opacity: 0.4"/>
   </g>
   <g id="patch_32">
    <path d="M 388.444292 299.518125 
L 397.938468 299.518125 
L 397.938468 167.905222 
L 388.444292 167.905222 
z
" clip-path="url(#pbfadf58446)" style="fill: #1f77b4; opacity: 0.4"/>
   </g>
   <g id="patch_33">
    <path d="M 397.938468 299.518125 
L 407.432644 299.518125 
L 407.432644 192.679415 
L 397.938468 192.679415 
z
" clip-path="url(#pbfadf58446)" style="fill: #1f77b4; opacity: 0.4"/>
   </g>
   <g id="patch_34">
    <path d="M 407.432644 299.518125 
L 416.92682 299.518125 
L 416.92682 217.453609 
L 407.432644 217.453609 
z
" clip-path="url(#pbfadf58446)" style="fill: #1f77b4; opacity: 0.4"/>
   </g>
   <g id="patch_35">
    <path d="M 416.92682 299.518125 
L 426.420996 299.518125 
L 426.420996 229.840706 
L 416.92682 229.840706 
z
" clip-path="url(#pbfadf58446)" style="fill: #1f77b4; opacity: 0.4"/>
   </g>
   <g id="patch_36">
    <path d="M 426.420996 299.518125 
L 435.915172 299.518125 
L 435.915172 243.001996 
L 426.420996 243.001996 
z
" clip-path="url(#pbfadf58446)" style="fill: #1f77b4; opacity: 0.4"/>
   </g>
   <g id="patch_37">
    <path d="M 435.915172 299.518125 
L 445.409348 299.518125 
L 445.409348 260.808448 
L 435.915172 260.808448 
z
" clip-path="url(#pbfadf58446)" style="fill: #1f77b4; opacity: 0.4"/>
   </g>
   <g id="patch_38">
    <path d="M 445.409348 299.518125 
L 454.903524 299.518125 
L 454.903524 263.131028 
L 445.409348 263.131028 
z
" clip-path="url(#pbfadf58446)" style="fill: #1f77b4; opacity: 0.4"/>
   </g>
   <g id="patch_39">
    <path d="M 454.903524 299.518125 
L 464.3977 299.518125 
L 464.3977 276.292319 
L 454.903524 276.292319 
z
" clip-path="url(#pbfadf58446)" style="fill: #1f77b4; opacity: 0.4"/>
   </g>
   <g id="patch_40">
    <path d="M 464.3977 299.518125 
L 473.891876 299.518125 
L 473.891876 278.614899 
L 464.3977 278.614899 
z
" clip-path="url(#pbfadf58446)" style="fill: #1f77b4; opacity: 0.4"/>
   </g>
   <g id="patch_41">
    <path d="M 473.891876 299.518125 
L 483.386052 299.518125 
L 483.386052 288.679415 
L 473.891876 288.679415 
z
" clip-path="url(#pbfadf58446)" style="fill: #1f77b4; opacity: 0.4"/>
   </g>
   <g id="patch_42">
    <path d="M 483.386052 299.518125 
L 492.880228 299.518125 
L 492.880228 293.324577 
L 483.386052 293.324577 
z
" clip-path="url(#pbfadf58446)" style="fill: #1f77b4; opacity: 0.4"/>
   </g>
   <g id="patch_43">
    <path d="M 492.880228 299.518125 
L 502.374404 299.518125 
L 502.374404 295.647157 
L 492.880228 295.647157 
z
" clip-path="url(#pbfadf58446)" style="fill: #1f77b4; opacity: 0.4"/>
   </g>
   <g id="patch_44">
    <path d="M 502.374404 299.518125 
L 511.86858 299.518125 
L 511.86858 296.421351 
L 502.374404 296.421351 
z
" clip-path="url(#pbfadf58446)" style="fill: #1f77b4; opacity: 0.4"/>
   </g>
   <g id="patch_45">
    <path d="M 511.86858 299.518125 
L 521.362755 299.518125 
L 521.362755 296.421351 
L 511.86858 296.421351 
z
" clip-path="url(#pbfadf58446)" style="fill: #1f77b4; opacity: 0.4"/>
   </g>
   <g id="patch_46">
    <path d="M 521.362755 299.518125 
L 530.856931 299.518125 
L 530.856931 297.195544 
L 521.362755 297.195544 
z
" clip-path="url(#pbfadf58446)" style="fill: #1f77b4; opacity: 0.4"/>
   </g>
   <g id="patch_47">
    <path d="M 530.856931 299.518125 
L 540.351107 299.518125 
L 540.351107 297.969738 
L 530.856931 297.969738 
z
" clip-path="url(#pbfadf58446)" style="fill: #1f77b4; opacity: 0.4"/>
   </g>
   <g id="matplotlib.axis_1">
    <g id="xtick_1">
     <g id="line2d_1">
      <defs>
       <path id="meb28bb6216" d="M 0 0 
L 0 3.5 
" style="stroke: #000000; stroke-width: 0.8"/>
      </defs>
      <g>
       <use xlink:href="#meb28bb6216" x="71.080511" y="299.518125" style="stroke: #000000; stroke-width: 0.8"/>
      </g>
     </g>
     <g id="text_1">
      <!-- −4 -->
      <g transform="translate(63.709418 314.116563) scale(0.1 -0.1)">
       <defs>
        <path id="DejaVuSans-2212" d="M 678 2272 
L 4684 2272 
L 4684 1741 
L 678 1741 
L 678 2272 
z
" transform="scale(0.015625)"/>
        <path id="DejaVuSans-34" d="M 2419 4116 
L 825 1625 
L 2419 1625 
L 2419 4116 
z
M 2253 4666 
L 3047 4666 
L 3047 1625 
L 3713 1625 
L 3713 1100 
L 3047 1100 
L 3047 0 
L 2419 0 
L 2419 1100 
L 313 1100 
L 313 1709 
L 2253 4666 
z
" transform="scale(0.015625)"/>
       </defs>
       <use xlink:href="#DejaVuSans-2212"/>
       <use xlink:href="#DejaVuSans-34" x="83.789062"/>
      </g>
     </g>
    </g>
    <g id="xtick_2">
     <g id="line2d_2">
      <g>
       <use xlink:href="#meb28bb6216" x="134.489602" y="299.518125" style="stroke: #000000; stroke-width: 0.8"/>
      </g>
     </g>
     <g id="text_2">
      <!-- −3 -->
      <g transform="translate(127.118509 314.116563) scale(0.1 -0.1)">
       <defs>
        <path id="DejaVuSans-33" d="M 2597 2516 
Q 3050 2419 3304 2112 
Q 3559 1806 3559 1356 
Q 3559 666 3084 287 
Q 2609 -91 1734 -91 
Q 1441 -91 1130 -33 
Q 819 25 488 141 
L 488 750 
Q 750 597 1062 519 
Q 1375 441 1716 441 
Q 2309 441 2620 675 
Q 2931 909 2931 1356 
Q 2931 1769 2642 2001 
Q 2353 2234 1838 2234 
L 1294 2234 
L 1294 2753 
L 1863 2753 
Q 2328 2753 2575 2939 
Q 2822 3125 2822 3475 
Q 2822 3834 2567 4026 
Q 2313 4219 1838 4219 
Q 1578 4219 1281 4162 
Q 984 4106 628 3988 
L 628 4550 
Q 988 4650 1302 4700 
Q 1616 4750 1894 4750 
Q 2613 4750 3031 4423 
Q 3450 4097 3450 3541 
Q 3450 3153 3228 2886 
Q 3006 2619 2597 2516 
z
" transform="scale(0.015625)"/>
       </defs>
       <use xlink:href="#DejaVuSans-2212"/>
       <use xlink:href="#DejaVuSans-33" x="83.789062"/>
      </g>
     </g>
    </g>
    <g id="xtick_3">
     <g id="line2d_3">
      <g>
       <use xlink:href="#meb28bb6216" x="197.898693" y="299.518125" style="stroke: #000000; stroke-width: 0.8"/>
      </g>
     </g>
     <g id="text_3">
      <!-- −2 -->
      <g transform="translate(190.527599 314.116563) scale(0.1 -0.1)">
       <defs>
        <path id="DejaVuSans-32" d="M 1228 531 
L 3431 531 
L 3431 0 
L 469 0 
L 469 531 
Q 828 903 1448 1529 
Q 2069 2156 2228 2338 
Q 2531 2678 2651 2914 
Q 2772 3150 2772 3378 
Q 2772 3750 2511 3984 
Q 2250 4219 1831 4219 
Q 1534 4219 1204 4116 
Q 875 4013 500 3803 
L 500 4441 
Q 881 4594 1212 4672 
Q 1544 4750 1819 4750 
Q 2544 4750 2975 4387 
Q 3406 4025 3406 3419 
Q 3406 3131 3298 2873 
Q 3191 2616 2906 2266 
Q 2828 2175 2409 1742 
Q 1991 1309 1228 531 
z
" transform="scale(0.015625)"/>
       </defs>
       <use xlink:href="#DejaVuSans-2212"/>
       <use xlink:href="#DejaVuSans-32" x="83.789062"/>
      </g>
     </g>
    </g>
    <g id="xtick_4">
     <g id="line2d_4">
      <g>
       <use xlink:href="#meb28bb6216" x="261.307784" y="299.518125" style="stroke: #000000; stroke-width: 0.8"/>
      </g>
     </g>
     <g id="text_4">
      <!-- −1 -->
      <g transform="translate(253.93669 314.116563) scale(0.1 -0.1)">
       <defs>
        <path id="DejaVuSans-31" d="M 794 531 
L 1825 531 
L 1825 4091 
L 703 3866 
L 703 4441 
L 1819 4666 
L 2450 4666 
L 2450 531 
L 3481 531 
L 3481 0 
L 794 0 
L 794 531 
z
" transform="scale(0.015625)"/>
       </defs>
       <use xlink:href="#DejaVuSans-2212"/>
       <use xlink:href="#DejaVuSans-31" x="83.789062"/>
      </g>
     </g>
    </g>
    <g id="xtick_5">
     <g id="line2d_5">
      <g>
       <use xlink:href="#meb28bb6216" x="324.716875" y="299.518125" style="stroke: #000000; stroke-width: 0.8"/>
      </g>
     </g>
     <g id="text_5">
      <!-- 0 -->
      <g transform="translate(321.535625 314.116563) scale(0.1 -0.1)">
       <defs>
        <path id="DejaVuSans-30" d="M 2034 4250 
Q 1547 4250 1301 3770 
Q 1056 3291 1056 2328 
Q 1056 1369 1301 889 
Q 1547 409 2034 409 
Q 2525 409 2770 889 
Q 3016 1369 3016 2328 
Q 3016 3291 2770 3770 
Q 2525 4250 2034 4250 
z
M 2034 4750 
Q 2819 4750 3233 4129 
Q 3647 3509 3647 2328 
Q 3647 1150 3233 529 
Q 2819 -91 2034 -91 
Q 1250 -91 836 529 
Q 422 1150 422 2328 
Q 422 3509 836 4129 
Q 1250 4750 2034 4750 
z
" transform="scale(0.015625)"/>
       </defs>
       <use xlink:href="#DejaVuSans-30"/>
      </g>
     </g>
    </g>
    <g id="xtick_6">
     <g id="line2d_6">
      <g>
       <use xlink:href="#meb28bb6216" x="388.125966" y="299.518125" style="stroke: #000000; stroke-width: 0.8"/>
      </g>
     </g>
     <g id="text_6">
      <!-- 1 -->
      <g transform="translate(384.944716 314.116563) scale(0.1 -0.1)">
       <use xlink:href="#DejaVuSans-31"/>
      </g>
     </g>
    </g>
    <g id="xtick_7">
     <g id="line2d_7">
      <g>
       <use xlink:href="#meb28bb6216" x="451.535057" y="299.518125" style="stroke: #000000; stroke-width: 0.8"/>
      </g>
     </g>
     <g id="text_7">
      <!-- 2 -->
      <g transform="translate(448.353807 314.116563) scale(0.1 -0.1)">
       <use xlink:href="#DejaVuSans-32"/>
      </g>
     </g>
    </g>
    <g id="xtick_8">
     <g id="line2d_8">
      <g>
       <use xlink:href="#meb28bb6216" x="514.944148" y="299.518125" style="stroke: #000000; stroke-width: 0.8"/>
      </g>
     </g>
     <g id="text_8">
      <!-- 3 -->
      <g transform="translate(511.762898 314.116563) scale(0.1 -0.1)">
       <use xlink:href="#DejaVuSans-33"/>
      </g>
     </g>
    </g>
    <g id="xtick_9">
     <g id="line2d_9">
      <g>
       <use xlink:href="#meb28bb6216" x="578.353239" y="299.518125" style="stroke: #000000; stroke-width: 0.8"/>
      </g>
     </g>
     <g id="text_9">
      <!-- 4 -->
      <g transform="translate(575.171989 314.116563) scale(0.1 -0.1)">
       <use xlink:href="#DejaVuSans-34"/>
      </g>
     </g>
    </g>
    <g id="text_10">
     <!-- X -->
     <g transform="translate(320.606875 329.314375) scale(0.12 -0.12)">
      <defs>
       <path id="DejaVuSans-58" d="M 403 4666 
L 1081 4666 
L 2241 2931 
L 3406 4666 
L 4084 4666 
L 2584 2425 
L 4184 0 
L 3506 0 
L 2194 1984 
L 872 0 
L 191 0 
L 1856 2491 
L 403 4666 
z
" transform="scale(0.015625)"/>
      </defs>
      <use xlink:href="#DejaVuSans-58"/>
     </g>
    </g>
   </g>
   <g id="matplotlib.axis_2">
    <g id="ytick_1">
     <g id="line2d_10">
      <defs>
       <path id="m7868863e99" d="M 0 0 
L -3.5 0 
" style="stroke: #000000; stroke-width: 0.8"/>
      </defs>
      <g>
       <use xlink:href="#m7868863e99" x="45.716875" y="299.518125" style="stroke: #000000; stroke-width: 0.8"/>
      </g>
     </g>
     <g id="text_11">
      <!-- 0.0 -->
      <g transform="translate(22.81375 303.317344) scale(0.1 -0.1)">
       <defs>
        <path id="DejaVuSans-2e" d="M 684 794 
L 1344 794 
L 1344 0 
L 684 0 
L 684 794 
z
" transform="scale(0.015625)"/>
       </defs>
       <use xlink:href="#DejaVuSans-30"/>
       <use xlink:href="#DejaVuSans-2e" x="63.623047"/>
       <use xlink:href="#DejaVuSans-30" x="95.410156"/>
      </g>
     </g>
    </g>
    <g id="ytick_2">
     <g id="line2d_11">
      <g>
       <use xlink:href="#m7868863e99" x="45.716875" y="241.558535" style="stroke: #000000; stroke-width: 0.8"/>
      </g>
     </g>
     <g id="text_12">
      <!-- 0.1 -->
      <g transform="translate(22.81375 245.357754) scale(0.1 -0.1)">
       <use xlink:href="#DejaVuSans-30"/>
       <use xlink:href="#DejaVuSans-2e" x="63.623047"/>
       <use xlink:href="#DejaVuSans-31" x="95.410156"/>
      </g>
     </g>
    </g>
    <g id="ytick_3">
     <g id="line2d_12">
      <g>
       <use xlink:href="#m7868863e99" x="45.716875" y="183.598946" style="stroke: #000000; stroke-width: 0.8"/>
      </g>
     </g>
     <g id="text_13">
      <!-- 0.2 -->
      <g transform="translate(22.81375 187.398164) scale(0.1 -0.1)">
       <use xlink:href="#DejaVuSans-30"/>
       <use xlink:href="#DejaVuSans-2e" x="63.623047"/>
       <use xlink:href="#DejaVuSans-32" x="95.410156"/>
      </g>
     </g>
    </g>
    <g id="ytick_4">
     <g id="line2d_13">
      <g>
       <use xlink:href="#m7868863e99" x="45.716875" y="125.639356" style="stroke: #000000; stroke-width: 0.8"/>
      </g>
     </g>
     <g id="text_14">
      <!-- 0.3 -->
      <g transform="translate(22.81375 129.438575) scale(0.1 -0.1)">
       <use xlink:href="#DejaVuSans-30"/>
       <use xlink:href="#DejaVuSans-2e" x="63.623047"/>
       <use xlink:href="#DejaVuSans-33" x="95.410156"/>
      </g>
     </g>
    </g>
    <g id="ytick_5">
     <g id="line2d_14">
      <g>
       <use xlink:href="#m7868863e99" x="45.716875" y="67.679766" style="stroke: #000000; stroke-width: 0.8"/>
      </g>
     </g>
     <g id="text_15">
      <!-- 0.4 -->
      <g transform="translate(22.81375 71.478985) scale(0.1 -0.1)">
       <use xlink:href="#DejaVuSans-30"/>
       <use xlink:href="#DejaVuSans-2e" x="63.623047"/>
       <use xlink:href="#DejaVuSans-34" x="95.410156"/>
      </g>
     </g>
    </g>
    <g id="text_16">
     <!-- Щільність -->
     <g transform="translate(16.318125 192.43875) rotate(-90) scale(0.12 -0.12)">
      <defs>
       <path id="DejaVuSans-429" d="M 6216 0 
L 628 0 
L 628 4666 
L 1259 4666 
L 1259 531 
L 3106 531 
L 3106 4666 
L 3738 4666 
L 3738 531 
L 5584 531 
L 5584 4666 
L 6216 4666 
L 6216 531 
L 6747 531 
L 6747 -1003 
L 6216 -1003 
L 6216 0 
z
" transform="scale(0.015625)"/>
       <path id="DejaVuSans-456" d="M 603 3500 
L 1178 3500 
L 1178 0 
L 603 0 
L 603 3500 
z
M 603 4863 
L 1178 4863 
L 1178 4134 
L 603 4134 
L 603 4863 
z
" transform="scale(0.015625)"/>
       <path id="DejaVuSans-43b" d="M 238 0 
L 238 478 
Q 806 566 981 959 
Q 1194 1513 1194 2928 
L 1194 3500 
L 3559 3500 
L 3559 0 
L 2984 0 
L 2984 3041 
L 1769 3041 
L 1769 2694 
Q 1769 1344 1494 738 
Q 1200 91 238 0 
z
" transform="scale(0.015625)"/>
       <path id="DejaVuSans-44c" d="M 2781 1038 
Q 2781 1319 2576 1466 
Q 2372 1613 1978 1613 
L 1159 1613 
L 1159 459 
L 1978 459 
Q 2372 459 2576 607 
Q 2781 756 2781 1038 
z
M 581 3500 
L 1159 3500 
L 1159 2072 
L 2003 2072 
Q 2672 2072 3033 1817 
Q 3394 1563 3394 1038 
Q 3394 513 3033 256 
Q 2672 0 2003 0 
L 581 0 
L 581 3500 
z
" transform="scale(0.015625)"/>
       <path id="DejaVuSans-43d" d="M 581 3500 
L 1159 3500 
L 1159 2072 
L 3025 2072 
L 3025 3500 
L 3603 3500 
L 3603 0 
L 3025 0 
L 3025 1613 
L 1159 1613 
L 1159 0 
L 581 0 
L 581 3500 
z
" transform="scale(0.015625)"/>
       <path id="DejaVuSans-441" d="M 3122 3366 
L 3122 2828 
Q 2878 2963 2633 3030 
Q 2388 3097 2138 3097 
Q 1578 3097 1268 2742 
Q 959 2388 959 1747 
Q 959 1106 1268 751 
Q 1578 397 2138 397 
Q 2388 397 2633 464 
Q 2878 531 3122 666 
L 3122 134 
Q 2881 22 2623 -34 
Q 2366 -91 2075 -91 
Q 1284 -91 818 406 
Q 353 903 353 1747 
Q 353 2603 823 3093 
Q 1294 3584 2113 3584 
Q 2378 3584 2631 3529 
Q 2884 3475 3122 3366 
z
" transform="scale(0.015625)"/>
       <path id="DejaVuSans-442" d="M 188 3500 
L 3541 3500 
L 3541 3041 
L 2147 3041 
L 2147 0 
L 1581 0 
L 1581 3041 
L 188 3041 
L 188 3500 
z
" transform="scale(0.015625)"/>
      </defs>
      <use xlink:href="#DejaVuSans-429"/>
      <use xlink:href="#DejaVuSans-456" x="109.375"/>
      <use xlink:href="#DejaVuSans-43b" x="137.158203"/>
      <use xlink:href="#DejaVuSans-44c" x="201.074219"/>
      <use xlink:href="#DejaVuSans-43d" x="260.009766"/>
      <use xlink:href="#DejaVuSans-456" x="325.390625"/>
      <use xlink:href="#DejaVuSans-441" x="353.173828"/>
      <use xlink:href="#DejaVuSans-442" x="408.154297"/>
      <use xlink:href="#DejaVuSans-44c" x="466.40625"/>
     </g>
    </g>
   </g>
   <g id="line2d_15">
    <path d="M 79.082669 299.515184 
L 96.505246 299.411303 
L 106.461004 299.136835 
L 113.927822 298.72052 
L 121.394641 298.064753 
L 133.839338 296.649881 
L 143.795096 295.343569 
L 151.261914 294.073741 
L 156.239793 293.062107 
L 161.217672 291.857475 
L 166.195551 290.297909 
L 168.684491 289.324173 
L 171.17343 288.200516 
L 173.66237 286.927151 
L 178.640249 283.997411 
L 183.618128 280.72202 
L 188.596007 277.191897 
L 191.084946 275.284438 
L 193.573886 273.224372 
L 196.062825 270.961998 
L 198.551765 268.456471 
L 201.040704 265.686449 
L 203.529644 262.656652 
L 208.507523 255.965416 
L 225.930099 231.005413 
L 230.907978 223.416291 
L 233.396918 219.290698 
L 235.885857 214.872856 
L 238.374796 210.128139 
L 240.863736 205.042167 
L 243.352675 199.623376 
L 248.330554 187.93813 
L 263.264191 151.254172 
L 268.24207 139.980047 
L 273.219949 129.21969 
L 278.197828 118.903719 
L 283.175707 109.28061 
L 285.664647 104.872204 
L 288.153586 100.803301 
L 290.642526 97.103466 
L 293.131465 93.776544 
L 295.620405 90.800927 
L 298.109344 88.133261 
L 300.598284 85.713383 
L 305.576163 81.321361 
L 310.554042 77.00767 
L 315.531921 72.349103 
L 320.509799 67.563945 
L 322.998739 65.437819 
L 325.487678 63.741477 
L 327.976618 62.668148 
L 330.465557 62.371215 
L 332.954497 62.935217 
L 335.443436 64.362915 
L 337.932376 66.582155 
L 340.421315 69.469853 
L 342.910255 72.884746 
L 345.399194 76.698129 
L 347.888134 80.813415 
L 352.866013 89.736411 
L 357.843892 99.411771 
L 362.821771 109.631608 
L 370.288589 125.50808 
L 377.755408 141.970049 
L 387.711166 164.323069 
L 392.689045 174.918752 
L 397.666924 184.888708 
L 405.133742 199.056285 
L 415.0895 217.498264 
L 420.067379 226.362638 
L 425.045258 234.572952 
L 427.534197 238.352177 
L 430.023137 241.900908 
L 432.512076 245.230246 
L 437.489955 251.338286 
L 442.467834 256.941696 
L 447.445713 262.257417 
L 452.423592 267.318329 
L 457.401471 271.969892 
L 459.890411 274.078567 
L 462.37935 276.023597 
L 464.86829 277.809428 
L 469.846169 280.996556 
L 477.312987 285.31343 
L 484.779806 289.411223 
L 489.757684 291.76137 
L 492.246624 292.73161 
L 494.735563 293.544128 
L 497.224503 294.200674 
L 499.713442 294.716428 
L 504.691321 295.431438 
L 514.647079 296.37337 
L 539.536474 298.631794 
L 549.492232 299.172701 
L 559.44799 299.43352 
L 574.381627 299.514935 
L 574.381627 299.514935 
" clip-path="url(#pbfadf58446)" style="fill: none; stroke: #1f77b4; stroke-width: 1.5; stroke-linecap: square"/>
   </g>
   <g id="line2d_16">
    <path d="M 71.080511 299.440558 
L 93.422854 299.219711 
L 107.132927 298.876639 
L 117.796318 298.391812 
L 126.428587 297.778046 
L 133.537514 297.06286 
L 140.13866 296.175717 
L 145.724246 295.215487 
L 151.309832 294.022207 
L 156.387637 292.698552 
L 160.957661 291.282031 
L 165.527686 289.622813 
L 169.58993 287.920011 
L 173.652174 285.979866 
L 177.714418 283.779897 
L 181.776662 281.297367 
L 185.331126 278.875566 
L 188.885589 276.205242 
L 192.440053 273.272088 
L 195.994516 270.062596 
L 199.54898 266.564345 
L 203.103443 262.766295 
L 206.657907 258.659097 
L 210.21237 254.235414 
L 213.766834 249.490242 
L 217.829078 243.670641 
L 221.891322 237.42941 
L 225.953566 230.773412 
L 230.01581 223.715631 
L 234.585835 215.319957 
L 239.66364 205.471159 
L 245.249226 194.085646 
L 251.342592 181.139727 
L 259.97486 162.220552 
L 272.161592 135.510326 
L 277.747178 123.771351 
L 282.317203 114.614692 
L 286.379447 106.917406 
L 289.93391 100.590743 
L 293.488374 94.700864 
L 296.535057 90.038356 
L 299.58174 85.763756 
L 302.628423 81.904895 
L 305.167325 79.025204 
L 307.706228 76.465291 
L 310.245131 74.23712 
L 312.784033 72.351177 
L 314.815155 71.094885 
L 316.846277 70.067194 
L 318.877399 69.271246 
L 320.908521 68.70948 
L 322.939643 68.38362 
L 324.970765 68.29467 
L 327.001887 68.442902 
L 329.033009 68.82786 
L 331.064131 69.448362 
L 333.095253 70.302502 
L 335.126375 71.387664 
L 337.157497 72.700536 
L 339.188619 74.23712 
L 341.727522 76.465291 
L 344.266425 79.025204 
L 346.805327 81.904895 
L 349.34423 85.091024 
L 352.390913 89.298206 
L 355.437596 93.898087 
L 358.992059 99.721383 
L 362.546523 105.988839 
L 366.608767 113.627894 
L 371.178791 122.731417 
L 376.764377 134.423435 
L 383.873304 149.881378 
L 401.137841 187.67102 
L 407.231208 200.361561 
L 412.309013 210.460348 
L 416.879037 219.108882 
L 421.449062 227.293682 
L 425.511306 234.152594 
L 429.57355 240.602438 
L 433.635794 246.633349 
L 437.698038 252.241337 
L 441.760282 257.427747 
L 445.314746 261.624717 
L 448.869209 265.510223 
L 452.423673 269.093072 
L 455.978136 272.383854 
L 459.5326 275.394626 
L 463.087063 278.138613 
L 466.641527 280.629925 
L 470.703771 283.186643 
L 474.766015 285.455118 
L 478.828259 287.458096 
L 482.890503 289.218153 
L 487.460528 290.935321 
L 492.030552 292.403264 
L 496.600577 293.650697 
L 501.678382 294.810724 
L 507.263968 295.850953 
L 513.357334 296.750043 
L 519.95848 297.498264 
L 527.575188 298.132772 
L 536.715237 298.653604 
L 547.886408 299.045813 
L 562.104262 299.308915 
L 578.353239 299.440558 
L 578.353239 299.440558 
" clip-path="url(#pbfadf58446)" style="fill: none; stroke: #ff7f0e; stroke-width: 1.5; stroke-linecap: square"/>
   </g>
   <g id="patch_48">
    <path d="M 45.716875 299.518125 
L 45.716875 22.318125 
" style="fill: none; stroke: #000000; stroke-width: 0.8; stroke-linejoin: miter; stroke-linecap: square"/>
   </g>
   <g id="patch_49">
    <path d="M 603.716875 299.518125 
L 603.716875 22.318125 
" style="fill: none; stroke: #000000; stroke-width: 0.8; stroke-linejoin: miter; stroke-linecap: square"/>
   </g>
   <g id="patch_50">
    <path d="M 45.716875 299.518125 
L 603.716875 299.518125 
" style="fill: none; stroke: #000000; stroke-width: 0.8; stroke-linejoin: miter; stroke-linecap: square"/>
   </g>
   <g id="patch_51">
    <path d="M 45.716875 22.318125 
L 603.716875 22.318125 
" style="fill: none; stroke: #000000; stroke-width: 0.8; stroke-linejoin: miter; stroke-linecap: square"/>
   </g>
   <g id="text_17">
    <!-- Розподіл середніх значень -->
    <g transform="translate(239.913438 16.318125) scale(0.12 -0.12)">
     <defs>
      <path id="DejaVuSans-420" d="M 1259 4147 
L 1259 2394 
L 2053 2394 
Q 2494 2394 2734 2622 
Q 2975 2850 2975 3272 
Q 2975 3691 2734 3919 
Q 2494 4147 2053 4147 
L 1259 4147 
z
M 628 4666 
L 2053 4666 
Q 2838 4666 3239 4311 
Q 3641 3956 3641 3272 
Q 3641 2581 3239 2228 
Q 2838 1875 2053 1875 
L 1259 1875 
L 1259 0 
L 628 0 
L 628 4666 
z
" transform="scale(0.015625)"/>
      <path id="DejaVuSans-43e" d="M 1959 3097 
Q 1497 3097 1228 2736 
Q 959 2375 959 1747 
Q 959 1119 1226 758 
Q 1494 397 1959 397 
Q 2419 397 2687 759 
Q 2956 1122 2956 1747 
Q 2956 2369 2687 2733 
Q 2419 3097 1959 3097 
z
M 1959 3584 
Q 2709 3584 3137 3096 
Q 3566 2609 3566 1747 
Q 3566 888 3137 398 
Q 2709 -91 1959 -91 
Q 1206 -91 779 398 
Q 353 888 353 1747 
Q 353 2609 779 3096 
Q 1206 3584 1959 3584 
z
" transform="scale(0.015625)"/>
      <path id="DejaVuSans-437" d="M 2206 1888 
Q 2594 1813 2809 1584 
Q 3025 1356 3025 1019 
Q 3025 478 2622 193 
Q 2219 -91 1475 -91 
Q 1225 -91 961 -47 
Q 697 -3 416 84 
L 416 619 
Q 638 503 903 445 
Q 1169 388 1459 388 
Q 1931 388 2195 563 
Q 2459 738 2459 1019 
Q 2459 1294 2225 1461 
Q 1991 1628 1563 1628 
L 1100 1628 
L 1100 2103 
L 1584 2103 
Q 1947 2103 2158 2242 
Q 2369 2381 2369 2600 
Q 2369 2800 2151 2944 
Q 1934 3088 1563 3088 
Q 1341 3088 1089 3047 
Q 838 3006 534 2916 
L 534 3438 
Q 841 3513 1106 3550 
Q 1372 3588 1609 3588 
Q 2222 3588 2576 3342 
Q 2931 3097 2931 2656 
Q 2931 2366 2743 2164 
Q 2556 1963 2206 1888 
z
" transform="scale(0.015625)"/>
      <path id="DejaVuSans-43f" d="M 3603 3500 
L 3603 0 
L 3025 0 
L 3025 3041 
L 1159 3041 
L 1159 0 
L 581 0 
L 581 3500 
L 3603 3500 
z
" transform="scale(0.015625)"/>
      <path id="DejaVuSans-434" d="M 1384 459 
L 3053 459 
L 3053 3041 
L 1844 3041 
L 1844 2603 
Q 1844 1316 1475 628 
L 1384 459 
z
M 550 459 
Q 834 584 959 850 
Q 1266 1509 1266 2838 
L 1266 3500 
L 3631 3500 
L 3631 459 
L 4091 459 
L 4091 -884 
L 3631 -884 
L 3631 0 
L 794 0 
L 794 -884 
L 334 -884 
L 334 459 
L 550 459 
z
" transform="scale(0.015625)"/>
      <path id="DejaVuSans-20" transform="scale(0.015625)"/>
      <path id="DejaVuSans-435" d="M 3597 1894 
L 3597 1613 
L 953 1613 
Q 991 1019 1311 708 
Q 1631 397 2203 397 
Q 2534 397 2845 478 
Q 3156 559 3463 722 
L 3463 178 
Q 3153 47 2828 -22 
Q 2503 -91 2169 -91 
Q 1331 -91 842 396 
Q 353 884 353 1716 
Q 353 2575 817 3079 
Q 1281 3584 2069 3584 
Q 2775 3584 3186 3129 
Q 3597 2675 3597 1894 
z
M 3022 2063 
Q 3016 2534 2758 2815 
Q 2500 3097 2075 3097 
Q 1594 3097 1305 2825 
Q 1016 2553 972 2059 
L 3022 2063 
z
" transform="scale(0.015625)"/>
      <path id="DejaVuSans-440" d="M 1159 525 
L 1159 -1331 
L 581 -1331 
L 581 3500 
L 1159 3500 
L 1159 2969 
Q 1341 3281 1617 3432 
Q 1894 3584 2278 3584 
Q 2916 3584 3314 3078 
Q 3713 2572 3713 1747 
Q 3713 922 3314 415 
Q 2916 -91 2278 -91 
Q 1894 -91 1617 61 
Q 1341 213 1159 525 
z
M 3116 1747 
Q 3116 2381 2855 2742 
Q 2594 3103 2138 3103 
Q 1681 3103 1420 2742 
Q 1159 2381 1159 1747 
Q 1159 1113 1420 752 
Q 1681 391 2138 391 
Q 2594 391 2855 752 
Q 3116 1113 3116 1747 
z
" transform="scale(0.015625)"/>
      <path id="DejaVuSans-445" d="M 3513 3500 
L 2247 1797 
L 3578 0 
L 2900 0 
L 1881 1375 
L 863 0 
L 184 0 
L 1544 1831 
L 300 3500 
L 978 3500 
L 1906 2253 
L 2834 3500 
L 3513 3500 
z
" transform="scale(0.015625)"/>
      <path id="DejaVuSans-430" d="M 2194 1759 
Q 1497 1759 1228 1600 
Q 959 1441 959 1056 
Q 959 750 1161 570 
Q 1363 391 1709 391 
Q 2188 391 2477 730 
Q 2766 1069 2766 1631 
L 2766 1759 
L 2194 1759 
z
M 3341 1997 
L 3341 0 
L 2766 0 
L 2766 531 
Q 2569 213 2275 61 
Q 1981 -91 1556 -91 
Q 1019 -91 701 211 
Q 384 513 384 1019 
Q 384 1609 779 1909 
Q 1175 2209 1959 2209 
L 2766 2209 
L 2766 2266 
Q 2766 2663 2505 2880 
Q 2244 3097 1772 3097 
Q 1472 3097 1187 3025 
Q 903 2953 641 2809 
L 641 3341 
Q 956 3463 1253 3523 
Q 1550 3584 1831 3584 
Q 2591 3584 2966 3190 
Q 3341 2797 3341 1997 
z
" transform="scale(0.015625)"/>
      <path id="DejaVuSans-447" d="M 2625 0 
L 2625 1472 
L 1553 1472 
Q 1075 1472 756 1769 
Q 469 2038 469 2613 
L 469 3500 
L 1044 3500 
L 1044 2666 
Q 1044 2300 1206 2116 
Q 1372 1931 1697 1931 
L 2625 1931 
L 2625 3500 
L 3200 3500 
L 3200 0 
L 2625 0 
z
" transform="scale(0.015625)"/>
     </defs>
     <use xlink:href="#DejaVuSans-420"/>
     <use xlink:href="#DejaVuSans-43e" x="60.302734"/>
     <use xlink:href="#DejaVuSans-437" x="121.484375"/>
     <use xlink:href="#DejaVuSans-43f" x="174.658203"/>
     <use xlink:href="#DejaVuSans-43e" x="240.039062"/>
     <use xlink:href="#DejaVuSans-434" x="301.220703"/>
     <use xlink:href="#DejaVuSans-456" x="370.361328"/>
     <use xlink:href="#DejaVuSans-43b" x="398.144531"/>
     <use xlink:href="#DejaVuSans-20" x="462.060547"/>
     <use xlink:href="#DejaVuSans-441" x="493.847656"/>
     <use xlink:href="#DejaVuSans-435" x="548.828125"/>
     <use xlink:href="#DejaVuSans-440" x="610.351562"/>
     <use xlink:href="#DejaVuSans-435" x="673.828125"/>
     <use xlink:href="#DejaVuSans-434" x="735.351562"/>
     <use xlink:href="#DejaVuSans-43d" x="804.492188"/>
     <use xlink:href="#DejaVuSans-456" x="869.873047"/>
     <use xlink:href="#DejaVuSans-445" x="897.65625"/>
     <use xlink:href="#DejaVuSans-20" x="956.835938"/>
     <use xlink:href="#DejaVuSans-437" x="988.623047"/>
     <use xlink:href="#DejaVuSans-43d" x="1041.796875"/>
     <use xlink:href="#DejaVuSans-430" x="1107.177734"/>
     <use xlink:href="#DejaVuSans-447" x="1168.457031"/>
     <use xlink:href="#DejaVuSans-435" x="1227.539062"/>
     <use xlink:href="#DejaVuSans-43d" x="1289.0625"/>
     <use xlink:href="#DejaVuSans-44c" x="1354.443359"/>
    </g>
   </g>
   <g id="legend_1">
    <g id="patch_52">
     <path d="M 423.5125 67.145625 
L 595.316875 67.145625 
Q 597.716875 67.145625 597.716875 64.745625 
L 597.716875 30.718125 
Q 597.716875 28.318125 595.316875 28.318125 
L 423.5125 28.318125 
Q 421.1125 28.318125 421.1125 30.718125 
L 421.1125 64.745625 
Q 421.1125 67.145625 423.5125 67.145625 
z
" style="fill: #ffffff; opacity: 0.8; stroke: #cccccc; stroke-linejoin: miter"/>
    </g>
    <g id="patch_53">
     <path d="M 425.9125 42.23625 
L 449.9125 42.23625 
L 449.9125 33.83625 
L 425.9125 33.83625 
z
" style="fill: #1f77b4; opacity: 0.4"/>
    </g>
    <g id="text_18">
     <!-- Емпіричний розподіл -->
     <g transform="translate(459.5125 42.23625) scale(0.12 -0.12)">
      <defs>
       <path id="DejaVuSans-415" d="M 628 4666 
L 3578 4666 
L 3578 4134 
L 1259 4134 
L 1259 2753 
L 3481 2753 
L 3481 2222 
L 1259 2222 
L 1259 531 
L 3634 531 
L 3634 0 
L 628 0 
L 628 4666 
z
" transform="scale(0.015625)"/>
       <path id="DejaVuSans-43c" d="M 581 3500 
L 1422 3500 
L 2416 1156 
L 3413 3500 
L 4247 3500 
L 4247 0 
L 3669 0 
L 3669 2950 
L 2703 672 
L 2128 672 
L 1159 2950 
L 1159 0 
L 581 0 
L 581 3500 
z
" transform="scale(0.015625)"/>
       <path id="DejaVuSans-438" d="M 3578 3500 
L 3578 0 
L 3006 0 
L 3006 2809 
L 1319 0 
L 581 0 
L 581 3500 
L 1153 3500 
L 1153 697 
L 2838 3500 
L 3578 3500 
z
" transform="scale(0.015625)"/>
       <path id="DejaVuSans-439" d="M 3578 3500 
L 3578 0 
L 3006 0 
L 3006 2809 
L 1319 0 
L 581 0 
L 581 3500 
L 1153 3500 
L 1153 697 
L 2838 3500 
L 3578 3500 
z
M 1102 4833 
L 1471 4833 
Q 1505 4599 1656 4481 
Q 1808 4364 2080 4364 
Q 2349 4364 2499 4480 
Q 2649 4596 2689 4833 
L 3058 4833 
Q 3027 4386 2780 4161 
Q 2533 3936 2080 3936 
Q 1627 3936 1380 4161 
Q 1133 4386 1102 4833 
z
" transform="scale(0.015625)"/>
      </defs>
      <use xlink:href="#DejaVuSans-415"/>
      <use xlink:href="#DejaVuSans-43c" x="63.183594"/>
      <use xlink:href="#DejaVuSans-43f" x="138.623047"/>
      <use xlink:href="#DejaVuSans-456" x="204.003906"/>
      <use xlink:href="#DejaVuSans-440" x="231.787109"/>
      <use xlink:href="#DejaVuSans-438" x="295.263672"/>
      <use xlink:href="#DejaVuSans-447" x="360.253906"/>
      <use xlink:href="#DejaVuSans-43d" x="419.335938"/>
      <use xlink:href="#DejaVuSans-438" x="484.716797"/>
      <use xlink:href="#DejaVuSans-439" x="549.707031"/>
      <use xlink:href="#DejaVuSans-20" x="614.697266"/>
      <use xlink:href="#DejaVuSans-440" x="646.484375"/>
      <use xlink:href="#DejaVuSans-43e" x="709.960938"/>
      <use xlink:href="#DejaVuSans-437" x="771.142578"/>
      <use xlink:href="#DejaVuSans-43f" x="824.316406"/>
      <use xlink:href="#DejaVuSans-43e" x="889.697266"/>
      <use xlink:href="#DejaVuSans-434" x="950.878906"/>
      <use xlink:href="#DejaVuSans-456" x="1020.019531"/>
      <use xlink:href="#DejaVuSans-43b" x="1047.802734"/>
     </g>
    </g>
    <g id="line2d_17">
     <path d="M 425.9125 55.65 
L 437.9125 55.65 
L 449.9125 55.65 
" style="fill: none; stroke: #ff7f0e; stroke-width: 1.5; stroke-linecap: square"/>
    </g>
    <g id="text_19">
     <!-- $\mathcal{N}(0, 1)$ -->
     <g transform="translate(459.5125 59.85) scale(0.12 -0.12)">
      <defs>
       <path id="STIXNonUnicode-Italic-e23a" d="M 4294 800 
L 4301 800 
Q 5293 4070 5408 4378 
Q 5472 4538 5523 4614 
Q 5830 5088 6253 5088 
Q 6490 5088 6650 4931 
Q 6810 4774 6810 4550 
Q 6810 4378 6720 4272 
Q 6630 4166 6470 4166 
Q 6368 4166 6297 4224 
Q 6227 4282 6198 4349 
Q 6170 4416 6118 4473 
Q 6067 4531 6003 4531 
Q 5939 4531 5881 4508 
Q 5824 4486 5785 4457 
Q 5747 4429 5705 4371 
Q 5664 4314 5638 4275 
Q 5613 4237 5584 4163 
Q 5555 4090 5545 4058 
Q 5536 4026 5510 3952 
Q 5485 3878 5485 3866 
L 4262 -154 
L 4134 -154 
Q 3078 1280 2483 2893 
L 2470 2893 
Q 2406 2579 2358 2361 
Q 2310 2144 2214 1792 
Q 2118 1440 2028 1190 
Q 1939 941 1804 653 
Q 1670 365 1529 185 
Q 1389 6 1203 -115 
Q 1018 -237 813 -237 
Q 576 -237 416 -80 
Q 256 77 256 301 
Q 256 474 345 579 
Q 435 685 595 685 
Q 698 685 768 627 
Q 838 570 867 502 
Q 896 435 947 377 
Q 998 320 1062 320 
Q 1222 320 1369 480 
Q 1517 640 1638 928 
Q 1760 1216 1862 1542 
Q 1965 1869 2057 2288 
Q 2150 2707 2214 3033 
Q 2278 3360 2348 3741 
Q 2419 4122 2458 4294 
L 2630 4294 
Q 2682 4166 2874 3680 
Q 3066 3194 3142 3008 
Q 3219 2822 3392 2422 
Q 3565 2022 3683 1798 
Q 3802 1574 3968 1292 
Q 4134 1011 4294 800 
z
" transform="scale(0.015625)"/>
       <path id="DejaVuSans-28" d="M 1984 4856 
Q 1566 4138 1362 3434 
Q 1159 2731 1159 2009 
Q 1159 1288 1364 580 
Q 1569 -128 1984 -844 
L 1484 -844 
Q 1016 -109 783 600 
Q 550 1309 550 2009 
Q 550 2706 781 3412 
Q 1013 4119 1484 4856 
L 1984 4856 
z
" transform="scale(0.015625)"/>
       <path id="DejaVuSans-2c" d="M 750 794 
L 1409 794 
L 1409 256 
L 897 -744 
L 494 -744 
L 750 256 
L 750 794 
z
" transform="scale(0.015625)"/>
       <path id="DejaVuSans-29" d="M 513 4856 
L 1013 4856 
Q 1481 4119 1714 3412 
Q 1947 2706 1947 2009 
Q 1947 1309 1714 600 
Q 1481 -109 1013 -844 
L 513 -844 
Q 928 -128 1133 580 
Q 1338 1288 1338 2009 
Q 1338 2731 1133 3434 
Q 928 4138 513 4856 
z
" transform="scale(0.015625)"/>
      </defs>
      <use xlink:href="#STIXNonUnicode-Italic-e23a" transform="translate(0 0.5)"/>
      <use xlink:href="#DejaVuSans-28" transform="translate(95.699982 0.5)"/>
      <use xlink:href="#DejaVuSans-30" transform="translate(134.713654 0.5)"/>
      <use xlink:href="#DejaVuSans-2c" transform="translate(198.3367 0.5)"/>
      <use xlink:href="#DejaVuSans-31" transform="translate(249.606232 0.5)"/>
      <use xlink:href="#DejaVuSans-29" transform="translate(313.229279 0.5)"/>
     </g>
    </g>
   </g>
  </g>
 </g>
 <defs>
  <clipPath id="pbfadf58446">
   <rect x="45.716875" y="22.318125" width="558" height="277.2"/>
  </clipPath>
 </defs>
</svg>
