<?xml version="1.0" encoding="utf-8" standalone="no"?>
<!DOCTYPE svg PUBLIC "-//W3C//DTD SVG 1.1//EN"
  "http://www.w3.org/Graphics/SVG/1.1/DTD/svg11.dtd">
<svg xmlns:xlink="http://www.w3.org/1999/xlink" width="1277.628125pt" height="323.39625pt" viewBox="0 0 1277.628125 323.39625" xmlns="http://www.w3.org/2000/svg" version="1.1">
 <metadata>
  <rdf:RDF xmlns:dc="http://purl.org/dc/elements/1.1/" xmlns:cc="http://creativecommons.org/ns#" xmlns:rdf="http://www.w3.org/1999/02/22-rdf-syntax-ns#">
   <cc:Work>
    <dc:type rdf:resource="http://purl.org/dc/dcmitype/StillImage"/>
    <dc:date>2024-10-15T14:00:23.713480</dc:date>
    <dc:format>image/svg+xml</dc:format>
    <dc:creator>
     <cc:Agent>
      <dc:title>Matplotlib v3.7.2, https://matplotlib.org/</dc:title>
     </cc:Agent>
    </dc:creator>
   </cc:Work>
  </rdf:RDF>
 </metadata>
 <defs>
  <style type="text/css">*{stroke-linejoin: round; stroke-linecap: butt}</style>
 </defs>
 <g id="figure_1">
  <g id="patch_1">
   <path d="M 0 323.39625 
L 1277.628125 323.39625 
L 1277.628125 0 
L 0 0 
z
" style="fill: #ffffff"/>
  </g>
  <g id="axes_1">
   <g id="patch_2">
    <path d="M 42.828125 299.518125 
L 600.828125 299.518125 
L 600.828125 22.318125 
L 42.828125 22.318125 
z
" style="fill: #ffffff"/>
   </g>
   <g id="patch_3">
    <path d="M 87.940189 299.518125 
L 95.557757 299.518125 
L 95.557757 298.999461 
L 87.940189 298.999461 
z
" clip-path="url(#pbf7dd810b2)" style="fill: #1f77b4; opacity: 0.6"/>
   </g>
   <g id="patch_4">
    <path d="M 95.557757 299.518125 
L 103.175324 299.518125 
L 103.175324 297.962133 
L 95.557757 297.962133 
z
" clip-path="url(#pbf7dd810b2)" style="fill: #1f77b4; opacity: 0.6"/>
   </g>
   <g id="patch_5">
    <path d="M 103.175324 299.518125 
L 110.792891 299.518125 
L 110.792891 298.480797 
L 103.175324 298.480797 
z
" clip-path="url(#pbf7dd810b2)" style="fill: #1f77b4; opacity: 0.6"/>
   </g>
   <g id="patch_6">
    <path d="M 110.792891 299.518125 
L 118.410458 299.518125 
L 118.410458 298.999461 
L 110.792891 298.999461 
z
" clip-path="url(#pbf7dd810b2)" style="fill: #1f77b4; opacity: 0.6"/>
   </g>
   <g id="patch_7">
    <path d="M 118.410458 299.518125 
L 126.028025 299.518125 
L 126.028025 297.962133 
L 118.410458 297.962133 
z
" clip-path="url(#pbf7dd810b2)" style="fill: #1f77b4; opacity: 0.6"/>
   </g>
   <g id="patch_8">
    <path d="M 126.028025 299.518125 
L 133.645592 299.518125 
L 133.645592 296.406141 
L 126.028025 296.406141 
z
" clip-path="url(#pbf7dd810b2)" style="fill: #1f77b4; opacity: 0.6"/>
   </g>
   <g id="patch_9">
    <path d="M 133.645592 299.518125 
L 141.26316 299.518125 
L 141.26316 294.850149 
L 133.645592 294.850149 
z
" clip-path="url(#pbf7dd810b2)" style="fill: #1f77b4; opacity: 0.6"/>
   </g>
   <g id="patch_10">
    <path d="M 141.26316 299.518125 
L 148.880727 299.518125 
L 148.880727 292.256828 
L 141.26316 292.256828 
z
" clip-path="url(#pbf7dd810b2)" style="fill: #1f77b4; opacity: 0.6"/>
   </g>
   <g id="patch_11">
    <path d="M 148.880727 299.518125 
L 156.498294 299.518125 
L 156.498294 293.81282 
L 148.880727 293.81282 
z
" clip-path="url(#pbf7dd810b2)" style="fill: #1f77b4; opacity: 0.6"/>
   </g>
   <g id="patch_12">
    <path d="M 156.498294 299.518125 
L 164.115861 299.518125 
L 164.115861 284.476868 
L 156.498294 284.476868 
z
" clip-path="url(#pbf7dd810b2)" style="fill: #1f77b4; opacity: 0.6"/>
   </g>
   <g id="patch_13">
    <path d="M 164.115861 299.518125 
L 171.733428 299.518125 
L 171.733428 282.402211 
L 164.115861 282.402211 
z
" clip-path="url(#pbf7dd810b2)" style="fill: #1f77b4; opacity: 0.6"/>
   </g>
   <g id="patch_14">
    <path d="M 171.733428 299.518125 
L 179.350995 299.518125 
L 179.350995 276.696907 
L 171.733428 276.696907 
z
" clip-path="url(#pbf7dd810b2)" style="fill: #1f77b4; opacity: 0.6"/>
   </g>
   <g id="patch_15">
    <path d="M 179.350995 299.518125 
L 186.968563 299.518125 
L 186.968563 273.584923 
L 179.350995 273.584923 
z
" clip-path="url(#pbf7dd810b2)" style="fill: #1f77b4; opacity: 0.6"/>
   </g>
   <g id="patch_16">
    <path d="M 186.968563 299.518125 
L 194.58613 299.518125 
L 194.58613 261.136986 
L 186.968563 261.136986 
z
" clip-path="url(#pbf7dd810b2)" style="fill: #1f77b4; opacity: 0.6"/>
   </g>
   <g id="patch_17">
    <path d="M 194.58613 299.518125 
L 202.203697 299.518125 
L 202.203697 240.909088 
L 194.58613 240.909088 
z
" clip-path="url(#pbf7dd810b2)" style="fill: #1f77b4; opacity: 0.6"/>
   </g>
   <g id="patch_18">
    <path d="M 202.203697 299.518125 
L 209.821264 299.518125 
L 209.821264 245.577064 
L 202.203697 245.577064 
z
" clip-path="url(#pbf7dd810b2)" style="fill: #1f77b4; opacity: 0.6"/>
   </g>
   <g id="patch_19">
    <path d="M 209.821264 299.518125 
L 217.438831 299.518125 
L 217.438831 222.755846 
L 209.821264 222.755846 
z
" clip-path="url(#pbf7dd810b2)" style="fill: #1f77b4; opacity: 0.6"/>
   </g>
   <g id="patch_20">
    <path d="M 217.438831 299.518125 
L 225.056399 299.518125 
L 225.056399 218.08787 
L 217.438831 218.08787 
z
" clip-path="url(#pbf7dd810b2)" style="fill: #1f77b4; opacity: 0.6"/>
   </g>
   <g id="patch_21">
    <path d="M 225.056399 299.518125 
L 232.673966 299.518125 
L 232.673966 182.818714 
L 225.056399 182.818714 
z
" clip-path="url(#pbf7dd810b2)" style="fill: #1f77b4; opacity: 0.6"/>
   </g>
   <g id="patch_22">
    <path d="M 232.673966 299.518125 
L 240.291533 299.518125 
L 240.291533 173.482762 
L 232.673966 173.482762 
z
" clip-path="url(#pbf7dd810b2)" style="fill: #1f77b4; opacity: 0.6"/>
   </g>
   <g id="patch_23">
    <path d="M 240.291533 299.518125 
L 247.9091 299.518125 
L 247.9091 157.404176 
L 240.291533 157.404176 
z
" clip-path="url(#pbf7dd810b2)" style="fill: #1f77b4; opacity: 0.6"/>
   </g>
   <g id="patch_24">
    <path d="M 247.9091 299.518125 
L 255.526667 299.518125 
L 255.526667 129.914982 
L 247.9091 129.914982 
z
" clip-path="url(#pbf7dd810b2)" style="fill: #1f77b4; opacity: 0.6"/>
   </g>
   <g id="patch_25">
    <path d="M 255.526667 299.518125 
L 263.144234 299.518125 
L 263.144234 126.284333 
L 255.526667 126.284333 
z
" clip-path="url(#pbf7dd810b2)" style="fill: #1f77b4; opacity: 0.6"/>
   </g>
   <g id="patch_26">
    <path d="M 263.144234 299.518125 
L 270.761802 299.518125 
L 270.761802 101.907123 
L 263.144234 101.907123 
z
" clip-path="url(#pbf7dd810b2)" style="fill: #1f77b4; opacity: 0.6"/>
   </g>
   <g id="patch_27">
    <path d="M 270.761802 299.518125 
L 278.379369 299.518125 
L 278.379369 85.309874 
L 270.761802 85.309874 
z
" clip-path="url(#pbf7dd810b2)" style="fill: #1f77b4; opacity: 0.6"/>
   </g>
   <g id="patch_28">
    <path d="M 278.379369 299.518125 
L 285.996936 299.518125 
L 285.996936 67.156632 
L 278.379369 67.156632 
z
" clip-path="url(#pbf7dd810b2)" style="fill: #1f77b4; opacity: 0.6"/>
   </g>
   <g id="patch_29">
    <path d="M 285.996936 299.518125 
L 293.614503 299.518125 
L 293.614503 52.115375 
L 285.996936 52.115375 
z
" clip-path="url(#pbf7dd810b2)" style="fill: #1f77b4; opacity: 0.6"/>
   </g>
   <g id="patch_30">
    <path d="M 293.614503 299.518125 
L 301.23207 299.518125 
L 301.23207 41.742094 
L 293.614503 41.742094 
z
" clip-path="url(#pbf7dd810b2)" style="fill: #1f77b4; opacity: 0.6"/>
   </g>
   <g id="patch_31">
    <path d="M 301.23207 299.518125 
L 308.849637 299.518125 
L 308.849637 35.518125 
L 301.23207 35.518125 
z
" clip-path="url(#pbf7dd810b2)" style="fill: #1f77b4; opacity: 0.6"/>
   </g>
   <g id="patch_32">
    <path d="M 308.849637 299.518125 
L 316.467205 299.518125 
L 316.467205 36.555453 
L 308.849637 36.555453 
z
" clip-path="url(#pbf7dd810b2)" style="fill: #1f77b4; opacity: 0.6"/>
   </g>
   <g id="patch_33">
    <path d="M 316.467205 299.518125 
L 324.084772 299.518125 
L 324.084772 53.671367 
L 316.467205 53.671367 
z
" clip-path="url(#pbf7dd810b2)" style="fill: #1f77b4; opacity: 0.6"/>
   </g>
   <g id="patch_34">
    <path d="M 324.084772 299.518125 
L 331.702339 299.518125 
L 331.702339 63.525984 
L 324.084772 63.525984 
z
" clip-path="url(#pbf7dd810b2)" style="fill: #1f77b4; opacity: 0.6"/>
   </g>
   <g id="patch_35">
    <path d="M 331.702339 299.518125 
L 339.319906 299.518125 
L 339.319906 75.973921 
L 331.702339 75.973921 
z
" clip-path="url(#pbf7dd810b2)" style="fill: #1f77b4; opacity: 0.6"/>
   </g>
   <g id="patch_36">
    <path d="M 339.319906 299.518125 
L 346.937473 299.518125 
L 346.937473 83.753881 
L 339.319906 83.753881 
z
" clip-path="url(#pbf7dd810b2)" style="fill: #1f77b4; opacity: 0.6"/>
   </g>
   <g id="patch_37">
    <path d="M 346.937473 299.518125 
L 354.555041 299.518125 
L 354.555041 85.828538 
L 346.937473 85.828538 
z
" clip-path="url(#pbf7dd810b2)" style="fill: #1f77b4; opacity: 0.6"/>
   </g>
   <g id="patch_38">
    <path d="M 354.555041 299.518125 
L 362.172608 299.518125 
L 362.172608 102.944451 
L 354.555041 102.944451 
z
" clip-path="url(#pbf7dd810b2)" style="fill: #1f77b4; opacity: 0.6"/>
   </g>
   <g id="patch_39">
    <path d="M 362.172608 299.518125 
L 369.790175 299.518125 
L 369.790175 121.097693 
L 362.172608 121.097693 
z
" clip-path="url(#pbf7dd810b2)" style="fill: #1f77b4; opacity: 0.6"/>
   </g>
   <g id="patch_40">
    <path d="M 369.790175 299.518125 
L 377.407742 299.518125 
L 377.407742 153.254864 
L 369.790175 153.254864 
z
" clip-path="url(#pbf7dd810b2)" style="fill: #1f77b4; opacity: 0.6"/>
   </g>
   <g id="patch_41">
    <path d="M 377.407742 299.518125 
L 385.025309 299.518125 
L 385.025309 167.777457 
L 377.407742 167.777457 
z
" clip-path="url(#pbf7dd810b2)" style="fill: #1f77b4; opacity: 0.6"/>
   </g>
   <g id="patch_42">
    <path d="M 385.025309 299.518125 
L 392.642876 299.518125 
L 392.642876 172.445433 
L 385.025309 172.445433 
z
" clip-path="url(#pbf7dd810b2)" style="fill: #1f77b4; opacity: 0.6"/>
   </g>
   <g id="patch_43">
    <path d="M 392.642876 299.518125 
L 400.260444 299.518125 
L 400.260444 208.751917 
L 392.642876 208.751917 
z
" clip-path="url(#pbf7dd810b2)" style="fill: #1f77b4; opacity: 0.6"/>
   </g>
   <g id="patch_44">
    <path d="M 400.260444 299.518125 
L 407.878011 299.518125 
L 407.878011 217.050542 
L 400.260444 217.050542 
z
" clip-path="url(#pbf7dd810b2)" style="fill: #1f77b4; opacity: 0.6"/>
   </g>
   <g id="patch_45">
    <path d="M 407.878011 299.518125 
L 415.495578 299.518125 
L 415.495578 228.461151 
L 407.878011 228.461151 
z
" clip-path="url(#pbf7dd810b2)" style="fill: #1f77b4; opacity: 0.6"/>
   </g>
   <g id="patch_46">
    <path d="M 415.495578 299.518125 
L 423.113145 299.518125 
L 423.113145 241.946416 
L 415.495578 241.946416 
z
" clip-path="url(#pbf7dd810b2)" style="fill: #1f77b4; opacity: 0.6"/>
   </g>
   <g id="patch_47">
    <path d="M 423.113145 299.518125 
L 430.730712 299.518125 
L 430.730712 257.506337 
L 423.113145 257.506337 
z
" clip-path="url(#pbf7dd810b2)" style="fill: #1f77b4; opacity: 0.6"/>
   </g>
   <g id="patch_48">
    <path d="M 430.730712 299.518125 
L 438.348279 299.518125 
L 438.348279 272.028931 
L 430.730712 272.028931 
z
" clip-path="url(#pbf7dd810b2)" style="fill: #1f77b4; opacity: 0.6"/>
   </g>
   <g id="patch_49">
    <path d="M 438.348279 299.518125 
L 445.965847 299.518125 
L 445.965847 275.659579 
L 438.348279 275.659579 
z
" clip-path="url(#pbf7dd810b2)" style="fill: #1f77b4; opacity: 0.6"/>
   </g>
   <g id="patch_50">
    <path d="M 445.965847 299.518125 
L 453.583414 299.518125 
L 453.583414 286.03286 
L 445.965847 286.03286 
z
" clip-path="url(#pbf7dd810b2)" style="fill: #1f77b4; opacity: 0.6"/>
   </g>
   <g id="patch_51">
    <path d="M 453.583414 299.518125 
L 461.200981 299.518125 
L 461.200981 285.514196 
L 453.583414 285.514196 
z
" clip-path="url(#pbf7dd810b2)" style="fill: #1f77b4; opacity: 0.6"/>
   </g>
   <g id="patch_52">
    <path d="M 461.200981 299.518125 
L 468.818548 299.518125 
L 468.818548 290.700836 
L 461.200981 290.700836 
z
" clip-path="url(#pbf7dd810b2)" style="fill: #1f77b4; opacity: 0.6"/>
   </g>
   <g id="patch_53">
    <path d="M 468.818548 299.518125 
L 476.436115 299.518125 
L 476.436115 288.62618 
L 468.818548 288.62618 
z
" clip-path="url(#pbf7dd810b2)" style="fill: #1f77b4; opacity: 0.6"/>
   </g>
   <g id="patch_54">
    <path d="M 476.436115 299.518125 
L 484.053683 299.518125 
L 484.053683 297.443469 
L 476.436115 297.443469 
z
" clip-path="url(#pbf7dd810b2)" style="fill: #1f77b4; opacity: 0.6"/>
   </g>
   <g id="patch_55">
    <path d="M 484.053683 299.518125 
L 491.67125 299.518125 
L 491.67125 298.480797 
L 484.053683 298.480797 
z
" clip-path="url(#pbf7dd810b2)" style="fill: #1f77b4; opacity: 0.6"/>
   </g>
   <g id="patch_56">
    <path d="M 491.67125 299.518125 
L 499.288817 299.518125 
L 499.288817 297.962133 
L 491.67125 297.962133 
z
" clip-path="url(#pbf7dd810b2)" style="fill: #1f77b4; opacity: 0.6"/>
   </g>
   <g id="patch_57">
    <path d="M 499.288817 299.518125 
L 506.906384 299.518125 
L 506.906384 298.480797 
L 499.288817 298.480797 
z
" clip-path="url(#pbf7dd810b2)" style="fill: #1f77b4; opacity: 0.6"/>
   </g>
   <g id="patch_58">
    <path d="M 506.906384 299.518125 
L 514.523951 299.518125 
L 514.523951 298.999461 
L 506.906384 298.999461 
z
" clip-path="url(#pbf7dd810b2)" style="fill: #1f77b4; opacity: 0.6"/>
   </g>
   <g id="patch_59">
    <path d="M 514.523951 299.518125 
L 522.141518 299.518125 
L 522.141518 298.480797 
L 514.523951 298.480797 
z
" clip-path="url(#pbf7dd810b2)" style="fill: #1f77b4; opacity: 0.6"/>
   </g>
   <g id="patch_60">
    <path d="M 522.141518 299.518125 
L 529.759086 299.518125 
L 529.759086 298.999461 
L 522.141518 298.999461 
z
" clip-path="url(#pbf7dd810b2)" style="fill: #1f77b4; opacity: 0.6"/>
   </g>
   <g id="patch_61">
    <path d="M 529.759086 299.518125 
L 537.376653 299.518125 
L 537.376653 298.999461 
L 529.759086 298.999461 
z
" clip-path="url(#pbf7dd810b2)" style="fill: #1f77b4; opacity: 0.6"/>
   </g>
   <g id="patch_62">
    <path d="M 537.376653 299.518125 
L 544.99422 299.518125 
L 544.99422 298.999461 
L 537.376653 298.999461 
z
" clip-path="url(#pbf7dd810b2)" style="fill: #1f77b4; opacity: 0.6"/>
   </g>
   <g id="patch_63">
    <path d="M 544.99422 299.518125 
L 552.611787 299.518125 
L 552.611787 299.518125 
L 544.99422 299.518125 
z
" clip-path="url(#pbf7dd810b2)" style="fill: #1f77b4; opacity: 0.6"/>
   </g>
   <g id="patch_64">
    <path d="M 552.611787 299.518125 
L 560.229354 299.518125 
L 560.229354 299.518125 
L 552.611787 299.518125 
z
" clip-path="url(#pbf7dd810b2)" style="fill: #1f77b4; opacity: 0.6"/>
   </g>
   <g id="patch_65">
    <path d="M 560.229354 299.518125 
L 567.846921 299.518125 
L 567.846921 299.518125 
L 560.229354 299.518125 
z
" clip-path="url(#pbf7dd810b2)" style="fill: #1f77b4; opacity: 0.6"/>
   </g>
   <g id="patch_66">
    <path d="M 567.846921 299.518125 
L 575.464489 299.518125 
L 575.464489 298.999461 
L 567.846921 298.999461 
z
" clip-path="url(#pbf7dd810b2)" style="fill: #1f77b4; opacity: 0.6"/>
   </g>
   <g id="matplotlib.axis_1">
    <g id="xtick_1">
     <g id="line2d_1">
      <defs>
       <path id="m70a4614801" d="M 0 0 
L 0 3.5 
" style="stroke: #000000; stroke-width: 0.8"/>
      </defs>
      <g>
       <use xlink:href="#m70a4614801" x="83.285316" y="299.518125" style="stroke: #000000; stroke-width: 0.8"/>
      </g>
     </g>
     <g id="text_1">
      <!-- −7.5 -->
      <g transform="translate(71.14391 314.116563) scale(0.1 -0.1)">
       <defs>
        <path id="DejaVuSans-2212" d="M 678 2272 
L 4684 2272 
L 4684 1741 
L 678 1741 
L 678 2272 
z
" transform="scale(0.015625)"/>
        <path id="DejaVuSans-37" d="M 525 4666 
L 3525 4666 
L 3525 4397 
L 1831 0 
L 1172 0 
L 2766 4134 
L 525 4134 
L 525 4666 
z
" transform="scale(0.015625)"/>
        <path id="DejaVuSans-2e" d="M 684 794 
L 1344 794 
L 1344 0 
L 684 0 
L 684 794 
z
" transform="scale(0.015625)"/>
        <path id="DejaVuSans-35" d="M 691 4666 
L 3169 4666 
L 3169 4134 
L 1269 4134 
L 1269 2991 
Q 1406 3038 1543 3061 
Q 1681 3084 1819 3084 
Q 2600 3084 3056 2656 
Q 3513 2228 3513 1497 
Q 3513 744 3044 326 
Q 2575 -91 1722 -91 
Q 1428 -91 1123 -41 
Q 819 9 494 109 
L 494 744 
Q 775 591 1075 516 
Q 1375 441 1709 441 
Q 2250 441 2565 725 
Q 2881 1009 2881 1497 
Q 2881 1984 2565 2268 
Q 2250 2553 1709 2553 
Q 1456 2553 1204 2497 
Q 953 2441 691 2322 
L 691 4666 
z
" transform="scale(0.015625)"/>
       </defs>
       <use xlink:href="#DejaVuSans-2212"/>
       <use xlink:href="#DejaVuSans-37" x="83.789062"/>
       <use xlink:href="#DejaVuSans-2e" x="147.412109"/>
       <use xlink:href="#DejaVuSans-35" x="179.199219"/>
      </g>
     </g>
    </g>
    <g id="xtick_2">
     <g id="line2d_2">
      <g>
       <use xlink:href="#m70a4614801" x="158.753091" y="299.518125" style="stroke: #000000; stroke-width: 0.8"/>
      </g>
     </g>
     <g id="text_2">
      <!-- −5.0 -->
      <g transform="translate(146.611685 314.116563) scale(0.1 -0.1)">
       <defs>
        <path id="DejaVuSans-30" d="M 2034 4250 
Q 1547 4250 1301 3770 
Q 1056 3291 1056 2328 
Q 1056 1369 1301 889 
Q 1547 409 2034 409 
Q 2525 409 2770 889 
Q 3016 1369 3016 2328 
Q 3016 3291 2770 3770 
Q 2525 4250 2034 4250 
z
M 2034 4750 
Q 2819 4750 3233 4129 
Q 3647 3509 3647 2328 
Q 3647 1150 3233 529 
Q 2819 -91 2034 -91 
Q 1250 -91 836 529 
Q 422 1150 422 2328 
Q 422 3509 836 4129 
Q 1250 4750 2034 4750 
z
" transform="scale(0.015625)"/>
       </defs>
       <use xlink:href="#DejaVuSans-2212"/>
       <use xlink:href="#DejaVuSans-35" x="83.789062"/>
       <use xlink:href="#DejaVuSans-2e" x="147.412109"/>
       <use xlink:href="#DejaVuSans-30" x="179.199219"/>
      </g>
     </g>
    </g>
    <g id="xtick_3">
     <g id="line2d_3">
      <g>
       <use xlink:href="#m70a4614801" x="234.220866" y="299.518125" style="stroke: #000000; stroke-width: 0.8"/>
      </g>
     </g>
     <g id="text_3">
      <!-- −2.5 -->
      <g transform="translate(222.07946 314.116563) scale(0.1 -0.1)">
       <defs>
        <path id="DejaVuSans-32" d="M 1228 531 
L 3431 531 
L 3431 0 
L 469 0 
L 469 531 
Q 828 903 1448 1529 
Q 2069 2156 2228 2338 
Q 2531 2678 2651 2914 
Q 2772 3150 2772 3378 
Q 2772 3750 2511 3984 
Q 2250 4219 1831 4219 
Q 1534 4219 1204 4116 
Q 875 4013 500 3803 
L 500 4441 
Q 881 4594 1212 4672 
Q 1544 4750 1819 4750 
Q 2544 4750 2975 4387 
Q 3406 4025 3406 3419 
Q 3406 3131 3298 2873 
Q 3191 2616 2906 2266 
Q 2828 2175 2409 1742 
Q 1991 1309 1228 531 
z
" transform="scale(0.015625)"/>
       </defs>
       <use xlink:href="#DejaVuSans-2212"/>
       <use xlink:href="#DejaVuSans-32" x="83.789062"/>
       <use xlink:href="#DejaVuSans-2e" x="147.412109"/>
       <use xlink:href="#DejaVuSans-35" x="179.199219"/>
      </g>
     </g>
    </g>
    <g id="xtick_4">
     <g id="line2d_4">
      <g>
       <use xlink:href="#m70a4614801" x="309.688642" y="299.518125" style="stroke: #000000; stroke-width: 0.8"/>
      </g>
     </g>
     <g id="text_4">
      <!-- 0.0 -->
      <g transform="translate(301.737079 314.116563) scale(0.1 -0.1)">
       <use xlink:href="#DejaVuSans-30"/>
       <use xlink:href="#DejaVuSans-2e" x="63.623047"/>
       <use xlink:href="#DejaVuSans-30" x="95.410156"/>
      </g>
     </g>
    </g>
    <g id="xtick_5">
     <g id="line2d_5">
      <g>
       <use xlink:href="#m70a4614801" x="385.156417" y="299.518125" style="stroke: #000000; stroke-width: 0.8"/>
      </g>
     </g>
     <g id="text_5">
      <!-- 2.5 -->
      <g transform="translate(377.204854 314.116563) scale(0.1 -0.1)">
       <use xlink:href="#DejaVuSans-32"/>
       <use xlink:href="#DejaVuSans-2e" x="63.623047"/>
       <use xlink:href="#DejaVuSans-35" x="95.410156"/>
      </g>
     </g>
    </g>
    <g id="xtick_6">
     <g id="line2d_6">
      <g>
       <use xlink:href="#m70a4614801" x="460.624192" y="299.518125" style="stroke: #000000; stroke-width: 0.8"/>
      </g>
     </g>
     <g id="text_6">
      <!-- 5.0 -->
      <g transform="translate(452.672629 314.116563) scale(0.1 -0.1)">
       <use xlink:href="#DejaVuSans-35"/>
       <use xlink:href="#DejaVuSans-2e" x="63.623047"/>
       <use xlink:href="#DejaVuSans-30" x="95.410156"/>
      </g>
     </g>
    </g>
    <g id="xtick_7">
     <g id="line2d_7">
      <g>
       <use xlink:href="#m70a4614801" x="536.091967" y="299.518125" style="stroke: #000000; stroke-width: 0.8"/>
      </g>
     </g>
     <g id="text_7">
      <!-- 7.5 -->
      <g transform="translate(528.140404 314.116563) scale(0.1 -0.1)">
       <use xlink:href="#DejaVuSans-37"/>
       <use xlink:href="#DejaVuSans-2e" x="63.623047"/>
       <use xlink:href="#DejaVuSans-35" x="95.410156"/>
      </g>
     </g>
    </g>
   </g>
   <g id="matplotlib.axis_2">
    <g id="ytick_1">
     <g id="line2d_8">
      <defs>
       <path id="me81153e034" d="M 0 0 
L -3.5 0 
" style="stroke: #000000; stroke-width: 0.8"/>
      </defs>
      <g>
       <use xlink:href="#me81153e034" x="42.828125" y="299.518125" style="stroke: #000000; stroke-width: 0.8"/>
      </g>
     </g>
     <g id="text_8">
      <!-- 0.000 -->
      <g transform="translate(7.2 303.317344) scale(0.1 -0.1)">
       <use xlink:href="#DejaVuSans-30"/>
       <use xlink:href="#DejaVuSans-2e" x="63.623047"/>
       <use xlink:href="#DejaVuSans-30" x="95.410156"/>
       <use xlink:href="#DejaVuSans-30" x="159.033203"/>
       <use xlink:href="#DejaVuSans-30" x="222.65625"/>
      </g>
     </g>
    </g>
    <g id="ytick_2">
     <g id="line2d_9">
      <g>
       <use xlink:href="#me81153e034" x="42.828125" y="266.797551" style="stroke: #000000; stroke-width: 0.8"/>
      </g>
     </g>
     <g id="text_9">
      <!-- 0.025 -->
      <g transform="translate(7.2 270.59677) scale(0.1 -0.1)">
       <use xlink:href="#DejaVuSans-30"/>
       <use xlink:href="#DejaVuSans-2e" x="63.623047"/>
       <use xlink:href="#DejaVuSans-30" x="95.410156"/>
       <use xlink:href="#DejaVuSans-32" x="159.033203"/>
       <use xlink:href="#DejaVuSans-35" x="222.65625"/>
      </g>
     </g>
    </g>
    <g id="ytick_3">
     <g id="line2d_10">
      <g>
       <use xlink:href="#me81153e034" x="42.828125" y="234.076978" style="stroke: #000000; stroke-width: 0.8"/>
      </g>
     </g>
     <g id="text_10">
      <!-- 0.050 -->
      <g transform="translate(7.2 237.876197) scale(0.1 -0.1)">
       <use xlink:href="#DejaVuSans-30"/>
       <use xlink:href="#DejaVuSans-2e" x="63.623047"/>
       <use xlink:href="#DejaVuSans-30" x="95.410156"/>
       <use xlink:href="#DejaVuSans-35" x="159.033203"/>
       <use xlink:href="#DejaVuSans-30" x="222.65625"/>
      </g>
     </g>
    </g>
    <g id="ytick_4">
     <g id="line2d_11">
      <g>
       <use xlink:href="#me81153e034" x="42.828125" y="201.356404" style="stroke: #000000; stroke-width: 0.8"/>
      </g>
     </g>
     <g id="text_11">
      <!-- 0.075 -->
      <g transform="translate(7.2 205.155623) scale(0.1 -0.1)">
       <use xlink:href="#DejaVuSans-30"/>
       <use xlink:href="#DejaVuSans-2e" x="63.623047"/>
       <use xlink:href="#DejaVuSans-30" x="95.410156"/>
       <use xlink:href="#DejaVuSans-37" x="159.033203"/>
       <use xlink:href="#DejaVuSans-35" x="222.65625"/>
      </g>
     </g>
    </g>
    <g id="ytick_5">
     <g id="line2d_12">
      <g>
       <use xlink:href="#me81153e034" x="42.828125" y="168.635831" style="stroke: #000000; stroke-width: 0.8"/>
      </g>
     </g>
     <g id="text_12">
      <!-- 0.100 -->
      <g transform="translate(7.2 172.435049) scale(0.1 -0.1)">
       <defs>
        <path id="DejaVuSans-31" d="M 794 531 
L 1825 531 
L 1825 4091 
L 703 3866 
L 703 4441 
L 1819 4666 
L 2450 4666 
L 2450 531 
L 3481 531 
L 3481 0 
L 794 0 
L 794 531 
z
" transform="scale(0.015625)"/>
       </defs>
       <use xlink:href="#DejaVuSans-30"/>
       <use xlink:href="#DejaVuSans-2e" x="63.623047"/>
       <use xlink:href="#DejaVuSans-31" x="95.410156"/>
       <use xlink:href="#DejaVuSans-30" x="159.033203"/>
       <use xlink:href="#DejaVuSans-30" x="222.65625"/>
      </g>
     </g>
    </g>
    <g id="ytick_6">
     <g id="line2d_13">
      <g>
       <use xlink:href="#me81153e034" x="42.828125" y="135.915257" style="stroke: #000000; stroke-width: 0.8"/>
      </g>
     </g>
     <g id="text_13">
      <!-- 0.125 -->
      <g transform="translate(7.2 139.714476) scale(0.1 -0.1)">
       <use xlink:href="#DejaVuSans-30"/>
       <use xlink:href="#DejaVuSans-2e" x="63.623047"/>
       <use xlink:href="#DejaVuSans-31" x="95.410156"/>
       <use xlink:href="#DejaVuSans-32" x="159.033203"/>
       <use xlink:href="#DejaVuSans-35" x="222.65625"/>
      </g>
     </g>
    </g>
    <g id="ytick_7">
     <g id="line2d_14">
      <g>
       <use xlink:href="#me81153e034" x="42.828125" y="103.194683" style="stroke: #000000; stroke-width: 0.8"/>
      </g>
     </g>
     <g id="text_14">
      <!-- 0.150 -->
      <g transform="translate(7.2 106.993902) scale(0.1 -0.1)">
       <use xlink:href="#DejaVuSans-30"/>
       <use xlink:href="#DejaVuSans-2e" x="63.623047"/>
       <use xlink:href="#DejaVuSans-31" x="95.410156"/>
       <use xlink:href="#DejaVuSans-35" x="159.033203"/>
       <use xlink:href="#DejaVuSans-30" x="222.65625"/>
      </g>
     </g>
    </g>
    <g id="ytick_8">
     <g id="line2d_15">
      <g>
       <use xlink:href="#me81153e034" x="42.828125" y="70.47411" style="stroke: #000000; stroke-width: 0.8"/>
      </g>
     </g>
     <g id="text_15">
      <!-- 0.175 -->
      <g transform="translate(7.2 74.273329) scale(0.1 -0.1)">
       <use xlink:href="#DejaVuSans-30"/>
       <use xlink:href="#DejaVuSans-2e" x="63.623047"/>
       <use xlink:href="#DejaVuSans-31" x="95.410156"/>
       <use xlink:href="#DejaVuSans-37" x="159.033203"/>
       <use xlink:href="#DejaVuSans-35" x="222.65625"/>
      </g>
     </g>
    </g>
    <g id="ytick_9">
     <g id="line2d_16">
      <g>
       <use xlink:href="#me81153e034" x="42.828125" y="37.753536" style="stroke: #000000; stroke-width: 0.8"/>
      </g>
     </g>
     <g id="text_16">
      <!-- 0.200 -->
      <g transform="translate(7.2 41.552755) scale(0.1 -0.1)">
       <use xlink:href="#DejaVuSans-30"/>
       <use xlink:href="#DejaVuSans-2e" x="63.623047"/>
       <use xlink:href="#DejaVuSans-32" x="95.410156"/>
       <use xlink:href="#DejaVuSans-30" x="159.033203"/>
       <use xlink:href="#DejaVuSans-30" x="222.65625"/>
      </g>
     </g>
    </g>
   </g>
   <g id="line2d_17">
    <path d="M 68.191761 299.430545 
L 88.497805 299.200352 
L 101.068214 298.851341 
L 110.737758 298.373231 
L 118.473394 297.786044 
L 125.242075 297.063149 
L 131.527279 296.162151 
L 136.845529 295.18276 
L 141.680301 294.083134 
L 146.515074 292.748154 
L 150.866369 291.313574 
L 155.217664 289.626516 
L 159.085482 287.888609 
L 162.9533 285.90136 
L 166.821118 283.639833 
L 170.205458 281.415971 
L 173.589799 278.94539 
L 176.97414 276.210976 
L 180.35848 273.195961 
L 183.742821 269.884189 
L 187.127162 266.260408 
L 190.511502 262.310595 
L 193.895843 258.022284 
L 197.280184 253.384919 
L 200.664524 248.390218 
L 204.048865 243.032528 
L 207.916683 236.461718 
L 211.784501 229.414855 
L 215.652319 221.899686 
L 219.520137 213.930871 
L 223.871432 204.451463 
L 228.706204 193.331359 
L 234.024454 180.476178 
L 239.826181 165.859171 
L 248.045294 144.497865 
L 260.132225 113.112632 
L 265.450474 99.91138 
L 269.801769 89.632754 
L 273.669587 81.007633 
L 277.053928 73.931159 
L 280.438269 67.356178 
L 283.339132 62.162534 
L 286.239995 57.412279 
L 289.140859 53.136413 
L 291.558245 49.956059 
L 293.975631 47.139591 
L 296.393017 44.70019 
L 298.326926 43.027943 
L 300.260835 41.609486 
L 302.194744 40.449138 
L 304.128653 39.550448 
L 306.062562 38.916167 
L 307.996471 38.548245 
L 309.93038 38.447813 
L 311.864289 38.615179 
L 313.798198 39.049828 
L 315.732107 39.750426 
L 317.666016 40.71482 
L 319.599925 41.940058 
L 321.533834 43.422398 
L 323.467743 45.157328 
L 325.885129 47.673117 
L 328.302515 50.563469 
L 330.719901 53.814878 
L 333.137288 57.412279 
L 336.038151 62.162534 
L 338.939014 67.356178 
L 342.323355 73.931159 
L 345.707696 81.007633 
L 349.575514 89.632754 
L 353.926809 99.91138 
L 359.245058 113.112632 
L 366.01374 130.565922 
L 382.451966 173.233538 
L 388.253693 187.562203 
L 393.088465 198.964565 
L 397.923237 209.782937 
L 402.274532 218.963524 
L 406.14235 226.650915 
L 410.010168 233.874661 
L 413.877986 240.624483 
L 417.745804 246.896664 
L 421.130145 251.994624 
L 424.514485 256.733348 
L 427.898826 261.120404 
L 431.283167 265.165736 
L 434.667507 268.881299 
L 438.051848 272.280709 
L 441.436189 275.378897 
L 444.820529 278.191792 
L 448.20487 280.736019 
L 451.589211 283.028615 
L 455.457029 285.362681 
L 459.324847 287.416134 
L 463.192664 289.21408 
L 467.060482 290.780846 
L 471.411777 292.296081 
L 475.763073 293.579468 
L 480.597845 294.76883 
L 485.916095 295.831343 
L 491.717821 296.745928 
L 498.003026 297.503676 
L 505.255184 298.143113 
L 513.474297 298.641593 
L 523.627319 299.028224 
L 537.164682 299.30229 
L 551.185522 299.430545 
L 551.185522 299.430545 
" clip-path="url(#pbf7dd810b2)" style="fill: none; stroke: #ff7f0e; stroke-width: 1.5; stroke-linecap: square"/>
   </g>
   <g id="patch_67">
    <path d="M 42.828125 299.518125 
L 42.828125 22.318125 
" style="fill: none; stroke: #000000; stroke-width: 0.8; stroke-linejoin: miter; stroke-linecap: square"/>
   </g>
   <g id="patch_68">
    <path d="M 600.828125 299.518125 
L 600.828125 22.318125 
" style="fill: none; stroke: #000000; stroke-width: 0.8; stroke-linejoin: miter; stroke-linecap: square"/>
   </g>
   <g id="patch_69">
    <path d="M 42.828125 299.518125 
L 600.828125 299.518125 
" style="fill: none; stroke: #000000; stroke-width: 0.8; stroke-linejoin: miter; stroke-linecap: square"/>
   </g>
   <g id="patch_70">
    <path d="M 42.828125 22.318125 
L 600.828125 22.318125 
" style="fill: none; stroke: #000000; stroke-width: 0.8; stroke-linejoin: miter; stroke-linecap: square"/>
   </g>
   <g id="text_17">
    <!-- Візуалізація щільності -->
    <g style="fill: #314f4f" transform="translate(251.245625 16.318125) scale(0.12 -0.12)">
     <defs>
      <path id="DejaVuSans-412" d="M 1259 2228 
L 1259 519 
L 2272 519 
Q 2781 519 3026 730 
Q 3272 941 3272 1375 
Q 3272 1813 3026 2020 
Q 2781 2228 2272 2228 
L 1259 2228 
z
M 1259 4147 
L 1259 2741 
L 2194 2741 
Q 2656 2741 2882 2914 
Q 3109 3088 3109 3444 
Q 3109 3797 2882 3972 
Q 2656 4147 2194 4147 
L 1259 4147 
z
M 628 4666 
L 2241 4666 
Q 2963 4666 3353 4366 
Q 3744 4066 3744 3513 
Q 3744 3084 3544 2831 
Q 3344 2578 2956 2516 
Q 3422 2416 3680 2098 
Q 3938 1781 3938 1306 
Q 3938 681 3513 340 
Q 3088 0 2303 0 
L 628 0 
L 628 4666 
z
" transform="scale(0.015625)"/>
      <path id="DejaVuSans-456" d="M 603 3500 
L 1178 3500 
L 1178 0 
L 603 0 
L 603 3500 
z
M 603 4863 
L 1178 4863 
L 1178 4134 
L 603 4134 
L 603 4863 
z
" transform="scale(0.015625)"/>
      <path id="DejaVuSans-437" d="M 2206 1888 
Q 2594 1813 2809 1584 
Q 3025 1356 3025 1019 
Q 3025 478 2622 193 
Q 2219 -91 1475 -91 
Q 1225 -91 961 -47 
Q 697 -3 416 84 
L 416 619 
Q 638 503 903 445 
Q 1169 388 1459 388 
Q 1931 388 2195 563 
Q 2459 738 2459 1019 
Q 2459 1294 2225 1461 
Q 1991 1628 1563 1628 
L 1100 1628 
L 1100 2103 
L 1584 2103 
Q 1947 2103 2158 2242 
Q 2369 2381 2369 2600 
Q 2369 2800 2151 2944 
Q 1934 3088 1563 3088 
Q 1341 3088 1089 3047 
Q 838 3006 534 2916 
L 534 3438 
Q 841 3513 1106 3550 
Q 1372 3588 1609 3588 
Q 2222 3588 2576 3342 
Q 2931 3097 2931 2656 
Q 2931 2366 2743 2164 
Q 2556 1963 2206 1888 
z
" transform="scale(0.015625)"/>
      <path id="DejaVuSans-443" d="M 2059 -325 
Q 1816 -950 1584 -1140 
Q 1353 -1331 966 -1331 
L 506 -1331 
L 506 -850 
L 844 -850 
Q 1081 -850 1212 -737 
Q 1344 -625 1503 -206 
L 1606 56 
L 191 3500 
L 800 3500 
L 1894 763 
L 2988 3500 
L 3597 3500 
L 2059 -325 
z
" transform="scale(0.015625)"/>
      <path id="DejaVuSans-430" d="M 2194 1759 
Q 1497 1759 1228 1600 
Q 959 1441 959 1056 
Q 959 750 1161 570 
Q 1363 391 1709 391 
Q 2188 391 2477 730 
Q 2766 1069 2766 1631 
L 2766 1759 
L 2194 1759 
z
M 3341 1997 
L 3341 0 
L 2766 0 
L 2766 531 
Q 2569 213 2275 61 
Q 1981 -91 1556 -91 
Q 1019 -91 701 211 
Q 384 513 384 1019 
Q 384 1609 779 1909 
Q 1175 2209 1959 2209 
L 2766 2209 
L 2766 2266 
Q 2766 2663 2505 2880 
Q 2244 3097 1772 3097 
Q 1472 3097 1187 3025 
Q 903 2953 641 2809 
L 641 3341 
Q 956 3463 1253 3523 
Q 1550 3584 1831 3584 
Q 2591 3584 2966 3190 
Q 3341 2797 3341 1997 
z
" transform="scale(0.015625)"/>
      <path id="DejaVuSans-43b" d="M 238 0 
L 238 478 
Q 806 566 981 959 
Q 1194 1513 1194 2928 
L 1194 3500 
L 3559 3500 
L 3559 0 
L 2984 0 
L 2984 3041 
L 1769 3041 
L 1769 2694 
Q 1769 1344 1494 738 
Q 1200 91 238 0 
z
" transform="scale(0.015625)"/>
      <path id="DejaVuSans-446" d="M 3603 0 
L 581 0 
L 581 3500 
L 1159 3500 
L 1159 459 
L 3025 459 
L 3025 3500 
L 3603 3500 
L 3603 459 
L 4063 459 
L 4063 -884 
L 3603 -884 
L 3603 0 
z
" transform="scale(0.015625)"/>
      <path id="DejaVuSans-44f" d="M 1181 2491 
Q 1181 2231 1381 2084 
Q 1581 1938 1953 1938 
L 2728 1938 
L 2728 3041 
L 1953 3041 
Q 1581 3041 1381 2897 
Q 1181 2753 1181 2491 
z
M 363 0 
L 1431 1534 
Q 1069 1616 828 1830 
Q 588 2044 588 2491 
Q 588 2997 923 3248 
Q 1259 3500 1938 3500 
L 3306 3500 
L 3306 0 
L 2728 0 
L 2728 1478 
L 2013 1478 
L 981 0 
L 363 0 
z
" transform="scale(0.015625)"/>
      <path id="DejaVuSans-20" transform="scale(0.015625)"/>
      <path id="DejaVuSans-449" d="M 5275 0 
L 581 0 
L 581 3500 
L 1159 3500 
L 1159 459 
L 2638 459 
L 2638 3500 
L 3216 3500 
L 3216 459 
L 4697 459 
L 4697 3500 
L 5275 3500 
L 5275 459 
L 5734 459 
L 5734 -884 
L 5275 -884 
L 5275 0 
z
" transform="scale(0.015625)"/>
      <path id="DejaVuSans-44c" d="M 2781 1038 
Q 2781 1319 2576 1466 
Q 2372 1613 1978 1613 
L 1159 1613 
L 1159 459 
L 1978 459 
Q 2372 459 2576 607 
Q 2781 756 2781 1038 
z
M 581 3500 
L 1159 3500 
L 1159 2072 
L 2003 2072 
Q 2672 2072 3033 1817 
Q 3394 1563 3394 1038 
Q 3394 513 3033 256 
Q 2672 0 2003 0 
L 581 0 
L 581 3500 
z
" transform="scale(0.015625)"/>
      <path id="DejaVuSans-43d" d="M 581 3500 
L 1159 3500 
L 1159 2072 
L 3025 2072 
L 3025 3500 
L 3603 3500 
L 3603 0 
L 3025 0 
L 3025 1613 
L 1159 1613 
L 1159 0 
L 581 0 
L 581 3500 
z
" transform="scale(0.015625)"/>
      <path id="DejaVuSans-43e" d="M 1959 3097 
Q 1497 3097 1228 2736 
Q 959 2375 959 1747 
Q 959 1119 1226 758 
Q 1494 397 1959 397 
Q 2419 397 2687 759 
Q 2956 1122 2956 1747 
Q 2956 2369 2687 2733 
Q 2419 3097 1959 3097 
z
M 1959 3584 
Q 2709 3584 3137 3096 
Q 3566 2609 3566 1747 
Q 3566 888 3137 398 
Q 2709 -91 1959 -91 
Q 1206 -91 779 398 
Q 353 888 353 1747 
Q 353 2609 779 3096 
Q 1206 3584 1959 3584 
z
" transform="scale(0.015625)"/>
      <path id="DejaVuSans-441" d="M 3122 3366 
L 3122 2828 
Q 2878 2963 2633 3030 
Q 2388 3097 2138 3097 
Q 1578 3097 1268 2742 
Q 959 2388 959 1747 
Q 959 1106 1268 751 
Q 1578 397 2138 397 
Q 2388 397 2633 464 
Q 2878 531 3122 666 
L 3122 134 
Q 2881 22 2623 -34 
Q 2366 -91 2075 -91 
Q 1284 -91 818 406 
Q 353 903 353 1747 
Q 353 2603 823 3093 
Q 1294 3584 2113 3584 
Q 2378 3584 2631 3529 
Q 2884 3475 3122 3366 
z
" transform="scale(0.015625)"/>
      <path id="DejaVuSans-442" d="M 188 3500 
L 3541 3500 
L 3541 3041 
L 2147 3041 
L 2147 0 
L 1581 0 
L 1581 3041 
L 188 3041 
L 188 3500 
z
" transform="scale(0.015625)"/>
     </defs>
     <use xlink:href="#DejaVuSans-412"/>
     <use xlink:href="#DejaVuSans-456" x="68.603516"/>
     <use xlink:href="#DejaVuSans-437" x="96.386719"/>
     <use xlink:href="#DejaVuSans-443" x="149.560547"/>
     <use xlink:href="#DejaVuSans-430" x="208.740234"/>
     <use xlink:href="#DejaVuSans-43b" x="270.019531"/>
     <use xlink:href="#DejaVuSans-456" x="333.935547"/>
     <use xlink:href="#DejaVuSans-437" x="361.71875"/>
     <use xlink:href="#DejaVuSans-430" x="414.892578"/>
     <use xlink:href="#DejaVuSans-446" x="476.171875"/>
     <use xlink:href="#DejaVuSans-456" x="544.238281"/>
     <use xlink:href="#DejaVuSans-44f" x="572.021484"/>
     <use xlink:href="#DejaVuSans-20" x="632.177734"/>
     <use xlink:href="#DejaVuSans-449" x="663.964844"/>
     <use xlink:href="#DejaVuSans-456" x="758.154297"/>
     <use xlink:href="#DejaVuSans-43b" x="785.9375"/>
     <use xlink:href="#DejaVuSans-44c" x="849.853516"/>
     <use xlink:href="#DejaVuSans-43d" x="908.789062"/>
     <use xlink:href="#DejaVuSans-43e" x="974.169922"/>
     <use xlink:href="#DejaVuSans-441" x="1035.351562"/>
     <use xlink:href="#DejaVuSans-442" x="1090.332031"/>
     <use xlink:href="#DejaVuSans-456" x="1148.583984"/>
    </g>
   </g>
   <g id="legend_1">
    <g id="patch_71">
     <path d="M 415.38875 67.145625 
L 592.428125 67.145625 
Q 594.828125 67.145625 594.828125 64.745625 
L 594.828125 30.718125 
Q 594.828125 28.318125 592.428125 28.318125 
L 415.38875 28.318125 
Q 412.98875 28.318125 412.98875 30.718125 
L 412.98875 64.745625 
Q 412.98875 67.145625 415.38875 67.145625 
z
" style="fill: #ffffff; opacity: 0.8; stroke: #cccccc; stroke-linejoin: miter"/>
    </g>
    <g id="patch_72">
     <path d="M 417.78875 42.23625 
L 441.78875 42.23625 
L 441.78875 33.83625 
L 417.78875 33.83625 
z
" style="fill: #1f77b4; opacity: 0.6"/>
    </g>
    <g id="text_18">
     <!-- згенеровані значення -->
     <g transform="translate(451.38875 42.23625) scale(0.12 -0.12)">
      <defs>
       <path id="DejaVuSans-433" d="M 581 0 
L 581 3500 
L 3050 3500 
L 3050 3041 
L 1159 3041 
L 1159 0 
L 581 0 
z
" transform="scale(0.015625)"/>
       <path id="DejaVuSans-435" d="M 3597 1894 
L 3597 1613 
L 953 1613 
Q 991 1019 1311 708 
Q 1631 397 2203 397 
Q 2534 397 2845 478 
Q 3156 559 3463 722 
L 3463 178 
Q 3153 47 2828 -22 
Q 2503 -91 2169 -91 
Q 1331 -91 842 396 
Q 353 884 353 1716 
Q 353 2575 817 3079 
Q 1281 3584 2069 3584 
Q 2775 3584 3186 3129 
Q 3597 2675 3597 1894 
z
M 3022 2063 
Q 3016 2534 2758 2815 
Q 2500 3097 2075 3097 
Q 1594 3097 1305 2825 
Q 1016 2553 972 2059 
L 3022 2063 
z
" transform="scale(0.015625)"/>
       <path id="DejaVuSans-440" d="M 1159 525 
L 1159 -1331 
L 581 -1331 
L 581 3500 
L 1159 3500 
L 1159 2969 
Q 1341 3281 1617 3432 
Q 1894 3584 2278 3584 
Q 2916 3584 3314 3078 
Q 3713 2572 3713 1747 
Q 3713 922 3314 415 
Q 2916 -91 2278 -91 
Q 1894 -91 1617 61 
Q 1341 213 1159 525 
z
M 3116 1747 
Q 3116 2381 2855 2742 
Q 2594 3103 2138 3103 
Q 1681 3103 1420 2742 
Q 1159 2381 1159 1747 
Q 1159 1113 1420 752 
Q 1681 391 2138 391 
Q 2594 391 2855 752 
Q 3116 1113 3116 1747 
z
" transform="scale(0.015625)"/>
       <path id="DejaVuSans-432" d="M 1156 1613 
L 1156 459 
L 1975 459 
Q 2369 459 2575 607 
Q 2781 756 2781 1038 
Q 2781 1319 2575 1466 
Q 2369 1613 1975 1613 
L 1156 1613 
z
M 1156 3041 
L 1156 2072 
L 1913 2072 
Q 2238 2072 2444 2201 
Q 2650 2331 2650 2563 
Q 2650 2794 2444 2917 
Q 2238 3041 1913 3041 
L 1156 3041 
z
M 581 3500 
L 1950 3500 
Q 2566 3500 2897 3275 
Q 3228 3050 3228 2634 
Q 3228 2313 3059 2123 
Q 2891 1934 2559 1888 
Q 2956 1813 3175 1575 
Q 3394 1338 3394 981 
Q 3394 513 3033 256 
Q 2672 0 2003 0 
L 581 0 
L 581 3500 
z
" transform="scale(0.015625)"/>
       <path id="DejaVuSans-447" d="M 2625 0 
L 2625 1472 
L 1553 1472 
Q 1075 1472 756 1769 
Q 469 2038 469 2613 
L 469 3500 
L 1044 3500 
L 1044 2666 
Q 1044 2300 1206 2116 
Q 1372 1931 1697 1931 
L 2625 1931 
L 2625 3500 
L 3200 3500 
L 3200 0 
L 2625 0 
z
" transform="scale(0.015625)"/>
      </defs>
      <use xlink:href="#DejaVuSans-437"/>
      <use xlink:href="#DejaVuSans-433" x="53.173828"/>
      <use xlink:href="#DejaVuSans-435" x="105.712891"/>
      <use xlink:href="#DejaVuSans-43d" x="167.236328"/>
      <use xlink:href="#DejaVuSans-435" x="232.617188"/>
      <use xlink:href="#DejaVuSans-440" x="294.140625"/>
      <use xlink:href="#DejaVuSans-43e" x="357.617188"/>
      <use xlink:href="#DejaVuSans-432" x="418.798828"/>
      <use xlink:href="#DejaVuSans-430" x="477.734375"/>
      <use xlink:href="#DejaVuSans-43d" x="539.013672"/>
      <use xlink:href="#DejaVuSans-456" x="604.394531"/>
      <use xlink:href="#DejaVuSans-20" x="632.177734"/>
      <use xlink:href="#DejaVuSans-437" x="663.964844"/>
      <use xlink:href="#DejaVuSans-43d" x="717.138672"/>
      <use xlink:href="#DejaVuSans-430" x="782.519531"/>
      <use xlink:href="#DejaVuSans-447" x="843.798828"/>
      <use xlink:href="#DejaVuSans-435" x="902.880859"/>
      <use xlink:href="#DejaVuSans-43d" x="964.404297"/>
      <use xlink:href="#DejaVuSans-43d" x="1029.785156"/>
      <use xlink:href="#DejaVuSans-44f" x="1095.166016"/>
     </g>
    </g>
    <g id="line2d_18">
     <path d="M 417.78875 55.65 
L 429.78875 55.65 
L 441.78875 55.65 
" style="fill: none; stroke: #ff7f0e; stroke-width: 1.5; stroke-linecap: square"/>
    </g>
    <g id="text_19">
     <!-- щільність розподілу -->
     <g transform="translate(451.38875 59.85) scale(0.12 -0.12)">
      <defs>
       <path id="DejaVuSans-43f" d="M 3603 3500 
L 3603 0 
L 3025 0 
L 3025 3041 
L 1159 3041 
L 1159 0 
L 581 0 
L 581 3500 
L 3603 3500 
z
" transform="scale(0.015625)"/>
       <path id="DejaVuSans-434" d="M 1384 459 
L 3053 459 
L 3053 3041 
L 1844 3041 
L 1844 2603 
Q 1844 1316 1475 628 
L 1384 459 
z
M 550 459 
Q 834 584 959 850 
Q 1266 1509 1266 2838 
L 1266 3500 
L 3631 3500 
L 3631 459 
L 4091 459 
L 4091 -884 
L 3631 -884 
L 3631 0 
L 794 0 
L 794 -884 
L 334 -884 
L 334 459 
L 550 459 
z
" transform="scale(0.015625)"/>
      </defs>
      <use xlink:href="#DejaVuSans-449"/>
      <use xlink:href="#DejaVuSans-456" x="94.189453"/>
      <use xlink:href="#DejaVuSans-43b" x="121.972656"/>
      <use xlink:href="#DejaVuSans-44c" x="185.888672"/>
      <use xlink:href="#DejaVuSans-43d" x="244.824219"/>
      <use xlink:href="#DejaVuSans-456" x="310.205078"/>
      <use xlink:href="#DejaVuSans-441" x="337.988281"/>
      <use xlink:href="#DejaVuSans-442" x="392.96875"/>
      <use xlink:href="#DejaVuSans-44c" x="451.220703"/>
      <use xlink:href="#DejaVuSans-20" x="510.15625"/>
      <use xlink:href="#DejaVuSans-440" x="541.943359"/>
      <use xlink:href="#DejaVuSans-43e" x="605.419922"/>
      <use xlink:href="#DejaVuSans-437" x="666.601562"/>
      <use xlink:href="#DejaVuSans-43f" x="719.775391"/>
      <use xlink:href="#DejaVuSans-43e" x="785.15625"/>
      <use xlink:href="#DejaVuSans-434" x="846.337891"/>
      <use xlink:href="#DejaVuSans-456" x="915.478516"/>
      <use xlink:href="#DejaVuSans-43b" x="943.261719"/>
      <use xlink:href="#DejaVuSans-443" x="1007.177734"/>
     </g>
    </g>
   </g>
  </g>
  <g id="axes_2">
   <g id="patch_73">
    <path d="M 712.428125 299.518125 
L 1270.428125 299.518125 
L 1270.428125 22.318125 
L 712.428125 22.318125 
z
" style="fill: #ffffff"/>
   </g>
   <g id="matplotlib.axis_3">
    <g id="xtick_8">
     <g id="line2d_19">
      <g>
       <use xlink:href="#m70a4614801" x="737.791761" y="299.518125" style="stroke: #000000; stroke-width: 0.8"/>
      </g>
     </g>
     <g id="text_20">
      <!-- −8 -->
      <g transform="translate(730.420668 314.116563) scale(0.1 -0.1)">
       <defs>
        <path id="DejaVuSans-38" d="M 2034 2216 
Q 1584 2216 1326 1975 
Q 1069 1734 1069 1313 
Q 1069 891 1326 650 
Q 1584 409 2034 409 
Q 2484 409 2743 651 
Q 3003 894 3003 1313 
Q 3003 1734 2745 1975 
Q 2488 2216 2034 2216 
z
M 1403 2484 
Q 997 2584 770 2862 
Q 544 3141 544 3541 
Q 544 4100 942 4425 
Q 1341 4750 2034 4750 
Q 2731 4750 3128 4425 
Q 3525 4100 3525 3541 
Q 3525 3141 3298 2862 
Q 3072 2584 2669 2484 
Q 3125 2378 3379 2068 
Q 3634 1759 3634 1313 
Q 3634 634 3220 271 
Q 2806 -91 2034 -91 
Q 1263 -91 848 271 
Q 434 634 434 1313 
Q 434 1759 690 2068 
Q 947 2378 1403 2484 
z
M 1172 3481 
Q 1172 3119 1398 2916 
Q 1625 2713 2034 2713 
Q 2441 2713 2670 2916 
Q 2900 3119 2900 3481 
Q 2900 3844 2670 4047 
Q 2441 4250 2034 4250 
Q 1625 4250 1398 4047 
Q 1172 3844 1172 3481 
z
" transform="scale(0.015625)"/>
       </defs>
       <use xlink:href="#DejaVuSans-2212"/>
       <use xlink:href="#DejaVuSans-38" x="83.789062"/>
      </g>
     </g>
    </g>
    <g id="xtick_9">
     <g id="line2d_20">
      <g>
       <use xlink:href="#m70a4614801" x="801.200852" y="299.518125" style="stroke: #000000; stroke-width: 0.8"/>
      </g>
     </g>
     <g id="text_21">
      <!-- −6 -->
      <g transform="translate(793.829759 314.116563) scale(0.1 -0.1)">
       <defs>
        <path id="DejaVuSans-36" d="M 2113 2584 
Q 1688 2584 1439 2293 
Q 1191 2003 1191 1497 
Q 1191 994 1439 701 
Q 1688 409 2113 409 
Q 2538 409 2786 701 
Q 3034 994 3034 1497 
Q 3034 2003 2786 2293 
Q 2538 2584 2113 2584 
z
M 3366 4563 
L 3366 3988 
Q 3128 4100 2886 4159 
Q 2644 4219 2406 4219 
Q 1781 4219 1451 3797 
Q 1122 3375 1075 2522 
Q 1259 2794 1537 2939 
Q 1816 3084 2150 3084 
Q 2853 3084 3261 2657 
Q 3669 2231 3669 1497 
Q 3669 778 3244 343 
Q 2819 -91 2113 -91 
Q 1303 -91 875 529 
Q 447 1150 447 2328 
Q 447 3434 972 4092 
Q 1497 4750 2381 4750 
Q 2619 4750 2861 4703 
Q 3103 4656 3366 4563 
z
" transform="scale(0.015625)"/>
       </defs>
       <use xlink:href="#DejaVuSans-2212"/>
       <use xlink:href="#DejaVuSans-36" x="83.789062"/>
      </g>
     </g>
    </g>
    <g id="xtick_10">
     <g id="line2d_21">
      <g>
       <use xlink:href="#m70a4614801" x="864.609943" y="299.518125" style="stroke: #000000; stroke-width: 0.8"/>
      </g>
     </g>
     <g id="text_22">
      <!-- −4 -->
      <g transform="translate(857.238849 314.116563) scale(0.1 -0.1)">
       <defs>
        <path id="DejaVuSans-34" d="M 2419 4116 
L 825 1625 
L 2419 1625 
L 2419 4116 
z
M 2253 4666 
L 3047 4666 
L 3047 1625 
L 3713 1625 
L 3713 1100 
L 3047 1100 
L 3047 0 
L 2419 0 
L 2419 1100 
L 313 1100 
L 313 1709 
L 2253 4666 
z
" transform="scale(0.015625)"/>
       </defs>
       <use xlink:href="#DejaVuSans-2212"/>
       <use xlink:href="#DejaVuSans-34" x="83.789062"/>
      </g>
     </g>
    </g>
    <g id="xtick_11">
     <g id="line2d_22">
      <g>
       <use xlink:href="#m70a4614801" x="928.019034" y="299.518125" style="stroke: #000000; stroke-width: 0.8"/>
      </g>
     </g>
     <g id="text_23">
      <!-- −2 -->
      <g transform="translate(920.64794 314.116563) scale(0.1 -0.1)">
       <use xlink:href="#DejaVuSans-2212"/>
       <use xlink:href="#DejaVuSans-32" x="83.789062"/>
      </g>
     </g>
    </g>
    <g id="xtick_12">
     <g id="line2d_23">
      <g>
       <use xlink:href="#m70a4614801" x="991.428125" y="299.518125" style="stroke: #000000; stroke-width: 0.8"/>
      </g>
     </g>
     <g id="text_24">
      <!-- 0 -->
      <g transform="translate(988.246875 314.116563) scale(0.1 -0.1)">
       <use xlink:href="#DejaVuSans-30"/>
      </g>
     </g>
    </g>
    <g id="xtick_13">
     <g id="line2d_24">
      <g>
       <use xlink:href="#m70a4614801" x="1054.837216" y="299.518125" style="stroke: #000000; stroke-width: 0.8"/>
      </g>
     </g>
     <g id="text_25">
      <!-- 2 -->
      <g transform="translate(1051.655966 314.116563) scale(0.1 -0.1)">
       <use xlink:href="#DejaVuSans-32"/>
      </g>
     </g>
    </g>
    <g id="xtick_14">
     <g id="line2d_25">
      <g>
       <use xlink:href="#m70a4614801" x="1118.246307" y="299.518125" style="stroke: #000000; stroke-width: 0.8"/>
      </g>
     </g>
     <g id="text_26">
      <!-- 4 -->
      <g transform="translate(1115.065057 314.116563) scale(0.1 -0.1)">
       <use xlink:href="#DejaVuSans-34"/>
      </g>
     </g>
    </g>
    <g id="xtick_15">
     <g id="line2d_26">
      <g>
       <use xlink:href="#m70a4614801" x="1181.655398" y="299.518125" style="stroke: #000000; stroke-width: 0.8"/>
      </g>
     </g>
     <g id="text_27">
      <!-- 6 -->
      <g transform="translate(1178.474148 314.116563) scale(0.1 -0.1)">
       <use xlink:href="#DejaVuSans-36"/>
      </g>
     </g>
    </g>
    <g id="xtick_16">
     <g id="line2d_27">
      <g>
       <use xlink:href="#m70a4614801" x="1245.064489" y="299.518125" style="stroke: #000000; stroke-width: 0.8"/>
      </g>
     </g>
     <g id="text_28">
      <!-- 8 -->
      <g transform="translate(1241.883239 314.116563) scale(0.1 -0.1)">
       <use xlink:href="#DejaVuSans-38"/>
      </g>
     </g>
    </g>
   </g>
   <g id="matplotlib.axis_4">
    <g id="ytick_10">
     <g id="line2d_28">
      <g>
       <use xlink:href="#me81153e034" x="712.428125" y="286.926107" style="stroke: #000000; stroke-width: 0.8"/>
      </g>
     </g>
     <g id="text_29">
      <!-- 0.0 -->
      <g transform="translate(689.525 290.725325) scale(0.1 -0.1)">
       <use xlink:href="#DejaVuSans-30"/>
       <use xlink:href="#DejaVuSans-2e" x="63.623047"/>
       <use xlink:href="#DejaVuSans-30" x="95.410156"/>
      </g>
     </g>
    </g>
    <g id="ytick_11">
     <g id="line2d_29">
      <g>
       <use xlink:href="#me81153e034" x="712.428125" y="236.522914" style="stroke: #000000; stroke-width: 0.8"/>
      </g>
     </g>
     <g id="text_30">
      <!-- 0.2 -->
      <g transform="translate(689.525 240.322133) scale(0.1 -0.1)">
       <use xlink:href="#DejaVuSans-30"/>
       <use xlink:href="#DejaVuSans-2e" x="63.623047"/>
       <use xlink:href="#DejaVuSans-32" x="95.410156"/>
      </g>
     </g>
    </g>
    <g id="ytick_12">
     <g id="line2d_30">
      <g>
       <use xlink:href="#me81153e034" x="712.428125" y="186.119721" style="stroke: #000000; stroke-width: 0.8"/>
      </g>
     </g>
     <g id="text_31">
      <!-- 0.4 -->
      <g transform="translate(689.525 189.91894) scale(0.1 -0.1)">
       <use xlink:href="#DejaVuSans-30"/>
       <use xlink:href="#DejaVuSans-2e" x="63.623047"/>
       <use xlink:href="#DejaVuSans-34" x="95.410156"/>
      </g>
     </g>
    </g>
    <g id="ytick_13">
     <g id="line2d_31">
      <g>
       <use xlink:href="#me81153e034" x="712.428125" y="135.716529" style="stroke: #000000; stroke-width: 0.8"/>
      </g>
     </g>
     <g id="text_32">
      <!-- 0.6 -->
      <g transform="translate(689.525 139.515747) scale(0.1 -0.1)">
       <use xlink:href="#DejaVuSans-30"/>
       <use xlink:href="#DejaVuSans-2e" x="63.623047"/>
       <use xlink:href="#DejaVuSans-36" x="95.410156"/>
      </g>
     </g>
    </g>
    <g id="ytick_14">
     <g id="line2d_32">
      <g>
       <use xlink:href="#me81153e034" x="712.428125" y="85.313336" style="stroke: #000000; stroke-width: 0.8"/>
      </g>
     </g>
     <g id="text_33">
      <!-- 0.8 -->
      <g transform="translate(689.525 89.112555) scale(0.1 -0.1)">
       <use xlink:href="#DejaVuSans-30"/>
       <use xlink:href="#DejaVuSans-2e" x="63.623047"/>
       <use xlink:href="#DejaVuSans-38" x="95.410156"/>
      </g>
     </g>
    </g>
    <g id="ytick_15">
     <g id="line2d_33">
      <g>
       <use xlink:href="#me81153e034" x="712.428125" y="34.910143" style="stroke: #000000; stroke-width: 0.8"/>
      </g>
     </g>
     <g id="text_34">
      <!-- 1.0 -->
      <g transform="translate(689.525 38.709362) scale(0.1 -0.1)">
       <use xlink:href="#DejaVuSans-31"/>
       <use xlink:href="#DejaVuSans-2e" x="63.623047"/>
       <use xlink:href="#DejaVuSans-30" x="95.410156"/>
      </g>
     </g>
    </g>
   </g>
   <g id="line2d_34">
    <path d="M 737.791761 286.918125 
L 785.015349 286.783352 
L 804.818788 286.516444 
L 818.528862 286.120084 
L 829.192253 285.601673 
L 838.332302 284.940155 
L 846.45679 284.124002 
L 853.565717 283.18467 
L 860.166864 282.081631 
L 866.26023 280.829248 
L 871.845815 279.452531 
L 876.92362 277.986007 
L 882.001426 276.29144 
L 887.079231 274.345881 
L 891.649255 272.36134 
L 896.21928 270.13858 
L 900.789304 267.6619 
L 905.359329 264.916584 
L 909.929354 261.889252 
L 914.499378 258.568223 
L 919.069403 254.94387 
L 923.639427 251.008975 
L 928.209452 246.75905 
L 932.779476 242.192648 
L 937.349501 237.311609 
L 941.919525 232.121274 
L 946.997331 226.00253 
L 952.075136 219.53083 
L 957.660721 212.032353 
L 963.754087 203.443285 
L 970.355234 193.725774 
L 977.971942 182.09484 
L 988.635332 165.344874 
L 1006.40765 137.386054 
L 1014.024358 125.83419 
L 1020.625504 116.208697 
L 1026.71887 107.721391 
L 1032.304456 100.328132 
L 1037.382261 93.96012 
L 1042.460066 87.950976 
L 1047.030091 82.862924 
L 1051.600115 78.086347 
L 1056.17014 73.6254 
L 1060.740164 69.480802 
L 1065.310189 65.650061 
L 1069.880213 62.127744 
L 1074.450238 58.905793 
L 1079.020263 55.973855 
L 1083.590287 53.319644 
L 1088.160312 50.929295 
L 1092.730336 48.787725 
L 1097.300361 46.878978 
L 1102.378166 45.011133 
L 1107.455971 43.387379 
L 1112.533776 41.984838 
L 1118.119362 40.670835 
L 1124.212728 39.478134 
L 1130.813874 38.430174 
L 1137.922801 37.540053 
L 1145.539509 36.810457 
L 1154.171778 36.204383 
L 1164.327388 35.716166 
L 1177.021901 35.341506 
L 1193.778657 35.088681 
L 1219.675463 34.950303 
L 1245.064489 34.918125 
L 1245.064489 34.918125 
" clip-path="url(#p3bc145a633)" style="fill: none; stroke: #1f77b4; stroke-width: 1.5; stroke-linecap: square"/>
   </g>
   <g id="patch_74">
    <path d="M 712.428125 299.518125 
L 712.428125 22.318125 
" style="fill: none; stroke: #000000; stroke-width: 0.8; stroke-linejoin: miter; stroke-linecap: square"/>
   </g>
   <g id="patch_75">
    <path d="M 1270.428125 299.518125 
L 1270.428125 22.318125 
" style="fill: none; stroke: #000000; stroke-width: 0.8; stroke-linejoin: miter; stroke-linecap: square"/>
   </g>
   <g id="patch_76">
    <path d="M 712.428125 299.518125 
L 1270.428125 299.518125 
" style="fill: none; stroke: #000000; stroke-width: 0.8; stroke-linejoin: miter; stroke-linecap: square"/>
   </g>
   <g id="patch_77">
    <path d="M 712.428125 22.318125 
L 1270.428125 22.318125 
" style="fill: none; stroke: #000000; stroke-width: 0.8; stroke-linejoin: miter; stroke-linecap: square"/>
   </g>
  </g>
 </g>
 <defs>
  <clipPath id="pbf7dd810b2">
   <rect x="42.828125" y="22.318125" width="558" height="277.2"/>
  </clipPath>
  <clipPath id="p3bc145a633">
   <rect x="712.428125" y="22.318125" width="558" height="277.2"/>
  </clipPath>
 </defs>
</svg>
