<?xml version="1.0" encoding="utf-8" standalone="no"?>
<!DOCTYPE svg PUBLIC "-//W3C//DTD SVG 1.1//EN"
  "http://www.w3.org/Graphics/SVG/1.1/DTD/svg11.dtd">
<svg xmlns:xlink="http://www.w3.org/1999/xlink" width="782.064688pt" height="262.409844pt" viewBox="0 0 782.064688 262.409844" xmlns="http://www.w3.org/2000/svg" version="1.1">
 <metadata>
  <rdf:RDF xmlns:dc="http://purl.org/dc/elements/1.1/" xmlns:cc="http://creativecommons.org/ns#" xmlns:rdf="http://www.w3.org/1999/02/22-rdf-syntax-ns#">
   <cc:Work>
    <dc:type rdf:resource="http://purl.org/dc/dcmitype/StillImage"/>
    <dc:date>2026-06-29T21:27:00.260792</dc:date>
    <dc:format>image/svg+xml</dc:format>
    <dc:creator>
     <cc:Agent>
      <dc:title>Matplotlib v3.10.8, https://matplotlib.org/</dc:title>
     </cc:Agent>
    </dc:creator>
   </cc:Work>
  </rdf:RDF>
 </metadata>
 <defs>
  <style type="text/css">*{stroke-linejoin: round; stroke-linecap: butt}</style>
 </defs>
 <g id="figure_1">
  <g id="patch_1">
   <path d="M 0 262.409844 
L 782.064688 262.409844 
L 782.064688 0 
L 0 0 
z
" style="fill: #ffffff"/>
  </g>
  <g id="axes_1">
   <g id="patch_2">
    <path d="M 42.843438 222.917969 
L 384.804688 222.917969 
L 384.804688 23.077969 
L 42.843438 23.077969 
z
" style="fill: #ffffff"/>
   </g>
   <g id="patch_3">
    <path d="M 58.387131 222.917969 
L 75.657901 222.917969 
L 75.657901 154.94518 
L 58.387131 154.94518 
z
" clip-path="url(#pd64425469c)" style="fill: #20b2aa; opacity: 0.9"/>
   </g>
   <g id="patch_4">
    <path d="M 75.657901 222.917969 
L 92.928671 222.917969 
L 92.928671 59.783275 
L 75.657901 59.783275 
z
" clip-path="url(#pd64425469c)" style="fill: #20b2aa; opacity: 0.9"/>
   </g>
   <g id="patch_5">
    <path d="M 92.928671 222.917969 
L 110.199441 222.917969 
L 110.199441 32.594159 
L 92.928671 32.594159 
z
" clip-path="url(#pd64425469c)" style="fill: #20b2aa; opacity: 0.9"/>
   </g>
   <g id="patch_6">
    <path d="M 110.199441 222.917969 
L 127.470211 222.917969 
L 127.470211 114.161506 
L 110.199441 114.161506 
z
" clip-path="url(#pd64425469c)" style="fill: #20b2aa; opacity: 0.9"/>
   </g>
   <g id="patch_7">
    <path d="M 127.470211 222.917969 
L 144.740982 222.917969 
L 144.740982 86.972391 
L 127.470211 86.972391 
z
" clip-path="url(#pd64425469c)" style="fill: #20b2aa; opacity: 0.9"/>
   </g>
   <g id="patch_8">
    <path d="M 144.740982 222.917969 
L 162.011752 222.917969 
L 162.011752 114.161506 
L 144.740982 114.161506 
z
" clip-path="url(#pd64425469c)" style="fill: #20b2aa; opacity: 0.9"/>
   </g>
   <g id="patch_9">
    <path d="M 162.011752 222.917969 
L 179.282522 222.917969 
L 179.282522 73.377833 
L 162.011752 73.377833 
z
" clip-path="url(#pd64425469c)" style="fill: #20b2aa; opacity: 0.9"/>
   </g>
   <g id="patch_10">
    <path d="M 179.282522 222.917969 
L 196.553292 222.917969 
L 196.553292 141.350622 
L 179.282522 141.350622 
z
" clip-path="url(#pd64425469c)" style="fill: #20b2aa; opacity: 0.9"/>
   </g>
   <g id="patch_11">
    <path d="M 196.553292 222.917969 
L 213.824062 222.917969 
L 213.824062 209.323411 
L 196.553292 209.323411 
z
" clip-path="url(#pd64425469c)" style="fill: #20b2aa; opacity: 0.9"/>
   </g>
   <g id="patch_12">
    <path d="M 213.824062 222.917969 
L 231.094833 222.917969 
L 231.094833 182.134295 
L 213.824062 182.134295 
z
" clip-path="url(#pd64425469c)" style="fill: #20b2aa; opacity: 0.9"/>
   </g>
   <g id="patch_13">
    <path d="M 231.094833 222.917969 
L 248.365603 222.917969 
L 248.365603 222.917969 
L 231.094833 222.917969 
z
" clip-path="url(#pd64425469c)" style="fill: #20b2aa; opacity: 0.9"/>
   </g>
   <g id="patch_14">
    <path d="M 248.365603 222.917969 
L 265.636373 222.917969 
L 265.636373 209.323411 
L 248.365603 209.323411 
z
" clip-path="url(#pd64425469c)" style="fill: #20b2aa; opacity: 0.9"/>
   </g>
   <g id="patch_15">
    <path d="M 265.636373 222.917969 
L 282.907143 222.917969 
L 282.907143 222.917969 
L 265.636373 222.917969 
z
" clip-path="url(#pd64425469c)" style="fill: #20b2aa; opacity: 0.9"/>
   </g>
   <g id="patch_16">
    <path d="M 282.907143 222.917969 
L 300.177914 222.917969 
L 300.177914 222.917969 
L 282.907143 222.917969 
z
" clip-path="url(#pd64425469c)" style="fill: #20b2aa; opacity: 0.9"/>
   </g>
   <g id="patch_17">
    <path d="M 300.177914 222.917969 
L 317.448684 222.917969 
L 317.448684 222.917969 
L 300.177914 222.917969 
z
" clip-path="url(#pd64425469c)" style="fill: #20b2aa; opacity: 0.9"/>
   </g>
   <g id="patch_18">
    <path d="M 317.448684 222.917969 
L 334.719454 222.917969 
L 334.719454 222.917969 
L 317.448684 222.917969 
z
" clip-path="url(#pd64425469c)" style="fill: #20b2aa; opacity: 0.9"/>
   </g>
   <g id="patch_19">
    <path d="M 334.719454 222.917969 
L 351.990224 222.917969 
L 351.990224 222.917969 
L 334.719454 222.917969 
z
" clip-path="url(#pd64425469c)" style="fill: #20b2aa; opacity: 0.9"/>
   </g>
   <g id="patch_20">
    <path d="M 351.990224 222.917969 
L 369.260994 222.917969 
L 369.260994 209.323411 
L 351.990224 209.323411 
z
" clip-path="url(#pd64425469c)" style="fill: #20b2aa; opacity: 0.9"/>
   </g>
   <g id="matplotlib.axis_1">
    <g id="xtick_1">
     <g id="line2d_1">
      <path d="M 92.000109 222.917969 
L 92.000109 23.077969 
" clip-path="url(#pd64425469c)" style="fill: none; stroke: #dddddd; stroke-opacity: 0.6; stroke-width: 0.8; stroke-linecap: square"/>
     </g>
     <g id="line2d_2">
      <defs>
       <path id="m4b496a921f" d="M 0 0 
L 0 3.5 
" style="stroke: #314f4f; stroke-width: 0.8"/>
      </defs>
      <g>
       <use xlink:href="#m4b496a921f" x="92.000109" y="222.917969" style="fill: #314f4f; stroke: #314f4f; stroke-width: 0.8"/>
      </g>
     </g>
     <g id="text_1">
      <!-- 20 -->
      <g style="fill: #314f4f" transform="translate(85.001359 238.27625) scale(0.11 -0.11)">
       <defs>
        <path id="DejaVuSans-32" d="M 1228 531 
L 3431 531 
L 3431 0 
L 469 0 
L 469 531 
Q 828 903 1448 1529 
Q 2069 2156 2228 2338 
Q 2531 2678 2651 2914 
Q 2772 3150 2772 3378 
Q 2772 3750 2511 3984 
Q 2250 4219 1831 4219 
Q 1534 4219 1204 4116 
Q 875 4013 500 3803 
L 500 4441 
Q 881 4594 1212 4672 
Q 1544 4750 1819 4750 
Q 2544 4750 2975 4387 
Q 3406 4025 3406 3419 
Q 3406 3131 3298 2873 
Q 3191 2616 2906 2266 
Q 2828 2175 2409 1742 
Q 1991 1309 1228 531 
z
" transform="scale(0.015625)"/>
        <path id="DejaVuSans-30" d="M 2034 4250 
Q 1547 4250 1301 3770 
Q 1056 3291 1056 2328 
Q 1056 1369 1301 889 
Q 1547 409 2034 409 
Q 2525 409 2770 889 
Q 3016 1369 3016 2328 
Q 3016 3291 2770 3770 
Q 2525 4250 2034 4250 
z
M 2034 4750 
Q 2819 4750 3233 4129 
Q 3647 3509 3647 2328 
Q 3647 1150 3233 529 
Q 2819 -91 2034 -91 
Q 1250 -91 836 529 
Q 422 1150 422 2328 
Q 422 3509 836 4129 
Q 1250 4750 2034 4750 
z
" transform="scale(0.015625)"/>
       </defs>
       <use xlink:href="#DejaVuSans-32"/>
       <use xlink:href="#DejaVuSans-30" transform="translate(63.623047 0)"/>
      </g>
     </g>
    </g>
    <g id="xtick_2">
     <g id="line2d_3">
      <path d="M 154.793433 222.917969 
L 154.793433 23.077969 
" clip-path="url(#pd64425469c)" style="fill: none; stroke: #dddddd; stroke-opacity: 0.6; stroke-width: 0.8; stroke-linecap: square"/>
     </g>
     <g id="line2d_4">
      <g>
       <use xlink:href="#m4b496a921f" x="154.793433" y="222.917969" style="fill: #314f4f; stroke: #314f4f; stroke-width: 0.8"/>
      </g>
     </g>
     <g id="text_2">
      <!-- 40 -->
      <g style="fill: #314f4f" transform="translate(147.794683 238.27625) scale(0.11 -0.11)">
       <defs>
        <path id="DejaVuSans-34" d="M 2419 4116 
L 825 1625 
L 2419 1625 
L 2419 4116 
z
M 2253 4666 
L 3047 4666 
L 3047 1625 
L 3713 1625 
L 3713 1100 
L 3047 1100 
L 3047 0 
L 2419 0 
L 2419 1100 
L 313 1100 
L 313 1709 
L 2253 4666 
z
" transform="scale(0.015625)"/>
       </defs>
       <use xlink:href="#DejaVuSans-34"/>
       <use xlink:href="#DejaVuSans-30" transform="translate(63.623047 0)"/>
      </g>
     </g>
    </g>
    <g id="xtick_3">
     <g id="line2d_5">
      <path d="M 217.586756 222.917969 
L 217.586756 23.077969 
" clip-path="url(#pd64425469c)" style="fill: none; stroke: #dddddd; stroke-opacity: 0.6; stroke-width: 0.8; stroke-linecap: square"/>
     </g>
     <g id="line2d_6">
      <g>
       <use xlink:href="#m4b496a921f" x="217.586756" y="222.917969" style="fill: #314f4f; stroke: #314f4f; stroke-width: 0.8"/>
      </g>
     </g>
     <g id="text_3">
      <!-- 60 -->
      <g style="fill: #314f4f" transform="translate(210.588006 238.27625) scale(0.11 -0.11)">
       <defs>
        <path id="DejaVuSans-36" d="M 2113 2584 
Q 1688 2584 1439 2293 
Q 1191 2003 1191 1497 
Q 1191 994 1439 701 
Q 1688 409 2113 409 
Q 2538 409 2786 701 
Q 3034 994 3034 1497 
Q 3034 2003 2786 2293 
Q 2538 2584 2113 2584 
z
M 3366 4563 
L 3366 3988 
Q 3128 4100 2886 4159 
Q 2644 4219 2406 4219 
Q 1781 4219 1451 3797 
Q 1122 3375 1075 2522 
Q 1259 2794 1537 2939 
Q 1816 3084 2150 3084 
Q 2853 3084 3261 2657 
Q 3669 2231 3669 1497 
Q 3669 778 3244 343 
Q 2819 -91 2113 -91 
Q 1303 -91 875 529 
Q 447 1150 447 2328 
Q 447 3434 972 4092 
Q 1497 4750 2381 4750 
Q 2619 4750 2861 4703 
Q 3103 4656 3366 4563 
z
" transform="scale(0.015625)"/>
       </defs>
       <use xlink:href="#DejaVuSans-36"/>
       <use xlink:href="#DejaVuSans-30" transform="translate(63.623047 0)"/>
      </g>
     </g>
    </g>
    <g id="xtick_4">
     <g id="line2d_7">
      <path d="M 280.38008 222.917969 
L 280.38008 23.077969 
" clip-path="url(#pd64425469c)" style="fill: none; stroke: #dddddd; stroke-opacity: 0.6; stroke-width: 0.8; stroke-linecap: square"/>
     </g>
     <g id="line2d_8">
      <g>
       <use xlink:href="#m4b496a921f" x="280.38008" y="222.917969" style="fill: #314f4f; stroke: #314f4f; stroke-width: 0.8"/>
      </g>
     </g>
     <g id="text_4">
      <!-- 80 -->
      <g style="fill: #314f4f" transform="translate(273.38133 238.27625) scale(0.11 -0.11)">
       <defs>
        <path id="DejaVuSans-38" d="M 2034 2216 
Q 1584 2216 1326 1975 
Q 1069 1734 1069 1313 
Q 1069 891 1326 650 
Q 1584 409 2034 409 
Q 2484 409 2743 651 
Q 3003 894 3003 1313 
Q 3003 1734 2745 1975 
Q 2488 2216 2034 2216 
z
M 1403 2484 
Q 997 2584 770 2862 
Q 544 3141 544 3541 
Q 544 4100 942 4425 
Q 1341 4750 2034 4750 
Q 2731 4750 3128 4425 
Q 3525 4100 3525 3541 
Q 3525 3141 3298 2862 
Q 3072 2584 2669 2484 
Q 3125 2378 3379 2068 
Q 3634 1759 3634 1313 
Q 3634 634 3220 271 
Q 2806 -91 2034 -91 
Q 1263 -91 848 271 
Q 434 634 434 1313 
Q 434 1759 690 2068 
Q 947 2378 1403 2484 
z
M 1172 3481 
Q 1172 3119 1398 2916 
Q 1625 2713 2034 2713 
Q 2441 2713 2670 2916 
Q 2900 3119 2900 3481 
Q 2900 3844 2670 4047 
Q 2441 4250 2034 4250 
Q 1625 4250 1398 4047 
Q 1172 3844 1172 3481 
z
" transform="scale(0.015625)"/>
       </defs>
       <use xlink:href="#DejaVuSans-38"/>
       <use xlink:href="#DejaVuSans-30" transform="translate(63.623047 0)"/>
      </g>
     </g>
    </g>
    <g id="xtick_5">
     <g id="line2d_9">
      <path d="M 343.173403 222.917969 
L 343.173403 23.077969 
" clip-path="url(#pd64425469c)" style="fill: none; stroke: #dddddd; stroke-opacity: 0.6; stroke-width: 0.8; stroke-linecap: square"/>
     </g>
     <g id="line2d_10">
      <g>
       <use xlink:href="#m4b496a921f" x="343.173403" y="222.917969" style="fill: #314f4f; stroke: #314f4f; stroke-width: 0.8"/>
      </g>
     </g>
     <g id="text_5">
      <!-- 100 -->
      <g style="fill: #314f4f" transform="translate(332.675278 238.27625) scale(0.11 -0.11)">
       <defs>
        <path id="DejaVuSans-31" d="M 794 531 
L 1825 531 
L 1825 4091 
L 703 3866 
L 703 4441 
L 1819 4666 
L 2450 4666 
L 2450 531 
L 3481 531 
L 3481 0 
L 794 0 
L 794 531 
z
" transform="scale(0.015625)"/>
       </defs>
       <use xlink:href="#DejaVuSans-31"/>
       <use xlink:href="#DejaVuSans-30" transform="translate(63.623047 0)"/>
       <use xlink:href="#DejaVuSans-30" transform="translate(127.246094 0)"/>
      </g>
     </g>
    </g>
    <g id="text_6">
     <!-- minutes -->
     <g style="fill: #314f4f" transform="translate(191.561953 252.922187) scale(0.11 -0.11)">
      <defs>
       <path id="DejaVuSans-6d" d="M 3328 2828 
Q 3544 3216 3844 3400 
Q 4144 3584 4550 3584 
Q 5097 3584 5394 3201 
Q 5691 2819 5691 2113 
L 5691 0 
L 5113 0 
L 5113 2094 
Q 5113 2597 4934 2840 
Q 4756 3084 4391 3084 
Q 3944 3084 3684 2787 
Q 3425 2491 3425 1978 
L 3425 0 
L 2847 0 
L 2847 2094 
Q 2847 2600 2669 2842 
Q 2491 3084 2119 3084 
Q 1678 3084 1418 2786 
Q 1159 2488 1159 1978 
L 1159 0 
L 581 0 
L 581 3500 
L 1159 3500 
L 1159 2956 
Q 1356 3278 1631 3431 
Q 1906 3584 2284 3584 
Q 2666 3584 2933 3390 
Q 3200 3197 3328 2828 
z
" transform="scale(0.015625)"/>
       <path id="DejaVuSans-69" d="M 603 3500 
L 1178 3500 
L 1178 0 
L 603 0 
L 603 3500 
z
M 603 4863 
L 1178 4863 
L 1178 4134 
L 603 4134 
L 603 4863 
z
" transform="scale(0.015625)"/>
       <path id="DejaVuSans-6e" d="M 3513 2113 
L 3513 0 
L 2938 0 
L 2938 2094 
Q 2938 2591 2744 2837 
Q 2550 3084 2163 3084 
Q 1697 3084 1428 2787 
Q 1159 2491 1159 1978 
L 1159 0 
L 581 0 
L 581 3500 
L 1159 3500 
L 1159 2956 
Q 1366 3272 1645 3428 
Q 1925 3584 2291 3584 
Q 2894 3584 3203 3211 
Q 3513 2838 3513 2113 
z
" transform="scale(0.015625)"/>
       <path id="DejaVuSans-75" d="M 544 1381 
L 544 3500 
L 1119 3500 
L 1119 1403 
Q 1119 906 1312 657 
Q 1506 409 1894 409 
Q 2359 409 2629 706 
Q 2900 1003 2900 1516 
L 2900 3500 
L 3475 3500 
L 3475 0 
L 2900 0 
L 2900 538 
Q 2691 219 2414 64 
Q 2138 -91 1772 -91 
Q 1169 -91 856 284 
Q 544 659 544 1381 
z
M 1991 3584 
L 1991 3584 
z
" transform="scale(0.015625)"/>
       <path id="DejaVuSans-74" d="M 1172 4494 
L 1172 3500 
L 2356 3500 
L 2356 3053 
L 1172 3053 
L 1172 1153 
Q 1172 725 1289 603 
Q 1406 481 1766 481 
L 2356 481 
L 2356 0 
L 1766 0 
Q 1100 0 847 248 
Q 594 497 594 1153 
L 594 3053 
L 172 3053 
L 172 3500 
L 594 3500 
L 594 4494 
L 1172 4494 
z
" transform="scale(0.015625)"/>
       <path id="DejaVuSans-65" d="M 3597 1894 
L 3597 1613 
L 953 1613 
Q 991 1019 1311 708 
Q 1631 397 2203 397 
Q 2534 397 2845 478 
Q 3156 559 3463 722 
L 3463 178 
Q 3153 47 2828 -22 
Q 2503 -91 2169 -91 
Q 1331 -91 842 396 
Q 353 884 353 1716 
Q 353 2575 817 3079 
Q 1281 3584 2069 3584 
Q 2775 3584 3186 3129 
Q 3597 2675 3597 1894 
z
M 3022 2063 
Q 3016 2534 2758 2815 
Q 2500 3097 2075 3097 
Q 1594 3097 1305 2825 
Q 1016 2553 972 2059 
L 3022 2063 
z
" transform="scale(0.015625)"/>
       <path id="DejaVuSans-73" d="M 2834 3397 
L 2834 2853 
Q 2591 2978 2328 3040 
Q 2066 3103 1784 3103 
Q 1356 3103 1142 2972 
Q 928 2841 928 2578 
Q 928 2378 1081 2264 
Q 1234 2150 1697 2047 
L 1894 2003 
Q 2506 1872 2764 1633 
Q 3022 1394 3022 966 
Q 3022 478 2636 193 
Q 2250 -91 1575 -91 
Q 1294 -91 989 -36 
Q 684 19 347 128 
L 347 722 
Q 666 556 975 473 
Q 1284 391 1588 391 
Q 1994 391 2212 530 
Q 2431 669 2431 922 
Q 2431 1156 2273 1281 
Q 2116 1406 1581 1522 
L 1381 1569 
Q 847 1681 609 1914 
Q 372 2147 372 2553 
Q 372 3047 722 3315 
Q 1072 3584 1716 3584 
Q 2034 3584 2315 3537 
Q 2597 3491 2834 3397 
z
" transform="scale(0.015625)"/>
      </defs>
      <use xlink:href="#DejaVuSans-6d"/>
      <use xlink:href="#DejaVuSans-69" transform="translate(97.412109 0)"/>
      <use xlink:href="#DejaVuSans-6e" transform="translate(125.195312 0)"/>
      <use xlink:href="#DejaVuSans-75" transform="translate(188.574219 0)"/>
      <use xlink:href="#DejaVuSans-74" transform="translate(251.953125 0)"/>
      <use xlink:href="#DejaVuSans-65" transform="translate(291.162109 0)"/>
      <use xlink:href="#DejaVuSans-73" transform="translate(352.685547 0)"/>
     </g>
    </g>
   </g>
   <g id="matplotlib.axis_2">
    <g id="ytick_1">
     <g id="line2d_11">
      <path d="M 42.843438 222.917969 
L 384.804688 222.917969 
" clip-path="url(#pd64425469c)" style="fill: none; stroke: #dddddd; stroke-opacity: 0.6; stroke-width: 0.8; stroke-linecap: square"/>
     </g>
     <g id="line2d_12">
      <defs>
       <path id="m7876ec0b3d" d="M 0 0 
L -3.5 0 
" style="stroke: #314f4f; stroke-width: 0.8"/>
      </defs>
      <g>
       <use xlink:href="#m7876ec0b3d" x="42.843438" y="222.917969" style="fill: #314f4f; stroke: #314f4f; stroke-width: 0.8"/>
      </g>
     </g>
     <g id="text_7">
      <!-- 0 -->
      <g style="fill: #314f4f" transform="translate(28.844688 227.097109) scale(0.11 -0.11)">
       <use xlink:href="#DejaVuSans-30"/>
      </g>
     </g>
    </g>
    <g id="ytick_2">
     <g id="line2d_13">
      <path d="M 42.843438 195.728853 
L 384.804688 195.728853 
" clip-path="url(#pd64425469c)" style="fill: none; stroke: #dddddd; stroke-opacity: 0.6; stroke-width: 0.8; stroke-linecap: square"/>
     </g>
     <g id="line2d_14">
      <g>
       <use xlink:href="#m7876ec0b3d" x="42.843438" y="195.728853" style="fill: #314f4f; stroke: #314f4f; stroke-width: 0.8"/>
      </g>
     </g>
     <g id="text_8">
      <!-- 2 -->
      <g style="fill: #314f4f" transform="translate(28.844688 199.907994) scale(0.11 -0.11)">
       <use xlink:href="#DejaVuSans-32"/>
      </g>
     </g>
    </g>
    <g id="ytick_3">
     <g id="line2d_15">
      <path d="M 42.843438 168.539737 
L 384.804688 168.539737 
" clip-path="url(#pd64425469c)" style="fill: none; stroke: #dddddd; stroke-opacity: 0.6; stroke-width: 0.8; stroke-linecap: square"/>
     </g>
     <g id="line2d_16">
      <g>
       <use xlink:href="#m7876ec0b3d" x="42.843438" y="168.539737" style="fill: #314f4f; stroke: #314f4f; stroke-width: 0.8"/>
      </g>
     </g>
     <g id="text_9">
      <!-- 4 -->
      <g style="fill: #314f4f" transform="translate(28.844688 172.718878) scale(0.11 -0.11)">
       <use xlink:href="#DejaVuSans-34"/>
      </g>
     </g>
    </g>
    <g id="ytick_4">
     <g id="line2d_17">
      <path d="M 42.843438 141.350622 
L 384.804688 141.350622 
" clip-path="url(#pd64425469c)" style="fill: none; stroke: #dddddd; stroke-opacity: 0.6; stroke-width: 0.8; stroke-linecap: square"/>
     </g>
     <g id="line2d_18">
      <g>
       <use xlink:href="#m7876ec0b3d" x="42.843438" y="141.350622" style="fill: #314f4f; stroke: #314f4f; stroke-width: 0.8"/>
      </g>
     </g>
     <g id="text_10">
      <!-- 6 -->
      <g style="fill: #314f4f" transform="translate(28.844688 145.529762) scale(0.11 -0.11)">
       <use xlink:href="#DejaVuSans-36"/>
      </g>
     </g>
    </g>
    <g id="ytick_5">
     <g id="line2d_19">
      <path d="M 42.843438 114.161506 
L 384.804688 114.161506 
" clip-path="url(#pd64425469c)" style="fill: none; stroke: #dddddd; stroke-opacity: 0.6; stroke-width: 0.8; stroke-linecap: square"/>
     </g>
     <g id="line2d_20">
      <g>
       <use xlink:href="#m7876ec0b3d" x="42.843438" y="114.161506" style="fill: #314f4f; stroke: #314f4f; stroke-width: 0.8"/>
      </g>
     </g>
     <g id="text_11">
      <!-- 8 -->
      <g style="fill: #314f4f" transform="translate(28.844688 118.340647) scale(0.11 -0.11)">
       <use xlink:href="#DejaVuSans-38"/>
      </g>
     </g>
    </g>
    <g id="ytick_6">
     <g id="line2d_21">
      <path d="M 42.843438 86.972391 
L 384.804688 86.972391 
" clip-path="url(#pd64425469c)" style="fill: none; stroke: #dddddd; stroke-opacity: 0.6; stroke-width: 0.8; stroke-linecap: square"/>
     </g>
     <g id="line2d_22">
      <g>
       <use xlink:href="#m7876ec0b3d" x="42.843438" y="86.972391" style="fill: #314f4f; stroke: #314f4f; stroke-width: 0.8"/>
      </g>
     </g>
     <g id="text_12">
      <!-- 10 -->
      <g style="fill: #314f4f" transform="translate(21.845938 91.151531) scale(0.11 -0.11)">
       <use xlink:href="#DejaVuSans-31"/>
       <use xlink:href="#DejaVuSans-30" transform="translate(63.623047 0)"/>
      </g>
     </g>
    </g>
    <g id="ytick_7">
     <g id="line2d_23">
      <path d="M 42.843438 59.783275 
L 384.804688 59.783275 
" clip-path="url(#pd64425469c)" style="fill: none; stroke: #dddddd; stroke-opacity: 0.6; stroke-width: 0.8; stroke-linecap: square"/>
     </g>
     <g id="line2d_24">
      <g>
       <use xlink:href="#m7876ec0b3d" x="42.843438" y="59.783275" style="fill: #314f4f; stroke: #314f4f; stroke-width: 0.8"/>
      </g>
     </g>
     <g id="text_13">
      <!-- 12 -->
      <g style="fill: #314f4f" transform="translate(21.845938 63.962415) scale(0.11 -0.11)">
       <use xlink:href="#DejaVuSans-31"/>
       <use xlink:href="#DejaVuSans-32" transform="translate(63.623047 0)"/>
      </g>
     </g>
    </g>
    <g id="ytick_8">
     <g id="line2d_25">
      <path d="M 42.843438 32.594159 
L 384.804688 32.594159 
" clip-path="url(#pd64425469c)" style="fill: none; stroke: #dddddd; stroke-opacity: 0.6; stroke-width: 0.8; stroke-linecap: square"/>
     </g>
     <g id="line2d_26">
      <g>
       <use xlink:href="#m7876ec0b3d" x="42.843438" y="32.594159" style="fill: #314f4f; stroke: #314f4f; stroke-width: 0.8"/>
      </g>
     </g>
     <g id="text_14">
      <!-- 14 -->
      <g style="fill: #314f4f" transform="translate(21.845938 36.7733) scale(0.11 -0.11)">
       <use xlink:href="#DejaVuSans-31"/>
       <use xlink:href="#DejaVuSans-34" transform="translate(63.623047 0)"/>
      </g>
     </g>
    </g>
    <g id="text_15">
     <!-- users -->
     <g style="fill: #314f4f" transform="translate(15.558281 137.859141) rotate(-90) scale(0.11 -0.11)">
      <defs>
       <path id="DejaVuSans-72" d="M 2631 2963 
Q 2534 3019 2420 3045 
Q 2306 3072 2169 3072 
Q 1681 3072 1420 2755 
Q 1159 2438 1159 1844 
L 1159 0 
L 581 0 
L 581 3500 
L 1159 3500 
L 1159 2956 
Q 1341 3275 1631 3429 
Q 1922 3584 2338 3584 
Q 2397 3584 2469 3576 
Q 2541 3569 2628 3553 
L 2631 2963 
z
" transform="scale(0.015625)"/>
      </defs>
      <use xlink:href="#DejaVuSans-75"/>
      <use xlink:href="#DejaVuSans-73" transform="translate(63.378906 0)"/>
      <use xlink:href="#DejaVuSans-65" transform="translate(115.478516 0)"/>
      <use xlink:href="#DejaVuSans-72" transform="translate(177.001953 0)"/>
      <use xlink:href="#DejaVuSans-73" transform="translate(218.115234 0)"/>
     </g>
    </g>
   </g>
   <g id="line2d_27">
    <path d="M 135.217149 222.917969 
L 135.217149 23.077969 
" clip-path="url(#pd64425469c)" style="fill: none; stroke: #e64173; stroke-width: 2.5; stroke-linecap: square"/>
   </g>
   <g id="line2d_28">
    <path d="M 130.445369 222.917969 
L 130.445369 23.077969 
" clip-path="url(#pd64425469c)" style="fill: none; stroke-dasharray: 9.25,4; stroke-dashoffset: 0; stroke: #314f4f; stroke-width: 2.5"/>
   </g>
   <g id="patch_21">
    <path d="M 42.843438 222.917969 
L 42.843438 23.077969 
" style="fill: none; stroke: #314f4f; stroke-width: 0.8; stroke-linejoin: miter; stroke-linecap: square"/>
   </g>
   <g id="patch_22">
    <path d="M 42.843438 222.917969 
L 384.804688 222.917969 
" style="fill: none; stroke: #314f4f; stroke-width: 0.8; stroke-linejoin: miter; stroke-linecap: square"/>
   </g>
   <g id="text_16">
    <!-- Daily listening minutes (control) -->
    <g transform="translate(109.553906 17.077969) scale(0.13 -0.13)">
     <defs>
      <path id="DejaVuSans-44" d="M 1259 4147 
L 1259 519 
L 2022 519 
Q 2988 519 3436 956 
Q 3884 1394 3884 2338 
Q 3884 3275 3436 3711 
Q 2988 4147 2022 4147 
L 1259 4147 
z
M 628 4666 
L 1925 4666 
Q 3281 4666 3915 4102 
Q 4550 3538 4550 2338 
Q 4550 1131 3912 565 
Q 3275 0 1925 0 
L 628 0 
L 628 4666 
z
" transform="scale(0.015625)"/>
      <path id="DejaVuSans-61" d="M 2194 1759 
Q 1497 1759 1228 1600 
Q 959 1441 959 1056 
Q 959 750 1161 570 
Q 1363 391 1709 391 
Q 2188 391 2477 730 
Q 2766 1069 2766 1631 
L 2766 1759 
L 2194 1759 
z
M 3341 1997 
L 3341 0 
L 2766 0 
L 2766 531 
Q 2569 213 2275 61 
Q 1981 -91 1556 -91 
Q 1019 -91 701 211 
Q 384 513 384 1019 
Q 384 1609 779 1909 
Q 1175 2209 1959 2209 
L 2766 2209 
L 2766 2266 
Q 2766 2663 2505 2880 
Q 2244 3097 1772 3097 
Q 1472 3097 1187 3025 
Q 903 2953 641 2809 
L 641 3341 
Q 956 3463 1253 3523 
Q 1550 3584 1831 3584 
Q 2591 3584 2966 3190 
Q 3341 2797 3341 1997 
z
" transform="scale(0.015625)"/>
      <path id="DejaVuSans-6c" d="M 603 4863 
L 1178 4863 
L 1178 0 
L 603 0 
L 603 4863 
z
" transform="scale(0.015625)"/>
      <path id="DejaVuSans-79" d="M 2059 -325 
Q 1816 -950 1584 -1140 
Q 1353 -1331 966 -1331 
L 506 -1331 
L 506 -850 
L 844 -850 
Q 1081 -850 1212 -737 
Q 1344 -625 1503 -206 
L 1606 56 
L 191 3500 
L 800 3500 
L 1894 763 
L 2988 3500 
L 3597 3500 
L 2059 -325 
z
" transform="scale(0.015625)"/>
      <path id="DejaVuSans-20" transform="scale(0.015625)"/>
      <path id="DejaVuSans-67" d="M 2906 1791 
Q 2906 2416 2648 2759 
Q 2391 3103 1925 3103 
Q 1463 3103 1205 2759 
Q 947 2416 947 1791 
Q 947 1169 1205 825 
Q 1463 481 1925 481 
Q 2391 481 2648 825 
Q 2906 1169 2906 1791 
z
M 3481 434 
Q 3481 -459 3084 -895 
Q 2688 -1331 1869 -1331 
Q 1566 -1331 1297 -1286 
Q 1028 -1241 775 -1147 
L 775 -588 
Q 1028 -725 1275 -790 
Q 1522 -856 1778 -856 
Q 2344 -856 2625 -561 
Q 2906 -266 2906 331 
L 2906 616 
Q 2728 306 2450 153 
Q 2172 0 1784 0 
Q 1141 0 747 490 
Q 353 981 353 1791 
Q 353 2603 747 3093 
Q 1141 3584 1784 3584 
Q 2172 3584 2450 3431 
Q 2728 3278 2906 2969 
L 2906 3500 
L 3481 3500 
L 3481 434 
z
" transform="scale(0.015625)"/>
      <path id="DejaVuSans-28" d="M 1984 4856 
Q 1566 4138 1362 3434 
Q 1159 2731 1159 2009 
Q 1159 1288 1364 580 
Q 1569 -128 1984 -844 
L 1484 -844 
Q 1016 -109 783 600 
Q 550 1309 550 2009 
Q 550 2706 781 3412 
Q 1013 4119 1484 4856 
L 1984 4856 
z
" transform="scale(0.015625)"/>
      <path id="DejaVuSans-63" d="M 3122 3366 
L 3122 2828 
Q 2878 2963 2633 3030 
Q 2388 3097 2138 3097 
Q 1578 3097 1268 2742 
Q 959 2388 959 1747 
Q 959 1106 1268 751 
Q 1578 397 2138 397 
Q 2388 397 2633 464 
Q 2878 531 3122 666 
L 3122 134 
Q 2881 22 2623 -34 
Q 2366 -91 2075 -91 
Q 1284 -91 818 406 
Q 353 903 353 1747 
Q 353 2603 823 3093 
Q 1294 3584 2113 3584 
Q 2378 3584 2631 3529 
Q 2884 3475 3122 3366 
z
" transform="scale(0.015625)"/>
      <path id="DejaVuSans-6f" d="M 1959 3097 
Q 1497 3097 1228 2736 
Q 959 2375 959 1747 
Q 959 1119 1226 758 
Q 1494 397 1959 397 
Q 2419 397 2687 759 
Q 2956 1122 2956 1747 
Q 2956 2369 2687 2733 
Q 2419 3097 1959 3097 
z
M 1959 3584 
Q 2709 3584 3137 3096 
Q 3566 2609 3566 1747 
Q 3566 888 3137 398 
Q 2709 -91 1959 -91 
Q 1206 -91 779 398 
Q 353 888 353 1747 
Q 353 2609 779 3096 
Q 1206 3584 1959 3584 
z
" transform="scale(0.015625)"/>
      <path id="DejaVuSans-29" d="M 513 4856 
L 1013 4856 
Q 1481 4119 1714 3412 
Q 1947 2706 1947 2009 
Q 1947 1309 1714 600 
Q 1481 -109 1013 -844 
L 513 -844 
Q 928 -128 1133 580 
Q 1338 1288 1338 2009 
Q 1338 2731 1133 3434 
Q 928 4138 513 4856 
z
" transform="scale(0.015625)"/>
     </defs>
     <use xlink:href="#DejaVuSans-44"/>
     <use xlink:href="#DejaVuSans-61" transform="translate(77.001953 0)"/>
     <use xlink:href="#DejaVuSans-69" transform="translate(138.28125 0)"/>
     <use xlink:href="#DejaVuSans-6c" transform="translate(166.064453 0)"/>
     <use xlink:href="#DejaVuSans-79" transform="translate(193.847656 0)"/>
     <use xlink:href="#DejaVuSans-20" transform="translate(253.027344 0)"/>
     <use xlink:href="#DejaVuSans-6c" transform="translate(284.814453 0)"/>
     <use xlink:href="#DejaVuSans-69" transform="translate(312.597656 0)"/>
     <use xlink:href="#DejaVuSans-73" transform="translate(340.380859 0)"/>
     <use xlink:href="#DejaVuSans-74" transform="translate(392.480469 0)"/>
     <use xlink:href="#DejaVuSans-65" transform="translate(431.689453 0)"/>
     <use xlink:href="#DejaVuSans-6e" transform="translate(493.212891 0)"/>
     <use xlink:href="#DejaVuSans-69" transform="translate(556.591797 0)"/>
     <use xlink:href="#DejaVuSans-6e" transform="translate(584.375 0)"/>
     <use xlink:href="#DejaVuSans-67" transform="translate(647.753906 0)"/>
     <use xlink:href="#DejaVuSans-20" transform="translate(711.230469 0)"/>
     <use xlink:href="#DejaVuSans-6d" transform="translate(743.017578 0)"/>
     <use xlink:href="#DejaVuSans-69" transform="translate(840.429688 0)"/>
     <use xlink:href="#DejaVuSans-6e" transform="translate(868.212891 0)"/>
     <use xlink:href="#DejaVuSans-75" transform="translate(931.591797 0)"/>
     <use xlink:href="#DejaVuSans-74" transform="translate(994.970703 0)"/>
     <use xlink:href="#DejaVuSans-65" transform="translate(1034.179688 0)"/>
     <use xlink:href="#DejaVuSans-73" transform="translate(1095.703125 0)"/>
     <use xlink:href="#DejaVuSans-20" transform="translate(1147.802734 0)"/>
     <use xlink:href="#DejaVuSans-28" transform="translate(1179.589844 0)"/>
     <use xlink:href="#DejaVuSans-63" transform="translate(1218.603516 0)"/>
     <use xlink:href="#DejaVuSans-6f" transform="translate(1273.583984 0)"/>
     <use xlink:href="#DejaVuSans-6e" transform="translate(1334.765625 0)"/>
     <use xlink:href="#DejaVuSans-74" transform="translate(1398.144531 0)"/>
     <use xlink:href="#DejaVuSans-72" transform="translate(1437.353516 0)"/>
     <use xlink:href="#DejaVuSans-6f" transform="translate(1476.216797 0)"/>
     <use xlink:href="#DejaVuSans-6c" transform="translate(1537.398438 0)"/>
     <use xlink:href="#DejaVuSans-29" transform="translate(1565.181641 0)"/>
    </g>
   </g>
   <g id="legend_1">
    <g id="line2d_29">
     <path d="M 325.215937 33.556719 
L 333.215937 33.556719 
L 341.215937 33.556719 
" style="fill: none; stroke: #e64173; stroke-width: 2.5; stroke-linecap: square"/>
    </g>
    <g id="text_17">
     <!-- mean -->
     <g transform="translate(347.615937 36.356719) scale(0.08 -0.08)">
      <use xlink:href="#DejaVuSans-6d"/>
      <use xlink:href="#DejaVuSans-65" transform="translate(97.412109 0)"/>
      <use xlink:href="#DejaVuSans-61" transform="translate(158.935547 0)"/>
      <use xlink:href="#DejaVuSans-6e" transform="translate(220.214844 0)"/>
     </g>
    </g>
    <g id="line2d_30">
     <path d="M 325.215937 45.299219 
L 333.215937 45.299219 
L 341.215937 45.299219 
" style="fill: none; stroke-dasharray: 9.25,4; stroke-dashoffset: 0; stroke: #314f4f; stroke-width: 2.5"/>
    </g>
    <g id="text_18">
     <!-- median -->
     <g transform="translate(347.615937 48.099219) scale(0.08 -0.08)">
      <defs>
       <path id="DejaVuSans-64" d="M 2906 2969 
L 2906 4863 
L 3481 4863 
L 3481 0 
L 2906 0 
L 2906 525 
Q 2725 213 2448 61 
Q 2172 -91 1784 -91 
Q 1150 -91 751 415 
Q 353 922 353 1747 
Q 353 2572 751 3078 
Q 1150 3584 1784 3584 
Q 2172 3584 2448 3432 
Q 2725 3281 2906 2969 
z
M 947 1747 
Q 947 1113 1208 752 
Q 1469 391 1925 391 
Q 2381 391 2643 752 
Q 2906 1113 2906 1747 
Q 2906 2381 2643 2742 
Q 2381 3103 1925 3103 
Q 1469 3103 1208 2742 
Q 947 2381 947 1747 
z
" transform="scale(0.015625)"/>
      </defs>
      <use xlink:href="#DejaVuSans-6d"/>
      <use xlink:href="#DejaVuSans-65" transform="translate(97.412109 0)"/>
      <use xlink:href="#DejaVuSans-64" transform="translate(158.935547 0)"/>
      <use xlink:href="#DejaVuSans-69" transform="translate(222.412109 0)"/>
      <use xlink:href="#DejaVuSans-61" transform="translate(250.195312 0)"/>
      <use xlink:href="#DejaVuSans-6e" transform="translate(311.474609 0)"/>
     </g>
    </g>
   </g>
  </g>
  <g id="axes_2">
   <g id="patch_23">
    <path d="M 432.903438 222.917969 
L 774.864688 222.917969 
L 774.864688 23.077969 
L 432.903438 23.077969 
z
" style="fill: #ffffff"/>
   </g>
   <g id="matplotlib.axis_3"/>
   <g id="matplotlib.axis_4">
    <g id="ytick_9">
     <g id="line2d_31">
      <path d="M 432.903438 221.464893 
L 774.864688 221.464893 
" clip-path="url(#p587bcb832e)" style="fill: none; stroke: #dddddd; stroke-opacity: 0.6; stroke-width: 0.8; stroke-linecap: square"/>
     </g>
     <g id="line2d_32">
      <g>
       <use xlink:href="#m7876ec0b3d" x="432.903438" y="221.464893" style="fill: #314f4f; stroke: #314f4f; stroke-width: 0.8"/>
      </g>
     </g>
     <g id="text_19">
      <!-- 32 -->
      <g style="fill: #314f4f" transform="translate(411.905938 225.644034) scale(0.11 -0.11)">
       <defs>
        <path id="DejaVuSans-33" d="M 2597 2516 
Q 3050 2419 3304 2112 
Q 3559 1806 3559 1356 
Q 3559 666 3084 287 
Q 2609 -91 1734 -91 
Q 1441 -91 1130 -33 
Q 819 25 488 141 
L 488 750 
Q 750 597 1062 519 
Q 1375 441 1716 441 
Q 2309 441 2620 675 
Q 2931 909 2931 1356 
Q 2931 1769 2642 2001 
Q 2353 2234 1838 2234 
L 1294 2234 
L 1294 2753 
L 1863 2753 
Q 2328 2753 2575 2939 
Q 2822 3125 2822 3475 
Q 2822 3834 2567 4026 
Q 2313 4219 1838 4219 
Q 1578 4219 1281 4162 
Q 984 4106 628 3988 
L 628 4550 
Q 988 4650 1302 4700 
Q 1616 4750 1894 4750 
Q 2613 4750 3031 4423 
Q 3450 4097 3450 3541 
Q 3450 3153 3228 2886 
Q 3006 2619 2597 2516 
z
" transform="scale(0.015625)"/>
       </defs>
       <use xlink:href="#DejaVuSans-33"/>
       <use xlink:href="#DejaVuSans-32" transform="translate(63.623047 0)"/>
      </g>
     </g>
    </g>
    <g id="ytick_10">
     <g id="line2d_33">
      <path d="M 432.903438 178.222304 
L 774.864688 178.222304 
" clip-path="url(#p587bcb832e)" style="fill: none; stroke: #dddddd; stroke-opacity: 0.6; stroke-width: 0.8; stroke-linecap: square"/>
     </g>
     <g id="line2d_34">
      <g>
       <use xlink:href="#m7876ec0b3d" x="432.903438" y="178.222304" style="fill: #314f4f; stroke: #314f4f; stroke-width: 0.8"/>
      </g>
     </g>
     <g id="text_20">
      <!-- 34 -->
      <g style="fill: #314f4f" transform="translate(411.905938 182.401444) scale(0.11 -0.11)">
       <use xlink:href="#DejaVuSans-33"/>
       <use xlink:href="#DejaVuSans-34" transform="translate(63.623047 0)"/>
      </g>
     </g>
    </g>
    <g id="ytick_11">
     <g id="line2d_35">
      <path d="M 432.903438 134.979714 
L 774.864688 134.979714 
" clip-path="url(#p587bcb832e)" style="fill: none; stroke: #dddddd; stroke-opacity: 0.6; stroke-width: 0.8; stroke-linecap: square"/>
     </g>
     <g id="line2d_36">
      <g>
       <use xlink:href="#m7876ec0b3d" x="432.903438" y="134.979714" style="fill: #314f4f; stroke: #314f4f; stroke-width: 0.8"/>
      </g>
     </g>
     <g id="text_21">
      <!-- 36 -->
      <g style="fill: #314f4f" transform="translate(411.905938 139.158854) scale(0.11 -0.11)">
       <use xlink:href="#DejaVuSans-33"/>
       <use xlink:href="#DejaVuSans-36" transform="translate(63.623047 0)"/>
      </g>
     </g>
    </g>
    <g id="ytick_12">
     <g id="line2d_37">
      <path d="M 432.903438 91.737124 
L 774.864688 91.737124 
" clip-path="url(#p587bcb832e)" style="fill: none; stroke: #dddddd; stroke-opacity: 0.6; stroke-width: 0.8; stroke-linecap: square"/>
     </g>
     <g id="line2d_38">
      <g>
       <use xlink:href="#m7876ec0b3d" x="432.903438" y="91.737124" style="fill: #314f4f; stroke: #314f4f; stroke-width: 0.8"/>
      </g>
     </g>
     <g id="text_22">
      <!-- 38 -->
      <g style="fill: #314f4f" transform="translate(411.905938 95.916265) scale(0.11 -0.11)">
       <use xlink:href="#DejaVuSans-33"/>
       <use xlink:href="#DejaVuSans-38" transform="translate(63.623047 0)"/>
      </g>
     </g>
    </g>
    <g id="ytick_13">
     <g id="line2d_39">
      <path d="M 432.903438 48.494534 
L 774.864688 48.494534 
" clip-path="url(#p587bcb832e)" style="fill: none; stroke: #dddddd; stroke-opacity: 0.6; stroke-width: 0.8; stroke-linecap: square"/>
     </g>
     <g id="line2d_40">
      <g>
       <use xlink:href="#m7876ec0b3d" x="432.903438" y="48.494534" style="fill: #314f4f; stroke: #314f4f; stroke-width: 0.8"/>
      </g>
     </g>
     <g id="text_23">
      <!-- 40 -->
      <g style="fill: #314f4f" transform="translate(411.905938 52.673675) scale(0.11 -0.11)">
       <use xlink:href="#DejaVuSans-34"/>
       <use xlink:href="#DejaVuSans-30" transform="translate(63.623047 0)"/>
      </g>
     </g>
    </g>
    <g id="text_24">
     <!-- minutes -->
     <g style="fill: #314f4f" transform="translate(405.618281 145.260078) rotate(-90) scale(0.11 -0.11)">
      <use xlink:href="#DejaVuSans-6d"/>
      <use xlink:href="#DejaVuSans-69" transform="translate(97.412109 0)"/>
      <use xlink:href="#DejaVuSans-6e" transform="translate(125.195312 0)"/>
      <use xlink:href="#DejaVuSans-75" transform="translate(188.574219 0)"/>
      <use xlink:href="#DejaVuSans-74" transform="translate(251.953125 0)"/>
      <use xlink:href="#DejaVuSans-65" transform="translate(291.162109 0)"/>
      <use xlink:href="#DejaVuSans-73" transform="translate(352.685547 0)"/>
     </g>
    </g>
   </g>
   <g id="line2d_41">
    <path d="M 432.903438 183.306508 
L 774.864688 183.306508 
" clip-path="url(#p587bcb832e)" style="fill: none; stroke-dasharray: 2,3.3; stroke-dashoffset: 0; stroke: #314f4f; stroke-width: 2"/>
   </g>
   <g id="line2d_42">
    <path d="M 432.903438 32.161605 
L 774.864688 32.161605 
" clip-path="url(#p587bcb832e)" style="fill: none; stroke: #e64173; stroke-width: 2.5; stroke-linecap: square"/>
   </g>
   <g id="line2d_43">
    <path d="M 432.903438 213.834332 
L 774.864688 213.834332 
" clip-path="url(#p587bcb832e)" style="fill: none; stroke-dasharray: 9.25,4; stroke-dashoffset: 0; stroke: #181485; stroke-width: 2.5"/>
   </g>
   <g id="patch_24">
    <path d="M 432.903438 222.917969 
L 432.903438 23.077969 
" style="fill: none; stroke: #314f4f; stroke-width: 0.8; stroke-linejoin: miter; stroke-linecap: square"/>
   </g>
   <g id="patch_25">
    <path d="M 432.903438 222.917969 
L 774.864688 222.917969 
" style="fill: none; stroke: #314f4f; stroke-width: 0.8; stroke-linejoin: miter; stroke-linecap: square"/>
   </g>
   <g id="text_25">
    <!-- One outlier drags the mean -->
    <g transform="translate(514.062188 17.077969) scale(0.13 -0.13)">
     <defs>
      <path id="DejaVuSans-4f" d="M 2522 4238 
Q 1834 4238 1429 3725 
Q 1025 3213 1025 2328 
Q 1025 1447 1429 934 
Q 1834 422 2522 422 
Q 3209 422 3611 934 
Q 4013 1447 4013 2328 
Q 4013 3213 3611 3725 
Q 3209 4238 2522 4238 
z
M 2522 4750 
Q 3503 4750 4090 4092 
Q 4678 3434 4678 2328 
Q 4678 1225 4090 567 
Q 3503 -91 2522 -91 
Q 1538 -91 948 565 
Q 359 1222 359 2328 
Q 359 3434 948 4092 
Q 1538 4750 2522 4750 
z
" transform="scale(0.015625)"/>
      <path id="DejaVuSans-68" d="M 3513 2113 
L 3513 0 
L 2938 0 
L 2938 2094 
Q 2938 2591 2744 2837 
Q 2550 3084 2163 3084 
Q 1697 3084 1428 2787 
Q 1159 2491 1159 1978 
L 1159 0 
L 581 0 
L 581 4863 
L 1159 4863 
L 1159 2956 
Q 1366 3272 1645 3428 
Q 1925 3584 2291 3584 
Q 2894 3584 3203 3211 
Q 3513 2838 3513 2113 
z
" transform="scale(0.015625)"/>
     </defs>
     <use xlink:href="#DejaVuSans-4f"/>
     <use xlink:href="#DejaVuSans-6e" transform="translate(78.710938 0)"/>
     <use xlink:href="#DejaVuSans-65" transform="translate(142.089844 0)"/>
     <use xlink:href="#DejaVuSans-20" transform="translate(203.613281 0)"/>
     <use xlink:href="#DejaVuSans-6f" transform="translate(235.400391 0)"/>
     <use xlink:href="#DejaVuSans-75" transform="translate(296.582031 0)"/>
     <use xlink:href="#DejaVuSans-74" transform="translate(359.960938 0)"/>
     <use xlink:href="#DejaVuSans-6c" transform="translate(399.169922 0)"/>
     <use xlink:href="#DejaVuSans-69" transform="translate(426.953125 0)"/>
     <use xlink:href="#DejaVuSans-65" transform="translate(454.736328 0)"/>
     <use xlink:href="#DejaVuSans-72" transform="translate(516.259766 0)"/>
     <use xlink:href="#DejaVuSans-20" transform="translate(557.373047 0)"/>
     <use xlink:href="#DejaVuSans-64" transform="translate(589.160156 0)"/>
     <use xlink:href="#DejaVuSans-72" transform="translate(652.636719 0)"/>
     <use xlink:href="#DejaVuSans-61" transform="translate(693.75 0)"/>
     <use xlink:href="#DejaVuSans-67" transform="translate(755.029297 0)"/>
     <use xlink:href="#DejaVuSans-73" transform="translate(818.505859 0)"/>
     <use xlink:href="#DejaVuSans-20" transform="translate(870.605469 0)"/>
     <use xlink:href="#DejaVuSans-74" transform="translate(902.392578 0)"/>
     <use xlink:href="#DejaVuSans-68" transform="translate(941.601562 0)"/>
     <use xlink:href="#DejaVuSans-65" transform="translate(1004.980469 0)"/>
     <use xlink:href="#DejaVuSans-20" transform="translate(1066.503906 0)"/>
     <use xlink:href="#DejaVuSans-6d" transform="translate(1098.291016 0)"/>
     <use xlink:href="#DejaVuSans-65" transform="translate(1195.703125 0)"/>
     <use xlink:href="#DejaVuSans-61" transform="translate(1257.226562 0)"/>
     <use xlink:href="#DejaVuSans-6e" transform="translate(1318.505859 0)"/>
    </g>
   </g>
   <g id="legend_2">
    <g id="line2d_44">
     <path d="M 670.265938 110.662969 
L 678.265938 110.662969 
L 686.265938 110.662969 
" style="fill: none; stroke-dasharray: 2,3.3; stroke-dashoffset: 0; stroke: #314f4f; stroke-width: 2"/>
    </g>
    <g id="text_26">
     <!-- mean, before -->
     <g transform="translate(692.665938 113.462969) scale(0.08 -0.08)">
      <defs>
       <path id="DejaVuSans-2c" d="M 750 794 
L 1409 794 
L 1409 256 
L 897 -744 
L 494 -744 
L 750 256 
L 750 794 
z
" transform="scale(0.015625)"/>
       <path id="DejaVuSans-62" d="M 3116 1747 
Q 3116 2381 2855 2742 
Q 2594 3103 2138 3103 
Q 1681 3103 1420 2742 
Q 1159 2381 1159 1747 
Q 1159 1113 1420 752 
Q 1681 391 2138 391 
Q 2594 391 2855 752 
Q 3116 1113 3116 1747 
z
M 1159 2969 
Q 1341 3281 1617 3432 
Q 1894 3584 2278 3584 
Q 2916 3584 3314 3078 
Q 3713 2572 3713 1747 
Q 3713 922 3314 415 
Q 2916 -91 2278 -91 
Q 1894 -91 1617 61 
Q 1341 213 1159 525 
L 1159 0 
L 581 0 
L 581 4863 
L 1159 4863 
L 1159 2969 
z
" transform="scale(0.015625)"/>
       <path id="DejaVuSans-66" d="M 2375 4863 
L 2375 4384 
L 1825 4384 
Q 1516 4384 1395 4259 
Q 1275 4134 1275 3809 
L 1275 3500 
L 2222 3500 
L 2222 3053 
L 1275 3053 
L 1275 0 
L 697 0 
L 697 3053 
L 147 3053 
L 147 3500 
L 697 3500 
L 697 3744 
Q 697 4328 969 4595 
Q 1241 4863 1831 4863 
L 2375 4863 
z
" transform="scale(0.015625)"/>
      </defs>
      <use xlink:href="#DejaVuSans-6d"/>
      <use xlink:href="#DejaVuSans-65" transform="translate(97.412109 0)"/>
      <use xlink:href="#DejaVuSans-61" transform="translate(158.935547 0)"/>
      <use xlink:href="#DejaVuSans-6e" transform="translate(220.214844 0)"/>
      <use xlink:href="#DejaVuSans-2c" transform="translate(283.59375 0)"/>
      <use xlink:href="#DejaVuSans-20" transform="translate(315.380859 0)"/>
      <use xlink:href="#DejaVuSans-62" transform="translate(347.167969 0)"/>
      <use xlink:href="#DejaVuSans-65" transform="translate(410.644531 0)"/>
      <use xlink:href="#DejaVuSans-66" transform="translate(472.167969 0)"/>
      <use xlink:href="#DejaVuSans-6f" transform="translate(507.373047 0)"/>
      <use xlink:href="#DejaVuSans-72" transform="translate(568.554688 0)"/>
      <use xlink:href="#DejaVuSans-65" transform="translate(607.417969 0)"/>
     </g>
    </g>
    <g id="line2d_45">
     <path d="M 670.265938 122.405469 
L 678.265938 122.405469 
L 686.265938 122.405469 
" style="fill: none; stroke: #e64173; stroke-width: 2.5; stroke-linecap: square"/>
    </g>
    <g id="text_27">
     <!-- mean, after outlier -->
     <g transform="translate(692.665938 125.205469) scale(0.08 -0.08)">
      <use xlink:href="#DejaVuSans-6d"/>
      <use xlink:href="#DejaVuSans-65" transform="translate(97.412109 0)"/>
      <use xlink:href="#DejaVuSans-61" transform="translate(158.935547 0)"/>
      <use xlink:href="#DejaVuSans-6e" transform="translate(220.214844 0)"/>
      <use xlink:href="#DejaVuSans-2c" transform="translate(283.59375 0)"/>
      <use xlink:href="#DejaVuSans-20" transform="translate(315.380859 0)"/>
      <use xlink:href="#DejaVuSans-61" transform="translate(347.167969 0)"/>
      <use xlink:href="#DejaVuSans-66" transform="translate(408.447266 0)"/>
      <use xlink:href="#DejaVuSans-74" transform="translate(441.902344 0)"/>
      <use xlink:href="#DejaVuSans-65" transform="translate(481.111328 0)"/>
      <use xlink:href="#DejaVuSans-72" transform="translate(542.634766 0)"/>
      <use xlink:href="#DejaVuSans-20" transform="translate(583.748047 0)"/>
      <use xlink:href="#DejaVuSans-6f" transform="translate(615.535156 0)"/>
      <use xlink:href="#DejaVuSans-75" transform="translate(676.716797 0)"/>
      <use xlink:href="#DejaVuSans-74" transform="translate(740.095703 0)"/>
      <use xlink:href="#DejaVuSans-6c" transform="translate(779.304688 0)"/>
      <use xlink:href="#DejaVuSans-69" transform="translate(807.087891 0)"/>
      <use xlink:href="#DejaVuSans-65" transform="translate(834.871094 0)"/>
      <use xlink:href="#DejaVuSans-72" transform="translate(896.394531 0)"/>
     </g>
    </g>
    <g id="line2d_46">
     <path d="M 670.265938 134.147969 
L 678.265938 134.147969 
L 686.265938 134.147969 
" style="fill: none; stroke-dasharray: 9.25,4; stroke-dashoffset: 0; stroke: #181485; stroke-width: 2.5"/>
    </g>
    <g id="text_28">
     <!-- median, after -->
     <g transform="translate(692.665938 136.947969) scale(0.08 -0.08)">
      <use xlink:href="#DejaVuSans-6d"/>
      <use xlink:href="#DejaVuSans-65" transform="translate(97.412109 0)"/>
      <use xlink:href="#DejaVuSans-64" transform="translate(158.935547 0)"/>
      <use xlink:href="#DejaVuSans-69" transform="translate(222.412109 0)"/>
      <use xlink:href="#DejaVuSans-61" transform="translate(250.195312 0)"/>
      <use xlink:href="#DejaVuSans-6e" transform="translate(311.474609 0)"/>
      <use xlink:href="#DejaVuSans-2c" transform="translate(374.853516 0)"/>
      <use xlink:href="#DejaVuSans-20" transform="translate(406.640625 0)"/>
      <use xlink:href="#DejaVuSans-61" transform="translate(438.427734 0)"/>
      <use xlink:href="#DejaVuSans-66" transform="translate(499.707031 0)"/>
      <use xlink:href="#DejaVuSans-74" transform="translate(533.162109 0)"/>
      <use xlink:href="#DejaVuSans-65" transform="translate(572.371094 0)"/>
      <use xlink:href="#DejaVuSans-72" transform="translate(633.894531 0)"/>
     </g>
    </g>
   </g>
  </g>
 </g>
 <defs>
  <clipPath id="pd64425469c">
   <rect x="42.843438" y="23.077969" width="341.96125" height="199.84"/>
  </clipPath>
  <clipPath id="p587bcb832e">
   <rect x="432.903438" y="23.077969" width="341.96125" height="199.84"/>
  </clipPath>
 </defs>
</svg>
