<?xml version="1.0" encoding="utf-8" standalone="no"?>
<!DOCTYPE svg PUBLIC "-//W3C//DTD SVG 1.1//EN"
  "http://www.w3.org/Graphics/SVG/1.1/DTD/svg11.dtd">
<svg xmlns:xlink="http://www.w3.org/1999/xlink" width="637.806875pt" height="305.609844pt" viewBox="0 0 637.806875 305.609844" xmlns="http://www.w3.org/2000/svg" version="1.1">
 <metadata>
  <rdf:RDF xmlns:dc="http://purl.org/dc/elements/1.1/" xmlns:cc="http://creativecommons.org/ns#" xmlns:rdf="http://www.w3.org/1999/02/22-rdf-syntax-ns#">
   <cc:Work>
    <dc:type rdf:resource="http://purl.org/dc/dcmitype/StillImage"/>
    <dc:date>2026-06-29T21:27:06.107789</dc:date>
    <dc:format>image/svg+xml</dc:format>
    <dc:creator>
     <cc:Agent>
      <dc:title>Matplotlib v3.10.8, https://matplotlib.org/</dc:title>
     </cc:Agent>
    </dc:creator>
   </cc:Work>
  </rdf:RDF>
 </metadata>
 <defs>
  <style type="text/css">*{stroke-linejoin: round; stroke-linecap: butt}</style>
 </defs>
 <g id="figure_1">
  <g id="patch_1">
   <path d="M 0 305.609844 
L 637.806875 305.609844 
L 637.806875 0 
L 0 0 
z
" style="fill: #ffffff"/>
  </g>
  <g id="axes_1">
   <g id="patch_2">
    <path d="M 67.335625 266.117969 
L 630.606875 266.117969 
L 630.606875 23.077969 
L 67.335625 23.077969 
z
" style="fill: #ffffff"/>
   </g>
   <g id="patch_3">
    <path d="M 92.938864 266.117969 
L 108.940888 266.117969 
L 108.940888 264.873524 
L 92.938864 264.873524 
z
" clip-path="url(#pfe3c6a9278)" style="fill: #20b2aa; opacity: 0.8"/>
   </g>
   <g id="patch_4">
    <path d="M 108.940888 266.117969 
L 124.942912 266.117969 
L 124.942912 264.873524 
L 108.940888 264.873524 
z
" clip-path="url(#pfe3c6a9278)" style="fill: #20b2aa; opacity: 0.8"/>
   </g>
   <g id="patch_5">
    <path d="M 124.942912 266.117969 
L 140.944936 266.117969 
L 140.944936 266.117969 
L 124.942912 266.117969 
z
" clip-path="url(#pfe3c6a9278)" style="fill: #20b2aa; opacity: 0.8"/>
   </g>
   <g id="patch_6">
    <path d="M 140.944936 266.117969 
L 156.94696 266.117969 
L 156.94696 266.117969 
L 140.944936 266.117969 
z
" clip-path="url(#pfe3c6a9278)" style="fill: #20b2aa; opacity: 0.8"/>
   </g>
   <g id="patch_7">
    <path d="M 156.94696 266.117969 
L 172.948984 266.117969 
L 172.948984 262.384635 
L 156.94696 262.384635 
z
" clip-path="url(#pfe3c6a9278)" style="fill: #20b2aa; opacity: 0.8"/>
   </g>
   <g id="patch_8">
    <path d="M 172.948984 266.117969 
L 188.951009 266.117969 
L 188.951009 259.895747 
L 172.948984 259.895747 
z
" clip-path="url(#pfe3c6a9278)" style="fill: #20b2aa; opacity: 0.8"/>
   </g>
   <g id="patch_9">
    <path d="M 188.951009 266.117969 
L 204.953033 266.117969 
L 204.953033 254.917969 
L 188.951009 254.917969 
z
" clip-path="url(#pfe3c6a9278)" style="fill: #20b2aa; opacity: 0.8"/>
   </g>
   <g id="patch_10">
    <path d="M 204.953033 266.117969 
L 220.955057 266.117969 
L 220.955057 251.184635 
L 204.953033 251.184635 
z
" clip-path="url(#pfe3c6a9278)" style="fill: #20b2aa; opacity: 0.8"/>
   </g>
   <g id="patch_11">
    <path d="M 220.955057 266.117969 
L 236.957081 266.117969 
L 236.957081 243.717969 
L 220.955057 243.717969 
z
" clip-path="url(#pfe3c6a9278)" style="fill: #20b2aa; opacity: 0.8"/>
   </g>
   <g id="patch_12">
    <path d="M 236.957081 266.117969 
L 252.959105 266.117969 
L 252.959105 225.051302 
L 236.957081 225.051302 
z
" clip-path="url(#pfe3c6a9278)" style="fill: #20b2aa; opacity: 0.8"/>
   </g>
   <g id="patch_13">
    <path d="M 252.959105 266.117969 
L 268.961129 266.117969 
L 268.961129 213.851302 
L 252.959105 213.851302 
z
" clip-path="url(#pfe3c6a9278)" style="fill: #20b2aa; opacity: 0.8"/>
   </g>
   <g id="patch_14">
    <path d="M 268.961129 266.117969 
L 284.963153 266.117969 
L 284.963153 183.984635 
L 268.961129 183.984635 
z
" clip-path="url(#pfe3c6a9278)" style="fill: #20b2aa; opacity: 0.8"/>
   </g>
   <g id="patch_15">
    <path d="M 284.963153 266.117969 
L 300.965178 266.117969 
L 300.965178 160.340191 
L 284.963153 160.340191 
z
" clip-path="url(#pfe3c6a9278)" style="fill: #20b2aa; opacity: 0.8"/>
   </g>
   <g id="patch_16">
    <path d="M 300.965178 266.117969 
L 316.967202 266.117969 
L 316.967202 104.340191 
L 300.965178 104.340191 
z
" clip-path="url(#pfe3c6a9278)" style="fill: #20b2aa; opacity: 0.8"/>
   </g>
   <g id="patch_17">
    <path d="M 316.967202 266.117969 
L 332.969226 266.117969 
L 332.969226 73.22908 
L 316.967202 73.22908 
z
" clip-path="url(#pfe3c6a9278)" style="fill: #20b2aa; opacity: 0.8"/>
   </g>
   <g id="patch_18">
    <path d="M 332.969226 266.117969 
L 348.97125 266.117969 
L 348.97125 96.873524 
L 332.969226 96.873524 
z
" clip-path="url(#pfe3c6a9278)" style="fill: #20b2aa; opacity: 0.8"/>
   </g>
   <g id="patch_19">
    <path d="M 348.97125 266.117969 
L 364.973274 266.117969 
L 364.973274 63.273524 
L 348.97125 63.273524 
z
" clip-path="url(#pfe3c6a9278)" style="fill: #20b2aa; opacity: 0.8"/>
   </g>
   <g id="patch_20">
    <path d="M 364.973274 266.117969 
L 380.975298 266.117969 
L 380.975298 60.784635 
L 364.973274 60.784635 
z
" clip-path="url(#pfe3c6a9278)" style="fill: #20b2aa; opacity: 0.8"/>
   </g>
   <g id="patch_21">
    <path d="M 380.975298 266.117969 
L 396.977322 266.117969 
L 396.977322 34.651302 
L 380.975298 34.651302 
z
" clip-path="url(#pfe3c6a9278)" style="fill: #20b2aa; opacity: 0.8"/>
   </g>
   <g id="patch_22">
    <path d="M 396.977322 266.117969 
L 412.979347 266.117969 
L 412.979347 76.962413 
L 396.977322 76.962413 
z
" clip-path="url(#pfe3c6a9278)" style="fill: #20b2aa; opacity: 0.8"/>
   </g>
   <g id="patch_23">
    <path d="M 412.979347 266.117969 
L 428.981371 266.117969 
L 428.981371 115.540191 
L 412.979347 115.540191 
z
" clip-path="url(#pfe3c6a9278)" style="fill: #20b2aa; opacity: 0.8"/>
   </g>
   <g id="patch_24">
    <path d="M 428.981371 266.117969 
L 444.983395 266.117969 
L 444.983395 110.562413 
L 428.981371 110.562413 
z
" clip-path="url(#pfe3c6a9278)" style="fill: #20b2aa; opacity: 0.8"/>
   </g>
   <g id="patch_25">
    <path d="M 444.983395 266.117969 
L 460.985419 266.117969 
L 460.985419 120.517969 
L 444.983395 120.517969 
z
" clip-path="url(#pfe3c6a9278)" style="fill: #20b2aa; opacity: 0.8"/>
   </g>
   <g id="patch_26">
    <path d="M 460.985419 266.117969 
L 476.987443 266.117969 
L 476.987443 156.606858 
L 460.985419 156.606858 
z
" clip-path="url(#pfe3c6a9278)" style="fill: #20b2aa; opacity: 0.8"/>
   </g>
   <g id="patch_27">
    <path d="M 476.987443 266.117969 
L 492.989467 266.117969 
L 492.989467 200.162413 
L 476.987443 200.162413 
z
" clip-path="url(#pfe3c6a9278)" style="fill: #20b2aa; opacity: 0.8"/>
   </g>
   <g id="patch_28">
    <path d="M 492.989467 266.117969 
L 508.991491 266.117969 
L 508.991491 216.340191 
L 492.989467 216.340191 
z
" clip-path="url(#pfe3c6a9278)" style="fill: #20b2aa; opacity: 0.8"/>
   </g>
   <g id="patch_29">
    <path d="M 508.991491 266.117969 
L 524.993516 266.117969 
L 524.993516 218.82908 
L 508.991491 218.82908 
z
" clip-path="url(#pfe3c6a9278)" style="fill: #20b2aa; opacity: 0.8"/>
   </g>
   <g id="patch_30">
    <path d="M 524.993516 266.117969 
L 540.99554 266.117969 
L 540.99554 233.762413 
L 524.993516 233.762413 
z
" clip-path="url(#pfe3c6a9278)" style="fill: #20b2aa; opacity: 0.8"/>
   </g>
   <g id="patch_31">
    <path d="M 540.99554 266.117969 
L 556.997564 266.117969 
L 556.997564 252.42908 
L 540.99554 252.42908 
z
" clip-path="url(#pfe3c6a9278)" style="fill: #20b2aa; opacity: 0.8"/>
   </g>
   <g id="patch_32">
    <path d="M 556.997564 266.117969 
L 572.999588 266.117969 
L 572.999588 251.184635 
L 556.997564 251.184635 
z
" clip-path="url(#pfe3c6a9278)" style="fill: #20b2aa; opacity: 0.8"/>
   </g>
   <g id="patch_33">
    <path d="M 572.999588 266.117969 
L 589.001612 266.117969 
L 589.001612 261.140191 
L 572.999588 261.140191 
z
" clip-path="url(#pfe3c6a9278)" style="fill: #20b2aa; opacity: 0.8"/>
   </g>
   <g id="patch_34">
    <path d="M 589.001612 266.117969 
L 605.003636 266.117969 
L 605.003636 262.384635 
L 589.001612 262.384635 
z
" clip-path="url(#pfe3c6a9278)" style="fill: #20b2aa; opacity: 0.8"/>
   </g>
   <g id="matplotlib.axis_1">
    <g id="xtick_1">
     <g id="line2d_1">
      <path d="M 75.920838 266.117969 
L 75.920838 23.077969 
" clip-path="url(#pfe3c6a9278)" style="fill: none; stroke: #dddddd; stroke-opacity: 0.6; stroke-width: 0.8; stroke-linecap: square"/>
     </g>
     <g id="line2d_2">
      <defs>
       <path id="m57756abfad" d="M 0 0 
L 0 3.5 
" style="stroke: #314f4f; stroke-width: 0.8"/>
      </defs>
      <g>
       <use xlink:href="#m57756abfad" x="75.920838" y="266.117969" style="fill: #314f4f; stroke: #314f4f; stroke-width: 0.8"/>
      </g>
     </g>
     <g id="text_1">
      <!-- 2000 -->
      <g style="fill: #314f4f" transform="translate(61.923338 281.47625) scale(0.11 -0.11)">
       <defs>
        <path id="DejaVuSans-32" d="M 1228 531 
L 3431 531 
L 3431 0 
L 469 0 
L 469 531 
Q 828 903 1448 1529 
Q 2069 2156 2228 2338 
Q 2531 2678 2651 2914 
Q 2772 3150 2772 3378 
Q 2772 3750 2511 3984 
Q 2250 4219 1831 4219 
Q 1534 4219 1204 4116 
Q 875 4013 500 3803 
L 500 4441 
Q 881 4594 1212 4672 
Q 1544 4750 1819 4750 
Q 2544 4750 2975 4387 
Q 3406 4025 3406 3419 
Q 3406 3131 3298 2873 
Q 3191 2616 2906 2266 
Q 2828 2175 2409 1742 
Q 1991 1309 1228 531 
z
" transform="scale(0.015625)"/>
        <path id="DejaVuSans-30" d="M 2034 4250 
Q 1547 4250 1301 3770 
Q 1056 3291 1056 2328 
Q 1056 1369 1301 889 
Q 1547 409 2034 409 
Q 2525 409 2770 889 
Q 3016 1369 3016 2328 
Q 3016 3291 2770 3770 
Q 2525 4250 2034 4250 
z
M 2034 4750 
Q 2819 4750 3233 4129 
Q 3647 3509 3647 2328 
Q 3647 1150 3233 529 
Q 2819 -91 2034 -91 
Q 1250 -91 836 529 
Q 422 1150 422 2328 
Q 422 3509 836 4129 
Q 1250 4750 2034 4750 
z
" transform="scale(0.015625)"/>
       </defs>
       <use xlink:href="#DejaVuSans-32"/>
       <use xlink:href="#DejaVuSans-30" transform="translate(63.623047 0)"/>
       <use xlink:href="#DejaVuSans-30" transform="translate(127.246094 0)"/>
       <use xlink:href="#DejaVuSans-30" transform="translate(190.869141 0)"/>
      </g>
     </g>
    </g>
    <g id="xtick_2">
     <g id="line2d_3">
      <path d="M 139.420934 266.117969 
L 139.420934 23.077969 
" clip-path="url(#pfe3c6a9278)" style="fill: none; stroke: #dddddd; stroke-opacity: 0.6; stroke-width: 0.8; stroke-linecap: square"/>
     </g>
     <g id="line2d_4">
      <g>
       <use xlink:href="#m57756abfad" x="139.420934" y="266.117969" style="fill: #314f4f; stroke: #314f4f; stroke-width: 0.8"/>
      </g>
     </g>
     <g id="text_2">
      <!-- 2250 -->
      <g style="fill: #314f4f" transform="translate(125.423434 281.47625) scale(0.11 -0.11)">
       <defs>
        <path id="DejaVuSans-35" d="M 691 4666 
L 3169 4666 
L 3169 4134 
L 1269 4134 
L 1269 2991 
Q 1406 3038 1543 3061 
Q 1681 3084 1819 3084 
Q 2600 3084 3056 2656 
Q 3513 2228 3513 1497 
Q 3513 744 3044 326 
Q 2575 -91 1722 -91 
Q 1428 -91 1123 -41 
Q 819 9 494 109 
L 494 744 
Q 775 591 1075 516 
Q 1375 441 1709 441 
Q 2250 441 2565 725 
Q 2881 1009 2881 1497 
Q 2881 1984 2565 2268 
Q 2250 2553 1709 2553 
Q 1456 2553 1204 2497 
Q 953 2441 691 2322 
L 691 4666 
z
" transform="scale(0.015625)"/>
       </defs>
       <use xlink:href="#DejaVuSans-32"/>
       <use xlink:href="#DejaVuSans-32" transform="translate(63.623047 0)"/>
       <use xlink:href="#DejaVuSans-35" transform="translate(127.246094 0)"/>
       <use xlink:href="#DejaVuSans-30" transform="translate(190.869141 0)"/>
      </g>
     </g>
    </g>
    <g id="xtick_3">
     <g id="line2d_5">
      <path d="M 202.92103 266.117969 
L 202.92103 23.077969 
" clip-path="url(#pfe3c6a9278)" style="fill: none; stroke: #dddddd; stroke-opacity: 0.6; stroke-width: 0.8; stroke-linecap: square"/>
     </g>
     <g id="line2d_6">
      <g>
       <use xlink:href="#m57756abfad" x="202.92103" y="266.117969" style="fill: #314f4f; stroke: #314f4f; stroke-width: 0.8"/>
      </g>
     </g>
     <g id="text_3">
      <!-- 2500 -->
      <g style="fill: #314f4f" transform="translate(188.92353 281.47625) scale(0.11 -0.11)">
       <use xlink:href="#DejaVuSans-32"/>
       <use xlink:href="#DejaVuSans-35" transform="translate(63.623047 0)"/>
       <use xlink:href="#DejaVuSans-30" transform="translate(127.246094 0)"/>
       <use xlink:href="#DejaVuSans-30" transform="translate(190.869141 0)"/>
      </g>
     </g>
    </g>
    <g id="xtick_4">
     <g id="line2d_7">
      <path d="M 266.421125 266.117969 
L 266.421125 23.077969 
" clip-path="url(#pfe3c6a9278)" style="fill: none; stroke: #dddddd; stroke-opacity: 0.6; stroke-width: 0.8; stroke-linecap: square"/>
     </g>
     <g id="line2d_8">
      <g>
       <use xlink:href="#m57756abfad" x="266.421125" y="266.117969" style="fill: #314f4f; stroke: #314f4f; stroke-width: 0.8"/>
      </g>
     </g>
     <g id="text_4">
      <!-- 2750 -->
      <g style="fill: #314f4f" transform="translate(252.423625 281.47625) scale(0.11 -0.11)">
       <defs>
        <path id="DejaVuSans-37" d="M 525 4666 
L 3525 4666 
L 3525 4397 
L 1831 0 
L 1172 0 
L 2766 4134 
L 525 4134 
L 525 4666 
z
" transform="scale(0.015625)"/>
       </defs>
       <use xlink:href="#DejaVuSans-32"/>
       <use xlink:href="#DejaVuSans-37" transform="translate(63.623047 0)"/>
       <use xlink:href="#DejaVuSans-35" transform="translate(127.246094 0)"/>
       <use xlink:href="#DejaVuSans-30" transform="translate(190.869141 0)"/>
      </g>
     </g>
    </g>
    <g id="xtick_5">
     <g id="line2d_9">
      <path d="M 329.921221 266.117969 
L 329.921221 23.077969 
" clip-path="url(#pfe3c6a9278)" style="fill: none; stroke: #dddddd; stroke-opacity: 0.6; stroke-width: 0.8; stroke-linecap: square"/>
     </g>
     <g id="line2d_10">
      <g>
       <use xlink:href="#m57756abfad" x="329.921221" y="266.117969" style="fill: #314f4f; stroke: #314f4f; stroke-width: 0.8"/>
      </g>
     </g>
     <g id="text_5">
      <!-- 3000 -->
      <g style="fill: #314f4f" transform="translate(315.923721 281.47625) scale(0.11 -0.11)">
       <defs>
        <path id="DejaVuSans-33" d="M 2597 2516 
Q 3050 2419 3304 2112 
Q 3559 1806 3559 1356 
Q 3559 666 3084 287 
Q 2609 -91 1734 -91 
Q 1441 -91 1130 -33 
Q 819 25 488 141 
L 488 750 
Q 750 597 1062 519 
Q 1375 441 1716 441 
Q 2309 441 2620 675 
Q 2931 909 2931 1356 
Q 2931 1769 2642 2001 
Q 2353 2234 1838 2234 
L 1294 2234 
L 1294 2753 
L 1863 2753 
Q 2328 2753 2575 2939 
Q 2822 3125 2822 3475 
Q 2822 3834 2567 4026 
Q 2313 4219 1838 4219 
Q 1578 4219 1281 4162 
Q 984 4106 628 3988 
L 628 4550 
Q 988 4650 1302 4700 
Q 1616 4750 1894 4750 
Q 2613 4750 3031 4423 
Q 3450 4097 3450 3541 
Q 3450 3153 3228 2886 
Q 3006 2619 2597 2516 
z
" transform="scale(0.015625)"/>
       </defs>
       <use xlink:href="#DejaVuSans-33"/>
       <use xlink:href="#DejaVuSans-30" transform="translate(63.623047 0)"/>
       <use xlink:href="#DejaVuSans-30" transform="translate(127.246094 0)"/>
       <use xlink:href="#DejaVuSans-30" transform="translate(190.869141 0)"/>
      </g>
     </g>
    </g>
    <g id="xtick_6">
     <g id="line2d_11">
      <path d="M 393.421317 266.117969 
L 393.421317 23.077969 
" clip-path="url(#pfe3c6a9278)" style="fill: none; stroke: #dddddd; stroke-opacity: 0.6; stroke-width: 0.8; stroke-linecap: square"/>
     </g>
     <g id="line2d_12">
      <g>
       <use xlink:href="#m57756abfad" x="393.421317" y="266.117969" style="fill: #314f4f; stroke: #314f4f; stroke-width: 0.8"/>
      </g>
     </g>
     <g id="text_6">
      <!-- 3250 -->
      <g style="fill: #314f4f" transform="translate(379.423817 281.47625) scale(0.11 -0.11)">
       <use xlink:href="#DejaVuSans-33"/>
       <use xlink:href="#DejaVuSans-32" transform="translate(63.623047 0)"/>
       <use xlink:href="#DejaVuSans-35" transform="translate(127.246094 0)"/>
       <use xlink:href="#DejaVuSans-30" transform="translate(190.869141 0)"/>
      </g>
     </g>
    </g>
    <g id="xtick_7">
     <g id="line2d_13">
      <path d="M 456.921413 266.117969 
L 456.921413 23.077969 
" clip-path="url(#pfe3c6a9278)" style="fill: none; stroke: #dddddd; stroke-opacity: 0.6; stroke-width: 0.8; stroke-linecap: square"/>
     </g>
     <g id="line2d_14">
      <g>
       <use xlink:href="#m57756abfad" x="456.921413" y="266.117969" style="fill: #314f4f; stroke: #314f4f; stroke-width: 0.8"/>
      </g>
     </g>
     <g id="text_7">
      <!-- 3500 -->
      <g style="fill: #314f4f" transform="translate(442.923913 281.47625) scale(0.11 -0.11)">
       <use xlink:href="#DejaVuSans-33"/>
       <use xlink:href="#DejaVuSans-35" transform="translate(63.623047 0)"/>
       <use xlink:href="#DejaVuSans-30" transform="translate(127.246094 0)"/>
       <use xlink:href="#DejaVuSans-30" transform="translate(190.869141 0)"/>
      </g>
     </g>
    </g>
    <g id="xtick_8">
     <g id="line2d_15">
      <path d="M 520.421509 266.117969 
L 520.421509 23.077969 
" clip-path="url(#pfe3c6a9278)" style="fill: none; stroke: #dddddd; stroke-opacity: 0.6; stroke-width: 0.8; stroke-linecap: square"/>
     </g>
     <g id="line2d_16">
      <g>
       <use xlink:href="#m57756abfad" x="520.421509" y="266.117969" style="fill: #314f4f; stroke: #314f4f; stroke-width: 0.8"/>
      </g>
     </g>
     <g id="text_8">
      <!-- 3750 -->
      <g style="fill: #314f4f" transform="translate(506.424009 281.47625) scale(0.11 -0.11)">
       <use xlink:href="#DejaVuSans-33"/>
       <use xlink:href="#DejaVuSans-37" transform="translate(63.623047 0)"/>
       <use xlink:href="#DejaVuSans-35" transform="translate(127.246094 0)"/>
       <use xlink:href="#DejaVuSans-30" transform="translate(190.869141 0)"/>
      </g>
     </g>
    </g>
    <g id="xtick_9">
     <g id="line2d_17">
      <path d="M 583.921605 266.117969 
L 583.921605 23.077969 
" clip-path="url(#pfe3c6a9278)" style="fill: none; stroke: #dddddd; stroke-opacity: 0.6; stroke-width: 0.8; stroke-linecap: square"/>
     </g>
     <g id="line2d_18">
      <g>
       <use xlink:href="#m57756abfad" x="583.921605" y="266.117969" style="fill: #314f4f; stroke: #314f4f; stroke-width: 0.8"/>
      </g>
     </g>
     <g id="text_9">
      <!-- 4000 -->
      <g style="fill: #314f4f" transform="translate(569.924105 281.47625) scale(0.11 -0.11)">
       <defs>
        <path id="DejaVuSans-34" d="M 2419 4116 
L 825 1625 
L 2419 1625 
L 2419 4116 
z
M 2253 4666 
L 3047 4666 
L 3047 1625 
L 3713 1625 
L 3713 1100 
L 3047 1100 
L 3047 0 
L 2419 0 
L 2419 1100 
L 313 1100 
L 313 1709 
L 2253 4666 
z
" transform="scale(0.015625)"/>
       </defs>
       <use xlink:href="#DejaVuSans-34"/>
       <use xlink:href="#DejaVuSans-30" transform="translate(63.623047 0)"/>
       <use xlink:href="#DejaVuSans-30" transform="translate(127.246094 0)"/>
       <use xlink:href="#DejaVuSans-30" transform="translate(190.869141 0)"/>
      </g>
     </g>
    </g>
    <g id="text_10">
     <!-- U -->
     <g style="fill: #314f4f" transform="translate(344.945938 296.122187) scale(0.11 -0.11)">
      <defs>
       <path id="DejaVuSans-55" d="M 556 4666 
L 1191 4666 
L 1191 1831 
Q 1191 1081 1462 751 
Q 1734 422 2344 422 
Q 2950 422 3222 751 
Q 3494 1081 3494 1831 
L 3494 4666 
L 4128 4666 
L 4128 1753 
Q 4128 841 3676 375 
Q 3225 -91 2344 -91 
Q 1459 -91 1007 375 
Q 556 841 556 1753 
L 556 4666 
z
" transform="scale(0.015625)"/>
      </defs>
      <use xlink:href="#DejaVuSans-55"/>
     </g>
    </g>
   </g>
   <g id="matplotlib.axis_2">
    <g id="ytick_1">
     <g id="line2d_19">
      <path d="M 67.335625 266.117969 
L 630.606875 266.117969 
" clip-path="url(#pfe3c6a9278)" style="fill: none; stroke: #dddddd; stroke-opacity: 0.6; stroke-width: 0.8; stroke-linecap: square"/>
     </g>
     <g id="line2d_20">
      <defs>
       <path id="mecaeed592d" d="M 0 0 
L -3.5 0 
" style="stroke: #314f4f; stroke-width: 0.8"/>
      </defs>
      <g>
       <use xlink:href="#mecaeed592d" x="67.335625" y="266.117969" style="fill: #314f4f; stroke: #314f4f; stroke-width: 0.8"/>
      </g>
     </g>
     <g id="text_11">
      <!-- 0.0000 -->
      <g style="fill: #314f4f" transform="translate(21.845938 270.297109) scale(0.11 -0.11)">
       <defs>
        <path id="DejaVuSans-2e" d="M 684 794 
L 1344 794 
L 1344 0 
L 684 0 
L 684 794 
z
" transform="scale(0.015625)"/>
       </defs>
       <use xlink:href="#DejaVuSans-30"/>
       <use xlink:href="#DejaVuSans-2e" transform="translate(63.623047 0)"/>
       <use xlink:href="#DejaVuSans-30" transform="translate(95.410156 0)"/>
       <use xlink:href="#DejaVuSans-30" transform="translate(159.033203 0)"/>
       <use xlink:href="#DejaVuSans-30" transform="translate(222.65625 0)"/>
       <use xlink:href="#DejaVuSans-30" transform="translate(286.279297 0)"/>
      </g>
     </g>
    </g>
    <g id="ytick_2">
     <g id="line2d_21">
      <path d="M 67.335625 234.757969 
L 630.606875 234.757969 
" clip-path="url(#pfe3c6a9278)" style="fill: none; stroke: #dddddd; stroke-opacity: 0.6; stroke-width: 0.8; stroke-linecap: square"/>
     </g>
     <g id="line2d_22">
      <g>
       <use xlink:href="#mecaeed592d" x="67.335625" y="234.757969" style="fill: #314f4f; stroke: #314f4f; stroke-width: 0.8"/>
      </g>
     </g>
     <g id="text_12">
      <!-- 0.0002 -->
      <g style="fill: #314f4f" transform="translate(21.845938 238.937109) scale(0.11 -0.11)">
       <use xlink:href="#DejaVuSans-30"/>
       <use xlink:href="#DejaVuSans-2e" transform="translate(63.623047 0)"/>
       <use xlink:href="#DejaVuSans-30" transform="translate(95.410156 0)"/>
       <use xlink:href="#DejaVuSans-30" transform="translate(159.033203 0)"/>
       <use xlink:href="#DejaVuSans-30" transform="translate(222.65625 0)"/>
       <use xlink:href="#DejaVuSans-32" transform="translate(286.279297 0)"/>
      </g>
     </g>
    </g>
    <g id="ytick_3">
     <g id="line2d_23">
      <path d="M 67.335625 203.397969 
L 630.606875 203.397969 
" clip-path="url(#pfe3c6a9278)" style="fill: none; stroke: #dddddd; stroke-opacity: 0.6; stroke-width: 0.8; stroke-linecap: square"/>
     </g>
     <g id="line2d_24">
      <g>
       <use xlink:href="#mecaeed592d" x="67.335625" y="203.397969" style="fill: #314f4f; stroke: #314f4f; stroke-width: 0.8"/>
      </g>
     </g>
     <g id="text_13">
      <!-- 0.0004 -->
      <g style="fill: #314f4f" transform="translate(21.845938 207.577109) scale(0.11 -0.11)">
       <use xlink:href="#DejaVuSans-30"/>
       <use xlink:href="#DejaVuSans-2e" transform="translate(63.623047 0)"/>
       <use xlink:href="#DejaVuSans-30" transform="translate(95.410156 0)"/>
       <use xlink:href="#DejaVuSans-30" transform="translate(159.033203 0)"/>
       <use xlink:href="#DejaVuSans-30" transform="translate(222.65625 0)"/>
       <use xlink:href="#DejaVuSans-34" transform="translate(286.279297 0)"/>
      </g>
     </g>
    </g>
    <g id="ytick_4">
     <g id="line2d_25">
      <path d="M 67.335625 172.037969 
L 630.606875 172.037969 
" clip-path="url(#pfe3c6a9278)" style="fill: none; stroke: #dddddd; stroke-opacity: 0.6; stroke-width: 0.8; stroke-linecap: square"/>
     </g>
     <g id="line2d_26">
      <g>
       <use xlink:href="#mecaeed592d" x="67.335625" y="172.037969" style="fill: #314f4f; stroke: #314f4f; stroke-width: 0.8"/>
      </g>
     </g>
     <g id="text_14">
      <!-- 0.0006 -->
      <g style="fill: #314f4f" transform="translate(21.845938 176.217109) scale(0.11 -0.11)">
       <defs>
        <path id="DejaVuSans-36" d="M 2113 2584 
Q 1688 2584 1439 2293 
Q 1191 2003 1191 1497 
Q 1191 994 1439 701 
Q 1688 409 2113 409 
Q 2538 409 2786 701 
Q 3034 994 3034 1497 
Q 3034 2003 2786 2293 
Q 2538 2584 2113 2584 
z
M 3366 4563 
L 3366 3988 
Q 3128 4100 2886 4159 
Q 2644 4219 2406 4219 
Q 1781 4219 1451 3797 
Q 1122 3375 1075 2522 
Q 1259 2794 1537 2939 
Q 1816 3084 2150 3084 
Q 2853 3084 3261 2657 
Q 3669 2231 3669 1497 
Q 3669 778 3244 343 
Q 2819 -91 2113 -91 
Q 1303 -91 875 529 
Q 447 1150 447 2328 
Q 447 3434 972 4092 
Q 1497 4750 2381 4750 
Q 2619 4750 2861 4703 
Q 3103 4656 3366 4563 
z
" transform="scale(0.015625)"/>
       </defs>
       <use xlink:href="#DejaVuSans-30"/>
       <use xlink:href="#DejaVuSans-2e" transform="translate(63.623047 0)"/>
       <use xlink:href="#DejaVuSans-30" transform="translate(95.410156 0)"/>
       <use xlink:href="#DejaVuSans-30" transform="translate(159.033203 0)"/>
       <use xlink:href="#DejaVuSans-30" transform="translate(222.65625 0)"/>
       <use xlink:href="#DejaVuSans-36" transform="translate(286.279297 0)"/>
      </g>
     </g>
    </g>
    <g id="ytick_5">
     <g id="line2d_27">
      <path d="M 67.335625 140.677969 
L 630.606875 140.677969 
" clip-path="url(#pfe3c6a9278)" style="fill: none; stroke: #dddddd; stroke-opacity: 0.6; stroke-width: 0.8; stroke-linecap: square"/>
     </g>
     <g id="line2d_28">
      <g>
       <use xlink:href="#mecaeed592d" x="67.335625" y="140.677969" style="fill: #314f4f; stroke: #314f4f; stroke-width: 0.8"/>
      </g>
     </g>
     <g id="text_15">
      <!-- 0.0008 -->
      <g style="fill: #314f4f" transform="translate(21.845938 144.857109) scale(0.11 -0.11)">
       <defs>
        <path id="DejaVuSans-38" d="M 2034 2216 
Q 1584 2216 1326 1975 
Q 1069 1734 1069 1313 
Q 1069 891 1326 650 
Q 1584 409 2034 409 
Q 2484 409 2743 651 
Q 3003 894 3003 1313 
Q 3003 1734 2745 1975 
Q 2488 2216 2034 2216 
z
M 1403 2484 
Q 997 2584 770 2862 
Q 544 3141 544 3541 
Q 544 4100 942 4425 
Q 1341 4750 2034 4750 
Q 2731 4750 3128 4425 
Q 3525 4100 3525 3541 
Q 3525 3141 3298 2862 
Q 3072 2584 2669 2484 
Q 3125 2378 3379 2068 
Q 3634 1759 3634 1313 
Q 3634 634 3220 271 
Q 2806 -91 2034 -91 
Q 1263 -91 848 271 
Q 434 634 434 1313 
Q 434 1759 690 2068 
Q 947 2378 1403 2484 
z
M 1172 3481 
Q 1172 3119 1398 2916 
Q 1625 2713 2034 2713 
Q 2441 2713 2670 2916 
Q 2900 3119 2900 3481 
Q 2900 3844 2670 4047 
Q 2441 4250 2034 4250 
Q 1625 4250 1398 4047 
Q 1172 3844 1172 3481 
z
" transform="scale(0.015625)"/>
       </defs>
       <use xlink:href="#DejaVuSans-30"/>
       <use xlink:href="#DejaVuSans-2e" transform="translate(63.623047 0)"/>
       <use xlink:href="#DejaVuSans-30" transform="translate(95.410156 0)"/>
       <use xlink:href="#DejaVuSans-30" transform="translate(159.033203 0)"/>
       <use xlink:href="#DejaVuSans-30" transform="translate(222.65625 0)"/>
       <use xlink:href="#DejaVuSans-38" transform="translate(286.279297 0)"/>
      </g>
     </g>
    </g>
    <g id="ytick_6">
     <g id="line2d_29">
      <path d="M 67.335625 109.317969 
L 630.606875 109.317969 
" clip-path="url(#pfe3c6a9278)" style="fill: none; stroke: #dddddd; stroke-opacity: 0.6; stroke-width: 0.8; stroke-linecap: square"/>
     </g>
     <g id="line2d_30">
      <g>
       <use xlink:href="#mecaeed592d" x="67.335625" y="109.317969" style="fill: #314f4f; stroke: #314f4f; stroke-width: 0.8"/>
      </g>
     </g>
     <g id="text_16">
      <!-- 0.0010 -->
      <g style="fill: #314f4f" transform="translate(21.845938 113.497109) scale(0.11 -0.11)">
       <defs>
        <path id="DejaVuSans-31" d="M 794 531 
L 1825 531 
L 1825 4091 
L 703 3866 
L 703 4441 
L 1819 4666 
L 2450 4666 
L 2450 531 
L 3481 531 
L 3481 0 
L 794 0 
L 794 531 
z
" transform="scale(0.015625)"/>
       </defs>
       <use xlink:href="#DejaVuSans-30"/>
       <use xlink:href="#DejaVuSans-2e" transform="translate(63.623047 0)"/>
       <use xlink:href="#DejaVuSans-30" transform="translate(95.410156 0)"/>
       <use xlink:href="#DejaVuSans-30" transform="translate(159.033203 0)"/>
       <use xlink:href="#DejaVuSans-31" transform="translate(222.65625 0)"/>
       <use xlink:href="#DejaVuSans-30" transform="translate(286.279297 0)"/>
      </g>
     </g>
    </g>
    <g id="ytick_7">
     <g id="line2d_31">
      <path d="M 67.335625 77.957969 
L 630.606875 77.957969 
" clip-path="url(#pfe3c6a9278)" style="fill: none; stroke: #dddddd; stroke-opacity: 0.6; stroke-width: 0.8; stroke-linecap: square"/>
     </g>
     <g id="line2d_32">
      <g>
       <use xlink:href="#mecaeed592d" x="67.335625" y="77.957969" style="fill: #314f4f; stroke: #314f4f; stroke-width: 0.8"/>
      </g>
     </g>
     <g id="text_17">
      <!-- 0.0012 -->
      <g style="fill: #314f4f" transform="translate(21.845938 82.137109) scale(0.11 -0.11)">
       <use xlink:href="#DejaVuSans-30"/>
       <use xlink:href="#DejaVuSans-2e" transform="translate(63.623047 0)"/>
       <use xlink:href="#DejaVuSans-30" transform="translate(95.410156 0)"/>
       <use xlink:href="#DejaVuSans-30" transform="translate(159.033203 0)"/>
       <use xlink:href="#DejaVuSans-31" transform="translate(222.65625 0)"/>
       <use xlink:href="#DejaVuSans-32" transform="translate(286.279297 0)"/>
      </g>
     </g>
    </g>
    <g id="ytick_8">
     <g id="line2d_33">
      <path d="M 67.335625 46.597969 
L 630.606875 46.597969 
" clip-path="url(#pfe3c6a9278)" style="fill: none; stroke: #dddddd; stroke-opacity: 0.6; stroke-width: 0.8; stroke-linecap: square"/>
     </g>
     <g id="line2d_34">
      <g>
       <use xlink:href="#mecaeed592d" x="67.335625" y="46.597969" style="fill: #314f4f; stroke: #314f4f; stroke-width: 0.8"/>
      </g>
     </g>
     <g id="text_18">
      <!-- 0.0014 -->
      <g style="fill: #314f4f" transform="translate(21.845938 50.777109) scale(0.11 -0.11)">
       <use xlink:href="#DejaVuSans-30"/>
       <use xlink:href="#DejaVuSans-2e" transform="translate(63.623047 0)"/>
       <use xlink:href="#DejaVuSans-30" transform="translate(95.410156 0)"/>
       <use xlink:href="#DejaVuSans-30" transform="translate(159.033203 0)"/>
       <use xlink:href="#DejaVuSans-31" transform="translate(222.65625 0)"/>
       <use xlink:href="#DejaVuSans-34" transform="translate(286.279297 0)"/>
      </g>
     </g>
    </g>
    <g id="text_19">
     <!-- density -->
     <g style="fill: #314f4f" transform="translate(15.558281 164.764062) rotate(-90) scale(0.11 -0.11)">
      <defs>
       <path id="DejaVuSans-64" d="M 2906 2969 
L 2906 4863 
L 3481 4863 
L 3481 0 
L 2906 0 
L 2906 525 
Q 2725 213 2448 61 
Q 2172 -91 1784 -91 
Q 1150 -91 751 415 
Q 353 922 353 1747 
Q 353 2572 751 3078 
Q 1150 3584 1784 3584 
Q 2172 3584 2448 3432 
Q 2725 3281 2906 2969 
z
M 947 1747 
Q 947 1113 1208 752 
Q 1469 391 1925 391 
Q 2381 391 2643 752 
Q 2906 1113 2906 1747 
Q 2906 2381 2643 2742 
Q 2381 3103 1925 3103 
Q 1469 3103 1208 2742 
Q 947 2381 947 1747 
z
" transform="scale(0.015625)"/>
       <path id="DejaVuSans-65" d="M 3597 1894 
L 3597 1613 
L 953 1613 
Q 991 1019 1311 708 
Q 1631 397 2203 397 
Q 2534 397 2845 478 
Q 3156 559 3463 722 
L 3463 178 
Q 3153 47 2828 -22 
Q 2503 -91 2169 -91 
Q 1331 -91 842 396 
Q 353 884 353 1716 
Q 353 2575 817 3079 
Q 1281 3584 2069 3584 
Q 2775 3584 3186 3129 
Q 3597 2675 3597 1894 
z
M 3022 2063 
Q 3016 2534 2758 2815 
Q 2500 3097 2075 3097 
Q 1594 3097 1305 2825 
Q 1016 2553 972 2059 
L 3022 2063 
z
" transform="scale(0.015625)"/>
       <path id="DejaVuSans-6e" d="M 3513 2113 
L 3513 0 
L 2938 0 
L 2938 2094 
Q 2938 2591 2744 2837 
Q 2550 3084 2163 3084 
Q 1697 3084 1428 2787 
Q 1159 2491 1159 1978 
L 1159 0 
L 581 0 
L 581 3500 
L 1159 3500 
L 1159 2956 
Q 1366 3272 1645 3428 
Q 1925 3584 2291 3584 
Q 2894 3584 3203 3211 
Q 3513 2838 3513 2113 
z
" transform="scale(0.015625)"/>
       <path id="DejaVuSans-73" d="M 2834 3397 
L 2834 2853 
Q 2591 2978 2328 3040 
Q 2066 3103 1784 3103 
Q 1356 3103 1142 2972 
Q 928 2841 928 2578 
Q 928 2378 1081 2264 
Q 1234 2150 1697 2047 
L 1894 2003 
Q 2506 1872 2764 1633 
Q 3022 1394 3022 966 
Q 3022 478 2636 193 
Q 2250 -91 1575 -91 
Q 1294 -91 989 -36 
Q 684 19 347 128 
L 347 722 
Q 666 556 975 473 
Q 1284 391 1588 391 
Q 1994 391 2212 530 
Q 2431 669 2431 922 
Q 2431 1156 2273 1281 
Q 2116 1406 1581 1522 
L 1381 1569 
Q 847 1681 609 1914 
Q 372 2147 372 2553 
Q 372 3047 722 3315 
Q 1072 3584 1716 3584 
Q 2034 3584 2315 3537 
Q 2597 3491 2834 3397 
z
" transform="scale(0.015625)"/>
       <path id="DejaVuSans-69" d="M 603 3500 
L 1178 3500 
L 1178 0 
L 603 0 
L 603 3500 
z
M 603 4863 
L 1178 4863 
L 1178 4134 
L 603 4134 
L 603 4863 
z
" transform="scale(0.015625)"/>
       <path id="DejaVuSans-74" d="M 1172 4494 
L 1172 3500 
L 2356 3500 
L 2356 3053 
L 1172 3053 
L 1172 1153 
Q 1172 725 1289 603 
Q 1406 481 1766 481 
L 2356 481 
L 2356 0 
L 1766 0 
Q 1100 0 847 248 
Q 594 497 594 1153 
L 594 3053 
L 172 3053 
L 172 3500 
L 594 3500 
L 594 4494 
L 1172 4494 
z
" transform="scale(0.015625)"/>
       <path id="DejaVuSans-79" d="M 2059 -325 
Q 1816 -950 1584 -1140 
Q 1353 -1331 966 -1331 
L 506 -1331 
L 506 -850 
L 844 -850 
Q 1081 -850 1212 -737 
Q 1344 -625 1503 -206 
L 1606 56 
L 191 3500 
L 800 3500 
L 1894 763 
L 2988 3500 
L 3597 3500 
L 2059 -325 
z
" transform="scale(0.015625)"/>
      </defs>
      <use xlink:href="#DejaVuSans-64"/>
      <use xlink:href="#DejaVuSans-65" transform="translate(63.476562 0)"/>
      <use xlink:href="#DejaVuSans-6e" transform="translate(125 0)"/>
      <use xlink:href="#DejaVuSans-73" transform="translate(188.378906 0)"/>
      <use xlink:href="#DejaVuSans-69" transform="translate(240.478516 0)"/>
      <use xlink:href="#DejaVuSans-74" transform="translate(268.261719 0)"/>
      <use xlink:href="#DejaVuSans-79" transform="translate(307.470703 0)"/>
     </g>
    </g>
   </g>
   <g id="line2d_35">
    <path d="M 92.938864 265.996899 
L 114.75616 265.757726 
L 130.156604 265.379375 
L 141.706937 264.887527 
L 151.9739 264.219918 
L 159.674122 263.523372 
L 167.374344 262.608967 
L 173.791196 261.641926 
L 180.208048 260.450661 
L 186.6249 258.995486 
L 191.758381 257.612251 
L 196.891863 256.008588 
L 202.025344 254.159593 
L 207.158825 252.039548 
L 212.292307 249.622307 
L 216.142418 247.598614 
L 219.992529 245.382214 
L 223.84264 242.962596 
L 227.692751 240.329734 
L 231.542862 237.474252 
L 235.392973 234.387605 
L 239.243084 231.062269 
L 243.093195 227.491932 
L 246.943307 223.671695 
L 250.793418 219.598269 
L 254.643529 215.27017 
L 259.77701 209.10441 
L 264.910492 202.494374 
L 270.043973 195.454925 
L 275.177454 188.009065 
L 280.310936 180.188362 
L 286.727788 169.947781 
L 293.144639 159.283821 
L 302.128232 143.874825 
L 318.812047 115.072225 
L 325.228898 104.444757 
L 330.36238 96.318019 
L 335.495861 88.629099 
L 339.345972 83.206671 
L 343.196083 78.122294 
L 347.046194 73.412918 
L 350.896306 69.11342 
L 354.746417 65.256179 
L 357.313157 62.945071 
L 359.879898 60.851628 
L 362.446639 58.983096 
L 365.013379 57.345982 
L 367.58012 55.946024 
L 370.146861 54.788149 
L 372.713602 53.876453 
L 375.280342 53.214169 
L 377.847083 52.803652 
L 380.413824 52.646363 
L 382.980564 52.742865 
L 385.547305 53.092812 
L 388.114046 53.694958 
L 390.680787 54.547161 
L 393.247527 55.646396 
L 395.814268 56.988773 
L 398.381009 58.569561 
L 400.947749 60.383214 
L 403.51449 62.423405 
L 406.081231 64.683062 
L 408.647972 67.154408 
L 412.498083 71.239724 
L 416.348194 75.751221 
L 420.198305 80.655201 
L 424.048416 85.915681 
L 427.898527 91.494834 
L 433.032008 99.361484 
L 438.16549 107.629468 
L 444.582342 118.38197 
L 454.849305 136.114846 
L 467.683008 158.243849 
L 475.38323 171.03613 
L 481.800082 181.226572 
L 486.933563 189.000565 
L 492.067045 196.395109 
L 497.200526 203.379768 
L 502.334008 209.93263 
L 507.467489 216.039849 
L 511.3176 220.323713 
L 515.167711 224.353023 
L 519.017822 228.129591 
L 522.867933 231.656999 
L 526.718045 234.940407 
L 530.568156 237.98635 
L 534.418267 240.802544 
L 538.268378 243.397692 
L 542.118489 245.781294 
L 545.9686 247.963473 
L 551.102081 250.578047 
L 556.235563 252.879202 
L 561.369044 254.893125 
L 566.502526 256.645849 
L 571.636007 258.162824 
L 576.769488 259.468559 
L 583.18634 260.83903 
L 589.603192 261.958076 
L 596.020044 262.864178 
L 603.720266 263.718596 
L 605.003636 263.839741 
L 605.003636 263.839741 
" clip-path="url(#pfe3c6a9278)" style="fill: none; stroke: #181485; stroke-width: 2.8; stroke-linecap: square"/>
   </g>
   <g id="line2d_36">
    <path d="M 380.721298 266.117969 
L 380.721298 23.077969 
" clip-path="url(#pfe3c6a9278)" style="fill: none; stroke: #314f4f; stroke-width: 2; stroke-linecap: square"/>
   </g>
   <g id="patch_35">
    <path d="M 67.335625 266.117969 
L 67.335625 23.077969 
" style="fill: none; stroke: #314f4f; stroke-width: 0.8; stroke-linejoin: miter; stroke-linecap: square"/>
   </g>
   <g id="patch_36">
    <path d="M 67.335625 266.117969 
L 630.606875 266.117969 
" style="fill: none; stroke: #314f4f; stroke-width: 0.8; stroke-linejoin: miter; stroke-linecap: square"/>
   </g>
   <g id="text_20">
    <!-- Theory matches the simulation -->
    <g transform="translate(247.697187 17.077969) scale(0.13 -0.13)">
     <defs>
      <path id="DejaVuSans-54" d="M -19 4666 
L 3928 4666 
L 3928 4134 
L 2272 4134 
L 2272 0 
L 1638 0 
L 1638 4134 
L -19 4134 
L -19 4666 
z
" transform="scale(0.015625)"/>
      <path id="DejaVuSans-68" d="M 3513 2113 
L 3513 0 
L 2938 0 
L 2938 2094 
Q 2938 2591 2744 2837 
Q 2550 3084 2163 3084 
Q 1697 3084 1428 2787 
Q 1159 2491 1159 1978 
L 1159 0 
L 581 0 
L 581 4863 
L 1159 4863 
L 1159 2956 
Q 1366 3272 1645 3428 
Q 1925 3584 2291 3584 
Q 2894 3584 3203 3211 
Q 3513 2838 3513 2113 
z
" transform="scale(0.015625)"/>
      <path id="DejaVuSans-6f" d="M 1959 3097 
Q 1497 3097 1228 2736 
Q 959 2375 959 1747 
Q 959 1119 1226 758 
Q 1494 397 1959 397 
Q 2419 397 2687 759 
Q 2956 1122 2956 1747 
Q 2956 2369 2687 2733 
Q 2419 3097 1959 3097 
z
M 1959 3584 
Q 2709 3584 3137 3096 
Q 3566 2609 3566 1747 
Q 3566 888 3137 398 
Q 2709 -91 1959 -91 
Q 1206 -91 779 398 
Q 353 888 353 1747 
Q 353 2609 779 3096 
Q 1206 3584 1959 3584 
z
" transform="scale(0.015625)"/>
      <path id="DejaVuSans-72" d="M 2631 2963 
Q 2534 3019 2420 3045 
Q 2306 3072 2169 3072 
Q 1681 3072 1420 2755 
Q 1159 2438 1159 1844 
L 1159 0 
L 581 0 
L 581 3500 
L 1159 3500 
L 1159 2956 
Q 1341 3275 1631 3429 
Q 1922 3584 2338 3584 
Q 2397 3584 2469 3576 
Q 2541 3569 2628 3553 
L 2631 2963 
z
" transform="scale(0.015625)"/>
      <path id="DejaVuSans-20" transform="scale(0.015625)"/>
      <path id="DejaVuSans-6d" d="M 3328 2828 
Q 3544 3216 3844 3400 
Q 4144 3584 4550 3584 
Q 5097 3584 5394 3201 
Q 5691 2819 5691 2113 
L 5691 0 
L 5113 0 
L 5113 2094 
Q 5113 2597 4934 2840 
Q 4756 3084 4391 3084 
Q 3944 3084 3684 2787 
Q 3425 2491 3425 1978 
L 3425 0 
L 2847 0 
L 2847 2094 
Q 2847 2600 2669 2842 
Q 2491 3084 2119 3084 
Q 1678 3084 1418 2786 
Q 1159 2488 1159 1978 
L 1159 0 
L 581 0 
L 581 3500 
L 1159 3500 
L 1159 2956 
Q 1356 3278 1631 3431 
Q 1906 3584 2284 3584 
Q 2666 3584 2933 3390 
Q 3200 3197 3328 2828 
z
" transform="scale(0.015625)"/>
      <path id="DejaVuSans-61" d="M 2194 1759 
Q 1497 1759 1228 1600 
Q 959 1441 959 1056 
Q 959 750 1161 570 
Q 1363 391 1709 391 
Q 2188 391 2477 730 
Q 2766 1069 2766 1631 
L 2766 1759 
L 2194 1759 
z
M 3341 1997 
L 3341 0 
L 2766 0 
L 2766 531 
Q 2569 213 2275 61 
Q 1981 -91 1556 -91 
Q 1019 -91 701 211 
Q 384 513 384 1019 
Q 384 1609 779 1909 
Q 1175 2209 1959 2209 
L 2766 2209 
L 2766 2266 
Q 2766 2663 2505 2880 
Q 2244 3097 1772 3097 
Q 1472 3097 1187 3025 
Q 903 2953 641 2809 
L 641 3341 
Q 956 3463 1253 3523 
Q 1550 3584 1831 3584 
Q 2591 3584 2966 3190 
Q 3341 2797 3341 1997 
z
" transform="scale(0.015625)"/>
      <path id="DejaVuSans-63" d="M 3122 3366 
L 3122 2828 
Q 2878 2963 2633 3030 
Q 2388 3097 2138 3097 
Q 1578 3097 1268 2742 
Q 959 2388 959 1747 
Q 959 1106 1268 751 
Q 1578 397 2138 397 
Q 2388 397 2633 464 
Q 2878 531 3122 666 
L 3122 134 
Q 2881 22 2623 -34 
Q 2366 -91 2075 -91 
Q 1284 -91 818 406 
Q 353 903 353 1747 
Q 353 2603 823 3093 
Q 1294 3584 2113 3584 
Q 2378 3584 2631 3529 
Q 2884 3475 3122 3366 
z
" transform="scale(0.015625)"/>
      <path id="DejaVuSans-75" d="M 544 1381 
L 544 3500 
L 1119 3500 
L 1119 1403 
Q 1119 906 1312 657 
Q 1506 409 1894 409 
Q 2359 409 2629 706 
Q 2900 1003 2900 1516 
L 2900 3500 
L 3475 3500 
L 3475 0 
L 2900 0 
L 2900 538 
Q 2691 219 2414 64 
Q 2138 -91 1772 -91 
Q 1169 -91 856 284 
Q 544 659 544 1381 
z
M 1991 3584 
L 1991 3584 
z
" transform="scale(0.015625)"/>
      <path id="DejaVuSans-6c" d="M 603 4863 
L 1178 4863 
L 1178 0 
L 603 0 
L 603 4863 
z
" transform="scale(0.015625)"/>
     </defs>
     <use xlink:href="#DejaVuSans-54"/>
     <use xlink:href="#DejaVuSans-68" transform="translate(61.083984 0)"/>
     <use xlink:href="#DejaVuSans-65" transform="translate(124.462891 0)"/>
     <use xlink:href="#DejaVuSans-6f" transform="translate(185.986328 0)"/>
     <use xlink:href="#DejaVuSans-72" transform="translate(247.167969 0)"/>
     <use xlink:href="#DejaVuSans-79" transform="translate(288.28125 0)"/>
     <use xlink:href="#DejaVuSans-20" transform="translate(347.460938 0)"/>
     <use xlink:href="#DejaVuSans-6d" transform="translate(379.248047 0)"/>
     <use xlink:href="#DejaVuSans-61" transform="translate(476.660156 0)"/>
     <use xlink:href="#DejaVuSans-74" transform="translate(537.939453 0)"/>
     <use xlink:href="#DejaVuSans-63" transform="translate(577.148438 0)"/>
     <use xlink:href="#DejaVuSans-68" transform="translate(632.128906 0)"/>
     <use xlink:href="#DejaVuSans-65" transform="translate(695.507812 0)"/>
     <use xlink:href="#DejaVuSans-73" transform="translate(757.03125 0)"/>
     <use xlink:href="#DejaVuSans-20" transform="translate(809.130859 0)"/>
     <use xlink:href="#DejaVuSans-74" transform="translate(840.917969 0)"/>
     <use xlink:href="#DejaVuSans-68" transform="translate(880.126953 0)"/>
     <use xlink:href="#DejaVuSans-65" transform="translate(943.505859 0)"/>
     <use xlink:href="#DejaVuSans-20" transform="translate(1005.029297 0)"/>
     <use xlink:href="#DejaVuSans-73" transform="translate(1036.816406 0)"/>
     <use xlink:href="#DejaVuSans-69" transform="translate(1088.916016 0)"/>
     <use xlink:href="#DejaVuSans-6d" transform="translate(1116.699219 0)"/>
     <use xlink:href="#DejaVuSans-75" transform="translate(1214.111328 0)"/>
     <use xlink:href="#DejaVuSans-6c" transform="translate(1277.490234 0)"/>
     <use xlink:href="#DejaVuSans-61" transform="translate(1305.273438 0)"/>
     <use xlink:href="#DejaVuSans-74" transform="translate(1366.552734 0)"/>
     <use xlink:href="#DejaVuSans-69" transform="translate(1405.761719 0)"/>
     <use xlink:href="#DejaVuSans-6f" transform="translate(1433.544922 0)"/>
     <use xlink:href="#DejaVuSans-6e" transform="translate(1494.726562 0)"/>
    </g>
   </g>
   <g id="legend_1">
    <g id="patch_37">
     <path d="M 529.05875 38.016562 
L 547.05875 38.016562 
L 547.05875 31.716562 
L 529.05875 31.716562 
z
" style="fill: #20b2aa; opacity: 0.8"/>
    </g>
    <g id="text_21">
     <!-- simulated $U$ -->
     <g transform="translate(554.25875 38.016562) scale(0.09 -0.09)">
      <defs>
       <path id="DejaVuSans-Oblique-55" d="M 991 4666 
L 1625 4666 
L 1075 1831 
Q 1041 1641 1027 1517 
Q 1013 1394 1013 1300 
Q 1013 869 1253 645 
Q 1494 422 1959 422 
Q 2563 422 2898 753 
Q 3234 1084 3378 1831 
L 3928 4666 
L 4563 4666 
L 4000 1753 
Q 3816 809 3300 359 
Q 2784 -91 1888 -91 
Q 1188 -91 780 261 
Q 372 613 372 1216 
Q 372 1325 387 1461 
Q 403 1597 434 1753 
L 991 4666 
z
" transform="scale(0.015625)"/>
      </defs>
      <use xlink:href="#DejaVuSans-73" transform="translate(0 0.015625)"/>
      <use xlink:href="#DejaVuSans-69" transform="translate(52.099609 0.015625)"/>
      <use xlink:href="#DejaVuSans-6d" transform="translate(79.882812 0.015625)"/>
      <use xlink:href="#DejaVuSans-75" transform="translate(177.294922 0.015625)"/>
      <use xlink:href="#DejaVuSans-6c" transform="translate(240.673828 0.015625)"/>
      <use xlink:href="#DejaVuSans-61" transform="translate(268.457031 0.015625)"/>
      <use xlink:href="#DejaVuSans-74" transform="translate(329.736328 0.015625)"/>
      <use xlink:href="#DejaVuSans-65" transform="translate(368.945312 0.015625)"/>
      <use xlink:href="#DejaVuSans-64" transform="translate(430.46875 0.015625)"/>
      <use xlink:href="#DejaVuSans-20" transform="translate(493.945312 0.015625)"/>
      <use xlink:href="#DejaVuSans-Oblique-55" transform="translate(525.732422 0.015625)"/>
     </g>
    </g>
    <g id="line2d_37">
     <path d="M 529.05875 48.076875 
L 538.05875 48.076875 
L 547.05875 48.076875 
" style="fill: none; stroke: #181485; stroke-width: 2.8; stroke-linecap: square"/>
    </g>
    <g id="text_22">
     <!-- normal approx. -->
     <g transform="translate(554.25875 51.226875) scale(0.09 -0.09)">
      <defs>
       <path id="DejaVuSans-70" d="M 1159 525 
L 1159 -1331 
L 581 -1331 
L 581 3500 
L 1159 3500 
L 1159 2969 
Q 1341 3281 1617 3432 
Q 1894 3584 2278 3584 
Q 2916 3584 3314 3078 
Q 3713 2572 3713 1747 
Q 3713 922 3314 415 
Q 2916 -91 2278 -91 
Q 1894 -91 1617 61 
Q 1341 213 1159 525 
z
M 3116 1747 
Q 3116 2381 2855 2742 
Q 2594 3103 2138 3103 
Q 1681 3103 1420 2742 
Q 1159 2381 1159 1747 
Q 1159 1113 1420 752 
Q 1681 391 2138 391 
Q 2594 391 2855 752 
Q 3116 1113 3116 1747 
z
" transform="scale(0.015625)"/>
       <path id="DejaVuSans-78" d="M 3513 3500 
L 2247 1797 
L 3578 0 
L 2900 0 
L 1881 1375 
L 863 0 
L 184 0 
L 1544 1831 
L 300 3500 
L 978 3500 
L 1906 2253 
L 2834 3500 
L 3513 3500 
z
" transform="scale(0.015625)"/>
      </defs>
      <use xlink:href="#DejaVuSans-6e"/>
      <use xlink:href="#DejaVuSans-6f" transform="translate(63.378906 0)"/>
      <use xlink:href="#DejaVuSans-72" transform="translate(124.560547 0)"/>
      <use xlink:href="#DejaVuSans-6d" transform="translate(163.923828 0)"/>
      <use xlink:href="#DejaVuSans-61" transform="translate(261.335938 0)"/>
      <use xlink:href="#DejaVuSans-6c" transform="translate(322.615234 0)"/>
      <use xlink:href="#DejaVuSans-20" transform="translate(350.398438 0)"/>
      <use xlink:href="#DejaVuSans-61" transform="translate(382.185547 0)"/>
      <use xlink:href="#DejaVuSans-70" transform="translate(443.464844 0)"/>
      <use xlink:href="#DejaVuSans-70" transform="translate(506.941406 0)"/>
      <use xlink:href="#DejaVuSans-72" transform="translate(570.417969 0)"/>
      <use xlink:href="#DejaVuSans-6f" transform="translate(609.28125 0)"/>
      <use xlink:href="#DejaVuSans-78" transform="translate(667.337891 0)"/>
      <use xlink:href="#DejaVuSans-2e" transform="translate(726.517578 0)"/>
     </g>
    </g>
    <g id="line2d_38">
     <path d="M 529.05875 61.287187 
L 538.05875 61.287187 
L 547.05875 61.287187 
" style="fill: none; stroke: #314f4f; stroke-width: 2; stroke-linecap: square"/>
    </g>
    <g id="text_23">
     <!-- $\mathbb{E}_{H_0}U$ -->
     <g transform="translate(554.25875 64.437187) scale(0.09 -0.09)">
      <defs>
       <path id="STIXNonUnicode-Italic-e156" d="M 4250 4179 
L 4192 3942 
L 2150 3942 
L 1709 2266 
L 3514 2266 
L 3443 2029 
L 1645 2029 
L 1165 237 
L 3443 237 
L 3392 0 
L 109 0 
L 1229 4179 
L 4250 4179 
z
M 1914 3942 
L 1414 3942 
L 416 237 
L 928 237 
L 1914 3942 
z
" transform="scale(0.015625)"/>
       <path id="DejaVuSans-Oblique-48" d="M 1081 4666 
L 1716 4666 
L 1344 2753 
L 3634 2753 
L 4006 4666 
L 4641 4666 
L 3731 0 
L 3097 0 
L 3531 2222 
L 1241 2222 
L 806 0 
L 172 0 
L 1081 4666 
z
" transform="scale(0.015625)"/>
      </defs>
      <use xlink:href="#STIXNonUnicode-Italic-e156" transform="translate(0 0.09375)"/>
      <use xlink:href="#DejaVuSans-Oblique-48" transform="translate(64.857025 -16.3125) scale(0.7)"/>
      <use xlink:href="#DejaVuSans-30" transform="translate(117.493744 -27.796875) scale(0.49)"/>
      <use xlink:href="#DejaVuSans-Oblique-55" transform="translate(153.317474 0.09375)"/>
     </g>
    </g>
   </g>
  </g>
 </g>
 <defs>
  <clipPath id="pfe3c6a9278">
   <rect x="67.335625" y="23.077969" width="563.27125" height="243.04"/>
  </clipPath>
 </defs>
</svg>
