<?xml version="1.0" encoding="utf-8" standalone="no"?>
<!DOCTYPE svg PUBLIC "-//W3C//DTD SVG 1.1//EN"
  "http://www.w3.org/Graphics/SVG/1.1/DTD/svg11.dtd">
<svg xmlns:xlink="http://www.w3.org/1999/xlink" width="782.032187pt" height="291.209844pt" viewBox="0 0 782.032187 291.209844" xmlns="http://www.w3.org/2000/svg" version="1.1">
 <metadata>
  <rdf:RDF xmlns:dc="http://purl.org/dc/elements/1.1/" xmlns:cc="http://creativecommons.org/ns#" xmlns:rdf="http://www.w3.org/1999/02/22-rdf-syntax-ns#">
   <cc:Work>
    <dc:type rdf:resource="http://purl.org/dc/dcmitype/StillImage"/>
    <dc:date>2026-06-29T21:27:06.001068</dc:date>
    <dc:format>image/svg+xml</dc:format>
    <dc:creator>
     <cc:Agent>
      <dc:title>Matplotlib v3.10.8, https://matplotlib.org/</dc:title>
     </cc:Agent>
    </dc:creator>
   </cc:Work>
  </rdf:RDF>
 </metadata>
 <defs>
  <style type="text/css">*{stroke-linejoin: round; stroke-linecap: butt}</style>
 </defs>
 <g id="figure_1">
  <g id="patch_1">
   <path d="M 0 291.209844 
L 782.032187 291.209844 
L 782.032187 0 
L 0 0 
z
" style="fill: #ffffff"/>
  </g>
  <g id="axes_1">
   <g id="patch_2">
    <path d="M 49.842188 251.717969 
L 774.832188 251.717969 
L 774.832188 23.077969 
L 49.842188 23.077969 
z
" style="fill: #ffffff"/>
   </g>
   <g id="patch_3">
    <path d="M 82.796278 251.717969 
L 102.85529 251.717969 
L 102.85529 250.547257 
L 82.796278 250.547257 
z
" clip-path="url(#pdecb24caa5)" style="fill: #20b2aa; opacity: 0.9"/>
   </g>
   <g id="patch_4">
    <path d="M 102.85529 251.717969 
L 122.914302 251.717969 
L 122.914302 250.547257 
L 102.85529 250.547257 
z
" clip-path="url(#pdecb24caa5)" style="fill: #20b2aa; opacity: 0.9"/>
   </g>
   <g id="patch_5">
    <path d="M 122.914302 251.717969 
L 142.973314 251.717969 
L 142.973314 251.717969 
L 122.914302 251.717969 
z
" clip-path="url(#pdecb24caa5)" style="fill: #20b2aa; opacity: 0.9"/>
   </g>
   <g id="patch_6">
    <path d="M 142.973314 251.717969 
L 163.032326 251.717969 
L 163.032326 251.717969 
L 142.973314 251.717969 
z
" clip-path="url(#pdecb24caa5)" style="fill: #20b2aa; opacity: 0.9"/>
   </g>
   <g id="patch_7">
    <path d="M 163.032326 251.717969 
L 183.091338 251.717969 
L 183.091338 248.205834 
L 163.032326 248.205834 
z
" clip-path="url(#pdecb24caa5)" style="fill: #20b2aa; opacity: 0.9"/>
   </g>
   <g id="patch_8">
    <path d="M 183.091338 251.717969 
L 203.15035 251.717969 
L 203.15035 245.86441 
L 183.091338 245.86441 
z
" clip-path="url(#pdecb24caa5)" style="fill: #20b2aa; opacity: 0.9"/>
   </g>
   <g id="patch_9">
    <path d="M 203.15035 251.717969 
L 223.209361 251.717969 
L 223.209361 241.181563 
L 203.15035 241.181563 
z
" clip-path="url(#pdecb24caa5)" style="fill: #20b2aa; opacity: 0.9"/>
   </g>
   <g id="patch_10">
    <path d="M 223.209361 251.717969 
L 243.268373 251.717969 
L 243.268373 237.669428 
L 223.209361 237.669428 
z
" clip-path="url(#pdecb24caa5)" style="fill: #20b2aa; opacity: 0.9"/>
   </g>
   <g id="patch_11">
    <path d="M 243.268373 251.717969 
L 263.327385 251.717969 
L 263.327385 230.645158 
L 243.268373 230.645158 
z
" clip-path="url(#pdecb24caa5)" style="fill: #20b2aa; opacity: 0.9"/>
   </g>
   <g id="patch_12">
    <path d="M 263.327385 251.717969 
L 283.386397 251.717969 
L 283.386397 213.084482 
L 263.327385 213.084482 
z
" clip-path="url(#pdecb24caa5)" style="fill: #20b2aa; opacity: 0.9"/>
   </g>
   <g id="patch_13">
    <path d="M 283.386397 251.717969 
L 303.445409 251.717969 
L 303.445409 202.548076 
L 283.386397 202.548076 
z
" clip-path="url(#pdecb24caa5)" style="fill: #20b2aa; opacity: 0.9"/>
   </g>
   <g id="patch_14">
    <path d="M 303.445409 251.717969 
L 323.504421 251.717969 
L 323.504421 174.450995 
L 303.445409 174.450995 
z
" clip-path="url(#pdecb24caa5)" style="fill: #20b2aa; opacity: 0.9"/>
   </g>
   <g id="patch_15">
    <path d="M 323.504421 251.717969 
L 343.563433 251.717969 
L 343.563433 152.207472 
L 323.504421 152.207472 
z
" clip-path="url(#pdecb24caa5)" style="fill: #20b2aa; opacity: 0.9"/>
   </g>
   <g id="patch_16">
    <path d="M 343.563433 251.717969 
L 363.622444 251.717969 
L 363.622444 99.525444 
L 343.563433 99.525444 
z
" clip-path="url(#pdecb24caa5)" style="fill: #20b2aa; opacity: 0.9"/>
   </g>
   <g id="patch_17">
    <path d="M 363.622444 251.717969 
L 383.681456 251.717969 
L 383.681456 70.257651 
L 363.622444 70.257651 
z
" clip-path="url(#pdecb24caa5)" style="fill: #20b2aa; opacity: 0.9"/>
   </g>
   <g id="patch_18">
    <path d="M 383.681456 251.717969 
L 403.740468 251.717969 
L 403.740468 92.501174 
L 383.681456 92.501174 
z
" clip-path="url(#pdecb24caa5)" style="fill: #20b2aa; opacity: 0.9"/>
   </g>
   <g id="patch_19">
    <path d="M 403.740468 251.717969 
L 423.79948 251.717969 
L 423.79948 60.891957 
L 403.740468 60.891957 
z
" clip-path="url(#pdecb24caa5)" style="fill: #20b2aa; opacity: 0.9"/>
   </g>
   <g id="patch_20">
    <path d="M 423.79948 251.717969 
L 443.858492 251.717969 
L 443.858492 58.550534 
L 423.79948 58.550534 
z
" clip-path="url(#pdecb24caa5)" style="fill: #20b2aa; opacity: 0.9"/>
   </g>
   <g id="patch_21">
    <path d="M 443.858492 251.717969 
L 463.917504 251.717969 
L 463.917504 33.965588 
L 443.858492 33.965588 
z
" clip-path="url(#pdecb24caa5)" style="fill: #20b2aa; opacity: 0.9"/>
   </g>
   <g id="patch_22">
    <path d="M 463.917504 251.717969 
L 483.976516 251.717969 
L 483.976516 73.769786 
L 463.917504 73.769786 
z
" clip-path="url(#pdecb24caa5)" style="fill: #20b2aa; opacity: 0.9"/>
   </g>
   <g id="patch_23">
    <path d="M 483.976516 251.717969 
L 504.035527 251.717969 
L 504.035527 110.06185 
L 483.976516 110.06185 
z
" clip-path="url(#pdecb24caa5)" style="fill: #20b2aa; opacity: 0.9"/>
   </g>
   <g id="patch_24">
    <path d="M 504.035527 251.717969 
L 524.094539 251.717969 
L 524.094539 105.379003 
L 504.035527 105.379003 
z
" clip-path="url(#pdecb24caa5)" style="fill: #20b2aa; opacity: 0.9"/>
   </g>
   <g id="patch_25">
    <path d="M 524.094539 251.717969 
L 544.153551 251.717969 
L 544.153551 114.744697 
L 524.094539 114.744697 
z
" clip-path="url(#pdecb24caa5)" style="fill: #20b2aa; opacity: 0.9"/>
   </g>
   <g id="patch_26">
    <path d="M 544.153551 251.717969 
L 564.212563 251.717969 
L 564.212563 148.695337 
L 544.153551 148.695337 
z
" clip-path="url(#pdecb24caa5)" style="fill: #20b2aa; opacity: 0.9"/>
   </g>
   <g id="patch_27">
    <path d="M 564.212563 251.717969 
L 584.271575 251.717969 
L 584.271575 189.670247 
L 564.212563 189.670247 
z
" clip-path="url(#pdecb24caa5)" style="fill: #20b2aa; opacity: 0.9"/>
   </g>
   <g id="patch_28">
    <path d="M 584.271575 251.717969 
L 604.330587 251.717969 
L 604.330587 204.8895 
L 584.271575 204.8895 
z
" clip-path="url(#pdecb24caa5)" style="fill: #20b2aa; opacity: 0.9"/>
   </g>
   <g id="patch_29">
    <path d="M 604.330587 251.717969 
L 624.389599 251.717969 
L 624.389599 207.230923 
L 604.330587 207.230923 
z
" clip-path="url(#pdecb24caa5)" style="fill: #20b2aa; opacity: 0.9"/>
   </g>
   <g id="patch_30">
    <path d="M 624.389599 251.717969 
L 644.44861 251.717969 
L 644.44861 221.279464 
L 624.389599 221.279464 
z
" clip-path="url(#pdecb24caa5)" style="fill: #20b2aa; opacity: 0.9"/>
   </g>
   <g id="patch_31">
    <path d="M 644.44861 251.717969 
L 664.507622 251.717969 
L 664.507622 238.84014 
L 644.44861 238.84014 
z
" clip-path="url(#pdecb24caa5)" style="fill: #20b2aa; opacity: 0.9"/>
   </g>
   <g id="patch_32">
    <path d="M 664.507622 251.717969 
L 684.566634 251.717969 
L 684.566634 237.669428 
L 664.507622 237.669428 
z
" clip-path="url(#pdecb24caa5)" style="fill: #20b2aa; opacity: 0.9"/>
   </g>
   <g id="patch_33">
    <path d="M 684.566634 251.717969 
L 704.625646 251.717969 
L 704.625646 247.035122 
L 684.566634 247.035122 
z
" clip-path="url(#pdecb24caa5)" style="fill: #20b2aa; opacity: 0.9"/>
   </g>
   <g id="patch_34">
    <path d="M 704.625646 251.717969 
L 724.684658 251.717969 
L 724.684658 248.205834 
L 704.625646 248.205834 
z
" clip-path="url(#pdecb24caa5)" style="fill: #20b2aa; opacity: 0.9"/>
   </g>
   <g id="patch_35">
    <path d="M 263.948259 251.717969 
L 628.53672 251.717969 
L 628.53672 23.077969 
L 263.948259 23.077969 
z
" clip-path="url(#pdecb24caa5)" style="fill: #d8bd44; opacity: 0.15; stroke: #d8bd44; stroke-linejoin: miter"/>
   </g>
   <g id="matplotlib.axis_1">
    <g id="xtick_1">
     <g id="line2d_1">
      <path d="M 61.463678 251.717969 
L 61.463678 23.077969 
" clip-path="url(#pdecb24caa5)" style="fill: none; stroke: #dddddd; stroke-opacity: 0.6; stroke-width: 0.8; stroke-linecap: square"/>
     </g>
     <g id="line2d_2">
      <defs>
       <path id="ma202a61155" d="M 0 0 
L 0 3.5 
" style="stroke: #314f4f; stroke-width: 0.8"/>
      </defs>
      <g>
       <use xlink:href="#ma202a61155" x="61.463678" y="251.717969" style="fill: #314f4f; stroke: #314f4f; stroke-width: 0.8"/>
      </g>
     </g>
     <g id="text_1">
      <!-- 2000 -->
      <g style="fill: #314f4f" transform="translate(47.466178 267.07625) scale(0.11 -0.11)">
       <defs>
        <path id="DejaVuSans-32" d="M 1228 531 
L 3431 531 
L 3431 0 
L 469 0 
L 469 531 
Q 828 903 1448 1529 
Q 2069 2156 2228 2338 
Q 2531 2678 2651 2914 
Q 2772 3150 2772 3378 
Q 2772 3750 2511 3984 
Q 2250 4219 1831 4219 
Q 1534 4219 1204 4116 
Q 875 4013 500 3803 
L 500 4441 
Q 881 4594 1212 4672 
Q 1544 4750 1819 4750 
Q 2544 4750 2975 4387 
Q 3406 4025 3406 3419 
Q 3406 3131 3298 2873 
Q 3191 2616 2906 2266 
Q 2828 2175 2409 1742 
Q 1991 1309 1228 531 
z
" transform="scale(0.015625)"/>
        <path id="DejaVuSans-30" d="M 2034 4250 
Q 1547 4250 1301 3770 
Q 1056 3291 1056 2328 
Q 1056 1369 1301 889 
Q 1547 409 2034 409 
Q 2525 409 2770 889 
Q 3016 1369 3016 2328 
Q 3016 3291 2770 3770 
Q 2525 4250 2034 4250 
z
M 2034 4750 
Q 2819 4750 3233 4129 
Q 3647 3509 3647 2328 
Q 3647 1150 3233 529 
Q 2819 -91 2034 -91 
Q 1250 -91 836 529 
Q 422 1150 422 2328 
Q 422 3509 836 4129 
Q 1250 4750 2034 4750 
z
" transform="scale(0.015625)"/>
       </defs>
       <use xlink:href="#DejaVuSans-32"/>
       <use xlink:href="#DejaVuSans-30" transform="translate(63.623047 0)"/>
       <use xlink:href="#DejaVuSans-30" transform="translate(127.246094 0)"/>
       <use xlink:href="#DejaVuSans-30" transform="translate(190.869141 0)"/>
      </g>
     </g>
    </g>
    <g id="xtick_2">
     <g id="line2d_3">
      <path d="M 220.662185 251.717969 
L 220.662185 23.077969 
" clip-path="url(#pdecb24caa5)" style="fill: none; stroke: #dddddd; stroke-opacity: 0.6; stroke-width: 0.8; stroke-linecap: square"/>
     </g>
     <g id="line2d_4">
      <g>
       <use xlink:href="#ma202a61155" x="220.662185" y="251.717969" style="fill: #314f4f; stroke: #314f4f; stroke-width: 0.8"/>
      </g>
     </g>
     <g id="text_2">
      <!-- 2500 -->
      <g style="fill: #314f4f" transform="translate(206.664685 267.07625) scale(0.11 -0.11)">
       <defs>
        <path id="DejaVuSans-35" d="M 691 4666 
L 3169 4666 
L 3169 4134 
L 1269 4134 
L 1269 2991 
Q 1406 3038 1543 3061 
Q 1681 3084 1819 3084 
Q 2600 3084 3056 2656 
Q 3513 2228 3513 1497 
Q 3513 744 3044 326 
Q 2575 -91 1722 -91 
Q 1428 -91 1123 -41 
Q 819 9 494 109 
L 494 744 
Q 775 591 1075 516 
Q 1375 441 1709 441 
Q 2250 441 2565 725 
Q 2881 1009 2881 1497 
Q 2881 1984 2565 2268 
Q 2250 2553 1709 2553 
Q 1456 2553 1204 2497 
Q 953 2441 691 2322 
L 691 4666 
z
" transform="scale(0.015625)"/>
       </defs>
       <use xlink:href="#DejaVuSans-32"/>
       <use xlink:href="#DejaVuSans-35" transform="translate(63.623047 0)"/>
       <use xlink:href="#DejaVuSans-30" transform="translate(127.246094 0)"/>
       <use xlink:href="#DejaVuSans-30" transform="translate(190.869141 0)"/>
      </g>
     </g>
    </g>
    <g id="xtick_3">
     <g id="line2d_5">
      <path d="M 379.860692 251.717969 
L 379.860692 23.077969 
" clip-path="url(#pdecb24caa5)" style="fill: none; stroke: #dddddd; stroke-opacity: 0.6; stroke-width: 0.8; stroke-linecap: square"/>
     </g>
     <g id="line2d_6">
      <g>
       <use xlink:href="#ma202a61155" x="379.860692" y="251.717969" style="fill: #314f4f; stroke: #314f4f; stroke-width: 0.8"/>
      </g>
     </g>
     <g id="text_3">
      <!-- 3000 -->
      <g style="fill: #314f4f" transform="translate(365.863192 267.07625) scale(0.11 -0.11)">
       <defs>
        <path id="DejaVuSans-33" d="M 2597 2516 
Q 3050 2419 3304 2112 
Q 3559 1806 3559 1356 
Q 3559 666 3084 287 
Q 2609 -91 1734 -91 
Q 1441 -91 1130 -33 
Q 819 25 488 141 
L 488 750 
Q 750 597 1062 519 
Q 1375 441 1716 441 
Q 2309 441 2620 675 
Q 2931 909 2931 1356 
Q 2931 1769 2642 2001 
Q 2353 2234 1838 2234 
L 1294 2234 
L 1294 2753 
L 1863 2753 
Q 2328 2753 2575 2939 
Q 2822 3125 2822 3475 
Q 2822 3834 2567 4026 
Q 2313 4219 1838 4219 
Q 1578 4219 1281 4162 
Q 984 4106 628 3988 
L 628 4550 
Q 988 4650 1302 4700 
Q 1616 4750 1894 4750 
Q 2613 4750 3031 4423 
Q 3450 4097 3450 3541 
Q 3450 3153 3228 2886 
Q 3006 2619 2597 2516 
z
" transform="scale(0.015625)"/>
       </defs>
       <use xlink:href="#DejaVuSans-33"/>
       <use xlink:href="#DejaVuSans-30" transform="translate(63.623047 0)"/>
       <use xlink:href="#DejaVuSans-30" transform="translate(127.246094 0)"/>
       <use xlink:href="#DejaVuSans-30" transform="translate(190.869141 0)"/>
      </g>
     </g>
    </g>
    <g id="xtick_4">
     <g id="line2d_7">
      <path d="M 539.059199 251.717969 
L 539.059199 23.077969 
" clip-path="url(#pdecb24caa5)" style="fill: none; stroke: #dddddd; stroke-opacity: 0.6; stroke-width: 0.8; stroke-linecap: square"/>
     </g>
     <g id="line2d_8">
      <g>
       <use xlink:href="#ma202a61155" x="539.059199" y="251.717969" style="fill: #314f4f; stroke: #314f4f; stroke-width: 0.8"/>
      </g>
     </g>
     <g id="text_4">
      <!-- 3500 -->
      <g style="fill: #314f4f" transform="translate(525.061699 267.07625) scale(0.11 -0.11)">
       <use xlink:href="#DejaVuSans-33"/>
       <use xlink:href="#DejaVuSans-35" transform="translate(63.623047 0)"/>
       <use xlink:href="#DejaVuSans-30" transform="translate(127.246094 0)"/>
       <use xlink:href="#DejaVuSans-30" transform="translate(190.869141 0)"/>
      </g>
     </g>
    </g>
    <g id="xtick_5">
     <g id="line2d_9">
      <path d="M 698.257706 251.717969 
L 698.257706 23.077969 
" clip-path="url(#pdecb24caa5)" style="fill: none; stroke: #dddddd; stroke-opacity: 0.6; stroke-width: 0.8; stroke-linecap: square"/>
     </g>
     <g id="line2d_10">
      <g>
       <use xlink:href="#ma202a61155" x="698.257706" y="251.717969" style="fill: #314f4f; stroke: #314f4f; stroke-width: 0.8"/>
      </g>
     </g>
     <g id="text_5">
      <!-- 4000 -->
      <g style="fill: #314f4f" transform="translate(684.260206 267.07625) scale(0.11 -0.11)">
       <defs>
        <path id="DejaVuSans-34" d="M 2419 4116 
L 825 1625 
L 2419 1625 
L 2419 4116 
z
M 2253 4666 
L 3047 4666 
L 3047 1625 
L 3713 1625 
L 3713 1100 
L 3047 1100 
L 3047 0 
L 2419 0 
L 2419 1100 
L 313 1100 
L 313 1709 
L 2253 4666 
z
" transform="scale(0.015625)"/>
       </defs>
       <use xlink:href="#DejaVuSans-34"/>
       <use xlink:href="#DejaVuSans-30" transform="translate(63.623047 0)"/>
       <use xlink:href="#DejaVuSans-30" transform="translate(127.246094 0)"/>
       <use xlink:href="#DejaVuSans-30" transform="translate(190.869141 0)"/>
      </g>
     </g>
    </g>
    <g id="text_6">
     <!-- U -->
     <g style="fill: #314f4f" transform="translate(408.311875 281.722188) scale(0.11 -0.11)">
      <defs>
       <path id="DejaVuSans-55" d="M 556 4666 
L 1191 4666 
L 1191 1831 
Q 1191 1081 1462 751 
Q 1734 422 2344 422 
Q 2950 422 3222 751 
Q 3494 1081 3494 1831 
L 3494 4666 
L 4128 4666 
L 4128 1753 
Q 4128 841 3676 375 
Q 3225 -91 2344 -91 
Q 1459 -91 1007 375 
Q 556 841 556 1753 
L 556 4666 
z
" transform="scale(0.015625)"/>
      </defs>
      <use xlink:href="#DejaVuSans-55"/>
     </g>
    </g>
   </g>
   <g id="matplotlib.axis_2">
    <g id="ytick_1">
     <g id="line2d_11">
      <path d="M 49.842188 251.717969 
L 774.832188 251.717969 
" clip-path="url(#pdecb24caa5)" style="fill: none; stroke: #dddddd; stroke-opacity: 0.6; stroke-width: 0.8; stroke-linecap: square"/>
     </g>
     <g id="line2d_12">
      <defs>
       <path id="mf3a84e4673" d="M 0 0 
L -3.5 0 
" style="stroke: #314f4f; stroke-width: 0.8"/>
      </defs>
      <g>
       <use xlink:href="#mf3a84e4673" x="49.842188" y="251.717969" style="fill: #314f4f; stroke: #314f4f; stroke-width: 0.8"/>
      </g>
     </g>
     <g id="text_7">
      <!-- 0 -->
      <g style="fill: #314f4f" transform="translate(35.843438 255.897109) scale(0.11 -0.11)">
       <use xlink:href="#DejaVuSans-30"/>
      </g>
     </g>
    </g>
    <g id="ytick_2">
     <g id="line2d_13">
      <path d="M 49.842188 222.450176 
L 774.832188 222.450176 
" clip-path="url(#pdecb24caa5)" style="fill: none; stroke: #dddddd; stroke-opacity: 0.6; stroke-width: 0.8; stroke-linecap: square"/>
     </g>
     <g id="line2d_14">
      <g>
       <use xlink:href="#mf3a84e4673" x="49.842188" y="222.450176" style="fill: #314f4f; stroke: #314f4f; stroke-width: 0.8"/>
      </g>
     </g>
     <g id="text_8">
      <!-- 25 -->
      <g style="fill: #314f4f" transform="translate(28.844687 226.629316) scale(0.11 -0.11)">
       <use xlink:href="#DejaVuSans-32"/>
       <use xlink:href="#DejaVuSans-35" transform="translate(63.623047 0)"/>
      </g>
     </g>
    </g>
    <g id="ytick_3">
     <g id="line2d_15">
      <path d="M 49.842188 193.182382 
L 774.832188 193.182382 
" clip-path="url(#pdecb24caa5)" style="fill: none; stroke: #dddddd; stroke-opacity: 0.6; stroke-width: 0.8; stroke-linecap: square"/>
     </g>
     <g id="line2d_16">
      <g>
       <use xlink:href="#mf3a84e4673" x="49.842188" y="193.182382" style="fill: #314f4f; stroke: #314f4f; stroke-width: 0.8"/>
      </g>
     </g>
     <g id="text_9">
      <!-- 50 -->
      <g style="fill: #314f4f" transform="translate(28.844687 197.361523) scale(0.11 -0.11)">
       <use xlink:href="#DejaVuSans-35"/>
       <use xlink:href="#DejaVuSans-30" transform="translate(63.623047 0)"/>
      </g>
     </g>
    </g>
    <g id="ytick_4">
     <g id="line2d_17">
      <path d="M 49.842188 163.914589 
L 774.832188 163.914589 
" clip-path="url(#pdecb24caa5)" style="fill: none; stroke: #dddddd; stroke-opacity: 0.6; stroke-width: 0.8; stroke-linecap: square"/>
     </g>
     <g id="line2d_18">
      <g>
       <use xlink:href="#mf3a84e4673" x="49.842188" y="163.914589" style="fill: #314f4f; stroke: #314f4f; stroke-width: 0.8"/>
      </g>
     </g>
     <g id="text_10">
      <!-- 75 -->
      <g style="fill: #314f4f" transform="translate(28.844687 168.09373) scale(0.11 -0.11)">
       <defs>
        <path id="DejaVuSans-37" d="M 525 4666 
L 3525 4666 
L 3525 4397 
L 1831 0 
L 1172 0 
L 2766 4134 
L 525 4134 
L 525 4666 
z
" transform="scale(0.015625)"/>
       </defs>
       <use xlink:href="#DejaVuSans-37"/>
       <use xlink:href="#DejaVuSans-35" transform="translate(63.623047 0)"/>
      </g>
     </g>
    </g>
    <g id="ytick_5">
     <g id="line2d_19">
      <path d="M 49.842188 134.646796 
L 774.832188 134.646796 
" clip-path="url(#pdecb24caa5)" style="fill: none; stroke: #dddddd; stroke-opacity: 0.6; stroke-width: 0.8; stroke-linecap: square"/>
     </g>
     <g id="line2d_20">
      <g>
       <use xlink:href="#mf3a84e4673" x="49.842188" y="134.646796" style="fill: #314f4f; stroke: #314f4f; stroke-width: 0.8"/>
      </g>
     </g>
     <g id="text_11">
      <!-- 100 -->
      <g style="fill: #314f4f" transform="translate(21.845938 138.825937) scale(0.11 -0.11)">
       <defs>
        <path id="DejaVuSans-31" d="M 794 531 
L 1825 531 
L 1825 4091 
L 703 3866 
L 703 4441 
L 1819 4666 
L 2450 4666 
L 2450 531 
L 3481 531 
L 3481 0 
L 794 0 
L 794 531 
z
" transform="scale(0.015625)"/>
       </defs>
       <use xlink:href="#DejaVuSans-31"/>
       <use xlink:href="#DejaVuSans-30" transform="translate(63.623047 0)"/>
       <use xlink:href="#DejaVuSans-30" transform="translate(127.246094 0)"/>
      </g>
     </g>
    </g>
    <g id="ytick_6">
     <g id="line2d_21">
      <path d="M 49.842188 105.379003 
L 774.832188 105.379003 
" clip-path="url(#pdecb24caa5)" style="fill: none; stroke: #dddddd; stroke-opacity: 0.6; stroke-width: 0.8; stroke-linecap: square"/>
     </g>
     <g id="line2d_22">
      <g>
       <use xlink:href="#mf3a84e4673" x="49.842188" y="105.379003" style="fill: #314f4f; stroke: #314f4f; stroke-width: 0.8"/>
      </g>
     </g>
     <g id="text_12">
      <!-- 125 -->
      <g style="fill: #314f4f" transform="translate(21.845938 109.558144) scale(0.11 -0.11)">
       <use xlink:href="#DejaVuSans-31"/>
       <use xlink:href="#DejaVuSans-32" transform="translate(63.623047 0)"/>
       <use xlink:href="#DejaVuSans-35" transform="translate(127.246094 0)"/>
      </g>
     </g>
    </g>
    <g id="ytick_7">
     <g id="line2d_23">
      <path d="M 49.842188 76.11121 
L 774.832188 76.11121 
" clip-path="url(#pdecb24caa5)" style="fill: none; stroke: #dddddd; stroke-opacity: 0.6; stroke-width: 0.8; stroke-linecap: square"/>
     </g>
     <g id="line2d_24">
      <g>
       <use xlink:href="#mf3a84e4673" x="49.842188" y="76.11121" style="fill: #314f4f; stroke: #314f4f; stroke-width: 0.8"/>
      </g>
     </g>
     <g id="text_13">
      <!-- 150 -->
      <g style="fill: #314f4f" transform="translate(21.845938 80.290351) scale(0.11 -0.11)">
       <use xlink:href="#DejaVuSans-31"/>
       <use xlink:href="#DejaVuSans-35" transform="translate(63.623047 0)"/>
       <use xlink:href="#DejaVuSans-30" transform="translate(127.246094 0)"/>
      </g>
     </g>
    </g>
    <g id="ytick_8">
     <g id="line2d_25">
      <path d="M 49.842188 46.843417 
L 774.832188 46.843417 
" clip-path="url(#pdecb24caa5)" style="fill: none; stroke: #dddddd; stroke-opacity: 0.6; stroke-width: 0.8; stroke-linecap: square"/>
     </g>
     <g id="line2d_26">
      <g>
       <use xlink:href="#mf3a84e4673" x="49.842188" y="46.843417" style="fill: #314f4f; stroke: #314f4f; stroke-width: 0.8"/>
      </g>
     </g>
     <g id="text_14">
      <!-- 175 -->
      <g style="fill: #314f4f" transform="translate(21.845938 51.022557) scale(0.11 -0.11)">
       <use xlink:href="#DejaVuSans-31"/>
       <use xlink:href="#DejaVuSans-37" transform="translate(63.623047 0)"/>
       <use xlink:href="#DejaVuSans-35" transform="translate(127.246094 0)"/>
      </g>
     </g>
    </g>
    <g id="text_15">
     <!-- count -->
     <g style="fill: #314f4f" transform="translate(15.558281 152.914844) rotate(-90) scale(0.11 -0.11)">
      <defs>
       <path id="DejaVuSans-63" d="M 3122 3366 
L 3122 2828 
Q 2878 2963 2633 3030 
Q 2388 3097 2138 3097 
Q 1578 3097 1268 2742 
Q 959 2388 959 1747 
Q 959 1106 1268 751 
Q 1578 397 2138 397 
Q 2388 397 2633 464 
Q 2878 531 3122 666 
L 3122 134 
Q 2881 22 2623 -34 
Q 2366 -91 2075 -91 
Q 1284 -91 818 406 
Q 353 903 353 1747 
Q 353 2603 823 3093 
Q 1294 3584 2113 3584 
Q 2378 3584 2631 3529 
Q 2884 3475 3122 3366 
z
" transform="scale(0.015625)"/>
       <path id="DejaVuSans-6f" d="M 1959 3097 
Q 1497 3097 1228 2736 
Q 959 2375 959 1747 
Q 959 1119 1226 758 
Q 1494 397 1959 397 
Q 2419 397 2687 759 
Q 2956 1122 2956 1747 
Q 2956 2369 2687 2733 
Q 2419 3097 1959 3097 
z
M 1959 3584 
Q 2709 3584 3137 3096 
Q 3566 2609 3566 1747 
Q 3566 888 3137 398 
Q 2709 -91 1959 -91 
Q 1206 -91 779 398 
Q 353 888 353 1747 
Q 353 2609 779 3096 
Q 1206 3584 1959 3584 
z
" transform="scale(0.015625)"/>
       <path id="DejaVuSans-75" d="M 544 1381 
L 544 3500 
L 1119 3500 
L 1119 1403 
Q 1119 906 1312 657 
Q 1506 409 1894 409 
Q 2359 409 2629 706 
Q 2900 1003 2900 1516 
L 2900 3500 
L 3475 3500 
L 3475 0 
L 2900 0 
L 2900 538 
Q 2691 219 2414 64 
Q 2138 -91 1772 -91 
Q 1169 -91 856 284 
Q 544 659 544 1381 
z
M 1991 3584 
L 1991 3584 
z
" transform="scale(0.015625)"/>
       <path id="DejaVuSans-6e" d="M 3513 2113 
L 3513 0 
L 2938 0 
L 2938 2094 
Q 2938 2591 2744 2837 
Q 2550 3084 2163 3084 
Q 1697 3084 1428 2787 
Q 1159 2491 1159 1978 
L 1159 0 
L 581 0 
L 581 3500 
L 1159 3500 
L 1159 2956 
Q 1366 3272 1645 3428 
Q 1925 3584 2291 3584 
Q 2894 3584 3203 3211 
Q 3513 2838 3513 2113 
z
" transform="scale(0.015625)"/>
       <path id="DejaVuSans-74" d="M 1172 4494 
L 1172 3500 
L 2356 3500 
L 2356 3053 
L 1172 3053 
L 1172 1153 
Q 1172 725 1289 603 
Q 1406 481 1766 481 
L 2356 481 
L 2356 0 
L 1766 0 
Q 1100 0 847 248 
Q 594 497 594 1153 
L 594 3053 
L 172 3053 
L 172 3500 
L 594 3500 
L 594 4494 
L 1172 4494 
z
" transform="scale(0.015625)"/>
      </defs>
      <use xlink:href="#DejaVuSans-63"/>
      <use xlink:href="#DejaVuSans-6f" transform="translate(54.980469 0)"/>
      <use xlink:href="#DejaVuSans-75" transform="translate(116.162109 0)"/>
      <use xlink:href="#DejaVuSans-6e" transform="translate(179.541016 0)"/>
      <use xlink:href="#DejaVuSans-74" transform="translate(242.919922 0)"/>
     </g>
    </g>
   </g>
   <g id="line2d_27">
    <path d="M 443.540095 251.717969 
L 443.540095 23.077969 
" clip-path="url(#pdecb24caa5)" style="fill: none; stroke: #314f4f; stroke-width: 2.5; stroke-linecap: square"/>
   </g>
   <g id="line2d_28">
    <path d="M 741.878097 251.717969 
L 741.878097 23.077969 
" clip-path="url(#pdecb24caa5)" style="fill: none; stroke: #e64173; stroke-width: 3; stroke-linecap: square"/>
   </g>
   <g id="patch_36">
    <path d="M 49.842188 251.717969 
L 49.842188 23.077969 
" style="fill: none; stroke: #314f4f; stroke-width: 0.8; stroke-linejoin: miter; stroke-linecap: square"/>
   </g>
   <g id="patch_37">
    <path d="M 49.842187 251.717969 
L 774.832188 251.717969 
" style="fill: none; stroke: #314f4f; stroke-width: 0.8; stroke-linejoin: miter; stroke-linecap: square"/>
   </g>
   <g id="text_16">
    <!-- Null distribution of U vs the observed value -->
    <g transform="translate(271.429375 17.077969) scale(0.13 -0.13)">
     <defs>
      <path id="DejaVuSans-4e" d="M 628 4666 
L 1478 4666 
L 3547 763 
L 3547 4666 
L 4159 4666 
L 4159 0 
L 3309 0 
L 1241 3903 
L 1241 0 
L 628 0 
L 628 4666 
z
" transform="scale(0.015625)"/>
      <path id="DejaVuSans-6c" d="M 603 4863 
L 1178 4863 
L 1178 0 
L 603 0 
L 603 4863 
z
" transform="scale(0.015625)"/>
      <path id="DejaVuSans-20" transform="scale(0.015625)"/>
      <path id="DejaVuSans-64" d="M 2906 2969 
L 2906 4863 
L 3481 4863 
L 3481 0 
L 2906 0 
L 2906 525 
Q 2725 213 2448 61 
Q 2172 -91 1784 -91 
Q 1150 -91 751 415 
Q 353 922 353 1747 
Q 353 2572 751 3078 
Q 1150 3584 1784 3584 
Q 2172 3584 2448 3432 
Q 2725 3281 2906 2969 
z
M 947 1747 
Q 947 1113 1208 752 
Q 1469 391 1925 391 
Q 2381 391 2643 752 
Q 2906 1113 2906 1747 
Q 2906 2381 2643 2742 
Q 2381 3103 1925 3103 
Q 1469 3103 1208 2742 
Q 947 2381 947 1747 
z
" transform="scale(0.015625)"/>
      <path id="DejaVuSans-69" d="M 603 3500 
L 1178 3500 
L 1178 0 
L 603 0 
L 603 3500 
z
M 603 4863 
L 1178 4863 
L 1178 4134 
L 603 4134 
L 603 4863 
z
" transform="scale(0.015625)"/>
      <path id="DejaVuSans-73" d="M 2834 3397 
L 2834 2853 
Q 2591 2978 2328 3040 
Q 2066 3103 1784 3103 
Q 1356 3103 1142 2972 
Q 928 2841 928 2578 
Q 928 2378 1081 2264 
Q 1234 2150 1697 2047 
L 1894 2003 
Q 2506 1872 2764 1633 
Q 3022 1394 3022 966 
Q 3022 478 2636 193 
Q 2250 -91 1575 -91 
Q 1294 -91 989 -36 
Q 684 19 347 128 
L 347 722 
Q 666 556 975 473 
Q 1284 391 1588 391 
Q 1994 391 2212 530 
Q 2431 669 2431 922 
Q 2431 1156 2273 1281 
Q 2116 1406 1581 1522 
L 1381 1569 
Q 847 1681 609 1914 
Q 372 2147 372 2553 
Q 372 3047 722 3315 
Q 1072 3584 1716 3584 
Q 2034 3584 2315 3537 
Q 2597 3491 2834 3397 
z
" transform="scale(0.015625)"/>
      <path id="DejaVuSans-72" d="M 2631 2963 
Q 2534 3019 2420 3045 
Q 2306 3072 2169 3072 
Q 1681 3072 1420 2755 
Q 1159 2438 1159 1844 
L 1159 0 
L 581 0 
L 581 3500 
L 1159 3500 
L 1159 2956 
Q 1341 3275 1631 3429 
Q 1922 3584 2338 3584 
Q 2397 3584 2469 3576 
Q 2541 3569 2628 3553 
L 2631 2963 
z
" transform="scale(0.015625)"/>
      <path id="DejaVuSans-62" d="M 3116 1747 
Q 3116 2381 2855 2742 
Q 2594 3103 2138 3103 
Q 1681 3103 1420 2742 
Q 1159 2381 1159 1747 
Q 1159 1113 1420 752 
Q 1681 391 2138 391 
Q 2594 391 2855 752 
Q 3116 1113 3116 1747 
z
M 1159 2969 
Q 1341 3281 1617 3432 
Q 1894 3584 2278 3584 
Q 2916 3584 3314 3078 
Q 3713 2572 3713 1747 
Q 3713 922 3314 415 
Q 2916 -91 2278 -91 
Q 1894 -91 1617 61 
Q 1341 213 1159 525 
L 1159 0 
L 581 0 
L 581 4863 
L 1159 4863 
L 1159 2969 
z
" transform="scale(0.015625)"/>
      <path id="DejaVuSans-66" d="M 2375 4863 
L 2375 4384 
L 1825 4384 
Q 1516 4384 1395 4259 
Q 1275 4134 1275 3809 
L 1275 3500 
L 2222 3500 
L 2222 3053 
L 1275 3053 
L 1275 0 
L 697 0 
L 697 3053 
L 147 3053 
L 147 3500 
L 697 3500 
L 697 3744 
Q 697 4328 969 4595 
Q 1241 4863 1831 4863 
L 2375 4863 
z
" transform="scale(0.015625)"/>
      <path id="DejaVuSans-76" d="M 191 3500 
L 800 3500 
L 1894 563 
L 2988 3500 
L 3597 3500 
L 2284 0 
L 1503 0 
L 191 3500 
z
" transform="scale(0.015625)"/>
      <path id="DejaVuSans-68" d="M 3513 2113 
L 3513 0 
L 2938 0 
L 2938 2094 
Q 2938 2591 2744 2837 
Q 2550 3084 2163 3084 
Q 1697 3084 1428 2787 
Q 1159 2491 1159 1978 
L 1159 0 
L 581 0 
L 581 4863 
L 1159 4863 
L 1159 2956 
Q 1366 3272 1645 3428 
Q 1925 3584 2291 3584 
Q 2894 3584 3203 3211 
Q 3513 2838 3513 2113 
z
" transform="scale(0.015625)"/>
      <path id="DejaVuSans-65" d="M 3597 1894 
L 3597 1613 
L 953 1613 
Q 991 1019 1311 708 
Q 1631 397 2203 397 
Q 2534 397 2845 478 
Q 3156 559 3463 722 
L 3463 178 
Q 3153 47 2828 -22 
Q 2503 -91 2169 -91 
Q 1331 -91 842 396 
Q 353 884 353 1716 
Q 353 2575 817 3079 
Q 1281 3584 2069 3584 
Q 2775 3584 3186 3129 
Q 3597 2675 3597 1894 
z
M 3022 2063 
Q 3016 2534 2758 2815 
Q 2500 3097 2075 3097 
Q 1594 3097 1305 2825 
Q 1016 2553 972 2059 
L 3022 2063 
z
" transform="scale(0.015625)"/>
      <path id="DejaVuSans-61" d="M 2194 1759 
Q 1497 1759 1228 1600 
Q 959 1441 959 1056 
Q 959 750 1161 570 
Q 1363 391 1709 391 
Q 2188 391 2477 730 
Q 2766 1069 2766 1631 
L 2766 1759 
L 2194 1759 
z
M 3341 1997 
L 3341 0 
L 2766 0 
L 2766 531 
Q 2569 213 2275 61 
Q 1981 -91 1556 -91 
Q 1019 -91 701 211 
Q 384 513 384 1019 
Q 384 1609 779 1909 
Q 1175 2209 1959 2209 
L 2766 2209 
L 2766 2266 
Q 2766 2663 2505 2880 
Q 2244 3097 1772 3097 
Q 1472 3097 1187 3025 
Q 903 2953 641 2809 
L 641 3341 
Q 956 3463 1253 3523 
Q 1550 3584 1831 3584 
Q 2591 3584 2966 3190 
Q 3341 2797 3341 1997 
z
" transform="scale(0.015625)"/>
     </defs>
     <use xlink:href="#DejaVuSans-4e"/>
     <use xlink:href="#DejaVuSans-75" transform="translate(74.804688 0)"/>
     <use xlink:href="#DejaVuSans-6c" transform="translate(138.183594 0)"/>
     <use xlink:href="#DejaVuSans-6c" transform="translate(165.966797 0)"/>
     <use xlink:href="#DejaVuSans-20" transform="translate(193.75 0)"/>
     <use xlink:href="#DejaVuSans-64" transform="translate(225.537109 0)"/>
     <use xlink:href="#DejaVuSans-69" transform="translate(289.013672 0)"/>
     <use xlink:href="#DejaVuSans-73" transform="translate(316.796875 0)"/>
     <use xlink:href="#DejaVuSans-74" transform="translate(368.896484 0)"/>
     <use xlink:href="#DejaVuSans-72" transform="translate(408.105469 0)"/>
     <use xlink:href="#DejaVuSans-69" transform="translate(449.21875 0)"/>
     <use xlink:href="#DejaVuSans-62" transform="translate(477.001953 0)"/>
     <use xlink:href="#DejaVuSans-75" transform="translate(540.478516 0)"/>
     <use xlink:href="#DejaVuSans-74" transform="translate(603.857422 0)"/>
     <use xlink:href="#DejaVuSans-69" transform="translate(643.066406 0)"/>
     <use xlink:href="#DejaVuSans-6f" transform="translate(670.849609 0)"/>
     <use xlink:href="#DejaVuSans-6e" transform="translate(732.03125 0)"/>
     <use xlink:href="#DejaVuSans-20" transform="translate(795.410156 0)"/>
     <use xlink:href="#DejaVuSans-6f" transform="translate(827.197266 0)"/>
     <use xlink:href="#DejaVuSans-66" transform="translate(888.378906 0)"/>
     <use xlink:href="#DejaVuSans-20" transform="translate(923.583984 0)"/>
     <use xlink:href="#DejaVuSans-55" transform="translate(955.371094 0)"/>
     <use xlink:href="#DejaVuSans-20" transform="translate(1028.564453 0)"/>
     <use xlink:href="#DejaVuSans-76" transform="translate(1060.351562 0)"/>
     <use xlink:href="#DejaVuSans-73" transform="translate(1119.53125 0)"/>
     <use xlink:href="#DejaVuSans-20" transform="translate(1171.630859 0)"/>
     <use xlink:href="#DejaVuSans-74" transform="translate(1203.417969 0)"/>
     <use xlink:href="#DejaVuSans-68" transform="translate(1242.626953 0)"/>
     <use xlink:href="#DejaVuSans-65" transform="translate(1306.005859 0)"/>
     <use xlink:href="#DejaVuSans-20" transform="translate(1367.529297 0)"/>
     <use xlink:href="#DejaVuSans-6f" transform="translate(1399.316406 0)"/>
     <use xlink:href="#DejaVuSans-62" transform="translate(1460.498047 0)"/>
     <use xlink:href="#DejaVuSans-73" transform="translate(1523.974609 0)"/>
     <use xlink:href="#DejaVuSans-65" transform="translate(1576.074219 0)"/>
     <use xlink:href="#DejaVuSans-72" transform="translate(1637.597656 0)"/>
     <use xlink:href="#DejaVuSans-76" transform="translate(1678.710938 0)"/>
     <use xlink:href="#DejaVuSans-65" transform="translate(1737.890625 0)"/>
     <use xlink:href="#DejaVuSans-64" transform="translate(1799.414062 0)"/>
     <use xlink:href="#DejaVuSans-20" transform="translate(1862.890625 0)"/>
     <use xlink:href="#DejaVuSans-76" transform="translate(1894.677734 0)"/>
     <use xlink:href="#DejaVuSans-61" transform="translate(1953.857422 0)"/>
     <use xlink:href="#DejaVuSans-6c" transform="translate(2015.136719 0)"/>
     <use xlink:href="#DejaVuSans-75" transform="translate(2042.919922 0)"/>
     <use xlink:href="#DejaVuSans-65" transform="translate(2106.298828 0)"/>
    </g>
   </g>
   <g id="legend_1">
    <g id="patch_38">
     <path d="M 57.942188 38.016562 
L 75.942188 38.016562 
L 75.942188 31.716562 
L 57.942188 31.716562 
z
" style="fill: #20b2aa; opacity: 0.9"/>
    </g>
    <g id="text_17">
     <!-- $U$ under $H_0$ -->
     <g transform="translate(83.142188 38.016562) scale(0.09 -0.09)">
      <defs>
       <path id="DejaVuSans-Oblique-55" d="M 991 4666 
L 1625 4666 
L 1075 1831 
Q 1041 1641 1027 1517 
Q 1013 1394 1013 1300 
Q 1013 869 1253 645 
Q 1494 422 1959 422 
Q 2563 422 2898 753 
Q 3234 1084 3378 1831 
L 3928 4666 
L 4563 4666 
L 4000 1753 
Q 3816 809 3300 359 
Q 2784 -91 1888 -91 
Q 1188 -91 780 261 
Q 372 613 372 1216 
Q 372 1325 387 1461 
Q 403 1597 434 1753 
L 991 4666 
z
" transform="scale(0.015625)"/>
       <path id="DejaVuSans-Oblique-48" d="M 1081 4666 
L 1716 4666 
L 1344 2753 
L 3634 2753 
L 4006 4666 
L 4641 4666 
L 3731 0 
L 3097 0 
L 3531 2222 
L 1241 2222 
L 806 0 
L 172 0 
L 1081 4666 
z
" transform="scale(0.015625)"/>
      </defs>
      <use xlink:href="#DejaVuSans-Oblique-55" transform="translate(0 0.015625)"/>
      <use xlink:href="#DejaVuSans-20" transform="translate(73.193359 0.015625)"/>
      <use xlink:href="#DejaVuSans-75" transform="translate(104.980469 0.015625)"/>
      <use xlink:href="#DejaVuSans-6e" transform="translate(168.359375 0.015625)"/>
      <use xlink:href="#DejaVuSans-64" transform="translate(231.738281 0.015625)"/>
      <use xlink:href="#DejaVuSans-65" transform="translate(295.214844 0.015625)"/>
      <use xlink:href="#DejaVuSans-72" transform="translate(356.738281 0.015625)"/>
      <use xlink:href="#DejaVuSans-20" transform="translate(397.851562 0.015625)"/>
      <use xlink:href="#DejaVuSans-Oblique-48" transform="translate(429.638672 0.015625)"/>
      <use xlink:href="#DejaVuSans-30" transform="translate(504.833984 -16.390625) scale(0.7)"/>
     </g>
    </g>
    <g id="line2d_29">
     <path d="M 57.942188 48.076875 
L 66.942188 48.076875 
L 75.942188 48.076875 
" style="fill: none; stroke: #314f4f; stroke-width: 2.5; stroke-linecap: square"/>
    </g>
    <g id="text_18">
     <!-- $\mathbb{E}_{H_0}U$ -->
     <g transform="translate(83.142188 51.226875) scale(0.09 -0.09)">
      <defs>
       <path id="STIXNonUnicode-Italic-e156" d="M 4250 4179 
L 4192 3942 
L 2150 3942 
L 1709 2266 
L 3514 2266 
L 3443 2029 
L 1645 2029 
L 1165 237 
L 3443 237 
L 3392 0 
L 109 0 
L 1229 4179 
L 4250 4179 
z
M 1914 3942 
L 1414 3942 
L 416 237 
L 928 237 
L 1914 3942 
z
" transform="scale(0.015625)"/>
      </defs>
      <use xlink:href="#STIXNonUnicode-Italic-e156" transform="translate(0 0.09375)"/>
      <use xlink:href="#DejaVuSans-Oblique-48" transform="translate(64.857025 -16.3125) scale(0.7)"/>
      <use xlink:href="#DejaVuSans-30" transform="translate(117.493744 -27.796875) scale(0.49)"/>
      <use xlink:href="#DejaVuSans-Oblique-55" transform="translate(153.317474 0.09375)"/>
     </g>
    </g>
    <g id="line2d_30">
     <path d="M 57.942188 62.025469 
L 66.942188 62.025469 
L 75.942188 62.025469 
" style="fill: none; stroke: #e64173; stroke-width: 3; stroke-linecap: square"/>
    </g>
    <g id="text_19">
     <!-- observed U = 4137 -->
     <g transform="translate(83.142188 65.175469) scale(0.09 -0.09)">
      <defs>
       <path id="DejaVuSans-3d" d="M 678 2906 
L 4684 2906 
L 4684 2381 
L 678 2381 
L 678 2906 
z
M 678 1631 
L 4684 1631 
L 4684 1100 
L 678 1100 
L 678 1631 
z
" transform="scale(0.015625)"/>
      </defs>
      <use xlink:href="#DejaVuSans-6f"/>
      <use xlink:href="#DejaVuSans-62" transform="translate(61.181641 0)"/>
      <use xlink:href="#DejaVuSans-73" transform="translate(124.658203 0)"/>
      <use xlink:href="#DejaVuSans-65" transform="translate(176.757812 0)"/>
      <use xlink:href="#DejaVuSans-72" transform="translate(238.28125 0)"/>
      <use xlink:href="#DejaVuSans-76" transform="translate(279.394531 0)"/>
      <use xlink:href="#DejaVuSans-65" transform="translate(338.574219 0)"/>
      <use xlink:href="#DejaVuSans-64" transform="translate(400.097656 0)"/>
      <use xlink:href="#DejaVuSans-20" transform="translate(463.574219 0)"/>
      <use xlink:href="#DejaVuSans-55" transform="translate(495.361328 0)"/>
      <use xlink:href="#DejaVuSans-20" transform="translate(568.554688 0)"/>
      <use xlink:href="#DejaVuSans-3d" transform="translate(600.341797 0)"/>
      <use xlink:href="#DejaVuSans-20" transform="translate(684.130859 0)"/>
      <use xlink:href="#DejaVuSans-34" transform="translate(715.917969 0)"/>
      <use xlink:href="#DejaVuSans-31" transform="translate(779.541016 0)"/>
      <use xlink:href="#DejaVuSans-33" transform="translate(843.164062 0)"/>
      <use xlink:href="#DejaVuSans-37" transform="translate(906.787109 0)"/>
     </g>
    </g>
    <g id="patch_39">
     <path d="M 57.942188 78.385781 
L 75.942188 78.385781 
L 75.942188 72.085781 
L 57.942188 72.085781 
z
" style="fill: #d8bd44; opacity: 0.15; stroke: #d8bd44; stroke-linejoin: miter"/>
    </g>
    <g id="text_20">
     <!-- 95% central band -->
     <g transform="translate(83.142188 78.385781) scale(0.09 -0.09)">
      <defs>
       <path id="DejaVuSans-39" d="M 703 97 
L 703 672 
Q 941 559 1184 500 
Q 1428 441 1663 441 
Q 2288 441 2617 861 
Q 2947 1281 2994 2138 
Q 2813 1869 2534 1725 
Q 2256 1581 1919 1581 
Q 1219 1581 811 2004 
Q 403 2428 403 3163 
Q 403 3881 828 4315 
Q 1253 4750 1959 4750 
Q 2769 4750 3195 4129 
Q 3622 3509 3622 2328 
Q 3622 1225 3098 567 
Q 2575 -91 1691 -91 
Q 1453 -91 1209 -44 
Q 966 3 703 97 
z
M 1959 2075 
Q 2384 2075 2632 2365 
Q 2881 2656 2881 3163 
Q 2881 3666 2632 3958 
Q 2384 4250 1959 4250 
Q 1534 4250 1286 3958 
Q 1038 3666 1038 3163 
Q 1038 2656 1286 2365 
Q 1534 2075 1959 2075 
z
" transform="scale(0.015625)"/>
       <path id="DejaVuSans-25" d="M 4653 2053 
Q 4381 2053 4226 1822 
Q 4072 1591 4072 1178 
Q 4072 772 4226 539 
Q 4381 306 4653 306 
Q 4919 306 5073 539 
Q 5228 772 5228 1178 
Q 5228 1588 5073 1820 
Q 4919 2053 4653 2053 
z
M 4653 2450 
Q 5147 2450 5437 2106 
Q 5728 1763 5728 1178 
Q 5728 594 5436 251 
Q 5144 -91 4653 -91 
Q 4153 -91 3862 251 
Q 3572 594 3572 1178 
Q 3572 1766 3864 2108 
Q 4156 2450 4653 2450 
z
M 1428 4353 
Q 1159 4353 1004 4120 
Q 850 3888 850 3481 
Q 850 3069 1003 2837 
Q 1156 2606 1428 2606 
Q 1700 2606 1854 2837 
Q 2009 3069 2009 3481 
Q 2009 3884 1853 4118 
Q 1697 4353 1428 4353 
z
M 4250 4750 
L 4750 4750 
L 1831 -91 
L 1331 -91 
L 4250 4750 
z
M 1428 4750 
Q 1922 4750 2215 4408 
Q 2509 4066 2509 3481 
Q 2509 2891 2217 2550 
Q 1925 2209 1428 2209 
Q 931 2209 642 2551 
Q 353 2894 353 3481 
Q 353 4063 643 4406 
Q 934 4750 1428 4750 
z
" transform="scale(0.015625)"/>
      </defs>
      <use xlink:href="#DejaVuSans-39"/>
      <use xlink:href="#DejaVuSans-35" transform="translate(63.623047 0)"/>
      <use xlink:href="#DejaVuSans-25" transform="translate(127.246094 0)"/>
      <use xlink:href="#DejaVuSans-20" transform="translate(222.265625 0)"/>
      <use xlink:href="#DejaVuSans-63" transform="translate(254.052734 0)"/>
      <use xlink:href="#DejaVuSans-65" transform="translate(309.033203 0)"/>
      <use xlink:href="#DejaVuSans-6e" transform="translate(370.556641 0)"/>
      <use xlink:href="#DejaVuSans-74" transform="translate(433.935547 0)"/>
      <use xlink:href="#DejaVuSans-72" transform="translate(473.144531 0)"/>
      <use xlink:href="#DejaVuSans-61" transform="translate(514.257812 0)"/>
      <use xlink:href="#DejaVuSans-6c" transform="translate(575.537109 0)"/>
      <use xlink:href="#DejaVuSans-20" transform="translate(603.320312 0)"/>
      <use xlink:href="#DejaVuSans-62" transform="translate(635.107422 0)"/>
      <use xlink:href="#DejaVuSans-61" transform="translate(698.583984 0)"/>
      <use xlink:href="#DejaVuSans-6e" transform="translate(759.863281 0)"/>
      <use xlink:href="#DejaVuSans-64" transform="translate(823.242188 0)"/>
     </g>
    </g>
   </g>
  </g>
 </g>
 <defs>
  <clipPath id="pdecb24caa5">
   <rect x="49.842188" y="23.077969" width="724.99" height="228.64"/>
  </clipPath>
 </defs>
</svg>
