<?xml version="1.0" encoding="utf-8" standalone="no"?>
<!DOCTYPE svg PUBLIC "-//W3C//DTD SVG 1.1//EN"
  "http://www.w3.org/Graphics/SVG/1.1/DTD/svg11.dtd">
<svg xmlns:xlink="http://www.w3.org/1999/xlink" width="609.228125pt" height="307.745313pt" viewBox="0 0 609.228125 307.745313" xmlns="http://www.w3.org/2000/svg" version="1.1">
 <metadata>
  <rdf:RDF xmlns:dc="http://purl.org/dc/elements/1.1/" xmlns:cc="http://creativecommons.org/ns#" xmlns:rdf="http://www.w3.org/1999/02/22-rdf-syntax-ns#">
   <cc:Work>
    <dc:type rdf:resource="http://purl.org/dc/dcmitype/StillImage"/>
    <dc:date>2024-09-24T21:05:10.374798</dc:date>
    <dc:format>image/svg+xml</dc:format>
    <dc:creator>
     <cc:Agent>
      <dc:title>Matplotlib v3.7.2, https://matplotlib.org/</dc:title>
     </cc:Agent>
    </dc:creator>
   </cc:Work>
  </rdf:RDF>
 </metadata>
 <defs>
  <style type="text/css">*{stroke-linejoin: round; stroke-linecap: butt}</style>
 </defs>
 <g id="figure_1">
  <g id="patch_1">
   <path d="M 0 307.745313 
L 609.228125 307.745313 
L 609.228125 0 
L 0 0 
z
" style="fill: #ffffff"/>
  </g>
  <g id="axes_1">
   <g id="patch_2">
    <path d="M 44.028125 284.4 
L 602.028125 284.4 
L 602.028125 7.2 
L 44.028125 7.2 
z
" style="fill: #ffffff"/>
   </g>
   <g id="matplotlib.axis_1">
    <g id="xtick_1">
     <g id="line2d_1">
      <path d="M 91.562462 284.4 
L 91.562462 7.2 
" clip-path="url(#pb971ba27fa)" style="fill: none; stroke: #cccccc; stroke-width: 0.8; stroke-linecap: round"/>
     </g>
     <g id="text_1">
      <!-- 4750 -->
      <g style="fill: #262626" transform="translate(80.440587 298.557813) scale(0.1 -0.1)">
       <defs>
        <path id="ArialMT-34" d="M 2069 0 
L 2069 1097 
L 81 1097 
L 81 1613 
L 2172 4581 
L 2631 4581 
L 2631 1613 
L 3250 1613 
L 3250 1097 
L 2631 1097 
L 2631 0 
L 2069 0 
z
M 2069 1613 
L 2069 3678 
L 634 1613 
L 2069 1613 
z
" transform="scale(0.015625)"/>
        <path id="ArialMT-37" d="M 303 3981 
L 303 4522 
L 3269 4522 
L 3269 4084 
Q 2831 3619 2401 2847 
Q 1972 2075 1738 1259 
Q 1569 684 1522 0 
L 944 0 
Q 953 541 1156 1306 
Q 1359 2072 1739 2783 
Q 2119 3494 2547 3981 
L 303 3981 
z
" transform="scale(0.015625)"/>
        <path id="ArialMT-35" d="M 266 1200 
L 856 1250 
Q 922 819 1161 601 
Q 1400 384 1738 384 
Q 2144 384 2425 690 
Q 2706 997 2706 1503 
Q 2706 1984 2436 2262 
Q 2166 2541 1728 2541 
Q 1456 2541 1237 2417 
Q 1019 2294 894 2097 
L 366 2166 
L 809 4519 
L 3088 4519 
L 3088 3981 
L 1259 3981 
L 1013 2750 
Q 1425 3038 1878 3038 
Q 2478 3038 2890 2622 
Q 3303 2206 3303 1553 
Q 3303 931 2941 478 
Q 2500 -78 1738 -78 
Q 1113 -78 717 272 
Q 322 622 266 1200 
z
" transform="scale(0.015625)"/>
        <path id="ArialMT-30" d="M 266 2259 
Q 266 3072 433 3567 
Q 600 4063 929 4331 
Q 1259 4600 1759 4600 
Q 2128 4600 2406 4451 
Q 2684 4303 2865 4023 
Q 3047 3744 3150 3342 
Q 3253 2941 3253 2259 
Q 3253 1453 3087 958 
Q 2922 463 2592 192 
Q 2263 -78 1759 -78 
Q 1097 -78 719 397 
Q 266 969 266 2259 
z
M 844 2259 
Q 844 1131 1108 757 
Q 1372 384 1759 384 
Q 2147 384 2411 759 
Q 2675 1134 2675 2259 
Q 2675 3391 2411 3762 
Q 2147 4134 1753 4134 
Q 1366 4134 1134 3806 
Q 844 3388 844 2259 
z
" transform="scale(0.015625)"/>
       </defs>
       <use xlink:href="#ArialMT-34"/>
       <use xlink:href="#ArialMT-37" x="55.615234"/>
       <use xlink:href="#ArialMT-35" x="111.230469"/>
       <use xlink:href="#ArialMT-30" x="166.845703"/>
      </g>
     </g>
    </g>
    <g id="xtick_2">
     <g id="line2d_2">
      <path d="M 157.068507 284.4 
L 157.068507 7.2 
" clip-path="url(#pb971ba27fa)" style="fill: none; stroke: #cccccc; stroke-width: 0.8; stroke-linecap: round"/>
     </g>
     <g id="text_2">
      <!-- 5000 -->
      <g style="fill: #262626" transform="translate(145.946632 298.557813) scale(0.1 -0.1)">
       <use xlink:href="#ArialMT-35"/>
       <use xlink:href="#ArialMT-30" x="55.615234"/>
       <use xlink:href="#ArialMT-30" x="111.230469"/>
       <use xlink:href="#ArialMT-30" x="166.845703"/>
      </g>
     </g>
    </g>
    <g id="xtick_3">
     <g id="line2d_3">
      <path d="M 222.574553 284.4 
L 222.574553 7.2 
" clip-path="url(#pb971ba27fa)" style="fill: none; stroke: #cccccc; stroke-width: 0.8; stroke-linecap: round"/>
     </g>
     <g id="text_3">
      <!-- 5250 -->
      <g style="fill: #262626" transform="translate(211.452678 298.557813) scale(0.1 -0.1)">
       <defs>
        <path id="ArialMT-32" d="M 3222 541 
L 3222 0 
L 194 0 
Q 188 203 259 391 
Q 375 700 629 1000 
Q 884 1300 1366 1694 
Q 2113 2306 2375 2664 
Q 2638 3022 2638 3341 
Q 2638 3675 2398 3904 
Q 2159 4134 1775 4134 
Q 1369 4134 1125 3890 
Q 881 3647 878 3216 
L 300 3275 
Q 359 3922 746 4261 
Q 1134 4600 1788 4600 
Q 2447 4600 2831 4234 
Q 3216 3869 3216 3328 
Q 3216 3053 3103 2787 
Q 2991 2522 2730 2228 
Q 2469 1934 1863 1422 
Q 1356 997 1212 845 
Q 1069 694 975 541 
L 3222 541 
z
" transform="scale(0.015625)"/>
       </defs>
       <use xlink:href="#ArialMT-35"/>
       <use xlink:href="#ArialMT-32" x="55.615234"/>
       <use xlink:href="#ArialMT-35" x="111.230469"/>
       <use xlink:href="#ArialMT-30" x="166.845703"/>
      </g>
     </g>
    </g>
    <g id="xtick_4">
     <g id="line2d_4">
      <path d="M 288.080598 284.4 
L 288.080598 7.2 
" clip-path="url(#pb971ba27fa)" style="fill: none; stroke: #cccccc; stroke-width: 0.8; stroke-linecap: round"/>
     </g>
     <g id="text_4">
      <!-- 5500 -->
      <g style="fill: #262626" transform="translate(276.958723 298.557813) scale(0.1 -0.1)">
       <use xlink:href="#ArialMT-35"/>
       <use xlink:href="#ArialMT-35" x="55.615234"/>
       <use xlink:href="#ArialMT-30" x="111.230469"/>
       <use xlink:href="#ArialMT-30" x="166.845703"/>
      </g>
     </g>
    </g>
    <g id="xtick_5">
     <g id="line2d_5">
      <path d="M 353.586644 284.4 
L 353.586644 7.2 
" clip-path="url(#pb971ba27fa)" style="fill: none; stroke: #cccccc; stroke-width: 0.8; stroke-linecap: round"/>
     </g>
     <g id="text_5">
      <!-- 5750 -->
      <g style="fill: #262626" transform="translate(342.464769 298.557813) scale(0.1 -0.1)">
       <use xlink:href="#ArialMT-35"/>
       <use xlink:href="#ArialMT-37" x="55.615234"/>
       <use xlink:href="#ArialMT-35" x="111.230469"/>
       <use xlink:href="#ArialMT-30" x="166.845703"/>
      </g>
     </g>
    </g>
    <g id="xtick_6">
     <g id="line2d_6">
      <path d="M 419.092689 284.4 
L 419.092689 7.2 
" clip-path="url(#pb971ba27fa)" style="fill: none; stroke: #cccccc; stroke-width: 0.8; stroke-linecap: round"/>
     </g>
     <g id="text_6">
      <!-- 6000 -->
      <g style="fill: #262626" transform="translate(407.970814 298.557813) scale(0.1 -0.1)">
       <defs>
        <path id="ArialMT-36" d="M 3184 3459 
L 2625 3416 
Q 2550 3747 2413 3897 
Q 2184 4138 1850 4138 
Q 1581 4138 1378 3988 
Q 1113 3794 959 3422 
Q 806 3050 800 2363 
Q 1003 2672 1297 2822 
Q 1591 2972 1913 2972 
Q 2475 2972 2870 2558 
Q 3266 2144 3266 1488 
Q 3266 1056 3080 686 
Q 2894 316 2569 119 
Q 2244 -78 1831 -78 
Q 1128 -78 684 439 
Q 241 956 241 2144 
Q 241 3472 731 4075 
Q 1159 4600 1884 4600 
Q 2425 4600 2770 4297 
Q 3116 3994 3184 3459 
z
M 888 1484 
Q 888 1194 1011 928 
Q 1134 663 1356 523 
Q 1578 384 1822 384 
Q 2178 384 2434 671 
Q 2691 959 2691 1453 
Q 2691 1928 2437 2201 
Q 2184 2475 1800 2475 
Q 1419 2475 1153 2201 
Q 888 1928 888 1484 
z
" transform="scale(0.015625)"/>
       </defs>
       <use xlink:href="#ArialMT-36"/>
       <use xlink:href="#ArialMT-30" x="55.615234"/>
       <use xlink:href="#ArialMT-30" x="111.230469"/>
       <use xlink:href="#ArialMT-30" x="166.845703"/>
      </g>
     </g>
    </g>
    <g id="xtick_7">
     <g id="line2d_7">
      <path d="M 484.598734 284.4 
L 484.598734 7.2 
" clip-path="url(#pb971ba27fa)" style="fill: none; stroke: #cccccc; stroke-width: 0.8; stroke-linecap: round"/>
     </g>
     <g id="text_7">
      <!-- 6250 -->
      <g style="fill: #262626" transform="translate(473.476859 298.557813) scale(0.1 -0.1)">
       <use xlink:href="#ArialMT-36"/>
       <use xlink:href="#ArialMT-32" x="55.615234"/>
       <use xlink:href="#ArialMT-35" x="111.230469"/>
       <use xlink:href="#ArialMT-30" x="166.845703"/>
      </g>
     </g>
    </g>
    <g id="xtick_8">
     <g id="line2d_8">
      <path d="M 550.10478 284.4 
L 550.10478 7.2 
" clip-path="url(#pb971ba27fa)" style="fill: none; stroke: #cccccc; stroke-width: 0.8; stroke-linecap: round"/>
     </g>
     <g id="text_8">
      <!-- 6500 -->
      <g style="fill: #262626" transform="translate(538.982905 298.557813) scale(0.1 -0.1)">
       <use xlink:href="#ArialMT-36"/>
       <use xlink:href="#ArialMT-35" x="55.615234"/>
       <use xlink:href="#ArialMT-30" x="111.230469"/>
       <use xlink:href="#ArialMT-30" x="166.845703"/>
      </g>
     </g>
    </g>
   </g>
   <g id="matplotlib.axis_2">
    <g id="ytick_1">
     <g id="line2d_9">
      <path d="M 44.028125 284.4 
L 602.028125 284.4 
" clip-path="url(#pb971ba27fa)" style="fill: none; stroke: #cccccc; stroke-width: 0.8; stroke-linecap: round"/>
     </g>
     <g id="text_9">
      <!-- 0 -->
      <g style="fill: #262626" transform="translate(31.467188 287.978906) scale(0.1 -0.1)">
       <use xlink:href="#ArialMT-30"/>
      </g>
     </g>
    </g>
    <g id="ytick_2">
     <g id="line2d_10">
      <path d="M 44.028125 232.635294 
L 602.028125 232.635294 
" clip-path="url(#pb971ba27fa)" style="fill: none; stroke: #cccccc; stroke-width: 0.8; stroke-linecap: round"/>
     </g>
     <g id="text_10">
      <!-- 100 -->
      <g style="fill: #262626" transform="translate(20.345313 236.2142) scale(0.1 -0.1)">
       <defs>
        <path id="ArialMT-31" d="M 2384 0 
L 1822 0 
L 1822 3584 
Q 1619 3391 1289 3197 
Q 959 3003 697 2906 
L 697 3450 
Q 1169 3672 1522 3987 
Q 1875 4303 2022 4600 
L 2384 4600 
L 2384 0 
z
" transform="scale(0.015625)"/>
       </defs>
       <use xlink:href="#ArialMT-31"/>
       <use xlink:href="#ArialMT-30" x="55.615234"/>
       <use xlink:href="#ArialMT-30" x="111.230469"/>
      </g>
     </g>
    </g>
    <g id="ytick_3">
     <g id="line2d_11">
      <path d="M 44.028125 180.870588 
L 602.028125 180.870588 
" clip-path="url(#pb971ba27fa)" style="fill: none; stroke: #cccccc; stroke-width: 0.8; stroke-linecap: round"/>
     </g>
     <g id="text_11">
      <!-- 200 -->
      <g style="fill: #262626" transform="translate(20.345313 184.449494) scale(0.1 -0.1)">
       <use xlink:href="#ArialMT-32"/>
       <use xlink:href="#ArialMT-30" x="55.615234"/>
       <use xlink:href="#ArialMT-30" x="111.230469"/>
      </g>
     </g>
    </g>
    <g id="ytick_4">
     <g id="line2d_12">
      <path d="M 44.028125 129.105882 
L 602.028125 129.105882 
" clip-path="url(#pb971ba27fa)" style="fill: none; stroke: #cccccc; stroke-width: 0.8; stroke-linecap: round"/>
     </g>
     <g id="text_12">
      <!-- 300 -->
      <g style="fill: #262626" transform="translate(20.345313 132.684789) scale(0.1 -0.1)">
       <defs>
        <path id="ArialMT-33" d="M 269 1209 
L 831 1284 
Q 928 806 1161 595 
Q 1394 384 1728 384 
Q 2125 384 2398 659 
Q 2672 934 2672 1341 
Q 2672 1728 2419 1979 
Q 2166 2231 1775 2231 
Q 1616 2231 1378 2169 
L 1441 2663 
Q 1497 2656 1531 2656 
Q 1891 2656 2178 2843 
Q 2466 3031 2466 3422 
Q 2466 3731 2256 3934 
Q 2047 4138 1716 4138 
Q 1388 4138 1169 3931 
Q 950 3725 888 3313 
L 325 3413 
Q 428 3978 793 4289 
Q 1159 4600 1703 4600 
Q 2078 4600 2393 4439 
Q 2709 4278 2876 4000 
Q 3044 3722 3044 3409 
Q 3044 3113 2884 2869 
Q 2725 2625 2413 2481 
Q 2819 2388 3044 2092 
Q 3269 1797 3269 1353 
Q 3269 753 2831 336 
Q 2394 -81 1725 -81 
Q 1122 -81 723 278 
Q 325 638 269 1209 
z
" transform="scale(0.015625)"/>
       </defs>
       <use xlink:href="#ArialMT-33"/>
       <use xlink:href="#ArialMT-30" x="55.615234"/>
       <use xlink:href="#ArialMT-30" x="111.230469"/>
      </g>
     </g>
    </g>
    <g id="ytick_5">
     <g id="line2d_13">
      <path d="M 44.028125 77.341176 
L 602.028125 77.341176 
" clip-path="url(#pb971ba27fa)" style="fill: none; stroke: #cccccc; stroke-width: 0.8; stroke-linecap: round"/>
     </g>
     <g id="text_13">
      <!-- 400 -->
      <g style="fill: #262626" transform="translate(20.345313 80.920083) scale(0.1 -0.1)">
       <use xlink:href="#ArialMT-34"/>
       <use xlink:href="#ArialMT-30" x="55.615234"/>
       <use xlink:href="#ArialMT-30" x="111.230469"/>
      </g>
     </g>
    </g>
    <g id="ytick_6">
     <g id="line2d_14">
      <path d="M 44.028125 25.576471 
L 602.028125 25.576471 
" clip-path="url(#pb971ba27fa)" style="fill: none; stroke: #cccccc; stroke-width: 0.8; stroke-linecap: round"/>
     </g>
     <g id="text_14">
      <!-- 500 -->
      <g style="fill: #262626" transform="translate(20.345313 29.155377) scale(0.1 -0.1)">
       <use xlink:href="#ArialMT-35"/>
       <use xlink:href="#ArialMT-30" x="55.615234"/>
       <use xlink:href="#ArialMT-30" x="111.230469"/>
      </g>
     </g>
    </g>
    <g id="text_15">
     <!-- Count -->
     <g style="fill: #262626" transform="translate(14.357813 159.141406) rotate(-90) scale(0.1 -0.1)">
      <defs>
       <path id="ArialMT-43" d="M 3763 1606 
L 4369 1453 
Q 4178 706 3683 314 
Q 3188 -78 2472 -78 
Q 1731 -78 1267 223 
Q 803 525 561 1097 
Q 319 1669 319 2325 
Q 319 3041 592 3573 
Q 866 4106 1370 4382 
Q 1875 4659 2481 4659 
Q 3169 4659 3637 4309 
Q 4106 3959 4291 3325 
L 3694 3184 
Q 3534 3684 3231 3912 
Q 2928 4141 2469 4141 
Q 1941 4141 1586 3887 
Q 1231 3634 1087 3207 
Q 944 2781 944 2328 
Q 944 1744 1114 1308 
Q 1284 872 1643 656 
Q 2003 441 2422 441 
Q 2931 441 3284 734 
Q 3638 1028 3763 1606 
z
" transform="scale(0.015625)"/>
       <path id="ArialMT-6f" d="M 213 1659 
Q 213 2581 725 3025 
Q 1153 3394 1769 3394 
Q 2453 3394 2887 2945 
Q 3322 2497 3322 1706 
Q 3322 1066 3130 698 
Q 2938 331 2570 128 
Q 2203 -75 1769 -75 
Q 1072 -75 642 372 
Q 213 819 213 1659 
z
M 791 1659 
Q 791 1022 1069 705 
Q 1347 388 1769 388 
Q 2188 388 2466 706 
Q 2744 1025 2744 1678 
Q 2744 2294 2464 2611 
Q 2184 2928 1769 2928 
Q 1347 2928 1069 2612 
Q 791 2297 791 1659 
z
" transform="scale(0.015625)"/>
       <path id="ArialMT-75" d="M 2597 0 
L 2597 488 
Q 2209 -75 1544 -75 
Q 1250 -75 995 37 
Q 741 150 617 320 
Q 494 491 444 738 
Q 409 903 409 1263 
L 409 3319 
L 972 3319 
L 972 1478 
Q 972 1038 1006 884 
Q 1059 663 1231 536 
Q 1403 409 1656 409 
Q 1909 409 2131 539 
Q 2353 669 2445 892 
Q 2538 1116 2538 1541 
L 2538 3319 
L 3100 3319 
L 3100 0 
L 2597 0 
z
" transform="scale(0.015625)"/>
       <path id="ArialMT-6e" d="M 422 0 
L 422 3319 
L 928 3319 
L 928 2847 
Q 1294 3394 1984 3394 
Q 2284 3394 2536 3286 
Q 2788 3178 2913 3003 
Q 3038 2828 3088 2588 
Q 3119 2431 3119 2041 
L 3119 0 
L 2556 0 
L 2556 2019 
Q 2556 2363 2490 2533 
Q 2425 2703 2258 2804 
Q 2091 2906 1866 2906 
Q 1506 2906 1245 2678 
Q 984 2450 984 1813 
L 984 0 
L 422 0 
z
" transform="scale(0.015625)"/>
       <path id="ArialMT-74" d="M 1650 503 
L 1731 6 
Q 1494 -44 1306 -44 
Q 1000 -44 831 53 
Q 663 150 594 308 
Q 525 466 525 972 
L 525 2881 
L 113 2881 
L 113 3319 
L 525 3319 
L 525 4141 
L 1084 4478 
L 1084 3319 
L 1650 3319 
L 1650 2881 
L 1084 2881 
L 1084 941 
Q 1084 700 1114 631 
Q 1144 563 1211 522 
Q 1278 481 1403 481 
Q 1497 481 1650 503 
z
" transform="scale(0.015625)"/>
      </defs>
      <use xlink:href="#ArialMT-43"/>
      <use xlink:href="#ArialMT-6f" x="72.216797"/>
      <use xlink:href="#ArialMT-75" x="127.832031"/>
      <use xlink:href="#ArialMT-6e" x="183.447266"/>
      <use xlink:href="#ArialMT-74" x="239.0625"/>
     </g>
    </g>
   </g>
   <g id="patch_3">
    <path d="M 69.391761 284.4 
L 77.077712 284.4 
L 77.077712 282.847059 
L 69.391761 282.847059 
z
" clip-path="url(#pb971ba27fa)" style="fill: #0173b2; fill-opacity: 0.75; stroke: #ffffff; stroke-width: 0.768595; stroke-linejoin: miter"/>
   </g>
   <g id="patch_4">
    <path d="M 77.077712 284.4 
L 84.763662 284.4 
L 84.763662 283.882353 
L 77.077712 283.882353 
z
" clip-path="url(#pb971ba27fa)" style="fill: #0173b2; fill-opacity: 0.75; stroke: #ffffff; stroke-width: 0.768595; stroke-linejoin: miter"/>
   </g>
   <g id="patch_5">
    <path d="M 84.763662 284.4 
L 92.449613 284.4 
L 92.449613 284.4 
L 84.763662 284.4 
z
" clip-path="url(#pb971ba27fa)" style="fill: #0173b2; fill-opacity: 0.75; stroke: #ffffff; stroke-width: 0.768595; stroke-linejoin: miter"/>
   </g>
   <g id="patch_6">
    <path d="M 92.449613 284.4 
L 100.135563 284.4 
L 100.135563 282.847059 
L 92.449613 282.847059 
z
" clip-path="url(#pb971ba27fa)" style="fill: #0173b2; fill-opacity: 0.75; stroke: #ffffff; stroke-width: 0.768595; stroke-linejoin: miter"/>
   </g>
   <g id="patch_7">
    <path d="M 100.135563 284.4 
L 107.821513 284.4 
L 107.821513 281.811765 
L 100.135563 281.811765 
z
" clip-path="url(#pb971ba27fa)" style="fill: #0173b2; fill-opacity: 0.75; stroke: #ffffff; stroke-width: 0.768595; stroke-linejoin: miter"/>
   </g>
   <g id="patch_8">
    <path d="M 107.821513 284.4 
L 115.507464 284.4 
L 115.507464 281.294118 
L 107.821513 281.294118 
z
" clip-path="url(#pb971ba27fa)" style="fill: #0173b2; fill-opacity: 0.75; stroke: #ffffff; stroke-width: 0.768595; stroke-linejoin: miter"/>
   </g>
   <g id="patch_9">
    <path d="M 115.507464 284.4 
L 123.193414 284.4 
L 123.193414 276.635294 
L 115.507464 276.635294 
z
" clip-path="url(#pb971ba27fa)" style="fill: #0173b2; fill-opacity: 0.75; stroke: #ffffff; stroke-width: 0.768595; stroke-linejoin: miter"/>
   </g>
   <g id="patch_10">
    <path d="M 123.193414 284.4 
L 130.879365 284.4 
L 130.879365 276.117647 
L 123.193414 276.117647 
z
" clip-path="url(#pb971ba27fa)" style="fill: #0173b2; fill-opacity: 0.75; stroke: #ffffff; stroke-width: 0.768595; stroke-linejoin: miter"/>
   </g>
   <g id="patch_11">
    <path d="M 130.879365 284.4 
L 138.565315 284.4 
L 138.565315 268.352941 
L 130.879365 268.352941 
z
" clip-path="url(#pb971ba27fa)" style="fill: #0173b2; fill-opacity: 0.75; stroke: #ffffff; stroke-width: 0.768595; stroke-linejoin: miter"/>
   </g>
   <g id="patch_12">
    <path d="M 138.565315 284.4 
L 146.251265 284.4 
L 146.251265 266.8 
L 138.565315 266.8 
z
" clip-path="url(#pb971ba27fa)" style="fill: #0173b2; fill-opacity: 0.75; stroke: #ffffff; stroke-width: 0.768595; stroke-linejoin: miter"/>
   </g>
   <g id="patch_13">
    <path d="M 146.251265 284.4 
L 153.937216 284.4 
L 153.937216 252.823529 
L 146.251265 252.823529 
z
" clip-path="url(#pb971ba27fa)" style="fill: #0173b2; fill-opacity: 0.75; stroke: #ffffff; stroke-width: 0.768595; stroke-linejoin: miter"/>
   </g>
   <g id="patch_14">
    <path d="M 153.937216 284.4 
L 161.623166 284.4 
L 161.623166 254.376471 
L 153.937216 254.376471 
z
" clip-path="url(#pb971ba27fa)" style="fill: #0173b2; fill-opacity: 0.75; stroke: #ffffff; stroke-width: 0.768595; stroke-linejoin: miter"/>
   </g>
   <g id="patch_15">
    <path d="M 161.623166 284.4 
L 169.309117 284.4 
L 169.309117 244.541176 
L 161.623166 244.541176 
z
" clip-path="url(#pb971ba27fa)" style="fill: #0173b2; fill-opacity: 0.75; stroke: #ffffff; stroke-width: 0.768595; stroke-linejoin: miter"/>
   </g>
   <g id="patch_16">
    <path d="M 169.309117 284.4 
L 176.995067 284.4 
L 176.995067 240.4 
L 169.309117 240.4 
z
" clip-path="url(#pb971ba27fa)" style="fill: #0173b2; fill-opacity: 0.75; stroke: #ffffff; stroke-width: 0.768595; stroke-linejoin: miter"/>
   </g>
   <g id="patch_17">
    <path d="M 176.995067 284.4 
L 184.681018 284.4 
L 184.681018 220.211765 
L 176.995067 220.211765 
z
" clip-path="url(#pb971ba27fa)" style="fill: #0173b2; fill-opacity: 0.75; stroke: #ffffff; stroke-width: 0.768595; stroke-linejoin: miter"/>
   </g>
   <g id="patch_18">
    <path d="M 184.681018 284.4 
L 192.366968 284.4 
L 192.366968 206.235294 
L 184.681018 206.235294 
z
" clip-path="url(#pb971ba27fa)" style="fill: #0173b2; fill-opacity: 0.75; stroke: #ffffff; stroke-width: 0.768595; stroke-linejoin: miter"/>
   </g>
   <g id="patch_19">
    <path d="M 192.366968 284.4 
L 200.052918 284.4 
L 200.052918 194.847059 
L 192.366968 194.847059 
z
" clip-path="url(#pb971ba27fa)" style="fill: #0173b2; fill-opacity: 0.75; stroke: #ffffff; stroke-width: 0.768595; stroke-linejoin: miter"/>
   </g>
   <g id="patch_20">
    <path d="M 200.052918 284.4 
L 207.738869 284.4 
L 207.738869 166.894118 
L 200.052918 166.894118 
z
" clip-path="url(#pb971ba27fa)" style="fill: #0173b2; fill-opacity: 0.75; stroke: #ffffff; stroke-width: 0.768595; stroke-linejoin: miter"/>
   </g>
   <g id="patch_21">
    <path d="M 207.738869 284.4 
L 215.424819 284.4 
L 215.424819 150.329412 
L 207.738869 150.329412 
z
" clip-path="url(#pb971ba27fa)" style="fill: #0173b2; fill-opacity: 0.75; stroke: #ffffff; stroke-width: 0.768595; stroke-linejoin: miter"/>
   </g>
   <g id="patch_22">
    <path d="M 215.424819 284.4 
L 223.11077 284.4 
L 223.11077 123.929412 
L 215.424819 123.929412 
z
" clip-path="url(#pb971ba27fa)" style="fill: #0173b2; fill-opacity: 0.75; stroke: #ffffff; stroke-width: 0.768595; stroke-linejoin: miter"/>
   </g>
   <g id="patch_23">
    <path d="M 223.11077 284.4 
L 230.79672 284.4 
L 230.79672 108.4 
L 223.11077 108.4 
z
" clip-path="url(#pb971ba27fa)" style="fill: #0173b2; fill-opacity: 0.75; stroke: #ffffff; stroke-width: 0.768595; stroke-linejoin: miter"/>
   </g>
   <g id="patch_24">
    <path d="M 230.79672 284.4 
L 238.48267 284.4 
L 238.48267 95.458824 
L 230.79672 95.458824 
z
" clip-path="url(#pb971ba27fa)" style="fill: #0173b2; fill-opacity: 0.75; stroke: #ffffff; stroke-width: 0.768595; stroke-linejoin: miter"/>
   </g>
   <g id="patch_25">
    <path d="M 238.48267 284.4 
L 246.168621 284.4 
L 246.168621 77.341176 
L 238.48267 77.341176 
z
" clip-path="url(#pb971ba27fa)" style="fill: #0173b2; fill-opacity: 0.75; stroke: #ffffff; stroke-width: 0.768595; stroke-linejoin: miter"/>
   </g>
   <g id="patch_26">
    <path d="M 246.168621 284.4 
L 253.854571 284.4 
L 253.854571 58.188235 
L 246.168621 58.188235 
z
" clip-path="url(#pb971ba27fa)" style="fill: #0173b2; fill-opacity: 0.75; stroke: #ffffff; stroke-width: 0.768595; stroke-linejoin: miter"/>
   </g>
   <g id="patch_27">
    <path d="M 253.854571 284.4 
L 261.540522 284.4 
L 261.540522 48.870588 
L 253.854571 48.870588 
z
" clip-path="url(#pb971ba27fa)" style="fill: #0173b2; fill-opacity: 0.75; stroke: #ffffff; stroke-width: 0.768595; stroke-linejoin: miter"/>
   </g>
   <g id="patch_28">
    <path d="M 261.540522 284.4 
L 269.226472 284.4 
L 269.226472 47.317647 
L 261.540522 47.317647 
z
" clip-path="url(#pb971ba27fa)" style="fill: #0173b2; fill-opacity: 0.75; stroke: #ffffff; stroke-width: 0.768595; stroke-linejoin: miter"/>
   </g>
   <g id="patch_29">
    <path d="M 269.226472 284.4 
L 276.912423 284.4 
L 276.912423 24.023529 
L 269.226472 24.023529 
z
" clip-path="url(#pb971ba27fa)" style="fill: #0173b2; fill-opacity: 0.75; stroke: #ffffff; stroke-width: 0.768595; stroke-linejoin: miter"/>
   </g>
   <g id="patch_30">
    <path d="M 276.912423 284.4 
L 284.598373 284.4 
L 284.598373 20.4 
L 276.912423 20.4 
z
" clip-path="url(#pb971ba27fa)" style="fill: #0173b2; fill-opacity: 0.75; stroke: #ffffff; stroke-width: 0.768595; stroke-linejoin: miter"/>
   </g>
   <g id="patch_31">
    <path d="M 284.598373 284.4 
L 292.284323 284.4 
L 292.284323 37.482353 
L 284.598373 37.482353 
z
" clip-path="url(#pb971ba27fa)" style="fill: #0173b2; fill-opacity: 0.75; stroke: #ffffff; stroke-width: 0.768595; stroke-linejoin: miter"/>
   </g>
   <g id="patch_32">
    <path d="M 292.284323 284.4 
L 299.970274 284.4 
L 299.970274 34.894118 
L 292.284323 34.894118 
z
" clip-path="url(#pb971ba27fa)" style="fill: #0173b2; fill-opacity: 0.75; stroke: #ffffff; stroke-width: 0.768595; stroke-linejoin: miter"/>
   </g>
   <g id="patch_33">
    <path d="M 299.970274 284.4 
L 307.656224 284.4 
L 307.656224 46.282353 
L 299.970274 46.282353 
z
" clip-path="url(#pb971ba27fa)" style="fill: #0173b2; fill-opacity: 0.75; stroke: #ffffff; stroke-width: 0.768595; stroke-linejoin: miter"/>
   </g>
   <g id="patch_34">
    <path d="M 307.656224 284.4 
L 315.342175 284.4 
L 315.342175 66.988235 
L 307.656224 66.988235 
z
" clip-path="url(#pb971ba27fa)" style="fill: #0173b2; fill-opacity: 0.75; stroke: #ffffff; stroke-width: 0.768595; stroke-linejoin: miter"/>
   </g>
   <g id="patch_35">
    <path d="M 315.342175 284.4 
L 323.028125 284.4 
L 323.028125 57.670588 
L 315.342175 57.670588 
z
" clip-path="url(#pb971ba27fa)" style="fill: #0173b2; fill-opacity: 0.75; stroke: #ffffff; stroke-width: 0.768595; stroke-linejoin: miter"/>
   </g>
   <g id="patch_36">
    <path d="M 323.028125 284.4 
L 330.714075 284.4 
L 330.714075 106.847059 
L 323.028125 106.847059 
z
" clip-path="url(#pb971ba27fa)" style="fill: #0173b2; fill-opacity: 0.75; stroke: #ffffff; stroke-width: 0.768595; stroke-linejoin: miter"/>
   </g>
   <g id="patch_37">
    <path d="M 330.714075 284.4 
L 338.400026 284.4 
L 338.400026 96.494118 
L 330.714075 96.494118 
z
" clip-path="url(#pb971ba27fa)" style="fill: #0173b2; fill-opacity: 0.75; stroke: #ffffff; stroke-width: 0.768595; stroke-linejoin: miter"/>
   </g>
   <g id="patch_38">
    <path d="M 338.400026 284.4 
L 346.085976 284.4 
L 346.085976 122.894118 
L 338.400026 122.894118 
z
" clip-path="url(#pb971ba27fa)" style="fill: #0173b2; fill-opacity: 0.75; stroke: #ffffff; stroke-width: 0.768595; stroke-linejoin: miter"/>
   </g>
   <g id="patch_39">
    <path d="M 346.085976 284.4 
L 353.771927 284.4 
L 353.771927 131.176471 
L 346.085976 131.176471 
z
" clip-path="url(#pb971ba27fa)" style="fill: #0173b2; fill-opacity: 0.75; stroke: #ffffff; stroke-width: 0.768595; stroke-linejoin: miter"/>
   </g>
   <g id="patch_40">
    <path d="M 353.771927 284.4 
L 361.457877 284.4 
L 361.457877 174.658824 
L 353.771927 174.658824 
z
" clip-path="url(#pb971ba27fa)" style="fill: #0173b2; fill-opacity: 0.75; stroke: #ffffff; stroke-width: 0.768595; stroke-linejoin: miter"/>
   </g>
   <g id="patch_41">
    <path d="M 361.457877 284.4 
L 369.143827 284.4 
L 369.143827 168.964706 
L 361.457877 168.964706 
z
" clip-path="url(#pb971ba27fa)" style="fill: #0173b2; fill-opacity: 0.75; stroke: #ffffff; stroke-width: 0.768595; stroke-linejoin: miter"/>
   </g>
   <g id="patch_42">
    <path d="M 369.143827 284.4 
L 376.829778 284.4 
L 376.829778 205.2 
L 369.143827 205.2 
z
" clip-path="url(#pb971ba27fa)" style="fill: #0173b2; fill-opacity: 0.75; stroke: #ffffff; stroke-width: 0.768595; stroke-linejoin: miter"/>
   </g>
   <g id="patch_43">
    <path d="M 376.829778 284.4 
L 384.515728 284.4 
L 384.515728 207.788235 
L 376.829778 207.788235 
z
" clip-path="url(#pb971ba27fa)" style="fill: #0173b2; fill-opacity: 0.75; stroke: #ffffff; stroke-width: 0.768595; stroke-linejoin: miter"/>
   </g>
   <g id="patch_44">
    <path d="M 384.515728 284.4 
L 392.201679 284.4 
L 392.201679 223.835294 
L 384.515728 223.835294 
z
" clip-path="url(#pb971ba27fa)" style="fill: #0173b2; fill-opacity: 0.75; stroke: #ffffff; stroke-width: 0.768595; stroke-linejoin: miter"/>
   </g>
   <g id="patch_45">
    <path d="M 392.201679 284.4 
L 399.887629 284.4 
L 399.887629 239.882353 
L 392.201679 239.882353 
z
" clip-path="url(#pb971ba27fa)" style="fill: #0173b2; fill-opacity: 0.75; stroke: #ffffff; stroke-width: 0.768595; stroke-linejoin: miter"/>
   </g>
   <g id="patch_46">
    <path d="M 399.887629 284.4 
L 407.57358 284.4 
L 407.57358 238.847059 
L 399.887629 238.847059 
z
" clip-path="url(#pb971ba27fa)" style="fill: #0173b2; fill-opacity: 0.75; stroke: #ffffff; stroke-width: 0.768595; stroke-linejoin: miter"/>
   </g>
   <g id="patch_47">
    <path d="M 407.57358 284.4 
L 415.25953 284.4 
L 415.25953 247.647059 
L 407.57358 247.647059 
z
" clip-path="url(#pb971ba27fa)" style="fill: #0173b2; fill-opacity: 0.75; stroke: #ffffff; stroke-width: 0.768595; stroke-linejoin: miter"/>
   </g>
   <g id="patch_48">
    <path d="M 415.25953 284.4 
L 422.94548 284.4 
L 422.94548 261.105882 
L 415.25953 261.105882 
z
" clip-path="url(#pb971ba27fa)" style="fill: #0173b2; fill-opacity: 0.75; stroke: #ffffff; stroke-width: 0.768595; stroke-linejoin: miter"/>
   </g>
   <g id="patch_49">
    <path d="M 422.94548 284.4 
L 430.631431 284.4 
L 430.631431 270.941176 
L 422.94548 270.941176 
z
" clip-path="url(#pb971ba27fa)" style="fill: #0173b2; fill-opacity: 0.75; stroke: #ffffff; stroke-width: 0.768595; stroke-linejoin: miter"/>
   </g>
   <g id="patch_50">
    <path d="M 430.631431 284.4 
L 438.317381 284.4 
L 438.317381 269.905882 
L 430.631431 269.905882 
z
" clip-path="url(#pb971ba27fa)" style="fill: #0173b2; fill-opacity: 0.75; stroke: #ffffff; stroke-width: 0.768595; stroke-linejoin: miter"/>
   </g>
   <g id="patch_51">
    <path d="M 438.317381 284.4 
L 446.003332 284.4 
L 446.003332 267.835294 
L 438.317381 267.835294 
z
" clip-path="url(#pb971ba27fa)" style="fill: #0173b2; fill-opacity: 0.75; stroke: #ffffff; stroke-width: 0.768595; stroke-linejoin: miter"/>
   </g>
   <g id="patch_52">
    <path d="M 446.003332 284.4 
L 453.689282 284.4 
L 453.689282 275.6 
L 446.003332 275.6 
z
" clip-path="url(#pb971ba27fa)" style="fill: #0173b2; fill-opacity: 0.75; stroke: #ffffff; stroke-width: 0.768595; stroke-linejoin: miter"/>
   </g>
   <g id="patch_53">
    <path d="M 453.689282 284.4 
L 461.375232 284.4 
L 461.375232 275.6 
L 453.689282 275.6 
z
" clip-path="url(#pb971ba27fa)" style="fill: #0173b2; fill-opacity: 0.75; stroke: #ffffff; stroke-width: 0.768595; stroke-linejoin: miter"/>
   </g>
   <g id="patch_54">
    <path d="M 461.375232 284.4 
L 469.061183 284.4 
L 469.061183 279.223529 
L 461.375232 279.223529 
z
" clip-path="url(#pb971ba27fa)" style="fill: #0173b2; fill-opacity: 0.75; stroke: #ffffff; stroke-width: 0.768595; stroke-linejoin: miter"/>
   </g>
   <g id="patch_55">
    <path d="M 469.061183 284.4 
L 476.747133 284.4 
L 476.747133 280.258824 
L 469.061183 280.258824 
z
" clip-path="url(#pb971ba27fa)" style="fill: #0173b2; fill-opacity: 0.75; stroke: #ffffff; stroke-width: 0.768595; stroke-linejoin: miter"/>
   </g>
   <g id="patch_56">
    <path d="M 476.747133 284.4 
L 484.433084 284.4 
L 484.433084 281.811765 
L 476.747133 281.811765 
z
" clip-path="url(#pb971ba27fa)" style="fill: #0173b2; fill-opacity: 0.75; stroke: #ffffff; stroke-width: 0.768595; stroke-linejoin: miter"/>
   </g>
   <g id="patch_57">
    <path d="M 484.433084 284.4 
L 492.119034 284.4 
L 492.119034 281.811765 
L 484.433084 281.811765 
z
" clip-path="url(#pb971ba27fa)" style="fill: #0173b2; fill-opacity: 0.75; stroke: #ffffff; stroke-width: 0.768595; stroke-linejoin: miter"/>
   </g>
   <g id="patch_58">
    <path d="M 492.119034 284.4 
L 499.804985 284.4 
L 499.804985 283.882353 
L 492.119034 283.882353 
z
" clip-path="url(#pb971ba27fa)" style="fill: #0173b2; fill-opacity: 0.75; stroke: #ffffff; stroke-width: 0.768595; stroke-linejoin: miter"/>
   </g>
   <g id="patch_59">
    <path d="M 499.804985 284.4 
L 507.490935 284.4 
L 507.490935 282.329412 
L 499.804985 282.329412 
z
" clip-path="url(#pb971ba27fa)" style="fill: #0173b2; fill-opacity: 0.75; stroke: #ffffff; stroke-width: 0.768595; stroke-linejoin: miter"/>
   </g>
   <g id="patch_60">
    <path d="M 507.490935 284.4 
L 515.176885 284.4 
L 515.176885 283.882353 
L 507.490935 283.882353 
z
" clip-path="url(#pb971ba27fa)" style="fill: #0173b2; fill-opacity: 0.75; stroke: #ffffff; stroke-width: 0.768595; stroke-linejoin: miter"/>
   </g>
   <g id="patch_61">
    <path d="M 515.176885 284.4 
L 522.862836 284.4 
L 522.862836 284.4 
L 515.176885 284.4 
z
" clip-path="url(#pb971ba27fa)" style="fill: #0173b2; fill-opacity: 0.75; stroke: #ffffff; stroke-width: 0.768595; stroke-linejoin: miter"/>
   </g>
   <g id="patch_62">
    <path d="M 522.862836 284.4 
L 530.548786 284.4 
L 530.548786 284.4 
L 522.862836 284.4 
z
" clip-path="url(#pb971ba27fa)" style="fill: #0173b2; fill-opacity: 0.75; stroke: #ffffff; stroke-width: 0.768595; stroke-linejoin: miter"/>
   </g>
   <g id="patch_63">
    <path d="M 530.548786 284.4 
L 538.234737 284.4 
L 538.234737 283.882353 
L 530.548786 283.882353 
z
" clip-path="url(#pb971ba27fa)" style="fill: #0173b2; fill-opacity: 0.75; stroke: #ffffff; stroke-width: 0.768595; stroke-linejoin: miter"/>
   </g>
   <g id="patch_64">
    <path d="M 538.234737 284.4 
L 545.920687 284.4 
L 545.920687 284.4 
L 538.234737 284.4 
z
" clip-path="url(#pb971ba27fa)" style="fill: #0173b2; fill-opacity: 0.75; stroke: #ffffff; stroke-width: 0.768595; stroke-linejoin: miter"/>
   </g>
   <g id="patch_65">
    <path d="M 545.920687 284.4 
L 553.606637 284.4 
L 553.606637 283.882353 
L 545.920687 283.882353 
z
" clip-path="url(#pb971ba27fa)" style="fill: #0173b2; fill-opacity: 0.75; stroke: #ffffff; stroke-width: 0.768595; stroke-linejoin: miter"/>
   </g>
   <g id="patch_66">
    <path d="M 553.606637 284.4 
L 561.292588 284.4 
L 561.292588 284.4 
L 553.606637 284.4 
z
" clip-path="url(#pb971ba27fa)" style="fill: #0173b2; fill-opacity: 0.75; stroke: #ffffff; stroke-width: 0.768595; stroke-linejoin: miter"/>
   </g>
   <g id="patch_67">
    <path d="M 561.292588 284.4 
L 568.978538 284.4 
L 568.978538 283.882353 
L 561.292588 283.882353 
z
" clip-path="url(#pb971ba27fa)" style="fill: #0173b2; fill-opacity: 0.75; stroke: #ffffff; stroke-width: 0.768595; stroke-linejoin: miter"/>
   </g>
   <g id="patch_68">
    <path d="M 568.978538 284.4 
L 576.664489 284.4 
L 576.664489 283.882353 
L 568.978538 283.882353 
z
" clip-path="url(#pb971ba27fa)" style="fill: #0173b2; fill-opacity: 0.75; stroke: #ffffff; stroke-width: 0.768595; stroke-linejoin: miter"/>
   </g>
   <g id="line2d_15">
    <path d="M 172.130451 284.4 
L 172.130451 7.2 
" clip-path="url(#pb971ba27fa)" style="fill: none; stroke-dasharray: 5.55,2.4; stroke-dashoffset: 0; stroke: #ff0000; stroke-width: 1.5"/>
   </g>
   <g id="line2d_16">
    <path d="M 418.710469 284.4 
L 418.710469 7.2 
" clip-path="url(#pb971ba27fa)" style="fill: none; stroke-dasharray: 5.55,2.4; stroke-dashoffset: 0; stroke: #ff0000; stroke-width: 1.5"/>
   </g>
   <g id="line2d_17">
    <path d="M 284.41226 284.4 
L 284.41226 7.2 
" clip-path="url(#pb971ba27fa)" style="fill: none; stroke-dasharray: 5.55,2.4; stroke-dashoffset: 0; stroke: #0000ff; stroke-width: 1.5"/>
   </g>
   <g id="patch_69">
    <path d="M 44.028125 284.4 
L 44.028125 7.2 
" style="fill: none; stroke: #cccccc; stroke-width: 0.8; stroke-linejoin: miter; stroke-linecap: square"/>
   </g>
   <g id="patch_70">
    <path d="M 602.028125 284.4 
L 602.028125 7.2 
" style="fill: none; stroke: #cccccc; stroke-width: 0.8; stroke-linejoin: miter; stroke-linecap: square"/>
   </g>
   <g id="patch_71">
    <path d="M 44.028125 284.4 
L 602.028125 284.4 
" style="fill: none; stroke: #cccccc; stroke-width: 0.8; stroke-linejoin: miter; stroke-linecap: square"/>
   </g>
   <g id="patch_72">
    <path d="M 44.028125 7.2 
L 602.028125 7.2 
" style="fill: none; stroke: #cccccc; stroke-width: 0.8; stroke-linejoin: miter; stroke-linecap: square"/>
   </g>
  </g>
 </g>
 <defs>
  <clipPath id="pb971ba27fa">
   <rect x="44.028125" y="7.2" width="558" height="277.2"/>
  </clipPath>
 </defs>
</svg>
