<?xml version="1.0" encoding="utf-8" standalone="no"?>
<!DOCTYPE svg PUBLIC "-//W3C//DTD SVG 1.1//EN"
  "http://www.w3.org/Graphics/SVG/1.1/DTD/svg11.dtd">
<svg xmlns:xlink="http://www.w3.org/1999/xlink" width="610.916875pt" height="348.6625pt" viewBox="0 0 610.916875 348.6625" xmlns="http://www.w3.org/2000/svg" version="1.1">
 <metadata>
  <rdf:RDF xmlns:dc="http://purl.org/dc/elements/1.1/" xmlns:cc="http://creativecommons.org/ns#" xmlns:rdf="http://www.w3.org/1999/02/22-rdf-syntax-ns#">
   <cc:Work>
    <dc:type rdf:resource="http://purl.org/dc/dcmitype/StillImage"/>
    <dc:date>2024-10-16T16:36:24.819745</dc:date>
    <dc:format>image/svg+xml</dc:format>
    <dc:creator>
     <cc:Agent>
      <dc:title>Matplotlib v3.7.2, https://matplotlib.org/</dc:title>
     </cc:Agent>
    </dc:creator>
   </cc:Work>
  </rdf:RDF>
 </metadata>
 <defs>
  <style type="text/css">*{stroke-linejoin: round; stroke-linecap: butt}</style>
 </defs>
 <g id="figure_1">
  <g id="patch_1">
   <path d="M 0 348.6625 
L 610.916875 348.6625 
L 610.916875 0 
L 0 0 
z
" style="fill: #ffffff"/>
  </g>
  <g id="axes_1">
   <g id="patch_2">
    <path d="M 45.716875 305.064375 
L 603.716875 305.064375 
L 603.716875 27.864375 
L 45.716875 27.864375 
z
" style="fill: #ffffff"/>
   </g>
   <g id="patch_3">
    <path d="M 87.906875 305.064375 
L 97.379275 305.064375 
L 97.379275 304.789947 
L 87.906875 304.789947 
z
" clip-path="url(#p1db6a29888)" style="fill: #1f77b4; opacity: 0.4"/>
   </g>
   <g id="patch_4">
    <path d="M 97.379275 305.064375 
L 106.851675 305.064375 
L 106.851675 304.397906 
L 97.379275 304.397906 
z
" clip-path="url(#p1db6a29888)" style="fill: #1f77b4; opacity: 0.4"/>
   </g>
   <g id="patch_5">
    <path d="M 106.851675 305.064375 
L 116.324075 305.064375 
L 116.324075 303.221785 
L 106.851675 303.221785 
z
" clip-path="url(#p1db6a29888)" style="fill: #1f77b4; opacity: 0.4"/>
   </g>
   <g id="patch_6">
    <path d="M 116.324075 305.064375 
L 125.796475 305.064375 
L 125.796475 300.124666 
L 116.324075 300.124666 
z
" clip-path="url(#p1db6a29888)" style="fill: #1f77b4; opacity: 0.4"/>
   </g>
   <g id="patch_7">
    <path d="M 125.796475 305.064375 
L 135.268875 305.064375 
L 135.268875 292.793511 
L 125.796475 292.793511 
z
" clip-path="url(#p1db6a29888)" style="fill: #1f77b4; opacity: 0.4"/>
   </g>
   <g id="patch_8">
    <path d="M 135.268875 305.064375 
L 144.741275 305.064375 
L 144.741275 281.81638 
L 135.268875 281.81638 
z
" clip-path="url(#p1db6a29888)" style="fill: #1f77b4; opacity: 0.4"/>
   </g>
   <g id="patch_9">
    <path d="M 144.741275 305.064375 
L 154.213675 305.064375 
L 154.213675 271.740942 
L 144.741275 271.740942 
z
" clip-path="url(#p1db6a29888)" style="fill: #1f77b4; opacity: 0.4"/>
   </g>
   <g id="patch_10">
    <path d="M 154.213675 305.064375 
L 163.686075 305.064375 
L 163.686075 250.296332 
L 154.213675 250.296332 
z
" clip-path="url(#p1db6a29888)" style="fill: #1f77b4; opacity: 0.4"/>
   </g>
   <g id="patch_11">
    <path d="M 163.686075 305.064375 
L 173.158475 305.064375 
L 173.158475 225.480175 
L 163.686075 225.480175 
z
" clip-path="url(#p1db6a29888)" style="fill: #1f77b4; opacity: 0.4"/>
   </g>
   <g id="patch_12">
    <path d="M 173.158475 305.064375 
L 182.630875 305.064375 
L 182.630875 199.919142 
L 173.158475 199.919142 
z
" clip-path="url(#p1db6a29888)" style="fill: #1f77b4; opacity: 0.4"/>
   </g>
   <g id="patch_13">
    <path d="M 182.630875 305.064375 
L 192.103275 305.064375 
L 192.103275 173.417211 
L 182.630875 173.417211 
z
" clip-path="url(#p1db6a29888)" style="fill: #1f77b4; opacity: 0.4"/>
   </g>
   <g id="patch_14">
    <path d="M 192.103275 305.064375 
L 201.575675 305.064375 
L 201.575675 144.602243 
L 192.103275 144.602243 
z
" clip-path="url(#p1db6a29888)" style="fill: #1f77b4; opacity: 0.4"/>
   </g>
   <g id="patch_15">
    <path d="M 201.575675 305.064375 
L 211.048075 305.064375 
L 211.048075 116.022498 
L 201.575675 116.022498 
z
" clip-path="url(#p1db6a29888)" style="fill: #1f77b4; opacity: 0.4"/>
   </g>
   <g id="patch_16">
    <path d="M 211.048075 305.064375 
L 220.520475 305.064375 
L 220.520475 87.99161 
L 211.048075 87.99161 
z
" clip-path="url(#p1db6a29888)" style="fill: #1f77b4; opacity: 0.4"/>
   </g>
   <g id="patch_17">
    <path d="M 220.520475 305.064375 
L 229.992875 305.064375 
L 229.992875 66.978245 
L 220.520475 66.978245 
z
" clip-path="url(#p1db6a29888)" style="fill: #1f77b4; opacity: 0.4"/>
   </g>
   <g id="patch_18">
    <path d="M 229.992875 305.064375 
L 239.465275 305.064375 
L 239.465275 53.021607 
L 229.992875 53.021607 
z
" clip-path="url(#p1db6a29888)" style="fill: #1f77b4; opacity: 0.4"/>
   </g>
   <g id="patch_19">
    <path d="M 239.465275 305.064375 
L 248.937675 305.064375 
L 248.937675 42.554128 
L 239.465275 42.554128 
z
" clip-path="url(#p1db6a29888)" style="fill: #1f77b4; opacity: 0.4"/>
   </g>
   <g id="patch_20">
    <path d="M 248.937675 305.064375 
L 258.410075 305.064375 
L 258.410075 41.064375 
L 248.937675 41.064375 
z
" clip-path="url(#p1db6a29888)" style="fill: #1f77b4; opacity: 0.4"/>
   </g>
   <g id="patch_21">
    <path d="M 258.410075 305.064375 
L 267.882475 305.064375 
L 267.882475 50.747773 
L 258.410075 50.747773 
z
" clip-path="url(#p1db6a29888)" style="fill: #1f77b4; opacity: 0.4"/>
   </g>
   <g id="patch_22">
    <path d="M 267.882475 305.064375 
L 277.354875 305.064375 
L 277.354875 61.332863 
L 267.882475 61.332863 
z
" clip-path="url(#p1db6a29888)" style="fill: #1f77b4; opacity: 0.4"/>
   </g>
   <g id="patch_23">
    <path d="M 277.354875 305.064375 
L 286.827275 305.064375 
L 286.827275 78.504232 
L 277.354875 78.504232 
z
" clip-path="url(#p1db6a29888)" style="fill: #1f77b4; opacity: 0.4"/>
   </g>
   <g id="patch_24">
    <path d="M 286.827275 305.064375 
L 296.299675 305.064375 
L 296.299675 98.223864 
L 286.827275 98.223864 
z
" clip-path="url(#p1db6a29888)" style="fill: #1f77b4; opacity: 0.4"/>
   </g>
   <g id="patch_25">
    <path d="M 296.299675 305.064375 
L 305.772075 305.064375 
L 305.772075 125.862712 
L 296.299675 125.862712 
z
" clip-path="url(#p1db6a29888)" style="fill: #1f77b4; opacity: 0.4"/>
   </g>
   <g id="patch_26">
    <path d="M 305.772075 305.064375 
L 315.244475 305.064375 
L 315.244475 149.659564 
L 305.772075 149.659564 
z
" clip-path="url(#p1db6a29888)" style="fill: #1f77b4; opacity: 0.4"/>
   </g>
   <g id="patch_27">
    <path d="M 315.244475 305.064375 
L 324.716875 305.064375 
L 324.716875 173.809252 
L 315.244475 173.809252 
z
" clip-path="url(#p1db6a29888)" style="fill: #1f77b4; opacity: 0.4"/>
   </g>
   <g id="patch_28">
    <path d="M 324.716875 305.064375 
L 334.189275 305.064375 
L 334.189275 193.803312 
L 324.716875 193.803312 
z
" clip-path="url(#p1db6a29888)" style="fill: #1f77b4; opacity: 0.4"/>
   </g>
   <g id="patch_29">
    <path d="M 334.189275 305.064375 
L 343.661675 305.064375 
L 343.661675 214.111004 
L 334.189275 214.111004 
z
" clip-path="url(#p1db6a29888)" style="fill: #1f77b4; opacity: 0.4"/>
   </g>
   <g id="patch_30">
    <path d="M 343.661675 305.064375 
L 353.134075 305.064375 
L 353.134075 233.360187 
L 343.661675 233.360187 
z
" clip-path="url(#p1db6a29888)" style="fill: #1f77b4; opacity: 0.4"/>
   </g>
   <g id="patch_31">
    <path d="M 353.134075 305.064375 
L 362.606475 305.064375 
L 362.606475 247.552049 
L 353.134075 247.552049 
z
" clip-path="url(#p1db6a29888)" style="fill: #1f77b4; opacity: 0.4"/>
   </g>
   <g id="patch_32">
    <path d="M 362.606475 305.064375 
L 372.078875 305.064375 
L 372.078875 260.37177 
L 362.606475 260.37177 
z
" clip-path="url(#p1db6a29888)" style="fill: #1f77b4; opacity: 0.4"/>
   </g>
   <g id="patch_33">
    <path d="M 372.078875 305.064375 
L 381.551275 305.064375 
L 381.551275 270.643229 
L 372.078875 270.643229 
z
" clip-path="url(#p1db6a29888)" style="fill: #1f77b4; opacity: 0.4"/>
   </g>
   <g id="patch_34">
    <path d="M 381.551275 305.064375 
L 391.023675 305.064375 
L 391.023675 280.444238 
L 381.551275 280.444238 
z
" clip-path="url(#p1db6a29888)" style="fill: #1f77b4; opacity: 0.4"/>
   </g>
   <g id="patch_35">
    <path d="M 391.023675 305.064375 
L 400.496075 305.064375 
L 400.496075 286.677681 
L 391.023675 286.677681 
z
" clip-path="url(#p1db6a29888)" style="fill: #1f77b4; opacity: 0.4"/>
   </g>
   <g id="patch_36">
    <path d="M 400.496075 305.064375 
L 409.968475 305.064375 
L 409.968475 292.20545 
L 400.496075 292.20545 
z
" clip-path="url(#p1db6a29888)" style="fill: #1f77b4; opacity: 0.4"/>
   </g>
   <g id="patch_37">
    <path d="M 409.968475 305.064375 
L 419.440875 305.064375 
L 419.440875 295.773018 
L 409.968475 295.773018 
z
" clip-path="url(#p1db6a29888)" style="fill: #1f77b4; opacity: 0.4"/>
   </g>
   <g id="patch_38">
    <path d="M 419.440875 305.064375 
L 428.913275 305.064375 
L 428.913275 298.791729 
L 419.440875 298.791729 
z
" clip-path="url(#p1db6a29888)" style="fill: #1f77b4; opacity: 0.4"/>
   </g>
   <g id="patch_39">
    <path d="M 428.913275 305.064375 
L 438.385675 305.064375 
L 438.385675 301.653624 
L 428.913275 301.653624 
z
" clip-path="url(#p1db6a29888)" style="fill: #1f77b4; opacity: 0.4"/>
   </g>
   <g id="patch_40">
    <path d="M 438.385675 305.064375 
L 447.858075 305.064375 
L 447.858075 302.476908 
L 438.385675 302.476908 
z
" clip-path="url(#p1db6a29888)" style="fill: #1f77b4; opacity: 0.4"/>
   </g>
   <g id="patch_41">
    <path d="M 447.858075 305.064375 
L 457.330475 305.064375 
L 457.330475 303.457009 
L 447.858075 303.457009 
z
" clip-path="url(#p1db6a29888)" style="fill: #1f77b4; opacity: 0.4"/>
   </g>
   <g id="patch_42">
    <path d="M 457.330475 305.064375 
L 466.802875 305.064375 
L 466.802875 304.04507 
L 457.330475 304.04507 
z
" clip-path="url(#p1db6a29888)" style="fill: #1f77b4; opacity: 0.4"/>
   </g>
   <g id="patch_43">
    <path d="M 466.802875 305.064375 
L 476.275275 305.064375 
L 476.275275 304.397906 
L 466.802875 304.397906 
z
" clip-path="url(#p1db6a29888)" style="fill: #1f77b4; opacity: 0.4"/>
   </g>
   <g id="patch_44">
    <path d="M 476.275275 305.064375 
L 485.747675 305.064375 
L 485.747675 304.672335 
L 476.275275 304.672335 
z
" clip-path="url(#p1db6a29888)" style="fill: #1f77b4; opacity: 0.4"/>
   </g>
   <g id="patch_45">
    <path d="M 485.747675 305.064375 
L 495.220075 305.064375 
L 495.220075 304.750743 
L 485.747675 304.750743 
z
" clip-path="url(#p1db6a29888)" style="fill: #1f77b4; opacity: 0.4"/>
   </g>
   <g id="patch_46">
    <path d="M 495.220075 305.064375 
L 504.692475 305.064375 
L 504.692475 305.025171 
L 495.220075 305.025171 
z
" clip-path="url(#p1db6a29888)" style="fill: #1f77b4; opacity: 0.4"/>
   </g>
   <g id="patch_47">
    <path d="M 504.692475 305.064375 
L 514.164875 305.064375 
L 514.164875 304.985967 
L 504.692475 304.985967 
z
" clip-path="url(#p1db6a29888)" style="fill: #1f77b4; opacity: 0.4"/>
   </g>
   <g id="patch_48">
    <path d="M 514.164875 305.064375 
L 523.637275 305.064375 
L 523.637275 305.064375 
L 514.164875 305.064375 
z
" clip-path="url(#p1db6a29888)" style="fill: #1f77b4; opacity: 0.4"/>
   </g>
   <g id="patch_49">
    <path d="M 523.637275 305.064375 
L 533.109675 305.064375 
L 533.109675 305.025171 
L 523.637275 305.025171 
z
" clip-path="url(#p1db6a29888)" style="fill: #1f77b4; opacity: 0.4"/>
   </g>
   <g id="patch_50">
    <path d="M 533.109675 305.064375 
L 542.582075 305.064375 
L 542.582075 305.064375 
L 533.109675 305.064375 
z
" clip-path="url(#p1db6a29888)" style="fill: #1f77b4; opacity: 0.4"/>
   </g>
   <g id="patch_51">
    <path d="M 542.582075 305.064375 
L 552.054475 305.064375 
L 552.054475 305.064375 
L 542.582075 305.064375 
z
" clip-path="url(#p1db6a29888)" style="fill: #1f77b4; opacity: 0.4"/>
   </g>
   <g id="patch_52">
    <path d="M 552.054475 305.064375 
L 561.526875 305.064375 
L 561.526875 305.025171 
L 552.054475 305.025171 
z
" clip-path="url(#p1db6a29888)" style="fill: #1f77b4; opacity: 0.4"/>
   </g>
   <g id="matplotlib.axis_1">
    <g id="xtick_1">
     <g id="line2d_1">
      <path d="M 68.154189 305.064375 
L 68.154189 27.864375 
" clip-path="url(#p1db6a29888)" style="fill: none; stroke: #b0b0b0; stroke-width: 0.2; stroke-linecap: square"/>
     </g>
     <g id="line2d_2">
      <defs>
       <path id="m92f74289d6" d="M 0 0 
L 0 3.5 
" style="stroke: #000000; stroke-width: 0.8"/>
      </defs>
      <g>
       <use xlink:href="#m92f74289d6" x="68.154189" y="305.064375" style="stroke: #000000; stroke-width: 0.8"/>
      </g>
     </g>
     <g id="text_1">
      <!-- 0 -->
      <g transform="translate(64.972939 319.662813) scale(0.1 -0.1)">
       <defs>
        <path id="DejaVuSans-30" d="M 2034 4250 
Q 1547 4250 1301 3770 
Q 1056 3291 1056 2328 
Q 1056 1369 1301 889 
Q 1547 409 2034 409 
Q 2525 409 2770 889 
Q 3016 1369 3016 2328 
Q 3016 3291 2770 3770 
Q 2525 4250 2034 4250 
z
M 2034 4750 
Q 2819 4750 3233 4129 
Q 3647 3509 3647 2328 
Q 3647 1150 3233 529 
Q 2819 -91 2034 -91 
Q 1250 -91 836 529 
Q 422 1150 422 2328 
Q 422 3509 836 4129 
Q 1250 4750 2034 4750 
z
" transform="scale(0.015625)"/>
       </defs>
       <use xlink:href="#DejaVuSans-30"/>
      </g>
     </g>
    </g>
    <g id="xtick_2">
     <g id="line2d_3">
      <path d="M 134.369521 305.064375 
L 134.369521 27.864375 
" clip-path="url(#p1db6a29888)" style="fill: none; stroke: #b0b0b0; stroke-width: 0.2; stroke-linecap: square"/>
     </g>
     <g id="line2d_4">
      <g>
       <use xlink:href="#m92f74289d6" x="134.369521" y="305.064375" style="stroke: #000000; stroke-width: 0.8"/>
      </g>
     </g>
     <g id="text_2">
      <!-- 1 -->
      <g transform="translate(131.188271 319.662813) scale(0.1 -0.1)">
       <defs>
        <path id="DejaVuSans-31" d="M 794 531 
L 1825 531 
L 1825 4091 
L 703 3866 
L 703 4441 
L 1819 4666 
L 2450 4666 
L 2450 531 
L 3481 531 
L 3481 0 
L 794 0 
L 794 531 
z
" transform="scale(0.015625)"/>
       </defs>
       <use xlink:href="#DejaVuSans-31"/>
      </g>
     </g>
    </g>
    <g id="xtick_3">
     <g id="line2d_5">
      <path d="M 200.584854 305.064375 
L 200.584854 27.864375 
" clip-path="url(#p1db6a29888)" style="fill: none; stroke: #b0b0b0; stroke-width: 0.2; stroke-linecap: square"/>
     </g>
     <g id="line2d_6">
      <g>
       <use xlink:href="#m92f74289d6" x="200.584854" y="305.064375" style="stroke: #000000; stroke-width: 0.8"/>
      </g>
     </g>
     <g id="text_3">
      <!-- 2 -->
      <g transform="translate(197.403604 319.662813) scale(0.1 -0.1)">
       <defs>
        <path id="DejaVuSans-32" d="M 1228 531 
L 3431 531 
L 3431 0 
L 469 0 
L 469 531 
Q 828 903 1448 1529 
Q 2069 2156 2228 2338 
Q 2531 2678 2651 2914 
Q 2772 3150 2772 3378 
Q 2772 3750 2511 3984 
Q 2250 4219 1831 4219 
Q 1534 4219 1204 4116 
Q 875 4013 500 3803 
L 500 4441 
Q 881 4594 1212 4672 
Q 1544 4750 1819 4750 
Q 2544 4750 2975 4387 
Q 3406 4025 3406 3419 
Q 3406 3131 3298 2873 
Q 3191 2616 2906 2266 
Q 2828 2175 2409 1742 
Q 1991 1309 1228 531 
z
" transform="scale(0.015625)"/>
       </defs>
       <use xlink:href="#DejaVuSans-32"/>
      </g>
     </g>
    </g>
    <g id="xtick_4">
     <g id="line2d_7">
      <path d="M 266.800186 305.064375 
L 266.800186 27.864375 
" clip-path="url(#p1db6a29888)" style="fill: none; stroke: #b0b0b0; stroke-width: 0.2; stroke-linecap: square"/>
     </g>
     <g id="line2d_8">
      <g>
       <use xlink:href="#m92f74289d6" x="266.800186" y="305.064375" style="stroke: #000000; stroke-width: 0.8"/>
      </g>
     </g>
     <g id="text_4">
      <!-- 3 -->
      <g transform="translate(263.618936 319.662813) scale(0.1 -0.1)">
       <defs>
        <path id="DejaVuSans-33" d="M 2597 2516 
Q 3050 2419 3304 2112 
Q 3559 1806 3559 1356 
Q 3559 666 3084 287 
Q 2609 -91 1734 -91 
Q 1441 -91 1130 -33 
Q 819 25 488 141 
L 488 750 
Q 750 597 1062 519 
Q 1375 441 1716 441 
Q 2309 441 2620 675 
Q 2931 909 2931 1356 
Q 2931 1769 2642 2001 
Q 2353 2234 1838 2234 
L 1294 2234 
L 1294 2753 
L 1863 2753 
Q 2328 2753 2575 2939 
Q 2822 3125 2822 3475 
Q 2822 3834 2567 4026 
Q 2313 4219 1838 4219 
Q 1578 4219 1281 4162 
Q 984 4106 628 3988 
L 628 4550 
Q 988 4650 1302 4700 
Q 1616 4750 1894 4750 
Q 2613 4750 3031 4423 
Q 3450 4097 3450 3541 
Q 3450 3153 3228 2886 
Q 3006 2619 2597 2516 
z
" transform="scale(0.015625)"/>
       </defs>
       <use xlink:href="#DejaVuSans-33"/>
      </g>
     </g>
    </g>
    <g id="xtick_5">
     <g id="line2d_9">
      <path d="M 333.015518 305.064375 
L 333.015518 27.864375 
" clip-path="url(#p1db6a29888)" style="fill: none; stroke: #b0b0b0; stroke-width: 0.2; stroke-linecap: square"/>
     </g>
     <g id="line2d_10">
      <g>
       <use xlink:href="#m92f74289d6" x="333.015518" y="305.064375" style="stroke: #000000; stroke-width: 0.8"/>
      </g>
     </g>
     <g id="text_5">
      <!-- 4 -->
      <g transform="translate(329.834268 319.662813) scale(0.1 -0.1)">
       <defs>
        <path id="DejaVuSans-34" d="M 2419 4116 
L 825 1625 
L 2419 1625 
L 2419 4116 
z
M 2253 4666 
L 3047 4666 
L 3047 1625 
L 3713 1625 
L 3713 1100 
L 3047 1100 
L 3047 0 
L 2419 0 
L 2419 1100 
L 313 1100 
L 313 1709 
L 2253 4666 
z
" transform="scale(0.015625)"/>
       </defs>
       <use xlink:href="#DejaVuSans-34"/>
      </g>
     </g>
    </g>
    <g id="xtick_6">
     <g id="line2d_11">
      <path d="M 399.230851 305.064375 
L 399.230851 27.864375 
" clip-path="url(#p1db6a29888)" style="fill: none; stroke: #b0b0b0; stroke-width: 0.2; stroke-linecap: square"/>
     </g>
     <g id="line2d_12">
      <g>
       <use xlink:href="#m92f74289d6" x="399.230851" y="305.064375" style="stroke: #000000; stroke-width: 0.8"/>
      </g>
     </g>
     <g id="text_6">
      <!-- 5 -->
      <g transform="translate(396.049601 319.662813) scale(0.1 -0.1)">
       <defs>
        <path id="DejaVuSans-35" d="M 691 4666 
L 3169 4666 
L 3169 4134 
L 1269 4134 
L 1269 2991 
Q 1406 3038 1543 3061 
Q 1681 3084 1819 3084 
Q 2600 3084 3056 2656 
Q 3513 2228 3513 1497 
Q 3513 744 3044 326 
Q 2575 -91 1722 -91 
Q 1428 -91 1123 -41 
Q 819 9 494 109 
L 494 744 
Q 775 591 1075 516 
Q 1375 441 1709 441 
Q 2250 441 2565 725 
Q 2881 1009 2881 1497 
Q 2881 1984 2565 2268 
Q 2250 2553 1709 2553 
Q 1456 2553 1204 2497 
Q 953 2441 691 2322 
L 691 4666 
z
" transform="scale(0.015625)"/>
       </defs>
       <use xlink:href="#DejaVuSans-35"/>
      </g>
     </g>
    </g>
    <g id="xtick_7">
     <g id="line2d_13">
      <path d="M 465.446183 305.064375 
L 465.446183 27.864375 
" clip-path="url(#p1db6a29888)" style="fill: none; stroke: #b0b0b0; stroke-width: 0.2; stroke-linecap: square"/>
     </g>
     <g id="line2d_14">
      <g>
       <use xlink:href="#m92f74289d6" x="465.446183" y="305.064375" style="stroke: #000000; stroke-width: 0.8"/>
      </g>
     </g>
     <g id="text_7">
      <!-- 6 -->
      <g transform="translate(462.264933 319.662813) scale(0.1 -0.1)">
       <defs>
        <path id="DejaVuSans-36" d="M 2113 2584 
Q 1688 2584 1439 2293 
Q 1191 2003 1191 1497 
Q 1191 994 1439 701 
Q 1688 409 2113 409 
Q 2538 409 2786 701 
Q 3034 994 3034 1497 
Q 3034 2003 2786 2293 
Q 2538 2584 2113 2584 
z
M 3366 4563 
L 3366 3988 
Q 3128 4100 2886 4159 
Q 2644 4219 2406 4219 
Q 1781 4219 1451 3797 
Q 1122 3375 1075 2522 
Q 1259 2794 1537 2939 
Q 1816 3084 2150 3084 
Q 2853 3084 3261 2657 
Q 3669 2231 3669 1497 
Q 3669 778 3244 343 
Q 2819 -91 2113 -91 
Q 1303 -91 875 529 
Q 447 1150 447 2328 
Q 447 3434 972 4092 
Q 1497 4750 2381 4750 
Q 2619 4750 2861 4703 
Q 3103 4656 3366 4563 
z
" transform="scale(0.015625)"/>
       </defs>
       <use xlink:href="#DejaVuSans-36"/>
      </g>
     </g>
    </g>
    <g id="xtick_8">
     <g id="line2d_15">
      <path d="M 531.661515 305.064375 
L 531.661515 27.864375 
" clip-path="url(#p1db6a29888)" style="fill: none; stroke: #b0b0b0; stroke-width: 0.2; stroke-linecap: square"/>
     </g>
     <g id="line2d_16">
      <g>
       <use xlink:href="#m92f74289d6" x="531.661515" y="305.064375" style="stroke: #000000; stroke-width: 0.8"/>
      </g>
     </g>
     <g id="text_8">
      <!-- 7 -->
      <g transform="translate(528.480265 319.662813) scale(0.1 -0.1)">
       <defs>
        <path id="DejaVuSans-37" d="M 525 4666 
L 3525 4666 
L 3525 4397 
L 1831 0 
L 1172 0 
L 2766 4134 
L 525 4134 
L 525 4666 
z
" transform="scale(0.015625)"/>
       </defs>
       <use xlink:href="#DejaVuSans-37"/>
      </g>
     </g>
    </g>
    <g id="xtick_9">
     <g id="line2d_17">
      <path d="M 597.876848 305.064375 
L 597.876848 27.864375 
" clip-path="url(#p1db6a29888)" style="fill: none; stroke: #b0b0b0; stroke-width: 0.2; stroke-linecap: square"/>
     </g>
     <g id="line2d_18">
      <g>
       <use xlink:href="#m92f74289d6" x="597.876848" y="305.064375" style="stroke: #000000; stroke-width: 0.8"/>
      </g>
     </g>
     <g id="text_9">
      <!-- 8 -->
      <g transform="translate(594.695598 319.662813) scale(0.1 -0.1)">
       <defs>
        <path id="DejaVuSans-38" d="M 2034 2216 
Q 1584 2216 1326 1975 
Q 1069 1734 1069 1313 
Q 1069 891 1326 650 
Q 1584 409 2034 409 
Q 2484 409 2743 651 
Q 3003 894 3003 1313 
Q 3003 1734 2745 1975 
Q 2488 2216 2034 2216 
z
M 1403 2484 
Q 997 2584 770 2862 
Q 544 3141 544 3541 
Q 544 4100 942 4425 
Q 1341 4750 2034 4750 
Q 2731 4750 3128 4425 
Q 3525 4100 3525 3541 
Q 3525 3141 3298 2862 
Q 3072 2584 2669 2484 
Q 3125 2378 3379 2068 
Q 3634 1759 3634 1313 
Q 3634 634 3220 271 
Q 2806 -91 2034 -91 
Q 1263 -91 848 271 
Q 434 634 434 1313 
Q 434 1759 690 2068 
Q 947 2378 1403 2484 
z
M 1172 3481 
Q 1172 3119 1398 2916 
Q 1625 2713 2034 2713 
Q 2441 2713 2670 2916 
Q 2900 3119 2900 3481 
Q 2900 3844 2670 4047 
Q 2441 4250 2034 4250 
Q 1625 4250 1398 4047 
Q 1172 3844 1172 3481 
z
" transform="scale(0.015625)"/>
       </defs>
       <use xlink:href="#DejaVuSans-38"/>
      </g>
     </g>
    </g>
    <g id="text_10">
     <!-- $\sqrt{S^2}$ -->
     <g transform="translate(311.876875 338.966875) scale(0.12 -0.12)">
      <defs>
       <path id="STIXSizeOneSym-Regular-221a" d="M 6970 9933 
L 3373 -1888 
L 3104 -1888 
L 1626 2918 
Q 1555 3149 1465 3251 
Q 1376 3354 1229 3354 
Q 1011 3354 794 3181 
L 717 3309 
L 1766 4115 
L 1926 4115 
L 3379 -602 
L 3405 -602 
L 6605 9933 
L 6970 9933 
z
" transform="scale(0.015625)"/>
       <path id="DejaVuSans-Oblique-53" d="M 3859 4513 
L 3738 3897 
Q 3422 4066 3111 4152 
Q 2800 4238 2509 4238 
Q 1944 4238 1609 3991 
Q 1275 3744 1275 3334 
Q 1275 3109 1398 2989 
Q 1522 2869 2034 2731 
L 2413 2638 
Q 3053 2472 3303 2217 
Q 3553 1963 3553 1503 
Q 3553 797 2998 353 
Q 2444 -91 1538 -91 
Q 1166 -91 791 -17 
Q 416 56 38 206 
L 166 856 
Q 513 641 861 531 
Q 1209 422 1556 422 
Q 2147 422 2503 684 
Q 2859 947 2859 1369 
Q 2859 1650 2717 1795 
Q 2575 1941 2106 2059 
L 1728 2156 
Q 1081 2325 845 2545 
Q 609 2766 609 3163 
Q 609 3859 1145 4304 
Q 1681 4750 2541 4750 
Q 2875 4750 3203 4690 
Q 3531 4631 3859 4513 
z
" transform="scale(0.015625)"/>
      </defs>
      <use xlink:href="#STIXSizeOneSym-Regular-221a" transform="translate(0 19.015625) scale(0.665426)"/>
      <use xlink:href="#DejaVuSans-Oblique-53" transform="translate(82.790497 0.515625)"/>
      <use xlink:href="#DejaVuSans-32" transform="translate(153.46758 38.796875) scale(0.7)"/>
      <path d="M 70.290497 116.5 
L 70.290497 122.75 
L 213.238088 122.75 
L 213.238088 116.5 
L 70.290497 116.5 
z
"/>
     </g>
    </g>
   </g>
   <g id="matplotlib.axis_2">
    <g id="ytick_1">
     <g id="line2d_19">
      <path d="M 45.716875 305.064375 
L 603.716875 305.064375 
" clip-path="url(#p1db6a29888)" style="fill: none; stroke: #b0b0b0; stroke-width: 0.2; stroke-linecap: square"/>
     </g>
     <g id="line2d_20">
      <defs>
       <path id="md428171d21" d="M 0 0 
L -3.5 0 
" style="stroke: #000000; stroke-width: 0.8"/>
      </defs>
      <g>
       <use xlink:href="#md428171d21" x="45.716875" y="305.064375" style="stroke: #000000; stroke-width: 0.8"/>
      </g>
     </g>
     <g id="text_11">
      <!-- 0.0 -->
      <g transform="translate(22.81375 308.863594) scale(0.1 -0.1)">
       <defs>
        <path id="DejaVuSans-2e" d="M 684 794 
L 1344 794 
L 1344 0 
L 684 0 
L 684 794 
z
" transform="scale(0.015625)"/>
       </defs>
       <use xlink:href="#DejaVuSans-30"/>
       <use xlink:href="#DejaVuSans-2e" x="63.623047"/>
       <use xlink:href="#DejaVuSans-30" x="95.410156"/>
      </g>
     </g>
    </g>
    <g id="ytick_2">
     <g id="line2d_21">
      <path d="M 45.716875 248.98124 
L 603.716875 248.98124 
" clip-path="url(#p1db6a29888)" style="fill: none; stroke: #b0b0b0; stroke-width: 0.2; stroke-linecap: square"/>
     </g>
     <g id="line2d_22">
      <g>
       <use xlink:href="#md428171d21" x="45.716875" y="248.98124" style="stroke: #000000; stroke-width: 0.8"/>
      </g>
     </g>
     <g id="text_12">
      <!-- 0.1 -->
      <g transform="translate(22.81375 252.780459) scale(0.1 -0.1)">
       <use xlink:href="#DejaVuSans-30"/>
       <use xlink:href="#DejaVuSans-2e" x="63.623047"/>
       <use xlink:href="#DejaVuSans-31" x="95.410156"/>
      </g>
     </g>
    </g>
    <g id="ytick_3">
     <g id="line2d_23">
      <path d="M 45.716875 192.898106 
L 603.716875 192.898106 
" clip-path="url(#p1db6a29888)" style="fill: none; stroke: #b0b0b0; stroke-width: 0.2; stroke-linecap: square"/>
     </g>
     <g id="line2d_24">
      <g>
       <use xlink:href="#md428171d21" x="45.716875" y="192.898106" style="stroke: #000000; stroke-width: 0.8"/>
      </g>
     </g>
     <g id="text_13">
      <!-- 0.2 -->
      <g transform="translate(22.81375 196.697324) scale(0.1 -0.1)">
       <use xlink:href="#DejaVuSans-30"/>
       <use xlink:href="#DejaVuSans-2e" x="63.623047"/>
       <use xlink:href="#DejaVuSans-32" x="95.410156"/>
      </g>
     </g>
    </g>
    <g id="ytick_4">
     <g id="line2d_25">
      <path d="M 45.716875 136.814971 
L 603.716875 136.814971 
" clip-path="url(#p1db6a29888)" style="fill: none; stroke: #b0b0b0; stroke-width: 0.2; stroke-linecap: square"/>
     </g>
     <g id="line2d_26">
      <g>
       <use xlink:href="#md428171d21" x="45.716875" y="136.814971" style="stroke: #000000; stroke-width: 0.8"/>
      </g>
     </g>
     <g id="text_14">
      <!-- 0.3 -->
      <g transform="translate(22.81375 140.61419) scale(0.1 -0.1)">
       <use xlink:href="#DejaVuSans-30"/>
       <use xlink:href="#DejaVuSans-2e" x="63.623047"/>
       <use xlink:href="#DejaVuSans-33" x="95.410156"/>
      </g>
     </g>
    </g>
    <g id="ytick_5">
     <g id="line2d_27">
      <path d="M 45.716875 80.731836 
L 603.716875 80.731836 
" clip-path="url(#p1db6a29888)" style="fill: none; stroke: #b0b0b0; stroke-width: 0.2; stroke-linecap: square"/>
     </g>
     <g id="line2d_28">
      <g>
       <use xlink:href="#md428171d21" x="45.716875" y="80.731836" style="stroke: #000000; stroke-width: 0.8"/>
      </g>
     </g>
     <g id="text_15">
      <!-- 0.4 -->
      <g transform="translate(22.81375 84.531055) scale(0.1 -0.1)">
       <use xlink:href="#DejaVuSans-30"/>
       <use xlink:href="#DejaVuSans-2e" x="63.623047"/>
       <use xlink:href="#DejaVuSans-34" x="95.410156"/>
      </g>
     </g>
    </g>
    <g id="text_16">
     <!-- Щільність розподілу -->
     <g transform="translate(16.318125 231.358125) rotate(-90) scale(0.12 -0.12)">
      <defs>
       <path id="DejaVuSans-429" d="M 6216 0 
L 628 0 
L 628 4666 
L 1259 4666 
L 1259 531 
L 3106 531 
L 3106 4666 
L 3738 4666 
L 3738 531 
L 5584 531 
L 5584 4666 
L 6216 4666 
L 6216 531 
L 6747 531 
L 6747 -1003 
L 6216 -1003 
L 6216 0 
z
" transform="scale(0.015625)"/>
       <path id="DejaVuSans-456" d="M 603 3500 
L 1178 3500 
L 1178 0 
L 603 0 
L 603 3500 
z
M 603 4863 
L 1178 4863 
L 1178 4134 
L 603 4134 
L 603 4863 
z
" transform="scale(0.015625)"/>
       <path id="DejaVuSans-43b" d="M 238 0 
L 238 478 
Q 806 566 981 959 
Q 1194 1513 1194 2928 
L 1194 3500 
L 3559 3500 
L 3559 0 
L 2984 0 
L 2984 3041 
L 1769 3041 
L 1769 2694 
Q 1769 1344 1494 738 
Q 1200 91 238 0 
z
" transform="scale(0.015625)"/>
       <path id="DejaVuSans-44c" d="M 2781 1038 
Q 2781 1319 2576 1466 
Q 2372 1613 1978 1613 
L 1159 1613 
L 1159 459 
L 1978 459 
Q 2372 459 2576 607 
Q 2781 756 2781 1038 
z
M 581 3500 
L 1159 3500 
L 1159 2072 
L 2003 2072 
Q 2672 2072 3033 1817 
Q 3394 1563 3394 1038 
Q 3394 513 3033 256 
Q 2672 0 2003 0 
L 581 0 
L 581 3500 
z
" transform="scale(0.015625)"/>
       <path id="DejaVuSans-43d" d="M 581 3500 
L 1159 3500 
L 1159 2072 
L 3025 2072 
L 3025 3500 
L 3603 3500 
L 3603 0 
L 3025 0 
L 3025 1613 
L 1159 1613 
L 1159 0 
L 581 0 
L 581 3500 
z
" transform="scale(0.015625)"/>
       <path id="DejaVuSans-441" d="M 3122 3366 
L 3122 2828 
Q 2878 2963 2633 3030 
Q 2388 3097 2138 3097 
Q 1578 3097 1268 2742 
Q 959 2388 959 1747 
Q 959 1106 1268 751 
Q 1578 397 2138 397 
Q 2388 397 2633 464 
Q 2878 531 3122 666 
L 3122 134 
Q 2881 22 2623 -34 
Q 2366 -91 2075 -91 
Q 1284 -91 818 406 
Q 353 903 353 1747 
Q 353 2603 823 3093 
Q 1294 3584 2113 3584 
Q 2378 3584 2631 3529 
Q 2884 3475 3122 3366 
z
" transform="scale(0.015625)"/>
       <path id="DejaVuSans-442" d="M 188 3500 
L 3541 3500 
L 3541 3041 
L 2147 3041 
L 2147 0 
L 1581 0 
L 1581 3041 
L 188 3041 
L 188 3500 
z
" transform="scale(0.015625)"/>
       <path id="DejaVuSans-20" transform="scale(0.015625)"/>
       <path id="DejaVuSans-440" d="M 1159 525 
L 1159 -1331 
L 581 -1331 
L 581 3500 
L 1159 3500 
L 1159 2969 
Q 1341 3281 1617 3432 
Q 1894 3584 2278 3584 
Q 2916 3584 3314 3078 
Q 3713 2572 3713 1747 
Q 3713 922 3314 415 
Q 2916 -91 2278 -91 
Q 1894 -91 1617 61 
Q 1341 213 1159 525 
z
M 3116 1747 
Q 3116 2381 2855 2742 
Q 2594 3103 2138 3103 
Q 1681 3103 1420 2742 
Q 1159 2381 1159 1747 
Q 1159 1113 1420 752 
Q 1681 391 2138 391 
Q 2594 391 2855 752 
Q 3116 1113 3116 1747 
z
" transform="scale(0.015625)"/>
       <path id="DejaVuSans-43e" d="M 1959 3097 
Q 1497 3097 1228 2736 
Q 959 2375 959 1747 
Q 959 1119 1226 758 
Q 1494 397 1959 397 
Q 2419 397 2687 759 
Q 2956 1122 2956 1747 
Q 2956 2369 2687 2733 
Q 2419 3097 1959 3097 
z
M 1959 3584 
Q 2709 3584 3137 3096 
Q 3566 2609 3566 1747 
Q 3566 888 3137 398 
Q 2709 -91 1959 -91 
Q 1206 -91 779 398 
Q 353 888 353 1747 
Q 353 2609 779 3096 
Q 1206 3584 1959 3584 
z
" transform="scale(0.015625)"/>
       <path id="DejaVuSans-437" d="M 2206 1888 
Q 2594 1813 2809 1584 
Q 3025 1356 3025 1019 
Q 3025 478 2622 193 
Q 2219 -91 1475 -91 
Q 1225 -91 961 -47 
Q 697 -3 416 84 
L 416 619 
Q 638 503 903 445 
Q 1169 388 1459 388 
Q 1931 388 2195 563 
Q 2459 738 2459 1019 
Q 2459 1294 2225 1461 
Q 1991 1628 1563 1628 
L 1100 1628 
L 1100 2103 
L 1584 2103 
Q 1947 2103 2158 2242 
Q 2369 2381 2369 2600 
Q 2369 2800 2151 2944 
Q 1934 3088 1563 3088 
Q 1341 3088 1089 3047 
Q 838 3006 534 2916 
L 534 3438 
Q 841 3513 1106 3550 
Q 1372 3588 1609 3588 
Q 2222 3588 2576 3342 
Q 2931 3097 2931 2656 
Q 2931 2366 2743 2164 
Q 2556 1963 2206 1888 
z
" transform="scale(0.015625)"/>
       <path id="DejaVuSans-43f" d="M 3603 3500 
L 3603 0 
L 3025 0 
L 3025 3041 
L 1159 3041 
L 1159 0 
L 581 0 
L 581 3500 
L 3603 3500 
z
" transform="scale(0.015625)"/>
       <path id="DejaVuSans-434" d="M 1384 459 
L 3053 459 
L 3053 3041 
L 1844 3041 
L 1844 2603 
Q 1844 1316 1475 628 
L 1384 459 
z
M 550 459 
Q 834 584 959 850 
Q 1266 1509 1266 2838 
L 1266 3500 
L 3631 3500 
L 3631 459 
L 4091 459 
L 4091 -884 
L 3631 -884 
L 3631 0 
L 794 0 
L 794 -884 
L 334 -884 
L 334 459 
L 550 459 
z
" transform="scale(0.015625)"/>
       <path id="DejaVuSans-443" d="M 2059 -325 
Q 1816 -950 1584 -1140 
Q 1353 -1331 966 -1331 
L 506 -1331 
L 506 -850 
L 844 -850 
Q 1081 -850 1212 -737 
Q 1344 -625 1503 -206 
L 1606 56 
L 191 3500 
L 800 3500 
L 1894 763 
L 2988 3500 
L 3597 3500 
L 2059 -325 
z
" transform="scale(0.015625)"/>
      </defs>
      <use xlink:href="#DejaVuSans-429"/>
      <use xlink:href="#DejaVuSans-456" x="109.375"/>
      <use xlink:href="#DejaVuSans-43b" x="137.158203"/>
      <use xlink:href="#DejaVuSans-44c" x="201.074219"/>
      <use xlink:href="#DejaVuSans-43d" x="260.009766"/>
      <use xlink:href="#DejaVuSans-456" x="325.390625"/>
      <use xlink:href="#DejaVuSans-441" x="353.173828"/>
      <use xlink:href="#DejaVuSans-442" x="408.154297"/>
      <use xlink:href="#DejaVuSans-44c" x="466.40625"/>
      <use xlink:href="#DejaVuSans-20" x="525.341797"/>
      <use xlink:href="#DejaVuSans-440" x="557.128906"/>
      <use xlink:href="#DejaVuSans-43e" x="620.605469"/>
      <use xlink:href="#DejaVuSans-437" x="681.787109"/>
      <use xlink:href="#DejaVuSans-43f" x="734.960938"/>
      <use xlink:href="#DejaVuSans-43e" x="800.341797"/>
      <use xlink:href="#DejaVuSans-434" x="861.523438"/>
      <use xlink:href="#DejaVuSans-456" x="930.664062"/>
      <use xlink:href="#DejaVuSans-43b" x="958.447266"/>
      <use xlink:href="#DejaVuSans-443" x="1022.363281"/>
     </g>
    </g>
   </g>
   <g id="line2d_29">
    <path d="M 71.080511 305.064035 
L 86.375166 304.971744 
L 96.571603 304.627061 
L 101.669822 304.329748 
L 106.76804 303.798799 
L 109.317149 303.388069 
L 111.866258 302.85305 
L 114.415367 302.168086 
L 116.964477 301.297586 
L 119.513586 300.19808 
L 122.062695 298.830409 
L 124.611804 297.176608 
L 127.160913 295.243409 
L 129.710023 293.045343 
L 132.259132 290.595041 
L 137.35735 285.121409 
L 142.455568 279.363113 
L 145.004678 276.274716 
L 147.553787 272.768847 
L 150.102896 268.646237 
L 152.652005 263.85405 
L 155.201114 258.502306 
L 160.299333 246.755329 
L 165.397551 233.9741 
L 170.495769 220.341811 
L 180.692206 192.128672 
L 185.790425 177.420066 
L 195.986861 146.494598 
L 208.732407 109.90489 
L 213.830626 94.306682 
L 216.379735 86.953563 
L 218.928844 80.33094 
L 221.477953 74.607504 
L 224.027062 69.765259 
L 226.576171 65.59442 
L 236.772608 50.10324 
L 239.321717 47.032858 
L 241.870827 45.005235 
L 244.419936 43.8925 
L 246.969045 43.255033 
L 249.518154 42.775933 
L 252.067263 42.545856 
L 254.616372 42.943268 
L 257.165482 44.269773 
L 259.714591 46.482076 
L 262.2637 49.232707 
L 267.361918 55.262307 
L 269.911028 58.741747 
L 272.460137 62.830385 
L 277.558355 71.955489 
L 280.107464 76.173765 
L 282.656573 80.174433 
L 285.205683 84.510319 
L 287.754792 89.673279 
L 290.303901 95.717484 
L 295.402119 109.296005 
L 305.598556 137.985596 
L 308.147665 144.587302 
L 320.893211 175.322657 
L 323.44232 181.191408 
L 328.540539 191.994667 
L 336.187866 207.751012 
L 343.835194 223.746416 
L 346.384303 228.787221 
L 348.933412 233.573988 
L 351.482521 238.063968 
L 354.031631 242.204839 
L 356.58074 245.954818 
L 359.129849 249.346357 
L 369.326286 262.225158 
L 371.875395 265.424073 
L 374.424504 268.418827 
L 376.973613 271.1935 
L 379.522722 273.775185 
L 382.071832 276.162532 
L 384.620941 278.324179 
L 387.17005 280.260228 
L 399.915596 289.054161 
L 402.464705 290.585184 
L 405.013814 291.936177 
L 407.562923 293.126945 
L 412.661142 295.138191 
L 420.308469 297.654715 
L 427.955797 299.951016 
L 433.054015 301.205232 
L 438.152234 302.053781 
L 443.250452 302.566018 
L 461.094216 303.978451 
L 471.290653 304.448021 
L 478.937981 304.628576 
L 491.683526 304.796618 
L 501.879963 304.985068 
L 552.862147 305.056361 
L 578.353239 305.064082 
L 578.353239 305.064082 
" clip-path="url(#p1db6a29888)" style="fill: none; stroke: #1f77b4; stroke-width: 1.5; stroke-linecap: square"/>
   </g>
   <g id="patch_53">
    <path d="M 45.716875 305.064375 
L 45.716875 27.864375 
" style="fill: none; stroke: #000000; stroke-width: 0.8; stroke-linejoin: miter; stroke-linecap: square"/>
   </g>
   <g id="patch_54">
    <path d="M 603.716875 305.064375 
L 603.716875 27.864375 
" style="fill: none; stroke: #000000; stroke-width: 0.8; stroke-linejoin: miter; stroke-linecap: square"/>
   </g>
   <g id="patch_55">
    <path d="M 45.716875 305.064375 
L 603.716875 305.064375 
" style="fill: none; stroke: #000000; stroke-width: 0.8; stroke-linejoin: miter; stroke-linecap: square"/>
   </g>
   <g id="patch_56">
    <path d="M 45.716875 27.864375 
L 603.716875 27.864375 
" style="fill: none; stroke: #000000; stroke-width: 0.8; stroke-linejoin: miter; stroke-linecap: square"/>
   </g>
   <g id="text_17">
    <!-- Розподіл $\sqrt{S^2}$ -->
    <g transform="translate(282.236875 21.864375) scale(0.12 -0.12)">
     <defs>
      <path id="DejaVuSans-420" d="M 1259 4147 
L 1259 2394 
L 2053 2394 
Q 2494 2394 2734 2622 
Q 2975 2850 2975 3272 
Q 2975 3691 2734 3919 
Q 2494 4147 2053 4147 
L 1259 4147 
z
M 628 4666 
L 2053 4666 
Q 2838 4666 3239 4311 
Q 3641 3956 3641 3272 
Q 3641 2581 3239 2228 
Q 2838 1875 2053 1875 
L 1259 1875 
L 1259 0 
L 628 0 
L 628 4666 
z
" transform="scale(0.015625)"/>
     </defs>
     <use xlink:href="#DejaVuSans-420" transform="translate(0 0.671875)"/>
     <use xlink:href="#DejaVuSans-43e" transform="translate(60.302734 0.671875)"/>
     <use xlink:href="#DejaVuSans-437" transform="translate(121.484375 0.671875)"/>
     <use xlink:href="#DejaVuSans-43f" transform="translate(174.658203 0.671875)"/>
     <use xlink:href="#DejaVuSans-43e" transform="translate(240.039062 0.671875)"/>
     <use xlink:href="#DejaVuSans-434" transform="translate(301.220703 0.671875)"/>
     <use xlink:href="#DejaVuSans-456" transform="translate(370.361328 0.671875)"/>
     <use xlink:href="#DejaVuSans-43b" transform="translate(398.144531 0.671875)"/>
     <use xlink:href="#DejaVuSans-20" transform="translate(462.060547 0.671875)"/>
     <use xlink:href="#STIXSizeOneSym-Regular-221a" transform="translate(493.847656 19.015625) scale(0.665426)"/>
     <use xlink:href="#DejaVuSans-Oblique-53" transform="translate(576.638153 0.515625)"/>
     <use xlink:href="#DejaVuSans-32" transform="translate(647.315236 38.796875) scale(0.7)"/>
     <path d="M 564.138153 116.5 
L 564.138153 122.75 
L 707.085744 122.75 
L 707.085744 116.5 
L 564.138153 116.5 
z
"/>
    </g>
   </g>
   <g id="legend_1">
    <g id="patch_57">
     <path d="M 423.5125 55.078125 
L 595.316875 55.078125 
Q 597.716875 55.078125 597.716875 52.678125 
L 597.716875 36.264375 
Q 597.716875 33.864375 595.316875 33.864375 
L 423.5125 33.864375 
Q 421.1125 33.864375 421.1125 36.264375 
L 421.1125 52.678125 
Q 421.1125 55.078125 423.5125 55.078125 
z
" style="fill: #ffffff; opacity: 0.8; stroke: #cccccc; stroke-linejoin: miter"/>
    </g>
    <g id="patch_58">
     <path d="M 425.9125 47.7825 
L 449.9125 47.7825 
L 449.9125 39.3825 
L 425.9125 39.3825 
z
" style="fill: #1f77b4; opacity: 0.4"/>
    </g>
    <g id="text_18">
     <!-- Емпіричний розподіл -->
     <g transform="translate(459.5125 47.7825) scale(0.12 -0.12)">
      <defs>
       <path id="DejaVuSans-415" d="M 628 4666 
L 3578 4666 
L 3578 4134 
L 1259 4134 
L 1259 2753 
L 3481 2753 
L 3481 2222 
L 1259 2222 
L 1259 531 
L 3634 531 
L 3634 0 
L 628 0 
L 628 4666 
z
" transform="scale(0.015625)"/>
       <path id="DejaVuSans-43c" d="M 581 3500 
L 1422 3500 
L 2416 1156 
L 3413 3500 
L 4247 3500 
L 4247 0 
L 3669 0 
L 3669 2950 
L 2703 672 
L 2128 672 
L 1159 2950 
L 1159 0 
L 581 0 
L 581 3500 
z
" transform="scale(0.015625)"/>
       <path id="DejaVuSans-438" d="M 3578 3500 
L 3578 0 
L 3006 0 
L 3006 2809 
L 1319 0 
L 581 0 
L 581 3500 
L 1153 3500 
L 1153 697 
L 2838 3500 
L 3578 3500 
z
" transform="scale(0.015625)"/>
       <path id="DejaVuSans-447" d="M 2625 0 
L 2625 1472 
L 1553 1472 
Q 1075 1472 756 1769 
Q 469 2038 469 2613 
L 469 3500 
L 1044 3500 
L 1044 2666 
Q 1044 2300 1206 2116 
Q 1372 1931 1697 1931 
L 2625 1931 
L 2625 3500 
L 3200 3500 
L 3200 0 
L 2625 0 
z
" transform="scale(0.015625)"/>
       <path id="DejaVuSans-439" d="M 3578 3500 
L 3578 0 
L 3006 0 
L 3006 2809 
L 1319 0 
L 581 0 
L 581 3500 
L 1153 3500 
L 1153 697 
L 2838 3500 
L 3578 3500 
z
M 1102 4833 
L 1471 4833 
Q 1505 4599 1656 4481 
Q 1808 4364 2080 4364 
Q 2349 4364 2499 4480 
Q 2649 4596 2689 4833 
L 3058 4833 
Q 3027 4386 2780 4161 
Q 2533 3936 2080 3936 
Q 1627 3936 1380 4161 
Q 1133 4386 1102 4833 
z
" transform="scale(0.015625)"/>
      </defs>
      <use xlink:href="#DejaVuSans-415"/>
      <use xlink:href="#DejaVuSans-43c" x="63.183594"/>
      <use xlink:href="#DejaVuSans-43f" x="138.623047"/>
      <use xlink:href="#DejaVuSans-456" x="204.003906"/>
      <use xlink:href="#DejaVuSans-440" x="231.787109"/>
      <use xlink:href="#DejaVuSans-438" x="295.263672"/>
      <use xlink:href="#DejaVuSans-447" x="360.253906"/>
      <use xlink:href="#DejaVuSans-43d" x="419.335938"/>
      <use xlink:href="#DejaVuSans-438" x="484.716797"/>
      <use xlink:href="#DejaVuSans-439" x="549.707031"/>
      <use xlink:href="#DejaVuSans-20" x="614.697266"/>
      <use xlink:href="#DejaVuSans-440" x="646.484375"/>
      <use xlink:href="#DejaVuSans-43e" x="709.960938"/>
      <use xlink:href="#DejaVuSans-437" x="771.142578"/>
      <use xlink:href="#DejaVuSans-43f" x="824.316406"/>
      <use xlink:href="#DejaVuSans-43e" x="889.697266"/>
      <use xlink:href="#DejaVuSans-434" x="950.878906"/>
      <use xlink:href="#DejaVuSans-456" x="1020.019531"/>
      <use xlink:href="#DejaVuSans-43b" x="1047.802734"/>
     </g>
    </g>
   </g>
  </g>
 </g>
 <defs>
  <clipPath id="p1db6a29888">
   <rect x="45.716875" y="27.864375" width="558" height="277.2"/>
  </clipPath>
 </defs>
</svg>
