<?xml version="1.0" encoding="utf-8" standalone="no"?>
<!DOCTYPE svg PUBLIC "-//W3C//DTD SVG 1.1//EN"
  "http://www.w3.org/Graphics/SVG/1.1/DTD/svg11.dtd">
<svg xmlns:xlink="http://www.w3.org/1999/xlink" width="943.78125pt" height="503.394375pt" viewBox="0 0 943.78125 503.394375" xmlns="http://www.w3.org/2000/svg" version="1.1">
 <metadata>
  <rdf:RDF xmlns:dc="http://purl.org/dc/elements/1.1/" xmlns:cc="http://creativecommons.org/ns#" xmlns:rdf="http://www.w3.org/1999/02/22-rdf-syntax-ns#">
   <cc:Work>
    <dc:type rdf:resource="http://purl.org/dc/dcmitype/StillImage"/>
    <dc:date>2025-01-27T16:57:32.389375</dc:date>
    <dc:format>image/svg+xml</dc:format>
    <dc:creator>
     <cc:Agent>
      <dc:title>Matplotlib v3.7.2, https://matplotlib.org/</dc:title>
     </cc:Agent>
    </dc:creator>
   </cc:Work>
  </rdf:RDF>
 </metadata>
 <defs>
  <style type="text/css">*{stroke-linejoin: round; stroke-linecap: butt}</style>
 </defs>
 <g id="figure_1">
  <g id="patch_1">
   <path d="M 0 503.394375 
L 943.78125 503.394375 
L 943.78125 0 
L 0 0 
z
" style="fill: #ffffff"/>
  </g>
  <g id="axes_1">
   <g id="patch_2">
    <path d="M 43.78125 465.838125 
L 936.58125 465.838125 
L 936.58125 22.318125 
L 43.78125 22.318125 
z
" style="fill: #ffffff"/>
   </g>
   <g id="matplotlib.axis_1">
    <g id="xtick_1">
     <g id="line2d_1">
      <defs>
       <path id="mb89e9e54dd" d="M 0 0 
L 0 3.5 
" style="stroke: #000000; stroke-width: 0.8"/>
      </defs>
      <g>
       <use xlink:href="#mb89e9e54dd" x="84.281888" y="465.838125" style="stroke: #000000; stroke-width: 0.8"/>
      </g>
     </g>
     <g id="text_1">
      <!-- 0 -->
      <g transform="translate(81.100638 480.436562) scale(0.1 -0.1)">
       <defs>
        <path id="DejaVuSans-30" d="M 2034 4250 
Q 1547 4250 1301 3770 
Q 1056 3291 1056 2328 
Q 1056 1369 1301 889 
Q 1547 409 2034 409 
Q 2525 409 2770 889 
Q 3016 1369 3016 2328 
Q 3016 3291 2770 3770 
Q 2525 4250 2034 4250 
z
M 2034 4750 
Q 2819 4750 3233 4129 
Q 3647 3509 3647 2328 
Q 3647 1150 3233 529 
Q 2819 -91 2034 -91 
Q 1250 -91 836 529 
Q 422 1150 422 2328 
Q 422 3509 836 4129 
Q 1250 4750 2034 4750 
z
" transform="scale(0.015625)"/>
       </defs>
       <use xlink:href="#DejaVuSans-30"/>
      </g>
     </g>
    </g>
    <g id="xtick_2">
     <g id="line2d_2">
      <g>
       <use xlink:href="#mb89e9e54dd" x="246.641633" y="465.838125" style="stroke: #000000; stroke-width: 0.8"/>
      </g>
     </g>
     <g id="text_2">
      <!-- 2 -->
      <g transform="translate(243.460383 480.436562) scale(0.1 -0.1)">
       <defs>
        <path id="DejaVuSans-32" d="M 1228 531 
L 3431 531 
L 3431 0 
L 469 0 
L 469 531 
Q 828 903 1448 1529 
Q 2069 2156 2228 2338 
Q 2531 2678 2651 2914 
Q 2772 3150 2772 3378 
Q 2772 3750 2511 3984 
Q 2250 4219 1831 4219 
Q 1534 4219 1204 4116 
Q 875 4013 500 3803 
L 500 4441 
Q 881 4594 1212 4672 
Q 1544 4750 1819 4750 
Q 2544 4750 2975 4387 
Q 3406 4025 3406 3419 
Q 3406 3131 3298 2873 
Q 3191 2616 2906 2266 
Q 2828 2175 2409 1742 
Q 1991 1309 1228 531 
z
" transform="scale(0.015625)"/>
       </defs>
       <use xlink:href="#DejaVuSans-32"/>
      </g>
     </g>
    </g>
    <g id="xtick_3">
     <g id="line2d_3">
      <g>
       <use xlink:href="#mb89e9e54dd" x="409.001378" y="465.838125" style="stroke: #000000; stroke-width: 0.8"/>
      </g>
     </g>
     <g id="text_3">
      <!-- 4 -->
      <g transform="translate(405.820128 480.436562) scale(0.1 -0.1)">
       <defs>
        <path id="DejaVuSans-34" d="M 2419 4116 
L 825 1625 
L 2419 1625 
L 2419 4116 
z
M 2253 4666 
L 3047 4666 
L 3047 1625 
L 3713 1625 
L 3713 1100 
L 3047 1100 
L 3047 0 
L 2419 0 
L 2419 1100 
L 313 1100 
L 313 1709 
L 2253 4666 
z
" transform="scale(0.015625)"/>
       </defs>
       <use xlink:href="#DejaVuSans-34"/>
      </g>
     </g>
    </g>
    <g id="xtick_4">
     <g id="line2d_4">
      <g>
       <use xlink:href="#mb89e9e54dd" x="571.361122" y="465.838125" style="stroke: #000000; stroke-width: 0.8"/>
      </g>
     </g>
     <g id="text_4">
      <!-- 6 -->
      <g transform="translate(568.179872 480.436562) scale(0.1 -0.1)">
       <defs>
        <path id="DejaVuSans-36" d="M 2113 2584 
Q 1688 2584 1439 2293 
Q 1191 2003 1191 1497 
Q 1191 994 1439 701 
Q 1688 409 2113 409 
Q 2538 409 2786 701 
Q 3034 994 3034 1497 
Q 3034 2003 2786 2293 
Q 2538 2584 2113 2584 
z
M 3366 4563 
L 3366 3988 
Q 3128 4100 2886 4159 
Q 2644 4219 2406 4219 
Q 1781 4219 1451 3797 
Q 1122 3375 1075 2522 
Q 1259 2794 1537 2939 
Q 1816 3084 2150 3084 
Q 2853 3084 3261 2657 
Q 3669 2231 3669 1497 
Q 3669 778 3244 343 
Q 2819 -91 2113 -91 
Q 1303 -91 875 529 
Q 447 1150 447 2328 
Q 447 3434 972 4092 
Q 1497 4750 2381 4750 
Q 2619 4750 2861 4703 
Q 3103 4656 3366 4563 
z
" transform="scale(0.015625)"/>
       </defs>
       <use xlink:href="#DejaVuSans-36"/>
      </g>
     </g>
    </g>
    <g id="xtick_5">
     <g id="line2d_5">
      <g>
       <use xlink:href="#mb89e9e54dd" x="733.720867" y="465.838125" style="stroke: #000000; stroke-width: 0.8"/>
      </g>
     </g>
     <g id="text_5">
      <!-- 8 -->
      <g transform="translate(730.539617 480.436562) scale(0.1 -0.1)">
       <defs>
        <path id="DejaVuSans-38" d="M 2034 2216 
Q 1584 2216 1326 1975 
Q 1069 1734 1069 1313 
Q 1069 891 1326 650 
Q 1584 409 2034 409 
Q 2484 409 2743 651 
Q 3003 894 3003 1313 
Q 3003 1734 2745 1975 
Q 2488 2216 2034 2216 
z
M 1403 2484 
Q 997 2584 770 2862 
Q 544 3141 544 3541 
Q 544 4100 942 4425 
Q 1341 4750 2034 4750 
Q 2731 4750 3128 4425 
Q 3525 4100 3525 3541 
Q 3525 3141 3298 2862 
Q 3072 2584 2669 2484 
Q 3125 2378 3379 2068 
Q 3634 1759 3634 1313 
Q 3634 634 3220 271 
Q 2806 -91 2034 -91 
Q 1263 -91 848 271 
Q 434 634 434 1313 
Q 434 1759 690 2068 
Q 947 2378 1403 2484 
z
M 1172 3481 
Q 1172 3119 1398 2916 
Q 1625 2713 2034 2713 
Q 2441 2713 2670 2916 
Q 2900 3119 2900 3481 
Q 2900 3844 2670 4047 
Q 2441 4250 2034 4250 
Q 1625 4250 1398 4047 
Q 1172 3844 1172 3481 
z
" transform="scale(0.015625)"/>
       </defs>
       <use xlink:href="#DejaVuSans-38"/>
      </g>
     </g>
    </g>
    <g id="xtick_6">
     <g id="line2d_6">
      <g>
       <use xlink:href="#mb89e9e54dd" x="896.080612" y="465.838125" style="stroke: #000000; stroke-width: 0.8"/>
      </g>
     </g>
     <g id="text_6">
      <!-- 10 -->
      <g transform="translate(889.718112 480.436562) scale(0.1 -0.1)">
       <defs>
        <path id="DejaVuSans-31" d="M 794 531 
L 1825 531 
L 1825 4091 
L 703 3866 
L 703 4441 
L 1819 4666 
L 2450 4666 
L 2450 531 
L 3481 531 
L 3481 0 
L 794 0 
L 794 531 
z
" transform="scale(0.015625)"/>
       </defs>
       <use xlink:href="#DejaVuSans-31"/>
       <use xlink:href="#DejaVuSans-30" x="63.623047"/>
      </g>
     </g>
    </g>
    <g id="text_7">
     <!-- x -->
     <g transform="translate(487.221875 494.114687) scale(0.1 -0.1)">
      <defs>
       <path id="DejaVuSans-78" d="M 3513 3500 
L 2247 1797 
L 3578 0 
L 2900 0 
L 1881 1375 
L 863 0 
L 184 0 
L 1544 1831 
L 300 3500 
L 978 3500 
L 1906 2253 
L 2834 3500 
L 3513 3500 
z
" transform="scale(0.015625)"/>
      </defs>
      <use xlink:href="#DejaVuSans-78"/>
     </g>
    </g>
   </g>
   <g id="matplotlib.axis_2">
    <g id="ytick_1">
     <g id="line2d_7">
      <defs>
       <path id="mcf3b42de20" d="M 0 0 
L -3.5 0 
" style="stroke: #000000; stroke-width: 0.8"/>
      </defs>
      <g>
       <use xlink:href="#mcf3b42de20" x="43.78125" y="465.838125" style="stroke: #000000; stroke-width: 0.8"/>
      </g>
     </g>
     <g id="text_8">
      <!-- 0.0 -->
      <g transform="translate(20.878125 469.637344) scale(0.1 -0.1)">
       <defs>
        <path id="DejaVuSans-2e" d="M 684 794 
L 1344 794 
L 1344 0 
L 684 0 
L 684 794 
z
" transform="scale(0.015625)"/>
       </defs>
       <use xlink:href="#DejaVuSans-30"/>
       <use xlink:href="#DejaVuSans-2e" x="63.623047"/>
       <use xlink:href="#DejaVuSans-30" x="95.410156"/>
      </g>
     </g>
    </g>
    <g id="ytick_2">
     <g id="line2d_8">
      <g>
       <use xlink:href="#mcf3b42de20" x="43.78125" y="377.134125" style="stroke: #000000; stroke-width: 0.8"/>
      </g>
     </g>
     <g id="text_9">
      <!-- 0.2 -->
      <g transform="translate(20.878125 380.933344) scale(0.1 -0.1)">
       <use xlink:href="#DejaVuSans-30"/>
       <use xlink:href="#DejaVuSans-2e" x="63.623047"/>
       <use xlink:href="#DejaVuSans-32" x="95.410156"/>
      </g>
     </g>
    </g>
    <g id="ytick_3">
     <g id="line2d_9">
      <g>
       <use xlink:href="#mcf3b42de20" x="43.78125" y="288.430125" style="stroke: #000000; stroke-width: 0.8"/>
      </g>
     </g>
     <g id="text_10">
      <!-- 0.4 -->
      <g transform="translate(20.878125 292.229344) scale(0.1 -0.1)">
       <use xlink:href="#DejaVuSans-30"/>
       <use xlink:href="#DejaVuSans-2e" x="63.623047"/>
       <use xlink:href="#DejaVuSans-34" x="95.410156"/>
      </g>
     </g>
    </g>
    <g id="ytick_4">
     <g id="line2d_10">
      <g>
       <use xlink:href="#mcf3b42de20" x="43.78125" y="199.726125" style="stroke: #000000; stroke-width: 0.8"/>
      </g>
     </g>
     <g id="text_11">
      <!-- 0.6 -->
      <g transform="translate(20.878125 203.525344) scale(0.1 -0.1)">
       <use xlink:href="#DejaVuSans-30"/>
       <use xlink:href="#DejaVuSans-2e" x="63.623047"/>
       <use xlink:href="#DejaVuSans-36" x="95.410156"/>
      </g>
     </g>
    </g>
    <g id="ytick_5">
     <g id="line2d_11">
      <g>
       <use xlink:href="#mcf3b42de20" x="43.78125" y="111.022125" style="stroke: #000000; stroke-width: 0.8"/>
      </g>
     </g>
     <g id="text_12">
      <!-- 0.8 -->
      <g transform="translate(20.878125 114.821344) scale(0.1 -0.1)">
       <use xlink:href="#DejaVuSans-30"/>
       <use xlink:href="#DejaVuSans-2e" x="63.623047"/>
       <use xlink:href="#DejaVuSans-38" x="95.410156"/>
      </g>
     </g>
    </g>
    <g id="ytick_6">
     <g id="line2d_12">
      <g>
       <use xlink:href="#mcf3b42de20" x="43.78125" y="22.318125" style="stroke: #000000; stroke-width: 0.8"/>
      </g>
     </g>
     <g id="text_13">
      <!-- 1.0 -->
      <g transform="translate(20.878125 26.117344) scale(0.1 -0.1)">
       <use xlink:href="#DejaVuSans-31"/>
       <use xlink:href="#DejaVuSans-2e" x="63.623047"/>
       <use xlink:href="#DejaVuSans-30" x="95.410156"/>
      </g>
     </g>
    </g>
    <g id="text_14">
     <!-- p -->
     <g transform="translate(14.798438 247.252344) rotate(-90) scale(0.1 -0.1)">
      <defs>
       <path id="DejaVuSans-70" d="M 1159 525 
L 1159 -1331 
L 581 -1331 
L 581 3500 
L 1159 3500 
L 1159 2969 
Q 1341 3281 1617 3432 
Q 1894 3584 2278 3584 
Q 2916 3584 3314 3078 
Q 3713 2572 3713 1747 
Q 3713 922 3314 415 
Q 2916 -91 2278 -91 
Q 1894 -91 1617 61 
Q 1341 213 1159 525 
z
M 3116 1747 
Q 3116 2381 2855 2742 
Q 2594 3103 2138 3103 
Q 1681 3103 1420 2742 
Q 1159 2381 1159 1747 
Q 1159 1113 1420 752 
Q 1681 391 2138 391 
Q 2594 391 2855 752 
Q 3116 1113 3116 1747 
z
" transform="scale(0.015625)"/>
      </defs>
      <use xlink:href="#DejaVuSans-70"/>
     </g>
    </g>
   </g>
   <g id="line2d_13">
    <path d="M 94.557243 -1 
L 95.80943 28.472956 
L 97.189488 56.013263 
L 98.650726 80.890558 
L 100.193143 103.483024 
L 101.816741 124.100659 
L 103.521518 142.999711 
L 105.307475 160.393662 
L 107.174612 176.461666 
L 109.122929 191.355091 
L 111.152426 205.202642 
L 113.263103 218.1144 
L 115.454959 230.185044 
L 117.727996 241.496427 
L 120.082212 252.11966 
L 122.517608 262.11681 
L 125.034184 271.542286 
L 127.71312 280.709912 
L 130.473236 289.352084 
L 133.314531 297.513416 
L 136.237007 305.233128 
L 139.240662 312.545854 
L 142.325497 319.482312 
L 145.572692 326.23227 
L 148.901067 332.634042 
L 152.310621 338.712858 
L 155.801356 344.491249 
L 159.45445 350.109862 
L 163.188724 355.44983 
L 167.085358 360.633943 
L 171.063172 365.560504 
L 175.203345 370.33681 
L 179.505879 374.95975 
L 183.970772 379.427474 
L 188.598024 383.739193 
L 193.387637 387.895012 
L 198.339609 391.895777 
L 203.453941 395.742954 
L 208.811812 399.49335 
L 214.332044 403.08691 
L 220.095815 406.574533 
L 226.103125 409.949865 
L 232.353975 413.208014 
L 238.929545 416.383115 
L 245.748654 419.429359 
L 252.892483 422.378076 
L 260.442211 425.251411 
L 268.316659 428.009137 
L 276.597006 430.672452 
L 285.283252 433.232586 
L 294.456578 435.703691 
L 304.116983 438.075264 
L 314.345647 440.356444 
L 325.223749 442.551942 
L 336.751291 444.648896 
L 349.009452 446.65008 
L 362.079411 448.555671 
L 376.042349 450.363966 
L 390.979446 452.072053 
L 407.053061 453.684029 
L 424.425553 455.199896 
L 443.259284 456.616896 
L 463.797791 457.935541 
L 486.284616 459.152842 
L 511.125657 460.27072 
L 538.726814 461.285975 
L 569.737525 462.199543 
L 604.969589 463.010145 
L 645.640706 463.718036 
L 693.61801 464.323825 
L 751.661619 464.826095 
L 824.642324 465.22515 
L 895.999432 465.460909 
L 895.999432 465.460909 
" clip-path="url(#paf683bae53)" style="fill: none; stroke: #e64173; stroke-width: 2; stroke-linecap: square"/>
   </g>
   <g id="line2d_14">
    <path d="M 84.363068 244.188977 
L 91.100998 253.199162 
L 97.920107 261.94505 
L 104.739216 270.331217 
L 111.639505 278.466168 
L 118.620974 286.352393 
L 125.683623 293.992642 
L 132.746272 301.307666 
L 139.890101 308.390051 
L 147.115109 315.242884 
L 154.421298 321.869454 
L 161.889846 328.342003 
L 169.439574 334.589199 
L 177.070482 340.615179 
L 184.78257 346.424212 
L 192.657018 352.077585 
L 200.612645 357.517485 
L 208.730633 362.800345 
L 217.01098 367.923521 
L 225.453686 372.884964 
L 234.058753 377.683205 
L 242.826179 382.317324 
L 251.755965 386.786927 
L 260.929291 391.129487 
L 270.346156 395.339323 
L 279.925381 399.378427 
L 289.748145 403.280026 
L 299.895629 407.070229 
L 310.286653 410.713545 
L 321.002396 414.234304 
L 332.042859 417.626715 
L 343.408041 420.886104 
L 355.179122 424.02979 
L 367.356103 427.050715 
L 380.020163 429.96115 
L 393.090123 432.736058 
L 406.728341 435.40305 
L 420.934819 437.952935 
L 435.790736 440.39118 
L 451.296091 442.708929 
L 467.532066 444.909963 
L 484.661019 447.005406 
L 502.68295 448.983995 
L 521.76022 450.852435 
L 541.974009 452.606686 
L 563.486675 454.248669 
L 586.541758 455.782867 
L 611.30162 457.205094 
L 638.090977 458.518232 
L 667.234552 459.720979 
L 699.219421 460.814782 
L 734.613846 461.798727 
L 774.229623 462.673306 
L 819.284452 463.440219 
L 871.320751 464.097759 
L 895.999432 464.343171 
L 895.999432 464.343171 
" clip-path="url(#paf683bae53)" style="fill: none; stroke: #181485; stroke-width: 2; stroke-linecap: square"/>
   </g>
   <g id="line2d_15">
    <path d="M 84.363068 460.245623 
L 84.687788 453.357896 
L 85.256047 446.57139 
L 85.986666 440.465066 
L 86.960824 434.221582 
L 88.097342 428.369627 
L 89.39622 422.803971 
L 90.857458 417.479176 
L 92.481055 412.375277 
L 94.267013 407.484651 
L 96.21533 402.806095 
L 98.244826 398.503542 
L 100.436683 394.382321 
L 102.709719 390.581666 
L 105.063936 387.069446 
L 107.580512 383.719255 
L 110.178268 380.636349 
L 112.857203 377.802434 
L 115.617319 375.202676 
L 118.458615 372.824765 
L 121.46227 370.601811 
L 124.547105 368.594961 
L 127.7943 366.751566 
L 131.122675 365.117776 
L 134.613409 363.652965 
L 138.266503 362.364138 
L 142.081957 361.256729 
L 146.059771 360.334701 
L 150.281125 359.588394 
L 154.664838 359.039376 
L 159.29209 358.682442 
L 164.244063 358.525367 
L 169.520754 358.584169 
L 175.122165 358.870943 
L 181.129476 359.402543 
L 187.623866 360.202833 
L 194.686515 361.300536 
L 202.398603 362.726998 
L 211.003669 364.550151 
L 220.664074 366.830065 
L 231.785716 369.689251 
L 245.180395 373.370593 
L 263.039967 378.526171 
L 329.851002 398.024719 
L 349.009452 403.265911 
L 366.950204 407.944471 
L 384.241517 412.224961 
L 401.28929 416.216176 
L 418.255883 419.959365 
L 435.222476 423.474963 
L 452.351429 426.797349 
L 469.723922 429.940681 
L 487.421134 432.917094 
L 505.605426 435.748777 
L 524.276796 438.42965 
L 543.516426 440.965912 
L 563.405495 443.362082 
L 584.025182 445.621244 
L 605.537849 447.752973 
L 628.024673 449.755993 
L 651.648016 451.634842 
L 676.489057 453.385905 
L 702.872516 455.020329 
L 730.960751 456.534579 
L 760.997304 457.928376 
L 793.388073 459.205681 
L 828.538958 460.366017 
L 867.018217 461.410476 
L 895.999432 462.066345 
L 895.999432 462.066345 
" clip-path="url(#paf683bae53)" style="fill: none; stroke: #314f4f; stroke-width: 2; stroke-linecap: square"/>
   </g>
   <g id="line2d_16">
    <path d="M 84.363068 465.836261 
L 85.986666 465.660514 
L 88.503242 465.156704 
L 91.669257 464.291077 
L 95.565891 462.986839 
L 100.274323 461.164828 
L 105.956914 458.717951 
L 113.181923 455.353024 
L 123.654126 450.206713 
L 149.875225 437.238253 
L 160.509788 432.279887 
L 170.089013 428.055697 
L 179.181159 424.287395 
L 187.948585 420.892095 
L 196.553652 417.796172 
L 205.077538 414.96466 
L 213.601425 412.368132 
L 222.125312 410.004923 
L 230.649198 407.871351 
L 239.254265 405.94502 
L 248.021691 404.210578 
L 256.951477 402.67246 
L 266.043622 401.333555 
L 275.298128 400.195271 
L 284.796173 399.250463 
L 294.618938 398.497888 
L 304.766422 397.945162 
L 315.238625 397.597731 
L 326.197908 397.458355 
L 337.64427 397.537271 
L 349.658891 397.844207 
L 362.404131 398.395167 
L 375.96117 399.206898 
L 390.492367 400.302091 
L 406.322442 401.721269 
L 423.857294 403.521072 
L 443.746363 405.791935 
L 467.288526 408.711543 
L 498.136877 412.77594 
L 608.135605 427.45915 
L 639.958114 431.372248 
L 669.669948 434.8035 
L 698.488802 437.908475 
L 726.982938 440.754617 
L 755.477073 443.377112 
L 784.295927 445.805912 
L 813.683041 448.058967 
L 843.881954 450.150391 
L 875.136205 452.09056 
L 895.999432 453.266784 
L 895.999432 453.266784 
" clip-path="url(#paf683bae53)" style="fill: none; stroke: #8bb174; stroke-width: 2; stroke-linecap: square"/>
   </g>
   <g id="line2d_17">
    <path d="M 84.363068 465.838125 
L 143.137296 465.727087 
L 168.303056 465.443153 
L 189.572183 464.983704 
L 209.136532 464.340494 
L 227.889082 463.502894 
L 246.398093 462.454196 
L 265.069464 461.173186 
L 284.309094 459.62852 
L 304.522882 457.780061 
L 326.441447 455.548139 
L 351.282488 452.788134 
L 382.37438 449.096485 
L 480.196126 437.319018 
L 506.985484 434.41737 
L 531.258265 432.009519 
L 554.06981 429.967839 
L 576.069555 428.220525 
L 597.582221 426.733988 
L 618.851348 425.486547 
L 640.120474 424.46235 
L 661.470781 423.657452 
L 683.064627 423.066321 
L 705.064372 422.687072 
L 727.632377 422.521243 
L 750.931 422.573334 
L 775.203782 422.851417 
L 800.694262 423.367716 
L 827.727159 424.139656 
L 856.870733 425.197351 
L 888.855603 426.584878 
L 895.999432 426.92259 
L 895.999432 426.92259 
" clip-path="url(#paf683bae53)" style="fill: none; stroke: #ffa500; stroke-width: 2; stroke-linecap: square"/>
   </g>
   <g id="patch_3">
    <path d="M 43.78125 465.838125 
L 43.78125 22.318125 
" style="fill: none; stroke: #000000; stroke-width: 0.8; stroke-linejoin: miter; stroke-linecap: square"/>
   </g>
   <g id="patch_4">
    <path d="M 936.58125 465.838125 
L 936.58125 22.318125 
" style="fill: none; stroke: #000000; stroke-width: 0.8; stroke-linejoin: miter; stroke-linecap: square"/>
   </g>
   <g id="patch_5">
    <path d="M 43.78125 465.838125 
L 936.58125 465.838125 
" style="fill: none; stroke: #000000; stroke-width: 0.8; stroke-linejoin: miter; stroke-linecap: square"/>
   </g>
   <g id="patch_6">
    <path d="M 43.78125 22.318125 
L 936.58125 22.318125 
" style="fill: none; stroke: #000000; stroke-width: 0.8; stroke-linejoin: miter; stroke-linecap: square"/>
   </g>
   <g id="text_15">
    <!-- chi-squared distribution pdf -->
    <g transform="translate(407.265937 16.318125) scale(0.12 -0.12)">
     <defs>
      <path id="DejaVuSans-63" d="M 3122 3366 
L 3122 2828 
Q 2878 2963 2633 3030 
Q 2388 3097 2138 3097 
Q 1578 3097 1268 2742 
Q 959 2388 959 1747 
Q 959 1106 1268 751 
Q 1578 397 2138 397 
Q 2388 397 2633 464 
Q 2878 531 3122 666 
L 3122 134 
Q 2881 22 2623 -34 
Q 2366 -91 2075 -91 
Q 1284 -91 818 406 
Q 353 903 353 1747 
Q 353 2603 823 3093 
Q 1294 3584 2113 3584 
Q 2378 3584 2631 3529 
Q 2884 3475 3122 3366 
z
" transform="scale(0.015625)"/>
      <path id="DejaVuSans-68" d="M 3513 2113 
L 3513 0 
L 2938 0 
L 2938 2094 
Q 2938 2591 2744 2837 
Q 2550 3084 2163 3084 
Q 1697 3084 1428 2787 
Q 1159 2491 1159 1978 
L 1159 0 
L 581 0 
L 581 4863 
L 1159 4863 
L 1159 2956 
Q 1366 3272 1645 3428 
Q 1925 3584 2291 3584 
Q 2894 3584 3203 3211 
Q 3513 2838 3513 2113 
z
" transform="scale(0.015625)"/>
      <path id="DejaVuSans-69" d="M 603 3500 
L 1178 3500 
L 1178 0 
L 603 0 
L 603 3500 
z
M 603 4863 
L 1178 4863 
L 1178 4134 
L 603 4134 
L 603 4863 
z
" transform="scale(0.015625)"/>
      <path id="DejaVuSans-2d" d="M 313 2009 
L 1997 2009 
L 1997 1497 
L 313 1497 
L 313 2009 
z
" transform="scale(0.015625)"/>
      <path id="DejaVuSans-73" d="M 2834 3397 
L 2834 2853 
Q 2591 2978 2328 3040 
Q 2066 3103 1784 3103 
Q 1356 3103 1142 2972 
Q 928 2841 928 2578 
Q 928 2378 1081 2264 
Q 1234 2150 1697 2047 
L 1894 2003 
Q 2506 1872 2764 1633 
Q 3022 1394 3022 966 
Q 3022 478 2636 193 
Q 2250 -91 1575 -91 
Q 1294 -91 989 -36 
Q 684 19 347 128 
L 347 722 
Q 666 556 975 473 
Q 1284 391 1588 391 
Q 1994 391 2212 530 
Q 2431 669 2431 922 
Q 2431 1156 2273 1281 
Q 2116 1406 1581 1522 
L 1381 1569 
Q 847 1681 609 1914 
Q 372 2147 372 2553 
Q 372 3047 722 3315 
Q 1072 3584 1716 3584 
Q 2034 3584 2315 3537 
Q 2597 3491 2834 3397 
z
" transform="scale(0.015625)"/>
      <path id="DejaVuSans-71" d="M 947 1747 
Q 947 1113 1208 752 
Q 1469 391 1925 391 
Q 2381 391 2643 752 
Q 2906 1113 2906 1747 
Q 2906 2381 2643 2742 
Q 2381 3103 1925 3103 
Q 1469 3103 1208 2742 
Q 947 2381 947 1747 
z
M 2906 525 
Q 2725 213 2448 61 
Q 2172 -91 1784 -91 
Q 1150 -91 751 415 
Q 353 922 353 1747 
Q 353 2572 751 3078 
Q 1150 3584 1784 3584 
Q 2172 3584 2448 3432 
Q 2725 3281 2906 2969 
L 2906 3500 
L 3481 3500 
L 3481 -1331 
L 2906 -1331 
L 2906 525 
z
" transform="scale(0.015625)"/>
      <path id="DejaVuSans-75" d="M 544 1381 
L 544 3500 
L 1119 3500 
L 1119 1403 
Q 1119 906 1312 657 
Q 1506 409 1894 409 
Q 2359 409 2629 706 
Q 2900 1003 2900 1516 
L 2900 3500 
L 3475 3500 
L 3475 0 
L 2900 0 
L 2900 538 
Q 2691 219 2414 64 
Q 2138 -91 1772 -91 
Q 1169 -91 856 284 
Q 544 659 544 1381 
z
M 1991 3584 
L 1991 3584 
z
" transform="scale(0.015625)"/>
      <path id="DejaVuSans-61" d="M 2194 1759 
Q 1497 1759 1228 1600 
Q 959 1441 959 1056 
Q 959 750 1161 570 
Q 1363 391 1709 391 
Q 2188 391 2477 730 
Q 2766 1069 2766 1631 
L 2766 1759 
L 2194 1759 
z
M 3341 1997 
L 3341 0 
L 2766 0 
L 2766 531 
Q 2569 213 2275 61 
Q 1981 -91 1556 -91 
Q 1019 -91 701 211 
Q 384 513 384 1019 
Q 384 1609 779 1909 
Q 1175 2209 1959 2209 
L 2766 2209 
L 2766 2266 
Q 2766 2663 2505 2880 
Q 2244 3097 1772 3097 
Q 1472 3097 1187 3025 
Q 903 2953 641 2809 
L 641 3341 
Q 956 3463 1253 3523 
Q 1550 3584 1831 3584 
Q 2591 3584 2966 3190 
Q 3341 2797 3341 1997 
z
" transform="scale(0.015625)"/>
      <path id="DejaVuSans-72" d="M 2631 2963 
Q 2534 3019 2420 3045 
Q 2306 3072 2169 3072 
Q 1681 3072 1420 2755 
Q 1159 2438 1159 1844 
L 1159 0 
L 581 0 
L 581 3500 
L 1159 3500 
L 1159 2956 
Q 1341 3275 1631 3429 
Q 1922 3584 2338 3584 
Q 2397 3584 2469 3576 
Q 2541 3569 2628 3553 
L 2631 2963 
z
" transform="scale(0.015625)"/>
      <path id="DejaVuSans-65" d="M 3597 1894 
L 3597 1613 
L 953 1613 
Q 991 1019 1311 708 
Q 1631 397 2203 397 
Q 2534 397 2845 478 
Q 3156 559 3463 722 
L 3463 178 
Q 3153 47 2828 -22 
Q 2503 -91 2169 -91 
Q 1331 -91 842 396 
Q 353 884 353 1716 
Q 353 2575 817 3079 
Q 1281 3584 2069 3584 
Q 2775 3584 3186 3129 
Q 3597 2675 3597 1894 
z
M 3022 2063 
Q 3016 2534 2758 2815 
Q 2500 3097 2075 3097 
Q 1594 3097 1305 2825 
Q 1016 2553 972 2059 
L 3022 2063 
z
" transform="scale(0.015625)"/>
      <path id="DejaVuSans-64" d="M 2906 2969 
L 2906 4863 
L 3481 4863 
L 3481 0 
L 2906 0 
L 2906 525 
Q 2725 213 2448 61 
Q 2172 -91 1784 -91 
Q 1150 -91 751 415 
Q 353 922 353 1747 
Q 353 2572 751 3078 
Q 1150 3584 1784 3584 
Q 2172 3584 2448 3432 
Q 2725 3281 2906 2969 
z
M 947 1747 
Q 947 1113 1208 752 
Q 1469 391 1925 391 
Q 2381 391 2643 752 
Q 2906 1113 2906 1747 
Q 2906 2381 2643 2742 
Q 2381 3103 1925 3103 
Q 1469 3103 1208 2742 
Q 947 2381 947 1747 
z
" transform="scale(0.015625)"/>
      <path id="DejaVuSans-20" transform="scale(0.015625)"/>
      <path id="DejaVuSans-74" d="M 1172 4494 
L 1172 3500 
L 2356 3500 
L 2356 3053 
L 1172 3053 
L 1172 1153 
Q 1172 725 1289 603 
Q 1406 481 1766 481 
L 2356 481 
L 2356 0 
L 1766 0 
Q 1100 0 847 248 
Q 594 497 594 1153 
L 594 3053 
L 172 3053 
L 172 3500 
L 594 3500 
L 594 4494 
L 1172 4494 
z
" transform="scale(0.015625)"/>
      <path id="DejaVuSans-62" d="M 3116 1747 
Q 3116 2381 2855 2742 
Q 2594 3103 2138 3103 
Q 1681 3103 1420 2742 
Q 1159 2381 1159 1747 
Q 1159 1113 1420 752 
Q 1681 391 2138 391 
Q 2594 391 2855 752 
Q 3116 1113 3116 1747 
z
M 1159 2969 
Q 1341 3281 1617 3432 
Q 1894 3584 2278 3584 
Q 2916 3584 3314 3078 
Q 3713 2572 3713 1747 
Q 3713 922 3314 415 
Q 2916 -91 2278 -91 
Q 1894 -91 1617 61 
Q 1341 213 1159 525 
L 1159 0 
L 581 0 
L 581 4863 
L 1159 4863 
L 1159 2969 
z
" transform="scale(0.015625)"/>
      <path id="DejaVuSans-6f" d="M 1959 3097 
Q 1497 3097 1228 2736 
Q 959 2375 959 1747 
Q 959 1119 1226 758 
Q 1494 397 1959 397 
Q 2419 397 2687 759 
Q 2956 1122 2956 1747 
Q 2956 2369 2687 2733 
Q 2419 3097 1959 3097 
z
M 1959 3584 
Q 2709 3584 3137 3096 
Q 3566 2609 3566 1747 
Q 3566 888 3137 398 
Q 2709 -91 1959 -91 
Q 1206 -91 779 398 
Q 353 888 353 1747 
Q 353 2609 779 3096 
Q 1206 3584 1959 3584 
z
" transform="scale(0.015625)"/>
      <path id="DejaVuSans-6e" d="M 3513 2113 
L 3513 0 
L 2938 0 
L 2938 2094 
Q 2938 2591 2744 2837 
Q 2550 3084 2163 3084 
Q 1697 3084 1428 2787 
Q 1159 2491 1159 1978 
L 1159 0 
L 581 0 
L 581 3500 
L 1159 3500 
L 1159 2956 
Q 1366 3272 1645 3428 
Q 1925 3584 2291 3584 
Q 2894 3584 3203 3211 
Q 3513 2838 3513 2113 
z
" transform="scale(0.015625)"/>
      <path id="DejaVuSans-66" d="M 2375 4863 
L 2375 4384 
L 1825 4384 
Q 1516 4384 1395 4259 
Q 1275 4134 1275 3809 
L 1275 3500 
L 2222 3500 
L 2222 3053 
L 1275 3053 
L 1275 0 
L 697 0 
L 697 3053 
L 147 3053 
L 147 3500 
L 697 3500 
L 697 3744 
Q 697 4328 969 4595 
Q 1241 4863 1831 4863 
L 2375 4863 
z
" transform="scale(0.015625)"/>
     </defs>
     <use xlink:href="#DejaVuSans-63"/>
     <use xlink:href="#DejaVuSans-68" x="54.980469"/>
     <use xlink:href="#DejaVuSans-69" x="118.359375"/>
     <use xlink:href="#DejaVuSans-2d" x="146.142578"/>
     <use xlink:href="#DejaVuSans-73" x="182.226562"/>
     <use xlink:href="#DejaVuSans-71" x="234.326172"/>
     <use xlink:href="#DejaVuSans-75" x="297.802734"/>
     <use xlink:href="#DejaVuSans-61" x="361.181641"/>
     <use xlink:href="#DejaVuSans-72" x="422.460938"/>
     <use xlink:href="#DejaVuSans-65" x="461.324219"/>
     <use xlink:href="#DejaVuSans-64" x="522.847656"/>
     <use xlink:href="#DejaVuSans-20" x="586.324219"/>
     <use xlink:href="#DejaVuSans-64" x="618.111328"/>
     <use xlink:href="#DejaVuSans-69" x="681.587891"/>
     <use xlink:href="#DejaVuSans-73" x="709.371094"/>
     <use xlink:href="#DejaVuSans-74" x="761.470703"/>
     <use xlink:href="#DejaVuSans-72" x="800.679688"/>
     <use xlink:href="#DejaVuSans-69" x="841.792969"/>
     <use xlink:href="#DejaVuSans-62" x="869.576172"/>
     <use xlink:href="#DejaVuSans-75" x="933.052734"/>
     <use xlink:href="#DejaVuSans-74" x="996.431641"/>
     <use xlink:href="#DejaVuSans-69" x="1035.640625"/>
     <use xlink:href="#DejaVuSans-6f" x="1063.423828"/>
     <use xlink:href="#DejaVuSans-6e" x="1124.605469"/>
     <use xlink:href="#DejaVuSans-20" x="1187.984375"/>
     <use xlink:href="#DejaVuSans-70" x="1219.771484"/>
     <use xlink:href="#DejaVuSans-64" x="1283.248047"/>
     <use xlink:href="#DejaVuSans-66" x="1346.724609"/>
    </g>
   </g>
   <g id="legend_1">
    <g id="patch_7">
     <path d="M 860.251562 103.70875 
L 929.58125 103.70875 
Q 931.58125 103.70875 931.58125 101.70875 
L 931.58125 29.318125 
Q 931.58125 27.318125 929.58125 27.318125 
L 860.251562 27.318125 
Q 858.251562 27.318125 858.251562 29.318125 
L 858.251562 101.70875 
Q 858.251562 103.70875 860.251562 103.70875 
z
" style="fill: #ffffff; opacity: 0.8; stroke: #cccccc; stroke-linejoin: miter"/>
    </g>
    <g id="line2d_18">
     <path d="M 862.251562 35.416562 
L 872.251562 35.416562 
L 882.251562 35.416562 
" style="fill: none; stroke: #e64173; stroke-width: 2; stroke-linecap: square"/>
    </g>
    <g id="text_16">
     <!-- df = 1 -->
     <g transform="translate(890.251562 38.916562) scale(0.1 -0.1)">
      <defs>
       <path id="DejaVuSans-3d" d="M 678 2906 
L 4684 2906 
L 4684 2381 
L 678 2381 
L 678 2906 
z
M 678 1631 
L 4684 1631 
L 4684 1100 
L 678 1100 
L 678 1631 
z
" transform="scale(0.015625)"/>
      </defs>
      <use xlink:href="#DejaVuSans-64"/>
      <use xlink:href="#DejaVuSans-66" x="63.476562"/>
      <use xlink:href="#DejaVuSans-20" x="98.681641"/>
      <use xlink:href="#DejaVuSans-3d" x="130.46875"/>
      <use xlink:href="#DejaVuSans-20" x="214.257812"/>
      <use xlink:href="#DejaVuSans-31" x="246.044922"/>
     </g>
    </g>
    <g id="line2d_19">
     <path d="M 862.251562 50.094687 
L 872.251562 50.094687 
L 882.251562 50.094687 
" style="fill: none; stroke: #181485; stroke-width: 2; stroke-linecap: square"/>
    </g>
    <g id="text_17">
     <!-- df = 2 -->
     <g transform="translate(890.251562 53.594687) scale(0.1 -0.1)">
      <use xlink:href="#DejaVuSans-64"/>
      <use xlink:href="#DejaVuSans-66" x="63.476562"/>
      <use xlink:href="#DejaVuSans-20" x="98.681641"/>
      <use xlink:href="#DejaVuSans-3d" x="130.46875"/>
      <use xlink:href="#DejaVuSans-20" x="214.257812"/>
      <use xlink:href="#DejaVuSans-32" x="246.044922"/>
     </g>
    </g>
    <g id="line2d_20">
     <path d="M 862.251562 64.772812 
L 872.251562 64.772812 
L 882.251562 64.772812 
" style="fill: none; stroke: #314f4f; stroke-width: 2; stroke-linecap: square"/>
    </g>
    <g id="text_18">
     <!-- df = 3 -->
     <g transform="translate(890.251562 68.272812) scale(0.1 -0.1)">
      <defs>
       <path id="DejaVuSans-33" d="M 2597 2516 
Q 3050 2419 3304 2112 
Q 3559 1806 3559 1356 
Q 3559 666 3084 287 
Q 2609 -91 1734 -91 
Q 1441 -91 1130 -33 
Q 819 25 488 141 
L 488 750 
Q 750 597 1062 519 
Q 1375 441 1716 441 
Q 2309 441 2620 675 
Q 2931 909 2931 1356 
Q 2931 1769 2642 2001 
Q 2353 2234 1838 2234 
L 1294 2234 
L 1294 2753 
L 1863 2753 
Q 2328 2753 2575 2939 
Q 2822 3125 2822 3475 
Q 2822 3834 2567 4026 
Q 2313 4219 1838 4219 
Q 1578 4219 1281 4162 
Q 984 4106 628 3988 
L 628 4550 
Q 988 4650 1302 4700 
Q 1616 4750 1894 4750 
Q 2613 4750 3031 4423 
Q 3450 4097 3450 3541 
Q 3450 3153 3228 2886 
Q 3006 2619 2597 2516 
z
" transform="scale(0.015625)"/>
      </defs>
      <use xlink:href="#DejaVuSans-64"/>
      <use xlink:href="#DejaVuSans-66" x="63.476562"/>
      <use xlink:href="#DejaVuSans-20" x="98.681641"/>
      <use xlink:href="#DejaVuSans-3d" x="130.46875"/>
      <use xlink:href="#DejaVuSans-20" x="214.257812"/>
      <use xlink:href="#DejaVuSans-33" x="246.044922"/>
     </g>
    </g>
    <g id="line2d_21">
     <path d="M 862.251562 79.450937 
L 872.251562 79.450937 
L 882.251562 79.450937 
" style="fill: none; stroke: #8bb174; stroke-width: 2; stroke-linecap: square"/>
    </g>
    <g id="text_19">
     <!-- df = 5 -->
     <g transform="translate(890.251562 82.950937) scale(0.1 -0.1)">
      <defs>
       <path id="DejaVuSans-35" d="M 691 4666 
L 3169 4666 
L 3169 4134 
L 1269 4134 
L 1269 2991 
Q 1406 3038 1543 3061 
Q 1681 3084 1819 3084 
Q 2600 3084 3056 2656 
Q 3513 2228 3513 1497 
Q 3513 744 3044 326 
Q 2575 -91 1722 -91 
Q 1428 -91 1123 -41 
Q 819 9 494 109 
L 494 744 
Q 775 591 1075 516 
Q 1375 441 1709 441 
Q 2250 441 2565 725 
Q 2881 1009 2881 1497 
Q 2881 1984 2565 2268 
Q 2250 2553 1709 2553 
Q 1456 2553 1204 2497 
Q 953 2441 691 2322 
L 691 4666 
z
" transform="scale(0.015625)"/>
      </defs>
      <use xlink:href="#DejaVuSans-64"/>
      <use xlink:href="#DejaVuSans-66" x="63.476562"/>
      <use xlink:href="#DejaVuSans-20" x="98.681641"/>
      <use xlink:href="#DejaVuSans-3d" x="130.46875"/>
      <use xlink:href="#DejaVuSans-20" x="214.257812"/>
      <use xlink:href="#DejaVuSans-35" x="246.044922"/>
     </g>
    </g>
    <g id="line2d_22">
     <path d="M 862.251562 94.129062 
L 872.251562 94.129062 
L 882.251562 94.129062 
" style="fill: none; stroke: #ffa500; stroke-width: 2; stroke-linecap: square"/>
    </g>
    <g id="text_20">
     <!-- df = 10 -->
     <g transform="translate(890.251562 97.629062) scale(0.1 -0.1)">
      <use xlink:href="#DejaVuSans-64"/>
      <use xlink:href="#DejaVuSans-66" x="63.476562"/>
      <use xlink:href="#DejaVuSans-20" x="98.681641"/>
      <use xlink:href="#DejaVuSans-3d" x="130.46875"/>
      <use xlink:href="#DejaVuSans-20" x="214.257812"/>
      <use xlink:href="#DejaVuSans-31" x="246.044922"/>
      <use xlink:href="#DejaVuSans-30" x="309.667969"/>
     </g>
    </g>
   </g>
  </g>
 </g>
 <defs>
  <clipPath id="paf683bae53">
   <rect x="43.78125" y="22.318125" width="892.8" height="443.52"/>
  </clipPath>
 </defs>
</svg>
