<?xml version="1.0" encoding="utf-8" standalone="no"?>
<!DOCTYPE svg PUBLIC "-//W3C//DTD SVG 1.1//EN"
  "http://www.w3.org/Graphics/SVG/1.1/DTD/svg11.dtd">
<svg xmlns:xlink="http://www.w3.org/1999/xlink" width="584.39952pt" height="368.39952pt" viewBox="0 0 584.39952 368.39952" xmlns="http://www.w3.org/2000/svg" version="1.1">
 <metadata>
  <rdf:RDF xmlns:dc="http://purl.org/dc/elements/1.1/" xmlns:cc="http://creativecommons.org/ns#" xmlns:rdf="http://www.w3.org/1999/02/22-rdf-syntax-ns#">
   <cc:Work>
    <dc:type rdf:resource="http://purl.org/dc/dcmitype/StillImage"/>
    <dc:date>2025-10-25T23:02:21.688943</dc:date>
    <dc:format>image/svg+xml</dc:format>
    <dc:creator>
     <cc:Agent>
      <dc:title>Matplotlib v3.7.2, https://matplotlib.org/</dc:title>
     </cc:Agent>
    </dc:creator>
   </cc:Work>
  </rdf:RDF>
 </metadata>
 <defs>
  <style type="text/css">*{stroke-linejoin: round; stroke-linecap: butt}</style>
 </defs>
 <g id="figure_1">
  <g id="patch_1">
   <path d="M 0 368.39952 
L 584.39952 368.39952 
L 584.39952 0 
L 0 0 
z
" style="fill: #ffffff"/>
  </g>
  <g id="axes_1">
   <g id="patch_2">
    <path d="M 52.608594 332.793739 
L 577.19952 332.793739 
L 577.19952 21.935625 
L 52.608594 21.935625 
z
" style="fill: #e5e5e5"/>
   </g>
   <g id="matplotlib.axis_1">
    <g id="xtick_1">
     <g id="line2d_1">
      <path d="M 108.584472 332.793739 
L 108.584472 21.935625 
" clip-path="url(#p259e1b3dc5)" style="fill: none; stroke: #ffffff; stroke-width: 0.8; stroke-linecap: round"/>
     </g>
     <g id="text_1">
      <!-- 1992 -->
      <g style="fill: #555555" transform="translate(98.574785 346.23577) scale(0.09 -0.09)">
       <defs>
        <path id="ArialMT-31" d="M 2384 0 
L 1822 0 
L 1822 3584 
Q 1619 3391 1289 3197 
Q 959 3003 697 2906 
L 697 3450 
Q 1169 3672 1522 3987 
Q 1875 4303 2022 4600 
L 2384 4600 
L 2384 0 
z
" transform="scale(0.015625)"/>
        <path id="ArialMT-39" d="M 350 1059 
L 891 1109 
Q 959 728 1153 556 
Q 1347 384 1650 384 
Q 1909 384 2104 503 
Q 2300 622 2425 820 
Q 2550 1019 2634 1356 
Q 2719 1694 2719 2044 
Q 2719 2081 2716 2156 
Q 2547 1888 2255 1720 
Q 1963 1553 1622 1553 
Q 1053 1553 659 1965 
Q 266 2378 266 3053 
Q 266 3750 677 4175 
Q 1088 4600 1706 4600 
Q 2153 4600 2523 4359 
Q 2894 4119 3086 3673 
Q 3278 3228 3278 2384 
Q 3278 1506 3087 986 
Q 2897 466 2520 194 
Q 2144 -78 1638 -78 
Q 1100 -78 759 220 
Q 419 519 350 1059 
z
M 2653 3081 
Q 2653 3566 2395 3850 
Q 2138 4134 1775 4134 
Q 1400 4134 1122 3828 
Q 844 3522 844 3034 
Q 844 2597 1108 2323 
Q 1372 2050 1759 2050 
Q 2150 2050 2401 2323 
Q 2653 2597 2653 3081 
z
" transform="scale(0.015625)"/>
        <path id="ArialMT-32" d="M 3222 541 
L 3222 0 
L 194 0 
Q 188 203 259 391 
Q 375 700 629 1000 
Q 884 1300 1366 1694 
Q 2113 2306 2375 2664 
Q 2638 3022 2638 3341 
Q 2638 3675 2398 3904 
Q 2159 4134 1775 4134 
Q 1369 4134 1125 3890 
Q 881 3647 878 3216 
L 300 3275 
Q 359 3922 746 4261 
Q 1134 4600 1788 4600 
Q 2447 4600 2831 4234 
Q 3216 3869 3216 3328 
Q 3216 3053 3103 2787 
Q 2991 2522 2730 2228 
Q 2469 1934 1863 1422 
Q 1356 997 1212 845 
Q 1069 694 975 541 
L 3222 541 
z
" transform="scale(0.015625)"/>
       </defs>
       <use xlink:href="#ArialMT-31"/>
       <use xlink:href="#ArialMT-39" x="55.615234"/>
       <use xlink:href="#ArialMT-39" x="111.230469"/>
       <use xlink:href="#ArialMT-32" x="166.845703"/>
      </g>
     </g>
    </g>
    <g id="xtick_2">
     <g id="line2d_2">
      <path d="M 172.890161 332.793739 
L 172.890161 21.935625 
" clip-path="url(#p259e1b3dc5)" style="fill: none; stroke: #ffffff; stroke-width: 0.8; stroke-linecap: round"/>
     </g>
     <g id="text_2">
      <!-- 1996 -->
      <g style="fill: #555555" transform="translate(162.880473 346.23577) scale(0.09 -0.09)">
       <defs>
        <path id="ArialMT-36" d="M 3184 3459 
L 2625 3416 
Q 2550 3747 2413 3897 
Q 2184 4138 1850 4138 
Q 1581 4138 1378 3988 
Q 1113 3794 959 3422 
Q 806 3050 800 2363 
Q 1003 2672 1297 2822 
Q 1591 2972 1913 2972 
Q 2475 2972 2870 2558 
Q 3266 2144 3266 1488 
Q 3266 1056 3080 686 
Q 2894 316 2569 119 
Q 2244 -78 1831 -78 
Q 1128 -78 684 439 
Q 241 956 241 2144 
Q 241 3472 731 4075 
Q 1159 4600 1884 4600 
Q 2425 4600 2770 4297 
Q 3116 3994 3184 3459 
z
M 888 1484 
Q 888 1194 1011 928 
Q 1134 663 1356 523 
Q 1578 384 1822 384 
Q 2178 384 2434 671 
Q 2691 959 2691 1453 
Q 2691 1928 2437 2201 
Q 2184 2475 1800 2475 
Q 1419 2475 1153 2201 
Q 888 1928 888 1484 
z
" transform="scale(0.015625)"/>
       </defs>
       <use xlink:href="#ArialMT-31"/>
       <use xlink:href="#ArialMT-39" x="55.615234"/>
       <use xlink:href="#ArialMT-39" x="111.230469"/>
       <use xlink:href="#ArialMT-36" x="166.845703"/>
      </g>
     </g>
    </g>
    <g id="xtick_3">
     <g id="line2d_3">
      <path d="M 237.195849 332.793739 
L 237.195849 21.935625 
" clip-path="url(#p259e1b3dc5)" style="fill: none; stroke: #ffffff; stroke-width: 0.8; stroke-linecap: round"/>
     </g>
     <g id="text_3">
      <!-- 2000 -->
      <g style="fill: #555555" transform="translate(227.186161 346.23577) scale(0.09 -0.09)">
       <defs>
        <path id="ArialMT-30" d="M 266 2259 
Q 266 3072 433 3567 
Q 600 4063 929 4331 
Q 1259 4600 1759 4600 
Q 2128 4600 2406 4451 
Q 2684 4303 2865 4023 
Q 3047 3744 3150 3342 
Q 3253 2941 3253 2259 
Q 3253 1453 3087 958 
Q 2922 463 2592 192 
Q 2263 -78 1759 -78 
Q 1097 -78 719 397 
Q 266 969 266 2259 
z
M 844 2259 
Q 844 1131 1108 757 
Q 1372 384 1759 384 
Q 2147 384 2411 759 
Q 2675 1134 2675 2259 
Q 2675 3391 2411 3762 
Q 2147 4134 1753 4134 
Q 1366 4134 1134 3806 
Q 844 3388 844 2259 
z
" transform="scale(0.015625)"/>
       </defs>
       <use xlink:href="#ArialMT-32"/>
       <use xlink:href="#ArialMT-30" x="55.615234"/>
       <use xlink:href="#ArialMT-30" x="111.230469"/>
       <use xlink:href="#ArialMT-30" x="166.845703"/>
      </g>
     </g>
    </g>
    <g id="xtick_4">
     <g id="line2d_4">
      <path d="M 301.501537 332.793739 
L 301.501537 21.935625 
" clip-path="url(#p259e1b3dc5)" style="fill: none; stroke: #ffffff; stroke-width: 0.8; stroke-linecap: round"/>
     </g>
     <g id="text_4">
      <!-- 2004 -->
      <g style="fill: #555555" transform="translate(291.491849 346.23577) scale(0.09 -0.09)">
       <defs>
        <path id="ArialMT-34" d="M 2069 0 
L 2069 1097 
L 81 1097 
L 81 1613 
L 2172 4581 
L 2631 4581 
L 2631 1613 
L 3250 1613 
L 3250 1097 
L 2631 1097 
L 2631 0 
L 2069 0 
z
M 2069 1613 
L 2069 3678 
L 634 1613 
L 2069 1613 
z
" transform="scale(0.015625)"/>
       </defs>
       <use xlink:href="#ArialMT-32"/>
       <use xlink:href="#ArialMT-30" x="55.615234"/>
       <use xlink:href="#ArialMT-30" x="111.230469"/>
       <use xlink:href="#ArialMT-34" x="166.845703"/>
      </g>
     </g>
    </g>
    <g id="xtick_5">
     <g id="line2d_5">
      <path d="M 365.807225 332.793739 
L 365.807225 21.935625 
" clip-path="url(#p259e1b3dc5)" style="fill: none; stroke: #ffffff; stroke-width: 0.8; stroke-linecap: round"/>
     </g>
     <g id="text_5">
      <!-- 2008 -->
      <g style="fill: #555555" transform="translate(355.797537 346.23577) scale(0.09 -0.09)">
       <defs>
        <path id="ArialMT-38" d="M 1131 2484 
Q 781 2613 612 2850 
Q 444 3088 444 3419 
Q 444 3919 803 4259 
Q 1163 4600 1759 4600 
Q 2359 4600 2725 4251 
Q 3091 3903 3091 3403 
Q 3091 3084 2923 2848 
Q 2756 2613 2416 2484 
Q 2838 2347 3058 2040 
Q 3278 1734 3278 1309 
Q 3278 722 2862 322 
Q 2447 -78 1769 -78 
Q 1091 -78 675 323 
Q 259 725 259 1325 
Q 259 1772 486 2073 
Q 713 2375 1131 2484 
z
M 1019 3438 
Q 1019 3113 1228 2906 
Q 1438 2700 1772 2700 
Q 2097 2700 2305 2904 
Q 2513 3109 2513 3406 
Q 2513 3716 2298 3927 
Q 2084 4138 1766 4138 
Q 1444 4138 1231 3931 
Q 1019 3725 1019 3438 
z
M 838 1322 
Q 838 1081 952 856 
Q 1066 631 1291 507 
Q 1516 384 1775 384 
Q 2178 384 2440 643 
Q 2703 903 2703 1303 
Q 2703 1709 2433 1975 
Q 2163 2241 1756 2241 
Q 1359 2241 1098 1978 
Q 838 1716 838 1322 
z
" transform="scale(0.015625)"/>
       </defs>
       <use xlink:href="#ArialMT-32"/>
       <use xlink:href="#ArialMT-30" x="55.615234"/>
       <use xlink:href="#ArialMT-30" x="111.230469"/>
       <use xlink:href="#ArialMT-38" x="166.845703"/>
      </g>
     </g>
    </g>
    <g id="xtick_6">
     <g id="line2d_6">
      <path d="M 430.112913 332.793739 
L 430.112913 21.935625 
" clip-path="url(#p259e1b3dc5)" style="fill: none; stroke: #ffffff; stroke-width: 0.8; stroke-linecap: round"/>
     </g>
     <g id="text_6">
      <!-- 2012 -->
      <g style="fill: #555555" transform="translate(420.103225 346.23577) scale(0.09 -0.09)">
       <use xlink:href="#ArialMT-32"/>
       <use xlink:href="#ArialMT-30" x="55.615234"/>
       <use xlink:href="#ArialMT-31" x="111.230469"/>
       <use xlink:href="#ArialMT-32" x="166.845703"/>
      </g>
     </g>
    </g>
    <g id="xtick_7">
     <g id="line2d_7">
      <path d="M 494.418601 332.793739 
L 494.418601 21.935625 
" clip-path="url(#p259e1b3dc5)" style="fill: none; stroke: #ffffff; stroke-width: 0.8; stroke-linecap: round"/>
     </g>
     <g id="text_7">
      <!-- 2016 -->
      <g style="fill: #555555" transform="translate(484.408913 346.23577) scale(0.09 -0.09)">
       <use xlink:href="#ArialMT-32"/>
       <use xlink:href="#ArialMT-30" x="55.615234"/>
       <use xlink:href="#ArialMT-31" x="111.230469"/>
       <use xlink:href="#ArialMT-36" x="166.845703"/>
      </g>
     </g>
    </g>
    <g id="xtick_8">
     <g id="line2d_8">
      <path d="M 558.724289 332.793739 
L 558.724289 21.935625 
" clip-path="url(#p259e1b3dc5)" style="fill: none; stroke: #ffffff; stroke-width: 0.8; stroke-linecap: round"/>
     </g>
     <g id="text_8">
      <!-- 2020 -->
      <g style="fill: #555555" transform="translate(548.714601 346.23577) scale(0.09 -0.09)">
       <use xlink:href="#ArialMT-32"/>
       <use xlink:href="#ArialMT-30" x="55.615234"/>
       <use xlink:href="#ArialMT-32" x="111.230469"/>
       <use xlink:href="#ArialMT-30" x="166.845703"/>
      </g>
     </g>
    </g>
    <g id="text_9">
     <!-- Month [1M] -->
     <g style="fill: #555555" transform="translate(289.896244 359.21202) scale(0.1 -0.1)">
      <defs>
       <path id="ArialMT-4d" d="M 475 0 
L 475 4581 
L 1388 4581 
L 2472 1338 
Q 2622 884 2691 659 
Q 2769 909 2934 1394 
L 4031 4581 
L 4847 4581 
L 4847 0 
L 4263 0 
L 4263 3834 
L 2931 0 
L 2384 0 
L 1059 3900 
L 1059 0 
L 475 0 
z
" transform="scale(0.015625)"/>
       <path id="ArialMT-6f" d="M 213 1659 
Q 213 2581 725 3025 
Q 1153 3394 1769 3394 
Q 2453 3394 2887 2945 
Q 3322 2497 3322 1706 
Q 3322 1066 3130 698 
Q 2938 331 2570 128 
Q 2203 -75 1769 -75 
Q 1072 -75 642 372 
Q 213 819 213 1659 
z
M 791 1659 
Q 791 1022 1069 705 
Q 1347 388 1769 388 
Q 2188 388 2466 706 
Q 2744 1025 2744 1678 
Q 2744 2294 2464 2611 
Q 2184 2928 1769 2928 
Q 1347 2928 1069 2612 
Q 791 2297 791 1659 
z
" transform="scale(0.015625)"/>
       <path id="ArialMT-6e" d="M 422 0 
L 422 3319 
L 928 3319 
L 928 2847 
Q 1294 3394 1984 3394 
Q 2284 3394 2536 3286 
Q 2788 3178 2913 3003 
Q 3038 2828 3088 2588 
Q 3119 2431 3119 2041 
L 3119 0 
L 2556 0 
L 2556 2019 
Q 2556 2363 2490 2533 
Q 2425 2703 2258 2804 
Q 2091 2906 1866 2906 
Q 1506 2906 1245 2678 
Q 984 2450 984 1813 
L 984 0 
L 422 0 
z
" transform="scale(0.015625)"/>
       <path id="ArialMT-74" d="M 1650 503 
L 1731 6 
Q 1494 -44 1306 -44 
Q 1000 -44 831 53 
Q 663 150 594 308 
Q 525 466 525 972 
L 525 2881 
L 113 2881 
L 113 3319 
L 525 3319 
L 525 4141 
L 1084 4478 
L 1084 3319 
L 1650 3319 
L 1650 2881 
L 1084 2881 
L 1084 941 
Q 1084 700 1114 631 
Q 1144 563 1211 522 
Q 1278 481 1403 481 
Q 1497 481 1650 503 
z
" transform="scale(0.015625)"/>
       <path id="ArialMT-68" d="M 422 0 
L 422 4581 
L 984 4581 
L 984 2938 
Q 1378 3394 1978 3394 
Q 2347 3394 2619 3248 
Q 2891 3103 3008 2847 
Q 3125 2591 3125 2103 
L 3125 0 
L 2563 0 
L 2563 2103 
Q 2563 2525 2380 2717 
Q 2197 2909 1863 2909 
Q 1613 2909 1392 2779 
Q 1172 2650 1078 2428 
Q 984 2206 984 1816 
L 984 0 
L 422 0 
z
" transform="scale(0.015625)"/>
       <path id="ArialMT-20" transform="scale(0.015625)"/>
       <path id="ArialMT-5b" d="M 434 -1272 
L 434 4581 
L 1675 4581 
L 1675 4116 
L 997 4116 
L 997 -806 
L 1675 -806 
L 1675 -1272 
L 434 -1272 
z
" transform="scale(0.015625)"/>
       <path id="ArialMT-5d" d="M 1363 -1272 
L 122 -1272 
L 122 -806 
L 800 -806 
L 800 4116 
L 122 4116 
L 122 4581 
L 1363 4581 
L 1363 -1272 
z
" transform="scale(0.015625)"/>
      </defs>
      <use xlink:href="#ArialMT-4d"/>
      <use xlink:href="#ArialMT-6f" x="83.300781"/>
      <use xlink:href="#ArialMT-6e" x="138.916016"/>
      <use xlink:href="#ArialMT-74" x="194.53125"/>
      <use xlink:href="#ArialMT-68" x="222.314453"/>
      <use xlink:href="#ArialMT-20" x="277.929688"/>
      <use xlink:href="#ArialMT-5b" x="305.712891"/>
      <use xlink:href="#ArialMT-31" x="333.496094"/>
      <use xlink:href="#ArialMT-4d" x="389.111328"/>
      <use xlink:href="#ArialMT-5d" x="472.412109"/>
     </g>
    </g>
   </g>
   <g id="matplotlib.axis_2">
    <g id="ytick_1">
     <g id="line2d_9">
      <path d="M 52.608594 322.17564 
L 577.19952 322.17564 
" clip-path="url(#p259e1b3dc5)" style="fill: none; stroke: #ffffff; stroke-width: 0.8; stroke-linecap: round"/>
     </g>
     <g id="text_10">
      <!-- 12500 -->
      <g style="fill: #555555" transform="translate(20.584375 325.396656) scale(0.09 -0.09)">
       <defs>
        <path id="ArialMT-35" d="M 266 1200 
L 856 1250 
Q 922 819 1161 601 
Q 1400 384 1738 384 
Q 2144 384 2425 690 
Q 2706 997 2706 1503 
Q 2706 1984 2436 2262 
Q 2166 2541 1728 2541 
Q 1456 2541 1237 2417 
Q 1019 2294 894 2097 
L 366 2166 
L 809 4519 
L 3088 4519 
L 3088 3981 
L 1259 3981 
L 1013 2750 
Q 1425 3038 1878 3038 
Q 2478 3038 2890 2622 
Q 3303 2206 3303 1553 
Q 3303 931 2941 478 
Q 2500 -78 1738 -78 
Q 1113 -78 717 272 
Q 322 622 266 1200 
z
" transform="scale(0.015625)"/>
       </defs>
       <use xlink:href="#ArialMT-31"/>
       <use xlink:href="#ArialMT-32" x="55.615234"/>
       <use xlink:href="#ArialMT-35" x="111.230469"/>
       <use xlink:href="#ArialMT-30" x="166.845703"/>
       <use xlink:href="#ArialMT-30" x="222.460938"/>
      </g>
     </g>
    </g>
    <g id="ytick_2">
     <g id="line2d_10">
      <path d="M 52.608594 285.441169 
L 577.19952 285.441169 
" clip-path="url(#p259e1b3dc5)" style="fill: none; stroke: #ffffff; stroke-width: 0.8; stroke-linecap: round"/>
     </g>
     <g id="text_11">
      <!-- 13000 -->
      <g style="fill: #555555" transform="translate(20.584375 288.662185) scale(0.09 -0.09)">
       <defs>
        <path id="ArialMT-33" d="M 269 1209 
L 831 1284 
Q 928 806 1161 595 
Q 1394 384 1728 384 
Q 2125 384 2398 659 
Q 2672 934 2672 1341 
Q 2672 1728 2419 1979 
Q 2166 2231 1775 2231 
Q 1616 2231 1378 2169 
L 1441 2663 
Q 1497 2656 1531 2656 
Q 1891 2656 2178 2843 
Q 2466 3031 2466 3422 
Q 2466 3731 2256 3934 
Q 2047 4138 1716 4138 
Q 1388 4138 1169 3931 
Q 950 3725 888 3313 
L 325 3413 
Q 428 3978 793 4289 
Q 1159 4600 1703 4600 
Q 2078 4600 2393 4439 
Q 2709 4278 2876 4000 
Q 3044 3722 3044 3409 
Q 3044 3113 2884 2869 
Q 2725 2625 2413 2481 
Q 2819 2388 3044 2092 
Q 3269 1797 3269 1353 
Q 3269 753 2831 336 
Q 2394 -81 1725 -81 
Q 1122 -81 723 278 
Q 325 638 269 1209 
z
" transform="scale(0.015625)"/>
       </defs>
       <use xlink:href="#ArialMT-31"/>
       <use xlink:href="#ArialMT-33" x="55.615234"/>
       <use xlink:href="#ArialMT-30" x="111.230469"/>
       <use xlink:href="#ArialMT-30" x="166.845703"/>
       <use xlink:href="#ArialMT-30" x="222.460938"/>
      </g>
     </g>
    </g>
    <g id="ytick_3">
     <g id="line2d_11">
      <path d="M 52.608594 248.706698 
L 577.19952 248.706698 
" clip-path="url(#p259e1b3dc5)" style="fill: none; stroke: #ffffff; stroke-width: 0.8; stroke-linecap: round"/>
     </g>
     <g id="text_12">
      <!-- 13500 -->
      <g style="fill: #555555" transform="translate(20.584375 251.927714) scale(0.09 -0.09)">
       <use xlink:href="#ArialMT-31"/>
       <use xlink:href="#ArialMT-33" x="55.615234"/>
       <use xlink:href="#ArialMT-35" x="111.230469"/>
       <use xlink:href="#ArialMT-30" x="166.845703"/>
       <use xlink:href="#ArialMT-30" x="222.460938"/>
      </g>
     </g>
    </g>
    <g id="ytick_4">
     <g id="line2d_12">
      <path d="M 52.608594 211.972227 
L 577.19952 211.972227 
" clip-path="url(#p259e1b3dc5)" style="fill: none; stroke: #ffffff; stroke-width: 0.8; stroke-linecap: round"/>
     </g>
     <g id="text_13">
      <!-- 14000 -->
      <g style="fill: #555555" transform="translate(20.584375 215.193243) scale(0.09 -0.09)">
       <use xlink:href="#ArialMT-31"/>
       <use xlink:href="#ArialMT-34" x="55.615234"/>
       <use xlink:href="#ArialMT-30" x="111.230469"/>
       <use xlink:href="#ArialMT-30" x="166.845703"/>
       <use xlink:href="#ArialMT-30" x="222.460938"/>
      </g>
     </g>
    </g>
    <g id="ytick_5">
     <g id="line2d_13">
      <path d="M 52.608594 175.237756 
L 577.19952 175.237756 
" clip-path="url(#p259e1b3dc5)" style="fill: none; stroke: #ffffff; stroke-width: 0.8; stroke-linecap: round"/>
     </g>
     <g id="text_14">
      <!-- 14500 -->
      <g style="fill: #555555" transform="translate(20.584375 178.458772) scale(0.09 -0.09)">
       <use xlink:href="#ArialMT-31"/>
       <use xlink:href="#ArialMT-34" x="55.615234"/>
       <use xlink:href="#ArialMT-35" x="111.230469"/>
       <use xlink:href="#ArialMT-30" x="166.845703"/>
       <use xlink:href="#ArialMT-30" x="222.460938"/>
      </g>
     </g>
    </g>
    <g id="ytick_6">
     <g id="line2d_14">
      <path d="M 52.608594 138.503285 
L 577.19952 138.503285 
" clip-path="url(#p259e1b3dc5)" style="fill: none; stroke: #ffffff; stroke-width: 0.8; stroke-linecap: round"/>
     </g>
     <g id="text_15">
      <!-- 15000 -->
      <g style="fill: #555555" transform="translate(20.584375 141.724301) scale(0.09 -0.09)">
       <use xlink:href="#ArialMT-31"/>
       <use xlink:href="#ArialMT-35" x="55.615234"/>
       <use xlink:href="#ArialMT-30" x="111.230469"/>
       <use xlink:href="#ArialMT-30" x="166.845703"/>
       <use xlink:href="#ArialMT-30" x="222.460938"/>
      </g>
     </g>
    </g>
    <g id="ytick_7">
     <g id="line2d_15">
      <path d="M 52.608594 101.768814 
L 577.19952 101.768814 
" clip-path="url(#p259e1b3dc5)" style="fill: none; stroke: #ffffff; stroke-width: 0.8; stroke-linecap: round"/>
     </g>
     <g id="text_16">
      <!-- 15500 -->
      <g style="fill: #555555" transform="translate(20.584375 104.98983) scale(0.09 -0.09)">
       <use xlink:href="#ArialMT-31"/>
       <use xlink:href="#ArialMT-35" x="55.615234"/>
       <use xlink:href="#ArialMT-35" x="111.230469"/>
       <use xlink:href="#ArialMT-30" x="166.845703"/>
       <use xlink:href="#ArialMT-30" x="222.460938"/>
      </g>
     </g>
    </g>
    <g id="ytick_8">
     <g id="line2d_16">
      <path d="M 52.608594 65.034343 
L 577.19952 65.034343 
" clip-path="url(#p259e1b3dc5)" style="fill: none; stroke: #ffffff; stroke-width: 0.8; stroke-linecap: round"/>
     </g>
     <g id="text_17">
      <!-- 16000 -->
      <g style="fill: #555555" transform="translate(20.584375 68.255359) scale(0.09 -0.09)">
       <use xlink:href="#ArialMT-31"/>
       <use xlink:href="#ArialMT-36" x="55.615234"/>
       <use xlink:href="#ArialMT-30" x="111.230469"/>
       <use xlink:href="#ArialMT-30" x="166.845703"/>
       <use xlink:href="#ArialMT-30" x="222.460938"/>
      </g>
     </g>
    </g>
    <g id="ytick_9">
     <g id="line2d_17">
      <path d="M 52.608594 28.299872 
L 577.19952 28.299872 
" clip-path="url(#p259e1b3dc5)" style="fill: none; stroke: #ffffff; stroke-width: 0.8; stroke-linecap: round"/>
     </g>
     <g id="text_18">
      <!-- 16500 -->
      <g style="fill: #555555" transform="translate(20.584375 31.520888) scale(0.09 -0.09)">
       <use xlink:href="#ArialMT-31"/>
       <use xlink:href="#ArialMT-36" x="55.615234"/>
       <use xlink:href="#ArialMT-35" x="111.230469"/>
       <use xlink:href="#ArialMT-30" x="166.845703"/>
       <use xlink:href="#ArialMT-30" x="222.460938"/>
      </g>
     </g>
    </g>
    <g id="text_19">
     <!-- Persons (thousands) -->
     <g style="fill: #555555" transform="translate(14.479688 223.496713) rotate(-90) scale(0.1 -0.1)">
      <defs>
       <path id="ArialMT-50" d="M 494 0 
L 494 4581 
L 2222 4581 
Q 2678 4581 2919 4538 
Q 3256 4481 3484 4323 
Q 3713 4166 3852 3881 
Q 3991 3597 3991 3256 
Q 3991 2672 3619 2267 
Q 3247 1863 2275 1863 
L 1100 1863 
L 1100 0 
L 494 0 
z
M 1100 2403 
L 2284 2403 
Q 2872 2403 3119 2622 
Q 3366 2841 3366 3238 
Q 3366 3525 3220 3729 
Q 3075 3934 2838 4000 
Q 2684 4041 2272 4041 
L 1100 4041 
L 1100 2403 
z
" transform="scale(0.015625)"/>
       <path id="ArialMT-65" d="M 2694 1069 
L 3275 997 
Q 3138 488 2766 206 
Q 2394 -75 1816 -75 
Q 1088 -75 661 373 
Q 234 822 234 1631 
Q 234 2469 665 2931 
Q 1097 3394 1784 3394 
Q 2450 3394 2872 2941 
Q 3294 2488 3294 1666 
Q 3294 1616 3291 1516 
L 816 1516 
Q 847 969 1125 678 
Q 1403 388 1819 388 
Q 2128 388 2347 550 
Q 2566 713 2694 1069 
z
M 847 1978 
L 2700 1978 
Q 2663 2397 2488 2606 
Q 2219 2931 1791 2931 
Q 1403 2931 1139 2672 
Q 875 2413 847 1978 
z
" transform="scale(0.015625)"/>
       <path id="ArialMT-72" d="M 416 0 
L 416 3319 
L 922 3319 
L 922 2816 
Q 1116 3169 1280 3281 
Q 1444 3394 1641 3394 
Q 1925 3394 2219 3213 
L 2025 2691 
Q 1819 2813 1613 2813 
Q 1428 2813 1281 2702 
Q 1134 2591 1072 2394 
Q 978 2094 978 1738 
L 978 0 
L 416 0 
z
" transform="scale(0.015625)"/>
       <path id="ArialMT-73" d="M 197 991 
L 753 1078 
Q 800 744 1014 566 
Q 1228 388 1613 388 
Q 2000 388 2187 545 
Q 2375 703 2375 916 
Q 2375 1106 2209 1216 
Q 2094 1291 1634 1406 
Q 1016 1563 777 1677 
Q 538 1791 414 1992 
Q 291 2194 291 2438 
Q 291 2659 392 2848 
Q 494 3038 669 3163 
Q 800 3259 1026 3326 
Q 1253 3394 1513 3394 
Q 1903 3394 2198 3281 
Q 2494 3169 2634 2976 
Q 2775 2784 2828 2463 
L 2278 2388 
Q 2241 2644 2061 2787 
Q 1881 2931 1553 2931 
Q 1166 2931 1000 2803 
Q 834 2675 834 2503 
Q 834 2394 903 2306 
Q 972 2216 1119 2156 
Q 1203 2125 1616 2013 
Q 2213 1853 2448 1751 
Q 2684 1650 2818 1456 
Q 2953 1263 2953 975 
Q 2953 694 2789 445 
Q 2625 197 2315 61 
Q 2006 -75 1616 -75 
Q 969 -75 630 194 
Q 291 463 197 991 
z
" transform="scale(0.015625)"/>
       <path id="ArialMT-28" d="M 1497 -1347 
Q 1031 -759 709 28 
Q 388 816 388 1659 
Q 388 2403 628 3084 
Q 909 3875 1497 4659 
L 1900 4659 
Q 1522 4009 1400 3731 
Q 1209 3300 1100 2831 
Q 966 2247 966 1656 
Q 966 153 1900 -1347 
L 1497 -1347 
z
" transform="scale(0.015625)"/>
       <path id="ArialMT-75" d="M 2597 0 
L 2597 488 
Q 2209 -75 1544 -75 
Q 1250 -75 995 37 
Q 741 150 617 320 
Q 494 491 444 738 
Q 409 903 409 1263 
L 409 3319 
L 972 3319 
L 972 1478 
Q 972 1038 1006 884 
Q 1059 663 1231 536 
Q 1403 409 1656 409 
Q 1909 409 2131 539 
Q 2353 669 2445 892 
Q 2538 1116 2538 1541 
L 2538 3319 
L 3100 3319 
L 3100 0 
L 2597 0 
z
" transform="scale(0.015625)"/>
       <path id="ArialMT-61" d="M 2588 409 
Q 2275 144 1986 34 
Q 1697 -75 1366 -75 
Q 819 -75 525 192 
Q 231 459 231 875 
Q 231 1119 342 1320 
Q 453 1522 633 1644 
Q 813 1766 1038 1828 
Q 1203 1872 1538 1913 
Q 2219 1994 2541 2106 
Q 2544 2222 2544 2253 
Q 2544 2597 2384 2738 
Q 2169 2928 1744 2928 
Q 1347 2928 1158 2789 
Q 969 2650 878 2297 
L 328 2372 
Q 403 2725 575 2942 
Q 747 3159 1072 3276 
Q 1397 3394 1825 3394 
Q 2250 3394 2515 3294 
Q 2781 3194 2906 3042 
Q 3031 2891 3081 2659 
Q 3109 2516 3109 2141 
L 3109 1391 
Q 3109 606 3145 398 
Q 3181 191 3288 0 
L 2700 0 
Q 2613 175 2588 409 
z
M 2541 1666 
Q 2234 1541 1622 1453 
Q 1275 1403 1131 1340 
Q 988 1278 909 1158 
Q 831 1038 831 891 
Q 831 666 1001 516 
Q 1172 366 1500 366 
Q 1825 366 2078 508 
Q 2331 650 2450 897 
Q 2541 1088 2541 1459 
L 2541 1666 
z
" transform="scale(0.015625)"/>
       <path id="ArialMT-64" d="M 2575 0 
L 2575 419 
Q 2259 -75 1647 -75 
Q 1250 -75 917 144 
Q 584 363 401 755 
Q 219 1147 219 1656 
Q 219 2153 384 2558 
Q 550 2963 881 3178 
Q 1213 3394 1622 3394 
Q 1922 3394 2156 3267 
Q 2391 3141 2538 2938 
L 2538 4581 
L 3097 4581 
L 3097 0 
L 2575 0 
z
M 797 1656 
Q 797 1019 1065 703 
Q 1334 388 1700 388 
Q 2069 388 2326 689 
Q 2584 991 2584 1609 
Q 2584 2291 2321 2609 
Q 2059 2928 1675 2928 
Q 1300 2928 1048 2622 
Q 797 2316 797 1656 
z
" transform="scale(0.015625)"/>
       <path id="ArialMT-29" d="M 791 -1347 
L 388 -1347 
Q 1322 153 1322 1656 
Q 1322 2244 1188 2822 
Q 1081 3291 891 3722 
Q 769 4003 388 4659 
L 791 4659 
Q 1378 3875 1659 3084 
Q 1900 2403 1900 1659 
Q 1900 816 1576 28 
Q 1253 -759 791 -1347 
z
" transform="scale(0.015625)"/>
      </defs>
      <use xlink:href="#ArialMT-50"/>
      <use xlink:href="#ArialMT-65" x="66.699219"/>
      <use xlink:href="#ArialMT-72" x="122.314453"/>
      <use xlink:href="#ArialMT-73" x="155.615234"/>
      <use xlink:href="#ArialMT-6f" x="205.615234"/>
      <use xlink:href="#ArialMT-6e" x="261.230469"/>
      <use xlink:href="#ArialMT-73" x="316.845703"/>
      <use xlink:href="#ArialMT-20" x="366.845703"/>
      <use xlink:href="#ArialMT-28" x="394.628906"/>
      <use xlink:href="#ArialMT-74" x="427.929688"/>
      <use xlink:href="#ArialMT-68" x="455.712891"/>
      <use xlink:href="#ArialMT-6f" x="511.328125"/>
      <use xlink:href="#ArialMT-75" x="566.943359"/>
      <use xlink:href="#ArialMT-73" x="622.558594"/>
      <use xlink:href="#ArialMT-61" x="672.558594"/>
      <use xlink:href="#ArialMT-6e" x="728.173828"/>
      <use xlink:href="#ArialMT-64" x="783.789062"/>
      <use xlink:href="#ArialMT-73" x="839.404297"/>
      <use xlink:href="#ArialMT-29" x="889.404297"/>
     </g>
    </g>
   </g>
   <g id="PolyCollection_1"/>
   <g id="PolyCollection_2"/>
   <g id="line2d_18">
    <path d="M 76.453636 266.647814 
L 77.818096 287.917072 
L 79.050512 289.98155 
L 80.414972 284.537501 
L 81.735417 277.484483 
L 83.099877 272.011046 
L 84.420323 272.944102 
L 85.784783 273.722873 
L 87.149243 277.109791 
L 88.469688 271.834721 
L 89.834149 251.505865 
L 91.154594 235.989224 
L 92.519054 280.42324 
L 93.883514 304.234524 
L 95.11593 308.62062 
L 96.48039 308.436948 
L 97.800836 301.560255 
L 99.165296 295.80029 
L 100.485741 296.527632 
L 101.850201 294.896622 
L 103.214661 298.445172 
L 104.535107 293.846016 
L 107.220012 256.707466 
L 108.584472 300.972503 
L 109.948933 315.849964 
L 111.225363 318.663824 
L 112.589823 312.161823 
L 113.910269 304.513706 
L 115.274729 298.290887 
L 116.595174 299.77496 
L 117.959634 299.356187 
L 119.324095 301.317807 
L 120.64454 293.493365 
L 123.329445 255.186659 
L 124.693906 296.512938 
L 126.058366 307.356954 
L 127.290781 310.839382 
L 128.655242 304.153708 
L 129.975687 295.418251 
L 131.340147 287.277892 
L 132.660593 284.765255 
L 134.025053 281.899966 
L 135.389513 281.870578 
L 136.709958 272.56941 
L 138.074418 251.829128 
L 139.394864 229.935383 
L 140.759324 274.215115 
L 142.123784 284.346482 
L 143.3562 281.664865 
L 144.72066 273.296753 
L 147.405565 253.93034 
L 150.090471 245.077332 
L 151.454931 242.726326 
L 152.775377 232.080676 
L 154.139837 204.860433 
L 155.460282 184.031988 
L 156.824742 228.488045 
L 158.189202 242.865917 
L 159.421618 245.826715 
L 163.470984 221.192579 
L 164.791429 220.920744 
L 166.155889 218.716676 
L 167.520349 219.759935 
L 168.840795 211.524066 
L 170.205255 186.478504 
L 171.5257 168.735755 
L 172.890161 217.284031 
L 174.254621 231.757413 
L 175.531051 230.479053 
L 176.895511 225.806429 
L 178.215957 212.435081 
L 179.580417 204.074316 
L 182.265322 199.680873 
L 183.629783 200.694744 
L 184.950228 187.896455 
L 186.314688 161.131719 
L 187.635133 141.721225 
L 188.999594 195.28743 
L 190.364054 210.253054 
L 191.59647 209.040816 
L 192.96093 203.251464 
L 194.281375 194.20009 
L 195.645835 187.044215 
L 196.966281 185.912793 
L 198.330741 183.172402 
L 199.695201 185.560142 
L 201.015646 172.813281 
L 202.380106 145.548957 
L 203.700552 125.536017 
L 205.065012 178.485083 
L 206.429472 194.097233 
L 207.661888 195.360899 
L 209.026348 188.315228 
L 210.346793 177.30958 
L 211.711254 170.175746 
L 213.031699 167.736577 
L 214.396159 166.64189 
L 215.760619 167.788005 
L 217.081065 157.193784 
L 218.445525 130.098438 
L 219.76597 109.975295 
L 221.13043 160.161929 
L 222.49489 170.300643 
L 223.727306 169.734932 
L 225.091766 160.84519 
L 226.412212 151.139943 
L 227.776672 143.572642 
L 229.097117 140.237152 
L 230.461577 139.149812 
L 231.826038 141.184901 
L 233.146483 128.540896 
L 234.510943 101.408816 
L 235.831388 78.780382 
L 237.195849 129.473952 
L 238.560309 144.498351 
L 239.836739 142.588158 
L 241.201199 131.89108 
L 242.521645 127.820901 
L 243.886105 120.826658 
L 245.20655 120.723801 
L 246.571011 118.453611 
L 247.935471 120.907473 
L 249.255916 110.372027 
L 250.620376 81.439958 
L 251.940822 62.999253 
L 253.305282 117.34423 
L 254.669742 131.567817 
L 255.902158 132.846176 
L 257.266618 135.064939 
L 258.587063 126.917233 
L 259.951523 120.275641 
L 261.271969 126.395603 
L 262.636429 124.566227 
L 264.000889 129.069873 
L 265.321334 122.038895 
L 266.685795 96.177828 
L 268.00624 86.053807 
L 269.3707 139.605319 
L 270.73516 154.232986 
L 271.967576 152.175855 
L 273.332036 147.723637 
L 274.652481 141.412655 
L 276.016942 136.049422 
L 277.337387 137.629005 
L 278.701847 139.891848 
L 280.066307 145.313856 
L 281.386753 136.034729 
L 282.751213 110.298558 
L 284.071658 96.111706 
L 285.436118 148.862406 
L 286.800579 164.048436 
L 288.032994 164.041089 
L 289.397454 158.641122 
L 290.7179 151.272187 
L 292.08236 146.621603 
L 293.402805 148.752202 
L 294.767265 145.98977 
L 296.131726 148.406898 
L 297.452171 137.746555 
L 298.816631 115.345875 
L 300.137076 101.386776 
L 301.501537 148.68608 
L 302.865997 160.999475 
L 305.506888 148.583224 
L 306.827333 139.458381 
L 308.191793 132.478832 
L 309.512238 134.734328 
L 310.876699 134.477187 
L 312.241159 138.782467 
L 313.561604 127.152333 
L 314.926064 99.843928 
L 316.24651 86.553396 
L 317.61097 134.749022 
L 318.97543 144.975899 
L 320.207846 141.765306 
L 321.572306 133.441275 
L 322.892751 124.213576 
L 324.257211 116.455256 
L 325.577657 114.43486 
L 326.942117 112.877318 
L 328.306577 121.869917 
L 329.627022 112.869971 
L 330.991483 83.996677 
L 332.311928 69.56003 
L 333.676388 120.459313 
L 335.040848 133.566172 
L 336.273264 127.475597 
L 337.637724 125.918055 
L 340.32263 114.067515 
L 341.643075 114.523022 
L 343.007535 113.729558 
L 344.371995 121.216043 
L 345.692441 110.144273 
L 347.056901 78.736301 
L 348.377346 66.327396 
L 349.741806 113.340172 
L 351.106267 125.131938 
L 352.338682 116.389134 
L 353.703142 114.4569 
L 355.023588 104.494512 
L 356.388048 100.923921 
L 357.708493 100.710861 
L 359.072954 98.954954 
L 360.437414 106.110829 
L 361.757859 99.638215 
L 363.122319 65.431075 
L 364.442765 53.132374 
L 365.807225 104.406349 
L 367.171685 121.517266 
L 368.448115 117.571983 
L 369.812576 120.312375 
L 371.133021 116.315665 
L 372.497481 113.318132 
L 375.182387 118.600549 
L 376.546847 131.200472 
L 377.867292 128.357224 
L 379.231752 112.664258 
L 380.552198 107.323066 
L 381.916658 161.381514 
L 383.281118 179.719361 
L 384.513534 181.805879 
L 385.877994 182.614038 
L 387.198439 175.575713 
L 388.562899 172.041857 
L 389.883345 176.023874 
L 391.247805 175.58306 
L 392.612265 184.972391 
L 393.93271 181.629554 
L 395.297171 158.36194 
L 396.617616 148.517102 
L 397.982076 190.629499 
L 399.346536 202.935547 
L 400.578952 196.595177 
L 401.943412 192.201735 
L 403.263858 184.046682 
L 404.628318 179.513648 
L 405.948763 179.271201 
L 407.313223 177.904679 
L 408.677683 185.449939 
L 409.998129 174.466332 
L 411.362589 149.530973 
L 412.683034 137.886146 
L 414.047495 179.01406 
L 415.411955 191.217251 
L 416.64437 186.309526 
L 418.008831 176.045914 
L 419.329276 168.721061 
L 420.693736 161.844368 
L 422.014181 159.221527 
L 423.378642 159.258261 
L 424.743102 166.627196 
L 426.063547 156.745623 
L 427.428007 128.048655 
L 428.748453 116.70505 
L 430.112913 158.009289 
L 431.477373 173.746336 
L 432.753803 169.3382 
L 434.118264 162.718648 
L 435.438709 154.997062 
L 436.803169 152.028917 
L 438.123615 152.631363 
L 439.488075 152.080346 
L 440.852535 157.686026 
L 442.17298 147.488537 
L 443.53744 111.834059 
L 444.857886 104.523899 
L 446.222346 148.921181 
L 447.586806 162.579057 
L 448.819222 159.684381 
L 450.183682 152.565241 
L 451.504127 143.477132 
L 452.868588 135.182489 
L 454.189033 131.354757 
L 455.553493 128.827425 
L 456.917953 134.638819 
L 458.238399 122.905829 
L 459.602859 90.359087 
L 460.923304 76.833455 
L 462.287764 125.962137 
L 463.652224 142.044488 
L 464.88464 137.371863 
L 466.2491 128.43804 
L 467.569546 120.951555 
L 468.934006 112.451198 
L 470.254451 109.909173 
L 471.618911 110.5557 
L 472.983372 116.550765 
L 474.303817 103.120643 
L 475.668277 72.80001 
L 476.988722 61.500487 
L 478.353183 107.565514 
L 479.717643 120.510741 
L 480.950058 115.603016 
L 482.314519 108.983464 
L 483.634964 99.542705 
L 484.999424 92.915807 
L 486.319869 90.96888 
L 487.68433 92.489687 
L 489.04879 100.78433 
L 490.369235 87.310126 
L 491.733695 57.996018 
L 493.054141 48.760972 
L 494.418601 92.533768 
L 495.783061 102.753298 
L 497.059492 96.126399 
L 498.423952 90.843982 
L 501.108857 75.92244 
L 502.429303 74.262042 
L 503.793763 74.982038 
L 505.158223 83.379538 
L 506.478668 72.417972 
L 507.843129 45.917724 
L 509.163574 36.065539 
L 510.528034 75.731421 
L 511.892494 92.372136 
L 513.12491 91.850507 
L 514.48937 88.059509 
L 515.809815 82.703624 
L 517.174276 76.568967 
L 518.494721 76.708558 
L 519.859181 78.978748 
L 521.223641 88.595833 
L 522.544087 78.2661 
L 523.908547 44.036919 
L 525.228992 42.560194 
L 526.593452 85.708503 
L 527.957913 96.111706 
L 529.190328 93.628455 
L 530.554788 88.441548 
L 531.875234 79.933845 
L 533.239694 76.429376 
L 534.560139 75.724074 
L 535.924599 77.164065 
L 537.28906 88.500323 
L 538.609505 79.985273 
L 539.973965 43.63284 
L 541.29441 42.317746 
L 542.658871 83.144437 
L 544.023331 96.817007 
L 545.255746 96.141093 
L 546.620207 92.592543 
L 547.940652 87.692165 
L 549.305112 81.528121 
L 550.625558 80.764044 
L 551.990018 83.438313 
L 553.354478 93.591721 
L 553.354478 93.591721 
" clip-path="url(#p259e1b3dc5)" style="fill: none; stroke: #808080; stroke-width: 1.5; stroke-linecap: round"/>
   </g>
   <g id="line2d_19">
    <path d="M 85.784783 272.381146 
L 87.149243 273.635016 
L 88.469688 275.091538 
L 89.834149 276.863976 
L 95.11593 284.696071 
L 97.800836 288.273397 
L 101.850201 293.677956 
L 103.214661 295.018152 
L 104.535107 295.920595 
L 105.899567 296.494265 
L 112.589823 297.865073 
L 113.910269 297.970073 
L 116.595174 297.911603 
L 117.959634 297.662421 
L 119.324095 297.122731 
L 123.329445 295.070498 
L 124.693906 294.232646 
L 126.058366 293.148367 
L 128.655242 290.257976 
L 131.340147 286.755345 
L 134.025053 282.773328 
L 135.389513 280.885482 
L 136.709958 278.711108 
L 139.394864 273.605322 
L 142.123784 268.048315 
L 147.405565 254.927374 
L 150.090471 247.239768 
L 152.775377 240.384504 
L 156.824742 231.702924 
L 159.421618 226.838667 
L 162.106524 222.969915 
L 164.791429 219.944219 
L 166.155889 218.840042 
L 167.520349 217.910354 
L 171.5257 214.480579 
L 174.254621 211.541821 
L 178.215957 206.593076 
L 179.580417 204.552476 
L 182.265322 200.328624 
L 187.635133 193.194178 
L 191.59647 188.988387 
L 205.065012 175.893466 
L 211.711254 168.871978 
L 214.396159 166.168015 
L 215.760619 164.413026 
L 218.445525 160.141419 
L 227.776672 144.216414 
L 231.826038 136.78901 
L 235.831388 130.067214 
L 238.560309 126.387032 
L 241.201199 123.004399 
L 243.886105 119.813398 
L 245.20655 118.323816 
L 247.935471 116.116686 
L 249.255916 115.171998 
L 250.620376 114.898326 
L 251.940822 114.992917 
L 253.305282 114.932306 
L 254.669742 115.145672 
L 257.266618 116.231481 
L 258.587063 117.057701 
L 259.951523 118.157898 
L 261.271969 119.732583 
L 265.321334 125.242447 
L 266.685795 126.575296 
L 271.967576 131.19986 
L 274.652481 133.775252 
L 277.337387 135.954219 
L 281.386753 138.457061 
L 284.071658 140.27205 
L 288.032994 142.744892 
L 289.397454 143.127849 
L 292.08236 143.609683 
L 293.402805 144.039782 
L 294.767265 144.25223 
L 296.131726 144.117843 
L 297.452171 143.613662 
L 298.816631 142.817443 
L 300.137076 141.906122 
L 302.865997 139.651237 
L 304.142427 138.587468 
L 306.827333 136.864315 
L 308.191793 135.776975 
L 310.876699 133.314235 
L 317.61097 127.096313 
L 318.97543 125.582853 
L 320.207846 123.837047 
L 321.572306 122.232363 
L 326.942117 117.005354 
L 330.991483 113.954863 
L 332.311928 113.459866 
L 333.676388 113.178847 
L 335.040848 113.083031 
L 337.637724 113.13048 
L 338.958169 112.989664 
L 341.643075 112.303036 
L 343.007535 111.871712 
L 344.371995 111.223655 
L 347.056901 109.470808 
L 351.106267 106.042258 
L 353.703142 103.60615 
L 357.708493 100.4427 
L 359.072954 99.520664 
L 360.437414 98.99781 
L 361.757859 98.896485 
L 363.122319 99.189748 
L 364.442765 99.926274 
L 367.171685 102.081975 
L 368.448115 103.530844 
L 369.812576 105.394812 
L 371.133021 107.63684 
L 372.497481 110.801514 
L 375.182387 119.65942 
L 376.546847 124.458472 
L 381.916658 144.813349 
L 387.198439 163.724867 
L 388.562899 167.848617 
L 389.883345 171.469105 
L 391.247805 174.40419 
L 392.612265 176.590197 
L 393.93271 178.173759 
L 395.297171 179.189467 
L 397.982076 180.606193 
L 399.346536 181.052823 
L 400.578952 181.284862 
L 401.943412 181.401494 
L 403.263858 181.122924 
L 404.628318 180.4565 
L 407.313223 178.718653 
L 411.362589 175.727855 
L 414.047495 173.041341 
L 415.411955 171.469718 
L 416.64437 169.85738 
L 420.693736 165.140062 
L 423.378642 161.604675 
L 426.063547 158.566429 
L 428.748453 156.176851 
L 430.112913 155.196041 
L 435.438709 152.508914 
L 436.803169 151.447594 
L 438.123615 150.264438 
L 444.857886 145.938342 
L 446.222346 144.75641 
L 447.586806 143.167951 
L 451.504127 137.398802 
L 454.189033 133.431173 
L 455.553493 131.320778 
L 459.602859 125.78826 
L 462.287764 121.958692 
L 464.88464 118.463101 
L 472.983372 109.37438 
L 475.668277 105.852463 
L 478.353183 102.44381 
L 482.314519 97.889042 
L 484.999424 95.297731 
L 487.68433 92.992949 
L 489.04879 91.626733 
L 491.733695 88.507976 
L 498.423952 81.440876 
L 499.744397 80.09517 
L 505.158223 75.577442 
L 506.478668 74.966732 
L 507.843129 74.67255 
L 509.163574 74.514286 
L 510.528034 74.49898 
L 511.892494 74.627856 
L 514.48937 75.280199 
L 515.809815 75.741217 
L 518.494721 76.098766 
L 521.223641 77.356615 
L 522.544087 77.586512 
L 523.908547 77.676511 
L 530.554788 77.212739 
L 534.560139 77.308248 
L 537.28906 77.113862 
L 538.609505 77.247942 
L 539.973965 77.525594 
L 546.620207 79.924967 
L 546.620207 79.924967 
" clip-path="url(#p259e1b3dc5)" style="fill: none; stroke: #d55e00; stroke-width: 1.5; stroke-linecap: round"/>
   </g>
   <g id="patch_3">
    <path d="M 52.608594 332.793739 
L 52.608594 21.935625 
" style="fill: none; stroke: #ffffff; stroke-linejoin: miter; stroke-linecap: square"/>
   </g>
   <g id="patch_4">
    <path d="M 577.19952 332.793739 
L 577.19952 21.935625 
" style="fill: none; stroke: #ffffff; stroke-linejoin: miter; stroke-linecap: square"/>
   </g>
   <g id="patch_5">
    <path d="M 52.608594 332.793739 
L 577.19952 332.793739 
" style="fill: none; stroke: #ffffff; stroke-linejoin: miter; stroke-linecap: square"/>
   </g>
   <g id="patch_6">
    <path d="M 52.608594 21.935625 
L 577.19952 21.935625 
" style="fill: none; stroke: #ffffff; stroke-linejoin: miter; stroke-linecap: square"/>
   </g>
   <g id="text_20">
    <!-- Total employment in US retail -->
    <g style="fill: #262626" transform="translate(236.878744 15.935625) scale(0.12 -0.12)">
     <defs>
      <path id="ArialMT-54" d="M 1659 0 
L 1659 4041 
L 150 4041 
L 150 4581 
L 3781 4581 
L 3781 4041 
L 2266 4041 
L 2266 0 
L 1659 0 
z
" transform="scale(0.015625)"/>
      <path id="ArialMT-6c" d="M 409 0 
L 409 4581 
L 972 4581 
L 972 0 
L 409 0 
z
" transform="scale(0.015625)"/>
      <path id="ArialMT-6d" d="M 422 0 
L 422 3319 
L 925 3319 
L 925 2853 
Q 1081 3097 1340 3245 
Q 1600 3394 1931 3394 
Q 2300 3394 2536 3241 
Q 2772 3088 2869 2813 
Q 3263 3394 3894 3394 
Q 4388 3394 4653 3120 
Q 4919 2847 4919 2278 
L 4919 0 
L 4359 0 
L 4359 2091 
Q 4359 2428 4304 2576 
Q 4250 2725 4106 2815 
Q 3963 2906 3769 2906 
Q 3419 2906 3187 2673 
Q 2956 2441 2956 1928 
L 2956 0 
L 2394 0 
L 2394 2156 
Q 2394 2531 2256 2718 
Q 2119 2906 1806 2906 
Q 1569 2906 1367 2781 
Q 1166 2656 1075 2415 
Q 984 2175 984 1722 
L 984 0 
L 422 0 
z
" transform="scale(0.015625)"/>
      <path id="ArialMT-70" d="M 422 -1272 
L 422 3319 
L 934 3319 
L 934 2888 
Q 1116 3141 1344 3267 
Q 1572 3394 1897 3394 
Q 2322 3394 2647 3175 
Q 2972 2956 3137 2557 
Q 3303 2159 3303 1684 
Q 3303 1175 3120 767 
Q 2938 359 2589 142 
Q 2241 -75 1856 -75 
Q 1575 -75 1351 44 
Q 1128 163 984 344 
L 984 -1272 
L 422 -1272 
z
M 931 1641 
Q 931 1000 1190 694 
Q 1450 388 1819 388 
Q 2194 388 2461 705 
Q 2728 1022 2728 1688 
Q 2728 2322 2467 2637 
Q 2206 2953 1844 2953 
Q 1484 2953 1207 2617 
Q 931 2281 931 1641 
z
" transform="scale(0.015625)"/>
      <path id="ArialMT-79" d="M 397 -1278 
L 334 -750 
Q 519 -800 656 -800 
Q 844 -800 956 -737 
Q 1069 -675 1141 -563 
Q 1194 -478 1313 -144 
Q 1328 -97 1363 -6 
L 103 3319 
L 709 3319 
L 1400 1397 
Q 1534 1031 1641 628 
Q 1738 1016 1872 1384 
L 2581 3319 
L 3144 3319 
L 1881 -56 
Q 1678 -603 1566 -809 
Q 1416 -1088 1222 -1217 
Q 1028 -1347 759 -1347 
Q 597 -1347 397 -1278 
z
" transform="scale(0.015625)"/>
      <path id="ArialMT-69" d="M 425 3934 
L 425 4581 
L 988 4581 
L 988 3934 
L 425 3934 
z
M 425 0 
L 425 3319 
L 988 3319 
L 988 0 
L 425 0 
z
" transform="scale(0.015625)"/>
      <path id="ArialMT-55" d="M 3500 4581 
L 4106 4581 
L 4106 1934 
Q 4106 1244 3950 837 
Q 3794 431 3386 176 
Q 2978 -78 2316 -78 
Q 1672 -78 1262 144 
Q 853 366 678 786 
Q 503 1206 503 1934 
L 503 4581 
L 1109 4581 
L 1109 1938 
Q 1109 1341 1220 1058 
Q 1331 775 1601 622 
Q 1872 469 2263 469 
Q 2931 469 3215 772 
Q 3500 1075 3500 1938 
L 3500 4581 
z
" transform="scale(0.015625)"/>
      <path id="ArialMT-53" d="M 288 1472 
L 859 1522 
Q 900 1178 1048 958 
Q 1197 738 1509 602 
Q 1822 466 2213 466 
Q 2559 466 2825 569 
Q 3091 672 3220 851 
Q 3350 1031 3350 1244 
Q 3350 1459 3225 1620 
Q 3100 1781 2813 1891 
Q 2628 1963 1997 2114 
Q 1366 2266 1113 2400 
Q 784 2572 623 2826 
Q 463 3081 463 3397 
Q 463 3744 659 4045 
Q 856 4347 1234 4503 
Q 1613 4659 2075 4659 
Q 2584 4659 2973 4495 
Q 3363 4331 3572 4012 
Q 3781 3694 3797 3291 
L 3216 3247 
Q 3169 3681 2898 3903 
Q 2628 4125 2100 4125 
Q 1550 4125 1298 3923 
Q 1047 3722 1047 3438 
Q 1047 3191 1225 3031 
Q 1400 2872 2139 2705 
Q 2878 2538 3153 2413 
Q 3553 2228 3743 1945 
Q 3934 1663 3934 1294 
Q 3934 928 3725 604 
Q 3516 281 3123 101 
Q 2731 -78 2241 -78 
Q 1619 -78 1198 103 
Q 778 284 539 648 
Q 300 1013 288 1472 
z
" transform="scale(0.015625)"/>
     </defs>
     <use xlink:href="#ArialMT-54"/>
     <use xlink:href="#ArialMT-6f" x="49.958984"/>
     <use xlink:href="#ArialMT-74" x="105.574219"/>
     <use xlink:href="#ArialMT-61" x="133.357422"/>
     <use xlink:href="#ArialMT-6c" x="188.972656"/>
     <use xlink:href="#ArialMT-20" x="211.189453"/>
     <use xlink:href="#ArialMT-65" x="238.972656"/>
     <use xlink:href="#ArialMT-6d" x="294.587891"/>
     <use xlink:href="#ArialMT-70" x="377.888672"/>
     <use xlink:href="#ArialMT-6c" x="433.503906"/>
     <use xlink:href="#ArialMT-6f" x="455.720703"/>
     <use xlink:href="#ArialMT-79" x="511.335938"/>
     <use xlink:href="#ArialMT-6d" x="561.335938"/>
     <use xlink:href="#ArialMT-65" x="644.636719"/>
     <use xlink:href="#ArialMT-6e" x="700.251953"/>
     <use xlink:href="#ArialMT-74" x="755.867188"/>
     <use xlink:href="#ArialMT-20" x="783.650391"/>
     <use xlink:href="#ArialMT-69" x="811.433594"/>
     <use xlink:href="#ArialMT-6e" x="833.650391"/>
     <use xlink:href="#ArialMT-20" x="889.265625"/>
     <use xlink:href="#ArialMT-55" x="917.048828"/>
     <use xlink:href="#ArialMT-53" x="989.265625"/>
     <use xlink:href="#ArialMT-20" x="1055.964844"/>
     <use xlink:href="#ArialMT-72" x="1083.748047"/>
     <use xlink:href="#ArialMT-65" x="1117.048828"/>
     <use xlink:href="#ArialMT-74" x="1172.664062"/>
     <use xlink:href="#ArialMT-61" x="1200.447266"/>
     <use xlink:href="#ArialMT-69" x="1256.0625"/>
     <use xlink:href="#ArialMT-6c" x="1278.279297"/>
    </g>
   </g>
   <g id="legend_1">
    <g id="patch_7">
     <path d="M 58.908594 54.597187 
L 123.719844 54.597187 
Q 125.519844 54.597187 125.519844 52.797187 
L 125.519844 28.235625 
Q 125.519844 26.435625 123.719844 26.435625 
L 58.908594 26.435625 
Q 57.108594 26.435625 57.108594 28.235625 
L 57.108594 52.797187 
Q 57.108594 54.597187 58.908594 54.597187 
z
" style="fill: #e5e5e5; opacity: 0.8; stroke: #cccccc; stroke-width: 0.5; stroke-linejoin: miter"/>
    </g>
    <g id="line2d_20">
     <path d="M 60.708594 33.327656 
L 69.708594 33.327656 
L 78.708594 33.327656 
" style="fill: none; stroke: #808080; stroke-width: 1.5; stroke-linecap: round"/>
    </g>
    <g id="text_21">
     <!-- Data -->
     <g style="fill: #262626" transform="translate(85.908594 36.477656) scale(0.09 -0.09)">
      <defs>
       <path id="ArialMT-44" d="M 494 0 
L 494 4581 
L 2072 4581 
Q 2606 4581 2888 4516 
Q 3281 4425 3559 4188 
Q 3922 3881 4101 3404 
Q 4281 2928 4281 2316 
Q 4281 1794 4159 1391 
Q 4038 988 3847 723 
Q 3656 459 3429 307 
Q 3203 156 2883 78 
Q 2563 0 2147 0 
L 494 0 
z
M 1100 541 
L 2078 541 
Q 2531 541 2789 625 
Q 3047 709 3200 863 
Q 3416 1078 3536 1442 
Q 3656 1806 3656 2325 
Q 3656 3044 3420 3430 
Q 3184 3816 2847 3947 
Q 2603 4041 2063 4041 
L 1100 4041 
L 1100 541 
z
" transform="scale(0.015625)"/>
      </defs>
      <use xlink:href="#ArialMT-44"/>
      <use xlink:href="#ArialMT-61" x="72.216797"/>
      <use xlink:href="#ArialMT-74" x="127.832031"/>
      <use xlink:href="#ArialMT-61" x="155.615234"/>
     </g>
    </g>
    <g id="line2d_21">
     <path d="M 60.708594 46.058437 
L 69.708594 46.058437 
L 78.708594 46.058437 
" style="fill: none; stroke: #d55e00; stroke-width: 1.5; stroke-linecap: round"/>
    </g>
    <g id="text_22">
     <!-- 2x12-MA -->
     <g style="fill: #262626" transform="translate(85.908594 49.208437) scale(0.09 -0.09)">
      <defs>
       <path id="ArialMT-78" d="M 47 0 
L 1259 1725 
L 138 3319 
L 841 3319 
L 1350 2541 
Q 1494 2319 1581 2169 
Q 1719 2375 1834 2534 
L 2394 3319 
L 3066 3319 
L 1919 1756 
L 3153 0 
L 2463 0 
L 1781 1031 
L 1600 1309 
L 728 0 
L 47 0 
z
" transform="scale(0.015625)"/>
       <path id="ArialMT-2d" d="M 203 1375 
L 203 1941 
L 1931 1941 
L 1931 1375 
L 203 1375 
z
" transform="scale(0.015625)"/>
       <path id="ArialMT-41" d="M -9 0 
L 1750 4581 
L 2403 4581 
L 4278 0 
L 3588 0 
L 3053 1388 
L 1138 1388 
L 634 0 
L -9 0 
z
M 1313 1881 
L 2866 1881 
L 2388 3150 
Q 2169 3728 2063 4100 
Q 1975 3659 1816 3225 
L 1313 1881 
z
" transform="scale(0.015625)"/>
      </defs>
      <use xlink:href="#ArialMT-32"/>
      <use xlink:href="#ArialMT-78" x="55.615234"/>
      <use xlink:href="#ArialMT-31" x="105.615234"/>
      <use xlink:href="#ArialMT-32" x="161.230469"/>
      <use xlink:href="#ArialMT-2d" x="216.845703"/>
      <use xlink:href="#ArialMT-4d" x="250.146484"/>
      <use xlink:href="#ArialMT-41" x="333.447266"/>
     </g>
    </g>
   </g>
  </g>
 </g>
 <defs>
  <clipPath id="p259e1b3dc5">
   <rect x="52.608594" y="21.935625" width="524.590926" height="310.858114"/>
  </clipPath>
 </defs>
</svg>
