<?xml version="1.0" encoding="utf-8" standalone="no"?>
<!DOCTYPE svg PUBLIC "-//W3C//DTD SVG 1.1//EN"
  "http://www.w3.org/Graphics/SVG/1.1/DTD/svg11.dtd">
<svg xmlns:xlink="http://www.w3.org/1999/xlink" width="584.39952pt" height="440.39952pt" viewBox="0 0 584.39952 440.39952" xmlns="http://www.w3.org/2000/svg" version="1.1">
 <metadata>
  <rdf:RDF xmlns:dc="http://purl.org/dc/elements/1.1/" xmlns:cc="http://creativecommons.org/ns#" xmlns:rdf="http://www.w3.org/1999/02/22-rdf-syntax-ns#">
   <cc:Work>
    <dc:type rdf:resource="http://purl.org/dc/dcmitype/StillImage"/>
    <dc:date>2025-10-25T23:36:33.235949</dc:date>
    <dc:format>image/svg+xml</dc:format>
    <dc:creator>
     <cc:Agent>
      <dc:title>Matplotlib v3.7.2, https://matplotlib.org/</dc:title>
     </cc:Agent>
    </dc:creator>
   </cc:Work>
  </rdf:RDF>
 </metadata>
 <defs>
  <style type="text/css">*{stroke-linejoin: round; stroke-linecap: butt}</style>
 </defs>
 <g id="figure_1">
  <g id="patch_1">
   <path d="M 0 440.39952 
L 584.39952 440.39952 
L 584.39952 0 
L 0 0 
z
" style="fill: #ffffff"/>
  </g>
  <g id="axes_1">
   <g id="patch_2">
    <path d="M 52.486719 117.545916 
L 577.19952 117.545916 
L 577.19952 24.321105 
L 52.486719 24.321105 
z
" style="fill: #e5e5e5"/>
   </g>
   <g id="matplotlib.axis_1">
    <g id="xtick_1">
     <g id="line2d_1">
      <path d="M 76.337301 117.545916 
L 76.337301 24.321105 
" clip-path="url(#pf9dd452542)" style="fill: none; stroke: #ffffff; stroke-width: 0.8; stroke-linecap: round"/>
     </g>
    </g>
    <g id="xtick_2">
     <g id="line2d_2">
      <path d="M 143.333317 117.545916 
L 143.333317 24.321105 
" clip-path="url(#pf9dd452542)" style="fill: none; stroke: #ffffff; stroke-width: 0.8; stroke-linecap: round"/>
     </g>
    </g>
    <g id="xtick_3">
     <g id="line2d_3">
      <path d="M 210.329334 117.545916 
L 210.329334 24.321105 
" clip-path="url(#pf9dd452542)" style="fill: none; stroke: #ffffff; stroke-width: 0.8; stroke-linecap: round"/>
     </g>
    </g>
    <g id="xtick_4">
     <g id="line2d_4">
      <path d="M 277.32535 117.545916 
L 277.32535 24.321105 
" clip-path="url(#pf9dd452542)" style="fill: none; stroke: #ffffff; stroke-width: 0.8; stroke-linecap: round"/>
     </g>
    </g>
    <g id="xtick_5">
     <g id="line2d_5">
      <path d="M 344.321367 117.545916 
L 344.321367 24.321105 
" clip-path="url(#pf9dd452542)" style="fill: none; stroke: #ffffff; stroke-width: 0.8; stroke-linecap: round"/>
     </g>
    </g>
    <g id="xtick_6">
     <g id="line2d_6">
      <path d="M 411.317383 117.545916 
L 411.317383 24.321105 
" clip-path="url(#pf9dd452542)" style="fill: none; stroke: #ffffff; stroke-width: 0.8; stroke-linecap: round"/>
     </g>
    </g>
    <g id="xtick_7">
     <g id="line2d_7">
      <path d="M 478.3134 117.545916 
L 478.3134 24.321105 
" clip-path="url(#pf9dd452542)" style="fill: none; stroke: #ffffff; stroke-width: 0.8; stroke-linecap: round"/>
     </g>
    </g>
    <g id="xtick_8">
     <g id="line2d_8">
      <path d="M 545.309416 117.545916 
L 545.309416 24.321105 
" clip-path="url(#pf9dd452542)" style="fill: none; stroke: #ffffff; stroke-width: 0.8; stroke-linecap: round"/>
     </g>
    </g>
   </g>
   <g id="matplotlib.axis_2">
    <g id="ytick_1">
     <g id="line2d_9">
      <path d="M 52.486719 103.345115 
L 577.19952 103.345115 
" clip-path="url(#pf9dd452542)" style="fill: none; stroke: #ffffff; stroke-width: 0.8; stroke-linecap: round"/>
     </g>
     <g id="text_1">
      <!-- 13000 -->
      <g style="fill: #555555" transform="translate(20.4625 106.56613) scale(0.09 -0.09)">
       <defs>
        <path id="ArialMT-31" d="M 2384 0 
L 1822 0 
L 1822 3584 
Q 1619 3391 1289 3197 
Q 959 3003 697 2906 
L 697 3450 
Q 1169 3672 1522 3987 
Q 1875 4303 2022 4600 
L 2384 4600 
L 2384 0 
z
" transform="scale(0.015625)"/>
        <path id="ArialMT-33" d="M 269 1209 
L 831 1284 
Q 928 806 1161 595 
Q 1394 384 1728 384 
Q 2125 384 2398 659 
Q 2672 934 2672 1341 
Q 2672 1728 2419 1979 
Q 2166 2231 1775 2231 
Q 1616 2231 1378 2169 
L 1441 2663 
Q 1497 2656 1531 2656 
Q 1891 2656 2178 2843 
Q 2466 3031 2466 3422 
Q 2466 3731 2256 3934 
Q 2047 4138 1716 4138 
Q 1388 4138 1169 3931 
Q 950 3725 888 3313 
L 325 3413 
Q 428 3978 793 4289 
Q 1159 4600 1703 4600 
Q 2078 4600 2393 4439 
Q 2709 4278 2876 4000 
Q 3044 3722 3044 3409 
Q 3044 3113 2884 2869 
Q 2725 2625 2413 2481 
Q 2819 2388 3044 2092 
Q 3269 1797 3269 1353 
Q 3269 753 2831 336 
Q 2394 -81 1725 -81 
Q 1122 -81 723 278 
Q 325 638 269 1209 
z
" transform="scale(0.015625)"/>
        <path id="ArialMT-30" d="M 266 2259 
Q 266 3072 433 3567 
Q 600 4063 929 4331 
Q 1259 4600 1759 4600 
Q 2128 4600 2406 4451 
Q 2684 4303 2865 4023 
Q 3047 3744 3150 3342 
Q 3253 2941 3253 2259 
Q 3253 1453 3087 958 
Q 2922 463 2592 192 
Q 2263 -78 1759 -78 
Q 1097 -78 719 397 
Q 266 969 266 2259 
z
M 844 2259 
Q 844 1131 1108 757 
Q 1372 384 1759 384 
Q 2147 384 2411 759 
Q 2675 1134 2675 2259 
Q 2675 3391 2411 3762 
Q 2147 4134 1753 4134 
Q 1366 4134 1134 3806 
Q 844 3388 844 2259 
z
" transform="scale(0.015625)"/>
       </defs>
       <use xlink:href="#ArialMT-31"/>
       <use xlink:href="#ArialMT-33" x="55.615234"/>
       <use xlink:href="#ArialMT-30" x="111.230469"/>
       <use xlink:href="#ArialMT-30" x="166.845703"/>
       <use xlink:href="#ArialMT-30" x="222.460938"/>
      </g>
     </g>
    </g>
    <g id="ytick_2">
     <g id="line2d_10">
      <path d="M 52.486719 81.312142 
L 577.19952 81.312142 
" clip-path="url(#pf9dd452542)" style="fill: none; stroke: #ffffff; stroke-width: 0.8; stroke-linecap: round"/>
     </g>
     <g id="text_2">
      <!-- 14000 -->
      <g style="fill: #555555" transform="translate(20.4625 84.533158) scale(0.09 -0.09)">
       <defs>
        <path id="ArialMT-34" d="M 2069 0 
L 2069 1097 
L 81 1097 
L 81 1613 
L 2172 4581 
L 2631 4581 
L 2631 1613 
L 3250 1613 
L 3250 1097 
L 2631 1097 
L 2631 0 
L 2069 0 
z
M 2069 1613 
L 2069 3678 
L 634 1613 
L 2069 1613 
z
" transform="scale(0.015625)"/>
       </defs>
       <use xlink:href="#ArialMT-31"/>
       <use xlink:href="#ArialMT-34" x="55.615234"/>
       <use xlink:href="#ArialMT-30" x="111.230469"/>
       <use xlink:href="#ArialMT-30" x="166.845703"/>
       <use xlink:href="#ArialMT-30" x="222.460938"/>
      </g>
     </g>
    </g>
    <g id="ytick_3">
     <g id="line2d_11">
      <path d="M 52.486719 59.27917 
L 577.19952 59.27917 
" clip-path="url(#pf9dd452542)" style="fill: none; stroke: #ffffff; stroke-width: 0.8; stroke-linecap: round"/>
     </g>
     <g id="text_3">
      <!-- 15000 -->
      <g style="fill: #555555" transform="translate(20.4625 62.500185) scale(0.09 -0.09)">
       <defs>
        <path id="ArialMT-35" d="M 266 1200 
L 856 1250 
Q 922 819 1161 601 
Q 1400 384 1738 384 
Q 2144 384 2425 690 
Q 2706 997 2706 1503 
Q 2706 1984 2436 2262 
Q 2166 2541 1728 2541 
Q 1456 2541 1237 2417 
Q 1019 2294 894 2097 
L 366 2166 
L 809 4519 
L 3088 4519 
L 3088 3981 
L 1259 3981 
L 1013 2750 
Q 1425 3038 1878 3038 
Q 2478 3038 2890 2622 
Q 3303 2206 3303 1553 
Q 3303 931 2941 478 
Q 2500 -78 1738 -78 
Q 1113 -78 717 272 
Q 322 622 266 1200 
z
" transform="scale(0.015625)"/>
       </defs>
       <use xlink:href="#ArialMT-31"/>
       <use xlink:href="#ArialMT-35" x="55.615234"/>
       <use xlink:href="#ArialMT-30" x="111.230469"/>
       <use xlink:href="#ArialMT-30" x="166.845703"/>
       <use xlink:href="#ArialMT-30" x="222.460938"/>
      </g>
     </g>
    </g>
    <g id="ytick_4">
     <g id="line2d_12">
      <path d="M 52.486719 37.246197 
L 577.19952 37.246197 
" clip-path="url(#pf9dd452542)" style="fill: none; stroke: #ffffff; stroke-width: 0.8; stroke-linecap: round"/>
     </g>
     <g id="text_4">
      <!-- 16000 -->
      <g style="fill: #555555" transform="translate(20.4625 40.467213) scale(0.09 -0.09)">
       <defs>
        <path id="ArialMT-36" d="M 3184 3459 
L 2625 3416 
Q 2550 3747 2413 3897 
Q 2184 4138 1850 4138 
Q 1581 4138 1378 3988 
Q 1113 3794 959 3422 
Q 806 3050 800 2363 
Q 1003 2672 1297 2822 
Q 1591 2972 1913 2972 
Q 2475 2972 2870 2558 
Q 3266 2144 3266 1488 
Q 3266 1056 3080 686 
Q 2894 316 2569 119 
Q 2244 -78 1831 -78 
Q 1128 -78 684 439 
Q 241 956 241 2144 
Q 241 3472 731 4075 
Q 1159 4600 1884 4600 
Q 2425 4600 2770 4297 
Q 3116 3994 3184 3459 
z
M 888 1484 
Q 888 1194 1011 928 
Q 1134 663 1356 523 
Q 1578 384 1822 384 
Q 2178 384 2434 671 
Q 2691 959 2691 1453 
Q 2691 1928 2437 2201 
Q 2184 2475 1800 2475 
Q 1419 2475 1153 2201 
Q 888 1928 888 1484 
z
" transform="scale(0.015625)"/>
       </defs>
       <use xlink:href="#ArialMT-31"/>
       <use xlink:href="#ArialMT-36" x="55.615234"/>
       <use xlink:href="#ArialMT-30" x="111.230469"/>
       <use xlink:href="#ArialMT-30" x="166.845703"/>
       <use xlink:href="#ArialMT-30" x="222.460938"/>
      </g>
     </g>
    </g>
    <g id="text_5">
     <!-- Employed -->
     <g style="fill: #555555" transform="translate(14.357812 93.166323) rotate(-90) scale(0.1 -0.1)">
      <defs>
       <path id="ArialMT-45" d="M 506 0 
L 506 4581 
L 3819 4581 
L 3819 4041 
L 1113 4041 
L 1113 2638 
L 3647 2638 
L 3647 2100 
L 1113 2100 
L 1113 541 
L 3925 541 
L 3925 0 
L 506 0 
z
" transform="scale(0.015625)"/>
       <path id="ArialMT-6d" d="M 422 0 
L 422 3319 
L 925 3319 
L 925 2853 
Q 1081 3097 1340 3245 
Q 1600 3394 1931 3394 
Q 2300 3394 2536 3241 
Q 2772 3088 2869 2813 
Q 3263 3394 3894 3394 
Q 4388 3394 4653 3120 
Q 4919 2847 4919 2278 
L 4919 0 
L 4359 0 
L 4359 2091 
Q 4359 2428 4304 2576 
Q 4250 2725 4106 2815 
Q 3963 2906 3769 2906 
Q 3419 2906 3187 2673 
Q 2956 2441 2956 1928 
L 2956 0 
L 2394 0 
L 2394 2156 
Q 2394 2531 2256 2718 
Q 2119 2906 1806 2906 
Q 1569 2906 1367 2781 
Q 1166 2656 1075 2415 
Q 984 2175 984 1722 
L 984 0 
L 422 0 
z
" transform="scale(0.015625)"/>
       <path id="ArialMT-70" d="M 422 -1272 
L 422 3319 
L 934 3319 
L 934 2888 
Q 1116 3141 1344 3267 
Q 1572 3394 1897 3394 
Q 2322 3394 2647 3175 
Q 2972 2956 3137 2557 
Q 3303 2159 3303 1684 
Q 3303 1175 3120 767 
Q 2938 359 2589 142 
Q 2241 -75 1856 -75 
Q 1575 -75 1351 44 
Q 1128 163 984 344 
L 984 -1272 
L 422 -1272 
z
M 931 1641 
Q 931 1000 1190 694 
Q 1450 388 1819 388 
Q 2194 388 2461 705 
Q 2728 1022 2728 1688 
Q 2728 2322 2467 2637 
Q 2206 2953 1844 2953 
Q 1484 2953 1207 2617 
Q 931 2281 931 1641 
z
" transform="scale(0.015625)"/>
       <path id="ArialMT-6c" d="M 409 0 
L 409 4581 
L 972 4581 
L 972 0 
L 409 0 
z
" transform="scale(0.015625)"/>
       <path id="ArialMT-6f" d="M 213 1659 
Q 213 2581 725 3025 
Q 1153 3394 1769 3394 
Q 2453 3394 2887 2945 
Q 3322 2497 3322 1706 
Q 3322 1066 3130 698 
Q 2938 331 2570 128 
Q 2203 -75 1769 -75 
Q 1072 -75 642 372 
Q 213 819 213 1659 
z
M 791 1659 
Q 791 1022 1069 705 
Q 1347 388 1769 388 
Q 2188 388 2466 706 
Q 2744 1025 2744 1678 
Q 2744 2294 2464 2611 
Q 2184 2928 1769 2928 
Q 1347 2928 1069 2612 
Q 791 2297 791 1659 
z
" transform="scale(0.015625)"/>
       <path id="ArialMT-79" d="M 397 -1278 
L 334 -750 
Q 519 -800 656 -800 
Q 844 -800 956 -737 
Q 1069 -675 1141 -563 
Q 1194 -478 1313 -144 
Q 1328 -97 1363 -6 
L 103 3319 
L 709 3319 
L 1400 1397 
Q 1534 1031 1641 628 
Q 1738 1016 1872 1384 
L 2581 3319 
L 3144 3319 
L 1881 -56 
Q 1678 -603 1566 -809 
Q 1416 -1088 1222 -1217 
Q 1028 -1347 759 -1347 
Q 597 -1347 397 -1278 
z
" transform="scale(0.015625)"/>
       <path id="ArialMT-65" d="M 2694 1069 
L 3275 997 
Q 3138 488 2766 206 
Q 2394 -75 1816 -75 
Q 1088 -75 661 373 
Q 234 822 234 1631 
Q 234 2469 665 2931 
Q 1097 3394 1784 3394 
Q 2450 3394 2872 2941 
Q 3294 2488 3294 1666 
Q 3294 1616 3291 1516 
L 816 1516 
Q 847 969 1125 678 
Q 1403 388 1819 388 
Q 2128 388 2347 550 
Q 2566 713 2694 1069 
z
M 847 1978 
L 2700 1978 
Q 2663 2397 2488 2606 
Q 2219 2931 1791 2931 
Q 1403 2931 1139 2672 
Q 875 2413 847 1978 
z
" transform="scale(0.015625)"/>
       <path id="ArialMT-64" d="M 2575 0 
L 2575 419 
Q 2259 -75 1647 -75 
Q 1250 -75 917 144 
Q 584 363 401 755 
Q 219 1147 219 1656 
Q 219 2153 384 2558 
Q 550 2963 881 3178 
Q 1213 3394 1622 3394 
Q 1922 3394 2156 3267 
Q 2391 3141 2538 2938 
L 2538 4581 
L 3097 4581 
L 3097 0 
L 2575 0 
z
M 797 1656 
Q 797 1019 1065 703 
Q 1334 388 1700 388 
Q 2069 388 2326 689 
Q 2584 991 2584 1609 
Q 2584 2291 2321 2609 
Q 2059 2928 1675 2928 
Q 1300 2928 1048 2622 
Q 797 2316 797 1656 
z
" transform="scale(0.015625)"/>
      </defs>
      <use xlink:href="#ArialMT-45"/>
      <use xlink:href="#ArialMT-6d" x="66.699219"/>
      <use xlink:href="#ArialMT-70" x="150"/>
      <use xlink:href="#ArialMT-6c" x="205.615234"/>
      <use xlink:href="#ArialMT-6f" x="227.832031"/>
      <use xlink:href="#ArialMT-79" x="283.447266"/>
      <use xlink:href="#ArialMT-65" x="333.447266"/>
      <use xlink:href="#ArialMT-64" x="389.0625"/>
     </g>
    </g>
   </g>
   <g id="PolyCollection_1"/>
   <g id="line2d_13">
    <path d="M 76.337301 97.70908 
L 77.677221 104.087626 
L 79.017141 104.706752 
L 80.357062 103.074109 
L 81.696982 100.958944 
L 83.036902 99.317487 
L 85.716743 99.830856 
L 87.056663 100.846576 
L 88.396584 99.264608 
L 89.736504 93.168085 
L 91.076424 88.514721 
L 92.416345 101.840263 
L 93.756265 108.981149 
L 95.096185 110.296518 
L 96.436106 110.241435 
L 97.776026 108.179149 
L 99.115946 106.451764 
L 100.455867 106.66989 
L 101.795787 106.180758 
L 103.135707 107.244951 
L 104.475628 105.865687 
L 105.815548 100.022542 
L 107.155468 94.728019 
L 108.495389 108.002885 
L 109.835309 112.464562 
L 111.175229 113.308425 
L 112.51515 111.358507 
L 113.85507 109.064874 
L 115.19499 107.198682 
L 116.534911 107.643748 
L 117.874831 107.51816 
L 119.214751 108.10644 
L 120.554672 105.759928 
L 123.234512 94.271937 
L 124.574433 106.665484 
L 125.914353 109.91755 
L 127.254273 110.961913 
L 128.594193 108.956913 
L 131.274034 103.895939 
L 133.953875 102.283125 
L 135.293795 102.274312 
L 136.633715 99.484938 
L 139.313556 86.699204 
L 140.653476 99.978477 
L 141.993397 103.016823 
L 143.333317 102.21262 
L 144.673237 99.703064 
L 147.353078 93.895173 
L 150.032919 91.2402 
L 151.372839 90.535145 
L 152.712759 87.342567 
L 154.05268 79.179351 
L 155.3926 72.933003 
L 156.73252 86.265154 
L 158.072441 90.577007 
L 159.412361 91.464936 
L 160.752281 88.933347 
L 162.092202 86.655138 
L 163.432122 84.07728 
L 164.772042 83.995758 
L 166.111963 83.334769 
L 167.451883 83.647637 
L 168.791803 81.177741 
L 170.131724 73.666701 
L 171.471644 68.345738 
L 172.811564 82.905126 
L 174.151485 87.245622 
L 175.491405 86.862248 
L 176.831325 85.460951 
L 178.171246 81.45095 
L 179.511166 78.943598 
L 182.191007 77.626026 
L 183.530927 77.930081 
L 184.870847 74.091937 
L 186.210768 66.065325 
L 187.550688 60.244214 
L 188.890608 76.308454 
L 190.230529 80.796571 
L 191.570449 80.433027 
L 192.910369 78.696828 
L 194.25029 75.982366 
L 195.59021 73.836355 
L 196.93013 73.497047 
L 198.270051 72.675217 
L 199.609971 73.391289 
L 200.949891 69.568568 
L 202.289812 61.392132 
L 203.629732 55.39035 
L 204.969652 71.269513 
L 206.309573 75.95152 
L 207.649493 76.330487 
L 208.989413 74.217525 
L 210.329334 70.916986 
L 211.669254 68.777584 
L 213.009174 68.04609 
L 214.349095 67.717798 
L 215.689015 68.061513 
L 217.028935 64.884358 
L 218.368856 56.758598 
L 219.708776 50.723767 
L 221.048696 65.77449 
L 222.388617 68.81504 
L 223.728537 68.645386 
L 227.748298 60.799445 
L 229.088218 59.799148 
L 230.428139 59.47306 
L 231.768059 60.083373 
L 233.107979 56.291499 
L 234.4479 48.154722 
L 235.78782 41.368567 
L 237.12774 56.571318 
L 238.467661 61.07706 
L 239.807581 60.504203 
L 241.147501 57.296202 
L 242.487422 56.075576 
L 243.827342 53.978037 
L 245.167262 53.947191 
L 246.507183 53.266372 
L 247.847103 54.002273 
L 249.187023 50.842745 
L 250.526944 42.16616 
L 251.866864 36.635884 
L 253.206784 52.933674 
L 254.546705 57.199257 
L 255.886625 57.582631 
L 257.226545 58.248027 
L 258.566466 55.80457 
L 259.906386 53.812789 
L 261.246306 55.648136 
L 262.586227 55.099515 
L 263.926147 56.450136 
L 265.266067 54.341581 
L 266.605987 46.585974 
L 267.945908 43.549831 
L 269.285828 59.609664 
L 270.625748 63.996429 
L 271.965669 63.379506 
L 273.305589 62.044308 
L 274.645509 60.151676 
L 275.98543 58.543269 
L 277.32535 59.016977 
L 278.66527 59.695593 
L 280.005191 61.321626 
L 281.345111 58.538862 
L 282.685031 50.820712 
L 284.024952 46.566145 
L 285.364872 62.385819 
L 286.704792 66.940034 
L 288.044713 66.937831 
L 289.384633 65.318408 
L 290.724553 63.1085 
L 292.064474 61.713813 
L 293.404394 62.35277 
L 294.744314 61.52433 
L 296.084235 62.249215 
L 297.424155 59.05223 
L 298.764075 52.334377 
L 300.103996 48.148112 
L 301.443916 62.33294 
L 302.783836 66.025666 
L 305.463677 62.302094 
L 306.803597 59.565599 
L 308.143518 57.472466 
L 309.483438 58.148878 
L 310.823358 58.071763 
L 312.163279 59.362895 
L 313.503199 55.875076 
L 314.843119 47.68542 
L 316.18304 43.699655 
L 317.52296 58.153285 
L 318.86288 61.220275 
L 320.202801 60.257434 
L 321.542721 57.761098 
L 322.882641 54.993757 
L 324.222562 52.667075 
L 325.562482 52.061168 
L 326.902402 51.594069 
L 328.242323 54.290905 
L 329.582243 51.591866 
L 330.922163 42.932908 
L 332.262084 38.603429 
L 333.602004 53.867872 
L 334.941924 57.798554 
L 336.281845 55.972021 
L 337.621765 55.504922 
L 340.301606 51.951003 
L 341.641526 52.087608 
L 342.981446 51.849652 
L 344.321367 54.094811 
L 345.661287 50.774443 
L 347.001207 41.355347 
L 348.341128 37.633978 
L 349.681048 51.732877 
L 351.020968 55.269169 
L 352.360889 52.647245 
L 353.700809 52.067778 
L 355.040729 49.080107 
L 356.38065 48.009304 
L 357.72057 47.945409 
L 359.06049 47.418821 
L 360.400411 49.564832 
L 361.740331 47.623727 
L 363.080251 37.365175 
L 364.420172 33.676856 
L 365.760092 49.053667 
L 367.100012 54.185147 
L 368.439933 53.001976 
L 369.779853 53.823806 
L 371.119773 52.625212 
L 372.459694 51.726267 
L 375.139534 53.310438 
L 376.479455 57.089092 
L 377.819375 56.236416 
L 379.159295 51.530173 
L 380.499216 49.928376 
L 381.839136 66.140237 
L 383.179056 71.639667 
L 384.518977 72.265404 
L 385.858897 72.507767 
L 387.198817 70.397008 
L 388.538738 69.337222 
L 389.878658 70.531409 
L 391.218578 70.399211 
L 392.558499 73.215025 
L 393.898419 72.212525 
L 395.238339 65.234682 
L 396.57826 62.282264 
L 397.91818 74.911564 
L 399.2581 78.602087 
L 400.59802 76.700641 
L 401.937941 75.383069 
L 403.277861 72.937409 
L 404.617781 71.577975 
L 405.957702 71.505266 
L 407.297622 71.095453 
L 408.637542 73.358239 
L 409.977463 70.06431 
L 411.317383 62.586319 
L 412.657303 59.094093 
L 413.997224 71.428151 
L 415.337144 75.087828 
L 416.677064 73.616025 
L 418.016985 70.538019 
L 420.696825 66.279045 
L 422.036746 65.492468 
L 423.376666 65.503485 
L 424.716586 67.713392 
L 426.056507 64.749957 
L 427.396427 56.143878 
L 428.736347 52.741987 
L 430.076268 65.128924 
L 431.416188 69.848387 
L 432.756108 68.526408 
L 434.096029 66.541238 
L 435.435949 64.225572 
L 436.775869 63.33544 
L 438.11579 63.51611 
L 439.45571 63.350863 
L 440.79563 65.031979 
L 442.135551 61.973802 
L 443.475471 51.281201 
L 444.815391 49.08892 
L 446.155312 62.403445 
L 447.495232 66.499375 
L 448.835152 65.631276 
L 450.175073 63.496281 
L 452.854913 58.28328 
L 454.194834 57.135362 
L 455.534754 56.377427 
L 456.874674 58.120236 
L 458.214595 54.60157 
L 459.554515 44.840963 
L 460.894435 40.784693 
L 462.234356 55.518141 
L 463.574276 60.341159 
L 464.914196 58.939862 
L 466.254117 56.260653 
L 467.594037 54.015493 
L 468.933957 51.466278 
L 470.273878 50.703937 
L 471.613798 50.897827 
L 472.953718 52.695718 
L 474.293639 48.66809 
L 475.633559 39.575083 
L 476.973479 36.186411 
L 478.3134 50.001085 
L 479.65332 53.883295 
L 480.99324 52.411492 
L 482.333161 50.426322 
L 483.673081 47.595085 
L 485.013001 45.60771 
L 486.352922 45.023837 
L 487.692842 45.479919 
L 489.032762 47.967442 
L 490.372683 43.926595 
L 491.712603 35.135439 
L 493.052523 32.365894 
L 494.392444 45.493139 
L 495.732364 48.557925 
L 497.072284 46.570551 
L 498.412205 44.986381 
L 501.092045 40.511484 
L 502.431966 40.013539 
L 503.771886 40.229462 
L 505.111806 42.747831 
L 506.451727 39.460511 
L 507.791647 31.513218 
L 509.131567 28.558596 
L 510.471488 40.454198 
L 511.811408 45.444666 
L 513.151328 45.288232 
L 514.491249 44.151331 
L 515.831169 42.545127 
L 517.171089 40.705374 
L 518.51101 40.747237 
L 519.85093 41.428056 
L 521.19085 44.312172 
L 522.530771 41.214336 
L 523.870691 30.949174 
L 525.210611 30.506311 
L 526.550532 43.446276 
L 527.890452 46.566145 
L 529.230372 45.82143 
L 530.570293 44.265902 
L 531.910213 41.714484 
L 533.250133 40.663511 
L 534.590054 40.451995 
L 535.929974 40.883841 
L 537.269894 44.283529 
L 538.609814 41.729907 
L 539.949735 30.827993 
L 541.289655 30.433602 
L 542.629575 42.677325 
L 543.969496 46.777661 
L 545.309416 46.574958 
L 546.649336 45.510765 
L 547.989257 44.041166 
L 549.329177 42.1926 
L 550.669097 41.963457 
L 552.009018 42.765457 
L 553.348938 45.810414 
L 553.348938 45.810414 
" clip-path="url(#pf9dd452542)" style="fill: none; stroke: #000000; stroke-width: 1.5; stroke-linecap: round"/>
   </g>
   <g id="patch_3">
    <path d="M 52.486719 117.545916 
L 52.486719 24.321105 
" style="fill: none; stroke: #ffffff; stroke-linejoin: miter; stroke-linecap: square"/>
   </g>
   <g id="patch_4">
    <path d="M 577.19952 117.545916 
L 577.19952 24.321105 
" style="fill: none; stroke: #ffffff; stroke-linejoin: miter; stroke-linecap: square"/>
   </g>
   <g id="patch_5">
    <path d="M 52.486719 117.545916 
L 577.19952 117.545916 
" style="fill: none; stroke: #ffffff; stroke-linejoin: miter; stroke-linecap: square"/>
   </g>
   <g id="patch_6">
    <path d="M 52.486719 24.321105 
L 577.19952 24.321105 
" style="fill: none; stroke: #ffffff; stroke-linejoin: miter; stroke-linecap: square"/>
   </g>
  </g>
  <g id="axes_2">
   <g id="patch_7">
    <path d="M 52.486719 219.518156 
L 577.19952 219.518156 
L 577.19952 126.293345 
L 52.486719 126.293345 
z
" style="fill: #e5e5e5"/>
   </g>
   <g id="matplotlib.axis_3">
    <g id="xtick_9">
     <g id="line2d_14">
      <path d="M 76.337301 219.518156 
L 76.337301 126.293345 
" clip-path="url(#p35f1c735b8)" style="fill: none; stroke: #ffffff; stroke-width: 0.8; stroke-linecap: round"/>
     </g>
    </g>
    <g id="xtick_10">
     <g id="line2d_15">
      <path d="M 143.333317 219.518156 
L 143.333317 126.293345 
" clip-path="url(#p35f1c735b8)" style="fill: none; stroke: #ffffff; stroke-width: 0.8; stroke-linecap: round"/>
     </g>
    </g>
    <g id="xtick_11">
     <g id="line2d_16">
      <path d="M 210.329334 219.518156 
L 210.329334 126.293345 
" clip-path="url(#p35f1c735b8)" style="fill: none; stroke: #ffffff; stroke-width: 0.8; stroke-linecap: round"/>
     </g>
    </g>
    <g id="xtick_12">
     <g id="line2d_17">
      <path d="M 277.32535 219.518156 
L 277.32535 126.293345 
" clip-path="url(#p35f1c735b8)" style="fill: none; stroke: #ffffff; stroke-width: 0.8; stroke-linecap: round"/>
     </g>
    </g>
    <g id="xtick_13">
     <g id="line2d_18">
      <path d="M 344.321367 219.518156 
L 344.321367 126.293345 
" clip-path="url(#p35f1c735b8)" style="fill: none; stroke: #ffffff; stroke-width: 0.8; stroke-linecap: round"/>
     </g>
    </g>
    <g id="xtick_14">
     <g id="line2d_19">
      <path d="M 411.317383 219.518156 
L 411.317383 126.293345 
" clip-path="url(#p35f1c735b8)" style="fill: none; stroke: #ffffff; stroke-width: 0.8; stroke-linecap: round"/>
     </g>
    </g>
    <g id="xtick_15">
     <g id="line2d_20">
      <path d="M 478.3134 219.518156 
L 478.3134 126.293345 
" clip-path="url(#p35f1c735b8)" style="fill: none; stroke: #ffffff; stroke-width: 0.8; stroke-linecap: round"/>
     </g>
    </g>
    <g id="xtick_16">
     <g id="line2d_21">
      <path d="M 545.309416 219.518156 
L 545.309416 126.293345 
" clip-path="url(#p35f1c735b8)" style="fill: none; stroke: #ffffff; stroke-width: 0.8; stroke-linecap: round"/>
     </g>
    </g>
   </g>
   <g id="matplotlib.axis_4">
    <g id="ytick_5">
     <g id="line2d_22">
      <path d="M 52.486719 210.610472 
L 577.19952 210.610472 
" clip-path="url(#p35f1c735b8)" style="fill: none; stroke: #ffffff; stroke-width: 0.8; stroke-linecap: round"/>
     </g>
     <g id="text_6">
      <!-- 13000 -->
      <g style="fill: #555555" transform="translate(20.4625 213.831487) scale(0.09 -0.09)">
       <use xlink:href="#ArialMT-31"/>
       <use xlink:href="#ArialMT-33" x="55.615234"/>
       <use xlink:href="#ArialMT-30" x="111.230469"/>
       <use xlink:href="#ArialMT-30" x="166.845703"/>
       <use xlink:href="#ArialMT-30" x="222.460938"/>
      </g>
     </g>
    </g>
    <g id="ytick_6">
     <g id="line2d_23">
      <path d="M 52.486719 182.66283 
L 577.19952 182.66283 
" clip-path="url(#p35f1c735b8)" style="fill: none; stroke: #ffffff; stroke-width: 0.8; stroke-linecap: round"/>
     </g>
     <g id="text_7">
      <!-- 14000 -->
      <g style="fill: #555555" transform="translate(20.4625 185.883846) scale(0.09 -0.09)">
       <use xlink:href="#ArialMT-31"/>
       <use xlink:href="#ArialMT-34" x="55.615234"/>
       <use xlink:href="#ArialMT-30" x="111.230469"/>
       <use xlink:href="#ArialMT-30" x="166.845703"/>
       <use xlink:href="#ArialMT-30" x="222.460938"/>
      </g>
     </g>
    </g>
    <g id="ytick_7">
     <g id="line2d_24">
      <path d="M 52.486719 154.715189 
L 577.19952 154.715189 
" clip-path="url(#p35f1c735b8)" style="fill: none; stroke: #ffffff; stroke-width: 0.8; stroke-linecap: round"/>
     </g>
     <g id="text_8">
      <!-- 15000 -->
      <g style="fill: #555555" transform="translate(20.4625 157.936204) scale(0.09 -0.09)">
       <use xlink:href="#ArialMT-31"/>
       <use xlink:href="#ArialMT-35" x="55.615234"/>
       <use xlink:href="#ArialMT-30" x="111.230469"/>
       <use xlink:href="#ArialMT-30" x="166.845703"/>
       <use xlink:href="#ArialMT-30" x="222.460938"/>
      </g>
     </g>
    </g>
    <g id="ytick_8">
     <g id="line2d_25">
      <path d="M 52.486719 126.767547 
L 577.19952 126.767547 
" clip-path="url(#p35f1c735b8)" style="fill: none; stroke: #ffffff; stroke-width: 0.8; stroke-linecap: round"/>
     </g>
     <g id="text_9">
      <!-- 16000 -->
      <g style="fill: #555555" transform="translate(20.4625 129.988563) scale(0.09 -0.09)">
       <use xlink:href="#ArialMT-31"/>
       <use xlink:href="#ArialMT-36" x="55.615234"/>
       <use xlink:href="#ArialMT-30" x="111.230469"/>
       <use xlink:href="#ArialMT-30" x="166.845703"/>
       <use xlink:href="#ArialMT-30" x="222.460938"/>
      </g>
     </g>
    </g>
    <g id="text_10">
     <!-- trend -->
     <g style="fill: #555555" transform="translate(14.475 184.301063) rotate(-90) scale(0.1 -0.1)">
      <defs>
       <path id="ArialMT-74" d="M 1650 503 
L 1731 6 
Q 1494 -44 1306 -44 
Q 1000 -44 831 53 
Q 663 150 594 308 
Q 525 466 525 972 
L 525 2881 
L 113 2881 
L 113 3319 
L 525 3319 
L 525 4141 
L 1084 4478 
L 1084 3319 
L 1650 3319 
L 1650 2881 
L 1084 2881 
L 1084 941 
Q 1084 700 1114 631 
Q 1144 563 1211 522 
Q 1278 481 1403 481 
Q 1497 481 1650 503 
z
" transform="scale(0.015625)"/>
       <path id="ArialMT-72" d="M 416 0 
L 416 3319 
L 922 3319 
L 922 2816 
Q 1116 3169 1280 3281 
Q 1444 3394 1641 3394 
Q 1925 3394 2219 3213 
L 2025 2691 
Q 1819 2813 1613 2813 
Q 1428 2813 1281 2702 
Q 1134 2591 1072 2394 
Q 978 2094 978 1738 
L 978 0 
L 416 0 
z
" transform="scale(0.015625)"/>
       <path id="ArialMT-6e" d="M 422 0 
L 422 3319 
L 928 3319 
L 928 2847 
Q 1294 3394 1984 3394 
Q 2284 3394 2536 3286 
Q 2788 3178 2913 3003 
Q 3038 2828 3088 2588 
Q 3119 2431 3119 2041 
L 3119 0 
L 2556 0 
L 2556 2019 
Q 2556 2363 2490 2533 
Q 2425 2703 2258 2804 
Q 2091 2906 1866 2906 
Q 1506 2906 1245 2678 
Q 984 2450 984 1813 
L 984 0 
L 422 0 
z
" transform="scale(0.015625)"/>
      </defs>
      <use xlink:href="#ArialMT-74"/>
      <use xlink:href="#ArialMT-72" x="27.783203"/>
      <use xlink:href="#ArialMT-65" x="61.083984"/>
      <use xlink:href="#ArialMT-6e" x="116.699219"/>
      <use xlink:href="#ArialMT-64" x="172.314453"/>
     </g>
    </g>
   </g>
   <g id="PolyCollection_2"/>
   <g id="line2d_26">
    <path d="M 76.337301 202.331014 
L 84.376823 205.815354 
L 91.076424 208.900937 
L 96.436106 211.646885 
L 99.115946 212.885209 
L 101.795787 213.900329 
L 104.475628 214.585788 
L 107.155468 214.97289 
L 111.175229 215.248365 
L 113.85507 215.265729 
L 116.534911 215.069761 
L 119.214751 214.678471 
L 121.894592 214.11433 
L 124.574433 213.334378 
L 127.254273 212.294337 
L 129.934114 211.011916 
L 132.613954 209.51866 
L 135.293795 207.823707 
L 137.973636 205.929691 
L 140.653476 203.803546 
L 143.333317 201.449662 
L 147.353078 197.572889 
L 151.372839 193.709466 
L 154.05268 191.41028 
L 156.73252 189.416193 
L 159.412361 187.756187 
L 162.092202 186.452932 
L 164.772042 185.421333 
L 170.131724 183.509009 
L 174.151485 181.787389 
L 178.171246 179.774475 
L 184.870847 176.292367 
L 188.890608 174.501832 
L 195.59021 171.890501 
L 204.969652 168.378331 
L 213.009174 165.001832 
L 215.689015 163.633593 
L 219.708776 161.231543 
L 226.408378 156.849951 
L 231.768059 153.267666 
L 234.4479 151.664015 
L 238.467661 149.56502 
L 242.487422 147.75192 
L 245.167262 146.788395 
L 247.847103 146.184766 
L 250.526944 145.968759 
L 253.206784 146.090301 
L 255.886625 146.513667 
L 258.566466 147.281528 
L 261.246306 148.335661 
L 266.605987 150.552369 
L 271.965669 152.433076 
L 275.98543 153.641091 
L 282.685031 155.323544 
L 286.704792 156.161027 
L 289.384633 156.50157 
L 292.064474 156.636214 
L 294.744314 156.530083 
L 297.424155 156.143966 
L 301.443916 155.174942 
L 306.803597 153.588938 
L 312.163279 151.771883 
L 317.52296 149.707231 
L 324.222562 147.086346 
L 326.902402 146.252818 
L 329.582243 145.631105 
L 332.262084 145.25652 
L 341.641526 144.443527 
L 344.321367 143.898221 
L 348.341128 142.806317 
L 356.38065 140.444718 
L 359.06049 140.042158 
L 360.400411 140.016271 
L 361.740331 140.121844 
L 363.080251 140.361042 
L 364.420172 140.730221 
L 365.760092 141.230038 
L 367.100012 141.875023 
L 368.439933 142.687595 
L 369.779853 143.689094 
L 371.119773 144.892894 
L 372.459694 146.297846 
L 375.139534 149.611865 
L 384.518977 162.332885 
L 387.198817 165.393573 
L 388.538738 166.67194 
L 389.878658 167.748859 
L 391.218578 168.621766 
L 392.558499 169.30604 
L 393.898419 169.828687 
L 396.57826 170.489272 
L 399.2581 170.745371 
L 401.937941 170.643064 
L 404.617781 170.214628 
L 407.297622 169.539571 
L 411.317383 168.226664 
L 415.337144 166.588802 
L 424.716586 162.515769 
L 427.396427 161.597658 
L 431.416188 160.557947 
L 439.45571 158.568274 
L 443.475471 157.363166 
L 446.155312 156.280911 
L 448.835152 154.956745 
L 462.234356 147.826163 
L 466.254117 145.930228 
L 482.333161 138.843507 
L 501.092045 131.735 
L 503.771886 131.045132 
L 506.451727 130.642489 
L 509.131567 130.530836 
L 513.151328 130.692607 
L 523.870691 131.48719 
L 537.269894 131.556302 
L 539.949735 131.810301 
L 553.348938 133.464354 
L 553.348938 133.464354 
" clip-path="url(#p35f1c735b8)" style="fill: none; stroke: #000000; stroke-width: 1.5; stroke-linecap: round"/>
   </g>
   <g id="patch_8">
    <path d="M 52.486719 219.518156 
L 52.486719 126.293345 
" style="fill: none; stroke: #ffffff; stroke-linejoin: miter; stroke-linecap: square"/>
   </g>
   <g id="patch_9">
    <path d="M 577.19952 219.518156 
L 577.19952 126.293345 
" style="fill: none; stroke: #ffffff; stroke-linejoin: miter; stroke-linecap: square"/>
   </g>
   <g id="patch_10">
    <path d="M 52.486719 219.518156 
L 577.19952 219.518156 
" style="fill: none; stroke: #ffffff; stroke-linejoin: miter; stroke-linecap: square"/>
   </g>
   <g id="patch_11">
    <path d="M 52.486719 126.293345 
L 577.19952 126.293345 
" style="fill: none; stroke: #ffffff; stroke-linejoin: miter; stroke-linecap: square"/>
   </g>
  </g>
  <g id="axes_3">
   <g id="patch_12">
    <path d="M 52.486719 318.743447 
L 577.19952 318.743447 
L 577.19952 225.518636 
L 52.486719 225.518636 
z
" style="fill: #e5e5e5"/>
   </g>
   <g id="matplotlib.axis_5">
    <g id="xtick_17">
     <g id="line2d_27">
      <path d="M 76.337301 318.743447 
L 76.337301 225.518636 
" clip-path="url(#pa6022d6f2e)" style="fill: none; stroke: #ffffff; stroke-width: 0.8; stroke-linecap: round"/>
     </g>
    </g>
    <g id="xtick_18">
     <g id="line2d_28">
      <path d="M 143.333317 318.743447 
L 143.333317 225.518636 
" clip-path="url(#pa6022d6f2e)" style="fill: none; stroke: #ffffff; stroke-width: 0.8; stroke-linecap: round"/>
     </g>
    </g>
    <g id="xtick_19">
     <g id="line2d_29">
      <path d="M 210.329334 318.743447 
L 210.329334 225.518636 
" clip-path="url(#pa6022d6f2e)" style="fill: none; stroke: #ffffff; stroke-width: 0.8; stroke-linecap: round"/>
     </g>
    </g>
    <g id="xtick_20">
     <g id="line2d_30">
      <path d="M 277.32535 318.743447 
L 277.32535 225.518636 
" clip-path="url(#pa6022d6f2e)" style="fill: none; stroke: #ffffff; stroke-width: 0.8; stroke-linecap: round"/>
     </g>
    </g>
    <g id="xtick_21">
     <g id="line2d_31">
      <path d="M 344.321367 318.743447 
L 344.321367 225.518636 
" clip-path="url(#pa6022d6f2e)" style="fill: none; stroke: #ffffff; stroke-width: 0.8; stroke-linecap: round"/>
     </g>
    </g>
    <g id="xtick_22">
     <g id="line2d_32">
      <path d="M 411.317383 318.743447 
L 411.317383 225.518636 
" clip-path="url(#pa6022d6f2e)" style="fill: none; stroke: #ffffff; stroke-width: 0.8; stroke-linecap: round"/>
     </g>
    </g>
    <g id="xtick_23">
     <g id="line2d_33">
      <path d="M 478.3134 318.743447 
L 478.3134 225.518636 
" clip-path="url(#pa6022d6f2e)" style="fill: none; stroke: #ffffff; stroke-width: 0.8; stroke-linecap: round"/>
     </g>
    </g>
    <g id="xtick_24">
     <g id="line2d_34">
      <path d="M 545.309416 318.743447 
L 545.309416 225.518636 
" clip-path="url(#pa6022d6f2e)" style="fill: none; stroke: #ffffff; stroke-width: 0.8; stroke-linecap: round"/>
     </g>
    </g>
   </g>
   <g id="matplotlib.axis_6">
    <g id="ytick_9">
     <g id="line2d_35">
      <path d="M 52.486719 309.562074 
L 577.19952 309.562074 
" clip-path="url(#pa6022d6f2e)" style="fill: none; stroke: #ffffff; stroke-width: 0.8; stroke-linecap: round"/>
     </g>
     <g id="text_11">
      <!-- −250 -->
      <g style="fill: #555555" transform="translate(25.215625 312.783089) scale(0.09 -0.09)">
       <defs>
        <path id="ArialMT-2212" d="M 3381 1997 
L 356 1997 
L 356 2522 
L 3381 2522 
L 3381 1997 
z
" transform="scale(0.015625)"/>
        <path id="ArialMT-32" d="M 3222 541 
L 3222 0 
L 194 0 
Q 188 203 259 391 
Q 375 700 629 1000 
Q 884 1300 1366 1694 
Q 2113 2306 2375 2664 
Q 2638 3022 2638 3341 
Q 2638 3675 2398 3904 
Q 2159 4134 1775 4134 
Q 1369 4134 1125 3890 
Q 881 3647 878 3216 
L 300 3275 
Q 359 3922 746 4261 
Q 1134 4600 1788 4600 
Q 2447 4600 2831 4234 
Q 3216 3869 3216 3328 
Q 3216 3053 3103 2787 
Q 2991 2522 2730 2228 
Q 2469 1934 1863 1422 
Q 1356 997 1212 845 
Q 1069 694 975 541 
L 3222 541 
z
" transform="scale(0.015625)"/>
       </defs>
       <use xlink:href="#ArialMT-2212"/>
       <use xlink:href="#ArialMT-32" x="58.398438"/>
       <use xlink:href="#ArialMT-35" x="114.013672"/>
       <use xlink:href="#ArialMT-30" x="169.628906"/>
      </g>
     </g>
    </g>
    <g id="ytick_10">
     <g id="line2d_36">
      <path d="M 52.486719 287.747348 
L 577.19952 287.747348 
" clip-path="url(#pa6022d6f2e)" style="fill: none; stroke: #ffffff; stroke-width: 0.8; stroke-linecap: round"/>
     </g>
     <g id="text_12">
      <!-- 0 -->
      <g style="fill: #555555" transform="translate(40.481875 290.968364) scale(0.09 -0.09)">
       <use xlink:href="#ArialMT-30"/>
      </g>
     </g>
    </g>
    <g id="ytick_11">
     <g id="line2d_37">
      <path d="M 52.486719 265.932622 
L 577.19952 265.932622 
" clip-path="url(#pa6022d6f2e)" style="fill: none; stroke: #ffffff; stroke-width: 0.8; stroke-linecap: round"/>
     </g>
     <g id="text_13">
      <!-- 250 -->
      <g style="fill: #555555" transform="translate(30.472188 269.153638) scale(0.09 -0.09)">
       <use xlink:href="#ArialMT-32"/>
       <use xlink:href="#ArialMT-35" x="55.615234"/>
       <use xlink:href="#ArialMT-30" x="111.230469"/>
      </g>
     </g>
    </g>
    <g id="ytick_12">
     <g id="line2d_38">
      <path d="M 52.486719 244.117896 
L 577.19952 244.117896 
" clip-path="url(#pa6022d6f2e)" style="fill: none; stroke: #ffffff; stroke-width: 0.8; stroke-linecap: round"/>
     </g>
     <g id="text_14">
      <!-- 500 -->
      <g style="fill: #555555" transform="translate(30.472188 247.338912) scale(0.09 -0.09)">
       <use xlink:href="#ArialMT-35"/>
       <use xlink:href="#ArialMT-30" x="55.615234"/>
       <use xlink:href="#ArialMT-30" x="111.230469"/>
      </g>
     </g>
    </g>
    <g id="text_15">
     <!-- seasonal -->
     <g style="fill: #555555" transform="translate(19.228125 292.144323) rotate(-90) scale(0.1 -0.1)">
      <defs>
       <path id="ArialMT-73" d="M 197 991 
L 753 1078 
Q 800 744 1014 566 
Q 1228 388 1613 388 
Q 2000 388 2187 545 
Q 2375 703 2375 916 
Q 2375 1106 2209 1216 
Q 2094 1291 1634 1406 
Q 1016 1563 777 1677 
Q 538 1791 414 1992 
Q 291 2194 291 2438 
Q 291 2659 392 2848 
Q 494 3038 669 3163 
Q 800 3259 1026 3326 
Q 1253 3394 1513 3394 
Q 1903 3394 2198 3281 
Q 2494 3169 2634 2976 
Q 2775 2784 2828 2463 
L 2278 2388 
Q 2241 2644 2061 2787 
Q 1881 2931 1553 2931 
Q 1166 2931 1000 2803 
Q 834 2675 834 2503 
Q 834 2394 903 2306 
Q 972 2216 1119 2156 
Q 1203 2125 1616 2013 
Q 2213 1853 2448 1751 
Q 2684 1650 2818 1456 
Q 2953 1263 2953 975 
Q 2953 694 2789 445 
Q 2625 197 2315 61 
Q 2006 -75 1616 -75 
Q 969 -75 630 194 
Q 291 463 197 991 
z
" transform="scale(0.015625)"/>
       <path id="ArialMT-61" d="M 2588 409 
Q 2275 144 1986 34 
Q 1697 -75 1366 -75 
Q 819 -75 525 192 
Q 231 459 231 875 
Q 231 1119 342 1320 
Q 453 1522 633 1644 
Q 813 1766 1038 1828 
Q 1203 1872 1538 1913 
Q 2219 1994 2541 2106 
Q 2544 2222 2544 2253 
Q 2544 2597 2384 2738 
Q 2169 2928 1744 2928 
Q 1347 2928 1158 2789 
Q 969 2650 878 2297 
L 328 2372 
Q 403 2725 575 2942 
Q 747 3159 1072 3276 
Q 1397 3394 1825 3394 
Q 2250 3394 2515 3294 
Q 2781 3194 2906 3042 
Q 3031 2891 3081 2659 
Q 3109 2516 3109 2141 
L 3109 1391 
Q 3109 606 3145 398 
Q 3181 191 3288 0 
L 2700 0 
Q 2613 175 2588 409 
z
M 2541 1666 
Q 2234 1541 1622 1453 
Q 1275 1403 1131 1340 
Q 988 1278 909 1158 
Q 831 1038 831 891 
Q 831 666 1001 516 
Q 1172 366 1500 366 
Q 1825 366 2078 508 
Q 2331 650 2450 897 
Q 2541 1088 2541 1459 
L 2541 1666 
z
" transform="scale(0.015625)"/>
      </defs>
      <use xlink:href="#ArialMT-73"/>
      <use xlink:href="#ArialMT-65" x="50"/>
      <use xlink:href="#ArialMT-61" x="105.615234"/>
      <use xlink:href="#ArialMT-73" x="161.230469"/>
      <use xlink:href="#ArialMT-6f" x="211.230469"/>
      <use xlink:href="#ArialMT-6e" x="266.845703"/>
      <use xlink:href="#ArialMT-61" x="322.460938"/>
      <use xlink:href="#ArialMT-6c" x="378.076172"/>
     </g>
    </g>
   </g>
   <g id="PolyCollection_3"/>
   <g id="line2d_39">
    <path d="M 76.337301 288.070205 
L 77.677221 312.91267 
L 79.017141 314.505956 
L 80.357062 308.320836 
L 81.696982 297.816921 
L 83.036902 289.385123 
L 84.376823 288.95707 
L 85.716743 287.232312 
L 87.056663 289.88804 
L 88.396584 282.434417 
L 89.736504 258.119808 
L 91.076424 237.187359 
L 92.416345 288.994349 
L 93.756265 311.118134 
L 95.096185 313.476145 
L 96.436106 307.355689 
L 97.776026 297.586784 
L 99.115946 289.463849 
L 100.455867 289.279074 
L 101.795787 287.78399 
L 103.135707 290.397398 
L 104.475628 282.693281 
L 105.815548 258.661365 
L 107.155468 237.354178 
L 108.495389 289.891211 
L 109.835309 309.58673 
L 111.175229 312.60189 
L 112.51515 306.582522 
L 113.85507 297.544482 
L 115.19499 289.670847 
L 116.534911 289.657349 
L 117.874831 288.316678 
L 119.214751 290.853695 
L 120.554672 282.923318 
L 121.894592 258.883623 
L 123.234512 237.301708 
L 124.574433 291.146494 
L 125.914353 308.351264 
L 127.254273 311.904205 
L 128.594193 305.622257 
L 131.274034 289.723952 
L 132.613954 289.942284 
L 133.953875 288.88799 
L 135.293795 291.303419 
L 136.633715 283.045959 
L 137.973636 258.76934 
L 139.313556 237.04387 
L 140.653476 291.562444 
L 141.993397 308.513221 
L 143.333317 312.121554 
L 144.673237 305.752891 
L 147.353078 289.776529 
L 148.692998 289.920709 
L 150.032919 288.9634 
L 151.372839 291.325548 
L 152.712759 282.405967 
L 154.05268 256.262297 
L 155.3926 234.995568 
L 156.73252 292.232258 
L 158.072441 310.241249 
L 159.412361 312.8711 
L 160.752281 307.096205 
L 162.092202 297.965462 
L 163.432122 290.200248 
L 164.772042 290.255654 
L 166.111963 289.17249 
L 167.451883 291.813404 
L 168.791803 281.612412 
L 170.131724 253.24989 
L 171.471644 232.245624 
L 172.811564 292.442783 
L 174.151485 311.573806 
L 175.491405 313.665129 
L 176.831325 308.03088 
L 178.171246 298.045422 
L 179.511166 290.42584 
L 180.851086 290.506645 
L 182.191007 289.515514 
L 183.530927 292.729259 
L 184.870847 281.408336 
L 186.210768 251.846999 
L 187.550688 230.804849 
L 188.890608 293.157355 
L 190.230529 312.261622 
L 191.570449 314.050516 
L 192.910369 308.36767 
L 194.25029 297.719648 
L 195.59021 290.56033 
L 196.93013 290.294788 
L 198.270051 289.881616 
L 199.609971 293.686572 
L 200.949891 281.724045 
L 202.289812 251.830119 
L 203.629732 230.183286 
L 204.969652 293.644721 
L 206.309573 312.140445 
L 207.649493 313.680427 
L 208.989413 307.022369 
L 210.329334 297.536832 
L 211.669254 290.85436 
L 213.009174 290.462315 
L 214.349095 290.439003 
L 215.689015 294.637783 
L 217.028935 282.5513 
L 218.368856 252.132244 
L 219.708776 229.756128 
L 221.048696 293.183954 
L 222.388617 311.328557 
L 223.728537 312.795983 
L 225.068457 305.746295 
L 226.408378 297.569305 
L 227.748298 290.768752 
L 229.088218 291.119838 
L 230.428139 290.7934 
L 231.768059 294.953296 
L 233.107979 283.343343 
L 234.4479 252.135731 
L 235.78782 230.441154 
L 237.12774 293.485068 
L 238.467661 310.813488 
L 239.807581 311.40002 
L 241.147501 305.387592 
L 243.827342 290.112065 
L 245.167262 291.586592 
L 246.507183 290.731458 
L 247.847103 294.914001 
L 249.187023 283.452663 
L 250.526944 251.572052 
L 251.866864 231.5555 
L 253.206784 294.312478 
L 254.546705 311.379828 
L 255.886625 310.649344 
L 257.226545 305.136055 
L 259.906386 289.562079 
L 261.246306 291.787534 
L 262.586227 290.468674 
L 263.926147 294.635759 
L 265.266067 283.085484 
L 266.605987 251.338077 
L 267.945908 233.170933 
L 269.285828 295.23063 
L 270.625748 311.942503 
L 271.965669 310.185239 
L 273.305589 305.145687 
L 274.645509 296.169078 
L 275.98543 288.708864 
L 277.32535 291.497223 
L 278.66527 290.080846 
L 280.005191 294.393555 
L 281.345111 282.812413 
L 282.685031 252.314155 
L 284.024952 236.082155 
L 285.364872 296.727692 
L 286.704792 312.824468 
L 288.044713 309.987383 
L 289.384633 304.008209 
L 290.724553 294.670128 
L 292.064474 287.604435 
L 293.404394 290.034603 
L 294.744314 289.414391 
L 296.084235 294.983431 
L 297.424155 283.317832 
L 298.764075 253.323982 
L 300.103996 237.638991 
L 301.443916 297.339865 
L 302.783836 313.049951 
L 304.123757 309.584285 
L 305.463677 303.092498 
L 306.803597 294.097211 
L 308.143518 287.307798 
L 309.483438 289.100962 
L 310.823358 288.671954 
L 312.163279 295.991008 
L 313.503199 284.495098 
L 314.843119 253.678101 
L 316.18304 238.255757 
L 317.52296 297.38061 
L 318.86288 312.764645 
L 321.542721 302.781171 
L 322.882641 293.97173 
L 324.222562 287.502629 
L 325.562482 288.922102 
L 326.902402 288.590535 
L 328.242323 297.428559 
L 329.582243 286.426882 
L 330.922163 252.954345 
L 332.262084 238.020452 
L 333.602004 296.966096 
L 334.941924 312.465934 
L 336.281845 306.339814 
L 337.621765 302.960323 
L 338.961685 294.123951 
L 340.301606 288.055609 
L 341.641526 288.530921 
L 342.981446 287.85923 
L 344.321367 297.517949 
L 345.661287 287.356485 
L 347.001207 252.239619 
L 348.341128 237.435068 
L 349.681048 296.386451 
L 351.020968 312.534742 
L 352.360889 305.770054 
L 353.700809 303.856519 
L 355.040729 294.610428 
L 356.38065 288.389724 
L 357.72057 288.338403 
L 359.06049 286.858995 
L 360.400411 296.247524 
L 361.740331 286.889781 
L 363.080251 253.156666 
L 364.420172 239.068587 
L 365.760092 296.711765 
L 367.100012 313.003376 
L 368.439933 306.350224 
L 369.779853 304.370991 
L 371.119773 294.226035 
L 372.459694 287.858138 
L 373.799614 287.905785 
L 375.139534 285.920599 
L 376.479455 295.037204 
L 377.819375 286.462666 
L 379.159295 254.935554 
L 380.499216 241.554247 
L 381.839136 296.961445 
L 383.179056 313.099069 
L 384.518977 307.139736 
L 385.858897 303.559349 
L 387.198817 293.525766 
L 388.538738 286.946066 
L 389.878658 286.874867 
L 391.218578 285.226439 
L 392.558499 294.645686 
L 393.898419 285.791971 
L 395.238339 256.539338 
L 396.57826 243.821554 
L 397.91818 296.886748 
L 399.2581 313.102987 
L 400.59802 308.009076 
L 401.937941 302.209511 
L 403.277861 292.83803 
L 404.617781 286.739615 
L 405.957702 286.926103 
L 407.297622 286.238353 
L 408.637542 295.857952 
L 409.977463 286.443469 
L 411.317383 256.042989 
L 412.657303 244.261975 
L 413.997224 295.650168 
L 415.337144 312.535138 
L 416.677064 307.998326 
L 418.016985 301.027422 
L 419.356905 292.536236 
L 420.696825 287.376108 
L 423.376666 287.736968 
L 424.716586 297.206909 
L 426.056507 286.807182 
L 427.396427 253.214985 
L 428.736347 242.143525 
L 430.076268 294.530811 
L 431.416188 312.633476 
L 432.756108 309.001617 
L 435.435949 293.63996 
L 436.775869 288.128932 
L 438.11579 287.7156 
L 439.45571 288.359625 
L 440.79563 297.566999 
L 442.135551 286.278416 
L 443.475471 250.578386 
L 444.815391 239.468312 
L 446.155312 294.201611 
L 447.495232 313.247982 
L 448.835152 310.059296 
L 451.514993 294.657652 
L 452.854913 288.481466 
L 454.194834 287.792966 
L 455.534754 288.901599 
L 456.874674 298.046722 
L 458.214595 285.863744 
L 459.554515 249.587145 
L 460.894435 238.680581 
L 462.234356 294.914883 
L 463.574276 313.409267 
L 464.914196 309.950506 
L 466.254117 303.118839 
L 467.594037 294.957497 
L 468.933957 288.019172 
L 470.273878 287.039148 
L 471.613798 288.736398 
L 472.953718 298.499738 
L 474.293639 285.485323 
L 475.633559 250.665285 
L 476.973479 239.56076 
L 478.3134 295.236506 
L 479.65332 312.908786 
L 480.99324 308.992225 
L 482.333161 302.669118 
L 485.013001 287.343445 
L 486.352922 286.403372 
L 487.692842 288.712868 
L 489.032762 299.124467 
L 490.372683 285.80354 
L 491.712603 251.841607 
L 493.052523 241.681696 
L 494.392444 294.832197 
L 495.732364 311.562529 
L 497.072284 307.823866 
L 498.412205 302.139063 
L 499.752125 294.214005 
L 501.092045 287.107315 
L 502.431966 286.424086 
L 503.771886 288.846661 
L 505.111806 299.951807 
L 506.451727 287.235744 
L 507.791647 250.723176 
L 509.131567 243.41254 
L 510.471488 294.662396 
L 511.811408 310.476212 
L 513.151328 307.424434 
L 514.491249 301.997581 
L 515.831169 294.096925 
L 517.171089 287.299234 
L 518.51101 286.485864 
L 519.85093 288.74702 
L 521.19085 300.319453 
L 522.530771 288.558882 
L 523.870691 249.372392 
L 525.210611 244.743673 
L 526.550532 294.053613 
L 527.890452 309.334414 
L 529.230372 307.132558 
L 530.570293 301.959869 
L 531.910213 294.284547 
L 533.250133 287.589667 
L 534.590054 286.615971 
L 535.929974 288.789123 
L 537.269894 300.695243 
L 538.609814 289.939267 
L 539.949735 247.691869 
L 541.289655 245.935968 
L 542.629575 293.532868 
L 543.969496 308.267599 
L 545.309416 306.941096 
L 546.649336 301.936043 
L 547.989257 294.418964 
L 549.329177 287.889431 
L 550.669097 286.725228 
L 552.009018 288.840247 
L 553.348938 301.100149 
L 553.348938 301.100149 
" clip-path="url(#pa6022d6f2e)" style="fill: none; stroke: #000000; stroke-width: 1.5; stroke-linecap: round"/>
   </g>
   <g id="patch_13">
    <path d="M 52.486719 318.743447 
L 52.486719 225.518636 
" style="fill: none; stroke: #ffffff; stroke-linejoin: miter; stroke-linecap: square"/>
   </g>
   <g id="patch_14">
    <path d="M 577.19952 318.743447 
L 577.19952 225.518636 
" style="fill: none; stroke: #ffffff; stroke-linejoin: miter; stroke-linecap: square"/>
   </g>
   <g id="patch_15">
    <path d="M 52.486719 318.743447 
L 577.19952 318.743447 
" style="fill: none; stroke: #ffffff; stroke-linejoin: miter; stroke-linecap: square"/>
   </g>
   <g id="patch_16">
    <path d="M 52.486719 225.518636 
L 577.19952 225.518636 
" style="fill: none; stroke: #ffffff; stroke-linejoin: miter; stroke-linecap: square"/>
   </g>
  </g>
  <g id="axes_4">
   <g id="patch_17">
    <path d="M 52.486719 417.968739 
L 577.19952 417.968739 
L 577.19952 324.743927 
L 52.486719 324.743927 
z
" style="fill: #e5e5e5"/>
   </g>
   <g id="matplotlib.axis_7">
    <g id="xtick_25">
     <g id="line2d_40">
      <path d="M 76.337301 417.968739 
L 76.337301 324.743927 
" clip-path="url(#p8acc0551e6)" style="fill: none; stroke: #ffffff; stroke-width: 0.8; stroke-linecap: round"/>
     </g>
     <g id="text_16">
      <!-- 0 -->
      <g style="fill: #555555" transform="translate(73.834879 431.41077) scale(0.09 -0.09)">
       <use xlink:href="#ArialMT-30"/>
      </g>
     </g>
    </g>
    <g id="xtick_26">
     <g id="line2d_41">
      <path d="M 143.333317 417.968739 
L 143.333317 324.743927 
" clip-path="url(#p8acc0551e6)" style="fill: none; stroke: #ffffff; stroke-width: 0.8; stroke-linecap: round"/>
     </g>
     <g id="text_17">
      <!-- 50 -->
      <g style="fill: #555555" transform="translate(138.328473 431.41077) scale(0.09 -0.09)">
       <use xlink:href="#ArialMT-35"/>
       <use xlink:href="#ArialMT-30" x="55.615234"/>
      </g>
     </g>
    </g>
    <g id="xtick_27">
     <g id="line2d_42">
      <path d="M 210.329334 417.968739 
L 210.329334 324.743927 
" clip-path="url(#p8acc0551e6)" style="fill: none; stroke: #ffffff; stroke-width: 0.8; stroke-linecap: round"/>
     </g>
     <g id="text_18">
      <!-- 100 -->
      <g style="fill: #555555" transform="translate(202.822068 431.41077) scale(0.09 -0.09)">
       <use xlink:href="#ArialMT-31"/>
       <use xlink:href="#ArialMT-30" x="55.615234"/>
       <use xlink:href="#ArialMT-30" x="111.230469"/>
      </g>
     </g>
    </g>
    <g id="xtick_28">
     <g id="line2d_43">
      <path d="M 277.32535 417.968739 
L 277.32535 324.743927 
" clip-path="url(#p8acc0551e6)" style="fill: none; stroke: #ffffff; stroke-width: 0.8; stroke-linecap: round"/>
     </g>
     <g id="text_19">
      <!-- 150 -->
      <g style="fill: #555555" transform="translate(269.818085 431.41077) scale(0.09 -0.09)">
       <use xlink:href="#ArialMT-31"/>
       <use xlink:href="#ArialMT-35" x="55.615234"/>
       <use xlink:href="#ArialMT-30" x="111.230469"/>
      </g>
     </g>
    </g>
    <g id="xtick_29">
     <g id="line2d_44">
      <path d="M 344.321367 417.968739 
L 344.321367 324.743927 
" clip-path="url(#p8acc0551e6)" style="fill: none; stroke: #ffffff; stroke-width: 0.8; stroke-linecap: round"/>
     </g>
     <g id="text_20">
      <!-- 200 -->
      <g style="fill: #555555" transform="translate(336.814101 431.41077) scale(0.09 -0.09)">
       <use xlink:href="#ArialMT-32"/>
       <use xlink:href="#ArialMT-30" x="55.615234"/>
       <use xlink:href="#ArialMT-30" x="111.230469"/>
      </g>
     </g>
    </g>
    <g id="xtick_30">
     <g id="line2d_45">
      <path d="M 411.317383 417.968739 
L 411.317383 324.743927 
" clip-path="url(#p8acc0551e6)" style="fill: none; stroke: #ffffff; stroke-width: 0.8; stroke-linecap: round"/>
     </g>
     <g id="text_21">
      <!-- 250 -->
      <g style="fill: #555555" transform="translate(403.810118 431.41077) scale(0.09 -0.09)">
       <use xlink:href="#ArialMT-32"/>
       <use xlink:href="#ArialMT-35" x="55.615234"/>
       <use xlink:href="#ArialMT-30" x="111.230469"/>
      </g>
     </g>
    </g>
    <g id="xtick_31">
     <g id="line2d_46">
      <path d="M 478.3134 417.968739 
L 478.3134 324.743927 
" clip-path="url(#p8acc0551e6)" style="fill: none; stroke: #ffffff; stroke-width: 0.8; stroke-linecap: round"/>
     </g>
     <g id="text_22">
      <!-- 300 -->
      <g style="fill: #555555" transform="translate(470.806134 431.41077) scale(0.09 -0.09)">
       <use xlink:href="#ArialMT-33"/>
       <use xlink:href="#ArialMT-30" x="55.615234"/>
       <use xlink:href="#ArialMT-30" x="111.230469"/>
      </g>
     </g>
    </g>
    <g id="xtick_32">
     <g id="line2d_47">
      <path d="M 545.309416 417.968739 
L 545.309416 324.743927 
" clip-path="url(#p8acc0551e6)" style="fill: none; stroke: #ffffff; stroke-width: 0.8; stroke-linecap: round"/>
     </g>
     <g id="text_23">
      <!-- 350 -->
      <g style="fill: #555555" transform="translate(537.802151 431.41077) scale(0.09 -0.09)">
       <use xlink:href="#ArialMT-33"/>
       <use xlink:href="#ArialMT-35" x="55.615234"/>
       <use xlink:href="#ArialMT-30" x="111.230469"/>
      </g>
     </g>
    </g>
   </g>
   <g id="matplotlib.axis_8">
    <g id="ytick_13">
     <g id="line2d_48">
      <path d="M 52.486719 416.04306 
L 577.19952 416.04306 
" clip-path="url(#p8acc0551e6)" style="fill: none; stroke: #ffffff; stroke-width: 0.8; stroke-linecap: round"/>
     </g>
     <g id="text_24">
      <!-- −100 -->
      <g style="fill: #555555" transform="translate(25.215625 419.264075) scale(0.09 -0.09)">
       <use xlink:href="#ArialMT-2212"/>
       <use xlink:href="#ArialMT-31" x="58.398438"/>
       <use xlink:href="#ArialMT-30" x="114.013672"/>
       <use xlink:href="#ArialMT-30" x="169.628906"/>
      </g>
     </g>
    </g>
    <g id="ytick_14">
     <g id="line2d_49">
      <path d="M 52.486719 394.6767 
L 577.19952 394.6767 
" clip-path="url(#p8acc0551e6)" style="fill: none; stroke: #ffffff; stroke-width: 0.8; stroke-linecap: round"/>
     </g>
     <g id="text_25">
      <!-- −50 -->
      <g style="fill: #555555" transform="translate(30.220469 397.897716) scale(0.09 -0.09)">
       <use xlink:href="#ArialMT-2212"/>
       <use xlink:href="#ArialMT-35" x="58.398438"/>
       <use xlink:href="#ArialMT-30" x="114.013672"/>
      </g>
     </g>
    </g>
    <g id="ytick_15">
     <g id="line2d_50">
      <path d="M 52.486719 373.31034 
L 577.19952 373.31034 
" clip-path="url(#p8acc0551e6)" style="fill: none; stroke: #ffffff; stroke-width: 0.8; stroke-linecap: round"/>
     </g>
     <g id="text_26">
      <!-- 0 -->
      <g style="fill: #555555" transform="translate(40.481875 376.531356) scale(0.09 -0.09)">
       <use xlink:href="#ArialMT-30"/>
      </g>
     </g>
    </g>
    <g id="ytick_16">
     <g id="line2d_51">
      <path d="M 52.486719 351.94398 
L 577.19952 351.94398 
" clip-path="url(#p8acc0551e6)" style="fill: none; stroke: #ffffff; stroke-width: 0.8; stroke-linecap: round"/>
     </g>
     <g id="text_27">
      <!-- 50 -->
      <g style="fill: #555555" transform="translate(35.477031 355.164996) scale(0.09 -0.09)">
       <use xlink:href="#ArialMT-35"/>
       <use xlink:href="#ArialMT-30" x="55.615234"/>
      </g>
     </g>
    </g>
    <g id="ytick_17">
     <g id="line2d_52">
      <path d="M 52.486719 330.577621 
L 577.19952 330.577621 
" clip-path="url(#p8acc0551e6)" style="fill: none; stroke: #ffffff; stroke-width: 0.8; stroke-linecap: round"/>
     </g>
     <g id="text_28">
      <!-- 100 -->
      <g style="fill: #555555" transform="translate(30.472188 333.798636) scale(0.09 -0.09)">
       <use xlink:href="#ArialMT-31"/>
       <use xlink:href="#ArialMT-30" x="55.615234"/>
       <use xlink:href="#ArialMT-30" x="111.230469"/>
      </g>
     </g>
    </g>
    <g id="text_29">
     <!-- remainder -->
     <g style="fill: #555555" transform="translate(19.228125 393.864146) rotate(-90) scale(0.1 -0.1)">
      <defs>
       <path id="ArialMT-69" d="M 425 3934 
L 425 4581 
L 988 4581 
L 988 3934 
L 425 3934 
z
M 425 0 
L 425 3319 
L 988 3319 
L 988 0 
L 425 0 
z
" transform="scale(0.015625)"/>
      </defs>
      <use xlink:href="#ArialMT-72"/>
      <use xlink:href="#ArialMT-65" x="33.300781"/>
      <use xlink:href="#ArialMT-6d" x="88.916016"/>
      <use xlink:href="#ArialMT-61" x="172.216797"/>
      <use xlink:href="#ArialMT-69" x="227.832031"/>
      <use xlink:href="#ArialMT-6e" x="250.048828"/>
      <use xlink:href="#ArialMT-64" x="305.664062"/>
      <use xlink:href="#ArialMT-65" x="361.279297"/>
      <use xlink:href="#ArialMT-72" x="416.894531"/>
     </g>
    </g>
   </g>
   <g id="PolyCollection_4"/>
   <g id="line2d_53">
    <path d="M 76.337301 389.01414 
L 77.677221 382.449523 
L 79.017141 377.927631 
L 80.357062 367.717161 
L 81.696982 369.196104 
L 83.036902 369.61849 
L 84.376823 368.016369 
L 85.716743 371.781084 
L 87.056663 369.183406 
L 88.396584 365.638735 
L 89.736504 357.007341 
L 91.076424 359.41973 
L 92.416345 353.409255 
L 93.756265 372.923246 
L 95.096185 376.450572 
L 96.436106 395.190096 
L 97.776026 393.268129 
L 99.115946 390.376005 
L 100.455867 387.191897 
L 101.795787 377.825082 
L 103.135707 379.767284 
L 104.475628 386.163825 
L 105.815548 387.106151 
L 107.155468 386.267185 
L 108.495389 384.610081 
L 109.835309 373.31305 
L 111.175229 373.914538 
L 112.51515 365.080456 
L 113.85507 365.085447 
L 115.19499 368.52523 
L 116.534911 379.144381 
L 117.874831 385.940705 
L 119.214751 388.242398 
L 120.554672 385.527541 
L 121.894592 398.014274 
L 123.234512 396.29536 
L 124.574433 379.412854 
L 125.914353 365.673402 
L 127.254273 376.988819 
L 128.594193 378.254576 
L 129.934114 378.201066 
L 131.274034 379.194216 
L 132.613954 375.323929 
L 133.953875 376.409371 
L 135.293795 377.737739 
L 136.633715 378.145652 
L 137.973636 391.290645 
L 139.313556 386.141975 
L 140.653476 393.411109 
L 141.993397 386.901513 
L 143.333317 372.050868 
L 144.673237 373.789755 
L 146.013158 378.72041 
L 147.353078 379.440592 
L 148.692998 374.554708 
L 150.032919 371.906792 
L 151.372839 365.760094 
L 152.712759 365.652854 
L 154.05268 352.383766 
L 155.3926 351.234158 
L 156.73252 344.149055 
L 158.072441 352.959128 
L 159.412361 369.306992 
L 160.752281 359.093142 
L 162.092202 368.944994 
L 163.432122 365.24792 
L 164.772042 370.896752 
L 166.111963 370.472979 
L 167.451883 370.661381 
L 168.791803 380.041887 
L 170.131724 381.031588 
L 171.471644 388.959039 
L 172.811564 385.303945 
L 174.151485 385.091568 
L 175.491405 377.259542 
L 176.831325 387.976779 
L 178.171246 369.734189 
L 179.511166 369.261792 
L 180.851086 367.615007 
L 182.191007 369.925715 
L 183.530927 370.623282 
L 184.870847 361.724982 
L 186.210768 360.419162 
L 187.550688 359.674129 
L 188.890608 374.554194 
L 190.230529 376.371518 
L 191.570449 368.659813 
L 192.910369 370.794803 
L 194.25029 378.145945 
L 195.59021 379.254295 
L 196.93013 381.452139 
L 198.270051 374.918498 
L 199.609971 377.597047 
L 200.949891 369.603358 
L 202.289812 365.168647 
L 203.629732 362.725405 
L 204.969652 368.067756 
L 207.649493 384.74398 
L 208.989413 384.714062 
L 210.329334 375.632338 
L 211.669254 375.676021 
L 213.009174 372.762368 
L 214.349095 376.569361 
L 215.689015 373.534014 
L 217.028935 382.763126 
L 218.368856 386.449687 
L 219.708776 391.738855 
L 221.048696 386.032538 
L 222.388617 369.315329 
L 223.728537 372.212539 
L 225.068457 368.657111 
L 226.408378 366.069104 
L 227.748298 369.264854 
L 229.088218 362.049821 
L 230.428139 371.032792 
L 231.768059 375.751596 
L 233.107979 371.676763 
L 234.4479 378.60452 
L 235.78782 364.482152 
L 237.12774 361.272112 
L 238.467661 373.967476 
L 239.807581 369.708981 
L 241.147501 346.205719 
L 242.487422 370.121103 
L 243.827342 373.33269 
L 245.167262 372.298356 
L 246.507183 368.647396 
L 247.847103 366.301227 
L 249.187023 363.504742 
L 250.526944 352.299497 
L 251.866864 342.732112 
L 253.206784 349.966065 
L 254.546705 346.473022 
L 255.886625 353.65327 
L 257.226545 388.367332 
L 258.566466 373.587609 
L 259.906386 364.387673 
L 261.246306 380.64584 
L 262.586227 367.660958 
L 263.926147 364.680657 
L 265.266067 371.948248 
L 266.605987 369.082494 
L 267.945908 391.649167 
L 269.285828 391.957307 
L 270.625748 388.10727 
L 271.965669 377.846491 
L 273.305589 370.071506 
L 274.645509 371.179684 
L 275.98543 370.752094 
L 277.32535 360.873532 
L 278.66527 375.827535 
L 280.005191 381.20194 
L 281.345111 378.881866 
L 282.685031 373.482108 
L 284.024952 365.62801 
L 286.704792 376.976227 
L 288.044713 387.861175 
L 289.384633 383.493228 
L 290.724553 384.904466 
L 292.064474 391.856867 
L 293.404394 392.6567 
L 296.084235 370.143096 
L 297.424155 368.754837 
L 298.764075 389.724669 
L 300.103996 390.351602 
L 301.443916 378.531343 
L 302.783836 378.958831 
L 304.123757 366.952913 
L 305.463677 367.649781 
L 306.803597 364.989515 
L 308.143518 364.219549 
L 309.483438 375.396325 
L 310.823358 383.089358 
L 312.163279 379.567015 
L 313.503199 375.695438 
L 314.843119 375.535148 
L 316.18304 381.818783 
L 317.52296 380.870653 
L 318.86288 373.393286 
L 320.202801 386.812023 
L 321.542721 371.734368 
L 322.882641 369.030586 
L 324.222562 362.915016 
L 325.562482 350.935877 
L 326.902402 349.521326 
L 328.242323 363.756853 
L 329.582243 369.580673 
L 330.922163 368.883614 
L 332.262084 360.456368 
L 333.602004 369.521802 
L 334.941924 371.074293 
L 336.281845 366.736747 
L 337.621765 375.489936 
L 338.961685 385.220983 
L 340.301606 383.632109 
L 341.641526 387.049969 
L 342.981446 389.551238 
L 344.321367 390.305783 
L 345.661287 380.788945 
L 347.001207 375.6995 
L 348.341128 381.985015 
L 349.681048 372.884394 
L 351.020968 368.6872 
L 352.360889 357.344652 
L 353.700809 361.763875 
L 355.040729 354.986967 
L 356.38065 369.786073 
L 357.72057 372.682163 
L 359.06049 371.985299 
L 360.400411 368.024962 
L 361.740331 374.590251 
L 363.080251 337.16823 
L 364.420172 328.981419 
L 365.760092 337.278645 
L 367.100012 347.157339 
L 368.439933 344.367442 
L 369.779853 354.686317 
L 371.119773 362.7155 
L 372.459694 354.983514 
L 373.799614 345.157438 
L 375.139534 344.524653 
L 376.479455 345.332014 
L 377.819375 342.283426 
L 379.159295 376.767777 
L 380.499216 382.826227 
L 381.839136 398.001699 
L 383.179056 398.481677 
L 384.518977 413.731247 
L 385.858897 411.469889 
L 387.198817 397.365927 
L 388.538738 389.487223 
L 389.878658 396.530638 
L 391.218578 388.692421 
L 392.558499 386.713861 
L 393.898419 402.637758 
L 395.238339 404.642128 
L 396.57826 405.479781 
L 397.91818 387.895622 
L 399.2581 378.797873 
L 400.59802 366.96987 
L 401.937941 371.277561 
L 403.277861 372.462412 
L 404.617781 379.788763 
L 405.957702 382.248751 
L 407.297622 383.206895 
L 408.637542 386.110112 
L 409.977463 375.012377 
L 411.317383 386.121588 
L 412.657303 383.944622 
L 413.997224 379.894842 
L 415.337144 376.975174 
L 416.677064 379.684225 
L 418.016985 363.298636 
L 419.356905 371.47953 
L 420.696825 365.878121 
L 422.036746 358.519344 
L 423.376666 366.656375 
L 424.716586 371.292473 
L 426.056507 372.178903 
L 427.396427 376.379845 
L 428.736347 370.440653 
L 430.076268 359.332373 
L 431.416188 367.08863 
L 432.756108 364.023632 
L 434.096029 367.201289 
L 435.435949 365.68458 
L 436.775869 380.578653 
L 438.11579 391.370763 
L 439.45571 390.367196 
L 440.79563 383.458755 
L 442.135551 385.472231 
L 443.475471 359.727327 
L 444.815391 379.391381 
L 446.155312 378.356974 
L 447.495232 374.238794 
L 448.835152 383.548494 
L 450.175073 389.572354 
L 451.514993 386.982587 
L 452.854913 380.12214 
L 454.194834 372.242023 
L 455.534754 363.039455 
L 456.874674 362.965986 
L 458.214595 365.301679 
L 459.554515 364.469638 
L 460.894435 349.850809 
L 462.234356 370.599619 
L 463.574276 383.601938 
L 464.914196 383.005488 
L 466.254117 373.813219 
L 467.594037 379.346655 
L 468.933957 372.922739 
L 470.273878 372.020386 
L 471.613798 376.686187 
L 472.953718 373.128855 
L 474.293639 368.277154 
L 475.633559 371.98057 
L 476.973479 369.972347 
L 478.3134 374.265367 
L 479.65332 371.701867 
L 480.99324 370.700447 
L 482.333161 371.217295 
L 483.673081 362.689498 
L 485.013001 368.478154 
L 486.352922 369.636648 
L 489.032762 380.526555 
L 490.372683 375.547865 
L 493.052523 383.728945 
L 494.392444 386.114382 
L 495.732364 371.489134 
L 497.072284 358.869344 
L 499.752125 367.81456 
L 501.092045 363.820892 
L 502.431966 363.2767 
L 503.771886 360.38138 
L 505.111806 358.507635 
L 506.451727 359.513227 
L 507.791647 385.532853 
L 510.471488 343.763878 
L 511.811408 362.259847 
L 513.151328 372.906228 
L 514.491249 375.783503 
L 515.831169 381.400288 
L 517.171089 376.968854 
L 518.51101 379.790296 
L 519.85093 380.187841 
L 521.19085 378.054776 
L 522.530771 374.587607 
L 523.870691 366.946681 
L 525.210611 381.022682 
L 526.550532 390.723481 
L 527.890452 376.661821 
L 529.230372 373.243516 
L 530.570293 368.587626 
L 531.910213 356.769504 
L 533.250133 369.088341 
L 534.590054 369.435603 
L 535.929974 366.538521 
L 537.269894 373.168396 
L 538.609814 374.888792 
L 539.949735 367.885846 
L 541.289655 366.394759 
L 542.629575 368.34122 
L 543.969496 373.267587 
L 545.309416 373.363111 
L 546.649336 374.729065 
L 547.989257 380.496878 
L 549.329177 374.043031 
L 550.669097 372.692557 
L 552.009018 375.257907 
L 553.348938 371.624609 
L 553.348938 371.624609 
" clip-path="url(#p8acc0551e6)" style="fill: none; stroke: #000000; stroke-width: 1.5; stroke-linecap: round"/>
   </g>
   <g id="patch_18">
    <path d="M 52.486719 417.968739 
L 52.486719 324.743927 
" style="fill: none; stroke: #ffffff; stroke-linejoin: miter; stroke-linecap: square"/>
   </g>
   <g id="patch_19">
    <path d="M 577.19952 417.968739 
L 577.19952 324.743927 
" style="fill: none; stroke: #ffffff; stroke-linejoin: miter; stroke-linecap: square"/>
   </g>
   <g id="patch_20">
    <path d="M 52.486719 417.968739 
L 577.19952 417.968739 
" style="fill: none; stroke: #ffffff; stroke-linejoin: miter; stroke-linecap: square"/>
   </g>
   <g id="patch_21">
    <path d="M 52.486719 324.743927 
L 577.19952 324.743927 
" style="fill: none; stroke: #ffffff; stroke-linejoin: miter; stroke-linecap: square"/>
   </g>
  </g>
  <g id="text_30">
   <!-- STL decomposition -->
   <g style="fill: #262626" transform="translate(241.067573 15.935625) scale(0.12 -0.12)">
    <defs>
     <path id="ArialMT-53" d="M 288 1472 
L 859 1522 
Q 900 1178 1048 958 
Q 1197 738 1509 602 
Q 1822 466 2213 466 
Q 2559 466 2825 569 
Q 3091 672 3220 851 
Q 3350 1031 3350 1244 
Q 3350 1459 3225 1620 
Q 3100 1781 2813 1891 
Q 2628 1963 1997 2114 
Q 1366 2266 1113 2400 
Q 784 2572 623 2826 
Q 463 3081 463 3397 
Q 463 3744 659 4045 
Q 856 4347 1234 4503 
Q 1613 4659 2075 4659 
Q 2584 4659 2973 4495 
Q 3363 4331 3572 4012 
Q 3781 3694 3797 3291 
L 3216 3247 
Q 3169 3681 2898 3903 
Q 2628 4125 2100 4125 
Q 1550 4125 1298 3923 
Q 1047 3722 1047 3438 
Q 1047 3191 1225 3031 
Q 1400 2872 2139 2705 
Q 2878 2538 3153 2413 
Q 3553 2228 3743 1945 
Q 3934 1663 3934 1294 
Q 3934 928 3725 604 
Q 3516 281 3123 101 
Q 2731 -78 2241 -78 
Q 1619 -78 1198 103 
Q 778 284 539 648 
Q 300 1013 288 1472 
z
" transform="scale(0.015625)"/>
     <path id="ArialMT-54" d="M 1659 0 
L 1659 4041 
L 150 4041 
L 150 4581 
L 3781 4581 
L 3781 4041 
L 2266 4041 
L 2266 0 
L 1659 0 
z
" transform="scale(0.015625)"/>
     <path id="ArialMT-4c" d="M 469 0 
L 469 4581 
L 1075 4581 
L 1075 541 
L 3331 541 
L 3331 0 
L 469 0 
z
" transform="scale(0.015625)"/>
     <path id="ArialMT-20" transform="scale(0.015625)"/>
     <path id="ArialMT-63" d="M 2588 1216 
L 3141 1144 
Q 3050 572 2676 248 
Q 2303 -75 1759 -75 
Q 1078 -75 664 370 
Q 250 816 250 1647 
Q 250 2184 428 2587 
Q 606 2991 970 3192 
Q 1334 3394 1763 3394 
Q 2303 3394 2647 3120 
Q 2991 2847 3088 2344 
L 2541 2259 
Q 2463 2594 2264 2762 
Q 2066 2931 1784 2931 
Q 1359 2931 1093 2626 
Q 828 2322 828 1663 
Q 828 994 1084 691 
Q 1341 388 1753 388 
Q 2084 388 2306 591 
Q 2528 794 2588 1216 
z
" transform="scale(0.015625)"/>
    </defs>
    <use xlink:href="#ArialMT-53"/>
    <use xlink:href="#ArialMT-54" x="66.699219"/>
    <use xlink:href="#ArialMT-4c" x="127.783203"/>
    <use xlink:href="#ArialMT-20" x="179.648438"/>
    <use xlink:href="#ArialMT-64" x="207.431641"/>
    <use xlink:href="#ArialMT-65" x="263.046875"/>
    <use xlink:href="#ArialMT-63" x="318.662109"/>
    <use xlink:href="#ArialMT-6f" x="368.662109"/>
    <use xlink:href="#ArialMT-6d" x="424.277344"/>
    <use xlink:href="#ArialMT-70" x="507.578125"/>
    <use xlink:href="#ArialMT-6f" x="563.193359"/>
    <use xlink:href="#ArialMT-73" x="618.808594"/>
    <use xlink:href="#ArialMT-69" x="668.808594"/>
    <use xlink:href="#ArialMT-74" x="691.025391"/>
    <use xlink:href="#ArialMT-69" x="718.808594"/>
    <use xlink:href="#ArialMT-6f" x="741.025391"/>
    <use xlink:href="#ArialMT-6e" x="796.640625"/>
   </g>
  </g>
  <g id="text_31">
   <!-- Employed = trend + seasonal + remainder -->
   <g style="fill: #262626" transform="translate(198.955229 25.79976) scale(0.1 -0.1)">
    <defs>
     <path id="ArialMT-3d" d="M 3381 2694 
L 356 2694 
L 356 3219 
L 3381 3219 
L 3381 2694 
z
M 3381 1303 
L 356 1303 
L 356 1828 
L 3381 1828 
L 3381 1303 
z
" transform="scale(0.015625)"/>
     <path id="ArialMT-2b" d="M 1603 741 
L 1603 1997 
L 356 1997 
L 356 2522 
L 1603 2522 
L 1603 3769 
L 2134 3769 
L 2134 2522 
L 3381 2522 
L 3381 1997 
L 2134 1997 
L 2134 741 
L 1603 741 
z
" transform="scale(0.015625)"/>
    </defs>
    <use xlink:href="#ArialMT-45"/>
    <use xlink:href="#ArialMT-6d" x="66.699219"/>
    <use xlink:href="#ArialMT-70" x="150"/>
    <use xlink:href="#ArialMT-6c" x="205.615234"/>
    <use xlink:href="#ArialMT-6f" x="227.832031"/>
    <use xlink:href="#ArialMT-79" x="283.447266"/>
    <use xlink:href="#ArialMT-65" x="333.447266"/>
    <use xlink:href="#ArialMT-64" x="389.0625"/>
    <use xlink:href="#ArialMT-20" x="444.677734"/>
    <use xlink:href="#ArialMT-3d" x="472.460938"/>
    <use xlink:href="#ArialMT-20" x="530.859375"/>
    <use xlink:href="#ArialMT-74" x="558.642578"/>
    <use xlink:href="#ArialMT-72" x="586.425781"/>
    <use xlink:href="#ArialMT-65" x="619.726562"/>
    <use xlink:href="#ArialMT-6e" x="675.341797"/>
    <use xlink:href="#ArialMT-64" x="730.957031"/>
    <use xlink:href="#ArialMT-20" x="786.572266"/>
    <use xlink:href="#ArialMT-2b" x="814.355469"/>
    <use xlink:href="#ArialMT-20" x="872.753906"/>
    <use xlink:href="#ArialMT-73" x="900.537109"/>
    <use xlink:href="#ArialMT-65" x="950.537109"/>
    <use xlink:href="#ArialMT-61" x="1006.152344"/>
    <use xlink:href="#ArialMT-73" x="1061.767578"/>
    <use xlink:href="#ArialMT-6f" x="1111.767578"/>
    <use xlink:href="#ArialMT-6e" x="1167.382812"/>
    <use xlink:href="#ArialMT-61" x="1222.998047"/>
    <use xlink:href="#ArialMT-6c" x="1278.613281"/>
    <use xlink:href="#ArialMT-20" x="1300.830078"/>
    <use xlink:href="#ArialMT-2b" x="1328.613281"/>
    <use xlink:href="#ArialMT-20" x="1387.011719"/>
    <use xlink:href="#ArialMT-72" x="1414.794922"/>
    <use xlink:href="#ArialMT-65" x="1448.095703"/>
    <use xlink:href="#ArialMT-6d" x="1503.710938"/>
    <use xlink:href="#ArialMT-61" x="1587.011719"/>
    <use xlink:href="#ArialMT-69" x="1642.626953"/>
    <use xlink:href="#ArialMT-6e" x="1664.84375"/>
    <use xlink:href="#ArialMT-64" x="1720.458984"/>
    <use xlink:href="#ArialMT-65" x="1776.074219"/>
    <use xlink:href="#ArialMT-72" x="1831.689453"/>
   </g>
  </g>
 </g>
 <defs>
  <clipPath id="pf9dd452542">
   <rect x="52.486719" y="24.321105" width="524.712801" height="93.224811"/>
  </clipPath>
  <clipPath id="p35f1c735b8">
   <rect x="52.486719" y="126.293345" width="524.712801" height="93.224811"/>
  </clipPath>
  <clipPath id="pa6022d6f2e">
   <rect x="52.486719" y="225.518636" width="524.712801" height="93.224811"/>
  </clipPath>
  <clipPath id="p8acc0551e6">
   <rect x="52.486719" y="324.743927" width="524.712801" height="93.224811"/>
  </clipPath>
 </defs>
</svg>
