<?xml version="1.0" encoding="utf-8" standalone="no"?>
<!DOCTYPE svg PUBLIC "-//W3C//DTD SVG 1.1//EN"
  "http://www.w3.org/Graphics/SVG/1.1/DTD/svg11.dtd">
<svg xmlns:xlink="http://www.w3.org/1999/xlink" width="1088.39952pt" height="440.39952pt" viewBox="0 0 1088.39952 440.39952" xmlns="http://www.w3.org/2000/svg" version="1.1">
 <metadata>
  <rdf:RDF xmlns:dc="http://purl.org/dc/elements/1.1/" xmlns:cc="http://creativecommons.org/ns#" xmlns:rdf="http://www.w3.org/1999/02/22-rdf-syntax-ns#">
   <cc:Work>
    <dc:type rdf:resource="http://purl.org/dc/dcmitype/StillImage"/>
    <dc:date>2025-10-25T23:36:32.702152</dc:date>
    <dc:format>image/svg+xml</dc:format>
    <dc:creator>
     <cc:Agent>
      <dc:title>Matplotlib v3.7.2, https://matplotlib.org/</dc:title>
     </cc:Agent>
    </dc:creator>
   </cc:Work>
  </rdf:RDF>
 </metadata>
 <defs>
  <style type="text/css">*{stroke-linejoin: round; stroke-linecap: butt}</style>
 </defs>
 <g id="figure_1">
  <g id="patch_1">
   <path d="M 0 440.39952 
L 1088.39952 440.39952 
L 1088.39952 0 
L 0 0 
z
" style="fill: #ffffff"/>
  </g>
  <g id="axes_1">
   <g id="patch_2">
    <path d="M 78.675781 390.131551 
L 1081.19952 390.131551 
L 1081.19952 31.399219 
L 78.675781 31.399219 
z
" style="fill: #e5e5e5"/>
   </g>
   <g id="matplotlib.axis_1">
    <g id="xtick_1">
     <g id="line2d_1">
      <path d="M 185.648938 390.131551 
L 185.648938 31.399219 
" clip-path="url(#p162938b5e4)" style="fill: none; stroke: #ffffff; stroke-width: 0.8; stroke-linecap: round"/>
     </g>
     <g id="text_1">
      <!-- 1992 -->
      <g style="fill: #555555" transform="translate(168.966125 407.86827) scale(0.15 -0.15)">
       <defs>
        <path id="ArialMT-31" d="M 2384 0 
L 1822 0 
L 1822 3584 
Q 1619 3391 1289 3197 
Q 959 3003 697 2906 
L 697 3450 
Q 1169 3672 1522 3987 
Q 1875 4303 2022 4600 
L 2384 4600 
L 2384 0 
z
" transform="scale(0.015625)"/>
        <path id="ArialMT-39" d="M 350 1059 
L 891 1109 
Q 959 728 1153 556 
Q 1347 384 1650 384 
Q 1909 384 2104 503 
Q 2300 622 2425 820 
Q 2550 1019 2634 1356 
Q 2719 1694 2719 2044 
Q 2719 2081 2716 2156 
Q 2547 1888 2255 1720 
Q 1963 1553 1622 1553 
Q 1053 1553 659 1965 
Q 266 2378 266 3053 
Q 266 3750 677 4175 
Q 1088 4600 1706 4600 
Q 2153 4600 2523 4359 
Q 2894 4119 3086 3673 
Q 3278 3228 3278 2384 
Q 3278 1506 3087 986 
Q 2897 466 2520 194 
Q 2144 -78 1638 -78 
Q 1100 -78 759 220 
Q 419 519 350 1059 
z
M 2653 3081 
Q 2653 3566 2395 3850 
Q 2138 4134 1775 4134 
Q 1400 4134 1122 3828 
Q 844 3522 844 3034 
Q 844 2597 1108 2323 
Q 1372 2050 1759 2050 
Q 2150 2050 2401 2323 
Q 2653 2597 2653 3081 
z
" transform="scale(0.015625)"/>
        <path id="ArialMT-32" d="M 3222 541 
L 3222 0 
L 194 0 
Q 188 203 259 391 
Q 375 700 629 1000 
Q 884 1300 1366 1694 
Q 2113 2306 2375 2664 
Q 2638 3022 2638 3341 
Q 2638 3675 2398 3904 
Q 2159 4134 1775 4134 
Q 1369 4134 1125 3890 
Q 881 3647 878 3216 
L 300 3275 
Q 359 3922 746 4261 
Q 1134 4600 1788 4600 
Q 2447 4600 2831 4234 
Q 3216 3869 3216 3328 
Q 3216 3053 3103 2787 
Q 2991 2522 2730 2228 
Q 2469 1934 1863 1422 
Q 1356 997 1212 845 
Q 1069 694 975 541 
L 3222 541 
z
" transform="scale(0.015625)"/>
       </defs>
       <use xlink:href="#ArialMT-31"/>
       <use xlink:href="#ArialMT-39" x="55.615234"/>
       <use xlink:href="#ArialMT-39" x="111.230469"/>
       <use xlink:href="#ArialMT-32" x="166.845703"/>
      </g>
     </g>
    </g>
    <g id="xtick_2">
     <g id="line2d_2">
      <path d="M 308.540844 390.131551 
L 308.540844 31.399219 
" clip-path="url(#p162938b5e4)" style="fill: none; stroke: #ffffff; stroke-width: 0.8; stroke-linecap: round"/>
     </g>
     <g id="text_2">
      <!-- 1996 -->
      <g style="fill: #555555" transform="translate(291.858031 407.86827) scale(0.15 -0.15)">
       <defs>
        <path id="ArialMT-36" d="M 3184 3459 
L 2625 3416 
Q 2550 3747 2413 3897 
Q 2184 4138 1850 4138 
Q 1581 4138 1378 3988 
Q 1113 3794 959 3422 
Q 806 3050 800 2363 
Q 1003 2672 1297 2822 
Q 1591 2972 1913 2972 
Q 2475 2972 2870 2558 
Q 3266 2144 3266 1488 
Q 3266 1056 3080 686 
Q 2894 316 2569 119 
Q 2244 -78 1831 -78 
Q 1128 -78 684 439 
Q 241 956 241 2144 
Q 241 3472 731 4075 
Q 1159 4600 1884 4600 
Q 2425 4600 2770 4297 
Q 3116 3994 3184 3459 
z
M 888 1484 
Q 888 1194 1011 928 
Q 1134 663 1356 523 
Q 1578 384 1822 384 
Q 2178 384 2434 671 
Q 2691 959 2691 1453 
Q 2691 1928 2437 2201 
Q 2184 2475 1800 2475 
Q 1419 2475 1153 2201 
Q 888 1928 888 1484 
z
" transform="scale(0.015625)"/>
       </defs>
       <use xlink:href="#ArialMT-31"/>
       <use xlink:href="#ArialMT-39" x="55.615234"/>
       <use xlink:href="#ArialMT-39" x="111.230469"/>
       <use xlink:href="#ArialMT-36" x="166.845703"/>
      </g>
     </g>
    </g>
    <g id="xtick_3">
     <g id="line2d_3">
      <path d="M 431.43275 390.131551 
L 431.43275 31.399219 
" clip-path="url(#p162938b5e4)" style="fill: none; stroke: #ffffff; stroke-width: 0.8; stroke-linecap: round"/>
     </g>
     <g id="text_3">
      <!-- 2000 -->
      <g style="fill: #555555" transform="translate(414.749937 407.86827) scale(0.15 -0.15)">
       <defs>
        <path id="ArialMT-30" d="M 266 2259 
Q 266 3072 433 3567 
Q 600 4063 929 4331 
Q 1259 4600 1759 4600 
Q 2128 4600 2406 4451 
Q 2684 4303 2865 4023 
Q 3047 3744 3150 3342 
Q 3253 2941 3253 2259 
Q 3253 1453 3087 958 
Q 2922 463 2592 192 
Q 2263 -78 1759 -78 
Q 1097 -78 719 397 
Q 266 969 266 2259 
z
M 844 2259 
Q 844 1131 1108 757 
Q 1372 384 1759 384 
Q 2147 384 2411 759 
Q 2675 1134 2675 2259 
Q 2675 3391 2411 3762 
Q 2147 4134 1753 4134 
Q 1366 4134 1134 3806 
Q 844 3388 844 2259 
z
" transform="scale(0.015625)"/>
       </defs>
       <use xlink:href="#ArialMT-32"/>
       <use xlink:href="#ArialMT-30" x="55.615234"/>
       <use xlink:href="#ArialMT-30" x="111.230469"/>
       <use xlink:href="#ArialMT-30" x="166.845703"/>
      </g>
     </g>
    </g>
    <g id="xtick_4">
     <g id="line2d_4">
      <path d="M 554.324656 390.131551 
L 554.324656 31.399219 
" clip-path="url(#p162938b5e4)" style="fill: none; stroke: #ffffff; stroke-width: 0.8; stroke-linecap: round"/>
     </g>
     <g id="text_4">
      <!-- 2004 -->
      <g style="fill: #555555" transform="translate(537.641843 407.86827) scale(0.15 -0.15)">
       <defs>
        <path id="ArialMT-34" d="M 2069 0 
L 2069 1097 
L 81 1097 
L 81 1613 
L 2172 4581 
L 2631 4581 
L 2631 1613 
L 3250 1613 
L 3250 1097 
L 2631 1097 
L 2631 0 
L 2069 0 
z
M 2069 1613 
L 2069 3678 
L 634 1613 
L 2069 1613 
z
" transform="scale(0.015625)"/>
       </defs>
       <use xlink:href="#ArialMT-32"/>
       <use xlink:href="#ArialMT-30" x="55.615234"/>
       <use xlink:href="#ArialMT-30" x="111.230469"/>
       <use xlink:href="#ArialMT-34" x="166.845703"/>
      </g>
     </g>
    </g>
    <g id="xtick_5">
     <g id="line2d_5">
      <path d="M 677.216562 390.131551 
L 677.216562 31.399219 
" clip-path="url(#p162938b5e4)" style="fill: none; stroke: #ffffff; stroke-width: 0.8; stroke-linecap: round"/>
     </g>
     <g id="text_5">
      <!-- 2008 -->
      <g style="fill: #555555" transform="translate(660.533749 407.86827) scale(0.15 -0.15)">
       <defs>
        <path id="ArialMT-38" d="M 1131 2484 
Q 781 2613 612 2850 
Q 444 3088 444 3419 
Q 444 3919 803 4259 
Q 1163 4600 1759 4600 
Q 2359 4600 2725 4251 
Q 3091 3903 3091 3403 
Q 3091 3084 2923 2848 
Q 2756 2613 2416 2484 
Q 2838 2347 3058 2040 
Q 3278 1734 3278 1309 
Q 3278 722 2862 322 
Q 2447 -78 1769 -78 
Q 1091 -78 675 323 
Q 259 725 259 1325 
Q 259 1772 486 2073 
Q 713 2375 1131 2484 
z
M 1019 3438 
Q 1019 3113 1228 2906 
Q 1438 2700 1772 2700 
Q 2097 2700 2305 2904 
Q 2513 3109 2513 3406 
Q 2513 3716 2298 3927 
Q 2084 4138 1766 4138 
Q 1444 4138 1231 3931 
Q 1019 3725 1019 3438 
z
M 838 1322 
Q 838 1081 952 856 
Q 1066 631 1291 507 
Q 1516 384 1775 384 
Q 2178 384 2440 643 
Q 2703 903 2703 1303 
Q 2703 1709 2433 1975 
Q 2163 2241 1756 2241 
Q 1359 2241 1098 1978 
Q 838 1716 838 1322 
z
" transform="scale(0.015625)"/>
       </defs>
       <use xlink:href="#ArialMT-32"/>
       <use xlink:href="#ArialMT-30" x="55.615234"/>
       <use xlink:href="#ArialMT-30" x="111.230469"/>
       <use xlink:href="#ArialMT-38" x="166.845703"/>
      </g>
     </g>
    </g>
    <g id="xtick_6">
     <g id="line2d_6">
      <path d="M 800.108468 390.131551 
L 800.108468 31.399219 
" clip-path="url(#p162938b5e4)" style="fill: none; stroke: #ffffff; stroke-width: 0.8; stroke-linecap: round"/>
     </g>
     <g id="text_6">
      <!-- 2012 -->
      <g style="fill: #555555" transform="translate(783.425655 407.86827) scale(0.15 -0.15)">
       <use xlink:href="#ArialMT-32"/>
       <use xlink:href="#ArialMT-30" x="55.615234"/>
       <use xlink:href="#ArialMT-31" x="111.230469"/>
       <use xlink:href="#ArialMT-32" x="166.845703"/>
      </g>
     </g>
    </g>
    <g id="xtick_7">
     <g id="line2d_7">
      <path d="M 923.000374 390.131551 
L 923.000374 31.399219 
" clip-path="url(#p162938b5e4)" style="fill: none; stroke: #ffffff; stroke-width: 0.8; stroke-linecap: round"/>
     </g>
     <g id="text_7">
      <!-- 2016 -->
      <g style="fill: #555555" transform="translate(906.317561 407.86827) scale(0.15 -0.15)">
       <use xlink:href="#ArialMT-32"/>
       <use xlink:href="#ArialMT-30" x="55.615234"/>
       <use xlink:href="#ArialMT-31" x="111.230469"/>
       <use xlink:href="#ArialMT-36" x="166.845703"/>
      </g>
     </g>
    </g>
    <g id="xtick_8">
     <g id="line2d_8">
      <path d="M 1045.89228 390.131551 
L 1045.89228 31.399219 
" clip-path="url(#p162938b5e4)" style="fill: none; stroke: #ffffff; stroke-width: 0.8; stroke-linecap: round"/>
     </g>
     <g id="text_8">
      <!-- 2020 -->
      <g style="fill: #555555" transform="translate(1029.209468 407.86827) scale(0.15 -0.15)">
       <use xlink:href="#ArialMT-32"/>
       <use xlink:href="#ArialMT-30" x="55.615234"/>
       <use xlink:href="#ArialMT-32" x="111.230469"/>
       <use xlink:href="#ArialMT-30" x="166.845703"/>
      </g>
     </g>
    </g>
    <g id="text_9">
     <!-- Month [1M] -->
     <g style="fill: #555555" transform="translate(529.922026 429.22452) scale(0.2 -0.2)">
      <defs>
       <path id="ArialMT-4d" d="M 475 0 
L 475 4581 
L 1388 4581 
L 2472 1338 
Q 2622 884 2691 659 
Q 2769 909 2934 1394 
L 4031 4581 
L 4847 4581 
L 4847 0 
L 4263 0 
L 4263 3834 
L 2931 0 
L 2384 0 
L 1059 3900 
L 1059 0 
L 475 0 
z
" transform="scale(0.015625)"/>
       <path id="ArialMT-6f" d="M 213 1659 
Q 213 2581 725 3025 
Q 1153 3394 1769 3394 
Q 2453 3394 2887 2945 
Q 3322 2497 3322 1706 
Q 3322 1066 3130 698 
Q 2938 331 2570 128 
Q 2203 -75 1769 -75 
Q 1072 -75 642 372 
Q 213 819 213 1659 
z
M 791 1659 
Q 791 1022 1069 705 
Q 1347 388 1769 388 
Q 2188 388 2466 706 
Q 2744 1025 2744 1678 
Q 2744 2294 2464 2611 
Q 2184 2928 1769 2928 
Q 1347 2928 1069 2612 
Q 791 2297 791 1659 
z
" transform="scale(0.015625)"/>
       <path id="ArialMT-6e" d="M 422 0 
L 422 3319 
L 928 3319 
L 928 2847 
Q 1294 3394 1984 3394 
Q 2284 3394 2536 3286 
Q 2788 3178 2913 3003 
Q 3038 2828 3088 2588 
Q 3119 2431 3119 2041 
L 3119 0 
L 2556 0 
L 2556 2019 
Q 2556 2363 2490 2533 
Q 2425 2703 2258 2804 
Q 2091 2906 1866 2906 
Q 1506 2906 1245 2678 
Q 984 2450 984 1813 
L 984 0 
L 422 0 
z
" transform="scale(0.015625)"/>
       <path id="ArialMT-74" d="M 1650 503 
L 1731 6 
Q 1494 -44 1306 -44 
Q 1000 -44 831 53 
Q 663 150 594 308 
Q 525 466 525 972 
L 525 2881 
L 113 2881 
L 113 3319 
L 525 3319 
L 525 4141 
L 1084 4478 
L 1084 3319 
L 1650 3319 
L 1650 2881 
L 1084 2881 
L 1084 941 
Q 1084 700 1114 631 
Q 1144 563 1211 522 
Q 1278 481 1403 481 
Q 1497 481 1650 503 
z
" transform="scale(0.015625)"/>
       <path id="ArialMT-68" d="M 422 0 
L 422 4581 
L 984 4581 
L 984 2938 
Q 1378 3394 1978 3394 
Q 2347 3394 2619 3248 
Q 2891 3103 3008 2847 
Q 3125 2591 3125 2103 
L 3125 0 
L 2563 0 
L 2563 2103 
Q 2563 2525 2380 2717 
Q 2197 2909 1863 2909 
Q 1613 2909 1392 2779 
Q 1172 2650 1078 2428 
Q 984 2206 984 1816 
L 984 0 
L 422 0 
z
" transform="scale(0.015625)"/>
       <path id="ArialMT-20" transform="scale(0.015625)"/>
       <path id="ArialMT-5b" d="M 434 -1272 
L 434 4581 
L 1675 4581 
L 1675 4116 
L 997 4116 
L 997 -806 
L 1675 -806 
L 1675 -1272 
L 434 -1272 
z
" transform="scale(0.015625)"/>
       <path id="ArialMT-5d" d="M 1363 -1272 
L 122 -1272 
L 122 -806 
L 800 -806 
L 800 4116 
L 122 4116 
L 122 4581 
L 1363 4581 
L 1363 -1272 
z
" transform="scale(0.015625)"/>
      </defs>
      <use xlink:href="#ArialMT-4d"/>
      <use xlink:href="#ArialMT-6f" x="83.300781"/>
      <use xlink:href="#ArialMT-6e" x="138.916016"/>
      <use xlink:href="#ArialMT-74" x="194.53125"/>
      <use xlink:href="#ArialMT-68" x="222.314453"/>
      <use xlink:href="#ArialMT-20" x="277.929688"/>
      <use xlink:href="#ArialMT-5b" x="305.712891"/>
      <use xlink:href="#ArialMT-31" x="333.496094"/>
      <use xlink:href="#ArialMT-4d" x="389.111328"/>
      <use xlink:href="#ArialMT-5d" x="472.412109"/>
     </g>
    </g>
   </g>
   <g id="matplotlib.axis_2">
    <g id="ytick_1">
     <g id="line2d_9">
      <path d="M 78.675781 377.878195 
L 1081.19952 377.878195 
" clip-path="url(#p162938b5e4)" style="fill: none; stroke: #ffffff; stroke-width: 0.8; stroke-linecap: round"/>
     </g>
     <g id="text_10">
      <!-- 12500 -->
      <g style="fill: #555555" transform="translate(29.96875 383.246554) scale(0.15 -0.15)">
       <defs>
        <path id="ArialMT-35" d="M 266 1200 
L 856 1250 
Q 922 819 1161 601 
Q 1400 384 1738 384 
Q 2144 384 2425 690 
Q 2706 997 2706 1503 
Q 2706 1984 2436 2262 
Q 2166 2541 1728 2541 
Q 1456 2541 1237 2417 
Q 1019 2294 894 2097 
L 366 2166 
L 809 4519 
L 3088 4519 
L 3088 3981 
L 1259 3981 
L 1013 2750 
Q 1425 3038 1878 3038 
Q 2478 3038 2890 2622 
Q 3303 2206 3303 1553 
Q 3303 931 2941 478 
Q 2500 -78 1738 -78 
Q 1113 -78 717 272 
Q 322 622 266 1200 
z
" transform="scale(0.015625)"/>
       </defs>
       <use xlink:href="#ArialMT-31"/>
       <use xlink:href="#ArialMT-32" x="55.615234"/>
       <use xlink:href="#ArialMT-35" x="111.230469"/>
       <use xlink:href="#ArialMT-30" x="166.845703"/>
       <use xlink:href="#ArialMT-30" x="222.460938"/>
      </g>
     </g>
    </g>
    <g id="ytick_2">
     <g id="line2d_10">
      <path d="M 78.675781 335.48637 
L 1081.19952 335.48637 
" clip-path="url(#p162938b5e4)" style="fill: none; stroke: #ffffff; stroke-width: 0.8; stroke-linecap: round"/>
     </g>
     <g id="text_11">
      <!-- 13000 -->
      <g style="fill: #555555" transform="translate(29.96875 340.85473) scale(0.15 -0.15)">
       <defs>
        <path id="ArialMT-33" d="M 269 1209 
L 831 1284 
Q 928 806 1161 595 
Q 1394 384 1728 384 
Q 2125 384 2398 659 
Q 2672 934 2672 1341 
Q 2672 1728 2419 1979 
Q 2166 2231 1775 2231 
Q 1616 2231 1378 2169 
L 1441 2663 
Q 1497 2656 1531 2656 
Q 1891 2656 2178 2843 
Q 2466 3031 2466 3422 
Q 2466 3731 2256 3934 
Q 2047 4138 1716 4138 
Q 1388 4138 1169 3931 
Q 950 3725 888 3313 
L 325 3413 
Q 428 3978 793 4289 
Q 1159 4600 1703 4600 
Q 2078 4600 2393 4439 
Q 2709 4278 2876 4000 
Q 3044 3722 3044 3409 
Q 3044 3113 2884 2869 
Q 2725 2625 2413 2481 
Q 2819 2388 3044 2092 
Q 3269 1797 3269 1353 
Q 3269 753 2831 336 
Q 2394 -81 1725 -81 
Q 1122 -81 723 278 
Q 325 638 269 1209 
z
" transform="scale(0.015625)"/>
       </defs>
       <use xlink:href="#ArialMT-31"/>
       <use xlink:href="#ArialMT-33" x="55.615234"/>
       <use xlink:href="#ArialMT-30" x="111.230469"/>
       <use xlink:href="#ArialMT-30" x="166.845703"/>
       <use xlink:href="#ArialMT-30" x="222.460938"/>
      </g>
     </g>
    </g>
    <g id="ytick_3">
     <g id="line2d_11">
      <path d="M 78.675781 293.094546 
L 1081.19952 293.094546 
" clip-path="url(#p162938b5e4)" style="fill: none; stroke: #ffffff; stroke-width: 0.8; stroke-linecap: round"/>
     </g>
     <g id="text_12">
      <!-- 13500 -->
      <g style="fill: #555555" transform="translate(29.96875 298.462906) scale(0.15 -0.15)">
       <use xlink:href="#ArialMT-31"/>
       <use xlink:href="#ArialMT-33" x="55.615234"/>
       <use xlink:href="#ArialMT-35" x="111.230469"/>
       <use xlink:href="#ArialMT-30" x="166.845703"/>
       <use xlink:href="#ArialMT-30" x="222.460938"/>
      </g>
     </g>
    </g>
    <g id="ytick_4">
     <g id="line2d_12">
      <path d="M 78.675781 250.702722 
L 1081.19952 250.702722 
" clip-path="url(#p162938b5e4)" style="fill: none; stroke: #ffffff; stroke-width: 0.8; stroke-linecap: round"/>
     </g>
     <g id="text_13">
      <!-- 14000 -->
      <g style="fill: #555555" transform="translate(29.96875 256.071082) scale(0.15 -0.15)">
       <use xlink:href="#ArialMT-31"/>
       <use xlink:href="#ArialMT-34" x="55.615234"/>
       <use xlink:href="#ArialMT-30" x="111.230469"/>
       <use xlink:href="#ArialMT-30" x="166.845703"/>
       <use xlink:href="#ArialMT-30" x="222.460938"/>
      </g>
     </g>
    </g>
    <g id="ytick_5">
     <g id="line2d_13">
      <path d="M 78.675781 208.310898 
L 1081.19952 208.310898 
" clip-path="url(#p162938b5e4)" style="fill: none; stroke: #ffffff; stroke-width: 0.8; stroke-linecap: round"/>
     </g>
     <g id="text_14">
      <!-- 14500 -->
      <g style="fill: #555555" transform="translate(29.96875 213.679258) scale(0.15 -0.15)">
       <use xlink:href="#ArialMT-31"/>
       <use xlink:href="#ArialMT-34" x="55.615234"/>
       <use xlink:href="#ArialMT-35" x="111.230469"/>
       <use xlink:href="#ArialMT-30" x="166.845703"/>
       <use xlink:href="#ArialMT-30" x="222.460938"/>
      </g>
     </g>
    </g>
    <g id="ytick_6">
     <g id="line2d_14">
      <path d="M 78.675781 165.919074 
L 1081.19952 165.919074 
" clip-path="url(#p162938b5e4)" style="fill: none; stroke: #ffffff; stroke-width: 0.8; stroke-linecap: round"/>
     </g>
     <g id="text_15">
      <!-- 15000 -->
      <g style="fill: #555555" transform="translate(29.96875 171.287434) scale(0.15 -0.15)">
       <use xlink:href="#ArialMT-31"/>
       <use xlink:href="#ArialMT-35" x="55.615234"/>
       <use xlink:href="#ArialMT-30" x="111.230469"/>
       <use xlink:href="#ArialMT-30" x="166.845703"/>
       <use xlink:href="#ArialMT-30" x="222.460938"/>
      </g>
     </g>
    </g>
    <g id="ytick_7">
     <g id="line2d_15">
      <path d="M 78.675781 123.52725 
L 1081.19952 123.52725 
" clip-path="url(#p162938b5e4)" style="fill: none; stroke: #ffffff; stroke-width: 0.8; stroke-linecap: round"/>
     </g>
     <g id="text_16">
      <!-- 15500 -->
      <g style="fill: #555555" transform="translate(29.96875 128.89561) scale(0.15 -0.15)">
       <use xlink:href="#ArialMT-31"/>
       <use xlink:href="#ArialMT-35" x="55.615234"/>
       <use xlink:href="#ArialMT-35" x="111.230469"/>
       <use xlink:href="#ArialMT-30" x="166.845703"/>
       <use xlink:href="#ArialMT-30" x="222.460938"/>
      </g>
     </g>
    </g>
    <g id="ytick_8">
     <g id="line2d_16">
      <path d="M 78.675781 81.135426 
L 1081.19952 81.135426 
" clip-path="url(#p162938b5e4)" style="fill: none; stroke: #ffffff; stroke-width: 0.8; stroke-linecap: round"/>
     </g>
     <g id="text_17">
      <!-- 16000 -->
      <g style="fill: #555555" transform="translate(29.96875 86.503786) scale(0.15 -0.15)">
       <use xlink:href="#ArialMT-31"/>
       <use xlink:href="#ArialMT-36" x="55.615234"/>
       <use xlink:href="#ArialMT-30" x="111.230469"/>
       <use xlink:href="#ArialMT-30" x="166.845703"/>
       <use xlink:href="#ArialMT-30" x="222.460938"/>
      </g>
     </g>
    </g>
    <g id="ytick_9">
     <g id="line2d_17">
      <path d="M 78.675781 38.743602 
L 1081.19952 38.743602 
" clip-path="url(#p162938b5e4)" style="fill: none; stroke: #ffffff; stroke-width: 0.8; stroke-linecap: round"/>
     </g>
     <g id="text_18">
      <!-- 16500 -->
      <g style="fill: #555555" transform="translate(29.96875 44.111962) scale(0.15 -0.15)">
       <use xlink:href="#ArialMT-31"/>
       <use xlink:href="#ArialMT-36" x="55.615234"/>
       <use xlink:href="#ArialMT-35" x="111.230469"/>
       <use xlink:href="#ArialMT-30" x="166.845703"/>
       <use xlink:href="#ArialMT-30" x="222.460938"/>
      </g>
     </g>
    </g>
    <g id="text_19">
     <!-- Persons (thousands) -->
     <g style="fill: #555555" transform="translate(21.759375 303.029447) rotate(-90) scale(0.2 -0.2)">
      <defs>
       <path id="ArialMT-50" d="M 494 0 
L 494 4581 
L 2222 4581 
Q 2678 4581 2919 4538 
Q 3256 4481 3484 4323 
Q 3713 4166 3852 3881 
Q 3991 3597 3991 3256 
Q 3991 2672 3619 2267 
Q 3247 1863 2275 1863 
L 1100 1863 
L 1100 0 
L 494 0 
z
M 1100 2403 
L 2284 2403 
Q 2872 2403 3119 2622 
Q 3366 2841 3366 3238 
Q 3366 3525 3220 3729 
Q 3075 3934 2838 4000 
Q 2684 4041 2272 4041 
L 1100 4041 
L 1100 2403 
z
" transform="scale(0.015625)"/>
       <path id="ArialMT-65" d="M 2694 1069 
L 3275 997 
Q 3138 488 2766 206 
Q 2394 -75 1816 -75 
Q 1088 -75 661 373 
Q 234 822 234 1631 
Q 234 2469 665 2931 
Q 1097 3394 1784 3394 
Q 2450 3394 2872 2941 
Q 3294 2488 3294 1666 
Q 3294 1616 3291 1516 
L 816 1516 
Q 847 969 1125 678 
Q 1403 388 1819 388 
Q 2128 388 2347 550 
Q 2566 713 2694 1069 
z
M 847 1978 
L 2700 1978 
Q 2663 2397 2488 2606 
Q 2219 2931 1791 2931 
Q 1403 2931 1139 2672 
Q 875 2413 847 1978 
z
" transform="scale(0.015625)"/>
       <path id="ArialMT-72" d="M 416 0 
L 416 3319 
L 922 3319 
L 922 2816 
Q 1116 3169 1280 3281 
Q 1444 3394 1641 3394 
Q 1925 3394 2219 3213 
L 2025 2691 
Q 1819 2813 1613 2813 
Q 1428 2813 1281 2702 
Q 1134 2591 1072 2394 
Q 978 2094 978 1738 
L 978 0 
L 416 0 
z
" transform="scale(0.015625)"/>
       <path id="ArialMT-73" d="M 197 991 
L 753 1078 
Q 800 744 1014 566 
Q 1228 388 1613 388 
Q 2000 388 2187 545 
Q 2375 703 2375 916 
Q 2375 1106 2209 1216 
Q 2094 1291 1634 1406 
Q 1016 1563 777 1677 
Q 538 1791 414 1992 
Q 291 2194 291 2438 
Q 291 2659 392 2848 
Q 494 3038 669 3163 
Q 800 3259 1026 3326 
Q 1253 3394 1513 3394 
Q 1903 3394 2198 3281 
Q 2494 3169 2634 2976 
Q 2775 2784 2828 2463 
L 2278 2388 
Q 2241 2644 2061 2787 
Q 1881 2931 1553 2931 
Q 1166 2931 1000 2803 
Q 834 2675 834 2503 
Q 834 2394 903 2306 
Q 972 2216 1119 2156 
Q 1203 2125 1616 2013 
Q 2213 1853 2448 1751 
Q 2684 1650 2818 1456 
Q 2953 1263 2953 975 
Q 2953 694 2789 445 
Q 2625 197 2315 61 
Q 2006 -75 1616 -75 
Q 969 -75 630 194 
Q 291 463 197 991 
z
" transform="scale(0.015625)"/>
       <path id="ArialMT-28" d="M 1497 -1347 
Q 1031 -759 709 28 
Q 388 816 388 1659 
Q 388 2403 628 3084 
Q 909 3875 1497 4659 
L 1900 4659 
Q 1522 4009 1400 3731 
Q 1209 3300 1100 2831 
Q 966 2247 966 1656 
Q 966 153 1900 -1347 
L 1497 -1347 
z
" transform="scale(0.015625)"/>
       <path id="ArialMT-75" d="M 2597 0 
L 2597 488 
Q 2209 -75 1544 -75 
Q 1250 -75 995 37 
Q 741 150 617 320 
Q 494 491 444 738 
Q 409 903 409 1263 
L 409 3319 
L 972 3319 
L 972 1478 
Q 972 1038 1006 884 
Q 1059 663 1231 536 
Q 1403 409 1656 409 
Q 1909 409 2131 539 
Q 2353 669 2445 892 
Q 2538 1116 2538 1541 
L 2538 3319 
L 3100 3319 
L 3100 0 
L 2597 0 
z
" transform="scale(0.015625)"/>
       <path id="ArialMT-61" d="M 2588 409 
Q 2275 144 1986 34 
Q 1697 -75 1366 -75 
Q 819 -75 525 192 
Q 231 459 231 875 
Q 231 1119 342 1320 
Q 453 1522 633 1644 
Q 813 1766 1038 1828 
Q 1203 1872 1538 1913 
Q 2219 1994 2541 2106 
Q 2544 2222 2544 2253 
Q 2544 2597 2384 2738 
Q 2169 2928 1744 2928 
Q 1347 2928 1158 2789 
Q 969 2650 878 2297 
L 328 2372 
Q 403 2725 575 2942 
Q 747 3159 1072 3276 
Q 1397 3394 1825 3394 
Q 2250 3394 2515 3294 
Q 2781 3194 2906 3042 
Q 3031 2891 3081 2659 
Q 3109 2516 3109 2141 
L 3109 1391 
Q 3109 606 3145 398 
Q 3181 191 3288 0 
L 2700 0 
Q 2613 175 2588 409 
z
M 2541 1666 
Q 2234 1541 1622 1453 
Q 1275 1403 1131 1340 
Q 988 1278 909 1158 
Q 831 1038 831 891 
Q 831 666 1001 516 
Q 1172 366 1500 366 
Q 1825 366 2078 508 
Q 2331 650 2450 897 
Q 2541 1088 2541 1459 
L 2541 1666 
z
" transform="scale(0.015625)"/>
       <path id="ArialMT-64" d="M 2575 0 
L 2575 419 
Q 2259 -75 1647 -75 
Q 1250 -75 917 144 
Q 584 363 401 755 
Q 219 1147 219 1656 
Q 219 2153 384 2558 
Q 550 2963 881 3178 
Q 1213 3394 1622 3394 
Q 1922 3394 2156 3267 
Q 2391 3141 2538 2938 
L 2538 4581 
L 3097 4581 
L 3097 0 
L 2575 0 
z
M 797 1656 
Q 797 1019 1065 703 
Q 1334 388 1700 388 
Q 2069 388 2326 689 
Q 2584 991 2584 1609 
Q 2584 2291 2321 2609 
Q 2059 2928 1675 2928 
Q 1300 2928 1048 2622 
Q 797 2316 797 1656 
z
" transform="scale(0.015625)"/>
       <path id="ArialMT-29" d="M 791 -1347 
L 388 -1347 
Q 1322 153 1322 1656 
Q 1322 2244 1188 2822 
Q 1081 3291 891 3722 
Q 769 4003 388 4659 
L 791 4659 
Q 1378 3875 1659 3084 
Q 1900 2403 1900 1659 
Q 1900 816 1576 28 
Q 1253 -759 791 -1347 
z
" transform="scale(0.015625)"/>
      </defs>
      <use xlink:href="#ArialMT-50"/>
      <use xlink:href="#ArialMT-65" x="66.699219"/>
      <use xlink:href="#ArialMT-72" x="122.314453"/>
      <use xlink:href="#ArialMT-73" x="155.615234"/>
      <use xlink:href="#ArialMT-6f" x="205.615234"/>
      <use xlink:href="#ArialMT-6e" x="261.230469"/>
      <use xlink:href="#ArialMT-73" x="316.845703"/>
      <use xlink:href="#ArialMT-20" x="366.845703"/>
      <use xlink:href="#ArialMT-28" x="394.628906"/>
      <use xlink:href="#ArialMT-74" x="427.929688"/>
      <use xlink:href="#ArialMT-68" x="455.712891"/>
      <use xlink:href="#ArialMT-6f" x="511.328125"/>
      <use xlink:href="#ArialMT-75" x="566.943359"/>
      <use xlink:href="#ArialMT-73" x="622.558594"/>
      <use xlink:href="#ArialMT-61" x="672.558594"/>
      <use xlink:href="#ArialMT-6e" x="728.173828"/>
      <use xlink:href="#ArialMT-64" x="783.789062"/>
      <use xlink:href="#ArialMT-73" x="839.404297"/>
      <use xlink:href="#ArialMT-29" x="889.404297"/>
     </g>
    </g>
   </g>
   <g id="line2d_18">
    <path d="M 124.245042 313.798713 
L 126.852605 338.343579 
L 129.207823 340.726 
L 131.815385 334.443532 
L 134.338833 326.304301 
L 136.946396 319.98792 
L 139.469844 321.064672 
L 142.077406 321.963379 
L 144.684969 325.871905 
L 147.208417 319.784439 
L 149.815979 296.324803 
L 152.339427 278.418497 
L 154.94699 329.695647 
L 157.554553 357.174028 
L 159.90977 362.235611 
L 162.517333 362.023652 
L 165.040781 354.087903 
L 167.648344 347.440865 
L 170.171791 348.280223 
L 172.779354 346.398026 
L 175.386917 350.493076 
L 177.910365 345.18562 
L 180.517927 322.700996 
L 183.041375 302.327486 
L 185.648938 353.409634 
L 188.2565 370.578322 
L 190.695833 373.825536 
L 193.303396 366.322183 
L 195.826844 357.496206 
L 198.434406 350.315031 
L 200.957854 352.02766 
L 203.565417 351.544393 
L 206.172979 353.808117 
L 208.696427 344.778658 
L 211.30399 322.972304 
L 213.827438 300.572464 
L 216.435 348.263266 
L 219.042563 360.777333 
L 221.397781 364.796078 
L 224.005344 357.080766 
L 226.528791 346.99999 
L 229.136354 337.605962 
L 231.659802 334.706361 
L 234.267365 331.399799 
L 236.874927 331.365885 
L 239.398375 320.632275 
L 242.005938 296.697851 
L 244.529385 271.432324 
L 247.136948 322.531429 
L 249.744511 334.223094 
L 252.099729 331.128491 
L 254.707291 321.471633 
L 259.838302 299.122664 
L 262.36175 294.289996 
L 264.969312 288.906234 
L 267.576875 286.193157 
L 270.100323 273.908007 
L 272.707885 242.495665 
L 275.231333 218.459501 
L 277.838896 269.762087 
L 280.446459 286.354246 
L 282.801677 289.771027 
L 285.409239 280.029386 
L 287.932687 271.262757 
L 290.54025 261.34307 
L 293.063697 261.029371 
L 295.67126 258.485861 
L 298.278823 259.689789 
L 300.802271 250.185542 
L 303.409833 221.282797 
L 305.933281 200.807546 
L 308.540844 256.83258 
L 311.148406 273.534959 
L 313.587739 272.059723 
L 316.195302 266.667483 
L 318.71875 251.236859 
L 321.326312 241.58848 
L 323.84976 239.172146 
L 326.457323 236.518418 
L 329.064886 237.688432 
L 331.588333 222.919121 
L 334.195896 192.032438 
L 336.719344 169.632598 
L 339.326906 231.448356 
L 341.934469 248.718785 
L 344.289687 247.319855 
L 346.89725 240.638903 
L 349.420697 230.193558 
L 352.02826 221.935631 
L 354.551708 220.629962 
L 357.159271 217.467532 
L 359.766833 220.223001 
L 362.290281 205.513038 
L 364.897844 174.049826 
L 367.421292 150.95476 
L 370.028854 212.058336 
L 372.636417 230.074861 
L 374.991635 231.53314 
L 377.599198 223.402388 
L 380.122645 210.701797 
L 382.730208 202.469305 
L 385.253656 199.654488 
L 387.861218 198.391212 
L 390.468781 199.713836 
L 392.992229 187.488034 
L 395.599792 156.219825 
L 398.123239 132.997584 
L 400.730802 190.913294 
L 403.338365 202.613437 
L 405.693583 201.960603 
L 408.301145 191.701782 
L 410.824593 180.501862 
L 413.432156 171.769146 
L 415.955603 167.919968 
L 418.563166 166.66517 
L 421.170729 169.013678 
L 423.694177 154.422412 
L 426.301739 123.11181 
L 428.825187 96.998447 
L 431.43275 155.499164 
L 434.040312 172.83742 
L 436.479645 170.633045 
L 439.087208 158.288546 
L 441.610656 153.591532 
L 444.218218 145.520129 
L 446.741666 145.401432 
L 449.349229 142.781617 
L 451.956792 145.613391 
L 454.480239 133.455416 
L 457.087802 100.067615 
L 459.61125 78.786919 
L 462.218812 141.501384 
L 464.826375 157.915498 
L 467.181593 159.390733 
L 469.789156 161.9512 
L 472.312604 152.548693 
L 474.920166 144.884251 
L 477.443614 151.946729 
L 480.051177 149.835616 
L 482.658739 155.032854 
L 485.182187 146.919059 
L 487.78975 117.075215 
L 490.313198 105.392028 
L 492.92076 167.190829 
L 495.528323 184.071253 
L 497.883541 181.697311 
L 500.491104 176.559422 
L 503.014551 169.276507 
L 505.622114 163.087301 
L 508.145562 164.910149 
L 510.753124 167.521485 
L 513.360687 173.778519 
L 515.884135 163.070344 
L 518.491698 133.370632 
L 521.015145 116.998909 
L 523.622708 177.873569 
L 526.230271 195.398349 
L 528.585489 195.38987 
L 531.193051 189.158272 
L 533.716499 180.654472 
L 536.324062 175.287667 
L 538.84751 177.746393 
L 541.455072 174.558528 
L 544.062635 177.34791 
L 546.586083 165.045803 
L 549.193645 139.195268 
L 551.717093 123.086375 
L 554.324656 177.670088 
L 556.932219 191.879827 
L 561.979114 177.551391 
L 564.502562 167.021262 
L 567.110124 158.966815 
L 569.633572 161.569673 
L 572.241135 161.27293 
L 574.848698 166.241252 
L 577.372145 152.820001 
L 579.979708 121.305919 
L 582.503156 105.968557 
L 585.110719 161.58663 
L 587.718281 173.388514 
L 590.073499 169.683468 
L 592.681062 160.077481 
L 595.20451 149.428655 
L 597.812072 140.475502 
L 600.33552 138.143951 
L 602.943083 136.346538 
L 605.550645 146.724056 
L 608.074093 136.33806 
L 610.681656 103.018086 
L 613.205104 86.358099 
L 615.812666 145.09621 
L 618.420229 160.221613 
L 620.775447 153.193049 
L 623.38301 151.395635 
L 625.906457 144.400984 
L 628.51402 137.720033 
L 631.037468 138.245692 
L 633.645031 137.330028 
L 636.252593 145.969482 
L 638.776041 133.192586 
L 641.383604 96.947577 
L 643.907051 82.627619 
L 646.514614 136.880675 
L 649.122177 150.48845 
L 651.477395 140.399196 
L 654.084957 138.169386 
L 656.608405 126.672724 
L 659.215968 122.552238 
L 661.739416 122.306366 
L 664.346978 120.280037 
L 666.954541 128.537964 
L 669.477989 121.068525 
L 672.085551 81.593258 
L 674.608999 67.400475 
L 677.216562 126.570983 
L 679.824125 146.317095 
L 682.263457 141.764213 
L 684.87102 144.926643 
L 687.394468 140.314413 
L 690.002031 136.85524 
L 692.525478 139.763319 
L 695.133041 142.951184 
L 697.740604 157.49158 
L 700.264051 154.210453 
L 702.871614 136.100665 
L 705.395062 129.936894 
L 708.002625 192.320702 
L 710.610187 213.482701 
L 712.965405 215.890557 
L 715.572968 216.823177 
L 718.096416 208.700903 
L 720.703978 204.62281 
L 723.227426 209.218083 
L 725.834989 208.709382 
L 728.442551 219.544732 
L 730.965999 215.687076 
L 733.573562 188.836094 
L 736.09701 177.475086 
L 738.704572 226.073073 
L 741.312135 240.274334 
L 743.667353 232.957505 
L 746.274916 227.887443 
L 748.798363 218.476458 
L 751.405926 213.245307 
L 753.929374 212.965521 
L 756.536937 211.388545 
L 759.144499 220.095825 
L 761.667947 207.42067 
L 764.27551 178.6451 
L 766.798957 165.206892 
L 769.40652 212.668778 
L 772.014083 226.751342 
L 774.369301 221.087794 
L 776.976863 209.243519 
L 779.500311 200.790589 
L 782.107874 192.854839 
L 784.631322 189.828063 
L 787.238884 189.870455 
L 789.846447 198.374255 
L 792.369895 186.970854 
L 794.977457 153.854361 
L 797.500905 140.763766 
L 800.108468 188.429133 
L 802.716031 206.58979 
L 805.155363 201.502771 
L 807.762926 193.863765 
L 810.286374 184.953003 
L 812.893937 181.527744 
L 815.417384 182.22297 
L 818.024947 181.587093 
L 820.63251 188.056085 
L 823.155958 176.288115 
L 825.76352 135.14261 
L 828.286968 126.706637 
L 830.894531 177.941396 
L 833.502093 193.702676 
L 835.857311 190.3622 
L 838.464874 182.146665 
L 840.988322 171.658927 
L 843.595884 162.086853 
L 846.119332 157.669625 
L 848.726895 154.753068 
L 851.334458 161.459454 
L 853.857905 147.919506 
L 856.465468 110.36035 
L 858.988916 94.75168 
L 861.596478 151.446506 
L 864.204041 170.005646 
L 866.559259 164.613406 
L 869.166822 154.303715 
L 871.690269 145.664261 
L 874.297832 135.854793 
L 876.82128 132.921279 
L 879.428843 133.667375 
L 882.036405 140.58572 
L 884.559853 125.087269 
L 887.167416 90.097058 
L 889.690864 77.057333 
L 892.298426 130.21668 
L 894.905989 145.155559 
L 897.261207 139.492011 
L 899.86877 131.853005 
L 902.392217 120.958306 
L 904.99978 113.310821 
L 907.523228 111.064054 
L 910.13079 112.819076 
L 912.738353 122.391149 
L 915.261801 106.841828 
L 917.869364 73.013153 
L 920.392811 62.355848 
L 923.000374 112.869946 
L 925.607937 124.663351 
L 928.04727 117.015866 
L 930.654832 110.919922 
L 933.17828 102.695908 
L 935.785843 93.700363 
L 938.30929 91.784252 
L 940.916853 92.615132 
L 943.524416 102.305903 
L 946.047864 89.656183 
L 948.655426 59.074721 
L 951.178874 47.705234 
L 953.786437 93.479925 
L 956.393999 112.683422 
L 958.749217 112.081458 
L 961.35678 107.706622 
L 963.880228 101.525894 
L 966.48779 94.446459 
L 969.011238 94.607548 
L 971.618801 97.227363 
L 974.226364 108.325542 
L 976.749811 96.404961 
L 979.357374 56.90426 
L 981.880822 55.200108 
L 984.488384 104.993545 
L 987.095947 116.998909 
L 989.451165 114.133222 
L 992.058728 108.147497 
L 994.582176 98.32955 
L 997.189738 94.28537 
L 999.713186 93.471447 
L 1002.320749 95.133207 
L 1004.928311 108.215323 
L 1007.451759 98.388899 
L 1010.059322 56.43795 
L 1012.58277 54.920322 
L 1015.190332 102.034596 
L 1017.797895 117.812832 
L 1020.153113 117.032823 
L 1022.760676 112.937773 
L 1025.284123 107.282703 
L 1027.891686 100.169355 
L 1030.415134 99.287605 
L 1033.022696 102.37373 
L 1035.630259 114.09083 
L 1035.630259 114.09083 
" clip-path="url(#p162938b5e4)" style="fill: none; stroke: #000000; stroke-width: 1.5; stroke-linecap: round"/>
   </g>
   <g id="patch_3">
    <path d="M 78.675781 390.131551 
L 78.675781 31.399219 
" style="fill: none; stroke: #ffffff; stroke-linejoin: miter; stroke-linecap: square"/>
   </g>
   <g id="patch_4">
    <path d="M 1081.19952 390.131551 
L 1081.19952 31.399219 
" style="fill: none; stroke: #ffffff; stroke-linejoin: miter; stroke-linecap: square"/>
   </g>
   <g id="patch_5">
    <path d="M 78.675781 390.131551 
L 1081.19952 390.131551 
" style="fill: none; stroke: #ffffff; stroke-linejoin: miter; stroke-linecap: square"/>
   </g>
   <g id="patch_6">
    <path d="M 78.675781 31.399219 
L 1081.19952 31.399219 
" style="fill: none; stroke: #ffffff; stroke-linejoin: miter; stroke-linecap: square"/>
   </g>
   <g id="text_20">
    <!-- Total employment in US retail -->
    <g style="fill: #262626" transform="translate(417.384916 25.399219) scale(0.25 -0.25)">
     <defs>
      <path id="ArialMT-54" d="M 1659 0 
L 1659 4041 
L 150 4041 
L 150 4581 
L 3781 4581 
L 3781 4041 
L 2266 4041 
L 2266 0 
L 1659 0 
z
" transform="scale(0.015625)"/>
      <path id="ArialMT-6c" d="M 409 0 
L 409 4581 
L 972 4581 
L 972 0 
L 409 0 
z
" transform="scale(0.015625)"/>
      <path id="ArialMT-6d" d="M 422 0 
L 422 3319 
L 925 3319 
L 925 2853 
Q 1081 3097 1340 3245 
Q 1600 3394 1931 3394 
Q 2300 3394 2536 3241 
Q 2772 3088 2869 2813 
Q 3263 3394 3894 3394 
Q 4388 3394 4653 3120 
Q 4919 2847 4919 2278 
L 4919 0 
L 4359 0 
L 4359 2091 
Q 4359 2428 4304 2576 
Q 4250 2725 4106 2815 
Q 3963 2906 3769 2906 
Q 3419 2906 3187 2673 
Q 2956 2441 2956 1928 
L 2956 0 
L 2394 0 
L 2394 2156 
Q 2394 2531 2256 2718 
Q 2119 2906 1806 2906 
Q 1569 2906 1367 2781 
Q 1166 2656 1075 2415 
Q 984 2175 984 1722 
L 984 0 
L 422 0 
z
" transform="scale(0.015625)"/>
      <path id="ArialMT-70" d="M 422 -1272 
L 422 3319 
L 934 3319 
L 934 2888 
Q 1116 3141 1344 3267 
Q 1572 3394 1897 3394 
Q 2322 3394 2647 3175 
Q 2972 2956 3137 2557 
Q 3303 2159 3303 1684 
Q 3303 1175 3120 767 
Q 2938 359 2589 142 
Q 2241 -75 1856 -75 
Q 1575 -75 1351 44 
Q 1128 163 984 344 
L 984 -1272 
L 422 -1272 
z
M 931 1641 
Q 931 1000 1190 694 
Q 1450 388 1819 388 
Q 2194 388 2461 705 
Q 2728 1022 2728 1688 
Q 2728 2322 2467 2637 
Q 2206 2953 1844 2953 
Q 1484 2953 1207 2617 
Q 931 2281 931 1641 
z
" transform="scale(0.015625)"/>
      <path id="ArialMT-79" d="M 397 -1278 
L 334 -750 
Q 519 -800 656 -800 
Q 844 -800 956 -737 
Q 1069 -675 1141 -563 
Q 1194 -478 1313 -144 
Q 1328 -97 1363 -6 
L 103 3319 
L 709 3319 
L 1400 1397 
Q 1534 1031 1641 628 
Q 1738 1016 1872 1384 
L 2581 3319 
L 3144 3319 
L 1881 -56 
Q 1678 -603 1566 -809 
Q 1416 -1088 1222 -1217 
Q 1028 -1347 759 -1347 
Q 597 -1347 397 -1278 
z
" transform="scale(0.015625)"/>
      <path id="ArialMT-69" d="M 425 3934 
L 425 4581 
L 988 4581 
L 988 3934 
L 425 3934 
z
M 425 0 
L 425 3319 
L 988 3319 
L 988 0 
L 425 0 
z
" transform="scale(0.015625)"/>
      <path id="ArialMT-55" d="M 3500 4581 
L 4106 4581 
L 4106 1934 
Q 4106 1244 3950 837 
Q 3794 431 3386 176 
Q 2978 -78 2316 -78 
Q 1672 -78 1262 144 
Q 853 366 678 786 
Q 503 1206 503 1934 
L 503 4581 
L 1109 4581 
L 1109 1938 
Q 1109 1341 1220 1058 
Q 1331 775 1601 622 
Q 1872 469 2263 469 
Q 2931 469 3215 772 
Q 3500 1075 3500 1938 
L 3500 4581 
z
" transform="scale(0.015625)"/>
      <path id="ArialMT-53" d="M 288 1472 
L 859 1522 
Q 900 1178 1048 958 
Q 1197 738 1509 602 
Q 1822 466 2213 466 
Q 2559 466 2825 569 
Q 3091 672 3220 851 
Q 3350 1031 3350 1244 
Q 3350 1459 3225 1620 
Q 3100 1781 2813 1891 
Q 2628 1963 1997 2114 
Q 1366 2266 1113 2400 
Q 784 2572 623 2826 
Q 463 3081 463 3397 
Q 463 3744 659 4045 
Q 856 4347 1234 4503 
Q 1613 4659 2075 4659 
Q 2584 4659 2973 4495 
Q 3363 4331 3572 4012 
Q 3781 3694 3797 3291 
L 3216 3247 
Q 3169 3681 2898 3903 
Q 2628 4125 2100 4125 
Q 1550 4125 1298 3923 
Q 1047 3722 1047 3438 
Q 1047 3191 1225 3031 
Q 1400 2872 2139 2705 
Q 2878 2538 3153 2413 
Q 3553 2228 3743 1945 
Q 3934 1663 3934 1294 
Q 3934 928 3725 604 
Q 3516 281 3123 101 
Q 2731 -78 2241 -78 
Q 1619 -78 1198 103 
Q 778 284 539 648 
Q 300 1013 288 1472 
z
" transform="scale(0.015625)"/>
     </defs>
     <use xlink:href="#ArialMT-54"/>
     <use xlink:href="#ArialMT-6f" x="49.958984"/>
     <use xlink:href="#ArialMT-74" x="105.574219"/>
     <use xlink:href="#ArialMT-61" x="133.357422"/>
     <use xlink:href="#ArialMT-6c" x="188.972656"/>
     <use xlink:href="#ArialMT-20" x="211.189453"/>
     <use xlink:href="#ArialMT-65" x="238.972656"/>
     <use xlink:href="#ArialMT-6d" x="294.587891"/>
     <use xlink:href="#ArialMT-70" x="377.888672"/>
     <use xlink:href="#ArialMT-6c" x="433.503906"/>
     <use xlink:href="#ArialMT-6f" x="455.720703"/>
     <use xlink:href="#ArialMT-79" x="511.335938"/>
     <use xlink:href="#ArialMT-6d" x="561.335938"/>
     <use xlink:href="#ArialMT-65" x="644.636719"/>
     <use xlink:href="#ArialMT-6e" x="700.251953"/>
     <use xlink:href="#ArialMT-74" x="755.867188"/>
     <use xlink:href="#ArialMT-20" x="783.650391"/>
     <use xlink:href="#ArialMT-69" x="811.433594"/>
     <use xlink:href="#ArialMT-6e" x="833.650391"/>
     <use xlink:href="#ArialMT-20" x="889.265625"/>
     <use xlink:href="#ArialMT-55" x="917.048828"/>
     <use xlink:href="#ArialMT-53" x="989.265625"/>
     <use xlink:href="#ArialMT-20" x="1055.964844"/>
     <use xlink:href="#ArialMT-72" x="1083.748047"/>
     <use xlink:href="#ArialMT-65" x="1117.048828"/>
     <use xlink:href="#ArialMT-74" x="1172.664062"/>
     <use xlink:href="#ArialMT-61" x="1200.447266"/>
     <use xlink:href="#ArialMT-69" x="1256.0625"/>
     <use xlink:href="#ArialMT-6c" x="1278.279297"/>
    </g>
   </g>
  </g>
 </g>
 <defs>
  <clipPath id="p162938b5e4">
   <rect x="78.675781" y="31.399219" width="1002.523739" height="358.732333"/>
  </clipPath>
 </defs>
</svg>
