<?xml version="1.0" encoding="utf-8" standalone="no"?>
<!DOCTYPE svg PUBLIC "-//W3C//DTD SVG 1.1//EN"
  "http://www.w3.org/Graphics/SVG/1.1/DTD/svg11.dtd">
<svg xmlns:xlink="http://www.w3.org/1999/xlink" width="1088.39952pt" height="440.39952pt" viewBox="0 0 1088.39952 440.39952" xmlns="http://www.w3.org/2000/svg" version="1.1">
 <metadata>
  <rdf:RDF xmlns:dc="http://purl.org/dc/elements/1.1/" xmlns:cc="http://creativecommons.org/ns#" xmlns:rdf="http://www.w3.org/1999/02/22-rdf-syntax-ns#">
   <cc:Work>
    <dc:type rdf:resource="http://purl.org/dc/dcmitype/StillImage"/>
    <dc:date>2025-10-25T23:36:30.406221</dc:date>
    <dc:format>image/svg+xml</dc:format>
    <dc:creator>
     <cc:Agent>
      <dc:title>Matplotlib v3.7.2, https://matplotlib.org/</dc:title>
     </cc:Agent>
    </dc:creator>
   </cc:Work>
  </rdf:RDF>
 </metadata>
 <defs>
  <style type="text/css">*{stroke-linejoin: round; stroke-linecap: butt}</style>
 </defs>
 <g id="figure_1">
  <g id="patch_1">
   <path d="M 0 440.39952 
L 1088.39952 440.39952 
L 1088.39952 0 
L 0 0 
z
" style="fill: #ffffff"/>
  </g>
  <g id="axes_1">
   <g id="patch_2">
    <path d="M 65.682031 390.131551 
L 1081.19952 390.131551 
L 1081.19952 31.399219 
L 65.682031 31.399219 
z
" style="fill: #e5e5e5"/>
   </g>
   <g id="matplotlib.axis_1">
    <g id="xtick_1">
     <g id="line2d_1">
      <path d="M 155.957988 390.131551 
L 155.957988 31.399219 
" clip-path="url(#p2302f473b9)" style="fill: none; stroke: #ffffff; stroke-width: 0.8; stroke-linecap: round"/>
     </g>
     <g id="text_1">
      <!-- 1984 -->
      <g style="fill: #555555" transform="translate(139.275176 407.86827) scale(0.15 -0.15)">
       <defs>
        <path id="ArialMT-31" d="M 2384 0 
L 1822 0 
L 1822 3584 
Q 1619 3391 1289 3197 
Q 959 3003 697 2906 
L 697 3450 
Q 1169 3672 1522 3987 
Q 1875 4303 2022 4600 
L 2384 4600 
L 2384 0 
z
" transform="scale(0.015625)"/>
        <path id="ArialMT-39" d="M 350 1059 
L 891 1109 
Q 959 728 1153 556 
Q 1347 384 1650 384 
Q 1909 384 2104 503 
Q 2300 622 2425 820 
Q 2550 1019 2634 1356 
Q 2719 1694 2719 2044 
Q 2719 2081 2716 2156 
Q 2547 1888 2255 1720 
Q 1963 1553 1622 1553 
Q 1053 1553 659 1965 
Q 266 2378 266 3053 
Q 266 3750 677 4175 
Q 1088 4600 1706 4600 
Q 2153 4600 2523 4359 
Q 2894 4119 3086 3673 
Q 3278 3228 3278 2384 
Q 3278 1506 3087 986 
Q 2897 466 2520 194 
Q 2144 -78 1638 -78 
Q 1100 -78 759 220 
Q 419 519 350 1059 
z
M 2653 3081 
Q 2653 3566 2395 3850 
Q 2138 4134 1775 4134 
Q 1400 4134 1122 3828 
Q 844 3522 844 3034 
Q 844 2597 1108 2323 
Q 1372 2050 1759 2050 
Q 2150 2050 2401 2323 
Q 2653 2597 2653 3081 
z
" transform="scale(0.015625)"/>
        <path id="ArialMT-38" d="M 1131 2484 
Q 781 2613 612 2850 
Q 444 3088 444 3419 
Q 444 3919 803 4259 
Q 1163 4600 1759 4600 
Q 2359 4600 2725 4251 
Q 3091 3903 3091 3403 
Q 3091 3084 2923 2848 
Q 2756 2613 2416 2484 
Q 2838 2347 3058 2040 
Q 3278 1734 3278 1309 
Q 3278 722 2862 322 
Q 2447 -78 1769 -78 
Q 1091 -78 675 323 
Q 259 725 259 1325 
Q 259 1772 486 2073 
Q 713 2375 1131 2484 
z
M 1019 3438 
Q 1019 3113 1228 2906 
Q 1438 2700 1772 2700 
Q 2097 2700 2305 2904 
Q 2513 3109 2513 3406 
Q 2513 3716 2298 3927 
Q 2084 4138 1766 4138 
Q 1444 4138 1231 3931 
Q 1019 3725 1019 3438 
z
M 838 1322 
Q 838 1081 952 856 
Q 1066 631 1291 507 
Q 1516 384 1775 384 
Q 2178 384 2440 643 
Q 2703 903 2703 1303 
Q 2703 1709 2433 1975 
Q 2163 2241 1756 2241 
Q 1359 2241 1098 1978 
Q 838 1716 838 1322 
z
" transform="scale(0.015625)"/>
        <path id="ArialMT-34" d="M 2069 0 
L 2069 1097 
L 81 1097 
L 81 1613 
L 2172 4581 
L 2631 4581 
L 2631 1613 
L 3250 1613 
L 3250 1097 
L 2631 1097 
L 2631 0 
L 2069 0 
z
M 2069 1613 
L 2069 3678 
L 634 1613 
L 2069 1613 
z
" transform="scale(0.015625)"/>
       </defs>
       <use xlink:href="#ArialMT-31"/>
       <use xlink:href="#ArialMT-39" x="55.615234"/>
       <use xlink:href="#ArialMT-38" x="111.230469"/>
       <use xlink:href="#ArialMT-34" x="166.845703"/>
      </g>
     </g>
    </g>
    <g id="xtick_2">
     <g id="line2d_2">
      <path d="M 256.666706 390.131551 
L 256.666706 31.399219 
" clip-path="url(#p2302f473b9)" style="fill: none; stroke: #ffffff; stroke-width: 0.8; stroke-linecap: round"/>
     </g>
     <g id="text_2">
      <!-- 1988 -->
      <g style="fill: #555555" transform="translate(239.983894 407.86827) scale(0.15 -0.15)">
       <use xlink:href="#ArialMT-31"/>
       <use xlink:href="#ArialMT-39" x="55.615234"/>
       <use xlink:href="#ArialMT-38" x="111.230469"/>
       <use xlink:href="#ArialMT-38" x="166.845703"/>
      </g>
     </g>
    </g>
    <g id="xtick_3">
     <g id="line2d_3">
      <path d="M 357.375425 390.131551 
L 357.375425 31.399219 
" clip-path="url(#p2302f473b9)" style="fill: none; stroke: #ffffff; stroke-width: 0.8; stroke-linecap: round"/>
     </g>
     <g id="text_3">
      <!-- 1992 -->
      <g style="fill: #555555" transform="translate(340.692612 407.86827) scale(0.15 -0.15)">
       <defs>
        <path id="ArialMT-32" d="M 3222 541 
L 3222 0 
L 194 0 
Q 188 203 259 391 
Q 375 700 629 1000 
Q 884 1300 1366 1694 
Q 2113 2306 2375 2664 
Q 2638 3022 2638 3341 
Q 2638 3675 2398 3904 
Q 2159 4134 1775 4134 
Q 1369 4134 1125 3890 
Q 881 3647 878 3216 
L 300 3275 
Q 359 3922 746 4261 
Q 1134 4600 1788 4600 
Q 2447 4600 2831 4234 
Q 3216 3869 3216 3328 
Q 3216 3053 3103 2787 
Q 2991 2522 2730 2228 
Q 2469 1934 1863 1422 
Q 1356 997 1212 845 
Q 1069 694 975 541 
L 3222 541 
z
" transform="scale(0.015625)"/>
       </defs>
       <use xlink:href="#ArialMT-31"/>
       <use xlink:href="#ArialMT-39" x="55.615234"/>
       <use xlink:href="#ArialMT-39" x="111.230469"/>
       <use xlink:href="#ArialMT-32" x="166.845703"/>
      </g>
     </g>
    </g>
    <g id="xtick_4">
     <g id="line2d_4">
      <path d="M 458.084143 390.131551 
L 458.084143 31.399219 
" clip-path="url(#p2302f473b9)" style="fill: none; stroke: #ffffff; stroke-width: 0.8; stroke-linecap: round"/>
     </g>
     <g id="text_4">
      <!-- 1996 -->
      <g style="fill: #555555" transform="translate(441.401331 407.86827) scale(0.15 -0.15)">
       <defs>
        <path id="ArialMT-36" d="M 3184 3459 
L 2625 3416 
Q 2550 3747 2413 3897 
Q 2184 4138 1850 4138 
Q 1581 4138 1378 3988 
Q 1113 3794 959 3422 
Q 806 3050 800 2363 
Q 1003 2672 1297 2822 
Q 1591 2972 1913 2972 
Q 2475 2972 2870 2558 
Q 3266 2144 3266 1488 
Q 3266 1056 3080 686 
Q 2894 316 2569 119 
Q 2244 -78 1831 -78 
Q 1128 -78 684 439 
Q 241 956 241 2144 
Q 241 3472 731 4075 
Q 1159 4600 1884 4600 
Q 2425 4600 2770 4297 
Q 3116 3994 3184 3459 
z
M 888 1484 
Q 888 1194 1011 928 
Q 1134 663 1356 523 
Q 1578 384 1822 384 
Q 2178 384 2434 671 
Q 2691 959 2691 1453 
Q 2691 1928 2437 2201 
Q 2184 2475 1800 2475 
Q 1419 2475 1153 2201 
Q 888 1928 888 1484 
z
" transform="scale(0.015625)"/>
       </defs>
       <use xlink:href="#ArialMT-31"/>
       <use xlink:href="#ArialMT-39" x="55.615234"/>
       <use xlink:href="#ArialMT-39" x="111.230469"/>
       <use xlink:href="#ArialMT-36" x="166.845703"/>
      </g>
     </g>
    </g>
    <g id="xtick_5">
     <g id="line2d_5">
      <path d="M 558.792861 390.131551 
L 558.792861 31.399219 
" clip-path="url(#p2302f473b9)" style="fill: none; stroke: #ffffff; stroke-width: 0.8; stroke-linecap: round"/>
     </g>
     <g id="text_5">
      <!-- 2000 -->
      <g style="fill: #555555" transform="translate(542.110049 407.86827) scale(0.15 -0.15)">
       <defs>
        <path id="ArialMT-30" d="M 266 2259 
Q 266 3072 433 3567 
Q 600 4063 929 4331 
Q 1259 4600 1759 4600 
Q 2128 4600 2406 4451 
Q 2684 4303 2865 4023 
Q 3047 3744 3150 3342 
Q 3253 2941 3253 2259 
Q 3253 1453 3087 958 
Q 2922 463 2592 192 
Q 2263 -78 1759 -78 
Q 1097 -78 719 397 
Q 266 969 266 2259 
z
M 844 2259 
Q 844 1131 1108 757 
Q 1372 384 1759 384 
Q 2147 384 2411 759 
Q 2675 1134 2675 2259 
Q 2675 3391 2411 3762 
Q 2147 4134 1753 4134 
Q 1366 4134 1134 3806 
Q 844 3388 844 2259 
z
" transform="scale(0.015625)"/>
       </defs>
       <use xlink:href="#ArialMT-32"/>
       <use xlink:href="#ArialMT-30" x="55.615234"/>
       <use xlink:href="#ArialMT-30" x="111.230469"/>
       <use xlink:href="#ArialMT-30" x="166.845703"/>
      </g>
     </g>
    </g>
    <g id="xtick_6">
     <g id="line2d_6">
      <path d="M 659.50158 390.131551 
L 659.50158 31.399219 
" clip-path="url(#p2302f473b9)" style="fill: none; stroke: #ffffff; stroke-width: 0.8; stroke-linecap: round"/>
     </g>
     <g id="text_6">
      <!-- 2004 -->
      <g style="fill: #555555" transform="translate(642.818767 407.86827) scale(0.15 -0.15)">
       <use xlink:href="#ArialMT-32"/>
       <use xlink:href="#ArialMT-30" x="55.615234"/>
       <use xlink:href="#ArialMT-30" x="111.230469"/>
       <use xlink:href="#ArialMT-34" x="166.845703"/>
      </g>
     </g>
    </g>
    <g id="xtick_7">
     <g id="line2d_7">
      <path d="M 760.210298 390.131551 
L 760.210298 31.399219 
" clip-path="url(#p2302f473b9)" style="fill: none; stroke: #ffffff; stroke-width: 0.8; stroke-linecap: round"/>
     </g>
     <g id="text_7">
      <!-- 2008 -->
      <g style="fill: #555555" transform="translate(743.527486 407.86827) scale(0.15 -0.15)">
       <use xlink:href="#ArialMT-32"/>
       <use xlink:href="#ArialMT-30" x="55.615234"/>
       <use xlink:href="#ArialMT-30" x="111.230469"/>
       <use xlink:href="#ArialMT-38" x="166.845703"/>
      </g>
     </g>
    </g>
    <g id="xtick_8">
     <g id="line2d_8">
      <path d="M 860.919016 390.131551 
L 860.919016 31.399219 
" clip-path="url(#p2302f473b9)" style="fill: none; stroke: #ffffff; stroke-width: 0.8; stroke-linecap: round"/>
     </g>
     <g id="text_8">
      <!-- 2012 -->
      <g style="fill: #555555" transform="translate(844.236204 407.86827) scale(0.15 -0.15)">
       <use xlink:href="#ArialMT-32"/>
       <use xlink:href="#ArialMT-30" x="55.615234"/>
       <use xlink:href="#ArialMT-31" x="111.230469"/>
       <use xlink:href="#ArialMT-32" x="166.845703"/>
      </g>
     </g>
    </g>
    <g id="xtick_9">
     <g id="line2d_9">
      <path d="M 961.627735 390.131551 
L 961.627735 31.399219 
" clip-path="url(#p2302f473b9)" style="fill: none; stroke: #ffffff; stroke-width: 0.8; stroke-linecap: round"/>
     </g>
     <g id="text_9">
      <!-- 2016 -->
      <g style="fill: #555555" transform="translate(944.944922 407.86827) scale(0.15 -0.15)">
       <use xlink:href="#ArialMT-32"/>
       <use xlink:href="#ArialMT-30" x="55.615234"/>
       <use xlink:href="#ArialMT-31" x="111.230469"/>
       <use xlink:href="#ArialMT-36" x="166.845703"/>
      </g>
     </g>
    </g>
    <g id="xtick_10">
     <g id="line2d_10">
      <path d="M 1062.336453 390.131551 
L 1062.336453 31.399219 
" clip-path="url(#p2302f473b9)" style="fill: none; stroke: #ffffff; stroke-width: 0.8; stroke-linecap: round"/>
     </g>
     <g id="text_10">
      <!-- 2020 -->
      <g style="fill: #555555" transform="translate(1045.653641 407.86827) scale(0.15 -0.15)">
       <use xlink:href="#ArialMT-32"/>
       <use xlink:href="#ArialMT-30" x="55.615234"/>
       <use xlink:href="#ArialMT-32" x="111.230469"/>
       <use xlink:href="#ArialMT-30" x="166.845703"/>
      </g>
     </g>
    </g>
    <g id="text_11">
     <!-- Month [1M] -->
     <g style="fill: #555555" transform="translate(523.425151 429.22452) scale(0.2 -0.2)">
      <defs>
       <path id="ArialMT-4d" d="M 475 0 
L 475 4581 
L 1388 4581 
L 2472 1338 
Q 2622 884 2691 659 
Q 2769 909 2934 1394 
L 4031 4581 
L 4847 4581 
L 4847 0 
L 4263 0 
L 4263 3834 
L 2931 0 
L 2384 0 
L 1059 3900 
L 1059 0 
L 475 0 
z
" transform="scale(0.015625)"/>
       <path id="ArialMT-6f" d="M 213 1659 
Q 213 2581 725 3025 
Q 1153 3394 1769 3394 
Q 2453 3394 2887 2945 
Q 3322 2497 3322 1706 
Q 3322 1066 3130 698 
Q 2938 331 2570 128 
Q 2203 -75 1769 -75 
Q 1072 -75 642 372 
Q 213 819 213 1659 
z
M 791 1659 
Q 791 1022 1069 705 
Q 1347 388 1769 388 
Q 2188 388 2466 706 
Q 2744 1025 2744 1678 
Q 2744 2294 2464 2611 
Q 2184 2928 1769 2928 
Q 1347 2928 1069 2612 
Q 791 2297 791 1659 
z
" transform="scale(0.015625)"/>
       <path id="ArialMT-6e" d="M 422 0 
L 422 3319 
L 928 3319 
L 928 2847 
Q 1294 3394 1984 3394 
Q 2284 3394 2536 3286 
Q 2788 3178 2913 3003 
Q 3038 2828 3088 2588 
Q 3119 2431 3119 2041 
L 3119 0 
L 2556 0 
L 2556 2019 
Q 2556 2363 2490 2533 
Q 2425 2703 2258 2804 
Q 2091 2906 1866 2906 
Q 1506 2906 1245 2678 
Q 984 2450 984 1813 
L 984 0 
L 422 0 
z
" transform="scale(0.015625)"/>
       <path id="ArialMT-74" d="M 1650 503 
L 1731 6 
Q 1494 -44 1306 -44 
Q 1000 -44 831 53 
Q 663 150 594 308 
Q 525 466 525 972 
L 525 2881 
L 113 2881 
L 113 3319 
L 525 3319 
L 525 4141 
L 1084 4478 
L 1084 3319 
L 1650 3319 
L 1650 2881 
L 1084 2881 
L 1084 941 
Q 1084 700 1114 631 
Q 1144 563 1211 522 
Q 1278 481 1403 481 
Q 1497 481 1650 503 
z
" transform="scale(0.015625)"/>
       <path id="ArialMT-68" d="M 422 0 
L 422 4581 
L 984 4581 
L 984 2938 
Q 1378 3394 1978 3394 
Q 2347 3394 2619 3248 
Q 2891 3103 3008 2847 
Q 3125 2591 3125 2103 
L 3125 0 
L 2563 0 
L 2563 2103 
Q 2563 2525 2380 2717 
Q 2197 2909 1863 2909 
Q 1613 2909 1392 2779 
Q 1172 2650 1078 2428 
Q 984 2206 984 1816 
L 984 0 
L 422 0 
z
" transform="scale(0.015625)"/>
       <path id="ArialMT-20" transform="scale(0.015625)"/>
       <path id="ArialMT-5b" d="M 434 -1272 
L 434 4581 
L 1675 4581 
L 1675 4116 
L 997 4116 
L 997 -806 
L 1675 -806 
L 1675 -1272 
L 434 -1272 
z
" transform="scale(0.015625)"/>
       <path id="ArialMT-5d" d="M 1363 -1272 
L 122 -1272 
L 122 -806 
L 800 -806 
L 800 4116 
L 122 4116 
L 122 4581 
L 1363 4581 
L 1363 -1272 
z
" transform="scale(0.015625)"/>
      </defs>
      <use xlink:href="#ArialMT-4d"/>
      <use xlink:href="#ArialMT-6f" x="83.300781"/>
      <use xlink:href="#ArialMT-6e" x="138.916016"/>
      <use xlink:href="#ArialMT-74" x="194.53125"/>
      <use xlink:href="#ArialMT-68" x="222.314453"/>
      <use xlink:href="#ArialMT-20" x="277.929688"/>
      <use xlink:href="#ArialMT-5b" x="305.712891"/>
      <use xlink:href="#ArialMT-31" x="333.496094"/>
      <use xlink:href="#ArialMT-4d" x="389.111328"/>
      <use xlink:href="#ArialMT-5d" x="472.412109"/>
     </g>
    </g>
   </g>
   <g id="matplotlib.axis_2">
    <g id="ytick_1">
     <g id="line2d_11">
      <path d="M 65.682031 374.363377 
L 1081.19952 374.363377 
" clip-path="url(#p2302f473b9)" style="fill: none; stroke: #ffffff; stroke-width: 0.8; stroke-linecap: round"/>
     </g>
     <g id="text_12">
      <!-- 8.5 -->
      <g style="fill: #555555" transform="translate(37.832031 379.731737) scale(0.15 -0.15)">
       <defs>
        <path id="ArialMT-2e" d="M 581 0 
L 581 641 
L 1222 641 
L 1222 0 
L 581 0 
z
" transform="scale(0.015625)"/>
        <path id="ArialMT-35" d="M 266 1200 
L 856 1250 
Q 922 819 1161 601 
Q 1400 384 1738 384 
Q 2144 384 2425 690 
Q 2706 997 2706 1503 
Q 2706 1984 2436 2262 
Q 2166 2541 1728 2541 
Q 1456 2541 1237 2417 
Q 1019 2294 894 2097 
L 366 2166 
L 809 4519 
L 3088 4519 
L 3088 3981 
L 1259 3981 
L 1013 2750 
Q 1425 3038 1878 3038 
Q 2478 3038 2890 2622 
Q 3303 2206 3303 1553 
Q 3303 931 2941 478 
Q 2500 -78 1738 -78 
Q 1113 -78 717 272 
Q 322 622 266 1200 
z
" transform="scale(0.015625)"/>
       </defs>
       <use xlink:href="#ArialMT-38"/>
       <use xlink:href="#ArialMT-2e" x="55.615234"/>
       <use xlink:href="#ArialMT-35" x="83.398438"/>
      </g>
     </g>
    </g>
    <g id="ytick_2">
     <g id="line2d_12">
      <path d="M 65.682031 331.050272 
L 1081.19952 331.050272 
" clip-path="url(#p2302f473b9)" style="fill: none; stroke: #ffffff; stroke-width: 0.8; stroke-linecap: round"/>
     </g>
     <g id="text_13">
      <!-- 9.0 -->
      <g style="fill: #555555" transform="translate(37.832031 336.418631) scale(0.15 -0.15)">
       <use xlink:href="#ArialMT-39"/>
       <use xlink:href="#ArialMT-2e" x="55.615234"/>
       <use xlink:href="#ArialMT-30" x="83.398438"/>
      </g>
     </g>
    </g>
    <g id="ytick_3">
     <g id="line2d_13">
      <path d="M 65.682031 287.737166 
L 1081.19952 287.737166 
" clip-path="url(#p2302f473b9)" style="fill: none; stroke: #ffffff; stroke-width: 0.8; stroke-linecap: round"/>
     </g>
     <g id="text_14">
      <!-- 9.5 -->
      <g style="fill: #555555" transform="translate(37.832031 293.105526) scale(0.15 -0.15)">
       <use xlink:href="#ArialMT-39"/>
       <use xlink:href="#ArialMT-2e" x="55.615234"/>
       <use xlink:href="#ArialMT-35" x="83.398438"/>
      </g>
     </g>
    </g>
    <g id="ytick_4">
     <g id="line2d_14">
      <path d="M 65.682031 244.424061 
L 1081.19952 244.424061 
" clip-path="url(#p2302f473b9)" style="fill: none; stroke: #ffffff; stroke-width: 0.8; stroke-linecap: round"/>
     </g>
     <g id="text_15">
      <!-- 10.0 -->
      <g style="fill: #555555" transform="translate(29.490625 249.79242) scale(0.15 -0.15)">
       <use xlink:href="#ArialMT-31"/>
       <use xlink:href="#ArialMT-30" x="55.615234"/>
       <use xlink:href="#ArialMT-2e" x="111.230469"/>
       <use xlink:href="#ArialMT-30" x="139.013672"/>
      </g>
     </g>
    </g>
    <g id="ytick_5">
     <g id="line2d_15">
      <path d="M 65.682031 201.110955 
L 1081.19952 201.110955 
" clip-path="url(#p2302f473b9)" style="fill: none; stroke: #ffffff; stroke-width: 0.8; stroke-linecap: round"/>
     </g>
     <g id="text_16">
      <!-- 10.5 -->
      <g style="fill: #555555" transform="translate(29.490625 206.479315) scale(0.15 -0.15)">
       <use xlink:href="#ArialMT-31"/>
       <use xlink:href="#ArialMT-30" x="55.615234"/>
       <use xlink:href="#ArialMT-2e" x="111.230469"/>
       <use xlink:href="#ArialMT-35" x="139.013672"/>
      </g>
     </g>
    </g>
    <g id="ytick_6">
     <g id="line2d_16">
      <path d="M 65.682031 157.79785 
L 1081.19952 157.79785 
" clip-path="url(#p2302f473b9)" style="fill: none; stroke: #ffffff; stroke-width: 0.8; stroke-linecap: round"/>
     </g>
     <g id="text_17">
      <!-- 11.0 -->
      <g style="fill: #555555" transform="translate(30.596875 163.166209) scale(0.15 -0.15)">
       <use xlink:href="#ArialMT-31"/>
       <use xlink:href="#ArialMT-31" x="48.240234"/>
       <use xlink:href="#ArialMT-2e" x="103.855469"/>
       <use xlink:href="#ArialMT-30" x="131.638672"/>
      </g>
     </g>
    </g>
    <g id="ytick_7">
     <g id="line2d_17">
      <path d="M 65.682031 114.484744 
L 1081.19952 114.484744 
" clip-path="url(#p2302f473b9)" style="fill: none; stroke: #ffffff; stroke-width: 0.8; stroke-linecap: round"/>
     </g>
     <g id="text_18">
      <!-- 11.5 -->
      <g style="fill: #555555" transform="translate(30.596875 119.853104) scale(0.15 -0.15)">
       <use xlink:href="#ArialMT-31"/>
       <use xlink:href="#ArialMT-31" x="48.240234"/>
       <use xlink:href="#ArialMT-2e" x="103.855469"/>
       <use xlink:href="#ArialMT-35" x="131.638672"/>
      </g>
     </g>
    </g>
    <g id="ytick_8">
     <g id="line2d_18">
      <path d="M 65.682031 71.171639 
L 1081.19952 71.171639 
" clip-path="url(#p2302f473b9)" style="fill: none; stroke: #ffffff; stroke-width: 0.8; stroke-linecap: round"/>
     </g>
     <g id="text_19">
      <!-- 12.0 -->
      <g style="fill: #555555" transform="translate(29.490625 76.539998) scale(0.15 -0.15)">
       <use xlink:href="#ArialMT-31"/>
       <use xlink:href="#ArialMT-32" x="55.615234"/>
       <use xlink:href="#ArialMT-2e" x="111.230469"/>
       <use xlink:href="#ArialMT-30" x="139.013672"/>
      </g>
     </g>
    </g>
    <g id="text_20">
     <!-- Turnover -->
     <g style="fill: #555555" transform="translate(21.515625 250.401322) rotate(-90) scale(0.2 -0.2)">
      <defs>
       <path id="ArialMT-54" d="M 1659 0 
L 1659 4041 
L 150 4041 
L 150 4581 
L 3781 4581 
L 3781 4041 
L 2266 4041 
L 2266 0 
L 1659 0 
z
" transform="scale(0.015625)"/>
       <path id="ArialMT-75" d="M 2597 0 
L 2597 488 
Q 2209 -75 1544 -75 
Q 1250 -75 995 37 
Q 741 150 617 320 
Q 494 491 444 738 
Q 409 903 409 1263 
L 409 3319 
L 972 3319 
L 972 1478 
Q 972 1038 1006 884 
Q 1059 663 1231 536 
Q 1403 409 1656 409 
Q 1909 409 2131 539 
Q 2353 669 2445 892 
Q 2538 1116 2538 1541 
L 2538 3319 
L 3100 3319 
L 3100 0 
L 2597 0 
z
" transform="scale(0.015625)"/>
       <path id="ArialMT-72" d="M 416 0 
L 416 3319 
L 922 3319 
L 922 2816 
Q 1116 3169 1280 3281 
Q 1444 3394 1641 3394 
Q 1925 3394 2219 3213 
L 2025 2691 
Q 1819 2813 1613 2813 
Q 1428 2813 1281 2702 
Q 1134 2591 1072 2394 
Q 978 2094 978 1738 
L 978 0 
L 416 0 
z
" transform="scale(0.015625)"/>
       <path id="ArialMT-76" d="M 1344 0 
L 81 3319 
L 675 3319 
L 1388 1331 
Q 1503 1009 1600 663 
Q 1675 925 1809 1294 
L 2547 3319 
L 3125 3319 
L 1869 0 
L 1344 0 
z
" transform="scale(0.015625)"/>
       <path id="ArialMT-65" d="M 2694 1069 
L 3275 997 
Q 3138 488 2766 206 
Q 2394 -75 1816 -75 
Q 1088 -75 661 373 
Q 234 822 234 1631 
Q 234 2469 665 2931 
Q 1097 3394 1784 3394 
Q 2450 3394 2872 2941 
Q 3294 2488 3294 1666 
Q 3294 1616 3291 1516 
L 816 1516 
Q 847 969 1125 678 
Q 1403 388 1819 388 
Q 2128 388 2347 550 
Q 2566 713 2694 1069 
z
M 847 1978 
L 2700 1978 
Q 2663 2397 2488 2606 
Q 2219 2931 1791 2931 
Q 1403 2931 1139 2672 
Q 875 2413 847 1978 
z
" transform="scale(0.015625)"/>
      </defs>
      <use xlink:href="#ArialMT-54"/>
      <use xlink:href="#ArialMT-75" x="57.333984"/>
      <use xlink:href="#ArialMT-72" x="112.949219"/>
      <use xlink:href="#ArialMT-6e" x="146.25"/>
      <use xlink:href="#ArialMT-6f" x="201.865234"/>
      <use xlink:href="#ArialMT-76" x="257.480469"/>
      <use xlink:href="#ArialMT-65" x="307.480469"/>
      <use xlink:href="#ArialMT-72" x="363.095703"/>
     </g>
    </g>
   </g>
   <g id="line2d_19">
    <path d="M 111.841917 372.486412 
L 113.909858 373.825536 
L 116.04673 372.880154 
L 118.114671 368.019517 
L 120.251543 373.71526 
L 122.388415 369.80535 
L 124.456356 363.728997 
L 126.593228 360.298074 
L 128.661169 341.583108 
L 130.798041 368.15685 
L 132.934914 365.986815 
L 134.864992 355.340996 
L 137.001864 361.30804 
L 139.069805 363.330919 
L 141.206677 361.589395 
L 143.274618 359.3155 
L 145.41149 355.024656 
L 147.548362 356.429946 
L 149.616303 353.283913 
L 151.753175 348.066704 
L 153.821116 328.666671 
L 155.957988 356.992355 
L 158.09486 355.024656 
L 160.09387 350.108874 
L 162.230742 354.013588 
L 164.298683 348.795734 
L 166.435555 352.182776 
L 168.503496 352.78398 
L 170.640368 345.947899 
L 172.77724 353.32172 
L 174.845181 343.624577 
L 176.982053 340.179225 
L 179.049994 325.257793 
L 181.186866 341.591766 
L 183.323738 349.317606 
L 185.253817 340.763107 
L 187.390689 342.486587 
L 189.45863 335.705182 
L 191.595502 344.444656 
L 193.663443 335.647187 
L 195.800315 333.380261 
L 197.937187 338.968083 
L 200.005128 327.835638 
L 202.142 326.807883 
L 204.209941 312.199828 
L 206.346813 326.266025 
L 208.483685 335.415457 
L 210.413763 326.150196 
L 212.550635 328.6824 
L 214.618576 321.038207 
L 216.755448 329.218291 
L 218.823389 322.924105 
L 220.960261 322.931641 
L 223.097134 324.112511 
L 225.165074 315.990879 
L 227.301947 318.834199 
L 229.369888 298.711087 
L 231.50676 314.850191 
L 233.643632 323.588928 
L 235.57371 317.712891 
L 237.710582 315.355186 
L 239.778523 315.526315 
L 241.915395 319.942767 
L 243.983336 313.255163 
L 246.120208 315.719094 
L 248.25708 315.127349 
L 250.325021 307.391868 
L 252.461893 311.049059 
L 254.529834 286.876527 
L 256.666706 311.090483 
L 258.803579 313.874005 
L 260.802588 302.178021 
L 262.93946 305.914914 
L 265.007401 307.96423 
L 267.144273 306.714887 
L 269.212214 306.254327 
L 271.349086 303.281831 
L 273.485959 299.590205 
L 275.553899 298.610257 
L 277.690772 294.943251 
L 279.758712 270.298008 
L 281.895585 298.251654 
L 284.032457 302.462856 
L 285.962535 285.954643 
L 288.099407 295.250221 
L 290.167348 293.158148 
L 292.30422 291.270645 
L 294.372161 291.701151 
L 296.509033 286.28811 
L 298.645905 285.874273 
L 300.713846 288.241894 
L 302.850718 282.193731 
L 304.918659 258.592268 
L 307.055531 285.021809 
L 309.192403 290.384018 
L 311.122482 276.069224 
L 313.259354 284.532185 
L 315.327295 279.127403 
L 317.464167 280.285107 
L 319.532108 283.580726 
L 321.66898 274.507134 
L 323.805852 283.298823 
L 325.873793 275.919687 
L 328.010665 270.108542 
L 330.078606 254.012453 
L 332.215478 270.195562 
L 334.35235 281.41376 
L 336.282428 268.081749 
L 338.419301 278.049827 
L 340.487241 268.531268 
L 342.624114 277.660066 
L 346.828927 263.587138 
L 348.965799 275.40822 
L 351.03374 263.806963 
L 353.170612 263.133937 
L 355.238553 249.636321 
L 357.375425 263.577376 
L 359.512297 269.653863 
L 361.511306 265.603027 
L 363.648179 262.473854 
L 365.716119 262.929751 
L 367.852992 268.551505 
L 369.920932 260.192818 
L 372.057805 264.24276 
L 374.194677 264.493107 
L 376.262618 255.330573 
L 378.39949 262.788942 
L 380.467431 239.566247 
L 382.604303 258.549901 
L 384.741175 267.227165 
L 386.671253 258.23961 
L 388.808125 256.512844 
L 393.012938 262.1305 
L 395.080879 254.518997 
L 397.217751 261.172657 
L 399.354624 257.775471 
L 401.422564 253.348991 
L 403.559437 254.688256 
L 405.627377 231.121744 
L 407.76425 256.438656 
L 409.901122 261.638717 
L 411.8312 246.844075 
L 413.968072 256.29966 
L 416.036013 255.772744 
L 418.172885 254.802738 
L 420.240826 251.029232 
L 422.377698 250.530795 
L 424.51457 248.370902 
L 426.582511 245.427996 
L 428.719383 245.380898 
L 430.787324 221.177579 
L 432.924196 246.222498 
L 435.061069 251.221073 
L 436.991147 238.625032 
L 439.128019 242.491475 
L 441.19596 240.447724 
L 443.332832 241.293226 
L 445.400773 239.95687 
L 447.537645 234.688191 
L 449.674517 236.307396 
L 451.742458 233.605927 
L 453.87933 229.13363 
L 455.947271 210.872732 
L 458.084143 234.098622 
L 460.221015 234.823072 
L 462.220025 229.763853 
L 464.356897 234.525712 
L 466.424838 227.97608 
L 468.56171 235.200638 
L 470.629651 231.12561 
L 472.766523 225.670661 
L 474.903395 233.307214 
L 476.971336 223.048077 
L 479.108208 223.011589 
L 481.176149 209.626468 
L 485.449893 233.869795 
L 487.379971 222.008254 
L 489.516844 229.328124 
L 491.584785 221.80555 
L 493.721657 231.84645 
L 495.789598 222.905829 
L 497.92647 222.30197 
L 500.063342 225.354984 
L 502.131283 214.864752 
L 504.268155 217.829221 
L 506.336096 199.828633 
L 508.472968 211.64465 
L 510.60984 225.879025 
L 512.539918 217.632446 
L 514.67679 216.492361 
L 516.744731 214.761497 
L 518.881603 220.990452 
L 520.949544 212.410661 
L 523.086416 214.534603 
L 525.223289 214.232645 
L 527.291229 203.809331 
L 529.428102 210.662028 
L 531.496042 189.387314 
L 533.632915 203.640686 
L 535.769787 216.071537 
L 537.699865 202.620381 
L 539.836737 207.751257 
L 541.904678 208.154516 
L 544.04155 212.045697 
L 546.109491 202.983932 
L 548.246363 206.879829 
L 550.383235 204.745297 
L 552.451176 198.792284 
L 554.588048 201.914914 
L 556.655989 178.064772 
L 558.792861 202.737248 
L 560.929734 208.453604 
L 562.928743 199.414419 
L 565.065615 205.053313 
L 567.133556 205.461825 
L 569.270428 205.03083 
L 571.338369 203.561206 
L 573.475241 199.127652 
L 575.612113 200.589108 
L 577.680054 198.454642 
L 579.816927 196.442468 
L 581.884867 175.581024 
L 584.02174 195.376458 
L 586.158612 203.551671 
L 588.08869 189.125809 
L 590.225562 195.049828 
L 592.293503 191.914902 
L 594.430375 196.218967 
L 596.498316 193.991208 
L 598.635188 187.814062 
L 600.77206 191.809538 
L 602.840001 184.49066 
L 604.976873 182.331006 
L 607.044814 166.746165 
L 609.181686 179.53626 
L 611.318558 193.200172 
L 613.248637 178.10463 
L 615.385509 187.737275 
L 617.45345 179.969098 
L 619.590322 188.638567 
L 621.658263 181.517579 
L 623.795135 176.853068 
L 625.932007 183.132577 
L 627.999948 173.268052 
L 630.13682 172.829372 
L 632.204761 159.122615 
L 634.341633 170.23267 
L 636.478505 184.554595 
L 638.408583 173.347723 
L 640.545455 176.172364 
L 642.613396 172.425233 
L 644.750269 183.598566 
L 646.818209 172.921614 
L 648.955082 173.18329 
L 651.091954 175.630644 
L 653.159895 165.747961 
L 655.296767 167.837914 
L 657.364708 149.929286 
L 661.638452 172.54022 
L 663.637461 165.297619 
L 665.774334 164.686442 
L 667.842274 166.768263 
L 669.979147 170.147169 
L 672.047087 162.400722 
L 674.18396 166.101921 
L 676.320832 164.805079 
L 678.388773 160.110892 
L 680.525645 161.671304 
L 682.593586 139.738316 
L 684.730458 162.696392 
L 686.86733 171.910203 
L 688.797408 157.400652 
L 690.93428 162.682071 
L 693.002221 163.880375 
L 695.139093 165.774782 
L 697.207034 158.506919 
L 699.343906 157.557184 
L 701.480779 157.51343 
L 703.548719 153.685002 
L 705.685592 154.334452 
L 707.753532 133.158026 
L 709.890405 153.382625 
L 712.027277 162.849234 
L 713.957355 148.50755 
L 716.094227 152.808732 
L 718.162168 152.938049 
L 720.29904 154.323191 
L 722.366981 151.519678 
L 724.503853 147.788974 
L 726.640725 149.336284 
L 728.708666 143.571773 
L 730.845538 142.590366 
L 732.913479 123.989262 
L 735.050351 142.09076 
L 737.187224 152.057419 
L 739.117302 137.517618 
L 741.254174 142.887628 
L 743.322115 140.989846 
L 745.458987 144.604086 
L 749.6638 134.770456 
L 751.800672 137.82676 
L 753.868613 131.973836 
L 756.005485 129.957243 
L 758.073426 113.68057 
L 760.210298 130.789631 
L 762.34717 139.033472 
L 764.34618 128.71185 
L 766.483052 137.121115 
L 768.550993 131.605624 
L 770.687865 139.559241 
L 772.755806 130.136301 
L 774.892678 127.962557 
L 777.02955 132.92469 
L 779.097491 122.663159 
L 781.234363 122.893317 
L 783.302304 103.317838 
L 785.439176 116.589022 
L 787.576048 131.848424 
L 789.506126 119.26953 
L 791.642999 121.438747 
L 793.71094 120.500805 
L 795.847812 127.13865 
L 797.915753 121.171429 
L 800.052625 119.708969 
L 802.189497 122.788161 
L 804.257438 114.442083 
L 806.39431 112.840001 
L 808.462251 96.129538 
L 810.599123 114.723099 
L 812.735995 130.086752 
L 814.666073 116.022072 
L 816.802945 119.211156 
L 818.870886 118.296138 
L 821.007758 124.760614 
L 823.075699 115.565947 
L 825.212571 117.647291 
L 827.349444 118.863163 
L 829.417384 112.241809 
L 831.554257 111.421163 
L 833.622197 92.504789 
L 835.75907 109.4953 
L 837.895942 122.540074 
L 839.82602 111.473158 
L 841.962892 112.716445 
L 844.030833 115.314305 
L 846.167705 118.46144 
L 848.235646 110.969083 
L 850.372518 110.215371 
L 852.50939 111.654446 
L 854.577331 106.179805 
L 856.714203 106.769993 
L 858.782144 86.096478 
L 860.919016 107.341357 
L 863.055889 114.281255 
L 865.054898 104.089531 
L 867.19177 109.571453 
L 869.259711 108.719462 
L 871.396583 111.730048 
L 873.464524 107.905128 
L 875.601396 103.270237 
L 877.738268 106.560562 
L 879.806209 100.222726 
L 881.943082 99.194509 
L 884.011022 81.560093 
L 886.147895 98.900066 
L 888.284767 111.810734 
L 890.214845 95.78233 
L 892.351717 106.04071 
L 894.419658 101.871322 
L 896.55653 107.63196 
L 898.624471 102.196968 
L 900.761343 97.054373 
L 902.898215 102.458636 
L 904.966156 94.78751 
L 907.103028 94.675226 
L 909.170969 73.637067 
L 913.444713 105.186393 
L 915.374792 92.021871 
L 917.511664 96.512414 
L 919.579605 94.073342 
L 921.716477 100.294224 
L 923.784418 93.964578 
L 925.92129 91.176159 
L 928.058162 94.557045 
L 930.126103 85.694551 
L 932.262975 86.449945 
L 934.330916 68.341133 
L 936.467788 85.822767 
L 938.60466 99.633411 
L 940.534738 86.230696 
L 942.67161 91.826502 
L 944.739551 89.366233 
L 946.876424 96.60336 
L 948.944364 89.208949 
L 951.081237 87.535403 
L 953.218109 90.252449 
L 955.28605 80.782823 
L 957.422922 83.402666 
L 959.490863 62.690263 
L 961.627735 81.797226 
L 963.764607 91.549317 
L 965.763616 80.310803 
L 967.900489 89.06624 
L 969.968429 87.812302 
L 972.105302 92.142452 
L 974.173242 86.202429 
L 976.310115 84.607076 
L 978.446987 85.114038 
L 980.514928 78.570419 
L 982.6518 79.201295 
L 984.719741 56.790054 
L 986.856613 79.259271 
L 988.993485 91.290202 
L 990.923563 78.200406 
L 993.060435 81.397199 
L 995.128376 82.55778 
L 997.265248 87.209214 
L 999.333189 81.414985 
L 1001.470061 80.177766 
L 1003.606934 80.935497 
L 1005.674874 75.539764 
L 1007.811747 74.621967 
L 1009.879687 53.099995 
L 1012.01656 75.506888 
L 1014.153432 87.553942 
L 1016.08351 69.387381 
L 1018.220382 80.308087 
L 1020.288323 76.406369 
L 1022.425195 81.47657 
L 1024.493136 76.947089 
L 1026.630008 73.692911 
L 1028.76688 75.498999 
L 1030.834821 70.176916 
L 1032.971693 69.055861 
L 1035.039634 47.705234 
L 1035.039634 47.705234 
" clip-path="url(#p2302f473b9)" style="fill: none; stroke: #000000; stroke-width: 1.5; stroke-linecap: round"/>
   </g>
   <g id="patch_3">
    <path d="M 65.682031 390.131551 
L 65.682031 31.399219 
" style="fill: none; stroke: #ffffff; stroke-linejoin: miter; stroke-linecap: square"/>
   </g>
   <g id="patch_4">
    <path d="M 1081.19952 390.131551 
L 1081.19952 31.399219 
" style="fill: none; stroke: #ffffff; stroke-linejoin: miter; stroke-linecap: square"/>
   </g>
   <g id="patch_5">
    <path d="M 65.682031 390.131551 
L 1081.19952 390.131551 
" style="fill: none; stroke: #ffffff; stroke-linejoin: miter; stroke-linecap: square"/>
   </g>
   <g id="patch_6">
    <path d="M 65.682031 31.399219 
L 1081.19952 31.399219 
" style="fill: none; stroke: #ffffff; stroke-linejoin: miter; stroke-linecap: square"/>
   </g>
   <g id="text_21">
    <!-- Food retailing turnover (Box-Cox, λ=0.0524) -->
    <g style="fill: #262626" transform="translate(329.932963 25.399219) scale(0.25 -0.25)">
     <defs>
      <path id="ArialMT-46" d="M 525 0 
L 525 4581 
L 3616 4581 
L 3616 4041 
L 1131 4041 
L 1131 2622 
L 3281 2622 
L 3281 2081 
L 1131 2081 
L 1131 0 
L 525 0 
z
" transform="scale(0.015625)"/>
      <path id="ArialMT-64" d="M 2575 0 
L 2575 419 
Q 2259 -75 1647 -75 
Q 1250 -75 917 144 
Q 584 363 401 755 
Q 219 1147 219 1656 
Q 219 2153 384 2558 
Q 550 2963 881 3178 
Q 1213 3394 1622 3394 
Q 1922 3394 2156 3267 
Q 2391 3141 2538 2938 
L 2538 4581 
L 3097 4581 
L 3097 0 
L 2575 0 
z
M 797 1656 
Q 797 1019 1065 703 
Q 1334 388 1700 388 
Q 2069 388 2326 689 
Q 2584 991 2584 1609 
Q 2584 2291 2321 2609 
Q 2059 2928 1675 2928 
Q 1300 2928 1048 2622 
Q 797 2316 797 1656 
z
" transform="scale(0.015625)"/>
      <path id="ArialMT-61" d="M 2588 409 
Q 2275 144 1986 34 
Q 1697 -75 1366 -75 
Q 819 -75 525 192 
Q 231 459 231 875 
Q 231 1119 342 1320 
Q 453 1522 633 1644 
Q 813 1766 1038 1828 
Q 1203 1872 1538 1913 
Q 2219 1994 2541 2106 
Q 2544 2222 2544 2253 
Q 2544 2597 2384 2738 
Q 2169 2928 1744 2928 
Q 1347 2928 1158 2789 
Q 969 2650 878 2297 
L 328 2372 
Q 403 2725 575 2942 
Q 747 3159 1072 3276 
Q 1397 3394 1825 3394 
Q 2250 3394 2515 3294 
Q 2781 3194 2906 3042 
Q 3031 2891 3081 2659 
Q 3109 2516 3109 2141 
L 3109 1391 
Q 3109 606 3145 398 
Q 3181 191 3288 0 
L 2700 0 
Q 2613 175 2588 409 
z
M 2541 1666 
Q 2234 1541 1622 1453 
Q 1275 1403 1131 1340 
Q 988 1278 909 1158 
Q 831 1038 831 891 
Q 831 666 1001 516 
Q 1172 366 1500 366 
Q 1825 366 2078 508 
Q 2331 650 2450 897 
Q 2541 1088 2541 1459 
L 2541 1666 
z
" transform="scale(0.015625)"/>
      <path id="ArialMT-69" d="M 425 3934 
L 425 4581 
L 988 4581 
L 988 3934 
L 425 3934 
z
M 425 0 
L 425 3319 
L 988 3319 
L 988 0 
L 425 0 
z
" transform="scale(0.015625)"/>
      <path id="ArialMT-6c" d="M 409 0 
L 409 4581 
L 972 4581 
L 972 0 
L 409 0 
z
" transform="scale(0.015625)"/>
      <path id="ArialMT-67" d="M 319 -275 
L 866 -356 
Q 900 -609 1056 -725 
Q 1266 -881 1628 -881 
Q 2019 -881 2231 -725 
Q 2444 -569 2519 -288 
Q 2563 -116 2559 434 
Q 2191 0 1641 0 
Q 956 0 581 494 
Q 206 988 206 1678 
Q 206 2153 378 2554 
Q 550 2956 876 3175 
Q 1203 3394 1644 3394 
Q 2231 3394 2613 2919 
L 2613 3319 
L 3131 3319 
L 3131 450 
Q 3131 -325 2973 -648 
Q 2816 -972 2473 -1159 
Q 2131 -1347 1631 -1347 
Q 1038 -1347 672 -1080 
Q 306 -813 319 -275 
z
M 784 1719 
Q 784 1066 1043 766 
Q 1303 466 1694 466 
Q 2081 466 2343 764 
Q 2606 1063 2606 1700 
Q 2606 2309 2336 2618 
Q 2066 2928 1684 2928 
Q 1309 2928 1046 2623 
Q 784 2319 784 1719 
z
" transform="scale(0.015625)"/>
      <path id="ArialMT-28" d="M 1497 -1347 
Q 1031 -759 709 28 
Q 388 816 388 1659 
Q 388 2403 628 3084 
Q 909 3875 1497 4659 
L 1900 4659 
Q 1522 4009 1400 3731 
Q 1209 3300 1100 2831 
Q 966 2247 966 1656 
Q 966 153 1900 -1347 
L 1497 -1347 
z
" transform="scale(0.015625)"/>
      <path id="ArialMT-42" d="M 469 0 
L 469 4581 
L 2188 4581 
Q 2713 4581 3030 4442 
Q 3347 4303 3526 4014 
Q 3706 3725 3706 3409 
Q 3706 3116 3547 2856 
Q 3388 2597 3066 2438 
Q 3481 2316 3704 2022 
Q 3928 1728 3928 1328 
Q 3928 1006 3792 729 
Q 3656 453 3456 303 
Q 3256 153 2954 76 
Q 2653 0 2216 0 
L 469 0 
z
M 1075 2656 
L 2066 2656 
Q 2469 2656 2644 2709 
Q 2875 2778 2992 2937 
Q 3109 3097 3109 3338 
Q 3109 3566 3000 3739 
Q 2891 3913 2687 3977 
Q 2484 4041 1991 4041 
L 1075 4041 
L 1075 2656 
z
M 1075 541 
L 2216 541 
Q 2509 541 2628 563 
Q 2838 600 2978 687 
Q 3119 775 3209 942 
Q 3300 1109 3300 1328 
Q 3300 1584 3169 1773 
Q 3038 1963 2805 2039 
Q 2572 2116 2134 2116 
L 1075 2116 
L 1075 541 
z
" transform="scale(0.015625)"/>
      <path id="ArialMT-78" d="M 47 0 
L 1259 1725 
L 138 3319 
L 841 3319 
L 1350 2541 
Q 1494 2319 1581 2169 
Q 1719 2375 1834 2534 
L 2394 3319 
L 3066 3319 
L 1919 1756 
L 3153 0 
L 2463 0 
L 1781 1031 
L 1600 1309 
L 728 0 
L 47 0 
z
" transform="scale(0.015625)"/>
      <path id="ArialMT-2d" d="M 203 1375 
L 203 1941 
L 1931 1941 
L 1931 1375 
L 203 1375 
z
" transform="scale(0.015625)"/>
      <path id="ArialMT-43" d="M 3763 1606 
L 4369 1453 
Q 4178 706 3683 314 
Q 3188 -78 2472 -78 
Q 1731 -78 1267 223 
Q 803 525 561 1097 
Q 319 1669 319 2325 
Q 319 3041 592 3573 
Q 866 4106 1370 4382 
Q 1875 4659 2481 4659 
Q 3169 4659 3637 4309 
Q 4106 3959 4291 3325 
L 3694 3184 
Q 3534 3684 3231 3912 
Q 2928 4141 2469 4141 
Q 1941 4141 1586 3887 
Q 1231 3634 1087 3207 
Q 944 2781 944 2328 
Q 944 1744 1114 1308 
Q 1284 872 1643 656 
Q 2003 441 2422 441 
Q 2931 441 3284 734 
Q 3638 1028 3763 1606 
z
" transform="scale(0.015625)"/>
      <path id="ArialMT-2c" d="M 569 0 
L 569 641 
L 1209 641 
L 1209 0 
Q 1209 -353 1084 -570 
Q 959 -788 688 -906 
L 531 -666 
Q 709 -588 793 -436 
Q 878 -284 888 0 
L 569 0 
z
" transform="scale(0.015625)"/>
      <path id="ArialMT-3bb" d="M 1597 2481 
L 669 0 
L 75 0 
L 1306 3256 
L 813 4581 
L 1406 4581 
L 3119 0 
L 2525 0 
L 1597 2481 
z
" transform="scale(0.015625)"/>
      <path id="ArialMT-3d" d="M 3381 2694 
L 356 2694 
L 356 3219 
L 3381 3219 
L 3381 2694 
z
M 3381 1303 
L 356 1303 
L 356 1828 
L 3381 1828 
L 3381 1303 
z
" transform="scale(0.015625)"/>
      <path id="ArialMT-29" d="M 791 -1347 
L 388 -1347 
Q 1322 153 1322 1656 
Q 1322 2244 1188 2822 
Q 1081 3291 891 3722 
Q 769 4003 388 4659 
L 791 4659 
Q 1378 3875 1659 3084 
Q 1900 2403 1900 1659 
Q 1900 816 1576 28 
Q 1253 -759 791 -1347 
z
" transform="scale(0.015625)"/>
     </defs>
     <use xlink:href="#ArialMT-46"/>
     <use xlink:href="#ArialMT-6f" x="61.083984"/>
     <use xlink:href="#ArialMT-6f" x="116.699219"/>
     <use xlink:href="#ArialMT-64" x="172.314453"/>
     <use xlink:href="#ArialMT-20" x="227.929688"/>
     <use xlink:href="#ArialMT-72" x="255.712891"/>
     <use xlink:href="#ArialMT-65" x="289.013672"/>
     <use xlink:href="#ArialMT-74" x="344.628906"/>
     <use xlink:href="#ArialMT-61" x="372.412109"/>
     <use xlink:href="#ArialMT-69" x="428.027344"/>
     <use xlink:href="#ArialMT-6c" x="450.244141"/>
     <use xlink:href="#ArialMT-69" x="472.460938"/>
     <use xlink:href="#ArialMT-6e" x="494.677734"/>
     <use xlink:href="#ArialMT-67" x="550.292969"/>
     <use xlink:href="#ArialMT-20" x="605.908203"/>
     <use xlink:href="#ArialMT-74" x="633.691406"/>
     <use xlink:href="#ArialMT-75" x="661.474609"/>
     <use xlink:href="#ArialMT-72" x="717.089844"/>
     <use xlink:href="#ArialMT-6e" x="750.390625"/>
     <use xlink:href="#ArialMT-6f" x="806.005859"/>
     <use xlink:href="#ArialMT-76" x="861.621094"/>
     <use xlink:href="#ArialMT-65" x="911.621094"/>
     <use xlink:href="#ArialMT-72" x="967.236328"/>
     <use xlink:href="#ArialMT-20" x="1000.537109"/>
     <use xlink:href="#ArialMT-28" x="1028.320312"/>
     <use xlink:href="#ArialMT-42" x="1061.621094"/>
     <use xlink:href="#ArialMT-6f" x="1128.320312"/>
     <use xlink:href="#ArialMT-78" x="1183.935547"/>
     <use xlink:href="#ArialMT-2d" x="1233.935547"/>
     <use xlink:href="#ArialMT-43" x="1267.236328"/>
     <use xlink:href="#ArialMT-6f" x="1339.453125"/>
     <use xlink:href="#ArialMT-78" x="1395.068359"/>
     <use xlink:href="#ArialMT-2c" x="1445.068359"/>
     <use xlink:href="#ArialMT-20" x="1472.851562"/>
     <use xlink:href="#ArialMT-3bb" x="1500.634766"/>
     <use xlink:href="#ArialMT-3d" x="1550.634766"/>
     <use xlink:href="#ArialMT-30" x="1609.033203"/>
     <use xlink:href="#ArialMT-2e" x="1664.648438"/>
     <use xlink:href="#ArialMT-30" x="1692.431641"/>
     <use xlink:href="#ArialMT-35" x="1748.046875"/>
     <use xlink:href="#ArialMT-32" x="1803.662109"/>
     <use xlink:href="#ArialMT-34" x="1859.277344"/>
     <use xlink:href="#ArialMT-29" x="1914.892578"/>
    </g>
   </g>
  </g>
 </g>
 <defs>
  <clipPath id="p2302f473b9">
   <rect x="65.682031" y="31.399219" width="1015.517489" height="358.732333"/>
  </clipPath>
 </defs>
</svg>
