<?xml version="1.0" encoding="utf-8" standalone="no"?>
<!DOCTYPE svg PUBLIC "-//W3C//DTD SVG 1.1//EN"
  "http://www.w3.org/Graphics/SVG/1.1/DTD/svg11.dtd">
<svg xmlns:xlink="http://www.w3.org/1999/xlink" width="1088.39952pt" height="440.39952pt" viewBox="0 0 1088.39952 440.39952" xmlns="http://www.w3.org/2000/svg" version="1.1">
 <metadata>
  <rdf:RDF xmlns:dc="http://purl.org/dc/elements/1.1/" xmlns:cc="http://creativecommons.org/ns#" xmlns:rdf="http://www.w3.org/1999/02/22-rdf-syntax-ns#">
   <cc:Work>
    <dc:type rdf:resource="http://purl.org/dc/dcmitype/StillImage"/>
    <dc:date>2025-10-26T01:14:57.744838</dc:date>
    <dc:format>image/svg+xml</dc:format>
    <dc:creator>
     <cc:Agent>
      <dc:title>Matplotlib v3.7.2, https://matplotlib.org/</dc:title>
     </cc:Agent>
    </dc:creator>
   </cc:Work>
  </rdf:RDF>
 </metadata>
 <defs>
  <style type="text/css">*{stroke-linejoin: round; stroke-linecap: butt}</style>
 </defs>
 <g id="figure_1">
  <g id="patch_1">
   <path d="M 0 440.39952 
L 1088.39952 440.39952 
L 1088.39952 0 
L 0 0 
z
" style="fill: #ffffff"/>
  </g>
  <g id="axes_1">
   <g id="patch_2">
    <path d="M 53.173438 390.131551 
L 1081.19952 390.131551 
L 1081.19952 31.399219 
L 53.173438 31.399219 
z
" style="fill: #e5e5e5"/>
   </g>
   <g id="matplotlib.axis_1">
    <g id="xtick_1">
     <g id="line2d_1">
      <path d="M 144.561365 390.131551 
L 144.561365 31.399219 
" clip-path="url(#p59cd3f0273)" style="fill: none; stroke: #ffffff; stroke-width: 0.8; stroke-linecap: round"/>
     </g>
     <g id="text_1">
      <!-- 1984 -->
      <g style="fill: #555555" transform="translate(127.878552 407.86827) scale(0.15 -0.15)">
       <defs>
        <path id="ArialMT-31" d="M 2384 0 
L 1822 0 
L 1822 3584 
Q 1619 3391 1289 3197 
Q 959 3003 697 2906 
L 697 3450 
Q 1169 3672 1522 3987 
Q 1875 4303 2022 4600 
L 2384 4600 
L 2384 0 
z
" transform="scale(0.015625)"/>
        <path id="ArialMT-39" d="M 350 1059 
L 891 1109 
Q 959 728 1153 556 
Q 1347 384 1650 384 
Q 1909 384 2104 503 
Q 2300 622 2425 820 
Q 2550 1019 2634 1356 
Q 2719 1694 2719 2044 
Q 2719 2081 2716 2156 
Q 2547 1888 2255 1720 
Q 1963 1553 1622 1553 
Q 1053 1553 659 1965 
Q 266 2378 266 3053 
Q 266 3750 677 4175 
Q 1088 4600 1706 4600 
Q 2153 4600 2523 4359 
Q 2894 4119 3086 3673 
Q 3278 3228 3278 2384 
Q 3278 1506 3087 986 
Q 2897 466 2520 194 
Q 2144 -78 1638 -78 
Q 1100 -78 759 220 
Q 419 519 350 1059 
z
M 2653 3081 
Q 2653 3566 2395 3850 
Q 2138 4134 1775 4134 
Q 1400 4134 1122 3828 
Q 844 3522 844 3034 
Q 844 2597 1108 2323 
Q 1372 2050 1759 2050 
Q 2150 2050 2401 2323 
Q 2653 2597 2653 3081 
z
" transform="scale(0.015625)"/>
        <path id="ArialMT-38" d="M 1131 2484 
Q 781 2613 612 2850 
Q 444 3088 444 3419 
Q 444 3919 803 4259 
Q 1163 4600 1759 4600 
Q 2359 4600 2725 4251 
Q 3091 3903 3091 3403 
Q 3091 3084 2923 2848 
Q 2756 2613 2416 2484 
Q 2838 2347 3058 2040 
Q 3278 1734 3278 1309 
Q 3278 722 2862 322 
Q 2447 -78 1769 -78 
Q 1091 -78 675 323 
Q 259 725 259 1325 
Q 259 1772 486 2073 
Q 713 2375 1131 2484 
z
M 1019 3438 
Q 1019 3113 1228 2906 
Q 1438 2700 1772 2700 
Q 2097 2700 2305 2904 
Q 2513 3109 2513 3406 
Q 2513 3716 2298 3927 
Q 2084 4138 1766 4138 
Q 1444 4138 1231 3931 
Q 1019 3725 1019 3438 
z
M 838 1322 
Q 838 1081 952 856 
Q 1066 631 1291 507 
Q 1516 384 1775 384 
Q 2178 384 2440 643 
Q 2703 903 2703 1303 
Q 2703 1709 2433 1975 
Q 2163 2241 1756 2241 
Q 1359 2241 1098 1978 
Q 838 1716 838 1322 
z
" transform="scale(0.015625)"/>
        <path id="ArialMT-34" d="M 2069 0 
L 2069 1097 
L 81 1097 
L 81 1613 
L 2172 4581 
L 2631 4581 
L 2631 1613 
L 3250 1613 
L 3250 1097 
L 2631 1097 
L 2631 0 
L 2069 0 
z
M 2069 1613 
L 2069 3678 
L 634 1613 
L 2069 1613 
z
" transform="scale(0.015625)"/>
       </defs>
       <use xlink:href="#ArialMT-31"/>
       <use xlink:href="#ArialMT-39" x="55.615234"/>
       <use xlink:href="#ArialMT-38" x="111.230469"/>
       <use xlink:href="#ArialMT-34" x="166.845703"/>
      </g>
     </g>
    </g>
    <g id="xtick_2">
     <g id="line2d_2">
      <path d="M 246.510558 390.131551 
L 246.510558 31.399219 
" clip-path="url(#p59cd3f0273)" style="fill: none; stroke: #ffffff; stroke-width: 0.8; stroke-linecap: round"/>
     </g>
     <g id="text_2">
      <!-- 1988 -->
      <g style="fill: #555555" transform="translate(229.827746 407.86827) scale(0.15 -0.15)">
       <use xlink:href="#ArialMT-31"/>
       <use xlink:href="#ArialMT-39" x="55.615234"/>
       <use xlink:href="#ArialMT-38" x="111.230469"/>
       <use xlink:href="#ArialMT-38" x="166.845703"/>
      </g>
     </g>
    </g>
    <g id="xtick_3">
     <g id="line2d_3">
      <path d="M 348.459752 390.131551 
L 348.459752 31.399219 
" clip-path="url(#p59cd3f0273)" style="fill: none; stroke: #ffffff; stroke-width: 0.8; stroke-linecap: round"/>
     </g>
     <g id="text_3">
      <!-- 1992 -->
      <g style="fill: #555555" transform="translate(331.77694 407.86827) scale(0.15 -0.15)">
       <defs>
        <path id="ArialMT-32" d="M 3222 541 
L 3222 0 
L 194 0 
Q 188 203 259 391 
Q 375 700 629 1000 
Q 884 1300 1366 1694 
Q 2113 2306 2375 2664 
Q 2638 3022 2638 3341 
Q 2638 3675 2398 3904 
Q 2159 4134 1775 4134 
Q 1369 4134 1125 3890 
Q 881 3647 878 3216 
L 300 3275 
Q 359 3922 746 4261 
Q 1134 4600 1788 4600 
Q 2447 4600 2831 4234 
Q 3216 3869 3216 3328 
Q 3216 3053 3103 2787 
Q 2991 2522 2730 2228 
Q 2469 1934 1863 1422 
Q 1356 997 1212 845 
Q 1069 694 975 541 
L 3222 541 
z
" transform="scale(0.015625)"/>
       </defs>
       <use xlink:href="#ArialMT-31"/>
       <use xlink:href="#ArialMT-39" x="55.615234"/>
       <use xlink:href="#ArialMT-39" x="111.230469"/>
       <use xlink:href="#ArialMT-32" x="166.845703"/>
      </g>
     </g>
    </g>
    <g id="xtick_4">
     <g id="line2d_4">
      <path d="M 450.408946 390.131551 
L 450.408946 31.399219 
" clip-path="url(#p59cd3f0273)" style="fill: none; stroke: #ffffff; stroke-width: 0.8; stroke-linecap: round"/>
     </g>
     <g id="text_4">
      <!-- 1996 -->
      <g style="fill: #555555" transform="translate(433.726133 407.86827) scale(0.15 -0.15)">
       <defs>
        <path id="ArialMT-36" d="M 3184 3459 
L 2625 3416 
Q 2550 3747 2413 3897 
Q 2184 4138 1850 4138 
Q 1581 4138 1378 3988 
Q 1113 3794 959 3422 
Q 806 3050 800 2363 
Q 1003 2672 1297 2822 
Q 1591 2972 1913 2972 
Q 2475 2972 2870 2558 
Q 3266 2144 3266 1488 
Q 3266 1056 3080 686 
Q 2894 316 2569 119 
Q 2244 -78 1831 -78 
Q 1128 -78 684 439 
Q 241 956 241 2144 
Q 241 3472 731 4075 
Q 1159 4600 1884 4600 
Q 2425 4600 2770 4297 
Q 3116 3994 3184 3459 
z
M 888 1484 
Q 888 1194 1011 928 
Q 1134 663 1356 523 
Q 1578 384 1822 384 
Q 2178 384 2434 671 
Q 2691 959 2691 1453 
Q 2691 1928 2437 2201 
Q 2184 2475 1800 2475 
Q 1419 2475 1153 2201 
Q 888 1928 888 1484 
z
" transform="scale(0.015625)"/>
       </defs>
       <use xlink:href="#ArialMT-31"/>
       <use xlink:href="#ArialMT-39" x="55.615234"/>
       <use xlink:href="#ArialMT-39" x="111.230469"/>
       <use xlink:href="#ArialMT-36" x="166.845703"/>
      </g>
     </g>
    </g>
    <g id="xtick_5">
     <g id="line2d_5">
      <path d="M 552.358139 390.131551 
L 552.358139 31.399219 
" clip-path="url(#p59cd3f0273)" style="fill: none; stroke: #ffffff; stroke-width: 0.8; stroke-linecap: round"/>
     </g>
     <g id="text_5">
      <!-- 2000 -->
      <g style="fill: #555555" transform="translate(535.675327 407.86827) scale(0.15 -0.15)">
       <defs>
        <path id="ArialMT-30" d="M 266 2259 
Q 266 3072 433 3567 
Q 600 4063 929 4331 
Q 1259 4600 1759 4600 
Q 2128 4600 2406 4451 
Q 2684 4303 2865 4023 
Q 3047 3744 3150 3342 
Q 3253 2941 3253 2259 
Q 3253 1453 3087 958 
Q 2922 463 2592 192 
Q 2263 -78 1759 -78 
Q 1097 -78 719 397 
Q 266 969 266 2259 
z
M 844 2259 
Q 844 1131 1108 757 
Q 1372 384 1759 384 
Q 2147 384 2411 759 
Q 2675 1134 2675 2259 
Q 2675 3391 2411 3762 
Q 2147 4134 1753 4134 
Q 1366 4134 1134 3806 
Q 844 3388 844 2259 
z
" transform="scale(0.015625)"/>
       </defs>
       <use xlink:href="#ArialMT-32"/>
       <use xlink:href="#ArialMT-30" x="55.615234"/>
       <use xlink:href="#ArialMT-30" x="111.230469"/>
       <use xlink:href="#ArialMT-30" x="166.845703"/>
      </g>
     </g>
    </g>
    <g id="xtick_6">
     <g id="line2d_6">
      <path d="M 654.307333 390.131551 
L 654.307333 31.399219 
" clip-path="url(#p59cd3f0273)" style="fill: none; stroke: #ffffff; stroke-width: 0.8; stroke-linecap: round"/>
     </g>
     <g id="text_6">
      <!-- 2004 -->
      <g style="fill: #555555" transform="translate(637.624521 407.86827) scale(0.15 -0.15)">
       <use xlink:href="#ArialMT-32"/>
       <use xlink:href="#ArialMT-30" x="55.615234"/>
       <use xlink:href="#ArialMT-30" x="111.230469"/>
       <use xlink:href="#ArialMT-34" x="166.845703"/>
      </g>
     </g>
    </g>
    <g id="xtick_7">
     <g id="line2d_7">
      <path d="M 756.256527 390.131551 
L 756.256527 31.399219 
" clip-path="url(#p59cd3f0273)" style="fill: none; stroke: #ffffff; stroke-width: 0.8; stroke-linecap: round"/>
     </g>
     <g id="text_7">
      <!-- 2008 -->
      <g style="fill: #555555" transform="translate(739.573714 407.86827) scale(0.15 -0.15)">
       <use xlink:href="#ArialMT-32"/>
       <use xlink:href="#ArialMT-30" x="55.615234"/>
       <use xlink:href="#ArialMT-30" x="111.230469"/>
       <use xlink:href="#ArialMT-38" x="166.845703"/>
      </g>
     </g>
    </g>
    <g id="xtick_8">
     <g id="line2d_8">
      <path d="M 858.205721 390.131551 
L 858.205721 31.399219 
" clip-path="url(#p59cd3f0273)" style="fill: none; stroke: #ffffff; stroke-width: 0.8; stroke-linecap: round"/>
     </g>
     <g id="text_8">
      <!-- 2012 -->
      <g style="fill: #555555" transform="translate(841.522908 407.86827) scale(0.15 -0.15)">
       <use xlink:href="#ArialMT-32"/>
       <use xlink:href="#ArialMT-30" x="55.615234"/>
       <use xlink:href="#ArialMT-31" x="111.230469"/>
       <use xlink:href="#ArialMT-32" x="166.845703"/>
      </g>
     </g>
    </g>
    <g id="xtick_9">
     <g id="line2d_9">
      <path d="M 960.154914 390.131551 
L 960.154914 31.399219 
" clip-path="url(#p59cd3f0273)" style="fill: none; stroke: #ffffff; stroke-width: 0.8; stroke-linecap: round"/>
     </g>
     <g id="text_9">
      <!-- 2016 -->
      <g style="fill: #555555" transform="translate(943.472102 407.86827) scale(0.15 -0.15)">
       <use xlink:href="#ArialMT-32"/>
       <use xlink:href="#ArialMT-30" x="55.615234"/>
       <use xlink:href="#ArialMT-31" x="111.230469"/>
       <use xlink:href="#ArialMT-36" x="166.845703"/>
      </g>
     </g>
    </g>
    <g id="xtick_10">
     <g id="line2d_10">
      <path d="M 1062.104108 390.131551 
L 1062.104108 31.399219 
" clip-path="url(#p59cd3f0273)" style="fill: none; stroke: #ffffff; stroke-width: 0.8; stroke-linecap: round"/>
     </g>
     <g id="text_10">
      <!-- 2020 -->
      <g style="fill: #555555" transform="translate(1045.421296 407.86827) scale(0.15 -0.15)">
       <use xlink:href="#ArialMT-32"/>
       <use xlink:href="#ArialMT-30" x="55.615234"/>
       <use xlink:href="#ArialMT-32" x="111.230469"/>
       <use xlink:href="#ArialMT-30" x="166.845703"/>
      </g>
     </g>
    </g>
    <g id="text_11">
     <!-- Month [1M] -->
     <g style="fill: #555555" transform="translate(517.170854 429.22452) scale(0.2 -0.2)">
      <defs>
       <path id="ArialMT-4d" d="M 475 0 
L 475 4581 
L 1388 4581 
L 2472 1338 
Q 2622 884 2691 659 
Q 2769 909 2934 1394 
L 4031 4581 
L 4847 4581 
L 4847 0 
L 4263 0 
L 4263 3834 
L 2931 0 
L 2384 0 
L 1059 3900 
L 1059 0 
L 475 0 
z
" transform="scale(0.015625)"/>
       <path id="ArialMT-6f" d="M 213 1659 
Q 213 2581 725 3025 
Q 1153 3394 1769 3394 
Q 2453 3394 2887 2945 
Q 3322 2497 3322 1706 
Q 3322 1066 3130 698 
Q 2938 331 2570 128 
Q 2203 -75 1769 -75 
Q 1072 -75 642 372 
Q 213 819 213 1659 
z
M 791 1659 
Q 791 1022 1069 705 
Q 1347 388 1769 388 
Q 2188 388 2466 706 
Q 2744 1025 2744 1678 
Q 2744 2294 2464 2611 
Q 2184 2928 1769 2928 
Q 1347 2928 1069 2612 
Q 791 2297 791 1659 
z
" transform="scale(0.015625)"/>
       <path id="ArialMT-6e" d="M 422 0 
L 422 3319 
L 928 3319 
L 928 2847 
Q 1294 3394 1984 3394 
Q 2284 3394 2536 3286 
Q 2788 3178 2913 3003 
Q 3038 2828 3088 2588 
Q 3119 2431 3119 2041 
L 3119 0 
L 2556 0 
L 2556 2019 
Q 2556 2363 2490 2533 
Q 2425 2703 2258 2804 
Q 2091 2906 1866 2906 
Q 1506 2906 1245 2678 
Q 984 2450 984 1813 
L 984 0 
L 422 0 
z
" transform="scale(0.015625)"/>
       <path id="ArialMT-74" d="M 1650 503 
L 1731 6 
Q 1494 -44 1306 -44 
Q 1000 -44 831 53 
Q 663 150 594 308 
Q 525 466 525 972 
L 525 2881 
L 113 2881 
L 113 3319 
L 525 3319 
L 525 4141 
L 1084 4478 
L 1084 3319 
L 1650 3319 
L 1650 2881 
L 1084 2881 
L 1084 941 
Q 1084 700 1114 631 
Q 1144 563 1211 522 
Q 1278 481 1403 481 
Q 1497 481 1650 503 
z
" transform="scale(0.015625)"/>
       <path id="ArialMT-68" d="M 422 0 
L 422 4581 
L 984 4581 
L 984 2938 
Q 1378 3394 1978 3394 
Q 2347 3394 2619 3248 
Q 2891 3103 3008 2847 
Q 3125 2591 3125 2103 
L 3125 0 
L 2563 0 
L 2563 2103 
Q 2563 2525 2380 2717 
Q 2197 2909 1863 2909 
Q 1613 2909 1392 2779 
Q 1172 2650 1078 2428 
Q 984 2206 984 1816 
L 984 0 
L 422 0 
z
" transform="scale(0.015625)"/>
       <path id="ArialMT-20" transform="scale(0.015625)"/>
       <path id="ArialMT-5b" d="M 434 -1272 
L 434 4581 
L 1675 4581 
L 1675 4116 
L 997 4116 
L 997 -806 
L 1675 -806 
L 1675 -1272 
L 434 -1272 
z
" transform="scale(0.015625)"/>
       <path id="ArialMT-5d" d="M 1363 -1272 
L 122 -1272 
L 122 -806 
L 800 -806 
L 800 4116 
L 122 4116 
L 122 4581 
L 1363 4581 
L 1363 -1272 
z
" transform="scale(0.015625)"/>
      </defs>
      <use xlink:href="#ArialMT-4d"/>
      <use xlink:href="#ArialMT-6f" x="83.300781"/>
      <use xlink:href="#ArialMT-6e" x="138.916016"/>
      <use xlink:href="#ArialMT-74" x="194.53125"/>
      <use xlink:href="#ArialMT-68" x="222.314453"/>
      <use xlink:href="#ArialMT-20" x="277.929688"/>
      <use xlink:href="#ArialMT-5b" x="305.712891"/>
      <use xlink:href="#ArialMT-31" x="333.496094"/>
      <use xlink:href="#ArialMT-4d" x="389.111328"/>
      <use xlink:href="#ArialMT-5d" x="472.412109"/>
     </g>
    </g>
   </g>
   <g id="matplotlib.axis_2">
    <g id="ytick_1">
     <g id="line2d_11">
      <path d="M 53.173438 384.570561 
L 1081.19952 384.570561 
" clip-path="url(#p59cd3f0273)" style="fill: none; stroke: #ffffff; stroke-width: 0.8; stroke-linecap: round"/>
     </g>
     <g id="text_12">
      <!-- 10 -->
      <g style="fill: #555555" transform="translate(29.490625 389.938921) scale(0.15 -0.15)">
       <use xlink:href="#ArialMT-31"/>
       <use xlink:href="#ArialMT-30" x="55.615234"/>
      </g>
     </g>
    </g>
    <g id="ytick_2">
     <g id="line2d_12">
      <path d="M 53.173438 334.797073 
L 1081.19952 334.797073 
" clip-path="url(#p59cd3f0273)" style="fill: none; stroke: #ffffff; stroke-width: 0.8; stroke-linecap: round"/>
     </g>
     <g id="text_13">
      <!-- 12 -->
      <g style="fill: #555555" transform="translate(29.490625 340.165433) scale(0.15 -0.15)">
       <use xlink:href="#ArialMT-31"/>
       <use xlink:href="#ArialMT-32" x="55.615234"/>
      </g>
     </g>
    </g>
    <g id="ytick_3">
     <g id="line2d_13">
      <path d="M 53.173438 285.023586 
L 1081.19952 285.023586 
" clip-path="url(#p59cd3f0273)" style="fill: none; stroke: #ffffff; stroke-width: 0.8; stroke-linecap: round"/>
     </g>
     <g id="text_14">
      <!-- 14 -->
      <g style="fill: #555555" transform="translate(29.490625 290.391945) scale(0.15 -0.15)">
       <use xlink:href="#ArialMT-31"/>
       <use xlink:href="#ArialMT-34" x="55.615234"/>
      </g>
     </g>
    </g>
    <g id="ytick_4">
     <g id="line2d_14">
      <path d="M 53.173438 235.250098 
L 1081.19952 235.250098 
" clip-path="url(#p59cd3f0273)" style="fill: none; stroke: #ffffff; stroke-width: 0.8; stroke-linecap: round"/>
     </g>
     <g id="text_15">
      <!-- 16 -->
      <g style="fill: #555555" transform="translate(29.490625 240.618457) scale(0.15 -0.15)">
       <use xlink:href="#ArialMT-31"/>
       <use xlink:href="#ArialMT-36" x="55.615234"/>
      </g>
     </g>
    </g>
    <g id="ytick_5">
     <g id="line2d_15">
      <path d="M 53.173438 185.47661 
L 1081.19952 185.47661 
" clip-path="url(#p59cd3f0273)" style="fill: none; stroke: #ffffff; stroke-width: 0.8; stroke-linecap: round"/>
     </g>
     <g id="text_16">
      <!-- 18 -->
      <g style="fill: #555555" transform="translate(29.490625 190.844969) scale(0.15 -0.15)">
       <use xlink:href="#ArialMT-31"/>
       <use xlink:href="#ArialMT-38" x="55.615234"/>
      </g>
     </g>
    </g>
    <g id="ytick_6">
     <g id="line2d_16">
      <path d="M 53.173438 135.703122 
L 1081.19952 135.703122 
" clip-path="url(#p59cd3f0273)" style="fill: none; stroke: #ffffff; stroke-width: 0.8; stroke-linecap: round"/>
     </g>
     <g id="text_17">
      <!-- 20 -->
      <g style="fill: #555555" transform="translate(29.490625 141.071481) scale(0.15 -0.15)">
       <use xlink:href="#ArialMT-32"/>
       <use xlink:href="#ArialMT-30" x="55.615234"/>
      </g>
     </g>
    </g>
    <g id="ytick_7">
     <g id="line2d_17">
      <path d="M 53.173438 85.929634 
L 1081.19952 85.929634 
" clip-path="url(#p59cd3f0273)" style="fill: none; stroke: #ffffff; stroke-width: 0.8; stroke-linecap: round"/>
     </g>
     <g id="text_18">
      <!-- 22 -->
      <g style="fill: #555555" transform="translate(29.490625 91.297993) scale(0.15 -0.15)">
       <use xlink:href="#ArialMT-32"/>
       <use xlink:href="#ArialMT-32" x="55.615234"/>
      </g>
     </g>
    </g>
    <g id="ytick_8">
     <g id="line2d_18">
      <path d="M 53.173438 36.156146 
L 1081.19952 36.156146 
" clip-path="url(#p59cd3f0273)" style="fill: none; stroke: #ffffff; stroke-width: 0.8; stroke-linecap: round"/>
     </g>
     <g id="text_19">
      <!-- 24 -->
      <g style="fill: #555555" transform="translate(29.490625 41.524506) scale(0.15 -0.15)">
       <use xlink:href="#ArialMT-32"/>
       <use xlink:href="#ArialMT-34" x="55.615234"/>
      </g>
     </g>
    </g>
    <g id="text_20">
     <!-- $AU -->
     <g style="fill: #555555" transform="translate(21.515625 230.21851) rotate(-90) scale(0.2 -0.2)">
      <defs>
       <path id="ArialMT-24" d="M 1594 -659 
L 1594 -97 
Q 1172 -44 908 92 
Q 644 228 451 531 
Q 259 834 228 1272 
L 794 1378 
Q 859 925 1025 713 
Q 1263 413 1594 378 
L 1594 2169 
Q 1247 2234 884 2438 
Q 616 2588 470 2853 
Q 325 3119 325 3456 
Q 325 4056 750 4428 
Q 1034 4678 1594 4734 
L 1594 5003 
L 1925 5003 
L 1925 4734 
Q 2416 4688 2703 4447 
Q 3072 4141 3147 3606 
L 2566 3519 
Q 2516 3850 2358 4026 
Q 2200 4203 1925 4259 
L 1925 2638 
Q 2350 2531 2488 2472 
Q 2750 2356 2915 2190 
Q 3081 2025 3170 1797 
Q 3259 1569 3259 1303 
Q 3259 719 2887 328 
Q 2516 -63 1925 -91 
L 1925 -659 
L 1594 -659 
z
M 1594 4266 
Q 1266 4216 1077 4003 
Q 888 3791 888 3500 
Q 888 3213 1048 3019 
Q 1209 2825 1594 2709 
L 1594 4266 
z
M 1925 378 
Q 2253 419 2467 662 
Q 2681 906 2681 1266 
Q 2681 1572 2529 1758 
Q 2378 1944 1925 2091 
L 1925 378 
z
" transform="scale(0.015625)"/>
       <path id="ArialMT-41" d="M -9 0 
L 1750 4581 
L 2403 4581 
L 4278 0 
L 3588 0 
L 3053 1388 
L 1138 1388 
L 634 0 
L -9 0 
z
M 1313 1881 
L 2866 1881 
L 2388 3150 
Q 2169 3728 2063 4100 
Q 1975 3659 1816 3225 
L 1313 1881 
z
" transform="scale(0.015625)"/>
       <path id="ArialMT-55" d="M 3500 4581 
L 4106 4581 
L 4106 1934 
Q 4106 1244 3950 837 
Q 3794 431 3386 176 
Q 2978 -78 2316 -78 
Q 1672 -78 1262 144 
Q 853 366 678 786 
Q 503 1206 503 1934 
L 503 4581 
L 1109 4581 
L 1109 1938 
Q 1109 1341 1220 1058 
Q 1331 775 1601 622 
Q 1872 469 2263 469 
Q 2931 469 3215 772 
Q 3500 1075 3500 1938 
L 3500 4581 
z
" transform="scale(0.015625)"/>
      </defs>
      <use xlink:href="#ArialMT-24"/>
      <use xlink:href="#ArialMT-41" x="55.615234"/>
      <use xlink:href="#ArialMT-55" x="122.314453"/>
     </g>
    </g>
   </g>
   <g id="line2d_19">
    <path d="M 99.901896 372.898829 
L 101.995308 373.825536 
L 104.158501 373.171598 
L 106.251914 369.787441 
L 108.415107 373.749327 
L 110.5783 371.035088 
L 112.671713 366.769479 
L 114.834906 364.335257 
L 116.928318 350.724812 
L 119.091511 369.883564 
L 121.254704 368.361242 
L 123.208556 360.785179 
L 125.371749 365.05376 
L 127.465162 366.488 
L 129.628355 365.253631 
L 131.721767 363.634687 
L 133.88496 360.557295 
L 136.048153 361.568409 
L 138.141566 359.300427 
L 140.304759 355.504184 
L 142.398172 340.996792 
L 144.561365 361.97218 
L 146.724558 360.557295 
L 148.74819 356.995388 
L 150.911383 359.827866 
L 153.004795 356.037302 
L 155.167988 358.502857 
L 157.261401 358.93856 
L 159.424594 353.94986 
L 161.587787 359.327776 
L 163.6812 352.237091 
L 165.844393 349.680871 
L 167.937805 338.38286 
L 170.100998 350.73124 
L 172.264191 356.418402 
L 174.218043 350.115445 
L 176.381236 351.394934 
L 178.474649 346.332228 
L 180.637842 352.842666 
L 182.731254 346.288603 
L 184.894447 344.579009 
L 187.05764 348.777646 
L 189.151053 340.361361 
L 191.314246 339.573902 
L 193.407659 328.187016 
L 195.570852 339.158017 
L 197.734045 346.114238 
L 199.687896 339.069051 
L 201.85109 341.008808 
L 203.944502 335.120029 
L 206.107695 341.417935 
L 208.201108 336.582054 
L 210.364301 336.587884 
L 212.527494 337.500249 
L 214.620906 331.177245 
L 216.784099 333.403705 
L 218.877512 317.344622 
L 221.040705 330.280124 
L 223.203898 337.09601 
L 225.15775 332.527322 
L 227.320943 330.677565 
L 229.414355 330.812148 
L 231.577548 334.268016 
L 233.670961 329.021916 
L 235.834154 330.963697 
L 237.997347 330.498308 
L 240.09076 324.358865 
L 242.253953 327.274419 
L 244.347365 307.566303 
L 246.510558 327.30731 
L 248.673751 329.510599 
L 250.697384 320.161892 
L 252.860577 323.174807 
L 254.953989 324.816697 
L 257.117182 323.816611 
L 259.210595 323.447249 
L 261.373788 321.054407 
L 263.536981 318.061015 
L 265.630393 317.262368 
L 267.793586 314.258651 
L 269.886999 293.440444 
L 272.050192 316.969683 
L 274.213385 320.392408 
L 276.167237 306.794013 
L 278.33043 314.511015 
L 280.423842 312.787758 
L 282.587036 311.226279 
L 284.680448 311.582987 
L 286.843641 307.073546 
L 289.006834 306.726611 
L 291.100247 308.707286 
L 293.26344 303.627376 
L 295.356852 283.158615 
L 297.520045 306.010979 
L 299.683238 310.490588 
L 301.63709 298.41526 
L 303.800283 305.599349 
L 305.893696 301.02646 
L 308.056889 302.01047 
L 310.150301 304.798204 
L 312.313494 297.074826 
L 314.476687 304.560521 
L 316.5701 298.287137 
L 318.733293 293.276074 
L 320.826706 279.06521 
L 322.989899 293.351576 
L 325.153092 302.967423 
L 327.106944 291.513546 
L 329.270137 300.108345 
L 331.363549 291.905116 
L 333.526742 299.775736 
L 337.783348 287.577491 
L 339.946541 297.848601 
L 342.039953 287.770882 
L 344.203146 287.1785 
L 346.296559 275.116261 
L 348.459752 287.568901 
L 350.622945 292.881346 
L 352.646577 289.347557 
L 354.80977 286.59668 
L 356.903183 286.998612 
L 359.066376 291.922736 
L 361.159789 284.579745 
L 363.322982 288.154006 
L 365.486175 288.373932 
L 367.579587 280.247446 
L 369.74278 286.874512 
L 371.836193 265.88811 
L 373.999386 283.120932 
L 376.162579 290.768084 
L 378.116431 282.844835 
L 380.279624 281.305008 
L 384.536229 286.29371 
L 386.629642 279.519928 
L 388.792835 285.447345 
L 390.956028 282.431502 
L 393.04944 278.468883 
L 395.212634 279.671761 
L 397.306046 257.995979 
L 399.469239 281.238725 
L 401.632432 285.859379 
L 403.586284 272.577254 
L 405.749477 281.11451 
L 407.84289 280.643289 
L 410.006083 279.774425 
L 412.099495 276.377204 
L 414.262688 275.92642 
L 416.425881 273.967479 
L 418.519294 271.283822 
L 420.682487 271.240736 
L 422.775899 248.519617 
L 424.939092 272.009992 
L 427.102285 276.550576 
L 429.056137 265.015446 
L 431.21933 268.589175 
L 433.312743 266.703806 
L 435.475936 267.484779 
L 437.569348 266.249771 
L 439.732542 261.346381 
L 441.895735 262.859162 
L 443.989147 260.332351 
L 446.15234 256.117287 
L 448.245753 238.487647 
L 450.408946 260.794271 
L 452.572139 261.472595 
L 454.595771 256.713679 
L 456.758964 261.194295 
L 458.852377 255.019801 
L 461.01557 261.825709 
L 463.108982 257.999624 
L 465.272175 252.825992 
L 467.435368 260.052062 
L 469.528781 250.31735 
L 471.691974 250.28235 
L 473.785386 237.259586 
L 478.111773 260.579798 
L 480.065624 249.318854 
L 482.228817 256.301425 
L 484.32223 249.12395 
L 486.485423 258.678834 
L 488.578836 250.180885 
L 490.742029 249.601117 
L 492.905222 252.524765 
L 494.998634 242.399786 
L 497.161827 245.283758 
L 499.25524 227.492258 
L 501.418433 239.24668 
L 503.581626 253.024708 
L 505.535478 245.092884 
L 507.698671 243.985426 
L 509.792083 242.299011 
L 511.955276 248.339379 
L 514.048689 239.99869 
L 516.211882 242.077488 
L 518.375075 241.782513 
L 520.468488 231.484754 
L 522.631681 238.280246 
L 524.725093 216.860848 
L 526.888286 231.316283 
L 529.051479 243.575975 
L 531.005331 230.295762 
L 533.168524 235.405701 
L 535.261937 235.80499 
L 537.42513 239.640548 
L 539.518542 230.65964 
L 541.681735 234.541698 
L 543.844928 232.418673 
L 545.938341 226.447372 
L 548.101534 229.58887 
L 550.194946 205.067923 
L 552.358139 230.412764 
L 554.521333 236.100915 
L 556.544965 227.074903 
L 558.708158 232.725615 
L 560.80157 233.132397 
L 562.964763 232.703218 
L 565.058176 231.236865 
L 567.221369 226.78575 
L 569.384562 228.257558 
L 571.477975 226.106459 
L 573.641168 224.069798 
L 575.73458 202.443712 
L 577.897773 222.987343 
L 580.060966 231.227337 
L 582.014818 216.5916 
L 584.178011 222.655191 
L 586.271424 219.455734 
L 588.434617 223.843049 
L 590.528029 221.57712 
L 592.691222 215.238796 
L 594.854415 219.347838 
L 596.947828 211.794802 
L 599.111021 209.543995 
L 601.204434 192.99912 
L 605.53082 220.769992 
L 607.484671 205.109925 
L 609.647864 215.159492 
L 611.741277 207.070812 
L 613.90447 216.089539 
L 615.997883 208.693613 
L 618.161076 203.789382 
L 620.324269 210.380577 
L 622.417681 199.987765 
L 624.580874 199.520641 
L 626.674287 184.709814 
L 628.83748 196.746865 
L 631.000673 211.861282 
L 632.954525 200.072556 
L 635.117718 203.06972 
L 637.21113 199.089921 
L 639.374323 210.866279 
L 641.467736 199.618899 
L 643.630929 199.89754 
L 645.794122 202.496271 
L 647.887535 191.921143 
L 650.050728 194.175577 
L 652.14414 174.539119 
L 656.470526 199.212507 
L 658.494158 191.434085 
L 660.657351 190.772354 
L 662.750764 193.022958 
L 664.913957 196.65528 
L 667.00737 188.290162 
L 669.170563 192.303644 
L 671.333756 190.900869 
L 673.427168 185.791756 
L 675.590361 187.495582 
L 677.683774 163.038344 
L 679.846967 188.611906 
L 682.01016 198.540495 
L 683.964012 182.819383 
L 686.127205 188.596327 
L 688.220617 189.898336 
L 690.38381 191.950137 
L 692.477223 184.03465 
L 694.640416 182.991506 
L 696.803609 182.943399 
L 698.897022 178.717336 
L 701.060215 179.436584 
L 703.153627 155.484013 
L 705.31682 178.382134 
L 707.480013 188.77815 
L 709.433865 172.949025 
L 711.597058 177.745369 
L 713.690471 177.888919 
L 715.853664 179.424121 
L 717.947076 176.312356 
L 720.110269 172.143592 
L 722.273462 173.876459 
L 724.366875 167.392671 
L 726.530068 166.281164 
L 728.623481 144.787749 
L 730.786674 165.714471 
L 732.949867 176.910611 
L 734.903718 160.500263 
L 737.066911 166.618069 
L 739.160324 164.463679 
L 741.323517 168.559425 
L 745.580123 157.344513 
L 747.743316 160.854277 
L 749.836728 154.113739 
L 751.999921 151.772636 
L 754.093334 132.52141 
L 756.256527 152.740137 
L 758.41972 162.234011 
L 760.443352 150.322028 
L 762.606545 160.045879 
L 764.699958 153.686992 
L 766.863151 162.834103 
L 768.956563 151.980897 
L 771.119756 149.447493 
L 773.282949 155.214272 
L 775.376362 143.22415 
L 777.539555 143.495829 
L 779.632968 119.93023 
L 781.796161 136.008171 
L 783.959354 153.968426 
L 785.913205 139.20353 
L 788.076398 141.776712 
L 790.169811 140.66549 
L 792.333004 148.484334 
L 794.426417 141.460224 
L 796.58961 139.725719 
L 798.752803 143.371718 
L 800.846215 133.436324 
L 803.009408 131.509875 
L 805.102821 111.040323 
L 807.266014 133.773593 
L 809.429207 151.923275 
L 811.383059 135.3301 
L 813.546252 139.134128 
L 815.639664 138.045183 
L 817.802857 145.69531 
L 819.89627 134.784011 
L 822.059463 137.271778 
L 824.222656 138.720226 
L 826.316069 130.788968 
L 828.479262 129.798552 
L 830.572674 106.50856 
L 832.735867 127.467816 
L 834.89906 143.078808 
L 836.852912 129.861352 
L 839.016105 131.361044 
L 841.109518 134.482519 
L 843.272711 138.242055 
L 845.366123 129.252245 
L 847.529316 128.340329 
L 849.692509 130.080261 
L 851.785922 123.434012 
L 853.949115 124.154042 
L 856.042528 98.415631 
L 858.205721 124.85029 
L 860.368914 133.243216 
L 862.392546 120.876972 
L 864.555739 127.560152 
L 866.649151 126.52631 
L 868.812344 130.171529 
L 870.905757 125.536499 
L 873.06895 119.871783 
L 875.232143 123.898633 
L 877.325556 116.118206 
L 879.488749 114.846562 
L 881.582161 92.623612 
L 883.745354 114.481925 
L 885.908547 130.268919 
L 887.862399 110.607661 
L 890.025592 123.264191 
L 892.119005 118.151619 
L 894.282198 125.204102 
L 896.37561 118.55248 
L 898.538803 112.191302 
L 900.701996 118.874395 
L 902.795409 109.366327 
L 904.958602 109.226063 
L 907.052015 82.380788 
L 911.378401 122.220111 
L 913.332252 105.902309 
L 915.495445 111.51708 
L 917.588858 108.473659 
L 919.752051 116.206534 
L 921.845464 108.337598 
L 924.008657 104.839195 
L 926.17185 109.078399 
L 928.265262 97.904575 
L 930.428455 98.864732 
L 932.521868 75.443479 
L 934.685061 98.067648 
L 936.848254 115.389694 
L 938.802106 98.586201 
L 940.965299 105.656879 
L 943.058711 102.55793 
L 945.221904 111.630273 
L 947.315317 102.359295 
L 949.47851 100.241882 
L 951.641703 103.675967 
L 953.735116 91.625917 
L 955.898309 94.982534 
L 957.991721 67.960202 
L 960.154914 92.927685 
L 962.318107 105.308501 
L 964.34174 91.01928 
L 966.504933 102.179013 
L 968.598345 100.592712 
L 970.761538 106.053741 
L 972.854951 98.550282 
L 975.018144 96.519768 
L 977.181337 97.165717 
L 979.274749 88.777604 
L 981.437942 89.591095 
L 983.531355 60.056648 
L 985.694548 89.665802 
L 987.857741 104.982659 
L 989.811593 88.300009 
L 991.974786 92.414651 
L 994.068198 93.901963 
L 996.231392 99.828351 
L 998.324804 92.437471 
L 1000.487997 90.848199 
L 1002.65119 91.82201 
L 1004.744603 84.855374 
L 1006.907796 83.662889 
L 1009.001208 55.066512 
L 1011.164401 84.812696 
L 1013.327594 100.265377 
L 1015.281446 76.819794 
L 1017.444639 91.015788 
L 1019.538052 85.979343 
L 1021.701245 92.516478 
L 1023.794657 86.679663 
L 1025.95785 82.453551 
L 1028.121043 84.802455 
L 1030.214456 77.856515 
L 1032.377649 76.383998 
L 1034.471062 47.705234 
L 1034.471062 47.705234 
" clip-path="url(#p59cd3f0273)" style="fill: none; stroke: #000000; stroke-width: 1.5; stroke-linecap: round"/>
   </g>
   <g id="patch_3">
    <path d="M 53.173438 390.131551 
L 53.173438 31.399219 
" style="fill: none; stroke: #ffffff; stroke-linejoin: miter; stroke-linecap: square"/>
   </g>
   <g id="patch_4">
    <path d="M 1081.19952 390.131551 
L 1081.19952 31.399219 
" style="fill: none; stroke: #ffffff; stroke-linejoin: miter; stroke-linecap: square"/>
   </g>
   <g id="patch_5">
    <path d="M 53.173438 390.131551 
L 1081.19952 390.131551 
" style="fill: none; stroke: #ffffff; stroke-linejoin: miter; stroke-linecap: square"/>
   </g>
   <g id="patch_6">
    <path d="M 53.173438 31.399219 
L 1081.19952 31.399219 
" style="fill: none; stroke: #ffffff; stroke-linejoin: miter; stroke-linecap: square"/>
   </g>
   <g id="text_21">
    <!-- Food retailing turnover (cbrt) -->
    <g style="fill: #262626" transform="translate(409.497026 25.399219) scale(0.25 -0.25)">
     <defs>
      <path id="ArialMT-46" d="M 525 0 
L 525 4581 
L 3616 4581 
L 3616 4041 
L 1131 4041 
L 1131 2622 
L 3281 2622 
L 3281 2081 
L 1131 2081 
L 1131 0 
L 525 0 
z
" transform="scale(0.015625)"/>
      <path id="ArialMT-64" d="M 2575 0 
L 2575 419 
Q 2259 -75 1647 -75 
Q 1250 -75 917 144 
Q 584 363 401 755 
Q 219 1147 219 1656 
Q 219 2153 384 2558 
Q 550 2963 881 3178 
Q 1213 3394 1622 3394 
Q 1922 3394 2156 3267 
Q 2391 3141 2538 2938 
L 2538 4581 
L 3097 4581 
L 3097 0 
L 2575 0 
z
M 797 1656 
Q 797 1019 1065 703 
Q 1334 388 1700 388 
Q 2069 388 2326 689 
Q 2584 991 2584 1609 
Q 2584 2291 2321 2609 
Q 2059 2928 1675 2928 
Q 1300 2928 1048 2622 
Q 797 2316 797 1656 
z
" transform="scale(0.015625)"/>
      <path id="ArialMT-72" d="M 416 0 
L 416 3319 
L 922 3319 
L 922 2816 
Q 1116 3169 1280 3281 
Q 1444 3394 1641 3394 
Q 1925 3394 2219 3213 
L 2025 2691 
Q 1819 2813 1613 2813 
Q 1428 2813 1281 2702 
Q 1134 2591 1072 2394 
Q 978 2094 978 1738 
L 978 0 
L 416 0 
z
" transform="scale(0.015625)"/>
      <path id="ArialMT-65" d="M 2694 1069 
L 3275 997 
Q 3138 488 2766 206 
Q 2394 -75 1816 -75 
Q 1088 -75 661 373 
Q 234 822 234 1631 
Q 234 2469 665 2931 
Q 1097 3394 1784 3394 
Q 2450 3394 2872 2941 
Q 3294 2488 3294 1666 
Q 3294 1616 3291 1516 
L 816 1516 
Q 847 969 1125 678 
Q 1403 388 1819 388 
Q 2128 388 2347 550 
Q 2566 713 2694 1069 
z
M 847 1978 
L 2700 1978 
Q 2663 2397 2488 2606 
Q 2219 2931 1791 2931 
Q 1403 2931 1139 2672 
Q 875 2413 847 1978 
z
" transform="scale(0.015625)"/>
      <path id="ArialMT-61" d="M 2588 409 
Q 2275 144 1986 34 
Q 1697 -75 1366 -75 
Q 819 -75 525 192 
Q 231 459 231 875 
Q 231 1119 342 1320 
Q 453 1522 633 1644 
Q 813 1766 1038 1828 
Q 1203 1872 1538 1913 
Q 2219 1994 2541 2106 
Q 2544 2222 2544 2253 
Q 2544 2597 2384 2738 
Q 2169 2928 1744 2928 
Q 1347 2928 1158 2789 
Q 969 2650 878 2297 
L 328 2372 
Q 403 2725 575 2942 
Q 747 3159 1072 3276 
Q 1397 3394 1825 3394 
Q 2250 3394 2515 3294 
Q 2781 3194 2906 3042 
Q 3031 2891 3081 2659 
Q 3109 2516 3109 2141 
L 3109 1391 
Q 3109 606 3145 398 
Q 3181 191 3288 0 
L 2700 0 
Q 2613 175 2588 409 
z
M 2541 1666 
Q 2234 1541 1622 1453 
Q 1275 1403 1131 1340 
Q 988 1278 909 1158 
Q 831 1038 831 891 
Q 831 666 1001 516 
Q 1172 366 1500 366 
Q 1825 366 2078 508 
Q 2331 650 2450 897 
Q 2541 1088 2541 1459 
L 2541 1666 
z
" transform="scale(0.015625)"/>
      <path id="ArialMT-69" d="M 425 3934 
L 425 4581 
L 988 4581 
L 988 3934 
L 425 3934 
z
M 425 0 
L 425 3319 
L 988 3319 
L 988 0 
L 425 0 
z
" transform="scale(0.015625)"/>
      <path id="ArialMT-6c" d="M 409 0 
L 409 4581 
L 972 4581 
L 972 0 
L 409 0 
z
" transform="scale(0.015625)"/>
      <path id="ArialMT-67" d="M 319 -275 
L 866 -356 
Q 900 -609 1056 -725 
Q 1266 -881 1628 -881 
Q 2019 -881 2231 -725 
Q 2444 -569 2519 -288 
Q 2563 -116 2559 434 
Q 2191 0 1641 0 
Q 956 0 581 494 
Q 206 988 206 1678 
Q 206 2153 378 2554 
Q 550 2956 876 3175 
Q 1203 3394 1644 3394 
Q 2231 3394 2613 2919 
L 2613 3319 
L 3131 3319 
L 3131 450 
Q 3131 -325 2973 -648 
Q 2816 -972 2473 -1159 
Q 2131 -1347 1631 -1347 
Q 1038 -1347 672 -1080 
Q 306 -813 319 -275 
z
M 784 1719 
Q 784 1066 1043 766 
Q 1303 466 1694 466 
Q 2081 466 2343 764 
Q 2606 1063 2606 1700 
Q 2606 2309 2336 2618 
Q 2066 2928 1684 2928 
Q 1309 2928 1046 2623 
Q 784 2319 784 1719 
z
" transform="scale(0.015625)"/>
      <path id="ArialMT-75" d="M 2597 0 
L 2597 488 
Q 2209 -75 1544 -75 
Q 1250 -75 995 37 
Q 741 150 617 320 
Q 494 491 444 738 
Q 409 903 409 1263 
L 409 3319 
L 972 3319 
L 972 1478 
Q 972 1038 1006 884 
Q 1059 663 1231 536 
Q 1403 409 1656 409 
Q 1909 409 2131 539 
Q 2353 669 2445 892 
Q 2538 1116 2538 1541 
L 2538 3319 
L 3100 3319 
L 3100 0 
L 2597 0 
z
" transform="scale(0.015625)"/>
      <path id="ArialMT-76" d="M 1344 0 
L 81 3319 
L 675 3319 
L 1388 1331 
Q 1503 1009 1600 663 
Q 1675 925 1809 1294 
L 2547 3319 
L 3125 3319 
L 1869 0 
L 1344 0 
z
" transform="scale(0.015625)"/>
      <path id="ArialMT-28" d="M 1497 -1347 
Q 1031 -759 709 28 
Q 388 816 388 1659 
Q 388 2403 628 3084 
Q 909 3875 1497 4659 
L 1900 4659 
Q 1522 4009 1400 3731 
Q 1209 3300 1100 2831 
Q 966 2247 966 1656 
Q 966 153 1900 -1347 
L 1497 -1347 
z
" transform="scale(0.015625)"/>
      <path id="ArialMT-63" d="M 2588 1216 
L 3141 1144 
Q 3050 572 2676 248 
Q 2303 -75 1759 -75 
Q 1078 -75 664 370 
Q 250 816 250 1647 
Q 250 2184 428 2587 
Q 606 2991 970 3192 
Q 1334 3394 1763 3394 
Q 2303 3394 2647 3120 
Q 2991 2847 3088 2344 
L 2541 2259 
Q 2463 2594 2264 2762 
Q 2066 2931 1784 2931 
Q 1359 2931 1093 2626 
Q 828 2322 828 1663 
Q 828 994 1084 691 
Q 1341 388 1753 388 
Q 2084 388 2306 591 
Q 2528 794 2588 1216 
z
" transform="scale(0.015625)"/>
      <path id="ArialMT-62" d="M 941 0 
L 419 0 
L 419 4581 
L 981 4581 
L 981 2947 
Q 1338 3394 1891 3394 
Q 2197 3394 2470 3270 
Q 2744 3147 2920 2923 
Q 3097 2700 3197 2384 
Q 3297 2069 3297 1709 
Q 3297 856 2875 390 
Q 2453 -75 1863 -75 
Q 1275 -75 941 416 
L 941 0 
z
M 934 1684 
Q 934 1088 1097 822 
Q 1363 388 1816 388 
Q 2184 388 2453 708 
Q 2722 1028 2722 1663 
Q 2722 2313 2464 2622 
Q 2206 2931 1841 2931 
Q 1472 2931 1203 2611 
Q 934 2291 934 1684 
z
" transform="scale(0.015625)"/>
      <path id="ArialMT-29" d="M 791 -1347 
L 388 -1347 
Q 1322 153 1322 1656 
Q 1322 2244 1188 2822 
Q 1081 3291 891 3722 
Q 769 4003 388 4659 
L 791 4659 
Q 1378 3875 1659 3084 
Q 1900 2403 1900 1659 
Q 1900 816 1576 28 
Q 1253 -759 791 -1347 
z
" transform="scale(0.015625)"/>
     </defs>
     <use xlink:href="#ArialMT-46"/>
     <use xlink:href="#ArialMT-6f" x="61.083984"/>
     <use xlink:href="#ArialMT-6f" x="116.699219"/>
     <use xlink:href="#ArialMT-64" x="172.314453"/>
     <use xlink:href="#ArialMT-20" x="227.929688"/>
     <use xlink:href="#ArialMT-72" x="255.712891"/>
     <use xlink:href="#ArialMT-65" x="289.013672"/>
     <use xlink:href="#ArialMT-74" x="344.628906"/>
     <use xlink:href="#ArialMT-61" x="372.412109"/>
     <use xlink:href="#ArialMT-69" x="428.027344"/>
     <use xlink:href="#ArialMT-6c" x="450.244141"/>
     <use xlink:href="#ArialMT-69" x="472.460938"/>
     <use xlink:href="#ArialMT-6e" x="494.677734"/>
     <use xlink:href="#ArialMT-67" x="550.292969"/>
     <use xlink:href="#ArialMT-20" x="605.908203"/>
     <use xlink:href="#ArialMT-74" x="633.691406"/>
     <use xlink:href="#ArialMT-75" x="661.474609"/>
     <use xlink:href="#ArialMT-72" x="717.089844"/>
     <use xlink:href="#ArialMT-6e" x="750.390625"/>
     <use xlink:href="#ArialMT-6f" x="806.005859"/>
     <use xlink:href="#ArialMT-76" x="861.621094"/>
     <use xlink:href="#ArialMT-65" x="911.621094"/>
     <use xlink:href="#ArialMT-72" x="967.236328"/>
     <use xlink:href="#ArialMT-20" x="1000.537109"/>
     <use xlink:href="#ArialMT-28" x="1028.320312"/>
     <use xlink:href="#ArialMT-63" x="1061.621094"/>
     <use xlink:href="#ArialMT-62" x="1111.621094"/>
     <use xlink:href="#ArialMT-72" x="1167.236328"/>
     <use xlink:href="#ArialMT-74" x="1200.537109"/>
     <use xlink:href="#ArialMT-29" x="1228.320312"/>
    </g>
   </g>
  </g>
 </g>
 <defs>
  <clipPath id="p59cd3f0273">
   <rect x="53.173438" y="31.399219" width="1028.026082" height="358.732333"/>
  </clipPath>
 </defs>
</svg>
