<?xml version="1.0" encoding="utf-8" standalone="no"?>
<!DOCTYPE svg PUBLIC "-//W3C//DTD SVG 1.1//EN"
  "http://www.w3.org/Graphics/SVG/1.1/DTD/svg11.dtd">
<svg xmlns:xlink="http://www.w3.org/1999/xlink" width="1088.39952pt" height="440.39952pt" viewBox="0 0 1088.39952 440.39952" xmlns="http://www.w3.org/2000/svg" version="1.1">
 <metadata>
  <rdf:RDF xmlns:dc="http://purl.org/dc/elements/1.1/" xmlns:cc="http://creativecommons.org/ns#" xmlns:rdf="http://www.w3.org/1999/02/22-rdf-syntax-ns#">
   <cc:Work>
    <dc:type rdf:resource="http://purl.org/dc/dcmitype/StillImage"/>
    <dc:date>2025-10-26T01:14:57.324113</dc:date>
    <dc:format>image/svg+xml</dc:format>
    <dc:creator>
     <cc:Agent>
      <dc:title>Matplotlib v3.7.2, https://matplotlib.org/</dc:title>
     </cc:Agent>
    </dc:creator>
   </cc:Work>
  </rdf:RDF>
 </metadata>
 <defs>
  <style type="text/css">*{stroke-linejoin: round; stroke-linecap: butt}</style>
 </defs>
 <g id="figure_1">
  <g id="patch_1">
   <path d="M 0 440.39952 
L 1088.39952 440.39952 
L 1088.39952 0 
L 0 0 
z
" style="fill: #ffffff"/>
  </g>
  <g id="axes_1">
   <g id="patch_2">
    <path d="M 78.197656 390.131551 
L 1081.19952 390.131551 
L 1081.19952 31.094531 
L 78.197656 31.094531 
z
" style="fill: #e5e5e5"/>
   </g>
   <g id="matplotlib.axis_1">
    <g id="xtick_1">
     <g id="line2d_1">
      <path d="M 167.361018 390.131551 
L 167.361018 31.094531 
" clip-path="url(#p5000be17f9)" style="fill: none; stroke: #ffffff; stroke-width: 0.8; stroke-linecap: round"/>
     </g>
     <g id="text_1">
      <!-- 1984 -->
      <g style="fill: #555555" transform="translate(150.678205 407.86827) scale(0.15 -0.15)">
       <defs>
        <path id="ArialMT-31" d="M 2384 0 
L 1822 0 
L 1822 3584 
Q 1619 3391 1289 3197 
Q 959 3003 697 2906 
L 697 3450 
Q 1169 3672 1522 3987 
Q 1875 4303 2022 4600 
L 2384 4600 
L 2384 0 
z
" transform="scale(0.015625)"/>
        <path id="ArialMT-39" d="M 350 1059 
L 891 1109 
Q 959 728 1153 556 
Q 1347 384 1650 384 
Q 1909 384 2104 503 
Q 2300 622 2425 820 
Q 2550 1019 2634 1356 
Q 2719 1694 2719 2044 
Q 2719 2081 2716 2156 
Q 2547 1888 2255 1720 
Q 1963 1553 1622 1553 
Q 1053 1553 659 1965 
Q 266 2378 266 3053 
Q 266 3750 677 4175 
Q 1088 4600 1706 4600 
Q 2153 4600 2523 4359 
Q 2894 4119 3086 3673 
Q 3278 3228 3278 2384 
Q 3278 1506 3087 986 
Q 2897 466 2520 194 
Q 2144 -78 1638 -78 
Q 1100 -78 759 220 
Q 419 519 350 1059 
z
M 2653 3081 
Q 2653 3566 2395 3850 
Q 2138 4134 1775 4134 
Q 1400 4134 1122 3828 
Q 844 3522 844 3034 
Q 844 2597 1108 2323 
Q 1372 2050 1759 2050 
Q 2150 2050 2401 2323 
Q 2653 2597 2653 3081 
z
" transform="scale(0.015625)"/>
        <path id="ArialMT-38" d="M 1131 2484 
Q 781 2613 612 2850 
Q 444 3088 444 3419 
Q 444 3919 803 4259 
Q 1163 4600 1759 4600 
Q 2359 4600 2725 4251 
Q 3091 3903 3091 3403 
Q 3091 3084 2923 2848 
Q 2756 2613 2416 2484 
Q 2838 2347 3058 2040 
Q 3278 1734 3278 1309 
Q 3278 722 2862 322 
Q 2447 -78 1769 -78 
Q 1091 -78 675 323 
Q 259 725 259 1325 
Q 259 1772 486 2073 
Q 713 2375 1131 2484 
z
M 1019 3438 
Q 1019 3113 1228 2906 
Q 1438 2700 1772 2700 
Q 2097 2700 2305 2904 
Q 2513 3109 2513 3406 
Q 2513 3716 2298 3927 
Q 2084 4138 1766 4138 
Q 1444 4138 1231 3931 
Q 1019 3725 1019 3438 
z
M 838 1322 
Q 838 1081 952 856 
Q 1066 631 1291 507 
Q 1516 384 1775 384 
Q 2178 384 2440 643 
Q 2703 903 2703 1303 
Q 2703 1709 2433 1975 
Q 2163 2241 1756 2241 
Q 1359 2241 1098 1978 
Q 838 1716 838 1322 
z
" transform="scale(0.015625)"/>
        <path id="ArialMT-34" d="M 2069 0 
L 2069 1097 
L 81 1097 
L 81 1613 
L 2172 4581 
L 2631 4581 
L 2631 1613 
L 3250 1613 
L 3250 1097 
L 2631 1097 
L 2631 0 
L 2069 0 
z
M 2069 1613 
L 2069 3678 
L 634 1613 
L 2069 1613 
z
" transform="scale(0.015625)"/>
       </defs>
       <use xlink:href="#ArialMT-31"/>
       <use xlink:href="#ArialMT-39" x="55.615234"/>
       <use xlink:href="#ArialMT-38" x="111.230469"/>
       <use xlink:href="#ArialMT-34" x="166.845703"/>
      </g>
     </g>
    </g>
    <g id="xtick_2">
     <g id="line2d_2">
      <path d="M 266.828563 390.131551 
L 266.828563 31.094531 
" clip-path="url(#p5000be17f9)" style="fill: none; stroke: #ffffff; stroke-width: 0.8; stroke-linecap: round"/>
     </g>
     <g id="text_2">
      <!-- 1988 -->
      <g style="fill: #555555" transform="translate(250.145751 407.86827) scale(0.15 -0.15)">
       <use xlink:href="#ArialMT-31"/>
       <use xlink:href="#ArialMT-39" x="55.615234"/>
       <use xlink:href="#ArialMT-38" x="111.230469"/>
       <use xlink:href="#ArialMT-38" x="166.845703"/>
      </g>
     </g>
    </g>
    <g id="xtick_3">
     <g id="line2d_3">
      <path d="M 366.296109 390.131551 
L 366.296109 31.094531 
" clip-path="url(#p5000be17f9)" style="fill: none; stroke: #ffffff; stroke-width: 0.8; stroke-linecap: round"/>
     </g>
     <g id="text_3">
      <!-- 1992 -->
      <g style="fill: #555555" transform="translate(349.613297 407.86827) scale(0.15 -0.15)">
       <defs>
        <path id="ArialMT-32" d="M 3222 541 
L 3222 0 
L 194 0 
Q 188 203 259 391 
Q 375 700 629 1000 
Q 884 1300 1366 1694 
Q 2113 2306 2375 2664 
Q 2638 3022 2638 3341 
Q 2638 3675 2398 3904 
Q 2159 4134 1775 4134 
Q 1369 4134 1125 3890 
Q 881 3647 878 3216 
L 300 3275 
Q 359 3922 746 4261 
Q 1134 4600 1788 4600 
Q 2447 4600 2831 4234 
Q 3216 3869 3216 3328 
Q 3216 3053 3103 2787 
Q 2991 2522 2730 2228 
Q 2469 1934 1863 1422 
Q 1356 997 1212 845 
Q 1069 694 975 541 
L 3222 541 
z
" transform="scale(0.015625)"/>
       </defs>
       <use xlink:href="#ArialMT-31"/>
       <use xlink:href="#ArialMT-39" x="55.615234"/>
       <use xlink:href="#ArialMT-39" x="111.230469"/>
       <use xlink:href="#ArialMT-32" x="166.845703"/>
      </g>
     </g>
    </g>
    <g id="xtick_4">
     <g id="line2d_4">
      <path d="M 465.763655 390.131551 
L 465.763655 31.094531 
" clip-path="url(#p5000be17f9)" style="fill: none; stroke: #ffffff; stroke-width: 0.8; stroke-linecap: round"/>
     </g>
     <g id="text_4">
      <!-- 1996 -->
      <g style="fill: #555555" transform="translate(449.080842 407.86827) scale(0.15 -0.15)">
       <defs>
        <path id="ArialMT-36" d="M 3184 3459 
L 2625 3416 
Q 2550 3747 2413 3897 
Q 2184 4138 1850 4138 
Q 1581 4138 1378 3988 
Q 1113 3794 959 3422 
Q 806 3050 800 2363 
Q 1003 2672 1297 2822 
Q 1591 2972 1913 2972 
Q 2475 2972 2870 2558 
Q 3266 2144 3266 1488 
Q 3266 1056 3080 686 
Q 2894 316 2569 119 
Q 2244 -78 1831 -78 
Q 1128 -78 684 439 
Q 241 956 241 2144 
Q 241 3472 731 4075 
Q 1159 4600 1884 4600 
Q 2425 4600 2770 4297 
Q 3116 3994 3184 3459 
z
M 888 1484 
Q 888 1194 1011 928 
Q 1134 663 1356 523 
Q 1578 384 1822 384 
Q 2178 384 2434 671 
Q 2691 959 2691 1453 
Q 2691 1928 2437 2201 
Q 2184 2475 1800 2475 
Q 1419 2475 1153 2201 
Q 888 1928 888 1484 
z
" transform="scale(0.015625)"/>
       </defs>
       <use xlink:href="#ArialMT-31"/>
       <use xlink:href="#ArialMT-39" x="55.615234"/>
       <use xlink:href="#ArialMT-39" x="111.230469"/>
       <use xlink:href="#ArialMT-36" x="166.845703"/>
      </g>
     </g>
    </g>
    <g id="xtick_5">
     <g id="line2d_5">
      <path d="M 565.2312 390.131551 
L 565.2312 31.094531 
" clip-path="url(#p5000be17f9)" style="fill: none; stroke: #ffffff; stroke-width: 0.8; stroke-linecap: round"/>
     </g>
     <g id="text_5">
      <!-- 2000 -->
      <g style="fill: #555555" transform="translate(548.548388 407.86827) scale(0.15 -0.15)">
       <defs>
        <path id="ArialMT-30" d="M 266 2259 
Q 266 3072 433 3567 
Q 600 4063 929 4331 
Q 1259 4600 1759 4600 
Q 2128 4600 2406 4451 
Q 2684 4303 2865 4023 
Q 3047 3744 3150 3342 
Q 3253 2941 3253 2259 
Q 3253 1453 3087 958 
Q 2922 463 2592 192 
Q 2263 -78 1759 -78 
Q 1097 -78 719 397 
Q 266 969 266 2259 
z
M 844 2259 
Q 844 1131 1108 757 
Q 1372 384 1759 384 
Q 2147 384 2411 759 
Q 2675 1134 2675 2259 
Q 2675 3391 2411 3762 
Q 2147 4134 1753 4134 
Q 1366 4134 1134 3806 
Q 844 3388 844 2259 
z
" transform="scale(0.015625)"/>
       </defs>
       <use xlink:href="#ArialMT-32"/>
       <use xlink:href="#ArialMT-30" x="55.615234"/>
       <use xlink:href="#ArialMT-30" x="111.230469"/>
       <use xlink:href="#ArialMT-30" x="166.845703"/>
      </g>
     </g>
    </g>
    <g id="xtick_6">
     <g id="line2d_6">
      <path d="M 664.698746 390.131551 
L 664.698746 31.094531 
" clip-path="url(#p5000be17f9)" style="fill: none; stroke: #ffffff; stroke-width: 0.8; stroke-linecap: round"/>
     </g>
     <g id="text_6">
      <!-- 2004 -->
      <g style="fill: #555555" transform="translate(648.015934 407.86827) scale(0.15 -0.15)">
       <use xlink:href="#ArialMT-32"/>
       <use xlink:href="#ArialMT-30" x="55.615234"/>
       <use xlink:href="#ArialMT-30" x="111.230469"/>
       <use xlink:href="#ArialMT-34" x="166.845703"/>
      </g>
     </g>
    </g>
    <g id="xtick_7">
     <g id="line2d_7">
      <path d="M 764.166292 390.131551 
L 764.166292 31.094531 
" clip-path="url(#p5000be17f9)" style="fill: none; stroke: #ffffff; stroke-width: 0.8; stroke-linecap: round"/>
     </g>
     <g id="text_7">
      <!-- 2008 -->
      <g style="fill: #555555" transform="translate(747.483479 407.86827) scale(0.15 -0.15)">
       <use xlink:href="#ArialMT-32"/>
       <use xlink:href="#ArialMT-30" x="55.615234"/>
       <use xlink:href="#ArialMT-30" x="111.230469"/>
       <use xlink:href="#ArialMT-38" x="166.845703"/>
      </g>
     </g>
    </g>
    <g id="xtick_8">
     <g id="line2d_8">
      <path d="M 863.633837 390.131551 
L 863.633837 31.094531 
" clip-path="url(#p5000be17f9)" style="fill: none; stroke: #ffffff; stroke-width: 0.8; stroke-linecap: round"/>
     </g>
     <g id="text_8">
      <!-- 2012 -->
      <g style="fill: #555555" transform="translate(846.951025 407.86827) scale(0.15 -0.15)">
       <use xlink:href="#ArialMT-32"/>
       <use xlink:href="#ArialMT-30" x="55.615234"/>
       <use xlink:href="#ArialMT-31" x="111.230469"/>
       <use xlink:href="#ArialMT-32" x="166.845703"/>
      </g>
     </g>
    </g>
    <g id="xtick_9">
     <g id="line2d_9">
      <path d="M 963.101383 390.131551 
L 963.101383 31.094531 
" clip-path="url(#p5000be17f9)" style="fill: none; stroke: #ffffff; stroke-width: 0.8; stroke-linecap: round"/>
     </g>
     <g id="text_9">
      <!-- 2016 -->
      <g style="fill: #555555" transform="translate(946.418571 407.86827) scale(0.15 -0.15)">
       <use xlink:href="#ArialMT-32"/>
       <use xlink:href="#ArialMT-30" x="55.615234"/>
       <use xlink:href="#ArialMT-31" x="111.230469"/>
       <use xlink:href="#ArialMT-36" x="166.845703"/>
      </g>
     </g>
    </g>
    <g id="xtick_10">
     <g id="line2d_10">
      <path d="M 1062.568929 390.131551 
L 1062.568929 31.094531 
" clip-path="url(#p5000be17f9)" style="fill: none; stroke: #ffffff; stroke-width: 0.8; stroke-linecap: round"/>
     </g>
     <g id="text_10">
      <!-- 2020 -->
      <g style="fill: #555555" transform="translate(1045.886116 407.86827) scale(0.15 -0.15)">
       <use xlink:href="#ArialMT-32"/>
       <use xlink:href="#ArialMT-30" x="55.615234"/>
       <use xlink:href="#ArialMT-32" x="111.230469"/>
       <use xlink:href="#ArialMT-30" x="166.845703"/>
      </g>
     </g>
    </g>
    <g id="text_11">
     <!-- Month [1M] -->
     <g style="fill: #555555" transform="translate(529.682963 429.22452) scale(0.2 -0.2)">
      <defs>
       <path id="ArialMT-4d" d="M 475 0 
L 475 4581 
L 1388 4581 
L 2472 1338 
Q 2622 884 2691 659 
Q 2769 909 2934 1394 
L 4031 4581 
L 4847 4581 
L 4847 0 
L 4263 0 
L 4263 3834 
L 2931 0 
L 2384 0 
L 1059 3900 
L 1059 0 
L 475 0 
z
" transform="scale(0.015625)"/>
       <path id="ArialMT-6f" d="M 213 1659 
Q 213 2581 725 3025 
Q 1153 3394 1769 3394 
Q 2453 3394 2887 2945 
Q 3322 2497 3322 1706 
Q 3322 1066 3130 698 
Q 2938 331 2570 128 
Q 2203 -75 1769 -75 
Q 1072 -75 642 372 
Q 213 819 213 1659 
z
M 791 1659 
Q 791 1022 1069 705 
Q 1347 388 1769 388 
Q 2188 388 2466 706 
Q 2744 1025 2744 1678 
Q 2744 2294 2464 2611 
Q 2184 2928 1769 2928 
Q 1347 2928 1069 2612 
Q 791 2297 791 1659 
z
" transform="scale(0.015625)"/>
       <path id="ArialMT-6e" d="M 422 0 
L 422 3319 
L 928 3319 
L 928 2847 
Q 1294 3394 1984 3394 
Q 2284 3394 2536 3286 
Q 2788 3178 2913 3003 
Q 3038 2828 3088 2588 
Q 3119 2431 3119 2041 
L 3119 0 
L 2556 0 
L 2556 2019 
Q 2556 2363 2490 2533 
Q 2425 2703 2258 2804 
Q 2091 2906 1866 2906 
Q 1506 2906 1245 2678 
Q 984 2450 984 1813 
L 984 0 
L 422 0 
z
" transform="scale(0.015625)"/>
       <path id="ArialMT-74" d="M 1650 503 
L 1731 6 
Q 1494 -44 1306 -44 
Q 1000 -44 831 53 
Q 663 150 594 308 
Q 525 466 525 972 
L 525 2881 
L 113 2881 
L 113 3319 
L 525 3319 
L 525 4141 
L 1084 4478 
L 1084 3319 
L 1650 3319 
L 1650 2881 
L 1084 2881 
L 1084 941 
Q 1084 700 1114 631 
Q 1144 563 1211 522 
Q 1278 481 1403 481 
Q 1497 481 1650 503 
z
" transform="scale(0.015625)"/>
       <path id="ArialMT-68" d="M 422 0 
L 422 4581 
L 984 4581 
L 984 2938 
Q 1378 3394 1978 3394 
Q 2347 3394 2619 3248 
Q 2891 3103 3008 2847 
Q 3125 2591 3125 2103 
L 3125 0 
L 2563 0 
L 2563 2103 
Q 2563 2525 2380 2717 
Q 2197 2909 1863 2909 
Q 1613 2909 1392 2779 
Q 1172 2650 1078 2428 
Q 984 2206 984 1816 
L 984 0 
L 422 0 
z
" transform="scale(0.015625)"/>
       <path id="ArialMT-20" transform="scale(0.015625)"/>
       <path id="ArialMT-5b" d="M 434 -1272 
L 434 4581 
L 1675 4581 
L 1675 4116 
L 997 4116 
L 997 -806 
L 1675 -806 
L 1675 -1272 
L 434 -1272 
z
" transform="scale(0.015625)"/>
       <path id="ArialMT-5d" d="M 1363 -1272 
L 122 -1272 
L 122 -806 
L 800 -806 
L 800 4116 
L 122 4116 
L 122 4581 
L 1363 4581 
L 1363 -1272 
z
" transform="scale(0.015625)"/>
      </defs>
      <use xlink:href="#ArialMT-4d"/>
      <use xlink:href="#ArialMT-6f" x="83.300781"/>
      <use xlink:href="#ArialMT-6e" x="138.916016"/>
      <use xlink:href="#ArialMT-74" x="194.53125"/>
      <use xlink:href="#ArialMT-68" x="222.314453"/>
      <use xlink:href="#ArialMT-20" x="277.929688"/>
      <use xlink:href="#ArialMT-5b" x="305.712891"/>
      <use xlink:href="#ArialMT-31" x="333.496094"/>
      <use xlink:href="#ArialMT-4d" x="389.111328"/>
      <use xlink:href="#ArialMT-5d" x="472.412109"/>
     </g>
    </g>
   </g>
   <g id="matplotlib.axis_2">
    <g id="ytick_1">
     <g id="line2d_11">
      <path d="M 78.197656 350.096239 
L 1081.19952 350.096239 
" clip-path="url(#p5000be17f9)" style="fill: none; stroke: #ffffff; stroke-width: 0.8; stroke-linecap: round"/>
     </g>
     <g id="text_12">
      <!-- 2000 -->
      <g style="fill: #555555" transform="translate(37.832031 355.464598) scale(0.15 -0.15)">
       <use xlink:href="#ArialMT-32"/>
       <use xlink:href="#ArialMT-30" x="55.615234"/>
       <use xlink:href="#ArialMT-30" x="111.230469"/>
       <use xlink:href="#ArialMT-30" x="166.845703"/>
      </g>
     </g>
    </g>
    <g id="ytick_2">
     <g id="line2d_12">
      <path d="M 78.197656 295.250152 
L 1081.19952 295.250152 
" clip-path="url(#p5000be17f9)" style="fill: none; stroke: #ffffff; stroke-width: 0.8; stroke-linecap: round"/>
     </g>
     <g id="text_13">
      <!-- 4000 -->
      <g style="fill: #555555" transform="translate(37.832031 300.618511) scale(0.15 -0.15)">
       <use xlink:href="#ArialMT-34"/>
       <use xlink:href="#ArialMT-30" x="55.615234"/>
       <use xlink:href="#ArialMT-30" x="111.230469"/>
       <use xlink:href="#ArialMT-30" x="166.845703"/>
      </g>
     </g>
    </g>
    <g id="ytick_3">
     <g id="line2d_13">
      <path d="M 78.197656 240.404065 
L 1081.19952 240.404065 
" clip-path="url(#p5000be17f9)" style="fill: none; stroke: #ffffff; stroke-width: 0.8; stroke-linecap: round"/>
     </g>
     <g id="text_14">
      <!-- 6000 -->
      <g style="fill: #555555" transform="translate(37.832031 245.772424) scale(0.15 -0.15)">
       <use xlink:href="#ArialMT-36"/>
       <use xlink:href="#ArialMT-30" x="55.615234"/>
       <use xlink:href="#ArialMT-30" x="111.230469"/>
       <use xlink:href="#ArialMT-30" x="166.845703"/>
      </g>
     </g>
    </g>
    <g id="ytick_4">
     <g id="line2d_14">
      <path d="M 78.197656 185.557978 
L 1081.19952 185.557978 
" clip-path="url(#p5000be17f9)" style="fill: none; stroke: #ffffff; stroke-width: 0.8; stroke-linecap: round"/>
     </g>
     <g id="text_15">
      <!-- 8000 -->
      <g style="fill: #555555" transform="translate(37.832031 190.926337) scale(0.15 -0.15)">
       <use xlink:href="#ArialMT-38"/>
       <use xlink:href="#ArialMT-30" x="55.615234"/>
       <use xlink:href="#ArialMT-30" x="111.230469"/>
       <use xlink:href="#ArialMT-30" x="166.845703"/>
      </g>
     </g>
    </g>
    <g id="ytick_5">
     <g id="line2d_15">
      <path d="M 78.197656 130.71189 
L 1081.19952 130.71189 
" clip-path="url(#p5000be17f9)" style="fill: none; stroke: #ffffff; stroke-width: 0.8; stroke-linecap: round"/>
     </g>
     <g id="text_16">
      <!-- 10000 -->
      <g style="fill: #555555" transform="translate(29.490625 136.08025) scale(0.15 -0.15)">
       <use xlink:href="#ArialMT-31"/>
       <use xlink:href="#ArialMT-30" x="55.615234"/>
       <use xlink:href="#ArialMT-30" x="111.230469"/>
       <use xlink:href="#ArialMT-30" x="166.845703"/>
       <use xlink:href="#ArialMT-30" x="222.460938"/>
      </g>
     </g>
    </g>
    <g id="ytick_6">
     <g id="line2d_16">
      <path d="M 78.197656 75.865803 
L 1081.19952 75.865803 
" clip-path="url(#p5000be17f9)" style="fill: none; stroke: #ffffff; stroke-width: 0.8; stroke-linecap: round"/>
     </g>
     <g id="text_17">
      <!-- 12000 -->
      <g style="fill: #555555" transform="translate(29.490625 81.234163) scale(0.15 -0.15)">
       <use xlink:href="#ArialMT-31"/>
       <use xlink:href="#ArialMT-32" x="55.615234"/>
       <use xlink:href="#ArialMT-30" x="111.230469"/>
       <use xlink:href="#ArialMT-30" x="166.845703"/>
       <use xlink:href="#ArialMT-30" x="222.460938"/>
      </g>
     </g>
    </g>
    <g id="text_18">
     <!-- $AU -->
     <g style="fill: #555555" transform="translate(21.515625 230.066166) rotate(-90) scale(0.2 -0.2)">
      <defs>
       <path id="ArialMT-24" d="M 1594 -659 
L 1594 -97 
Q 1172 -44 908 92 
Q 644 228 451 531 
Q 259 834 228 1272 
L 794 1378 
Q 859 925 1025 713 
Q 1263 413 1594 378 
L 1594 2169 
Q 1247 2234 884 2438 
Q 616 2588 470 2853 
Q 325 3119 325 3456 
Q 325 4056 750 4428 
Q 1034 4678 1594 4734 
L 1594 5003 
L 1925 5003 
L 1925 4734 
Q 2416 4688 2703 4447 
Q 3072 4141 3147 3606 
L 2566 3519 
Q 2516 3850 2358 4026 
Q 2200 4203 1925 4259 
L 1925 2638 
Q 2350 2531 2488 2472 
Q 2750 2356 2915 2190 
Q 3081 2025 3170 1797 
Q 3259 1569 3259 1303 
Q 3259 719 2887 328 
Q 2516 -63 1925 -91 
L 1925 -659 
L 1594 -659 
z
M 1594 4266 
Q 1266 4216 1077 4003 
Q 888 3791 888 3500 
Q 888 3213 1048 3019 
Q 1209 2825 1594 2709 
L 1594 4266 
z
M 1925 378 
Q 2253 419 2467 662 
Q 2681 906 2681 1266 
Q 2681 1572 2529 1758 
Q 2378 1944 1925 2091 
L 1925 378 
z
" transform="scale(0.015625)"/>
       <path id="ArialMT-41" d="M -9 0 
L 1750 4581 
L 2403 4581 
L 4278 0 
L 3588 0 
L 3053 1388 
L 1138 1388 
L 634 0 
L -9 0 
z
M 1313 1881 
L 2866 1881 
L 2388 3150 
Q 2169 3728 2063 4100 
Q 1975 3659 1816 3225 
L 1313 1881 
z
" transform="scale(0.015625)"/>
       <path id="ArialMT-55" d="M 3500 4581 
L 4106 4581 
L 4106 1934 
Q 4106 1244 3950 837 
Q 3794 431 3386 176 
Q 2978 -78 2316 -78 
Q 1672 -78 1262 144 
Q 853 366 678 786 
Q 503 1206 503 1934 
L 503 4581 
L 1109 4581 
L 1109 1938 
Q 1109 1341 1220 1058 
Q 1331 775 1601 622 
Q 1872 469 2263 469 
Q 2931 469 3215 772 
Q 3500 1075 3500 1938 
L 3500 4581 
z
" transform="scale(0.015625)"/>
      </defs>
      <use xlink:href="#ArialMT-24"/>
      <use xlink:href="#ArialMT-41" x="55.615234"/>
      <use xlink:href="#ArialMT-55" x="122.314453"/>
     </g>
    </g>
   </g>
   <g id="line2d_17">
    <path d="M 123.78865 373.477126 
L 125.831105 373.811687 
L 127.941641 373.575849 
L 129.984096 372.336327 
L 132.094633 373.784264 
L 134.205169 372.797034 
L 136.247624 371.203755 
L 138.358161 370.271372 
L 140.400615 364.740144 
L 142.511152 372.371977 
L 144.621688 371.80432 
L 146.527979 368.881023 
L 148.638516 370.548345 
L 150.680971 371.096805 
L 152.791507 370.625129 
L 154.833962 369.999884 
L 156.944499 368.790527 
L 159.055035 369.190904 
L 161.09749 368.288686 
L 163.208026 366.744768 
L 165.250481 360.445695 
L 167.361018 369.349958 
L 169.471554 368.790527 
L 171.445927 367.356302 
L 173.556464 368.499843 
L 175.598919 366.964153 
L 177.709455 367.967836 
L 179.75191 368.143344 
L 181.862446 366.100327 
L 183.972983 368.299655 
L 186.015438 365.381843 
L 188.125974 364.293148 
L 190.168429 359.241824 
L 192.278966 364.742886 
L 194.389502 367.120464 
L 196.295793 364.479625 
L 198.40633 365.025344 
L 200.448784 362.836985 
L 202.559321 365.636877 
L 204.601776 362.817789 
L 206.712312 362.060913 
L 208.822849 363.903741 
L 210.865304 360.155011 
L 212.97584 359.793027 
L 215.018295 354.338583 
L 217.128832 359.601066 
L 219.239368 362.741004 
L 221.145659 359.559931 
L 223.256196 360.45118 
L 225.29865 357.708876 
L 227.409187 360.637657 
L 229.451642 358.399936 
L 231.562178 358.402679 
L 233.672715 358.830478 
L 235.71517 355.811201 
L 237.825706 356.888927 
L 239.868161 348.75251 
L 241.978697 355.372432 
L 244.089234 358.641259 
L 245.995525 356.466612 
L 248.106062 355.567136 
L 250.148516 355.632951 
L 252.259053 357.303015 
L 254.301508 354.752671 
L 256.412044 355.706993 
L 258.522581 355.479382 
L 260.565036 352.410744 
L 262.675572 353.883361 
L 264.718027 343.374851 
L 266.828563 353.899815 
L 268.9391 354.993994 
L 270.913473 350.241581 
L 273.024009 351.804694 
L 275.066464 352.643839 
L 277.177001 352.133771 
L 279.219455 351.944552 
L 281.329992 350.707773 
L 283.440529 349.13369 
L 285.482983 348.708633 
L 287.59352 347.090673 
L 289.635975 335.016307 
L 291.746511 348.552321 
L 293.857048 350.362242 
L 295.763339 342.936082 
L 297.873875 347.227788 
L 302.026867 345.426094 
L 304.069321 345.62354 
L 306.179858 343.095136 
L 308.290395 342.89769 
L 310.332849 344.019292 
L 312.443386 341.115192 
L 314.485841 328.478653 
L 316.596377 342.489086 
L 318.706914 345.017491 
L 320.613205 338.041069 
L 322.723741 342.253248 
L 324.766196 339.593213 
L 326.876733 340.171839 
L 328.919187 341.792541 
L 331.029724 337.234831 
L 333.140261 341.655426 
L 335.182715 337.964284 
L 337.293252 334.914842 
L 339.335707 325.766514 
L 341.446243 334.961461 
L 343.55678 340.731269 
L 345.463071 333.820662 
L 347.573607 339.050237 
L 349.616062 334.064727 
L 351.726599 338.852791 
L 353.769053 335.290537 
L 355.87959 331.336135 
L 357.990126 337.701023 
L 360.032581 331.459538 
L 362.143118 331.0811 
L 364.185573 323.090025 
L 366.296109 331.33065 
L 368.406646 334.670777 
L 370.381019 332.460479 
L 372.491555 330.708147 
L 374.53401 330.965924 
L 376.644546 334.075697 
L 378.687001 329.405552 
L 380.797538 331.703603 
L 382.908074 331.843461 
L 384.950529 326.556298 
L 387.061066 330.886397 
L 389.10352 316.601733 
L 391.214057 328.453973 
L 393.324593 333.354471 
L 395.230885 328.272981 
L 397.341421 327.258328 
L 401.494412 330.513443 
L 403.536867 326.07091 
L 405.647404 329.967725 
L 407.75794 328.001493 
L 409.800395 325.366138 
L 411.910932 326.172375 
L 413.953386 310.788048 
L 416.063923 327.214451 
L 418.174459 330.233728 
L 420.08075 321.337693 
L 422.191287 327.132182 
L 424.233742 326.819559 
L 426.344278 326.240933 
L 428.386733 323.951109 
L 430.49727 323.643971 
L 432.607806 322.300242 
L 434.650261 320.435475 
L 436.760797 320.405309 
L 438.803252 303.477065 
L 440.913789 320.942801 
L 443.024325 324.069028 
L 444.930616 315.971003 
L 447.041153 318.535058 
L 449.083608 317.188586 
L 451.194144 317.748017 
L 453.236599 316.862252 
L 455.347136 313.286287 
L 457.457672 314.399663 
L 459.500127 312.534896 
L 461.610663 309.367534 
L 463.653118 295.335163 
L 465.763655 312.877684 
L 467.874191 313.379526 
L 469.848564 309.820015 
L 471.959101 313.173853 
L 474.001556 308.531132 
L 476.112092 313.640045 
L 478.154547 310.79079 
L 480.265083 306.844614 
L 482.37562 312.326481 
L 484.418075 304.892094 
L 486.528611 304.864671 
L 488.571066 294.309541 
L 490.681603 303.797914 
L 492.792139 312.71863 
L 494.69843 304.107795 
L 496.808967 309.507392 
L 498.851421 303.954226 
L 500.961958 311.300859 
L 503.004413 304.785144 
L 505.114949 304.329921 
L 507.225486 306.611519 
L 509.267941 298.560113 
L 511.378477 300.896556 
L 513.420932 285.923575 
L 515.531468 295.965893 
L 517.642005 306.998183 
L 519.548296 300.742987 
L 521.658833 299.848996 
L 523.701287 298.477844 
L 525.811824 303.334465 
L 527.854279 296.588396 
L 529.964815 298.296852 
L 532.075352 298.055529 
L 534.117807 289.400816 
L 536.228343 295.162398 
L 538.270798 276.325509 
L 540.381334 289.255474 
L 542.491871 299.517177 
L 544.398162 288.372452 
L 546.508699 292.74917 
L 548.551153 293.086473 
L 550.66169 296.292227 
L 552.704145 288.687817 
L 554.814681 292.016975 
L 556.925218 290.204312 
L 558.967673 285.00216 
L 561.078209 287.758176 
L 563.120664 265.090288 
L 565.2312 288.473918 
L 567.341737 293.336023 
L 569.31611 285.556106 
L 571.426646 290.467573 
L 573.469101 290.815845 
L 575.579638 290.448377 
L 577.622092 289.186917 
L 579.732629 285.301071 
L 581.843166 286.595439 
L 585.996157 282.887844 
L 588.038612 262.504295 
L 590.149148 281.917068 
L 592.259685 289.17869 
L 594.165976 276.07596 
L 596.276512 281.618157 
L 598.318967 278.714056 
L 600.429504 282.684913 
L 602.471958 280.644639 
L 604.582495 274.817242 
L 606.693032 278.615333 
L 608.735486 271.575838 
L 610.846023 269.428614 
L 612.888478 252.933653 
L 617.109551 279.912443 
L 619.015842 265.131423 
L 621.126378 274.7432 
L 623.168833 267.042809 
L 625.27937 275.609768 
L 627.321824 268.611407 
L 629.432361 263.834313 
L 631.542898 270.229367 
L 633.585352 260.055418 
L 635.695889 259.586484 
L 637.738344 244.188445 
L 639.84888 256.781106 
L 641.959417 271.638911 
L 643.865708 260.140429 
L 645.976244 263.124056 
L 648.018699 259.153199 
L 650.129236 270.692816 
L 652.17169 259.685206 
L 654.282227 259.964922 
L 656.392763 262.556399 
L 658.435218 251.814793 
L 660.545755 254.148494 
L 662.58821 233.00807 
L 664.698746 246.714107 
L 666.809283 259.276603 
L 668.783656 251.307467 
L 670.894192 250.616406 
L 672.936647 252.958334 
L 675.047183 256.687868 
L 677.089638 248.005732 
L 679.200175 252.212427 
L 681.310711 250.750779 
L 683.353166 245.348439 
L 685.463703 247.163845 
L 687.506157 219.754513 
L 689.616694 248.345778 
L 691.72723 258.599254 
L 693.633522 242.14817 
L 695.744058 248.329324 
L 697.786513 249.700476 
L 699.897049 251.844958 
L 701.939504 243.461734 
L 704.050041 242.334647 
L 706.160577 242.282543 
L 708.203032 237.66176 
L 710.313569 238.454286 
L 712.356023 210.688455 
L 714.46656 237.291549 
L 716.577096 248.521285 
L 718.483387 231.214603 
L 720.593924 236.586777 
L 722.636379 236.745831 
L 724.746915 238.440575 
L 726.78937 234.993498 
L 728.899907 230.301415 
L 731.010443 232.262163 
L 733.052898 224.849714 
L 735.163434 223.558089 
L 737.205889 197.352629 
L 739.316426 222.897194 
L 741.426962 235.659878 
L 743.333253 216.74072 
L 745.44379 223.950238 
L 747.486245 221.432803 
L 749.596781 226.198928 
L 753.749773 212.948113 
L 755.860309 217.163035 
L 757.902764 209.012907 
L 760.0133 206.128002 
L 762.055755 181.32386 
L 764.166292 207.323647 
L 766.276828 218.802933 
L 768.251201 204.326309 
L 770.361738 216.197744 
L 772.404193 208.489127 
L 774.514729 219.51319 
L 776.557184 206.385779 
L 778.66772 203.234871 
L 780.778257 210.359378 
L 782.820712 195.353489 
L 784.931248 195.701761 
L 786.973703 164.033631 
L 791.194776 208.834657 
L 793.101067 190.15408 
L 795.211604 193.491464 
L 797.254058 192.054497 
L 799.364595 202.028257 
L 801.40705 193.082861 
L 803.517586 190.834171 
L 805.628123 195.542708 
L 807.670578 182.546927 
L 809.781114 179.966419 
L 811.823569 151.303854 
L 813.934105 182.996665 
L 816.044642 206.314479 
L 817.950933 185.064363 
L 820.06147 190.063584 
L 822.103924 188.640328 
L 824.214461 198.507139 
L 826.256916 184.340394 
L 828.367452 187.625675 
L 830.477989 189.52335 
L 832.520444 178.995643 
L 834.63098 177.657399 
L 836.673435 144.645539 
L 838.783971 174.487295 
L 840.894508 195.167012 
L 842.800799 177.74241 
L 844.911336 179.766231 
L 846.95379 183.940018 
L 849.064327 188.898104 
L 851.106782 176.916977 
L 853.217318 175.677455 
L 855.327855 178.038579 
L 857.37031 168.931386 
L 859.480846 169.929585 
L 861.523301 132.466965 
L 863.633837 170.892134 
L 865.744374 182.289151 
L 867.718747 165.363648 
L 869.829283 174.613441 
L 871.871738 173.198412 
L 873.982275 178.161983 
L 876.024729 171.838229 
L 878.135266 163.951362 
L 880.245803 169.575828 
L 882.288257 158.628549 
L 884.398794 156.807659 
L 886.441249 123.521568 
L 888.551785 156.283879 
L 890.662322 178.293613 
L 892.568613 150.673124 
L 894.679149 168.695548 
L 896.721604 161.52168 
L 898.832141 171.380264 
L 902.985132 152.97666 
L 905.095669 162.544559 
L 907.138123 148.857718 
L 909.24866 148.652046 
L 911.291115 107.226796 
L 913.401651 138.894927 
L 915.512188 167.242127 
L 917.418479 143.746063 
L 919.529015 151.997657 
L 921.57147 147.546897 
L 923.682007 158.754695 
L 925.724461 147.346709 
L 927.834998 142.163753 
L 929.945534 148.435404 
L 931.987989 131.685409 
L 934.098526 133.152541 
L 936.140981 95.840748 
L 938.251517 131.934958 
L 940.362054 157.586473 
L 942.268345 132.727484 
L 944.378881 143.381337 
L 946.421336 138.746842 
L 948.531873 152.162195 
L 950.574327 138.447931 
L 952.684864 135.247662 
L 954.7954 140.425133 
L 956.837855 121.961197 
L 958.948392 127.188029 
L 960.990846 83.237118 
L 963.101383 123.995987 
L 965.21192 142.863041 
L 967.186293 121.009618 
L 969.296829 138.176443 
L 971.339284 135.779669 
L 973.44982 143.970932 
L 975.492275 132.672638 
L 977.602812 129.560123 
L 979.713348 130.552837 
L 981.755803 117.474787 
L 983.86634 118.760928 
L 985.908794 69.558503 
L 988.019331 118.878847 
L 990.129867 142.377653 
L 992.036158 116.717911 
L 994.146695 123.195234 
L 996.18915 125.512481 
L 998.299686 134.619674 
L 1000.342141 123.230884 
L 1002.452678 120.740872 
L 1004.563214 122.268335 
L 1006.605669 111.219591 
L 1008.716205 109.299978 
L 1010.75866 60.725541 
L 1012.869197 111.151034 
L 1014.979733 135.283312 
L 1016.886024 98.122346 
L 1018.996561 121.004133 
L 1021.039016 113.021285 
L 1023.149552 123.354288 
L 1025.192007 114.140145 
L 1027.302544 107.344715 
L 1029.41308 111.13458 
L 1031.455535 99.833543 
L 1033.566071 97.40112 
L 1035.608526 47.414396 
L 1035.608526 47.414396 
" clip-path="url(#p5000be17f9)" style="fill: none; stroke: #000000; stroke-width: 1.5; stroke-linecap: round"/>
   </g>
   <g id="patch_3">
    <path d="M 78.197656 390.131551 
L 78.197656 31.094531 
" style="fill: none; stroke: #ffffff; stroke-linejoin: miter; stroke-linecap: square"/>
   </g>
   <g id="patch_4">
    <path d="M 1081.19952 390.131551 
L 1081.19952 31.094531 
" style="fill: none; stroke: #ffffff; stroke-linejoin: miter; stroke-linecap: square"/>
   </g>
   <g id="patch_5">
    <path d="M 78.197656 390.131551 
L 1081.19952 390.131551 
" style="fill: none; stroke: #ffffff; stroke-linejoin: miter; stroke-linecap: square"/>
   </g>
   <g id="patch_6">
    <path d="M 78.197656 31.094531 
L 1081.19952 31.094531 
" style="fill: none; stroke: #ffffff; stroke-linejoin: miter; stroke-linecap: square"/>
   </g>
   <g id="text_19">
    <!-- Food retailing turnover -->
    <g style="fill: #262626" transform="translate(454.641947 25.094531) scale(0.25 -0.25)">
     <defs>
      <path id="ArialMT-46" d="M 525 0 
L 525 4581 
L 3616 4581 
L 3616 4041 
L 1131 4041 
L 1131 2622 
L 3281 2622 
L 3281 2081 
L 1131 2081 
L 1131 0 
L 525 0 
z
" transform="scale(0.015625)"/>
      <path id="ArialMT-64" d="M 2575 0 
L 2575 419 
Q 2259 -75 1647 -75 
Q 1250 -75 917 144 
Q 584 363 401 755 
Q 219 1147 219 1656 
Q 219 2153 384 2558 
Q 550 2963 881 3178 
Q 1213 3394 1622 3394 
Q 1922 3394 2156 3267 
Q 2391 3141 2538 2938 
L 2538 4581 
L 3097 4581 
L 3097 0 
L 2575 0 
z
M 797 1656 
Q 797 1019 1065 703 
Q 1334 388 1700 388 
Q 2069 388 2326 689 
Q 2584 991 2584 1609 
Q 2584 2291 2321 2609 
Q 2059 2928 1675 2928 
Q 1300 2928 1048 2622 
Q 797 2316 797 1656 
z
" transform="scale(0.015625)"/>
      <path id="ArialMT-72" d="M 416 0 
L 416 3319 
L 922 3319 
L 922 2816 
Q 1116 3169 1280 3281 
Q 1444 3394 1641 3394 
Q 1925 3394 2219 3213 
L 2025 2691 
Q 1819 2813 1613 2813 
Q 1428 2813 1281 2702 
Q 1134 2591 1072 2394 
Q 978 2094 978 1738 
L 978 0 
L 416 0 
z
" transform="scale(0.015625)"/>
      <path id="ArialMT-65" d="M 2694 1069 
L 3275 997 
Q 3138 488 2766 206 
Q 2394 -75 1816 -75 
Q 1088 -75 661 373 
Q 234 822 234 1631 
Q 234 2469 665 2931 
Q 1097 3394 1784 3394 
Q 2450 3394 2872 2941 
Q 3294 2488 3294 1666 
Q 3294 1616 3291 1516 
L 816 1516 
Q 847 969 1125 678 
Q 1403 388 1819 388 
Q 2128 388 2347 550 
Q 2566 713 2694 1069 
z
M 847 1978 
L 2700 1978 
Q 2663 2397 2488 2606 
Q 2219 2931 1791 2931 
Q 1403 2931 1139 2672 
Q 875 2413 847 1978 
z
" transform="scale(0.015625)"/>
      <path id="ArialMT-61" d="M 2588 409 
Q 2275 144 1986 34 
Q 1697 -75 1366 -75 
Q 819 -75 525 192 
Q 231 459 231 875 
Q 231 1119 342 1320 
Q 453 1522 633 1644 
Q 813 1766 1038 1828 
Q 1203 1872 1538 1913 
Q 2219 1994 2541 2106 
Q 2544 2222 2544 2253 
Q 2544 2597 2384 2738 
Q 2169 2928 1744 2928 
Q 1347 2928 1158 2789 
Q 969 2650 878 2297 
L 328 2372 
Q 403 2725 575 2942 
Q 747 3159 1072 3276 
Q 1397 3394 1825 3394 
Q 2250 3394 2515 3294 
Q 2781 3194 2906 3042 
Q 3031 2891 3081 2659 
Q 3109 2516 3109 2141 
L 3109 1391 
Q 3109 606 3145 398 
Q 3181 191 3288 0 
L 2700 0 
Q 2613 175 2588 409 
z
M 2541 1666 
Q 2234 1541 1622 1453 
Q 1275 1403 1131 1340 
Q 988 1278 909 1158 
Q 831 1038 831 891 
Q 831 666 1001 516 
Q 1172 366 1500 366 
Q 1825 366 2078 508 
Q 2331 650 2450 897 
Q 2541 1088 2541 1459 
L 2541 1666 
z
" transform="scale(0.015625)"/>
      <path id="ArialMT-69" d="M 425 3934 
L 425 4581 
L 988 4581 
L 988 3934 
L 425 3934 
z
M 425 0 
L 425 3319 
L 988 3319 
L 988 0 
L 425 0 
z
" transform="scale(0.015625)"/>
      <path id="ArialMT-6c" d="M 409 0 
L 409 4581 
L 972 4581 
L 972 0 
L 409 0 
z
" transform="scale(0.015625)"/>
      <path id="ArialMT-67" d="M 319 -275 
L 866 -356 
Q 900 -609 1056 -725 
Q 1266 -881 1628 -881 
Q 2019 -881 2231 -725 
Q 2444 -569 2519 -288 
Q 2563 -116 2559 434 
Q 2191 0 1641 0 
Q 956 0 581 494 
Q 206 988 206 1678 
Q 206 2153 378 2554 
Q 550 2956 876 3175 
Q 1203 3394 1644 3394 
Q 2231 3394 2613 2919 
L 2613 3319 
L 3131 3319 
L 3131 450 
Q 3131 -325 2973 -648 
Q 2816 -972 2473 -1159 
Q 2131 -1347 1631 -1347 
Q 1038 -1347 672 -1080 
Q 306 -813 319 -275 
z
M 784 1719 
Q 784 1066 1043 766 
Q 1303 466 1694 466 
Q 2081 466 2343 764 
Q 2606 1063 2606 1700 
Q 2606 2309 2336 2618 
Q 2066 2928 1684 2928 
Q 1309 2928 1046 2623 
Q 784 2319 784 1719 
z
" transform="scale(0.015625)"/>
      <path id="ArialMT-75" d="M 2597 0 
L 2597 488 
Q 2209 -75 1544 -75 
Q 1250 -75 995 37 
Q 741 150 617 320 
Q 494 491 444 738 
Q 409 903 409 1263 
L 409 3319 
L 972 3319 
L 972 1478 
Q 972 1038 1006 884 
Q 1059 663 1231 536 
Q 1403 409 1656 409 
Q 1909 409 2131 539 
Q 2353 669 2445 892 
Q 2538 1116 2538 1541 
L 2538 3319 
L 3100 3319 
L 3100 0 
L 2597 0 
z
" transform="scale(0.015625)"/>
      <path id="ArialMT-76" d="M 1344 0 
L 81 3319 
L 675 3319 
L 1388 1331 
Q 1503 1009 1600 663 
Q 1675 925 1809 1294 
L 2547 3319 
L 3125 3319 
L 1869 0 
L 1344 0 
z
" transform="scale(0.015625)"/>
     </defs>
     <use xlink:href="#ArialMT-46"/>
     <use xlink:href="#ArialMT-6f" x="61.083984"/>
     <use xlink:href="#ArialMT-6f" x="116.699219"/>
     <use xlink:href="#ArialMT-64" x="172.314453"/>
     <use xlink:href="#ArialMT-20" x="227.929688"/>
     <use xlink:href="#ArialMT-72" x="255.712891"/>
     <use xlink:href="#ArialMT-65" x="289.013672"/>
     <use xlink:href="#ArialMT-74" x="344.628906"/>
     <use xlink:href="#ArialMT-61" x="372.412109"/>
     <use xlink:href="#ArialMT-69" x="428.027344"/>
     <use xlink:href="#ArialMT-6c" x="450.244141"/>
     <use xlink:href="#ArialMT-69" x="472.460938"/>
     <use xlink:href="#ArialMT-6e" x="494.677734"/>
     <use xlink:href="#ArialMT-67" x="550.292969"/>
     <use xlink:href="#ArialMT-20" x="605.908203"/>
     <use xlink:href="#ArialMT-74" x="633.691406"/>
     <use xlink:href="#ArialMT-75" x="661.474609"/>
     <use xlink:href="#ArialMT-72" x="717.089844"/>
     <use xlink:href="#ArialMT-6e" x="750.390625"/>
     <use xlink:href="#ArialMT-6f" x="806.005859"/>
     <use xlink:href="#ArialMT-76" x="861.621094"/>
     <use xlink:href="#ArialMT-65" x="911.621094"/>
     <use xlink:href="#ArialMT-72" x="967.236328"/>
    </g>
   </g>
  </g>
 </g>
 <defs>
  <clipPath id="p5000be17f9">
   <rect x="78.197656" y="31.094531" width="1003.001864" height="359.03702"/>
  </clipPath>
 </defs>
</svg>
