<?xml version="1.0" encoding="utf-8" standalone="no"?>
<!DOCTYPE svg PUBLIC "-//W3C//DTD SVG 1.1//EN"
  "http://www.w3.org/Graphics/SVG/1.1/DTD/svg11.dtd">
<svg xmlns:xlink="http://www.w3.org/1999/xlink" width="1088.39952pt" height="440.39952pt" viewBox="0 0 1088.39952 440.39952" xmlns="http://www.w3.org/2000/svg" version="1.1">
 <metadata>
  <rdf:RDF xmlns:dc="http://purl.org/dc/elements/1.1/" xmlns:cc="http://creativecommons.org/ns#" xmlns:rdf="http://www.w3.org/1999/02/22-rdf-syntax-ns#">
   <cc:Work>
    <dc:type rdf:resource="http://purl.org/dc/dcmitype/StillImage"/>
    <dc:date>2025-10-25T23:36:29.972603</dc:date>
    <dc:format>image/svg+xml</dc:format>
    <dc:creator>
     <cc:Agent>
      <dc:title>Matplotlib v3.7.2, https://matplotlib.org/</dc:title>
     </cc:Agent>
    </dc:creator>
   </cc:Work>
  </rdf:RDF>
 </metadata>
 <defs>
  <style type="text/css">*{stroke-linejoin: round; stroke-linecap: butt}</style>
 </defs>
 <g id="figure_1">
  <g id="patch_1">
   <path d="M 0 440.39952 
L 1088.39952 440.39952 
L 1088.39952 0 
L 0 0 
z
" style="fill: #ffffff"/>
  </g>
  <g id="axes_1">
   <g id="patch_2">
    <path d="M 57.340625 390.131551 
L 1081.19952 390.131551 
L 1081.19952 31.399219 
L 57.340625 31.399219 
z
" style="fill: #e5e5e5"/>
   </g>
   <g id="matplotlib.axis_1">
    <g id="xtick_1">
     <g id="line2d_1">
      <path d="M 148.358104 390.131551 
L 148.358104 31.399219 
" clip-path="url(#p6e67fbab4b)" style="fill: none; stroke: #ffffff; stroke-width: 0.8; stroke-linecap: round"/>
     </g>
     <g id="text_1">
      <!-- 1984 -->
      <g style="fill: #555555" transform="translate(131.675291 407.86827) scale(0.15 -0.15)">
       <defs>
        <path id="ArialMT-31" d="M 2384 0 
L 1822 0 
L 1822 3584 
Q 1619 3391 1289 3197 
Q 959 3003 697 2906 
L 697 3450 
Q 1169 3672 1522 3987 
Q 1875 4303 2022 4600 
L 2384 4600 
L 2384 0 
z
" transform="scale(0.015625)"/>
        <path id="ArialMT-39" d="M 350 1059 
L 891 1109 
Q 959 728 1153 556 
Q 1347 384 1650 384 
Q 1909 384 2104 503 
Q 2300 622 2425 820 
Q 2550 1019 2634 1356 
Q 2719 1694 2719 2044 
Q 2719 2081 2716 2156 
Q 2547 1888 2255 1720 
Q 1963 1553 1622 1553 
Q 1053 1553 659 1965 
Q 266 2378 266 3053 
Q 266 3750 677 4175 
Q 1088 4600 1706 4600 
Q 2153 4600 2523 4359 
Q 2894 4119 3086 3673 
Q 3278 3228 3278 2384 
Q 3278 1506 3087 986 
Q 2897 466 2520 194 
Q 2144 -78 1638 -78 
Q 1100 -78 759 220 
Q 419 519 350 1059 
z
M 2653 3081 
Q 2653 3566 2395 3850 
Q 2138 4134 1775 4134 
Q 1400 4134 1122 3828 
Q 844 3522 844 3034 
Q 844 2597 1108 2323 
Q 1372 2050 1759 2050 
Q 2150 2050 2401 2323 
Q 2653 2597 2653 3081 
z
" transform="scale(0.015625)"/>
        <path id="ArialMT-38" d="M 1131 2484 
Q 781 2613 612 2850 
Q 444 3088 444 3419 
Q 444 3919 803 4259 
Q 1163 4600 1759 4600 
Q 2359 4600 2725 4251 
Q 3091 3903 3091 3403 
Q 3091 3084 2923 2848 
Q 2756 2613 2416 2484 
Q 2838 2347 3058 2040 
Q 3278 1734 3278 1309 
Q 3278 722 2862 322 
Q 2447 -78 1769 -78 
Q 1091 -78 675 323 
Q 259 725 259 1325 
Q 259 1772 486 2073 
Q 713 2375 1131 2484 
z
M 1019 3438 
Q 1019 3113 1228 2906 
Q 1438 2700 1772 2700 
Q 2097 2700 2305 2904 
Q 2513 3109 2513 3406 
Q 2513 3716 2298 3927 
Q 2084 4138 1766 4138 
Q 1444 4138 1231 3931 
Q 1019 3725 1019 3438 
z
M 838 1322 
Q 838 1081 952 856 
Q 1066 631 1291 507 
Q 1516 384 1775 384 
Q 2178 384 2440 643 
Q 2703 903 2703 1303 
Q 2703 1709 2433 1975 
Q 2163 2241 1756 2241 
Q 1359 2241 1098 1978 
Q 838 1716 838 1322 
z
" transform="scale(0.015625)"/>
        <path id="ArialMT-34" d="M 2069 0 
L 2069 1097 
L 81 1097 
L 81 1613 
L 2172 4581 
L 2631 4581 
L 2631 1613 
L 3250 1613 
L 3250 1097 
L 2631 1097 
L 2631 0 
L 2069 0 
z
M 2069 1613 
L 2069 3678 
L 634 1613 
L 2069 1613 
z
" transform="scale(0.015625)"/>
       </defs>
       <use xlink:href="#ArialMT-31"/>
       <use xlink:href="#ArialMT-39" x="55.615234"/>
       <use xlink:href="#ArialMT-38" x="111.230469"/>
       <use xlink:href="#ArialMT-34" x="166.845703"/>
      </g>
     </g>
    </g>
    <g id="xtick_2">
     <g id="line2d_2">
      <path d="M 249.894038 390.131551 
L 249.894038 31.399219 
" clip-path="url(#p6e67fbab4b)" style="fill: none; stroke: #ffffff; stroke-width: 0.8; stroke-linecap: round"/>
     </g>
     <g id="text_2">
      <!-- 1988 -->
      <g style="fill: #555555" transform="translate(233.211226 407.86827) scale(0.15 -0.15)">
       <use xlink:href="#ArialMT-31"/>
       <use xlink:href="#ArialMT-39" x="55.615234"/>
       <use xlink:href="#ArialMT-38" x="111.230469"/>
       <use xlink:href="#ArialMT-38" x="166.845703"/>
      </g>
     </g>
    </g>
    <g id="xtick_3">
     <g id="line2d_3">
      <path d="M 351.429972 390.131551 
L 351.429972 31.399219 
" clip-path="url(#p6e67fbab4b)" style="fill: none; stroke: #ffffff; stroke-width: 0.8; stroke-linecap: round"/>
     </g>
     <g id="text_3">
      <!-- 1992 -->
      <g style="fill: #555555" transform="translate(334.74716 407.86827) scale(0.15 -0.15)">
       <defs>
        <path id="ArialMT-32" d="M 3222 541 
L 3222 0 
L 194 0 
Q 188 203 259 391 
Q 375 700 629 1000 
Q 884 1300 1366 1694 
Q 2113 2306 2375 2664 
Q 2638 3022 2638 3341 
Q 2638 3675 2398 3904 
Q 2159 4134 1775 4134 
Q 1369 4134 1125 3890 
Q 881 3647 878 3216 
L 300 3275 
Q 359 3922 746 4261 
Q 1134 4600 1788 4600 
Q 2447 4600 2831 4234 
Q 3216 3869 3216 3328 
Q 3216 3053 3103 2787 
Q 2991 2522 2730 2228 
Q 2469 1934 1863 1422 
Q 1356 997 1212 845 
Q 1069 694 975 541 
L 3222 541 
z
" transform="scale(0.015625)"/>
       </defs>
       <use xlink:href="#ArialMT-31"/>
       <use xlink:href="#ArialMT-39" x="55.615234"/>
       <use xlink:href="#ArialMT-39" x="111.230469"/>
       <use xlink:href="#ArialMT-32" x="166.845703"/>
      </g>
     </g>
    </g>
    <g id="xtick_4">
     <g id="line2d_4">
      <path d="M 452.965907 390.131551 
L 452.965907 31.399219 
" clip-path="url(#p6e67fbab4b)" style="fill: none; stroke: #ffffff; stroke-width: 0.8; stroke-linecap: round"/>
     </g>
     <g id="text_4">
      <!-- 1996 -->
      <g style="fill: #555555" transform="translate(436.283094 407.86827) scale(0.15 -0.15)">
       <defs>
        <path id="ArialMT-36" d="M 3184 3459 
L 2625 3416 
Q 2550 3747 2413 3897 
Q 2184 4138 1850 4138 
Q 1581 4138 1378 3988 
Q 1113 3794 959 3422 
Q 806 3050 800 2363 
Q 1003 2672 1297 2822 
Q 1591 2972 1913 2972 
Q 2475 2972 2870 2558 
Q 3266 2144 3266 1488 
Q 3266 1056 3080 686 
Q 2894 316 2569 119 
Q 2244 -78 1831 -78 
Q 1128 -78 684 439 
Q 241 956 241 2144 
Q 241 3472 731 4075 
Q 1159 4600 1884 4600 
Q 2425 4600 2770 4297 
Q 3116 3994 3184 3459 
z
M 888 1484 
Q 888 1194 1011 928 
Q 1134 663 1356 523 
Q 1578 384 1822 384 
Q 2178 384 2434 671 
Q 2691 959 2691 1453 
Q 2691 1928 2437 2201 
Q 2184 2475 1800 2475 
Q 1419 2475 1153 2201 
Q 888 1928 888 1484 
z
" transform="scale(0.015625)"/>
       </defs>
       <use xlink:href="#ArialMT-31"/>
       <use xlink:href="#ArialMT-39" x="55.615234"/>
       <use xlink:href="#ArialMT-39" x="111.230469"/>
       <use xlink:href="#ArialMT-36" x="166.845703"/>
      </g>
     </g>
    </g>
    <g id="xtick_5">
     <g id="line2d_5">
      <path d="M 554.501841 390.131551 
L 554.501841 31.399219 
" clip-path="url(#p6e67fbab4b)" style="fill: none; stroke: #ffffff; stroke-width: 0.8; stroke-linecap: round"/>
     </g>
     <g id="text_5">
      <!-- 2000 -->
      <g style="fill: #555555" transform="translate(537.819029 407.86827) scale(0.15 -0.15)">
       <defs>
        <path id="ArialMT-30" d="M 266 2259 
Q 266 3072 433 3567 
Q 600 4063 929 4331 
Q 1259 4600 1759 4600 
Q 2128 4600 2406 4451 
Q 2684 4303 2865 4023 
Q 3047 3744 3150 3342 
Q 3253 2941 3253 2259 
Q 3253 1453 3087 958 
Q 2922 463 2592 192 
Q 2263 -78 1759 -78 
Q 1097 -78 719 397 
Q 266 969 266 2259 
z
M 844 2259 
Q 844 1131 1108 757 
Q 1372 384 1759 384 
Q 2147 384 2411 759 
Q 2675 1134 2675 2259 
Q 2675 3391 2411 3762 
Q 2147 4134 1753 4134 
Q 1366 4134 1134 3806 
Q 844 3388 844 2259 
z
" transform="scale(0.015625)"/>
       </defs>
       <use xlink:href="#ArialMT-32"/>
       <use xlink:href="#ArialMT-30" x="55.615234"/>
       <use xlink:href="#ArialMT-30" x="111.230469"/>
       <use xlink:href="#ArialMT-30" x="166.845703"/>
      </g>
     </g>
    </g>
    <g id="xtick_6">
     <g id="line2d_6">
      <path d="M 656.037775 390.131551 
L 656.037775 31.399219 
" clip-path="url(#p6e67fbab4b)" style="fill: none; stroke: #ffffff; stroke-width: 0.8; stroke-linecap: round"/>
     </g>
     <g id="text_6">
      <!-- 2004 -->
      <g style="fill: #555555" transform="translate(639.354963 407.86827) scale(0.15 -0.15)">
       <use xlink:href="#ArialMT-32"/>
       <use xlink:href="#ArialMT-30" x="55.615234"/>
       <use xlink:href="#ArialMT-30" x="111.230469"/>
       <use xlink:href="#ArialMT-34" x="166.845703"/>
      </g>
     </g>
    </g>
    <g id="xtick_7">
     <g id="line2d_7">
      <path d="M 757.57371 390.131551 
L 757.57371 31.399219 
" clip-path="url(#p6e67fbab4b)" style="fill: none; stroke: #ffffff; stroke-width: 0.8; stroke-linecap: round"/>
     </g>
     <g id="text_7">
      <!-- 2008 -->
      <g style="fill: #555555" transform="translate(740.890897 407.86827) scale(0.15 -0.15)">
       <use xlink:href="#ArialMT-32"/>
       <use xlink:href="#ArialMT-30" x="55.615234"/>
       <use xlink:href="#ArialMT-30" x="111.230469"/>
       <use xlink:href="#ArialMT-38" x="166.845703"/>
      </g>
     </g>
    </g>
    <g id="xtick_8">
     <g id="line2d_8">
      <path d="M 859.109644 390.131551 
L 859.109644 31.399219 
" clip-path="url(#p6e67fbab4b)" style="fill: none; stroke: #ffffff; stroke-width: 0.8; stroke-linecap: round"/>
     </g>
     <g id="text_8">
      <!-- 2012 -->
      <g style="fill: #555555" transform="translate(842.426832 407.86827) scale(0.15 -0.15)">
       <use xlink:href="#ArialMT-32"/>
       <use xlink:href="#ArialMT-30" x="55.615234"/>
       <use xlink:href="#ArialMT-31" x="111.230469"/>
       <use xlink:href="#ArialMT-32" x="166.845703"/>
      </g>
     </g>
    </g>
    <g id="xtick_9">
     <g id="line2d_9">
      <path d="M 960.645579 390.131551 
L 960.645579 31.399219 
" clip-path="url(#p6e67fbab4b)" style="fill: none; stroke: #ffffff; stroke-width: 0.8; stroke-linecap: round"/>
     </g>
     <g id="text_9">
      <!-- 2016 -->
      <g style="fill: #555555" transform="translate(943.962766 407.86827) scale(0.15 -0.15)">
       <use xlink:href="#ArialMT-32"/>
       <use xlink:href="#ArialMT-30" x="55.615234"/>
       <use xlink:href="#ArialMT-31" x="111.230469"/>
       <use xlink:href="#ArialMT-36" x="166.845703"/>
      </g>
     </g>
    </g>
    <g id="xtick_10">
     <g id="line2d_10">
      <path d="M 1062.181513 390.131551 
L 1062.181513 31.399219 
" clip-path="url(#p6e67fbab4b)" style="fill: none; stroke: #ffffff; stroke-width: 0.8; stroke-linecap: round"/>
     </g>
     <g id="text_10">
      <!-- 2020 -->
      <g style="fill: #555555" transform="translate(1045.4987 407.86827) scale(0.15 -0.15)">
       <use xlink:href="#ArialMT-32"/>
       <use xlink:href="#ArialMT-30" x="55.615234"/>
       <use xlink:href="#ArialMT-32" x="111.230469"/>
       <use xlink:href="#ArialMT-30" x="166.845703"/>
      </g>
     </g>
    </g>
    <g id="text_11">
     <!-- Month [1M] -->
     <g style="fill: #555555" transform="translate(519.254447 429.22452) scale(0.2 -0.2)">
      <defs>
       <path id="ArialMT-4d" d="M 475 0 
L 475 4581 
L 1388 4581 
L 2472 1338 
Q 2622 884 2691 659 
Q 2769 909 2934 1394 
L 4031 4581 
L 4847 4581 
L 4847 0 
L 4263 0 
L 4263 3834 
L 2931 0 
L 2384 0 
L 1059 3900 
L 1059 0 
L 475 0 
z
" transform="scale(0.015625)"/>
       <path id="ArialMT-6f" d="M 213 1659 
Q 213 2581 725 3025 
Q 1153 3394 1769 3394 
Q 2453 3394 2887 2945 
Q 3322 2497 3322 1706 
Q 3322 1066 3130 698 
Q 2938 331 2570 128 
Q 2203 -75 1769 -75 
Q 1072 -75 642 372 
Q 213 819 213 1659 
z
M 791 1659 
Q 791 1022 1069 705 
Q 1347 388 1769 388 
Q 2188 388 2466 706 
Q 2744 1025 2744 1678 
Q 2744 2294 2464 2611 
Q 2184 2928 1769 2928 
Q 1347 2928 1069 2612 
Q 791 2297 791 1659 
z
" transform="scale(0.015625)"/>
       <path id="ArialMT-6e" d="M 422 0 
L 422 3319 
L 928 3319 
L 928 2847 
Q 1294 3394 1984 3394 
Q 2284 3394 2536 3286 
Q 2788 3178 2913 3003 
Q 3038 2828 3088 2588 
Q 3119 2431 3119 2041 
L 3119 0 
L 2556 0 
L 2556 2019 
Q 2556 2363 2490 2533 
Q 2425 2703 2258 2804 
Q 2091 2906 1866 2906 
Q 1506 2906 1245 2678 
Q 984 2450 984 1813 
L 984 0 
L 422 0 
z
" transform="scale(0.015625)"/>
       <path id="ArialMT-74" d="M 1650 503 
L 1731 6 
Q 1494 -44 1306 -44 
Q 1000 -44 831 53 
Q 663 150 594 308 
Q 525 466 525 972 
L 525 2881 
L 113 2881 
L 113 3319 
L 525 3319 
L 525 4141 
L 1084 4478 
L 1084 3319 
L 1650 3319 
L 1650 2881 
L 1084 2881 
L 1084 941 
Q 1084 700 1114 631 
Q 1144 563 1211 522 
Q 1278 481 1403 481 
Q 1497 481 1650 503 
z
" transform="scale(0.015625)"/>
       <path id="ArialMT-68" d="M 422 0 
L 422 4581 
L 984 4581 
L 984 2938 
Q 1378 3394 1978 3394 
Q 2347 3394 2619 3248 
Q 2891 3103 3008 2847 
Q 3125 2591 3125 2103 
L 3125 0 
L 2563 0 
L 2563 2103 
Q 2563 2525 2380 2717 
Q 2197 2909 1863 2909 
Q 1613 2909 1392 2779 
Q 1172 2650 1078 2428 
Q 984 2206 984 1816 
L 984 0 
L 422 0 
z
" transform="scale(0.015625)"/>
       <path id="ArialMT-20" transform="scale(0.015625)"/>
       <path id="ArialMT-5b" d="M 434 -1272 
L 434 4581 
L 1675 4581 
L 1675 4116 
L 997 4116 
L 997 -806 
L 1675 -806 
L 1675 -1272 
L 434 -1272 
z
" transform="scale(0.015625)"/>
       <path id="ArialMT-5d" d="M 1363 -1272 
L 122 -1272 
L 122 -806 
L 800 -806 
L 800 4116 
L 122 4116 
L 122 4581 
L 1363 4581 
L 1363 -1272 
z
" transform="scale(0.015625)"/>
      </defs>
      <use xlink:href="#ArialMT-4d"/>
      <use xlink:href="#ArialMT-6f" x="83.300781"/>
      <use xlink:href="#ArialMT-6e" x="138.916016"/>
      <use xlink:href="#ArialMT-74" x="194.53125"/>
      <use xlink:href="#ArialMT-68" x="222.314453"/>
      <use xlink:href="#ArialMT-20" x="277.929688"/>
      <use xlink:href="#ArialMT-5b" x="305.712891"/>
      <use xlink:href="#ArialMT-31" x="333.496094"/>
      <use xlink:href="#ArialMT-4d" x="389.111328"/>
      <use xlink:href="#ArialMT-5d" x="472.412109"/>
     </g>
    </g>
   </g>
   <g id="matplotlib.axis_2">
    <g id="ytick_1">
     <g id="line2d_11">
      <path d="M 57.340625 378.443302 
L 1081.19952 378.443302 
" clip-path="url(#p6e67fbab4b)" style="fill: none; stroke: #ffffff; stroke-width: 0.8; stroke-linecap: round"/>
     </g>
     <g id="text_12">
      <!-- 7.0 -->
      <g style="fill: #555555" transform="translate(29.490625 383.811661) scale(0.15 -0.15)">
       <defs>
        <path id="ArialMT-37" d="M 303 3981 
L 303 4522 
L 3269 4522 
L 3269 4084 
Q 2831 3619 2401 2847 
Q 1972 2075 1738 1259 
Q 1569 684 1522 0 
L 944 0 
Q 953 541 1156 1306 
Q 1359 2072 1739 2783 
Q 2119 3494 2547 3981 
L 303 3981 
z
" transform="scale(0.015625)"/>
        <path id="ArialMT-2e" d="M 581 0 
L 581 641 
L 1222 641 
L 1222 0 
L 581 0 
z
" transform="scale(0.015625)"/>
       </defs>
       <use xlink:href="#ArialMT-37"/>
       <use xlink:href="#ArialMT-2e" x="55.615234"/>
       <use xlink:href="#ArialMT-30" x="83.398438"/>
      </g>
     </g>
    </g>
    <g id="ytick_2">
     <g id="line2d_12">
      <path d="M 57.340625 311.643322 
L 1081.19952 311.643322 
" clip-path="url(#p6e67fbab4b)" style="fill: none; stroke: #ffffff; stroke-width: 0.8; stroke-linecap: round"/>
     </g>
     <g id="text_13">
      <!-- 7.5 -->
      <g style="fill: #555555" transform="translate(29.490625 317.011682) scale(0.15 -0.15)">
       <defs>
        <path id="ArialMT-35" d="M 266 1200 
L 856 1250 
Q 922 819 1161 601 
Q 1400 384 1738 384 
Q 2144 384 2425 690 
Q 2706 997 2706 1503 
Q 2706 1984 2436 2262 
Q 2166 2541 1728 2541 
Q 1456 2541 1237 2417 
Q 1019 2294 894 2097 
L 366 2166 
L 809 4519 
L 3088 4519 
L 3088 3981 
L 1259 3981 
L 1013 2750 
Q 1425 3038 1878 3038 
Q 2478 3038 2890 2622 
Q 3303 2206 3303 1553 
Q 3303 931 2941 478 
Q 2500 -78 1738 -78 
Q 1113 -78 717 272 
Q 322 622 266 1200 
z
" transform="scale(0.015625)"/>
       </defs>
       <use xlink:href="#ArialMT-37"/>
       <use xlink:href="#ArialMT-2e" x="55.615234"/>
       <use xlink:href="#ArialMT-35" x="83.398438"/>
      </g>
     </g>
    </g>
    <g id="ytick_3">
     <g id="line2d_13">
      <path d="M 57.340625 244.843343 
L 1081.19952 244.843343 
" clip-path="url(#p6e67fbab4b)" style="fill: none; stroke: #ffffff; stroke-width: 0.8; stroke-linecap: round"/>
     </g>
     <g id="text_14">
      <!-- 8.0 -->
      <g style="fill: #555555" transform="translate(29.490625 250.211702) scale(0.15 -0.15)">
       <use xlink:href="#ArialMT-38"/>
       <use xlink:href="#ArialMT-2e" x="55.615234"/>
       <use xlink:href="#ArialMT-30" x="83.398438"/>
      </g>
     </g>
    </g>
    <g id="ytick_4">
     <g id="line2d_14">
      <path d="M 57.340625 178.043363 
L 1081.19952 178.043363 
" clip-path="url(#p6e67fbab4b)" style="fill: none; stroke: #ffffff; stroke-width: 0.8; stroke-linecap: round"/>
     </g>
     <g id="text_15">
      <!-- 8.5 -->
      <g style="fill: #555555" transform="translate(29.490625 183.411723) scale(0.15 -0.15)">
       <use xlink:href="#ArialMT-38"/>
       <use xlink:href="#ArialMT-2e" x="55.615234"/>
       <use xlink:href="#ArialMT-35" x="83.398438"/>
      </g>
     </g>
    </g>
    <g id="ytick_5">
     <g id="line2d_15">
      <path d="M 57.340625 111.243384 
L 1081.19952 111.243384 
" clip-path="url(#p6e67fbab4b)" style="fill: none; stroke: #ffffff; stroke-width: 0.8; stroke-linecap: round"/>
     </g>
     <g id="text_16">
      <!-- 9.0 -->
      <g style="fill: #555555" transform="translate(29.490625 116.611743) scale(0.15 -0.15)">
       <use xlink:href="#ArialMT-39"/>
       <use xlink:href="#ArialMT-2e" x="55.615234"/>
       <use xlink:href="#ArialMT-30" x="83.398438"/>
      </g>
     </g>
    </g>
    <g id="ytick_6">
     <g id="line2d_16">
      <path d="M 57.340625 44.443404 
L 1081.19952 44.443404 
" clip-path="url(#p6e67fbab4b)" style="fill: none; stroke: #ffffff; stroke-width: 0.8; stroke-linecap: round"/>
     </g>
     <g id="text_17">
      <!-- 9.5 -->
      <g style="fill: #555555" transform="translate(29.490625 49.811764) scale(0.15 -0.15)">
       <use xlink:href="#ArialMT-39"/>
       <use xlink:href="#ArialMT-2e" x="55.615234"/>
       <use xlink:href="#ArialMT-35" x="83.398438"/>
      </g>
     </g>
    </g>
    <g id="text_18">
     <!-- $AU -->
     <g style="fill: #555555" transform="translate(21.515625 230.21851) rotate(-90) scale(0.2 -0.2)">
      <defs>
       <path id="ArialMT-24" d="M 1594 -659 
L 1594 -97 
Q 1172 -44 908 92 
Q 644 228 451 531 
Q 259 834 228 1272 
L 794 1378 
Q 859 925 1025 713 
Q 1263 413 1594 378 
L 1594 2169 
Q 1247 2234 884 2438 
Q 616 2588 470 2853 
Q 325 3119 325 3456 
Q 325 4056 750 4428 
Q 1034 4678 1594 4734 
L 1594 5003 
L 1925 5003 
L 1925 4734 
Q 2416 4688 2703 4447 
Q 3072 4141 3147 3606 
L 2566 3519 
Q 2516 3850 2358 4026 
Q 2200 4203 1925 4259 
L 1925 2638 
Q 2350 2531 2488 2472 
Q 2750 2356 2915 2190 
Q 3081 2025 3170 1797 
Q 3259 1569 3259 1303 
Q 3259 719 2887 328 
Q 2516 -63 1925 -91 
L 1925 -659 
L 1594 -659 
z
M 1594 4266 
Q 1266 4216 1077 4003 
Q 888 3791 888 3500 
Q 888 3213 1048 3019 
Q 1209 2825 1594 2709 
L 1594 4266 
z
M 1925 378 
Q 2253 419 2467 662 
Q 2681 906 2681 1266 
Q 2681 1572 2529 1758 
Q 2378 1944 1925 2091 
L 1925 378 
z
" transform="scale(0.015625)"/>
       <path id="ArialMT-41" d="M -9 0 
L 1750 4581 
L 2403 4581 
L 4278 0 
L 3588 0 
L 3053 1388 
L 1138 1388 
L 634 0 
L -9 0 
z
M 1313 1881 
L 2866 1881 
L 2388 3150 
Q 2169 3728 2063 4100 
Q 1975 3659 1816 3225 
L 1313 1881 
z
" transform="scale(0.015625)"/>
       <path id="ArialMT-55" d="M 3500 4581 
L 4106 4581 
L 4106 1934 
Q 4106 1244 3950 837 
Q 3794 431 3386 176 
Q 2978 -78 2316 -78 
Q 1672 -78 1262 144 
Q 853 366 678 786 
Q 503 1206 503 1934 
L 503 4581 
L 1109 4581 
L 1109 1938 
Q 1109 1341 1220 1058 
Q 1331 775 1601 622 
Q 1872 469 2263 469 
Q 2931 469 3215 772 
Q 3500 1075 3500 1938 
L 3500 4581 
z
" transform="scale(0.015625)"/>
      </defs>
      <use xlink:href="#ArialMT-24"/>
      <use xlink:href="#ArialMT-41" x="55.615234"/>
      <use xlink:href="#ArialMT-55" x="122.314453"/>
     </g>
    </g>
   </g>
   <g id="line2d_17">
    <path d="M 103.879666 372.397397 
L 105.964592 373.825536 
L 108.119017 372.81723 
L 110.203944 367.639354 
L 112.358368 373.707899 
L 114.512792 369.540521 
L 116.597719 363.077527 
L 118.752143 359.435516 
L 120.83707 339.660185 
L 122.991495 367.785506 
L 125.145919 365.477099 
L 127.091851 354.182626 
L 129.246275 360.50708 
L 131.331202 362.65469 
L 133.485626 360.805675 
L 135.570553 358.393447 
L 137.724977 353.847776 
L 139.879401 355.335632 
L 141.964328 352.00596 
L 144.118753 346.493782 
L 146.203679 326.100831 
L 148.358104 355.931328 
L 150.512528 353.847776 
L 152.527957 348.649993 
L 154.682382 352.77784 
L 156.767308 347.263314 
L 158.921733 350.841575 
L 161.00666 351.477246 
L 163.161084 344.258583 
L 165.315508 352.045948 
L 167.400435 341.809883 
L 169.554859 338.182926 
L 171.639786 322.534271 
L 173.79421 339.669298 
L 175.948635 347.814322 
L 177.894566 338.797221 
L 180.048991 340.611338 
L 182.133918 333.480742 
L 184.288342 342.673949 
L 186.373269 333.419846 
L 188.527693 331.040689 
L 190.682117 336.909169 
L 192.767044 325.230898 
L 194.921469 324.155444 
L 197.006395 308.918265 
L 199.16082 323.588621 
L 201.315244 333.176542 
L 203.261176 323.467471 
L 205.4156 326.1173 
L 207.500527 318.126401 
L 209.654951 326.678437 
L 211.739878 320.095509 
L 213.894302 320.103381 
L 216.048727 321.337131 
L 218.133653 312.863844 
L 220.288078 315.827073 
L 222.373005 294.929012 
L 224.527429 311.676017 
L 226.681853 320.790028 
L 228.627785 314.658066 
L 230.782209 312.201813 
L 232.867136 312.380015 
L 235.02156 316.983326 
L 237.106487 310.016004 
L 239.260911 312.580778 
L 241.415336 311.964578 
L 243.500263 303.923093 
L 245.654687 307.721796 
L 247.739614 282.718217 
L 249.894038 307.764856 
L 252.048462 310.659931 
L 254.063892 298.517268 
L 256.218316 302.390592 
L 258.303243 304.517228 
L 260.457667 303.220537 
L 262.542594 302.742689 
L 264.697018 299.660764 
L 266.851443 295.838416 
L 268.936369 294.824729 
L 271.090794 291.035043 
L 273.17572 265.710398 
L 275.330145 294.45388 
L 277.484569 298.812294 
L 279.430501 281.769476 
L 281.584925 291.352066 
L 283.669852 289.192256 
L 285.824276 287.245206 
L 287.909203 287.689163 
L 290.063627 282.112617 
L 292.218052 281.686781 
L 294.302979 284.124011 
L 296.457403 277.902651 
L 298.54233 253.769507 
L 300.696754 280.809825 
L 302.851178 286.331122 
L 304.79711 271.618195 
L 306.951534 280.30627 
L 309.036461 274.754306 
L 311.190886 275.94252 
L 313.275812 279.328024 
L 315.430237 270.017785 
L 317.584661 279.038257 
L 319.669588 271.464946 
L 321.824012 265.51668 
L 323.908939 249.11287 
L 326.063363 265.60565 
L 328.217788 277.10145 
L 330.163719 263.445321 
L 332.318144 273.64883 
L 334.40307 263.904579 
L 336.557495 273.249095 
L 340.796846 258.857878 
L 342.95127 270.940853 
L 345.036197 259.082051 
L 347.190621 258.395774 
L 349.275548 244.671263 
L 351.429972 258.847923 
L 353.584397 265.051857 
L 355.599826 260.914383 
L 357.75425 257.722875 
L 359.839177 258.187605 
L 361.993601 263.925256 
L 364.078528 255.398913 
L 366.232953 259.526528 
L 368.387377 259.781895 
L 370.472304 250.452229 
L 372.626728 258.044058 
L 374.711655 234.479817 
L 376.866079 253.726391 
L 379.020504 262.572451 
L 380.966435 253.410631 
L 383.12086 251.654148 
L 387.360211 257.372923 
L 389.445137 249.627492 
L 391.599562 256.396931 
L 393.753986 252.938386 
L 395.838913 248.438984 
L 397.993337 249.799474 
L 400.078264 225.964827 
L 402.232688 251.578711 
L 404.387113 256.871776 
L 406.333044 241.841278 
L 408.487469 251.43738 
L 410.572396 250.901683 
L 412.72682 249.915804 
L 414.811747 246.084175 
L 416.966171 245.578491 
L 419.120595 243.388352 
L 421.205522 240.40726 
L 423.359946 240.359579 
L 425.444873 215.973982 
L 427.599298 241.211728 
L 429.753722 246.278832 
L 431.699654 233.529335 
L 433.854078 237.436106 
L 435.939005 235.370292 
L 438.093429 236.224718 
L 440.178356 234.874389 
L 442.33278 229.557574 
L 444.487205 231.190393 
L 446.572131 228.466794 
L 448.726556 223.964246 
L 450.811482 205.661903 
L 452.965907 228.963308 
L 455.120331 229.69355 
L 457.13576 224.598251 
L 459.290185 229.393787 
L 461.375111 222.80016 
L 463.529536 230.074216 
L 465.614463 225.968718 
L 467.768887 220.483307 
L 469.923311 228.165812 
L 472.008238 217.850273 
L 474.162662 217.81366 
L 476.247589 204.417587 
L 480.556438 228.732696 
L 482.50237 216.80706 
L 484.656794 224.15989 
L 486.741721 216.603745 
L 488.896145 226.694467 
L 490.981072 217.707536 
L 493.135496 217.10169 
L 495.28992 220.166229 
L 497.374847 209.651777 
L 499.529272 212.618698 
L 501.614198 194.656162 
L 503.768623 206.432919 
L 505.923047 220.692618 
L 507.868979 212.421653 
L 510.023403 211.280304 
L 512.10833 209.548499 
L 514.262754 215.786351 
L 516.347681 207.198267 
L 518.502105 209.321569 
L 520.65653 209.019594 
L 522.741456 198.617561 
L 524.895881 205.451486 
L 526.980808 184.294614 
L 529.135232 198.449608 
L 531.289656 210.859144 
L 533.235588 197.43373 
L 535.390012 202.54645 
L 537.474939 202.948717 
L 539.629363 206.83359 
L 541.71429 197.795658 
L 543.868715 201.677383 
L 546.023139 199.549883 
L 548.108066 193.625846 
L 550.26249 196.731561 
L 552.347417 173.105963 
L 554.501841 197.550069 
L 556.656265 203.247111 
L 558.671695 194.244309 
L 560.826119 199.856774 
L 562.911046 200.263852 
L 565.06547 199.834373 
L 567.150397 198.370459 
L 569.304821 193.959216 
L 571.459246 195.412474 
L 573.544172 193.29026 
L 575.698597 191.291251 
L 577.783524 170.658139 
L 579.937948 190.23285 
L 582.092372 198.360964 
L 584.038304 184.035647 
L 586.192728 189.90864 
L 588.277655 186.799031 
L 590.432079 191.069309 
L 592.517006 188.858146 
L 594.67143 182.737026 
L 596.825855 186.694584 
L 598.910782 179.449837 
L 601.065206 177.315986 
L 603.150133 161.97006 
L 605.304557 174.557277 
L 607.458981 188.073463 
L 609.404913 173.145264 
L 611.559337 182.661028 
L 613.644264 174.984339 
L 615.798689 183.553203 
L 617.883615 176.512739 
L 620.03804 171.911491 
L 622.192464 178.107772 
L 624.277391 168.380732 
L 626.431815 167.949027 
L 628.516742 154.496889 
L 630.671166 165.395106 
L 632.825591 179.513035 
L 634.771522 168.459144 
L 636.925947 171.240712 
L 639.010873 167.551377 
L 641.165298 178.568185 
L 643.250225 168.039796 
L 645.404649 168.297311 
L 647.559073 170.707018 
L 649.644 160.990299 
L 651.798424 163.04207 
L 653.883351 145.513939 
L 658.1922 167.664512 
L 660.207629 160.548401 
L 662.362053 159.948806 
L 664.44698 161.991754 
L 666.601405 165.311057 
L 668.686331 157.707649 
L 670.840756 161.337676 
L 672.99518 160.065184 
L 675.080107 155.464437 
L 677.234531 156.992867 
L 679.319458 135.593028 
L 681.473882 157.997444 
L 683.628307 167.044708 
L 685.574238 152.81192 
L 687.728663 157.983407 
L 689.813589 159.15823 
L 691.968014 161.01662 
L 694.05294 153.894292 
L 696.207365 152.965043 
L 698.361789 152.922241 
L 700.446716 149.179887 
L 702.60114 149.814348 
L 704.686067 129.207564 
L 706.840491 148.884542 
L 708.994916 158.147262 
L 710.940847 144.12756 
L 713.095272 148.32409 
L 715.180199 148.450368 
L 717.334623 149.803346 
L 719.41955 147.065675 
L 721.573974 143.427141 
L 723.728398 144.935593 
L 725.813325 139.320372 
L 727.967749 138.365611 
L 730.052676 120.336847 
L 732.207101 137.879709 
L 734.361525 147.590559 
L 736.307457 133.436291 
L 738.461881 138.654765 
L 740.546808 136.809316 
L 742.701232 140.325041 
L 746.940583 130.770776 
L 749.095008 133.73642 
L 751.179934 128.060131 
L 753.334359 126.10732 
L 755.419285 110.399975 
L 757.57371 126.9132 
L 759.728134 134.908288 
L 761.743563 124.902065 
L 763.897988 133.0514 
L 765.982915 127.703454 
L 768.137339 135.419044 
L 770.222266 126.280654 
L 772.37669 124.177194 
L 774.531114 128.98143 
L 776.616041 119.056402 
L 778.770465 119.278589 
L 780.855392 100.449894 
L 783.009817 113.199604 
L 785.164241 127.938642 
L 787.110173 115.782542 
L 789.264597 117.874717 
L 791.349524 116.969876 
L 793.503948 123.38038 
L 795.588875 117.616801 
L 797.743299 116.206235 
L 799.897724 119.177072 
L 801.98265 111.132698 
L 804.137075 109.59143 
L 806.222001 93.570577 
L 808.376426 111.403143 
L 810.53085 126.232688 
L 812.476782 112.653626 
L 814.631206 115.726264 
L 816.716133 114.844279 
L 818.870557 121.081937 
L 820.955484 112.214458 
L 823.109908 114.219039 
L 825.264333 115.390798 
L 827.349259 109.016183 
L 829.503684 108.227227 
L 831.588611 90.108661 
L 833.743035 106.376689 
L 835.897459 118.937587 
L 837.843391 108.277207 
L 839.997815 109.472602 
L 842.082742 111.972204 
L 844.237166 115.003591 
L 846.322093 107.792708 
L 848.476518 107.06844 
L 850.630942 108.451476 
L 852.715869 103.194017 
L 854.870293 103.760271 
L 856.95522 83.999706 
L 859.109644 104.308584 
L 861.264069 110.977933 
L 863.279498 101.189521 
L 865.433922 106.449839 
L 867.518849 105.631577 
L 869.673273 108.524155 
L 871.7582 104.849726 
L 873.912624 100.404278 
L 876.067049 103.559318 
L 878.151975 97.485547 
L 880.3064 96.501533 
L 882.391327 79.684065 
L 884.545751 96.219818 
L 886.700175 108.601724 
L 888.646107 93.238762 
L 890.800531 103.060581 
L 892.885458 99.064062 
L 895.039882 104.587508 
L 897.124809 99.375981 
L 899.279234 94.454619 
L 901.433658 99.626646 
L 903.518585 92.288288 
L 905.673009 92.181031 
L 907.757936 72.164053 
L 912.066784 102.241175 
L 914.012716 89.647792 
L 916.16714 93.936527 
L 918.252067 91.606174 
L 920.406492 97.553985 
L 922.491418 91.502307 
L 924.645843 88.840893 
L 926.800267 92.068147 
L 928.885194 83.617042 
L 931.039618 84.336281 
L 933.124545 67.149844 
L 935.278969 83.739107 
L 937.433394 96.92152 
L 939.379325 84.127505 
L 941.53375 89.461367 
L 943.618676 87.11489 
L 945.773101 94.023461 
L 947.858028 86.964955 
L 950.012452 85.370141 
L 952.166876 87.959868 
L 954.251803 78.94535 
L 956.406227 81.436096 
L 958.491154 61.810432 
L 960.645579 79.909477 
L 962.800003 89.196894 
L 964.815432 78.496847 
L 966.969856 86.82892 
L 969.054783 85.633944 
L 971.209208 89.76286 
L 973.294134 84.10059 
L 975.448559 82.581974 
L 977.602983 83.064453 
L 979.68791 76.843858 
L 981.842334 77.44293 
L 983.927261 56.247331 
L 986.081685 77.497991 
L 988.23611 88.949687 
L 990.182041 76.492564 
L 992.336466 79.529232 
L 994.421392 80.632577 
L 996.575817 85.059413 
L 998.660744 79.546138 
L 1000.815168 78.370453 
L 1002.969592 79.090433 
L 1005.054519 73.967945 
L 1007.208943 73.097649 
L 1009.29387 52.774262 
L 1011.448294 73.936766 
L 1013.602719 85.387802 
L 1015.54865 68.139654 
L 1017.703075 78.494267 
L 1019.788002 74.789971 
L 1021.942426 79.604674 
L 1024.027353 75.30301 
L 1026.181777 72.21698 
L 1028.336201 73.929283 
L 1030.421128 68.886854 
L 1032.575553 67.825976 
L 1034.660479 47.705234 
L 1034.660479 47.705234 
" clip-path="url(#p6e67fbab4b)" style="fill: none; stroke: #000000; stroke-width: 1.5; stroke-linecap: round"/>
   </g>
   <g id="patch_3">
    <path d="M 57.340625 390.131551 
L 57.340625 31.399219 
" style="fill: none; stroke: #ffffff; stroke-linejoin: miter; stroke-linecap: square"/>
   </g>
   <g id="patch_4">
    <path d="M 1081.19952 390.131551 
L 1081.19952 31.399219 
" style="fill: none; stroke: #ffffff; stroke-linejoin: miter; stroke-linecap: square"/>
   </g>
   <g id="patch_5">
    <path d="M 57.340625 390.131551 
L 1081.19952 390.131551 
" style="fill: none; stroke: #ffffff; stroke-linejoin: miter; stroke-linecap: square"/>
   </g>
   <g id="patch_6">
    <path d="M 57.340625 31.399219 
L 1081.19952 31.399219 
" style="fill: none; stroke: #ffffff; stroke-linejoin: miter; stroke-linecap: square"/>
   </g>
   <g id="text_19">
    <!-- Food retailing turnover (log) -->
    <g style="fill: #262626" transform="translate(415.736869 25.399219) scale(0.25 -0.25)">
     <defs>
      <path id="ArialMT-46" d="M 525 0 
L 525 4581 
L 3616 4581 
L 3616 4041 
L 1131 4041 
L 1131 2622 
L 3281 2622 
L 3281 2081 
L 1131 2081 
L 1131 0 
L 525 0 
z
" transform="scale(0.015625)"/>
      <path id="ArialMT-64" d="M 2575 0 
L 2575 419 
Q 2259 -75 1647 -75 
Q 1250 -75 917 144 
Q 584 363 401 755 
Q 219 1147 219 1656 
Q 219 2153 384 2558 
Q 550 2963 881 3178 
Q 1213 3394 1622 3394 
Q 1922 3394 2156 3267 
Q 2391 3141 2538 2938 
L 2538 4581 
L 3097 4581 
L 3097 0 
L 2575 0 
z
M 797 1656 
Q 797 1019 1065 703 
Q 1334 388 1700 388 
Q 2069 388 2326 689 
Q 2584 991 2584 1609 
Q 2584 2291 2321 2609 
Q 2059 2928 1675 2928 
Q 1300 2928 1048 2622 
Q 797 2316 797 1656 
z
" transform="scale(0.015625)"/>
      <path id="ArialMT-72" d="M 416 0 
L 416 3319 
L 922 3319 
L 922 2816 
Q 1116 3169 1280 3281 
Q 1444 3394 1641 3394 
Q 1925 3394 2219 3213 
L 2025 2691 
Q 1819 2813 1613 2813 
Q 1428 2813 1281 2702 
Q 1134 2591 1072 2394 
Q 978 2094 978 1738 
L 978 0 
L 416 0 
z
" transform="scale(0.015625)"/>
      <path id="ArialMT-65" d="M 2694 1069 
L 3275 997 
Q 3138 488 2766 206 
Q 2394 -75 1816 -75 
Q 1088 -75 661 373 
Q 234 822 234 1631 
Q 234 2469 665 2931 
Q 1097 3394 1784 3394 
Q 2450 3394 2872 2941 
Q 3294 2488 3294 1666 
Q 3294 1616 3291 1516 
L 816 1516 
Q 847 969 1125 678 
Q 1403 388 1819 388 
Q 2128 388 2347 550 
Q 2566 713 2694 1069 
z
M 847 1978 
L 2700 1978 
Q 2663 2397 2488 2606 
Q 2219 2931 1791 2931 
Q 1403 2931 1139 2672 
Q 875 2413 847 1978 
z
" transform="scale(0.015625)"/>
      <path id="ArialMT-61" d="M 2588 409 
Q 2275 144 1986 34 
Q 1697 -75 1366 -75 
Q 819 -75 525 192 
Q 231 459 231 875 
Q 231 1119 342 1320 
Q 453 1522 633 1644 
Q 813 1766 1038 1828 
Q 1203 1872 1538 1913 
Q 2219 1994 2541 2106 
Q 2544 2222 2544 2253 
Q 2544 2597 2384 2738 
Q 2169 2928 1744 2928 
Q 1347 2928 1158 2789 
Q 969 2650 878 2297 
L 328 2372 
Q 403 2725 575 2942 
Q 747 3159 1072 3276 
Q 1397 3394 1825 3394 
Q 2250 3394 2515 3294 
Q 2781 3194 2906 3042 
Q 3031 2891 3081 2659 
Q 3109 2516 3109 2141 
L 3109 1391 
Q 3109 606 3145 398 
Q 3181 191 3288 0 
L 2700 0 
Q 2613 175 2588 409 
z
M 2541 1666 
Q 2234 1541 1622 1453 
Q 1275 1403 1131 1340 
Q 988 1278 909 1158 
Q 831 1038 831 891 
Q 831 666 1001 516 
Q 1172 366 1500 366 
Q 1825 366 2078 508 
Q 2331 650 2450 897 
Q 2541 1088 2541 1459 
L 2541 1666 
z
" transform="scale(0.015625)"/>
      <path id="ArialMT-69" d="M 425 3934 
L 425 4581 
L 988 4581 
L 988 3934 
L 425 3934 
z
M 425 0 
L 425 3319 
L 988 3319 
L 988 0 
L 425 0 
z
" transform="scale(0.015625)"/>
      <path id="ArialMT-6c" d="M 409 0 
L 409 4581 
L 972 4581 
L 972 0 
L 409 0 
z
" transform="scale(0.015625)"/>
      <path id="ArialMT-67" d="M 319 -275 
L 866 -356 
Q 900 -609 1056 -725 
Q 1266 -881 1628 -881 
Q 2019 -881 2231 -725 
Q 2444 -569 2519 -288 
Q 2563 -116 2559 434 
Q 2191 0 1641 0 
Q 956 0 581 494 
Q 206 988 206 1678 
Q 206 2153 378 2554 
Q 550 2956 876 3175 
Q 1203 3394 1644 3394 
Q 2231 3394 2613 2919 
L 2613 3319 
L 3131 3319 
L 3131 450 
Q 3131 -325 2973 -648 
Q 2816 -972 2473 -1159 
Q 2131 -1347 1631 -1347 
Q 1038 -1347 672 -1080 
Q 306 -813 319 -275 
z
M 784 1719 
Q 784 1066 1043 766 
Q 1303 466 1694 466 
Q 2081 466 2343 764 
Q 2606 1063 2606 1700 
Q 2606 2309 2336 2618 
Q 2066 2928 1684 2928 
Q 1309 2928 1046 2623 
Q 784 2319 784 1719 
z
" transform="scale(0.015625)"/>
      <path id="ArialMT-75" d="M 2597 0 
L 2597 488 
Q 2209 -75 1544 -75 
Q 1250 -75 995 37 
Q 741 150 617 320 
Q 494 491 444 738 
Q 409 903 409 1263 
L 409 3319 
L 972 3319 
L 972 1478 
Q 972 1038 1006 884 
Q 1059 663 1231 536 
Q 1403 409 1656 409 
Q 1909 409 2131 539 
Q 2353 669 2445 892 
Q 2538 1116 2538 1541 
L 2538 3319 
L 3100 3319 
L 3100 0 
L 2597 0 
z
" transform="scale(0.015625)"/>
      <path id="ArialMT-76" d="M 1344 0 
L 81 3319 
L 675 3319 
L 1388 1331 
Q 1503 1009 1600 663 
Q 1675 925 1809 1294 
L 2547 3319 
L 3125 3319 
L 1869 0 
L 1344 0 
z
" transform="scale(0.015625)"/>
      <path id="ArialMT-28" d="M 1497 -1347 
Q 1031 -759 709 28 
Q 388 816 388 1659 
Q 388 2403 628 3084 
Q 909 3875 1497 4659 
L 1900 4659 
Q 1522 4009 1400 3731 
Q 1209 3300 1100 2831 
Q 966 2247 966 1656 
Q 966 153 1900 -1347 
L 1497 -1347 
z
" transform="scale(0.015625)"/>
      <path id="ArialMT-29" d="M 791 -1347 
L 388 -1347 
Q 1322 153 1322 1656 
Q 1322 2244 1188 2822 
Q 1081 3291 891 3722 
Q 769 4003 388 4659 
L 791 4659 
Q 1378 3875 1659 3084 
Q 1900 2403 1900 1659 
Q 1900 816 1576 28 
Q 1253 -759 791 -1347 
z
" transform="scale(0.015625)"/>
     </defs>
     <use xlink:href="#ArialMT-46"/>
     <use xlink:href="#ArialMT-6f" x="61.083984"/>
     <use xlink:href="#ArialMT-6f" x="116.699219"/>
     <use xlink:href="#ArialMT-64" x="172.314453"/>
     <use xlink:href="#ArialMT-20" x="227.929688"/>
     <use xlink:href="#ArialMT-72" x="255.712891"/>
     <use xlink:href="#ArialMT-65" x="289.013672"/>
     <use xlink:href="#ArialMT-74" x="344.628906"/>
     <use xlink:href="#ArialMT-61" x="372.412109"/>
     <use xlink:href="#ArialMT-69" x="428.027344"/>
     <use xlink:href="#ArialMT-6c" x="450.244141"/>
     <use xlink:href="#ArialMT-69" x="472.460938"/>
     <use xlink:href="#ArialMT-6e" x="494.677734"/>
     <use xlink:href="#ArialMT-67" x="550.292969"/>
     <use xlink:href="#ArialMT-20" x="605.908203"/>
     <use xlink:href="#ArialMT-74" x="633.691406"/>
     <use xlink:href="#ArialMT-75" x="661.474609"/>
     <use xlink:href="#ArialMT-72" x="717.089844"/>
     <use xlink:href="#ArialMT-6e" x="750.390625"/>
     <use xlink:href="#ArialMT-6f" x="806.005859"/>
     <use xlink:href="#ArialMT-76" x="861.621094"/>
     <use xlink:href="#ArialMT-65" x="911.621094"/>
     <use xlink:href="#ArialMT-72" x="967.236328"/>
     <use xlink:href="#ArialMT-20" x="1000.537109"/>
     <use xlink:href="#ArialMT-28" x="1028.320312"/>
     <use xlink:href="#ArialMT-6c" x="1061.621094"/>
     <use xlink:href="#ArialMT-6f" x="1083.837891"/>
     <use xlink:href="#ArialMT-67" x="1139.453125"/>
     <use xlink:href="#ArialMT-29" x="1195.068359"/>
    </g>
   </g>
  </g>
 </g>
 <defs>
  <clipPath id="p6e67fbab4b">
   <rect x="57.340625" y="31.399219" width="1023.858895" height="358.732333"/>
  </clipPath>
 </defs>
</svg>
