<?xml version="1.0" encoding="utf-8" standalone="no"?>
<!DOCTYPE svg PUBLIC "-//W3C//DTD SVG 1.1//EN"
  "http://www.w3.org/Graphics/SVG/1.1/DTD/svg11.dtd">
<svg xmlns:xlink="http://www.w3.org/1999/xlink" width="1088.39952pt" height="440.39952pt" viewBox="0 0 1088.39952 440.39952" xmlns="http://www.w3.org/2000/svg" version="1.1">
 <metadata>
  <rdf:RDF xmlns:dc="http://purl.org/dc/elements/1.1/" xmlns:cc="http://creativecommons.org/ns#" xmlns:rdf="http://www.w3.org/1999/02/22-rdf-syntax-ns#">
   <cc:Work>
    <dc:type rdf:resource="http://purl.org/dc/dcmitype/StillImage"/>
    <dc:date>2025-10-26T01:14:57.532664</dc:date>
    <dc:format>image/svg+xml</dc:format>
    <dc:creator>
     <cc:Agent>
      <dc:title>Matplotlib v3.7.2, https://matplotlib.org/</dc:title>
     </cc:Agent>
    </dc:creator>
   </cc:Work>
  </rdf:RDF>
 </metadata>
 <defs>
  <style type="text/css">*{stroke-linejoin: round; stroke-linecap: butt}</style>
 </defs>
 <g id="figure_1">
  <g id="patch_1">
   <path d="M 0 440.39952 
L 1088.39952 440.39952 
L 1088.39952 0 
L 0 0 
z
" style="fill: #ffffff"/>
  </g>
  <g id="axes_1">
   <g id="patch_2">
    <path d="M 61.514844 390.131551 
L 1081.19952 390.131551 
L 1081.19952 31.399219 
L 61.514844 31.399219 
z
" style="fill: #e5e5e5"/>
   </g>
   <g id="matplotlib.axis_1">
    <g id="xtick_1">
     <g id="line2d_1">
      <path d="M 152.161249 390.131551 
L 152.161249 31.399219 
" clip-path="url(#pa2ed3cbbb3)" style="fill: none; stroke: #ffffff; stroke-width: 0.8; stroke-linecap: round"/>
     </g>
     <g id="text_1">
      <!-- 1984 -->
      <g style="fill: #555555" transform="translate(135.478437 407.86827) scale(0.15 -0.15)">
       <defs>
        <path id="ArialMT-31" d="M 2384 0 
L 1822 0 
L 1822 3584 
Q 1619 3391 1289 3197 
Q 959 3003 697 2906 
L 697 3450 
Q 1169 3672 1522 3987 
Q 1875 4303 2022 4600 
L 2384 4600 
L 2384 0 
z
" transform="scale(0.015625)"/>
        <path id="ArialMT-39" d="M 350 1059 
L 891 1109 
Q 959 728 1153 556 
Q 1347 384 1650 384 
Q 1909 384 2104 503 
Q 2300 622 2425 820 
Q 2550 1019 2634 1356 
Q 2719 1694 2719 2044 
Q 2719 2081 2716 2156 
Q 2547 1888 2255 1720 
Q 1963 1553 1622 1553 
Q 1053 1553 659 1965 
Q 266 2378 266 3053 
Q 266 3750 677 4175 
Q 1088 4600 1706 4600 
Q 2153 4600 2523 4359 
Q 2894 4119 3086 3673 
Q 3278 3228 3278 2384 
Q 3278 1506 3087 986 
Q 2897 466 2520 194 
Q 2144 -78 1638 -78 
Q 1100 -78 759 220 
Q 419 519 350 1059 
z
M 2653 3081 
Q 2653 3566 2395 3850 
Q 2138 4134 1775 4134 
Q 1400 4134 1122 3828 
Q 844 3522 844 3034 
Q 844 2597 1108 2323 
Q 1372 2050 1759 2050 
Q 2150 2050 2401 2323 
Q 2653 2597 2653 3081 
z
" transform="scale(0.015625)"/>
        <path id="ArialMT-38" d="M 1131 2484 
Q 781 2613 612 2850 
Q 444 3088 444 3419 
Q 444 3919 803 4259 
Q 1163 4600 1759 4600 
Q 2359 4600 2725 4251 
Q 3091 3903 3091 3403 
Q 3091 3084 2923 2848 
Q 2756 2613 2416 2484 
Q 2838 2347 3058 2040 
Q 3278 1734 3278 1309 
Q 3278 722 2862 322 
Q 2447 -78 1769 -78 
Q 1091 -78 675 323 
Q 259 725 259 1325 
Q 259 1772 486 2073 
Q 713 2375 1131 2484 
z
M 1019 3438 
Q 1019 3113 1228 2906 
Q 1438 2700 1772 2700 
Q 2097 2700 2305 2904 
Q 2513 3109 2513 3406 
Q 2513 3716 2298 3927 
Q 2084 4138 1766 4138 
Q 1444 4138 1231 3931 
Q 1019 3725 1019 3438 
z
M 838 1322 
Q 838 1081 952 856 
Q 1066 631 1291 507 
Q 1516 384 1775 384 
Q 2178 384 2440 643 
Q 2703 903 2703 1303 
Q 2703 1709 2433 1975 
Q 2163 2241 1756 2241 
Q 1359 2241 1098 1978 
Q 838 1716 838 1322 
z
" transform="scale(0.015625)"/>
        <path id="ArialMT-34" d="M 2069 0 
L 2069 1097 
L 81 1097 
L 81 1613 
L 2172 4581 
L 2631 4581 
L 2631 1613 
L 3250 1613 
L 3250 1097 
L 2631 1097 
L 2631 0 
L 2069 0 
z
M 2069 1613 
L 2069 3678 
L 634 1613 
L 2069 1613 
z
" transform="scale(0.015625)"/>
       </defs>
       <use xlink:href="#ArialMT-31"/>
       <use xlink:href="#ArialMT-39" x="55.615234"/>
       <use xlink:href="#ArialMT-38" x="111.230469"/>
       <use xlink:href="#ArialMT-34" x="166.845703"/>
      </g>
     </g>
    </g>
    <g id="xtick_2">
     <g id="line2d_2">
      <path d="M 253.283227 390.131551 
L 253.283227 31.399219 
" clip-path="url(#pa2ed3cbbb3)" style="fill: none; stroke: #ffffff; stroke-width: 0.8; stroke-linecap: round"/>
     </g>
     <g id="text_2">
      <!-- 1988 -->
      <g style="fill: #555555" transform="translate(236.600414 407.86827) scale(0.15 -0.15)">
       <use xlink:href="#ArialMT-31"/>
       <use xlink:href="#ArialMT-39" x="55.615234"/>
       <use xlink:href="#ArialMT-38" x="111.230469"/>
       <use xlink:href="#ArialMT-38" x="166.845703"/>
      </g>
     </g>
    </g>
    <g id="xtick_3">
     <g id="line2d_3">
      <path d="M 354.405204 390.131551 
L 354.405204 31.399219 
" clip-path="url(#pa2ed3cbbb3)" style="fill: none; stroke: #ffffff; stroke-width: 0.8; stroke-linecap: round"/>
     </g>
     <g id="text_3">
      <!-- 1992 -->
      <g style="fill: #555555" transform="translate(337.722392 407.86827) scale(0.15 -0.15)">
       <defs>
        <path id="ArialMT-32" d="M 3222 541 
L 3222 0 
L 194 0 
Q 188 203 259 391 
Q 375 700 629 1000 
Q 884 1300 1366 1694 
Q 2113 2306 2375 2664 
Q 2638 3022 2638 3341 
Q 2638 3675 2398 3904 
Q 2159 4134 1775 4134 
Q 1369 4134 1125 3890 
Q 881 3647 878 3216 
L 300 3275 
Q 359 3922 746 4261 
Q 1134 4600 1788 4600 
Q 2447 4600 2831 4234 
Q 3216 3869 3216 3328 
Q 3216 3053 3103 2787 
Q 2991 2522 2730 2228 
Q 2469 1934 1863 1422 
Q 1356 997 1212 845 
Q 1069 694 975 541 
L 3222 541 
z
" transform="scale(0.015625)"/>
       </defs>
       <use xlink:href="#ArialMT-31"/>
       <use xlink:href="#ArialMT-39" x="55.615234"/>
       <use xlink:href="#ArialMT-39" x="111.230469"/>
       <use xlink:href="#ArialMT-32" x="166.845703"/>
      </g>
     </g>
    </g>
    <g id="xtick_4">
     <g id="line2d_4">
      <path d="M 455.527182 390.131551 
L 455.527182 31.399219 
" clip-path="url(#pa2ed3cbbb3)" style="fill: none; stroke: #ffffff; stroke-width: 0.8; stroke-linecap: round"/>
     </g>
     <g id="text_4">
      <!-- 1996 -->
      <g style="fill: #555555" transform="translate(438.84437 407.86827) scale(0.15 -0.15)">
       <defs>
        <path id="ArialMT-36" d="M 3184 3459 
L 2625 3416 
Q 2550 3747 2413 3897 
Q 2184 4138 1850 4138 
Q 1581 4138 1378 3988 
Q 1113 3794 959 3422 
Q 806 3050 800 2363 
Q 1003 2672 1297 2822 
Q 1591 2972 1913 2972 
Q 2475 2972 2870 2558 
Q 3266 2144 3266 1488 
Q 3266 1056 3080 686 
Q 2894 316 2569 119 
Q 2244 -78 1831 -78 
Q 1128 -78 684 439 
Q 241 956 241 2144 
Q 241 3472 731 4075 
Q 1159 4600 1884 4600 
Q 2425 4600 2770 4297 
Q 3116 3994 3184 3459 
z
M 888 1484 
Q 888 1194 1011 928 
Q 1134 663 1356 523 
Q 1578 384 1822 384 
Q 2178 384 2434 671 
Q 2691 959 2691 1453 
Q 2691 1928 2437 2201 
Q 2184 2475 1800 2475 
Q 1419 2475 1153 2201 
Q 888 1928 888 1484 
z
" transform="scale(0.015625)"/>
       </defs>
       <use xlink:href="#ArialMT-31"/>
       <use xlink:href="#ArialMT-39" x="55.615234"/>
       <use xlink:href="#ArialMT-39" x="111.230469"/>
       <use xlink:href="#ArialMT-36" x="166.845703"/>
      </g>
     </g>
    </g>
    <g id="xtick_5">
     <g id="line2d_5">
      <path d="M 556.64916 390.131551 
L 556.64916 31.399219 
" clip-path="url(#pa2ed3cbbb3)" style="fill: none; stroke: #ffffff; stroke-width: 0.8; stroke-linecap: round"/>
     </g>
     <g id="text_5">
      <!-- 2000 -->
      <g style="fill: #555555" transform="translate(539.966347 407.86827) scale(0.15 -0.15)">
       <defs>
        <path id="ArialMT-30" d="M 266 2259 
Q 266 3072 433 3567 
Q 600 4063 929 4331 
Q 1259 4600 1759 4600 
Q 2128 4600 2406 4451 
Q 2684 4303 2865 4023 
Q 3047 3744 3150 3342 
Q 3253 2941 3253 2259 
Q 3253 1453 3087 958 
Q 2922 463 2592 192 
Q 2263 -78 1759 -78 
Q 1097 -78 719 397 
Q 266 969 266 2259 
z
M 844 2259 
Q 844 1131 1108 757 
Q 1372 384 1759 384 
Q 2147 384 2411 759 
Q 2675 1134 2675 2259 
Q 2675 3391 2411 3762 
Q 2147 4134 1753 4134 
Q 1366 4134 1134 3806 
Q 844 3388 844 2259 
z
" transform="scale(0.015625)"/>
       </defs>
       <use xlink:href="#ArialMT-32"/>
       <use xlink:href="#ArialMT-30" x="55.615234"/>
       <use xlink:href="#ArialMT-30" x="111.230469"/>
       <use xlink:href="#ArialMT-30" x="166.845703"/>
      </g>
     </g>
    </g>
    <g id="xtick_6">
     <g id="line2d_6">
      <path d="M 657.771137 390.131551 
L 657.771137 31.399219 
" clip-path="url(#pa2ed3cbbb3)" style="fill: none; stroke: #ffffff; stroke-width: 0.8; stroke-linecap: round"/>
     </g>
     <g id="text_6">
      <!-- 2004 -->
      <g style="fill: #555555" transform="translate(641.088325 407.86827) scale(0.15 -0.15)">
       <use xlink:href="#ArialMT-32"/>
       <use xlink:href="#ArialMT-30" x="55.615234"/>
       <use xlink:href="#ArialMT-30" x="111.230469"/>
       <use xlink:href="#ArialMT-34" x="166.845703"/>
      </g>
     </g>
    </g>
    <g id="xtick_7">
     <g id="line2d_7">
      <path d="M 758.893115 390.131551 
L 758.893115 31.399219 
" clip-path="url(#pa2ed3cbbb3)" style="fill: none; stroke: #ffffff; stroke-width: 0.8; stroke-linecap: round"/>
     </g>
     <g id="text_7">
      <!-- 2008 -->
      <g style="fill: #555555" transform="translate(742.210303 407.86827) scale(0.15 -0.15)">
       <use xlink:href="#ArialMT-32"/>
       <use xlink:href="#ArialMT-30" x="55.615234"/>
       <use xlink:href="#ArialMT-30" x="111.230469"/>
       <use xlink:href="#ArialMT-38" x="166.845703"/>
      </g>
     </g>
    </g>
    <g id="xtick_8">
     <g id="line2d_8">
      <path d="M 860.015093 390.131551 
L 860.015093 31.399219 
" clip-path="url(#pa2ed3cbbb3)" style="fill: none; stroke: #ffffff; stroke-width: 0.8; stroke-linecap: round"/>
     </g>
     <g id="text_8">
      <!-- 2012 -->
      <g style="fill: #555555" transform="translate(843.33228 407.86827) scale(0.15 -0.15)">
       <use xlink:href="#ArialMT-32"/>
       <use xlink:href="#ArialMT-30" x="55.615234"/>
       <use xlink:href="#ArialMT-31" x="111.230469"/>
       <use xlink:href="#ArialMT-32" x="166.845703"/>
      </g>
     </g>
    </g>
    <g id="xtick_9">
     <g id="line2d_9">
      <path d="M 961.137071 390.131551 
L 961.137071 31.399219 
" clip-path="url(#pa2ed3cbbb3)" style="fill: none; stroke: #ffffff; stroke-width: 0.8; stroke-linecap: round"/>
     </g>
     <g id="text_9">
      <!-- 2016 -->
      <g style="fill: #555555" transform="translate(944.454258 407.86827) scale(0.15 -0.15)">
       <use xlink:href="#ArialMT-32"/>
       <use xlink:href="#ArialMT-30" x="55.615234"/>
       <use xlink:href="#ArialMT-31" x="111.230469"/>
       <use xlink:href="#ArialMT-36" x="166.845703"/>
      </g>
     </g>
    </g>
    <g id="xtick_10">
     <g id="line2d_10">
      <path d="M 1062.259048 390.131551 
L 1062.259048 31.399219 
" clip-path="url(#pa2ed3cbbb3)" style="fill: none; stroke: #ffffff; stroke-width: 0.8; stroke-linecap: round"/>
     </g>
     <g id="text_10">
      <!-- 2020 -->
      <g style="fill: #555555" transform="translate(1045.576236 407.86827) scale(0.15 -0.15)">
       <use xlink:href="#ArialMT-32"/>
       <use xlink:href="#ArialMT-30" x="55.615234"/>
       <use xlink:href="#ArialMT-32" x="111.230469"/>
       <use xlink:href="#ArialMT-30" x="166.845703"/>
      </g>
     </g>
    </g>
    <g id="text_11">
     <!-- Month [1M] -->
     <g style="fill: #555555" transform="translate(521.341557 429.22452) scale(0.2 -0.2)">
      <defs>
       <path id="ArialMT-4d" d="M 475 0 
L 475 4581 
L 1388 4581 
L 2472 1338 
Q 2622 884 2691 659 
Q 2769 909 2934 1394 
L 4031 4581 
L 4847 4581 
L 4847 0 
L 4263 0 
L 4263 3834 
L 2931 0 
L 2384 0 
L 1059 3900 
L 1059 0 
L 475 0 
z
" transform="scale(0.015625)"/>
       <path id="ArialMT-6f" d="M 213 1659 
Q 213 2581 725 3025 
Q 1153 3394 1769 3394 
Q 2453 3394 2887 2945 
Q 3322 2497 3322 1706 
Q 3322 1066 3130 698 
Q 2938 331 2570 128 
Q 2203 -75 1769 -75 
Q 1072 -75 642 372 
Q 213 819 213 1659 
z
M 791 1659 
Q 791 1022 1069 705 
Q 1347 388 1769 388 
Q 2188 388 2466 706 
Q 2744 1025 2744 1678 
Q 2744 2294 2464 2611 
Q 2184 2928 1769 2928 
Q 1347 2928 1069 2612 
Q 791 2297 791 1659 
z
" transform="scale(0.015625)"/>
       <path id="ArialMT-6e" d="M 422 0 
L 422 3319 
L 928 3319 
L 928 2847 
Q 1294 3394 1984 3394 
Q 2284 3394 2536 3286 
Q 2788 3178 2913 3003 
Q 3038 2828 3088 2588 
Q 3119 2431 3119 2041 
L 3119 0 
L 2556 0 
L 2556 2019 
Q 2556 2363 2490 2533 
Q 2425 2703 2258 2804 
Q 2091 2906 1866 2906 
Q 1506 2906 1245 2678 
Q 984 2450 984 1813 
L 984 0 
L 422 0 
z
" transform="scale(0.015625)"/>
       <path id="ArialMT-74" d="M 1650 503 
L 1731 6 
Q 1494 -44 1306 -44 
Q 1000 -44 831 53 
Q 663 150 594 308 
Q 525 466 525 972 
L 525 2881 
L 113 2881 
L 113 3319 
L 525 3319 
L 525 4141 
L 1084 4478 
L 1084 3319 
L 1650 3319 
L 1650 2881 
L 1084 2881 
L 1084 941 
Q 1084 700 1114 631 
Q 1144 563 1211 522 
Q 1278 481 1403 481 
Q 1497 481 1650 503 
z
" transform="scale(0.015625)"/>
       <path id="ArialMT-68" d="M 422 0 
L 422 4581 
L 984 4581 
L 984 2938 
Q 1378 3394 1978 3394 
Q 2347 3394 2619 3248 
Q 2891 3103 3008 2847 
Q 3125 2591 3125 2103 
L 3125 0 
L 2563 0 
L 2563 2103 
Q 2563 2525 2380 2717 
Q 2197 2909 1863 2909 
Q 1613 2909 1392 2779 
Q 1172 2650 1078 2428 
Q 984 2206 984 1816 
L 984 0 
L 422 0 
z
" transform="scale(0.015625)"/>
       <path id="ArialMT-20" transform="scale(0.015625)"/>
       <path id="ArialMT-5b" d="M 434 -1272 
L 434 4581 
L 1675 4581 
L 1675 4116 
L 997 4116 
L 997 -806 
L 1675 -806 
L 1675 -1272 
L 434 -1272 
z
" transform="scale(0.015625)"/>
       <path id="ArialMT-5d" d="M 1363 -1272 
L 122 -1272 
L 122 -806 
L 800 -806 
L 800 4116 
L 122 4116 
L 122 4581 
L 1363 4581 
L 1363 -1272 
z
" transform="scale(0.015625)"/>
      </defs>
      <use xlink:href="#ArialMT-4d"/>
      <use xlink:href="#ArialMT-6f" x="83.300781"/>
      <use xlink:href="#ArialMT-6e" x="138.916016"/>
      <use xlink:href="#ArialMT-74" x="194.53125"/>
      <use xlink:href="#ArialMT-68" x="222.314453"/>
      <use xlink:href="#ArialMT-20" x="277.929688"/>
      <use xlink:href="#ArialMT-5b" x="305.712891"/>
      <use xlink:href="#ArialMT-31" x="333.496094"/>
      <use xlink:href="#ArialMT-4d" x="389.111328"/>
      <use xlink:href="#ArialMT-5d" x="472.412109"/>
     </g>
    </g>
   </g>
   <g id="matplotlib.axis_2">
    <g id="ytick_1">
     <g id="line2d_11">
      <path d="M 61.514844 388.787479 
L 1081.19952 388.787479 
" clip-path="url(#pa2ed3cbbb3)" style="fill: none; stroke: #ffffff; stroke-width: 0.8; stroke-linecap: round"/>
     </g>
     <g id="text_12">
      <!-- 30 -->
      <g style="fill: #555555" transform="translate(37.832031 394.155838) scale(0.15 -0.15)">
       <defs>
        <path id="ArialMT-33" d="M 269 1209 
L 831 1284 
Q 928 806 1161 595 
Q 1394 384 1728 384 
Q 2125 384 2398 659 
Q 2672 934 2672 1341 
Q 2672 1728 2419 1979 
Q 2166 2231 1775 2231 
Q 1616 2231 1378 2169 
L 1441 2663 
Q 1497 2656 1531 2656 
Q 1891 2656 2178 2843 
Q 2466 3031 2466 3422 
Q 2466 3731 2256 3934 
Q 2047 4138 1716 4138 
Q 1388 4138 1169 3931 
Q 950 3725 888 3313 
L 325 3413 
Q 428 3978 793 4289 
Q 1159 4600 1703 4600 
Q 2078 4600 2393 4439 
Q 2709 4278 2876 4000 
Q 3044 3722 3044 3409 
Q 3044 3113 2884 2869 
Q 2725 2625 2413 2481 
Q 2819 2388 3044 2092 
Q 3269 1797 3269 1353 
Q 3269 753 2831 336 
Q 2394 -81 1725 -81 
Q 1122 -81 723 278 
Q 325 638 269 1209 
z
" transform="scale(0.015625)"/>
       </defs>
       <use xlink:href="#ArialMT-33"/>
       <use xlink:href="#ArialMT-30" x="55.615234"/>
      </g>
     </g>
    </g>
    <g id="ytick_2">
     <g id="line2d_12">
      <path d="M 61.514844 348.270176 
L 1081.19952 348.270176 
" clip-path="url(#pa2ed3cbbb3)" style="fill: none; stroke: #ffffff; stroke-width: 0.8; stroke-linecap: round"/>
     </g>
     <g id="text_13">
      <!-- 40 -->
      <g style="fill: #555555" transform="translate(37.832031 353.638535) scale(0.15 -0.15)">
       <use xlink:href="#ArialMT-34"/>
       <use xlink:href="#ArialMT-30" x="55.615234"/>
      </g>
     </g>
    </g>
    <g id="ytick_3">
     <g id="line2d_13">
      <path d="M 61.514844 307.752873 
L 1081.19952 307.752873 
" clip-path="url(#pa2ed3cbbb3)" style="fill: none; stroke: #ffffff; stroke-width: 0.8; stroke-linecap: round"/>
     </g>
     <g id="text_14">
      <!-- 50 -->
      <g style="fill: #555555" transform="translate(37.832031 313.121232) scale(0.15 -0.15)">
       <defs>
        <path id="ArialMT-35" d="M 266 1200 
L 856 1250 
Q 922 819 1161 601 
Q 1400 384 1738 384 
Q 2144 384 2425 690 
Q 2706 997 2706 1503 
Q 2706 1984 2436 2262 
Q 2166 2541 1728 2541 
Q 1456 2541 1237 2417 
Q 1019 2294 894 2097 
L 366 2166 
L 809 4519 
L 3088 4519 
L 3088 3981 
L 1259 3981 
L 1013 2750 
Q 1425 3038 1878 3038 
Q 2478 3038 2890 2622 
Q 3303 2206 3303 1553 
Q 3303 931 2941 478 
Q 2500 -78 1738 -78 
Q 1113 -78 717 272 
Q 322 622 266 1200 
z
" transform="scale(0.015625)"/>
       </defs>
       <use xlink:href="#ArialMT-35"/>
       <use xlink:href="#ArialMT-30" x="55.615234"/>
      </g>
     </g>
    </g>
    <g id="ytick_4">
     <g id="line2d_14">
      <path d="M 61.514844 267.235569 
L 1081.19952 267.235569 
" clip-path="url(#pa2ed3cbbb3)" style="fill: none; stroke: #ffffff; stroke-width: 0.8; stroke-linecap: round"/>
     </g>
     <g id="text_15">
      <!-- 60 -->
      <g style="fill: #555555" transform="translate(37.832031 272.603929) scale(0.15 -0.15)">
       <use xlink:href="#ArialMT-36"/>
       <use xlink:href="#ArialMT-30" x="55.615234"/>
      </g>
     </g>
    </g>
    <g id="ytick_5">
     <g id="line2d_15">
      <path d="M 61.514844 226.718266 
L 1081.19952 226.718266 
" clip-path="url(#pa2ed3cbbb3)" style="fill: none; stroke: #ffffff; stroke-width: 0.8; stroke-linecap: round"/>
     </g>
     <g id="text_16">
      <!-- 70 -->
      <g style="fill: #555555" transform="translate(37.832031 232.086626) scale(0.15 -0.15)">
       <defs>
        <path id="ArialMT-37" d="M 303 3981 
L 303 4522 
L 3269 4522 
L 3269 4084 
Q 2831 3619 2401 2847 
Q 1972 2075 1738 1259 
Q 1569 684 1522 0 
L 944 0 
Q 953 541 1156 1306 
Q 1359 2072 1739 2783 
Q 2119 3494 2547 3981 
L 303 3981 
z
" transform="scale(0.015625)"/>
       </defs>
       <use xlink:href="#ArialMT-37"/>
       <use xlink:href="#ArialMT-30" x="55.615234"/>
      </g>
     </g>
    </g>
    <g id="ytick_6">
     <g id="line2d_16">
      <path d="M 61.514844 186.200963 
L 1081.19952 186.200963 
" clip-path="url(#pa2ed3cbbb3)" style="fill: none; stroke: #ffffff; stroke-width: 0.8; stroke-linecap: round"/>
     </g>
     <g id="text_17">
      <!-- 80 -->
      <g style="fill: #555555" transform="translate(37.832031 191.569322) scale(0.15 -0.15)">
       <use xlink:href="#ArialMT-38"/>
       <use xlink:href="#ArialMT-30" x="55.615234"/>
      </g>
     </g>
    </g>
    <g id="ytick_7">
     <g id="line2d_17">
      <path d="M 61.514844 145.68366 
L 1081.19952 145.68366 
" clip-path="url(#pa2ed3cbbb3)" style="fill: none; stroke: #ffffff; stroke-width: 0.8; stroke-linecap: round"/>
     </g>
     <g id="text_18">
      <!-- 90 -->
      <g style="fill: #555555" transform="translate(37.832031 151.052019) scale(0.15 -0.15)">
       <use xlink:href="#ArialMT-39"/>
       <use xlink:href="#ArialMT-30" x="55.615234"/>
      </g>
     </g>
    </g>
    <g id="ytick_8">
     <g id="line2d_18">
      <path d="M 61.514844 105.166357 
L 1081.19952 105.166357 
" clip-path="url(#pa2ed3cbbb3)" style="fill: none; stroke: #ffffff; stroke-width: 0.8; stroke-linecap: round"/>
     </g>
     <g id="text_19">
      <!-- 100 -->
      <g style="fill: #555555" transform="translate(29.490625 110.534716) scale(0.15 -0.15)">
       <use xlink:href="#ArialMT-31"/>
       <use xlink:href="#ArialMT-30" x="55.615234"/>
       <use xlink:href="#ArialMT-30" x="111.230469"/>
      </g>
     </g>
    </g>
    <g id="ytick_9">
     <g id="line2d_19">
      <path d="M 61.514844 64.649053 
L 1081.19952 64.649053 
" clip-path="url(#pa2ed3cbbb3)" style="fill: none; stroke: #ffffff; stroke-width: 0.8; stroke-linecap: round"/>
     </g>
     <g id="text_20">
      <!-- 110 -->
      <g style="fill: #555555" transform="translate(30.596875 70.017413) scale(0.15 -0.15)">
       <use xlink:href="#ArialMT-31"/>
       <use xlink:href="#ArialMT-31" x="48.240234"/>
       <use xlink:href="#ArialMT-30" x="103.855469"/>
      </g>
     </g>
    </g>
    <g id="text_21">
     <!-- $AU -->
     <g style="fill: #555555" transform="translate(21.515625 230.21851) rotate(-90) scale(0.2 -0.2)">
      <defs>
       <path id="ArialMT-24" d="M 1594 -659 
L 1594 -97 
Q 1172 -44 908 92 
Q 644 228 451 531 
Q 259 834 228 1272 
L 794 1378 
Q 859 925 1025 713 
Q 1263 413 1594 378 
L 1594 2169 
Q 1247 2234 884 2438 
Q 616 2588 470 2853 
Q 325 3119 325 3456 
Q 325 4056 750 4428 
Q 1034 4678 1594 4734 
L 1594 5003 
L 1925 5003 
L 1925 4734 
Q 2416 4688 2703 4447 
Q 3072 4141 3147 3606 
L 2566 3519 
Q 2516 3850 2358 4026 
Q 2200 4203 1925 4259 
L 1925 2638 
Q 2350 2531 2488 2472 
Q 2750 2356 2915 2190 
Q 3081 2025 3170 1797 
Q 3259 1569 3259 1303 
Q 3259 719 2887 328 
Q 2516 -63 1925 -91 
L 1925 -659 
L 1594 -659 
z
M 1594 4266 
Q 1266 4216 1077 4003 
Q 888 3791 888 3500 
Q 888 3213 1048 3019 
Q 1209 2825 1594 2709 
L 1594 4266 
z
M 1925 378 
Q 2253 419 2467 662 
Q 2681 906 2681 1266 
Q 2681 1572 2529 1758 
Q 2378 1944 1925 2091 
L 1925 378 
z
" transform="scale(0.015625)"/>
       <path id="ArialMT-41" d="M -9 0 
L 1750 4581 
L 2403 4581 
L 4278 0 
L 3588 0 
L 3053 1388 
L 1138 1388 
L 634 0 
L -9 0 
z
M 1313 1881 
L 2866 1881 
L 2388 3150 
Q 2169 3728 2063 4100 
Q 1975 3659 1816 3225 
L 1313 1881 
z
" transform="scale(0.015625)"/>
       <path id="ArialMT-55" d="M 3500 4581 
L 4106 4581 
L 4106 1934 
Q 4106 1244 3950 837 
Q 3794 431 3386 176 
Q 2978 -78 2316 -78 
Q 1672 -78 1262 144 
Q 853 366 678 786 
Q 503 1206 503 1934 
L 503 4581 
L 1109 4581 
L 1109 1938 
Q 1109 1341 1220 1058 
Q 1331 775 1601 622 
Q 1872 469 2263 469 
Q 2931 469 3215 772 
Q 3500 1075 3500 1938 
L 3500 4581 
z
" transform="scale(0.015625)"/>
      </defs>
      <use xlink:href="#ArialMT-24"/>
      <use xlink:href="#ArialMT-41" x="55.615234"/>
      <use xlink:href="#ArialMT-55" x="122.314453"/>
     </g>
    </g>
   </g>
   <g id="line2d_20">
    <path d="M 107.864147 373.093939 
L 109.940574 373.825536 
L 112.086215 373.309414 
L 114.162641 370.628113 
L 116.308282 373.765422 
L 118.453923 371.618651 
L 120.53035 368.222385 
L 122.675991 366.272028 
L 124.752417 355.205201 
L 126.898058 370.704511 
L 129.043699 369.492944 
L 130.981697 363.411781 
L 133.127338 366.848631 
L 135.203765 367.99731 
L 137.349406 367.008892 
L 139.425832 365.709074 
L 141.571473 363.227538 
L 143.717114 364.044429 
L 145.793541 362.20999 
L 147.939181 359.122429 
L 150.015608 347.129576 
L 152.161249 364.370216 
L 154.30689 363.227538 
L 156.314102 360.337787 
L 158.459743 362.637284 
L 160.53617 359.557305 
L 162.681811 361.563073 
L 164.758237 361.916593 
L 166.903878 357.852153 
L 169.049519 362.232157 
L 171.125946 356.448292 
L 173.271587 354.34514 
L 175.348013 344.936462 
L 177.493654 355.210492 
L 179.639295 359.867921 
L 181.577293 354.703361 
L 183.722934 355.756451 
L 185.799361 351.575656 
L 187.945002 356.945138 
L 190.021428 351.53947 
L 192.167069 350.119196 
L 194.31271 353.599732 
L 196.389137 346.597341 
L 198.534777 345.936967 
L 200.611204 336.289391 
L 202.756845 345.587843 
L 204.902486 351.394806 
L 206.840484 345.513127 
L 208.986125 347.139634 
L 211.062552 342.185258 
L 213.208192 347.482005 
L 215.284619 343.419901 
L 217.43026 343.424818 
L 219.575901 344.193742 
L 221.652327 338.840599 
L 223.797968 340.732002 
L 225.874395 326.934245 
L 228.020036 338.076511 
L 230.165677 343.853203 
L 232.103675 339.98834 
L 234.249316 338.415156 
L 236.325742 338.529779 
L 238.471383 341.464358 
L 240.54781 337.002975 
L 242.693451 338.65882 
L 244.839092 338.262445 
L 246.915518 333.005007 
L 249.061159 335.508282 
L 251.137586 318.358333 
L 253.283227 335.536454 
L 255.428868 337.420197 
L 257.43608 329.380748 
L 259.581721 331.985 
L 261.658148 333.398883 
L 263.803788 332.538124 
L 265.880215 332.219867 
L 268.025856 330.153516 
L 270.171497 327.557396 
L 272.247923 326.862652 
L 274.393564 324.241867 
L 276.469991 305.741049 
L 278.615632 326.607826 
L 280.761273 329.580441 
L 282.699271 317.675458 
L 284.844912 324.462534 
L 286.921338 322.953979 
L 289.066979 321.58354 
L 291.143406 321.8969 
L 293.289047 317.92272 
L 295.434688 317.615821 
L 297.511114 319.365731 
L 299.656755 314.86702 
L 301.733182 296.390379 
L 303.878823 316.982259 
L 306.024464 320.936705 
L 307.962462 310.21508 
L 310.108103 316.617522 
L 312.184529 312.550198 
L 314.33017 313.427796 
L 316.406597 315.906986 
L 318.552238 309.012827 
L 320.697879 315.696018 
L 322.774305 310.100269 
L 324.919946 305.592662 
L 326.996373 292.629094 
L 329.142014 305.660826 
L 331.287654 314.280014 
L 333.225653 303.999279 
L 335.371293 311.730197 
L 337.44772 304.353627 
L 339.593361 311.432853 
L 343.815429 300.426127 
L 345.961069 309.707129 
L 348.037496 300.602164 
L 350.183137 300.062782 
L 352.259564 288.979897 
L 354.405204 300.418306 
L 356.550845 305.236173 
L 358.558058 302.035523 
L 360.703699 299.532567 
L 362.780125 299.898897 
L 364.925766 304.369567 
L 367.002193 297.691086 
L 369.147834 300.950764 
L 371.293474 301.150785 
L 373.369901 293.717652 
L 375.515542 299.785812 
L 377.591969 280.373798 
L 379.737609 296.355853 
L 381.88325 303.324119 
L 383.821249 296.102831 
L 385.966889 294.689872 
L 390.188957 299.256293 
L 392.265384 293.047996 
L 394.411024 298.483867 
L 396.556665 295.723857 
L 398.633092 292.079329 
L 400.778733 293.18781 
L 402.855159 272.927352 
L 405.0008 294.62898 
L 407.146441 298.860024 
L 409.084439 286.62296 
L 411.23008 294.514854 
L 413.306507 294.081722 
L 415.452148 293.28233 
L 417.528574 290.147322 
L 419.674215 289.730207 
L 421.819856 287.914524 
L 423.896283 285.419083 
L 426.041924 285.378943 
L 428.11835 263.882255 
L 430.263991 286.09524 
L 432.409632 290.307675 
L 434.34763 279.554309 
L 436.493271 282.904105 
L 438.569698 281.13891 
L 440.715339 281.870654 
L 442.791765 280.713136 
L 444.937406 276.098209 
L 447.083047 277.525258 
L 449.159474 275.140021 
L 451.305115 271.143129 
L 453.381541 254.184781 
L 455.527182 275.576665 
L 457.672823 276.217382 
L 459.680035 271.710015 
L 461.825676 275.954581 
L 463.902103 270.098771 
L 466.047744 276.550687 
L 468.12417 272.93081 
L 470.269811 268.006621 
L 472.415452 274.874936 
L 474.491879 265.606828 
L 476.63752 265.57329 
L 478.713946 252.98912 
L 483.005228 275.373961 
L 484.943226 264.649464 
L 487.088867 271.318205 
L 489.165294 264.462445 
L 491.310935 273.574767 
L 493.387361 265.476058 
L 495.533002 264.920227 
L 497.678643 267.718881 
L 499.75507 257.981309 
L 501.900711 260.767929 
L 503.977137 243.413683 
L 506.122778 254.92286 
L 508.268419 268.196378 
L 510.206417 260.583817 
L 512.352058 259.5147 
L 514.428485 257.883749 
L 516.574126 263.70913 
L 518.650552 255.653409 
L 520.796193 257.66925 
L 522.941834 257.383534 
L 525.018261 247.341826 
L 527.163901 253.982982 
L 529.240328 232.859454 
L 531.385969 247.176463 
L 533.53161 259.119039 
L 535.469608 246.174029 
L 537.615249 251.180632 
L 539.691676 251.5705 
L 541.837316 255.305574 
L 543.913743 246.531604 
L 546.059384 250.336346 
L 548.205025 248.257886 
L 550.281451 242.382438 
L 552.427092 245.478921 
L 554.503519 220.993641 
L 556.64916 246.289022 
L 558.794801 251.859317 
L 560.802013 243.001936 
L 562.947654 248.558726 
L 565.024081 248.957244 
L 567.169721 248.536778 
L 569.246148 247.098498 
L 571.391789 242.716543 
L 573.53743 244.168151 
L 575.613857 242.045689 
L 577.759497 240.03097 
L 579.835924 218.33076 
L 581.981565 238.958133 
L 584.127206 247.089143 
L 586.065204 232.590394 
L 588.210845 238.628649 
L 590.287271 235.448074 
L 592.432912 239.806353 
L 594.509339 237.558319 
L 596.65498 231.237217 
L 598.800621 235.340599 
L 600.877047 227.782395 
L 603.022688 225.516868 
L 605.099115 208.679971 
L 609.390397 236.756068 
L 611.328395 221.036197 
L 613.474036 231.157822 
L 615.550462 223.020567 
L 617.696103 232.08845 
L 619.77253 224.659357 
L 621.918171 219.697275 
L 624.063812 226.359625 
L 626.140238 215.831266 
L 628.285879 215.355055 
L 630.362306 200.123928 
L 632.507947 212.522051 
L 634.653587 227.849217 
L 636.591586 215.917679 
L 638.737227 218.96673 
L 640.813653 214.91573 
L 642.959294 226.84853 
L 645.035721 215.455246 
L 647.181362 215.739306 
L 649.327002 218.384173 
L 651.403429 207.571824 
L 653.54907 209.887808 
L 655.625497 189.517559 
L 659.916778 215.040788 
L 661.923991 207.07069 
L 664.069632 206.389393 
L 666.146058 208.704461 
L 668.291699 212.428357 
L 670.368126 203.82927 
L 672.513767 207.965186 
L 674.659408 206.521747 
L 676.735834 201.245207 
L 678.881475 203.008232 
L 680.957902 177.381809 
L 683.103543 204.161519 
L 685.249183 214.355012 
L 687.187182 198.161521 
L 689.332823 204.145434 
L 691.409249 205.48875 
L 693.55489 207.601647 
L 695.631317 199.423532 
L 697.776958 198.340368 
L 699.922598 198.290386 
L 701.999025 193.889134 
L 704.144666 194.639648 
L 706.221093 169.32905 
L 708.366733 193.539158 
L 710.512374 204.333143 
L 712.450373 187.848634 
L 714.596013 192.873972 
L 716.67244 193.02397 
L 718.818081 194.626648 
L 720.894508 191.375299 
L 723.040148 187.00217 
L 725.185789 188.822397 
L 727.262216 181.994203 
L 729.407857 180.81886 
L 731.484283 157.817894 
L 733.629924 180.219082 
L 735.775565 192.001252 
L 737.713563 174.683426 
L 739.859204 181.175261 
L 741.935631 178.89398 
L 744.081272 183.22646 
L 748.303339 171.318254 
L 750.44898 175.060235 
L 752.525407 167.861506 
L 754.671048 165.349362 
L 756.747474 144.461186 
L 758.893115 166.38829 
L 761.038756 176.527461 
L 763.045968 163.789705 
L 765.191609 174.199578 
L 767.268036 167.404036 
L 769.413677 177.164937 
L 771.490104 165.573087 
L 773.635744 162.848294 
L 775.781385 169.040327 
L 777.857812 156.124527 
L 780.003453 156.418948 
L 782.079879 130.57963 
L 784.22552 148.274718 
L 786.371161 167.705754 
L 788.309159 151.757822 
L 790.4548 154.554552 
L 792.531227 153.347686 
L 794.676868 161.810498 
L 796.753294 154.210962 
L 798.898935 152.325966 
L 801.044576 156.284457 
L 803.121003 145.463132 
L 805.266644 143.352363 
L 807.34307 120.675402 
L 809.488711 145.832253 
L 811.634352 165.511191 
L 813.57235 147.534143 
L 815.717991 151.68229 
L 817.794418 150.496462 
L 819.940059 158.799535 
L 822.016485 146.937349 
L 824.162126 149.653454 
L 826.307767 151.231717 
L 828.384194 142.561437 
L 830.529834 141.473901 
L 832.606261 115.593961 
L 834.751902 138.910395 
L 836.897543 155.966985 
L 838.835541 141.542891 
L 840.981182 143.189123 
L 843.057609 146.607725 
L 845.203249 150.710946 
L 847.279676 140.873566 
L 849.425317 139.870739 
L 851.570958 141.783344 
L 853.647384 134.459775 
L 855.793025 135.255501 
L 857.869452 106.464991 
L 860.015093 136.02441 
L 862.160734 145.251731 
L 864.167946 131.629377 
L 866.313587 139.012065 
L 868.390014 137.873184 
L 870.535655 141.883579 
L 872.612081 136.781718 
L 874.757722 130.514793 
L 876.903363 134.973306 
L 878.97979 126.343074 
L 881.12543 124.926329 
L 883.201857 99.888908 
L 885.347498 124.519765 
L 887.493139 141.990526 
L 889.431137 120.191209 
L 891.576778 134.27202 
L 893.653205 128.60489 
L 895.798845 136.414946 
L 897.875272 129.050252 
L 900.020913 121.962491 
L 902.166554 129.407779 
L 904.24298 118.800916 
L 906.388621 118.643717 
L 908.465048 88.173198 
L 910.610689 111.257321 
L 912.75633 133.116985 
L 914.694328 114.912512 
L 916.839969 121.208711 
L 918.916395 117.80011 
L 921.062036 126.441415 
L 923.138463 117.647492 
L 925.284104 113.716586 
L 927.429745 118.478202 
L 929.506171 105.886178 
L 931.651812 106.973406 
L 933.728239 80.176128 
L 935.87388 106.070902 
L 938.019521 125.531647 
L 939.957519 106.658114 
L 942.10316 114.636527 
L 944.179586 111.14627 
L 946.325227 121.335295 
L 948.401654 110.922206 
L 950.547295 108.531109 
L 952.692936 112.406662 
L 954.769362 98.752585 
L 956.915003 102.571429 
L 958.99143 71.493786 
L 961.137071 100.235022 
L 963.282711 114.244669 
L 965.289924 98.061145 
L 967.435565 110.718807 
L 969.511991 108.927613 
L 971.657632 115.082764 
L 973.734059 106.617449 
L 975.8797 104.316385 
L 978.025341 105.048873 
L 980.101767 95.502747 
L 982.247408 96.431785 
L 984.323835 62.261245 
L 986.469476 96.517067 
L 988.615117 113.878043 
L 990.553115 94.956992 
L 992.698756 99.650999 
L 994.775182 101.343352 
L 996.920823 108.063573 
L 998.99725 99.676982 
L 1001.142891 97.866078 
L 1003.288532 98.976007 
L 1005.364958 91.013683 
L 1007.510599 89.645671 
L 1009.587026 56.399103 
L 1011.732667 90.964749 
L 1013.878307 108.557666 
L 1015.816306 81.766668 
L 1017.961946 98.057163 
L 1020.038373 92.301732 
L 1022.184014 99.766937 
L 1024.260441 93.103618 
L 1026.406082 88.256812 
L 1028.551722 90.953005 
L 1030.628149 82.963458 
L 1032.77379 81.263252 
L 1034.850217 47.705234 
L 1034.850217 47.705234 
" clip-path="url(#pa2ed3cbbb3)" style="fill: none; stroke: #000000; stroke-width: 1.5; stroke-linecap: round"/>
   </g>
   <g id="patch_3">
    <path d="M 61.514844 390.131551 
L 61.514844 31.399219 
" style="fill: none; stroke: #ffffff; stroke-linejoin: miter; stroke-linecap: square"/>
   </g>
   <g id="patch_4">
    <path d="M 1081.19952 390.131551 
L 1081.19952 31.399219 
" style="fill: none; stroke: #ffffff; stroke-linejoin: miter; stroke-linecap: square"/>
   </g>
   <g id="patch_5">
    <path d="M 61.514844 390.131551 
L 1081.19952 390.131551 
" style="fill: none; stroke: #ffffff; stroke-linejoin: miter; stroke-linecap: square"/>
   </g>
   <g id="patch_6">
    <path d="M 61.514844 31.399219 
L 1081.19952 31.399219 
" style="fill: none; stroke: #ffffff; stroke-linejoin: miter; stroke-linecap: square"/>
   </g>
   <g id="text_22">
    <!-- Food retailing turnover (sqrt) -->
    <g style="fill: #262626" transform="translate(413.667729 25.399219) scale(0.25 -0.25)">
     <defs>
      <path id="ArialMT-46" d="M 525 0 
L 525 4581 
L 3616 4581 
L 3616 4041 
L 1131 4041 
L 1131 2622 
L 3281 2622 
L 3281 2081 
L 1131 2081 
L 1131 0 
L 525 0 
z
" transform="scale(0.015625)"/>
      <path id="ArialMT-64" d="M 2575 0 
L 2575 419 
Q 2259 -75 1647 -75 
Q 1250 -75 917 144 
Q 584 363 401 755 
Q 219 1147 219 1656 
Q 219 2153 384 2558 
Q 550 2963 881 3178 
Q 1213 3394 1622 3394 
Q 1922 3394 2156 3267 
Q 2391 3141 2538 2938 
L 2538 4581 
L 3097 4581 
L 3097 0 
L 2575 0 
z
M 797 1656 
Q 797 1019 1065 703 
Q 1334 388 1700 388 
Q 2069 388 2326 689 
Q 2584 991 2584 1609 
Q 2584 2291 2321 2609 
Q 2059 2928 1675 2928 
Q 1300 2928 1048 2622 
Q 797 2316 797 1656 
z
" transform="scale(0.015625)"/>
      <path id="ArialMT-72" d="M 416 0 
L 416 3319 
L 922 3319 
L 922 2816 
Q 1116 3169 1280 3281 
Q 1444 3394 1641 3394 
Q 1925 3394 2219 3213 
L 2025 2691 
Q 1819 2813 1613 2813 
Q 1428 2813 1281 2702 
Q 1134 2591 1072 2394 
Q 978 2094 978 1738 
L 978 0 
L 416 0 
z
" transform="scale(0.015625)"/>
      <path id="ArialMT-65" d="M 2694 1069 
L 3275 997 
Q 3138 488 2766 206 
Q 2394 -75 1816 -75 
Q 1088 -75 661 373 
Q 234 822 234 1631 
Q 234 2469 665 2931 
Q 1097 3394 1784 3394 
Q 2450 3394 2872 2941 
Q 3294 2488 3294 1666 
Q 3294 1616 3291 1516 
L 816 1516 
Q 847 969 1125 678 
Q 1403 388 1819 388 
Q 2128 388 2347 550 
Q 2566 713 2694 1069 
z
M 847 1978 
L 2700 1978 
Q 2663 2397 2488 2606 
Q 2219 2931 1791 2931 
Q 1403 2931 1139 2672 
Q 875 2413 847 1978 
z
" transform="scale(0.015625)"/>
      <path id="ArialMT-61" d="M 2588 409 
Q 2275 144 1986 34 
Q 1697 -75 1366 -75 
Q 819 -75 525 192 
Q 231 459 231 875 
Q 231 1119 342 1320 
Q 453 1522 633 1644 
Q 813 1766 1038 1828 
Q 1203 1872 1538 1913 
Q 2219 1994 2541 2106 
Q 2544 2222 2544 2253 
Q 2544 2597 2384 2738 
Q 2169 2928 1744 2928 
Q 1347 2928 1158 2789 
Q 969 2650 878 2297 
L 328 2372 
Q 403 2725 575 2942 
Q 747 3159 1072 3276 
Q 1397 3394 1825 3394 
Q 2250 3394 2515 3294 
Q 2781 3194 2906 3042 
Q 3031 2891 3081 2659 
Q 3109 2516 3109 2141 
L 3109 1391 
Q 3109 606 3145 398 
Q 3181 191 3288 0 
L 2700 0 
Q 2613 175 2588 409 
z
M 2541 1666 
Q 2234 1541 1622 1453 
Q 1275 1403 1131 1340 
Q 988 1278 909 1158 
Q 831 1038 831 891 
Q 831 666 1001 516 
Q 1172 366 1500 366 
Q 1825 366 2078 508 
Q 2331 650 2450 897 
Q 2541 1088 2541 1459 
L 2541 1666 
z
" transform="scale(0.015625)"/>
      <path id="ArialMT-69" d="M 425 3934 
L 425 4581 
L 988 4581 
L 988 3934 
L 425 3934 
z
M 425 0 
L 425 3319 
L 988 3319 
L 988 0 
L 425 0 
z
" transform="scale(0.015625)"/>
      <path id="ArialMT-6c" d="M 409 0 
L 409 4581 
L 972 4581 
L 972 0 
L 409 0 
z
" transform="scale(0.015625)"/>
      <path id="ArialMT-67" d="M 319 -275 
L 866 -356 
Q 900 -609 1056 -725 
Q 1266 -881 1628 -881 
Q 2019 -881 2231 -725 
Q 2444 -569 2519 -288 
Q 2563 -116 2559 434 
Q 2191 0 1641 0 
Q 956 0 581 494 
Q 206 988 206 1678 
Q 206 2153 378 2554 
Q 550 2956 876 3175 
Q 1203 3394 1644 3394 
Q 2231 3394 2613 2919 
L 2613 3319 
L 3131 3319 
L 3131 450 
Q 3131 -325 2973 -648 
Q 2816 -972 2473 -1159 
Q 2131 -1347 1631 -1347 
Q 1038 -1347 672 -1080 
Q 306 -813 319 -275 
z
M 784 1719 
Q 784 1066 1043 766 
Q 1303 466 1694 466 
Q 2081 466 2343 764 
Q 2606 1063 2606 1700 
Q 2606 2309 2336 2618 
Q 2066 2928 1684 2928 
Q 1309 2928 1046 2623 
Q 784 2319 784 1719 
z
" transform="scale(0.015625)"/>
      <path id="ArialMT-75" d="M 2597 0 
L 2597 488 
Q 2209 -75 1544 -75 
Q 1250 -75 995 37 
Q 741 150 617 320 
Q 494 491 444 738 
Q 409 903 409 1263 
L 409 3319 
L 972 3319 
L 972 1478 
Q 972 1038 1006 884 
Q 1059 663 1231 536 
Q 1403 409 1656 409 
Q 1909 409 2131 539 
Q 2353 669 2445 892 
Q 2538 1116 2538 1541 
L 2538 3319 
L 3100 3319 
L 3100 0 
L 2597 0 
z
" transform="scale(0.015625)"/>
      <path id="ArialMT-76" d="M 1344 0 
L 81 3319 
L 675 3319 
L 1388 1331 
Q 1503 1009 1600 663 
Q 1675 925 1809 1294 
L 2547 3319 
L 3125 3319 
L 1869 0 
L 1344 0 
z
" transform="scale(0.015625)"/>
      <path id="ArialMT-28" d="M 1497 -1347 
Q 1031 -759 709 28 
Q 388 816 388 1659 
Q 388 2403 628 3084 
Q 909 3875 1497 4659 
L 1900 4659 
Q 1522 4009 1400 3731 
Q 1209 3300 1100 2831 
Q 966 2247 966 1656 
Q 966 153 1900 -1347 
L 1497 -1347 
z
" transform="scale(0.015625)"/>
      <path id="ArialMT-73" d="M 197 991 
L 753 1078 
Q 800 744 1014 566 
Q 1228 388 1613 388 
Q 2000 388 2187 545 
Q 2375 703 2375 916 
Q 2375 1106 2209 1216 
Q 2094 1291 1634 1406 
Q 1016 1563 777 1677 
Q 538 1791 414 1992 
Q 291 2194 291 2438 
Q 291 2659 392 2848 
Q 494 3038 669 3163 
Q 800 3259 1026 3326 
Q 1253 3394 1513 3394 
Q 1903 3394 2198 3281 
Q 2494 3169 2634 2976 
Q 2775 2784 2828 2463 
L 2278 2388 
Q 2241 2644 2061 2787 
Q 1881 2931 1553 2931 
Q 1166 2931 1000 2803 
Q 834 2675 834 2503 
Q 834 2394 903 2306 
Q 972 2216 1119 2156 
Q 1203 2125 1616 2013 
Q 2213 1853 2448 1751 
Q 2684 1650 2818 1456 
Q 2953 1263 2953 975 
Q 2953 694 2789 445 
Q 2625 197 2315 61 
Q 2006 -75 1616 -75 
Q 969 -75 630 194 
Q 291 463 197 991 
z
" transform="scale(0.015625)"/>
      <path id="ArialMT-71" d="M 2538 -1272 
L 2538 353 
Q 2406 169 2170 47 
Q 1934 -75 1669 -75 
Q 1078 -75 651 397 
Q 225 869 225 1691 
Q 225 2191 398 2587 
Q 572 2984 901 3189 
Q 1231 3394 1625 3394 
Q 2241 3394 2594 2875 
L 2594 3319 
L 3100 3319 
L 3100 -1272 
L 2538 -1272 
z
M 803 1669 
Q 803 1028 1072 708 
Q 1341 388 1716 388 
Q 2075 388 2334 692 
Q 2594 997 2594 1619 
Q 2594 2281 2320 2615 
Q 2047 2950 1678 2950 
Q 1313 2950 1058 2639 
Q 803 2328 803 1669 
z
" transform="scale(0.015625)"/>
      <path id="ArialMT-29" d="M 791 -1347 
L 388 -1347 
Q 1322 153 1322 1656 
Q 1322 2244 1188 2822 
Q 1081 3291 891 3722 
Q 769 4003 388 4659 
L 791 4659 
Q 1378 3875 1659 3084 
Q 1900 2403 1900 1659 
Q 1900 816 1576 28 
Q 1253 -759 791 -1347 
z
" transform="scale(0.015625)"/>
     </defs>
     <use xlink:href="#ArialMT-46"/>
     <use xlink:href="#ArialMT-6f" x="61.083984"/>
     <use xlink:href="#ArialMT-6f" x="116.699219"/>
     <use xlink:href="#ArialMT-64" x="172.314453"/>
     <use xlink:href="#ArialMT-20" x="227.929688"/>
     <use xlink:href="#ArialMT-72" x="255.712891"/>
     <use xlink:href="#ArialMT-65" x="289.013672"/>
     <use xlink:href="#ArialMT-74" x="344.628906"/>
     <use xlink:href="#ArialMT-61" x="372.412109"/>
     <use xlink:href="#ArialMT-69" x="428.027344"/>
     <use xlink:href="#ArialMT-6c" x="450.244141"/>
     <use xlink:href="#ArialMT-69" x="472.460938"/>
     <use xlink:href="#ArialMT-6e" x="494.677734"/>
     <use xlink:href="#ArialMT-67" x="550.292969"/>
     <use xlink:href="#ArialMT-20" x="605.908203"/>
     <use xlink:href="#ArialMT-74" x="633.691406"/>
     <use xlink:href="#ArialMT-75" x="661.474609"/>
     <use xlink:href="#ArialMT-72" x="717.089844"/>
     <use xlink:href="#ArialMT-6e" x="750.390625"/>
     <use xlink:href="#ArialMT-6f" x="806.005859"/>
     <use xlink:href="#ArialMT-76" x="861.621094"/>
     <use xlink:href="#ArialMT-65" x="911.621094"/>
     <use xlink:href="#ArialMT-72" x="967.236328"/>
     <use xlink:href="#ArialMT-20" x="1000.537109"/>
     <use xlink:href="#ArialMT-28" x="1028.320312"/>
     <use xlink:href="#ArialMT-73" x="1061.621094"/>
     <use xlink:href="#ArialMT-71" x="1111.621094"/>
     <use xlink:href="#ArialMT-72" x="1167.236328"/>
     <use xlink:href="#ArialMT-74" x="1200.537109"/>
     <use xlink:href="#ArialMT-29" x="1228.320312"/>
    </g>
   </g>
  </g>
 </g>
 <defs>
  <clipPath id="pa2ed3cbbb3">
   <rect x="61.514844" y="31.399219" width="1019.684676" height="358.732333"/>
  </clipPath>
 </defs>
</svg>
