<?xml version="1.0" encoding="utf-8" standalone="no"?>
<!DOCTYPE svg PUBLIC "-//W3C//DTD SVG 1.1//EN"
  "http://www.w3.org/Graphics/SVG/1.1/DTD/svg11.dtd">
<svg xmlns:xlink="http://www.w3.org/1999/xlink" width="584.39952pt" height="391.38726pt" viewBox="0 0 584.39952 391.38726" xmlns="http://www.w3.org/2000/svg" version="1.1">
 <metadata>
  <rdf:RDF xmlns:dc="http://purl.org/dc/elements/1.1/" xmlns:cc="http://creativecommons.org/ns#" xmlns:rdf="http://www.w3.org/1999/02/22-rdf-syntax-ns#">
   <cc:Work>
    <dc:type rdf:resource="http://purl.org/dc/dcmitype/StillImage"/>
    <dc:date>2025-10-25T23:36:34.316044</dc:date>
    <dc:format>image/svg+xml</dc:format>
    <dc:creator>
     <cc:Agent>
      <dc:title>Matplotlib v3.7.2, https://matplotlib.org/</dc:title>
     </cc:Agent>
    </dc:creator>
   </cc:Work>
  </rdf:RDF>
 </metadata>
 <defs>
  <style type="text/css">*{stroke-linejoin: round; stroke-linecap: butt}</style>
 </defs>
 <g id="figure_1">
  <g id="patch_1">
   <path d="M 0 391.38726 
L 584.39952 391.38726 
L 584.39952 0 
L 0 0 
z
" style="fill: #ffffff"/>
  </g>
  <g id="axes_1">
   <g id="patch_2">
    <path d="M 27.4625 334.180145 
L 64.470033 334.180145 
L 64.470033 39.197355 
L 27.4625 39.197355 
z
" style="fill: #e5e5e5"/>
   </g>
   <g id="matplotlib.axis_1">
    <g id="xtick_1">
     <g id="line2d_1">
      <path d="M 40.745768 334.180145 
L 40.745768 39.197355 
" clip-path="url(#p686051a772)" style="fill: none; stroke: #ffffff; stroke-width: 0.8; stroke-linecap: round"/>
     </g>
     <g id="text_1">
      <!-- 2000 -->
      <g style="fill: #555555" transform="translate(43.072409 361.19952) rotate(-90) scale(0.09 -0.09)">
       <defs>
        <path id="ArialMT-32" d="M 3222 541 
L 3222 0 
L 194 0 
Q 188 203 259 391 
Q 375 700 629 1000 
Q 884 1300 1366 1694 
Q 2113 2306 2375 2664 
Q 2638 3022 2638 3341 
Q 2638 3675 2398 3904 
Q 2159 4134 1775 4134 
Q 1369 4134 1125 3890 
Q 881 3647 878 3216 
L 300 3275 
Q 359 3922 746 4261 
Q 1134 4600 1788 4600 
Q 2447 4600 2831 4234 
Q 3216 3869 3216 3328 
Q 3216 3053 3103 2787 
Q 2991 2522 2730 2228 
Q 2469 1934 1863 1422 
Q 1356 997 1212 845 
Q 1069 694 975 541 
L 3222 541 
z
" transform="scale(0.015625)"/>
        <path id="ArialMT-30" d="M 266 2259 
Q 266 3072 433 3567 
Q 600 4063 929 4331 
Q 1259 4600 1759 4600 
Q 2128 4600 2406 4451 
Q 2684 4303 2865 4023 
Q 3047 3744 3150 3342 
Q 3253 2941 3253 2259 
Q 3253 1453 3087 958 
Q 2922 463 2592 192 
Q 2263 -78 1759 -78 
Q 1097 -78 719 397 
Q 266 969 266 2259 
z
M 844 2259 
Q 844 1131 1108 757 
Q 1372 384 1759 384 
Q 2147 384 2411 759 
Q 2675 1134 2675 2259 
Q 2675 3391 2411 3762 
Q 2147 4134 1753 4134 
Q 1366 4134 1134 3806 
Q 844 3388 844 2259 
z
" transform="scale(0.015625)"/>
       </defs>
       <use xlink:href="#ArialMT-32"/>
       <use xlink:href="#ArialMT-30" x="55.615234"/>
       <use xlink:href="#ArialMT-30" x="111.230469"/>
       <use xlink:href="#ArialMT-30" x="166.845703"/>
      </g>
     </g>
    </g>
    <g id="xtick_2">
     <g id="line2d_2">
      <path d="M 63.947983 334.180145 
L 63.947983 39.197355 
" clip-path="url(#p686051a772)" style="fill: none; stroke: #ffffff; stroke-width: 0.8; stroke-linecap: round"/>
     </g>
     <g id="text_2">
      <!-- 2020 -->
      <g style="fill: #555555" transform="translate(66.274623 361.19952) rotate(-90) scale(0.09 -0.09)">
       <use xlink:href="#ArialMT-32"/>
       <use xlink:href="#ArialMT-30" x="55.615234"/>
       <use xlink:href="#ArialMT-32" x="111.230469"/>
       <use xlink:href="#ArialMT-30" x="166.845703"/>
      </g>
     </g>
    </g>
   </g>
   <g id="matplotlib.axis_2">
    <g id="ytick_1">
     <g id="line2d_3">
      <path d="M 27.4625 291.323089 
L 64.470033 291.323089 
" clip-path="url(#p686051a772)" style="fill: none; stroke: #ffffff; stroke-width: 0.8; stroke-linecap: round"/>
     </g>
    </g>
    <g id="ytick_2">
     <g id="line2d_4">
      <path d="M 27.4625 236.102007 
L 64.470033 236.102007 
" clip-path="url(#p686051a772)" style="fill: none; stroke: #ffffff; stroke-width: 0.8; stroke-linecap: round"/>
     </g>
    </g>
    <g id="ytick_3">
     <g id="line2d_5">
      <path d="M 27.4625 180.880925 
L 64.470033 180.880925 
" clip-path="url(#p686051a772)" style="fill: none; stroke: #ffffff; stroke-width: 0.8; stroke-linecap: round"/>
     </g>
    </g>
    <g id="ytick_4">
     <g id="line2d_6">
      <path d="M 27.4625 125.659843 
L 64.470033 125.659843 
" clip-path="url(#p686051a772)" style="fill: none; stroke: #ffffff; stroke-width: 0.8; stroke-linecap: round"/>
     </g>
    </g>
    <g id="ytick_5">
     <g id="line2d_7">
      <path d="M 27.4625 70.438761 
L 64.470033 70.438761 
" clip-path="url(#p686051a772)" style="fill: none; stroke: #ffffff; stroke-width: 0.8; stroke-linecap: round"/>
     </g>
    </g>
    <g id="text_3">
     <!-- Employed -->
     <g style="fill: #555555" transform="translate(14.357812 208.921563) rotate(-90) scale(0.1 -0.1)">
      <defs>
       <path id="ArialMT-45" d="M 506 0 
L 506 4581 
L 3819 4581 
L 3819 4041 
L 1113 4041 
L 1113 2638 
L 3647 2638 
L 3647 2100 
L 1113 2100 
L 1113 541 
L 3925 541 
L 3925 0 
L 506 0 
z
" transform="scale(0.015625)"/>
       <path id="ArialMT-6d" d="M 422 0 
L 422 3319 
L 925 3319 
L 925 2853 
Q 1081 3097 1340 3245 
Q 1600 3394 1931 3394 
Q 2300 3394 2536 3241 
Q 2772 3088 2869 2813 
Q 3263 3394 3894 3394 
Q 4388 3394 4653 3120 
Q 4919 2847 4919 2278 
L 4919 0 
L 4359 0 
L 4359 2091 
Q 4359 2428 4304 2576 
Q 4250 2725 4106 2815 
Q 3963 2906 3769 2906 
Q 3419 2906 3187 2673 
Q 2956 2441 2956 1928 
L 2956 0 
L 2394 0 
L 2394 2156 
Q 2394 2531 2256 2718 
Q 2119 2906 1806 2906 
Q 1569 2906 1367 2781 
Q 1166 2656 1075 2415 
Q 984 2175 984 1722 
L 984 0 
L 422 0 
z
" transform="scale(0.015625)"/>
       <path id="ArialMT-70" d="M 422 -1272 
L 422 3319 
L 934 3319 
L 934 2888 
Q 1116 3141 1344 3267 
Q 1572 3394 1897 3394 
Q 2322 3394 2647 3175 
Q 2972 2956 3137 2557 
Q 3303 2159 3303 1684 
Q 3303 1175 3120 767 
Q 2938 359 2589 142 
Q 2241 -75 1856 -75 
Q 1575 -75 1351 44 
Q 1128 163 984 344 
L 984 -1272 
L 422 -1272 
z
M 931 1641 
Q 931 1000 1190 694 
Q 1450 388 1819 388 
Q 2194 388 2461 705 
Q 2728 1022 2728 1688 
Q 2728 2322 2467 2637 
Q 2206 2953 1844 2953 
Q 1484 2953 1207 2617 
Q 931 2281 931 1641 
z
" transform="scale(0.015625)"/>
       <path id="ArialMT-6c" d="M 409 0 
L 409 4581 
L 972 4581 
L 972 0 
L 409 0 
z
" transform="scale(0.015625)"/>
       <path id="ArialMT-6f" d="M 213 1659 
Q 213 2581 725 3025 
Q 1153 3394 1769 3394 
Q 2453 3394 2887 2945 
Q 3322 2497 3322 1706 
Q 3322 1066 3130 698 
Q 2938 331 2570 128 
Q 2203 -75 1769 -75 
Q 1072 -75 642 372 
Q 213 819 213 1659 
z
M 791 1659 
Q 791 1022 1069 705 
Q 1347 388 1769 388 
Q 2188 388 2466 706 
Q 2744 1025 2744 1678 
Q 2744 2294 2464 2611 
Q 2184 2928 1769 2928 
Q 1347 2928 1069 2612 
Q 791 2297 791 1659 
z
" transform="scale(0.015625)"/>
       <path id="ArialMT-79" d="M 397 -1278 
L 334 -750 
Q 519 -800 656 -800 
Q 844 -800 956 -737 
Q 1069 -675 1141 -563 
Q 1194 -478 1313 -144 
Q 1328 -97 1363 -6 
L 103 3319 
L 709 3319 
L 1400 1397 
Q 1534 1031 1641 628 
Q 1738 1016 1872 1384 
L 2581 3319 
L 3144 3319 
L 1881 -56 
Q 1678 -603 1566 -809 
Q 1416 -1088 1222 -1217 
Q 1028 -1347 759 -1347 
Q 597 -1347 397 -1278 
z
" transform="scale(0.015625)"/>
       <path id="ArialMT-65" d="M 2694 1069 
L 3275 997 
Q 3138 488 2766 206 
Q 2394 -75 1816 -75 
Q 1088 -75 661 373 
Q 234 822 234 1631 
Q 234 2469 665 2931 
Q 1097 3394 1784 3394 
Q 2450 3394 2872 2941 
Q 3294 2488 3294 1666 
Q 3294 1616 3291 1516 
L 816 1516 
Q 847 969 1125 678 
Q 1403 388 1819 388 
Q 2128 388 2347 550 
Q 2566 713 2694 1069 
z
M 847 1978 
L 2700 1978 
Q 2663 2397 2488 2606 
Q 2219 2931 1791 2931 
Q 1403 2931 1139 2672 
Q 875 2413 847 1978 
z
" transform="scale(0.015625)"/>
       <path id="ArialMT-64" d="M 2575 0 
L 2575 419 
Q 2259 -75 1647 -75 
Q 1250 -75 917 144 
Q 584 363 401 755 
Q 219 1147 219 1656 
Q 219 2153 384 2558 
Q 550 2963 881 3178 
Q 1213 3394 1622 3394 
Q 1922 3394 2156 3267 
Q 2391 3141 2538 2938 
L 2538 4581 
L 3097 4581 
L 3097 0 
L 2575 0 
z
M 797 1656 
Q 797 1019 1065 703 
Q 1334 388 1700 388 
Q 2069 388 2326 689 
Q 2584 991 2584 1609 
Q 2584 2291 2321 2609 
Q 2059 2928 1675 2928 
Q 1300 2928 1048 2622 
Q 797 2316 797 1656 
z
" transform="scale(0.015625)"/>
      </defs>
      <use xlink:href="#ArialMT-45"/>
      <use xlink:href="#ArialMT-6d" x="66.699219"/>
      <use xlink:href="#ArialMT-70" x="150"/>
      <use xlink:href="#ArialMT-6c" x="205.615234"/>
      <use xlink:href="#ArialMT-6f" x="227.832031"/>
      <use xlink:href="#ArialMT-79" x="283.447266"/>
      <use xlink:href="#ArialMT-65" x="333.447266"/>
      <use xlink:href="#ArialMT-64" x="389.0625"/>
     </g>
    </g>
   </g>
   <g id="line2d_8">
    <path d="M 29.144661 237.123593 
L 30.304771 240.04778 
L 31.464882 242.885638 
L 32.624993 246.857617 
L 33.785104 248.173768 
L 34.945214 250.293201 
L 36.105325 250.959344 
L 37.265436 253.2204 
L 38.425547 254.762529 
L 39.585657 253.304566 
L 40.745768 254.257352 
L 41.905879 256.875452 
L 43.065989 259.780675 
L 44.2261 264.517693 
L 45.386211 266.454735 
L 46.546322 266.583663 
L 47.706432 265.272052 
L 48.866543 263.437935 
L 50.026654 264.467295 
L 51.186765 265.257337 
L 52.346875 265.02098 
L 53.506986 261.108181 
L 54.667097 257.566301 
L 55.827208 256.524646 
L 56.987318 258.781585 
L 58.147429 259.799268 
L 59.30754 258.519951 
L 60.467651 257.982663 
L 61.627761 256.056346 
L 62.787872 254.408601 
" clip-path="url(#p686051a772)" style="fill: none; stroke: #000000; stroke-width: 1.5; stroke-linecap: round"/>
   </g>
   <g id="line2d_9">
    <path d="M 27.4625 256.343372 
L 64.470033 256.343372 
" clip-path="url(#p686051a772)" style="fill: none; stroke: #0000ff; stroke-linecap: round"/>
   </g>
   <g id="patch_3">
    <path d="M 27.4625 334.180145 
L 27.4625 39.197355 
" style="fill: none; stroke: #ffffff; stroke-linejoin: miter; stroke-linecap: square"/>
   </g>
   <g id="patch_4">
    <path d="M 64.470033 334.180145 
L 64.470033 39.197355 
" style="fill: none; stroke: #ffffff; stroke-linejoin: miter; stroke-linecap: square"/>
   </g>
   <g id="patch_5">
    <path d="M 27.4625 334.180145 
L 64.470033 334.180145 
" style="fill: none; stroke: #ffffff; stroke-linejoin: miter; stroke-linecap: square"/>
   </g>
   <g id="patch_6">
    <path d="M 27.4625 39.197355 
L 64.470033 39.197355 
" style="fill: none; stroke: #ffffff; stroke-linejoin: miter; stroke-linecap: square"/>
   </g>
   <g id="text_4">
    <!-- Jan -->
    <g style="fill: #262626" transform="translate(36.293141 33.197355) scale(0.12 -0.12)">
     <defs>
      <path id="ArialMT-4a" d="M 184 1300 
L 731 1375 
Q 753 850 928 656 
Q 1103 463 1413 463 
Q 1641 463 1806 567 
Q 1972 672 2034 851 
Q 2097 1031 2097 1425 
L 2097 4581 
L 2703 4581 
L 2703 1459 
Q 2703 884 2564 568 
Q 2425 253 2123 87 
Q 1822 -78 1416 -78 
Q 813 -78 492 269 
Q 172 616 184 1300 
z
" transform="scale(0.015625)"/>
      <path id="ArialMT-61" d="M 2588 409 
Q 2275 144 1986 34 
Q 1697 -75 1366 -75 
Q 819 -75 525 192 
Q 231 459 231 875 
Q 231 1119 342 1320 
Q 453 1522 633 1644 
Q 813 1766 1038 1828 
Q 1203 1872 1538 1913 
Q 2219 1994 2541 2106 
Q 2544 2222 2544 2253 
Q 2544 2597 2384 2738 
Q 2169 2928 1744 2928 
Q 1347 2928 1158 2789 
Q 969 2650 878 2297 
L 328 2372 
Q 403 2725 575 2942 
Q 747 3159 1072 3276 
Q 1397 3394 1825 3394 
Q 2250 3394 2515 3294 
Q 2781 3194 2906 3042 
Q 3031 2891 3081 2659 
Q 3109 2516 3109 2141 
L 3109 1391 
Q 3109 606 3145 398 
Q 3181 191 3288 0 
L 2700 0 
Q 2613 175 2588 409 
z
M 2541 1666 
Q 2234 1541 1622 1453 
Q 1275 1403 1131 1340 
Q 988 1278 909 1158 
Q 831 1038 831 891 
Q 831 666 1001 516 
Q 1172 366 1500 366 
Q 1825 366 2078 508 
Q 2331 650 2450 897 
Q 2541 1088 2541 1459 
L 2541 1666 
z
" transform="scale(0.015625)"/>
      <path id="ArialMT-6e" d="M 422 0 
L 422 3319 
L 928 3319 
L 928 2847 
Q 1294 3394 1984 3394 
Q 2284 3394 2536 3286 
Q 2788 3178 2913 3003 
Q 3038 2828 3088 2588 
Q 3119 2431 3119 2041 
L 3119 0 
L 2556 0 
L 2556 2019 
Q 2556 2363 2490 2533 
Q 2425 2703 2258 2804 
Q 2091 2906 1866 2906 
Q 1506 2906 1245 2678 
Q 984 2450 984 1813 
L 984 0 
L 422 0 
z
" transform="scale(0.015625)"/>
     </defs>
     <use xlink:href="#ArialMT-4a"/>
     <use xlink:href="#ArialMT-61" x="50"/>
     <use xlink:href="#ArialMT-6e" x="105.615234"/>
    </g>
   </g>
  </g>
  <g id="axes_2">
   <g id="patch_7">
    <path d="M 74.063939 334.180145 
L 111.071471 334.180145 
L 111.071471 39.197355 
L 74.063939 39.197355 
z
" style="fill: #e5e5e5"/>
   </g>
   <g id="matplotlib.axis_3">
    <g id="xtick_3">
     <g id="line2d_10">
      <path d="M 87.347207 334.180145 
L 87.347207 39.197355 
" clip-path="url(#pe384ba4947)" style="fill: none; stroke: #ffffff; stroke-width: 0.8; stroke-linecap: round"/>
     </g>
     <g id="text_5">
      <!-- 2000 -->
      <g style="fill: #555555" transform="translate(89.673847 361.19952) rotate(-90) scale(0.09 -0.09)">
       <use xlink:href="#ArialMT-32"/>
       <use xlink:href="#ArialMT-30" x="55.615234"/>
       <use xlink:href="#ArialMT-30" x="111.230469"/>
       <use xlink:href="#ArialMT-30" x="166.845703"/>
      </g>
     </g>
    </g>
    <g id="xtick_4">
     <g id="line2d_11">
      <path d="M 110.549422 334.180145 
L 110.549422 39.197355 
" clip-path="url(#pe384ba4947)" style="fill: none; stroke: #ffffff; stroke-width: 0.8; stroke-linecap: round"/>
     </g>
     <g id="text_6">
      <!-- 2020 -->
      <g style="fill: #555555" transform="translate(112.876062 361.19952) rotate(-90) scale(0.09 -0.09)">
       <use xlink:href="#ArialMT-32"/>
       <use xlink:href="#ArialMT-30" x="55.615234"/>
       <use xlink:href="#ArialMT-32" x="111.230469"/>
       <use xlink:href="#ArialMT-30" x="166.845703"/>
      </g>
     </g>
    </g>
   </g>
   <g id="matplotlib.axis_4">
    <g id="ytick_6">
     <g id="line2d_12">
      <path d="M 74.063939 291.323089 
L 111.071471 291.323089 
" clip-path="url(#pe384ba4947)" style="fill: none; stroke: #ffffff; stroke-width: 0.8; stroke-linecap: round"/>
     </g>
    </g>
    <g id="ytick_7">
     <g id="line2d_13">
      <path d="M 74.063939 236.102007 
L 111.071471 236.102007 
" clip-path="url(#pe384ba4947)" style="fill: none; stroke: #ffffff; stroke-width: 0.8; stroke-linecap: round"/>
     </g>
    </g>
    <g id="ytick_8">
     <g id="line2d_14">
      <path d="M 74.063939 180.880925 
L 111.071471 180.880925 
" clip-path="url(#pe384ba4947)" style="fill: none; stroke: #ffffff; stroke-width: 0.8; stroke-linecap: round"/>
     </g>
    </g>
    <g id="ytick_9">
     <g id="line2d_15">
      <path d="M 74.063939 125.659843 
L 111.071471 125.659843 
" clip-path="url(#pe384ba4947)" style="fill: none; stroke: #ffffff; stroke-width: 0.8; stroke-linecap: round"/>
     </g>
    </g>
    <g id="ytick_10">
     <g id="line2d_16">
      <path d="M 74.063939 70.438761 
L 111.071471 70.438761 
" clip-path="url(#pe384ba4947)" style="fill: none; stroke: #ffffff; stroke-width: 0.8; stroke-linecap: round"/>
     </g>
    </g>
   </g>
   <g id="line2d_17">
    <path d="M 75.746099 315.730345 
L 76.90621 310.052059 
L 78.066321 305.206378 
L 79.226431 301.297104 
L 80.386542 301.80957 
L 81.546653 307.277411 
L 82.706764 311.493901 
L 83.866874 313.670294 
L 85.026985 313.286865 
L 86.187096 310.717881 
L 87.347207 309.088096 
L 88.507317 310.880113 
L 89.667428 312.660536 
L 90.827539 315.451257 
L 91.98765 316.164731 
L 93.14776 315.261965 
L 94.307871 314.316781 
L 95.467982 314.534503 
L 96.628093 316.017358 
L 97.788203 316.320151 
L 98.948314 316.33255 
L 100.108425 314.535758 
L 101.268536 314.846917 
L 102.428646 316.791343 
L 103.588757 317.301683 
L 104.748868 315.718057 
L 105.908979 311.458218 
L 107.069089 308.020883 
L 108.2292 304.407995 
L 109.389311 301.03237 
" clip-path="url(#pe384ba4947)" style="fill: none; stroke: #000000; stroke-width: 1.5; stroke-linecap: round"/>
   </g>
   <g id="line2d_18">
    <path d="M 74.063939 311.722769 
L 111.071471 311.722769 
" clip-path="url(#pe384ba4947)" style="fill: none; stroke: #0000ff; stroke-linecap: round"/>
   </g>
   <g id="patch_8">
    <path d="M 74.063939 334.180145 
L 74.063939 39.197355 
" style="fill: none; stroke: #ffffff; stroke-linejoin: miter; stroke-linecap: square"/>
   </g>
   <g id="patch_9">
    <path d="M 111.071471 334.180145 
L 111.071471 39.197355 
" style="fill: none; stroke: #ffffff; stroke-linejoin: miter; stroke-linecap: square"/>
   </g>
   <g id="patch_10">
    <path d="M 74.063939 334.180145 
L 111.071471 334.180145 
" style="fill: none; stroke: #ffffff; stroke-linejoin: miter; stroke-linecap: square"/>
   </g>
   <g id="patch_11">
    <path d="M 74.063939 39.197355 
L 111.071471 39.197355 
" style="fill: none; stroke: #ffffff; stroke-linejoin: miter; stroke-linecap: square"/>
   </g>
   <g id="text_7">
    <!-- Feb -->
    <g style="fill: #262626" transform="translate(82.229893 33.197355) scale(0.12 -0.12)">
     <defs>
      <path id="ArialMT-46" d="M 525 0 
L 525 4581 
L 3616 4581 
L 3616 4041 
L 1131 4041 
L 1131 2622 
L 3281 2622 
L 3281 2081 
L 1131 2081 
L 1131 0 
L 525 0 
z
" transform="scale(0.015625)"/>
      <path id="ArialMT-62" d="M 941 0 
L 419 0 
L 419 4581 
L 981 4581 
L 981 2947 
Q 1338 3394 1891 3394 
Q 2197 3394 2470 3270 
Q 2744 3147 2920 2923 
Q 3097 2700 3197 2384 
Q 3297 2069 3297 1709 
Q 3297 856 2875 390 
Q 2453 -75 1863 -75 
Q 1275 -75 941 416 
L 941 0 
z
M 934 1684 
Q 934 1088 1097 822 
Q 1363 388 1816 388 
Q 2184 388 2453 708 
Q 2722 1028 2722 1663 
Q 2722 2313 2464 2622 
Q 2206 2931 1841 2931 
Q 1472 2931 1203 2611 
Q 934 2291 934 1684 
z
" transform="scale(0.015625)"/>
     </defs>
     <use xlink:href="#ArialMT-46"/>
     <use xlink:href="#ArialMT-65" x="61.083984"/>
     <use xlink:href="#ArialMT-62" x="116.699219"/>
    </g>
   </g>
  </g>
  <g id="axes_3">
   <g id="patch_12">
    <path d="M 120.665377 334.180145 
L 157.67291 334.180145 
L 157.67291 39.197355 
L 120.665377 39.197355 
z
" style="fill: #e5e5e5"/>
   </g>
   <g id="matplotlib.axis_5">
    <g id="xtick_5">
     <g id="line2d_19">
      <path d="M 133.948645 334.180145 
L 133.948645 39.197355 
" clip-path="url(#pb798cf88a7)" style="fill: none; stroke: #ffffff; stroke-width: 0.8; stroke-linecap: round"/>
     </g>
     <g id="text_8">
      <!-- 2000 -->
      <g style="fill: #555555" transform="translate(136.275286 361.19952) rotate(-90) scale(0.09 -0.09)">
       <use xlink:href="#ArialMT-32"/>
       <use xlink:href="#ArialMT-30" x="55.615234"/>
       <use xlink:href="#ArialMT-30" x="111.230469"/>
       <use xlink:href="#ArialMT-30" x="166.845703"/>
      </g>
     </g>
    </g>
    <g id="xtick_6">
     <g id="line2d_20">
      <path d="M 157.15086 334.180145 
L 157.15086 39.197355 
" clip-path="url(#pb798cf88a7)" style="fill: none; stroke: #ffffff; stroke-width: 0.8; stroke-linecap: round"/>
     </g>
     <g id="text_9">
      <!-- 2020 -->
      <g style="fill: #555555" transform="translate(159.477501 361.19952) rotate(-90) scale(0.09 -0.09)">
       <use xlink:href="#ArialMT-32"/>
       <use xlink:href="#ArialMT-30" x="55.615234"/>
       <use xlink:href="#ArialMT-32" x="111.230469"/>
       <use xlink:href="#ArialMT-30" x="166.845703"/>
      </g>
     </g>
    </g>
   </g>
   <g id="matplotlib.axis_6">
    <g id="ytick_11">
     <g id="line2d_21">
      <path d="M 120.665377 291.323089 
L 157.67291 291.323089 
" clip-path="url(#pb798cf88a7)" style="fill: none; stroke: #ffffff; stroke-width: 0.8; stroke-linecap: round"/>
     </g>
    </g>
    <g id="ytick_12">
     <g id="line2d_22">
      <path d="M 120.665377 236.102007 
L 157.67291 236.102007 
" clip-path="url(#pb798cf88a7)" style="fill: none; stroke: #ffffff; stroke-width: 0.8; stroke-linecap: round"/>
     </g>
    </g>
    <g id="ytick_13">
     <g id="line2d_23">
      <path d="M 120.665377 180.880925 
L 157.67291 180.880925 
" clip-path="url(#pb798cf88a7)" style="fill: none; stroke: #ffffff; stroke-width: 0.8; stroke-linecap: round"/>
     </g>
    </g>
    <g id="ytick_14">
     <g id="line2d_24">
      <path d="M 120.665377 125.659843 
L 157.67291 125.659843 
" clip-path="url(#pb798cf88a7)" style="fill: none; stroke: #ffffff; stroke-width: 0.8; stroke-linecap: round"/>
     </g>
    </g>
    <g id="ytick_15">
     <g id="line2d_25">
      <path d="M 120.665377 70.438761 
L 157.67291 70.438761 
" clip-path="url(#pb798cf88a7)" style="fill: none; stroke: #ffffff; stroke-width: 0.8; stroke-linecap: round"/>
     </g>
    </g>
   </g>
   <g id="line2d_26">
    <path d="M 122.347538 320.771836 
L 123.507649 317.5133 
L 124.667759 314.746972 
L 125.82787 312.539353 
L 126.987981 313.227091 
L 128.148092 315.598811 
L 129.308202 318.111282 
L 130.468313 319.33073 
L 131.628424 318.159689 
L 132.788535 315.361126 
L 133.948645 310.944005 
L 135.108756 308.568709 
L 136.268867 307.100183 
L 137.428978 306.474127 
L 138.589088 305.198641 
L 139.749199 299.927921 
L 140.90931 294.932455 
L 142.069421 293.129618 
L 143.229531 294.965396 
L 144.389642 297.463577 
L 145.549753 300.21435 
L 146.709864 300.180334 
L 147.869974 303.354958 
L 149.030085 306.701675 
L 150.190196 306.357439 
L 151.350307 303.32524 
L 152.510417 299.628308 
L 153.670528 298.364421 
L 154.830639 297.440865 
L 155.990749 296.835038 
" clip-path="url(#pb798cf88a7)" style="fill: none; stroke: #000000; stroke-width: 1.5; stroke-linecap: round"/>
   </g>
   <g id="line2d_27">
    <path d="M 120.665377 306.548915 
L 157.67291 306.548915 
" clip-path="url(#pb798cf88a7)" style="fill: none; stroke: #0000ff; stroke-linecap: round"/>
   </g>
   <g id="patch_13">
    <path d="M 120.665377 334.180145 
L 120.665377 39.197355 
" style="fill: none; stroke: #ffffff; stroke-linejoin: miter; stroke-linecap: square"/>
   </g>
   <g id="patch_14">
    <path d="M 157.67291 334.180145 
L 157.67291 39.197355 
" style="fill: none; stroke: #ffffff; stroke-linejoin: miter; stroke-linecap: square"/>
   </g>
   <g id="patch_15">
    <path d="M 120.665377 334.180145 
L 157.67291 334.180145 
" style="fill: none; stroke: #ffffff; stroke-linejoin: miter; stroke-linecap: square"/>
   </g>
   <g id="patch_16">
    <path d="M 120.665377 39.197355 
L 157.67291 39.197355 
" style="fill: none; stroke: #ffffff; stroke-linejoin: miter; stroke-linecap: square"/>
   </g>
   <g id="text_10">
    <!-- Mar -->
    <g style="fill: #262626" transform="translate(128.836956 33.197355) scale(0.12 -0.12)">
     <defs>
      <path id="ArialMT-4d" d="M 475 0 
L 475 4581 
L 1388 4581 
L 2472 1338 
Q 2622 884 2691 659 
Q 2769 909 2934 1394 
L 4031 4581 
L 4847 4581 
L 4847 0 
L 4263 0 
L 4263 3834 
L 2931 0 
L 2384 0 
L 1059 3900 
L 1059 0 
L 475 0 
z
" transform="scale(0.015625)"/>
      <path id="ArialMT-72" d="M 416 0 
L 416 3319 
L 922 3319 
L 922 2816 
Q 1116 3169 1280 3281 
Q 1444 3394 1641 3394 
Q 1925 3394 2219 3213 
L 2025 2691 
Q 1819 2813 1613 2813 
Q 1428 2813 1281 2702 
Q 1134 2591 1072 2394 
Q 978 2094 978 1738 
L 978 0 
L 416 0 
z
" transform="scale(0.015625)"/>
     </defs>
     <use xlink:href="#ArialMT-4d"/>
     <use xlink:href="#ArialMT-61" x="83.300781"/>
     <use xlink:href="#ArialMT-72" x="138.916016"/>
    </g>
   </g>
  </g>
  <g id="axes_4">
   <g id="patch_17">
    <path d="M 167.266816 334.180145 
L 204.274349 334.180145 
L 204.274349 39.197355 
L 167.266816 39.197355 
z
" style="fill: #e5e5e5"/>
   </g>
   <g id="matplotlib.axis_7">
    <g id="xtick_7">
     <g id="line2d_28">
      <path d="M 180.550084 334.180145 
L 180.550084 39.197355 
" clip-path="url(#pa14001c03a)" style="fill: none; stroke: #ffffff; stroke-width: 0.8; stroke-linecap: round"/>
     </g>
     <g id="text_11">
      <!-- 2000 -->
      <g style="fill: #555555" transform="translate(182.876725 361.19952) rotate(-90) scale(0.09 -0.09)">
       <use xlink:href="#ArialMT-32"/>
       <use xlink:href="#ArialMT-30" x="55.615234"/>
       <use xlink:href="#ArialMT-30" x="111.230469"/>
       <use xlink:href="#ArialMT-30" x="166.845703"/>
      </g>
     </g>
    </g>
    <g id="xtick_8">
     <g id="line2d_29">
      <path d="M 203.752299 334.180145 
L 203.752299 39.197355 
" clip-path="url(#pa14001c03a)" style="fill: none; stroke: #ffffff; stroke-width: 0.8; stroke-linecap: round"/>
     </g>
     <g id="text_12">
      <!-- 2020 -->
      <g style="fill: #555555" transform="translate(206.07894 361.19952) rotate(-90) scale(0.09 -0.09)">
       <use xlink:href="#ArialMT-32"/>
       <use xlink:href="#ArialMT-30" x="55.615234"/>
       <use xlink:href="#ArialMT-32" x="111.230469"/>
       <use xlink:href="#ArialMT-30" x="166.845703"/>
      </g>
     </g>
    </g>
   </g>
   <g id="matplotlib.axis_8">
    <g id="ytick_16">
     <g id="line2d_30">
      <path d="M 167.266816 291.323089 
L 204.274349 291.323089 
" clip-path="url(#pa14001c03a)" style="fill: none; stroke: #ffffff; stroke-width: 0.8; stroke-linecap: round"/>
     </g>
    </g>
    <g id="ytick_17">
     <g id="line2d_31">
      <path d="M 167.266816 236.102007 
L 204.274349 236.102007 
" clip-path="url(#pa14001c03a)" style="fill: none; stroke: #ffffff; stroke-width: 0.8; stroke-linecap: round"/>
     </g>
    </g>
    <g id="ytick_18">
     <g id="line2d_32">
      <path d="M 167.266816 180.880925 
L 204.274349 180.880925 
" clip-path="url(#pa14001c03a)" style="fill: none; stroke: #ffffff; stroke-width: 0.8; stroke-linecap: round"/>
     </g>
    </g>
    <g id="ytick_19">
     <g id="line2d_33">
      <path d="M 167.266816 125.659843 
L 204.274349 125.659843 
" clip-path="url(#pa14001c03a)" style="fill: none; stroke: #ffffff; stroke-width: 0.8; stroke-linecap: round"/>
     </g>
    </g>
    <g id="ytick_20">
     <g id="line2d_34">
      <path d="M 167.266816 70.438761 
L 204.274349 70.438761 
" clip-path="url(#pa14001c03a)" style="fill: none; stroke: #ffffff; stroke-width: 0.8; stroke-linecap: round"/>
     </g>
    </g>
   </g>
   <g id="line2d_35">
    <path d="M 168.948977 301.200823 
L 170.109087 298.146896 
L 171.269198 295.700435 
L 172.429309 292.661956 
L 173.58942 293.075308 
L 174.74953 297.325836 
L 175.909641 300.283344 
L 177.069752 301.349017 
L 178.229863 297.092201 
L 179.389973 293.054438 
L 180.550084 291.919427 
L 181.710195 291.123509 
L 182.870306 291.153987 
L 184.030416 287.554771 
L 185.190527 284.65727 
L 186.350638 283.672166 
L 187.510749 284.239041 
L 188.670859 287.074791 
L 189.83097 288.702689 
L 190.991081 286.134482 
L 192.151192 281.863314 
L 193.311302 278.122937 
L 194.471413 279.553696 
L 195.631524 283.199985 
L 196.791634 284.740617 
L 197.951745 283.317607 
L 199.111856 281.640402 
L 200.271967 281.192724 
L 201.432077 281.073394 
L 202.592188 280.998002 
" clip-path="url(#pa14001c03a)" style="fill: none; stroke: #000000; stroke-width: 1.5; stroke-linecap: round"/>
   </g>
   <g id="line2d_36">
    <path d="M 167.266816 288.727502 
L 204.274349 288.727502 
" clip-path="url(#pa14001c03a)" style="fill: none; stroke: #0000ff; stroke-linecap: round"/>
   </g>
   <g id="patch_18">
    <path d="M 167.266816 334.180145 
L 167.266816 39.197355 
" style="fill: none; stroke: #ffffff; stroke-linejoin: miter; stroke-linecap: square"/>
   </g>
   <g id="patch_19">
    <path d="M 204.274349 334.180145 
L 204.274349 39.197355 
" style="fill: none; stroke: #ffffff; stroke-linejoin: miter; stroke-linecap: square"/>
   </g>
   <g id="patch_20">
    <path d="M 167.266816 334.180145 
L 204.274349 334.180145 
" style="fill: none; stroke: #ffffff; stroke-linejoin: miter; stroke-linecap: square"/>
   </g>
   <g id="patch_21">
    <path d="M 167.266816 39.197355 
L 204.274349 39.197355 
" style="fill: none; stroke: #ffffff; stroke-linejoin: miter; stroke-linecap: square"/>
   </g>
   <g id="text_13">
    <!-- Apr -->
    <g style="fill: #262626" transform="translate(176.43402 33.197355) scale(0.12 -0.12)">
     <defs>
      <path id="ArialMT-41" d="M -9 0 
L 1750 4581 
L 2403 4581 
L 4278 0 
L 3588 0 
L 3053 1388 
L 1138 1388 
L 634 0 
L -9 0 
z
M 1313 1881 
L 2866 1881 
L 2388 3150 
Q 2169 3728 2063 4100 
Q 1975 3659 1816 3225 
L 1313 1881 
z
" transform="scale(0.015625)"/>
     </defs>
     <use xlink:href="#ArialMT-41"/>
     <use xlink:href="#ArialMT-70" x="66.699219"/>
     <use xlink:href="#ArialMT-72" x="122.314453"/>
    </g>
   </g>
  </g>
  <g id="axes_5">
   <g id="patch_22">
    <path d="M 213.868255 334.180145 
L 250.875787 334.180145 
L 250.875787 39.197355 
L 213.868255 39.197355 
z
" style="fill: #e5e5e5"/>
   </g>
   <g id="matplotlib.axis_9">
    <g id="xtick_9">
     <g id="line2d_37">
      <path d="M 227.151523 334.180145 
L 227.151523 39.197355 
" clip-path="url(#p6bfe7c2a87)" style="fill: none; stroke: #ffffff; stroke-width: 0.8; stroke-linecap: round"/>
     </g>
     <g id="text_14">
      <!-- 2000 -->
      <g style="fill: #555555" transform="translate(229.478163 361.19952) rotate(-90) scale(0.09 -0.09)">
       <use xlink:href="#ArialMT-32"/>
       <use xlink:href="#ArialMT-30" x="55.615234"/>
       <use xlink:href="#ArialMT-30" x="111.230469"/>
       <use xlink:href="#ArialMT-30" x="166.845703"/>
      </g>
     </g>
    </g>
    <g id="xtick_10">
     <g id="line2d_38">
      <path d="M 250.353738 334.180145 
L 250.353738 39.197355 
" clip-path="url(#p6bfe7c2a87)" style="fill: none; stroke: #ffffff; stroke-width: 0.8; stroke-linecap: round"/>
     </g>
     <g id="text_15">
      <!-- 2020 -->
      <g style="fill: #555555" transform="translate(252.680378 361.19952) rotate(-90) scale(0.09 -0.09)">
       <use xlink:href="#ArialMT-32"/>
       <use xlink:href="#ArialMT-30" x="55.615234"/>
       <use xlink:href="#ArialMT-32" x="111.230469"/>
       <use xlink:href="#ArialMT-30" x="166.845703"/>
      </g>
     </g>
    </g>
   </g>
   <g id="matplotlib.axis_10">
    <g id="ytick_21">
     <g id="line2d_39">
      <path d="M 213.868255 291.323089 
L 250.875787 291.323089 
" clip-path="url(#p6bfe7c2a87)" style="fill: none; stroke: #ffffff; stroke-width: 0.8; stroke-linecap: round"/>
     </g>
    </g>
    <g id="ytick_22">
     <g id="line2d_40">
      <path d="M 213.868255 236.102007 
L 250.875787 236.102007 
" clip-path="url(#p6bfe7c2a87)" style="fill: none; stroke: #ffffff; stroke-width: 0.8; stroke-linecap: round"/>
     </g>
    </g>
    <g id="ytick_23">
     <g id="line2d_41">
      <path d="M 213.868255 180.880925 
L 250.875787 180.880925 
" clip-path="url(#p6bfe7c2a87)" style="fill: none; stroke: #ffffff; stroke-width: 0.8; stroke-linecap: round"/>
     </g>
    </g>
    <g id="ytick_24">
     <g id="line2d_42">
      <path d="M 213.868255 125.659843 
L 250.875787 125.659843 
" clip-path="url(#p6bfe7c2a87)" style="fill: none; stroke: #ffffff; stroke-width: 0.8; stroke-linecap: round"/>
     </g>
    </g>
    <g id="ytick_25">
     <g id="line2d_43">
      <path d="M 213.868255 70.438761 
L 250.875787 70.438761 
" clip-path="url(#p6bfe7c2a87)" style="fill: none; stroke: #ffffff; stroke-width: 0.8; stroke-linecap: round"/>
     </g>
    </g>
   </g>
   <g id="line2d_44">
    <path d="M 215.550415 267.96424 
L 216.710526 267.23604 
L 217.870637 267.102188 
L 219.030748 266.471101 
L 220.190858 266.911248 
L 221.350969 268.434256 
L 222.51108 268.687267 
L 223.671191 267.65645 
L 224.831301 267.077981 
L 225.991412 267.180731 
L 227.151523 266.809699 
L 228.311634 265.820999 
L 229.471744 262.750122 
L 230.631855 258.00713 
L 231.791966 256.1943 
L 232.952076 255.797252 
L 234.112187 256.278913 
L 235.272298 257.818226 
L 236.432409 256.601926 
L 237.592519 254.386128 
L 238.75263 252.20999 
L 239.912741 251.255051 
L 241.072852 254.747462 
L 242.232962 257.967654 
L 243.393073 258.916427 
L 244.553184 258.422082 
L 245.713295 256.563863 
L 246.873405 256.193397 
L 248.033516 256.78707 
L 249.193627 257.212394 
" clip-path="url(#p6bfe7c2a87)" style="fill: none; stroke: #000000; stroke-width: 1.5; stroke-linecap: round"/>
   </g>
   <g id="line2d_45">
    <path d="M 213.868255 260.84872 
L 250.875787 260.84872 
" clip-path="url(#p6bfe7c2a87)" style="fill: none; stroke: #0000ff; stroke-linecap: round"/>
   </g>
   <g id="patch_23">
    <path d="M 213.868255 334.180145 
L 213.868255 39.197355 
" style="fill: none; stroke: #ffffff; stroke-linejoin: miter; stroke-linecap: square"/>
   </g>
   <g id="patch_24">
    <path d="M 250.875787 334.180145 
L 250.875787 39.197355 
" style="fill: none; stroke: #ffffff; stroke-linejoin: miter; stroke-linecap: square"/>
   </g>
   <g id="patch_25">
    <path d="M 213.868255 334.180145 
L 250.875787 334.180145 
" style="fill: none; stroke: #ffffff; stroke-linejoin: miter; stroke-linecap: square"/>
   </g>
   <g id="patch_26">
    <path d="M 213.868255 39.197355 
L 250.875787 39.197355 
" style="fill: none; stroke: #ffffff; stroke-linejoin: miter; stroke-linecap: square"/>
   </g>
   <g id="text_16">
    <!-- May -->
    <g style="fill: #262626" transform="translate(221.037646 33.197355) scale(0.12 -0.12)">
     <use xlink:href="#ArialMT-4d"/>
     <use xlink:href="#ArialMT-61" x="83.300781"/>
     <use xlink:href="#ArialMT-79" x="138.916016"/>
    </g>
   </g>
  </g>
  <g id="axes_6">
   <g id="patch_27">
    <path d="M 260.469693 334.180145 
L 297.477226 334.180145 
L 297.477226 39.197355 
L 260.469693 39.197355 
z
" style="fill: #e5e5e5"/>
   </g>
   <g id="matplotlib.axis_11">
    <g id="xtick_11">
     <g id="line2d_46">
      <path d="M 273.752961 334.180145 
L 273.752961 39.197355 
" clip-path="url(#pb2acb6d952)" style="fill: none; stroke: #ffffff; stroke-width: 0.8; stroke-linecap: round"/>
     </g>
     <g id="text_17">
      <!-- 2000 -->
      <g style="fill: #555555" transform="translate(276.079602 361.19952) rotate(-90) scale(0.09 -0.09)">
       <use xlink:href="#ArialMT-32"/>
       <use xlink:href="#ArialMT-30" x="55.615234"/>
       <use xlink:href="#ArialMT-30" x="111.230469"/>
       <use xlink:href="#ArialMT-30" x="166.845703"/>
      </g>
     </g>
    </g>
    <g id="xtick_12">
     <g id="line2d_47">
      <path d="M 296.955176 334.180145 
L 296.955176 39.197355 
" clip-path="url(#pb2acb6d952)" style="fill: none; stroke: #ffffff; stroke-width: 0.8; stroke-linecap: round"/>
     </g>
     <g id="text_18">
      <!-- 2020 -->
      <g style="fill: #555555" transform="translate(299.281817 361.19952) rotate(-90) scale(0.09 -0.09)">
       <use xlink:href="#ArialMT-32"/>
       <use xlink:href="#ArialMT-30" x="55.615234"/>
       <use xlink:href="#ArialMT-32" x="111.230469"/>
       <use xlink:href="#ArialMT-30" x="166.845703"/>
      </g>
     </g>
    </g>
   </g>
   <g id="matplotlib.axis_12">
    <g id="ytick_26">
     <g id="line2d_48">
      <path d="M 260.469693 291.323089 
L 297.477226 291.323089 
" clip-path="url(#pb2acb6d952)" style="fill: none; stroke: #ffffff; stroke-width: 0.8; stroke-linecap: round"/>
     </g>
    </g>
    <g id="ytick_27">
     <g id="line2d_49">
      <path d="M 260.469693 236.102007 
L 297.477226 236.102007 
" clip-path="url(#pb2acb6d952)" style="fill: none; stroke: #ffffff; stroke-width: 0.8; stroke-linecap: round"/>
     </g>
    </g>
    <g id="ytick_28">
     <g id="line2d_50">
      <path d="M 260.469693 180.880925 
L 297.477226 180.880925 
" clip-path="url(#pb2acb6d952)" style="fill: none; stroke: #ffffff; stroke-width: 0.8; stroke-linecap: round"/>
     </g>
    </g>
    <g id="ytick_29">
     <g id="line2d_51">
      <path d="M 260.469693 125.659843 
L 297.477226 125.659843 
" clip-path="url(#pb2acb6d952)" style="fill: none; stroke: #ffffff; stroke-width: 0.8; stroke-linecap: round"/>
     </g>
    </g>
    <g id="ytick_30">
     <g id="line2d_52">
      <path d="M 260.469693 70.438761 
L 297.477226 70.438761 
" clip-path="url(#pb2acb6d952)" style="fill: none; stroke: #ffffff; stroke-width: 0.8; stroke-linecap: round"/>
     </g>
    </g>
   </g>
   <g id="line2d_53">
    <path d="M 262.151854 241.284268 
L 263.311965 241.533375 
L 264.472076 242.188359 
L 265.632186 242.356394 
L 266.792297 242.522758 
L 267.952408 243.863496 
L 269.112518 244.577314 
L 270.272629 245.002871 
L 271.43274 245.933241 
L 272.592851 245.662362 
L 273.752961 243.584467 
L 274.913072 241.844194 
L 276.073183 239.144446 
L 277.233294 235.6498 
L 278.393404 234.711178 
L 279.553515 235.327666 
L 280.713626 237.07741 
L 281.873737 238.13462 
L 283.033847 236.452568 
L 284.193958 233.566584 
L 285.354069 232.913328 
L 286.51418 234.927325 
L 287.67429 237.309419 
L 288.834401 238.424908 
L 289.994512 236.962114 
L 291.154623 234.823973 
L 292.314733 234.076808 
L 293.474844 234.684079 
L 294.634955 235.603073 
L 295.795066 236.551589 
" clip-path="url(#pb2acb6d952)" style="fill: none; stroke: #000000; stroke-width: 1.5; stroke-linecap: round"/>
   </g>
   <g id="line2d_54">
    <path d="M 260.469693 238.8898 
L 297.477226 238.8898 
" clip-path="url(#pb2acb6d952)" style="fill: none; stroke: #0000ff; stroke-linecap: round"/>
   </g>
   <g id="patch_28">
    <path d="M 260.469693 334.180145 
L 260.469693 39.197355 
" style="fill: none; stroke: #ffffff; stroke-linejoin: miter; stroke-linecap: square"/>
   </g>
   <g id="patch_29">
    <path d="M 297.477226 334.180145 
L 297.477226 39.197355 
" style="fill: none; stroke: #ffffff; stroke-linejoin: miter; stroke-linecap: square"/>
   </g>
   <g id="patch_30">
    <path d="M 260.469693 334.180145 
L 297.477226 334.180145 
" style="fill: none; stroke: #ffffff; stroke-linejoin: miter; stroke-linecap: square"/>
   </g>
   <g id="patch_31">
    <path d="M 260.469693 39.197355 
L 297.477226 39.197355 
" style="fill: none; stroke: #ffffff; stroke-linejoin: miter; stroke-linecap: square"/>
   </g>
   <g id="text_19">
    <!-- Jun -->
    <g style="fill: #262626" transform="translate(269.300335 33.197355) scale(0.12 -0.12)">
     <defs>
      <path id="ArialMT-75" d="M 2597 0 
L 2597 488 
Q 2209 -75 1544 -75 
Q 1250 -75 995 37 
Q 741 150 617 320 
Q 494 491 444 738 
Q 409 903 409 1263 
L 409 3319 
L 972 3319 
L 972 1478 
Q 972 1038 1006 884 
Q 1059 663 1231 536 
Q 1403 409 1656 409 
Q 1909 409 2131 539 
Q 2353 669 2445 892 
Q 2538 1116 2538 1541 
L 2538 3319 
L 3100 3319 
L 3100 0 
L 2597 0 
z
" transform="scale(0.015625)"/>
     </defs>
     <use xlink:href="#ArialMT-4a"/>
     <use xlink:href="#ArialMT-75" x="50"/>
     <use xlink:href="#ArialMT-6e" x="105.615234"/>
    </g>
   </g>
  </g>
  <g id="axes_7">
   <g id="patch_32">
    <path d="M 307.071132 334.180145 
L 344.078665 334.180145 
L 344.078665 39.197355 
L 307.071132 39.197355 
z
" style="fill: #e5e5e5"/>
   </g>
   <g id="matplotlib.axis_13">
    <g id="xtick_13">
     <g id="line2d_55">
      <path d="M 320.3544 334.180145 
L 320.3544 39.197355 
" clip-path="url(#p55a1cb37fc)" style="fill: none; stroke: #ffffff; stroke-width: 0.8; stroke-linecap: round"/>
     </g>
     <g id="text_20">
      <!-- 2000 -->
      <g style="fill: #555555" transform="translate(322.681041 361.19952) rotate(-90) scale(0.09 -0.09)">
       <use xlink:href="#ArialMT-32"/>
       <use xlink:href="#ArialMT-30" x="55.615234"/>
       <use xlink:href="#ArialMT-30" x="111.230469"/>
       <use xlink:href="#ArialMT-30" x="166.845703"/>
      </g>
     </g>
    </g>
    <g id="xtick_14">
     <g id="line2d_56">
      <path d="M 343.556615 334.180145 
L 343.556615 39.197355 
" clip-path="url(#p55a1cb37fc)" style="fill: none; stroke: #ffffff; stroke-width: 0.8; stroke-linecap: round"/>
     </g>
     <g id="text_21">
      <!-- 2020 -->
      <g style="fill: #555555" transform="translate(345.883256 361.19952) rotate(-90) scale(0.09 -0.09)">
       <use xlink:href="#ArialMT-32"/>
       <use xlink:href="#ArialMT-30" x="55.615234"/>
       <use xlink:href="#ArialMT-32" x="111.230469"/>
       <use xlink:href="#ArialMT-30" x="166.845703"/>
      </g>
     </g>
    </g>
   </g>
   <g id="matplotlib.axis_14">
    <g id="ytick_31">
     <g id="line2d_57">
      <path d="M 307.071132 291.323089 
L 344.078665 291.323089 
" clip-path="url(#p55a1cb37fc)" style="fill: none; stroke: #ffffff; stroke-width: 0.8; stroke-linecap: round"/>
     </g>
    </g>
    <g id="ytick_32">
     <g id="line2d_58">
      <path d="M 307.071132 236.102007 
L 344.078665 236.102007 
" clip-path="url(#p55a1cb37fc)" style="fill: none; stroke: #ffffff; stroke-width: 0.8; stroke-linecap: round"/>
     </g>
    </g>
    <g id="ytick_33">
     <g id="line2d_59">
      <path d="M 307.071132 180.880925 
L 344.078665 180.880925 
" clip-path="url(#p55a1cb37fc)" style="fill: none; stroke: #ffffff; stroke-width: 0.8; stroke-linecap: round"/>
     </g>
    </g>
    <g id="ytick_34">
     <g id="line2d_60">
      <path d="M 307.071132 125.659843 
L 344.078665 125.659843 
" clip-path="url(#p55a1cb37fc)" style="fill: none; stroke: #ffffff; stroke-width: 0.8; stroke-linecap: round"/>
     </g>
    </g>
    <g id="ytick_35">
     <g id="line2d_61">
      <path d="M 307.071132 70.438761 
L 344.078665 70.438761 
" clip-path="url(#p55a1cb37fc)" style="fill: none; stroke: #ffffff; stroke-width: 0.8; stroke-linecap: round"/>
     </g>
    </g>
   </g>
   <g id="line2d_62">
    <path d="M 308.753293 239.92982 
L 309.913403 240.948708 
L 311.073514 242.145649 
L 312.233625 243.047244 
L 313.393736 242.978976 
L 314.553846 244.038812 
L 315.713957 244.832999 
L 316.874068 244.162639 
L 318.034179 244.69273 
L 319.194289 246.773271 
L 320.3544 248.250179 
L 321.514511 248.886 
L 322.674622 247.967397 
L 323.834732 243.339359 
L 324.994843 240.385124 
L 326.154954 239.819175 
L 327.315065 238.581395 
L 328.475175 237.972228 
L 329.635286 236.603335 
L 330.795397 233.341295 
L 331.955508 233.503417 
L 333.115618 235.604268 
L 334.275729 236.001549 
L 335.43584 236.246352 
L 336.595951 233.861114 
L 337.756061 231.849385 
L 338.916172 231.914929 
L 340.076283 232.110409 
L 341.236394 232.522092 
L 342.396504 232.867804 
" clip-path="url(#p55a1cb37fc)" style="fill: none; stroke: #000000; stroke-width: 1.5; stroke-linecap: round"/>
   </g>
   <g id="line2d_63">
    <path d="M 307.071132 239.505922 
L 344.078665 239.505922 
" clip-path="url(#p55a1cb37fc)" style="fill: none; stroke: #0000ff; stroke-linecap: round"/>
   </g>
   <g id="patch_33">
    <path d="M 307.071132 334.180145 
L 307.071132 39.197355 
" style="fill: none; stroke: #ffffff; stroke-linejoin: miter; stroke-linecap: square"/>
   </g>
   <g id="patch_34">
    <path d="M 344.078665 334.180145 
L 344.078665 39.197355 
" style="fill: none; stroke: #ffffff; stroke-linejoin: miter; stroke-linecap: square"/>
   </g>
   <g id="patch_35">
    <path d="M 307.071132 334.180145 
L 344.078665 334.180145 
" style="fill: none; stroke: #ffffff; stroke-linejoin: miter; stroke-linecap: square"/>
   </g>
   <g id="patch_36">
    <path d="M 307.071132 39.197355 
L 344.078665 39.197355 
" style="fill: none; stroke: #ffffff; stroke-linejoin: miter; stroke-linecap: square"/>
   </g>
   <g id="text_22">
    <!-- Jul -->
    <g style="fill: #262626" transform="translate(317.905211 33.197355) scale(0.12 -0.12)">
     <use xlink:href="#ArialMT-4a"/>
     <use xlink:href="#ArialMT-75" x="50"/>
     <use xlink:href="#ArialMT-6c" x="105.615234"/>
    </g>
   </g>
  </g>
  <g id="axes_8">
   <g id="patch_37">
    <path d="M 353.672571 334.180145 
L 390.680104 334.180145 
L 390.680104 39.197355 
L 353.672571 39.197355 
z
" style="fill: #e5e5e5"/>
   </g>
   <g id="matplotlib.axis_15">
    <g id="xtick_15">
     <g id="line2d_64">
      <path d="M 366.955839 334.180145 
L 366.955839 39.197355 
" clip-path="url(#ped25fd018c)" style="fill: none; stroke: #ffffff; stroke-width: 0.8; stroke-linecap: round"/>
     </g>
     <g id="text_23">
      <!-- 2000 -->
      <g style="fill: #555555" transform="translate(369.282479 361.19952) rotate(-90) scale(0.09 -0.09)">
       <use xlink:href="#ArialMT-32"/>
       <use xlink:href="#ArialMT-30" x="55.615234"/>
       <use xlink:href="#ArialMT-30" x="111.230469"/>
       <use xlink:href="#ArialMT-30" x="166.845703"/>
      </g>
     </g>
    </g>
    <g id="xtick_16">
     <g id="line2d_65">
      <path d="M 390.158054 334.180145 
L 390.158054 39.197355 
" clip-path="url(#ped25fd018c)" style="fill: none; stroke: #ffffff; stroke-width: 0.8; stroke-linecap: round"/>
     </g>
     <g id="text_24">
      <!-- 2020 -->
      <g style="fill: #555555" transform="translate(392.484694 361.19952) rotate(-90) scale(0.09 -0.09)">
       <use xlink:href="#ArialMT-32"/>
       <use xlink:href="#ArialMT-30" x="55.615234"/>
       <use xlink:href="#ArialMT-32" x="111.230469"/>
       <use xlink:href="#ArialMT-30" x="166.845703"/>
      </g>
     </g>
    </g>
   </g>
   <g id="matplotlib.axis_16">
    <g id="ytick_36">
     <g id="line2d_66">
      <path d="M 353.672571 291.323089 
L 390.680104 291.323089 
" clip-path="url(#ped25fd018c)" style="fill: none; stroke: #ffffff; stroke-width: 0.8; stroke-linecap: round"/>
     </g>
    </g>
    <g id="ytick_37">
     <g id="line2d_67">
      <path d="M 353.672571 236.102007 
L 390.680104 236.102007 
" clip-path="url(#ped25fd018c)" style="fill: none; stroke: #ffffff; stroke-width: 0.8; stroke-linecap: round"/>
     </g>
    </g>
    <g id="ytick_38">
     <g id="line2d_68">
      <path d="M 353.672571 180.880925 
L 390.680104 180.880925 
" clip-path="url(#ped25fd018c)" style="fill: none; stroke: #ffffff; stroke-width: 0.8; stroke-linecap: round"/>
     </g>
    </g>
    <g id="ytick_39">
     <g id="line2d_69">
      <path d="M 353.672571 125.659843 
L 390.680104 125.659843 
" clip-path="url(#ped25fd018c)" style="fill: none; stroke: #ffffff; stroke-width: 0.8; stroke-linecap: round"/>
     </g>
    </g>
    <g id="ytick_40">
     <g id="line2d_70">
      <path d="M 353.672571 70.438761 
L 390.680104 70.438761 
" clip-path="url(#ped25fd018c)" style="fill: none; stroke: #ffffff; stroke-width: 0.8; stroke-linecap: round"/>
     </g>
    </g>
   </g>
   <g id="line2d_71">
    <path d="M 355.354731 234.472327 
L 356.514842 236.217949 
L 357.674953 237.903486 
L 358.835064 239.711235 
L 359.995174 239.949849 
L 361.155285 240.611453 
L 362.315396 241.696854 
L 363.475507 242.855278 
L 364.635617 244.618966 
L 365.795728 245.740351 
L 366.955839 245.544355 
L 368.11595 244.712852 
L 369.27606 243.485683 
L 370.436171 241.37688 
L 371.596282 239.027655 
L 372.756393 238.770028 
L 373.916503 236.456026 
L 375.076614 233.291071 
L 376.236725 230.321792 
L 377.396836 228.125325 
L 378.556946 231.32723 
L 379.717057 236.069162 
L 380.877168 238.03938 
L 382.037278 239.754297 
L 383.197389 239.231569 
L 384.3575 239.157114 
L 385.517611 239.580464 
L 386.677721 239.265179 
L 387.837832 239.398401 
L 388.997943 239.560167 
" clip-path="url(#ped25fd018c)" style="fill: none; stroke: #000000; stroke-width: 1.5; stroke-linecap: round"/>
   </g>
   <g id="line2d_72">
    <path d="M 353.672571 238.875746 
L 390.680104 238.875746 
" clip-path="url(#ped25fd018c)" style="fill: none; stroke: #0000ff; stroke-linecap: round"/>
   </g>
   <g id="patch_38">
    <path d="M 353.672571 334.180145 
L 353.672571 39.197355 
" style="fill: none; stroke: #ffffff; stroke-linejoin: miter; stroke-linecap: square"/>
   </g>
   <g id="patch_39">
    <path d="M 390.680104 334.180145 
L 390.680104 39.197355 
" style="fill: none; stroke: #ffffff; stroke-linejoin: miter; stroke-linecap: square"/>
   </g>
   <g id="patch_40">
    <path d="M 353.672571 334.180145 
L 390.680104 334.180145 
" style="fill: none; stroke: #ffffff; stroke-linejoin: miter; stroke-linecap: square"/>
   </g>
   <g id="patch_41">
    <path d="M 353.672571 39.197355 
L 390.680104 39.197355 
" style="fill: none; stroke: #ffffff; stroke-linejoin: miter; stroke-linecap: square"/>
   </g>
   <g id="text_25">
    <!-- Aug -->
    <g style="fill: #262626" transform="translate(361.501025 33.197355) scale(0.12 -0.12)">
     <defs>
      <path id="ArialMT-67" d="M 319 -275 
L 866 -356 
Q 900 -609 1056 -725 
Q 1266 -881 1628 -881 
Q 2019 -881 2231 -725 
Q 2444 -569 2519 -288 
Q 2563 -116 2559 434 
Q 2191 0 1641 0 
Q 956 0 581 494 
Q 206 988 206 1678 
Q 206 2153 378 2554 
Q 550 2956 876 3175 
Q 1203 3394 1644 3394 
Q 2231 3394 2613 2919 
L 2613 3319 
L 3131 3319 
L 3131 450 
Q 3131 -325 2973 -648 
Q 2816 -972 2473 -1159 
Q 2131 -1347 1631 -1347 
Q 1038 -1347 672 -1080 
Q 306 -813 319 -275 
z
M 784 1719 
Q 784 1066 1043 766 
Q 1303 466 1694 466 
Q 2081 466 2343 764 
Q 2606 1063 2606 1700 
Q 2606 2309 2336 2618 
Q 2066 2928 1684 2928 
Q 1309 2928 1046 2623 
Q 784 2319 784 1719 
z
" transform="scale(0.015625)"/>
     </defs>
     <use xlink:href="#ArialMT-41"/>
     <use xlink:href="#ArialMT-75" x="66.699219"/>
     <use xlink:href="#ArialMT-67" x="122.314453"/>
    </g>
   </g>
  </g>
  <g id="axes_9">
   <g id="patch_42">
    <path d="M 400.27401 334.180145 
L 437.281542 334.180145 
L 437.281542 39.197355 
L 400.27401 39.197355 
z
" style="fill: #e5e5e5"/>
   </g>
   <g id="matplotlib.axis_17">
    <g id="xtick_17">
     <g id="line2d_73">
      <path d="M 413.557278 334.180145 
L 413.557278 39.197355 
" clip-path="url(#p234b73b19e)" style="fill: none; stroke: #ffffff; stroke-width: 0.8; stroke-linecap: round"/>
     </g>
     <g id="text_26">
      <!-- 2000 -->
      <g style="fill: #555555" transform="translate(415.883918 361.19952) rotate(-90) scale(0.09 -0.09)">
       <use xlink:href="#ArialMT-32"/>
       <use xlink:href="#ArialMT-30" x="55.615234"/>
       <use xlink:href="#ArialMT-30" x="111.230469"/>
       <use xlink:href="#ArialMT-30" x="166.845703"/>
      </g>
     </g>
    </g>
    <g id="xtick_18">
     <g id="line2d_74">
      <path d="M 436.759492 334.180145 
L 436.759492 39.197355 
" clip-path="url(#p234b73b19e)" style="fill: none; stroke: #ffffff; stroke-width: 0.8; stroke-linecap: round"/>
     </g>
     <g id="text_27">
      <!-- 2020 -->
      <g style="fill: #555555" transform="translate(439.086133 361.19952) rotate(-90) scale(0.09 -0.09)">
       <use xlink:href="#ArialMT-32"/>
       <use xlink:href="#ArialMT-30" x="55.615234"/>
       <use xlink:href="#ArialMT-32" x="111.230469"/>
       <use xlink:href="#ArialMT-30" x="166.845703"/>
      </g>
     </g>
    </g>
   </g>
   <g id="matplotlib.axis_18">
    <g id="ytick_41">
     <g id="line2d_75">
      <path d="M 400.27401 291.323089 
L 437.281542 291.323089 
" clip-path="url(#p234b73b19e)" style="fill: none; stroke: #ffffff; stroke-width: 0.8; stroke-linecap: round"/>
     </g>
    </g>
    <g id="ytick_42">
     <g id="line2d_76">
      <path d="M 400.27401 236.102007 
L 437.281542 236.102007 
" clip-path="url(#p234b73b19e)" style="fill: none; stroke: #ffffff; stroke-width: 0.8; stroke-linecap: round"/>
     </g>
    </g>
    <g id="ytick_43">
     <g id="line2d_77">
      <path d="M 400.27401 180.880925 
L 437.281542 180.880925 
" clip-path="url(#p234b73b19e)" style="fill: none; stroke: #ffffff; stroke-width: 0.8; stroke-linecap: round"/>
     </g>
    </g>
    <g id="ytick_44">
     <g id="line2d_78">
      <path d="M 400.27401 125.659843 
L 437.281542 125.659843 
" clip-path="url(#p234b73b19e)" style="fill: none; stroke: #ffffff; stroke-width: 0.8; stroke-linecap: round"/>
     </g>
    </g>
    <g id="ytick_45">
     <g id="line2d_79">
      <path d="M 400.27401 70.438761 
L 437.281542 70.438761 
" clip-path="url(#p234b73b19e)" style="fill: none; stroke: #ffffff; stroke-width: 0.8; stroke-linecap: round"/>
     </g>
    </g>
   </g>
   <g id="line2d_80">
    <path d="M 401.95617 242.875603 
L 403.116281 244.487319 
L 404.276392 245.93114 
L 405.436502 247.354159 
L 406.596613 247.424179 
L 407.756724 248.967858 
L 408.916835 251.865815 
L 410.076945 254.894953 
L 411.237056 257.904784 
L 412.397167 258.903134 
L 413.557278 258.778796 
L 414.717388 257.89838 
L 415.877499 257.131994 
L 417.03761 258.998485 
L 418.19772 262.186671 
L 419.357831 266.735382 
L 420.517942 267.018231 
L 421.678053 262.998341 
L 422.838163 259.168636 
L 423.998274 257.92979 
L 425.158385 261.765653 
L 426.318496 266.034037 
L 427.478606 267.173435 
L 428.638717 268.69138 
L 429.798828 270.124815 
L 430.958939 272.101589 
L 432.119049 274.719468 
L 433.27916 275.882776 
L 434.439271 277.071854 
L 435.599382 278.353062 
" clip-path="url(#p234b73b19e)" style="fill: none; stroke: #000000; stroke-width: 1.5; stroke-linecap: round"/>
   </g>
   <g id="line2d_81">
    <path d="M 400.27401 260.712391 
L 437.281542 260.712391 
" clip-path="url(#p234b73b19e)" style="fill: none; stroke: #0000ff; stroke-linecap: round"/>
   </g>
   <g id="patch_43">
    <path d="M 400.27401 334.180145 
L 400.27401 39.197355 
" style="fill: none; stroke: #ffffff; stroke-linejoin: miter; stroke-linecap: square"/>
   </g>
   <g id="patch_44">
    <path d="M 437.281542 334.180145 
L 437.281542 39.197355 
" style="fill: none; stroke: #ffffff; stroke-linejoin: miter; stroke-linecap: square"/>
   </g>
   <g id="patch_45">
    <path d="M 400.27401 334.180145 
L 437.281542 334.180145 
" style="fill: none; stroke: #ffffff; stroke-linejoin: miter; stroke-linecap: square"/>
   </g>
   <g id="patch_46">
    <path d="M 400.27401 39.197355 
L 437.281542 39.197355 
" style="fill: none; stroke: #ffffff; stroke-linejoin: miter; stroke-linecap: square"/>
   </g>
   <g id="text_28">
    <!-- Sep -->
    <g style="fill: #262626" transform="translate(408.102463 33.197355) scale(0.12 -0.12)">
     <defs>
      <path id="ArialMT-53" d="M 288 1472 
L 859 1522 
Q 900 1178 1048 958 
Q 1197 738 1509 602 
Q 1822 466 2213 466 
Q 2559 466 2825 569 
Q 3091 672 3220 851 
Q 3350 1031 3350 1244 
Q 3350 1459 3225 1620 
Q 3100 1781 2813 1891 
Q 2628 1963 1997 2114 
Q 1366 2266 1113 2400 
Q 784 2572 623 2826 
Q 463 3081 463 3397 
Q 463 3744 659 4045 
Q 856 4347 1234 4503 
Q 1613 4659 2075 4659 
Q 2584 4659 2973 4495 
Q 3363 4331 3572 4012 
Q 3781 3694 3797 3291 
L 3216 3247 
Q 3169 3681 2898 3903 
Q 2628 4125 2100 4125 
Q 1550 4125 1298 3923 
Q 1047 3722 1047 3438 
Q 1047 3191 1225 3031 
Q 1400 2872 2139 2705 
Q 2878 2538 3153 2413 
Q 3553 2228 3743 1945 
Q 3934 1663 3934 1294 
Q 3934 928 3725 604 
Q 3516 281 3123 101 
Q 2731 -78 2241 -78 
Q 1619 -78 1198 103 
Q 778 284 539 648 
Q 300 1013 288 1472 
z
" transform="scale(0.015625)"/>
     </defs>
     <use xlink:href="#ArialMT-53"/>
     <use xlink:href="#ArialMT-65" x="66.699219"/>
     <use xlink:href="#ArialMT-70" x="122.314453"/>
    </g>
   </g>
  </g>
  <g id="axes_10">
   <g id="patch_47">
    <path d="M 449.308953 334.180145 
L 486.316485 334.180145 
L 486.316485 39.197355 
L 449.308953 39.197355 
z
" style="fill: #e5e5e5"/>
   </g>
   <g id="matplotlib.axis_19">
    <g id="xtick_19">
     <g id="line2d_82">
      <path d="M 450.991113 334.180145 
L 450.991113 39.197355 
" clip-path="url(#pc8ddfe1f5f)" style="fill: none; stroke: #ffffff; stroke-width: 0.8; stroke-linecap: round"/>
     </g>
     <g id="text_29">
      <!-- 1990 -->
      <g style="fill: #555555" transform="translate(453.317754 361.19952) rotate(-90) scale(0.09 -0.09)">
       <defs>
        <path id="ArialMT-31" d="M 2384 0 
L 1822 0 
L 1822 3584 
Q 1619 3391 1289 3197 
Q 959 3003 697 2906 
L 697 3450 
Q 1169 3672 1522 3987 
Q 1875 4303 2022 4600 
L 2384 4600 
L 2384 0 
z
" transform="scale(0.015625)"/>
        <path id="ArialMT-39" d="M 350 1059 
L 891 1109 
Q 959 728 1153 556 
Q 1347 384 1650 384 
Q 1909 384 2104 503 
Q 2300 622 2425 820 
Q 2550 1019 2634 1356 
Q 2719 1694 2719 2044 
Q 2719 2081 2716 2156 
Q 2547 1888 2255 1720 
Q 1963 1553 1622 1553 
Q 1053 1553 659 1965 
Q 266 2378 266 3053 
Q 266 3750 677 4175 
Q 1088 4600 1706 4600 
Q 2153 4600 2523 4359 
Q 2894 4119 3086 3673 
Q 3278 3228 3278 2384 
Q 3278 1506 3087 986 
Q 2897 466 2520 194 
Q 2144 -78 1638 -78 
Q 1100 -78 759 220 
Q 419 519 350 1059 
z
M 2653 3081 
Q 2653 3566 2395 3850 
Q 2138 4134 1775 4134 
Q 1400 4134 1122 3828 
Q 844 3522 844 3034 
Q 844 2597 1108 2323 
Q 1372 2050 1759 2050 
Q 2150 2050 2401 2323 
Q 2653 2597 2653 3081 
z
" transform="scale(0.015625)"/>
       </defs>
       <use xlink:href="#ArialMT-31"/>
       <use xlink:href="#ArialMT-39" x="55.615234"/>
       <use xlink:href="#ArialMT-39" x="111.230469"/>
       <use xlink:href="#ArialMT-30" x="166.845703"/>
      </g>
     </g>
    </g>
    <g id="xtick_20">
     <g id="line2d_83">
      <path d="M 463.006546 334.180145 
L 463.006546 39.197355 
" clip-path="url(#pc8ddfe1f5f)" style="fill: none; stroke: #ffffff; stroke-width: 0.8; stroke-linecap: round"/>
     </g>
     <g id="text_30">
      <!-- 2000 -->
      <g style="fill: #555555" transform="translate(465.333187 361.19952) rotate(-90) scale(0.09 -0.09)">
       <use xlink:href="#ArialMT-32"/>
       <use xlink:href="#ArialMT-30" x="55.615234"/>
       <use xlink:href="#ArialMT-30" x="111.230469"/>
       <use xlink:href="#ArialMT-30" x="166.845703"/>
      </g>
     </g>
    </g>
    <g id="xtick_21">
     <g id="line2d_84">
      <path d="M 475.021979 334.180145 
L 475.021979 39.197355 
" clip-path="url(#pc8ddfe1f5f)" style="fill: none; stroke: #ffffff; stroke-width: 0.8; stroke-linecap: round"/>
     </g>
     <g id="text_31">
      <!-- 2010 -->
      <g style="fill: #555555" transform="translate(477.348619 361.19952) rotate(-90) scale(0.09 -0.09)">
       <use xlink:href="#ArialMT-32"/>
       <use xlink:href="#ArialMT-30" x="55.615234"/>
       <use xlink:href="#ArialMT-31" x="111.230469"/>
       <use xlink:href="#ArialMT-30" x="166.845703"/>
      </g>
     </g>
    </g>
   </g>
   <g id="matplotlib.axis_20">
    <g id="ytick_46">
     <g id="line2d_85">
      <path d="M 449.308953 291.323089 
L 486.316485 291.323089 
" clip-path="url(#pc8ddfe1f5f)" style="fill: none; stroke: #ffffff; stroke-width: 0.8; stroke-linecap: round"/>
     </g>
    </g>
    <g id="ytick_47">
     <g id="line2d_86">
      <path d="M 449.308953 236.102007 
L 486.316485 236.102007 
" clip-path="url(#pc8ddfe1f5f)" style="fill: none; stroke: #ffffff; stroke-width: 0.8; stroke-linecap: round"/>
     </g>
    </g>
    <g id="ytick_48">
     <g id="line2d_87">
      <path d="M 449.308953 180.880925 
L 486.316485 180.880925 
" clip-path="url(#pc8ddfe1f5f)" style="fill: none; stroke: #ffffff; stroke-width: 0.8; stroke-linecap: round"/>
     </g>
    </g>
    <g id="ytick_49">
     <g id="line2d_88">
      <path d="M 449.308953 125.659843 
L 486.316485 125.659843 
" clip-path="url(#pc8ddfe1f5f)" style="fill: none; stroke: #ffffff; stroke-width: 0.8; stroke-linecap: round"/>
     </g>
    </g>
    <g id="ytick_50">
     <g id="line2d_89">
      <path d="M 449.308953 70.438761 
L 486.316485 70.438761 
" clip-path="url(#pc8ddfe1f5f)" style="fill: none; stroke: #ffffff; stroke-width: 0.8; stroke-linecap: round"/>
     </g>
    </g>
   </g>
   <g id="line2d_90">
    <path d="M 450.991113 219.290782 
L 452.192657 220.109882 
L 453.3942 220.837767 
L 454.595743 221.22583 
L 455.797286 219.20076 
L 456.99883 216.689787 
L 458.200373 216.044047 
L 459.401916 217.043018 
L 460.603459 219.660624 
L 461.805003 222.166815 
L 463.006546 222.512727 
L 464.208089 221.350895 
L 465.409633 220.486842 
L 466.611176 222.086091 
L 467.812719 225.811208 
L 469.014262 231.923777 
L 470.215806 234.865235 
L 471.417349 233.388485 
L 472.618892 232.037005 
L 473.820435 229.914786 
L 475.021979 231.97626 
L 476.223522 233.127127 
L 477.425065 231.453999 
L 478.626609 230.14189 
L 479.828152 228.944486 
L 481.029695 229.951391 
L 482.231238 234.483184 
L 483.432782 238.66987 
L 484.634325 243.037697 
" clip-path="url(#pc8ddfe1f5f)" style="fill: none; stroke: #000000; stroke-width: 1.5; stroke-linecap: round"/>
   </g>
   <g id="line2d_91">
    <path d="M 449.308953 226.497664 
L 486.316485 226.497664 
" clip-path="url(#pc8ddfe1f5f)" style="fill: none; stroke: #0000ff; stroke-linecap: round"/>
   </g>
   <g id="patch_48">
    <path d="M 449.308953 334.180145 
L 449.308953 39.197355 
" style="fill: none; stroke: #ffffff; stroke-linejoin: miter; stroke-linecap: square"/>
   </g>
   <g id="patch_49">
    <path d="M 486.316485 334.180145 
L 486.316485 39.197355 
" style="fill: none; stroke: #ffffff; stroke-linejoin: miter; stroke-linecap: square"/>
   </g>
   <g id="patch_50">
    <path d="M 449.308953 334.180145 
L 486.316485 334.180145 
" style="fill: none; stroke: #ffffff; stroke-linejoin: miter; stroke-linecap: square"/>
   </g>
   <g id="patch_51">
    <path d="M 449.308953 39.197355 
L 486.316485 39.197355 
" style="fill: none; stroke: #ffffff; stroke-linejoin: miter; stroke-linecap: square"/>
   </g>
   <g id="text_32">
    <!-- Oct -->
    <g style="fill: #262626" transform="translate(458.478969 33.197355) scale(0.12 -0.12)">
     <defs>
      <path id="ArialMT-4f" d="M 309 2231 
Q 309 3372 921 4017 
Q 1534 4663 2503 4663 
Q 3138 4663 3647 4359 
Q 4156 4056 4423 3514 
Q 4691 2972 4691 2284 
Q 4691 1588 4409 1038 
Q 4128 488 3612 205 
Q 3097 -78 2500 -78 
Q 1853 -78 1343 234 
Q 834 547 571 1087 
Q 309 1628 309 2231 
z
M 934 2222 
Q 934 1394 1379 917 
Q 1825 441 2497 441 
Q 3181 441 3623 922 
Q 4066 1403 4066 2288 
Q 4066 2847 3877 3264 
Q 3688 3681 3323 3911 
Q 2959 4141 2506 4141 
Q 1863 4141 1398 3698 
Q 934 3256 934 2222 
z
" transform="scale(0.015625)"/>
      <path id="ArialMT-63" d="M 2588 1216 
L 3141 1144 
Q 3050 572 2676 248 
Q 2303 -75 1759 -75 
Q 1078 -75 664 370 
Q 250 816 250 1647 
Q 250 2184 428 2587 
Q 606 2991 970 3192 
Q 1334 3394 1763 3394 
Q 2303 3394 2647 3120 
Q 2991 2847 3088 2344 
L 2541 2259 
Q 2463 2594 2264 2762 
Q 2066 2931 1784 2931 
Q 1359 2931 1093 2626 
Q 828 2322 828 1663 
Q 828 994 1084 691 
Q 1341 388 1753 388 
Q 2084 388 2306 591 
Q 2528 794 2588 1216 
z
" transform="scale(0.015625)"/>
      <path id="ArialMT-74" d="M 1650 503 
L 1731 6 
Q 1494 -44 1306 -44 
Q 1000 -44 831 53 
Q 663 150 594 308 
Q 525 466 525 972 
L 525 2881 
L 113 2881 
L 113 3319 
L 525 3319 
L 525 4141 
L 1084 4478 
L 1084 3319 
L 1650 3319 
L 1650 2881 
L 1084 2881 
L 1084 941 
Q 1084 700 1114 631 
Q 1144 563 1211 522 
Q 1278 481 1403 481 
Q 1497 481 1650 503 
z
" transform="scale(0.015625)"/>
     </defs>
     <use xlink:href="#ArialMT-4f"/>
     <use xlink:href="#ArialMT-63" x="77.783203"/>
     <use xlink:href="#ArialMT-74" x="127.783203"/>
    </g>
   </g>
  </g>
  <g id="axes_11">
   <g id="patch_52">
    <path d="M 494.75047 334.180145 
L 531.758003 334.180145 
L 531.758003 39.197355 
L 494.75047 39.197355 
z
" style="fill: #e5e5e5"/>
   </g>
   <g id="matplotlib.axis_21">
    <g id="xtick_22">
     <g id="line2d_92">
      <path d="M 496.432631 334.180145 
L 496.432631 39.197355 
" clip-path="url(#pf1e87b63c2)" style="fill: none; stroke: #ffffff; stroke-width: 0.8; stroke-linecap: round"/>
     </g>
     <g id="text_33">
      <!-- 1990 -->
      <g style="fill: #555555" transform="translate(498.759271 361.19952) rotate(-90) scale(0.09 -0.09)">
       <use xlink:href="#ArialMT-31"/>
       <use xlink:href="#ArialMT-39" x="55.615234"/>
       <use xlink:href="#ArialMT-39" x="111.230469"/>
       <use xlink:href="#ArialMT-30" x="166.845703"/>
      </g>
     </g>
    </g>
    <g id="xtick_23">
     <g id="line2d_93">
      <path d="M 508.448063 334.180145 
L 508.448063 39.197355 
" clip-path="url(#pf1e87b63c2)" style="fill: none; stroke: #ffffff; stroke-width: 0.8; stroke-linecap: round"/>
     </g>
     <g id="text_34">
      <!-- 2000 -->
      <g style="fill: #555555" transform="translate(510.774704 361.19952) rotate(-90) scale(0.09 -0.09)">
       <use xlink:href="#ArialMT-32"/>
       <use xlink:href="#ArialMT-30" x="55.615234"/>
       <use xlink:href="#ArialMT-30" x="111.230469"/>
       <use xlink:href="#ArialMT-30" x="166.845703"/>
      </g>
     </g>
    </g>
    <g id="xtick_24">
     <g id="line2d_94">
      <path d="M 520.463496 334.180145 
L 520.463496 39.197355 
" clip-path="url(#pf1e87b63c2)" style="fill: none; stroke: #ffffff; stroke-width: 0.8; stroke-linecap: round"/>
     </g>
     <g id="text_35">
      <!-- 2010 -->
      <g style="fill: #555555" transform="translate(522.790137 361.19952) rotate(-90) scale(0.09 -0.09)">
       <use xlink:href="#ArialMT-32"/>
       <use xlink:href="#ArialMT-30" x="55.615234"/>
       <use xlink:href="#ArialMT-31" x="111.230469"/>
       <use xlink:href="#ArialMT-30" x="166.845703"/>
      </g>
     </g>
    </g>
   </g>
   <g id="matplotlib.axis_22">
    <g id="ytick_51">
     <g id="line2d_95">
      <path d="M 494.75047 291.323089 
L 531.758003 291.323089 
" clip-path="url(#pf1e87b63c2)" style="fill: none; stroke: #ffffff; stroke-width: 0.8; stroke-linecap: round"/>
     </g>
    </g>
    <g id="ytick_52">
     <g id="line2d_96">
      <path d="M 494.75047 236.102007 
L 531.758003 236.102007 
" clip-path="url(#pf1e87b63c2)" style="fill: none; stroke: #ffffff; stroke-width: 0.8; stroke-linecap: round"/>
     </g>
    </g>
    <g id="ytick_53">
     <g id="line2d_97">
      <path d="M 494.75047 180.880925 
L 531.758003 180.880925 
" clip-path="url(#pf1e87b63c2)" style="fill: none; stroke: #ffffff; stroke-width: 0.8; stroke-linecap: round"/>
     </g>
    </g>
    <g id="ytick_54">
     <g id="line2d_98">
      <path d="M 494.75047 125.659843 
L 531.758003 125.659843 
" clip-path="url(#pf1e87b63c2)" style="fill: none; stroke: #ffffff; stroke-width: 0.8; stroke-linecap: round"/>
     </g>
    </g>
    <g id="ytick_55">
     <g id="line2d_99">
      <path d="M 494.75047 70.438761 
L 531.758003 70.438761 
" clip-path="url(#pf1e87b63c2)" style="fill: none; stroke: #ffffff; stroke-width: 0.8; stroke-linecap: round"/>
     </g>
    </g>
   </g>
   <g id="line2d_100">
    <path d="M 496.432631 142.354276 
L 497.634174 144.067877 
L 498.835717 144.771147 
L 500.03726 144.409533 
L 501.238804 136.476723 
L 502.440347 126.944838 
L 503.64189 122.505798 
L 504.843433 122.452388 
L 506.044977 123.408373 
L 507.24652 123.419406 
L 508.448063 121.635808 
L 509.649607 120.895463 
L 510.85115 123.983979 
L 512.052693 127.179281 
L 513.254236 128.299787 
L 514.45578 126.009674 
L 515.657323 123.748129 
L 516.858866 126.649859 
L 518.060409 132.278632 
L 519.261953 137.353341 
L 520.463496 135.782787 
L 521.665039 126.834391 
L 522.866583 118.491641 
L 524.068126 115.355149 
L 525.269669 118.766609 
L 526.471212 122.488737 
L 527.672756 118.949786 
L 528.874299 114.675626 
L 530.075842 109.358098 
" clip-path="url(#pf1e87b63c2)" style="fill: none; stroke: #000000; stroke-width: 1.5; stroke-linecap: round"/>
   </g>
   <g id="line2d_101">
    <path d="M 494.75047 126.880936 
L 531.758003 126.880936 
" clip-path="url(#pf1e87b63c2)" style="fill: none; stroke: #0000ff; stroke-linecap: round"/>
   </g>
   <g id="patch_53">
    <path d="M 494.75047 334.180145 
L 494.75047 39.197355 
" style="fill: none; stroke: #ffffff; stroke-linejoin: miter; stroke-linecap: square"/>
   </g>
   <g id="patch_54">
    <path d="M 531.758003 334.180145 
L 531.758003 39.197355 
" style="fill: none; stroke: #ffffff; stroke-linejoin: miter; stroke-linecap: square"/>
   </g>
   <g id="patch_55">
    <path d="M 494.75047 334.180145 
L 531.758003 334.180145 
" style="fill: none; stroke: #ffffff; stroke-linejoin: miter; stroke-linecap: square"/>
   </g>
   <g id="patch_56">
    <path d="M 494.75047 39.197355 
L 531.758003 39.197355 
" style="fill: none; stroke: #ffffff; stroke-linejoin: miter; stroke-linecap: square"/>
   </g>
   <g id="text_36">
    <!-- Nov -->
    <g style="fill: #262626" transform="translate(502.584549 33.197355) scale(0.12 -0.12)">
     <defs>
      <path id="ArialMT-4e" d="M 488 0 
L 488 4581 
L 1109 4581 
L 3516 984 
L 3516 4581 
L 4097 4581 
L 4097 0 
L 3475 0 
L 1069 3600 
L 1069 0 
L 488 0 
z
" transform="scale(0.015625)"/>
      <path id="ArialMT-76" d="M 1344 0 
L 81 3319 
L 675 3319 
L 1388 1331 
Q 1503 1009 1600 663 
Q 1675 925 1809 1294 
L 2547 3319 
L 3125 3319 
L 1869 0 
L 1344 0 
z
" transform="scale(0.015625)"/>
     </defs>
     <use xlink:href="#ArialMT-4e"/>
     <use xlink:href="#ArialMT-6f" x="72.216797"/>
     <use xlink:href="#ArialMT-76" x="127.832031"/>
    </g>
   </g>
  </g>
  <g id="axes_12">
   <g id="patch_57">
    <path d="M 540.191987 334.180145 
L 577.19952 334.180145 
L 577.19952 39.197355 
L 540.191987 39.197355 
z
" style="fill: #e5e5e5"/>
   </g>
   <g id="matplotlib.axis_23">
    <g id="xtick_25">
     <g id="line2d_102">
      <path d="M 541.874148 334.180145 
L 541.874148 39.197355 
" clip-path="url(#pd8309110bb)" style="fill: none; stroke: #ffffff; stroke-width: 0.8; stroke-linecap: round"/>
     </g>
     <g id="text_37">
      <!-- 1990 -->
      <g style="fill: #555555" transform="translate(544.200789 361.19952) rotate(-90) scale(0.09 -0.09)">
       <use xlink:href="#ArialMT-31"/>
       <use xlink:href="#ArialMT-39" x="55.615234"/>
       <use xlink:href="#ArialMT-39" x="111.230469"/>
       <use xlink:href="#ArialMT-30" x="166.845703"/>
      </g>
     </g>
    </g>
    <g id="xtick_26">
     <g id="line2d_103">
      <path d="M 553.889581 334.180145 
L 553.889581 39.197355 
" clip-path="url(#pd8309110bb)" style="fill: none; stroke: #ffffff; stroke-width: 0.8; stroke-linecap: round"/>
     </g>
     <g id="text_38">
      <!-- 2000 -->
      <g style="fill: #555555" transform="translate(556.216221 361.19952) rotate(-90) scale(0.09 -0.09)">
       <use xlink:href="#ArialMT-32"/>
       <use xlink:href="#ArialMT-30" x="55.615234"/>
       <use xlink:href="#ArialMT-30" x="111.230469"/>
       <use xlink:href="#ArialMT-30" x="166.845703"/>
      </g>
     </g>
    </g>
    <g id="xtick_27">
     <g id="line2d_104">
      <path d="M 565.905013 334.180145 
L 565.905013 39.197355 
" clip-path="url(#pd8309110bb)" style="fill: none; stroke: #ffffff; stroke-width: 0.8; stroke-linecap: round"/>
     </g>
     <g id="text_39">
      <!-- 2010 -->
      <g style="fill: #555555" transform="translate(568.231654 361.19952) rotate(-90) scale(0.09 -0.09)">
       <use xlink:href="#ArialMT-32"/>
       <use xlink:href="#ArialMT-30" x="55.615234"/>
       <use xlink:href="#ArialMT-31" x="111.230469"/>
       <use xlink:href="#ArialMT-30" x="166.845703"/>
      </g>
     </g>
    </g>
   </g>
   <g id="matplotlib.axis_24">
    <g id="ytick_56">
     <g id="line2d_105">
      <path d="M 540.191987 291.323089 
L 577.19952 291.323089 
" clip-path="url(#pd8309110bb)" style="fill: none; stroke: #ffffff; stroke-width: 0.8; stroke-linecap: round"/>
     </g>
    </g>
    <g id="ytick_57">
     <g id="line2d_106">
      <path d="M 540.191987 236.102007 
L 577.19952 236.102007 
" clip-path="url(#pd8309110bb)" style="fill: none; stroke: #ffffff; stroke-width: 0.8; stroke-linecap: round"/>
     </g>
    </g>
    <g id="ytick_58">
     <g id="line2d_107">
      <path d="M 540.191987 180.880925 
L 577.19952 180.880925 
" clip-path="url(#pd8309110bb)" style="fill: none; stroke: #ffffff; stroke-width: 0.8; stroke-linecap: round"/>
     </g>
    </g>
    <g id="ytick_59">
     <g id="line2d_108">
      <path d="M 540.191987 125.659843 
L 577.19952 125.659843 
" clip-path="url(#pd8309110bb)" style="fill: none; stroke: #ffffff; stroke-width: 0.8; stroke-linecap: round"/>
     </g>
    </g>
    <g id="ytick_60">
     <g id="line2d_109">
      <path d="M 540.191987 70.438761 
L 577.19952 70.438761 
" clip-path="url(#pd8309110bb)" style="fill: none; stroke: #ffffff; stroke-width: 0.8; stroke-linecap: round"/>
     </g>
    </g>
   </g>
   <g id="line2d_110">
    <path d="M 541.874148 76.119632 
L 543.075691 76.647484 
L 544.277234 76.481457 
L 545.478778 75.665605 
L 546.680321 69.184347 
L 547.881864 60.48295 
L 549.083407 55.924039 
L 550.284951 53.957282 
L 551.486494 52.605664 
L 552.688037 54.77323 
L 553.889581 58.299255 
L 555.091124 63.410822 
L 556.292667 72.622537 
L 557.49421 77.54869 
L 558.695754 79.500269 
L 559.897297 78.755712 
L 561.09884 76.903437 
L 562.300383 82.072232 
L 563.501927 89.937381 
L 564.70347 97.111614 
L 565.905013 98.505197 
L 567.106557 91.801979 
L 568.3081 83.337045 
L 569.509643 80.844498 
L 570.711186 83.629571 
L 571.91273 90.340656 
L 573.114273 95.817408 
L 574.315816 100.029391 
L 575.517359 103.802062 
" clip-path="url(#pd8309110bb)" style="fill: none; stroke: #000000; stroke-width: 1.5; stroke-linecap: round"/>
   </g>
   <g id="line2d_111">
    <path d="M 540.191987 77.796946 
L 577.19952 77.796946 
" clip-path="url(#pd8309110bb)" style="fill: none; stroke: #0000ff; stroke-linecap: round"/>
   </g>
   <g id="patch_58">
    <path d="M 540.191987 334.180145 
L 540.191987 39.197355 
" style="fill: none; stroke: #ffffff; stroke-linejoin: miter; stroke-linecap: square"/>
   </g>
   <g id="patch_59">
    <path d="M 577.19952 334.180145 
L 577.19952 39.197355 
" style="fill: none; stroke: #ffffff; stroke-linejoin: miter; stroke-linecap: square"/>
   </g>
   <g id="patch_60">
    <path d="M 540.191987 334.180145 
L 577.19952 334.180145 
" style="fill: none; stroke: #ffffff; stroke-linejoin: miter; stroke-linecap: square"/>
   </g>
   <g id="patch_61">
    <path d="M 540.191987 39.197355 
L 577.19952 39.197355 
" style="fill: none; stroke: #ffffff; stroke-linejoin: miter; stroke-linecap: square"/>
   </g>
   <g id="text_40">
    <!-- Dec -->
    <g style="fill: #262626" transform="translate(548.026066 33.197355) scale(0.12 -0.12)">
     <defs>
      <path id="ArialMT-44" d="M 494 0 
L 494 4581 
L 2072 4581 
Q 2606 4581 2888 4516 
Q 3281 4425 3559 4188 
Q 3922 3881 4101 3404 
Q 4281 2928 4281 2316 
Q 4281 1794 4159 1391 
Q 4038 988 3847 723 
Q 3656 459 3429 307 
Q 3203 156 2883 78 
Q 2563 0 2147 0 
L 494 0 
z
M 1100 541 
L 2078 541 
Q 2531 541 2789 625 
Q 3047 709 3200 863 
Q 3416 1078 3536 1442 
Q 3656 1806 3656 2325 
Q 3656 3044 3420 3430 
Q 3184 3816 2847 3947 
Q 2603 4041 2063 4041 
L 1100 4041 
L 1100 541 
z
" transform="scale(0.015625)"/>
     </defs>
     <use xlink:href="#ArialMT-44"/>
     <use xlink:href="#ArialMT-65" x="72.216797"/>
     <use xlink:href="#ArialMT-63" x="127.832031"/>
    </g>
   </g>
  </g>
  <g id="text_41">
   <!-- US Employment in Retail Trade -->
   <g style="fill: #262626" transform="translate(208.501635 15.935625) scale(0.12 -0.12)">
    <defs>
     <path id="ArialMT-55" d="M 3500 4581 
L 4106 4581 
L 4106 1934 
Q 4106 1244 3950 837 
Q 3794 431 3386 176 
Q 2978 -78 2316 -78 
Q 1672 -78 1262 144 
Q 853 366 678 786 
Q 503 1206 503 1934 
L 503 4581 
L 1109 4581 
L 1109 1938 
Q 1109 1341 1220 1058 
Q 1331 775 1601 622 
Q 1872 469 2263 469 
Q 2931 469 3215 772 
Q 3500 1075 3500 1938 
L 3500 4581 
z
" transform="scale(0.015625)"/>
     <path id="ArialMT-20" transform="scale(0.015625)"/>
     <path id="ArialMT-69" d="M 425 3934 
L 425 4581 
L 988 4581 
L 988 3934 
L 425 3934 
z
M 425 0 
L 425 3319 
L 988 3319 
L 988 0 
L 425 0 
z
" transform="scale(0.015625)"/>
     <path id="ArialMT-52" d="M 503 0 
L 503 4581 
L 2534 4581 
Q 3147 4581 3465 4457 
Q 3784 4334 3975 4021 
Q 4166 3709 4166 3331 
Q 4166 2844 3850 2509 
Q 3534 2175 2875 2084 
Q 3116 1969 3241 1856 
Q 3506 1613 3744 1247 
L 4541 0 
L 3778 0 
L 3172 953 
Q 2906 1366 2734 1584 
Q 2563 1803 2427 1890 
Q 2291 1978 2150 2013 
Q 2047 2034 1813 2034 
L 1109 2034 
L 1109 0 
L 503 0 
z
M 1109 2559 
L 2413 2559 
Q 2828 2559 3062 2645 
Q 3297 2731 3419 2920 
Q 3541 3109 3541 3331 
Q 3541 3656 3305 3865 
Q 3069 4075 2559 4075 
L 1109 4075 
L 1109 2559 
z
" transform="scale(0.015625)"/>
     <path id="ArialMT-54" d="M 1659 0 
L 1659 4041 
L 150 4041 
L 150 4581 
L 3781 4581 
L 3781 4041 
L 2266 4041 
L 2266 0 
L 1659 0 
z
" transform="scale(0.015625)"/>
    </defs>
    <use xlink:href="#ArialMT-55"/>
    <use xlink:href="#ArialMT-53" x="72.216797"/>
    <use xlink:href="#ArialMT-20" x="138.916016"/>
    <use xlink:href="#ArialMT-45" x="166.699219"/>
    <use xlink:href="#ArialMT-6d" x="233.398438"/>
    <use xlink:href="#ArialMT-70" x="316.699219"/>
    <use xlink:href="#ArialMT-6c" x="372.314453"/>
    <use xlink:href="#ArialMT-6f" x="394.53125"/>
    <use xlink:href="#ArialMT-79" x="450.146484"/>
    <use xlink:href="#ArialMT-6d" x="500.146484"/>
    <use xlink:href="#ArialMT-65" x="583.447266"/>
    <use xlink:href="#ArialMT-6e" x="639.0625"/>
    <use xlink:href="#ArialMT-74" x="694.677734"/>
    <use xlink:href="#ArialMT-20" x="722.460938"/>
    <use xlink:href="#ArialMT-69" x="750.244141"/>
    <use xlink:href="#ArialMT-6e" x="772.460938"/>
    <use xlink:href="#ArialMT-20" x="828.076172"/>
    <use xlink:href="#ArialMT-52" x="855.859375"/>
    <use xlink:href="#ArialMT-65" x="928.076172"/>
    <use xlink:href="#ArialMT-74" x="983.691406"/>
    <use xlink:href="#ArialMT-61" x="1011.474609"/>
    <use xlink:href="#ArialMT-69" x="1067.089844"/>
    <use xlink:href="#ArialMT-6c" x="1089.306641"/>
    <use xlink:href="#ArialMT-20" x="1111.523438"/>
    <use xlink:href="#ArialMT-54" x="1137.556641"/>
    <use xlink:href="#ArialMT-72" x="1194.890625"/>
    <use xlink:href="#ArialMT-61" x="1228.191406"/>
    <use xlink:href="#ArialMT-64" x="1283.806641"/>
    <use xlink:href="#ArialMT-65" x="1339.421875"/>
   </g>
  </g>
  <g id="text_42">
   <!-- Month -->
   <g style="fill: #262626" transform="translate(278.304448 382.19976) scale(0.1 -0.1)">
    <defs>
     <path id="ArialMT-68" d="M 422 0 
L 422 4581 
L 984 4581 
L 984 2938 
Q 1378 3394 1978 3394 
Q 2347 3394 2619 3248 
Q 2891 3103 3008 2847 
Q 3125 2591 3125 2103 
L 3125 0 
L 2563 0 
L 2563 2103 
Q 2563 2525 2380 2717 
Q 2197 2909 1863 2909 
Q 1613 2909 1392 2779 
Q 1172 2650 1078 2428 
Q 984 2206 984 1816 
L 984 0 
L 422 0 
z
" transform="scale(0.015625)"/>
    </defs>
    <use xlink:href="#ArialMT-4d"/>
    <use xlink:href="#ArialMT-6f" x="83.300781"/>
    <use xlink:href="#ArialMT-6e" x="138.916016"/>
    <use xlink:href="#ArialMT-74" x="194.53125"/>
    <use xlink:href="#ArialMT-68" x="222.314453"/>
   </g>
  </g>
 </g>
 <defs>
  <clipPath id="p686051a772">
   <rect x="27.4625" y="39.197355" width="37.007533" height="294.98279"/>
  </clipPath>
  <clipPath id="pe384ba4947">
   <rect x="74.063939" y="39.197355" width="37.007533" height="294.98279"/>
  </clipPath>
  <clipPath id="pb798cf88a7">
   <rect x="120.665377" y="39.197355" width="37.007533" height="294.98279"/>
  </clipPath>
  <clipPath id="pa14001c03a">
   <rect x="167.266816" y="39.197355" width="37.007533" height="294.98279"/>
  </clipPath>
  <clipPath id="p6bfe7c2a87">
   <rect x="213.868255" y="39.197355" width="37.007533" height="294.98279"/>
  </clipPath>
  <clipPath id="pb2acb6d952">
   <rect x="260.469693" y="39.197355" width="37.007533" height="294.98279"/>
  </clipPath>
  <clipPath id="p55a1cb37fc">
   <rect x="307.071132" y="39.197355" width="37.007533" height="294.98279"/>
  </clipPath>
  <clipPath id="ped25fd018c">
   <rect x="353.672571" y="39.197355" width="37.007533" height="294.98279"/>
  </clipPath>
  <clipPath id="p234b73b19e">
   <rect x="400.27401" y="39.197355" width="37.007533" height="294.98279"/>
  </clipPath>
  <clipPath id="pc8ddfe1f5f">
   <rect x="449.308953" y="39.197355" width="37.007533" height="294.98279"/>
  </clipPath>
  <clipPath id="pf1e87b63c2">
   <rect x="494.75047" y="39.197355" width="37.007533" height="294.98279"/>
  </clipPath>
  <clipPath id="pd8309110bb">
   <rect x="540.191987" y="39.197355" width="37.007533" height="294.98279"/>
  </clipPath>
 </defs>
</svg>
