<?xml version="1.0" encoding="utf-8" standalone="no"?>
<!DOCTYPE svg PUBLIC "-//W3C//DTD SVG 1.1//EN"
  "http://www.w3.org/Graphics/SVG/1.1/DTD/svg11.dtd">
<svg xmlns:xlink="http://www.w3.org/1999/xlink" width="594.225456pt" height="323.39625pt" viewBox="0 0 594.225456 323.39625" xmlns="http://www.w3.org/2000/svg" version="1.1">
 <metadata>
  <rdf:RDF xmlns:dc="http://purl.org/dc/elements/1.1/" xmlns:cc="http://creativecommons.org/ns#" xmlns:rdf="http://www.w3.org/1999/02/22-rdf-syntax-ns#">
   <cc:Work>
    <dc:type rdf:resource="http://purl.org/dc/dcmitype/StillImage"/>
    <dc:date>2025-04-25T22:05:14.332299</dc:date>
    <dc:format>image/svg+xml</dc:format>
    <dc:creator>
     <cc:Agent>
      <dc:title>Matplotlib v3.7.2, https://matplotlib.org/</dc:title>
     </cc:Agent>
    </dc:creator>
   </cc:Work>
  </rdf:RDF>
 </metadata>
 <defs>
  <style type="text/css">*{stroke-linejoin: round; stroke-linecap: butt}</style>
 </defs>
 <g id="figure_1">
  <g id="patch_1">
   <path d="M 0 323.39625 
L 594.225456 323.39625 
L 594.225456 0 
L 0 0 
z
" style="fill: #ffffff"/>
  </g>
  <g id="axes_1">
   <g id="patch_2">
    <path d="M 20.5625 299.518125 
L 578.5625 299.518125 
L 578.5625 22.318125 
L 20.5625 22.318125 
z
" style="fill: #ffffff"/>
   </g>
   <g id="PathCollection_1">
    <defs>
     <path id="C0_0_bef3c30032" d="M 0 3 
C 0.795609 3 1.55874 2.683901 2.12132 2.12132 
C 2.683901 1.55874 3 0.795609 3 -0 
C 3 -0.795609 2.683901 -1.55874 2.12132 -2.12132 
C 1.55874 -2.683901 0.795609 -3 0 -3 
C -0.795609 -3 -1.55874 -2.683901 -2.12132 -2.12132 
C -2.683901 -1.55874 -3 -0.795609 -3 0 
C -3 0.795609 -2.683901 1.55874 -2.12132 2.12132 
C -1.55874 2.683901 -0.795609 3 0 3 
z
"/>
    </defs>
    <g clip-path="url(#p77f13abe39)">
     <use xlink:href="#C0_0_bef3c30032" x="473.10317" y="238.609825" style="fill: #440154; stroke: #440154"/>
    </g>
    <g clip-path="url(#p77f13abe39)">
     <use xlink:href="#C0_0_bef3c30032" x="335.605562" y="235.123659" style="fill: #440154; stroke: #440154"/>
    </g>
    <g clip-path="url(#p77f13abe39)">
     <use xlink:href="#C0_0_bef3c30032" x="330.265849" y="206.238283" style="fill: #440154; stroke: #440154"/>
    </g>
    <g clip-path="url(#p77f13abe39)">
     <use xlink:href="#C0_0_bef3c30032" x="491.792165" y="226.657255" style="fill: #440154; stroke: #440154"/>
    </g>
    <g clip-path="url(#p77f13abe39)">
     <use xlink:href="#C0_0_bef3c30032" x="340.945275" y="194.783738" style="fill: #440154; stroke: #440154"/>
    </g>
    <g clip-path="url(#p77f13abe39)">
     <use xlink:href="#C0_0_bef3c30032" x="469.098385" y="236.119706" style="fill: #440154; stroke: #440154"/>
    </g>
    <g clip-path="url(#p77f13abe39)">
     <use xlink:href="#C0_0_bef3c30032" x="494.462022" y="230.641445" style="fill: #440154; stroke: #440154"/>
    </g>
    <g clip-path="url(#p77f13abe39)">
     <use xlink:href="#C0_0_bef3c30032" x="450.40939" y="216.696781" style="fill: #440154; stroke: #440154"/>
    </g>
    <g clip-path="url(#p77f13abe39)">
     <use xlink:href="#C0_0_bef3c30032" x="553.198864" y="242.095991" style="fill: #440154; stroke: #440154"/>
    </g>
    <g clip-path="url(#p77f13abe39)">
     <use xlink:href="#C0_0_bef3c30032" x="423.710825" y="256.538678" style="fill: #440154; stroke: #440154"/>
    </g>
    <g clip-path="url(#p77f13abe39)">
     <use xlink:href="#C0_0_bef3c30032" x="455.749103" y="216.198757" style="fill: #440154; stroke: #440154"/>
    </g>
    <g clip-path="url(#p77f13abe39)">
     <use xlink:href="#C0_0_bef3c30032" x="458.418959" y="250.06437" style="fill: #440154; stroke: #440154"/>
    </g>
    <g clip-path="url(#p77f13abe39)">
     <use xlink:href="#C0_0_bef3c30032" x="409.026615" y="237.613777" style="fill: #440154; stroke: #440154"/>
    </g>
    <g clip-path="url(#p77f13abe39)">
     <use xlink:href="#C0_0_bef3c30032" x="542.519438" y="237.613777" style="fill: #440154; stroke: #440154"/>
    </g>
    <g clip-path="url(#p77f13abe39)">
     <use xlink:href="#C0_0_bef3c30032" x="493.127093" y="230.641445" style="fill: #440154; stroke: #440154"/>
    </g>
    <g clip-path="url(#p77f13abe39)">
     <use xlink:href="#C0_0_bef3c30032" x="393.007476" y="233.629587" style="fill: #440154; stroke: #440154"/>
    </g>
    <g clip-path="url(#p77f13abe39)">
     <use xlink:href="#C0_0_bef3c30032" x="482.447667" y="228.151327" style="fill: #440154; stroke: #440154"/>
    </g>
    <g clip-path="url(#p77f13abe39)">
     <use xlink:href="#C0_0_bef3c30032" x="419.706041" y="245.582157" style="fill: #440154; stroke: #440154"/>
    </g>
    <g clip-path="url(#p77f13abe39)">
     <use xlink:href="#C0_0_bef3c30032" x="467.763457" y="244.586109" style="fill: #440154; stroke: #440154"/>
    </g>
    <g clip-path="url(#p77f13abe39)">
     <use xlink:href="#C0_0_bef3c30032" x="394.342404" y="169.384528" style="fill: #440154; stroke: #440154"/>
    </g>
    <g clip-path="url(#p77f13abe39)">
     <use xlink:href="#C0_0_bef3c30032" x="450.40939" y="242.594014" style="fill: #440154; stroke: #440154"/>
    </g>
    <g clip-path="url(#p77f13abe39)">
     <use xlink:href="#C0_0_bef3c30032" x="299.5625" y="134.522868" style="fill: #440154; stroke: #440154"/>
    </g>
    <g clip-path="url(#p77f13abe39)">
     <use xlink:href="#C0_0_bef3c30032" x="403.686902" y="231.139469" style="fill: #440154; stroke: #440154"/>
    </g>
    <g clip-path="url(#p77f13abe39)">
     <use xlink:href="#C0_0_bef3c30032" x="288.883074" y="244.088085" style="fill: #440154; stroke: #440154"/>
    </g>
    <g clip-path="url(#p77f13abe39)">
     <use xlink:href="#C0_0_bef3c30032" x="375.653409" y="233.629587" style="fill: #440154; stroke: #440154"/>
    </g>
    <g clip-path="url(#p77f13abe39)">
     <use xlink:href="#C0_0_bef3c30032" x="315.581639" y="221.677018" style="fill: #440154; stroke: #440154"/>
    </g>
    <g clip-path="url(#p77f13abe39)">
     <use xlink:href="#C0_0_bef3c30032" x="360.969199" y="235.621682" style="fill: #440154; stroke: #440154"/>
    </g>
    <g clip-path="url(#p77f13abe39)">
     <use xlink:href="#C0_0_bef3c30032" x="348.954844" y="238.111801" style="fill: #440154; stroke: #440154"/>
    </g>
    <g clip-path="url(#p77f13abe39)">
     <use xlink:href="#C0_0_bef3c30032" x="425.045754" y="229.147374" style="fill: #440154; stroke: #440154"/>
    </g>
    <g clip-path="url(#p77f13abe39)">
     <use xlink:href="#C0_0_bef3c30032" x="445.069677" y="240.103896" style="fill: #440154; stroke: #440154"/>
    </g>
    <g clip-path="url(#p77f13abe39)">
     <use xlink:href="#C0_0_bef3c30032" x="406.356758" y="249.068323" style="fill: #440154; stroke: #440154"/>
    </g>
    <g clip-path="url(#p77f13abe39)">
     <use xlink:href="#C0_0_bef3c30032" x="386.332835" y="241.099943" style="fill: #440154; stroke: #440154"/>
    </g>
    <g clip-path="url(#p77f13abe39)">
     <use xlink:href="#C0_0_bef3c30032" x="399.682117" y="232.63354" style="fill: #440154; stroke: #440154"/>
    </g>
    <g clip-path="url(#p77f13abe39)">
     <use xlink:href="#C0_0_bef3c30032" x="410.361543" y="247.574251" style="fill: #440154; stroke: #440154"/>
    </g>
    <g clip-path="url(#p77f13abe39)">
     <use xlink:href="#C0_0_bef3c30032" x="376.988337" y="234.127611" style="fill: #440154; stroke: #440154"/>
    </g>
    <g clip-path="url(#p77f13abe39)">
     <use xlink:href="#C0_0_bef3c30032" x="372.983553" y="233.629587" style="fill: #440154; stroke: #440154"/>
    </g>
    <g clip-path="url(#p77f13abe39)">
     <use xlink:href="#C0_0_bef3c30032" x="346.284988" y="242.095991" style="fill: #440154; stroke: #440154"/>
    </g>
    <g clip-path="url(#p77f13abe39)">
     <use xlink:href="#C0_0_bef3c30032" x="315.581639" y="241.597967" style="fill: #440154; stroke: #440154"/>
    </g>
    <g clip-path="url(#p77f13abe39)">
     <use xlink:href="#C0_0_bef3c30032" x="318.251495" y="249.068323" style="fill: #440154; stroke: #440154"/>
    </g>
    <g clip-path="url(#p77f13abe39)">
     <use xlink:href="#C0_0_bef3c30032" x="471.768242" y="125.060417" style="fill: #440154; stroke: #440154"/>
    </g>
    <g clip-path="url(#p77f13abe39)">
     <use xlink:href="#C0_0_bef3c30032" x="383.662978" y="238.609825" style="fill: #440154; stroke: #440154"/>
    </g>
    <g clip-path="url(#p77f13abe39)">
     <use xlink:href="#C0_0_bef3c30032" x="363.639055" y="132.530773" style="fill: #440154; stroke: #440154"/>
    </g>
    <g clip-path="url(#p77f13abe39)">
     <use xlink:href="#C0_0_bef3c30032" x="426.380682" y="229.645398" style="fill: #440154; stroke: #440154"/>
    </g>
    <g clip-path="url(#p77f13abe39)">
     <use xlink:href="#C0_0_bef3c30032" x="340.945275" y="125.558441" style="fill: #440154; stroke: #440154"/>
    </g>
    <g clip-path="url(#p77f13abe39)">
     <use xlink:href="#C0_0_bef3c30032" x="315.581639" y="235.621682" style="fill: #440154; stroke: #440154"/>
    </g>
    <g clip-path="url(#p77f13abe39)">
     <use xlink:href="#C0_0_bef3c30032" x="470.433313" y="122.570299" style="fill: #440154; stroke: #440154"/>
    </g>
    <g clip-path="url(#p77f13abe39)">
     <use xlink:href="#C0_0_bef3c30032" x="493.127093" y="144.981366" style="fill: #440154; stroke: #440154"/>
    </g>
    <g clip-path="url(#p77f13abe39)">
     <use xlink:href="#C0_0_bef3c30032" x="429.050538" y="240.103896" style="fill: #440154; stroke: #440154"/>
    </g>
    <g clip-path="url(#p77f13abe39)">
     <use xlink:href="#C0_0_bef3c30032" x="455.749103" y="223.171089" style="fill: #440154; stroke: #440154"/>
    </g>
    <g clip-path="url(#p77f13abe39)">
     <use xlink:href="#C0_0_bef3c30032" x="434.390251" y="237.613777" style="fill: #440154; stroke: #440154"/>
    </g>
    <g clip-path="url(#p77f13abe39)">
     <use xlink:href="#C0_0_bef3c30032" x="315.581639" y="237.613777" style="fill: #440154; stroke: #440154"/>
    </g>
    <g clip-path="url(#p77f13abe39)">
     <use xlink:href="#C0_0_bef3c30032" x="419.706041" y="241.597967" style="fill: #440154; stroke: #440154"/>
    </g>
    <g clip-path="url(#p77f13abe39)">
     <use xlink:href="#C0_0_bef3c30032" x="418.371112" y="236.61773" style="fill: #440154; stroke: #440154"/>
    </g>
    <g clip-path="url(#p77f13abe39)">
     <use xlink:href="#C0_0_bef3c30032" x="411.696471" y="229.147374" style="fill: #440154; stroke: #440154"/>
    </g>
    <g clip-path="url(#p77f13abe39)">
     <use xlink:href="#C0_0_bef3c30032" x="407.691687" y="240.601919" style="fill: #440154; stroke: #440154"/>
    </g>
    <g clip-path="url(#p77f13abe39)">
     <use xlink:href="#C0_0_bef3c30032" x="383.662978" y="237.613777" style="fill: #440154; stroke: #440154"/>
    </g>
    <g clip-path="url(#p77f13abe39)">
     <use xlink:href="#C0_0_bef3c30032" x="471.768242" y="239.107848" style="fill: #440154; stroke: #440154"/>
    </g>
    <g clip-path="url(#p77f13abe39)">
     <use xlink:href="#C0_0_bef3c30032" x="347.619916" y="225.661208" style="fill: #440154; stroke: #440154"/>
    </g>
    <g clip-path="url(#p77f13abe39)">
     <use xlink:href="#C0_0_bef3c30032" x="405.02183" y="252.554489" style="fill: #440154; stroke: #440154"/>
    </g>
    <g clip-path="url(#p77f13abe39)">
     <use xlink:href="#C0_0_bef3c30032" x="224.806519" y="276.957651" style="fill: #21918c; stroke: #21918c"/>
    </g>
    <g clip-path="url(#p77f13abe39)">
     <use xlink:href="#C0_0_bef3c30032" x="219.466806" y="268.989271" style="fill: #21918c; stroke: #21918c"/>
    </g>
    <g clip-path="url(#p77f13abe39)">
     <use xlink:href="#C0_0_bef3c30032" x="260.849581" y="256.040655" style="fill: #21918c; stroke: #21918c"/>
    </g>
    <g clip-path="url(#p77f13abe39)">
     <use xlink:href="#C0_0_bef3c30032" x="398.347189" y="261.518916" style="fill: #21918c; stroke: #21918c"/>
    </g>
    <g clip-path="url(#p77f13abe39)">
     <use xlink:href="#C0_0_bef3c30032" x="224.806519" y="267.4952" style="fill: #21918c; stroke: #21918c"/>
    </g>
    <g clip-path="url(#p77f13abe39)">
     <use xlink:href="#C0_0_bef3c30032" x="198.107955" y="251.558441" style="fill: #21918c; stroke: #21918c"/>
    </g>
    <g clip-path="url(#p77f13abe39)">
     <use xlink:href="#C0_0_bef3c30032" x="224.806519" y="263.51101" style="fill: #21918c; stroke: #21918c"/>
    </g>
    <g clip-path="url(#p77f13abe39)">
     <use xlink:href="#C0_0_bef3c30032" x="323.591208" y="273.471485" style="fill: #21918c; stroke: #21918c"/>
    </g>
    <g clip-path="url(#p77f13abe39)">
     <use xlink:href="#C0_0_bef3c30032" x="224.806519" y="265.503105" style="fill: #21918c; stroke: #21918c"/>
    </g>
    <g clip-path="url(#p77f13abe39)">
     <use xlink:href="#C0_0_bef3c30032" x="354.294557" y="276.957651" style="fill: #21918c; stroke: #21918c"/>
    </g>
    <g clip-path="url(#p77f13abe39)">
     <use xlink:href="#C0_0_bef3c30032" x="203.447667" y="264.507058" style="fill: #21918c; stroke: #21918c"/>
    </g>
    <g clip-path="url(#p77f13abe39)">
     <use xlink:href="#C0_0_bef3c30032" x="214.127093" y="243.590062" style="fill: #21918c; stroke: #21918c"/>
    </g>
    <g clip-path="url(#p77f13abe39)">
     <use xlink:href="#C0_0_bef3c30032" x="423.710825" y="248.570299" style="fill: #21918c; stroke: #21918c"/>
    </g>
    <g clip-path="url(#p77f13abe39)">
     <use xlink:href="#C0_0_bef3c30032" x="374.318481" y="241.099943" style="fill: #21918c; stroke: #21918c"/>
    </g>
    <g clip-path="url(#p77f13abe39)">
     <use xlink:href="#C0_0_bef3c30032" x="307.572069" y="240.601919" style="fill: #21918c; stroke: #21918c"/>
    </g>
    <g clip-path="url(#p77f13abe39)">
     <use xlink:href="#C0_0_bef3c30032" x="170.074462" y="269.487295" style="fill: #21918c; stroke: #21918c"/>
    </g>
    <g clip-path="url(#p77f13abe39)">
     <use xlink:href="#C0_0_bef3c30032" x="130.026615" y="230.143421" style="fill: #21918c; stroke: #21918c"/>
    </g>
    <g clip-path="url(#p77f13abe39)">
     <use xlink:href="#C0_0_bef3c30032" x="312.911782" y="278.949746" style="fill: #21918c; stroke: #21918c"/>
    </g>
    <g clip-path="url(#p77f13abe39)">
     <use xlink:href="#C0_0_bef3c30032" x="154.055323" y="179.843026" style="fill: #21918c; stroke: #21918c"/>
    </g>
    <g clip-path="url(#p77f13abe39)">
     <use xlink:href="#C0_0_bef3c30032" x="219.466806" y="274.467532" style="fill: #21918c; stroke: #21918c"/>
    </g>
    <g clip-path="url(#p77f13abe39)">
     <use xlink:href="#C0_0_bef3c30032" x="268.859151" y="131.036702" style="fill: #21918c; stroke: #21918c"/>
    </g>
    <g clip-path="url(#p77f13abe39)">
     <use xlink:href="#C0_0_bef3c30032" x="175.414175" y="277.953698" style="fill: #21918c; stroke: #21918c"/>
    </g>
    <g clip-path="url(#p77f13abe39)">
     <use xlink:href="#C0_0_bef3c30032" x="271.529007" y="233.629587" style="fill: #21918c; stroke: #21918c"/>
    </g>
    <g clip-path="url(#p77f13abe39)">
     <use xlink:href="#C0_0_bef3c30032" x="186.0936" y="267.4952" style="fill: #21918c; stroke: #21918c"/>
    </g>
    <g clip-path="url(#p77f13abe39)">
     <use xlink:href="#C0_0_bef3c30032" x="315.581639" y="131.534726" style="fill: #21918c; stroke: #21918c"/>
    </g>
    <g clip-path="url(#p77f13abe39)">
     <use xlink:href="#C0_0_bef3c30032" x="154.055323" y="279.447769" style="fill: #21918c; stroke: #21918c"/>
    </g>
    <g clip-path="url(#p77f13abe39)">
     <use xlink:href="#C0_0_bef3c30032" x="264.854366" y="274.965556" style="fill: #21918c; stroke: #21918c"/>
    </g>
    <g clip-path="url(#p77f13abe39)">
     <use xlink:href="#C0_0_bef3c30032" x="196.773026" y="243.590062" style="fill: #21918c; stroke: #21918c"/>
    </g>
    <g clip-path="url(#p77f13abe39)">
     <use xlink:href="#C0_0_bef3c30032" x="128.691687" y="240.601919" style="fill: #21918c; stroke: #21918c"/>
    </g>
    <g clip-path="url(#p77f13abe39)">
     <use xlink:href="#C0_0_bef3c30032" x="127.356758" y="221.178995" style="fill: #21918c; stroke: #21918c"/>
    </g>
    <g clip-path="url(#p77f13abe39)">
     <use xlink:href="#C0_0_bef3c30032" x="186.0936" y="257.534726" style="fill: #21918c; stroke: #21918c"/>
    </g>
    <g clip-path="url(#p77f13abe39)">
     <use xlink:href="#C0_0_bef3c30032" x="186.0936" y="232.63354" style="fill: #21918c; stroke: #21918c"/>
    </g>
    <g clip-path="url(#p77f13abe39)">
     <use xlink:href="#C0_0_bef3c30032" x="175.414175" y="248.570299" style="fill: #21918c; stroke: #21918c"/>
    </g>
    <g clip-path="url(#p77f13abe39)">
     <use xlink:href="#C0_0_bef3c30032" x="267.524222" y="247.574251" style="fill: #21918c; stroke: #21918c"/>
    </g>
    <g clip-path="url(#p77f13abe39)">
     <use xlink:href="#C0_0_bef3c30032" x="214.127093" y="182.831168" style="fill: #21918c; stroke: #21918c"/>
    </g>
    <g clip-path="url(#p77f13abe39)">
     <use xlink:href="#C0_0_bef3c30032" x="124.686902" y="224.665161" style="fill: #21918c; stroke: #21918c"/>
    </g>
    <g clip-path="url(#p77f13abe39)">
     <use xlink:href="#C0_0_bef3c30032" x="238.155801" y="248.072275" style="fill: #21918c; stroke: #21918c"/>
    </g>
    <g clip-path="url(#p77f13abe39)">
     <use xlink:href="#C0_0_bef3c30032" x="150.050538" y="218.190852" style="fill: #21918c; stroke: #21918c"/>
    </g>
    <g clip-path="url(#p77f13abe39)">
     <use xlink:href="#C0_0_bef3c30032" x="214.127093" y="253.550536" style="fill: #21918c; stroke: #21918c"/>
    </g>
    <g clip-path="url(#p77f13abe39)">
     <use xlink:href="#C0_0_bef3c30032" x="224.806519" y="270.483342" style="fill: #21918c; stroke: #21918c"/>
    </g>
    <g clip-path="url(#p77f13abe39)">
     <use xlink:href="#C0_0_bef3c30032" x="214.127093" y="165.898362" style="fill: #21918c; stroke: #21918c"/>
    </g>
    <g clip-path="url(#p77f13abe39)">
     <use xlink:href="#C0_0_bef3c30032" x="186.0936" y="220.182947" style="fill: #21918c; stroke: #21918c"/>
    </g>
    <g clip-path="url(#p77f13abe39)">
     <use xlink:href="#C0_0_bef3c30032" x="255.509868" y="257.036702" style="fill: #21918c; stroke: #21918c"/>
    </g>
    <g clip-path="url(#p77f13abe39)">
     <use xlink:href="#C0_0_bef3c30032" x="220.801734" y="201.75607" style="fill: #21918c; stroke: #21918c"/>
    </g>
    <g clip-path="url(#p77f13abe39)">
     <use xlink:href="#C0_0_bef3c30032" x="151.385467" y="238.111801" style="fill: #21918c; stroke: #21918c"/>
    </g>
    <g clip-path="url(#p77f13abe39)">
     <use xlink:href="#C0_0_bef3c30032" x="243.495514" y="237.613777" style="fill: #21918c; stroke: #21918c"/>
    </g>
    <g clip-path="url(#p77f13abe39)">
     <use xlink:href="#C0_0_bef3c30032" x="231.48116" y="196.775833" style="fill: #21918c; stroke: #21918c"/>
    </g>
    <g clip-path="url(#p77f13abe39)">
     <use xlink:href="#C0_0_bef3c30032" x="208.78738" y="237.613777" style="fill: #21918c; stroke: #21918c"/>
    </g>
    <g clip-path="url(#p77f13abe39)">
     <use xlink:href="#C0_0_bef3c30032" x="271.529007" y="236.61773" style="fill: #21918c; stroke: #21918c"/>
    </g>
    <g clip-path="url(#p77f13abe39)">
     <use xlink:href="#C0_0_bef3c30032" x="204.782596" y="259.526821" style="fill: #21918c; stroke: #21918c"/>
    </g>
    <g clip-path="url(#p77f13abe39)">
     <use xlink:href="#C0_0_bef3c30032" x="123.351974" y="256.538678" style="fill: #21918c; stroke: #21918c"/>
    </g>
    <g clip-path="url(#p77f13abe39)">
     <use xlink:href="#C0_0_bef3c30032" x="103.32805" y="137.51101" style="fill: #21918c; stroke: #21918c"/>
    </g>
    <g clip-path="url(#p77f13abe39)">
     <use xlink:href="#C0_0_bef3c30032" x="244.830443" y="202.752117" style="fill: #21918c; stroke: #21918c"/>
    </g>
    <g clip-path="url(#p77f13abe39)">
     <use xlink:href="#C0_0_bef3c30032" x="143.375897" y="190.301524" style="fill: #21918c; stroke: #21918c"/>
    </g>
    <g clip-path="url(#p77f13abe39)">
     <use xlink:href="#C0_0_bef3c30032" x="96.653409" y="286.918125" style="fill: #21918c; stroke: #21918c"/>
    </g>
    <g clip-path="url(#p77f13abe39)">
     <use xlink:href="#C0_0_bef3c30032" x="186.0936" y="254.546583" style="fill: #21918c; stroke: #21918c"/>
    </g>
    <g clip-path="url(#p77f13abe39)">
     <use xlink:href="#C0_0_bef3c30032" x="45.926136" y="248.570299" style="fill: #21918c; stroke: #21918c"/>
    </g>
    <g clip-path="url(#p77f13abe39)">
     <use xlink:href="#C0_0_bef3c30032" x="151.385467" y="250.562394" style="fill: #21918c; stroke: #21918c"/>
    </g>
    <g clip-path="url(#p77f13abe39)">
     <use xlink:href="#C0_0_bef3c30032" x="231.48116" y="243.590062" style="fill: #21918c; stroke: #21918c"/>
    </g>
    <g clip-path="url(#p77f13abe39)">
     <use xlink:href="#C0_0_bef3c30032" x="278.203648" y="152.949746" style="fill: #21918c; stroke: #21918c"/>
    </g>
    <g clip-path="url(#p77f13abe39)">
     <use xlink:href="#C0_0_bef3c30032" x="175.414175" y="152.949746" style="fill: #21918c; stroke: #21918c"/>
    </g>
    <g clip-path="url(#p77f13abe39)">
     <use xlink:href="#C0_0_bef3c30032" x="101.993122" y="204.246188" style="fill: #21918c; stroke: #21918c"/>
    </g>
    <g clip-path="url(#p77f13abe39)">
     <use xlink:href="#C0_0_bef3c30032" x="116.677333" y="221.677018" style="fill: #21918c; stroke: #21918c"/>
    </g>
    <g clip-path="url(#p77f13abe39)">
     <use xlink:href="#C0_0_bef3c30032" x="231.48116" y="103.147374" style="fill: #21918c; stroke: #21918c"/>
    </g>
    <g clip-path="url(#p77f13abe39)">
     <use xlink:href="#C0_0_bef3c30032" x="315.581639" y="34.918125" style="fill: #21918c; stroke: #21918c"/>
    </g>
    <g clip-path="url(#p77f13abe39)">
     <use xlink:href="#C0_0_bef3c30032" x="158.060108" y="109.123659" style="fill: #21918c; stroke: #21918c"/>
    </g>
    <g clip-path="url(#p77f13abe39)">
     <use xlink:href="#C0_0_bef3c30032" x="184.758672" y="216.198757" style="fill: #21918c; stroke: #21918c"/>
    </g>
    <g clip-path="url(#p77f13abe39)">
     <use xlink:href="#C0_0_bef3c30032" x="232.816089" y="247.574251" style="fill: #21918c; stroke: #21918c"/>
    </g>
    <g clip-path="url(#p77f13abe39)">
     <use xlink:href="#C0_0_bef3c30032" x="147.380682" y="217.692829" style="fill: #21918c; stroke: #21918c"/>
    </g>
    <g clip-path="url(#p77f13abe39)">
     <use xlink:href="#C0_0_bef3c30032" x="224.806519" y="242.594014" style="fill: #21918c; stroke: #21918c"/>
    </g>
    <g clip-path="url(#p77f13abe39)">
     <use xlink:href="#C0_0_bef3c30032" x="180.753888" y="109.621682" style="fill: #21918c; stroke: #21918c"/>
    </g>
    <g clip-path="url(#p77f13abe39)">
     <use xlink:href="#C0_0_bef3c30032" x="290.218002" y="256.538678" style="fill: #fde725; stroke: #fde725"/>
    </g>
    <g clip-path="url(#p77f13abe39)">
     <use xlink:href="#C0_0_bef3c30032" x="292.887859" y="174.862789" style="fill: #fde725; stroke: #fde725"/>
    </g>
    <g clip-path="url(#p77f13abe39)">
     <use xlink:href="#C0_0_bef3c30032" x="283.543361" y="208.728402" style="fill: #fde725; stroke: #fde725"/>
    </g>
    <g clip-path="url(#p77f13abe39)">
     <use xlink:href="#C0_0_bef3c30032" x="268.859151" y="146.973461" style="fill: #fde725; stroke: #fde725"/>
    </g>
    <g clip-path="url(#p77f13abe39)">
     <use xlink:href="#C0_0_bef3c30032" x="243.495514" y="262.016939" style="fill: #fde725; stroke: #fde725"/>
    </g>
    <g clip-path="url(#p77f13abe39)">
     <use xlink:href="#C0_0_bef3c30032" x="255.509868" y="201.258046" style="fill: #fde725; stroke: #fde725"/>
    </g>
    <g clip-path="url(#p77f13abe39)">
     <use xlink:href="#C0_0_bef3c30032" x="208.78738" y="88.704686" style="fill: #fde725; stroke: #fde725"/>
    </g>
    <g clip-path="url(#p77f13abe39)">
     <use xlink:href="#C0_0_bef3c30032" x="246.165371" y="49.360813" style="fill: #fde725; stroke: #fde725"/>
    </g>
    <g clip-path="url(#p77f13abe39)">
     <use xlink:href="#C0_0_bef3c30032" x="374.318481" y="144.981366" style="fill: #fde725; stroke: #fde725"/>
    </g>
    <g clip-path="url(#p77f13abe39)">
     <use xlink:href="#C0_0_bef3c30032" x="287.548146" y="176.35686" style="fill: #fde725; stroke: #fde725"/>
    </g>
    <g clip-path="url(#p77f13abe39)">
     <use xlink:href="#C0_0_bef3c30032" x="299.5625" y="183.827216" style="fill: #fde725; stroke: #fde725"/>
    </g>
    <g clip-path="url(#p77f13abe39)">
     <use xlink:href="#C0_0_bef3c30032" x="356.964414" y="196.277809" style="fill: #fde725; stroke: #fde725"/>
    </g>
    <g clip-path="url(#p77f13abe39)">
     <use xlink:href="#C0_0_bef3c30032" x="378.323266" y="165.898362" style="fill: #fde725; stroke: #fde725"/>
    </g>
    <g clip-path="url(#p77f13abe39)">
     <use xlink:href="#C0_0_bef3c30032" x="391.672548" y="77.250141" style="fill: #fde725; stroke: #fde725"/>
    </g>
    <g clip-path="url(#p77f13abe39)">
     <use xlink:href="#C0_0_bef3c30032" x="208.78738" y="130.538678" style="fill: #fde725; stroke: #fde725"/>
    </g>
    <g clip-path="url(#p77f13abe39)">
     <use xlink:href="#C0_0_bef3c30032" x="330.265849" y="145.977414" style="fill: #fde725; stroke: #fde725"/>
    </g>
    <g clip-path="url(#p77f13abe39)">
     <use xlink:href="#C0_0_bef3c30032" x="426.380682" y="72.767927" style="fill: #fde725; stroke: #fde725"/>
    </g>
    <g clip-path="url(#p77f13abe39)">
     <use xlink:href="#C0_0_bef3c30032" x="291.552931" y="94.182947" style="fill: #fde725; stroke: #fde725"/>
    </g>
    <g clip-path="url(#p77f13abe39)">
     <use xlink:href="#C0_0_bef3c30032" x="351.624701" y="162.412196" style="fill: #fde725; stroke: #fde725"/>
    </g>
    <g clip-path="url(#p77f13abe39)">
     <use xlink:href="#C0_0_bef3c30032" x="319.586423" y="129.542631" style="fill: #fde725; stroke: #fde725"/>
    </g>
    <g clip-path="url(#p77f13abe39)">
     <use xlink:href="#C0_0_bef3c30032" x="375.653409" y="168.388481" style="fill: #fde725; stroke: #fde725"/>
    </g>
    <g clip-path="url(#p77f13abe39)">
     <use xlink:href="#C0_0_bef3c30032" x="280.873505" y="190.799548" style="fill: #fde725; stroke: #fde725"/>
    </g>
    <g clip-path="url(#p77f13abe39)">
     <use xlink:href="#C0_0_bef3c30032" x="323.591208" y="229.147374" style="fill: #fde725; stroke: #fde725"/>
    </g>
    <g clip-path="url(#p77f13abe39)">
     <use xlink:href="#C0_0_bef3c30032" x="339.610347" y="159.424054" style="fill: #fde725; stroke: #fde725"/>
    </g>
    <g clip-path="url(#p77f13abe39)">
     <use xlink:href="#C0_0_bef3c30032" x="252.840012" y="259.526821" style="fill: #fde725; stroke: #fde725"/>
    </g>
    <g clip-path="url(#p77f13abe39)">
     <use xlink:href="#C0_0_bef3c30032" x="331.600778" y="65.297572" style="fill: #fde725; stroke: #fde725"/>
    </g>
    <g clip-path="url(#p77f13abe39)">
     <use xlink:href="#C0_0_bef3c30032" x="421.040969" y="118.586109" style="fill: #fde725; stroke: #fde725"/>
    </g>
    <g clip-path="url(#p77f13abe39)">
     <use xlink:href="#C0_0_bef3c30032" x="235.485945" y="172.870694" style="fill: #fde725; stroke: #fde725"/>
    </g>
    <g clip-path="url(#p77f13abe39)">
     <use xlink:href="#C0_0_bef3c30032" x="487.78738" y="240.103896" style="fill: #fde725; stroke: #fde725"/>
    </g>
    <g clip-path="url(#p77f13abe39)">
     <use xlink:href="#C0_0_bef3c30032" x="372.983553" y="240.601919" style="fill: #fde725; stroke: #fde725"/>
    </g>
    <g clip-path="url(#p77f13abe39)">
     <use xlink:href="#C0_0_bef3c30032" x="223.471591" y="133.028797" style="fill: #fde725; stroke: #fde725"/>
    </g>
    <g clip-path="url(#p77f13abe39)">
     <use xlink:href="#C0_0_bef3c30032" x="401.017045" y="161.416149" style="fill: #fde725; stroke: #fde725"/>
    </g>
    <g clip-path="url(#p77f13abe39)">
     <use xlink:href="#C0_0_bef3c30032" x="288.883074" y="160.918125" style="fill: #fde725; stroke: #fde725"/>
    </g>
    <g clip-path="url(#p77f13abe39)">
     <use xlink:href="#C0_0_bef3c30032" x="303.567285" y="151.953698" style="fill: #fde725; stroke: #fde725"/>
    </g>
    <g clip-path="url(#p77f13abe39)">
     <use xlink:href="#C0_0_bef3c30032" x="413.0314" y="186.317334" style="fill: #fde725; stroke: #fde725"/>
    </g>
    <g clip-path="url(#p77f13abe39)">
     <use xlink:href="#C0_0_bef3c30032" x="406.356758" y="106.63354" style="fill: #fde725; stroke: #fde725"/>
    </g>
    <g clip-path="url(#p77f13abe39)">
     <use xlink:href="#C0_0_bef3c30032" x="368.978768" y="139.503105" style="fill: #fde725; stroke: #fde725"/>
    </g>
    <g clip-path="url(#p77f13abe39)">
     <use xlink:href="#C0_0_bef3c30032" x="284.878289" y="155.937888" style="fill: #fde725; stroke: #fde725"/>
    </g>
    <g clip-path="url(#p77f13abe39)">
     <use xlink:href="#C0_0_bef3c30032" x="386.332835" y="195.281761" style="fill: #fde725; stroke: #fde725"/>
    </g>
    <g clip-path="url(#p77f13abe39)">
     <use xlink:href="#C0_0_bef3c30032" x="362.304127" y="94.680971" style="fill: #fde725; stroke: #fde725"/>
    </g>
    <g clip-path="url(#p77f13abe39)">
     <use xlink:href="#C0_0_bef3c30032" x="202.112739" y="172.870694" style="fill: #fde725; stroke: #fde725"/>
    </g>
    <g clip-path="url(#p77f13abe39)">
     <use xlink:href="#C0_0_bef3c30032" x="278.203648" y="204.744212" style="fill: #fde725; stroke: #fde725"/>
    </g>
    <g clip-path="url(#p77f13abe39)">
     <use xlink:href="#C0_0_bef3c30032" x="463.758672" y="198.767927" style="fill: #fde725; stroke: #fde725"/>
    </g>
    <g clip-path="url(#p77f13abe39)">
     <use xlink:href="#C0_0_bef3c30032" x="403.686902" y="42.388481" style="fill: #fde725; stroke: #fde725"/>
    </g>
    <g clip-path="url(#p77f13abe39)">
     <use xlink:href="#C0_0_bef3c30032" x="362.304127" y="129.044607" style="fill: #fde725; stroke: #fde725"/>
    </g>
    <g clip-path="url(#p77f13abe39)">
     <use xlink:href="#C0_0_bef3c30032" x="344.95006" y="110.61773" style="fill: #fde725; stroke: #fde725"/>
    </g>
    <g clip-path="url(#p77f13abe39)">
     <use xlink:href="#C0_0_bef3c30032" x="331.600778" y="194.783738" style="fill: #fde725; stroke: #fde725"/>
    </g>
    <g clip-path="url(#p77f13abe39)">
     <use xlink:href="#C0_0_bef3c30032" x="459.753888" y="119.582157" style="fill: #fde725; stroke: #fde725"/>
    </g>
   </g>
   <g id="PathCollection_2">
    <defs>
     <path id="m500d0f823a" d="M -3 3 
L 3 -3 
M -3 -3 
L 3 3 
" style="stroke: #ff0000; stroke-width: 1.5"/>
    </defs>
    <g clip-path="url(#p77f13abe39)">
     <use xlink:href="#m500d0f823a" x="211.497689" y="242.978851" style="fill: #ff0000; stroke: #ff0000; stroke-width: 1.5"/>
     <use xlink:href="#m500d0f823a" x="318.745913" y="135.887822" style="fill: #ff0000; stroke: #ff0000; stroke-width: 1.5"/>
     <use xlink:href="#m500d0f823a" x="410.844879" y="233.543721" style="fill: #ff0000; stroke: #ff0000; stroke-width: 1.5"/>
    </g>
   </g>
   <g id="matplotlib.axis_1">
    <g id="xtick_1">
     <g id="line2d_1">
      <defs>
       <path id="m0491d6725c" d="M 0 0 
L 0 3.5 
" style="stroke: #000000; stroke-width: 0.8"/>
      </defs>
      <g>
       <use xlink:href="#m0491d6725c" x="41.921352" y="299.518125" style="stroke: #000000; stroke-width: 0.8"/>
      </g>
     </g>
     <g id="text_1">
      <!-- 11.0 -->
      <g transform="translate(30.788539 314.116563) scale(0.1 -0.1)">
       <defs>
        <path id="DejaVuSans-31" d="M 794 531 
L 1825 531 
L 1825 4091 
L 703 3866 
L 703 4441 
L 1819 4666 
L 2450 4666 
L 2450 531 
L 3481 531 
L 3481 0 
L 794 0 
L 794 531 
z
" transform="scale(0.015625)"/>
        <path id="DejaVuSans-2e" d="M 684 794 
L 1344 794 
L 1344 0 
L 684 0 
L 684 794 
z
" transform="scale(0.015625)"/>
        <path id="DejaVuSans-30" d="M 2034 4250 
Q 1547 4250 1301 3770 
Q 1056 3291 1056 2328 
Q 1056 1369 1301 889 
Q 1547 409 2034 409 
Q 2525 409 2770 889 
Q 3016 1369 3016 2328 
Q 3016 3291 2770 3770 
Q 2525 4250 2034 4250 
z
M 2034 4750 
Q 2819 4750 3233 4129 
Q 3647 3509 3647 2328 
Q 3647 1150 3233 529 
Q 2819 -91 2034 -91 
Q 1250 -91 836 529 
Q 422 1150 422 2328 
Q 422 3509 836 4129 
Q 1250 4750 2034 4750 
z
" transform="scale(0.015625)"/>
       </defs>
       <use xlink:href="#DejaVuSans-31"/>
       <use xlink:href="#DejaVuSans-31" x="63.623047"/>
       <use xlink:href="#DejaVuSans-2e" x="127.246094"/>
       <use xlink:href="#DejaVuSans-30" x="159.033203"/>
      </g>
     </g>
    </g>
    <g id="xtick_2">
     <g id="line2d_2">
      <g>
       <use xlink:href="#m0491d6725c" x="108.667763" y="299.518125" style="stroke: #000000; stroke-width: 0.8"/>
      </g>
     </g>
     <g id="text_2">
      <!-- 11.5 -->
      <g transform="translate(97.534951 314.116563) scale(0.1 -0.1)">
       <defs>
        <path id="DejaVuSans-35" d="M 691 4666 
L 3169 4666 
L 3169 4134 
L 1269 4134 
L 1269 2991 
Q 1406 3038 1543 3061 
Q 1681 3084 1819 3084 
Q 2600 3084 3056 2656 
Q 3513 2228 3513 1497 
Q 3513 744 3044 326 
Q 2575 -91 1722 -91 
Q 1428 -91 1123 -41 
Q 819 9 494 109 
L 494 744 
Q 775 591 1075 516 
Q 1375 441 1709 441 
Q 2250 441 2565 725 
Q 2881 1009 2881 1497 
Q 2881 1984 2565 2268 
Q 2250 2553 1709 2553 
Q 1456 2553 1204 2497 
Q 953 2441 691 2322 
L 691 4666 
z
" transform="scale(0.015625)"/>
       </defs>
       <use xlink:href="#DejaVuSans-31"/>
       <use xlink:href="#DejaVuSans-31" x="63.623047"/>
       <use xlink:href="#DejaVuSans-2e" x="127.246094"/>
       <use xlink:href="#DejaVuSans-35" x="159.033203"/>
      </g>
     </g>
    </g>
    <g id="xtick_3">
     <g id="line2d_3">
      <g>
       <use xlink:href="#m0491d6725c" x="175.414175" y="299.518125" style="stroke: #000000; stroke-width: 0.8"/>
      </g>
     </g>
     <g id="text_3">
      <!-- 12.0 -->
      <g transform="translate(164.281362 314.116563) scale(0.1 -0.1)">
       <defs>
        <path id="DejaVuSans-32" d="M 1228 531 
L 3431 531 
L 3431 0 
L 469 0 
L 469 531 
Q 828 903 1448 1529 
Q 2069 2156 2228 2338 
Q 2531 2678 2651 2914 
Q 2772 3150 2772 3378 
Q 2772 3750 2511 3984 
Q 2250 4219 1831 4219 
Q 1534 4219 1204 4116 
Q 875 4013 500 3803 
L 500 4441 
Q 881 4594 1212 4672 
Q 1544 4750 1819 4750 
Q 2544 4750 2975 4387 
Q 3406 4025 3406 3419 
Q 3406 3131 3298 2873 
Q 3191 2616 2906 2266 
Q 2828 2175 2409 1742 
Q 1991 1309 1228 531 
z
" transform="scale(0.015625)"/>
       </defs>
       <use xlink:href="#DejaVuSans-31"/>
       <use xlink:href="#DejaVuSans-32" x="63.623047"/>
       <use xlink:href="#DejaVuSans-2e" x="127.246094"/>
       <use xlink:href="#DejaVuSans-30" x="159.033203"/>
      </g>
     </g>
    </g>
    <g id="xtick_4">
     <g id="line2d_4">
      <g>
       <use xlink:href="#m0491d6725c" x="242.160586" y="299.518125" style="stroke: #000000; stroke-width: 0.8"/>
      </g>
     </g>
     <g id="text_4">
      <!-- 12.5 -->
      <g transform="translate(231.027774 314.116563) scale(0.1 -0.1)">
       <use xlink:href="#DejaVuSans-31"/>
       <use xlink:href="#DejaVuSans-32" x="63.623047"/>
       <use xlink:href="#DejaVuSans-2e" x="127.246094"/>
       <use xlink:href="#DejaVuSans-35" x="159.033203"/>
      </g>
     </g>
    </g>
    <g id="xtick_5">
     <g id="line2d_5">
      <g>
       <use xlink:href="#m0491d6725c" x="308.906998" y="299.518125" style="stroke: #000000; stroke-width: 0.8"/>
      </g>
     </g>
     <g id="text_5">
      <!-- 13.0 -->
      <g transform="translate(297.774185 314.116563) scale(0.1 -0.1)">
       <defs>
        <path id="DejaVuSans-33" d="M 2597 2516 
Q 3050 2419 3304 2112 
Q 3559 1806 3559 1356 
Q 3559 666 3084 287 
Q 2609 -91 1734 -91 
Q 1441 -91 1130 -33 
Q 819 25 488 141 
L 488 750 
Q 750 597 1062 519 
Q 1375 441 1716 441 
Q 2309 441 2620 675 
Q 2931 909 2931 1356 
Q 2931 1769 2642 2001 
Q 2353 2234 1838 2234 
L 1294 2234 
L 1294 2753 
L 1863 2753 
Q 2328 2753 2575 2939 
Q 2822 3125 2822 3475 
Q 2822 3834 2567 4026 
Q 2313 4219 1838 4219 
Q 1578 4219 1281 4162 
Q 984 4106 628 3988 
L 628 4550 
Q 988 4650 1302 4700 
Q 1616 4750 1894 4750 
Q 2613 4750 3031 4423 
Q 3450 4097 3450 3541 
Q 3450 3153 3228 2886 
Q 3006 2619 2597 2516 
z
" transform="scale(0.015625)"/>
       </defs>
       <use xlink:href="#DejaVuSans-31"/>
       <use xlink:href="#DejaVuSans-33" x="63.623047"/>
       <use xlink:href="#DejaVuSans-2e" x="127.246094"/>
       <use xlink:href="#DejaVuSans-30" x="159.033203"/>
      </g>
     </g>
    </g>
    <g id="xtick_6">
     <g id="line2d_6">
      <g>
       <use xlink:href="#m0491d6725c" x="375.653409" y="299.518125" style="stroke: #000000; stroke-width: 0.8"/>
      </g>
     </g>
     <g id="text_6">
      <!-- 13.5 -->
      <g transform="translate(364.520597 314.116563) scale(0.1 -0.1)">
       <use xlink:href="#DejaVuSans-31"/>
       <use xlink:href="#DejaVuSans-33" x="63.623047"/>
       <use xlink:href="#DejaVuSans-2e" x="127.246094"/>
       <use xlink:href="#DejaVuSans-35" x="159.033203"/>
      </g>
     </g>
    </g>
    <g id="xtick_7">
     <g id="line2d_7">
      <g>
       <use xlink:href="#m0491d6725c" x="442.399821" y="299.518125" style="stroke: #000000; stroke-width: 0.8"/>
      </g>
     </g>
     <g id="text_7">
      <!-- 14.0 -->
      <g transform="translate(431.267008 314.116563) scale(0.1 -0.1)">
       <defs>
        <path id="DejaVuSans-34" d="M 2419 4116 
L 825 1625 
L 2419 1625 
L 2419 4116 
z
M 2253 4666 
L 3047 4666 
L 3047 1625 
L 3713 1625 
L 3713 1100 
L 3047 1100 
L 3047 0 
L 2419 0 
L 2419 1100 
L 313 1100 
L 313 1709 
L 2253 4666 
z
" transform="scale(0.015625)"/>
       </defs>
       <use xlink:href="#DejaVuSans-31"/>
       <use xlink:href="#DejaVuSans-34" x="63.623047"/>
       <use xlink:href="#DejaVuSans-2e" x="127.246094"/>
       <use xlink:href="#DejaVuSans-30" x="159.033203"/>
      </g>
     </g>
    </g>
    <g id="xtick_8">
     <g id="line2d_8">
      <g>
       <use xlink:href="#m0491d6725c" x="509.146232" y="299.518125" style="stroke: #000000; stroke-width: 0.8"/>
      </g>
     </g>
     <g id="text_8">
      <!-- 14.5 -->
      <g transform="translate(498.01342 314.116563) scale(0.1 -0.1)">
       <use xlink:href="#DejaVuSans-31"/>
       <use xlink:href="#DejaVuSans-34" x="63.623047"/>
       <use xlink:href="#DejaVuSans-2e" x="127.246094"/>
       <use xlink:href="#DejaVuSans-35" x="159.033203"/>
      </g>
     </g>
    </g>
    <g id="xtick_9">
     <g id="line2d_9">
      <g>
       <use xlink:href="#m0491d6725c" x="575.892644" y="299.518125" style="stroke: #000000; stroke-width: 0.8"/>
      </g>
     </g>
     <g id="text_9">
      <!-- 15.0 -->
      <g transform="translate(564.759831 314.116563) scale(0.1 -0.1)">
       <use xlink:href="#DejaVuSans-31"/>
       <use xlink:href="#DejaVuSans-35" x="63.623047"/>
       <use xlink:href="#DejaVuSans-2e" x="127.246094"/>
       <use xlink:href="#DejaVuSans-30" x="159.033203"/>
      </g>
     </g>
    </g>
   </g>
   <g id="matplotlib.axis_2">
    <g id="ytick_1">
     <g id="line2d_10">
      <defs>
       <path id="m5619e17b3d" d="M 0 0 
L -3.5 0 
" style="stroke: #000000; stroke-width: 0.8"/>
      </defs>
      <g>
       <use xlink:href="#m5619e17b3d" x="20.5625" y="273.969508" style="stroke: #000000; stroke-width: 0.8"/>
      </g>
     </g>
     <g id="text_10">
      <!-- 1 -->
      <g transform="translate(7.2 277.768727) scale(0.1 -0.1)">
       <use xlink:href="#DejaVuSans-31"/>
      </g>
     </g>
    </g>
    <g id="ytick_2">
     <g id="line2d_11">
      <g>
       <use xlink:href="#m5619e17b3d" x="20.5625" y="224.167137" style="stroke: #000000; stroke-width: 0.8"/>
      </g>
     </g>
     <g id="text_11">
      <!-- 2 -->
      <g transform="translate(7.2 227.966356) scale(0.1 -0.1)">
       <use xlink:href="#DejaVuSans-32"/>
      </g>
     </g>
    </g>
    <g id="ytick_3">
     <g id="line2d_12">
      <g>
       <use xlink:href="#m5619e17b3d" x="20.5625" y="174.364765" style="stroke: #000000; stroke-width: 0.8"/>
      </g>
     </g>
     <g id="text_12">
      <!-- 3 -->
      <g transform="translate(7.2 178.163984) scale(0.1 -0.1)">
       <use xlink:href="#DejaVuSans-33"/>
      </g>
     </g>
    </g>
    <g id="ytick_4">
     <g id="line2d_13">
      <g>
       <use xlink:href="#m5619e17b3d" x="20.5625" y="124.562394" style="stroke: #000000; stroke-width: 0.8"/>
      </g>
     </g>
     <g id="text_13">
      <!-- 4 -->
      <g transform="translate(7.2 128.361613) scale(0.1 -0.1)">
       <use xlink:href="#DejaVuSans-34"/>
      </g>
     </g>
    </g>
    <g id="ytick_5">
     <g id="line2d_14">
      <g>
       <use xlink:href="#m5619e17b3d" x="20.5625" y="74.760022" style="stroke: #000000; stroke-width: 0.8"/>
      </g>
     </g>
     <g id="text_14">
      <!-- 5 -->
      <g transform="translate(7.2 78.559241) scale(0.1 -0.1)">
       <use xlink:href="#DejaVuSans-35"/>
      </g>
     </g>
    </g>
    <g id="ytick_6">
     <g id="line2d_15">
      <g>
       <use xlink:href="#m5619e17b3d" x="20.5625" y="24.957651" style="stroke: #000000; stroke-width: 0.8"/>
      </g>
     </g>
     <g id="text_15">
      <!-- 6 -->
      <g transform="translate(7.2 28.756869) scale(0.1 -0.1)">
       <defs>
        <path id="DejaVuSans-36" d="M 2113 2584 
Q 1688 2584 1439 2293 
Q 1191 2003 1191 1497 
Q 1191 994 1439 701 
Q 1688 409 2113 409 
Q 2538 409 2786 701 
Q 3034 994 3034 1497 
Q 3034 2003 2786 2293 
Q 2538 2584 2113 2584 
z
M 3366 4563 
L 3366 3988 
Q 3128 4100 2886 4159 
Q 2644 4219 2406 4219 
Q 1781 4219 1451 3797 
Q 1122 3375 1075 2522 
Q 1259 2794 1537 2939 
Q 1816 3084 2150 3084 
Q 2853 3084 3261 2657 
Q 3669 2231 3669 1497 
Q 3669 778 3244 343 
Q 2819 -91 2113 -91 
Q 1303 -91 875 529 
Q 447 1150 447 2328 
Q 447 3434 972 4092 
Q 1497 4750 2381 4750 
Q 2619 4750 2861 4703 
Q 3103 4656 3366 4563 
z
" transform="scale(0.015625)"/>
       </defs>
       <use xlink:href="#DejaVuSans-36"/>
      </g>
     </g>
    </g>
   </g>
   <g id="patch_3">
    <path d="M 20.5625 299.518125 
L 20.5625 22.318125 
" style="fill: none; stroke: #000000; stroke-width: 0.8; stroke-linejoin: miter; stroke-linecap: square"/>
   </g>
   <g id="patch_4">
    <path d="M 578.5625 299.518125 
L 578.5625 22.318125 
" style="fill: none; stroke: #000000; stroke-width: 0.8; stroke-linejoin: miter; stroke-linecap: square"/>
   </g>
   <g id="patch_5">
    <path d="M 20.5625 299.518125 
L 578.5625 299.518125 
" style="fill: none; stroke: #000000; stroke-width: 0.8; stroke-linejoin: miter; stroke-linecap: square"/>
   </g>
   <g id="patch_6">
    <path d="M 20.5625 22.318125 
L 578.5625 22.318125 
" style="fill: none; stroke: #000000; stroke-width: 0.8; stroke-linejoin: miter; stroke-linecap: square"/>
   </g>
   <g id="text_16">
    <!-- KMeans Clustering -->
    <g transform="translate(243.673438 16.318125) scale(0.12 -0.12)">
     <defs>
      <path id="DejaVuSans-4b" d="M 628 4666 
L 1259 4666 
L 1259 2694 
L 3353 4666 
L 4166 4666 
L 1850 2491 
L 4331 0 
L 3500 0 
L 1259 2247 
L 1259 0 
L 628 0 
L 628 4666 
z
" transform="scale(0.015625)"/>
      <path id="DejaVuSans-4d" d="M 628 4666 
L 1569 4666 
L 2759 1491 
L 3956 4666 
L 4897 4666 
L 4897 0 
L 4281 0 
L 4281 4097 
L 3078 897 
L 2444 897 
L 1241 4097 
L 1241 0 
L 628 0 
L 628 4666 
z
" transform="scale(0.015625)"/>
      <path id="DejaVuSans-65" d="M 3597 1894 
L 3597 1613 
L 953 1613 
Q 991 1019 1311 708 
Q 1631 397 2203 397 
Q 2534 397 2845 478 
Q 3156 559 3463 722 
L 3463 178 
Q 3153 47 2828 -22 
Q 2503 -91 2169 -91 
Q 1331 -91 842 396 
Q 353 884 353 1716 
Q 353 2575 817 3079 
Q 1281 3584 2069 3584 
Q 2775 3584 3186 3129 
Q 3597 2675 3597 1894 
z
M 3022 2063 
Q 3016 2534 2758 2815 
Q 2500 3097 2075 3097 
Q 1594 3097 1305 2825 
Q 1016 2553 972 2059 
L 3022 2063 
z
" transform="scale(0.015625)"/>
      <path id="DejaVuSans-61" d="M 2194 1759 
Q 1497 1759 1228 1600 
Q 959 1441 959 1056 
Q 959 750 1161 570 
Q 1363 391 1709 391 
Q 2188 391 2477 730 
Q 2766 1069 2766 1631 
L 2766 1759 
L 2194 1759 
z
M 3341 1997 
L 3341 0 
L 2766 0 
L 2766 531 
Q 2569 213 2275 61 
Q 1981 -91 1556 -91 
Q 1019 -91 701 211 
Q 384 513 384 1019 
Q 384 1609 779 1909 
Q 1175 2209 1959 2209 
L 2766 2209 
L 2766 2266 
Q 2766 2663 2505 2880 
Q 2244 3097 1772 3097 
Q 1472 3097 1187 3025 
Q 903 2953 641 2809 
L 641 3341 
Q 956 3463 1253 3523 
Q 1550 3584 1831 3584 
Q 2591 3584 2966 3190 
Q 3341 2797 3341 1997 
z
" transform="scale(0.015625)"/>
      <path id="DejaVuSans-6e" d="M 3513 2113 
L 3513 0 
L 2938 0 
L 2938 2094 
Q 2938 2591 2744 2837 
Q 2550 3084 2163 3084 
Q 1697 3084 1428 2787 
Q 1159 2491 1159 1978 
L 1159 0 
L 581 0 
L 581 3500 
L 1159 3500 
L 1159 2956 
Q 1366 3272 1645 3428 
Q 1925 3584 2291 3584 
Q 2894 3584 3203 3211 
Q 3513 2838 3513 2113 
z
" transform="scale(0.015625)"/>
      <path id="DejaVuSans-73" d="M 2834 3397 
L 2834 2853 
Q 2591 2978 2328 3040 
Q 2066 3103 1784 3103 
Q 1356 3103 1142 2972 
Q 928 2841 928 2578 
Q 928 2378 1081 2264 
Q 1234 2150 1697 2047 
L 1894 2003 
Q 2506 1872 2764 1633 
Q 3022 1394 3022 966 
Q 3022 478 2636 193 
Q 2250 -91 1575 -91 
Q 1294 -91 989 -36 
Q 684 19 347 128 
L 347 722 
Q 666 556 975 473 
Q 1284 391 1588 391 
Q 1994 391 2212 530 
Q 2431 669 2431 922 
Q 2431 1156 2273 1281 
Q 2116 1406 1581 1522 
L 1381 1569 
Q 847 1681 609 1914 
Q 372 2147 372 2553 
Q 372 3047 722 3315 
Q 1072 3584 1716 3584 
Q 2034 3584 2315 3537 
Q 2597 3491 2834 3397 
z
" transform="scale(0.015625)"/>
      <path id="DejaVuSans-20" transform="scale(0.015625)"/>
      <path id="DejaVuSans-43" d="M 4122 4306 
L 4122 3641 
Q 3803 3938 3442 4084 
Q 3081 4231 2675 4231 
Q 1875 4231 1450 3742 
Q 1025 3253 1025 2328 
Q 1025 1406 1450 917 
Q 1875 428 2675 428 
Q 3081 428 3442 575 
Q 3803 722 4122 1019 
L 4122 359 
Q 3791 134 3420 21 
Q 3050 -91 2638 -91 
Q 1578 -91 968 557 
Q 359 1206 359 2328 
Q 359 3453 968 4101 
Q 1578 4750 2638 4750 
Q 3056 4750 3426 4639 
Q 3797 4528 4122 4306 
z
" transform="scale(0.015625)"/>
      <path id="DejaVuSans-6c" d="M 603 4863 
L 1178 4863 
L 1178 0 
L 603 0 
L 603 4863 
z
" transform="scale(0.015625)"/>
      <path id="DejaVuSans-75" d="M 544 1381 
L 544 3500 
L 1119 3500 
L 1119 1403 
Q 1119 906 1312 657 
Q 1506 409 1894 409 
Q 2359 409 2629 706 
Q 2900 1003 2900 1516 
L 2900 3500 
L 3475 3500 
L 3475 0 
L 2900 0 
L 2900 538 
Q 2691 219 2414 64 
Q 2138 -91 1772 -91 
Q 1169 -91 856 284 
Q 544 659 544 1381 
z
M 1991 3584 
L 1991 3584 
z
" transform="scale(0.015625)"/>
      <path id="DejaVuSans-74" d="M 1172 4494 
L 1172 3500 
L 2356 3500 
L 2356 3053 
L 1172 3053 
L 1172 1153 
Q 1172 725 1289 603 
Q 1406 481 1766 481 
L 2356 481 
L 2356 0 
L 1766 0 
Q 1100 0 847 248 
Q 594 497 594 1153 
L 594 3053 
L 172 3053 
L 172 3500 
L 594 3500 
L 594 4494 
L 1172 4494 
z
" transform="scale(0.015625)"/>
      <path id="DejaVuSans-72" d="M 2631 2963 
Q 2534 3019 2420 3045 
Q 2306 3072 2169 3072 
Q 1681 3072 1420 2755 
Q 1159 2438 1159 1844 
L 1159 0 
L 581 0 
L 581 3500 
L 1159 3500 
L 1159 2956 
Q 1341 3275 1631 3429 
Q 1922 3584 2338 3584 
Q 2397 3584 2469 3576 
Q 2541 3569 2628 3553 
L 2631 2963 
z
" transform="scale(0.015625)"/>
      <path id="DejaVuSans-69" d="M 603 3500 
L 1178 3500 
L 1178 0 
L 603 0 
L 603 3500 
z
M 603 4863 
L 1178 4863 
L 1178 4134 
L 603 4134 
L 603 4863 
z
" transform="scale(0.015625)"/>
      <path id="DejaVuSans-67" d="M 2906 1791 
Q 2906 2416 2648 2759 
Q 2391 3103 1925 3103 
Q 1463 3103 1205 2759 
Q 947 2416 947 1791 
Q 947 1169 1205 825 
Q 1463 481 1925 481 
Q 2391 481 2648 825 
Q 2906 1169 2906 1791 
z
M 3481 434 
Q 3481 -459 3084 -895 
Q 2688 -1331 1869 -1331 
Q 1566 -1331 1297 -1286 
Q 1028 -1241 775 -1147 
L 775 -588 
Q 1028 -725 1275 -790 
Q 1522 -856 1778 -856 
Q 2344 -856 2625 -561 
Q 2906 -266 2906 331 
L 2906 616 
Q 2728 306 2450 153 
Q 2172 0 1784 0 
Q 1141 0 747 490 
Q 353 981 353 1791 
Q 353 2603 747 3093 
Q 1141 3584 1784 3584 
Q 2172 3584 2450 3431 
Q 2728 3278 2906 2969 
L 2906 3500 
L 3481 3500 
L 3481 434 
z
" transform="scale(0.015625)"/>
     </defs>
     <use xlink:href="#DejaVuSans-4b"/>
     <use xlink:href="#DejaVuSans-4d" x="65.576172"/>
     <use xlink:href="#DejaVuSans-65" x="151.855469"/>
     <use xlink:href="#DejaVuSans-61" x="213.378906"/>
     <use xlink:href="#DejaVuSans-6e" x="274.658203"/>
     <use xlink:href="#DejaVuSans-73" x="338.037109"/>
     <use xlink:href="#DejaVuSans-20" x="390.136719"/>
     <use xlink:href="#DejaVuSans-43" x="421.923828"/>
     <use xlink:href="#DejaVuSans-6c" x="491.748047"/>
     <use xlink:href="#DejaVuSans-75" x="519.53125"/>
     <use xlink:href="#DejaVuSans-73" x="582.910156"/>
     <use xlink:href="#DejaVuSans-74" x="635.009766"/>
     <use xlink:href="#DejaVuSans-65" x="674.21875"/>
     <use xlink:href="#DejaVuSans-72" x="735.742188"/>
     <use xlink:href="#DejaVuSans-69" x="776.855469"/>
     <use xlink:href="#DejaVuSans-6e" x="804.638672"/>
     <use xlink:href="#DejaVuSans-67" x="868.017578"/>
    </g>
   </g>
  </g>
 </g>
 <defs>
  <clipPath id="p77f13abe39">
   <rect x="20.5625" y="22.318125" width="558" height="277.2"/>
  </clipPath>
 </defs>
</svg>
