<?xml version="1.0" encoding="utf-8" standalone="no"?>
<!DOCTYPE svg PUBLIC "-//W3C//DTD SVG 1.1//EN"
  "http://www.w3.org/Graphics/SVG/1.1/DTD/svg11.dtd">
<svg xmlns:xlink="http://www.w3.org/1999/xlink" width="610.263819pt" height="340.811875pt" viewBox="0 0 610.263819 340.811875" xmlns="http://www.w3.org/2000/svg" version="1.1">
 <metadata>
  <rdf:RDF xmlns:dc="http://purl.org/dc/elements/1.1/" xmlns:cc="http://creativecommons.org/ns#" xmlns:rdf="http://www.w3.org/1999/02/22-rdf-syntax-ns#">
   <cc:Work>
    <dc:type rdf:resource="http://purl.org/dc/dcmitype/StillImage"/>
    <dc:date>2025-06-04T21:44:01.672352</dc:date>
    <dc:format>image/svg+xml</dc:format>
    <dc:creator>
     <cc:Agent>
      <dc:title>Matplotlib v3.7.2, https://matplotlib.org/</dc:title>
     </cc:Agent>
    </dc:creator>
   </cc:Work>
  </rdf:RDF>
 </metadata>
 <defs>
  <style type="text/css">*{stroke-linejoin: round; stroke-linecap: butt}</style>
 </defs>
 <g id="figure_1">
  <g id="patch_1">
   <path d="M 0 340.811875 
L 610.263819 340.811875 
L 610.263819 0 
L 0 0 
z
" style="fill: #ffffff"/>
  </g>
  <g id="axes_1">
   <g id="patch_2">
    <path d="M 40.603125 301.32 
L 598.603125 301.32 
L 598.603125 24.12 
L 40.603125 24.12 
z
" style="fill: #ffffff"/>
   </g>
   <g id="patch_3">
    <path d="M 65.966761 301.32 
L 74.421307 301.32 
L 74.421307 301.016016 
L 65.966761 301.016016 
z
" clip-path="url(#p4819103077)" style="fill: #1f77b4; fill-opacity: 0.5; stroke: #000000; stroke-width: 0.845455; stroke-linejoin: miter"/>
   </g>
   <g id="patch_4">
    <path d="M 74.421307 301.32 
L 82.875852 301.32 
L 82.875852 301.32 
L 74.421307 301.32 
z
" clip-path="url(#p4819103077)" style="fill: #1f77b4; fill-opacity: 0.5; stroke: #000000; stroke-width: 0.845455; stroke-linejoin: miter"/>
   </g>
   <g id="patch_5">
    <path d="M 82.875852 301.32 
L 91.330398 301.32 
L 91.330398 300.408048 
L 82.875852 300.408048 
z
" clip-path="url(#p4819103077)" style="fill: #1f77b4; fill-opacity: 0.5; stroke: #000000; stroke-width: 0.845455; stroke-linejoin: miter"/>
   </g>
   <g id="patch_6">
    <path d="M 91.330398 301.32 
L 99.784943 301.32 
L 99.784943 299.192113 
L 91.330398 299.192113 
z
" clip-path="url(#p4819103077)" style="fill: #1f77b4; fill-opacity: 0.5; stroke: #000000; stroke-width: 0.845455; stroke-linejoin: miter"/>
   </g>
   <g id="patch_7">
    <path d="M 99.784943 301.32 
L 108.239489 301.32 
L 108.239489 301.32 
L 99.784943 301.32 
z
" clip-path="url(#p4819103077)" style="fill: #1f77b4; fill-opacity: 0.5; stroke: #000000; stroke-width: 0.845455; stroke-linejoin: miter"/>
   </g>
   <g id="patch_8">
    <path d="M 108.239489 301.32 
L 116.694034 301.32 
L 116.694034 299.80008 
L 108.239489 299.80008 
z
" clip-path="url(#p4819103077)" style="fill: #1f77b4; fill-opacity: 0.5; stroke: #000000; stroke-width: 0.845455; stroke-linejoin: miter"/>
   </g>
   <g id="patch_9">
    <path d="M 116.694034 301.32 
L 125.14858 301.32 
L 125.14858 300.408048 
L 116.694034 300.408048 
z
" clip-path="url(#p4819103077)" style="fill: #1f77b4; fill-opacity: 0.5; stroke: #000000; stroke-width: 0.845455; stroke-linejoin: miter"/>
   </g>
   <g id="patch_10">
    <path d="M 125.14858 301.32 
L 133.603125 301.32 
L 133.603125 299.496096 
L 125.14858 299.496096 
z
" clip-path="url(#p4819103077)" style="fill: #1f77b4; fill-opacity: 0.5; stroke: #000000; stroke-width: 0.845455; stroke-linejoin: miter"/>
   </g>
   <g id="patch_11">
    <path d="M 133.603125 301.32 
L 142.05767 301.32 
L 142.05767 297.976177 
L 133.603125 297.976177 
z
" clip-path="url(#p4819103077)" style="fill: #1f77b4; fill-opacity: 0.5; stroke: #000000; stroke-width: 0.845455; stroke-linejoin: miter"/>
   </g>
   <g id="patch_12">
    <path d="M 142.05767 301.32 
L 150.512216 301.32 
L 150.512216 294.632354 
L 142.05767 294.632354 
z
" clip-path="url(#p4819103077)" style="fill: #1f77b4; fill-opacity: 0.5; stroke: #000000; stroke-width: 0.845455; stroke-linejoin: miter"/>
   </g>
   <g id="patch_13">
    <path d="M 150.512216 301.32 
L 158.966761 301.32 
L 158.966761 295.544305 
L 150.512216 295.544305 
z
" clip-path="url(#p4819103077)" style="fill: #1f77b4; fill-opacity: 0.5; stroke: #000000; stroke-width: 0.845455; stroke-linejoin: miter"/>
   </g>
   <g id="patch_14">
    <path d="M 158.966761 301.32 
L 167.421307 301.32 
L 167.421307 290.072595 
L 158.966761 290.072595 
z
" clip-path="url(#p4819103077)" style="fill: #1f77b4; fill-opacity: 0.5; stroke: #000000; stroke-width: 0.845455; stroke-linejoin: miter"/>
   </g>
   <g id="patch_15">
    <path d="M 167.421307 301.32 
L 175.875852 301.32 
L 175.875852 289.768611 
L 167.421307 289.768611 
z
" clip-path="url(#p4819103077)" style="fill: #1f77b4; fill-opacity: 0.5; stroke: #000000; stroke-width: 0.845455; stroke-linejoin: miter"/>
   </g>
   <g id="patch_16">
    <path d="M 175.875852 301.32 
L 184.330398 301.32 
L 184.330398 283.080965 
L 175.875852 283.080965 
z
" clip-path="url(#p4819103077)" style="fill: #1f77b4; fill-opacity: 0.5; stroke: #000000; stroke-width: 0.845455; stroke-linejoin: miter"/>
   </g>
   <g id="patch_17">
    <path d="M 184.330398 301.32 
L 192.784943 301.32 
L 192.784943 280.345109 
L 184.330398 280.345109 
z
" clip-path="url(#p4819103077)" style="fill: #1f77b4; fill-opacity: 0.5; stroke: #000000; stroke-width: 0.845455; stroke-linejoin: miter"/>
   </g>
   <g id="patch_18">
    <path d="M 192.784943 301.32 
L 201.239489 301.32 
L 201.239489 273.657463 
L 192.784943 273.657463 
z
" clip-path="url(#p4819103077)" style="fill: #1f77b4; fill-opacity: 0.5; stroke: #000000; stroke-width: 0.845455; stroke-linejoin: miter"/>
   </g>
   <g id="patch_19">
    <path d="M 201.239489 301.32 
L 209.694034 301.32 
L 209.694034 266.665833 
L 201.239489 266.665833 
z
" clip-path="url(#p4819103077)" style="fill: #1f77b4; fill-opacity: 0.5; stroke: #000000; stroke-width: 0.845455; stroke-linejoin: miter"/>
   </g>
   <g id="patch_20">
    <path d="M 209.694034 301.32 
L 218.14858 301.32 
L 218.14858 262.410058 
L 209.694034 262.410058 
z
" clip-path="url(#p4819103077)" style="fill: #1f77b4; fill-opacity: 0.5; stroke: #000000; stroke-width: 0.845455; stroke-linejoin: miter"/>
   </g>
   <g id="patch_21">
    <path d="M 218.14858 301.32 
L 226.603125 301.32 
L 226.603125 250.858669 
L 218.14858 250.858669 
z
" clip-path="url(#p4819103077)" style="fill: #1f77b4; fill-opacity: 0.5; stroke: #000000; stroke-width: 0.845455; stroke-linejoin: miter"/>
   </g>
   <g id="patch_22">
    <path d="M 226.603125 301.32 
L 235.05767 301.32 
L 235.05767 243.259071 
L 226.603125 243.259071 
z
" clip-path="url(#p4819103077)" style="fill: #1f77b4; fill-opacity: 0.5; stroke: #000000; stroke-width: 0.845455; stroke-linejoin: miter"/>
   </g>
   <g id="patch_23">
    <path d="M 235.05767 301.32 
L 243.512216 301.32 
L 243.512216 232.923617 
L 235.05767 232.923617 
z
" clip-path="url(#p4819103077)" style="fill: #1f77b4; fill-opacity: 0.5; stroke: #000000; stroke-width: 0.845455; stroke-linejoin: miter"/>
   </g>
   <g id="patch_24">
    <path d="M 243.512216 301.32 
L 251.966761 301.32 
L 251.966761 218.332389 
L 243.512216 218.332389 
z
" clip-path="url(#p4819103077)" style="fill: #1f77b4; fill-opacity: 0.5; stroke: #000000; stroke-width: 0.845455; stroke-linejoin: miter"/>
   </g>
   <g id="patch_25">
    <path d="M 251.966761 301.32 
L 260.421307 301.32 
L 260.421307 197.661482 
L 251.966761 197.661482 
z
" clip-path="url(#p4819103077)" style="fill: #1f77b4; fill-opacity: 0.5; stroke: #000000; stroke-width: 0.845455; stroke-linejoin: miter"/>
   </g>
   <g id="patch_26">
    <path d="M 260.421307 301.32 
L 268.875852 301.32 
L 268.875852 200.093353 
L 260.421307 200.093353 
z
" clip-path="url(#p4819103077)" style="fill: #1f77b4; fill-opacity: 0.5; stroke: #000000; stroke-width: 0.845455; stroke-linejoin: miter"/>
   </g>
   <g id="patch_27">
    <path d="M 268.875852 301.32 
L 277.330398 301.32 
L 277.330398 172.7348 
L 268.875852 172.7348 
z
" clip-path="url(#p4819103077)" style="fill: #1f77b4; fill-opacity: 0.5; stroke: #000000; stroke-width: 0.845455; stroke-linejoin: miter"/>
   </g>
   <g id="patch_28">
    <path d="M 277.330398 301.32 
L 285.784943 301.32 
L 285.784943 169.998945 
L 277.330398 169.998945 
z
" clip-path="url(#p4819103077)" style="fill: #1f77b4; fill-opacity: 0.5; stroke: #000000; stroke-width: 0.845455; stroke-linejoin: miter"/>
   </g>
   <g id="patch_29">
    <path d="M 285.784943 301.32 
L 294.239489 301.32 
L 294.239489 175.166672 
L 285.784943 175.166672 
z
" clip-path="url(#p4819103077)" style="fill: #1f77b4; fill-opacity: 0.5; stroke: #000000; stroke-width: 0.845455; stroke-linejoin: miter"/>
   </g>
   <g id="patch_30">
    <path d="M 294.239489 301.32 
L 302.694034 301.32 
L 302.694034 165.135202 
L 294.239489 165.135202 
z
" clip-path="url(#p4819103077)" style="fill: #1f77b4; fill-opacity: 0.5; stroke: #000000; stroke-width: 0.845455; stroke-linejoin: miter"/>
   </g>
   <g id="patch_31">
    <path d="M 302.694034 301.32 
L 311.14858 301.32 
L 311.14858 152.975845 
L 302.694034 152.975845 
z
" clip-path="url(#p4819103077)" style="fill: #1f77b4; fill-opacity: 0.5; stroke: #000000; stroke-width: 0.845455; stroke-linejoin: miter"/>
   </g>
   <g id="patch_32">
    <path d="M 311.14858 301.32 
L 319.603125 301.32 
L 319.603125 148.112103 
L 311.14858 148.112103 
z
" clip-path="url(#p4819103077)" style="fill: #1f77b4; fill-opacity: 0.5; stroke: #000000; stroke-width: 0.845455; stroke-linejoin: miter"/>
   </g>
   <g id="patch_33">
    <path d="M 319.603125 301.32 
L 328.05767 301.32 
L 328.05767 151.75991 
L 319.603125 151.75991 
z
" clip-path="url(#p4819103077)" style="fill: #1f77b4; fill-opacity: 0.5; stroke: #000000; stroke-width: 0.845455; stroke-linejoin: miter"/>
   </g>
   <g id="patch_34">
    <path d="M 328.05767 301.32 
L 336.512216 301.32 
L 336.512216 147.504135 
L 328.05767 147.504135 
z
" clip-path="url(#p4819103077)" style="fill: #1f77b4; fill-opacity: 0.5; stroke: #000000; stroke-width: 0.845455; stroke-linejoin: miter"/>
   </g>
   <g id="patch_35">
    <path d="M 336.512216 301.32 
L 344.966761 301.32 
L 344.966761 152.063894 
L 336.512216 152.063894 
z
" clip-path="url(#p4819103077)" style="fill: #1f77b4; fill-opacity: 0.5; stroke: #000000; stroke-width: 0.845455; stroke-linejoin: miter"/>
   </g>
   <g id="patch_36">
    <path d="M 344.966761 301.32 
L 353.421307 301.32 
L 353.421307 158.447556 
L 344.966761 158.447556 
z
" clip-path="url(#p4819103077)" style="fill: #1f77b4; fill-opacity: 0.5; stroke: #000000; stroke-width: 0.845455; stroke-linejoin: miter"/>
   </g>
   <g id="patch_37">
    <path d="M 353.421307 301.32 
L 361.875852 301.32 
L 361.875852 179.726431 
L 353.421307 179.726431 
z
" clip-path="url(#p4819103077)" style="fill: #1f77b4; fill-opacity: 0.5; stroke: #000000; stroke-width: 0.845455; stroke-linejoin: miter"/>
   </g>
   <g id="patch_38">
    <path d="M 361.875852 301.32 
L 370.330398 301.32 
L 370.330398 192.189771 
L 361.875852 192.189771 
z
" clip-path="url(#p4819103077)" style="fill: #1f77b4; fill-opacity: 0.5; stroke: #000000; stroke-width: 0.845455; stroke-linejoin: miter"/>
   </g>
   <g id="patch_39">
    <path d="M 370.330398 301.32 
L 378.784943 301.32 
L 378.784943 189.149932 
L 370.330398 189.149932 
z
" clip-path="url(#p4819103077)" style="fill: #1f77b4; fill-opacity: 0.5; stroke: #000000; stroke-width: 0.845455; stroke-linejoin: miter"/>
   </g>
   <g id="patch_40">
    <path d="M 378.784943 301.32 
L 387.239489 301.32 
L 387.239489 200.701321 
L 378.784943 200.701321 
z
" clip-path="url(#p4819103077)" style="fill: #1f77b4; fill-opacity: 0.5; stroke: #000000; stroke-width: 0.845455; stroke-linejoin: miter"/>
   </g>
   <g id="patch_41">
    <path d="M 387.239489 301.32 
L 395.694034 301.32 
L 395.694034 208.300919 
L 387.239489 208.300919 
z
" clip-path="url(#p4819103077)" style="fill: #1f77b4; fill-opacity: 0.5; stroke: #000000; stroke-width: 0.845455; stroke-linejoin: miter"/>
   </g>
   <g id="patch_42">
    <path d="M 395.694034 301.32 
L 404.14858 301.32 
L 404.14858 221.372228 
L 395.694034 221.372228 
z
" clip-path="url(#p4819103077)" style="fill: #1f77b4; fill-opacity: 0.5; stroke: #000000; stroke-width: 0.845455; stroke-linejoin: miter"/>
   </g>
   <g id="patch_43">
    <path d="M 404.14858 301.32 
L 412.603125 301.32 
L 412.603125 235.963456 
L 404.14858 235.963456 
z
" clip-path="url(#p4819103077)" style="fill: #1f77b4; fill-opacity: 0.5; stroke: #000000; stroke-width: 0.845455; stroke-linejoin: miter"/>
   </g>
   <g id="patch_44">
    <path d="M 412.603125 301.32 
L 421.05767 301.32 
L 421.05767 241.739151 
L 412.603125 241.739151 
z
" clip-path="url(#p4819103077)" style="fill: #1f77b4; fill-opacity: 0.5; stroke: #000000; stroke-width: 0.845455; stroke-linejoin: miter"/>
   </g>
   <g id="patch_45">
    <path d="M 421.05767 301.32 
L 429.512216 301.32 
L 429.512216 251.466637 
L 421.05767 251.466637 
z
" clip-path="url(#p4819103077)" style="fill: #1f77b4; fill-opacity: 0.5; stroke: #000000; stroke-width: 0.845455; stroke-linejoin: miter"/>
   </g>
   <g id="patch_46">
    <path d="M 429.512216 301.32 
L 437.966761 301.32 
L 437.966761 257.546315 
L 429.512216 257.546315 
z
" clip-path="url(#p4819103077)" style="fill: #1f77b4; fill-opacity: 0.5; stroke: #000000; stroke-width: 0.845455; stroke-linejoin: miter"/>
   </g>
   <g id="patch_47">
    <path d="M 437.966761 301.32 
L 446.421307 301.32 
L 446.421307 272.137543 
L 437.966761 272.137543 
z
" clip-path="url(#p4819103077)" style="fill: #1f77b4; fill-opacity: 0.5; stroke: #000000; stroke-width: 0.845455; stroke-linejoin: miter"/>
   </g>
   <g id="patch_48">
    <path d="M 446.421307 301.32 
L 454.875852 301.32 
L 454.875852 273.353479 
L 446.421307 273.353479 
z
" clip-path="url(#p4819103077)" style="fill: #1f77b4; fill-opacity: 0.5; stroke: #000000; stroke-width: 0.845455; stroke-linejoin: miter"/>
   </g>
   <g id="patch_49">
    <path d="M 454.875852 301.32 
L 463.330398 301.32 
L 463.330398 280.649093 
L 454.875852 280.649093 
z
" clip-path="url(#p4819103077)" style="fill: #1f77b4; fill-opacity: 0.5; stroke: #000000; stroke-width: 0.845455; stroke-linejoin: miter"/>
   </g>
   <g id="patch_50">
    <path d="M 463.330398 301.32 
L 471.784943 301.32 
L 471.784943 283.384949 
L 463.330398 283.384949 
z
" clip-path="url(#p4819103077)" style="fill: #1f77b4; fill-opacity: 0.5; stroke: #000000; stroke-width: 0.845455; stroke-linejoin: miter"/>
   </g>
   <g id="patch_51">
    <path d="M 471.784943 301.32 
L 480.239489 301.32 
L 480.239489 288.248691 
L 471.784943 288.248691 
z
" clip-path="url(#p4819103077)" style="fill: #1f77b4; fill-opacity: 0.5; stroke: #000000; stroke-width: 0.845455; stroke-linejoin: miter"/>
   </g>
   <g id="patch_52">
    <path d="M 480.239489 301.32 
L 488.694034 301.32 
L 488.694034 295.848289 
L 480.239489 295.848289 
z
" clip-path="url(#p4819103077)" style="fill: #1f77b4; fill-opacity: 0.5; stroke: #000000; stroke-width: 0.845455; stroke-linejoin: miter"/>
   </g>
   <g id="patch_53">
    <path d="M 488.694034 301.32 
L 497.14858 301.32 
L 497.14858 297.064225 
L 488.694034 297.064225 
z
" clip-path="url(#p4819103077)" style="fill: #1f77b4; fill-opacity: 0.5; stroke: #000000; stroke-width: 0.845455; stroke-linejoin: miter"/>
   </g>
   <g id="patch_54">
    <path d="M 497.14858 301.32 
L 505.603125 301.32 
L 505.603125 298.280161 
L 497.14858 298.280161 
z
" clip-path="url(#p4819103077)" style="fill: #1f77b4; fill-opacity: 0.5; stroke: #000000; stroke-width: 0.845455; stroke-linejoin: miter"/>
   </g>
   <g id="patch_55">
    <path d="M 505.603125 301.32 
L 514.05767 301.32 
L 514.05767 297.976177 
L 505.603125 297.976177 
z
" clip-path="url(#p4819103077)" style="fill: #1f77b4; fill-opacity: 0.5; stroke: #000000; stroke-width: 0.845455; stroke-linejoin: miter"/>
   </g>
   <g id="patch_56">
    <path d="M 514.05767 301.32 
L 522.512216 301.32 
L 522.512216 297.672193 
L 514.05767 297.672193 
z
" clip-path="url(#p4819103077)" style="fill: #1f77b4; fill-opacity: 0.5; stroke: #000000; stroke-width: 0.845455; stroke-linejoin: miter"/>
   </g>
   <g id="patch_57">
    <path d="M 522.512216 301.32 
L 530.966761 301.32 
L 530.966761 300.104064 
L 522.512216 300.104064 
z
" clip-path="url(#p4819103077)" style="fill: #1f77b4; fill-opacity: 0.5; stroke: #000000; stroke-width: 0.845455; stroke-linejoin: miter"/>
   </g>
   <g id="patch_58">
    <path d="M 530.966761 301.32 
L 539.421307 301.32 
L 539.421307 300.408048 
L 530.966761 300.408048 
z
" clip-path="url(#p4819103077)" style="fill: #1f77b4; fill-opacity: 0.5; stroke: #000000; stroke-width: 0.845455; stroke-linejoin: miter"/>
   </g>
   <g id="patch_59">
    <path d="M 539.421307 301.32 
L 547.875852 301.32 
L 547.875852 299.80008 
L 539.421307 299.80008 
z
" clip-path="url(#p4819103077)" style="fill: #1f77b4; fill-opacity: 0.5; stroke: #000000; stroke-width: 0.845455; stroke-linejoin: miter"/>
   </g>
   <g id="patch_60">
    <path d="M 547.875852 301.32 
L 556.330398 301.32 
L 556.330398 300.408048 
L 547.875852 300.408048 
z
" clip-path="url(#p4819103077)" style="fill: #1f77b4; fill-opacity: 0.5; stroke: #000000; stroke-width: 0.845455; stroke-linejoin: miter"/>
   </g>
   <g id="patch_61">
    <path d="M 556.330398 301.32 
L 564.784943 301.32 
L 564.784943 301.32 
L 556.330398 301.32 
z
" clip-path="url(#p4819103077)" style="fill: #1f77b4; fill-opacity: 0.5; stroke: #000000; stroke-width: 0.845455; stroke-linejoin: miter"/>
   </g>
   <g id="patch_62">
    <path d="M 564.784943 301.32 
L 573.239489 301.32 
L 573.239489 300.408048 
L 564.784943 300.408048 
z
" clip-path="url(#p4819103077)" style="fill: #1f77b4; fill-opacity: 0.5; stroke: #000000; stroke-width: 0.845455; stroke-linejoin: miter"/>
   </g>
   <g id="patch_63">
    <path d="M 97.72417 301.32 
L 105.229872 301.32 
L 105.229872 300.977588 
L 97.72417 300.977588 
z
" clip-path="url(#p4819103077)" style="fill: #8bb174; fill-opacity: 0.5; stroke: #000000; stroke-width: 0.75057; stroke-linejoin: miter"/>
   </g>
   <g id="patch_64">
    <path d="M 105.229872 301.32 
L 112.735574 301.32 
L 112.735574 300.977588 
L 105.229872 300.977588 
z
" clip-path="url(#p4819103077)" style="fill: #8bb174; fill-opacity: 0.5; stroke: #000000; stroke-width: 0.75057; stroke-linejoin: miter"/>
   </g>
   <g id="patch_65">
    <path d="M 112.735574 301.32 
L 120.241276 301.32 
L 120.241276 300.292763 
L 112.735574 300.292763 
z
" clip-path="url(#p4819103077)" style="fill: #8bb174; fill-opacity: 0.5; stroke: #000000; stroke-width: 0.75057; stroke-linejoin: miter"/>
   </g>
   <g id="patch_66">
    <path d="M 120.241276 301.32 
L 127.746979 301.32 
L 127.746979 300.977588 
L 120.241276 300.977588 
z
" clip-path="url(#p4819103077)" style="fill: #8bb174; fill-opacity: 0.5; stroke: #000000; stroke-width: 0.75057; stroke-linejoin: miter"/>
   </g>
   <g id="patch_67">
    <path d="M 127.746979 301.32 
L 135.252681 301.32 
L 135.252681 299.95035 
L 127.746979 299.95035 
z
" clip-path="url(#p4819103077)" style="fill: #8bb174; fill-opacity: 0.5; stroke: #000000; stroke-width: 0.75057; stroke-linejoin: miter"/>
   </g>
   <g id="patch_68">
    <path d="M 135.252681 301.32 
L 142.758383 301.32 
L 142.758383 299.95035 
L 135.252681 299.95035 
z
" clip-path="url(#p4819103077)" style="fill: #8bb174; fill-opacity: 0.5; stroke: #000000; stroke-width: 0.75057; stroke-linejoin: miter"/>
   </g>
   <g id="patch_69">
    <path d="M 142.758383 301.32 
L 150.264085 301.32 
L 150.264085 298.5807 
L 142.758383 298.5807 
z
" clip-path="url(#p4819103077)" style="fill: #8bb174; fill-opacity: 0.5; stroke: #000000; stroke-width: 0.75057; stroke-linejoin: miter"/>
   </g>
   <g id="patch_70">
    <path d="M 150.264085 301.32 
L 157.769788 301.32 
L 157.769788 298.923113 
L 150.264085 298.923113 
z
" clip-path="url(#p4819103077)" style="fill: #8bb174; fill-opacity: 0.5; stroke: #000000; stroke-width: 0.75057; stroke-linejoin: miter"/>
   </g>
   <g id="patch_71">
    <path d="M 157.769788 301.32 
L 165.27549 301.32 
L 165.27549 294.129339 
L 157.769788 294.129339 
z
" clip-path="url(#p4819103077)" style="fill: #8bb174; fill-opacity: 0.5; stroke: #000000; stroke-width: 0.75057; stroke-linejoin: miter"/>
   </g>
   <g id="patch_72">
    <path d="M 165.27549 301.32 
L 172.781192 301.32 
L 172.781192 293.786926 
L 165.27549 293.786926 
z
" clip-path="url(#p4819103077)" style="fill: #8bb174; fill-opacity: 0.5; stroke: #000000; stroke-width: 0.75057; stroke-linejoin: miter"/>
   </g>
   <g id="patch_73">
    <path d="M 172.781192 301.32 
L 180.286894 301.32 
L 180.286894 294.814163 
L 172.781192 294.814163 
z
" clip-path="url(#p4819103077)" style="fill: #8bb174; fill-opacity: 0.5; stroke: #000000; stroke-width: 0.75057; stroke-linejoin: miter"/>
   </g>
   <g id="patch_74">
    <path d="M 180.286894 301.32 
L 187.792596 301.32 
L 187.792596 291.732451 
L 180.286894 291.732451 
z
" clip-path="url(#p4819103077)" style="fill: #8bb174; fill-opacity: 0.5; stroke: #000000; stroke-width: 0.75057; stroke-linejoin: miter"/>
   </g>
   <g id="patch_75">
    <path d="M 187.792596 301.32 
L 195.298299 301.32 
L 195.298299 278.720778 
L 187.792596 278.720778 
z
" clip-path="url(#p4819103077)" style="fill: #8bb174; fill-opacity: 0.5; stroke: #000000; stroke-width: 0.75057; stroke-linejoin: miter"/>
   </g>
   <g id="patch_76">
    <path d="M 195.298299 301.32 
L 202.804001 301.32 
L 202.804001 280.090428 
L 195.298299 280.090428 
z
" clip-path="url(#p4819103077)" style="fill: #8bb174; fill-opacity: 0.5; stroke: #000000; stroke-width: 0.75057; stroke-linejoin: miter"/>
   </g>
   <g id="patch_77">
    <path d="M 202.804001 301.32 
L 210.309703 301.32 
L 210.309703 270.845292 
L 202.804001 270.845292 
z
" clip-path="url(#p4819103077)" style="fill: #8bb174; fill-opacity: 0.5; stroke: #000000; stroke-width: 0.75057; stroke-linejoin: miter"/>
   </g>
   <g id="patch_78">
    <path d="M 210.309703 301.32 
L 217.815405 301.32 
L 217.815405 283.514553 
L 210.309703 283.514553 
z
" clip-path="url(#p4819103077)" style="fill: #8bb174; fill-opacity: 0.5; stroke: #000000; stroke-width: 0.75057; stroke-linejoin: miter"/>
   </g>
   <g id="patch_79">
    <path d="M 217.815405 301.32 
L 225.321108 301.32 
L 225.321108 283.17214 
L 217.815405 283.17214 
z
" clip-path="url(#p4819103077)" style="fill: #8bb174; fill-opacity: 0.5; stroke: #000000; stroke-width: 0.75057; stroke-linejoin: miter"/>
   </g>
   <g id="patch_80">
    <path d="M 225.321108 301.32 
L 232.82681 301.32 
L 232.82681 242.767471 
L 225.321108 242.767471 
z
" clip-path="url(#p4819103077)" style="fill: #8bb174; fill-opacity: 0.5; stroke: #000000; stroke-width: 0.75057; stroke-linejoin: miter"/>
   </g>
   <g id="patch_81">
    <path d="M 232.82681 301.32 
L 240.332512 301.32 
L 240.332512 269.13323 
L 232.82681 269.13323 
z
" clip-path="url(#p4819103077)" style="fill: #8bb174; fill-opacity: 0.5; stroke: #000000; stroke-width: 0.75057; stroke-linejoin: miter"/>
   </g>
   <g id="patch_82">
    <path d="M 240.332512 301.32 
L 247.838214 301.32 
L 247.838214 260.230506 
L 240.332512 260.230506 
z
" clip-path="url(#p4819103077)" style="fill: #8bb174; fill-opacity: 0.5; stroke: #000000; stroke-width: 0.75057; stroke-linejoin: miter"/>
   </g>
   <g id="patch_83">
    <path d="M 247.838214 301.32 
L 255.343916 301.32 
L 255.343916 194.487315 
L 247.838214 194.487315 
z
" clip-path="url(#p4819103077)" style="fill: #8bb174; fill-opacity: 0.5; stroke: #000000; stroke-width: 0.75057; stroke-linejoin: miter"/>
   </g>
   <g id="patch_84">
    <path d="M 255.343916 301.32 
L 262.849619 301.32 
L 262.849619 210.238288 
L 255.343916 210.238288 
z
" clip-path="url(#p4819103077)" style="fill: #8bb174; fill-opacity: 0.5; stroke: #000000; stroke-width: 0.75057; stroke-linejoin: miter"/>
   </g>
   <g id="patch_85">
    <path d="M 262.849619 301.32 
L 270.355321 301.32 
L 270.355321 99.639066 
L 262.849619 99.639066 
z
" clip-path="url(#p4819103077)" style="fill: #8bb174; fill-opacity: 0.5; stroke: #000000; stroke-width: 0.75057; stroke-linejoin: miter"/>
   </g>
   <g id="patch_86">
    <path d="M 270.355321 301.32 
L 277.861023 301.32 
L 277.861023 192.090428 
L 270.355321 192.090428 
z
" clip-path="url(#p4819103077)" style="fill: #8bb174; fill-opacity: 0.5; stroke: #000000; stroke-width: 0.75057; stroke-linejoin: miter"/>
   </g>
   <g id="patch_87">
    <path d="M 277.861023 301.32 
L 285.366725 301.32 
L 285.366725 159.903658 
L 277.861023 159.903658 
z
" clip-path="url(#p4819103077)" style="fill: #8bb174; fill-opacity: 0.5; stroke: #000000; stroke-width: 0.75057; stroke-linejoin: miter"/>
   </g>
   <g id="patch_88">
    <path d="M 285.366725 301.32 
L 292.872428 301.32 
L 292.872428 37.32 
L 285.366725 37.32 
z
" clip-path="url(#p4819103077)" style="fill: #8bb174; fill-opacity: 0.5; stroke: #000000; stroke-width: 0.75057; stroke-linejoin: miter"/>
   </g>
   <g id="patch_89">
    <path d="M 292.872428 301.32 
L 300.37813 301.32 
L 300.37813 182.160467 
L 292.872428 182.160467 
z
" clip-path="url(#p4819103077)" style="fill: #8bb174; fill-opacity: 0.5; stroke: #000000; stroke-width: 0.75057; stroke-linejoin: miter"/>
   </g>
   <g id="patch_90">
    <path d="M 300.37813 301.32 
L 307.883832 301.32 
L 307.883832 101.008716 
L 300.37813 101.008716 
z
" clip-path="url(#p4819103077)" style="fill: #8bb174; fill-opacity: 0.5; stroke: #000000; stroke-width: 0.75057; stroke-linejoin: miter"/>
   </g>
   <g id="patch_91">
    <path d="M 307.883832 301.32 
L 315.389534 301.32 
L 315.389534 191.063191 
L 307.883832 191.063191 
z
" clip-path="url(#p4819103077)" style="fill: #8bb174; fill-opacity: 0.5; stroke: #000000; stroke-width: 0.75057; stroke-linejoin: miter"/>
   </g>
   <g id="patch_92">
    <path d="M 315.389534 301.32 
L 322.895237 301.32 
L 322.895237 124.292763 
L 315.389534 124.292763 
z
" clip-path="url(#p4819103077)" style="fill: #8bb174; fill-opacity: 0.5; stroke: #000000; stroke-width: 0.75057; stroke-linejoin: miter"/>
   </g>
   <g id="patch_93">
    <path d="M 322.895237 301.32 
L 330.400939 301.32 
L 330.400939 94.502879 
L 322.895237 94.502879 
z
" clip-path="url(#p4819103077)" style="fill: #8bb174; fill-opacity: 0.5; stroke: #000000; stroke-width: 0.75057; stroke-linejoin: miter"/>
   </g>
   <g id="patch_94">
    <path d="M 330.400939 301.32 
L 337.906641 301.32 
L 337.906641 181.818054 
L 330.400939 181.818054 
z
" clip-path="url(#p4819103077)" style="fill: #8bb174; fill-opacity: 0.5; stroke: #000000; stroke-width: 0.75057; stroke-linejoin: miter"/>
   </g>
   <g id="patch_95">
    <path d="M 337.906641 301.32 
L 345.412343 301.32 
L 345.412343 132.510661 
L 337.906641 132.510661 
z
" clip-path="url(#p4819103077)" style="fill: #8bb174; fill-opacity: 0.5; stroke: #000000; stroke-width: 0.75057; stroke-linejoin: miter"/>
   </g>
   <g id="patch_96">
    <path d="M 345.412343 301.32 
L 352.918045 301.32 
L 352.918045 184.214942 
L 345.412343 184.214942 
z
" clip-path="url(#p4819103077)" style="fill: #8bb174; fill-opacity: 0.5; stroke: #000000; stroke-width: 0.75057; stroke-linejoin: miter"/>
   </g>
   <g id="patch_97">
    <path d="M 352.918045 301.32 
L 360.423748 301.32 
L 360.423748 168.121556 
L 352.918045 168.121556 
z
" clip-path="url(#p4819103077)" style="fill: #8bb174; fill-opacity: 0.5; stroke: #000000; stroke-width: 0.75057; stroke-linejoin: miter"/>
   </g>
   <g id="patch_98">
    <path d="M 360.423748 301.32 
L 367.92945 301.32 
L 367.92945 159.561245 
L 360.423748 159.561245 
z
" clip-path="url(#p4819103077)" style="fill: #8bb174; fill-opacity: 0.5; stroke: #000000; stroke-width: 0.75057; stroke-linejoin: miter"/>
   </g>
   <g id="patch_99">
    <path d="M 367.92945 301.32 
L 375.435152 301.32 
L 375.435152 191.405603 
L 367.92945 191.405603 
z
" clip-path="url(#p4819103077)" style="fill: #8bb174; fill-opacity: 0.5; stroke: #000000; stroke-width: 0.75057; stroke-linejoin: miter"/>
   </g>
   <g id="patch_100">
    <path d="M 375.435152 301.32 
L 382.940854 301.32 
L 382.940854 237.288872 
L 375.435152 237.288872 
z
" clip-path="url(#p4819103077)" style="fill: #8bb174; fill-opacity: 0.5; stroke: #000000; stroke-width: 0.75057; stroke-linejoin: miter"/>
   </g>
   <g id="patch_101">
    <path d="M 382.940854 301.32 
L 390.446557 301.32 
L 390.446557 196.54179 
L 382.940854 196.54179 
z
" clip-path="url(#p4819103077)" style="fill: #8bb174; fill-opacity: 0.5; stroke: #000000; stroke-width: 0.75057; stroke-linejoin: miter"/>
   </g>
   <g id="patch_102">
    <path d="M 390.446557 301.32 
L 397.952259 301.32 
L 397.952259 165.039844 
L 390.446557 165.039844 
z
" clip-path="url(#p4819103077)" style="fill: #8bb174; fill-opacity: 0.5; stroke: #000000; stroke-width: 0.75057; stroke-linejoin: miter"/>
   </g>
   <g id="patch_103">
    <path d="M 397.952259 301.32 
L 405.457961 301.32 
L 405.457961 227.016498 
L 397.952259 227.016498 
z
" clip-path="url(#p4819103077)" style="fill: #8bb174; fill-opacity: 0.5; stroke: #000000; stroke-width: 0.75057; stroke-linejoin: miter"/>
   </g>
   <g id="patch_104">
    <path d="M 405.457961 301.32 
L 412.963663 301.32 
L 412.963663 257.148794 
L 405.457961 257.148794 
z
" clip-path="url(#p4819103077)" style="fill: #8bb174; fill-opacity: 0.5; stroke: #000000; stroke-width: 0.75057; stroke-linejoin: miter"/>
   </g>
   <g id="patch_105">
    <path d="M 412.963663 301.32 
L 420.469365 301.32 
L 420.469365 270.502879 
L 412.963663 270.502879 
z
" clip-path="url(#p4819103077)" style="fill: #8bb174; fill-opacity: 0.5; stroke: #000000; stroke-width: 0.75057; stroke-linejoin: miter"/>
   </g>
   <g id="patch_106">
    <path d="M 420.469365 301.32 
L 427.975068 301.32 
L 427.975068 268.105992 
L 420.469365 268.105992 
z
" clip-path="url(#p4819103077)" style="fill: #8bb174; fill-opacity: 0.5; stroke: #000000; stroke-width: 0.75057; stroke-linejoin: miter"/>
   </g>
   <g id="patch_107">
    <path d="M 427.975068 301.32 
L 435.48077 301.32 
L 435.48077 273.927004 
L 427.975068 273.927004 
z
" clip-path="url(#p4819103077)" style="fill: #8bb174; fill-opacity: 0.5; stroke: #000000; stroke-width: 0.75057; stroke-linejoin: miter"/>
   </g>
   <g id="patch_108">
    <path d="M 435.48077 301.32 
L 442.986472 301.32 
L 442.986472 256.806381 
L 435.48077 256.806381 
z
" clip-path="url(#p4819103077)" style="fill: #8bb174; fill-opacity: 0.5; stroke: #000000; stroke-width: 0.75057; stroke-linejoin: miter"/>
   </g>
   <g id="patch_109">
    <path d="M 442.986472 301.32 
L 450.492174 301.32 
L 450.492174 275.296654 
L 442.986472 275.296654 
z
" clip-path="url(#p4819103077)" style="fill: #8bb174; fill-opacity: 0.5; stroke: #000000; stroke-width: 0.75057; stroke-linejoin: miter"/>
   </g>
   <g id="patch_110">
    <path d="M 450.492174 301.32 
L 457.997877 301.32 
L 457.997877 288.308327 
L 450.492174 288.308327 
z
" clip-path="url(#p4819103077)" style="fill: #8bb174; fill-opacity: 0.5; stroke: #000000; stroke-width: 0.75057; stroke-linejoin: miter"/>
   </g>
   <g id="patch_111">
    <path d="M 457.997877 301.32 
L 465.503579 301.32 
L 465.503579 289.335564 
L 457.997877 289.335564 
z
" clip-path="url(#p4819103077)" style="fill: #8bb174; fill-opacity: 0.5; stroke: #000000; stroke-width: 0.75057; stroke-linejoin: miter"/>
   </g>
   <g id="patch_112">
    <path d="M 465.503579 301.32 
L 473.009281 301.32 
L 473.009281 297.895875 
L 465.503579 297.895875 
z
" clip-path="url(#p4819103077)" style="fill: #8bb174; fill-opacity: 0.5; stroke: #000000; stroke-width: 0.75057; stroke-linejoin: miter"/>
   </g>
   <g id="patch_113">
    <path d="M 473.009281 301.32 
L 480.514983 301.32 
L 480.514983 297.895875 
L 473.009281 297.895875 
z
" clip-path="url(#p4819103077)" style="fill: #8bb174; fill-opacity: 0.5; stroke: #000000; stroke-width: 0.75057; stroke-linejoin: miter"/>
   </g>
   <g id="patch_114">
    <path d="M 480.514983 301.32 
L 488.020685 301.32 
L 488.020685 298.5807 
L 480.514983 298.5807 
z
" clip-path="url(#p4819103077)" style="fill: #8bb174; fill-opacity: 0.5; stroke: #000000; stroke-width: 0.75057; stroke-linejoin: miter"/>
   </g>
   <g id="patch_115">
    <path d="M 488.020685 301.32 
L 495.526388 301.32 
L 495.526388 300.635175 
L 488.020685 300.635175 
z
" clip-path="url(#p4819103077)" style="fill: #8bb174; fill-opacity: 0.5; stroke: #000000; stroke-width: 0.75057; stroke-linejoin: miter"/>
   </g>
   <g id="patch_116">
    <path d="M 495.526388 301.32 
L 503.03209 301.32 
L 503.03209 300.635175 
L 495.526388 300.635175 
z
" clip-path="url(#p4819103077)" style="fill: #8bb174; fill-opacity: 0.5; stroke: #000000; stroke-width: 0.75057; stroke-linejoin: miter"/>
   </g>
   <g id="patch_117">
    <path d="M 503.03209 301.32 
L 510.537792 301.32 
L 510.537792 300.977588 
L 503.03209 300.977588 
z
" clip-path="url(#p4819103077)" style="fill: #8bb174; fill-opacity: 0.5; stroke: #000000; stroke-width: 0.75057; stroke-linejoin: miter"/>
   </g>
   <g id="patch_118">
    <path d="M 510.537792 301.32 
L 518.043494 301.32 
L 518.043494 300.635175 
L 510.537792 300.635175 
z
" clip-path="url(#p4819103077)" style="fill: #8bb174; fill-opacity: 0.5; stroke: #000000; stroke-width: 0.75057; stroke-linejoin: miter"/>
   </g>
   <g id="patch_119">
    <path d="M 518.043494 301.32 
L 525.549197 301.32 
L 525.549197 301.32 
L 518.043494 301.32 
z
" clip-path="url(#p4819103077)" style="fill: #8bb174; fill-opacity: 0.5; stroke: #000000; stroke-width: 0.75057; stroke-linejoin: miter"/>
   </g>
   <g id="patch_120">
    <path d="M 525.549197 301.32 
L 533.054899 301.32 
L 533.054899 300.977588 
L 525.549197 300.977588 
z
" clip-path="url(#p4819103077)" style="fill: #8bb174; fill-opacity: 0.5; stroke: #000000; stroke-width: 0.75057; stroke-linejoin: miter"/>
   </g>
   <g id="patch_121">
    <path d="M 533.054899 301.32 
L 540.560601 301.32 
L 540.560601 300.977588 
L 533.054899 300.977588 
z
" clip-path="url(#p4819103077)" style="fill: #8bb174; fill-opacity: 0.5; stroke: #000000; stroke-width: 0.75057; stroke-linejoin: miter"/>
   </g>
   <g id="matplotlib.axis_1">
    <g id="xtick_1">
     <g id="line2d_1">
      <defs>
       <path id="mc32c9043df" d="M 0 0 
L 0 3.5 
" style="stroke: #000000; stroke-width: 0.8"/>
      </defs>
      <g>
       <use xlink:href="#mc32c9043df" x="52.537362" y="301.32" style="stroke: #000000; stroke-width: 0.8"/>
      </g>
     </g>
     <g id="text_1">
      <!-- −0.20 -->
      <g transform="translate(37.214705 315.918438) scale(0.1 -0.1)">
       <defs>
        <path id="DejaVuSans-2212" d="M 678 2272 
L 4684 2272 
L 4684 1741 
L 678 1741 
L 678 2272 
z
" transform="scale(0.015625)"/>
        <path id="DejaVuSans-30" d="M 2034 4250 
Q 1547 4250 1301 3770 
Q 1056 3291 1056 2328 
Q 1056 1369 1301 889 
Q 1547 409 2034 409 
Q 2525 409 2770 889 
Q 3016 1369 3016 2328 
Q 3016 3291 2770 3770 
Q 2525 4250 2034 4250 
z
M 2034 4750 
Q 2819 4750 3233 4129 
Q 3647 3509 3647 2328 
Q 3647 1150 3233 529 
Q 2819 -91 2034 -91 
Q 1250 -91 836 529 
Q 422 1150 422 2328 
Q 422 3509 836 4129 
Q 1250 4750 2034 4750 
z
" transform="scale(0.015625)"/>
        <path id="DejaVuSans-2e" d="M 684 794 
L 1344 794 
L 1344 0 
L 684 0 
L 684 794 
z
" transform="scale(0.015625)"/>
        <path id="DejaVuSans-32" d="M 1228 531 
L 3431 531 
L 3431 0 
L 469 0 
L 469 531 
Q 828 903 1448 1529 
Q 2069 2156 2228 2338 
Q 2531 2678 2651 2914 
Q 2772 3150 2772 3378 
Q 2772 3750 2511 3984 
Q 2250 4219 1831 4219 
Q 1534 4219 1204 4116 
Q 875 4013 500 3803 
L 500 4441 
Q 881 4594 1212 4672 
Q 1544 4750 1819 4750 
Q 2544 4750 2975 4387 
Q 3406 4025 3406 3419 
Q 3406 3131 3298 2873 
Q 3191 2616 2906 2266 
Q 2828 2175 2409 1742 
Q 1991 1309 1228 531 
z
" transform="scale(0.015625)"/>
       </defs>
       <use xlink:href="#DejaVuSans-2212"/>
       <use xlink:href="#DejaVuSans-30" x="83.789062"/>
       <use xlink:href="#DejaVuSans-2e" x="147.412109"/>
       <use xlink:href="#DejaVuSans-32" x="179.199219"/>
       <use xlink:href="#DejaVuSans-30" x="242.822266"/>
      </g>
     </g>
    </g>
    <g id="xtick_2">
     <g id="line2d_2">
      <g>
       <use xlink:href="#mc32c9043df" x="119.961567" y="301.32" style="stroke: #000000; stroke-width: 0.8"/>
      </g>
     </g>
     <g id="text_2">
      <!-- −0.15 -->
      <g transform="translate(104.638911 315.918438) scale(0.1 -0.1)">
       <defs>
        <path id="DejaVuSans-31" d="M 794 531 
L 1825 531 
L 1825 4091 
L 703 3866 
L 703 4441 
L 1819 4666 
L 2450 4666 
L 2450 531 
L 3481 531 
L 3481 0 
L 794 0 
L 794 531 
z
" transform="scale(0.015625)"/>
        <path id="DejaVuSans-35" d="M 691 4666 
L 3169 4666 
L 3169 4134 
L 1269 4134 
L 1269 2991 
Q 1406 3038 1543 3061 
Q 1681 3084 1819 3084 
Q 2600 3084 3056 2656 
Q 3513 2228 3513 1497 
Q 3513 744 3044 326 
Q 2575 -91 1722 -91 
Q 1428 -91 1123 -41 
Q 819 9 494 109 
L 494 744 
Q 775 591 1075 516 
Q 1375 441 1709 441 
Q 2250 441 2565 725 
Q 2881 1009 2881 1497 
Q 2881 1984 2565 2268 
Q 2250 2553 1709 2553 
Q 1456 2553 1204 2497 
Q 953 2441 691 2322 
L 691 4666 
z
" transform="scale(0.015625)"/>
       </defs>
       <use xlink:href="#DejaVuSans-2212"/>
       <use xlink:href="#DejaVuSans-30" x="83.789062"/>
       <use xlink:href="#DejaVuSans-2e" x="147.412109"/>
       <use xlink:href="#DejaVuSans-31" x="179.199219"/>
       <use xlink:href="#DejaVuSans-35" x="242.822266"/>
      </g>
     </g>
    </g>
    <g id="xtick_3">
     <g id="line2d_3">
      <g>
       <use xlink:href="#mc32c9043df" x="187.385773" y="301.32" style="stroke: #000000; stroke-width: 0.8"/>
      </g>
     </g>
     <g id="text_3">
      <!-- −0.10 -->
      <g transform="translate(172.063117 315.918438) scale(0.1 -0.1)">
       <use xlink:href="#DejaVuSans-2212"/>
       <use xlink:href="#DejaVuSans-30" x="83.789062"/>
       <use xlink:href="#DejaVuSans-2e" x="147.412109"/>
       <use xlink:href="#DejaVuSans-31" x="179.199219"/>
       <use xlink:href="#DejaVuSans-30" x="242.822266"/>
      </g>
     </g>
    </g>
    <g id="xtick_4">
     <g id="line2d_4">
      <g>
       <use xlink:href="#mc32c9043df" x="254.809979" y="301.32" style="stroke: #000000; stroke-width: 0.8"/>
      </g>
     </g>
     <g id="text_4">
      <!-- −0.05 -->
      <g transform="translate(239.487322 315.918438) scale(0.1 -0.1)">
       <use xlink:href="#DejaVuSans-2212"/>
       <use xlink:href="#DejaVuSans-30" x="83.789062"/>
       <use xlink:href="#DejaVuSans-2e" x="147.412109"/>
       <use xlink:href="#DejaVuSans-30" x="179.199219"/>
       <use xlink:href="#DejaVuSans-35" x="242.822266"/>
      </g>
     </g>
    </g>
    <g id="xtick_5">
     <g id="line2d_5">
      <g>
       <use xlink:href="#mc32c9043df" x="322.234184" y="301.32" style="stroke: #000000; stroke-width: 0.8"/>
      </g>
     </g>
     <g id="text_5">
      <!-- 0.00 -->
      <g transform="translate(311.101372 315.918438) scale(0.1 -0.1)">
       <use xlink:href="#DejaVuSans-30"/>
       <use xlink:href="#DejaVuSans-2e" x="63.623047"/>
       <use xlink:href="#DejaVuSans-30" x="95.410156"/>
       <use xlink:href="#DejaVuSans-30" x="159.033203"/>
      </g>
     </g>
    </g>
    <g id="xtick_6">
     <g id="line2d_6">
      <g>
       <use xlink:href="#mc32c9043df" x="389.65839" y="301.32" style="stroke: #000000; stroke-width: 0.8"/>
      </g>
     </g>
     <g id="text_6">
      <!-- 0.05 -->
      <g transform="translate(378.525577 315.918438) scale(0.1 -0.1)">
       <use xlink:href="#DejaVuSans-30"/>
       <use xlink:href="#DejaVuSans-2e" x="63.623047"/>
       <use xlink:href="#DejaVuSans-30" x="95.410156"/>
       <use xlink:href="#DejaVuSans-35" x="159.033203"/>
      </g>
     </g>
    </g>
    <g id="xtick_7">
     <g id="line2d_7">
      <g>
       <use xlink:href="#mc32c9043df" x="457.082595" y="301.32" style="stroke: #000000; stroke-width: 0.8"/>
      </g>
     </g>
     <g id="text_7">
      <!-- 0.10 -->
      <g transform="translate(445.949783 315.918438) scale(0.1 -0.1)">
       <use xlink:href="#DejaVuSans-30"/>
       <use xlink:href="#DejaVuSans-2e" x="63.623047"/>
       <use xlink:href="#DejaVuSans-31" x="95.410156"/>
       <use xlink:href="#DejaVuSans-30" x="159.033203"/>
      </g>
     </g>
    </g>
    <g id="xtick_8">
     <g id="line2d_8">
      <g>
       <use xlink:href="#mc32c9043df" x="524.506801" y="301.32" style="stroke: #000000; stroke-width: 0.8"/>
      </g>
     </g>
     <g id="text_8">
      <!-- 0.15 -->
      <g transform="translate(513.373988 315.918438) scale(0.1 -0.1)">
       <use xlink:href="#DejaVuSans-30"/>
       <use xlink:href="#DejaVuSans-2e" x="63.623047"/>
       <use xlink:href="#DejaVuSans-31" x="95.410156"/>
       <use xlink:href="#DejaVuSans-35" x="159.033203"/>
      </g>
     </g>
    </g>
    <g id="xtick_9">
     <g id="line2d_9">
      <g>
       <use xlink:href="#mc32c9043df" x="591.931007" y="301.32" style="stroke: #000000; stroke-width: 0.8"/>
      </g>
     </g>
     <g id="text_9">
      <!-- 0.20 -->
      <g transform="translate(580.798194 315.918438) scale(0.1 -0.1)">
       <use xlink:href="#DejaVuSans-30"/>
       <use xlink:href="#DejaVuSans-2e" x="63.623047"/>
       <use xlink:href="#DejaVuSans-32" x="95.410156"/>
       <use xlink:href="#DejaVuSans-30" x="159.033203"/>
      </g>
     </g>
    </g>
    <g id="text_10">
     <!-- $\Delta$ -->
     <g transform="translate(315.463125 331.11625) scale(0.12 -0.12)">
      <defs>
       <path id="DejaVuSans-394" d="M 2188 4044 
L 906 525 
L 3472 525 
L 2188 4044 
z
M 50 0 
L 1831 4666 
L 2547 4666 
L 4325 0 
L 50 0 
z
" transform="scale(0.015625)"/>
      </defs>
      <use xlink:href="#DejaVuSans-394" transform="translate(0 0.09375)"/>
     </g>
    </g>
   </g>
   <g id="matplotlib.axis_2">
    <g id="ytick_1">
     <g id="line2d_10">
      <defs>
       <path id="m3dc4fdd084" d="M 0 0 
L -3.5 0 
" style="stroke: #000000; stroke-width: 0.8"/>
      </defs>
      <g>
       <use xlink:href="#m3dc4fdd084" x="40.603125" y="301.32" style="stroke: #000000; stroke-width: 0.8"/>
      </g>
     </g>
     <g id="text_11">
      <!-- 0 -->
      <g transform="translate(27.240625 305.119219) scale(0.1 -0.1)">
       <use xlink:href="#DejaVuSans-30"/>
      </g>
     </g>
    </g>
    <g id="ytick_2">
     <g id="line2d_11">
      <g>
       <use xlink:href="#m3dc4fdd084" x="40.603125" y="263.202445" style="stroke: #000000; stroke-width: 0.8"/>
      </g>
     </g>
     <g id="text_12">
      <!-- 2 -->
      <g transform="translate(27.240625 267.001663) scale(0.1 -0.1)">
       <use xlink:href="#DejaVuSans-32"/>
      </g>
     </g>
    </g>
    <g id="ytick_3">
     <g id="line2d_12">
      <g>
       <use xlink:href="#m3dc4fdd084" x="40.603125" y="225.084889" style="stroke: #000000; stroke-width: 0.8"/>
      </g>
     </g>
     <g id="text_13">
      <!-- 4 -->
      <g transform="translate(27.240625 228.884108) scale(0.1 -0.1)">
       <defs>
        <path id="DejaVuSans-34" d="M 2419 4116 
L 825 1625 
L 2419 1625 
L 2419 4116 
z
M 2253 4666 
L 3047 4666 
L 3047 1625 
L 3713 1625 
L 3713 1100 
L 3047 1100 
L 3047 0 
L 2419 0 
L 2419 1100 
L 313 1100 
L 313 1709 
L 2253 4666 
z
" transform="scale(0.015625)"/>
       </defs>
       <use xlink:href="#DejaVuSans-34"/>
      </g>
     </g>
    </g>
    <g id="ytick_4">
     <g id="line2d_13">
      <g>
       <use xlink:href="#m3dc4fdd084" x="40.603125" y="186.967334" style="stroke: #000000; stroke-width: 0.8"/>
      </g>
     </g>
     <g id="text_14">
      <!-- 6 -->
      <g transform="translate(27.240625 190.766552) scale(0.1 -0.1)">
       <defs>
        <path id="DejaVuSans-36" d="M 2113 2584 
Q 1688 2584 1439 2293 
Q 1191 2003 1191 1497 
Q 1191 994 1439 701 
Q 1688 409 2113 409 
Q 2538 409 2786 701 
Q 3034 994 3034 1497 
Q 3034 2003 2786 2293 
Q 2538 2584 2113 2584 
z
M 3366 4563 
L 3366 3988 
Q 3128 4100 2886 4159 
Q 2644 4219 2406 4219 
Q 1781 4219 1451 3797 
Q 1122 3375 1075 2522 
Q 1259 2794 1537 2939 
Q 1816 3084 2150 3084 
Q 2853 3084 3261 2657 
Q 3669 2231 3669 1497 
Q 3669 778 3244 343 
Q 2819 -91 2113 -91 
Q 1303 -91 875 529 
Q 447 1150 447 2328 
Q 447 3434 972 4092 
Q 1497 4750 2381 4750 
Q 2619 4750 2861 4703 
Q 3103 4656 3366 4563 
z
" transform="scale(0.015625)"/>
       </defs>
       <use xlink:href="#DejaVuSans-36"/>
      </g>
     </g>
    </g>
    <g id="ytick_5">
     <g id="line2d_14">
      <g>
       <use xlink:href="#m3dc4fdd084" x="40.603125" y="148.849778" style="stroke: #000000; stroke-width: 0.8"/>
      </g>
     </g>
     <g id="text_15">
      <!-- 8 -->
      <g transform="translate(27.240625 152.648997) scale(0.1 -0.1)">
       <defs>
        <path id="DejaVuSans-38" d="M 2034 2216 
Q 1584 2216 1326 1975 
Q 1069 1734 1069 1313 
Q 1069 891 1326 650 
Q 1584 409 2034 409 
Q 2484 409 2743 651 
Q 3003 894 3003 1313 
Q 3003 1734 2745 1975 
Q 2488 2216 2034 2216 
z
M 1403 2484 
Q 997 2584 770 2862 
Q 544 3141 544 3541 
Q 544 4100 942 4425 
Q 1341 4750 2034 4750 
Q 2731 4750 3128 4425 
Q 3525 4100 3525 3541 
Q 3525 3141 3298 2862 
Q 3072 2584 2669 2484 
Q 3125 2378 3379 2068 
Q 3634 1759 3634 1313 
Q 3634 634 3220 271 
Q 2806 -91 2034 -91 
Q 1263 -91 848 271 
Q 434 634 434 1313 
Q 434 1759 690 2068 
Q 947 2378 1403 2484 
z
M 1172 3481 
Q 1172 3119 1398 2916 
Q 1625 2713 2034 2713 
Q 2441 2713 2670 2916 
Q 2900 3119 2900 3481 
Q 2900 3844 2670 4047 
Q 2441 4250 2034 4250 
Q 1625 4250 1398 4047 
Q 1172 3844 1172 3481 
z
" transform="scale(0.015625)"/>
       </defs>
       <use xlink:href="#DejaVuSans-38"/>
      </g>
     </g>
    </g>
    <g id="ytick_6">
     <g id="line2d_15">
      <g>
       <use xlink:href="#m3dc4fdd084" x="40.603125" y="110.732223" style="stroke: #000000; stroke-width: 0.8"/>
      </g>
     </g>
     <g id="text_16">
      <!-- 10 -->
      <g transform="translate(20.878125 114.531441) scale(0.1 -0.1)">
       <use xlink:href="#DejaVuSans-31"/>
       <use xlink:href="#DejaVuSans-30" x="63.623047"/>
      </g>
     </g>
    </g>
    <g id="ytick_7">
     <g id="line2d_16">
      <g>
       <use xlink:href="#m3dc4fdd084" x="40.603125" y="72.614667" style="stroke: #000000; stroke-width: 0.8"/>
      </g>
     </g>
     <g id="text_17">
      <!-- 12 -->
      <g transform="translate(20.878125 76.413886) scale(0.1 -0.1)">
       <use xlink:href="#DejaVuSans-31"/>
       <use xlink:href="#DejaVuSans-32" x="63.623047"/>
      </g>
     </g>
    </g>
    <g id="ytick_8">
     <g id="line2d_17">
      <g>
       <use xlink:href="#m3dc4fdd084" x="40.603125" y="34.497112" style="stroke: #000000; stroke-width: 0.8"/>
      </g>
     </g>
     <g id="text_18">
      <!-- 14 -->
      <g transform="translate(20.878125 38.29633) scale(0.1 -0.1)">
       <use xlink:href="#DejaVuSans-31"/>
       <use xlink:href="#DejaVuSans-34" x="63.623047"/>
      </g>
     </g>
    </g>
    <g id="text_19">
     <!-- Density -->
     <g transform="translate(14.798437 181.728594) rotate(-90) scale(0.1 -0.1)">
      <defs>
       <path id="DejaVuSans-44" d="M 1259 4147 
L 1259 519 
L 2022 519 
Q 2988 519 3436 956 
Q 3884 1394 3884 2338 
Q 3884 3275 3436 3711 
Q 2988 4147 2022 4147 
L 1259 4147 
z
M 628 4666 
L 1925 4666 
Q 3281 4666 3915 4102 
Q 4550 3538 4550 2338 
Q 4550 1131 3912 565 
Q 3275 0 1925 0 
L 628 0 
L 628 4666 
z
" transform="scale(0.015625)"/>
       <path id="DejaVuSans-65" d="M 3597 1894 
L 3597 1613 
L 953 1613 
Q 991 1019 1311 708 
Q 1631 397 2203 397 
Q 2534 397 2845 478 
Q 3156 559 3463 722 
L 3463 178 
Q 3153 47 2828 -22 
Q 2503 -91 2169 -91 
Q 1331 -91 842 396 
Q 353 884 353 1716 
Q 353 2575 817 3079 
Q 1281 3584 2069 3584 
Q 2775 3584 3186 3129 
Q 3597 2675 3597 1894 
z
M 3022 2063 
Q 3016 2534 2758 2815 
Q 2500 3097 2075 3097 
Q 1594 3097 1305 2825 
Q 1016 2553 972 2059 
L 3022 2063 
z
" transform="scale(0.015625)"/>
       <path id="DejaVuSans-6e" d="M 3513 2113 
L 3513 0 
L 2938 0 
L 2938 2094 
Q 2938 2591 2744 2837 
Q 2550 3084 2163 3084 
Q 1697 3084 1428 2787 
Q 1159 2491 1159 1978 
L 1159 0 
L 581 0 
L 581 3500 
L 1159 3500 
L 1159 2956 
Q 1366 3272 1645 3428 
Q 1925 3584 2291 3584 
Q 2894 3584 3203 3211 
Q 3513 2838 3513 2113 
z
" transform="scale(0.015625)"/>
       <path id="DejaVuSans-73" d="M 2834 3397 
L 2834 2853 
Q 2591 2978 2328 3040 
Q 2066 3103 1784 3103 
Q 1356 3103 1142 2972 
Q 928 2841 928 2578 
Q 928 2378 1081 2264 
Q 1234 2150 1697 2047 
L 1894 2003 
Q 2506 1872 2764 1633 
Q 3022 1394 3022 966 
Q 3022 478 2636 193 
Q 2250 -91 1575 -91 
Q 1294 -91 989 -36 
Q 684 19 347 128 
L 347 722 
Q 666 556 975 473 
Q 1284 391 1588 391 
Q 1994 391 2212 530 
Q 2431 669 2431 922 
Q 2431 1156 2273 1281 
Q 2116 1406 1581 1522 
L 1381 1569 
Q 847 1681 609 1914 
Q 372 2147 372 2553 
Q 372 3047 722 3315 
Q 1072 3584 1716 3584 
Q 2034 3584 2315 3537 
Q 2597 3491 2834 3397 
z
" transform="scale(0.015625)"/>
       <path id="DejaVuSans-69" d="M 603 3500 
L 1178 3500 
L 1178 0 
L 603 0 
L 603 3500 
z
M 603 4863 
L 1178 4863 
L 1178 4134 
L 603 4134 
L 603 4863 
z
" transform="scale(0.015625)"/>
       <path id="DejaVuSans-74" d="M 1172 4494 
L 1172 3500 
L 2356 3500 
L 2356 3053 
L 1172 3053 
L 1172 1153 
Q 1172 725 1289 603 
Q 1406 481 1766 481 
L 2356 481 
L 2356 0 
L 1766 0 
Q 1100 0 847 248 
Q 594 497 594 1153 
L 594 3053 
L 172 3053 
L 172 3500 
L 594 3500 
L 594 4494 
L 1172 4494 
z
" transform="scale(0.015625)"/>
       <path id="DejaVuSans-79" d="M 2059 -325 
Q 1816 -950 1584 -1140 
Q 1353 -1331 966 -1331 
L 506 -1331 
L 506 -850 
L 844 -850 
Q 1081 -850 1212 -737 
Q 1344 -625 1503 -206 
L 1606 56 
L 191 3500 
L 800 3500 
L 1894 763 
L 2988 3500 
L 3597 3500 
L 2059 -325 
z
" transform="scale(0.015625)"/>
      </defs>
      <use xlink:href="#DejaVuSans-44"/>
      <use xlink:href="#DejaVuSans-65" x="77.001953"/>
      <use xlink:href="#DejaVuSans-6e" x="138.525391"/>
      <use xlink:href="#DejaVuSans-73" x="201.904297"/>
      <use xlink:href="#DejaVuSans-69" x="254.003906"/>
      <use xlink:href="#DejaVuSans-74" x="281.787109"/>
      <use xlink:href="#DejaVuSans-79" x="320.996094"/>
     </g>
    </g>
   </g>
   <g id="patch_122">
    <path d="M 40.603125 301.32 
L 40.603125 24.12 
" style="fill: none; stroke: #000000; stroke-width: 0.8; stroke-linejoin: miter; stroke-linecap: square"/>
   </g>
   <g id="patch_123">
    <path d="M 598.603125 301.32 
L 598.603125 24.12 
" style="fill: none; stroke: #000000; stroke-width: 0.8; stroke-linejoin: miter; stroke-linecap: square"/>
   </g>
   <g id="patch_124">
    <path d="M 40.603125 301.32 
L 598.603125 301.32 
" style="fill: none; stroke: #000000; stroke-width: 0.8; stroke-linejoin: miter; stroke-linecap: square"/>
   </g>
   <g id="patch_125">
    <path d="M 40.603125 24.12 
L 598.603125 24.12 
" style="fill: none; stroke: #000000; stroke-width: 0.8; stroke-linejoin: miter; stroke-linecap: square"/>
   </g>
   <g id="text_20">
    <!-- Comparison histogram $\Delta$ with $\Delta^*$ -->
    <g transform="translate(220.723125 18.12) scale(0.12 -0.12)">
     <defs>
      <path id="DejaVuSans-43" d="M 4122 4306 
L 4122 3641 
Q 3803 3938 3442 4084 
Q 3081 4231 2675 4231 
Q 1875 4231 1450 3742 
Q 1025 3253 1025 2328 
Q 1025 1406 1450 917 
Q 1875 428 2675 428 
Q 3081 428 3442 575 
Q 3803 722 4122 1019 
L 4122 359 
Q 3791 134 3420 21 
Q 3050 -91 2638 -91 
Q 1578 -91 968 557 
Q 359 1206 359 2328 
Q 359 3453 968 4101 
Q 1578 4750 2638 4750 
Q 3056 4750 3426 4639 
Q 3797 4528 4122 4306 
z
" transform="scale(0.015625)"/>
      <path id="DejaVuSans-6f" d="M 1959 3097 
Q 1497 3097 1228 2736 
Q 959 2375 959 1747 
Q 959 1119 1226 758 
Q 1494 397 1959 397 
Q 2419 397 2687 759 
Q 2956 1122 2956 1747 
Q 2956 2369 2687 2733 
Q 2419 3097 1959 3097 
z
M 1959 3584 
Q 2709 3584 3137 3096 
Q 3566 2609 3566 1747 
Q 3566 888 3137 398 
Q 2709 -91 1959 -91 
Q 1206 -91 779 398 
Q 353 888 353 1747 
Q 353 2609 779 3096 
Q 1206 3584 1959 3584 
z
" transform="scale(0.015625)"/>
      <path id="DejaVuSans-6d" d="M 3328 2828 
Q 3544 3216 3844 3400 
Q 4144 3584 4550 3584 
Q 5097 3584 5394 3201 
Q 5691 2819 5691 2113 
L 5691 0 
L 5113 0 
L 5113 2094 
Q 5113 2597 4934 2840 
Q 4756 3084 4391 3084 
Q 3944 3084 3684 2787 
Q 3425 2491 3425 1978 
L 3425 0 
L 2847 0 
L 2847 2094 
Q 2847 2600 2669 2842 
Q 2491 3084 2119 3084 
Q 1678 3084 1418 2786 
Q 1159 2488 1159 1978 
L 1159 0 
L 581 0 
L 581 3500 
L 1159 3500 
L 1159 2956 
Q 1356 3278 1631 3431 
Q 1906 3584 2284 3584 
Q 2666 3584 2933 3390 
Q 3200 3197 3328 2828 
z
" transform="scale(0.015625)"/>
      <path id="DejaVuSans-70" d="M 1159 525 
L 1159 -1331 
L 581 -1331 
L 581 3500 
L 1159 3500 
L 1159 2969 
Q 1341 3281 1617 3432 
Q 1894 3584 2278 3584 
Q 2916 3584 3314 3078 
Q 3713 2572 3713 1747 
Q 3713 922 3314 415 
Q 2916 -91 2278 -91 
Q 1894 -91 1617 61 
Q 1341 213 1159 525 
z
M 3116 1747 
Q 3116 2381 2855 2742 
Q 2594 3103 2138 3103 
Q 1681 3103 1420 2742 
Q 1159 2381 1159 1747 
Q 1159 1113 1420 752 
Q 1681 391 2138 391 
Q 2594 391 2855 752 
Q 3116 1113 3116 1747 
z
" transform="scale(0.015625)"/>
      <path id="DejaVuSans-61" d="M 2194 1759 
Q 1497 1759 1228 1600 
Q 959 1441 959 1056 
Q 959 750 1161 570 
Q 1363 391 1709 391 
Q 2188 391 2477 730 
Q 2766 1069 2766 1631 
L 2766 1759 
L 2194 1759 
z
M 3341 1997 
L 3341 0 
L 2766 0 
L 2766 531 
Q 2569 213 2275 61 
Q 1981 -91 1556 -91 
Q 1019 -91 701 211 
Q 384 513 384 1019 
Q 384 1609 779 1909 
Q 1175 2209 1959 2209 
L 2766 2209 
L 2766 2266 
Q 2766 2663 2505 2880 
Q 2244 3097 1772 3097 
Q 1472 3097 1187 3025 
Q 903 2953 641 2809 
L 641 3341 
Q 956 3463 1253 3523 
Q 1550 3584 1831 3584 
Q 2591 3584 2966 3190 
Q 3341 2797 3341 1997 
z
" transform="scale(0.015625)"/>
      <path id="DejaVuSans-72" d="M 2631 2963 
Q 2534 3019 2420 3045 
Q 2306 3072 2169 3072 
Q 1681 3072 1420 2755 
Q 1159 2438 1159 1844 
L 1159 0 
L 581 0 
L 581 3500 
L 1159 3500 
L 1159 2956 
Q 1341 3275 1631 3429 
Q 1922 3584 2338 3584 
Q 2397 3584 2469 3576 
Q 2541 3569 2628 3553 
L 2631 2963 
z
" transform="scale(0.015625)"/>
      <path id="DejaVuSans-20" transform="scale(0.015625)"/>
      <path id="DejaVuSans-68" d="M 3513 2113 
L 3513 0 
L 2938 0 
L 2938 2094 
Q 2938 2591 2744 2837 
Q 2550 3084 2163 3084 
Q 1697 3084 1428 2787 
Q 1159 2491 1159 1978 
L 1159 0 
L 581 0 
L 581 4863 
L 1159 4863 
L 1159 2956 
Q 1366 3272 1645 3428 
Q 1925 3584 2291 3584 
Q 2894 3584 3203 3211 
Q 3513 2838 3513 2113 
z
" transform="scale(0.015625)"/>
      <path id="DejaVuSans-67" d="M 2906 1791 
Q 2906 2416 2648 2759 
Q 2391 3103 1925 3103 
Q 1463 3103 1205 2759 
Q 947 2416 947 1791 
Q 947 1169 1205 825 
Q 1463 481 1925 481 
Q 2391 481 2648 825 
Q 2906 1169 2906 1791 
z
M 3481 434 
Q 3481 -459 3084 -895 
Q 2688 -1331 1869 -1331 
Q 1566 -1331 1297 -1286 
Q 1028 -1241 775 -1147 
L 775 -588 
Q 1028 -725 1275 -790 
Q 1522 -856 1778 -856 
Q 2344 -856 2625 -561 
Q 2906 -266 2906 331 
L 2906 616 
Q 2728 306 2450 153 
Q 2172 0 1784 0 
Q 1141 0 747 490 
Q 353 981 353 1791 
Q 353 2603 747 3093 
Q 1141 3584 1784 3584 
Q 2172 3584 2450 3431 
Q 2728 3278 2906 2969 
L 2906 3500 
L 3481 3500 
L 3481 434 
z
" transform="scale(0.015625)"/>
      <path id="DejaVuSans-77" d="M 269 3500 
L 844 3500 
L 1563 769 
L 2278 3500 
L 2956 3500 
L 3675 769 
L 4391 3500 
L 4966 3500 
L 4050 0 
L 3372 0 
L 2619 2869 
L 1863 0 
L 1184 0 
L 269 3500 
z
" transform="scale(0.015625)"/>
      <path id="DejaVuSans-2a" d="M 3009 3897 
L 1888 3291 
L 3009 2681 
L 2828 2375 
L 1778 3009 
L 1778 1831 
L 1422 1831 
L 1422 3009 
L 372 2375 
L 191 2681 
L 1313 3291 
L 191 3897 
L 372 4206 
L 1422 3572 
L 1422 4750 
L 1778 4750 
L 1778 3572 
L 2828 4206 
L 3009 3897 
z
" transform="scale(0.015625)"/>
     </defs>
     <use xlink:href="#DejaVuSans-43" transform="translate(0 0.765625)"/>
     <use xlink:href="#DejaVuSans-6f" transform="translate(69.824219 0.765625)"/>
     <use xlink:href="#DejaVuSans-6d" transform="translate(131.005859 0.765625)"/>
     <use xlink:href="#DejaVuSans-70" transform="translate(228.417969 0.765625)"/>
     <use xlink:href="#DejaVuSans-61" transform="translate(291.894531 0.765625)"/>
     <use xlink:href="#DejaVuSans-72" transform="translate(353.173828 0.765625)"/>
     <use xlink:href="#DejaVuSans-69" transform="translate(394.287109 0.765625)"/>
     <use xlink:href="#DejaVuSans-73" transform="translate(422.070312 0.765625)"/>
     <use xlink:href="#DejaVuSans-6f" transform="translate(474.169922 0.765625)"/>
     <use xlink:href="#DejaVuSans-6e" transform="translate(535.351562 0.765625)"/>
     <use xlink:href="#DejaVuSans-20" transform="translate(598.730469 0.765625)"/>
     <use xlink:href="#DejaVuSans-68" transform="translate(630.517578 0.765625)"/>
     <use xlink:href="#DejaVuSans-69" transform="translate(693.896484 0.765625)"/>
     <use xlink:href="#DejaVuSans-73" transform="translate(721.679688 0.765625)"/>
     <use xlink:href="#DejaVuSans-74" transform="translate(773.779297 0.765625)"/>
     <use xlink:href="#DejaVuSans-6f" transform="translate(812.988281 0.765625)"/>
     <use xlink:href="#DejaVuSans-67" transform="translate(874.169922 0.765625)"/>
     <use xlink:href="#DejaVuSans-72" transform="translate(937.646484 0.765625)"/>
     <use xlink:href="#DejaVuSans-61" transform="translate(978.759766 0.765625)"/>
     <use xlink:href="#DejaVuSans-6d" transform="translate(1040.039062 0.765625)"/>
     <use xlink:href="#DejaVuSans-20" transform="translate(1137.451172 0.765625)"/>
     <use xlink:href="#DejaVuSans-394" transform="translate(1169.238281 0.765625)"/>
     <use xlink:href="#DejaVuSans-20" transform="translate(1237.646484 0.765625)"/>
     <use xlink:href="#DejaVuSans-77" transform="translate(1269.433594 0.765625)"/>
     <use xlink:href="#DejaVuSans-69" transform="translate(1351.220703 0.765625)"/>
     <use xlink:href="#DejaVuSans-74" transform="translate(1379.003906 0.765625)"/>
     <use xlink:href="#DejaVuSans-68" transform="translate(1418.212891 0.765625)"/>
     <use xlink:href="#DejaVuSans-20" transform="translate(1481.591797 0.765625)"/>
     <use xlink:href="#DejaVuSans-394" transform="translate(1513.378906 0.765625)"/>
     <use xlink:href="#DejaVuSans-2a" transform="translate(1596.381836 39.046875) scale(0.7)"/>
    </g>
   </g>
   <g id="legend_1">
    <g id="patch_126">
     <path d="M 535.603125 68.9475 
L 590.203125 68.9475 
Q 592.603125 68.9475 592.603125 66.5475 
L 592.603125 32.52 
Q 592.603125 30.12 590.203125 30.12 
L 535.603125 30.12 
Q 533.203125 30.12 533.203125 32.52 
L 533.203125 66.5475 
Q 533.203125 68.9475 535.603125 68.9475 
z
" style="fill: #ffffff; opacity: 0.8; stroke: #cccccc; stroke-linejoin: miter"/>
    </g>
    <g id="patch_127">
     <path d="M 538.003125 44.038125 
L 562.003125 44.038125 
L 562.003125 35.638125 
L 538.003125 35.638125 
z
" style="fill: #1f77b4; fill-opacity: 0.5; stroke: #000000; stroke-width: 0.845455; stroke-linejoin: miter"/>
    </g>
    <g id="text_21">
     <!-- $\Delta$ -->
     <g transform="translate(571.603125 44.038125) scale(0.12 -0.12)">
      <use xlink:href="#DejaVuSans-394" transform="translate(0 0.09375)"/>
     </g>
    </g>
    <g id="patch_128">
     <path d="M 538.003125 61.651875 
L 562.003125 61.651875 
L 562.003125 53.251875 
L 538.003125 53.251875 
z
" style="fill: #8bb174; fill-opacity: 0.5; stroke: #000000; stroke-width: 0.75057; stroke-linejoin: miter"/>
    </g>
    <g id="text_22">
     <!-- $\Delta^*$ -->
     <g transform="translate(571.603125 61.651875) scale(0.12 -0.12)">
      <use xlink:href="#DejaVuSans-394" transform="translate(0 0.765625)"/>
      <use xlink:href="#DejaVuSans-2a" transform="translate(83.00293 39.046875) scale(0.7)"/>
     </g>
    </g>
   </g>
  </g>
 </g>
 <defs>
  <clipPath id="p4819103077">
   <rect x="40.603125" y="24.12" width="558" height="277.2"/>
  </clipPath>
 </defs>
</svg>
