<?xml version="1.0" encoding="utf-8" standalone="no"?>
<!DOCTYPE svg PUBLIC "-//W3C//DTD SVG 1.1//EN"
  "http://www.w3.org/Graphics/SVG/1.1/DTD/svg11.dtd">
<svg xmlns:xlink="http://www.w3.org/1999/xlink" width="1088.39952pt" height="440.39952pt" viewBox="0 0 1088.39952 440.39952" xmlns="http://www.w3.org/2000/svg" version="1.1">
 <metadata>
  <rdf:RDF xmlns:dc="http://purl.org/dc/elements/1.1/" xmlns:cc="http://creativecommons.org/ns#" xmlns:rdf="http://www.w3.org/1999/02/22-rdf-syntax-ns#">
   <cc:Work>
    <dc:type rdf:resource="http://purl.org/dc/dcmitype/StillImage"/>
    <dc:date>2025-11-02T00:42:10.473562</dc:date>
    <dc:format>image/svg+xml</dc:format>
    <dc:creator>
     <cc:Agent>
      <dc:title>Matplotlib v3.7.2, https://matplotlib.org/</dc:title>
     </cc:Agent>
    </dc:creator>
   </cc:Work>
  </rdf:RDF>
 </metadata>
 <defs>
  <style type="text/css">*{stroke-linejoin: round; stroke-linecap: butt}</style>
 </defs>
 <g id="figure_1">
  <g id="patch_1">
   <path d="M 0 440.39952 
L 1088.39952 440.39952 
L 1088.39952 0 
L 0 0 
z
" style="fill: #ffffff"/>
  </g>
  <g id="axes_1">
   <g id="patch_2">
    <path d="M 61.934375 389.897176 
L 1081.19952 389.897176 
L 1081.19952 31.094531 
L 61.934375 31.094531 
z
" style="fill: #e5e5e5"/>
   </g>
   <g id="matplotlib.axis_1">
    <g id="xtick_1">
     <g id="line2d_1">
      <path d="M 97.969001 389.897176 
L 97.969001 31.094531 
" clip-path="url(#p50b620142d)" style="fill: none; stroke: #ffffff; stroke-width: 0.8; stroke-linecap: round"/>
     </g>
     <g id="text_1">
      <!-- 2015-01 -->
      <g style="fill: #555555" transform="translate(70.447517 407.633895) scale(0.15 -0.15)">
       <defs>
        <path id="ArialMT-32" d="M 3222 541 
L 3222 0 
L 194 0 
Q 188 203 259 391 
Q 375 700 629 1000 
Q 884 1300 1366 1694 
Q 2113 2306 2375 2664 
Q 2638 3022 2638 3341 
Q 2638 3675 2398 3904 
Q 2159 4134 1775 4134 
Q 1369 4134 1125 3890 
Q 881 3647 878 3216 
L 300 3275 
Q 359 3922 746 4261 
Q 1134 4600 1788 4600 
Q 2447 4600 2831 4234 
Q 3216 3869 3216 3328 
Q 3216 3053 3103 2787 
Q 2991 2522 2730 2228 
Q 2469 1934 1863 1422 
Q 1356 997 1212 845 
Q 1069 694 975 541 
L 3222 541 
z
" transform="scale(0.015625)"/>
        <path id="ArialMT-30" d="M 266 2259 
Q 266 3072 433 3567 
Q 600 4063 929 4331 
Q 1259 4600 1759 4600 
Q 2128 4600 2406 4451 
Q 2684 4303 2865 4023 
Q 3047 3744 3150 3342 
Q 3253 2941 3253 2259 
Q 3253 1453 3087 958 
Q 2922 463 2592 192 
Q 2263 -78 1759 -78 
Q 1097 -78 719 397 
Q 266 969 266 2259 
z
M 844 2259 
Q 844 1131 1108 757 
Q 1372 384 1759 384 
Q 2147 384 2411 759 
Q 2675 1134 2675 2259 
Q 2675 3391 2411 3762 
Q 2147 4134 1753 4134 
Q 1366 4134 1134 3806 
Q 844 3388 844 2259 
z
" transform="scale(0.015625)"/>
        <path id="ArialMT-31" d="M 2384 0 
L 1822 0 
L 1822 3584 
Q 1619 3391 1289 3197 
Q 959 3003 697 2906 
L 697 3450 
Q 1169 3672 1522 3987 
Q 1875 4303 2022 4600 
L 2384 4600 
L 2384 0 
z
" transform="scale(0.015625)"/>
        <path id="ArialMT-35" d="M 266 1200 
L 856 1250 
Q 922 819 1161 601 
Q 1400 384 1738 384 
Q 2144 384 2425 690 
Q 2706 997 2706 1503 
Q 2706 1984 2436 2262 
Q 2166 2541 1728 2541 
Q 1456 2541 1237 2417 
Q 1019 2294 894 2097 
L 366 2166 
L 809 4519 
L 3088 4519 
L 3088 3981 
L 1259 3981 
L 1013 2750 
Q 1425 3038 1878 3038 
Q 2478 3038 2890 2622 
Q 3303 2206 3303 1553 
Q 3303 931 2941 478 
Q 2500 -78 1738 -78 
Q 1113 -78 717 272 
Q 322 622 266 1200 
z
" transform="scale(0.015625)"/>
        <path id="ArialMT-2d" d="M 203 1375 
L 203 1941 
L 1931 1941 
L 1931 1375 
L 203 1375 
z
" transform="scale(0.015625)"/>
       </defs>
       <use xlink:href="#ArialMT-32"/>
       <use xlink:href="#ArialMT-30" x="55.615234"/>
       <use xlink:href="#ArialMT-31" x="111.230469"/>
       <use xlink:href="#ArialMT-35" x="166.845703"/>
       <use xlink:href="#ArialMT-2d" x="222.460938"/>
       <use xlink:href="#ArialMT-30" x="255.761719"/>
       <use xlink:href="#ArialMT-31" x="311.376953"/>
      </g>
     </g>
    </g>
    <g id="xtick_2">
     <g id="line2d_2">
      <path d="M 249.829212 389.897176 
L 249.829212 31.094531 
" clip-path="url(#p50b620142d)" style="fill: none; stroke: #ffffff; stroke-width: 0.8; stroke-linecap: round"/>
     </g>
     <g id="text_2">
      <!-- 2015-03 -->
      <g style="fill: #555555" transform="translate(222.307728 407.633895) scale(0.15 -0.15)">
       <defs>
        <path id="ArialMT-33" d="M 269 1209 
L 831 1284 
Q 928 806 1161 595 
Q 1394 384 1728 384 
Q 2125 384 2398 659 
Q 2672 934 2672 1341 
Q 2672 1728 2419 1979 
Q 2166 2231 1775 2231 
Q 1616 2231 1378 2169 
L 1441 2663 
Q 1497 2656 1531 2656 
Q 1891 2656 2178 2843 
Q 2466 3031 2466 3422 
Q 2466 3731 2256 3934 
Q 2047 4138 1716 4138 
Q 1388 4138 1169 3931 
Q 950 3725 888 3313 
L 325 3413 
Q 428 3978 793 4289 
Q 1159 4600 1703 4600 
Q 2078 4600 2393 4439 
Q 2709 4278 2876 4000 
Q 3044 3722 3044 3409 
Q 3044 3113 2884 2869 
Q 2725 2625 2413 2481 
Q 2819 2388 3044 2092 
Q 3269 1797 3269 1353 
Q 3269 753 2831 336 
Q 2394 -81 1725 -81 
Q 1122 -81 723 278 
Q 325 638 269 1209 
z
" transform="scale(0.015625)"/>
       </defs>
       <use xlink:href="#ArialMT-32"/>
       <use xlink:href="#ArialMT-30" x="55.615234"/>
       <use xlink:href="#ArialMT-31" x="111.230469"/>
       <use xlink:href="#ArialMT-35" x="166.845703"/>
       <use xlink:href="#ArialMT-2d" x="222.460938"/>
       <use xlink:href="#ArialMT-30" x="255.761719"/>
       <use xlink:href="#ArialMT-33" x="311.376953"/>
      </g>
     </g>
    </g>
    <g id="xtick_3">
     <g id="line2d_3">
      <path d="M 406.837227 389.897176 
L 406.837227 31.094531 
" clip-path="url(#p50b620142d)" style="fill: none; stroke: #ffffff; stroke-width: 0.8; stroke-linecap: round"/>
     </g>
     <g id="text_3">
      <!-- 2015-05 -->
      <g style="fill: #555555" transform="translate(379.315743 407.633895) scale(0.15 -0.15)">
       <use xlink:href="#ArialMT-32"/>
       <use xlink:href="#ArialMT-30" x="55.615234"/>
       <use xlink:href="#ArialMT-31" x="111.230469"/>
       <use xlink:href="#ArialMT-35" x="166.845703"/>
       <use xlink:href="#ArialMT-2d" x="222.460938"/>
       <use xlink:href="#ArialMT-30" x="255.761719"/>
       <use xlink:href="#ArialMT-35" x="311.376953"/>
      </g>
     </g>
    </g>
    <g id="xtick_4">
     <g id="line2d_4">
      <path d="M 563.845242 389.897176 
L 563.845242 31.094531 
" clip-path="url(#p50b620142d)" style="fill: none; stroke: #ffffff; stroke-width: 0.8; stroke-linecap: round"/>
     </g>
     <g id="text_4">
      <!-- 2015-07 -->
      <g style="fill: #555555" transform="translate(536.323757 407.633895) scale(0.15 -0.15)">
       <defs>
        <path id="ArialMT-37" d="M 303 3981 
L 303 4522 
L 3269 4522 
L 3269 4084 
Q 2831 3619 2401 2847 
Q 1972 2075 1738 1259 
Q 1569 684 1522 0 
L 944 0 
Q 953 541 1156 1306 
Q 1359 2072 1739 2783 
Q 2119 3494 2547 3981 
L 303 3981 
z
" transform="scale(0.015625)"/>
       </defs>
       <use xlink:href="#ArialMT-32"/>
       <use xlink:href="#ArialMT-30" x="55.615234"/>
       <use xlink:href="#ArialMT-31" x="111.230469"/>
       <use xlink:href="#ArialMT-35" x="166.845703"/>
       <use xlink:href="#ArialMT-2d" x="222.460938"/>
       <use xlink:href="#ArialMT-30" x="255.761719"/>
       <use xlink:href="#ArialMT-37" x="311.376953"/>
      </g>
     </g>
    </g>
    <g id="xtick_5">
     <g id="line2d_5">
      <path d="M 723.427158 389.897176 
L 723.427158 31.094531 
" clip-path="url(#p50b620142d)" style="fill: none; stroke: #ffffff; stroke-width: 0.8; stroke-linecap: round"/>
     </g>
     <g id="text_5">
      <!-- 2015-09 -->
      <g style="fill: #555555" transform="translate(695.905674 407.633895) scale(0.15 -0.15)">
       <defs>
        <path id="ArialMT-39" d="M 350 1059 
L 891 1109 
Q 959 728 1153 556 
Q 1347 384 1650 384 
Q 1909 384 2104 503 
Q 2300 622 2425 820 
Q 2550 1019 2634 1356 
Q 2719 1694 2719 2044 
Q 2719 2081 2716 2156 
Q 2547 1888 2255 1720 
Q 1963 1553 1622 1553 
Q 1053 1553 659 1965 
Q 266 2378 266 3053 
Q 266 3750 677 4175 
Q 1088 4600 1706 4600 
Q 2153 4600 2523 4359 
Q 2894 4119 3086 3673 
Q 3278 3228 3278 2384 
Q 3278 1506 3087 986 
Q 2897 466 2520 194 
Q 2144 -78 1638 -78 
Q 1100 -78 759 220 
Q 419 519 350 1059 
z
M 2653 3081 
Q 2653 3566 2395 3850 
Q 2138 4134 1775 4134 
Q 1400 4134 1122 3828 
Q 844 3522 844 3034 
Q 844 2597 1108 2323 
Q 1372 2050 1759 2050 
Q 2150 2050 2401 2323 
Q 2653 2597 2653 3081 
z
" transform="scale(0.015625)"/>
       </defs>
       <use xlink:href="#ArialMT-32"/>
       <use xlink:href="#ArialMT-30" x="55.615234"/>
       <use xlink:href="#ArialMT-31" x="111.230469"/>
       <use xlink:href="#ArialMT-35" x="166.845703"/>
       <use xlink:href="#ArialMT-2d" x="222.460938"/>
       <use xlink:href="#ArialMT-30" x="255.761719"/>
       <use xlink:href="#ArialMT-39" x="311.376953"/>
      </g>
     </g>
    </g>
    <g id="xtick_6">
     <g id="line2d_6">
      <path d="M 880.435173 389.897176 
L 880.435173 31.094531 
" clip-path="url(#p50b620142d)" style="fill: none; stroke: #ffffff; stroke-width: 0.8; stroke-linecap: round"/>
     </g>
     <g id="text_6">
      <!-- 2015-11 -->
      <g style="fill: #555555" transform="translate(853.466814 407.633895) scale(0.15 -0.15)">
       <use xlink:href="#ArialMT-32"/>
       <use xlink:href="#ArialMT-30" x="55.615234"/>
       <use xlink:href="#ArialMT-31" x="111.230469"/>
       <use xlink:href="#ArialMT-35" x="166.845703"/>
       <use xlink:href="#ArialMT-2d" x="222.460938"/>
       <use xlink:href="#ArialMT-31" x="255.761719"/>
       <use xlink:href="#ArialMT-31" x="304.001953"/>
      </g>
     </g>
    </g>
    <g id="xtick_7">
     <g id="line2d_7">
      <path d="M 1037.443188 389.897176 
L 1037.443188 31.094531 
" clip-path="url(#p50b620142d)" style="fill: none; stroke: #ffffff; stroke-width: 0.8; stroke-linecap: round"/>
     </g>
     <g id="text_7">
      <!-- 2016-01 -->
      <g style="fill: #555555" transform="translate(1009.921704 407.633895) scale(0.15 -0.15)">
       <defs>
        <path id="ArialMT-36" d="M 3184 3459 
L 2625 3416 
Q 2550 3747 2413 3897 
Q 2184 4138 1850 4138 
Q 1581 4138 1378 3988 
Q 1113 3794 959 3422 
Q 806 3050 800 2363 
Q 1003 2672 1297 2822 
Q 1591 2972 1913 2972 
Q 2475 2972 2870 2558 
Q 3266 2144 3266 1488 
Q 3266 1056 3080 686 
Q 2894 316 2569 119 
Q 2244 -78 1831 -78 
Q 1128 -78 684 439 
Q 241 956 241 2144 
Q 241 3472 731 4075 
Q 1159 4600 1884 4600 
Q 2425 4600 2770 4297 
Q 3116 3994 3184 3459 
z
M 888 1484 
Q 888 1194 1011 928 
Q 1134 663 1356 523 
Q 1578 384 1822 384 
Q 2178 384 2434 671 
Q 2691 959 2691 1453 
Q 2691 1928 2437 2201 
Q 2184 2475 1800 2475 
Q 1419 2475 1153 2201 
Q 888 1928 888 1484 
z
" transform="scale(0.015625)"/>
       </defs>
       <use xlink:href="#ArialMT-32"/>
       <use xlink:href="#ArialMT-30" x="55.615234"/>
       <use xlink:href="#ArialMT-31" x="111.230469"/>
       <use xlink:href="#ArialMT-36" x="166.845703"/>
       <use xlink:href="#ArialMT-2d" x="222.460938"/>
       <use xlink:href="#ArialMT-30" x="255.761719"/>
       <use xlink:href="#ArialMT-31" x="311.376953"/>
      </g>
     </g>
    </g>
    <g id="text_8">
     <!-- day [1] -->
     <g style="fill: #555555" transform="translate(541.54976 428.990145) scale(0.2 -0.2)">
      <defs>
       <path id="ArialMT-64" d="M 2575 0 
L 2575 419 
Q 2259 -75 1647 -75 
Q 1250 -75 917 144 
Q 584 363 401 755 
Q 219 1147 219 1656 
Q 219 2153 384 2558 
Q 550 2963 881 3178 
Q 1213 3394 1622 3394 
Q 1922 3394 2156 3267 
Q 2391 3141 2538 2938 
L 2538 4581 
L 3097 4581 
L 3097 0 
L 2575 0 
z
M 797 1656 
Q 797 1019 1065 703 
Q 1334 388 1700 388 
Q 2069 388 2326 689 
Q 2584 991 2584 1609 
Q 2584 2291 2321 2609 
Q 2059 2928 1675 2928 
Q 1300 2928 1048 2622 
Q 797 2316 797 1656 
z
" transform="scale(0.015625)"/>
       <path id="ArialMT-61" d="M 2588 409 
Q 2275 144 1986 34 
Q 1697 -75 1366 -75 
Q 819 -75 525 192 
Q 231 459 231 875 
Q 231 1119 342 1320 
Q 453 1522 633 1644 
Q 813 1766 1038 1828 
Q 1203 1872 1538 1913 
Q 2219 1994 2541 2106 
Q 2544 2222 2544 2253 
Q 2544 2597 2384 2738 
Q 2169 2928 1744 2928 
Q 1347 2928 1158 2789 
Q 969 2650 878 2297 
L 328 2372 
Q 403 2725 575 2942 
Q 747 3159 1072 3276 
Q 1397 3394 1825 3394 
Q 2250 3394 2515 3294 
Q 2781 3194 2906 3042 
Q 3031 2891 3081 2659 
Q 3109 2516 3109 2141 
L 3109 1391 
Q 3109 606 3145 398 
Q 3181 191 3288 0 
L 2700 0 
Q 2613 175 2588 409 
z
M 2541 1666 
Q 2234 1541 1622 1453 
Q 1275 1403 1131 1340 
Q 988 1278 909 1158 
Q 831 1038 831 891 
Q 831 666 1001 516 
Q 1172 366 1500 366 
Q 1825 366 2078 508 
Q 2331 650 2450 897 
Q 2541 1088 2541 1459 
L 2541 1666 
z
" transform="scale(0.015625)"/>
       <path id="ArialMT-79" d="M 397 -1278 
L 334 -750 
Q 519 -800 656 -800 
Q 844 -800 956 -737 
Q 1069 -675 1141 -563 
Q 1194 -478 1313 -144 
Q 1328 -97 1363 -6 
L 103 3319 
L 709 3319 
L 1400 1397 
Q 1534 1031 1641 628 
Q 1738 1016 1872 1384 
L 2581 3319 
L 3144 3319 
L 1881 -56 
Q 1678 -603 1566 -809 
Q 1416 -1088 1222 -1217 
Q 1028 -1347 759 -1347 
Q 597 -1347 397 -1278 
z
" transform="scale(0.015625)"/>
       <path id="ArialMT-20" transform="scale(0.015625)"/>
       <path id="ArialMT-5b" d="M 434 -1272 
L 434 4581 
L 1675 4581 
L 1675 4116 
L 997 4116 
L 997 -806 
L 1675 -806 
L 1675 -1272 
L 434 -1272 
z
" transform="scale(0.015625)"/>
       <path id="ArialMT-5d" d="M 1363 -1272 
L 122 -1272 
L 122 -806 
L 800 -806 
L 800 4116 
L 122 4116 
L 122 4581 
L 1363 4581 
L 1363 -1272 
z
" transform="scale(0.015625)"/>
      </defs>
      <use xlink:href="#ArialMT-64"/>
      <use xlink:href="#ArialMT-61" x="55.615234"/>
      <use xlink:href="#ArialMT-79" x="111.230469"/>
      <use xlink:href="#ArialMT-20" x="161.230469"/>
      <use xlink:href="#ArialMT-5b" x="189.013672"/>
      <use xlink:href="#ArialMT-31" x="216.796875"/>
      <use xlink:href="#ArialMT-5d" x="272.412109"/>
     </g>
    </g>
   </g>
   <g id="matplotlib.axis_2">
    <g id="ytick_1">
     <g id="line2d_8">
      <path d="M 61.934375 388.050243 
L 1081.19952 388.050243 
" clip-path="url(#p50b620142d)" style="fill: none; stroke: #ffffff; stroke-width: 0.8; stroke-linecap: round"/>
     </g>
     <g id="text_9">
      <!-- −40 -->
      <g style="fill: #555555" transform="translate(29.490625 393.418602) scale(0.15 -0.15)">
       <defs>
        <path id="ArialMT-2212" d="M 3381 1997 
L 356 1997 
L 356 2522 
L 3381 2522 
L 3381 1997 
z
" transform="scale(0.015625)"/>
        <path id="ArialMT-34" d="M 2069 0 
L 2069 1097 
L 81 1097 
L 81 1613 
L 2172 4581 
L 2631 4581 
L 2631 1613 
L 3250 1613 
L 3250 1097 
L 2631 1097 
L 2631 0 
L 2069 0 
z
M 2069 1613 
L 2069 3678 
L 634 1613 
L 2069 1613 
z
" transform="scale(0.015625)"/>
       </defs>
       <use xlink:href="#ArialMT-2212"/>
       <use xlink:href="#ArialMT-34" x="58.398438"/>
       <use xlink:href="#ArialMT-30" x="114.013672"/>
      </g>
     </g>
    </g>
    <g id="ytick_2">
     <g id="line2d_9">
      <path d="M 61.934375 336.856005 
L 1081.19952 336.856005 
" clip-path="url(#p50b620142d)" style="fill: none; stroke: #ffffff; stroke-width: 0.8; stroke-linecap: round"/>
     </g>
     <g id="text_10">
      <!-- −20 -->
      <g style="fill: #555555" transform="translate(29.490625 342.224364) scale(0.15 -0.15)">
       <use xlink:href="#ArialMT-2212"/>
       <use xlink:href="#ArialMT-32" x="58.398438"/>
       <use xlink:href="#ArialMT-30" x="114.013672"/>
      </g>
     </g>
    </g>
    <g id="ytick_3">
     <g id="line2d_10">
      <path d="M 61.934375 285.661767 
L 1081.19952 285.661767 
" clip-path="url(#p50b620142d)" style="fill: none; stroke: #ffffff; stroke-width: 0.8; stroke-linecap: round"/>
     </g>
     <g id="text_11">
      <!-- 0 -->
      <g style="fill: #555555" transform="translate(46.592969 291.030127) scale(0.15 -0.15)">
       <use xlink:href="#ArialMT-30"/>
      </g>
     </g>
    </g>
    <g id="ytick_4">
     <g id="line2d_11">
      <path d="M 61.934375 234.46753 
L 1081.19952 234.46753 
" clip-path="url(#p50b620142d)" style="fill: none; stroke: #ffffff; stroke-width: 0.8; stroke-linecap: round"/>
     </g>
     <g id="text_12">
      <!-- 20 -->
      <g style="fill: #555555" transform="translate(38.251563 239.835889) scale(0.15 -0.15)">
       <use xlink:href="#ArialMT-32"/>
       <use xlink:href="#ArialMT-30" x="55.615234"/>
      </g>
     </g>
    </g>
    <g id="ytick_5">
     <g id="line2d_12">
      <path d="M 61.934375 183.273292 
L 1081.19952 183.273292 
" clip-path="url(#p50b620142d)" style="fill: none; stroke: #ffffff; stroke-width: 0.8; stroke-linecap: round"/>
     </g>
     <g id="text_13">
      <!-- 40 -->
      <g style="fill: #555555" transform="translate(38.251563 188.641652) scale(0.15 -0.15)">
       <use xlink:href="#ArialMT-34"/>
       <use xlink:href="#ArialMT-30" x="55.615234"/>
      </g>
     </g>
    </g>
    <g id="ytick_6">
     <g id="line2d_13">
      <path d="M 61.934375 132.079055 
L 1081.19952 132.079055 
" clip-path="url(#p50b620142d)" style="fill: none; stroke: #ffffff; stroke-width: 0.8; stroke-linecap: round"/>
     </g>
     <g id="text_14">
      <!-- 60 -->
      <g style="fill: #555555" transform="translate(38.251563 137.447414) scale(0.15 -0.15)">
       <use xlink:href="#ArialMT-36"/>
       <use xlink:href="#ArialMT-30" x="55.615234"/>
      </g>
     </g>
    </g>
    <g id="ytick_7">
     <g id="line2d_14">
      <path d="M 61.934375 80.884817 
L 1081.19952 80.884817 
" clip-path="url(#p50b620142d)" style="fill: none; stroke: #ffffff; stroke-width: 0.8; stroke-linecap: round"/>
     </g>
     <g id="text_15">
      <!-- 80 -->
      <g style="fill: #555555" transform="translate(38.251563 86.253177) scale(0.15 -0.15)">
       <defs>
        <path id="ArialMT-38" d="M 1131 2484 
Q 781 2613 612 2850 
Q 444 3088 444 3419 
Q 444 3919 803 4259 
Q 1163 4600 1759 4600 
Q 2359 4600 2725 4251 
Q 3091 3903 3091 3403 
Q 3091 3084 2923 2848 
Q 2756 2613 2416 2484 
Q 2838 2347 3058 2040 
Q 3278 1734 3278 1309 
Q 3278 722 2862 322 
Q 2447 -78 1769 -78 
Q 1091 -78 675 323 
Q 259 725 259 1325 
Q 259 1772 486 2073 
Q 713 2375 1131 2484 
z
M 1019 3438 
Q 1019 3113 1228 2906 
Q 1438 2700 1772 2700 
Q 2097 2700 2305 2904 
Q 2513 3109 2513 3406 
Q 2513 3716 2298 3927 
Q 2084 4138 1766 4138 
Q 1444 4138 1231 3931 
Q 1019 3725 1019 3438 
z
M 838 1322 
Q 838 1081 952 856 
Q 1066 631 1291 507 
Q 1516 384 1775 384 
Q 2178 384 2440 643 
Q 2703 903 2703 1303 
Q 2703 1709 2433 1975 
Q 2163 2241 1756 2241 
Q 1359 2241 1098 1978 
Q 838 1716 838 1322 
z
" transform="scale(0.015625)"/>
       </defs>
       <use xlink:href="#ArialMT-38"/>
       <use xlink:href="#ArialMT-30" x="55.615234"/>
      </g>
     </g>
    </g>
    <g id="text_16">
     <!-- $US -->
     <g style="fill: #555555" transform="translate(21.515625 229.948979) rotate(-90) scale(0.2 -0.2)">
      <defs>
       <path id="ArialMT-24" d="M 1594 -659 
L 1594 -97 
Q 1172 -44 908 92 
Q 644 228 451 531 
Q 259 834 228 1272 
L 794 1378 
Q 859 925 1025 713 
Q 1263 413 1594 378 
L 1594 2169 
Q 1247 2234 884 2438 
Q 616 2588 470 2853 
Q 325 3119 325 3456 
Q 325 4056 750 4428 
Q 1034 4678 1594 4734 
L 1594 5003 
L 1925 5003 
L 1925 4734 
Q 2416 4688 2703 4447 
Q 3072 4141 3147 3606 
L 2566 3519 
Q 2516 3850 2358 4026 
Q 2200 4203 1925 4259 
L 1925 2638 
Q 2350 2531 2488 2472 
Q 2750 2356 2915 2190 
Q 3081 2025 3170 1797 
Q 3259 1569 3259 1303 
Q 3259 719 2887 328 
Q 2516 -63 1925 -91 
L 1925 -659 
L 1594 -659 
z
M 1594 4266 
Q 1266 4216 1077 4003 
Q 888 3791 888 3500 
Q 888 3213 1048 3019 
Q 1209 2825 1594 2709 
L 1594 4266 
z
M 1925 378 
Q 2253 419 2467 662 
Q 2681 906 2681 1266 
Q 2681 1572 2529 1758 
Q 2378 1944 1925 2091 
L 1925 378 
z
" transform="scale(0.015625)"/>
       <path id="ArialMT-55" d="M 3500 4581 
L 4106 4581 
L 4106 1934 
Q 4106 1244 3950 837 
Q 3794 431 3386 176 
Q 2978 -78 2316 -78 
Q 1672 -78 1262 144 
Q 853 366 678 786 
Q 503 1206 503 1934 
L 503 4581 
L 1109 4581 
L 1109 1938 
Q 1109 1341 1220 1058 
Q 1331 775 1601 622 
Q 1872 469 2263 469 
Q 2931 469 3215 772 
Q 3500 1075 3500 1938 
L 3500 4581 
z
" transform="scale(0.015625)"/>
       <path id="ArialMT-53" d="M 288 1472 
L 859 1522 
Q 900 1178 1048 958 
Q 1197 738 1509 602 
Q 1822 466 2213 466 
Q 2559 466 2825 569 
Q 3091 672 3220 851 
Q 3350 1031 3350 1244 
Q 3350 1459 3225 1620 
Q 3100 1781 2813 1891 
Q 2628 1963 1997 2114 
Q 1366 2266 1113 2400 
Q 784 2572 623 2826 
Q 463 3081 463 3397 
Q 463 3744 659 4045 
Q 856 4347 1234 4503 
Q 1613 4659 2075 4659 
Q 2584 4659 2973 4495 
Q 3363 4331 3572 4012 
Q 3781 3694 3797 3291 
L 3216 3247 
Q 3169 3681 2898 3903 
Q 2628 4125 2100 4125 
Q 1550 4125 1298 3923 
Q 1047 3722 1047 3438 
Q 1047 3191 1225 3031 
Q 1400 2872 2139 2705 
Q 2878 2538 3153 2413 
Q 3553 2228 3743 1945 
Q 3934 1663 3934 1294 
Q 3934 928 3725 604 
Q 3516 281 3123 101 
Q 2731 -78 2241 -78 
Q 1619 -78 1198 103 
Q 778 284 539 648 
Q 300 1013 288 1472 
z
" transform="scale(0.015625)"/>
      </defs>
      <use xlink:href="#ArialMT-24"/>
      <use xlink:href="#ArialMT-55" x="55.615234"/>
      <use xlink:href="#ArialMT-53" x="127.832031"/>
     </g>
    </g>
   </g>
   <g id="line2d_15">
    <path d="M 108.264609 313.511758 
L 110.838511 315.981089 
L 113.412413 287.851053 
L 115.986315 281.639562 
L 118.560216 302.234279 
L 126.281922 294.877214 
L 128.855824 276.420854 
L 131.429726 273.722409 
L 134.003628 283.319764 
L 136.57753 269.649275 
L 146.873137 288.665725 
L 149.447039 257.302694 
L 152.020941 244.039421 
L 154.594843 271.507736 
L 162.316548 297.728377 
L 164.89045 327.869517 
L 167.464352 307.63117 
L 170.038254 283.981565 
L 172.612156 224.92134 
L 180.333862 301.037849 
L 182.907763 283.726984 
L 185.481665 302.157879 
L 188.055567 273.391586 
L 190.629469 276.955404 
L 198.351175 293.731641 
L 200.925077 262.470471 
L 203.498978 288.131022 
L 206.07288 267.943762 
L 208.646782 270.183822 
L 218.94239 301.368748 
L 221.516292 293.655243 
L 224.090194 277.585802 
L 226.664095 295.64705 
L 234.385801 303.583501 
L 236.959703 275.020776 
L 239.533605 265.856184 
L 242.107507 256.10619 
L 244.681409 278.228228 
L 252.403114 252.720474 
L 254.977016 279.806647 
L 257.550918 286.349032 
L 260.12482 280.672175 
L 262.698722 305.123638 
L 270.420427 282.696165 
L 272.994329 320.894207 
L 275.568231 295.411764 
L 278.142133 274.638944 
L 280.716035 306.510984 
L 288.437741 267.358202 
L 291.011642 295.004467 
L 293.585544 263.616123 
L 296.159446 289.50571 
L 298.733348 279.628383 
L 306.455054 289.60773 
L 309.028956 256.691591 
L 311.602857 314.69553 
L 314.176759 294.864482 
L 316.750661 303.048874 
L 324.472367 276.268137 
L 327.046269 295.920926 
L 329.620171 299.51052 
L 332.194073 303.558034 
L 342.48968 282.517745 
L 345.063582 285.012622 
L 347.637484 273.97699 
L 350.211386 287.774653 
L 352.785288 287.622018 
L 360.506993 287.80012 
L 363.080895 308.013156 
L 365.654797 280.207851 
L 368.228699 282.434787 
L 370.802601 310.48241 
L 378.524306 256.818921 
L 381.098208 289.245113 
L 383.67211 271.933782 
L 386.246012 266.225361 
L 388.819914 239.686319 
L 396.54162 302.549397 
L 399.115521 289.987686 
L 401.689423 297.436381 
L 404.263325 315.712759 
L 406.837227 284.228336 
L 414.558933 278.289784 
L 417.132835 311.207797 
L 419.706737 302.504715 
L 422.280638 269.07473 
L 424.85454 266.412839 
L 432.576246 292.112136 
L 435.150148 302.709536 
L 437.72405 284.177091 
L 440.297952 263.187423 
L 442.871853 297.308579 
L 450.593559 289.62929 
L 453.167461 272.709633 
L 455.741363 280.772628 
L 458.315265 277.368327 
L 460.889167 291.80514 
L 471.184774 305.601867 
L 473.758676 266.540794 
L 478.90648 305.29487 
L 489.202087 272.376855 
L 491.775989 282.76928 
L 494.349891 294.902291 
L 496.923793 294.287984 
L 504.645499 302.299895 
L 507.2194 286.020165 
L 509.793302 260.064649 
L 512.367204 290.986012 
L 514.941106 291.497829 
L 522.662812 298.793102 
L 525.236714 283.23001 
L 527.810616 282.820523 
L 530.384517 266.540796 
L 532.958419 285.7641 
L 540.680125 281.8222 
L 543.254027 279.800084 
L 545.827929 292.419286 
L 548.401831 292.342736 
L 550.975732 294.723091 
L 558.697438 311.693991 
L 561.27134 288.247102 
L 563.845242 282.257307 
L 566.419144 281.668625 
L 576.714751 287.044112 
L 579.288653 280.1327 
L 581.862555 306.625815 
L 584.436457 275.806938 
L 587.010359 261.472459 
L 594.732064 243.631342 
L 597.305966 248.41799 
L 599.879868 287.914327 
L 602.45377 235.41461 
L 605.027672 47.403742 
L 612.749378 311.028443 
L 615.323279 287.504842 
L 617.897181 286.173741 
L 620.471083 331.275697 
L 623.044985 338.699077 
L 630.766691 276.190803 
L 633.340593 283.767606 
L 635.914495 275.602118 
L 638.488396 283.972271 
L 641.062298 303.528664 
L 648.784004 271.327286 
L 651.357906 290.678859 
L 653.931808 248.46908 
L 656.50571 288.477543 
L 659.079611 304.552454 
L 666.801317 289.680536 
L 669.375219 216.421436 
L 671.949121 288.784695 
L 674.523023 293.622436 
L 677.096925 283.946804 
L 684.81863 276.062848 
L 687.392532 297.794776 
L 689.966434 273.451893 
L 692.540336 321.676931 
L 695.114238 373.587965 
L 702.835943 344.202365 
L 705.409845 304.987559 
L 707.983747 166.48159 
L 710.557649 262.649983 
L 713.131551 304.168433 
L 720.853257 316.711085 
L 723.427158 338.033529 
L 726.00106 243.29841 
L 728.574962 306.369906 
L 731.148864 299.868138 
L 741.444472 249.928289 
L 744.018374 290.627614 
L 746.592275 263.571441 
L 749.166177 274.347728 
L 756.887883 292.137915 
L 759.461785 255.201132 
L 762.035687 283.511699 
L 764.609589 267.948449 
L 767.18349 320.601896 
L 774.905196 269.817146 
L 777.479098 318.298094 
L 780.053 286.506516 
L 782.626902 276.856351 
L 785.200804 321.062626 
L 792.922509 329.381534 
L 795.496411 285.457103 
L 798.070313 251.233612 
L 800.644215 278.315407 
L 803.218117 245.679081 
L 810.939822 248.392368 
L 813.513724 275.499632 
L 816.087626 293.545724 
L 818.661528 293.852876 
L 821.23543 274.271019 
L 828.957136 277.829054 
L 831.531038 271.250577 
L 834.104939 288.579877 
L 836.678841 258.579972 
L 839.252743 284.484244 
L 846.974449 275.678983 
L 849.548351 326.156274 
L 852.122253 305.29487 
L 854.696154 262.16363 
L 857.270056 157.138578 
L 864.991762 258.067999 
L 867.565664 296.643031 
L 870.139566 274.245396 
L 872.713468 275.499786 
L 875.287369 301.301569 
L 883.009075 259.296768 
L 885.582977 282.974101 
L 888.156879 270.431451 
L 890.730781 277.624234 
L 893.304683 279.236865 
L 901.026388 308.366399 
L 903.60029 276.881976 
L 906.174192 267.538964 
L 908.748094 296.335879 
L 911.321996 322.086416 
L 919.043701 255.047557 
L 921.617603 295.0304 
L 924.191505 248.033972 
L 926.765407 289.731778 
L 929.339309 239.100601 
L 937.061015 287.248779 
L 939.634917 305.371423 
L 942.208818 285.994543 
L 947.356622 280.260811 
L 955.078328 305.269247 
L 957.65223 223.102404 
L 960.226132 297.589956 
L 962.800033 310.849401 
L 965.373935 249.134628 
L 973.095641 294.774337 
L 975.669543 287.914327 
L 978.243445 313.204293 
L 980.817347 291.165053 
L 983.391249 312.769185 
L 991.112954 262.880268 
L 993.686856 296.847698 
L 996.260758 248.059592 
L 998.83466 307.828959 
L 1001.408562 311.566039 
L 1009.130267 264.006549 
L 1011.704169 279.953661 
L 1014.278071 284.868262 
L 1016.851973 290.550751 
L 1027.14758 249.544269 
L 1029.721482 249.595514 
L 1032.295384 299.996093 
L 1034.869286 316.685463 
L 1034.869286 316.685463 
" clip-path="url(#p50b620142d)" style="fill: none; stroke: #314f4f; stroke-width: 1.5; stroke-linecap: round"/>
   </g>
   <g id="patch_3">
    <path d="M 61.934375 389.897176 
L 61.934375 31.094531 
" style="fill: none; stroke: #ffffff; stroke-linejoin: miter; stroke-linecap: square"/>
   </g>
   <g id="patch_4">
    <path d="M 1081.19952 389.897176 
L 1081.19952 31.094531 
" style="fill: none; stroke: #ffffff; stroke-linejoin: miter; stroke-linecap: square"/>
   </g>
   <g id="patch_5">
    <path d="M 61.934375 389.897176 
L 1081.19952 389.897176 
" style="fill: none; stroke: #ffffff; stroke-linejoin: miter; stroke-linecap: square"/>
   </g>
   <g id="patch_6">
    <path d="M 61.934375 31.094531 
L 1081.19952 31.094531 
" style="fill: none; stroke: #ffffff; stroke-linejoin: miter; stroke-linecap: square"/>
   </g>
   <g id="text_17">
    <!-- Residuals from the naive method -->
    <g style="fill: #262626" transform="translate(388.846244 25.094531) scale(0.25 -0.25)">
     <defs>
      <path id="ArialMT-52" d="M 503 0 
L 503 4581 
L 2534 4581 
Q 3147 4581 3465 4457 
Q 3784 4334 3975 4021 
Q 4166 3709 4166 3331 
Q 4166 2844 3850 2509 
Q 3534 2175 2875 2084 
Q 3116 1969 3241 1856 
Q 3506 1613 3744 1247 
L 4541 0 
L 3778 0 
L 3172 953 
Q 2906 1366 2734 1584 
Q 2563 1803 2427 1890 
Q 2291 1978 2150 2013 
Q 2047 2034 1813 2034 
L 1109 2034 
L 1109 0 
L 503 0 
z
M 1109 2559 
L 2413 2559 
Q 2828 2559 3062 2645 
Q 3297 2731 3419 2920 
Q 3541 3109 3541 3331 
Q 3541 3656 3305 3865 
Q 3069 4075 2559 4075 
L 1109 4075 
L 1109 2559 
z
" transform="scale(0.015625)"/>
      <path id="ArialMT-65" d="M 2694 1069 
L 3275 997 
Q 3138 488 2766 206 
Q 2394 -75 1816 -75 
Q 1088 -75 661 373 
Q 234 822 234 1631 
Q 234 2469 665 2931 
Q 1097 3394 1784 3394 
Q 2450 3394 2872 2941 
Q 3294 2488 3294 1666 
Q 3294 1616 3291 1516 
L 816 1516 
Q 847 969 1125 678 
Q 1403 388 1819 388 
Q 2128 388 2347 550 
Q 2566 713 2694 1069 
z
M 847 1978 
L 2700 1978 
Q 2663 2397 2488 2606 
Q 2219 2931 1791 2931 
Q 1403 2931 1139 2672 
Q 875 2413 847 1978 
z
" transform="scale(0.015625)"/>
      <path id="ArialMT-73" d="M 197 991 
L 753 1078 
Q 800 744 1014 566 
Q 1228 388 1613 388 
Q 2000 388 2187 545 
Q 2375 703 2375 916 
Q 2375 1106 2209 1216 
Q 2094 1291 1634 1406 
Q 1016 1563 777 1677 
Q 538 1791 414 1992 
Q 291 2194 291 2438 
Q 291 2659 392 2848 
Q 494 3038 669 3163 
Q 800 3259 1026 3326 
Q 1253 3394 1513 3394 
Q 1903 3394 2198 3281 
Q 2494 3169 2634 2976 
Q 2775 2784 2828 2463 
L 2278 2388 
Q 2241 2644 2061 2787 
Q 1881 2931 1553 2931 
Q 1166 2931 1000 2803 
Q 834 2675 834 2503 
Q 834 2394 903 2306 
Q 972 2216 1119 2156 
Q 1203 2125 1616 2013 
Q 2213 1853 2448 1751 
Q 2684 1650 2818 1456 
Q 2953 1263 2953 975 
Q 2953 694 2789 445 
Q 2625 197 2315 61 
Q 2006 -75 1616 -75 
Q 969 -75 630 194 
Q 291 463 197 991 
z
" transform="scale(0.015625)"/>
      <path id="ArialMT-69" d="M 425 3934 
L 425 4581 
L 988 4581 
L 988 3934 
L 425 3934 
z
M 425 0 
L 425 3319 
L 988 3319 
L 988 0 
L 425 0 
z
" transform="scale(0.015625)"/>
      <path id="ArialMT-75" d="M 2597 0 
L 2597 488 
Q 2209 -75 1544 -75 
Q 1250 -75 995 37 
Q 741 150 617 320 
Q 494 491 444 738 
Q 409 903 409 1263 
L 409 3319 
L 972 3319 
L 972 1478 
Q 972 1038 1006 884 
Q 1059 663 1231 536 
Q 1403 409 1656 409 
Q 1909 409 2131 539 
Q 2353 669 2445 892 
Q 2538 1116 2538 1541 
L 2538 3319 
L 3100 3319 
L 3100 0 
L 2597 0 
z
" transform="scale(0.015625)"/>
      <path id="ArialMT-6c" d="M 409 0 
L 409 4581 
L 972 4581 
L 972 0 
L 409 0 
z
" transform="scale(0.015625)"/>
      <path id="ArialMT-66" d="M 556 0 
L 556 2881 
L 59 2881 
L 59 3319 
L 556 3319 
L 556 3672 
Q 556 4006 616 4169 
Q 697 4388 901 4523 
Q 1106 4659 1475 4659 
Q 1713 4659 2000 4603 
L 1916 4113 
Q 1741 4144 1584 4144 
Q 1328 4144 1222 4034 
Q 1116 3925 1116 3625 
L 1116 3319 
L 1763 3319 
L 1763 2881 
L 1116 2881 
L 1116 0 
L 556 0 
z
" transform="scale(0.015625)"/>
      <path id="ArialMT-72" d="M 416 0 
L 416 3319 
L 922 3319 
L 922 2816 
Q 1116 3169 1280 3281 
Q 1444 3394 1641 3394 
Q 1925 3394 2219 3213 
L 2025 2691 
Q 1819 2813 1613 2813 
Q 1428 2813 1281 2702 
Q 1134 2591 1072 2394 
Q 978 2094 978 1738 
L 978 0 
L 416 0 
z
" transform="scale(0.015625)"/>
      <path id="ArialMT-6f" d="M 213 1659 
Q 213 2581 725 3025 
Q 1153 3394 1769 3394 
Q 2453 3394 2887 2945 
Q 3322 2497 3322 1706 
Q 3322 1066 3130 698 
Q 2938 331 2570 128 
Q 2203 -75 1769 -75 
Q 1072 -75 642 372 
Q 213 819 213 1659 
z
M 791 1659 
Q 791 1022 1069 705 
Q 1347 388 1769 388 
Q 2188 388 2466 706 
Q 2744 1025 2744 1678 
Q 2744 2294 2464 2611 
Q 2184 2928 1769 2928 
Q 1347 2928 1069 2612 
Q 791 2297 791 1659 
z
" transform="scale(0.015625)"/>
      <path id="ArialMT-6d" d="M 422 0 
L 422 3319 
L 925 3319 
L 925 2853 
Q 1081 3097 1340 3245 
Q 1600 3394 1931 3394 
Q 2300 3394 2536 3241 
Q 2772 3088 2869 2813 
Q 3263 3394 3894 3394 
Q 4388 3394 4653 3120 
Q 4919 2847 4919 2278 
L 4919 0 
L 4359 0 
L 4359 2091 
Q 4359 2428 4304 2576 
Q 4250 2725 4106 2815 
Q 3963 2906 3769 2906 
Q 3419 2906 3187 2673 
Q 2956 2441 2956 1928 
L 2956 0 
L 2394 0 
L 2394 2156 
Q 2394 2531 2256 2718 
Q 2119 2906 1806 2906 
Q 1569 2906 1367 2781 
Q 1166 2656 1075 2415 
Q 984 2175 984 1722 
L 984 0 
L 422 0 
z
" transform="scale(0.015625)"/>
      <path id="ArialMT-74" d="M 1650 503 
L 1731 6 
Q 1494 -44 1306 -44 
Q 1000 -44 831 53 
Q 663 150 594 308 
Q 525 466 525 972 
L 525 2881 
L 113 2881 
L 113 3319 
L 525 3319 
L 525 4141 
L 1084 4478 
L 1084 3319 
L 1650 3319 
L 1650 2881 
L 1084 2881 
L 1084 941 
Q 1084 700 1114 631 
Q 1144 563 1211 522 
Q 1278 481 1403 481 
Q 1497 481 1650 503 
z
" transform="scale(0.015625)"/>
      <path id="ArialMT-68" d="M 422 0 
L 422 4581 
L 984 4581 
L 984 2938 
Q 1378 3394 1978 3394 
Q 2347 3394 2619 3248 
Q 2891 3103 3008 2847 
Q 3125 2591 3125 2103 
L 3125 0 
L 2563 0 
L 2563 2103 
Q 2563 2525 2380 2717 
Q 2197 2909 1863 2909 
Q 1613 2909 1392 2779 
Q 1172 2650 1078 2428 
Q 984 2206 984 1816 
L 984 0 
L 422 0 
z
" transform="scale(0.015625)"/>
      <path id="ArialMT-6e" d="M 422 0 
L 422 3319 
L 928 3319 
L 928 2847 
Q 1294 3394 1984 3394 
Q 2284 3394 2536 3286 
Q 2788 3178 2913 3003 
Q 3038 2828 3088 2588 
Q 3119 2431 3119 2041 
L 3119 0 
L 2556 0 
L 2556 2019 
Q 2556 2363 2490 2533 
Q 2425 2703 2258 2804 
Q 2091 2906 1866 2906 
Q 1506 2906 1245 2678 
Q 984 2450 984 1813 
L 984 0 
L 422 0 
z
" transform="scale(0.015625)"/>
      <path id="ArialMT-76" d="M 1344 0 
L 81 3319 
L 675 3319 
L 1388 1331 
Q 1503 1009 1600 663 
Q 1675 925 1809 1294 
L 2547 3319 
L 3125 3319 
L 1869 0 
L 1344 0 
z
" transform="scale(0.015625)"/>
     </defs>
     <use xlink:href="#ArialMT-52"/>
     <use xlink:href="#ArialMT-65" x="72.216797"/>
     <use xlink:href="#ArialMT-73" x="127.832031"/>
     <use xlink:href="#ArialMT-69" x="177.832031"/>
     <use xlink:href="#ArialMT-64" x="200.048828"/>
     <use xlink:href="#ArialMT-75" x="255.664062"/>
     <use xlink:href="#ArialMT-61" x="311.279297"/>
     <use xlink:href="#ArialMT-6c" x="366.894531"/>
     <use xlink:href="#ArialMT-73" x="389.111328"/>
     <use xlink:href="#ArialMT-20" x="439.111328"/>
     <use xlink:href="#ArialMT-66" x="466.894531"/>
     <use xlink:href="#ArialMT-72" x="494.677734"/>
     <use xlink:href="#ArialMT-6f" x="527.978516"/>
     <use xlink:href="#ArialMT-6d" x="583.59375"/>
     <use xlink:href="#ArialMT-20" x="666.894531"/>
     <use xlink:href="#ArialMT-74" x="694.677734"/>
     <use xlink:href="#ArialMT-68" x="722.460938"/>
     <use xlink:href="#ArialMT-65" x="778.076172"/>
     <use xlink:href="#ArialMT-20" x="833.691406"/>
     <use xlink:href="#ArialMT-6e" x="861.474609"/>
     <use xlink:href="#ArialMT-61" x="917.089844"/>
     <use xlink:href="#ArialMT-69" x="972.705078"/>
     <use xlink:href="#ArialMT-76" x="994.921875"/>
     <use xlink:href="#ArialMT-65" x="1044.921875"/>
     <use xlink:href="#ArialMT-20" x="1100.537109"/>
     <use xlink:href="#ArialMT-6d" x="1128.320312"/>
     <use xlink:href="#ArialMT-65" x="1211.621094"/>
     <use xlink:href="#ArialMT-74" x="1267.236328"/>
     <use xlink:href="#ArialMT-68" x="1295.019531"/>
     <use xlink:href="#ArialMT-6f" x="1350.634766"/>
     <use xlink:href="#ArialMT-64" x="1406.25"/>
    </g>
   </g>
  </g>
 </g>
 <defs>
  <clipPath id="p50b620142d">
   <rect x="61.934375" y="31.094531" width="1019.265145" height="358.802645"/>
  </clipPath>
 </defs>
</svg>
