<?xml version="1.0" encoding="utf-8" standalone="no"?>
<!DOCTYPE svg PUBLIC "-//W3C//DTD SVG 1.1//EN"
  "http://www.w3.org/Graphics/SVG/1.1/DTD/svg11.dtd">
<svg xmlns:xlink="http://www.w3.org/1999/xlink" width="1088.39952pt" height="440.39952pt" viewBox="0 0 1088.39952 440.39952" xmlns="http://www.w3.org/2000/svg" version="1.1">
 <metadata>
  <rdf:RDF xmlns:dc="http://purl.org/dc/elements/1.1/" xmlns:cc="http://creativecommons.org/ns#" xmlns:rdf="http://www.w3.org/1999/02/22-rdf-syntax-ns#">
   <cc:Work>
    <dc:type rdf:resource="http://purl.org/dc/dcmitype/StillImage"/>
    <dc:date>2025-11-02T16:32:39.253620</dc:date>
    <dc:format>image/svg+xml</dc:format>
    <dc:creator>
     <cc:Agent>
      <dc:title>Matplotlib v3.7.2, https://matplotlib.org/</dc:title>
     </cc:Agent>
    </dc:creator>
   </cc:Work>
  </rdf:RDF>
 </metadata>
 <defs>
  <style type="text/css">*{stroke-linejoin: round; stroke-linecap: butt}</style>
 </defs>
 <g id="figure_1">
  <g id="patch_1">
   <path d="M 0 440.39952 
L 1088.39952 440.39952 
L 1088.39952 0 
L 0 0 
z
" style="fill: #ffffff"/>
  </g>
  <g id="axes_1">
   <g id="patch_2">
    <path d="M 70.519531 390.190926 
L 1081.19952 390.190926 
L 1081.19952 31.399219 
L 70.519531 31.399219 
z
" style="fill: #e5e5e5"/>
   </g>
   <g id="matplotlib.axis_1">
    <g id="xtick_1">
     <g id="line2d_1">
      <path d="M 113.915553 390.190926 
L 113.915553 31.399219 
" clip-path="url(#pa55bbc0de1)" style="fill: none; stroke: #ffffff; stroke-width: 0.8; stroke-linecap: round"/>
     </g>
     <g id="text_1">
      <!-- 1992 -->
      <g style="fill: #555555" transform="translate(97.23274 407.927645) scale(0.15 -0.15)">
       <defs>
        <path id="ArialMT-31" d="M 2384 0 
L 1822 0 
L 1822 3584 
Q 1619 3391 1289 3197 
Q 959 3003 697 2906 
L 697 3450 
Q 1169 3672 1522 3987 
Q 1875 4303 2022 4600 
L 2384 4600 
L 2384 0 
z
" transform="scale(0.015625)"/>
        <path id="ArialMT-39" d="M 350 1059 
L 891 1109 
Q 959 728 1153 556 
Q 1347 384 1650 384 
Q 1909 384 2104 503 
Q 2300 622 2425 820 
Q 2550 1019 2634 1356 
Q 2719 1694 2719 2044 
Q 2719 2081 2716 2156 
Q 2547 1888 2255 1720 
Q 1963 1553 1622 1553 
Q 1053 1553 659 1965 
Q 266 2378 266 3053 
Q 266 3750 677 4175 
Q 1088 4600 1706 4600 
Q 2153 4600 2523 4359 
Q 2894 4119 3086 3673 
Q 3278 3228 3278 2384 
Q 3278 1506 3087 986 
Q 2897 466 2520 194 
Q 2144 -78 1638 -78 
Q 1100 -78 759 220 
Q 419 519 350 1059 
z
M 2653 3081 
Q 2653 3566 2395 3850 
Q 2138 4134 1775 4134 
Q 1400 4134 1122 3828 
Q 844 3522 844 3034 
Q 844 2597 1108 2323 
Q 1372 2050 1759 2050 
Q 2150 2050 2401 2323 
Q 2653 2597 2653 3081 
z
" transform="scale(0.015625)"/>
        <path id="ArialMT-32" d="M 3222 541 
L 3222 0 
L 194 0 
Q 188 203 259 391 
Q 375 700 629 1000 
Q 884 1300 1366 1694 
Q 2113 2306 2375 2664 
Q 2638 3022 2638 3341 
Q 2638 3675 2398 3904 
Q 2159 4134 1775 4134 
Q 1369 4134 1125 3890 
Q 881 3647 878 3216 
L 300 3275 
Q 359 3922 746 4261 
Q 1134 4600 1788 4600 
Q 2447 4600 2831 4234 
Q 3216 3869 3216 3328 
Q 3216 3053 3103 2787 
Q 2991 2522 2730 2228 
Q 2469 1934 1863 1422 
Q 1356 997 1212 845 
Q 1069 694 975 541 
L 3222 541 
z
" transform="scale(0.015625)"/>
       </defs>
       <use xlink:href="#ArialMT-31"/>
       <use xlink:href="#ArialMT-39" x="55.615234"/>
       <use xlink:href="#ArialMT-39" x="111.230469"/>
       <use xlink:href="#ArialMT-32" x="166.845703"/>
      </g>
     </g>
    </g>
    <g id="xtick_2">
     <g id="line2d_2">
      <path d="M 237.807273 390.190926 
L 237.807273 31.399219 
" clip-path="url(#pa55bbc0de1)" style="fill: none; stroke: #ffffff; stroke-width: 0.8; stroke-linecap: round"/>
     </g>
     <g id="text_2">
      <!-- 1996 -->
      <g style="fill: #555555" transform="translate(221.12446 407.927645) scale(0.15 -0.15)">
       <defs>
        <path id="ArialMT-36" d="M 3184 3459 
L 2625 3416 
Q 2550 3747 2413 3897 
Q 2184 4138 1850 4138 
Q 1581 4138 1378 3988 
Q 1113 3794 959 3422 
Q 806 3050 800 2363 
Q 1003 2672 1297 2822 
Q 1591 2972 1913 2972 
Q 2475 2972 2870 2558 
Q 3266 2144 3266 1488 
Q 3266 1056 3080 686 
Q 2894 316 2569 119 
Q 2244 -78 1831 -78 
Q 1128 -78 684 439 
Q 241 956 241 2144 
Q 241 3472 731 4075 
Q 1159 4600 1884 4600 
Q 2425 4600 2770 4297 
Q 3116 3994 3184 3459 
z
M 888 1484 
Q 888 1194 1011 928 
Q 1134 663 1356 523 
Q 1578 384 1822 384 
Q 2178 384 2434 671 
Q 2691 959 2691 1453 
Q 2691 1928 2437 2201 
Q 2184 2475 1800 2475 
Q 1419 2475 1153 2201 
Q 888 1928 888 1484 
z
" transform="scale(0.015625)"/>
       </defs>
       <use xlink:href="#ArialMT-31"/>
       <use xlink:href="#ArialMT-39" x="55.615234"/>
       <use xlink:href="#ArialMT-39" x="111.230469"/>
       <use xlink:href="#ArialMT-36" x="166.845703"/>
      </g>
     </g>
    </g>
    <g id="xtick_3">
     <g id="line2d_3">
      <path d="M 361.698993 390.190926 
L 361.698993 31.399219 
" clip-path="url(#pa55bbc0de1)" style="fill: none; stroke: #ffffff; stroke-width: 0.8; stroke-linecap: round"/>
     </g>
     <g id="text_3">
      <!-- 2000 -->
      <g style="fill: #555555" transform="translate(345.01618 407.927645) scale(0.15 -0.15)">
       <defs>
        <path id="ArialMT-30" d="M 266 2259 
Q 266 3072 433 3567 
Q 600 4063 929 4331 
Q 1259 4600 1759 4600 
Q 2128 4600 2406 4451 
Q 2684 4303 2865 4023 
Q 3047 3744 3150 3342 
Q 3253 2941 3253 2259 
Q 3253 1453 3087 958 
Q 2922 463 2592 192 
Q 2263 -78 1759 -78 
Q 1097 -78 719 397 
Q 266 969 266 2259 
z
M 844 2259 
Q 844 1131 1108 757 
Q 1372 384 1759 384 
Q 2147 384 2411 759 
Q 2675 1134 2675 2259 
Q 2675 3391 2411 3762 
Q 2147 4134 1753 4134 
Q 1366 4134 1134 3806 
Q 844 3388 844 2259 
z
" transform="scale(0.015625)"/>
       </defs>
       <use xlink:href="#ArialMT-32"/>
       <use xlink:href="#ArialMT-30" x="55.615234"/>
       <use xlink:href="#ArialMT-30" x="111.230469"/>
       <use xlink:href="#ArialMT-30" x="166.845703"/>
      </g>
     </g>
    </g>
    <g id="xtick_4">
     <g id="line2d_4">
      <path d="M 485.590713 390.190926 
L 485.590713 31.399219 
" clip-path="url(#pa55bbc0de1)" style="fill: none; stroke: #ffffff; stroke-width: 0.8; stroke-linecap: round"/>
     </g>
     <g id="text_4">
      <!-- 2004 -->
      <g style="fill: #555555" transform="translate(468.9079 407.927645) scale(0.15 -0.15)">
       <defs>
        <path id="ArialMT-34" d="M 2069 0 
L 2069 1097 
L 81 1097 
L 81 1613 
L 2172 4581 
L 2631 4581 
L 2631 1613 
L 3250 1613 
L 3250 1097 
L 2631 1097 
L 2631 0 
L 2069 0 
z
M 2069 1613 
L 2069 3678 
L 634 1613 
L 2069 1613 
z
" transform="scale(0.015625)"/>
       </defs>
       <use xlink:href="#ArialMT-32"/>
       <use xlink:href="#ArialMT-30" x="55.615234"/>
       <use xlink:href="#ArialMT-30" x="111.230469"/>
       <use xlink:href="#ArialMT-34" x="166.845703"/>
      </g>
     </g>
    </g>
    <g id="xtick_5">
     <g id="line2d_5">
      <path d="M 609.482432 390.190926 
L 609.482432 31.399219 
" clip-path="url(#pa55bbc0de1)" style="fill: none; stroke: #ffffff; stroke-width: 0.8; stroke-linecap: round"/>
     </g>
     <g id="text_5">
      <!-- 2008 -->
      <g style="fill: #555555" transform="translate(592.79962 407.927645) scale(0.15 -0.15)">
       <defs>
        <path id="ArialMT-38" d="M 1131 2484 
Q 781 2613 612 2850 
Q 444 3088 444 3419 
Q 444 3919 803 4259 
Q 1163 4600 1759 4600 
Q 2359 4600 2725 4251 
Q 3091 3903 3091 3403 
Q 3091 3084 2923 2848 
Q 2756 2613 2416 2484 
Q 2838 2347 3058 2040 
Q 3278 1734 3278 1309 
Q 3278 722 2862 322 
Q 2447 -78 1769 -78 
Q 1091 -78 675 323 
Q 259 725 259 1325 
Q 259 1772 486 2073 
Q 713 2375 1131 2484 
z
M 1019 3438 
Q 1019 3113 1228 2906 
Q 1438 2700 1772 2700 
Q 2097 2700 2305 2904 
Q 2513 3109 2513 3406 
Q 2513 3716 2298 3927 
Q 2084 4138 1766 4138 
Q 1444 4138 1231 3931 
Q 1019 3725 1019 3438 
z
M 838 1322 
Q 838 1081 952 856 
Q 1066 631 1291 507 
Q 1516 384 1775 384 
Q 2178 384 2440 643 
Q 2703 903 2703 1303 
Q 2703 1709 2433 1975 
Q 2163 2241 1756 2241 
Q 1359 2241 1098 1978 
Q 838 1716 838 1322 
z
" transform="scale(0.015625)"/>
       </defs>
       <use xlink:href="#ArialMT-32"/>
       <use xlink:href="#ArialMT-30" x="55.615234"/>
       <use xlink:href="#ArialMT-30" x="111.230469"/>
       <use xlink:href="#ArialMT-38" x="166.845703"/>
      </g>
     </g>
    </g>
    <g id="xtick_6">
     <g id="line2d_6">
      <path d="M 733.374152 390.190926 
L 733.374152 31.399219 
" clip-path="url(#pa55bbc0de1)" style="fill: none; stroke: #ffffff; stroke-width: 0.8; stroke-linecap: round"/>
     </g>
     <g id="text_6">
      <!-- 2012 -->
      <g style="fill: #555555" transform="translate(716.69134 407.927645) scale(0.15 -0.15)">
       <use xlink:href="#ArialMT-32"/>
       <use xlink:href="#ArialMT-30" x="55.615234"/>
       <use xlink:href="#ArialMT-31" x="111.230469"/>
       <use xlink:href="#ArialMT-32" x="166.845703"/>
      </g>
     </g>
    </g>
    <g id="xtick_7">
     <g id="line2d_7">
      <path d="M 857.265872 390.190926 
L 857.265872 31.399219 
" clip-path="url(#pa55bbc0de1)" style="fill: none; stroke: #ffffff; stroke-width: 0.8; stroke-linecap: round"/>
     </g>
     <g id="text_7">
      <!-- 2016 -->
      <g style="fill: #555555" transform="translate(840.58306 407.927645) scale(0.15 -0.15)">
       <use xlink:href="#ArialMT-32"/>
       <use xlink:href="#ArialMT-30" x="55.615234"/>
       <use xlink:href="#ArialMT-31" x="111.230469"/>
       <use xlink:href="#ArialMT-36" x="166.845703"/>
      </g>
     </g>
    </g>
    <g id="xtick_8">
     <g id="line2d_8">
      <path d="M 981.157592 390.190926 
L 981.157592 31.399219 
" clip-path="url(#pa55bbc0de1)" style="fill: none; stroke: #ffffff; stroke-width: 0.8; stroke-linecap: round"/>
     </g>
     <g id="text_8">
      <!-- 2020 -->
      <g style="fill: #555555" transform="translate(964.47478 407.927645) scale(0.15 -0.15)">
       <use xlink:href="#ArialMT-32"/>
       <use xlink:href="#ArialMT-30" x="55.615234"/>
       <use xlink:href="#ArialMT-32" x="111.230469"/>
       <use xlink:href="#ArialMT-30" x="166.845703"/>
      </g>
     </g>
    </g>
    <g id="text_9">
     <!-- Month -->
     <g style="fill: #555555" transform="translate(548.068901 429.22452) scale(0.2 -0.2)">
      <defs>
       <path id="ArialMT-4d" d="M 475 0 
L 475 4581 
L 1388 4581 
L 2472 1338 
Q 2622 884 2691 659 
Q 2769 909 2934 1394 
L 4031 4581 
L 4847 4581 
L 4847 0 
L 4263 0 
L 4263 3834 
L 2931 0 
L 2384 0 
L 1059 3900 
L 1059 0 
L 475 0 
z
" transform="scale(0.015625)"/>
       <path id="ArialMT-6f" d="M 213 1659 
Q 213 2581 725 3025 
Q 1153 3394 1769 3394 
Q 2453 3394 2887 2945 
Q 3322 2497 3322 1706 
Q 3322 1066 3130 698 
Q 2938 331 2570 128 
Q 2203 -75 1769 -75 
Q 1072 -75 642 372 
Q 213 819 213 1659 
z
M 791 1659 
Q 791 1022 1069 705 
Q 1347 388 1769 388 
Q 2188 388 2466 706 
Q 2744 1025 2744 1678 
Q 2744 2294 2464 2611 
Q 2184 2928 1769 2928 
Q 1347 2928 1069 2612 
Q 791 2297 791 1659 
z
" transform="scale(0.015625)"/>
       <path id="ArialMT-6e" d="M 422 0 
L 422 3319 
L 928 3319 
L 928 2847 
Q 1294 3394 1984 3394 
Q 2284 3394 2536 3286 
Q 2788 3178 2913 3003 
Q 3038 2828 3088 2588 
Q 3119 2431 3119 2041 
L 3119 0 
L 2556 0 
L 2556 2019 
Q 2556 2363 2490 2533 
Q 2425 2703 2258 2804 
Q 2091 2906 1866 2906 
Q 1506 2906 1245 2678 
Q 984 2450 984 1813 
L 984 0 
L 422 0 
z
" transform="scale(0.015625)"/>
       <path id="ArialMT-74" d="M 1650 503 
L 1731 6 
Q 1494 -44 1306 -44 
Q 1000 -44 831 53 
Q 663 150 594 308 
Q 525 466 525 972 
L 525 2881 
L 113 2881 
L 113 3319 
L 525 3319 
L 525 4141 
L 1084 4478 
L 1084 3319 
L 1650 3319 
L 1650 2881 
L 1084 2881 
L 1084 941 
Q 1084 700 1114 631 
Q 1144 563 1211 522 
Q 1278 481 1403 481 
Q 1497 481 1650 503 
z
" transform="scale(0.015625)"/>
       <path id="ArialMT-68" d="M 422 0 
L 422 4581 
L 984 4581 
L 984 2938 
Q 1378 3394 1978 3394 
Q 2347 3394 2619 3248 
Q 2891 3103 3008 2847 
Q 3125 2591 3125 2103 
L 3125 0 
L 2563 0 
L 2563 2103 
Q 2563 2525 2380 2717 
Q 2197 2909 1863 2909 
Q 1613 2909 1392 2779 
Q 1172 2650 1078 2428 
Q 984 2206 984 1816 
L 984 0 
L 422 0 
z
" transform="scale(0.015625)"/>
      </defs>
      <use xlink:href="#ArialMT-4d"/>
      <use xlink:href="#ArialMT-6f" x="83.300781"/>
      <use xlink:href="#ArialMT-6e" x="138.916016"/>
      <use xlink:href="#ArialMT-74" x="194.53125"/>
      <use xlink:href="#ArialMT-68" x="222.314453"/>
     </g>
    </g>
   </g>
   <g id="matplotlib.axis_2">
    <g id="ytick_1">
     <g id="line2d_9">
      <path d="M 70.519531 340.090255 
L 1081.19952 340.090255 
" clip-path="url(#pa55bbc0de1)" style="fill: none; stroke: #ffffff; stroke-width: 0.8; stroke-linecap: round"/>
     </g>
     <g id="text_10">
      <!-- −200 -->
      <g style="fill: #555555" transform="translate(29.734375 345.458614) scale(0.15 -0.15)">
       <defs>
        <path id="ArialMT-2212" d="M 3381 1997 
L 356 1997 
L 356 2522 
L 3381 2522 
L 3381 1997 
z
" transform="scale(0.015625)"/>
       </defs>
       <use xlink:href="#ArialMT-2212"/>
       <use xlink:href="#ArialMT-32" x="58.398438"/>
       <use xlink:href="#ArialMT-30" x="114.013672"/>
       <use xlink:href="#ArialMT-30" x="169.628906"/>
      </g>
     </g>
    </g>
    <g id="ytick_2">
     <g id="line2d_10">
      <path d="M 70.519531 271.949894 
L 1081.19952 271.949894 
" clip-path="url(#pa55bbc0de1)" style="fill: none; stroke: #ffffff; stroke-width: 0.8; stroke-linecap: round"/>
     </g>
     <g id="text_11">
      <!-- 0 -->
      <g style="fill: #555555" transform="translate(55.178125 277.318254) scale(0.15 -0.15)">
       <use xlink:href="#ArialMT-30"/>
      </g>
     </g>
    </g>
    <g id="ytick_3">
     <g id="line2d_11">
      <path d="M 70.519531 203.809534 
L 1081.19952 203.809534 
" clip-path="url(#pa55bbc0de1)" style="fill: none; stroke: #ffffff; stroke-width: 0.8; stroke-linecap: round"/>
     </g>
     <g id="text_12">
      <!-- 200 -->
      <g style="fill: #555555" transform="translate(38.495312 209.177893) scale(0.15 -0.15)">
       <use xlink:href="#ArialMT-32"/>
       <use xlink:href="#ArialMT-30" x="55.615234"/>
       <use xlink:href="#ArialMT-30" x="111.230469"/>
      </g>
     </g>
    </g>
    <g id="ytick_4">
     <g id="line2d_12">
      <path d="M 70.519531 135.669174 
L 1081.19952 135.669174 
" clip-path="url(#pa55bbc0de1)" style="fill: none; stroke: #ffffff; stroke-width: 0.8; stroke-linecap: round"/>
     </g>
     <g id="text_13">
      <!-- 400 -->
      <g style="fill: #555555" transform="translate(38.495312 141.037533) scale(0.15 -0.15)">
       <use xlink:href="#ArialMT-34"/>
       <use xlink:href="#ArialMT-30" x="55.615234"/>
       <use xlink:href="#ArialMT-30" x="111.230469"/>
      </g>
     </g>
    </g>
    <g id="ytick_5">
     <g id="line2d_13">
      <path d="M 70.519531 67.528813 
L 1081.19952 67.528813 
" clip-path="url(#pa55bbc0de1)" style="fill: none; stroke: #ffffff; stroke-width: 0.8; stroke-linecap: round"/>
     </g>
     <g id="text_14">
      <!-- 600 -->
      <g style="fill: #555555" transform="translate(38.495312 72.897172) scale(0.15 -0.15)">
       <use xlink:href="#ArialMT-36"/>
       <use xlink:href="#ArialMT-30" x="55.615234"/>
       <use xlink:href="#ArialMT-30" x="111.230469"/>
      </g>
     </g>
    </g>
    <g id="text_15">
     <!-- Number of people -->
     <g style="fill: #555555" transform="translate(21.759375 290.28101) rotate(-90) scale(0.2 -0.2)">
      <defs>
       <path id="ArialMT-4e" d="M 488 0 
L 488 4581 
L 1109 4581 
L 3516 984 
L 3516 4581 
L 4097 4581 
L 4097 0 
L 3475 0 
L 1069 3600 
L 1069 0 
L 488 0 
z
" transform="scale(0.015625)"/>
       <path id="ArialMT-75" d="M 2597 0 
L 2597 488 
Q 2209 -75 1544 -75 
Q 1250 -75 995 37 
Q 741 150 617 320 
Q 494 491 444 738 
Q 409 903 409 1263 
L 409 3319 
L 972 3319 
L 972 1478 
Q 972 1038 1006 884 
Q 1059 663 1231 536 
Q 1403 409 1656 409 
Q 1909 409 2131 539 
Q 2353 669 2445 892 
Q 2538 1116 2538 1541 
L 2538 3319 
L 3100 3319 
L 3100 0 
L 2597 0 
z
" transform="scale(0.015625)"/>
       <path id="ArialMT-6d" d="M 422 0 
L 422 3319 
L 925 3319 
L 925 2853 
Q 1081 3097 1340 3245 
Q 1600 3394 1931 3394 
Q 2300 3394 2536 3241 
Q 2772 3088 2869 2813 
Q 3263 3394 3894 3394 
Q 4388 3394 4653 3120 
Q 4919 2847 4919 2278 
L 4919 0 
L 4359 0 
L 4359 2091 
Q 4359 2428 4304 2576 
Q 4250 2725 4106 2815 
Q 3963 2906 3769 2906 
Q 3419 2906 3187 2673 
Q 2956 2441 2956 1928 
L 2956 0 
L 2394 0 
L 2394 2156 
Q 2394 2531 2256 2718 
Q 2119 2906 1806 2906 
Q 1569 2906 1367 2781 
Q 1166 2656 1075 2415 
Q 984 2175 984 1722 
L 984 0 
L 422 0 
z
" transform="scale(0.015625)"/>
       <path id="ArialMT-62" d="M 941 0 
L 419 0 
L 419 4581 
L 981 4581 
L 981 2947 
Q 1338 3394 1891 3394 
Q 2197 3394 2470 3270 
Q 2744 3147 2920 2923 
Q 3097 2700 3197 2384 
Q 3297 2069 3297 1709 
Q 3297 856 2875 390 
Q 2453 -75 1863 -75 
Q 1275 -75 941 416 
L 941 0 
z
M 934 1684 
Q 934 1088 1097 822 
Q 1363 388 1816 388 
Q 2184 388 2453 708 
Q 2722 1028 2722 1663 
Q 2722 2313 2464 2622 
Q 2206 2931 1841 2931 
Q 1472 2931 1203 2611 
Q 934 2291 934 1684 
z
" transform="scale(0.015625)"/>
       <path id="ArialMT-65" d="M 2694 1069 
L 3275 997 
Q 3138 488 2766 206 
Q 2394 -75 1816 -75 
Q 1088 -75 661 373 
Q 234 822 234 1631 
Q 234 2469 665 2931 
Q 1097 3394 1784 3394 
Q 2450 3394 2872 2941 
Q 3294 2488 3294 1666 
Q 3294 1616 3291 1516 
L 816 1516 
Q 847 969 1125 678 
Q 1403 388 1819 388 
Q 2128 388 2347 550 
Q 2566 713 2694 1069 
z
M 847 1978 
L 2700 1978 
Q 2663 2397 2488 2606 
Q 2219 2931 1791 2931 
Q 1403 2931 1139 2672 
Q 875 2413 847 1978 
z
" transform="scale(0.015625)"/>
       <path id="ArialMT-72" d="M 416 0 
L 416 3319 
L 922 3319 
L 922 2816 
Q 1116 3169 1280 3281 
Q 1444 3394 1641 3394 
Q 1925 3394 2219 3213 
L 2025 2691 
Q 1819 2813 1613 2813 
Q 1428 2813 1281 2702 
Q 1134 2591 1072 2394 
Q 978 2094 978 1738 
L 978 0 
L 416 0 
z
" transform="scale(0.015625)"/>
       <path id="ArialMT-20" transform="scale(0.015625)"/>
       <path id="ArialMT-66" d="M 556 0 
L 556 2881 
L 59 2881 
L 59 3319 
L 556 3319 
L 556 3672 
Q 556 4006 616 4169 
Q 697 4388 901 4523 
Q 1106 4659 1475 4659 
Q 1713 4659 2000 4603 
L 1916 4113 
Q 1741 4144 1584 4144 
Q 1328 4144 1222 4034 
Q 1116 3925 1116 3625 
L 1116 3319 
L 1763 3319 
L 1763 2881 
L 1116 2881 
L 1116 0 
L 556 0 
z
" transform="scale(0.015625)"/>
       <path id="ArialMT-70" d="M 422 -1272 
L 422 3319 
L 934 3319 
L 934 2888 
Q 1116 3141 1344 3267 
Q 1572 3394 1897 3394 
Q 2322 3394 2647 3175 
Q 2972 2956 3137 2557 
Q 3303 2159 3303 1684 
Q 3303 1175 3120 767 
Q 2938 359 2589 142 
Q 2241 -75 1856 -75 
Q 1575 -75 1351 44 
Q 1128 163 984 344 
L 984 -1272 
L 422 -1272 
z
M 931 1641 
Q 931 1000 1190 694 
Q 1450 388 1819 388 
Q 2194 388 2461 705 
Q 2728 1022 2728 1688 
Q 2728 2322 2467 2637 
Q 2206 2953 1844 2953 
Q 1484 2953 1207 2617 
Q 931 2281 931 1641 
z
" transform="scale(0.015625)"/>
       <path id="ArialMT-6c" d="M 409 0 
L 409 4581 
L 972 4581 
L 972 0 
L 409 0 
z
" transform="scale(0.015625)"/>
      </defs>
      <use xlink:href="#ArialMT-4e"/>
      <use xlink:href="#ArialMT-75" x="72.216797"/>
      <use xlink:href="#ArialMT-6d" x="127.832031"/>
      <use xlink:href="#ArialMT-62" x="211.132812"/>
      <use xlink:href="#ArialMT-65" x="266.748047"/>
      <use xlink:href="#ArialMT-72" x="322.363281"/>
      <use xlink:href="#ArialMT-20" x="355.664062"/>
      <use xlink:href="#ArialMT-6f" x="383.447266"/>
      <use xlink:href="#ArialMT-66" x="439.0625"/>
      <use xlink:href="#ArialMT-20" x="466.845703"/>
      <use xlink:href="#ArialMT-70" x="494.628906"/>
      <use xlink:href="#ArialMT-65" x="550.244141"/>
      <use xlink:href="#ArialMT-6f" x="605.859375"/>
      <use xlink:href="#ArialMT-70" x="661.474609"/>
      <use xlink:href="#ArialMT-6c" x="717.089844"/>
      <use xlink:href="#ArialMT-65" x="739.306641"/>
     </g>
    </g>
   </g>
   <g id="PolyCollection_1">
    <defs>
     <path id="me97ca8394f" d="M 975.900038 -165.103974 
L 975.900038 -154.932495 
L 978.444016 -320.766548 
L 981.072793 -328.21054 
L 983.70157 -136.364049 
L 986.160749 -83.469504 
L 988.789526 -88.986964 
L 991.333503 -108.462245 
L 993.962281 -135.98089 
L 996.506258 -163.172045 
L 999.135035 -167.674347 
L 1001.763813 -159.297575 
L 1004.30779 -111.455837 
L 1006.936567 -152.825913 
L 1009.480545 -318.659966 
L 1012.109322 -326.103958 
L 1014.738099 -134.257466 
L 1017.112479 -81.362921 
L 1019.741256 -86.880382 
L 1022.285234 -106.355663 
L 1024.914011 -133.874308 
L 1027.457989 -161.065463 
L 1030.086766 -165.567764 
L 1032.715543 -157.190993 
L 1035.259521 -109.349255 
L 1035.259521 -123.733898 
L 1035.259521 -123.733898 
L 1032.715543 -171.575636 
L 1030.086766 -179.952408 
L 1027.457989 -175.450107 
L 1024.914011 -148.258951 
L 1022.285234 -120.740306 
L 1019.741256 -101.265025 
L 1017.112479 -95.747565 
L 1014.738099 -148.64211 
L 1012.109322 -340.488601 
L 1009.480545 -333.044609 
L 1006.936567 -167.210557 
L 1004.30779 -121.627316 
L 1001.763813 -169.469054 
L 999.135035 -177.845826 
L 996.506258 -173.343524 
L 993.962281 -146.152369 
L 991.333503 -118.633724 
L 988.789526 -99.158443 
L 986.160749 -93.640982 
L 983.70157 -146.535527 
L 981.072793 -338.382019 
L 978.444016 -330.938027 
L 975.900038 -165.103974 
z
" style="stroke: #e64173; stroke-opacity: 0.2; stroke-width: 0.5"/>
    </defs>
    <g clip-path="url(#pa55bbc0de1)">
     <use xlink:href="#me97ca8394f" x="0" y="440.39952" style="fill: #e64173; fill-opacity: 0.2; stroke: #e64173; stroke-opacity: 0.2; stroke-width: 0.5"/>
    </g>
   </g>
   <g id="PolyCollection_2">
    <defs>
     <path id="ma51409bbe1" d="M 975.900038 -167.796202 
L 975.900038 -152.240268 
L 978.444016 -318.074321 
L 981.072793 -325.518312 
L 983.70157 -133.671821 
L 986.160749 -80.777276 
L 988.789526 -86.294736 
L 991.333503 -105.770017 
L 993.962281 -133.288662 
L 996.506258 -160.479818 
L 999.135035 -164.982119 
L 1001.763813 -156.605347 
L 1004.30779 -108.763609 
L 1006.936567 -149.018528 
L 1009.480545 -314.852581 
L 1012.109322 -322.296573 
L 1014.738099 -130.450081 
L 1017.112479 -77.555536 
L 1019.741256 -83.072996 
L 1022.285234 -102.548277 
L 1024.914011 -130.066923 
L 1027.457989 -157.258078 
L 1030.086766 -161.760379 
L 1032.715543 -153.383608 
L 1035.259521 -105.54187 
L 1035.259521 -127.541283 
L 1035.259521 -127.541283 
L 1032.715543 -175.383022 
L 1030.086766 -183.759793 
L 1027.457989 -179.257492 
L 1024.914011 -152.066336 
L 1022.285234 -124.547691 
L 1019.741256 -105.07241 
L 1017.112479 -99.55495 
L 1014.738099 -152.449495 
L 1012.109322 -344.295987 
L 1009.480545 -336.851995 
L 1006.936567 -171.017942 
L 1004.30779 -124.319544 
L 1001.763813 -172.161282 
L 999.135035 -180.538053 
L 996.506258 -176.035752 
L 993.962281 -148.844597 
L 991.333503 -121.325952 
L 988.789526 -101.850671 
L 986.160749 -96.33321 
L 983.70157 -149.227755 
L 981.072793 -341.074247 
L 978.444016 -333.630255 
L 975.900038 -167.796202 
z
" style="stroke: #e64173; stroke-opacity: 0.05; stroke-width: 0.5"/>
    </defs>
    <g clip-path="url(#pa55bbc0de1)">
     <use xlink:href="#ma51409bbe1" x="0" y="440.39952" style="fill: #e64173; fill-opacity: 0.05; stroke: #e64173; stroke-opacity: 0.05; stroke-width: 0.5"/>
    </g>
   </g>
   <g id="line2d_14">
    <path d="M 116.459531 271.494132 
L 118.918709 336.523651 
L 121.547486 355.65808 
L 124.091464 329.123512 
L 126.720241 299.4262 
L 129.264219 272.958553 
L 131.892996 278.435562 
L 134.521773 277.643219 
L 137.065751 288.400926 
L 139.694528 258.642083 
L 142.238506 180.126813 
L 144.867283 92.76563 
L 147.49606 280.70837 
L 149.870439 346.492059 
L 152.499217 359.063575 
L 155.043194 333.943235 
L 157.671971 302.584647 
L 160.215949 274.799969 
L 162.844726 278.222567 
L 165.473503 275.974843 
L 168.017481 286.551306 
L 170.646258 253.721728 
L 173.190236 167.364878 
L 175.819013 82.286447 
L 178.44779 288.942125 
L 180.82217 355.785234 
L 183.450947 362.700164 
L 185.994925 339.050057 
L 188.623702 305.690084 
L 191.167679 276.714159 
L 193.796457 278.205204 
L 196.425234 274.700277 
L 198.969211 285.342016 
L 201.597988 249.096487 
L 204.141966 154.621509 
L 206.770743 71.454861 
L 209.39952 297.678006 
L 211.7739 365.202628 
L 214.402677 366.087727 
L 216.946655 343.926295 
L 219.575432 308.695214 
L 222.11941 278.784543 
L 224.748187 278.867543 
L 227.376964 274.296462 
L 229.920942 284.836554 
L 232.549719 244.835561 
L 235.093696 142.432416 
L 237.722474 61.445928 
L 240.351251 298.498671 
L 242.810429 370.748912 
L 245.439206 369.593232 
L 247.983184 347.678794 
L 250.611961 309.879755 
L 253.155939 280.712796 
L 255.784716 281.124468 
L 258.413493 277.295104 
L 260.957471 289.88925 
L 263.586248 245.526479 
L 266.130226 132.51043 
L 268.759003 51.724422 
L 271.38778 295.968398 
L 273.762159 370.920337 
L 276.390936 373.179979 
L 278.934914 351.14306 
L 281.563691 310.297085 
L 284.107669 282.564457 
L 286.736446 281.580013 
L 289.365223 280.032263 
L 291.909201 294.868496 
L 294.537978 247.857111 
L 297.081956 131.703493 
L 299.710733 47.707933 
L 302.33951 295.949057 
L 304.71389 366.750229 
L 307.342667 372.367045 
L 309.886644 347.999816 
L 312.515421 309.697294 
L 315.059399 283.546444 
L 317.688176 281.840665 
L 320.316953 281.278593 
L 322.860931 297.4684 
L 325.489708 250.321811 
L 328.033686 134.595468 
L 330.662463 48.930804 
L 333.29124 297.595166 
L 335.66562 363.519896 
L 338.294397 368.687238 
L 340.838375 343.939117 
L 343.467152 307.666994 
L 346.011129 281.430643 
L 348.639907 282.455465 
L 351.268684 280.175762 
L 353.812661 295.809822 
L 356.441439 251.077828 
L 358.985416 135.271875 
L 361.614193 57.324997 
L 364.242971 304.415309 
L 366.702149 365.708687 
L 369.330926 365.336778 
L 371.874904 340.820736 
L 374.503681 304.81256 
L 377.047659 277.127188 
L 379.676436 282.739051 
L 382.305213 278.623925 
L 384.849191 294.634174 
L 387.477968 251.295751 
L 390.021946 133.528676 
L 392.650723 62.008689 
L 395.2795 307.493276 
L 397.653879 369.292744 
L 400.282656 364.261827 
L 402.826634 338.433716 
L 405.455411 303.740147 
L 407.999389 274.221229 
L 410.628166 283.451637 
L 413.256943 278.424623 
L 415.800921 294.275038 
L 418.429698 250.44444 
L 420.973676 131.499973 
L 423.602453 65.617526 
L 426.23123 309.636057 
L 428.605609 372.383104 
L 431.234386 362.942234 
L 433.778364 337.701742 
L 436.407141 301.436878 
L 438.951119 270.745565 
L 441.579896 283.103196 
L 444.208673 279.576225 
L 446.752651 296.120641 
L 449.381428 251.612866 
L 451.925406 132.718892 
L 454.554183 72.640962 
L 457.18296 310.3365 
L 459.55734 373.882212 
L 462.186117 360.982631 
L 464.730094 333.763576 
L 467.358872 297.394533 
L 469.902849 267.057409 
L 472.531626 281.139887 
L 475.160404 282.233959 
L 477.704381 299.907231 
L 480.333158 254.480237 
L 482.877136 135.667855 
L 485.505913 75.96125 
L 488.13469 309.284156 
L 490.593869 370.684234 
L 493.222646 356.600194 
L 495.766624 331.29166 
L 498.395401 294.608507 
L 500.939379 266.120595 
L 503.568156 283.186948 
L 506.196933 284.627361 
L 508.740911 300.765562 
L 511.369688 258.217665 
L 513.913666 137.332172 
L 516.542443 79.280681 
L 519.17122 309.097673 
L 521.545599 369.137777 
L 524.174376 349.986621 
L 526.718354 329.928165 
L 529.347131 292.553191 
L 531.891109 267.617036 
L 534.519886 283.648875 
L 537.148663 283.512012 
L 539.692641 300.279198 
L 542.321418 263.403033 
L 544.865396 137.555776 
L 547.494173 82.295302 
L 550.12295 309.310726 
L 552.497329 368.605538 
L 555.126106 342.977209 
L 557.670084 330.517593 
L 560.298861 289.81912 
L 562.842839 271.023847 
L 565.471616 281.613455 
L 568.100393 279.451741 
L 570.644371 298.430212 
L 573.273148 264.566825 
L 575.817126 142.769177 
L 578.445903 89.190462 
L 581.07468 315.682538 
L 583.449059 370.525378 
L 586.077837 333.032719 
L 588.621814 331.344167 
L 591.250591 285.647129 
L 593.794569 272.061836 
L 596.423346 273.950397 
L 599.052123 270.425283 
L 601.596101 296.448831 
L 604.224878 263.078499 
L 606.768856 149.676873 
L 609.397633 98.016542 
L 612.02641 319.15833 
L 614.485589 371.213779 
L 617.114366 338.901327 
L 619.658344 328.88852 
L 622.287121 283.340025 
L 624.831099 270.88666 
L 627.459876 270.678691 
L 630.088653 265.181791 
L 632.632631 298.382687 
L 635.261408 261.140306 
L 637.805386 155.061067 
L 640.434163 106.086383 
L 643.06294 319.699349 
L 645.437319 370.51535 
L 648.066096 340.650085 
L 650.610074 324.63344 
L 653.238851 282.852532 
L 655.782829 267.659463 
L 658.411606 266.78884 
L 661.040383 263.479451 
L 663.584361 302.488318 
L 666.213138 261.147129 
L 668.757116 156.264928 
L 671.385893 108.710899 
L 674.01467 317.126765 
L 676.389049 371.301306 
L 679.017826 344.455165 
L 681.561804 322.444598 
L 684.190581 284.895339 
L 686.734559 266.91322 
L 689.363336 266.589111 
L 691.992113 266.668363 
L 694.536091 307.87928 
L 697.164868 265.139069 
L 699.708846 148.832133 
L 702.337623 103.29745 
L 704.9664 305.188076 
L 707.340779 368.792268 
L 709.969556 349.118266 
L 712.513534 320.985155 
L 715.142311 289.788942 
L 717.686289 271.104816 
L 720.315066 270.083993 
L 722.943843 271.528005 
L 725.487821 310.955106 
L 728.116598 267.707459 
L 730.660576 137.277889 
L 733.289353 95.714523 
L 735.91813 299.663474 
L 738.377309 369.593548 
L 741.006086 355.342 
L 746.178841 295.053623 
L 748.722819 273.866534 
L 751.351596 270.087825 
L 753.980373 272.467149 
L 756.524351 310.380611 
L 759.153128 265.629529 
L 761.697105 127.464794 
L 764.325883 89.157878 
L 766.95466 297.68482 
L 769.329039 371.332585 
L 771.957816 358.686806 
L 777.130571 298.299603 
L 779.674549 274.70401 
L 782.303326 270.34624 
L 784.932103 274.629419 
L 787.476081 312.09412 
L 790.104858 263.957927 
L 792.648836 123.280683 
L 795.277613 88.010037 
L 797.90639 299.617341 
L 800.280769 371.506831 
L 802.909546 358.192154 
L 805.453524 330.54196 
L 808.082301 299.310905 
L 810.626279 272.456595 
L 813.255056 268.023525 
L 815.883833 274.884558 
L 818.427811 313.733795 
L 821.056588 262.171568 
L 823.600566 126.240838 
L 826.229343 89.518273 
L 828.85812 304.148821 
L 831.232499 369.253726 
L 833.861276 354.20589 
L 836.405254 329.06982 
L 841.578009 269.438139 
L 844.206786 265.723256 
L 846.835563 275.168697 
L 849.379541 316.245434 
L 852.008318 263.796667 
L 854.552296 130.191595 
L 857.181073 92.66261 
L 859.80985 308.153592 
L 862.269029 363.98217 
L 864.897806 349.569239 
L 867.441784 327.084263 
L 870.070561 296.476161 
L 872.614538 268.468431 
L 875.243316 265.790577 
L 877.872093 275.685407 
L 880.41607 319.625418 
L 883.044848 269.725096 
L 885.588825 125.965483 
L 888.217602 98.581649 
L 890.84638 305.083063 
L 893.220759 360.163655 
L 895.849536 348.173412 
L 898.393514 326.77751 
L 901.022291 296.863314 
L 903.566269 269.438385 
L 906.195046 266.241538 
L 908.823823 275.416285 
L 911.367801 320.998347 
L 913.996578 274.982541 
L 916.540556 120.828697 
L 919.169333 102.959826 
L 921.79811 302.202081 
L 924.172489 355.858671 
L 926.801266 347.026763 
L 929.345244 326.752295 
L 934.517999 270.733054 
L 937.146776 266.939841 
L 939.775553 275.665446 
L 942.319531 322.370481 
L 944.948308 280.381285 
L 947.492286 114.547232 
L 950.121063 107.10324 
L 952.74984 298.949732 
L 955.124219 351.844277 
L 957.752996 346.326817 
L 960.296974 326.851536 
L 965.469729 272.141735 
L 968.098506 267.639434 
L 970.727283 276.016205 
L 973.271261 323.857944 
L 973.271261 323.857944 
" clip-path="url(#pa55bbc0de1)" style="fill: none; stroke: #314f4f; stroke-width: 1.5; stroke-linecap: round"/>
   </g>
   <g id="line2d_15">
    <path d="M 975.900038 280.381285 
L 978.444016 114.547232 
L 981.072793 107.10324 
L 983.70157 298.949732 
L 986.160749 351.844277 
L 988.789526 346.326817 
L 991.333503 326.851536 
L 996.506258 272.141735 
L 999.135035 267.639434 
L 1001.763813 276.016205 
L 1004.30779 323.857944 
L 1006.936567 280.381285 
L 1009.480545 114.547232 
L 1012.109322 107.10324 
L 1014.738099 298.949732 
L 1017.112479 351.844277 
L 1019.741256 346.326817 
L 1022.285234 326.851536 
L 1027.457989 272.141735 
L 1030.086766 267.639434 
L 1032.715543 276.016205 
L 1035.259521 323.857944 
L 1035.259521 323.857944 
" clip-path="url(#pa55bbc0de1)" style="fill: none; stroke: #e64173; stroke-width: 1.5; stroke-linecap: round"/>
   </g>
   <g id="patch_3">
    <path d="M 70.519531 390.190926 
L 70.519531 31.399219 
" style="fill: none; stroke: #ffffff; stroke-linejoin: miter; stroke-linecap: square"/>
   </g>
   <g id="patch_4">
    <path d="M 1081.19952 390.190926 
L 1081.19952 31.399219 
" style="fill: none; stroke: #ffffff; stroke-linejoin: miter; stroke-linecap: square"/>
   </g>
   <g id="patch_5">
    <path d="M 70.519531 390.190926 
L 1081.19952 390.190926 
" style="fill: none; stroke: #ffffff; stroke-linejoin: miter; stroke-linecap: square"/>
   </g>
   <g id="patch_6">
    <path d="M 70.519531 31.399219 
L 1081.19952 31.399219 
" style="fill: none; stroke: #ffffff; stroke-linejoin: miter; stroke-linecap: square"/>
   </g>
   <g id="text_16">
    <!-- US retail employment -->
    <g style="fill: #262626" transform="translate(456.377104 25.399219) scale(0.25 -0.25)">
     <defs>
      <path id="ArialMT-55" d="M 3500 4581 
L 4106 4581 
L 4106 1934 
Q 4106 1244 3950 837 
Q 3794 431 3386 176 
Q 2978 -78 2316 -78 
Q 1672 -78 1262 144 
Q 853 366 678 786 
Q 503 1206 503 1934 
L 503 4581 
L 1109 4581 
L 1109 1938 
Q 1109 1341 1220 1058 
Q 1331 775 1601 622 
Q 1872 469 2263 469 
Q 2931 469 3215 772 
Q 3500 1075 3500 1938 
L 3500 4581 
z
" transform="scale(0.015625)"/>
      <path id="ArialMT-53" d="M 288 1472 
L 859 1522 
Q 900 1178 1048 958 
Q 1197 738 1509 602 
Q 1822 466 2213 466 
Q 2559 466 2825 569 
Q 3091 672 3220 851 
Q 3350 1031 3350 1244 
Q 3350 1459 3225 1620 
Q 3100 1781 2813 1891 
Q 2628 1963 1997 2114 
Q 1366 2266 1113 2400 
Q 784 2572 623 2826 
Q 463 3081 463 3397 
Q 463 3744 659 4045 
Q 856 4347 1234 4503 
Q 1613 4659 2075 4659 
Q 2584 4659 2973 4495 
Q 3363 4331 3572 4012 
Q 3781 3694 3797 3291 
L 3216 3247 
Q 3169 3681 2898 3903 
Q 2628 4125 2100 4125 
Q 1550 4125 1298 3923 
Q 1047 3722 1047 3438 
Q 1047 3191 1225 3031 
Q 1400 2872 2139 2705 
Q 2878 2538 3153 2413 
Q 3553 2228 3743 1945 
Q 3934 1663 3934 1294 
Q 3934 928 3725 604 
Q 3516 281 3123 101 
Q 2731 -78 2241 -78 
Q 1619 -78 1198 103 
Q 778 284 539 648 
Q 300 1013 288 1472 
z
" transform="scale(0.015625)"/>
      <path id="ArialMT-61" d="M 2588 409 
Q 2275 144 1986 34 
Q 1697 -75 1366 -75 
Q 819 -75 525 192 
Q 231 459 231 875 
Q 231 1119 342 1320 
Q 453 1522 633 1644 
Q 813 1766 1038 1828 
Q 1203 1872 1538 1913 
Q 2219 1994 2541 2106 
Q 2544 2222 2544 2253 
Q 2544 2597 2384 2738 
Q 2169 2928 1744 2928 
Q 1347 2928 1158 2789 
Q 969 2650 878 2297 
L 328 2372 
Q 403 2725 575 2942 
Q 747 3159 1072 3276 
Q 1397 3394 1825 3394 
Q 2250 3394 2515 3294 
Q 2781 3194 2906 3042 
Q 3031 2891 3081 2659 
Q 3109 2516 3109 2141 
L 3109 1391 
Q 3109 606 3145 398 
Q 3181 191 3288 0 
L 2700 0 
Q 2613 175 2588 409 
z
M 2541 1666 
Q 2234 1541 1622 1453 
Q 1275 1403 1131 1340 
Q 988 1278 909 1158 
Q 831 1038 831 891 
Q 831 666 1001 516 
Q 1172 366 1500 366 
Q 1825 366 2078 508 
Q 2331 650 2450 897 
Q 2541 1088 2541 1459 
L 2541 1666 
z
" transform="scale(0.015625)"/>
      <path id="ArialMT-69" d="M 425 3934 
L 425 4581 
L 988 4581 
L 988 3934 
L 425 3934 
z
M 425 0 
L 425 3319 
L 988 3319 
L 988 0 
L 425 0 
z
" transform="scale(0.015625)"/>
      <path id="ArialMT-79" d="M 397 -1278 
L 334 -750 
Q 519 -800 656 -800 
Q 844 -800 956 -737 
Q 1069 -675 1141 -563 
Q 1194 -478 1313 -144 
Q 1328 -97 1363 -6 
L 103 3319 
L 709 3319 
L 1400 1397 
Q 1534 1031 1641 628 
Q 1738 1016 1872 1384 
L 2581 3319 
L 3144 3319 
L 1881 -56 
Q 1678 -603 1566 -809 
Q 1416 -1088 1222 -1217 
Q 1028 -1347 759 -1347 
Q 597 -1347 397 -1278 
z
" transform="scale(0.015625)"/>
     </defs>
     <use xlink:href="#ArialMT-55"/>
     <use xlink:href="#ArialMT-53" x="72.216797"/>
     <use xlink:href="#ArialMT-20" x="138.916016"/>
     <use xlink:href="#ArialMT-72" x="166.699219"/>
     <use xlink:href="#ArialMT-65" x="200"/>
     <use xlink:href="#ArialMT-74" x="255.615234"/>
     <use xlink:href="#ArialMT-61" x="283.398438"/>
     <use xlink:href="#ArialMT-69" x="339.013672"/>
     <use xlink:href="#ArialMT-6c" x="361.230469"/>
     <use xlink:href="#ArialMT-20" x="383.447266"/>
     <use xlink:href="#ArialMT-65" x="411.230469"/>
     <use xlink:href="#ArialMT-6d" x="466.845703"/>
     <use xlink:href="#ArialMT-70" x="550.146484"/>
     <use xlink:href="#ArialMT-6c" x="605.761719"/>
     <use xlink:href="#ArialMT-6f" x="627.978516"/>
     <use xlink:href="#ArialMT-79" x="683.59375"/>
     <use xlink:href="#ArialMT-6d" x="733.59375"/>
     <use xlink:href="#ArialMT-65" x="816.894531"/>
     <use xlink:href="#ArialMT-6e" x="872.509766"/>
     <use xlink:href="#ArialMT-74" x="928.125"/>
    </g>
   </g>
  </g>
  <g id="legend_1">
   <g id="line2d_16">
    <path d="M 951.835073 15.591791 
L 960.835073 15.591791 
L 969.835073 15.591791 
" style="fill: none; stroke: #314f4f; stroke-width: 1.5; stroke-linecap: round"/>
   </g>
   <g id="text_17">
    <!-- seasonal -->
    <g style="fill: #262626" transform="translate(977.035073 18.741791) scale(0.09 -0.09)">
     <defs>
      <path id="ArialMT-73" d="M 197 991 
L 753 1078 
Q 800 744 1014 566 
Q 1228 388 1613 388 
Q 2000 388 2187 545 
Q 2375 703 2375 916 
Q 2375 1106 2209 1216 
Q 2094 1291 1634 1406 
Q 1016 1563 777 1677 
Q 538 1791 414 1992 
Q 291 2194 291 2438 
Q 291 2659 392 2848 
Q 494 3038 669 3163 
Q 800 3259 1026 3326 
Q 1253 3394 1513 3394 
Q 1903 3394 2198 3281 
Q 2494 3169 2634 2976 
Q 2775 2784 2828 2463 
L 2278 2388 
Q 2241 2644 2061 2787 
Q 1881 2931 1553 2931 
Q 1166 2931 1000 2803 
Q 834 2675 834 2503 
Q 834 2394 903 2306 
Q 972 2216 1119 2156 
Q 1203 2125 1616 2013 
Q 2213 1853 2448 1751 
Q 2684 1650 2818 1456 
Q 2953 1263 2953 975 
Q 2953 694 2789 445 
Q 2625 197 2315 61 
Q 2006 -75 1616 -75 
Q 969 -75 630 194 
Q 291 463 197 991 
z
" transform="scale(0.015625)"/>
     </defs>
     <use xlink:href="#ArialMT-73"/>
     <use xlink:href="#ArialMT-65" x="50"/>
     <use xlink:href="#ArialMT-61" x="105.615234"/>
     <use xlink:href="#ArialMT-73" x="161.230469"/>
     <use xlink:href="#ArialMT-6f" x="211.230469"/>
     <use xlink:href="#ArialMT-6e" x="266.845703"/>
     <use xlink:href="#ArialMT-61" x="322.460938"/>
     <use xlink:href="#ArialMT-6c" x="378.076172"/>
    </g>
   </g>
   <g id="line2d_17">
    <path d="M 951.835073 28.322572 
L 960.835073 28.322572 
L 969.835073 28.322572 
" style="fill: none; stroke: #e64173; stroke-width: 1.5; stroke-linecap: round"/>
   </g>
   <g id="text_18">
    <!-- SeasonalNaive -->
    <g style="fill: #262626" transform="translate(977.035073 31.472572) scale(0.09 -0.09)">
     <defs>
      <path id="ArialMT-76" d="M 1344 0 
L 81 3319 
L 675 3319 
L 1388 1331 
Q 1503 1009 1600 663 
Q 1675 925 1809 1294 
L 2547 3319 
L 3125 3319 
L 1869 0 
L 1344 0 
z
" transform="scale(0.015625)"/>
     </defs>
     <use xlink:href="#ArialMT-53"/>
     <use xlink:href="#ArialMT-65" x="66.699219"/>
     <use xlink:href="#ArialMT-61" x="122.314453"/>
     <use xlink:href="#ArialMT-73" x="177.929688"/>
     <use xlink:href="#ArialMT-6f" x="227.929688"/>
     <use xlink:href="#ArialMT-6e" x="283.544922"/>
     <use xlink:href="#ArialMT-61" x="339.160156"/>
     <use xlink:href="#ArialMT-6c" x="394.775391"/>
     <use xlink:href="#ArialMT-4e" x="416.992188"/>
     <use xlink:href="#ArialMT-61" x="489.208984"/>
     <use xlink:href="#ArialMT-69" x="544.824219"/>
     <use xlink:href="#ArialMT-76" x="567.041016"/>
     <use xlink:href="#ArialMT-65" x="617.041016"/>
    </g>
   </g>
   <g id="patch_7">
    <path d="M 951.835073 44.313041 
L 969.835073 44.313041 
L 969.835073 38.013041 
L 951.835073 38.013041 
z
" style="fill: #e64173; fill-opacity: 0.2; stroke: #e64173; stroke-opacity: 0.2; stroke-width: 0.5; stroke-linejoin: miter"/>
   </g>
   <g id="text_19">
    <!-- SeasonalNaive_level_80 -->
    <g style="fill: #262626" transform="translate(977.035073 44.313041) scale(0.09 -0.09)">
     <defs>
      <path id="ArialMT-5f" d="M -97 -1272 
L -97 -866 
L 3631 -866 
L 3631 -1272 
L -97 -1272 
z
" transform="scale(0.015625)"/>
     </defs>
     <use xlink:href="#ArialMT-53"/>
     <use xlink:href="#ArialMT-65" x="66.699219"/>
     <use xlink:href="#ArialMT-61" x="122.314453"/>
     <use xlink:href="#ArialMT-73" x="177.929688"/>
     <use xlink:href="#ArialMT-6f" x="227.929688"/>
     <use xlink:href="#ArialMT-6e" x="283.544922"/>
     <use xlink:href="#ArialMT-61" x="339.160156"/>
     <use xlink:href="#ArialMT-6c" x="394.775391"/>
     <use xlink:href="#ArialMT-4e" x="416.992188"/>
     <use xlink:href="#ArialMT-61" x="489.208984"/>
     <use xlink:href="#ArialMT-69" x="544.824219"/>
     <use xlink:href="#ArialMT-76" x="567.041016"/>
     <use xlink:href="#ArialMT-65" x="617.041016"/>
     <use xlink:href="#ArialMT-5f" x="672.65625"/>
     <use xlink:href="#ArialMT-6c" x="728.271484"/>
     <use xlink:href="#ArialMT-65" x="750.488281"/>
     <use xlink:href="#ArialMT-76" x="806.103516"/>
     <use xlink:href="#ArialMT-65" x="856.103516"/>
     <use xlink:href="#ArialMT-6c" x="911.71875"/>
     <use xlink:href="#ArialMT-5f" x="933.935547"/>
     <use xlink:href="#ArialMT-38" x="989.550781"/>
     <use xlink:href="#ArialMT-30" x="1045.166016"/>
    </g>
   </g>
   <g id="patch_8">
    <path d="M 951.835073 57.15351 
L 969.835073 57.15351 
L 969.835073 50.85351 
L 951.835073 50.85351 
z
" style="fill: #e64173; fill-opacity: 0.05; stroke: #e64173; stroke-opacity: 0.05; stroke-width: 0.5; stroke-linejoin: miter"/>
   </g>
   <g id="text_20">
    <!-- SeasonalNaive_level_95 -->
    <g style="fill: #262626" transform="translate(977.035073 57.15351) scale(0.09 -0.09)">
     <defs>
      <path id="ArialMT-35" d="M 266 1200 
L 856 1250 
Q 922 819 1161 601 
Q 1400 384 1738 384 
Q 2144 384 2425 690 
Q 2706 997 2706 1503 
Q 2706 1984 2436 2262 
Q 2166 2541 1728 2541 
Q 1456 2541 1237 2417 
Q 1019 2294 894 2097 
L 366 2166 
L 809 4519 
L 3088 4519 
L 3088 3981 
L 1259 3981 
L 1013 2750 
Q 1425 3038 1878 3038 
Q 2478 3038 2890 2622 
Q 3303 2206 3303 1553 
Q 3303 931 2941 478 
Q 2500 -78 1738 -78 
Q 1113 -78 717 272 
Q 322 622 266 1200 
z
" transform="scale(0.015625)"/>
     </defs>
     <use xlink:href="#ArialMT-53"/>
     <use xlink:href="#ArialMT-65" x="66.699219"/>
     <use xlink:href="#ArialMT-61" x="122.314453"/>
     <use xlink:href="#ArialMT-73" x="177.929688"/>
     <use xlink:href="#ArialMT-6f" x="227.929688"/>
     <use xlink:href="#ArialMT-6e" x="283.544922"/>
     <use xlink:href="#ArialMT-61" x="339.160156"/>
     <use xlink:href="#ArialMT-6c" x="394.775391"/>
     <use xlink:href="#ArialMT-4e" x="416.992188"/>
     <use xlink:href="#ArialMT-61" x="489.208984"/>
     <use xlink:href="#ArialMT-69" x="544.824219"/>
     <use xlink:href="#ArialMT-76" x="567.041016"/>
     <use xlink:href="#ArialMT-65" x="617.041016"/>
     <use xlink:href="#ArialMT-5f" x="672.65625"/>
     <use xlink:href="#ArialMT-6c" x="728.271484"/>
     <use xlink:href="#ArialMT-65" x="750.488281"/>
     <use xlink:href="#ArialMT-76" x="806.103516"/>
     <use xlink:href="#ArialMT-65" x="856.103516"/>
     <use xlink:href="#ArialMT-6c" x="911.71875"/>
     <use xlink:href="#ArialMT-5f" x="933.935547"/>
     <use xlink:href="#ArialMT-39" x="989.550781"/>
     <use xlink:href="#ArialMT-35" x="1045.166016"/>
    </g>
   </g>
  </g>
 </g>
 <defs>
  <clipPath id="pa55bbc0de1">
   <rect x="70.519531" y="31.399219" width="1010.679989" height="358.791708"/>
  </clipPath>
 </defs>
</svg>
