<?xml version="1.0" encoding="utf-8" standalone="no"?>
<!DOCTYPE svg PUBLIC "-//W3C//DTD SVG 1.1//EN"
  "http://www.w3.org/Graphics/SVG/1.1/DTD/svg11.dtd">
<svg xmlns:xlink="http://www.w3.org/1999/xlink" width="1088.39952pt" height="440.39952pt" viewBox="0 0 1088.39952 440.39952" xmlns="http://www.w3.org/2000/svg" version="1.1">
 <metadata>
  <rdf:RDF xmlns:dc="http://purl.org/dc/elements/1.1/" xmlns:cc="http://creativecommons.org/ns#" xmlns:rdf="http://www.w3.org/1999/02/22-rdf-syntax-ns#">
   <cc:Work>
    <dc:type rdf:resource="http://purl.org/dc/dcmitype/StillImage"/>
    <dc:date>2025-11-02T16:32:40.482632</dc:date>
    <dc:format>image/svg+xml</dc:format>
    <dc:creator>
     <cc:Agent>
      <dc:title>Matplotlib v3.7.2, https://matplotlib.org/</dc:title>
     </cc:Agent>
    </dc:creator>
   </cc:Work>
  </rdf:RDF>
 </metadata>
 <defs>
  <style type="text/css">*{stroke-linejoin: round; stroke-linecap: butt}</style>
 </defs>
 <g id="figure_1">
  <g id="patch_1">
   <path d="M 0 440.39952 
L 1088.39952 440.39952 
L 1088.39952 0 
L 0 0 
z
" style="fill: #ffffff"/>
  </g>
  <g id="axes_1">
   <g id="patch_2">
    <path d="M 61.514844 389.956551 
L 1081.19952 389.956551 
L 1081.19952 31.399219 
L 61.514844 31.399219 
z
" style="fill: #e5e5e5"/>
   </g>
   <g id="matplotlib.axis_1">
    <g id="xtick_1">
     <g id="line2d_1">
      <path d="M 107.864147 389.956551 
L 107.864147 31.399219 
" clip-path="url(#p4b081ad165)" style="fill: none; stroke: #ffffff; stroke-width: 0.8; stroke-linecap: round"/>
     </g>
     <g id="text_1">
      <!-- 0 -->
      <g style="fill: #555555" transform="translate(103.693444 407.69327) scale(0.15 -0.15)">
       <defs>
        <path id="ArialMT-30" d="M 266 2259 
Q 266 3072 433 3567 
Q 600 4063 929 4331 
Q 1259 4600 1759 4600 
Q 2128 4600 2406 4451 
Q 2684 4303 2865 4023 
Q 3047 3744 3150 3342 
Q 3253 2941 3253 2259 
Q 3253 1453 3087 958 
Q 2922 463 2592 192 
Q 2263 -78 1759 -78 
Q 1097 -78 719 397 
Q 266 969 266 2259 
z
M 844 2259 
Q 844 1131 1108 757 
Q 1372 384 1759 384 
Q 2147 384 2411 759 
Q 2675 1134 2675 2259 
Q 2675 3391 2411 3762 
Q 2147 4134 1753 4134 
Q 1366 4134 1134 3806 
Q 844 3388 844 2259 
z
" transform="scale(0.015625)"/>
       </defs>
       <use xlink:href="#ArialMT-30"/>
      </g>
     </g>
    </g>
    <g id="xtick_2">
     <g id="line2d_2">
      <path d="M 279.528234 389.956551 
L 279.528234 31.399219 
" clip-path="url(#p4b081ad165)" style="fill: none; stroke: #ffffff; stroke-width: 0.8; stroke-linecap: round"/>
     </g>
     <g id="text_2">
      <!-- 50 -->
      <g style="fill: #555555" transform="translate(271.186828 407.69327) scale(0.15 -0.15)">
       <defs>
        <path id="ArialMT-35" d="M 266 1200 
L 856 1250 
Q 922 819 1161 601 
Q 1400 384 1738 384 
Q 2144 384 2425 690 
Q 2706 997 2706 1503 
Q 2706 1984 2436 2262 
Q 2166 2541 1728 2541 
Q 1456 2541 1237 2417 
Q 1019 2294 894 2097 
L 366 2166 
L 809 4519 
L 3088 4519 
L 3088 3981 
L 1259 3981 
L 1013 2750 
Q 1425 3038 1878 3038 
Q 2478 3038 2890 2622 
Q 3303 2206 3303 1553 
Q 3303 931 2941 478 
Q 2500 -78 1738 -78 
Q 1113 -78 717 272 
Q 322 622 266 1200 
z
" transform="scale(0.015625)"/>
       </defs>
       <use xlink:href="#ArialMT-35"/>
       <use xlink:href="#ArialMT-30" x="55.615234"/>
      </g>
     </g>
    </g>
    <g id="xtick_3">
     <g id="line2d_3">
      <path d="M 451.192321 389.956551 
L 451.192321 31.399219 
" clip-path="url(#p4b081ad165)" style="fill: none; stroke: #ffffff; stroke-width: 0.8; stroke-linecap: round"/>
     </g>
     <g id="text_3">
      <!-- 100 -->
      <g style="fill: #555555" transform="translate(438.680212 407.69327) scale(0.15 -0.15)">
       <defs>
        <path id="ArialMT-31" d="M 2384 0 
L 1822 0 
L 1822 3584 
Q 1619 3391 1289 3197 
Q 959 3003 697 2906 
L 697 3450 
Q 1169 3672 1522 3987 
Q 1875 4303 2022 4600 
L 2384 4600 
L 2384 0 
z
" transform="scale(0.015625)"/>
       </defs>
       <use xlink:href="#ArialMT-31"/>
       <use xlink:href="#ArialMT-30" x="55.615234"/>
       <use xlink:href="#ArialMT-30" x="111.230469"/>
      </g>
     </g>
    </g>
    <g id="xtick_4">
     <g id="line2d_4">
      <path d="M 622.856408 389.956551 
L 622.856408 31.399219 
" clip-path="url(#p4b081ad165)" style="fill: none; stroke: #ffffff; stroke-width: 0.8; stroke-linecap: round"/>
     </g>
     <g id="text_4">
      <!-- 150 -->
      <g style="fill: #555555" transform="translate(610.344299 407.69327) scale(0.15 -0.15)">
       <use xlink:href="#ArialMT-31"/>
       <use xlink:href="#ArialMT-35" x="55.615234"/>
       <use xlink:href="#ArialMT-30" x="111.230469"/>
      </g>
     </g>
    </g>
    <g id="xtick_5">
     <g id="line2d_5">
      <path d="M 794.520495 389.956551 
L 794.520495 31.399219 
" clip-path="url(#p4b081ad165)" style="fill: none; stroke: #ffffff; stroke-width: 0.8; stroke-linecap: round"/>
     </g>
     <g id="text_5">
      <!-- 200 -->
      <g style="fill: #555555" transform="translate(782.008385 407.69327) scale(0.15 -0.15)">
       <defs>
        <path id="ArialMT-32" d="M 3222 541 
L 3222 0 
L 194 0 
Q 188 203 259 391 
Q 375 700 629 1000 
Q 884 1300 1366 1694 
Q 2113 2306 2375 2664 
Q 2638 3022 2638 3341 
Q 2638 3675 2398 3904 
Q 2159 4134 1775 4134 
Q 1369 4134 1125 3890 
Q 881 3647 878 3216 
L 300 3275 
Q 359 3922 746 4261 
Q 1134 4600 1788 4600 
Q 2447 4600 2831 4234 
Q 3216 3869 3216 3328 
Q 3216 3053 3103 2787 
Q 2991 2522 2730 2228 
Q 2469 1934 1863 1422 
Q 1356 997 1212 845 
Q 1069 694 975 541 
L 3222 541 
z
" transform="scale(0.015625)"/>
       </defs>
       <use xlink:href="#ArialMT-32"/>
       <use xlink:href="#ArialMT-30" x="55.615234"/>
       <use xlink:href="#ArialMT-30" x="111.230469"/>
      </g>
     </g>
    </g>
    <g id="xtick_6">
     <g id="line2d_6">
      <path d="M 966.184582 389.956551 
L 966.184582 31.399219 
" clip-path="url(#p4b081ad165)" style="fill: none; stroke: #ffffff; stroke-width: 0.8; stroke-linecap: round"/>
     </g>
     <g id="text_6">
      <!-- 250 -->
      <g style="fill: #555555" transform="translate(953.672472 407.69327) scale(0.15 -0.15)">
       <use xlink:href="#ArialMT-32"/>
       <use xlink:href="#ArialMT-35" x="55.615234"/>
       <use xlink:href="#ArialMT-30" x="111.230469"/>
      </g>
     </g>
    </g>
    <g id="text_7">
     <!-- day -->
     <g style="fill: #555555" transform="translate(555.235307 428.990145) scale(0.2 -0.2)">
      <defs>
       <path id="ArialMT-64" d="M 2575 0 
L 2575 419 
Q 2259 -75 1647 -75 
Q 1250 -75 917 144 
Q 584 363 401 755 
Q 219 1147 219 1656 
Q 219 2153 384 2558 
Q 550 2963 881 3178 
Q 1213 3394 1622 3394 
Q 1922 3394 2156 3267 
Q 2391 3141 2538 2938 
L 2538 4581 
L 3097 4581 
L 3097 0 
L 2575 0 
z
M 797 1656 
Q 797 1019 1065 703 
Q 1334 388 1700 388 
Q 2069 388 2326 689 
Q 2584 991 2584 1609 
Q 2584 2291 2321 2609 
Q 2059 2928 1675 2928 
Q 1300 2928 1048 2622 
Q 797 2316 797 1656 
z
" transform="scale(0.015625)"/>
       <path id="ArialMT-61" d="M 2588 409 
Q 2275 144 1986 34 
Q 1697 -75 1366 -75 
Q 819 -75 525 192 
Q 231 459 231 875 
Q 231 1119 342 1320 
Q 453 1522 633 1644 
Q 813 1766 1038 1828 
Q 1203 1872 1538 1913 
Q 2219 1994 2541 2106 
Q 2544 2222 2544 2253 
Q 2544 2597 2384 2738 
Q 2169 2928 1744 2928 
Q 1347 2928 1158 2789 
Q 969 2650 878 2297 
L 328 2372 
Q 403 2725 575 2942 
Q 747 3159 1072 3276 
Q 1397 3394 1825 3394 
Q 2250 3394 2515 3294 
Q 2781 3194 2906 3042 
Q 3031 2891 3081 2659 
Q 3109 2516 3109 2141 
L 3109 1391 
Q 3109 606 3145 398 
Q 3181 191 3288 0 
L 2700 0 
Q 2613 175 2588 409 
z
M 2541 1666 
Q 2234 1541 1622 1453 
Q 1275 1403 1131 1340 
Q 988 1278 909 1158 
Q 831 1038 831 891 
Q 831 666 1001 516 
Q 1172 366 1500 366 
Q 1825 366 2078 508 
Q 2331 650 2450 897 
Q 2541 1088 2541 1459 
L 2541 1666 
z
" transform="scale(0.015625)"/>
       <path id="ArialMT-79" d="M 397 -1278 
L 334 -750 
Q 519 -800 656 -800 
Q 844 -800 956 -737 
Q 1069 -675 1141 -563 
Q 1194 -478 1313 -144 
Q 1328 -97 1363 -6 
L 103 3319 
L 709 3319 
L 1400 1397 
Q 1534 1031 1641 628 
Q 1738 1016 1872 1384 
L 2581 3319 
L 3144 3319 
L 1881 -56 
Q 1678 -603 1566 -809 
Q 1416 -1088 1222 -1217 
Q 1028 -1347 759 -1347 
Q 597 -1347 397 -1278 
z
" transform="scale(0.015625)"/>
      </defs>
      <use xlink:href="#ArialMT-64"/>
      <use xlink:href="#ArialMT-61" x="55.615234"/>
      <use xlink:href="#ArialMT-79" x="111.230469"/>
     </g>
    </g>
   </g>
   <g id="matplotlib.axis_2">
    <g id="ytick_1">
     <g id="line2d_7">
      <path d="M 61.514844 363.683292 
L 1081.19952 363.683292 
" clip-path="url(#p4b081ad165)" style="fill: none; stroke: #ffffff; stroke-width: 0.8; stroke-linecap: round"/>
     </g>
     <g id="text_8">
      <!-- 500 -->
      <g style="fill: #555555" transform="translate(29.490625 369.051652) scale(0.15 -0.15)">
       <use xlink:href="#ArialMT-35"/>
       <use xlink:href="#ArialMT-30" x="55.615234"/>
       <use xlink:href="#ArialMT-30" x="111.230469"/>
      </g>
     </g>
    </g>
    <g id="ytick_2">
     <g id="line2d_8">
      <path d="M 61.514844 314.523514 
L 1081.19952 314.523514 
" clip-path="url(#p4b081ad165)" style="fill: none; stroke: #ffffff; stroke-width: 0.8; stroke-linecap: round"/>
     </g>
     <g id="text_9">
      <!-- 550 -->
      <g style="fill: #555555" transform="translate(29.490625 319.891874) scale(0.15 -0.15)">
       <use xlink:href="#ArialMT-35"/>
       <use xlink:href="#ArialMT-35" x="55.615234"/>
       <use xlink:href="#ArialMT-30" x="111.230469"/>
      </g>
     </g>
    </g>
    <g id="ytick_3">
     <g id="line2d_9">
      <path d="M 61.514844 265.363737 
L 1081.19952 265.363737 
" clip-path="url(#p4b081ad165)" style="fill: none; stroke: #ffffff; stroke-width: 0.8; stroke-linecap: round"/>
     </g>
     <g id="text_10">
      <!-- 600 -->
      <g style="fill: #555555" transform="translate(29.490625 270.732096) scale(0.15 -0.15)">
       <defs>
        <path id="ArialMT-36" d="M 3184 3459 
L 2625 3416 
Q 2550 3747 2413 3897 
Q 2184 4138 1850 4138 
Q 1581 4138 1378 3988 
Q 1113 3794 959 3422 
Q 806 3050 800 2363 
Q 1003 2672 1297 2822 
Q 1591 2972 1913 2972 
Q 2475 2972 2870 2558 
Q 3266 2144 3266 1488 
Q 3266 1056 3080 686 
Q 2894 316 2569 119 
Q 2244 -78 1831 -78 
Q 1128 -78 684 439 
Q 241 956 241 2144 
Q 241 3472 731 4075 
Q 1159 4600 1884 4600 
Q 2425 4600 2770 4297 
Q 3116 3994 3184 3459 
z
M 888 1484 
Q 888 1194 1011 928 
Q 1134 663 1356 523 
Q 1578 384 1822 384 
Q 2178 384 2434 671 
Q 2691 959 2691 1453 
Q 2691 1928 2437 2201 
Q 2184 2475 1800 2475 
Q 1419 2475 1153 2201 
Q 888 1928 888 1484 
z
" transform="scale(0.015625)"/>
       </defs>
       <use xlink:href="#ArialMT-36"/>
       <use xlink:href="#ArialMT-30" x="55.615234"/>
       <use xlink:href="#ArialMT-30" x="111.230469"/>
      </g>
     </g>
    </g>
    <g id="ytick_4">
     <g id="line2d_10">
      <path d="M 61.514844 216.203959 
L 1081.19952 216.203959 
" clip-path="url(#p4b081ad165)" style="fill: none; stroke: #ffffff; stroke-width: 0.8; stroke-linecap: round"/>
     </g>
     <g id="text_11">
      <!-- 650 -->
      <g style="fill: #555555" transform="translate(29.490625 221.572318) scale(0.15 -0.15)">
       <use xlink:href="#ArialMT-36"/>
       <use xlink:href="#ArialMT-35" x="55.615234"/>
       <use xlink:href="#ArialMT-30" x="111.230469"/>
      </g>
     </g>
    </g>
    <g id="ytick_5">
     <g id="line2d_11">
      <path d="M 61.514844 167.044181 
L 1081.19952 167.044181 
" clip-path="url(#p4b081ad165)" style="fill: none; stroke: #ffffff; stroke-width: 0.8; stroke-linecap: round"/>
     </g>
     <g id="text_12">
      <!-- 700 -->
      <g style="fill: #555555" transform="translate(29.490625 172.41254) scale(0.15 -0.15)">
       <defs>
        <path id="ArialMT-37" d="M 303 3981 
L 303 4522 
L 3269 4522 
L 3269 4084 
Q 2831 3619 2401 2847 
Q 1972 2075 1738 1259 
Q 1569 684 1522 0 
L 944 0 
Q 953 541 1156 1306 
Q 1359 2072 1739 2783 
Q 2119 3494 2547 3981 
L 303 3981 
z
" transform="scale(0.015625)"/>
       </defs>
       <use xlink:href="#ArialMT-37"/>
       <use xlink:href="#ArialMT-30" x="55.615234"/>
       <use xlink:href="#ArialMT-30" x="111.230469"/>
      </g>
     </g>
    </g>
    <g id="ytick_6">
     <g id="line2d_12">
      <path d="M 61.514844 117.884403 
L 1081.19952 117.884403 
" clip-path="url(#p4b081ad165)" style="fill: none; stroke: #ffffff; stroke-width: 0.8; stroke-linecap: round"/>
     </g>
     <g id="text_13">
      <!-- 750 -->
      <g style="fill: #555555" transform="translate(29.490625 123.252762) scale(0.15 -0.15)">
       <use xlink:href="#ArialMT-37"/>
       <use xlink:href="#ArialMT-35" x="55.615234"/>
       <use xlink:href="#ArialMT-30" x="111.230469"/>
      </g>
     </g>
    </g>
    <g id="ytick_7">
     <g id="line2d_13">
      <path d="M 61.514844 68.724625 
L 1081.19952 68.724625 
" clip-path="url(#p4b081ad165)" style="fill: none; stroke: #ffffff; stroke-width: 0.8; stroke-linecap: round"/>
     </g>
     <g id="text_14">
      <!-- 800 -->
      <g style="fill: #555555" transform="translate(29.490625 74.092984) scale(0.15 -0.15)">
       <defs>
        <path id="ArialMT-38" d="M 1131 2484 
Q 781 2613 612 2850 
Q 444 3088 444 3419 
Q 444 3919 803 4259 
Q 1163 4600 1759 4600 
Q 2359 4600 2725 4251 
Q 3091 3903 3091 3403 
Q 3091 3084 2923 2848 
Q 2756 2613 2416 2484 
Q 2838 2347 3058 2040 
Q 3278 1734 3278 1309 
Q 3278 722 2862 322 
Q 2447 -78 1769 -78 
Q 1091 -78 675 323 
Q 259 725 259 1325 
Q 259 1772 486 2073 
Q 713 2375 1131 2484 
z
M 1019 3438 
Q 1019 3113 1228 2906 
Q 1438 2700 1772 2700 
Q 2097 2700 2305 2904 
Q 2513 3109 2513 3406 
Q 2513 3716 2298 3927 
Q 2084 4138 1766 4138 
Q 1444 4138 1231 3931 
Q 1019 3725 1019 3438 
z
M 838 1322 
Q 838 1081 952 856 
Q 1066 631 1291 507 
Q 1516 384 1775 384 
Q 2178 384 2440 643 
Q 2703 903 2703 1303 
Q 2703 1709 2433 1975 
Q 2163 2241 1756 2241 
Q 1359 2241 1098 1978 
Q 838 1716 838 1322 
z
" transform="scale(0.015625)"/>
       </defs>
       <use xlink:href="#ArialMT-38"/>
       <use xlink:href="#ArialMT-30" x="55.615234"/>
       <use xlink:href="#ArialMT-30" x="111.230469"/>
      </g>
     </g>
    </g>
    <g id="text_15">
     <!-- $US -->
     <g style="fill: #555555" transform="translate(21.515625 230.13101) rotate(-90) scale(0.2 -0.2)">
      <defs>
       <path id="ArialMT-24" d="M 1594 -659 
L 1594 -97 
Q 1172 -44 908 92 
Q 644 228 451 531 
Q 259 834 228 1272 
L 794 1378 
Q 859 925 1025 713 
Q 1263 413 1594 378 
L 1594 2169 
Q 1247 2234 884 2438 
Q 616 2588 470 2853 
Q 325 3119 325 3456 
Q 325 4056 750 4428 
Q 1034 4678 1594 4734 
L 1594 5003 
L 1925 5003 
L 1925 4734 
Q 2416 4688 2703 4447 
Q 3072 4141 3147 3606 
L 2566 3519 
Q 2516 3850 2358 4026 
Q 2200 4203 1925 4259 
L 1925 2638 
Q 2350 2531 2488 2472 
Q 2750 2356 2915 2190 
Q 3081 2025 3170 1797 
Q 3259 1569 3259 1303 
Q 3259 719 2887 328 
Q 2516 -63 1925 -91 
L 1925 -659 
L 1594 -659 
z
M 1594 4266 
Q 1266 4216 1077 4003 
Q 888 3791 888 3500 
Q 888 3213 1048 3019 
Q 1209 2825 1594 2709 
L 1594 4266 
z
M 1925 378 
Q 2253 419 2467 662 
Q 2681 906 2681 1266 
Q 2681 1572 2529 1758 
Q 2378 1944 1925 2091 
L 1925 378 
z
" transform="scale(0.015625)"/>
       <path id="ArialMT-55" d="M 3500 4581 
L 4106 4581 
L 4106 1934 
Q 4106 1244 3950 837 
Q 3794 431 3386 176 
Q 2978 -78 2316 -78 
Q 1672 -78 1262 144 
Q 853 366 678 786 
Q 503 1206 503 1934 
L 503 4581 
L 1109 4581 
L 1109 1938 
Q 1109 1341 1220 1058 
Q 1331 775 1601 622 
Q 1872 469 2263 469 
Q 2931 469 3215 772 
Q 3500 1075 3500 1938 
L 3500 4581 
z
" transform="scale(0.015625)"/>
       <path id="ArialMT-53" d="M 288 1472 
L 859 1522 
Q 900 1178 1048 958 
Q 1197 738 1509 602 
Q 1822 466 2213 466 
Q 2559 466 2825 569 
Q 3091 672 3220 851 
Q 3350 1031 3350 1244 
Q 3350 1459 3225 1620 
Q 3100 1781 2813 1891 
Q 2628 1963 1997 2114 
Q 1366 2266 1113 2400 
Q 784 2572 623 2826 
Q 463 3081 463 3397 
Q 463 3744 659 4045 
Q 856 4347 1234 4503 
Q 1613 4659 2075 4659 
Q 2584 4659 2973 4495 
Q 3363 4331 3572 4012 
Q 3781 3694 3797 3291 
L 3216 3247 
Q 3169 3681 2898 3903 
Q 2628 4125 2100 4125 
Q 1550 4125 1298 3923 
Q 1047 3722 1047 3438 
Q 1047 3191 1225 3031 
Q 1400 2872 2139 2705 
Q 2878 2538 3153 2413 
Q 3553 2228 3743 1945 
Q 3934 1663 3934 1294 
Q 3934 928 3725 604 
Q 3516 281 3123 101 
Q 2731 -78 2241 -78 
Q 1619 -78 1198 103 
Q 778 284 539 648 
Q 300 1013 288 1472 
z
" transform="scale(0.015625)"/>
      </defs>
      <use xlink:href="#ArialMT-24"/>
      <use xlink:href="#ArialMT-55" x="55.615234"/>
      <use xlink:href="#ArialMT-53" x="127.832031"/>
     </g>
    </g>
   </g>
   <g id="PolyCollection_1">
    <defs>
     <path id="m7a410bd2d5" d="M 973.051145 -345.34495 
L 973.051145 -317.146847 
L 976.484427 -311.306828 
L 979.917709 -306.825625 
L 983.35099 -303.047795 
L 986.784272 -299.71946 
L 990.217554 -296.710416 
L 993.650836 -293.943314 
L 997.084117 -291.367758 
L 1000.517399 -288.948743 
L 1003.950681 -286.660782 
L 1007.383963 -284.484634 
L 1010.817244 -282.405351 
L 1014.250526 -280.411044 
L 1017.683808 -278.492077 
L 1021.11709 -276.640506 
L 1024.550371 -274.849691 
L 1027.983653 -273.114019 
L 1031.416935 -271.428688 
L 1034.850217 -269.789557 
L 1034.850217 -392.702241 
L 1034.850217 -392.702241 
L 1031.416935 -391.06311 
L 1027.983653 -389.377778 
L 1024.550371 -387.642106 
L 1021.11709 -385.851292 
L 1017.683808 -383.99972 
L 1014.250526 -382.080753 
L 1010.817244 -380.086447 
L 1007.383963 -378.007163 
L 1003.950681 -375.831015 
L 1000.517399 -373.543054 
L 997.084117 -371.124039 
L 993.650836 -368.548483 
L 990.217554 -365.781381 
L 986.784272 -362.772337 
L 983.35099 -359.444002 
L 979.917709 -355.666173 
L 976.484427 -351.184969 
L 973.051145 -345.34495 
z
" style="stroke: #e64173; stroke-opacity: 0.2; stroke-width: 0.5"/>
    </defs>
    <g clip-path="url(#p4b081ad165)">
     <use xlink:href="#m7a410bd2d5" x="0" y="440.39952" style="fill: #e64173; fill-opacity: 0.2; stroke: #e64173; stroke-opacity: 0.2; stroke-width: 0.5"/>
    </g>
   </g>
   <g id="line2d_14">
    <path d="M 107.864147 342.1142 
L 111.297429 352.811492 
L 114.730711 364.457265 
L 118.163992 365.298178 
L 121.597274 363.753233 
L 125.030556 370.118801 
L 128.463838 373.658491 
L 131.897119 370.109019 
L 135.330401 365.523064 
L 138.763683 364.623491 
L 142.196965 358.473028 
L 145.630246 359.626861 
L 149.063528 348.734027 
L 152.49681 332.746718 
L 155.930092 327.310098 
L 159.363373 331.944931 
L 162.796655 348.157096 
L 166.229937 356.595631 
L 169.663219 355.950259 
L 173.0965 332.619618 
L 176.529782 338.525632 
L 179.963064 337.782474 
L 183.396345 344.118697 
L 186.829627 339.405671 
L 190.262909 336.061522 
L 193.696191 339.161193 
L 197.129472 330.253323 
L 200.562754 331.201773 
L 203.996036 324.396217 
L 207.429318 318.451076 
L 210.862599 324.48419 
L 214.295881 327.554516 
L 217.729163 324.452506 
L 221.162445 328.287892 
L 224.595726 335.171702 
L 228.029008 331.084455 
L 231.46229 323.477051 
L 234.895572 312.124635 
L 238.328853 309.269383 
L 241.762135 296.616501 
L 245.195417 294.367526 
L 248.628698 294.631507 
L 252.06198 292.714984 
L 255.495262 300.190367 
L 258.928544 299.051267 
L 262.361825 312.584188 
L 265.795107 316.3292 
L 269.228389 312.09529 
L 272.661671 320.103557 
L 276.094952 313.073085 
L 279.528234 316.661653 
L 282.961516 308.193833 
L 286.394798 309.670307 
L 289.828079 307.35286 
L 293.261361 308.86852 
L 296.694643 297.740959 
L 300.127925 308.892943 
L 303.561206 312.427743 
L 306.994488 319.1062 
L 310.42777 315.498069 
L 313.861052 319.438653 
L 317.294333 324.758014 
L 320.727615 331.632041 
L 324.160897 330.42441 
L 327.594178 330.17507 
L 331.02746 325.686901 
L 341.327305 328.072758 
L 344.760587 336.658016 
L 348.193869 334.563145 
L 351.627151 333.323649 
L 355.060432 342.857357 
L 358.493714 331.778705 
L 361.926996 333.155082 
L 365.360278 327.882108 
L 368.793559 320.416506 
L 372.226841 302.757153 
L 375.660123 309.243759 
L 379.093405 310.905362 
L 382.526686 315.428038 
L 385.959968 326.970744 
L 389.39325 326.420157 
L 392.826531 323.588549 
L 396.259813 333.400881 
L 399.693095 339.870324 
L 403.126377 333.499177 
L 406.559658 326.105587 
L 409.99294 328.583199 
L 413.426222 335.131315 
L 416.859504 334.561045 
L 420.292785 325.928559 
L 423.726067 330.402146 
L 427.159349 331.926088 
L 430.592631 326.951121 
L 434.025912 325.073183 
L 437.459194 321.887639 
L 440.892476 324.247333 
L 444.325758 331.906405 
L 447.759039 324.561963 
L 451.192321 324.571745 
L 454.625603 332.112898 
L 458.058885 330.264485 
L 461.492166 325.161697 
L 464.925448 324.050681 
L 468.35873 327.600004 
L 471.792011 330.913368 
L 475.225293 337.304139 
L 478.658575 337.441801 
L 482.091857 327.609845 
L 485.525138 329.654909 
L 488.95842 331.896563 
L 492.391702 336.940361 
L 495.824984 336.006314 
L 499.258265 334.91498 
L 502.691547 327.570539 
L 506.124829 327.609845 
L 509.558111 326.135052 
L 512.991392 323.883556 
L 519.857956 329.045333 
L 523.291238 332.525823 
L 526.724519 342.524904 
L 530.157801 343.517942 
L 533.591083 342.210275 
L 537.024364 340.676493 
L 540.457646 341.207457 
L 543.890928 339.08372 
L 547.32421 347.136094 
L 550.757491 343.350815 
L 554.190773 334.059605 
L 557.624055 317.915551 
L 561.057337 303.610067 
L 564.490618 304.475284 
L 567.9239 285.175151 
L 571.357182 193.659291 
L 574.790464 203.402733 
L 578.223745 204.110665 
L 581.657027 204.307316 
L 585.090309 221.827809 
L 588.523591 242.199651 
L 591.956872 238.561816 
L 595.390154 237.834261 
L 598.823436 233.970309 
L 602.256718 233.321367 
L 605.689999 240.184113 
L 609.123281 234.678182 
L 612.556563 236.605266 
L 615.989844 222.319406 
L 619.423126 223.400957 
L 622.856408 230.656945 
L 626.28969 232.20057 
L 629.722971 205.605082 
L 633.156253 206.804611 
L 636.589535 209.862335 
L 640.022817 209.203611 
L 643.456098 205.516628 
L 646.88938 210.176965 
L 650.322662 205.487103 
L 653.755944 219.320672 
L 657.189225 253.093476 
L 660.622507 275.579153 
L 664.055789 283.002267 
L 667.489071 237.224685 
L 670.922352 228.385766 
L 674.355634 235.494251 
L 677.788916 247.420418 
L 681.222197 267.53662 
L 684.655479 251.264686 
L 688.088761 259.218764 
L 691.522043 264.675488 
L 694.955324 250.950116 
L 698.388606 252.857518 
L 701.821888 244.372535 
L 705.25517 240.026767 
L 708.688451 242.514282 
L 712.121733 230.81423 
L 715.555015 229.98838 
L 718.988297 223.184623 
L 722.421578 236.605266 
L 725.85486 230.519284 
L 729.288142 243.055027 
L 732.721424 243.379499 
L 736.154705 239.997303 
L 739.587987 253.594914 
L 743.021269 270.387851 
L 746.454551 270.309239 
L 749.887832 257.085247 
L 753.321114 254.26348 
L 756.754396 238.905971 
L 760.187677 224.590645 
L 763.620959 220.687328 
L 770.487523 226.861825 
L 773.920804 222.486593 
L 777.354086 219.478017 
L 780.787368 213.942621 
L 784.22065 215.063478 
L 787.653931 204.661253 
L 791.087213 204.208961 
L 794.520495 200.374534 
L 797.953777 215.928635 
L 801.387058 223.469789 
L 804.82034 214.44406 
L 808.253622 165.07779 
L 811.686904 154.478913 
L 815.120185 158.69686 
L 818.553467 154.311786 
L 821.986749 150.408529 
L 825.420031 156.415839 
L 828.853312 146.288937 
L 832.286594 145.256594 
L 835.719876 139.406568 
L 839.153157 136.31932 
L 842.586439 133.851489 
L 846.019721 142.572429 
L 849.453003 139.200076 
L 852.886284 132.239034 
L 856.319566 136.339003 
L 859.752848 150.329856 
L 863.18613 138.570816 
L 866.619411 142.169345 
L 870.052693 127.716358 
L 873.485975 129.279666 
L 876.919257 111.395336 
L 880.352538 112.004913 
L 883.78582 119.575471 
L 887.219102 119.703291 
L 890.652384 117.628762 
L 894.085665 125.160074 
L 897.518947 101.130772 
L 900.952229 105.712437 
L 904.38551 115.387108 
L 907.818792 101.356887 
L 911.252074 104.857062 
L 914.685356 105.722279 
L 918.118637 116.301473 
L 921.551919 118.415307 
L 924.985201 128.827374 
L 928.418483 120.076909 
L 931.851764 124.37347 
L 935.285046 109.930324 
L 938.718328 118.444831 
L 942.15161 128.394765 
L 945.584891 120.076909 
L 949.018173 117.884403 
L 952.451455 117.579614 
L 955.884737 119.457492 
L 962.7513 91.731425 
L 966.184582 97.237296 
L 969.617864 109.153621 
L 973.051145 125.907252 
L 976.484427 125.179697 
L 979.917709 124.157195 
L 983.35099 141.097635 
L 986.784272 152.81737 
L 990.217554 151.283527 
L 993.650836 141.412266 
L 997.084117 166.493593 
L 1000.517399 152.571571 
L 1003.950681 172.500904 
L 1007.383963 165.284282 
L 1010.817244 168.568122 
L 1014.250526 160.564895 
L 1017.683808 142.218493 
L 1021.11709 155.570305 
L 1024.550371 154.223332 
L 1027.983653 167.054023 
L 1031.416935 136.604425 
L 1034.850217 124.81592 
L 1034.850217 124.81592 
" clip-path="url(#p4b081ad165)" style="fill: none; stroke: #314f4f; stroke-width: 1.5; stroke-linecap: round"/>
   </g>
   <g id="line2d_15">
    <path d="M 973.051145 109.153621 
L 1034.850217 109.153621 
L 1034.850217 109.153621 
" clip-path="url(#p4b081ad165)" style="fill: none; stroke: #e64173; stroke-width: 1.5; stroke-linecap: round"/>
   </g>
   <g id="patch_3">
    <path d="M 61.514844 389.956551 
L 61.514844 31.399219 
" style="fill: none; stroke: #ffffff; stroke-linejoin: miter; stroke-linecap: square"/>
   </g>
   <g id="patch_4">
    <path d="M 1081.19952 389.956551 
L 1081.19952 31.399219 
" style="fill: none; stroke: #ffffff; stroke-linejoin: miter; stroke-linecap: square"/>
   </g>
   <g id="patch_5">
    <path d="M 61.514844 389.956551 
L 1081.19952 389.956551 
" style="fill: none; stroke: #ffffff; stroke-linejoin: miter; stroke-linecap: square"/>
   </g>
   <g id="patch_6">
    <path d="M 61.514844 31.399219 
L 1081.19952 31.399219 
" style="fill: none; stroke: #ffffff; stroke-linejoin: miter; stroke-linecap: square"/>
   </g>
   <g id="text_16">
    <!-- Google closing stock prices -->
    <g style="fill: #262626" transform="translate(419.210697 25.399219) scale(0.25 -0.25)">
     <defs>
      <path id="ArialMT-47" d="M 2638 1797 
L 2638 2334 
L 4578 2338 
L 4578 638 
Q 4131 281 3656 101 
Q 3181 -78 2681 -78 
Q 2006 -78 1454 211 
Q 903 500 622 1047 
Q 341 1594 341 2269 
Q 341 2938 620 3517 
Q 900 4097 1425 4378 
Q 1950 4659 2634 4659 
Q 3131 4659 3532 4498 
Q 3934 4338 4162 4050 
Q 4391 3763 4509 3300 
L 3963 3150 
Q 3859 3500 3706 3700 
Q 3553 3900 3268 4020 
Q 2984 4141 2638 4141 
Q 2222 4141 1919 4014 
Q 1616 3888 1430 3681 
Q 1244 3475 1141 3228 
Q 966 2803 966 2306 
Q 966 1694 1177 1281 
Q 1388 869 1791 669 
Q 2194 469 2647 469 
Q 3041 469 3416 620 
Q 3791 772 3984 944 
L 3984 1797 
L 2638 1797 
z
" transform="scale(0.015625)"/>
      <path id="ArialMT-6f" d="M 213 1659 
Q 213 2581 725 3025 
Q 1153 3394 1769 3394 
Q 2453 3394 2887 2945 
Q 3322 2497 3322 1706 
Q 3322 1066 3130 698 
Q 2938 331 2570 128 
Q 2203 -75 1769 -75 
Q 1072 -75 642 372 
Q 213 819 213 1659 
z
M 791 1659 
Q 791 1022 1069 705 
Q 1347 388 1769 388 
Q 2188 388 2466 706 
Q 2744 1025 2744 1678 
Q 2744 2294 2464 2611 
Q 2184 2928 1769 2928 
Q 1347 2928 1069 2612 
Q 791 2297 791 1659 
z
" transform="scale(0.015625)"/>
      <path id="ArialMT-67" d="M 319 -275 
L 866 -356 
Q 900 -609 1056 -725 
Q 1266 -881 1628 -881 
Q 2019 -881 2231 -725 
Q 2444 -569 2519 -288 
Q 2563 -116 2559 434 
Q 2191 0 1641 0 
Q 956 0 581 494 
Q 206 988 206 1678 
Q 206 2153 378 2554 
Q 550 2956 876 3175 
Q 1203 3394 1644 3394 
Q 2231 3394 2613 2919 
L 2613 3319 
L 3131 3319 
L 3131 450 
Q 3131 -325 2973 -648 
Q 2816 -972 2473 -1159 
Q 2131 -1347 1631 -1347 
Q 1038 -1347 672 -1080 
Q 306 -813 319 -275 
z
M 784 1719 
Q 784 1066 1043 766 
Q 1303 466 1694 466 
Q 2081 466 2343 764 
Q 2606 1063 2606 1700 
Q 2606 2309 2336 2618 
Q 2066 2928 1684 2928 
Q 1309 2928 1046 2623 
Q 784 2319 784 1719 
z
" transform="scale(0.015625)"/>
      <path id="ArialMT-6c" d="M 409 0 
L 409 4581 
L 972 4581 
L 972 0 
L 409 0 
z
" transform="scale(0.015625)"/>
      <path id="ArialMT-65" d="M 2694 1069 
L 3275 997 
Q 3138 488 2766 206 
Q 2394 -75 1816 -75 
Q 1088 -75 661 373 
Q 234 822 234 1631 
Q 234 2469 665 2931 
Q 1097 3394 1784 3394 
Q 2450 3394 2872 2941 
Q 3294 2488 3294 1666 
Q 3294 1616 3291 1516 
L 816 1516 
Q 847 969 1125 678 
Q 1403 388 1819 388 
Q 2128 388 2347 550 
Q 2566 713 2694 1069 
z
M 847 1978 
L 2700 1978 
Q 2663 2397 2488 2606 
Q 2219 2931 1791 2931 
Q 1403 2931 1139 2672 
Q 875 2413 847 1978 
z
" transform="scale(0.015625)"/>
      <path id="ArialMT-20" transform="scale(0.015625)"/>
      <path id="ArialMT-63" d="M 2588 1216 
L 3141 1144 
Q 3050 572 2676 248 
Q 2303 -75 1759 -75 
Q 1078 -75 664 370 
Q 250 816 250 1647 
Q 250 2184 428 2587 
Q 606 2991 970 3192 
Q 1334 3394 1763 3394 
Q 2303 3394 2647 3120 
Q 2991 2847 3088 2344 
L 2541 2259 
Q 2463 2594 2264 2762 
Q 2066 2931 1784 2931 
Q 1359 2931 1093 2626 
Q 828 2322 828 1663 
Q 828 994 1084 691 
Q 1341 388 1753 388 
Q 2084 388 2306 591 
Q 2528 794 2588 1216 
z
" transform="scale(0.015625)"/>
      <path id="ArialMT-73" d="M 197 991 
L 753 1078 
Q 800 744 1014 566 
Q 1228 388 1613 388 
Q 2000 388 2187 545 
Q 2375 703 2375 916 
Q 2375 1106 2209 1216 
Q 2094 1291 1634 1406 
Q 1016 1563 777 1677 
Q 538 1791 414 1992 
Q 291 2194 291 2438 
Q 291 2659 392 2848 
Q 494 3038 669 3163 
Q 800 3259 1026 3326 
Q 1253 3394 1513 3394 
Q 1903 3394 2198 3281 
Q 2494 3169 2634 2976 
Q 2775 2784 2828 2463 
L 2278 2388 
Q 2241 2644 2061 2787 
Q 1881 2931 1553 2931 
Q 1166 2931 1000 2803 
Q 834 2675 834 2503 
Q 834 2394 903 2306 
Q 972 2216 1119 2156 
Q 1203 2125 1616 2013 
Q 2213 1853 2448 1751 
Q 2684 1650 2818 1456 
Q 2953 1263 2953 975 
Q 2953 694 2789 445 
Q 2625 197 2315 61 
Q 2006 -75 1616 -75 
Q 969 -75 630 194 
Q 291 463 197 991 
z
" transform="scale(0.015625)"/>
      <path id="ArialMT-69" d="M 425 3934 
L 425 4581 
L 988 4581 
L 988 3934 
L 425 3934 
z
M 425 0 
L 425 3319 
L 988 3319 
L 988 0 
L 425 0 
z
" transform="scale(0.015625)"/>
      <path id="ArialMT-6e" d="M 422 0 
L 422 3319 
L 928 3319 
L 928 2847 
Q 1294 3394 1984 3394 
Q 2284 3394 2536 3286 
Q 2788 3178 2913 3003 
Q 3038 2828 3088 2588 
Q 3119 2431 3119 2041 
L 3119 0 
L 2556 0 
L 2556 2019 
Q 2556 2363 2490 2533 
Q 2425 2703 2258 2804 
Q 2091 2906 1866 2906 
Q 1506 2906 1245 2678 
Q 984 2450 984 1813 
L 984 0 
L 422 0 
z
" transform="scale(0.015625)"/>
      <path id="ArialMT-74" d="M 1650 503 
L 1731 6 
Q 1494 -44 1306 -44 
Q 1000 -44 831 53 
Q 663 150 594 308 
Q 525 466 525 972 
L 525 2881 
L 113 2881 
L 113 3319 
L 525 3319 
L 525 4141 
L 1084 4478 
L 1084 3319 
L 1650 3319 
L 1650 2881 
L 1084 2881 
L 1084 941 
Q 1084 700 1114 631 
Q 1144 563 1211 522 
Q 1278 481 1403 481 
Q 1497 481 1650 503 
z
" transform="scale(0.015625)"/>
      <path id="ArialMT-6b" d="M 425 0 
L 425 4581 
L 988 4581 
L 988 1969 
L 2319 3319 
L 3047 3319 
L 1778 2088 
L 3175 0 
L 2481 0 
L 1384 1697 
L 988 1316 
L 988 0 
L 425 0 
z
" transform="scale(0.015625)"/>
      <path id="ArialMT-70" d="M 422 -1272 
L 422 3319 
L 934 3319 
L 934 2888 
Q 1116 3141 1344 3267 
Q 1572 3394 1897 3394 
Q 2322 3394 2647 3175 
Q 2972 2956 3137 2557 
Q 3303 2159 3303 1684 
Q 3303 1175 3120 767 
Q 2938 359 2589 142 
Q 2241 -75 1856 -75 
Q 1575 -75 1351 44 
Q 1128 163 984 344 
L 984 -1272 
L 422 -1272 
z
M 931 1641 
Q 931 1000 1190 694 
Q 1450 388 1819 388 
Q 2194 388 2461 705 
Q 2728 1022 2728 1688 
Q 2728 2322 2467 2637 
Q 2206 2953 1844 2953 
Q 1484 2953 1207 2617 
Q 931 2281 931 1641 
z
" transform="scale(0.015625)"/>
      <path id="ArialMT-72" d="M 416 0 
L 416 3319 
L 922 3319 
L 922 2816 
Q 1116 3169 1280 3281 
Q 1444 3394 1641 3394 
Q 1925 3394 2219 3213 
L 2025 2691 
Q 1819 2813 1613 2813 
Q 1428 2813 1281 2702 
Q 1134 2591 1072 2394 
Q 978 2094 978 1738 
L 978 0 
L 416 0 
z
" transform="scale(0.015625)"/>
     </defs>
     <use xlink:href="#ArialMT-47"/>
     <use xlink:href="#ArialMT-6f" x="77.783203"/>
     <use xlink:href="#ArialMT-6f" x="133.398438"/>
     <use xlink:href="#ArialMT-67" x="189.013672"/>
     <use xlink:href="#ArialMT-6c" x="244.628906"/>
     <use xlink:href="#ArialMT-65" x="266.845703"/>
     <use xlink:href="#ArialMT-20" x="322.460938"/>
     <use xlink:href="#ArialMT-63" x="350.244141"/>
     <use xlink:href="#ArialMT-6c" x="400.244141"/>
     <use xlink:href="#ArialMT-6f" x="422.460938"/>
     <use xlink:href="#ArialMT-73" x="478.076172"/>
     <use xlink:href="#ArialMT-69" x="528.076172"/>
     <use xlink:href="#ArialMT-6e" x="550.292969"/>
     <use xlink:href="#ArialMT-67" x="605.908203"/>
     <use xlink:href="#ArialMT-20" x="661.523438"/>
     <use xlink:href="#ArialMT-73" x="689.306641"/>
     <use xlink:href="#ArialMT-74" x="739.306641"/>
     <use xlink:href="#ArialMT-6f" x="767.089844"/>
     <use xlink:href="#ArialMT-63" x="822.705078"/>
     <use xlink:href="#ArialMT-6b" x="872.705078"/>
     <use xlink:href="#ArialMT-20" x="922.705078"/>
     <use xlink:href="#ArialMT-70" x="950.488281"/>
     <use xlink:href="#ArialMT-72" x="1006.103516"/>
     <use xlink:href="#ArialMT-69" x="1039.404297"/>
     <use xlink:href="#ArialMT-63" x="1061.621094"/>
     <use xlink:href="#ArialMT-65" x="1111.621094"/>
     <use xlink:href="#ArialMT-73" x="1167.236328"/>
    </g>
   </g>
  </g>
  <g id="legend_1">
   <g id="line2d_16">
    <path d="M 989.36226 15.591791 
L 998.36226 15.591791 
L 1007.36226 15.591791 
" style="fill: none; stroke: #314f4f; stroke-width: 1.5; stroke-linecap: round"/>
   </g>
   <g id="text_17">
    <!-- y -->
    <g style="fill: #262626" transform="translate(1014.56226 18.741791) scale(0.09 -0.09)">
     <use xlink:href="#ArialMT-79"/>
    </g>
   </g>
   <g id="line2d_17">
    <path d="M 989.36226 28.428041 
L 998.36226 28.428041 
L 1007.36226 28.428041 
" style="fill: none; stroke: #e64173; stroke-width: 1.5; stroke-linecap: round"/>
   </g>
   <g id="text_18">
    <!-- Naive -->
    <g style="fill: #262626" transform="translate(1014.56226 31.578041) scale(0.09 -0.09)">
     <defs>
      <path id="ArialMT-4e" d="M 488 0 
L 488 4581 
L 1109 4581 
L 3516 984 
L 3516 4581 
L 4097 4581 
L 4097 0 
L 3475 0 
L 1069 3600 
L 1069 0 
L 488 0 
z
" transform="scale(0.015625)"/>
      <path id="ArialMT-76" d="M 1344 0 
L 81 3319 
L 675 3319 
L 1388 1331 
Q 1503 1009 1600 663 
Q 1675 925 1809 1294 
L 2547 3319 
L 3125 3319 
L 1869 0 
L 1344 0 
z
" transform="scale(0.015625)"/>
     </defs>
     <use xlink:href="#ArialMT-4e"/>
     <use xlink:href="#ArialMT-61" x="72.216797"/>
     <use xlink:href="#ArialMT-69" x="127.832031"/>
     <use xlink:href="#ArialMT-76" x="150.048828"/>
     <use xlink:href="#ArialMT-65" x="200.048828"/>
    </g>
   </g>
   <g id="patch_7">
    <path d="M 989.36226 44.335541 
L 1007.36226 44.335541 
L 1007.36226 38.035541 
L 989.36226 38.035541 
z
" style="fill: #e64173; fill-opacity: 0.2; stroke: #e64173; stroke-opacity: 0.2; stroke-width: 0.5; stroke-linejoin: miter"/>
   </g>
   <g id="text_19">
    <!-- Naive_level_80 -->
    <g style="fill: #262626" transform="translate(1014.56226 44.335541) scale(0.09 -0.09)">
     <defs>
      <path id="ArialMT-5f" d="M -97 -1272 
L -97 -866 
L 3631 -866 
L 3631 -1272 
L -97 -1272 
z
" transform="scale(0.015625)"/>
     </defs>
     <use xlink:href="#ArialMT-4e"/>
     <use xlink:href="#ArialMT-61" x="72.216797"/>
     <use xlink:href="#ArialMT-69" x="127.832031"/>
     <use xlink:href="#ArialMT-76" x="150.048828"/>
     <use xlink:href="#ArialMT-65" x="200.048828"/>
     <use xlink:href="#ArialMT-5f" x="255.664062"/>
     <use xlink:href="#ArialMT-6c" x="311.279297"/>
     <use xlink:href="#ArialMT-65" x="333.496094"/>
     <use xlink:href="#ArialMT-76" x="389.111328"/>
     <use xlink:href="#ArialMT-65" x="439.111328"/>
     <use xlink:href="#ArialMT-6c" x="494.726562"/>
     <use xlink:href="#ArialMT-5f" x="516.943359"/>
     <use xlink:href="#ArialMT-38" x="572.558594"/>
     <use xlink:href="#ArialMT-30" x="628.173828"/>
    </g>
   </g>
  </g>
 </g>
 <defs>
  <clipPath id="p4b081ad165">
   <rect x="61.514844" y="31.399219" width="1019.684676" height="358.557333"/>
  </clipPath>
 </defs>
</svg>
