<?xml version="1.0" encoding="utf-8" standalone="no"?>
<!DOCTYPE svg PUBLIC "-//W3C//DTD SVG 1.1//EN"
  "http://www.w3.org/Graphics/SVG/1.1/DTD/svg11.dtd">
<svg xmlns:xlink="http://www.w3.org/1999/xlink" width="712.714219pt" height="568.437656pt" viewBox="0 0 712.714219 568.437656" xmlns="http://www.w3.org/2000/svg" version="1.1">
 <metadata>
  <rdf:RDF xmlns:dc="http://purl.org/dc/elements/1.1/" xmlns:cc="http://creativecommons.org/ns#" xmlns:rdf="http://www.w3.org/1999/02/22-rdf-syntax-ns#">
   <cc:Work>
    <dc:type rdf:resource="http://purl.org/dc/dcmitype/StillImage"/>
    <dc:date>2025-11-02T00:42:15.976986</dc:date>
    <dc:format>image/svg+xml</dc:format>
    <dc:creator>
     <cc:Agent>
      <dc:title>Matplotlib v3.7.2, https://matplotlib.org/</dc:title>
     </cc:Agent>
    </dc:creator>
   </cc:Work>
  </rdf:RDF>
 </metadata>
 <defs>
  <style type="text/css">*{stroke-linejoin: round; stroke-linecap: butt}</style>
 </defs>
 <g id="figure_1">
  <g id="patch_1">
   <path d="M 0 568.437656 
L 712.714219 568.437656 
L 712.714219 0 
L 0 0 
z
" style="fill: #ffffff"/>
  </g>
  <g id="axes_1">
   <g id="patch_2">
    <path d="M 39.224219 263.406875 
L 705.514219 263.406875 
L 705.514219 21.943125 
L 39.224219 21.943125 
z
" style="fill: #e5e5e5"/>
   </g>
   <g id="matplotlib.axis_1">
    <g id="xtick_1">
     <g id="line2d_1">
      <path d="M 67.711677 263.406875 
L 67.711677 21.943125 
" clip-path="url(#p00a7d005fb)" style="fill: none; stroke: #ffffff; stroke-width: 0.8; stroke-linecap: round"/>
     </g>
     <g id="text_1">
      <!-- 1992 -->
      <g style="fill: #555555" transform="translate(57.70199 276.848906) scale(0.09 -0.09)">
       <defs>
        <path id="ArialMT-31" d="M 2384 0 
L 1822 0 
L 1822 3584 
Q 1619 3391 1289 3197 
Q 959 3003 697 2906 
L 697 3450 
Q 1169 3672 1522 3987 
Q 1875 4303 2022 4600 
L 2384 4600 
L 2384 0 
z
" transform="scale(0.015625)"/>
        <path id="ArialMT-39" d="M 350 1059 
L 891 1109 
Q 959 728 1153 556 
Q 1347 384 1650 384 
Q 1909 384 2104 503 
Q 2300 622 2425 820 
Q 2550 1019 2634 1356 
Q 2719 1694 2719 2044 
Q 2719 2081 2716 2156 
Q 2547 1888 2255 1720 
Q 1963 1553 1622 1553 
Q 1053 1553 659 1965 
Q 266 2378 266 3053 
Q 266 3750 677 4175 
Q 1088 4600 1706 4600 
Q 2153 4600 2523 4359 
Q 2894 4119 3086 3673 
Q 3278 3228 3278 2384 
Q 3278 1506 3087 986 
Q 2897 466 2520 194 
Q 2144 -78 1638 -78 
Q 1100 -78 759 220 
Q 419 519 350 1059 
z
M 2653 3081 
Q 2653 3566 2395 3850 
Q 2138 4134 1775 4134 
Q 1400 4134 1122 3828 
Q 844 3522 844 3034 
Q 844 2597 1108 2323 
Q 1372 2050 1759 2050 
Q 2150 2050 2401 2323 
Q 2653 2597 2653 3081 
z
" transform="scale(0.015625)"/>
        <path id="ArialMT-32" d="M 3222 541 
L 3222 0 
L 194 0 
Q 188 203 259 391 
Q 375 700 629 1000 
Q 884 1300 1366 1694 
Q 2113 2306 2375 2664 
Q 2638 3022 2638 3341 
Q 2638 3675 2398 3904 
Q 2159 4134 1775 4134 
Q 1369 4134 1125 3890 
Q 881 3647 878 3216 
L 300 3275 
Q 359 3922 746 4261 
Q 1134 4600 1788 4600 
Q 2447 4600 2831 4234 
Q 3216 3869 3216 3328 
Q 3216 3053 3103 2787 
Q 2991 2522 2730 2228 
Q 2469 1934 1863 1422 
Q 1356 997 1212 845 
Q 1069 694 975 541 
L 3222 541 
z
" transform="scale(0.015625)"/>
       </defs>
       <use xlink:href="#ArialMT-31"/>
       <use xlink:href="#ArialMT-39" x="55.615234"/>
       <use xlink:href="#ArialMT-39" x="111.230469"/>
       <use xlink:href="#ArialMT-32" x="166.845703"/>
      </g>
     </g>
    </g>
    <g id="xtick_2">
     <g id="line2d_2">
      <path d="M 155.296224 263.406875 
L 155.296224 21.943125 
" clip-path="url(#p00a7d005fb)" style="fill: none; stroke: #ffffff; stroke-width: 0.8; stroke-linecap: round"/>
     </g>
     <g id="text_2">
      <!-- 1996 -->
      <g style="fill: #555555" transform="translate(145.286537 276.848906) scale(0.09 -0.09)">
       <defs>
        <path id="ArialMT-36" d="M 3184 3459 
L 2625 3416 
Q 2550 3747 2413 3897 
Q 2184 4138 1850 4138 
Q 1581 4138 1378 3988 
Q 1113 3794 959 3422 
Q 806 3050 800 2363 
Q 1003 2672 1297 2822 
Q 1591 2972 1913 2972 
Q 2475 2972 2870 2558 
Q 3266 2144 3266 1488 
Q 3266 1056 3080 686 
Q 2894 316 2569 119 
Q 2244 -78 1831 -78 
Q 1128 -78 684 439 
Q 241 956 241 2144 
Q 241 3472 731 4075 
Q 1159 4600 1884 4600 
Q 2425 4600 2770 4297 
Q 3116 3994 3184 3459 
z
M 888 1484 
Q 888 1194 1011 928 
Q 1134 663 1356 523 
Q 1578 384 1822 384 
Q 2178 384 2434 671 
Q 2691 959 2691 1453 
Q 2691 1928 2437 2201 
Q 2184 2475 1800 2475 
Q 1419 2475 1153 2201 
Q 888 1928 888 1484 
z
" transform="scale(0.015625)"/>
       </defs>
       <use xlink:href="#ArialMT-31"/>
       <use xlink:href="#ArialMT-39" x="55.615234"/>
       <use xlink:href="#ArialMT-39" x="111.230469"/>
       <use xlink:href="#ArialMT-36" x="166.845703"/>
      </g>
     </g>
    </g>
    <g id="xtick_3">
     <g id="line2d_3">
      <path d="M 242.880771 263.406875 
L 242.880771 21.943125 
" clip-path="url(#p00a7d005fb)" style="fill: none; stroke: #ffffff; stroke-width: 0.8; stroke-linecap: round"/>
     </g>
     <g id="text_3">
      <!-- 2000 -->
      <g style="fill: #555555" transform="translate(232.871084 276.848906) scale(0.09 -0.09)">
       <defs>
        <path id="ArialMT-30" d="M 266 2259 
Q 266 3072 433 3567 
Q 600 4063 929 4331 
Q 1259 4600 1759 4600 
Q 2128 4600 2406 4451 
Q 2684 4303 2865 4023 
Q 3047 3744 3150 3342 
Q 3253 2941 3253 2259 
Q 3253 1453 3087 958 
Q 2922 463 2592 192 
Q 2263 -78 1759 -78 
Q 1097 -78 719 397 
Q 266 969 266 2259 
z
M 844 2259 
Q 844 1131 1108 757 
Q 1372 384 1759 384 
Q 2147 384 2411 759 
Q 2675 1134 2675 2259 
Q 2675 3391 2411 3762 
Q 2147 4134 1753 4134 
Q 1366 4134 1134 3806 
Q 844 3388 844 2259 
z
" transform="scale(0.015625)"/>
       </defs>
       <use xlink:href="#ArialMT-32"/>
       <use xlink:href="#ArialMT-30" x="55.615234"/>
       <use xlink:href="#ArialMT-30" x="111.230469"/>
       <use xlink:href="#ArialMT-30" x="166.845703"/>
      </g>
     </g>
    </g>
    <g id="xtick_4">
     <g id="line2d_4">
      <path d="M 330.465318 263.406875 
L 330.465318 21.943125 
" clip-path="url(#p00a7d005fb)" style="fill: none; stroke: #ffffff; stroke-width: 0.8; stroke-linecap: round"/>
     </g>
     <g id="text_4">
      <!-- 2004 -->
      <g style="fill: #555555" transform="translate(320.455631 276.848906) scale(0.09 -0.09)">
       <defs>
        <path id="ArialMT-34" d="M 2069 0 
L 2069 1097 
L 81 1097 
L 81 1613 
L 2172 4581 
L 2631 4581 
L 2631 1613 
L 3250 1613 
L 3250 1097 
L 2631 1097 
L 2631 0 
L 2069 0 
z
M 2069 1613 
L 2069 3678 
L 634 1613 
L 2069 1613 
z
" transform="scale(0.015625)"/>
       </defs>
       <use xlink:href="#ArialMT-32"/>
       <use xlink:href="#ArialMT-30" x="55.615234"/>
       <use xlink:href="#ArialMT-30" x="111.230469"/>
       <use xlink:href="#ArialMT-34" x="166.845703"/>
      </g>
     </g>
    </g>
    <g id="xtick_5">
     <g id="line2d_5">
      <path d="M 418.049865 263.406875 
L 418.049865 21.943125 
" clip-path="url(#p00a7d005fb)" style="fill: none; stroke: #ffffff; stroke-width: 0.8; stroke-linecap: round"/>
     </g>
     <g id="text_5">
      <!-- 2008 -->
      <g style="fill: #555555" transform="translate(408.040178 276.848906) scale(0.09 -0.09)">
       <defs>
        <path id="ArialMT-38" d="M 1131 2484 
Q 781 2613 612 2850 
Q 444 3088 444 3419 
Q 444 3919 803 4259 
Q 1163 4600 1759 4600 
Q 2359 4600 2725 4251 
Q 3091 3903 3091 3403 
Q 3091 3084 2923 2848 
Q 2756 2613 2416 2484 
Q 2838 2347 3058 2040 
Q 3278 1734 3278 1309 
Q 3278 722 2862 322 
Q 2447 -78 1769 -78 
Q 1091 -78 675 323 
Q 259 725 259 1325 
Q 259 1772 486 2073 
Q 713 2375 1131 2484 
z
M 1019 3438 
Q 1019 3113 1228 2906 
Q 1438 2700 1772 2700 
Q 2097 2700 2305 2904 
Q 2513 3109 2513 3406 
Q 2513 3716 2298 3927 
Q 2084 4138 1766 4138 
Q 1444 4138 1231 3931 
Q 1019 3725 1019 3438 
z
M 838 1322 
Q 838 1081 952 856 
Q 1066 631 1291 507 
Q 1516 384 1775 384 
Q 2178 384 2440 643 
Q 2703 903 2703 1303 
Q 2703 1709 2433 1975 
Q 2163 2241 1756 2241 
Q 1359 2241 1098 1978 
Q 838 1716 838 1322 
z
" transform="scale(0.015625)"/>
       </defs>
       <use xlink:href="#ArialMT-32"/>
       <use xlink:href="#ArialMT-30" x="55.615234"/>
       <use xlink:href="#ArialMT-30" x="111.230469"/>
       <use xlink:href="#ArialMT-38" x="166.845703"/>
      </g>
     </g>
    </g>
    <g id="xtick_6">
     <g id="line2d_6">
      <path d="M 505.634413 263.406875 
L 505.634413 21.943125 
" clip-path="url(#p00a7d005fb)" style="fill: none; stroke: #ffffff; stroke-width: 0.8; stroke-linecap: round"/>
     </g>
     <g id="text_6">
      <!-- 2012 -->
      <g style="fill: #555555" transform="translate(495.624725 276.848906) scale(0.09 -0.09)">
       <use xlink:href="#ArialMT-32"/>
       <use xlink:href="#ArialMT-30" x="55.615234"/>
       <use xlink:href="#ArialMT-31" x="111.230469"/>
       <use xlink:href="#ArialMT-32" x="166.845703"/>
      </g>
     </g>
    </g>
    <g id="xtick_7">
     <g id="line2d_7">
      <path d="M 593.21896 263.406875 
L 593.21896 21.943125 
" clip-path="url(#p00a7d005fb)" style="fill: none; stroke: #ffffff; stroke-width: 0.8; stroke-linecap: round"/>
     </g>
     <g id="text_7">
      <!-- 2016 -->
      <g style="fill: #555555" transform="translate(583.209272 276.848906) scale(0.09 -0.09)">
       <use xlink:href="#ArialMT-32"/>
       <use xlink:href="#ArialMT-30" x="55.615234"/>
       <use xlink:href="#ArialMT-31" x="111.230469"/>
       <use xlink:href="#ArialMT-36" x="166.845703"/>
      </g>
     </g>
    </g>
    <g id="xtick_8">
     <g id="line2d_8">
      <path d="M 680.803507 263.406875 
L 680.803507 21.943125 
" clip-path="url(#p00a7d005fb)" style="fill: none; stroke: #ffffff; stroke-width: 0.8; stroke-linecap: round"/>
     </g>
     <g id="text_8">
      <!-- 2020 -->
      <g style="fill: #555555" transform="translate(670.793819 276.848906) scale(0.09 -0.09)">
       <use xlink:href="#ArialMT-32"/>
       <use xlink:href="#ArialMT-30" x="55.615234"/>
       <use xlink:href="#ArialMT-32" x="111.230469"/>
       <use xlink:href="#ArialMT-30" x="166.845703"/>
      </g>
     </g>
    </g>
   </g>
   <g id="matplotlib.axis_2">
    <g id="ytick_1">
     <g id="line2d_9">
      <path d="M 39.224219 255.159106 
L 705.514219 255.159106 
" clip-path="url(#p00a7d005fb)" style="fill: none; stroke: #ffffff; stroke-width: 0.8; stroke-linecap: round"/>
     </g>
     <g id="text_9">
      <!-- 12500 -->
      <g style="fill: #555555" transform="translate(7.2 258.380121) scale(0.09 -0.09)">
       <defs>
        <path id="ArialMT-35" d="M 266 1200 
L 856 1250 
Q 922 819 1161 601 
Q 1400 384 1738 384 
Q 2144 384 2425 690 
Q 2706 997 2706 1503 
Q 2706 1984 2436 2262 
Q 2166 2541 1728 2541 
Q 1456 2541 1237 2417 
Q 1019 2294 894 2097 
L 366 2166 
L 809 4519 
L 3088 4519 
L 3088 3981 
L 1259 3981 
L 1013 2750 
Q 1425 3038 1878 3038 
Q 2478 3038 2890 2622 
Q 3303 2206 3303 1553 
Q 3303 931 2941 478 
Q 2500 -78 1738 -78 
Q 1113 -78 717 272 
Q 322 622 266 1200 
z
" transform="scale(0.015625)"/>
       </defs>
       <use xlink:href="#ArialMT-31"/>
       <use xlink:href="#ArialMT-32" x="55.615234"/>
       <use xlink:href="#ArialMT-35" x="111.230469"/>
       <use xlink:href="#ArialMT-30" x="166.845703"/>
       <use xlink:href="#ArialMT-30" x="222.460938"/>
      </g>
     </g>
    </g>
    <g id="ytick_2">
     <g id="line2d_10">
      <path d="M 39.224219 226.625049 
L 705.514219 226.625049 
" clip-path="url(#p00a7d005fb)" style="fill: none; stroke: #ffffff; stroke-width: 0.8; stroke-linecap: round"/>
     </g>
     <g id="text_10">
      <!-- 13000 -->
      <g style="fill: #555555" transform="translate(7.2 229.846065) scale(0.09 -0.09)">
       <defs>
        <path id="ArialMT-33" d="M 269 1209 
L 831 1284 
Q 928 806 1161 595 
Q 1394 384 1728 384 
Q 2125 384 2398 659 
Q 2672 934 2672 1341 
Q 2672 1728 2419 1979 
Q 2166 2231 1775 2231 
Q 1616 2231 1378 2169 
L 1441 2663 
Q 1497 2656 1531 2656 
Q 1891 2656 2178 2843 
Q 2466 3031 2466 3422 
Q 2466 3731 2256 3934 
Q 2047 4138 1716 4138 
Q 1388 4138 1169 3931 
Q 950 3725 888 3313 
L 325 3413 
Q 428 3978 793 4289 
Q 1159 4600 1703 4600 
Q 2078 4600 2393 4439 
Q 2709 4278 2876 4000 
Q 3044 3722 3044 3409 
Q 3044 3113 2884 2869 
Q 2725 2625 2413 2481 
Q 2819 2388 3044 2092 
Q 3269 1797 3269 1353 
Q 3269 753 2831 336 
Q 2394 -81 1725 -81 
Q 1122 -81 723 278 
Q 325 638 269 1209 
z
" transform="scale(0.015625)"/>
       </defs>
       <use xlink:href="#ArialMT-31"/>
       <use xlink:href="#ArialMT-33" x="55.615234"/>
       <use xlink:href="#ArialMT-30" x="111.230469"/>
       <use xlink:href="#ArialMT-30" x="166.845703"/>
       <use xlink:href="#ArialMT-30" x="222.460938"/>
      </g>
     </g>
    </g>
    <g id="ytick_3">
     <g id="line2d_11">
      <path d="M 39.224219 198.090992 
L 705.514219 198.090992 
" clip-path="url(#p00a7d005fb)" style="fill: none; stroke: #ffffff; stroke-width: 0.8; stroke-linecap: round"/>
     </g>
     <g id="text_11">
      <!-- 13500 -->
      <g style="fill: #555555" transform="translate(7.2 201.312008) scale(0.09 -0.09)">
       <use xlink:href="#ArialMT-31"/>
       <use xlink:href="#ArialMT-33" x="55.615234"/>
       <use xlink:href="#ArialMT-35" x="111.230469"/>
       <use xlink:href="#ArialMT-30" x="166.845703"/>
       <use xlink:href="#ArialMT-30" x="222.460938"/>
      </g>
     </g>
    </g>
    <g id="ytick_4">
     <g id="line2d_12">
      <path d="M 39.224219 169.556935 
L 705.514219 169.556935 
" clip-path="url(#p00a7d005fb)" style="fill: none; stroke: #ffffff; stroke-width: 0.8; stroke-linecap: round"/>
     </g>
     <g id="text_12">
      <!-- 14000 -->
      <g style="fill: #555555" transform="translate(7.2 172.777951) scale(0.09 -0.09)">
       <use xlink:href="#ArialMT-31"/>
       <use xlink:href="#ArialMT-34" x="55.615234"/>
       <use xlink:href="#ArialMT-30" x="111.230469"/>
       <use xlink:href="#ArialMT-30" x="166.845703"/>
       <use xlink:href="#ArialMT-30" x="222.460938"/>
      </g>
     </g>
    </g>
    <g id="ytick_5">
     <g id="line2d_13">
      <path d="M 39.224219 141.022878 
L 705.514219 141.022878 
" clip-path="url(#p00a7d005fb)" style="fill: none; stroke: #ffffff; stroke-width: 0.8; stroke-linecap: round"/>
     </g>
     <g id="text_13">
      <!-- 14500 -->
      <g style="fill: #555555" transform="translate(7.2 144.243894) scale(0.09 -0.09)">
       <use xlink:href="#ArialMT-31"/>
       <use xlink:href="#ArialMT-34" x="55.615234"/>
       <use xlink:href="#ArialMT-35" x="111.230469"/>
       <use xlink:href="#ArialMT-30" x="166.845703"/>
       <use xlink:href="#ArialMT-30" x="222.460938"/>
      </g>
     </g>
    </g>
    <g id="ytick_6">
     <g id="line2d_14">
      <path d="M 39.224219 112.488821 
L 705.514219 112.488821 
" clip-path="url(#p00a7d005fb)" style="fill: none; stroke: #ffffff; stroke-width: 0.8; stroke-linecap: round"/>
     </g>
     <g id="text_14">
      <!-- 15000 -->
      <g style="fill: #555555" transform="translate(7.2 115.709837) scale(0.09 -0.09)">
       <use xlink:href="#ArialMT-31"/>
       <use xlink:href="#ArialMT-35" x="55.615234"/>
       <use xlink:href="#ArialMT-30" x="111.230469"/>
       <use xlink:href="#ArialMT-30" x="166.845703"/>
       <use xlink:href="#ArialMT-30" x="222.460938"/>
      </g>
     </g>
    </g>
    <g id="ytick_7">
     <g id="line2d_15">
      <path d="M 39.224219 83.954764 
L 705.514219 83.954764 
" clip-path="url(#p00a7d005fb)" style="fill: none; stroke: #ffffff; stroke-width: 0.8; stroke-linecap: round"/>
     </g>
     <g id="text_15">
      <!-- 15500 -->
      <g style="fill: #555555" transform="translate(7.2 87.17578) scale(0.09 -0.09)">
       <use xlink:href="#ArialMT-31"/>
       <use xlink:href="#ArialMT-35" x="55.615234"/>
       <use xlink:href="#ArialMT-35" x="111.230469"/>
       <use xlink:href="#ArialMT-30" x="166.845703"/>
       <use xlink:href="#ArialMT-30" x="222.460938"/>
      </g>
     </g>
    </g>
    <g id="ytick_8">
     <g id="line2d_16">
      <path d="M 39.224219 55.420707 
L 705.514219 55.420707 
" clip-path="url(#p00a7d005fb)" style="fill: none; stroke: #ffffff; stroke-width: 0.8; stroke-linecap: round"/>
     </g>
     <g id="text_16">
      <!-- 16000 -->
      <g style="fill: #555555" transform="translate(7.2 58.641723) scale(0.09 -0.09)">
       <use xlink:href="#ArialMT-31"/>
       <use xlink:href="#ArialMT-36" x="55.615234"/>
       <use xlink:href="#ArialMT-30" x="111.230469"/>
       <use xlink:href="#ArialMT-30" x="166.845703"/>
       <use xlink:href="#ArialMT-30" x="222.460938"/>
      </g>
     </g>
    </g>
    <g id="ytick_9">
     <g id="line2d_17">
      <path d="M 39.224219 26.88665 
L 705.514219 26.88665 
" clip-path="url(#p00a7d005fb)" style="fill: none; stroke: #ffffff; stroke-width: 0.8; stroke-linecap: round"/>
     </g>
     <g id="text_17">
      <!-- 16500 -->
      <g style="fill: #555555" transform="translate(7.2 30.107666) scale(0.09 -0.09)">
       <use xlink:href="#ArialMT-31"/>
       <use xlink:href="#ArialMT-36" x="55.615234"/>
       <use xlink:href="#ArialMT-35" x="111.230469"/>
       <use xlink:href="#ArialMT-30" x="166.845703"/>
       <use xlink:href="#ArialMT-30" x="222.460938"/>
      </g>
     </g>
    </g>
   </g>
   <g id="line2d_18">
    <path d="M 69.510128 238.689248 
L 71.24863 250.245541 
L 73.107029 252.43125 
L 74.90548 247.380722 
L 76.763879 241.439931 
L 78.562329 236.606262 
L 80.420729 237.759038 
L 82.279128 237.43375 
L 84.077578 238.957468 
L 85.935977 232.879714 
L 89.592827 203.1244 
L 91.451226 235.225214 
L 93.12978 243.648467 
L 94.988179 246.353496 
L 96.786629 241.160298 
L 100.443479 228.051752 
L 102.301878 226.100022 
L 104.160277 223.874366 
L 105.958728 223.851539 
L 107.817127 216.626715 
L 111.473977 183.510089 
L 113.332376 217.905041 
L 115.01093 225.774734 
L 116.869329 223.691748 
L 118.667779 217.19169 
L 120.526178 209.789955 
L 122.324629 202.148535 
L 124.183028 198.895652 
L 126.041427 195.271827 
L 127.839878 193.445648 
L 129.698277 185.176478 
L 131.496727 164.032742 
L 133.355126 147.853931 
L 135.213525 182.385847 
L 136.892079 193.554077 
L 138.750478 195.853922 
L 140.548929 189.296796 
L 142.407328 183.395953 
L 144.205779 176.718983 
L 146.064178 176.507831 
L 147.922577 174.795788 
L 149.721027 175.606155 
L 151.579426 169.20882 
L 153.377877 149.7543 
L 155.236276 135.97235 
L 157.094675 173.68296 
L 158.833177 184.925378 
L 160.691576 183.932393 
L 162.490027 180.302861 
L 164.348426 169.916464 
L 166.146877 163.422113 
L 168.005276 161.795672 
L 169.863675 160.00944 
L 171.662125 160.79698 
L 173.520524 150.855714 
L 175.318975 130.0658 
L 177.177374 114.988405 
L 179.035773 156.596766 
L 180.714327 168.221541 
L 182.572726 167.279917 
L 184.371177 162.78295 
L 186.229576 155.752158 
L 188.028026 150.193724 
L 189.886425 149.314875 
L 191.744824 147.186234 
L 193.543275 149.040948 
L 195.401674 139.13963 
L 197.200125 117.961653 
L 199.058524 102.416299 
L 200.916923 143.545289 
L 202.595477 155.672263 
L 204.453876 156.653834 
L 206.252326 151.181002 
L 208.110725 142.632199 
L 209.909176 137.090885 
L 211.767575 135.196224 
L 213.625974 134.345909 
L 215.424425 135.236171 
L 217.282824 127.006949 
L 219.081274 105.960229 
L 220.939673 90.329273 
L 222.798072 129.312501 
L 224.476626 137.187901 
L 226.335025 136.748476 
L 229.991875 122.304537 
L 231.790326 116.426521 
L 233.648725 113.835629 
L 235.507124 112.991021 
L 237.305574 114.571807 
L 239.163973 104.750385 
L 240.962424 83.67513 
L 242.820823 66.098151 
L 244.679222 105.47515 
L 246.417724 117.145579 
L 248.276123 115.661808 
L 250.074574 107.352691 
L 251.932973 104.191117 
L 253.731424 98.758233 
L 255.589823 98.678338 
L 257.448222 96.914933 
L 259.246672 98.821008 
L 261.105071 90.63744 
L 262.903522 68.164017 
L 264.761921 53.839921 
L 266.62032 96.053204 
L 268.298874 107.101591 
L 270.157273 108.094576 
L 271.955724 109.818033 
L 273.814123 103.48918 
L 275.612573 98.330222 
L 277.470972 103.083996 
L 279.329371 101.663 
L 281.127822 105.161275 
L 282.986221 99.699857 
L 284.784672 79.611881 
L 286.643071 71.747895 
L 288.50147 113.344843 
L 290.180024 124.707104 
L 292.038423 123.109197 
L 293.836873 119.650869 
L 295.695272 114.748718 
L 297.493723 110.582746 
L 299.352122 111.809711 
L 301.210521 113.567409 
L 303.008972 117.779035 
L 304.867371 110.571333 
L 306.665821 90.580372 
L 308.52422 79.560519 
L 310.382619 120.535425 
L 312.061173 132.331404 
L 313.919572 132.325698 
L 315.718023 128.131191 
L 317.576422 122.407259 
L 319.374873 118.794848 
L 321.233272 120.449823 
L 323.091671 118.304062 
L 324.890121 120.181603 
L 326.74852 111.90102 
L 328.546971 94.500952 
L 330.40537 83.65801 
L 332.263769 120.398462 
L 334.002271 129.963078 
L 335.86067 125.294906 
L 337.659121 120.318566 
L 339.51752 113.230707 
L 341.315971 107.809236 
L 343.17437 109.561227 
L 345.032769 109.361489 
L 346.831219 112.70568 
L 348.689618 103.671798 
L 350.488069 82.45958 
L 352.346468 72.135958 
L 354.204867 109.572641 
L 355.883421 117.516522 
L 357.74182 115.022645 
L 359.540271 108.556828 
L 361.39867 101.389073 
L 363.19712 95.36268 
L 365.055519 93.793307 
L 366.913918 92.583463 
L 368.712369 99.5686 
L 370.570768 92.577756 
L 372.369219 70.149987 
L 374.227618 58.936103 
L 376.086017 98.472892 
L 377.764571 108.653844 
L 379.62297 103.922897 
L 381.42142 102.713053 
L 385.07827 93.507966 
L 386.936669 93.861789 
L 388.795068 93.245453 
L 390.593519 99.060694 
L 392.451918 90.460529 
L 394.250368 66.063911 
L 396.108767 56.425106 
L 397.967166 92.942992 
L 399.64572 102.102424 
L 401.504119 95.311319 
L 403.30257 93.810427 
L 405.160969 86.071991 
L 406.95942 83.298481 
L 408.817819 83.132983 
L 410.676218 81.769055 
L 412.474668 87.32749 
L 414.333067 82.299789 
L 416.131518 55.728875 
L 417.989917 46.175673 
L 419.848316 86.00351 
L 421.586818 99.294673 
L 423.445217 96.230116 
L 425.243668 98.358756 
L 427.102067 95.254251 
L 428.900518 92.925872 
L 430.758917 94.883308 
L 432.617316 97.029069 
L 434.415766 106.816251 
L 436.274165 104.607715 
L 438.072616 92.417966 
L 439.931015 88.269114 
L 441.789414 130.259832 
L 443.467968 144.504033 
L 445.326367 146.124767 
L 447.124818 146.752517 
L 448.983217 141.285391 
L 450.781667 138.540415 
L 452.640066 141.633507 
L 454.498465 141.291098 
L 456.296916 148.584403 
L 458.155315 145.987804 
L 459.953766 127.914332 
L 461.812165 120.267205 
L 463.670564 152.978648 
L 465.349118 162.537557 
L 467.207517 157.612579 
L 469.005967 154.199906 
L 470.864366 147.865345 
L 472.662817 144.344242 
L 474.521216 144.155918 
L 476.379615 143.094451 
L 478.178066 148.955346 
L 480.036465 140.423663 
L 481.834916 121.054745 
L 483.693315 112.009449 
L 485.551714 143.956179 
L 487.230267 153.435193 
L 489.088666 149.623043 
L 490.887117 141.650627 
L 494.543967 130.619361 
L 496.402366 128.582029 
L 498.260765 128.610563 
L 500.059216 134.334495 
L 501.917615 126.658834 
L 503.716065 104.368029 
L 505.574464 95.556712 
L 507.432863 127.640405 
L 509.171366 139.864395 
L 511.029765 136.440309 
L 512.828215 131.298472 
L 514.686614 125.300613 
L 516.485065 122.995061 
L 518.343464 123.463019 
L 520.201863 123.035009 
L 522.000314 127.389306 
L 523.858713 119.468251 
L 525.657163 91.773096 
L 527.515562 86.094819 
L 529.373961 120.58108 
L 531.052515 131.190042 
L 532.910914 128.941558 
L 534.709365 123.411658 
L 538.366215 109.909342 
L 540.224614 106.936094 
L 542.083013 104.972951 
L 543.881463 109.487038 
L 545.739862 100.373261 
L 547.538313 75.092086 
L 549.396712 64.585846 
L 551.255111 102.747294 
L 552.933665 115.239504 
L 554.792064 111.609972 
L 556.590515 104.67049 
L 558.448914 98.855249 
L 560.247364 92.252468 
L 562.105763 90.277911 
L 563.964162 90.780111 
L 565.762613 95.436869 
L 567.621012 85.004818 
L 569.419463 61.452807 
L 571.277862 52.675731 
L 573.136261 88.457438 
L 574.814815 98.51284 
L 576.673214 94.70069 
L 578.471664 89.558853 
L 580.330063 82.2256 
L 582.128514 77.078057 
L 583.986913 75.565751 
L 585.845312 76.747061 
L 587.643763 83.190052 
L 589.502162 72.723759 
L 591.300612 49.953582 
L 593.159011 42.78012 
L 595.01741 76.781302 
L 596.755913 84.719477 
L 598.614312 79.571933 
L 600.412762 75.468736 
L 602.271161 69.933129 
L 604.069612 63.878202 
L 605.928011 62.588462 
L 607.78641 63.14773 
L 609.584861 69.670615 
L 611.44326 61.156053 
L 613.24171 40.571584 
L 615.100109 32.91875 
L 616.958508 63.729825 
L 618.637062 76.655752 
L 620.495461 76.250569 
L 622.293912 73.305854 
L 624.152311 69.145589 
L 625.950762 64.380401 
L 627.809161 64.488831 
L 629.66756 66.252235 
L 631.46601 73.722451 
L 633.324409 65.698675 
L 635.12286 39.11064 
L 636.981259 37.963571 
L 638.839658 71.479675 
L 640.518212 79.560519 
L 642.376611 77.631617 
L 644.175062 73.602608 
L 646.033461 66.994121 
L 647.831911 64.271972 
L 649.69031 63.724118 
L 651.548709 64.842653 
L 653.34716 73.648263 
L 655.205559 67.034068 
L 657.00401 38.796766 
L 658.862409 37.775246 
L 660.720808 69.487997 
L 662.399362 80.108373 
L 664.257761 79.583347 
L 666.056211 76.826957 
L 667.91461 73.020514 
L 669.713061 68.232499 
L 671.57146 67.63899 
L 673.429859 69.71627 
L 675.22831 77.603083 
L 675.22831 77.603083 
" clip-path="url(#p00a7d005fb)" style="fill: none; stroke: #0000ff; stroke-width: 1.5; stroke-linecap: round"/>
   </g>
   <g id="patch_3">
    <path d="M 39.224219 263.406875 
L 39.224219 21.943125 
" style="fill: none; stroke: #ffffff; stroke-linejoin: miter; stroke-linecap: square"/>
   </g>
   <g id="patch_4">
    <path d="M 705.514219 263.406875 
L 705.514219 21.943125 
" style="fill: none; stroke: #ffffff; stroke-linejoin: miter; stroke-linecap: square"/>
   </g>
   <g id="patch_5">
    <path d="M 39.224219 263.406875 
L 705.514219 263.406875 
" style="fill: none; stroke: #ffffff; stroke-linejoin: miter; stroke-linecap: square"/>
   </g>
   <g id="patch_6">
    <path d="M 39.224219 21.943125 
L 705.514219 21.943125 
" style="fill: none; stroke: #ffffff; stroke-linejoin: miter; stroke-linecap: square"/>
   </g>
   <g id="text_18">
    <!-- Original US Retail Employment Data -->
    <g style="fill: #262626" transform="translate(275.336094 15.943125) scale(0.12 -0.12)">
     <defs>
      <path id="ArialMT-4f" d="M 309 2231 
Q 309 3372 921 4017 
Q 1534 4663 2503 4663 
Q 3138 4663 3647 4359 
Q 4156 4056 4423 3514 
Q 4691 2972 4691 2284 
Q 4691 1588 4409 1038 
Q 4128 488 3612 205 
Q 3097 -78 2500 -78 
Q 1853 -78 1343 234 
Q 834 547 571 1087 
Q 309 1628 309 2231 
z
M 934 2222 
Q 934 1394 1379 917 
Q 1825 441 2497 441 
Q 3181 441 3623 922 
Q 4066 1403 4066 2288 
Q 4066 2847 3877 3264 
Q 3688 3681 3323 3911 
Q 2959 4141 2506 4141 
Q 1863 4141 1398 3698 
Q 934 3256 934 2222 
z
" transform="scale(0.015625)"/>
      <path id="ArialMT-72" d="M 416 0 
L 416 3319 
L 922 3319 
L 922 2816 
Q 1116 3169 1280 3281 
Q 1444 3394 1641 3394 
Q 1925 3394 2219 3213 
L 2025 2691 
Q 1819 2813 1613 2813 
Q 1428 2813 1281 2702 
Q 1134 2591 1072 2394 
Q 978 2094 978 1738 
L 978 0 
L 416 0 
z
" transform="scale(0.015625)"/>
      <path id="ArialMT-69" d="M 425 3934 
L 425 4581 
L 988 4581 
L 988 3934 
L 425 3934 
z
M 425 0 
L 425 3319 
L 988 3319 
L 988 0 
L 425 0 
z
" transform="scale(0.015625)"/>
      <path id="ArialMT-67" d="M 319 -275 
L 866 -356 
Q 900 -609 1056 -725 
Q 1266 -881 1628 -881 
Q 2019 -881 2231 -725 
Q 2444 -569 2519 -288 
Q 2563 -116 2559 434 
Q 2191 0 1641 0 
Q 956 0 581 494 
Q 206 988 206 1678 
Q 206 2153 378 2554 
Q 550 2956 876 3175 
Q 1203 3394 1644 3394 
Q 2231 3394 2613 2919 
L 2613 3319 
L 3131 3319 
L 3131 450 
Q 3131 -325 2973 -648 
Q 2816 -972 2473 -1159 
Q 2131 -1347 1631 -1347 
Q 1038 -1347 672 -1080 
Q 306 -813 319 -275 
z
M 784 1719 
Q 784 1066 1043 766 
Q 1303 466 1694 466 
Q 2081 466 2343 764 
Q 2606 1063 2606 1700 
Q 2606 2309 2336 2618 
Q 2066 2928 1684 2928 
Q 1309 2928 1046 2623 
Q 784 2319 784 1719 
z
" transform="scale(0.015625)"/>
      <path id="ArialMT-6e" d="M 422 0 
L 422 3319 
L 928 3319 
L 928 2847 
Q 1294 3394 1984 3394 
Q 2284 3394 2536 3286 
Q 2788 3178 2913 3003 
Q 3038 2828 3088 2588 
Q 3119 2431 3119 2041 
L 3119 0 
L 2556 0 
L 2556 2019 
Q 2556 2363 2490 2533 
Q 2425 2703 2258 2804 
Q 2091 2906 1866 2906 
Q 1506 2906 1245 2678 
Q 984 2450 984 1813 
L 984 0 
L 422 0 
z
" transform="scale(0.015625)"/>
      <path id="ArialMT-61" d="M 2588 409 
Q 2275 144 1986 34 
Q 1697 -75 1366 -75 
Q 819 -75 525 192 
Q 231 459 231 875 
Q 231 1119 342 1320 
Q 453 1522 633 1644 
Q 813 1766 1038 1828 
Q 1203 1872 1538 1913 
Q 2219 1994 2541 2106 
Q 2544 2222 2544 2253 
Q 2544 2597 2384 2738 
Q 2169 2928 1744 2928 
Q 1347 2928 1158 2789 
Q 969 2650 878 2297 
L 328 2372 
Q 403 2725 575 2942 
Q 747 3159 1072 3276 
Q 1397 3394 1825 3394 
Q 2250 3394 2515 3294 
Q 2781 3194 2906 3042 
Q 3031 2891 3081 2659 
Q 3109 2516 3109 2141 
L 3109 1391 
Q 3109 606 3145 398 
Q 3181 191 3288 0 
L 2700 0 
Q 2613 175 2588 409 
z
M 2541 1666 
Q 2234 1541 1622 1453 
Q 1275 1403 1131 1340 
Q 988 1278 909 1158 
Q 831 1038 831 891 
Q 831 666 1001 516 
Q 1172 366 1500 366 
Q 1825 366 2078 508 
Q 2331 650 2450 897 
Q 2541 1088 2541 1459 
L 2541 1666 
z
" transform="scale(0.015625)"/>
      <path id="ArialMT-6c" d="M 409 0 
L 409 4581 
L 972 4581 
L 972 0 
L 409 0 
z
" transform="scale(0.015625)"/>
      <path id="ArialMT-20" transform="scale(0.015625)"/>
      <path id="ArialMT-55" d="M 3500 4581 
L 4106 4581 
L 4106 1934 
Q 4106 1244 3950 837 
Q 3794 431 3386 176 
Q 2978 -78 2316 -78 
Q 1672 -78 1262 144 
Q 853 366 678 786 
Q 503 1206 503 1934 
L 503 4581 
L 1109 4581 
L 1109 1938 
Q 1109 1341 1220 1058 
Q 1331 775 1601 622 
Q 1872 469 2263 469 
Q 2931 469 3215 772 
Q 3500 1075 3500 1938 
L 3500 4581 
z
" transform="scale(0.015625)"/>
      <path id="ArialMT-53" d="M 288 1472 
L 859 1522 
Q 900 1178 1048 958 
Q 1197 738 1509 602 
Q 1822 466 2213 466 
Q 2559 466 2825 569 
Q 3091 672 3220 851 
Q 3350 1031 3350 1244 
Q 3350 1459 3225 1620 
Q 3100 1781 2813 1891 
Q 2628 1963 1997 2114 
Q 1366 2266 1113 2400 
Q 784 2572 623 2826 
Q 463 3081 463 3397 
Q 463 3744 659 4045 
Q 856 4347 1234 4503 
Q 1613 4659 2075 4659 
Q 2584 4659 2973 4495 
Q 3363 4331 3572 4012 
Q 3781 3694 3797 3291 
L 3216 3247 
Q 3169 3681 2898 3903 
Q 2628 4125 2100 4125 
Q 1550 4125 1298 3923 
Q 1047 3722 1047 3438 
Q 1047 3191 1225 3031 
Q 1400 2872 2139 2705 
Q 2878 2538 3153 2413 
Q 3553 2228 3743 1945 
Q 3934 1663 3934 1294 
Q 3934 928 3725 604 
Q 3516 281 3123 101 
Q 2731 -78 2241 -78 
Q 1619 -78 1198 103 
Q 778 284 539 648 
Q 300 1013 288 1472 
z
" transform="scale(0.015625)"/>
      <path id="ArialMT-52" d="M 503 0 
L 503 4581 
L 2534 4581 
Q 3147 4581 3465 4457 
Q 3784 4334 3975 4021 
Q 4166 3709 4166 3331 
Q 4166 2844 3850 2509 
Q 3534 2175 2875 2084 
Q 3116 1969 3241 1856 
Q 3506 1613 3744 1247 
L 4541 0 
L 3778 0 
L 3172 953 
Q 2906 1366 2734 1584 
Q 2563 1803 2427 1890 
Q 2291 1978 2150 2013 
Q 2047 2034 1813 2034 
L 1109 2034 
L 1109 0 
L 503 0 
z
M 1109 2559 
L 2413 2559 
Q 2828 2559 3062 2645 
Q 3297 2731 3419 2920 
Q 3541 3109 3541 3331 
Q 3541 3656 3305 3865 
Q 3069 4075 2559 4075 
L 1109 4075 
L 1109 2559 
z
" transform="scale(0.015625)"/>
      <path id="ArialMT-65" d="M 2694 1069 
L 3275 997 
Q 3138 488 2766 206 
Q 2394 -75 1816 -75 
Q 1088 -75 661 373 
Q 234 822 234 1631 
Q 234 2469 665 2931 
Q 1097 3394 1784 3394 
Q 2450 3394 2872 2941 
Q 3294 2488 3294 1666 
Q 3294 1616 3291 1516 
L 816 1516 
Q 847 969 1125 678 
Q 1403 388 1819 388 
Q 2128 388 2347 550 
Q 2566 713 2694 1069 
z
M 847 1978 
L 2700 1978 
Q 2663 2397 2488 2606 
Q 2219 2931 1791 2931 
Q 1403 2931 1139 2672 
Q 875 2413 847 1978 
z
" transform="scale(0.015625)"/>
      <path id="ArialMT-74" d="M 1650 503 
L 1731 6 
Q 1494 -44 1306 -44 
Q 1000 -44 831 53 
Q 663 150 594 308 
Q 525 466 525 972 
L 525 2881 
L 113 2881 
L 113 3319 
L 525 3319 
L 525 4141 
L 1084 4478 
L 1084 3319 
L 1650 3319 
L 1650 2881 
L 1084 2881 
L 1084 941 
Q 1084 700 1114 631 
Q 1144 563 1211 522 
Q 1278 481 1403 481 
Q 1497 481 1650 503 
z
" transform="scale(0.015625)"/>
      <path id="ArialMT-45" d="M 506 0 
L 506 4581 
L 3819 4581 
L 3819 4041 
L 1113 4041 
L 1113 2638 
L 3647 2638 
L 3647 2100 
L 1113 2100 
L 1113 541 
L 3925 541 
L 3925 0 
L 506 0 
z
" transform="scale(0.015625)"/>
      <path id="ArialMT-6d" d="M 422 0 
L 422 3319 
L 925 3319 
L 925 2853 
Q 1081 3097 1340 3245 
Q 1600 3394 1931 3394 
Q 2300 3394 2536 3241 
Q 2772 3088 2869 2813 
Q 3263 3394 3894 3394 
Q 4388 3394 4653 3120 
Q 4919 2847 4919 2278 
L 4919 0 
L 4359 0 
L 4359 2091 
Q 4359 2428 4304 2576 
Q 4250 2725 4106 2815 
Q 3963 2906 3769 2906 
Q 3419 2906 3187 2673 
Q 2956 2441 2956 1928 
L 2956 0 
L 2394 0 
L 2394 2156 
Q 2394 2531 2256 2718 
Q 2119 2906 1806 2906 
Q 1569 2906 1367 2781 
Q 1166 2656 1075 2415 
Q 984 2175 984 1722 
L 984 0 
L 422 0 
z
" transform="scale(0.015625)"/>
      <path id="ArialMT-70" d="M 422 -1272 
L 422 3319 
L 934 3319 
L 934 2888 
Q 1116 3141 1344 3267 
Q 1572 3394 1897 3394 
Q 2322 3394 2647 3175 
Q 2972 2956 3137 2557 
Q 3303 2159 3303 1684 
Q 3303 1175 3120 767 
Q 2938 359 2589 142 
Q 2241 -75 1856 -75 
Q 1575 -75 1351 44 
Q 1128 163 984 344 
L 984 -1272 
L 422 -1272 
z
M 931 1641 
Q 931 1000 1190 694 
Q 1450 388 1819 388 
Q 2194 388 2461 705 
Q 2728 1022 2728 1688 
Q 2728 2322 2467 2637 
Q 2206 2953 1844 2953 
Q 1484 2953 1207 2617 
Q 931 2281 931 1641 
z
" transform="scale(0.015625)"/>
      <path id="ArialMT-6f" d="M 213 1659 
Q 213 2581 725 3025 
Q 1153 3394 1769 3394 
Q 2453 3394 2887 2945 
Q 3322 2497 3322 1706 
Q 3322 1066 3130 698 
Q 2938 331 2570 128 
Q 2203 -75 1769 -75 
Q 1072 -75 642 372 
Q 213 819 213 1659 
z
M 791 1659 
Q 791 1022 1069 705 
Q 1347 388 1769 388 
Q 2188 388 2466 706 
Q 2744 1025 2744 1678 
Q 2744 2294 2464 2611 
Q 2184 2928 1769 2928 
Q 1347 2928 1069 2612 
Q 791 2297 791 1659 
z
" transform="scale(0.015625)"/>
      <path id="ArialMT-79" d="M 397 -1278 
L 334 -750 
Q 519 -800 656 -800 
Q 844 -800 956 -737 
Q 1069 -675 1141 -563 
Q 1194 -478 1313 -144 
Q 1328 -97 1363 -6 
L 103 3319 
L 709 3319 
L 1400 1397 
Q 1534 1031 1641 628 
Q 1738 1016 1872 1384 
L 2581 3319 
L 3144 3319 
L 1881 -56 
Q 1678 -603 1566 -809 
Q 1416 -1088 1222 -1217 
Q 1028 -1347 759 -1347 
Q 597 -1347 397 -1278 
z
" transform="scale(0.015625)"/>
      <path id="ArialMT-44" d="M 494 0 
L 494 4581 
L 2072 4581 
Q 2606 4581 2888 4516 
Q 3281 4425 3559 4188 
Q 3922 3881 4101 3404 
Q 4281 2928 4281 2316 
Q 4281 1794 4159 1391 
Q 4038 988 3847 723 
Q 3656 459 3429 307 
Q 3203 156 2883 78 
Q 2563 0 2147 0 
L 494 0 
z
M 1100 541 
L 2078 541 
Q 2531 541 2789 625 
Q 3047 709 3200 863 
Q 3416 1078 3536 1442 
Q 3656 1806 3656 2325 
Q 3656 3044 3420 3430 
Q 3184 3816 2847 3947 
Q 2603 4041 2063 4041 
L 1100 4041 
L 1100 541 
z
" transform="scale(0.015625)"/>
     </defs>
     <use xlink:href="#ArialMT-4f"/>
     <use xlink:href="#ArialMT-72" x="77.783203"/>
     <use xlink:href="#ArialMT-69" x="111.083984"/>
     <use xlink:href="#ArialMT-67" x="133.300781"/>
     <use xlink:href="#ArialMT-69" x="188.916016"/>
     <use xlink:href="#ArialMT-6e" x="211.132812"/>
     <use xlink:href="#ArialMT-61" x="266.748047"/>
     <use xlink:href="#ArialMT-6c" x="322.363281"/>
     <use xlink:href="#ArialMT-20" x="344.580078"/>
     <use xlink:href="#ArialMT-55" x="372.363281"/>
     <use xlink:href="#ArialMT-53" x="444.580078"/>
     <use xlink:href="#ArialMT-20" x="511.279297"/>
     <use xlink:href="#ArialMT-52" x="539.0625"/>
     <use xlink:href="#ArialMT-65" x="611.279297"/>
     <use xlink:href="#ArialMT-74" x="666.894531"/>
     <use xlink:href="#ArialMT-61" x="694.677734"/>
     <use xlink:href="#ArialMT-69" x="750.292969"/>
     <use xlink:href="#ArialMT-6c" x="772.509766"/>
     <use xlink:href="#ArialMT-20" x="794.726562"/>
     <use xlink:href="#ArialMT-45" x="822.509766"/>
     <use xlink:href="#ArialMT-6d" x="889.208984"/>
     <use xlink:href="#ArialMT-70" x="972.509766"/>
     <use xlink:href="#ArialMT-6c" x="1028.125"/>
     <use xlink:href="#ArialMT-6f" x="1050.341797"/>
     <use xlink:href="#ArialMT-79" x="1105.957031"/>
     <use xlink:href="#ArialMT-6d" x="1155.957031"/>
     <use xlink:href="#ArialMT-65" x="1239.257812"/>
     <use xlink:href="#ArialMT-6e" x="1294.873047"/>
     <use xlink:href="#ArialMT-74" x="1350.488281"/>
     <use xlink:href="#ArialMT-20" x="1378.271484"/>
     <use xlink:href="#ArialMT-44" x="1406.054688"/>
     <use xlink:href="#ArialMT-61" x="1478.271484"/>
     <use xlink:href="#ArialMT-74" x="1533.886719"/>
     <use xlink:href="#ArialMT-61" x="1561.669922"/>
    </g>
   </g>
  </g>
  <g id="axes_2">
   <g id="patch_7">
    <path d="M 39.224219 546.006875 
L 705.514219 546.006875 
L 705.514219 304.543125 
L 39.224219 304.543125 
z
" style="fill: #e5e5e5"/>
   </g>
   <g id="matplotlib.axis_3">
    <g id="xtick_9">
     <g id="line2d_19">
      <path d="M 67.711677 546.006875 
L 67.711677 304.543125 
" clip-path="url(#pf7f7fec268)" style="fill: none; stroke: #ffffff; stroke-width: 0.8; stroke-linecap: round"/>
     </g>
     <g id="text_19">
      <!-- 1992 -->
      <g style="fill: #555555" transform="translate(57.70199 559.448906) scale(0.09 -0.09)">
       <use xlink:href="#ArialMT-31"/>
       <use xlink:href="#ArialMT-39" x="55.615234"/>
       <use xlink:href="#ArialMT-39" x="111.230469"/>
       <use xlink:href="#ArialMT-32" x="166.845703"/>
      </g>
     </g>
    </g>
    <g id="xtick_10">
     <g id="line2d_20">
      <path d="M 155.296224 546.006875 
L 155.296224 304.543125 
" clip-path="url(#pf7f7fec268)" style="fill: none; stroke: #ffffff; stroke-width: 0.8; stroke-linecap: round"/>
     </g>
     <g id="text_20">
      <!-- 1996 -->
      <g style="fill: #555555" transform="translate(145.286537 559.448906) scale(0.09 -0.09)">
       <use xlink:href="#ArialMT-31"/>
       <use xlink:href="#ArialMT-39" x="55.615234"/>
       <use xlink:href="#ArialMT-39" x="111.230469"/>
       <use xlink:href="#ArialMT-36" x="166.845703"/>
      </g>
     </g>
    </g>
    <g id="xtick_11">
     <g id="line2d_21">
      <path d="M 242.880771 546.006875 
L 242.880771 304.543125 
" clip-path="url(#pf7f7fec268)" style="fill: none; stroke: #ffffff; stroke-width: 0.8; stroke-linecap: round"/>
     </g>
     <g id="text_21">
      <!-- 2000 -->
      <g style="fill: #555555" transform="translate(232.871084 559.448906) scale(0.09 -0.09)">
       <use xlink:href="#ArialMT-32"/>
       <use xlink:href="#ArialMT-30" x="55.615234"/>
       <use xlink:href="#ArialMT-30" x="111.230469"/>
       <use xlink:href="#ArialMT-30" x="166.845703"/>
      </g>
     </g>
    </g>
    <g id="xtick_12">
     <g id="line2d_22">
      <path d="M 330.465318 546.006875 
L 330.465318 304.543125 
" clip-path="url(#pf7f7fec268)" style="fill: none; stroke: #ffffff; stroke-width: 0.8; stroke-linecap: round"/>
     </g>
     <g id="text_22">
      <!-- 2004 -->
      <g style="fill: #555555" transform="translate(320.455631 559.448906) scale(0.09 -0.09)">
       <use xlink:href="#ArialMT-32"/>
       <use xlink:href="#ArialMT-30" x="55.615234"/>
       <use xlink:href="#ArialMT-30" x="111.230469"/>
       <use xlink:href="#ArialMT-34" x="166.845703"/>
      </g>
     </g>
    </g>
    <g id="xtick_13">
     <g id="line2d_23">
      <path d="M 418.049865 546.006875 
L 418.049865 304.543125 
" clip-path="url(#pf7f7fec268)" style="fill: none; stroke: #ffffff; stroke-width: 0.8; stroke-linecap: round"/>
     </g>
     <g id="text_23">
      <!-- 2008 -->
      <g style="fill: #555555" transform="translate(408.040178 559.448906) scale(0.09 -0.09)">
       <use xlink:href="#ArialMT-32"/>
       <use xlink:href="#ArialMT-30" x="55.615234"/>
       <use xlink:href="#ArialMT-30" x="111.230469"/>
       <use xlink:href="#ArialMT-38" x="166.845703"/>
      </g>
     </g>
    </g>
    <g id="xtick_14">
     <g id="line2d_24">
      <path d="M 505.634413 546.006875 
L 505.634413 304.543125 
" clip-path="url(#pf7f7fec268)" style="fill: none; stroke: #ffffff; stroke-width: 0.8; stroke-linecap: round"/>
     </g>
     <g id="text_24">
      <!-- 2012 -->
      <g style="fill: #555555" transform="translate(495.624725 559.448906) scale(0.09 -0.09)">
       <use xlink:href="#ArialMT-32"/>
       <use xlink:href="#ArialMT-30" x="55.615234"/>
       <use xlink:href="#ArialMT-31" x="111.230469"/>
       <use xlink:href="#ArialMT-32" x="166.845703"/>
      </g>
     </g>
    </g>
    <g id="xtick_15">
     <g id="line2d_25">
      <path d="M 593.21896 546.006875 
L 593.21896 304.543125 
" clip-path="url(#pf7f7fec268)" style="fill: none; stroke: #ffffff; stroke-width: 0.8; stroke-linecap: round"/>
     </g>
     <g id="text_25">
      <!-- 2016 -->
      <g style="fill: #555555" transform="translate(583.209272 559.448906) scale(0.09 -0.09)">
       <use xlink:href="#ArialMT-32"/>
       <use xlink:href="#ArialMT-30" x="55.615234"/>
       <use xlink:href="#ArialMT-31" x="111.230469"/>
       <use xlink:href="#ArialMT-36" x="166.845703"/>
      </g>
     </g>
    </g>
    <g id="xtick_16">
     <g id="line2d_26">
      <path d="M 680.803507 546.006875 
L 680.803507 304.543125 
" clip-path="url(#pf7f7fec268)" style="fill: none; stroke: #ffffff; stroke-width: 0.8; stroke-linecap: round"/>
     </g>
     <g id="text_26">
      <!-- 2020 -->
      <g style="fill: #555555" transform="translate(670.793819 559.448906) scale(0.09 -0.09)">
       <use xlink:href="#ArialMT-32"/>
       <use xlink:href="#ArialMT-30" x="55.615234"/>
       <use xlink:href="#ArialMT-32" x="111.230469"/>
       <use xlink:href="#ArialMT-30" x="166.845703"/>
      </g>
     </g>
    </g>
   </g>
   <g id="matplotlib.axis_4">
    <g id="ytick_10">
     <g id="line2d_27">
      <path d="M 39.224219 519.523886 
L 705.514219 519.523886 
" clip-path="url(#pf7f7fec268)" style="fill: none; stroke: #ffffff; stroke-width: 0.8; stroke-linecap: round"/>
     </g>
     <g id="text_27">
      <!-- 13000 -->
      <g style="fill: #555555" transform="translate(7.2 522.744902) scale(0.09 -0.09)">
       <use xlink:href="#ArialMT-31"/>
       <use xlink:href="#ArialMT-33" x="55.615234"/>
       <use xlink:href="#ArialMT-30" x="111.230469"/>
       <use xlink:href="#ArialMT-30" x="166.845703"/>
       <use xlink:href="#ArialMT-30" x="222.460938"/>
      </g>
     </g>
    </g>
    <g id="ytick_11">
     <g id="line2d_28">
      <path d="M 39.224219 484.966071 
L 705.514219 484.966071 
" clip-path="url(#pf7f7fec268)" style="fill: none; stroke: #ffffff; stroke-width: 0.8; stroke-linecap: round"/>
     </g>
     <g id="text_28">
      <!-- 13500 -->
      <g style="fill: #555555" transform="translate(7.2 488.187086) scale(0.09 -0.09)">
       <use xlink:href="#ArialMT-31"/>
       <use xlink:href="#ArialMT-33" x="55.615234"/>
       <use xlink:href="#ArialMT-35" x="111.230469"/>
       <use xlink:href="#ArialMT-30" x="166.845703"/>
       <use xlink:href="#ArialMT-30" x="222.460938"/>
      </g>
     </g>
    </g>
    <g id="ytick_12">
     <g id="line2d_29">
      <path d="M 39.224219 450.408255 
L 705.514219 450.408255 
" clip-path="url(#pf7f7fec268)" style="fill: none; stroke: #ffffff; stroke-width: 0.8; stroke-linecap: round"/>
     </g>
     <g id="text_29">
      <!-- 14000 -->
      <g style="fill: #555555" transform="translate(7.2 453.629271) scale(0.09 -0.09)">
       <use xlink:href="#ArialMT-31"/>
       <use xlink:href="#ArialMT-34" x="55.615234"/>
       <use xlink:href="#ArialMT-30" x="111.230469"/>
       <use xlink:href="#ArialMT-30" x="166.845703"/>
       <use xlink:href="#ArialMT-30" x="222.460938"/>
      </g>
     </g>
    </g>
    <g id="ytick_13">
     <g id="line2d_30">
      <path d="M 39.224219 415.850439 
L 705.514219 415.850439 
" clip-path="url(#pf7f7fec268)" style="fill: none; stroke: #ffffff; stroke-width: 0.8; stroke-linecap: round"/>
     </g>
     <g id="text_30">
      <!-- 14500 -->
      <g style="fill: #555555" transform="translate(7.2 419.071455) scale(0.09 -0.09)">
       <use xlink:href="#ArialMT-31"/>
       <use xlink:href="#ArialMT-34" x="55.615234"/>
       <use xlink:href="#ArialMT-35" x="111.230469"/>
       <use xlink:href="#ArialMT-30" x="166.845703"/>
       <use xlink:href="#ArialMT-30" x="222.460938"/>
      </g>
     </g>
    </g>
    <g id="ytick_14">
     <g id="line2d_31">
      <path d="M 39.224219 381.292624 
L 705.514219 381.292624 
" clip-path="url(#pf7f7fec268)" style="fill: none; stroke: #ffffff; stroke-width: 0.8; stroke-linecap: round"/>
     </g>
     <g id="text_31">
      <!-- 15000 -->
      <g style="fill: #555555" transform="translate(7.2 384.513639) scale(0.09 -0.09)">
       <use xlink:href="#ArialMT-31"/>
       <use xlink:href="#ArialMT-35" x="55.615234"/>
       <use xlink:href="#ArialMT-30" x="111.230469"/>
       <use xlink:href="#ArialMT-30" x="166.845703"/>
       <use xlink:href="#ArialMT-30" x="222.460938"/>
      </g>
     </g>
    </g>
    <g id="ytick_15">
     <g id="line2d_32">
      <path d="M 39.224219 346.734808 
L 705.514219 346.734808 
" clip-path="url(#pf7f7fec268)" style="fill: none; stroke: #ffffff; stroke-width: 0.8; stroke-linecap: round"/>
     </g>
     <g id="text_32">
      <!-- 15500 -->
      <g style="fill: #555555" transform="translate(7.2 349.955824) scale(0.09 -0.09)">
       <use xlink:href="#ArialMT-31"/>
       <use xlink:href="#ArialMT-35" x="55.615234"/>
       <use xlink:href="#ArialMT-35" x="111.230469"/>
       <use xlink:href="#ArialMT-30" x="166.845703"/>
       <use xlink:href="#ArialMT-30" x="222.460938"/>
      </g>
     </g>
    </g>
    <g id="ytick_16">
     <g id="line2d_33">
      <path d="M 39.224219 312.176993 
L 705.514219 312.176993 
" clip-path="url(#pf7f7fec268)" style="fill: none; stroke: #ffffff; stroke-width: 0.8; stroke-linecap: round"/>
     </g>
     <g id="text_33">
      <!-- 16000 -->
      <g style="fill: #555555" transform="translate(7.2 315.398008) scale(0.09 -0.09)">
       <use xlink:href="#ArialMT-31"/>
       <use xlink:href="#ArialMT-36" x="55.615234"/>
       <use xlink:href="#ArialMT-30" x="111.230469"/>
       <use xlink:href="#ArialMT-30" x="166.845703"/>
       <use xlink:href="#ArialMT-30" x="222.460938"/>
      </g>
     </g>
    </g>
   </g>
   <g id="line2d_34">
    <path d="M 69.510128 534.227388 
L 71.24863 535.03125 
L 73.107029 533.79672 
L 74.90548 533.062856 
L 76.763879 531.892391 
L 78.562329 531.407591 
L 80.420729 531.692647 
L 84.077578 531.122476 
L 85.935977 529.798616 
L 87.734428 527.949882 
L 89.592827 527.411843 
L 91.451226 528.162845 
L 93.12978 525.019266 
L 94.988179 525.745058 
L 96.786629 524.551511 
L 98.645029 522.695145 
L 100.443479 520.673604 
L 102.301878 517.615532 
L 107.817127 511.11264 
L 109.615578 509.119866 
L 111.473977 505.782635 
L 113.332376 505.515931 
L 115.01093 501.487014 
L 116.869329 497.561513 
L 118.667779 494.486963 
L 120.526178 492.290155 
L 122.324629 488.913701 
L 124.183028 484.671633 
L 126.041427 480.993809 
L 127.839878 476.623298 
L 129.698277 473.961303 
L 131.496727 467.519396 
L 133.355126 464.796511 
L 135.213525 460.726179 
L 136.892079 460.553892 
L 138.750478 463.159698 
L 140.548929 459.714037 
L 142.407328 459.714547 
L 144.205779 457.695772 
L 146.064178 457.423207 
L 149.721027 455.120292 
L 151.579426 455.487132 
L 153.377877 452.699375 
L 155.236276 452.437074 
L 157.094675 450.019563 
L 158.833177 448.978475 
L 160.691576 448.010307 
L 162.490027 448.060172 
L 164.348426 443.149136 
L 168.005276 439.147352 
L 169.863675 437.760867 
L 171.662125 436.159783 
L 173.520524 433.119384 
L 175.318975 430.867281 
L 177.177374 428.995386 
L 179.035773 429.839641 
L 180.714327 428.713554 
L 182.572726 427.11475 
L 184.371177 426.138903 
L 186.229576 425.909976 
L 188.028026 424.804024 
L 189.886425 423.93935 
L 191.744824 421.675318 
L 193.543275 420.91186 
L 195.401674 418.457147 
L 197.200125 416.371553 
L 199.058524 414.584008 
L 200.916923 414.036819 
L 202.595477 414.360986 
L 204.453876 414.410333 
L 206.252326 412.725342 
L 208.110725 410.141967 
L 209.909176 408.735867 
L 211.767575 406.787267 
L 213.625974 405.871467 
L 215.424425 403.665366 
L 217.282824 403.263168 
L 219.081274 401.249863 
L 220.939673 399.697242 
L 222.798072 396.465447 
L 224.476626 392.629746 
L 226.335025 391.049296 
L 228.133476 387.706771 
L 231.790326 384.138314 
L 233.648725 380.792566 
L 235.507124 380.232121 
L 237.305574 378.975059 
L 239.163973 376.154704 
L 240.962424 374.122991 
L 242.820823 368.647878 
L 244.679222 366.212296 
L 246.417724 367.912313 
L 248.276123 366.190753 
L 250.074574 361.100903 
L 251.932973 364.576607 
L 253.731424 363.613124 
L 257.448222 361.077057 
L 259.246672 360.13764 
L 261.105071 359.0182 
L 262.903522 355.690992 
L 264.761921 352.851695 
L 266.62032 354.176901 
L 268.298874 355.020891 
L 270.157273 357.244088 
L 271.955724 364.570936 
L 273.814123 363.944037 
L 275.612573 363.684267 
L 277.470972 367.569095 
L 279.329371 366.867909 
L 281.127822 367.889242 
L 282.986221 370.166462 
L 284.784672 369.967136 
L 286.643071 373.808082 
L 288.50147 374.684248 
L 290.180024 375.716145 
L 292.038423 375.696106 
L 293.836873 376.628049 
L 295.695272 378.047799 
L 297.493723 379.228475 
L 299.352122 378.207561 
L 301.210521 381.051813 
L 303.008972 382.796304 
L 304.867371 383.09596 
L 306.665821 383.003887 
L 308.52422 381.84522 
L 312.061173 384.64588 
L 313.919572 387.25581 
L 317.576422 388.143157 
L 319.374873 389.922403 
L 321.233272 389.069949 
L 323.091671 386.249255 
L 324.890121 384.937915 
L 326.74852 384.124672 
L 328.546971 387.153897 
L 330.40537 386.13416 
L 332.263769 383.298327 
L 334.002271 382.426332 
L 335.86067 379.629797 
L 337.659121 378.737067 
L 339.51752 377.594543 
L 341.315971 376.807688 
L 343.17437 375.467415 
L 345.032769 374.933304 
L 346.831219 375.709644 
L 348.689618 373.400014 
L 350.488069 372.232871 
L 352.346468 371.506326 
L 354.204867 370.224922 
L 355.883421 367.665931 
L 357.74182 368.53063 
L 359.540271 364.768938 
L 361.39867 363.669997 
L 363.19712 361.429998 
L 365.055519 356.277058 
L 366.913918 354.839571 
L 368.712369 359.897891 
L 370.570768 358.912018 
L 372.369219 357.279269 
L 374.227618 354.908327 
L 376.086017 356.738712 
L 377.764571 357.040245 
L 379.62297 356.509586 
L 381.42142 357.571924 
L 383.279819 360.12608 
L 386.936669 356.772907 
L 388.795068 356.464989 
L 390.593519 359.657851 
L 392.451918 356.111738 
L 394.250368 351.272986 
L 396.108767 350.468469 
L 397.967166 348.748805 
L 399.64572 348.716306 
L 401.504119 348.097402 
L 403.30257 346.622205 
L 405.160969 346.520342 
L 408.817819 345.333716 
L 410.676218 344.396966 
L 412.474668 345.849626 
L 414.333067 346.530129 
L 416.131518 337.354832 
L 417.989917 336.264821 
L 419.848316 339.639236 
L 421.586818 345.176167 
L 423.445217 348.019643 
L 425.243668 352.62888 
L 427.102067 358.109072 
L 428.900518 357.815476 
L 430.758917 360.228331 
L 432.617316 363.942194 
L 434.415766 369.060307 
L 436.274165 373.940616 
L 438.072616 380.69702 
L 439.931015 385.607442 
L 443.467968 400.071255 
L 445.326367 408.092682 
L 447.124818 412.102131 
L 448.983217 413.956635 
L 450.781667 413.714277 
L 452.640066 417.636961 
L 454.498465 417.893619 
L 456.296916 418.813158 
L 458.155315 424.054976 
L 459.953766 423.442724 
L 461.812165 423.828161 
L 463.670564 421.16547 
L 465.349118 421.752353 
L 467.207517 421.23375 
L 469.005967 421.565755 
L 470.864366 421.511258 
L 472.662817 420.894722 
L 474.521216 420.73239 
L 478.178066 418.168786 
L 480.036465 416.506387 
L 481.834916 416.642861 
L 483.693315 414.925315 
L 485.551714 412.660201 
L 487.230267 411.2374 
L 489.088666 410.611594 
L 490.887117 406.663294 
L 492.745516 406.101008 
L 494.543967 403.422094 
L 496.402366 401.161753 
L 498.260765 400.903375 
L 500.059216 399.837391 
L 503.716065 398.777374 
L 505.574464 396.53757 
L 507.432863 394.020777 
L 509.171366 394.639153 
L 511.029765 393.38332 
L 512.828215 393.302172 
L 514.686614 392.122202 
L 516.485065 393.627997 
L 518.343464 394.961304 
L 520.201863 393.960261 
L 522.000314 391.542563 
L 523.858713 391.027631 
L 525.657163 385.514263 
L 527.515562 386.408296 
L 529.373961 385.872568 
L 531.052515 383.780792 
L 532.910914 383.622991 
L 534.709365 383.057395 
L 536.567764 380.626383 
L 538.366215 377.60989 
L 540.224614 374.892994 
L 542.083013 371.64652 
L 543.881463 369.513382 
L 545.739862 368.240646 
L 547.538313 366.160564 
L 549.396712 360.591469 
L 551.255111 363.881897 
L 552.933665 364.427625 
L 554.792064 362.73292 
L 556.590515 359.937647 
L 558.448914 359.230375 
L 560.247364 356.68143 
L 562.105763 355.189333 
L 563.964162 354.405704 
L 567.621012 349.990192 
L 569.419463 349.041423 
L 571.277862 345.861072 
L 573.136261 345.656076 
L 574.814815 344.626904 
L 576.673214 343.062622 
L 578.471664 341.93447 
L 580.330063 339.243138 
L 582.128514 338.915916 
L 583.986913 337.837962 
L 587.643763 336.822753 
L 589.502162 334.786836 
L 591.300612 334.313163 
L 593.159011 333.238553 
L 595.01741 330.702599 
L 596.755913 328.991057 
L 598.614312 325.680671 
L 602.271161 324.777637 
L 604.069612 323.126188 
L 605.928011 322.107411 
L 607.78641 320.777453 
L 609.584861 319.763588 
L 611.44326 319.574442 
L 613.24171 323.807873 
L 615.100109 320.094621 
L 616.958508 315.51875 
L 618.637062 319.999652 
L 620.495461 321.941302 
L 622.293912 322.715362 
L 624.152311 323.745302 
L 625.950762 323.537638 
L 627.809161 324.317478 
L 629.66756 324.591939 
L 631.46601 324.392282 
L 633.324409 324.009507 
L 635.12286 323.080574 
L 636.981259 325.316275 
L 638.839658 325.489096 
L 640.518212 324.390957 
L 642.376611 323.846512 
L 644.175062 323.079879 
L 646.033461 320.877413 
L 647.831911 323.143678 
L 649.69031 323.249669 
L 651.548709 322.834237 
L 653.34716 324.024077 
L 655.205559 324.53161 
L 657.00401 323.974712 
L 658.862409 324.24765 
L 660.720808 323.73674 
L 662.399362 325.868838 
L 664.257761 326.35226 
L 666.056211 326.96478 
L 667.91461 327.937269 
L 669.713061 327.654534 
L 671.57146 327.84908 
L 673.429859 328.665556 
L 675.22831 328.51204 
L 675.22831 328.51204 
" clip-path="url(#pf7f7fec268)" style="fill: none; stroke: #ffa500; stroke-width: 1.5; stroke-linecap: round"/>
   </g>
   <g id="patch_8">
    <path d="M 39.224219 546.006875 
L 39.224219 304.543125 
" style="fill: none; stroke: #ffffff; stroke-linejoin: miter; stroke-linecap: square"/>
   </g>
   <g id="patch_9">
    <path d="M 705.514219 546.006875 
L 705.514219 304.543125 
" style="fill: none; stroke: #ffffff; stroke-linejoin: miter; stroke-linecap: square"/>
   </g>
   <g id="patch_10">
    <path d="M 39.224219 546.006875 
L 705.514219 546.006875 
" style="fill: none; stroke: #ffffff; stroke-linejoin: miter; stroke-linecap: square"/>
   </g>
   <g id="patch_11">
    <path d="M 39.224219 304.543125 
L 705.514219 304.543125 
" style="fill: none; stroke: #ffffff; stroke-linejoin: miter; stroke-linecap: square"/>
   </g>
   <g id="text_34">
    <!-- Seasonally Adjusted US Retail Employment Data -->
    <g style="fill: #262626" transform="translate(241.973281 298.543125) scale(0.12 -0.12)">
     <defs>
      <path id="ArialMT-73" d="M 197 991 
L 753 1078 
Q 800 744 1014 566 
Q 1228 388 1613 388 
Q 2000 388 2187 545 
Q 2375 703 2375 916 
Q 2375 1106 2209 1216 
Q 2094 1291 1634 1406 
Q 1016 1563 777 1677 
Q 538 1791 414 1992 
Q 291 2194 291 2438 
Q 291 2659 392 2848 
Q 494 3038 669 3163 
Q 800 3259 1026 3326 
Q 1253 3394 1513 3394 
Q 1903 3394 2198 3281 
Q 2494 3169 2634 2976 
Q 2775 2784 2828 2463 
L 2278 2388 
Q 2241 2644 2061 2787 
Q 1881 2931 1553 2931 
Q 1166 2931 1000 2803 
Q 834 2675 834 2503 
Q 834 2394 903 2306 
Q 972 2216 1119 2156 
Q 1203 2125 1616 2013 
Q 2213 1853 2448 1751 
Q 2684 1650 2818 1456 
Q 2953 1263 2953 975 
Q 2953 694 2789 445 
Q 2625 197 2315 61 
Q 2006 -75 1616 -75 
Q 969 -75 630 194 
Q 291 463 197 991 
z
" transform="scale(0.015625)"/>
      <path id="ArialMT-41" d="M -9 0 
L 1750 4581 
L 2403 4581 
L 4278 0 
L 3588 0 
L 3053 1388 
L 1138 1388 
L 634 0 
L -9 0 
z
M 1313 1881 
L 2866 1881 
L 2388 3150 
Q 2169 3728 2063 4100 
Q 1975 3659 1816 3225 
L 1313 1881 
z
" transform="scale(0.015625)"/>
      <path id="ArialMT-64" d="M 2575 0 
L 2575 419 
Q 2259 -75 1647 -75 
Q 1250 -75 917 144 
Q 584 363 401 755 
Q 219 1147 219 1656 
Q 219 2153 384 2558 
Q 550 2963 881 3178 
Q 1213 3394 1622 3394 
Q 1922 3394 2156 3267 
Q 2391 3141 2538 2938 
L 2538 4581 
L 3097 4581 
L 3097 0 
L 2575 0 
z
M 797 1656 
Q 797 1019 1065 703 
Q 1334 388 1700 388 
Q 2069 388 2326 689 
Q 2584 991 2584 1609 
Q 2584 2291 2321 2609 
Q 2059 2928 1675 2928 
Q 1300 2928 1048 2622 
Q 797 2316 797 1656 
z
" transform="scale(0.015625)"/>
      <path id="ArialMT-6a" d="M 419 3928 
L 419 4581 
L 981 4581 
L 981 3928 
L 419 3928 
z
M -294 -1288 
L -188 -809 
Q -19 -853 78 -853 
Q 250 -853 334 -739 
Q 419 -625 419 -169 
L 419 3319 
L 981 3319 
L 981 -181 
Q 981 -794 822 -1034 
Q 619 -1347 147 -1347 
Q -81 -1347 -294 -1288 
z
" transform="scale(0.015625)"/>
      <path id="ArialMT-75" d="M 2597 0 
L 2597 488 
Q 2209 -75 1544 -75 
Q 1250 -75 995 37 
Q 741 150 617 320 
Q 494 491 444 738 
Q 409 903 409 1263 
L 409 3319 
L 972 3319 
L 972 1478 
Q 972 1038 1006 884 
Q 1059 663 1231 536 
Q 1403 409 1656 409 
Q 1909 409 2131 539 
Q 2353 669 2445 892 
Q 2538 1116 2538 1541 
L 2538 3319 
L 3100 3319 
L 3100 0 
L 2597 0 
z
" transform="scale(0.015625)"/>
     </defs>
     <use xlink:href="#ArialMT-53"/>
     <use xlink:href="#ArialMT-65" x="66.699219"/>
     <use xlink:href="#ArialMT-61" x="122.314453"/>
     <use xlink:href="#ArialMT-73" x="177.929688"/>
     <use xlink:href="#ArialMT-6f" x="227.929688"/>
     <use xlink:href="#ArialMT-6e" x="283.544922"/>
     <use xlink:href="#ArialMT-61" x="339.160156"/>
     <use xlink:href="#ArialMT-6c" x="394.775391"/>
     <use xlink:href="#ArialMT-6c" x="416.992188"/>
     <use xlink:href="#ArialMT-79" x="439.208984"/>
     <use xlink:href="#ArialMT-20" x="489.208984"/>
     <use xlink:href="#ArialMT-41" x="511.492188"/>
     <use xlink:href="#ArialMT-64" x="578.191406"/>
     <use xlink:href="#ArialMT-6a" x="633.806641"/>
     <use xlink:href="#ArialMT-75" x="656.023438"/>
     <use xlink:href="#ArialMT-73" x="711.638672"/>
     <use xlink:href="#ArialMT-74" x="761.638672"/>
     <use xlink:href="#ArialMT-65" x="789.421875"/>
     <use xlink:href="#ArialMT-64" x="845.037109"/>
     <use xlink:href="#ArialMT-20" x="900.652344"/>
     <use xlink:href="#ArialMT-55" x="928.435547"/>
     <use xlink:href="#ArialMT-53" x="1000.652344"/>
     <use xlink:href="#ArialMT-20" x="1067.351562"/>
     <use xlink:href="#ArialMT-52" x="1095.134766"/>
     <use xlink:href="#ArialMT-65" x="1167.351562"/>
     <use xlink:href="#ArialMT-74" x="1222.966797"/>
     <use xlink:href="#ArialMT-61" x="1250.75"/>
     <use xlink:href="#ArialMT-69" x="1306.365234"/>
     <use xlink:href="#ArialMT-6c" x="1328.582031"/>
     <use xlink:href="#ArialMT-20" x="1350.798828"/>
     <use xlink:href="#ArialMT-45" x="1378.582031"/>
     <use xlink:href="#ArialMT-6d" x="1445.28125"/>
     <use xlink:href="#ArialMT-70" x="1528.582031"/>
     <use xlink:href="#ArialMT-6c" x="1584.197266"/>
     <use xlink:href="#ArialMT-6f" x="1606.414062"/>
     <use xlink:href="#ArialMT-79" x="1662.029297"/>
     <use xlink:href="#ArialMT-6d" x="1712.029297"/>
     <use xlink:href="#ArialMT-65" x="1795.330078"/>
     <use xlink:href="#ArialMT-6e" x="1850.945312"/>
     <use xlink:href="#ArialMT-74" x="1906.560547"/>
     <use xlink:href="#ArialMT-20" x="1934.34375"/>
     <use xlink:href="#ArialMT-44" x="1962.126953"/>
     <use xlink:href="#ArialMT-61" x="2034.34375"/>
     <use xlink:href="#ArialMT-74" x="2089.958984"/>
     <use xlink:href="#ArialMT-61" x="2117.742188"/>
    </g>
   </g>
  </g>
 </g>
 <defs>
  <clipPath id="p00a7d005fb">
   <rect x="39.224219" y="21.943125" width="666.29" height="241.46375"/>
  </clipPath>
  <clipPath id="pf7f7fec268">
   <rect x="39.224219" y="304.543125" width="666.29" height="241.46375"/>
  </clipPath>
 </defs>
</svg>
