<?xml version="1.0" encoding="utf-8" standalone="no"?>
<!DOCTYPE svg PUBLIC "-//W3C//DTD SVG 1.1//EN"
  "http://www.w3.org/Graphics/SVG/1.1/DTD/svg11.dtd">
<svg xmlns:xlink="http://www.w3.org/1999/xlink" width="584.39952pt" height="368.39952pt" viewBox="0 0 584.39952 368.39952" xmlns="http://www.w3.org/2000/svg" version="1.1">
 <metadata>
  <rdf:RDF xmlns:dc="http://purl.org/dc/elements/1.1/" xmlns:cc="http://creativecommons.org/ns#" xmlns:rdf="http://www.w3.org/1999/02/22-rdf-syntax-ns#">
   <cc:Work>
    <dc:type rdf:resource="http://purl.org/dc/dcmitype/StillImage"/>
    <dc:date>2025-11-02T00:42:09.999490</dc:date>
    <dc:format>image/svg+xml</dc:format>
    <dc:creator>
     <cc:Agent>
      <dc:title>Matplotlib v3.7.2, https://matplotlib.org/</dc:title>
     </cc:Agent>
    </dc:creator>
   </cc:Work>
  </rdf:RDF>
 </metadata>
 <defs>
  <style type="text/css">*{stroke-linejoin: round; stroke-linecap: butt}</style>
 </defs>
 <g id="figure_1">
  <g id="patch_1">
   <path d="M 0 368.39952 
L 584.39952 368.39952 
L 584.39952 0 
L 0 0 
z
" style="fill: #ffffff"/>
  </g>
  <g id="axes_1">
   <g id="patch_2">
    <path d="M 29.214531 345.968739 
L 577.19952 345.968739 
L 577.19952 7.2 
L 29.214531 7.2 
z
" style="fill: #e5e5e5"/>
   </g>
   <g id="matplotlib.axis_1">
    <g id="xtick_1">
     <g id="line2d_1">
      <path d="M 52.750576 345.968739 
L 52.750576 7.2 
" clip-path="url(#pada1e000db)" style="fill: none; stroke: #ffffff; stroke-width: 0.8; stroke-linecap: round"/>
     </g>
     <g id="text_1">
      <!-- 2015-01 -->
      <g style="fill: #555555" transform="translate(36.237685 359.41077) scale(0.09 -0.09)">
       <defs>
        <path id="ArialMT-32" d="M 3222 541 
L 3222 0 
L 194 0 
Q 188 203 259 391 
Q 375 700 629 1000 
Q 884 1300 1366 1694 
Q 2113 2306 2375 2664 
Q 2638 3022 2638 3341 
Q 2638 3675 2398 3904 
Q 2159 4134 1775 4134 
Q 1369 4134 1125 3890 
Q 881 3647 878 3216 
L 300 3275 
Q 359 3922 746 4261 
Q 1134 4600 1788 4600 
Q 2447 4600 2831 4234 
Q 3216 3869 3216 3328 
Q 3216 3053 3103 2787 
Q 2991 2522 2730 2228 
Q 2469 1934 1863 1422 
Q 1356 997 1212 845 
Q 1069 694 975 541 
L 3222 541 
z
" transform="scale(0.015625)"/>
        <path id="ArialMT-30" d="M 266 2259 
Q 266 3072 433 3567 
Q 600 4063 929 4331 
Q 1259 4600 1759 4600 
Q 2128 4600 2406 4451 
Q 2684 4303 2865 4023 
Q 3047 3744 3150 3342 
Q 3253 2941 3253 2259 
Q 3253 1453 3087 958 
Q 2922 463 2592 192 
Q 2263 -78 1759 -78 
Q 1097 -78 719 397 
Q 266 969 266 2259 
z
M 844 2259 
Q 844 1131 1108 757 
Q 1372 384 1759 384 
Q 2147 384 2411 759 
Q 2675 1134 2675 2259 
Q 2675 3391 2411 3762 
Q 2147 4134 1753 4134 
Q 1366 4134 1134 3806 
Q 844 3388 844 2259 
z
" transform="scale(0.015625)"/>
        <path id="ArialMT-31" d="M 2384 0 
L 1822 0 
L 1822 3584 
Q 1619 3391 1289 3197 
Q 959 3003 697 2906 
L 697 3450 
Q 1169 3672 1522 3987 
Q 1875 4303 2022 4600 
L 2384 4600 
L 2384 0 
z
" transform="scale(0.015625)"/>
        <path id="ArialMT-35" d="M 266 1200 
L 856 1250 
Q 922 819 1161 601 
Q 1400 384 1738 384 
Q 2144 384 2425 690 
Q 2706 997 2706 1503 
Q 2706 1984 2436 2262 
Q 2166 2541 1728 2541 
Q 1456 2541 1237 2417 
Q 1019 2294 894 2097 
L 366 2166 
L 809 4519 
L 3088 4519 
L 3088 3981 
L 1259 3981 
L 1013 2750 
Q 1425 3038 1878 3038 
Q 2478 3038 2890 2622 
Q 3303 2206 3303 1553 
Q 3303 931 2941 478 
Q 2500 -78 1738 -78 
Q 1113 -78 717 272 
Q 322 622 266 1200 
z
" transform="scale(0.015625)"/>
        <path id="ArialMT-2d" d="M 203 1375 
L 203 1941 
L 1931 1941 
L 1931 1375 
L 203 1375 
z
" transform="scale(0.015625)"/>
       </defs>
       <use xlink:href="#ArialMT-32"/>
       <use xlink:href="#ArialMT-30" x="55.615234"/>
       <use xlink:href="#ArialMT-31" x="111.230469"/>
       <use xlink:href="#ArialMT-35" x="166.845703"/>
       <use xlink:href="#ArialMT-2d" x="222.460938"/>
       <use xlink:href="#ArialMT-30" x="255.761719"/>
       <use xlink:href="#ArialMT-31" x="311.376953"/>
      </g>
     </g>
    </g>
    <g id="xtick_2">
     <g id="line2d_2">
      <path d="M 133.720058 345.968739 
L 133.720058 7.2 
" clip-path="url(#pada1e000db)" style="fill: none; stroke: #ffffff; stroke-width: 0.8; stroke-linecap: round"/>
     </g>
     <g id="text_2">
      <!-- 2015-03 -->
      <g style="fill: #555555" transform="translate(117.207168 359.41077) scale(0.09 -0.09)">
       <defs>
        <path id="ArialMT-33" d="M 269 1209 
L 831 1284 
Q 928 806 1161 595 
Q 1394 384 1728 384 
Q 2125 384 2398 659 
Q 2672 934 2672 1341 
Q 2672 1728 2419 1979 
Q 2166 2231 1775 2231 
Q 1616 2231 1378 2169 
L 1441 2663 
Q 1497 2656 1531 2656 
Q 1891 2656 2178 2843 
Q 2466 3031 2466 3422 
Q 2466 3731 2256 3934 
Q 2047 4138 1716 4138 
Q 1388 4138 1169 3931 
Q 950 3725 888 3313 
L 325 3413 
Q 428 3978 793 4289 
Q 1159 4600 1703 4600 
Q 2078 4600 2393 4439 
Q 2709 4278 2876 4000 
Q 3044 3722 3044 3409 
Q 3044 3113 2884 2869 
Q 2725 2625 2413 2481 
Q 2819 2388 3044 2092 
Q 3269 1797 3269 1353 
Q 3269 753 2831 336 
Q 2394 -81 1725 -81 
Q 1122 -81 723 278 
Q 325 638 269 1209 
z
" transform="scale(0.015625)"/>
       </defs>
       <use xlink:href="#ArialMT-32"/>
       <use xlink:href="#ArialMT-30" x="55.615234"/>
       <use xlink:href="#ArialMT-31" x="111.230469"/>
       <use xlink:href="#ArialMT-35" x="166.845703"/>
       <use xlink:href="#ArialMT-2d" x="222.460938"/>
       <use xlink:href="#ArialMT-30" x="255.761719"/>
       <use xlink:href="#ArialMT-33" x="311.376953"/>
      </g>
     </g>
    </g>
    <g id="xtick_3">
     <g id="line2d_3">
      <path d="M 217.434269 345.968739 
L 217.434269 7.2 
" clip-path="url(#pada1e000db)" style="fill: none; stroke: #ffffff; stroke-width: 0.8; stroke-linecap: round"/>
     </g>
     <g id="text_3">
      <!-- 2015-05 -->
      <g style="fill: #555555" transform="translate(200.921378 359.41077) scale(0.09 -0.09)">
       <use xlink:href="#ArialMT-32"/>
       <use xlink:href="#ArialMT-30" x="55.615234"/>
       <use xlink:href="#ArialMT-31" x="111.230469"/>
       <use xlink:href="#ArialMT-35" x="166.845703"/>
       <use xlink:href="#ArialMT-2d" x="222.460938"/>
       <use xlink:href="#ArialMT-30" x="255.761719"/>
       <use xlink:href="#ArialMT-35" x="311.376953"/>
      </g>
     </g>
    </g>
    <g id="xtick_4">
     <g id="line2d_4">
      <path d="M 301.148479 345.968739 
L 301.148479 7.2 
" clip-path="url(#pada1e000db)" style="fill: none; stroke: #ffffff; stroke-width: 0.8; stroke-linecap: round"/>
     </g>
     <g id="text_4">
      <!-- 2015-07 -->
      <g style="fill: #555555" transform="translate(284.635589 359.41077) scale(0.09 -0.09)">
       <defs>
        <path id="ArialMT-37" d="M 303 3981 
L 303 4522 
L 3269 4522 
L 3269 4084 
Q 2831 3619 2401 2847 
Q 1972 2075 1738 1259 
Q 1569 684 1522 0 
L 944 0 
Q 953 541 1156 1306 
Q 1359 2072 1739 2783 
Q 2119 3494 2547 3981 
L 303 3981 
z
" transform="scale(0.015625)"/>
       </defs>
       <use xlink:href="#ArialMT-32"/>
       <use xlink:href="#ArialMT-30" x="55.615234"/>
       <use xlink:href="#ArialMT-31" x="111.230469"/>
       <use xlink:href="#ArialMT-35" x="166.845703"/>
       <use xlink:href="#ArialMT-2d" x="222.460938"/>
       <use xlink:href="#ArialMT-30" x="255.761719"/>
       <use xlink:href="#ArialMT-37" x="311.376953"/>
      </g>
     </g>
    </g>
    <g id="xtick_5">
     <g id="line2d_5">
      <path d="M 386.235054 345.968739 
L 386.235054 7.2 
" clip-path="url(#pada1e000db)" style="fill: none; stroke: #ffffff; stroke-width: 0.8; stroke-linecap: round"/>
     </g>
     <g id="text_5">
      <!-- 2015-09 -->
      <g style="fill: #555555" transform="translate(369.722164 359.41077) scale(0.09 -0.09)">
       <defs>
        <path id="ArialMT-39" d="M 350 1059 
L 891 1109 
Q 959 728 1153 556 
Q 1347 384 1650 384 
Q 1909 384 2104 503 
Q 2300 622 2425 820 
Q 2550 1019 2634 1356 
Q 2719 1694 2719 2044 
Q 2719 2081 2716 2156 
Q 2547 1888 2255 1720 
Q 1963 1553 1622 1553 
Q 1053 1553 659 1965 
Q 266 2378 266 3053 
Q 266 3750 677 4175 
Q 1088 4600 1706 4600 
Q 2153 4600 2523 4359 
Q 2894 4119 3086 3673 
Q 3278 3228 3278 2384 
Q 3278 1506 3087 986 
Q 2897 466 2520 194 
Q 2144 -78 1638 -78 
Q 1100 -78 759 220 
Q 419 519 350 1059 
z
M 2653 3081 
Q 2653 3566 2395 3850 
Q 2138 4134 1775 4134 
Q 1400 4134 1122 3828 
Q 844 3522 844 3034 
Q 844 2597 1108 2323 
Q 1372 2050 1759 2050 
Q 2150 2050 2401 2323 
Q 2653 2597 2653 3081 
z
" transform="scale(0.015625)"/>
       </defs>
       <use xlink:href="#ArialMT-32"/>
       <use xlink:href="#ArialMT-30" x="55.615234"/>
       <use xlink:href="#ArialMT-31" x="111.230469"/>
       <use xlink:href="#ArialMT-35" x="166.845703"/>
       <use xlink:href="#ArialMT-2d" x="222.460938"/>
       <use xlink:href="#ArialMT-30" x="255.761719"/>
       <use xlink:href="#ArialMT-39" x="311.376953"/>
      </g>
     </g>
    </g>
    <g id="xtick_6">
     <g id="line2d_6">
      <path d="M 469.949265 345.968739 
L 469.949265 7.2 
" clip-path="url(#pada1e000db)" style="fill: none; stroke: #ffffff; stroke-width: 0.8; stroke-linecap: round"/>
     </g>
     <g id="text_6">
      <!-- 2015-11 -->
      <g style="fill: #555555" transform="translate(453.768249 359.41077) scale(0.09 -0.09)">
       <use xlink:href="#ArialMT-32"/>
       <use xlink:href="#ArialMT-30" x="55.615234"/>
       <use xlink:href="#ArialMT-31" x="111.230469"/>
       <use xlink:href="#ArialMT-35" x="166.845703"/>
       <use xlink:href="#ArialMT-2d" x="222.460938"/>
       <use xlink:href="#ArialMT-31" x="255.761719"/>
       <use xlink:href="#ArialMT-31" x="304.001953"/>
      </g>
     </g>
    </g>
    <g id="xtick_7">
     <g id="line2d_7">
      <path d="M 553.663476 345.968739 
L 553.663476 7.2 
" clip-path="url(#pada1e000db)" style="fill: none; stroke: #ffffff; stroke-width: 0.8; stroke-linecap: round"/>
     </g>
     <g id="text_7">
      <!-- 2016-01 -->
      <g style="fill: #555555" transform="translate(537.150585 359.41077) scale(0.09 -0.09)">
       <defs>
        <path id="ArialMT-36" d="M 3184 3459 
L 2625 3416 
Q 2550 3747 2413 3897 
Q 2184 4138 1850 4138 
Q 1581 4138 1378 3988 
Q 1113 3794 959 3422 
Q 806 3050 800 2363 
Q 1003 2672 1297 2822 
Q 1591 2972 1913 2972 
Q 2475 2972 2870 2558 
Q 3266 2144 3266 1488 
Q 3266 1056 3080 686 
Q 2894 316 2569 119 
Q 2244 -78 1831 -78 
Q 1128 -78 684 439 
Q 241 956 241 2144 
Q 241 3472 731 4075 
Q 1159 4600 1884 4600 
Q 2425 4600 2770 4297 
Q 3116 3994 3184 3459 
z
M 888 1484 
Q 888 1194 1011 928 
Q 1134 663 1356 523 
Q 1578 384 1822 384 
Q 2178 384 2434 671 
Q 2691 959 2691 1453 
Q 2691 1928 2437 2201 
Q 2184 2475 1800 2475 
Q 1419 2475 1153 2201 
Q 888 1928 888 1484 
z
" transform="scale(0.015625)"/>
       </defs>
       <use xlink:href="#ArialMT-32"/>
       <use xlink:href="#ArialMT-30" x="55.615234"/>
       <use xlink:href="#ArialMT-31" x="111.230469"/>
       <use xlink:href="#ArialMT-36" x="166.845703"/>
       <use xlink:href="#ArialMT-2d" x="222.460938"/>
       <use xlink:href="#ArialMT-30" x="255.761719"/>
       <use xlink:href="#ArialMT-31" x="311.376953"/>
      </g>
     </g>
    </g>
   </g>
   <g id="matplotlib.axis_2">
    <g id="ytick_1">
     <g id="line2d_8">
      <path d="M 29.214531 319.673449 
L 577.19952 319.673449 
" clip-path="url(#pada1e000db)" style="fill: none; stroke: #ffffff; stroke-width: 0.8; stroke-linecap: round"/>
     </g>
     <g id="text_8">
      <!-- 500 -->
      <g style="fill: #555555" transform="translate(7.2 322.894465) scale(0.09 -0.09)">
       <use xlink:href="#ArialMT-35"/>
       <use xlink:href="#ArialMT-30" x="55.615234"/>
       <use xlink:href="#ArialMT-30" x="111.230469"/>
      </g>
     </g>
    </g>
    <g id="ytick_2">
     <g id="line2d_9">
      <path d="M 29.214531 265.972275 
L 577.19952 265.972275 
" clip-path="url(#pada1e000db)" style="fill: none; stroke: #ffffff; stroke-width: 0.8; stroke-linecap: round"/>
     </g>
     <g id="text_9">
      <!-- 550 -->
      <g style="fill: #555555" transform="translate(7.2 269.193291) scale(0.09 -0.09)">
       <use xlink:href="#ArialMT-35"/>
       <use xlink:href="#ArialMT-35" x="55.615234"/>
       <use xlink:href="#ArialMT-30" x="111.230469"/>
      </g>
     </g>
    </g>
    <g id="ytick_3">
     <g id="line2d_10">
      <path d="M 29.214531 212.271101 
L 577.19952 212.271101 
" clip-path="url(#pada1e000db)" style="fill: none; stroke: #ffffff; stroke-width: 0.8; stroke-linecap: round"/>
     </g>
     <g id="text_10">
      <!-- 600 -->
      <g style="fill: #555555" transform="translate(7.2 215.492116) scale(0.09 -0.09)">
       <use xlink:href="#ArialMT-36"/>
       <use xlink:href="#ArialMT-30" x="55.615234"/>
       <use xlink:href="#ArialMT-30" x="111.230469"/>
      </g>
     </g>
    </g>
    <g id="ytick_4">
     <g id="line2d_11">
      <path d="M 29.214531 158.569927 
L 577.19952 158.569927 
" clip-path="url(#pada1e000db)" style="fill: none; stroke: #ffffff; stroke-width: 0.8; stroke-linecap: round"/>
     </g>
     <g id="text_11">
      <!-- 650 -->
      <g style="fill: #555555" transform="translate(7.2 161.790942) scale(0.09 -0.09)">
       <use xlink:href="#ArialMT-36"/>
       <use xlink:href="#ArialMT-35" x="55.615234"/>
       <use xlink:href="#ArialMT-30" x="111.230469"/>
      </g>
     </g>
    </g>
    <g id="ytick_5">
     <g id="line2d_12">
      <path d="M 29.214531 104.868752 
L 577.19952 104.868752 
" clip-path="url(#pada1e000db)" style="fill: none; stroke: #ffffff; stroke-width: 0.8; stroke-linecap: round"/>
     </g>
     <g id="text_12">
      <!-- 700 -->
      <g style="fill: #555555" transform="translate(7.2 108.089768) scale(0.09 -0.09)">
       <use xlink:href="#ArialMT-37"/>
       <use xlink:href="#ArialMT-30" x="55.615234"/>
       <use xlink:href="#ArialMT-30" x="111.230469"/>
      </g>
     </g>
    </g>
    <g id="ytick_6">
     <g id="line2d_13">
      <path d="M 29.214531 51.167578 
L 577.19952 51.167578 
" clip-path="url(#pada1e000db)" style="fill: none; stroke: #ffffff; stroke-width: 0.8; stroke-linecap: round"/>
     </g>
     <g id="text_13">
      <!-- 750 -->
      <g style="fill: #555555" transform="translate(7.2 54.388594) scale(0.09 -0.09)">
       <use xlink:href="#ArialMT-37"/>
       <use xlink:href="#ArialMT-35" x="55.615234"/>
       <use xlink:href="#ArialMT-30" x="111.230469"/>
      </g>
     </g>
    </g>
   </g>
   <g id="line2d_14">
    <path d="M 54.12294 296.111797 
L 58.240032 307.797309 
L 59.612396 320.518922 
L 60.98476 321.437519 
L 62.357124 319.749851 
L 63.729489 326.703472 
L 67.846581 330.57016 
L 69.218945 326.692787 
L 70.591309 321.683179 
L 71.963673 320.700504 
L 73.336037 313.981859 
L 78.825494 315.242283 
L 80.197858 303.343166 
L 81.570222 285.878944 
L 82.942586 279.940087 
L 87.059678 285.003087 
L 88.432043 302.712938 
L 89.804407 311.931028 
L 91.176771 311.226035 
L 92.549135 285.740103 
L 96.666227 292.191717 
L 98.038591 291.379905 
L 99.410955 298.30147 
L 100.78332 293.153054 
L 102.155684 289.499971 
L 106.272776 292.88599 
L 107.64514 283.155208 
L 109.017504 284.191277 
L 110.389868 276.757021 
L 111.762232 270.262666 
L 117.251689 276.853121 
L 118.624053 280.207085 
L 119.996417 276.81851 
L 121.368781 281.008211 
L 125.485874 288.527949 
L 126.858238 284.06312 
L 128.230602 275.752942 
L 129.602966 263.351787 
L 130.97533 260.232765 
L 135.092422 246.411006 
L 136.464786 243.954269 
L 137.83715 244.242637 
L 139.209515 242.149066 
L 140.581879 250.315026 
L 144.698971 249.070696 
L 146.071335 263.853793 
L 147.443699 267.944771 
L 148.816063 263.31973 
L 150.188427 272.067804 
L 154.30552 264.387854 
L 155.677884 268.307936 
L 157.050248 259.057856 
L 158.422612 260.670726 
L 159.794976 258.139193 
L 163.912069 259.79487 
L 165.284433 247.639342 
L 166.656797 259.82155 
L 168.029161 263.682895 
L 169.401525 270.97831 
L 173.518617 267.036859 
L 174.890981 271.341475 
L 176.263346 277.152241 
L 177.63571 284.661293 
L 184.49753 283.069727 
L 185.869894 278.166939 
L 188.614623 279.875976 
L 192.731715 280.773203 
L 194.104079 290.151569 
L 195.476443 287.863173 
L 196.848807 286.509172 
L 198.221171 296.923607 
L 202.338264 284.821505 
L 203.710628 286.325033 
L 205.082992 280.56494 
L 206.455356 272.409664 
L 207.82772 253.118933 
L 211.944812 260.204774 
L 213.317176 262.019876 
L 214.689541 266.960358 
L 216.061905 279.569383 
L 217.434269 278.967933 
L 221.551361 275.87474 
L 222.923725 286.593539 
L 224.296089 293.660632 
L 225.668453 286.700915 
L 227.040818 278.624303 
L 231.15791 281.330798 
L 232.530274 288.483831 
L 233.902638 287.860879 
L 235.275002 278.430922 
L 236.647366 283.31778 
L 240.764459 284.982504 
L 242.136823 279.547948 
L 243.509187 277.496526 
L 244.881551 274.0167 
L 246.253915 276.594383 
L 251.743372 284.961003 
L 253.115736 276.938078 
L 254.4881 276.948764 
L 255.860464 285.186571 
L 259.977556 283.167402 
L 261.34992 277.593217 
L 262.722284 276.379565 
L 265.467013 283.876228 
L 269.584105 290.857381 
L 270.956469 291.00776 
L 272.328833 280.267525 
L 273.701197 282.501513 
L 275.073561 284.950252 
L 279.190654 290.459998 
L 280.563018 289.439662 
L 281.935382 288.247511 
L 283.307746 280.224588 
L 284.68011 280.267525 
L 288.797202 278.65649 
L 290.169567 276.197 
L 292.914295 281.835623 
L 294.286659 285.637643 
L 298.403751 296.560442 
L 299.776115 297.645217 
L 301.148479 296.216747 
L 302.520844 294.541274 
L 308.0103 295.121289 
L 309.382664 292.80136 
L 310.755028 301.597616 
L 312.127392 297.462651 
L 313.499756 287.313116 
L 317.616849 269.677669 
L 318.989213 254.05064 
L 320.361577 254.995786 
L 321.733941 233.9127 
L 323.106305 133.942576 
L 327.223398 144.586119 
L 328.595762 145.359451 
L 329.968126 145.574268 
L 331.34049 164.71331 
L 332.712854 186.96711 
L 336.829946 182.99321 
L 338.20231 182.198443 
L 339.574675 177.977538 
L 340.947039 177.268646 
L 342.319403 184.765375 
L 346.436495 178.750804 
L 347.808859 180.855914 
L 349.181223 165.250321 
L 350.553587 166.431786 
L 351.925951 174.358085 
L 356.043044 176.04431 
L 357.415408 146.991922 
L 358.787772 148.302264 
L 360.160136 151.642462 
L 361.5325 150.922885 
L 365.649593 146.895297 
L 367.021957 151.986157 
L 368.394321 146.863045 
L 369.766685 161.974563 
L 371.139049 198.867309 
L 376.628505 231.539084 
L 378.00087 181.532554 
L 379.373234 171.877094 
L 380.745598 179.642262 
L 384.86269 192.670172 
L 386.235054 214.644716 
L 387.607418 196.869575 
L 388.979782 205.558454 
L 390.352147 211.519271 
L 395.841603 196.525945 
L 397.213967 198.609553 
L 398.586331 189.340725 
L 399.958695 184.593494 
L 404.075788 187.310806 
L 405.448152 174.529899 
L 406.820516 173.627757 
L 408.19288 166.195467 
L 409.565244 180.855914 
L 413.682336 174.207706 
L 415.054701 187.901506 
L 416.427065 188.255952 
L 417.799429 184.561308 
L 419.171793 199.415071 
L 423.288885 217.759345 
L 424.661249 217.67347 
L 426.033613 203.227841 
L 427.405977 200.145399 
L 428.778342 183.369158 
L 432.895434 167.731378 
L 434.267798 163.467471 
L 437.012526 170.21237 
L 438.38489 165.432953 
L 442.501983 162.146443 
L 443.874347 156.099685 
L 445.246711 157.324088 
L 446.619075 145.960902 
L 447.991439 145.466827 
L 452.108531 141.278174 
L 453.480896 158.269169 
L 454.85326 166.506976 
L 456.225624 156.647448 
L 457.597988 102.720705 
L 461.71508 91.142701 
L 463.087444 95.750304 
L 464.459808 90.960135 
L 465.832173 86.696293 
L 467.204537 93.258561 
L 471.321629 82.196133 
L 472.693993 81.068421 
L 474.066357 74.677968 
L 475.438721 71.305518 
L 476.811085 68.609709 
L 480.928178 78.136292 
L 482.300542 74.4524 
L 483.672906 66.848295 
L 485.04527 71.32702 
L 486.417634 86.610353 
L 490.534727 73.765008 
L 491.907091 77.695971 
L 493.279455 61.907813 
L 494.651819 63.615539 
L 496.024183 44.079049 
L 500.141275 44.744939 
L 501.513639 53.014867 
L 502.886003 53.154496 
L 505.630732 50.888321 
L 509.747824 59.115378 
L 511.120188 32.866241 
L 512.492552 37.871162 
L 513.864916 48.439582 
L 515.23728 33.113245 
L 519.354373 36.936767 
L 520.726737 37.881913 
L 522.099101 49.438416 
L 523.471465 51.747527 
L 524.843829 63.121465 
L 528.960922 53.562629 
L 530.333286 58.256107 
L 531.70565 42.478699 
L 533.078014 51.779779 
L 534.450378 62.648891 
L 538.56747 53.562629 
L 539.939834 51.167578 
L 541.312199 50.834633 
L 542.684563 52.88599 
L 548.174019 37.731533 
L 549.546383 22.598579 
L 550.918747 28.613085 
L 552.291111 41.630244 
L 552.291111 41.630244 
" clip-path="url(#pada1e000db)" style="fill: none; stroke: #181485; stroke-width: 1.5; stroke-linecap: round"/>
   </g>
   <g id="line2d_15">
    <path d="M 58.240032 296.111797 
L 59.612396 307.797309 
L 60.98476 320.518922 
L 62.357124 321.437519 
L 63.729489 319.749851 
L 67.846581 326.703472 
L 69.218945 330.57016 
L 70.591309 326.692787 
L 71.963673 321.683179 
L 73.336037 320.700504 
L 78.825494 313.981859 
L 80.197858 315.242283 
L 81.570222 303.343166 
L 82.942586 285.878944 
L 87.059678 279.940087 
L 88.432043 285.003087 
L 89.804407 302.712938 
L 91.176771 311.931028 
L 92.549135 311.226035 
L 96.666227 285.740103 
L 98.038591 292.191717 
L 99.410955 291.379905 
L 100.78332 298.30147 
L 102.155684 293.153054 
L 106.272776 289.499971 
L 107.64514 292.88599 
L 109.017504 283.155208 
L 110.389868 284.191277 
L 111.762232 276.757021 
L 117.251689 270.262666 
L 118.624053 276.853121 
L 119.996417 280.207085 
L 121.368781 276.81851 
L 125.485874 281.008211 
L 126.858238 288.527949 
L 128.230602 284.06312 
L 129.602966 275.752942 
L 130.97533 263.351787 
L 135.092422 260.232765 
L 136.464786 246.411006 
L 137.83715 243.954269 
L 139.209515 244.242637 
L 140.581879 242.149066 
L 144.698971 250.315026 
L 146.071335 249.070696 
L 147.443699 263.853793 
L 148.816063 267.944771 
L 150.188427 263.31973 
L 154.30552 272.067804 
L 155.677884 264.387854 
L 157.050248 268.307936 
L 158.422612 259.057856 
L 159.794976 260.670726 
L 163.912069 258.139193 
L 165.284433 259.79487 
L 166.656797 247.639342 
L 168.029161 259.82155 
L 169.401525 263.682895 
L 173.518617 270.97831 
L 174.890981 267.036859 
L 176.263346 271.341475 
L 177.63571 277.152241 
L 183.125166 284.661293 
L 184.49753 283.3421 
L 185.869894 283.069727 
L 187.242258 278.166939 
L 188.614623 279.053479 
L 192.731715 279.875976 
L 194.104079 280.773203 
L 195.476443 290.151569 
L 196.848807 287.863173 
L 198.221171 286.509172 
L 202.338264 296.923607 
L 203.710628 284.821505 
L 205.082992 286.325033 
L 206.455356 280.56494 
L 207.82772 272.409664 
L 211.944812 253.118933 
L 213.317176 260.204774 
L 214.689541 262.019876 
L 216.061905 266.960358 
L 217.434269 279.569383 
L 221.551361 278.967933 
L 222.923725 275.87474 
L 224.296089 286.593539 
L 225.668453 293.660632 
L 227.040818 286.700915 
L 231.15791 278.624303 
L 232.530274 281.330798 
L 233.902638 288.483831 
L 235.275002 287.860879 
L 236.647366 278.430922 
L 242.136823 284.982504 
L 243.509187 279.547948 
L 244.881551 277.496526 
L 246.253915 274.0167 
L 251.743372 276.594383 
L 253.115736 284.961003 
L 254.4881 276.938078 
L 255.860464 276.948764 
L 259.977556 285.186571 
L 261.34992 283.167402 
L 262.722284 277.593217 
L 264.094649 276.379565 
L 265.467013 280.256775 
L 269.584105 283.876228 
L 270.956469 290.857381 
L 272.328833 291.00776 
L 273.701197 280.267525 
L 275.073561 282.501513 
L 279.190654 284.950252 
L 280.563018 290.459998 
L 281.935382 289.439662 
L 283.307746 288.247511 
L 284.68011 280.224588 
L 288.797202 280.267525 
L 290.169567 278.65649 
L 291.541931 276.197 
L 294.286659 281.835623 
L 298.403751 285.637643 
L 299.776115 296.560442 
L 301.148479 297.645217 
L 302.520844 296.216747 
L 308.0103 294.541274 
L 309.382664 295.121289 
L 310.755028 292.80136 
L 312.127392 301.597616 
L 313.499756 297.462651 
L 317.616849 287.313116 
L 318.989213 269.677669 
L 320.361577 254.05064 
L 321.733941 254.995786 
L 323.106305 233.9127 
L 327.223398 133.942576 
L 328.595762 144.586119 
L 329.968126 145.359451 
L 331.34049 145.574268 
L 332.712854 164.71331 
L 336.829946 186.96711 
L 338.20231 182.99321 
L 339.574675 182.198443 
L 340.947039 177.977538 
L 342.319403 177.268646 
L 346.436495 184.765375 
L 347.808859 178.750804 
L 349.181223 180.855914 
L 350.553587 165.250321 
L 351.925951 166.431786 
L 356.043044 174.358085 
L 357.415408 176.04431 
L 358.787772 146.991922 
L 360.160136 148.302264 
L 361.5325 151.642462 
L 365.649593 150.922885 
L 367.021957 146.895297 
L 368.394321 151.986157 
L 369.766685 146.863045 
L 371.139049 161.974563 
L 375.256141 198.867309 
L 376.628505 223.430221 
L 378.00087 231.539084 
L 379.373234 181.532554 
L 380.745598 171.877094 
L 384.86269 179.642262 
L 386.235054 192.670172 
L 387.607418 214.644716 
L 388.979782 196.869575 
L 390.352147 205.558454 
L 395.841603 211.519271 
L 397.213967 196.525945 
L 398.586331 198.609553 
L 399.958695 189.340725 
L 404.075788 184.593494 
L 405.448152 187.310806 
L 406.820516 174.529899 
L 408.19288 173.627757 
L 409.565244 166.195467 
L 413.682336 180.855914 
L 415.054701 174.207706 
L 416.427065 187.901506 
L 417.799429 188.255952 
L 419.171793 184.561308 
L 423.288885 199.415071 
L 424.661249 217.759345 
L 426.033613 217.67347 
L 427.405977 203.227841 
L 428.778342 200.145399 
L 432.895434 183.369158 
L 434.267798 167.731378 
L 435.640162 163.467471 
L 438.38489 170.21237 
L 442.501983 165.432953 
L 443.874347 162.146443 
L 445.246711 156.099685 
L 446.619075 157.324088 
L 447.991439 145.960902 
L 452.108531 145.466827 
L 453.480896 141.278174 
L 454.85326 158.269169 
L 456.225624 166.506976 
L 457.597988 156.647448 
L 461.71508 102.720705 
L 463.087444 91.142701 
L 464.459808 95.750304 
L 465.832173 90.960135 
L 467.204537 86.696293 
L 471.321629 93.258561 
L 472.693993 82.196133 
L 474.066357 81.068421 
L 475.438721 74.677968 
L 476.811085 71.305518 
L 480.928178 68.609709 
L 482.300542 78.136292 
L 483.672906 74.4524 
L 485.04527 66.848295 
L 486.417634 71.32702 
L 490.534727 86.610353 
L 491.907091 73.765008 
L 493.279455 77.695971 
L 494.651819 61.907813 
L 496.024183 63.615539 
L 500.141275 44.079049 
L 501.513639 44.744939 
L 502.886003 53.014867 
L 505.630732 53.154496 
L 509.747824 50.888321 
L 511.120188 59.115378 
L 512.492552 32.866241 
L 513.864916 37.871162 
L 515.23728 48.439582 
L 519.354373 33.113245 
L 520.726737 36.936767 
L 522.099101 37.881913 
L 523.471465 49.438416 
L 524.843829 51.747527 
L 528.960922 63.121465 
L 530.333286 53.562629 
L 531.70565 58.256107 
L 533.078014 42.478699 
L 534.450378 51.779779 
L 538.56747 62.648891 
L 539.939834 53.562629 
L 541.312199 51.167578 
L 542.684563 50.834633 
L 548.174019 52.88599 
L 550.918747 22.598579 
L 552.291111 28.613085 
L 552.291111 28.613085 
" clip-path="url(#pada1e000db)" style="fill: none; stroke: #ffa500; stroke-width: 1.5; stroke-linecap: round"/>
   </g>
   <g id="patch_3">
    <path d="M 29.214531 345.968739 
L 29.214531 7.2 
" style="fill: none; stroke: #ffffff; stroke-linejoin: miter; stroke-linecap: square"/>
   </g>
   <g id="patch_4">
    <path d="M 577.19952 345.968739 
L 577.19952 7.2 
" style="fill: none; stroke: #ffffff; stroke-linejoin: miter; stroke-linecap: square"/>
   </g>
   <g id="patch_5">
    <path d="M 29.214531 345.968739 
L 577.19952 345.968739 
" style="fill: none; stroke: #ffffff; stroke-linejoin: miter; stroke-linecap: square"/>
   </g>
   <g id="patch_6">
    <path d="M 29.214531 7.2 
L 577.19952 7.2 
" style="fill: none; stroke: #ffffff; stroke-linejoin: miter; stroke-linecap: square"/>
   </g>
   <g id="legend_1">
    <g id="patch_7">
     <path d="M 35.514531 39.861563 
L 103.330937 39.861563 
Q 105.130937 39.861563 105.130937 38.061563 
L 105.130937 13.5 
Q 105.130937 11.7 103.330937 11.7 
L 35.514531 11.7 
Q 33.714531 11.7 33.714531 13.5 
L 33.714531 38.061563 
Q 33.714531 39.861563 35.514531 39.861563 
z
" style="fill: #e5e5e5; opacity: 0.8; stroke: #cccccc; stroke-width: 0.5; stroke-linejoin: miter"/>
    </g>
    <g id="line2d_16">
     <path d="M 37.314531 18.592031 
L 46.314531 18.592031 
L 55.314531 18.592031 
" style="fill: none; stroke: #181485; stroke-width: 1.5; stroke-linecap: round"/>
    </g>
    <g id="text_14">
     <!-- Observed -->
     <g style="fill: #262626" transform="translate(62.514531 21.742031) scale(0.09 -0.09)">
      <defs>
       <path id="ArialMT-4f" d="M 309 2231 
Q 309 3372 921 4017 
Q 1534 4663 2503 4663 
Q 3138 4663 3647 4359 
Q 4156 4056 4423 3514 
Q 4691 2972 4691 2284 
Q 4691 1588 4409 1038 
Q 4128 488 3612 205 
Q 3097 -78 2500 -78 
Q 1853 -78 1343 234 
Q 834 547 571 1087 
Q 309 1628 309 2231 
z
M 934 2222 
Q 934 1394 1379 917 
Q 1825 441 2497 441 
Q 3181 441 3623 922 
Q 4066 1403 4066 2288 
Q 4066 2847 3877 3264 
Q 3688 3681 3323 3911 
Q 2959 4141 2506 4141 
Q 1863 4141 1398 3698 
Q 934 3256 934 2222 
z
" transform="scale(0.015625)"/>
       <path id="ArialMT-62" d="M 941 0 
L 419 0 
L 419 4581 
L 981 4581 
L 981 2947 
Q 1338 3394 1891 3394 
Q 2197 3394 2470 3270 
Q 2744 3147 2920 2923 
Q 3097 2700 3197 2384 
Q 3297 2069 3297 1709 
Q 3297 856 2875 390 
Q 2453 -75 1863 -75 
Q 1275 -75 941 416 
L 941 0 
z
M 934 1684 
Q 934 1088 1097 822 
Q 1363 388 1816 388 
Q 2184 388 2453 708 
Q 2722 1028 2722 1663 
Q 2722 2313 2464 2622 
Q 2206 2931 1841 2931 
Q 1472 2931 1203 2611 
Q 934 2291 934 1684 
z
" transform="scale(0.015625)"/>
       <path id="ArialMT-73" d="M 197 991 
L 753 1078 
Q 800 744 1014 566 
Q 1228 388 1613 388 
Q 2000 388 2187 545 
Q 2375 703 2375 916 
Q 2375 1106 2209 1216 
Q 2094 1291 1634 1406 
Q 1016 1563 777 1677 
Q 538 1791 414 1992 
Q 291 2194 291 2438 
Q 291 2659 392 2848 
Q 494 3038 669 3163 
Q 800 3259 1026 3326 
Q 1253 3394 1513 3394 
Q 1903 3394 2198 3281 
Q 2494 3169 2634 2976 
Q 2775 2784 2828 2463 
L 2278 2388 
Q 2241 2644 2061 2787 
Q 1881 2931 1553 2931 
Q 1166 2931 1000 2803 
Q 834 2675 834 2503 
Q 834 2394 903 2306 
Q 972 2216 1119 2156 
Q 1203 2125 1616 2013 
Q 2213 1853 2448 1751 
Q 2684 1650 2818 1456 
Q 2953 1263 2953 975 
Q 2953 694 2789 445 
Q 2625 197 2315 61 
Q 2006 -75 1616 -75 
Q 969 -75 630 194 
Q 291 463 197 991 
z
" transform="scale(0.015625)"/>
       <path id="ArialMT-65" d="M 2694 1069 
L 3275 997 
Q 3138 488 2766 206 
Q 2394 -75 1816 -75 
Q 1088 -75 661 373 
Q 234 822 234 1631 
Q 234 2469 665 2931 
Q 1097 3394 1784 3394 
Q 2450 3394 2872 2941 
Q 3294 2488 3294 1666 
Q 3294 1616 3291 1516 
L 816 1516 
Q 847 969 1125 678 
Q 1403 388 1819 388 
Q 2128 388 2347 550 
Q 2566 713 2694 1069 
z
M 847 1978 
L 2700 1978 
Q 2663 2397 2488 2606 
Q 2219 2931 1791 2931 
Q 1403 2931 1139 2672 
Q 875 2413 847 1978 
z
" transform="scale(0.015625)"/>
       <path id="ArialMT-72" d="M 416 0 
L 416 3319 
L 922 3319 
L 922 2816 
Q 1116 3169 1280 3281 
Q 1444 3394 1641 3394 
Q 1925 3394 2219 3213 
L 2025 2691 
Q 1819 2813 1613 2813 
Q 1428 2813 1281 2702 
Q 1134 2591 1072 2394 
Q 978 2094 978 1738 
L 978 0 
L 416 0 
z
" transform="scale(0.015625)"/>
       <path id="ArialMT-76" d="M 1344 0 
L 81 3319 
L 675 3319 
L 1388 1331 
Q 1503 1009 1600 663 
Q 1675 925 1809 1294 
L 2547 3319 
L 3125 3319 
L 1869 0 
L 1344 0 
z
" transform="scale(0.015625)"/>
       <path id="ArialMT-64" d="M 2575 0 
L 2575 419 
Q 2259 -75 1647 -75 
Q 1250 -75 917 144 
Q 584 363 401 755 
Q 219 1147 219 1656 
Q 219 2153 384 2558 
Q 550 2963 881 3178 
Q 1213 3394 1622 3394 
Q 1922 3394 2156 3267 
Q 2391 3141 2538 2938 
L 2538 4581 
L 3097 4581 
L 3097 0 
L 2575 0 
z
M 797 1656 
Q 797 1019 1065 703 
Q 1334 388 1700 388 
Q 2069 388 2326 689 
Q 2584 991 2584 1609 
Q 2584 2291 2321 2609 
Q 2059 2928 1675 2928 
Q 1300 2928 1048 2622 
Q 797 2316 797 1656 
z
" transform="scale(0.015625)"/>
      </defs>
      <use xlink:href="#ArialMT-4f"/>
      <use xlink:href="#ArialMT-62" x="77.783203"/>
      <use xlink:href="#ArialMT-73" x="133.398438"/>
      <use xlink:href="#ArialMT-65" x="183.398438"/>
      <use xlink:href="#ArialMT-72" x="239.013672"/>
      <use xlink:href="#ArialMT-76" x="272.314453"/>
      <use xlink:href="#ArialMT-65" x="322.314453"/>
      <use xlink:href="#ArialMT-64" x="377.929688"/>
     </g>
    </g>
    <g id="line2d_17">
     <path d="M 37.314531 31.322813 
L 46.314531 31.322813 
L 55.314531 31.322813 
" style="fill: none; stroke: #ffa500; stroke-width: 1.5; stroke-linecap: round"/>
    </g>
    <g id="text_15">
     <!-- Fitted -->
     <g style="fill: #262626" transform="translate(62.514531 34.472813) scale(0.09 -0.09)">
      <defs>
       <path id="ArialMT-46" d="M 525 0 
L 525 4581 
L 3616 4581 
L 3616 4041 
L 1131 4041 
L 1131 2622 
L 3281 2622 
L 3281 2081 
L 1131 2081 
L 1131 0 
L 525 0 
z
" transform="scale(0.015625)"/>
       <path id="ArialMT-69" d="M 425 3934 
L 425 4581 
L 988 4581 
L 988 3934 
L 425 3934 
z
M 425 0 
L 425 3319 
L 988 3319 
L 988 0 
L 425 0 
z
" transform="scale(0.015625)"/>
       <path id="ArialMT-74" d="M 1650 503 
L 1731 6 
Q 1494 -44 1306 -44 
Q 1000 -44 831 53 
Q 663 150 594 308 
Q 525 466 525 972 
L 525 2881 
L 113 2881 
L 113 3319 
L 525 3319 
L 525 4141 
L 1084 4478 
L 1084 3319 
L 1650 3319 
L 1650 2881 
L 1084 2881 
L 1084 941 
Q 1084 700 1114 631 
Q 1144 563 1211 522 
Q 1278 481 1403 481 
Q 1497 481 1650 503 
z
" transform="scale(0.015625)"/>
      </defs>
      <use xlink:href="#ArialMT-46"/>
      <use xlink:href="#ArialMT-69" x="61.083984"/>
      <use xlink:href="#ArialMT-74" x="83.300781"/>
      <use xlink:href="#ArialMT-74" x="111.083984"/>
      <use xlink:href="#ArialMT-65" x="138.867188"/>
      <use xlink:href="#ArialMT-64" x="194.482422"/>
     </g>
    </g>
   </g>
  </g>
 </g>
 <defs>
  <clipPath id="pada1e000db">
   <rect x="29.214531" y="7.2" width="547.984989" height="338.768739"/>
  </clipPath>
 </defs>
</svg>
