<?xml version="1.0" encoding="utf-8" standalone="no"?>
<!DOCTYPE svg PUBLIC "-//W3C//DTD SVG 1.1//EN"
  "http://www.w3.org/Graphics/SVG/1.1/DTD/svg11.dtd">
<svg xmlns:xlink="http://www.w3.org/1999/xlink" width="782.032187pt" height="291.813906pt" viewBox="0 0 782.032187 291.813906" xmlns="http://www.w3.org/2000/svg" version="1.1">
 <metadata>
  <rdf:RDF xmlns:dc="http://purl.org/dc/elements/1.1/" xmlns:cc="http://creativecommons.org/ns#" xmlns:rdf="http://www.w3.org/1999/02/22-rdf-syntax-ns#">
   <cc:Work>
    <dc:type rdf:resource="http://purl.org/dc/dcmitype/StillImage"/>
    <dc:date>2026-07-13T21:23:10.635608</dc:date>
    <dc:format>image/svg+xml</dc:format>
    <dc:creator>
     <cc:Agent>
      <dc:title>Matplotlib v3.10.8, https://matplotlib.org/</dc:title>
     </cc:Agent>
    </dc:creator>
   </cc:Work>
  </rdf:RDF>
 </metadata>
 <defs>
  <style type="text/css">*{stroke-linejoin: round; stroke-linecap: butt}</style>
 </defs>
 <g id="figure_1">
  <g id="patch_1">
   <path d="M 0 291.813906 
L 782.032187 291.813906 
L 782.032187 0 
L 0 0 
z
" style="fill: #ffffff"/>
  </g>
  <g id="axes_1">
   <g id="patch_2">
    <path d="M 49.842188 266.967969 
L 774.832187 266.967969 
L 774.832187 23.077969 
L 49.842188 23.077969 
z
" style="fill: #ffffff"/>
   </g>
   <g id="PathCollection_1">
    <defs>
     <path id="m6ab77d45bb" d="M 0 2.645751 
C 0.701661 2.645751 1.374679 2.366978 1.870829 1.870829 
C 2.366978 1.374679 2.645751 0.701661 2.645751 0 
C 2.645751 -0.701661 2.366978 -1.374679 1.870829 -1.870829 
C 1.374679 -2.366978 0.701661 -2.645751 0 -2.645751 
C -0.701661 -2.645751 -1.374679 -2.366978 -1.870829 -1.870829 
C -2.366978 -1.374679 -2.645751 -0.701661 -2.645751 0 
C -2.645751 0.701661 -2.366978 1.374679 -1.870829 1.870829 
C -1.374679 2.366978 -0.701661 2.645751 0 2.645751 
z
" style="stroke: #e64173"/>
    </defs>
    <g clip-path="url(#p6c871e50ec)">
     <use xlink:href="#m6ab77d45bb" x="116.970891" y="255.88206" style="fill: #e64173; stroke: #e64173"/>
     <use xlink:href="#m6ab77d45bb" x="251.228299" y="255.88206" style="fill: #e64173; stroke: #e64173"/>
     <use xlink:href="#m6ab77d45bb" x="385.485706" y="255.88206" style="fill: #e64173; stroke: #e64173"/>
     <use xlink:href="#m6ab77d45bb" x="519.743113" y="255.88206" style="fill: #e64173; stroke: #e64173"/>
     <use xlink:href="#m6ab77d45bb" x="654.000521" y="255.88206" style="fill: #e64173; stroke: #e64173"/>
    </g>
   </g>
   <g id="PathCollection_2">
    <defs>
     <path id="m81add3a3dd" d="M 0 2.645751 
C 0.701661 2.645751 1.374679 2.366978 1.870829 1.870829 
C 2.366978 1.374679 2.645751 0.701661 2.645751 0 
C 2.645751 -0.701661 2.366978 -1.374679 1.870829 -1.870829 
C 1.374679 -2.366978 0.701661 -2.645751 0 -2.645751 
C -0.701661 -2.645751 -1.374679 -2.366978 -1.870829 -1.870829 
C -2.366978 -1.374679 -2.645751 -0.701661 -2.645751 0 
C -2.645751 0.701661 -2.366978 1.374679 -1.870829 1.870829 
C -1.374679 2.366978 -0.701661 2.645751 0 2.645751 
z
" style="stroke: #20b2aa"/>
    </defs>
    <g clip-path="url(#p6c871e50ec)">
     <use xlink:href="#m81add3a3dd" x="116.970891" y="209.204548" style="fill: #20b2aa; stroke: #20b2aa"/>
     <use xlink:href="#m81add3a3dd" x="251.228299" y="209.204548" style="fill: #20b2aa; stroke: #20b2aa"/>
     <use xlink:href="#m81add3a3dd" x="385.485706" y="209.204548" style="fill: #20b2aa; stroke: #20b2aa"/>
     <use xlink:href="#m81add3a3dd" x="519.743113" y="209.204548" style="fill: #20b2aa; stroke: #20b2aa"/>
     <use xlink:href="#m81add3a3dd" x="654.000521" y="197.53517" style="fill: #20b2aa; stroke: #20b2aa"/>
    </g>
   </g>
   <g id="PathCollection_3">
    <g clip-path="url(#p6c871e50ec)">
     <use xlink:href="#m6ab77d45bb" x="116.970891" y="232.543304" style="fill: #e64173; stroke: #e64173"/>
     <use xlink:href="#m6ab77d45bb" x="251.228299" y="232.543304" style="fill: #e64173; stroke: #e64173"/>
     <use xlink:href="#m6ab77d45bb" x="385.485706" y="232.543304" style="fill: #e64173; stroke: #e64173"/>
     <use xlink:href="#m6ab77d45bb" x="519.743113" y="232.543304" style="fill: #e64173; stroke: #e64173"/>
     <use xlink:href="#m6ab77d45bb" x="654.000521" y="232.543304" style="fill: #e64173; stroke: #e64173"/>
    </g>
   </g>
   <g id="PathCollection_4">
    <g clip-path="url(#p6c871e50ec)">
     <use xlink:href="#m81add3a3dd" x="116.970891" y="185.865792" style="fill: #20b2aa; stroke: #20b2aa"/>
     <use xlink:href="#m81add3a3dd" x="251.228299" y="185.865792" style="fill: #20b2aa; stroke: #20b2aa"/>
     <use xlink:href="#m81add3a3dd" x="385.485706" y="185.865792" style="fill: #20b2aa; stroke: #20b2aa"/>
     <use xlink:href="#m81add3a3dd" x="519.743113" y="185.865792" style="fill: #20b2aa; stroke: #20b2aa"/>
     <use xlink:href="#m81add3a3dd" x="654.000521" y="181.198041" style="fill: #20b2aa; stroke: #20b2aa"/>
    </g>
   </g>
   <g id="PathCollection_5">
    <g clip-path="url(#p6c871e50ec)">
     <use xlink:href="#m6ab77d45bb" x="116.970891" y="162.527036" style="fill: #e64173; stroke: #e64173"/>
     <use xlink:href="#m6ab77d45bb" x="251.228299" y="162.527036" style="fill: #e64173; stroke: #e64173"/>
     <use xlink:href="#m6ab77d45bb" x="385.485706" y="162.527036" style="fill: #e64173; stroke: #e64173"/>
     <use xlink:href="#m6ab77d45bb" x="519.743113" y="162.527036" style="fill: #e64173; stroke: #e64173"/>
     <use xlink:href="#m6ab77d45bb" x="654.000521" y="162.527036" style="fill: #e64173; stroke: #e64173"/>
    </g>
   </g>
   <g id="PathCollection_6">
    <g clip-path="url(#p6c871e50ec)">
     <use xlink:href="#m81add3a3dd" x="116.970891" y="139.18828" style="fill: #20b2aa; stroke: #20b2aa"/>
     <use xlink:href="#m81add3a3dd" x="251.228299" y="139.18828" style="fill: #20b2aa; stroke: #20b2aa"/>
     <use xlink:href="#m81add3a3dd" x="385.485706" y="139.18828" style="fill: #20b2aa; stroke: #20b2aa"/>
     <use xlink:href="#m81add3a3dd" x="519.743113" y="139.18828" style="fill: #20b2aa; stroke: #20b2aa"/>
     <use xlink:href="#m81add3a3dd" x="654.000521" y="136.854404" style="fill: #20b2aa; stroke: #20b2aa"/>
    </g>
   </g>
   <g id="PathCollection_7">
    <g clip-path="url(#p6c871e50ec)">
     <use xlink:href="#m6ab77d45bb" x="116.970891" y="115.849524" style="fill: #e64173; stroke: #e64173"/>
     <use xlink:href="#m6ab77d45bb" x="251.228299" y="115.849524" style="fill: #e64173; stroke: #e64173"/>
     <use xlink:href="#m6ab77d45bb" x="385.485706" y="115.849524" style="fill: #e64173; stroke: #e64173"/>
     <use xlink:href="#m6ab77d45bb" x="519.743113" y="115.849524" style="fill: #e64173; stroke: #e64173"/>
     <use xlink:href="#m6ab77d45bb" x="654.000521" y="115.849524" style="fill: #e64173; stroke: #e64173"/>
    </g>
   </g>
   <g id="PathCollection_8">
    <g clip-path="url(#p6c871e50ec)">
     <use xlink:href="#m81add3a3dd" x="116.970891" y="92.510768" style="fill: #20b2aa; stroke: #20b2aa"/>
     <use xlink:href="#m81add3a3dd" x="251.228299" y="92.510768" style="fill: #20b2aa; stroke: #20b2aa"/>
     <use xlink:href="#m81add3a3dd" x="385.485706" y="92.510768" style="fill: #20b2aa; stroke: #20b2aa"/>
     <use xlink:href="#m81add3a3dd" x="519.743113" y="92.510768" style="fill: #20b2aa; stroke: #20b2aa"/>
     <use xlink:href="#m81add3a3dd" x="654.000521" y="87.843017" style="fill: #20b2aa; stroke: #20b2aa"/>
    </g>
   </g>
   <g id="PathCollection_9">
    <g clip-path="url(#p6c871e50ec)">
     <use xlink:href="#m6ab77d45bb" x="116.970891" y="69.172012" style="fill: #e64173; stroke: #e64173"/>
     <use xlink:href="#m6ab77d45bb" x="251.228299" y="69.172012" style="fill: #e64173; stroke: #e64173"/>
     <use xlink:href="#m6ab77d45bb" x="385.485706" y="69.172012" style="fill: #e64173; stroke: #e64173"/>
     <use xlink:href="#m6ab77d45bb" x="519.743113" y="69.172012" style="fill: #e64173; stroke: #e64173"/>
     <use xlink:href="#m6ab77d45bb" x="654.000521" y="69.172012" style="fill: #e64173; stroke: #e64173"/>
    </g>
   </g>
   <g id="PathCollection_10">
    <g clip-path="url(#p6c871e50ec)">
     <use xlink:href="#m81add3a3dd" x="116.970891" y="45.833256" style="fill: #20b2aa; stroke: #20b2aa"/>
     <use xlink:href="#m81add3a3dd" x="251.228299" y="45.833256" style="fill: #20b2aa; stroke: #20b2aa"/>
     <use xlink:href="#m81add3a3dd" x="385.485706" y="45.833256" style="fill: #20b2aa; stroke: #20b2aa"/>
     <use xlink:href="#m81add3a3dd" x="519.743113" y="45.833256" style="fill: #20b2aa; stroke: #20b2aa"/>
     <use xlink:href="#m81add3a3dd" x="654.000521" y="34.163878" style="fill: #20b2aa; stroke: #20b2aa"/>
    </g>
   </g>
   <g id="matplotlib.axis_1">
    <g id="xtick_1">
     <g id="line2d_1">
      <path d="M 116.970891 266.967969 
L 116.970891 23.077969 
" clip-path="url(#p6c871e50ec)" style="fill: none; stroke: #dddddd; stroke-opacity: 0.6; stroke-width: 0.8; stroke-linecap: square"/>
     </g>
     <g id="line2d_2">
      <defs>
       <path id="mced66bbd45" d="M 0 0 
L 0 3.5 
" style="stroke: #314f4f; stroke-width: 0.8"/>
      </defs>
      <g>
       <use xlink:href="#mced66bbd45" x="116.970891" y="266.967969" style="fill: #314f4f; stroke: #314f4f; stroke-width: 0.8"/>
      </g>
     </g>
     <g id="text_1">
      <!-- week 1 -->
      <g style="fill: #314f4f" transform="translate(97.272297 282.32625) scale(0.11 -0.11)">
       <defs>
        <path id="DejaVuSans-77" d="M 269 3500 
L 844 3500 
L 1563 769 
L 2278 3500 
L 2956 3500 
L 3675 769 
L 4391 3500 
L 4966 3500 
L 4050 0 
L 3372 0 
L 2619 2869 
L 1863 0 
L 1184 0 
L 269 3500 
z
" transform="scale(0.015625)"/>
        <path id="DejaVuSans-65" d="M 3597 1894 
L 3597 1613 
L 953 1613 
Q 991 1019 1311 708 
Q 1631 397 2203 397 
Q 2534 397 2845 478 
Q 3156 559 3463 722 
L 3463 178 
Q 3153 47 2828 -22 
Q 2503 -91 2169 -91 
Q 1331 -91 842 396 
Q 353 884 353 1716 
Q 353 2575 817 3079 
Q 1281 3584 2069 3584 
Q 2775 3584 3186 3129 
Q 3597 2675 3597 1894 
z
M 3022 2063 
Q 3016 2534 2758 2815 
Q 2500 3097 2075 3097 
Q 1594 3097 1305 2825 
Q 1016 2553 972 2059 
L 3022 2063 
z
" transform="scale(0.015625)"/>
        <path id="DejaVuSans-6b" d="M 581 4863 
L 1159 4863 
L 1159 1991 
L 2875 3500 
L 3609 3500 
L 1753 1863 
L 3688 0 
L 2938 0 
L 1159 1709 
L 1159 0 
L 581 0 
L 581 4863 
z
" transform="scale(0.015625)"/>
        <path id="DejaVuSans-20" transform="scale(0.015625)"/>
        <path id="DejaVuSans-31" d="M 794 531 
L 1825 531 
L 1825 4091 
L 703 3866 
L 703 4441 
L 1819 4666 
L 2450 4666 
L 2450 531 
L 3481 531 
L 3481 0 
L 794 0 
L 794 531 
z
" transform="scale(0.015625)"/>
       </defs>
       <use xlink:href="#DejaVuSans-77"/>
       <use xlink:href="#DejaVuSans-65" transform="translate(81.787109 0)"/>
       <use xlink:href="#DejaVuSans-65" transform="translate(143.310547 0)"/>
       <use xlink:href="#DejaVuSans-6b" transform="translate(204.833984 0)"/>
       <use xlink:href="#DejaVuSans-20" transform="translate(262.744141 0)"/>
       <use xlink:href="#DejaVuSans-31" transform="translate(294.53125 0)"/>
      </g>
     </g>
    </g>
    <g id="xtick_2">
     <g id="line2d_3">
      <path d="M 251.228299 266.967969 
L 251.228299 23.077969 
" clip-path="url(#p6c871e50ec)" style="fill: none; stroke: #dddddd; stroke-opacity: 0.6; stroke-width: 0.8; stroke-linecap: square"/>
     </g>
     <g id="line2d_4">
      <g>
       <use xlink:href="#mced66bbd45" x="251.228299" y="266.967969" style="fill: #314f4f; stroke: #314f4f; stroke-width: 0.8"/>
      </g>
     </g>
     <g id="text_2">
      <!-- week 2 -->
      <g style="fill: #314f4f" transform="translate(231.529705 282.32625) scale(0.11 -0.11)">
       <defs>
        <path id="DejaVuSans-32" d="M 1228 531 
L 3431 531 
L 3431 0 
L 469 0 
L 469 531 
Q 828 903 1448 1529 
Q 2069 2156 2228 2338 
Q 2531 2678 2651 2914 
Q 2772 3150 2772 3378 
Q 2772 3750 2511 3984 
Q 2250 4219 1831 4219 
Q 1534 4219 1204 4116 
Q 875 4013 500 3803 
L 500 4441 
Q 881 4594 1212 4672 
Q 1544 4750 1819 4750 
Q 2544 4750 2975 4387 
Q 3406 4025 3406 3419 
Q 3406 3131 3298 2873 
Q 3191 2616 2906 2266 
Q 2828 2175 2409 1742 
Q 1991 1309 1228 531 
z
" transform="scale(0.015625)"/>
       </defs>
       <use xlink:href="#DejaVuSans-77"/>
       <use xlink:href="#DejaVuSans-65" transform="translate(81.787109 0)"/>
       <use xlink:href="#DejaVuSans-65" transform="translate(143.310547 0)"/>
       <use xlink:href="#DejaVuSans-6b" transform="translate(204.833984 0)"/>
       <use xlink:href="#DejaVuSans-20" transform="translate(262.744141 0)"/>
       <use xlink:href="#DejaVuSans-32" transform="translate(294.53125 0)"/>
      </g>
     </g>
    </g>
    <g id="xtick_3">
     <g id="line2d_5">
      <path d="M 385.485706 266.967969 
L 385.485706 23.077969 
" clip-path="url(#p6c871e50ec)" style="fill: none; stroke: #dddddd; stroke-opacity: 0.6; stroke-width: 0.8; stroke-linecap: square"/>
     </g>
     <g id="line2d_6">
      <g>
       <use xlink:href="#mced66bbd45" x="385.485706" y="266.967969" style="fill: #314f4f; stroke: #314f4f; stroke-width: 0.8"/>
      </g>
     </g>
     <g id="text_3">
      <!-- week 3 -->
      <g style="fill: #314f4f" transform="translate(365.787112 282.32625) scale(0.11 -0.11)">
       <defs>
        <path id="DejaVuSans-33" d="M 2597 2516 
Q 3050 2419 3304 2112 
Q 3559 1806 3559 1356 
Q 3559 666 3084 287 
Q 2609 -91 1734 -91 
Q 1441 -91 1130 -33 
Q 819 25 488 141 
L 488 750 
Q 750 597 1062 519 
Q 1375 441 1716 441 
Q 2309 441 2620 675 
Q 2931 909 2931 1356 
Q 2931 1769 2642 2001 
Q 2353 2234 1838 2234 
L 1294 2234 
L 1294 2753 
L 1863 2753 
Q 2328 2753 2575 2939 
Q 2822 3125 2822 3475 
Q 2822 3834 2567 4026 
Q 2313 4219 1838 4219 
Q 1578 4219 1281 4162 
Q 984 4106 628 3988 
L 628 4550 
Q 988 4650 1302 4700 
Q 1616 4750 1894 4750 
Q 2613 4750 3031 4423 
Q 3450 4097 3450 3541 
Q 3450 3153 3228 2886 
Q 3006 2619 2597 2516 
z
" transform="scale(0.015625)"/>
       </defs>
       <use xlink:href="#DejaVuSans-77"/>
       <use xlink:href="#DejaVuSans-65" transform="translate(81.787109 0)"/>
       <use xlink:href="#DejaVuSans-65" transform="translate(143.310547 0)"/>
       <use xlink:href="#DejaVuSans-6b" transform="translate(204.833984 0)"/>
       <use xlink:href="#DejaVuSans-20" transform="translate(262.744141 0)"/>
       <use xlink:href="#DejaVuSans-33" transform="translate(294.53125 0)"/>
      </g>
     </g>
    </g>
    <g id="xtick_4">
     <g id="line2d_7">
      <path d="M 519.743113 266.967969 
L 519.743113 23.077969 
" clip-path="url(#p6c871e50ec)" style="fill: none; stroke: #dddddd; stroke-opacity: 0.6; stroke-width: 0.8; stroke-linecap: square"/>
     </g>
     <g id="line2d_8">
      <g>
       <use xlink:href="#mced66bbd45" x="519.743113" y="266.967969" style="fill: #314f4f; stroke: #314f4f; stroke-width: 0.8"/>
      </g>
     </g>
     <g id="text_4">
      <!-- week 4 -->
      <g style="fill: #314f4f" transform="translate(500.04452 282.32625) scale(0.11 -0.11)">
       <defs>
        <path id="DejaVuSans-34" d="M 2419 4116 
L 825 1625 
L 2419 1625 
L 2419 4116 
z
M 2253 4666 
L 3047 4666 
L 3047 1625 
L 3713 1625 
L 3713 1100 
L 3047 1100 
L 3047 0 
L 2419 0 
L 2419 1100 
L 313 1100 
L 313 1709 
L 2253 4666 
z
" transform="scale(0.015625)"/>
       </defs>
       <use xlink:href="#DejaVuSans-77"/>
       <use xlink:href="#DejaVuSans-65" transform="translate(81.787109 0)"/>
       <use xlink:href="#DejaVuSans-65" transform="translate(143.310547 0)"/>
       <use xlink:href="#DejaVuSans-6b" transform="translate(204.833984 0)"/>
       <use xlink:href="#DejaVuSans-20" transform="translate(262.744141 0)"/>
       <use xlink:href="#DejaVuSans-34" transform="translate(294.53125 0)"/>
      </g>
     </g>
    </g>
    <g id="xtick_5">
     <g id="line2d_9">
      <path d="M 654.000521 266.967969 
L 654.000521 23.077969 
" clip-path="url(#p6c871e50ec)" style="fill: none; stroke: #dddddd; stroke-opacity: 0.6; stroke-width: 0.8; stroke-linecap: square"/>
     </g>
     <g id="line2d_10">
      <g>
       <use xlink:href="#mced66bbd45" x="654.000521" y="266.967969" style="fill: #314f4f; stroke: #314f4f; stroke-width: 0.8"/>
      </g>
     </g>
     <g id="text_5">
      <!-- week 5 -->
      <g style="fill: #314f4f" transform="translate(634.301927 282.32625) scale(0.11 -0.11)">
       <defs>
        <path id="DejaVuSans-35" d="M 691 4666 
L 3169 4666 
L 3169 4134 
L 1269 4134 
L 1269 2991 
Q 1406 3038 1543 3061 
Q 1681 3084 1819 3084 
Q 2600 3084 3056 2656 
Q 3513 2228 3513 1497 
Q 3513 744 3044 326 
Q 2575 -91 1722 -91 
Q 1428 -91 1123 -41 
Q 819 9 494 109 
L 494 744 
Q 775 591 1075 516 
Q 1375 441 1709 441 
Q 2250 441 2565 725 
Q 2881 1009 2881 1497 
Q 2881 1984 2565 2268 
Q 2250 2553 1709 2553 
Q 1456 2553 1204 2497 
Q 953 2441 691 2322 
L 691 4666 
z
" transform="scale(0.015625)"/>
       </defs>
       <use xlink:href="#DejaVuSans-77"/>
       <use xlink:href="#DejaVuSans-65" transform="translate(81.787109 0)"/>
       <use xlink:href="#DejaVuSans-65" transform="translate(143.310547 0)"/>
       <use xlink:href="#DejaVuSans-6b" transform="translate(204.833984 0)"/>
       <use xlink:href="#DejaVuSans-20" transform="translate(262.744141 0)"/>
       <use xlink:href="#DejaVuSans-35" transform="translate(294.53125 0)"/>
      </g>
     </g>
    </g>
   </g>
   <g id="matplotlib.axis_2">
    <g id="ytick_1">
     <g id="line2d_11">
      <path d="M 49.842188 255.88206 
L 774.832187 255.88206 
" clip-path="url(#p6c871e50ec)" style="fill: none; stroke: #dddddd; stroke-opacity: 0.6; stroke-width: 0.8; stroke-linecap: square"/>
     </g>
     <g id="line2d_12">
      <defs>
       <path id="mbc413dd216" d="M 0 0 
L -3.5 0 
" style="stroke: #314f4f; stroke-width: 0.8"/>
      </defs>
      <g>
       <use xlink:href="#mbc413dd216" x="49.842188" y="255.88206" style="fill: #314f4f; stroke: #314f4f; stroke-width: 0.8"/>
      </g>
     </g>
     <g id="text_6">
      <!-- 100 -->
      <g style="fill: #314f4f" transform="translate(21.845938 260.0612) scale(0.11 -0.11)">
       <defs>
        <path id="DejaVuSans-30" d="M 2034 4250 
Q 1547 4250 1301 3770 
Q 1056 3291 1056 2328 
Q 1056 1369 1301 889 
Q 1547 409 2034 409 
Q 2525 409 2770 889 
Q 3016 1369 3016 2328 
Q 3016 3291 2770 3770 
Q 2525 4250 2034 4250 
z
M 2034 4750 
Q 2819 4750 3233 4129 
Q 3647 3509 3647 2328 
Q 3647 1150 3233 529 
Q 2819 -91 2034 -91 
Q 1250 -91 836 529 
Q 422 1150 422 2328 
Q 422 3509 836 4129 
Q 1250 4750 2034 4750 
z
" transform="scale(0.015625)"/>
       </defs>
       <use xlink:href="#DejaVuSans-31"/>
       <use xlink:href="#DejaVuSans-30" transform="translate(63.623047 0)"/>
       <use xlink:href="#DejaVuSans-30" transform="translate(127.246094 0)"/>
      </g>
     </g>
    </g>
    <g id="ytick_2">
     <g id="line2d_13">
      <path d="M 49.842188 209.204548 
L 774.832187 209.204548 
" clip-path="url(#p6c871e50ec)" style="fill: none; stroke: #dddddd; stroke-opacity: 0.6; stroke-width: 0.8; stroke-linecap: square"/>
     </g>
     <g id="line2d_14">
      <g>
       <use xlink:href="#mbc413dd216" x="49.842188" y="209.204548" style="fill: #314f4f; stroke: #314f4f; stroke-width: 0.8"/>
      </g>
     </g>
     <g id="text_7">
      <!-- 120 -->
      <g style="fill: #314f4f" transform="translate(21.845938 213.383688) scale(0.11 -0.11)">
       <use xlink:href="#DejaVuSans-31"/>
       <use xlink:href="#DejaVuSans-32" transform="translate(63.623047 0)"/>
       <use xlink:href="#DejaVuSans-30" transform="translate(127.246094 0)"/>
      </g>
     </g>
    </g>
    <g id="ytick_3">
     <g id="line2d_15">
      <path d="M 49.842188 162.527036 
L 774.832187 162.527036 
" clip-path="url(#p6c871e50ec)" style="fill: none; stroke: #dddddd; stroke-opacity: 0.6; stroke-width: 0.8; stroke-linecap: square"/>
     </g>
     <g id="line2d_16">
      <g>
       <use xlink:href="#mbc413dd216" x="49.842188" y="162.527036" style="fill: #314f4f; stroke: #314f4f; stroke-width: 0.8"/>
      </g>
     </g>
     <g id="text_8">
      <!-- 140 -->
      <g style="fill: #314f4f" transform="translate(21.845938 166.706176) scale(0.11 -0.11)">
       <use xlink:href="#DejaVuSans-31"/>
       <use xlink:href="#DejaVuSans-34" transform="translate(63.623047 0)"/>
       <use xlink:href="#DejaVuSans-30" transform="translate(127.246094 0)"/>
      </g>
     </g>
    </g>
    <g id="ytick_4">
     <g id="line2d_17">
      <path d="M 49.842188 115.849524 
L 774.832187 115.849524 
" clip-path="url(#p6c871e50ec)" style="fill: none; stroke: #dddddd; stroke-opacity: 0.6; stroke-width: 0.8; stroke-linecap: square"/>
     </g>
     <g id="line2d_18">
      <g>
       <use xlink:href="#mbc413dd216" x="49.842188" y="115.849524" style="fill: #314f4f; stroke: #314f4f; stroke-width: 0.8"/>
      </g>
     </g>
     <g id="text_9">
      <!-- 160 -->
      <g style="fill: #314f4f" transform="translate(21.845938 120.028664) scale(0.11 -0.11)">
       <defs>
        <path id="DejaVuSans-36" d="M 2113 2584 
Q 1688 2584 1439 2293 
Q 1191 2003 1191 1497 
Q 1191 994 1439 701 
Q 1688 409 2113 409 
Q 2538 409 2786 701 
Q 3034 994 3034 1497 
Q 3034 2003 2786 2293 
Q 2538 2584 2113 2584 
z
M 3366 4563 
L 3366 3988 
Q 3128 4100 2886 4159 
Q 2644 4219 2406 4219 
Q 1781 4219 1451 3797 
Q 1122 3375 1075 2522 
Q 1259 2794 1537 2939 
Q 1816 3084 2150 3084 
Q 2853 3084 3261 2657 
Q 3669 2231 3669 1497 
Q 3669 778 3244 343 
Q 2819 -91 2113 -91 
Q 1303 -91 875 529 
Q 447 1150 447 2328 
Q 447 3434 972 4092 
Q 1497 4750 2381 4750 
Q 2619 4750 2861 4703 
Q 3103 4656 3366 4563 
z
" transform="scale(0.015625)"/>
       </defs>
       <use xlink:href="#DejaVuSans-31"/>
       <use xlink:href="#DejaVuSans-36" transform="translate(63.623047 0)"/>
       <use xlink:href="#DejaVuSans-30" transform="translate(127.246094 0)"/>
      </g>
     </g>
    </g>
    <g id="ytick_5">
     <g id="line2d_19">
      <path d="M 49.842188 69.172012 
L 774.832187 69.172012 
" clip-path="url(#p6c871e50ec)" style="fill: none; stroke: #dddddd; stroke-opacity: 0.6; stroke-width: 0.8; stroke-linecap: square"/>
     </g>
     <g id="line2d_20">
      <g>
       <use xlink:href="#mbc413dd216" x="49.842188" y="69.172012" style="fill: #314f4f; stroke: #314f4f; stroke-width: 0.8"/>
      </g>
     </g>
     <g id="text_10">
      <!-- 180 -->
      <g style="fill: #314f4f" transform="translate(21.845938 73.351152) scale(0.11 -0.11)">
       <defs>
        <path id="DejaVuSans-38" d="M 2034 2216 
Q 1584 2216 1326 1975 
Q 1069 1734 1069 1313 
Q 1069 891 1326 650 
Q 1584 409 2034 409 
Q 2484 409 2743 651 
Q 3003 894 3003 1313 
Q 3003 1734 2745 1975 
Q 2488 2216 2034 2216 
z
M 1403 2484 
Q 997 2584 770 2862 
Q 544 3141 544 3541 
Q 544 4100 942 4425 
Q 1341 4750 2034 4750 
Q 2731 4750 3128 4425 
Q 3525 4100 3525 3541 
Q 3525 3141 3298 2862 
Q 3072 2584 2669 2484 
Q 3125 2378 3379 2068 
Q 3634 1759 3634 1313 
Q 3634 634 3220 271 
Q 2806 -91 2034 -91 
Q 1263 -91 848 271 
Q 434 634 434 1313 
Q 434 1759 690 2068 
Q 947 2378 1403 2484 
z
M 1172 3481 
Q 1172 3119 1398 2916 
Q 1625 2713 2034 2713 
Q 2441 2713 2670 2916 
Q 2900 3119 2900 3481 
Q 2900 3844 2670 4047 
Q 2441 4250 2034 4250 
Q 1625 4250 1398 4047 
Q 1172 3844 1172 3481 
z
" transform="scale(0.015625)"/>
       </defs>
       <use xlink:href="#DejaVuSans-31"/>
       <use xlink:href="#DejaVuSans-38" transform="translate(63.623047 0)"/>
       <use xlink:href="#DejaVuSans-30" transform="translate(127.246094 0)"/>
      </g>
     </g>
    </g>
    <g id="text_11">
     <!-- revenue, UAH -->
     <g style="fill: #314f4f" transform="translate(15.558281 182.959219) rotate(-90) scale(0.11 -0.11)">
      <defs>
       <path id="DejaVuSans-72" d="M 2631 2963 
Q 2534 3019 2420 3045 
Q 2306 3072 2169 3072 
Q 1681 3072 1420 2755 
Q 1159 2438 1159 1844 
L 1159 0 
L 581 0 
L 581 3500 
L 1159 3500 
L 1159 2956 
Q 1341 3275 1631 3429 
Q 1922 3584 2338 3584 
Q 2397 3584 2469 3576 
Q 2541 3569 2628 3553 
L 2631 2963 
z
" transform="scale(0.015625)"/>
       <path id="DejaVuSans-76" d="M 191 3500 
L 800 3500 
L 1894 563 
L 2988 3500 
L 3597 3500 
L 2284 0 
L 1503 0 
L 191 3500 
z
" transform="scale(0.015625)"/>
       <path id="DejaVuSans-6e" d="M 3513 2113 
L 3513 0 
L 2938 0 
L 2938 2094 
Q 2938 2591 2744 2837 
Q 2550 3084 2163 3084 
Q 1697 3084 1428 2787 
Q 1159 2491 1159 1978 
L 1159 0 
L 581 0 
L 581 3500 
L 1159 3500 
L 1159 2956 
Q 1366 3272 1645 3428 
Q 1925 3584 2291 3584 
Q 2894 3584 3203 3211 
Q 3513 2838 3513 2113 
z
" transform="scale(0.015625)"/>
       <path id="DejaVuSans-75" d="M 544 1381 
L 544 3500 
L 1119 3500 
L 1119 1403 
Q 1119 906 1312 657 
Q 1506 409 1894 409 
Q 2359 409 2629 706 
Q 2900 1003 2900 1516 
L 2900 3500 
L 3475 3500 
L 3475 0 
L 2900 0 
L 2900 538 
Q 2691 219 2414 64 
Q 2138 -91 1772 -91 
Q 1169 -91 856 284 
Q 544 659 544 1381 
z
M 1991 3584 
L 1991 3584 
z
" transform="scale(0.015625)"/>
       <path id="DejaVuSans-2c" d="M 750 794 
L 1409 794 
L 1409 256 
L 897 -744 
L 494 -744 
L 750 256 
L 750 794 
z
" transform="scale(0.015625)"/>
       <path id="DejaVuSans-55" d="M 556 4666 
L 1191 4666 
L 1191 1831 
Q 1191 1081 1462 751 
Q 1734 422 2344 422 
Q 2950 422 3222 751 
Q 3494 1081 3494 1831 
L 3494 4666 
L 4128 4666 
L 4128 1753 
Q 4128 841 3676 375 
Q 3225 -91 2344 -91 
Q 1459 -91 1007 375 
Q 556 841 556 1753 
L 556 4666 
z
" transform="scale(0.015625)"/>
       <path id="DejaVuSans-41" d="M 2188 4044 
L 1331 1722 
L 3047 1722 
L 2188 4044 
z
M 1831 4666 
L 2547 4666 
L 4325 0 
L 3669 0 
L 3244 1197 
L 1141 1197 
L 716 0 
L 50 0 
L 1831 4666 
z
" transform="scale(0.015625)"/>
       <path id="DejaVuSans-48" d="M 628 4666 
L 1259 4666 
L 1259 2753 
L 3553 2753 
L 3553 4666 
L 4184 4666 
L 4184 0 
L 3553 0 
L 3553 2222 
L 1259 2222 
L 1259 0 
L 628 0 
L 628 4666 
z
" transform="scale(0.015625)"/>
      </defs>
      <use xlink:href="#DejaVuSans-72"/>
      <use xlink:href="#DejaVuSans-65" transform="translate(38.863281 0)"/>
      <use xlink:href="#DejaVuSans-76" transform="translate(100.386719 0)"/>
      <use xlink:href="#DejaVuSans-65" transform="translate(159.566406 0)"/>
      <use xlink:href="#DejaVuSans-6e" transform="translate(221.089844 0)"/>
      <use xlink:href="#DejaVuSans-75" transform="translate(284.46875 0)"/>
      <use xlink:href="#DejaVuSans-65" transform="translate(347.847656 0)"/>
      <use xlink:href="#DejaVuSans-2c" transform="translate(409.371094 0)"/>
      <use xlink:href="#DejaVuSans-20" transform="translate(441.158203 0)"/>
      <use xlink:href="#DejaVuSans-55" transform="translate(472.945312 0)"/>
      <use xlink:href="#DejaVuSans-41" transform="translate(546.138672 0)"/>
      <use xlink:href="#DejaVuSans-48" transform="translate(614.546875 0)"/>
     </g>
    </g>
   </g>
   <g id="line2d_21">
    <path d="M 116.970891 255.88206 
L 251.228299 255.88206 
L 385.485706 255.88206 
L 519.743113 255.88206 
L 654.000521 255.88206 
" clip-path="url(#p6c871e50ec)" style="fill: none; stroke: #e64173; stroke-opacity: 0.85; stroke-width: 1.8; stroke-linecap: square"/>
   </g>
   <g id="line2d_22">
    <path d="M 116.970891 209.204548 
L 251.228299 209.204548 
L 385.485706 209.204548 
L 519.743113 209.204548 
L 654.000521 197.53517 
" clip-path="url(#p6c871e50ec)" style="fill: none; stroke: #20b2aa; stroke-opacity: 0.85; stroke-width: 1.8; stroke-linecap: square"/>
   </g>
   <g id="line2d_23">
    <path d="M 116.970891 232.543304 
L 251.228299 232.543304 
L 385.485706 232.543304 
L 519.743113 232.543304 
L 654.000521 232.543304 
" clip-path="url(#p6c871e50ec)" style="fill: none; stroke: #e64173; stroke-opacity: 0.85; stroke-width: 1.8; stroke-linecap: square"/>
   </g>
   <g id="line2d_24">
    <path d="M 116.970891 185.865792 
L 251.228299 185.865792 
L 385.485706 185.865792 
L 519.743113 185.865792 
L 654.000521 181.198041 
" clip-path="url(#p6c871e50ec)" style="fill: none; stroke: #20b2aa; stroke-opacity: 0.85; stroke-width: 1.8; stroke-linecap: square"/>
   </g>
   <g id="line2d_25">
    <path d="M 116.970891 162.527036 
L 251.228299 162.527036 
L 385.485706 162.527036 
L 519.743113 162.527036 
L 654.000521 162.527036 
" clip-path="url(#p6c871e50ec)" style="fill: none; stroke: #e64173; stroke-opacity: 0.85; stroke-width: 1.8; stroke-linecap: square"/>
   </g>
   <g id="line2d_26">
    <path d="M 116.970891 139.18828 
L 251.228299 139.18828 
L 385.485706 139.18828 
L 519.743113 139.18828 
L 654.000521 136.854404 
" clip-path="url(#p6c871e50ec)" style="fill: none; stroke: #20b2aa; stroke-opacity: 0.85; stroke-width: 1.8; stroke-linecap: square"/>
   </g>
   <g id="line2d_27">
    <path d="M 116.970891 115.849524 
L 251.228299 115.849524 
L 385.485706 115.849524 
L 519.743113 115.849524 
L 654.000521 115.849524 
" clip-path="url(#p6c871e50ec)" style="fill: none; stroke: #e64173; stroke-opacity: 0.85; stroke-width: 1.8; stroke-linecap: square"/>
   </g>
   <g id="line2d_28">
    <path d="M 116.970891 92.510768 
L 251.228299 92.510768 
L 385.485706 92.510768 
L 519.743113 92.510768 
L 654.000521 87.843017 
" clip-path="url(#p6c871e50ec)" style="fill: none; stroke: #20b2aa; stroke-opacity: 0.85; stroke-width: 1.8; stroke-linecap: square"/>
   </g>
   <g id="line2d_29">
    <path d="M 116.970891 69.172012 
L 251.228299 69.172012 
L 385.485706 69.172012 
L 519.743113 69.172012 
L 654.000521 69.172012 
" clip-path="url(#p6c871e50ec)" style="fill: none; stroke: #e64173; stroke-opacity: 0.85; stroke-width: 1.8; stroke-linecap: square"/>
   </g>
   <g id="line2d_30">
    <path d="M 116.970891 45.833256 
L 251.228299 45.833256 
L 385.485706 45.833256 
L 519.743113 45.833256 
L 654.000521 34.163878 
" clip-path="url(#p6c871e50ec)" style="fill: none; stroke: #20b2aa; stroke-opacity: 0.85; stroke-width: 1.8; stroke-linecap: square"/>
   </g>
   <g id="patch_3">
    <path d="M 49.842188 266.967969 
L 49.842188 23.077969 
" style="fill: none; stroke: #314f4f; stroke-width: 0.8; stroke-linejoin: miter; stroke-linecap: square"/>
   </g>
   <g id="patch_4">
    <path d="M 49.842188 266.967969 
L 774.832187 266.967969 
" style="fill: none; stroke: #314f4f; stroke-width: 0.8; stroke-linejoin: miter; stroke-linecap: square"/>
   </g>
   <g id="text_12">
    <!-- 0 -->
    <g style="fill: #314f4f" transform="translate(668.000521 258.88206) scale(0.1 -0.1)">
     <defs>
      <path id="DejaVuSans-Bold-30" d="M 2944 2338 
Q 2944 3213 2780 3570 
Q 2616 3928 2228 3928 
Q 1841 3928 1675 3570 
Q 1509 3213 1509 2338 
Q 1509 1453 1675 1090 
Q 1841 728 2228 728 
Q 2613 728 2778 1090 
Q 2944 1453 2944 2338 
z
M 4147 2328 
Q 4147 1169 3647 539 
Q 3147 -91 2228 -91 
Q 1306 -91 806 539 
Q 306 1169 306 2328 
Q 306 3491 806 4120 
Q 1306 4750 2228 4750 
Q 3147 4750 3647 4120 
Q 4147 3491 4147 2328 
z
" transform="scale(0.015625)"/>
     </defs>
     <use xlink:href="#DejaVuSans-Bold-30"/>
    </g>
   </g>
   <g id="text_13">
    <!-- +5 -->
    <g style="fill: #fb6107" transform="translate(668.000521 200.53517) scale(0.1 -0.1)">
     <defs>
      <path id="DejaVuSans-Bold-2b" d="M 3053 4013 
L 3053 2375 
L 4684 2375 
L 4684 1638 
L 3053 1638 
L 3053 0 
L 2309 0 
L 2309 1638 
L 678 1638 
L 678 2375 
L 2309 2375 
L 2309 4013 
L 3053 4013 
z
" transform="scale(0.015625)"/>
      <path id="DejaVuSans-Bold-35" d="M 678 4666 
L 3669 4666 
L 3669 3781 
L 1638 3781 
L 1638 3059 
Q 1775 3097 1914 3117 
Q 2053 3138 2203 3138 
Q 3056 3138 3531 2711 
Q 4006 2284 4006 1522 
Q 4006 766 3489 337 
Q 2972 -91 2053 -91 
Q 1656 -91 1267 -14 
Q 878 63 494 219 
L 494 1166 
Q 875 947 1217 837 
Q 1559 728 1863 728 
Q 2300 728 2551 942 
Q 2803 1156 2803 1522 
Q 2803 1891 2551 2103 
Q 2300 2316 1863 2316 
Q 1603 2316 1309 2248 
Q 1016 2181 678 2041 
L 678 4666 
z
" transform="scale(0.015625)"/>
     </defs>
     <use xlink:href="#DejaVuSans-Bold-2b"/>
     <use xlink:href="#DejaVuSans-Bold-35" transform="translate(83.789062 0)"/>
    </g>
   </g>
   <g id="text_14">
    <!-- 0 -->
    <g style="fill: #314f4f" transform="translate(668.000521 235.543304) scale(0.1 -0.1)">
     <use xlink:href="#DejaVuSans-Bold-30"/>
    </g>
   </g>
   <g id="text_15">
    <!-- +2 -->
    <g style="fill: #fb6107" transform="translate(668.000521 184.198041) scale(0.1 -0.1)">
     <defs>
      <path id="DejaVuSans-Bold-32" d="M 1844 884 
L 3897 884 
L 3897 0 
L 506 0 
L 506 884 
L 2209 2388 
Q 2438 2594 2547 2791 
Q 2656 2988 2656 3200 
Q 2656 3528 2436 3728 
Q 2216 3928 1850 3928 
Q 1569 3928 1234 3808 
Q 900 3688 519 3450 
L 519 4475 
Q 925 4609 1322 4679 
Q 1719 4750 2100 4750 
Q 2938 4750 3402 4381 
Q 3866 4013 3866 3353 
Q 3866 2972 3669 2642 
Q 3472 2313 2841 1759 
L 1844 884 
z
" transform="scale(0.015625)"/>
     </defs>
     <use xlink:href="#DejaVuSans-Bold-2b"/>
     <use xlink:href="#DejaVuSans-Bold-32" transform="translate(83.789062 0)"/>
    </g>
   </g>
   <g id="text_16">
    <!-- 0 -->
    <g style="fill: #314f4f" transform="translate(668.000521 165.527036) scale(0.1 -0.1)">
     <use xlink:href="#DejaVuSans-Bold-30"/>
    </g>
   </g>
   <g id="text_17">
    <!-- +1 -->
    <g style="fill: #fb6107" transform="translate(668.000521 139.854404) scale(0.1 -0.1)">
     <defs>
      <path id="DejaVuSans-Bold-31" d="M 750 831 
L 1813 831 
L 1813 3847 
L 722 3622 
L 722 4441 
L 1806 4666 
L 2950 4666 
L 2950 831 
L 4013 831 
L 4013 0 
L 750 0 
L 750 831 
z
" transform="scale(0.015625)"/>
     </defs>
     <use xlink:href="#DejaVuSans-Bold-2b"/>
     <use xlink:href="#DejaVuSans-Bold-31" transform="translate(83.789062 0)"/>
    </g>
   </g>
   <g id="text_18">
    <!-- 0 -->
    <g style="fill: #314f4f" transform="translate(668.000521 118.849524) scale(0.1 -0.1)">
     <use xlink:href="#DejaVuSans-Bold-30"/>
    </g>
   </g>
   <g id="text_19">
    <!-- +2 -->
    <g style="fill: #fb6107" transform="translate(668.000521 90.843017) scale(0.1 -0.1)">
     <use xlink:href="#DejaVuSans-Bold-2b"/>
     <use xlink:href="#DejaVuSans-Bold-32" transform="translate(83.789062 0)"/>
    </g>
   </g>
   <g id="text_20">
    <!-- 0 -->
    <g style="fill: #314f4f" transform="translate(668.000521 72.172012) scale(0.1 -0.1)">
     <use xlink:href="#DejaVuSans-Bold-30"/>
    </g>
   </g>
   <g id="text_21">
    <!-- +5 -->
    <g style="fill: #fb6107" transform="translate(668.000521 37.163878) scale(0.1 -0.1)">
     <use xlink:href="#DejaVuSans-Bold-2b"/>
     <use xlink:href="#DejaVuSans-Bold-35" transform="translate(83.789062 0)"/>
    </g>
   </g>
   <g id="text_22">
    <!-- Each user vs their own past: every B ticked up, every A stayed flat -->
    <g transform="translate(195.449453 17.077969) scale(0.13 -0.13)">
     <defs>
      <path id="DejaVuSans-45" d="M 628 4666 
L 3578 4666 
L 3578 4134 
L 1259 4134 
L 1259 2753 
L 3481 2753 
L 3481 2222 
L 1259 2222 
L 1259 531 
L 3634 531 
L 3634 0 
L 628 0 
L 628 4666 
z
" transform="scale(0.015625)"/>
      <path id="DejaVuSans-61" d="M 2194 1759 
Q 1497 1759 1228 1600 
Q 959 1441 959 1056 
Q 959 750 1161 570 
Q 1363 391 1709 391 
Q 2188 391 2477 730 
Q 2766 1069 2766 1631 
L 2766 1759 
L 2194 1759 
z
M 3341 1997 
L 3341 0 
L 2766 0 
L 2766 531 
Q 2569 213 2275 61 
Q 1981 -91 1556 -91 
Q 1019 -91 701 211 
Q 384 513 384 1019 
Q 384 1609 779 1909 
Q 1175 2209 1959 2209 
L 2766 2209 
L 2766 2266 
Q 2766 2663 2505 2880 
Q 2244 3097 1772 3097 
Q 1472 3097 1187 3025 
Q 903 2953 641 2809 
L 641 3341 
Q 956 3463 1253 3523 
Q 1550 3584 1831 3584 
Q 2591 3584 2966 3190 
Q 3341 2797 3341 1997 
z
" transform="scale(0.015625)"/>
      <path id="DejaVuSans-63" d="M 3122 3366 
L 3122 2828 
Q 2878 2963 2633 3030 
Q 2388 3097 2138 3097 
Q 1578 3097 1268 2742 
Q 959 2388 959 1747 
Q 959 1106 1268 751 
Q 1578 397 2138 397 
Q 2388 397 2633 464 
Q 2878 531 3122 666 
L 3122 134 
Q 2881 22 2623 -34 
Q 2366 -91 2075 -91 
Q 1284 -91 818 406 
Q 353 903 353 1747 
Q 353 2603 823 3093 
Q 1294 3584 2113 3584 
Q 2378 3584 2631 3529 
Q 2884 3475 3122 3366 
z
" transform="scale(0.015625)"/>
      <path id="DejaVuSans-68" d="M 3513 2113 
L 3513 0 
L 2938 0 
L 2938 2094 
Q 2938 2591 2744 2837 
Q 2550 3084 2163 3084 
Q 1697 3084 1428 2787 
Q 1159 2491 1159 1978 
L 1159 0 
L 581 0 
L 581 4863 
L 1159 4863 
L 1159 2956 
Q 1366 3272 1645 3428 
Q 1925 3584 2291 3584 
Q 2894 3584 3203 3211 
Q 3513 2838 3513 2113 
z
" transform="scale(0.015625)"/>
      <path id="DejaVuSans-73" d="M 2834 3397 
L 2834 2853 
Q 2591 2978 2328 3040 
Q 2066 3103 1784 3103 
Q 1356 3103 1142 2972 
Q 928 2841 928 2578 
Q 928 2378 1081 2264 
Q 1234 2150 1697 2047 
L 1894 2003 
Q 2506 1872 2764 1633 
Q 3022 1394 3022 966 
Q 3022 478 2636 193 
Q 2250 -91 1575 -91 
Q 1294 -91 989 -36 
Q 684 19 347 128 
L 347 722 
Q 666 556 975 473 
Q 1284 391 1588 391 
Q 1994 391 2212 530 
Q 2431 669 2431 922 
Q 2431 1156 2273 1281 
Q 2116 1406 1581 1522 
L 1381 1569 
Q 847 1681 609 1914 
Q 372 2147 372 2553 
Q 372 3047 722 3315 
Q 1072 3584 1716 3584 
Q 2034 3584 2315 3537 
Q 2597 3491 2834 3397 
z
" transform="scale(0.015625)"/>
      <path id="DejaVuSans-74" d="M 1172 4494 
L 1172 3500 
L 2356 3500 
L 2356 3053 
L 1172 3053 
L 1172 1153 
Q 1172 725 1289 603 
Q 1406 481 1766 481 
L 2356 481 
L 2356 0 
L 1766 0 
Q 1100 0 847 248 
Q 594 497 594 1153 
L 594 3053 
L 172 3053 
L 172 3500 
L 594 3500 
L 594 4494 
L 1172 4494 
z
" transform="scale(0.015625)"/>
      <path id="DejaVuSans-69" d="M 603 3500 
L 1178 3500 
L 1178 0 
L 603 0 
L 603 3500 
z
M 603 4863 
L 1178 4863 
L 1178 4134 
L 603 4134 
L 603 4863 
z
" transform="scale(0.015625)"/>
      <path id="DejaVuSans-6f" d="M 1959 3097 
Q 1497 3097 1228 2736 
Q 959 2375 959 1747 
Q 959 1119 1226 758 
Q 1494 397 1959 397 
Q 2419 397 2687 759 
Q 2956 1122 2956 1747 
Q 2956 2369 2687 2733 
Q 2419 3097 1959 3097 
z
M 1959 3584 
Q 2709 3584 3137 3096 
Q 3566 2609 3566 1747 
Q 3566 888 3137 398 
Q 2709 -91 1959 -91 
Q 1206 -91 779 398 
Q 353 888 353 1747 
Q 353 2609 779 3096 
Q 1206 3584 1959 3584 
z
" transform="scale(0.015625)"/>
      <path id="DejaVuSans-70" d="M 1159 525 
L 1159 -1331 
L 581 -1331 
L 581 3500 
L 1159 3500 
L 1159 2969 
Q 1341 3281 1617 3432 
Q 1894 3584 2278 3584 
Q 2916 3584 3314 3078 
Q 3713 2572 3713 1747 
Q 3713 922 3314 415 
Q 2916 -91 2278 -91 
Q 1894 -91 1617 61 
Q 1341 213 1159 525 
z
M 3116 1747 
Q 3116 2381 2855 2742 
Q 2594 3103 2138 3103 
Q 1681 3103 1420 2742 
Q 1159 2381 1159 1747 
Q 1159 1113 1420 752 
Q 1681 391 2138 391 
Q 2594 391 2855 752 
Q 3116 1113 3116 1747 
z
" transform="scale(0.015625)"/>
      <path id="DejaVuSans-3a" d="M 750 794 
L 1409 794 
L 1409 0 
L 750 0 
L 750 794 
z
M 750 3309 
L 1409 3309 
L 1409 2516 
L 750 2516 
L 750 3309 
z
" transform="scale(0.015625)"/>
      <path id="DejaVuSans-79" d="M 2059 -325 
Q 1816 -950 1584 -1140 
Q 1353 -1331 966 -1331 
L 506 -1331 
L 506 -850 
L 844 -850 
Q 1081 -850 1212 -737 
Q 1344 -625 1503 -206 
L 1606 56 
L 191 3500 
L 800 3500 
L 1894 763 
L 2988 3500 
L 3597 3500 
L 2059 -325 
z
" transform="scale(0.015625)"/>
      <path id="DejaVuSans-42" d="M 1259 2228 
L 1259 519 
L 2272 519 
Q 2781 519 3026 730 
Q 3272 941 3272 1375 
Q 3272 1813 3026 2020 
Q 2781 2228 2272 2228 
L 1259 2228 
z
M 1259 4147 
L 1259 2741 
L 2194 2741 
Q 2656 2741 2882 2914 
Q 3109 3088 3109 3444 
Q 3109 3797 2882 3972 
Q 2656 4147 2194 4147 
L 1259 4147 
z
M 628 4666 
L 2241 4666 
Q 2963 4666 3353 4366 
Q 3744 4066 3744 3513 
Q 3744 3084 3544 2831 
Q 3344 2578 2956 2516 
Q 3422 2416 3680 2098 
Q 3938 1781 3938 1306 
Q 3938 681 3513 340 
Q 3088 0 2303 0 
L 628 0 
L 628 4666 
z
" transform="scale(0.015625)"/>
      <path id="DejaVuSans-64" d="M 2906 2969 
L 2906 4863 
L 3481 4863 
L 3481 0 
L 2906 0 
L 2906 525 
Q 2725 213 2448 61 
Q 2172 -91 1784 -91 
Q 1150 -91 751 415 
Q 353 922 353 1747 
Q 353 2572 751 3078 
Q 1150 3584 1784 3584 
Q 2172 3584 2448 3432 
Q 2725 3281 2906 2969 
z
M 947 1747 
Q 947 1113 1208 752 
Q 1469 391 1925 391 
Q 2381 391 2643 752 
Q 2906 1113 2906 1747 
Q 2906 2381 2643 2742 
Q 2381 3103 1925 3103 
Q 1469 3103 1208 2742 
Q 947 2381 947 1747 
z
" transform="scale(0.015625)"/>
      <path id="DejaVuSans-66" d="M 2375 4863 
L 2375 4384 
L 1825 4384 
Q 1516 4384 1395 4259 
Q 1275 4134 1275 3809 
L 1275 3500 
L 2222 3500 
L 2222 3053 
L 1275 3053 
L 1275 0 
L 697 0 
L 697 3053 
L 147 3053 
L 147 3500 
L 697 3500 
L 697 3744 
Q 697 4328 969 4595 
Q 1241 4863 1831 4863 
L 2375 4863 
z
" transform="scale(0.015625)"/>
      <path id="DejaVuSans-6c" d="M 603 4863 
L 1178 4863 
L 1178 0 
L 603 0 
L 603 4863 
z
" transform="scale(0.015625)"/>
     </defs>
     <use xlink:href="#DejaVuSans-45"/>
     <use xlink:href="#DejaVuSans-61" transform="translate(63.183594 0)"/>
     <use xlink:href="#DejaVuSans-63" transform="translate(124.462891 0)"/>
     <use xlink:href="#DejaVuSans-68" transform="translate(179.443359 0)"/>
     <use xlink:href="#DejaVuSans-20" transform="translate(242.822266 0)"/>
     <use xlink:href="#DejaVuSans-75" transform="translate(274.609375 0)"/>
     <use xlink:href="#DejaVuSans-73" transform="translate(337.988281 0)"/>
     <use xlink:href="#DejaVuSans-65" transform="translate(390.087891 0)"/>
     <use xlink:href="#DejaVuSans-72" transform="translate(451.611328 0)"/>
     <use xlink:href="#DejaVuSans-20" transform="translate(492.724609 0)"/>
     <use xlink:href="#DejaVuSans-76" transform="translate(524.511719 0)"/>
     <use xlink:href="#DejaVuSans-73" transform="translate(583.691406 0)"/>
     <use xlink:href="#DejaVuSans-20" transform="translate(635.791016 0)"/>
     <use xlink:href="#DejaVuSans-74" transform="translate(667.578125 0)"/>
     <use xlink:href="#DejaVuSans-68" transform="translate(706.787109 0)"/>
     <use xlink:href="#DejaVuSans-65" transform="translate(770.166016 0)"/>
     <use xlink:href="#DejaVuSans-69" transform="translate(831.689453 0)"/>
     <use xlink:href="#DejaVuSans-72" transform="translate(859.472656 0)"/>
     <use xlink:href="#DejaVuSans-20" transform="translate(900.585938 0)"/>
     <use xlink:href="#DejaVuSans-6f" transform="translate(932.373047 0)"/>
     <use xlink:href="#DejaVuSans-77" transform="translate(993.554688 0)"/>
     <use xlink:href="#DejaVuSans-6e" transform="translate(1075.341797 0)"/>
     <use xlink:href="#DejaVuSans-20" transform="translate(1138.720703 0)"/>
     <use xlink:href="#DejaVuSans-70" transform="translate(1170.507812 0)"/>
     <use xlink:href="#DejaVuSans-61" transform="translate(1233.984375 0)"/>
     <use xlink:href="#DejaVuSans-73" transform="translate(1295.263672 0)"/>
     <use xlink:href="#DejaVuSans-74" transform="translate(1347.363281 0)"/>
     <use xlink:href="#DejaVuSans-3a" transform="translate(1386.572266 0)"/>
     <use xlink:href="#DejaVuSans-20" transform="translate(1420.263672 0)"/>
     <use xlink:href="#DejaVuSans-65" transform="translate(1452.050781 0)"/>
     <use xlink:href="#DejaVuSans-76" transform="translate(1513.574219 0)"/>
     <use xlink:href="#DejaVuSans-65" transform="translate(1572.753906 0)"/>
     <use xlink:href="#DejaVuSans-72" transform="translate(1634.277344 0)"/>
     <use xlink:href="#DejaVuSans-79" transform="translate(1675.390625 0)"/>
     <use xlink:href="#DejaVuSans-20" transform="translate(1734.570312 0)"/>
     <use xlink:href="#DejaVuSans-42" transform="translate(1766.357422 0)"/>
     <use xlink:href="#DejaVuSans-20" transform="translate(1834.960938 0)"/>
     <use xlink:href="#DejaVuSans-74" transform="translate(1866.748047 0)"/>
     <use xlink:href="#DejaVuSans-69" transform="translate(1905.957031 0)"/>
     <use xlink:href="#DejaVuSans-63" transform="translate(1933.740234 0)"/>
     <use xlink:href="#DejaVuSans-6b" transform="translate(1988.720703 0)"/>
     <use xlink:href="#DejaVuSans-65" transform="translate(2043.005859 0)"/>
     <use xlink:href="#DejaVuSans-64" transform="translate(2104.529297 0)"/>
     <use xlink:href="#DejaVuSans-20" transform="translate(2168.005859 0)"/>
     <use xlink:href="#DejaVuSans-75" transform="translate(2199.792969 0)"/>
     <use xlink:href="#DejaVuSans-70" transform="translate(2263.171875 0)"/>
     <use xlink:href="#DejaVuSans-2c" transform="translate(2326.648438 0)"/>
     <use xlink:href="#DejaVuSans-20" transform="translate(2358.435547 0)"/>
     <use xlink:href="#DejaVuSans-65" transform="translate(2390.222656 0)"/>
     <use xlink:href="#DejaVuSans-76" transform="translate(2451.746094 0)"/>
     <use xlink:href="#DejaVuSans-65" transform="translate(2510.925781 0)"/>
     <use xlink:href="#DejaVuSans-72" transform="translate(2572.449219 0)"/>
     <use xlink:href="#DejaVuSans-79" transform="translate(2613.5625 0)"/>
     <use xlink:href="#DejaVuSans-20" transform="translate(2672.742188 0)"/>
     <use xlink:href="#DejaVuSans-41" transform="translate(2704.529297 0)"/>
     <use xlink:href="#DejaVuSans-20" transform="translate(2772.9375 0)"/>
     <use xlink:href="#DejaVuSans-73" transform="translate(2804.724609 0)"/>
     <use xlink:href="#DejaVuSans-74" transform="translate(2856.824219 0)"/>
     <use xlink:href="#DejaVuSans-61" transform="translate(2896.033203 0)"/>
     <use xlink:href="#DejaVuSans-79" transform="translate(2957.3125 0)"/>
     <use xlink:href="#DejaVuSans-65" transform="translate(3016.492188 0)"/>
     <use xlink:href="#DejaVuSans-64" transform="translate(3078.015625 0)"/>
     <use xlink:href="#DejaVuSans-20" transform="translate(3141.492188 0)"/>
     <use xlink:href="#DejaVuSans-66" transform="translate(3173.279297 0)"/>
     <use xlink:href="#DejaVuSans-6c" transform="translate(3208.484375 0)"/>
     <use xlink:href="#DejaVuSans-61" transform="translate(3236.267578 0)"/>
     <use xlink:href="#DejaVuSans-74" transform="translate(3297.546875 0)"/>
    </g>
   </g>
  </g>
 </g>
 <defs>
  <clipPath id="p6c871e50ec">
   <rect x="49.842188" y="23.077969" width="724.99" height="243.89"/>
  </clipPath>
 </defs>
</svg>
